<svg width="16" height="16" viewBox="0 0 16 16" fill="none" xmlns="http://www.w3.org/2000/svg">
<path d="M4.25 12.8417C4.25 13.5734 3.65678 14.1667 2.925 14.1667C2.19322 14.1667 1.6 13.5734 1.6 12.8417V8.29167C1.6 7.55989 2.19322 6.96667 2.925 6.96667C3.65678 6.96667 4.25 7.55989 4.25 8.29167V12.8417ZM8 1.6C8.73178 1.6 9.325 2.19322 9.325 2.925V12.8417C9.325 13.5734 8.73178 14.1667 8 14.1667C7.26822 14.1667 6.675 13.5734 6.675 12.8417V2.925C6.675 2.19322 7.26822 1.6 8 1.6ZM13.075 8.36667C13.8068 8.36667 14.4 8.95989 14.4 9.69167V12.8417C14.4 13.5734 13.8068 14.1667 13.075 14.1667C12.3432 14.1667 11.75 13.5734 11.75 12.8417V9.69167C11.75 8.95989 12.3432 8.36667 13.075 8.36667Z" stroke="#9E9E9E" stroke-width="1.2"/>
</svg>
