<svg width="16" height="16" viewBox="0 0 16 16" fill="none" xmlns="http://www.w3.org/2000/svg">
<path fill-rule="evenodd" clip-rule="evenodd" d="M7.29096 11.4534V6.54428C7.29096 6.13258 6.95721 5.79883 6.5455 5.79883C6.1338 5.79883 5.80005 6.13258 5.80005 6.54428V11.4534C5.80005 11.8651 6.1338 12.1988 6.5455 12.1988C6.95721 12.1988 7.29096 11.8651 7.29096 11.4534Z" fill="#485F7D"/>
<path fill-rule="evenodd" clip-rule="evenodd" d="M10.2 11.4534V6.54428C10.2 6.13258 9.8663 5.79883 9.45459 5.79883C9.04289 5.79883 8.70914 6.13258 8.70914 6.54428V11.4534C8.70914 11.8651 9.04289 12.1988 9.45459 12.1988C9.8663 12.1988 10.2 11.8651 10.2 11.4534Z" fill="#485F7D"/>
<path fill-rule="evenodd" clip-rule="evenodd" d="M4.665 3.65918L4.67822 3.65901C4.96222 3.65901 5.20889 3.45634 5.26489 3.17767L5.42689 2.36701C5.59156 1.74567 6.12956 1.33301 6.74156 1.33301H9.56356C10.1756 1.33301 10.7136 1.74567 10.8716 2.33701L11.0409 3.17767C11.0962 3.45634 11.3429 3.65901 11.6269 3.65901L11.6401 3.65918H13.8053C14.0813 3.65918 14.3053 3.88318 14.3053 4.15918C14.3053 4.43518 14.0813 4.65918 13.8053 4.65918H13.364C13.2883 5.9722 12.9901 11.1099 12.8086 12.7474C12.6792 13.9121 11.9099 14.6208 10.7486 14.6421C9.85989 14.6574 9.00256 14.6661 8.16456 14.6661C7.26123 14.6661 6.38056 14.6561 5.50923 14.6381C4.39456 14.6161 3.62323 13.8934 3.49723 12.7521C3.31402 11.1004 3.01716 5.97091 2.94217 4.65918H2.5C2.224 4.65918 2 4.43518 2 4.15918C2 3.88318 2.224 3.65918 2.5 3.65918H4.665ZM10.1457 3.65918C10.1089 3.56835 10.0801 3.47314 10.0602 3.37434L9.89822 2.56367C9.86422 2.44034 9.72356 2.33301 9.56356 2.33301H6.74156C6.58156 2.33301 6.44089 2.44034 6.40022 2.59434L6.24489 3.37434C6.22515 3.47314 6.1964 3.56835 6.15962 3.65918H10.1457ZM3.94345 4.65918H12.3627C12.2804 6.08723 11.9914 11.044 11.8146 12.6374C11.7412 13.3014 11.3866 13.6294 10.7306 13.6421C8.89723 13.6754 7.19656 13.6734 5.52989 13.6381C4.91256 13.6254 4.56256 13.2908 4.49123 12.6421C4.31332 11.0352 4.02518 6.0859 3.94345 4.65918Z" fill="#485F7D"/>
</svg>
