<svg width="14" height="14" viewBox="0 0 14 14" fill="none" xmlns="http://www.w3.org/2000/svg">
<path d="M2.38121 2.76371L2.38121 2.76378C2.6753 2.75583 2.94665 2.96295 2.97107 3.26777L2.97109 3.26809L2.97109 3.26809C2.97138 3.27203 2.97404 3.31856 2.97878 3.40173C3.03214 4.33765 3.35 9.91317 3.54092 11.6376L3.54093 11.6376C3.57576 11.9544 3.67786 12.1877 3.8404 12.3435C4.00261 12.4989 4.23114 12.583 4.53092 12.5891L4.53095 12.5891C6.19691 12.6244 7.8969 12.6264 9.7296 12.5931C10.0497 12.5869 10.289 12.504 10.4571 12.3483C10.6253 12.1925 10.729 11.9574 10.7649 11.6329L10.7649 11.6329C10.9486 9.97734 11.2525 4.70282 11.3213 3.50889C11.3298 3.36151 11.3347 3.27631 11.3354 3.26777L2.38121 2.76371ZM2.38121 2.76371L2.37858 2.76392M2.38121 2.76371L2.37858 2.76392M2.37858 2.76392C2.0757 2.78812 1.84979 3.0536 1.87473 3.35653L1.92456 3.35243L2.37858 2.76392ZM11.9273 2.76386L11.9273 2.76393C12.23 2.78885 12.4559 3.05348 12.4317 3.35641L12.4317 3.35682L12.4317 3.35704C12.4317 3.35758 12.4315 3.35917 12.4314 3.3623L12.4304 3.37813L12.427 3.43646L12.4146 3.65211C12.4039 3.83715 12.3886 4.10111 12.3698 4.42245C12.3321 5.06512 12.2801 5.93734 12.2216 6.86681C12.1048 8.72513 11.9624 10.8142 11.8583 11.7539C11.7925 12.3461 11.5634 12.8264 11.1994 13.1613C10.8354 13.4963 10.3403 13.6822 9.74948 13.6931L9.74942 13.6931C8.86053 13.7084 8.0029 13.7171 7.16456 13.7171C6.26087 13.7171 5.37988 13.7071 4.50824 13.6891L11.9273 2.76386ZM11.9273 2.76386L11.9248 2.76378M11.9273 2.76386L11.9248 2.76378M11.9248 2.76378C11.629 2.75438 11.36 2.96311 11.3354 3.26736L11.9248 2.76378Z" fill="#485F7D" stroke="#485F7D" stroke-width="0.1"/>
<mask id="path-2-outside-1_2138_3610" maskUnits="userSpaceOnUse" x="0" y="1.66016" width="14" height="3" fill="black">
<rect fill="white" y="1.66016" width="14" height="3"/>
<path fill-rule="evenodd" clip-rule="evenodd" d="M12.8053 3.66016H1.5C1.224 3.66016 1 3.43616 1 3.16016C1 2.88416 1.224 2.66016 1.5 2.66016H12.8053C13.0813 2.66016 13.3053 2.88416 13.3053 3.16016C13.3053 3.43616 13.0813 3.66016 12.8053 3.66016Z"/>
</mask>
<path fill-rule="evenodd" clip-rule="evenodd" d="M12.8053 3.66016H1.5C1.224 3.66016 1 3.43616 1 3.16016C1 2.88416 1.224 2.66016 1.5 2.66016H12.8053C13.0813 2.66016 13.3053 2.88416 13.3053 3.16016C13.3053 3.43616 13.0813 3.66016 12.8053 3.66016Z" fill="#485F7D"/>
<path d="M12.8053 3.56016H1.5V3.76016H12.8053V3.56016ZM1.5 3.56016C1.27923 3.56016 1.1 3.38093 1.1 3.16016H0.9C0.9 3.49138 1.16877 3.76016 1.5 3.76016V3.56016ZM1.1 3.16016C1.1 2.93938 1.27923 2.76016 1.5 2.76016V2.56016C1.16877 2.56016 0.9 2.82893 0.9 3.16016H1.1ZM1.5 2.76016H12.8053V2.56016H1.5V2.76016ZM12.8053 2.76016C13.0261 2.76016 13.2053 2.93938 13.2053 3.16016H13.4053C13.4053 2.82893 13.1366 2.56016 12.8053 2.56016V2.76016ZM13.2053 3.16016C13.2053 3.38093 13.0261 3.56016 12.8053 3.56016V3.76016C13.1366 3.76016 13.4053 3.49138 13.4053 3.16016H13.2053Z" fill="#485F7D" mask="url(#path-2-outside-1_2138_3610)"/>
<mask id="path-4-outside-2_2138_3610" maskUnits="userSpaceOnUse" x="2.17822" y="-0.666016" width="10" height="5" fill="black">
<rect fill="white" x="2.17822" y="-0.666016" width="10" height="5"/>
<path fill-rule="evenodd" clip-rule="evenodd" d="M10.6269 3.65998C9.86822 3.65998 9.20956 3.11932 9.06022 2.37532L8.89822 1.56465C8.86422 1.44132 8.72356 1.33398 8.56356 1.33398H5.74156C5.58156 1.33398 5.44089 1.44132 5.40022 1.59532L5.24489 2.37532C5.09622 3.11932 4.43689 3.65998 3.67822 3.65998C3.40222 3.65998 3.17822 3.43598 3.17822 3.15998C3.17822 2.88398 3.40222 2.65998 3.67822 2.65998C3.96222 2.65998 4.20889 2.45732 4.26489 2.17865L4.42689 1.36798C4.59156 0.746651 5.12956 0.333984 5.74156 0.333984H8.56356C9.17556 0.333984 9.71356 0.746651 9.87156 1.33798L10.0409 2.17865C10.0962 2.45732 10.3429 2.65998 10.6269 2.65998C10.9029 2.65998 11.1269 2.88398 11.1269 3.15998C11.1269 3.43598 10.9029 3.65998 10.6269 3.65998Z"/>
</mask>
<path fill-rule="evenodd" clip-rule="evenodd" d="M10.6269 3.65998C9.86822 3.65998 9.20956 3.11932 9.06022 2.37532L8.89822 1.56465C8.86422 1.44132 8.72356 1.33398 8.56356 1.33398H5.74156C5.58156 1.33398 5.44089 1.44132 5.40022 1.59532L5.24489 2.37532C5.09622 3.11932 4.43689 3.65998 3.67822 3.65998C3.40222 3.65998 3.17822 3.43598 3.17822 3.15998C3.17822 2.88398 3.40222 2.65998 3.67822 2.65998C3.96222 2.65998 4.20889 2.45732 4.26489 2.17865L4.42689 1.36798C4.59156 0.746651 5.12956 0.333984 5.74156 0.333984H8.56356C9.17556 0.333984 9.71356 0.746651 9.87156 1.33798L10.0409 2.17865C10.0962 2.45732 10.3429 2.65998 10.6269 2.65998C10.9029 2.65998 11.1269 2.88398 11.1269 3.15998C11.1269 3.43598 10.9029 3.65998 10.6269 3.65998Z" fill="#485F7D"/>
<path d="M9.06022 2.37532L8.96216 2.39491L8.96218 2.395L9.06022 2.37532ZM8.89822 1.56465L8.99654 1.545L8.99463 1.53807L8.89822 1.56465ZM5.40022 1.59532L5.30335 1.56974L5.30215 1.57579L5.40022 1.59532ZM5.24489 2.37532L5.34295 2.39491L5.34296 2.39485L5.24489 2.37532ZM4.26489 2.17865L4.36293 2.19835L4.36295 2.19825L4.26489 2.17865ZM4.42689 1.36798L4.33004 1.34232L4.32883 1.34839L4.42689 1.36798ZM9.87156 1.33798L9.96978 1.3182L9.96817 1.31217L9.87156 1.33798ZM10.0409 2.17865L10.139 2.15917L10.1389 2.1589L10.0409 2.17865ZM10.6269 3.55998C9.91597 3.55998 9.29825 3.05303 9.15827 2.35564L8.96218 2.395C9.12087 3.1856 9.82048 3.75998 10.6269 3.75998V3.55998ZM9.15828 2.35572L8.99628 1.54505L8.80016 1.58425L8.96216 2.39491L9.15828 2.35572ZM8.99463 1.53807C8.94724 1.36619 8.76294 1.23398 8.56356 1.23398V1.43398C8.68417 1.43398 8.7812 1.51645 8.80182 1.59123L8.99463 1.53807ZM8.56356 1.23398H5.74156V1.43398H8.56356V1.23398ZM5.74156 1.23398C5.53673 1.23398 5.35594 1.37135 5.30354 1.56979L5.49691 1.62085C5.52584 1.51129 5.62638 1.43398 5.74156 1.43398V1.23398ZM5.30215 1.57579L5.14682 2.35579L5.34296 2.39485L5.4983 1.61485L5.30215 1.57579ZM5.14683 2.35572C5.0075 3.05298 4.38921 3.55998 3.67822 3.55998V3.75998C4.48457 3.75998 5.18494 3.18566 5.34295 2.39491L5.14683 2.35572ZM3.67822 3.55998C3.45745 3.55998 3.27822 3.38076 3.27822 3.15998H3.07822C3.07822 3.49121 3.34699 3.75998 3.67822 3.75998V3.55998ZM3.27822 3.15998C3.27822 2.93921 3.45745 2.75998 3.67822 2.75998V2.55998C3.34699 2.55998 3.07822 2.82876 3.07822 3.15998H3.27822ZM3.67822 2.75998C4.01004 2.75998 4.29758 2.52354 4.36293 2.19835L4.16685 2.15895C4.1202 2.39109 3.91441 2.55998 3.67822 2.55998V2.75998ZM4.36295 2.19825L4.52495 1.38758L4.32883 1.34839L4.16683 2.15905L4.36295 2.19825ZM4.52355 1.3936C4.67691 0.814958 5.17611 0.433984 5.74156 0.433984V0.233984C5.08301 0.233984 4.50621 0.678344 4.33023 1.34237L4.52355 1.3936ZM5.74156 0.433984H8.56356V0.233984H5.74156V0.433984ZM8.56356 0.433984C9.13032 0.433984 9.62865 0.816264 9.77495 1.3638L9.96817 1.31217C9.79846 0.677038 9.22079 0.233984 8.56356 0.233984V0.433984ZM9.77353 1.35773L9.94286 2.1984L10.1389 2.1589L9.96959 1.31824L9.77353 1.35773ZM9.9428 2.19813C10.0074 2.52355 10.2951 2.75998 10.6269 2.75998V2.55998C10.3907 2.55998 10.185 2.39109 10.139 2.15917L9.9428 2.19813ZM10.6269 2.75998C10.8477 2.75998 11.0269 2.93921 11.0269 3.15998H11.2269C11.2269 2.82876 10.9581 2.55998 10.6269 2.55998V2.75998ZM11.0269 3.15998C11.0269 3.38076 10.8477 3.55998 10.6269 3.55998V3.75998C10.9581 3.75998 11.2269 3.49121 11.2269 3.15998H11.0269Z" fill="#485F7D" mask="url(#path-4-outside-2_2138_3610)"/>
<path d="M6.19091 10.4545V5.54545C6.19091 5.18898 5.90193 4.9 5.54545 4.9C5.18898 4.9 4.9 5.18898 4.9 5.54545V10.4545C4.9 10.811 5.18898 11.1 5.54545 11.1C5.90193 11.1 6.19091 10.811 6.19091 10.4545ZM9.1 10.4545V5.54545C9.1 5.18898 8.81102 4.9 8.45455 4.9C8.09807 4.9 7.80909 5.18898 7.80909 5.54545V10.4545C7.80909 10.811 8.09807 11.1 8.45455 11.1C8.81102 11.1 9.1 10.811 9.1 10.4545Z" fill="#485F7D" stroke="#485F7D" stroke-width="0.2"/>
</svg>
