<svg width="16" height="16" viewBox="0 0 16 16" fill="none" xmlns="http://www.w3.org/2000/svg">
<path d="M1.86425 10.0796L2.28852 10.5038L1.86425 10.0796C1.69413 10.2497 1.6002 10.4724 1.6002 10.7158V12.5058C1.6002 13.002 1.99836 13.4002 2.4946 13.4002H4.28457C4.50374 13.4002 4.74357 13.3182 4.92277 13.1283L11.3445 6.71245L11.7691 6.28818L11.769 6.28799L11.9747 6.08223L13.0522 5.00471C13.5162 4.54076 13.5162 3.78992 13.0522 3.32597L12.628 3.75023L13.0522 3.32597L11.6744 1.94816C11.2105 1.48421 10.4596 1.48421 9.99568 1.94816L8.91816 3.02567L8.7124 3.23143L8.4939 3.44994L8.28814 3.6557L1.86425 10.0796Z" stroke="#9E9E9E" stroke-width="1.4"/>
</svg>