<svg width="16" height="16" viewBox="0 0 16 16" fill="none" xmlns="http://www.w3.org/2000/svg">
<path d="M12.8405 5.30769H8.9932V3.69231V2.89556C8.9932 2.3935 8.71065 1.93417 8.26253 1.70776C7.52898 1.33714 6.63817 1.71344 6.39247 2.49771L4.5 8.53846H1.8C1.35817 8.53846 1 8.89663 1 9.33846V14.2C1 14.6418 1.35817 15 1.8 15H4.5H9.7392C10.458 15 11.1646 14.8148 11.791 14.4621C12.8738 13.8526 13.6294 12.7931 13.8532 11.5709L14.6111 7.43188C14.8135 6.32633 13.9644 5.30769 12.8405 5.30769Z" fill="#FF60B5"/>
<path d="M4.5 8.53846L6.39247 2.49771C6.63817 1.71344 7.52898 1.33714 8.26253 1.70776V1.70776C8.71065 1.93417 8.9932 2.3935 8.9932 2.89556V3.69231V5.30769H12.8405C13.9644 5.30769 14.8135 6.32633 14.6111 7.43188L13.8532 11.5709C13.6294 12.7931 12.8738 13.8526 11.791 14.4621V14.4621C11.1646 14.8148 10.458 15 9.7392 15L4.5 15M4.5 8.53846H1.8C1.35817 8.53846 1 8.89663 1 9.33846V14.2C1 14.6418 1.35817 15 1.8 15H4.5M4.5 8.53846V15" stroke="#1F1F21"/>
</svg>
