<svg width="16" height="16" viewBox="0 0 16 16" fill="none" xmlns="http://www.w3.org/2000/svg">
<path d="M10.9119 10.6355H4.176V14.0273C4.176 14.3436 3.91274 14.6 3.588 14.6C3.26326 14.6 3 14.3436 3 14.0273V2.57273C3 2.25642 3.26326 2 3.588 2H10.9119C11.6826 2 12.2754 2.46148 12.5717 3.03745C12.8675 3.61234 12.899 4.34977 12.5286 4.99615L12.1767 5.61029C11.9299 6.04118 11.9299 6.59435 12.1767 7.02524L12.5286 7.63938C12.899 8.28576 12.8675 9.02319 12.5717 9.59808C12.2754 10.174 11.6826 10.6355 10.9119 10.6355Z" fill="#E5007A" fill-opacity="0.6"/>
</svg>
