<svg width="16" height="16" viewBox="0 0 16 16" fill="none" xmlns="http://www.w3.org/2000/svg">
<path d="M5.78925 8.89462C5.9241 8.62543 6 8.32158 6 8C6 7.67842 5.9241 7.37457 5.78925 7.10538M5.78925 8.89462C5.46089 9.55006 4.78299 10 4 10C2.89543 10 2 9.10457 2 8C2 6.89543 2.89543 6 4 6C4.78299 6 5.46089 6.44994 5.78925 7.10538M5.78925 8.89462L10.2108 11.1054M5.78925 7.10538L10.2108 4.89462M10.2108 4.89462C10.5391 5.55006 11.217 6 12 6C13.1046 6 14 5.10457 14 4C14 2.89543 13.1046 2 12 2C10.8954 2 10 2.89543 10 4C10 4.32158 10.0759 4.62543 10.2108 4.89462ZM10.2108 11.1054C10.0759 11.3746 10 11.6784 10 12C10 13.1046 10.8954 14 12 14C13.1046 14 14 13.1046 14 12C14 10.8954 13.1046 10 12 10C11.217 10 10.5391 10.4499 10.2108 11.1054Z" stroke="#9E9E9E" stroke-width="1.6" stroke-linecap="round" stroke-linejoin="round"/>
<path d="M5.78925 8.89462C5.9241 8.62543 6 8.32158 6 8C6 7.67842 5.9241 7.37457 5.78925 7.10538M5.78925 8.89462C5.46089 9.55006 4.78299 10 4 10C2.89543 10 2 9.10457 2 8C2 6.89543 2.89543 6 4 6C4.78299 6 5.46089 6.44994 5.78925 7.10538M5.78925 8.89462L10.2108 11.1054M5.78925 7.10538L10.2108 4.89462M10.2108 4.89462C10.5391 5.55006 11.217 6 12 6C13.1046 6 14 5.10457 14 4C14 2.89543 13.1046 2 12 2C10.8954 2 10 2.89543 10 4C10 4.32158 10.0759 4.62543 10.2108 4.89462ZM10.2108 11.1054C10.0759 11.3746 10 11.6784 10 12C10 13.1046 10.8954 14 12 14C13.1046 14 14 13.1046 14 12C14 10.8954 13.1046 10 12 10C11.217 10 10.5391 10.4499 10.2108 11.1054Z" stroke="#9E9E9E" stroke-width="1.6" stroke-linecap="round" stroke-linejoin="round"/>
</svg>
