<svg width="16" height="16" viewBox="0 0 16 16" fill="none" xmlns="http://www.w3.org/2000/svg">
<g clip-path="url(#clip0_2079_13692)">
<path d="M2.43232 4C2.43232 2.78497 3.4173 1.8 4.63232 1.8H11.4323C12.6473 1.8 13.6323 2.78497 13.6323 4V13.3915C13.6323 14.334 12.5956 14.9086 11.7963 14.4091L8.98632 12.6529C8.40264 12.288 7.66201 12.288 7.07833 12.6529L7.50233 13.3312L7.07833 12.6529L4.26832 14.4091C3.46907 14.9086 2.43232 14.334 2.43232 13.3915V4Z" stroke="#9E9E9E" stroke-width="1.6"/>
<path d="M2.43232 4C2.43232 2.78497 3.4173 1.8 4.63232 1.8H11.4323C12.6473 1.8 13.6323 2.78497 13.6323 4V13.3915C13.6323 14.334 12.5956 14.9086 11.7963 14.4091L8.98632 12.6529C8.40264 12.288 7.66201 12.288 7.07833 12.6529L7.50233 13.3312L7.07833 12.6529L4.26832 14.4091C3.46907 14.9086 2.43232 14.334 2.43232 13.3915V4Z" stroke="#9E9E9E" stroke-width="1.6"/>
</g>
<defs>
<clipPath id="clip0_2079_13692">
<rect width="16" height="16" fill="white"/>
</clipPath>
</defs>
</svg>
