<svg width="16" height="16" viewBox="0 0 16 16" fill="none" xmlns="http://www.w3.org/2000/svg">
<path d="M4.8001 8.00039C4.8001 8.88405 4.08375 9.60039 3.2001 9.60039C2.31644 9.60039 1.6001 8.88405 1.6001 8.00039C1.6001 7.11673 2.31644 6.40039 3.2001 6.40039C4.08375 6.40039 4.8001 7.11673 4.8001 8.00039Z" fill="#485F7D"/>
<path d="M9.6001 8.00039C9.6001 8.88405 8.88375 9.60039 8.0001 9.60039C7.11644 9.60039 6.4001 8.88405 6.4001 8.00039C6.4001 7.11673 7.11644 6.40039 8.0001 6.40039C8.88375 6.40039 9.6001 7.11673 9.6001 8.00039Z" fill="#485F7D"/>
<path d="M12.8001 9.60039C13.6838 9.60039 14.4001 8.88405 14.4001 8.00039C14.4001 7.11673 13.6838 6.40039 12.8001 6.40039C11.9164 6.40039 11.2001 7.11673 11.2001 8.00039C11.2001 8.88405 11.9164 9.60039 12.8001 9.60039Z" fill="#485F7D"/>
</svg>
