<svg width="20" height="20" fill="none" xmlns="http://www.w3.org/2000/svg"><path d="M6.717 1.137c-2.091.113-3.269.512-4.169 1.411-.917.918-1.295 2.059-1.414 4.269-.044.821-.044 5.545 0 6.366.119 2.21.497 3.351 1.414 4.269.917.916 2.061 1.295 4.269 1.414.821.044 5.545.044 6.366 0 2.208-.119 3.352-.498 4.269-1.414.917-.918 1.295-2.059 1.414-4.269.044-.821.044-5.545 0-6.366-.119-2.21-.497-3.351-1.414-4.269-.918-.917-2.059-1.295-4.269-1.414-.734-.039-5.728-.037-6.466.003m5.55 1.964c2.165.058 2.965.21 3.595.684.423.318.686.8.842 1.545.123.587.162 1.155.202 2.928.044 1.972-.001 4.881-.087 5.659-.232 2.082-.88 2.704-3.036 2.916-.743.074-3.723.112-5.508.072a52.605 52.605 0 0 1-2.058-.072c-2.156-.212-2.804-.834-3.036-2.916-.028-.253-.064-1.157-.087-2.175-.044-1.976.001-4.88.087-5.662.234-2.095.871-2.7 3.069-2.916.864-.084 4.009-.118 6.017-.063M9.73 4.877c-.322.091-.63.416-.696.735-.024.118-.032 1.525-.026 4.488l.009 4.317.077.156c.098.2.3.402.5.499.22.107.592.107.812 0 .2-.097.402-.299.5-.499l.077-.156V5.583l-.077-.156a1.166 1.166 0 0 0-.485-.491 1.127 1.127 0 0 0-.691-.059m4.166 3.334c-.322.091-.629.416-.695.736-.025.117-.033 1.023-.027 2.821l.009 2.649.077.156c.099.2.301.402.5.499.22.107.593.107.813 0 .199-.097.401-.299.5-.499l.077-.156v-5.5l-.077-.157a1.184 1.184 0 0 0-.485-.491 1.136 1.136 0 0 0-.692-.058M5.563 9.877c-.323.091-.629.416-.696.738-.024.118-.033.773-.027 1.989l.01 1.813.077.156c.099.2.301.402.5.499.22.107.593.107.813 0 .199-.097.401-.299.5-.499l.077-.156v-3.834l-.077-.156a1.178 1.178 0 0 0-.485-.491 1.13 1.13 0 0 0-.692-.059" fill-rule="evenodd" fill="#none"/></svg>