<svg width="24" height="25" viewBox="0 0 24 25" fill="none" xmlns="http://www.w3.org/2000/svg">
<g id="Alliance members_icon- Selected">
<g id="Vector">
<path d="M21.9868 18.499V18.5025C21.9868 18.5923 21.9828 18.6838 21.9811 18.7754L21.9682 19.5H16.5663L16.5776 18.7405C16.5776 18.6272 16.5804 18.5149 16.5815 18.4039C16.5917 17.5624 16.6012 16.7704 16.7269 15.9779C16.9324 14.694 18.1272 13.7928 19.5072 13.8755C20.774 13.9523 21.8499 15.0171 21.9564 16.2968C22.0161 17.0279 22.002 17.7425 21.9868 18.499Z" fill=""/>
<path d="M6.43909 11.4589C6.44447 11.7026 6.40367 11.9449 6.31905 12.1719C6.23443 12.3988 6.10768 12.606 5.94615 12.7812C5.78461 12.9564 5.5915 13.0963 5.37802 13.1927C5.16454 13.2891 4.93492 13.3401 4.70249 13.3428H4.65349C4.20293 13.338 3.77238 13.147 3.45539 12.8113C3.28633 12.6388 3.15155 12.4328 3.05883 12.2054C2.96612 11.9779 2.9173 11.7334 2.9152 11.4861C2.91332 11.2433 2.95705 11.0026 3.04391 10.7776C3.13077 10.5525 3.25906 10.3477 3.42144 10.1746C3.58382 10.0016 3.77712 9.86376 3.99031 9.76904C4.20349 9.67432 4.43238 9.62455 4.66391 9.62257C4.89544 9.62059 5.12507 9.66644 5.3397 9.75751C5.55433 9.84858 5.74974 9.98307 5.91479 10.1533C6.07984 10.3236 6.21129 10.5262 6.30164 10.7497C6.39198 10.9732 6.43946 11.2132 6.44134 11.456L6.43909 11.4589Z" fill=""/>
<path d="M10.4908 9.43566C10.0729 9.01251 9.8323 8.43281 9.82174 7.82383C9.81118 7.21485 10.0315 6.62637 10.4344 6.18757C10.6298 5.97376 10.8638 5.80287 11.1228 5.68485C11.3817 5.56683 11.6605 5.50404 11.9429 5.50016H11.9801C12.5554 5.49313 13.1102 5.72373 13.5246 6.1421C13.7282 6.35272 13.8898 6.60377 13.9998 6.88059C14.1099 7.1574 14.1663 7.45443 14.1656 7.75433V7.77913C14.1656 8.99214 13.3539 9.93527 12.215 10.0617L11.8916 10.1715L11.7874 10.0681C11.2986 10.0205 10.8405 9.797 10.4908 9.43566Z" fill=""/>
<path d="M7.29359 16.1196C7.37357 16.8773 7.35498 17.6297 7.33527 18.4228L7.30992 19.4965H2.03705L2.01508 18.4429C1.99875 17.6539 1.97903 16.9068 2.05507 16.1521C2.18012 14.8789 3.32584 13.8767 4.66306 13.8708H4.67377C6.00931 13.8708 7.16122 14.8588 7.29359 16.1196Z" fill=""/>
<path d="M15.9794 14.4176C16.0042 15.5988 15.9985 16.7864 15.9929 17.9368C15.9929 18.2102 15.9901 18.4836 15.989 18.7588L15.9861 19.4965H7.99769V18.6756C7.99769 18.2575 7.99769 17.8405 7.99374 17.4224V17.3704C7.9898 16.4568 7.98586 15.5125 8.0067 14.5848C8.04388 12.8668 8.80149 11.6196 10.2598 10.8766C11.6906 10.1479 13.1326 10.3002 14.432 11.3184C15.4167 12.0938 15.9529 13.1645 15.9794 14.4176Z" fill=""/>
<path d="M21.0405 11.4607V11.4879C21.0405 12.5272 20.2975 13.3227 19.301 13.3428H19.2644C18.8117 13.3363 18.3791 13.1458 18.0579 12.8113C17.8891 12.6393 17.7543 12.4339 17.6615 12.2071C17.5687 11.9803 17.5197 11.7364 17.5171 11.4896C17.5177 11.0055 17.6996 10.541 18.0237 10.1961C18.3477 9.85123 18.7881 9.65364 19.2498 9.6459H19.2712C19.7383 9.6355 20.1906 9.81789 20.5307 10.1538C20.6939 10.3254 20.8231 10.5293 20.9106 10.7536C20.9981 10.978 21.0422 11.2183 21.0405 11.4607Z" fill=""/>
</g>
</g>
</svg>
