<svg width="17" height="18" viewBox="0 0 17 18" fill="none" xmlns="http://www.w3.org/2000/svg">
<path d="M11.1098 7.85627C10.7991 7.51759 10.4527 7.21349 10.0767 6.9493C9.84771 6.78675 9.61003 6.63687 9.36468 6.50035C9.29651 6.46355 9.23734 6.41212 9.19141 6.34974C9.14549 6.28735 9.11395 6.21558 9.09906 6.13956C9.08418 6.06354 9.08632 5.98516 9.10532 5.91007C9.12433 5.83497 9.15973 5.76502 9.20898 5.70523L9.21503 5.69919C9.72706 5.08192 10.0039 4.30325 9.99654 3.50129V3.46123C9.99333 2.99714 9.89426 2.53872 9.70554 2.11472C9.51682 1.69072 9.24252 1.31029 8.89986 0.997289C8.19015 0.343513 7.22271 -0.0132293 6.18121 0.000375276C4.1511 0.0290961 2.5125 1.62234 2.53064 3.55268C2.54563 4.33915 2.83276 5.0961 3.34314 5.69465C3.3941 5.75528 3.4308 5.82657 3.45053 5.90327C3.47026 5.97997 3.47252 6.06012 3.45714 6.13781C3.44176 6.2155 3.40914 6.28875 3.36167 6.35215C3.31421 6.41555 3.25312 6.46748 3.18291 6.50412C1.14071 7.56679 0.0750128 9.25754 0.0213502 11.5295C-0.00737056 12.7207 -0.000568262 15.5814 0.00472241 16.7401C0.00472241 16.8761 0.00472241 17.0666 0.00472241 17.2646C0.00512278 17.4598 0.0829385 17.6468 0.221094 17.7847C0.359249 17.9226 0.546457 18 0.741638 18C0.838538 17.9999 0.934468 17.9807 1.02394 17.9435C1.1134 17.9063 1.19465 17.8518 1.26303 17.7831C1.33141 17.7144 1.38557 17.633 1.42243 17.5433C1.45928 17.4537 1.4781 17.3577 1.4778 17.2608C1.4778 17.0681 1.4778 16.8829 1.4778 16.7514V16.734C1.47175 15.5829 1.4657 12.7282 1.49518 11.5582C1.54053 9.68457 2.45052 8.32714 4.19796 7.52296C4.80431 7.23536 5.46057 7.06777 6.13057 7.02941C6.23562 7.02488 6.32632 7.02488 6.41022 7.02941H6.41929C7.35725 7.04982 8.28311 7.37935 9.1727 8.01197C9.49311 8.2356 9.78544 8.49697 10.0434 8.79045C10.1472 8.91158 10.2893 8.99369 10.446 9.02323C10.6028 9.05277 10.765 9.02798 10.9058 8.95295L10.93 8.9401C11.0236 8.89002 11.1044 8.8191 11.1663 8.73282C11.2281 8.64654 11.2693 8.5472 11.2867 8.44247C11.3041 8.33774 11.2972 8.23041 11.2665 8.12878C11.2359 8.02714 11.1823 7.93391 11.1098 7.85627ZM6.44574 5.6818H6.4412C6.38376 5.68785 6.32103 5.69163 6.25527 5.69314H6.1215C6.09504 5.69314 6.06859 5.69314 6.04592 5.68709C5.55025 5.64659 5.08319 5.43838 4.72174 5.09681C4.50255 4.89961 4.32594 4.65974 4.20273 4.39188C4.07953 4.12402 4.01232 3.83383 4.00523 3.53908C3.99313 2.32449 4.95452 1.36083 6.19708 1.33589H6.24772C6.83854 1.32658 7.41129 1.5397 7.8523 1.93298C8.06493 2.1293 8.23408 2.36796 8.34887 2.63362C8.46328 2.90015 8.52267 3.18705 8.52346 3.4771C8.53404 4.65239 7.66108 5.5775 6.44574 5.6818Z" fill="#485F7D"/>
<path d="M12.0773 9.33841C11.2222 9.33841 10.3863 9.59199 9.67534 10.0671C8.96437 10.5421 8.41025 11.2174 8.08306 12.0074C7.75587 12.7974 7.6703 13.6667 7.83717 14.5053C8.00405 15.344 8.41587 16.1143 9.02056 16.7189C9.62525 17.3235 10.3956 17.7352 11.2343 17.9019C12.073 18.0686 12.9423 17.9829 13.7322 17.6556C14.5222 17.3282 15.1973 16.774 15.6723 16.063C16.1472 15.3519 16.4007 14.516 16.4005 13.6609C16.3991 12.5148 15.9432 11.4161 15.1327 10.6057C14.3222 9.79538 13.2234 9.33961 12.0773 9.33841ZM12.0773 16.8073C11.455 16.8073 10.8466 16.6228 10.3292 16.2771C9.81179 15.9313 9.4085 15.4399 9.17035 14.865C8.93221 14.29 8.8699 13.6574 8.9913 13.0471C9.11271 12.4367 9.41238 11.8761 9.85242 11.436C10.2925 10.996 10.8531 10.6963 11.4634 10.5749C12.0738 10.4535 12.7064 10.5158 13.2814 10.754C13.8563 10.9921 14.3477 11.3954 14.6935 11.9128C15.0392 12.4303 15.2237 13.0386 15.2237 13.6609C15.2227 14.4951 14.8909 15.2948 14.301 15.8847C13.7112 16.4745 12.9115 16.8063 12.0773 16.8073Z" fill="#485F7D"/>
<path d="M12.1529 16.0183C12.055 16.0183 11.9612 15.9794 11.8921 15.9102C11.8229 15.8411 11.784 15.7473 11.784 15.6494V15.6457C11.2172 15.5043 10.8015 15.0448 10.8015 14.5021C10.8058 14.4071 10.8466 14.3174 10.9153 14.2516C10.9841 14.1859 11.0756 14.1492 11.1707 14.1492C11.2658 14.1492 11.3573 14.1859 11.4261 14.2516C11.4948 14.3174 11.5356 14.4071 11.5399 14.5021C11.5399 14.7462 11.8211 14.9556 12.1544 14.9556C12.4877 14.9556 12.7696 14.7493 12.7696 14.5021C12.7696 14.255 12.4877 14.0486 12.1544 14.0486C11.4084 14.0486 10.8015 13.5158 10.8015 12.8605C10.8015 12.3171 11.2187 11.8575 11.784 11.7162C11.784 11.6678 11.7936 11.6198 11.8121 11.575C11.8306 11.5303 11.8578 11.4896 11.8921 11.4554C11.9263 11.4211 11.967 11.394 12.0117 11.3754C12.0565 11.3569 12.1044 11.3474 12.1529 11.3474C12.2013 11.3474 12.2493 11.3569 12.294 11.3754C12.3388 11.394 12.3794 11.4211 12.4137 11.4554C12.4479 11.4896 12.4751 11.5303 12.4936 11.575C12.5122 11.6198 12.5217 11.6678 12.5217 11.7162C13.0886 11.8575 13.5043 12.3208 13.5043 12.8605C13.5043 12.9583 13.4654 13.0521 13.3962 13.1213C13.3271 13.1905 13.2332 13.2293 13.1354 13.2293C13.0376 13.2293 12.9438 13.1905 12.8746 13.1213C12.8054 13.0521 12.7666 12.9583 12.7666 12.8605C12.7666 12.6156 12.4847 12.407 12.1514 12.407C11.818 12.407 11.5369 12.6133 11.5369 12.8605C11.5369 13.1076 11.818 13.314 12.1514 13.314C12.8973 13.314 13.5043 13.8468 13.5043 14.5029C13.5043 15.0455 13.087 15.5051 12.5217 15.6464V15.6502C12.5217 15.6986 12.5122 15.7465 12.4936 15.7912C12.4751 15.8359 12.4479 15.8765 12.4136 15.9107C12.3794 15.9449 12.3387 15.972 12.294 15.9905C12.2492 16.0089 12.2013 16.0184 12.1529 16.0183Z" fill="#485F7D"/>
</svg>
