<svg  viewBox="0 0 24 25" fill="none" xmlns="http://www.w3.org/2000/svg">
<path d="M12.3219 20.1233C12.8401 20.1233 13.2602 20.5434 13.2602 21.0616C13.2602 21.5799 12.8401 22 12.3219 22H2.93835C2.42011 22 2 21.5799 2 21.0616C2 20.5434 2.42011 20.1233 2.93835 20.1233H12.3219ZM13.8101 2L21.1086 9.29849L19.7817 10.6272L18.7871 10.295L16.4628 12.6165L21.1077 17.2614C21.474 17.6277 21.474 18.2218 21.1077 18.5881C20.7413 18.9545 20.1472 18.9545 19.7808 18.5881L15.1369 13.9433L12.8811 16.1991L13.1467 17.2613L11.8189 18.5882L4.52041 11.2897L5.84818 9.96284L6.90851 10.2275L12.8145 4.32242L12.4833 3.32777L13.8101 2ZM14.4735 5.31801L7.83842 11.9521L11.1555 15.2702L17.7906 8.63601L14.4735 5.31801Z" fill="#485F7D"/>
</svg>
