<svg width="17" height="16" viewBox="0 0 17 16" fill="none" xmlns="http://www.w3.org/2000/svg">
<path d="M8.03846 0C3.59937 0 0 3.58214 0 8C0 12.4179 3.59937 16 8.03846 16C12.4776 16 16.0769 12.4179 16.0769 8C16.0769 3.58214 12.4776 0 8.03846 0ZM8.03846 14.6429C4.35297 14.6429 1.36367 11.6679 1.36367 8C1.36367 4.33214 4.35297 1.35714 8.03846 1.35714C11.724 1.35714 14.7133 4.33214 14.7133 8C14.7133 11.6679 11.724 14.6429 8.03846 14.6429ZM8.89434 7.58571L8.43859 7.48036V5.08214C9.12043 5.175 9.54209 5.6 9.61386 6.12143C9.62283 6.19286 9.68384 6.24464 9.75561 6.24464H10.5612C10.6456 6.24464 10.712 6.17143 10.7048 6.0875C10.5953 4.975 9.67486 4.26071 8.44577 4.1375V3.55357C8.44577 3.475 8.38117 3.41071 8.30223 3.41071H7.79803C7.71908 3.41071 7.65448 3.475 7.65448 3.55357V4.14286C6.38412 4.26607 5.39008 4.96429 5.39008 6.26786C5.39008 7.475 6.28364 8.05714 7.22206 8.28036L7.66525 8.39286V10.9411C6.87217 10.8357 6.42718 10.4143 6.33567 9.84643C6.32491 9.77857 6.2639 9.72857 6.19392 9.72857H5.36496C5.28062 9.72857 5.21423 9.8 5.22141 9.88393C5.30216 10.8661 6.05038 11.7696 7.64731 11.8857V12.4464C7.64731 12.525 7.7119 12.5893 7.79085 12.5893H8.30043C8.37938 12.5893 8.44397 12.525 8.44397 12.4446L8.44039 11.8786C9.84532 11.7554 10.8501 11.0071 10.8501 9.66429C10.8483 8.425 10.057 7.87143 8.89434 7.58571ZM7.66345 7.29643C7.56297 7.26786 7.47864 7.24107 7.39431 7.20714C6.78784 6.98929 6.50613 6.6375 6.50613 6.18393C6.50613 5.53571 6.99956 5.16607 7.66345 5.08214V7.29643ZM8.43859 10.9464V8.55893C8.49421 8.575 8.54445 8.5875 8.59649 8.59822C9.44519 8.85536 9.73049 9.2125 9.73049 9.76071C9.73049 10.4589 9.20296 10.8786 8.43859 10.9464Z" fill="#C2CFE0"/>
</svg>
