<svg width="15" height="15" viewBox="0 0 15 15" fill="none" xmlns="http://www.w3.org/2000/svg">
<path fill-rule="evenodd" clip-rule="evenodd" d="M4.08618 0.135929C3.95143 0.183015 3.83558 0.2855 3.77452 0.411609C3.72631 0.511223 3.71704 0.581113 3.71704 0.845555V1.16077L3.28602 1.17773C2.68708 1.20132 2.37761 1.27318 1.95788 1.48614C1.26904 1.83562 0.776029 2.46195 0.563541 3.25752L0.50415 3.47988V7.63614V11.7924L0.566385 12.0368C0.633732 12.3013 0.814967 12.7095 0.956197 12.9148C1.07985 13.0945 1.37674 13.4038 1.56367 13.5476C1.91296 13.8164 2.40052 14.0171 2.84573 14.0753C3.00564 14.0962 4.44838 14.1028 7.64087 14.0971L12.2073 14.089L12.419 14.0288C12.9059 13.8903 13.272 13.6928 13.5908 13.3966C14.0668 12.9543 14.3425 12.4561 14.449 11.8453C14.5116 11.4864 14.5113 3.78446 14.4487 3.42541C14.3516 2.86847 14.1014 2.39469 13.6835 1.97652C13.1093 1.40197 12.4944 1.17278 11.5196 1.17004L11.2694 1.16933L11.2598 0.816188C11.2506 0.47491 11.2475 0.459105 11.1682 0.346941C10.9293 0.0087535 10.4361 0.0376285 10.2463 0.400945C10.176 0.535477 10.1702 0.570559 10.1702 0.857996V1.16933H7.49048H4.81079V0.857996C4.81079 0.570559 4.80494 0.535477 4.73467 0.400945C4.61088 0.164011 4.33192 0.0500153 4.08618 0.135929ZM3.71704 2.85185C3.71704 3.48032 3.73194 3.56845 3.86191 3.70776C4.14098 4.00693 4.67487 3.88616 4.78224 3.49954C4.79778 3.44362 4.81054 3.14251 4.81063 2.83047L4.81079 2.26308H7.49048H10.1702L10.1703 2.83047C10.1704 3.14251 10.1832 3.44362 10.1987 3.49954C10.3061 3.88616 10.84 4.00693 11.119 3.70776C11.2492 3.56828 11.2639 3.48062 11.2639 2.84783V2.25504L11.6536 2.27101C11.8719 2.27993 12.1144 2.30612 12.2051 2.33057C12.6396 2.44765 13.0308 2.77351 13.2319 3.18583C13.3516 3.43137 13.3957 3.66612 13.3963 4.06094L13.3967 4.3959H7.49048H1.58423L1.58469 4.06094C1.58527 3.66612 1.62935 3.43137 1.74908 3.18583C1.98755 2.6967 2.43894 2.37136 2.9918 2.2901C3.06733 2.279 3.26144 2.26836 3.4231 2.2665L3.71704 2.26308V2.85185ZM13.3967 8.5341C13.3967 11.4912 13.3952 11.5847 13.3419 11.7929C13.2063 12.3232 12.7984 12.7572 12.2743 12.9288L12.0706 12.9955H7.49048H2.9104L2.70669 12.9288C2.46451 12.8495 2.15049 12.6468 1.99356 12.4686C1.83071 12.2836 1.70153 12.0372 1.63883 11.7921C1.58587 11.5849 1.58423 11.4876 1.58423 8.5341V5.48965H7.49048H13.3967V8.5341ZM3.51172 7.15393C3.32644 7.23812 3.17047 7.46472 3.17047 7.64981C3.17047 7.8349 3.32644 8.06149 3.51172 8.14569C3.60756 8.18922 3.70137 8.19556 4.25796 8.19608C4.96167 8.19674 5.02164 8.18569 5.18789 8.0248C5.24389 7.97058 5.29363 7.88341 5.31969 7.79377C5.35726 7.66452 5.35726 7.6351 5.31969 7.50584C5.29363 7.41621 5.24389 7.32904 5.18789 7.27481C5.02164 7.11392 4.96167 7.10288 4.25796 7.10353C3.70137 7.10405 3.60756 7.1104 3.51172 7.15393ZM6.70249 7.17394C6.38699 7.33114 6.30852 7.73124 6.54121 7.99625C6.7047 8.18246 6.76669 8.19548 7.49048 8.19548C8.20259 8.19548 8.26896 8.18241 8.43058 8.01031C8.67271 7.75251 8.57512 7.3088 8.24243 7.15478C8.14588 7.11007 8.05748 7.10405 7.489 7.10353C6.84987 7.10293 6.84388 7.10348 6.70249 7.17394ZM9.97876 7.14652C9.52379 7.34361 9.52745 7.96355 9.98472 8.15427C10.0668 8.18853 10.2088 8.19657 10.723 8.19608C11.2796 8.19556 11.3734 8.18922 11.4692 8.14569C11.6545 8.06149 11.8105 7.8349 11.8105 7.64981C11.8105 7.46472 11.6545 7.23812 11.4692 7.15393C11.373 7.11023 11.2809 7.10419 10.717 7.1046C10.2039 7.10498 10.0552 7.11343 9.97876 7.14652ZM3.47592 10.4005C3.16043 10.5577 3.08195 10.9578 3.31465 11.2228C3.47776 11.4086 3.54089 11.422 4.25796 11.4226C4.77218 11.4231 4.91412 11.4151 4.99624 11.3808C5.36767 11.2259 5.46133 10.7596 5.17553 10.4882C5.02128 10.3417 4.95085 10.3295 4.25648 10.3295C3.62435 10.3295 3.61707 10.3302 3.47592 10.4005ZM6.76587 10.3658C6.57096 10.442 6.4489 10.5901 6.41051 10.7968C6.37029 11.0134 6.51753 11.272 6.73828 11.3723C6.83437 11.4159 6.92731 11.422 7.49048 11.422C8.21853 11.422 8.28397 11.4079 8.44141 11.2169C8.66823 10.9418 8.57099 10.5335 8.24243 10.3813C8.14544 10.3364 8.0603 10.3309 7.49048 10.3322C7.06684 10.3332 6.81995 10.3446 6.76587 10.3658ZM9.97876 10.3731C9.52379 10.5702 9.52745 11.1901 9.98472 11.3808C10.0668 11.4151 10.2088 11.4231 10.723 11.4226C11.4401 11.422 11.5032 11.4086 11.6663 11.2228C11.9 10.9567 11.8184 10.5567 11.498 10.397C11.3653 10.3309 11.3495 10.3295 10.7185 10.3306C10.2051 10.3314 10.055 10.3401 9.97876 10.3731Z" />
</svg>
