<svg width="17" height="17" viewBox="0 0 17 17" fill="none" xmlns="http://www.w3.org/2000/svg">
<path d="M4.30101 0.0342295C4.13921 0.0907665 4.0001 0.213821 3.92679 0.365243C3.8689 0.484851 3.85777 0.56877 3.85777 0.88629V1.26478L3.34024 1.28513C2.62109 1.31347 2.24949 1.39975 1.74552 1.65545C0.918413 2.07508 0.32645 2.82713 0.0713114 3.78238L0 4.04937V9.03986V14.0303L0.0747259 14.3239C0.155591 14.6415 0.373203 15.1315 0.542781 15.378C0.691248 15.5938 1.04774 15.9651 1.27218 16.1378C1.69158 16.4606 2.27701 16.7015 2.81158 16.7715C3.00358 16.7966 4.7359 16.8045 8.56919 16.7977L14.0522 16.7879L14.3063 16.7156C14.891 16.5493 15.3305 16.3122 15.7133 15.9566C16.285 15.4255 16.6159 14.8273 16.7438 14.0939C16.819 13.663 16.8187 4.41509 16.7435 3.98397C16.6269 3.31524 16.3264 2.74636 15.8247 2.24426C15.1352 1.55439 14.3969 1.27919 13.2264 1.27591L12.926 1.27506L12.9145 0.851028C12.9034 0.44125 12.8997 0.422273 12.8045 0.287595C12.5176 -0.118473 11.9254 -0.0838021 11.6976 0.352439C11.6132 0.513973 11.6062 0.556097 11.6062 0.901228V1.27506H8.38861H5.17106V0.901228C5.17106 0.556097 5.16403 0.513973 5.07966 0.352439C4.93102 0.0679481 4.59607 -0.0689291 4.30101 0.0342295ZM3.85777 3.29528C3.85777 4.0499 3.87567 4.15571 4.03172 4.323C4.3668 4.68221 5.00785 4.53719 5.13678 4.07298C5.15543 4.00584 5.17076 3.64429 5.17086 3.26961L5.17106 2.58834H8.38861H11.6062L11.6064 3.26961C11.6065 3.64429 11.6218 4.00584 11.6404 4.07298C11.7694 4.53719 12.4104 4.68221 12.7455 4.323C12.9017 4.15552 12.9194 4.05026 12.9194 3.29046V2.57869L13.3873 2.59786C13.6495 2.60857 13.9406 2.64002 14.0495 2.66937C14.5713 2.80996 15.041 3.20122 15.2824 3.6963C15.4262 3.99113 15.4791 4.27299 15.4798 4.74706L15.4803 5.14925H8.38861H1.29687L1.29743 4.74706C1.29812 4.27299 1.35104 3.99113 1.49481 3.6963C1.78114 3.10899 2.32314 2.71836 2.98697 2.62078C3.07765 2.60745 3.31073 2.59468 3.50483 2.59245L3.85777 2.58834V3.29528ZM15.4803 10.1181C15.4803 13.6687 15.4785 13.781 15.4146 14.0309C15.2517 14.6677 14.7619 15.1888 14.1326 15.3949L13.888 15.475H8.38861H2.88923L2.64463 15.3949C2.35383 15.2996 1.97679 15.0563 1.78837 14.8423C1.59282 14.6201 1.43772 14.3243 1.36243 14.03C1.29884 13.7812 1.29687 13.6644 1.29687 10.1181V6.46253H8.38861H15.4803V10.1181ZM3.61124 8.46086C3.38877 8.56195 3.20149 8.83403 3.20149 9.05628C3.20149 9.27852 3.38877 9.5506 3.61124 9.65169C3.72632 9.70396 3.83896 9.71157 4.50726 9.7122C5.35223 9.71298 5.42423 9.69972 5.62385 9.50654C5.69109 9.44143 5.75081 9.33676 5.7821 9.22914C5.82721 9.07394 5.82721 9.03861 5.7821 8.88341C5.75081 8.77579 5.69109 8.67112 5.62385 8.60602C5.42423 8.41283 5.35223 8.39957 4.50726 8.40035C3.83896 8.40098 3.72632 8.4086 3.61124 8.46086ZM7.44245 8.4849C7.06364 8.67365 6.96941 9.15405 7.24881 9.47226C7.44511 9.69585 7.51954 9.71147 8.38861 9.71147C9.24366 9.71147 9.32334 9.69578 9.51741 9.48913C9.80814 9.17959 9.69096 8.64683 9.29149 8.46188C9.17556 8.4082 9.06942 8.40098 8.38684 8.40035C7.61942 8.39963 7.61223 8.40029 7.44245 8.4849ZM11.3763 8.45197C10.83 8.68862 10.8344 9.43299 11.3835 9.662C11.4821 9.70313 11.6525 9.71279 12.27 9.7122C12.9383 9.71157 13.0509 9.70396 13.166 9.65169C13.3884 9.5506 13.5757 9.27852 13.5757 9.05628C13.5757 8.83403 13.3884 8.56195 13.166 8.46086C13.0505 8.4084 12.9398 8.40114 12.2628 8.40164C11.6467 8.40209 11.4681 8.41224 11.3763 8.45197ZM3.56826 12.3591C3.18944 12.5478 3.09522 13.0282 3.37462 13.3465C3.57046 13.5695 3.64627 13.5856 4.50726 13.5864C5.1247 13.587 5.29513 13.5773 5.39373 13.5362C5.83972 13.3502 5.95217 12.7903 5.60901 12.4644C5.4238 12.2884 5.33923 12.2738 4.50549 12.2738C3.74647 12.2738 3.73774 12.2746 3.56826 12.3591ZM7.51856 12.3174C7.28453 12.4089 7.13797 12.5867 7.09187 12.835C7.04357 13.0951 7.22038 13.4055 7.48543 13.5259C7.6008 13.5783 7.7124 13.5857 8.38861 13.5857C9.2628 13.5857 9.34136 13.5687 9.53041 13.3394C9.80275 13.009 9.686 12.5187 9.29149 12.3361C9.17504 12.2822 9.0728 12.2755 8.38861 12.277C7.87994 12.2782 7.5835 12.2919 7.51856 12.3174ZM11.3763 12.3262C10.83 12.5628 10.8344 13.3072 11.3835 13.5362C11.4821 13.5773 11.6525 13.587 12.27 13.5864C13.1309 13.5856 13.2068 13.5695 13.4026 13.3465C13.6832 13.0269 13.5853 12.5466 13.2005 12.3549C13.0412 12.2755 13.0222 12.2739 12.2646 12.2751C11.6481 12.2761 11.4679 12.2865 11.3763 12.3262Z" />
</svg>
