<svg width="17" height="18" viewBox="0 0 17 18" fill="none" xmlns="http://www.w3.org/2000/svg">
<path d="M15.3393 1.87387H14.0692V0.702846C14.0717 0.611466 14.0559 0.52051 14.0227 0.435353C13.9894 0.350195 13.9395 0.272563 13.8758 0.207043C13.812 0.141523 13.7358 0.0894439 13.6516 0.0538829C13.5674 0.0183218 13.477 0 13.3856 0C13.2942 0 13.2037 0.0183218 13.1195 0.0538829C13.0353 0.0894439 12.9591 0.141523 12.8954 0.207043C12.8316 0.272563 12.7817 0.350195 12.7484 0.435353C12.7152 0.52051 12.6994 0.611466 12.7019 0.702846V1.87387H4.29915V0.700787C4.29915 0.519357 4.22709 0.345358 4.09883 0.217067C3.97056 0.088777 3.7966 0.0167042 3.61521 0.0167042C3.43382 0.0167042 3.25986 0.088777 3.1316 0.217067C3.00334 0.345358 2.93128 0.519357 2.93128 0.700787V1.87387H1.6612C0.750318 1.87387 0.0097778 2.57494 0.0097778 3.43712L0 16.4368C0 17.2984 0.745172 18 1.6612 18H15.3393C16.2548 18 17 17.2984 17 16.4368V3.43712C17 2.57494 16.2548 1.87387 15.3393 1.87387ZM15.6326 15.9179C15.6318 16.1328 15.546 16.3386 15.394 16.4904C15.2419 16.6422 15.0359 16.7277 14.8211 16.7281H2.17685C1.96224 16.728 1.75648 16.6426 1.60478 16.4908C1.45308 16.3389 1.36786 16.1331 1.36786 15.9184V6.85908H15.6326V15.9179ZM15.6326 5.58717H1.36786V3.95237C1.36786 3.73776 1.4531 3.53195 1.60481 3.3802C1.75652 3.22846 1.96229 3.1432 2.17685 3.1432H14.8211C15.0357 3.1432 15.2415 3.22844 15.3933 3.38017C15.5451 3.5319 15.6305 3.73772 15.6306 3.95237L15.6326 5.58717Z" />
<path d="M5.95979 9.98454C5.95951 10.1658 5.88734 10.3395 5.75911 10.4676C5.63087 10.5957 5.45707 10.6676 5.27586 10.6676H4.10355C4.01219 10.6701 3.92125 10.6543 3.83611 10.621C3.75098 10.5878 3.67336 10.5378 3.60786 10.4741C3.54235 10.4103 3.49028 10.3341 3.45473 10.2499C3.41918 10.1657 3.40086 10.0752 3.40086 9.98377C3.40086 9.89235 3.41918 9.80186 3.45473 9.71765C3.49028 9.63344 3.54235 9.5572 3.60786 9.49346C3.67336 9.42971 3.75098 9.37974 3.83611 9.3465C3.92125 9.31327 4.01219 9.29743 4.10355 9.29994H5.27586C5.45729 9.30008 5.63125 9.37226 5.7595 9.50064C5.88775 9.62901 5.95979 9.80306 5.95979 9.98454Z" />
<path d="M5.95979 12.916C5.95965 13.0973 5.88753 13.2712 5.75929 13.3993C5.63104 13.5275 5.45716 13.5995 5.27586 13.5995H4.10355C4.01219 13.602 3.92125 13.5862 3.83611 13.553C3.75098 13.5197 3.67336 13.4698 3.60786 13.406C3.54235 13.3423 3.49028 13.266 3.45473 13.1818C3.41918 13.0976 3.40086 13.0071 3.40086 12.9157C3.40086 12.8243 3.41918 12.7338 3.45473 12.6496C3.49028 12.5654 3.54235 12.4891 3.60786 12.4254C3.67336 12.3616 3.75098 12.3117 3.83611 12.2784C3.92125 12.2452 4.01219 12.2294 4.10355 12.2319H5.27586C5.4572 12.232 5.63108 12.3041 5.75932 12.4324C5.88755 12.5606 5.95965 12.7346 5.95979 12.916Z" />
<path d="M10.0634 9.98454C10.0631 10.1658 9.99096 10.3395 9.86273 10.4676C9.7345 10.5957 9.56069 10.6676 9.37948 10.6676H8.20666C8.1153 10.6701 8.02436 10.6543 7.93922 10.621C7.85408 10.5878 7.77647 10.5378 7.71096 10.4741C7.64546 10.4103 7.59339 10.3341 7.55784 10.2499C7.52228 10.1657 7.50397 10.0752 7.50397 9.98377C7.50397 9.89235 7.52228 9.80186 7.55784 9.71765C7.59339 9.63344 7.64546 9.5572 7.71096 9.49346C7.77647 9.42971 7.85408 9.37974 7.93922 9.3465C8.02436 9.31327 8.1153 9.29743 8.20666 9.29994H9.37896C9.56045 9.30008 9.73446 9.37225 9.86279 9.5006C9.99112 9.62896 10.0633 9.80301 10.0634 9.98454Z" />
<path d="M10.0634 12.916C10.0633 13.0973 9.99116 13.2712 9.86291 13.3993C9.73466 13.5275 9.56078 13.5995 9.37948 13.5995H8.20666C8.1153 13.602 8.02436 13.5862 7.93922 13.553C7.85408 13.5197 7.77647 13.4698 7.71096 13.406C7.64546 13.3423 7.59339 13.266 7.55784 13.1818C7.52228 13.0976 7.50397 13.0071 7.50397 12.9157C7.50397 12.8243 7.52228 12.7338 7.55784 12.6496C7.59339 12.5654 7.64546 12.4891 7.71096 12.4254C7.77647 12.3616 7.85408 12.3117 7.93922 12.2784C8.02436 12.2452 8.1153 12.2294 8.20666 12.2319H9.37896C9.5604 12.2319 9.73442 12.3039 9.86276 12.4322C9.9911 12.5605 10.0633 12.7345 10.0634 12.916Z" />
<path d="M13.9714 9.98454C13.9711 10.1658 13.899 10.3395 13.7707 10.4676C13.6425 10.5957 13.4687 10.6676 13.2875 10.6676H12.1152C12.0238 10.6701 11.9329 10.6543 11.8477 10.621C11.7626 10.5878 11.685 10.5378 11.6195 10.4741C11.554 10.4103 11.5019 10.3341 11.4664 10.2499C11.4308 10.1657 11.4125 10.0752 11.4125 9.98377C11.4125 9.89235 11.4308 9.80186 11.4664 9.71765C11.5019 9.63344 11.554 9.5572 11.6195 9.49346C11.685 9.42971 11.7626 9.37974 11.8477 9.3465C11.9329 9.31327 12.0238 9.29743 12.1152 9.29994H13.287C13.4685 9.30008 13.6425 9.37225 13.7708 9.5006C13.8991 9.62896 13.9713 9.80301 13.9714 9.98454Z" />
<path d="M13.9714 12.916C13.9713 13.0973 13.8992 13.2712 13.7709 13.3993C13.6427 13.5275 13.4688 13.5995 13.2875 13.5995H12.1152C12.0238 13.602 11.9329 13.5862 11.8477 13.553C11.7626 13.5197 11.685 13.4698 11.6195 13.406C11.554 13.3423 11.5019 13.266 11.4664 13.1818C11.4308 13.0976 11.4125 13.0071 11.4125 12.9157C11.4125 12.8243 11.4308 12.7338 11.4664 12.6496C11.5019 12.5654 11.554 12.4891 11.6195 12.4254C11.685 12.3616 11.7626 12.3117 11.8477 12.2784C11.9329 12.2452 12.0238 12.2294 12.1152 12.2319H13.287C13.4684 12.2319 13.6424 12.3039 13.7708 12.4322C13.8991 12.5605 13.9713 12.7345 13.9714 12.916Z" />
</svg>
