<svg width="18" height="19" viewBox="0 0 18 19" fill="none" xmlns="http://www.w3.org/2000/svg">
<path d="M17.0513 7.51896L9.74889 0.882912C9.47966 0.636601 9.12798 0.5 8.76307 0.5C8.39817 0.5 8.04648 0.636601 7.77725 0.882912L0.474851 7.51896C0.325338 7.65575 0.205926 7.82215 0.12421 8.00758C0.0424927 8.19302 0.000259156 8.39343 0.000194761 8.59607V17.003C-0.00574253 17.3712 0.12425 17.7286 0.365315 18.007C0.502132 18.1626 0.670674 18.2871 0.859609 18.3721C1.04854 18.4571 1.25349 18.5007 1.46067 18.4999H5.84211C6.03578 18.4999 6.22152 18.423 6.35847 18.2861C6.49542 18.1491 6.57235 17.9634 6.57235 17.7697V13.3883C6.57235 13.1946 6.64929 13.0089 6.78623 12.8719C6.92318 12.735 7.10892 12.658 7.30259 12.658H10.2236C10.4172 12.658 10.603 12.735 10.7399 12.8719C10.8769 13.0089 10.9538 13.1946 10.9538 13.3883V17.7697C10.9538 17.9634 11.0307 18.1491 11.1677 18.2861C11.3046 18.423 11.4904 18.4999 11.684 18.4999H16.0655C16.3077 18.5021 16.5465 18.4424 16.7592 18.3265C16.9907 18.2005 17.184 18.0145 17.3189 17.788C17.4538 17.5616 17.5253 17.303 17.5259 17.0395V8.59607C17.5259 8.39343 17.4836 8.19302 17.4019 8.00758C17.3202 7.82215 17.2008 7.65575 17.0513 7.51896Z" fill=""/>
</svg>
