<svg width="17" height="18" viewBox="0 0 17 18" fill="none" xmlns="http://www.w3.org/2000/svg">
<path d="M3.41899 14.4627C3.00529 14.4627 2.66929 14.1848 2.66929 13.8415V8.60029C2.66929 8.25774 3.00529 7.97913 3.41899 7.97913C3.8327 7.97913 4.16798 8.25774 4.16798 8.60029V13.8415C4.16798 14.187 3.8327 14.4627 3.41899 14.4627Z"/>
<path d="M15.4812 6.50085H1.52963C0.686389 6.50085 0 5.82235 0 4.98802C0.00315291 4.70711 0.083021 4.43268 0.230606 4.19566C0.378191 3.95863 0.587629 3.76842 0.835322 3.64646L7.62654 0.178998H7.6359C7.93207 0.05088 8.25201 -0.00976657 8.57345 0.00127808C8.8949 0.0123227 9.21012 0.0947933 9.4972 0.242951L16.1711 3.6494C16.4175 3.77173 16.6255 3.9618 16.7719 4.19826C16.9183 4.43473 16.9973 4.70822 17 4.98802C17.0022 5.82235 16.3201 6.50085 15.4812 6.50085ZM7.89851 1.35516L1.344 4.70427C1.28958 4.72909 1.24285 4.76865 1.20886 4.81867C1.17487 4.86869 1.15492 4.92725 1.15118 4.98802C1.15118 5.17326 1.32097 5.32469 1.52963 5.32469H15.4812C15.5737 5.32952 15.6645 5.2969 15.7337 5.23389C15.8029 5.17087 15.845 5.08254 15.851 4.98802C15.8483 4.92773 15.8294 4.86936 15.7964 4.81931C15.7634 4.76925 15.7176 4.72945 15.6639 4.70427L8.98205 1.29341C8.83334 1.21762 8.66942 1.17817 8.50323 1.17817C8.33705 1.17817 8.17313 1.21762 8.02442 1.29341L7.89851 1.35516Z"/>
<path d="M16.3323 18H0.935331C0.597892 18 0.323768 17.6104 0.323768 17.1296C0.323768 16.6489 0.597892 16.2593 0.935331 16.2593H16.3323C16.6698 16.2593 16.9439 16.6489 16.9439 17.1296C16.9453 17.6104 16.6712 18 16.3323 18Z"/>
<path d="M8.50144 14.4627C8.08773 14.4627 7.75245 14.1848 7.75245 13.8415V8.60029C7.75245 8.25774 8.08773 7.97913 8.50144 7.97913C8.91514 7.97913 9.25042 8.25774 9.25042 8.60029V13.8415C9.25042 14.187 8.91514 14.4627 8.50144 14.4627Z"/>
<path d="M13.5839 14.4627C13.1702 14.4627 12.8349 14.1848 12.8349 13.8415V8.60029C12.8349 8.25774 13.1702 7.97913 13.5839 7.97913C13.9976 7.97913 14.3329 8.25774 14.3329 8.60029V13.8415C14.3329 14.187 13.9976 14.4627 13.5839 14.4627Z"/>
</svg>
