<svg width="21" height="17" viewBox="0 0 21 17" fill="none" xmlns="http://www.w3.org/2000/svg">
<path d="M11.0729 14.6293H1.18921C0.874825 14.6293 0.573322 14.7541 0.351022 14.9764C0.128722 15.1987 0.00383497 15.5002 0.00383497 15.8146C0.00383497 16.129 0.128722 16.4305 0.351022 16.6528C0.573322 16.8751 0.874825 17 1.18921 17H14.949C15.0396 16.9994 15.13 16.9884 15.2182 16.9673C14.3972 16.9087 13.5995 16.6686 12.8827 16.2643C12.1658 15.8599 11.5477 15.3015 11.0729 14.6293Z" />
<path d="M9.25863 8.35459V11.7938C9.25863 12.1082 9.13374 12.4097 8.91144 12.632C8.68914 12.8543 8.38764 12.9792 8.07326 12.9792C7.75888 12.9792 7.45737 12.8543 7.23507 12.632C7.01277 12.4097 6.88789 12.1082 6.88789 11.7938V8.35459C6.88789 8.04021 7.01277 7.73871 7.23507 7.51641C7.45737 7.29411 7.75888 7.16922 8.07326 7.16922C8.38764 7.16922 8.68914 7.29411 8.91144 7.51641C9.13374 7.73871 9.25863 8.04021 9.25863 8.35459Z" />
<path d="M4.09698 8.35459V11.7938C4.09698 12.1082 3.97209 12.4097 3.74979 12.632C3.52749 12.8543 3.22599 12.9792 2.91161 12.9792C2.59723 12.9792 2.29573 12.8543 2.07343 12.632C1.85113 12.4097 1.72624 12.1082 1.72624 11.7938V8.35459C1.72624 8.04021 1.85113 7.73871 2.07343 7.51641C2.29573 7.29411 2.59723 7.16922 2.91161 7.16922C3.22599 7.16922 3.52749 7.29411 3.74979 7.51641C3.97209 7.73871 4.09698 8.04021 4.09698 8.35459Z" />
<path d="M16.1343 4.61831C16.1352 4.74546 16.1111 4.87155 16.0632 4.98935C16.0153 5.10715 15.9447 5.21435 15.8553 5.30482C15.7659 5.39528 15.6596 5.46723 15.5424 5.51654C15.4252 5.56586 15.2994 5.59157 15.1723 5.5922H0.980513C0.762337 5.59543 0.549494 5.52471 0.376628 5.39156C0.203762 5.25841 0.081053 5.07067 0.0284734 4.8589C-0.0241062 4.64713 -0.00345989 4.4238 0.0870516 4.22526C0.177563 4.02672 0.33261 3.86466 0.526956 3.76545L7.31918 0.188475C7.55015 0.0647438 7.80811 0 8.07013 0C8.33214 0 8.5901 0.0647438 8.82107 0.188475L15.614 3.76545C15.7702 3.84671 15.9012 3.9691 15.9929 4.11941C16.0846 4.26972 16.1335 4.44223 16.1343 4.61831Z" />
<path d="M15.7336 5.93168C14.7173 5.93223 13.7239 6.23413 12.879 6.79922C12.0342 7.36431 11.3759 8.1672 10.9874 9.10639C10.5988 10.0456 10.4975 11.0789 10.6962 12.0757C10.8949 13.0724 11.3846 13.9879 12.1036 14.7064C12.8225 15.4248 13.7383 15.914 14.7352 16.112C15.7321 16.31 16.7654 16.2079 17.7043 15.8188C18.6432 15.4296 19.4457 14.7708 20.0102 13.9256C20.5747 13.0804 20.8759 12.0868 20.8758 11.0704C20.8753 9.70707 20.3332 8.39982 19.3689 7.43615C18.4046 6.47247 17.0969 5.93131 15.7336 5.93168ZM13.3441 14.4108C14.0401 13.9097 14.876 13.6401 15.7336 13.6401C16.5913 13.6401 17.4272 13.9097 18.1232 14.4108C17.4272 14.9119 16.5913 15.1815 15.7336 15.1815C14.876 15.1815 14.0401 14.9119 13.3441 14.4108ZM18.8891 13.7041C17.9887 12.9982 16.8777 12.6146 15.7336 12.6146C14.5896 12.6146 13.4786 12.9982 12.5782 13.7041C12.0771 13.104 11.7574 12.3735 11.6567 11.5983C11.556 10.823 11.6784 10.035 12.0096 9.32688C12.3408 8.61871 12.8671 8.01966 13.5267 7.59998C14.1863 7.1803 14.9518 6.95739 15.7336 6.95739C16.5154 6.95739 17.281 7.1803 17.9406 7.59998C18.6002 8.01966 19.1265 8.61871 19.4577 9.32688C19.7889 10.035 19.9113 10.823 19.8106 11.5983C19.7099 12.3735 19.3902 13.104 18.8891 13.7041Z" />
<path d="M15.7336 7.98729C15.3778 7.98729 15.03 8.09281 14.7341 8.29051C14.4383 8.48821 14.2077 8.76921 14.0716 9.09796C13.9354 9.42671 13.8999 9.78845 13.9693 10.1374C14.0388 10.4864 14.2102 10.8069 14.4619 11.0585C14.7135 11.31 15.0341 11.4813 15.3831 11.5507C15.7321 11.62 16.0938 11.5843 16.4225 11.448C16.7512 11.3117 17.0321 11.0811 17.2297 10.7851C17.4273 10.4892 17.5327 10.1413 17.5326 9.78552C17.532 9.30865 17.3423 8.85148 17.005 8.51435C16.6678 8.17721 16.2105 7.98766 15.7336 7.98729ZM15.7336 10.5563C15.5812 10.5563 15.4322 10.5111 15.3054 10.4264C15.1787 10.3417 15.0799 10.2213 15.0215 10.0805C14.9632 9.93964 14.9479 9.78467 14.9777 9.63515C15.0074 9.48564 15.0808 9.3483 15.1886 9.2405C15.2964 9.13271 15.4338 9.0593 15.5833 9.02956C15.7328 8.99982 15.8878 9.01508 16.0286 9.07342C16.1694 9.13176 16.2898 9.23055 16.3745 9.3573C16.4592 9.48406 16.5044 9.63308 16.5044 9.78552C16.5045 9.88676 16.4846 9.98703 16.4459 10.0806C16.4072 10.1741 16.3505 10.2591 16.2789 10.3307C16.2073 10.4023 16.1223 10.4591 16.0287 10.4978C15.9352 10.5365 15.8349 10.5564 15.7336 10.5563Z" />
</svg>
