<svg width="16" height="13" viewBox="0 0 16 13" fill="none" xmlns="http://www.w3.org/2000/svg">
<path d="M9.87434 6.60913C9.44808 6.60418 9.02724 6.51303 8.63712 6.34118C8.24701 6.16932 7.8957 5.92031 7.60434 5.60913C7.08872 5.05633 6.77078 4.34826 6.70022 3.59561C6.62966 2.84296 6.81045 2.08814 7.21434 1.44913C7.56264 0.919602 8.06035 0.505429 8.64435 0.259132C9.22828 -0.000716925 9.87994 -0.0672842 10.5043 0.0691322C11.1355 0.198153 11.7096 0.523712 12.1443 0.999132C12.5914 1.46665 12.8936 2.05362 13.0143 2.68913C13.1356 3.32342 13.0731 3.97914 12.8343 4.57913C12.594 5.17156 12.1877 5.682 11.6643 6.04913C11.1395 6.41555 10.5144 6.61112 9.87434 6.60913ZM9.87434 1.29913C9.62664 1.29961 9.38164 1.35066 9.15434 1.44913C8.80506 1.60306 8.50926 1.8571 8.30435 2.17913C8.08784 2.51672 7.97007 2.90813 7.96434 3.30913C7.96277 3.83959 8.16297 4.3508 8.52435 4.73913C8.696 4.9191 8.90237 5.06239 9.13096 5.16036C9.35956 5.25833 9.60564 5.30894 9.85435 5.30913C10.2485 5.33175 10.639 5.2227 10.9643 4.99913C11.2838 4.77484 11.5306 4.46198 11.6743 4.09913C11.8273 3.72895 11.8657 3.32135 11.7843 2.92913C11.7076 2.55172 11.5236 2.20448 11.2543 1.92913C10.9885 1.64528 10.6375 1.45573 10.2543 1.38913C10.132 1.34323 10.0043 1.31299 9.87434 1.29913Z" />
<path d="M14.9643 12.6691C14.792 12.6691 14.6266 12.6006 14.5047 12.4788C14.3828 12.3569 14.3143 12.1915 14.3143 12.0191C14.3143 10.0791 12.3143 8.50913 9.87434 8.50913C7.43434 8.50913 5.43435 10.0791 5.43435 11.9991C5.43435 12.1715 5.36586 12.3369 5.24396 12.4588C5.12207 12.5807 4.95674 12.6491 4.78435 12.6491C4.61195 12.6491 4.44662 12.5807 4.32473 12.4588C4.20283 12.3369 4.13435 12.1715 4.13435 11.9991C4.13435 9.34913 6.70434 7.18913 9.87434 7.18913C13.0443 7.18913 15.6143 9.36913 15.6143 11.9991C15.617 12.0862 15.6022 12.1728 15.5707 12.254C15.5393 12.3352 15.4918 12.4092 15.4312 12.4717C15.3706 12.5342 15.298 12.5839 15.2178 12.6178C15.1376 12.6517 15.0514 12.6692 14.9643 12.6691Z" />
<path d="M3.14435 4.08913V2.75913C3.14566 2.58539 3.08138 2.41755 2.96435 2.28913C2.90569 2.22926 2.83567 2.1817 2.7584 2.14923C2.68113 2.11676 2.59816 2.10004 2.51435 2.10004C2.43053 2.10004 2.34756 2.11676 2.27029 2.14923C2.19302 2.1817 2.123 2.22926 2.06435 2.28913C1.94451 2.41656 1.87673 2.58423 1.87435 2.75913V4.08913H0.604345C0.521687 4.07413 0.437003 4.07413 0.354345 4.08913C0.277048 4.12312 0.208614 4.17444 0.154345 4.23913C0.0933171 4.29841 0.0455948 4.37 0.0143451 4.44913C-0.000791661 4.53514 -0.000791661 4.62313 0.0143451 4.70913C-0.00478171 4.80485 -0.00478171 4.90341 0.0143451 4.99913C0.0455948 5.07827 0.0933171 5.14985 0.154345 5.20913C0.208614 5.27382 0.277048 5.32515 0.354345 5.35913C0.437003 5.37413 0.521687 5.37413 0.604345 5.35913H1.87435V6.74913C1.88811 6.83745 1.91866 6.92231 1.96435 6.99913C1.99542 7.0813 2.04308 7.15618 2.10435 7.21913C2.16173 7.27783 2.22955 7.32531 2.30435 7.35913C2.387 7.37413 2.47169 7.37413 2.55435 7.35913C2.63373 7.37315 2.71496 7.37315 2.79435 7.35913C2.85916 7.32335 2.9168 7.27589 2.96435 7.21913C3.02273 7.1558 3.06703 7.08082 3.09435 6.99913C3.13111 6.92111 3.14827 6.83529 3.14435 6.74913V5.41913H4.42435C4.50904 5.4183 4.59266 5.40012 4.67005 5.36573C4.74745 5.33133 4.81698 5.28144 4.87434 5.21913C4.99254 5.09546 5.05722 4.93018 5.05435 4.75913C5.05878 4.58484 4.99407 4.41587 4.87434 4.28913C4.81698 4.22683 4.74745 4.17694 4.67005 4.14254C4.59266 4.10814 4.50904 4.08997 4.42435 4.08913H3.14435Z"/>
</svg>
