<svg width="18" height="18" viewBox="0 0 18 18" fill="none" xmlns="http://www.w3.org/2000/svg">
<path d="M16.1998 0H1.80021C1.32299 0.000743823 0.865535 0.190625 0.528091 0.528029C0.190647 0.865434 0.00074391 1.32284 0 1.8V16.1979C-3.27202e-07 16.6755 0.189597 17.1335 0.527141 17.4714C0.864686 17.8093 1.32257 17.9994 1.80021 18H16.1998C16.6771 17.9994 17.1346 17.8096 17.4721 17.4722C17.8096 17.1347 17.9994 16.6772 18 16.2V1.8C17.9993 1.32284 17.8094 0.865434 17.4719 0.528029C17.1345 0.190625 16.677 0.000743823 16.1998 0ZM16.4551 16.4531H1.54284V1.54266H16.4551V16.4531Z" />
<path d="M10.9285 13.1126C10.9285 13.3513 10.8337 13.5802 10.6649 13.749C10.4961 13.9178 10.2672 14.0126 10.0284 14.0126H4.88518C4.64646 14.0126 4.41751 13.9178 4.24871 13.749C4.07991 13.5802 3.98508 13.3513 3.98508 13.1126C3.98508 12.8739 4.07991 12.645 4.24871 12.4762C4.41751 12.3074 4.64646 12.2126 4.88518 12.2126H10.0284C10.2672 12.2126 10.4961 12.3074 10.6649 12.4762C10.8337 12.645 10.9285 12.8739 10.9285 13.1126Z"/>
<path d="M14.0142 9C14.0142 9.2387 13.9194 9.46761 13.7506 9.6364C13.5818 9.80518 13.3528 9.9 13.1141 9.9H4.88659C4.65231 9.89345 4.42983 9.79579 4.26644 9.62779C4.10305 9.45979 4.01164 9.23469 4.01164 9.00035C4.01164 8.76601 4.10305 8.54091 4.26644 8.37291C4.42983 8.20491 4.65231 8.10725 4.88659 8.1007H13.1141C13.3527 8.1007 13.5816 8.19543 13.7503 8.36406C13.9191 8.53269 14.014 8.76143 14.0142 9Z" />
<path d="M14.0142 4.88531C14.0142 5.12401 13.9194 5.35293 13.7506 5.52171C13.5818 5.69049 13.3528 5.78531 13.1141 5.78531H4.88659C4.64787 5.78531 4.41892 5.69049 4.25012 5.52171C4.08132 5.35293 3.98648 5.12401 3.98648 4.88531C3.98648 4.64662 4.08132 4.4177 4.25012 4.24892C4.41892 4.08013 4.64787 3.98531 4.88659 3.98531H13.1141C13.2323 3.98531 13.3494 4.00859 13.4586 4.05382C13.5678 4.09905 13.667 4.16534 13.7506 4.24892C13.8342 4.33249 13.9005 4.4317 13.9457 4.5409C13.9909 4.65009 14.0142 4.76712 14.0142 4.88531Z" />
</svg>
