<svg width="18" height="18" viewBox="0 0 18 18" fill="none" xmlns="http://www.w3.org/2000/svg">
<path d="M16 16.05H16.05V16V2V1.95H16H2H1.95V2V16V16.05H2H16ZM13 5.95H9C8.47761 5.95 8.05 5.52239 8.05 5C8.05 4.47761 8.47761 4.05 9 4.05H13C13.5224 4.05 13.95 4.47761 13.95 5C13.95 5.52239 13.5224 5.95 13 5.95ZM13 9.95H9C8.47761 9.95 8.05 9.52239 8.05 9C8.05 8.47761 8.47761 8.05 9 8.05H13C13.5224 8.05 13.95 8.47761 13.95 9C13.95 9.52239 13.5224 9.95 13 9.95ZM13 13.95H9C8.47761 13.95 8.05 13.5224 8.05 13C8.05 12.4776 8.47761 12.05 9 12.05H13C13.5224 12.05 13.95 12.4776 13.95 13C13.95 13.5224 13.5224 13.95 13 13.95ZM4.05 4.05H5.95V5.95H4.05V4.05ZM4.05 8.05H5.95V9.95H4.05V8.05ZM4.05 12.05H5.95V13.95H4.05V12.05ZM1 0.05H17C17.5224 0.05 17.95 0.477614 17.95 1V17C17.95 17.5224 17.5224 17.95 17 17.95H1C0.477614 17.95 0.05 17.5224 0.05 17V1C0.05 0.477614 0.477614 0.05 1 0.05Z"  stroke-width="0.1"/>
</svg>
