<svg width="18" height="18" viewBox="0 0 18 18" fill="none" xmlns="http://www.w3.org/2000/svg">
<path d="M16.1998 0H1.80021C1.32299 0.000743823 0.865535 0.190625 0.528091 0.528029C0.190647 0.865434 0.00074391 1.32284 0 1.8V16.1979C-3.27202e-07 16.6755 0.189597 17.1335 0.527141 17.4714C0.864686 17.8093 1.32257 17.9994 1.80021 18H16.1998C16.6771 17.9994 17.1346 17.8096 17.4721 17.4722C17.8096 17.1347 17.9994 16.6772 18 16.2V1.8C17.9993 1.32284 17.8094 0.865434 17.4719 0.528029C17.1345 0.190625 16.677 0.000743823 16.1998 0ZM2.36137 16.4531C2.14428 16.4531 1.93608 16.3669 1.78258 16.2134C1.62908 16.0599 1.54284 15.8518 1.54284 15.6347V2.36109C1.54284 2.14403 1.62908 1.93586 1.78258 1.78237C1.93608 1.62888 2.14428 1.54266 2.36137 1.54266H15.6386C15.8554 1.54321 16.063 1.62969 16.2161 1.78312C16.3691 1.93654 16.4551 2.1444 16.4551 2.36109V15.6368C16.4545 15.8531 16.3683 16.0604 16.2153 16.2134C16.0623 16.3664 15.855 16.4526 15.6386 16.4531H2.36137Z" fill="#485F7D"/>
<path d="M5.09263 11.3688V12.6886C5.09235 12.7172 5.09777 12.7456 5.10859 12.7721C5.11941 12.7986 5.13541 12.8226 5.15564 12.8429C5.17588 12.8631 5.19994 12.8791 5.22643 12.8899C5.25292 12.9007 5.28131 12.9061 5.30992 12.9059H6.62984C6.65832 12.9062 6.68655 12.9005 6.71271 12.8892C6.73887 12.878 6.76239 12.8614 6.78173 12.8405L11.5213 8.10563L9.89342 6.47789L5.15803 11.2127C5.13694 11.2328 5.12024 11.2571 5.10898 11.2839C5.09773 11.3108 5.09216 11.3397 5.09263 11.3688ZM12.7801 6.84703C12.8204 6.80686 12.8524 6.75914 12.8742 6.70659C12.896 6.65404 12.9072 6.59771 12.9072 6.54082C12.9072 6.48393 12.896 6.4276 12.8742 6.37505C12.8524 6.3225 12.8204 6.27478 12.7801 6.23461L11.7647 5.2193C11.7245 5.17901 11.6768 5.14705 11.6242 5.12524C11.5717 5.10343 11.5153 5.0922 11.4584 5.0922C11.4015 5.0922 11.3452 5.10343 11.2926 5.12524C11.2401 5.14705 11.1923 5.17901 11.1522 5.2193L10.3582 6.01383L11.9855 7.64086L12.7801 6.84703Z" fill="#485F7D"/>
</svg>
