<svg width="15" height="14" viewBox="0 0 15 14" fill="none" xmlns="http://www.w3.org/2000/svg">
<path fill-rule="evenodd" clip-rule="evenodd" d="M2.66808 0.652119C2.31819 0.81721 2.29863 1.37669 2.63548 1.5858C2.68501 1.61656 3.82595 1.62914 7.70054 1.64166L12.7016 1.65783L12.8713 1.74808C13.0635 1.85032 13.2037 2.00704 13.2956 2.22223C13.3577 2.36746 13.3587 2.40741 13.3734 5.20538C13.3882 8.00653 13.3891 8.04246 13.4499 8.13067C13.5669 8.30039 13.6623 8.35333 13.8512 8.35333C14.04 8.35333 14.1354 8.30038 14.2524 8.13064C14.3133 8.04227 14.314 8.0118 14.3223 5.23773C14.3317 2.0858 14.3376 2.18539 14.1132 1.69969C13.8722 1.17815 13.3871 0.776616 12.8509 0.655095C12.5533 0.587622 2.8108 0.584776 2.66808 0.652119ZM1.46035 2.72701C0.939881 2.84811 0.449683 3.25751 0.213781 3.76811C-0.0170764 4.26779 -0.00543209 3.99453 0.00394311 8.69296L0.0122733 12.8817L0.0955753 13.0655C0.287379 13.4886 0.723356 13.6957 1.14366 13.5633C1.28629 13.5184 1.46818 13.3845 2.2253 12.7671C2.72592 12.3589 3.16503 12.0174 3.2011 12.0082C3.2372 11.999 4.99323 11.988 7.10339 11.9838L10.9401 11.976L11.157 11.8901C11.7869 11.6407 12.2177 11.1131 12.3726 10.4018C12.4103 10.2284 12.4172 9.75826 12.4176 7.33154C12.418 4.58464 12.4156 4.45574 12.3591 4.21665C12.2225 3.63805 11.8701 3.15556 11.4029 2.90737C10.9445 2.66397 11.257 2.67762 6.19274 2.67985C2.42672 2.6815 1.62141 2.68956 1.46035 2.72701ZM10.9604 3.81818C11.1526 3.92043 11.2929 4.07714 11.3848 4.29234C11.4472 4.43854 11.4476 4.4593 11.4476 7.33445C11.4476 10.2096 11.4472 10.2304 11.3848 10.3766C11.2929 10.5918 11.1526 10.7485 10.9604 10.8507L10.7908 10.941L6.89439 10.9571L2.99801 10.9733L2.82027 11.0509C2.69899 11.1038 2.37429 11.348 1.79765 11.8201L0.95278 12.5118V8.53812C0.95278 4.18472 0.944808 4.38488 1.12897 4.10945C1.23801 3.9464 1.37135 3.84235 1.56423 3.76983C1.70456 3.71707 2.00451 3.7139 6.25246 3.7207L10.7908 3.72794L10.9604 3.81818ZM4.06409 6.95093C3.86408 7.08966 3.79353 7.39798 3.91069 7.62116C4.01152 7.81323 4.10398 7.86815 4.32666 7.86815C4.47362 7.86815 4.54056 7.85243 4.60239 7.80346C4.7011 7.72528 4.80438 7.51028 4.80438 7.38297C4.80438 7.24434 4.69883 7.03668 4.58651 6.9544C4.45251 6.85623 4.20302 6.85458 4.06409 6.95093ZM5.97497 6.95093C5.77495 7.08966 5.7044 7.39798 5.82156 7.62116C5.92239 7.81323 6.01485 7.86815 6.23753 7.86815C6.38449 7.86815 6.45143 7.85243 6.51326 7.80346C6.61197 7.72528 6.71525 7.51028 6.71525 7.38297C6.71525 7.24434 6.6097 7.03668 6.49738 6.9544C6.36338 6.85623 6.11389 6.85458 5.97497 6.95093ZM7.82923 6.9488C7.72171 7.02342 7.61097 7.24369 7.61097 7.38297C7.61097 7.50944 7.7141 7.72528 7.81086 7.8013C7.92331 7.8896 8.17094 7.90648 8.30951 7.83523C8.44787 7.76413 8.56646 7.55388 8.56625 7.38013C8.56608 7.22885 8.46483 7.03338 8.34074 6.94479C8.21877 6.85768 7.95758 6.85975 7.82923 6.9488Z" fill="#C6D3E3"/>
</svg>
