<svg width="18" height="17" viewBox="0 0 18 17" fill="none" xmlns="http://www.w3.org/2000/svg">
<path d="M18 1.67573C17.9993 1.45482 17.9546 1.23625 17.8685 1.0327C17.7825 0.829148 17.6568 0.644673 17.4988 0.489972C17.1772 0.175603 16.7449 -0.000325441 16.2948 4.51961e-07H3.71614C3.26647 3.86295e-05 2.83473 0.17594 2.51351 0.489972C2.35529 0.644532 2.22949 0.82898 2.14343 1.03256C2.05738 1.23614 2.0128 1.45478 2.0123 1.67573V1.97472H1.70479C1.25457 1.97452 0.822249 2.15062 0.500768 2.46516C0.342816 2.6199 0.21722 2.80439 0.131262 3.00793C0.0453041 3.21148 0.000694434 3.43003 2.00289e-05 3.65091V15.5641C-0.00113027 15.734 0.0472904 15.9006 0.139375 16.0434C0.23316 16.186 0.366021 16.2986 0.522136 16.3679C0.640298 16.4216 0.76856 16.4496 0.898393 16.45C1.1133 16.4516 1.32178 16.3769 1.48647 16.2391L4.44218 13.7211H14.2829C14.733 13.7211 15.1651 13.5451 15.4865 13.2306C15.6445 13.0759 15.7701 12.8914 15.856 12.6878C15.942 12.4843 15.9866 12.2657 15.9873 12.0449V11.7445H16.2948C16.7445 11.7447 17.1765 11.569 17.4979 11.255C17.6559 11.1005 17.7817 10.9163 17.8678 10.713C17.954 10.5097 17.999 10.2914 18 10.0706V1.67573ZM14.59 12.0435C14.5899 12.0826 14.5821 12.1213 14.5668 12.1574C14.5516 12.1934 14.5293 12.2261 14.5013 12.2535C14.4428 12.3105 14.3642 12.3423 14.2825 12.342H4.36972C4.10809 12.3414 3.85467 12.4332 3.65436 12.6011L1.39775 14.4989V3.65184C1.39761 3.61261 1.4054 3.57376 1.42065 3.5376C1.43589 3.50145 1.45828 3.46872 1.48647 3.44139C1.54458 3.38436 1.62282 3.3524 1.70433 3.35239H14.2825C14.3642 3.3525 14.4427 3.38443 14.5013 3.44139C14.5293 3.46866 14.5516 3.50125 14.5668 3.53722C14.582 3.5732 14.5899 3.61186 14.59 3.65091V12.0435ZM16.6023 10.0674C16.6022 10.1064 16.5942 10.145 16.5789 10.1809C16.5636 10.2168 16.5412 10.2493 16.5131 10.2764C16.4547 10.3334 16.3764 10.3653 16.2948 10.3654H16.2915L15.9873 10.3705V3.64906C15.9868 3.42814 15.9423 3.20951 15.8564 3.00593C15.7704 2.80235 15.6447 2.61788 15.4865 2.4633C15.1648 2.14955 14.7327 1.97414 14.2829 1.97472H3.41003V1.67619C3.41009 1.63707 3.41797 1.59834 3.4332 1.56228C3.44843 1.52623 3.47072 1.49357 3.49875 1.46621C3.55688 1.40954 3.63489 1.37777 3.71614 1.37767H16.2948C16.3764 1.37733 16.4548 1.40915 16.5131 1.46621C16.5413 1.49348 16.5637 1.52612 16.579 1.56218C16.5943 1.59825 16.6022 1.63702 16.6023 1.67619V10.0674Z" fill="#485F7D"/>
<path d="M10.7606 9.67281C11.3704 9.67281 11.8647 9.18697 11.8647 8.58765C11.8647 7.98832 11.3704 7.50248 10.7606 7.50248C10.1508 7.50248 9.6564 7.98832 9.6564 8.58765C9.6564 9.18697 10.1508 9.67281 10.7606 9.67281Z" fill="#485F7D"/>
<path d="M7.74221 9.67281C8.35202 9.67281 8.84636 9.18697 8.84636 8.58765C8.84636 7.98832 8.35202 7.50248 7.74221 7.50248C7.1324 7.50248 6.63805 7.98832 6.63805 8.58765C6.63805 9.18697 7.1324 9.67281 7.74221 9.67281Z" fill="#485F7D"/>
<path d="M4.72363 9.67281C5.33344 9.67281 5.82778 9.18697 5.82778 8.58765C5.82778 7.98832 5.33344 7.50248 4.72363 7.50248C4.11382 7.50248 3.61947 7.98832 3.61947 8.58765C3.61947 9.18697 4.11382 9.67281 4.72363 9.67281Z" fill="#485F7D"/>
</svg>
