<svg width="16" height="18" viewBox="0 0 16 18" fill="none" xmlns="http://www.w3.org/2000/svg">
<path d="M1.69067 17.0659C1.35734 17.0659 1.06567 16.9409 0.815674 16.6909C0.565674 16.4409 0.440674 16.1492 0.440674 15.8159V11.6909L3.25317 8.58671L4.14901 9.48254L1.69067 12.17H14.1907L11.8782 9.54504L12.774 8.64921L15.4407 11.6909V15.8159C15.4407 16.1492 15.3157 16.4409 15.0657 16.6909C14.8157 16.9409 14.524 17.0659 14.1907 17.0659H1.69067ZM1.69067 15.8159H14.1907V13.42H1.69067V15.8159ZM7.14901 10.7117L3.83651 7.39921C3.57262 7.13532 3.45456 6.84018 3.48234 6.51379C3.51012 6.1874 3.64901 5.89921 3.89901 5.64921L8.31567 1.23254C8.55178 0.99643 8.84345 0.874902 9.19067 0.867957C9.5379 0.861013 9.83651 0.982541 10.0865 1.23254L13.399 4.54504C13.6351 4.78115 13.7566 5.0624 13.7636 5.38879C13.7705 5.71518 13.6351 6.01726 13.3573 6.29504L8.94067 10.7117C8.70456 10.9478 8.4129 11.0728 8.06567 11.0867C7.71845 11.1006 7.4129 10.9756 7.14901 10.7117ZM12.3365 5.35754L9.21151 2.23254L4.87817 6.56587L8.00317 9.69087L12.3365 5.35754ZM1.69067 15.8159V13.42V15.8159Z" fill="#485F7D"/>
</svg>
