<svg width="21" height="11" viewBox="0 0 21 11" fill="none" xmlns="http://www.w3.org/2000/svg">
<path d="M0.227295 10.8218V9.71761C0.227295 9.17594 0.518962 8.73844 1.10229 8.40511C1.68563 8.07178 2.43563 7.90511 3.35229 7.90511C3.53285 7.90511 3.69952 7.90858 3.85229 7.91553C4.00507 7.92247 4.15785 7.93983 4.31063 7.96761C4.19952 8.20372 4.11618 8.44331 4.06063 8.68636C4.00507 8.92942 3.97729 9.18983 3.97729 9.46761V10.8218H0.227295ZM5.22729 10.8218V9.46761C5.22729 8.56483 5.6891 7.83567 6.61271 7.28011C7.53632 6.72456 8.74118 6.44678 10.2273 6.44678C11.7273 6.44678 12.9356 6.72456 13.8523 7.28011C14.769 7.83567 15.2273 8.56483 15.2273 9.46761V10.8218H5.22729ZM16.4773 10.8218V9.46761C16.4773 9.18983 16.453 8.92942 16.4044 8.68636C16.3558 8.44331 16.2759 8.20372 16.1648 7.96761C16.3176 7.93983 16.4704 7.92247 16.6231 7.91553C16.7759 7.90858 16.9356 7.90511 17.1023 7.90511C18.0467 7.90511 18.8037 8.07178 19.3731 8.40511C19.9426 8.73844 20.2273 9.17594 20.2273 9.71761V10.8218H16.4773ZM10.2273 7.69678C9.11618 7.69678 8.21341 7.86344 7.51896 8.19678C6.82452 8.53011 6.47729 8.95372 6.47729 9.46761V9.57178H13.9773V9.44678C13.9773 8.94678 13.6335 8.53011 12.946 8.19678C12.2585 7.86344 11.3523 7.69678 10.2273 7.69678ZM3.35229 7.28011C2.94952 7.28011 2.60577 7.13775 2.32104 6.85303C2.03632 6.56831 1.89396 6.22456 1.89396 5.82178C1.89396 5.419 2.03632 5.07525 2.32104 4.79053C2.60577 4.5058 2.94952 4.36344 3.35229 4.36344C3.75507 4.36344 4.09882 4.5058 4.38354 4.79053C4.66827 5.07525 4.81063 5.419 4.81063 5.82178C4.81063 6.22456 4.66827 6.56831 4.38354 6.85303C4.09882 7.13775 3.75507 7.28011 3.35229 7.28011ZM17.1023 7.28011C16.6995 7.28011 16.3558 7.13775 16.071 6.85303C15.7863 6.56831 15.644 6.22456 15.644 5.82178C15.644 5.419 15.7863 5.07525 16.071 4.79053C16.3558 4.5058 16.6995 4.36344 17.1023 4.36344C17.5051 4.36344 17.8488 4.5058 18.1335 4.79053C18.4183 5.07525 18.5606 5.419 18.5606 5.82178C18.5606 6.22456 18.4183 6.56831 18.1335 6.85303C17.8488 7.13775 17.5051 7.28011 17.1023 7.28011ZM10.2273 5.82178C9.53285 5.82178 8.94257 5.57872 8.45646 5.09261C7.97035 4.6065 7.72729 4.01622 7.72729 3.32178C7.72729 2.61344 7.97035 2.01969 8.45646 1.54053C8.94257 1.06136 9.53285 0.821777 10.2273 0.821777C10.9356 0.821777 11.5294 1.06136 12.0085 1.54053C12.4877 2.01969 12.7273 2.61344 12.7273 3.32178C12.7273 4.01622 12.4877 4.6065 12.0085 5.09261C11.5294 5.57872 10.9356 5.82178 10.2273 5.82178ZM10.2273 2.07178C9.88007 2.07178 9.58493 2.18983 9.34188 2.42594C9.09882 2.66206 8.97729 2.96067 8.97729 3.32178C8.97729 3.669 9.09882 3.96414 9.34188 4.20719C9.58493 4.45025 9.88007 4.57178 10.2273 4.57178C10.5884 4.57178 10.887 4.45025 11.1231 4.20719C11.3592 3.96414 11.4773 3.669 11.4773 3.32178C11.4773 2.96067 11.3592 2.66206 11.1231 2.42594C10.887 2.18983 10.5884 2.07178 10.2273 2.07178Z" />
</svg>
