<svg width="19" height="19" viewBox="0 0 19 19" fill="none" xmlns="http://www.w3.org/2000/svg">
<path d="M16.0555 11.9699V5.26156L11.6805 2.19906L7.3055 5.26156V7.94906H6.0555V4.63656L11.6805 0.615723L17.3055 4.63656V11.9699H16.0555ZM12.0972 6.44906H12.9305V5.61572H12.0972V6.44906ZM10.4305 6.44906H11.2638V5.61572H10.4305V6.44906ZM12.0972 8.11572H12.9305V7.28239H12.0972V8.11572ZM10.4305 8.11572H11.2638V7.28239H10.4305V8.11572ZM11.8055 18.0741L5.32633 16.2199V17.4074H0.847168V9.19906H7.28467L12.5972 11.1991C12.9722 11.3379 13.2881 11.5636 13.5451 11.8761C13.802 12.1886 13.9305 12.6366 13.9305 13.2199H16.3055C16.8888 13.2199 17.3749 13.4282 17.7638 13.8449C18.1527 14.2616 18.3472 14.8241 18.3472 15.5324V16.0741L11.8055 18.0741ZM2.09717 16.1574H4.0555V10.4491H2.09717V16.1574ZM11.7222 16.7824L17.0555 15.1574C16.9722 14.8935 16.868 14.7129 16.743 14.6157C16.618 14.5185 16.4722 14.4699 16.3055 14.4699H11.993C11.5763 14.4699 11.1909 14.4421 10.8368 14.3866C10.4826 14.331 10.1458 14.2546 9.82633 14.1574L8.13883 13.6366L8.59717 12.4282L10.118 12.9282C10.4652 13.0393 10.7951 13.1157 11.1076 13.1574C11.4201 13.1991 11.9166 13.2199 12.5972 13.2199C12.5972 13.0532 12.5659 12.89 12.5034 12.7303C12.4409 12.5706 12.3333 12.456 12.1805 12.3866L7.07633 10.4491H5.32633V14.9074L11.7222 16.7824Z" fill="#C6D3E3"/>
</svg>
