<svg width="18" height="18" viewBox="0 0 18 18" fill="none" xmlns="http://www.w3.org/2000/svg">
<path d="M6.02498 11.0046H14.1708L11.525 7.44206L9.37915 10.2546L7.96248 8.44206L6.02498 11.0046ZM4.25415 14.6921C3.92082 14.6921 3.62915 14.5671 3.37915 14.3171C3.12915 14.0671 3.00415 13.7754 3.00415 13.4421V1.77539C3.00415 1.44206 3.12915 1.15039 3.37915 0.900391C3.62915 0.650391 3.92082 0.525391 4.25415 0.525391H15.9208C16.2542 0.525391 16.5458 0.650391 16.7958 0.900391C17.0458 1.15039 17.1708 1.44206 17.1708 1.77539V13.4421C17.1708 13.7754 17.0458 14.0671 16.7958 14.3171C16.5458 14.5671 16.2542 14.6921 15.9208 14.6921H4.25415ZM4.25415 13.4421H15.9208V1.77539H4.25415V13.4421ZM1.75415 17.1921C1.42082 17.1921 1.12915 17.0671 0.87915 16.8171C0.62915 16.5671 0.50415 16.2754 0.50415 15.9421V3.02539H1.75415V15.9421H14.6708V17.1921H1.75415ZM4.25415 1.77539V13.4421V1.77539Z"  />
</svg>
