<svg width="16" height="16" viewBox="0 0 16 16" fill="none" xmlns="http://www.w3.org/2000/svg">
<path d="M8.01392 6.8234C5.7778 6.8234 3.96878 6.48313 2.58683 5.80257C1.20489 5.12202 0.513916 4.35118 0.513916 3.49007C0.513916 2.61507 1.20489 1.84077 2.58683 1.16716C3.96878 0.493544 5.7778 0.156738 8.01392 0.156738C10.25 0.156738 12.0591 0.493544 13.441 1.16716C14.8229 1.84077 15.5139 2.61507 15.5139 3.49007C15.5139 4.35118 14.8229 5.12202 13.441 5.80257C12.0591 6.48313 10.25 6.8234 8.01392 6.8234ZM8.01392 10.9901C5.98614 10.9901 4.22919 10.6845 2.74308 10.0734C1.25697 9.46229 0.513916 8.72618 0.513916 7.86507V5.78174C0.513916 6.3234 0.774333 6.79215 1.29517 7.18799C1.816 7.58382 2.46183 7.91021 3.23267 8.16716C4.0035 8.4241 4.82294 8.6116 5.691 8.72966C6.55905 8.84771 7.33336 8.90674 8.01392 8.90674C8.70836 8.90674 9.48614 8.84771 10.3472 8.72966C11.2084 8.6116 12.0243 8.42757 12.7952 8.17757C13.566 7.92757 14.2118 7.60465 14.7327 7.20882C15.2535 6.81299 15.5139 6.33729 15.5139 5.78174V7.86507C15.5139 8.72618 14.7709 9.46229 13.2847 10.0734C11.7986 10.6845 10.0417 10.9901 8.01392 10.9901ZM8.01392 15.1567C5.98614 15.1567 4.22919 14.8512 2.74308 14.2401C1.25697 13.629 0.513916 12.8928 0.513916 12.0317V9.9484C0.513916 10.4901 0.774333 10.9588 1.29517 11.3547C1.816 11.7505 2.46183 12.0769 3.23267 12.3338C4.0035 12.5908 4.82294 12.7783 5.691 12.8963C6.55905 13.0144 7.33336 13.0734 8.01392 13.0734C8.70836 13.0734 9.48614 13.0144 10.3472 12.8963C11.2084 12.7783 12.0243 12.5942 12.7952 12.3442C13.566 12.0942 14.2118 11.7713 14.7327 11.3755C15.2535 10.9797 15.5139 10.504 15.5139 9.9484V12.0317C15.5139 12.8928 14.7709 13.629 13.2847 14.2401C11.7986 14.8512 10.0417 15.1567 8.01392 15.1567Z" fill="#C6D3E3"/>
</svg>
