<svg width="16" height="16" viewBox="0 0 16 16" fill="none" xmlns="http://www.w3.org/2000/svg">
<path d="M1.76392 7.61865C1.43058 7.61865 1.13892 7.49365 0.888916 7.24365C0.638916 6.99365 0.513916 6.70199 0.513916 6.36865V1.99365C0.513916 1.66032 0.638916 1.36865 0.888916 1.11865C1.13892 0.868652 1.43058 0.743652 1.76392 0.743652H14.2639C14.5972 0.743652 14.8889 0.868652 15.1389 1.11865C15.3889 1.36865 15.5139 1.66032 15.5139 1.99365V6.36865C15.5139 6.70199 15.3889 6.99365 15.1389 7.24365C14.8889 7.49365 14.5972 7.61865 14.2639 7.61865H1.76392ZM1.76392 6.36865H14.2639V1.99365H1.76392V6.36865ZM1.76392 15.7437C1.43058 15.7437 1.13892 15.6187 0.888916 15.3687C0.638916 15.1187 0.513916 14.827 0.513916 14.4937V10.1187C0.513916 9.78532 0.638916 9.49365 0.888916 9.24365C1.13892 8.99365 1.43058 8.86865 1.76392 8.86865H14.2639C14.5972 8.86865 14.8889 8.99365 15.1389 9.24365C15.3889 9.49365 15.5139 9.78532 15.5139 10.1187V14.4937C15.5139 14.827 15.3889 15.1187 15.1389 15.3687C14.8889 15.6187 14.5972 15.7437 14.2639 15.7437H1.76392ZM1.76392 14.4937H14.2639V10.1187H1.76392V14.4937ZM1.76392 1.99365V6.36865V1.99365ZM1.76392 10.1187V14.4937V10.1187Z" fill="#C6D3E3"/>
</svg>
