<svg width="26" height="26" viewBox="0 0 26 26" fill="none" xmlns="http://www.w3.org/2000/svg">
    <path fill-rule="evenodd" clip-rule="evenodd"
        d="M6.60794 6.04458C6.8447 5.80782 7.16582 5.6748 7.50066 5.6748H16.5007C16.8355 5.6748 17.1566 5.80782 17.3934 6.04458C17.6301 6.28135 17.7632 6.60247 17.7632 6.9373V7.3623H19.3134C19.6482 7.3623 19.9693 7.49532 20.2061 7.73208C20.4429 7.96885 20.5759 8.28997 20.5759 8.6248V9.7498C20.5759 10.5322 20.2651 11.2825 19.7118 11.8358C19.1586 12.389 18.4083 12.6998 17.6259 12.6998H17.4666C17.4227 12.8312 17.3741 12.9611 17.3207 13.0893C17.0286 13.791 16.6006 14.4281 16.0612 14.9637C15.5219 15.4993 14.8819 15.923 14.1781 16.2102C13.7039 16.4037 13.2069 16.5328 12.7007 16.5948V18.0498H14.2507C14.6373 18.0498 14.9507 18.3632 14.9507 18.7498C14.9507 19.1364 14.6373 19.4498 14.2507 19.4498H9.75066C9.36406 19.4498 9.05066 19.1364 9.05066 18.7498C9.05066 18.3632 9.36406 18.0498 9.75066 18.0498H11.3007V16.5945C9.07288 16.3202 7.25323 14.7607 6.55048 12.6998H6.36797C5.58558 12.6998 4.83524 12.389 4.282 11.8358C3.72877 11.2825 3.41797 10.5322 3.41797 9.7498V8.6248C3.41797 8.28997 3.55098 7.96885 3.78775 7.73208C4.02451 7.49532 4.34563 7.3623 4.68047 7.3623H6.23816V6.9373C6.23816 6.60247 6.37117 6.28135 6.60794 6.04458ZM6.23816 8.7623H4.81797V9.7498C4.81797 10.1609 4.98127 10.5551 5.27195 10.8458C5.53662 11.1105 5.88715 11.2696 6.25806 11.2959C6.24488 11.136 6.23816 10.9745 6.23816 10.8115V8.7623ZM7.76888 11.8857C7.76359 11.8535 7.75611 11.822 7.74659 11.7914C7.67563 11.4758 7.63816 11.1478 7.63816 10.8115V7.0748H16.3632V10.8748C16.3632 11.4503 16.2493 12.02 16.0282 12.5513C15.8071 13.0826 15.483 13.5648 15.0747 13.9703C14.6664 14.3758 14.1819 14.6965 13.6491 14.914C13.1295 15.1261 12.5739 15.2358 12.0129 15.2374C12.0088 15.2373 12.0048 15.2373 12.0007 15.2373C11.9966 15.2373 11.9925 15.2373 11.9884 15.2374C11.9825 15.2374 11.9767 15.2374 11.9708 15.2373C9.94125 15.222 8.24151 13.792 7.76888 11.8857ZM17.7478 11.295C18.1143 11.2661 18.4601 11.1076 18.7219 10.8458C19.0126 10.5551 19.1759 10.1609 19.1759 9.7498V8.7623H17.7632V10.8748C17.7632 10.8748 17.7632 10.8748 17.7632 10.8748C17.7632 11.0152 17.758 11.1554 17.7478 11.295Z"
        fill="" />
</svg>