<svg width="24" height="24" viewBox="0 0 26 26" fill="none" xmlns="http://www.w3.org/2000/svg">
<path fill-rule="evenodd" clip-rule="evenodd" d="M6.60696 6.04458C6.84372 5.80782 7.16485 5.6748 7.49968 5.6748H16.4997C16.8345 5.6748 17.1556 5.80782 17.3924 6.04458C17.6292 6.28135 17.7622 6.60247 17.7622 6.9373V7.3623H19.3124C19.6472 7.3623 19.9684 7.49532 20.2051 7.73208C20.4419 7.96885 20.5749 8.28997 20.5749 8.6248V9.7498C20.5749 10.5322 20.2641 11.2825 19.7109 11.8358C19.1576 12.389 18.4073 12.6998 17.6249 12.6998H17.4656C17.4217 12.8312 17.3731 12.9611 17.3197 13.0893C17.0276 13.791 16.5996 14.4281 16.0603 14.9637C15.5209 15.4993 14.8809 15.923 14.1772 16.2102C13.7029 16.4037 13.206 16.5328 12.6997 16.5948V18.0498H14.2497C14.6363 18.0498 14.9497 18.3632 14.9497 18.7498C14.9497 19.1364 14.6363 19.4498 14.2497 19.4498H9.74968C9.36308 19.4498 9.04968 19.1364 9.04968 18.7498C9.04968 18.3632 9.36308 18.0498 9.74968 18.0498H11.2997V16.5945C9.0719 16.3202 7.25225 14.7607 6.54951 12.6998H6.36699C5.5846 12.6998 4.83426 12.389 4.28103 11.8358C3.72779 11.2825 3.41699 10.5322 3.41699 9.7498V8.6248C3.41699 8.28997 3.55001 7.96885 3.78677 7.73208C4.02353 7.49532 4.34466 7.3623 4.67949 7.3623H6.23718V6.9373C6.23718 6.60247 6.3702 6.28135 6.60696 6.04458ZM6.23718 8.7623H4.81699V9.7498C4.81699 10.1609 4.9803 10.5551 5.27098 10.8458C5.53564 11.1105 5.88617 11.2696 6.25709 11.2959C6.2439 11.136 6.23718 10.9745 6.23718 10.8115V8.7623ZM7.7679 11.8857C7.76262 11.8535 7.75514 11.822 7.74561 11.7914C7.67465 11.4758 7.63718 11.1478 7.63718 10.8115V7.0748H16.3622V10.8748C16.3622 11.4503 16.2484 12.02 16.0272 12.5513C15.8061 13.0826 15.4821 13.5648 15.0737 13.9703C14.6654 14.3758 14.1809 14.6965 13.6481 14.914C13.1285 15.1261 12.5729 15.2358 12.0119 15.2374C12.0079 15.2373 12.0038 15.2373 11.9997 15.2373C11.9956 15.2373 11.9915 15.2373 11.9874 15.2374C11.9816 15.2374 11.9757 15.2374 11.9698 15.2373C9.94028 15.222 8.24053 13.792 7.7679 11.8857ZM17.7468 11.295C18.1133 11.2661 18.4591 11.1076 18.7209 10.8458C19.0116 10.5551 19.1749 10.1609 19.1749 9.7498V8.7623H17.7622V10.8748C17.7622 10.8748 17.7622 10.8748 17.7622 10.8748C17.7622 11.0152 17.7571 11.1554 17.7468 11.295Z" fill="currentColor"/>
</svg>
