<svg width="24" height="24" viewBox="0 0 24 24" xmlns="http://www.w3.org/2000/svg">
<path d="M16.5 19.8571V21M16.5 19.8571C15.4878 19.8571 14.5961 19.3521 14.073 18.5852M16.5 19.8571C17.5122 19.8571 18.4039 19.3521 18.927 18.5852M14.073 18.5852L13.0004 19.2857M14.073 18.5852C13.7637 18.1316 13.5833 17.5864 13.5833 17C13.5833 16.4136 13.7636 15.8685 14.0729 15.415M18.927 18.5852L19.9996 19.2857M18.927 18.5852C19.2363 18.1316 19.4167 17.5864 19.4167 17C19.4167 16.4136 19.2364 15.8685 18.9271 15.415M16.5 14.1429C17.5123 14.1429 18.4041 14.648 18.9271 15.415M16.5 14.1429C15.4877 14.1429 14.5959 14.648 14.0729 15.415M16.5 14.1429V13M18.9271 15.415L20 14.7143M14.0729 15.415L13 14.7143" stroke="black" stroke-width="1.5" stroke-linecap="round"/>
<path d="M4 3H20" stroke="black" stroke-width="1.5" stroke-linecap="round"/>
<path d="M4 9H20" stroke="black" stroke-width="1.5" stroke-linecap="round"/>
<path d="M4 15H9" stroke="black" stroke-width="1.5" stroke-linecap="round"/>
</svg>
