<svg width="24" height="24" viewBox="0 0 24 24" fill="none" xmlns="http://www.w3.org/2000/svg">
<path d="M19.8005 6.79925H18.0012V6.1995C18.0012 5.88137 17.8749 5.57628 17.6499 5.35133C17.425 5.12638 17.1199 5 16.8017 5H7.20575C6.88762 5 6.58252 5.12638 6.35757 5.35133C6.13262 5.57628 6.00625 5.88137 6.00625 6.1995V6.79925H4.1995C3.88137 6.79925 3.57628 6.92563 3.35133 7.15058C3.12638 7.37553 3 7.68062 3 7.99875V9.19825C3 9.99357 3.31594 10.7563 3.87831 11.3187C4.44069 11.8811 5.20343 12.197 5.99875 12.197H6.29863C7.02582 14.4386 9.01249 16.1179 11.404 16.3653V18.1945H9.60475C9.44568 18.1945 9.29314 18.2577 9.18066 18.3702C9.06819 18.4826 9.005 18.6352 9.005 18.7943C9.005 18.9533 9.06819 19.1059 9.18066 19.2183C9.29314 19.3308 9.44568 19.394 9.60475 19.394H14.4027C14.5618 19.394 14.7144 19.3308 14.8268 19.2183C14.9393 19.1059 15.0025 18.9533 15.0025 18.7943C15.0025 18.6352 14.9393 18.4826 14.8268 18.3702C14.7144 18.2577 14.5618 18.1945 14.4027 18.1945H12.6035V16.3653C13.7721 16.2505 14.881 15.7939 15.7917 15.0526C16.7024 14.3113 17.3744 13.3181 17.7239 12.197H18.0012C18.7966 12.197 19.5593 11.8811 20.1217 11.3187C20.6841 10.7563 21 9.99357 21 9.19825V7.99875C21 7.68062 20.8736 7.37553 20.6487 7.15058C20.4237 6.92563 20.1186 6.79925 19.8005 6.79925ZM5.99875 10.9975C5.52156 10.9975 5.06391 10.8079 4.72649 10.4705C4.38906 10.1331 4.1995 9.67544 4.1995 9.19825V7.99875H6.00625V10.3303C6.00732 10.5532 6.01983 10.7759 6.04373 10.9975H5.99875ZM19.8005 9.19825C19.7985 9.67483 19.6083 10.1313 19.2713 10.4683C18.9343 10.8053 18.4778 10.9955 18.0012 10.9975H17.9713C17.9926 10.7983 18.0027 10.5981 18.0012 10.3978V7.99875H19.8005V9.19825Z"/>
</svg>
