<svg width="18" height="12" viewBox="0 0 18 12" fill="none" xmlns="http://www.w3.org/2000/svg">
<path d="M14.0191 2.45455C14.0191 3.42918 13.2413 4.20909 12.2727 4.20909C11.3011 4.20909 10.5182 3.42613 10.5182 2.45455C10.5182 1.48296 11.3011 0.7 12.2727 0.7C13.2413 0.7 14.0191 1.47991 14.0191 2.45455ZM7.47364 2.45455C7.47364 3.42918 6.69581 4.20909 5.72727 4.20909C4.75569 4.20909 3.97273 3.42613 3.97273 2.45455C3.97273 1.48296 4.75569 0.7 5.72727 0.7C6.69581 0.7 7.47364 1.47991 7.47364 2.45455ZM0.7 9.40909C0.7 9.18972 0.804337 8.94591 1.10137 8.67198C1.40318 8.39363 1.85474 8.13401 2.40882 7.91228C3.5181 7.46838 4.86152 7.24545 5.72727 7.24545C6.59303 7.24545 7.93644 7.46838 9.04573 7.91228C9.5998 8.13401 10.0514 8.39363 10.3532 8.67198C10.6502 8.94591 10.7545 9.18972 10.7545 9.40909V10.6364C10.7545 10.6998 10.6998 10.7545 10.6364 10.7545H0.818182C0.754781 10.7545 0.7 10.6998 0.7 10.6364V9.40909ZM13.1545 7.30471C13.9179 7.39783 14.8122 7.60057 15.5912 7.91228C16.1453 8.13401 16.5968 8.39363 16.8986 8.67198C17.1957 8.94591 17.3 9.18972 17.3 9.40909V10.6364C17.3 10.6998 17.2452 10.7545 17.1818 10.7545H13.7885C13.7901 10.7154 13.7909 10.676 13.7909 10.6364V9.40909C13.7909 8.5921 13.5469 7.8943 13.1545 7.30471Z" stroke="#C2CFE0" stroke-width="1.4"/>
</svg>
