<svg viewBox="0 0 30 33" fill="none" xmlns="http://www.w3.org/2000/svg">
<path d="M14.3743 10.6091C13.9481 10.6042 13.5272 10.513 13.1371 10.3412C12.747 10.1693 12.3957 9.92031 12.1043 9.60913C11.5887 9.05633 11.2708 8.34826 11.2002 7.59561C11.1297 6.84296 11.3105 6.08814 11.7143 5.44913C12.0626 4.9196 12.5603 4.50543 13.1443 4.25913C13.7283 3.99928 14.3799 3.93272 15.0043 4.06913C15.6355 4.19815 16.2096 4.52371 16.6443 4.99913C17.0914 5.46665 17.3936 6.05362 17.5143 6.68913C17.6356 7.32342 17.5731 7.97914 17.3343 8.57913C17.094 9.17156 16.6877 9.682 16.1643 10.0491C15.6395 10.4156 15.0144 10.6111 14.3743 10.6091ZM14.3743 5.29913C14.1266 5.29961 13.8816 5.35066 13.6543 5.44913C13.3051 5.60306 13.0093 5.8571 12.8043 6.17913C12.5878 6.51672 12.4701 6.90813 12.4643 7.30913C12.4628 7.83959 12.663 8.3508 13.0243 8.73913C13.196 8.9191 13.4024 9.06239 13.631 9.16036C13.8596 9.25833 14.1056 9.30894 14.3543 9.30913C14.7485 9.33175 15.139 9.2227 15.4643 8.99913C15.7838 8.77484 16.0306 8.46198 16.1743 8.09913C16.3273 7.72895 16.3657 7.32135 16.2843 6.92913C16.2076 6.55172 16.0236 6.20448 15.7543 5.92913C15.4885 5.64528 15.1375 5.45573 14.7543 5.38913C14.632 5.34323 14.5043 5.31299 14.3743 5.29913Z" fill="#90A0B7"/>
<path d="M19.4643 16.6691C19.292 16.6691 19.1266 16.6006 19.0047 16.4788C18.8828 16.3569 18.8143 16.1915 18.8143 16.0191C18.8143 14.0791 16.8143 12.5091 14.3743 12.5091C11.9343 12.5091 9.93435 14.0791 9.93435 15.9991C9.93435 16.1715 9.86586 16.3369 9.74396 16.4588C9.62207 16.5807 9.45674 16.6491 9.28435 16.6491C9.11195 16.6491 8.94662 16.5807 8.82473 16.4588C8.70283 16.3369 8.63435 16.1715 8.63435 15.9991C8.63435 13.3491 11.2043 11.1891 14.3743 11.1891C17.5443 11.1891 20.1143 13.3691 20.1143 15.9991C20.117 16.0862 20.1022 16.1728 20.0707 16.254C20.0393 16.3352 19.9918 16.4092 19.9312 16.4717C19.8706 16.5342 19.798 16.5839 19.7178 16.6178C19.6376 16.6517 19.5514 16.6692 19.4643 16.6691Z" fill="#90A0B7"/>
<path d="M7.64435 8.08913V6.75913C7.64566 6.58539 7.58138 6.41755 7.46435 6.28913C7.40569 6.22926 7.33567 6.1817 7.2584 6.14923C7.18113 6.11676 7.09816 6.10004 7.01435 6.10004C6.93053 6.10004 6.84756 6.11676 6.77029 6.14923C6.69302 6.1817 6.623 6.22926 6.56435 6.28913C6.44451 6.41656 6.37673 6.58423 6.37435 6.75913V8.08913H5.10435C5.02169 8.07413 4.937 8.07413 4.85435 8.08913C4.77705 8.12312 4.70861 8.17444 4.65435 8.23913C4.59332 8.29841 4.54559 8.37 4.51435 8.44913C4.49921 8.53514 4.49921 8.62313 4.51435 8.70913C4.49522 8.80485 4.49522 8.90341 4.51435 8.99913C4.54559 9.07827 4.59332 9.14985 4.65435 9.20913C4.70861 9.27382 4.77705 9.32515 4.85435 9.35913C4.937 9.37413 5.02169 9.37413 5.10435 9.35913H6.37435V10.7491C6.38811 10.8374 6.41866 10.9223 6.46435 10.9991C6.49542 11.0813 6.54308 11.1562 6.60435 11.2191C6.66173 11.2778 6.72955 11.3253 6.80435 11.3591C6.887 11.3741 6.97169 11.3741 7.05435 11.3591C7.13373 11.3732 7.21496 11.3732 7.29435 11.3591C7.35916 11.3234 7.4168 11.2759 7.46435 11.2191C7.52273 11.1558 7.56703 11.0808 7.59435 10.9991C7.63111 10.9211 7.64827 10.8353 7.64435 10.7491V9.41913H8.92435C9.00904 9.4183 9.09266 9.40012 9.17005 9.36573C9.24745 9.33133 9.31698 9.28144 9.37434 9.21913C9.49254 9.09546 9.55722 8.93018 9.55435 8.75913C9.55878 8.58484 9.49407 8.41587 9.37434 8.28913C9.31698 8.22683 9.24745 8.17694 9.17005 8.14254C9.09266 8.10814 9.00904 8.08997 8.92435 8.08913H7.64435Z" fill="#90A0B7"/>
<rect x="0.5" y="20" width="29" height="13" rx="6.5" fill="#407AFC"/>
<path d="M5.36 30V23.14H6.28L9.61 27.66C9.64333 27.7 9.68667 27.76 9.74 27.84C9.79333 27.92 9.84667 28 9.9 28.08C9.95333 28.1533 9.99667 28.22 10.03 28.28H10.07C10.07 28.1733 10.07 28.07 10.07 27.97C10.07 27.8633 10.07 27.76 10.07 27.66V23.14H11V30H10.13L6.76 25.4C6.71333 25.3267 6.64333 25.2233 6.55 25.09C6.46333 24.9567 6.39 24.85 6.33 24.77H6.28C6.28 24.8767 6.28 24.9833 6.28 25.09C6.28 25.19 6.28 25.2933 6.28 25.4V30H5.36ZM14.6533 30.12C14.1333 30.12 13.6933 30.0233 13.3333 29.83C12.9799 29.63 12.7099 29.3267 12.5233 28.92C12.3433 28.5133 12.2533 27.9967 12.2533 27.37C12.2533 26.7367 12.3433 26.22 12.5233 25.82C12.7099 25.4133 12.9833 25.1133 13.3433 24.92C13.7033 24.72 14.1533 24.62 14.6933 24.62C15.1866 24.62 15.5999 24.7167 15.9333 24.91C16.2666 25.0967 16.5166 25.38 16.6833 25.76C16.8566 26.1333 16.9433 26.6033 16.9433 27.17V27.59H13.1633C13.1766 28.01 13.2366 28.3567 13.3433 28.63C13.4566 28.8967 13.6233 29.0933 13.8433 29.22C14.0633 29.34 14.3399 29.4 14.6733 29.4C14.8999 29.4 15.0966 29.3733 15.2633 29.32C15.4366 29.26 15.5799 29.1767 15.6933 29.07C15.8133 28.9633 15.9033 28.8367 15.9633 28.69C16.0233 28.5433 16.0566 28.3833 16.0633 28.21H16.9233C16.9166 28.49 16.8633 28.75 16.7633 28.99C16.6633 29.2233 16.5166 29.4233 16.3233 29.59C16.1299 29.7567 15.8933 29.8867 15.6133 29.98C15.3333 30.0733 15.0133 30.12 14.6533 30.12ZM13.1833 26.93H16.0333C16.0333 26.6367 15.9999 26.39 15.9333 26.19C15.8666 25.99 15.7699 25.8267 15.6433 25.7C15.5233 25.5733 15.3799 25.4833 15.2133 25.43C15.0533 25.37 14.8699 25.34 14.6633 25.34C14.3566 25.34 14.0966 25.3967 13.8833 25.51C13.6699 25.6233 13.5066 25.7967 13.3933 26.03C13.2799 26.2633 13.2099 26.5633 13.1833 26.93ZM19.0418 30L17.4518 24.74H18.3618L19.1618 27.63C19.2018 27.77 19.2385 27.9233 19.2718 28.09C19.3118 28.25 19.3485 28.4 19.3818 28.54C19.4218 28.6733 19.4485 28.7767 19.4618 28.85H19.5218C19.5485 28.7233 19.5785 28.58 19.6118 28.42C19.6518 28.26 19.6851 28.1067 19.7118 27.96C19.7451 27.8133 19.7718 27.7 19.7918 27.62L20.5118 24.74H21.4618L22.1918 27.62C22.2185 27.7333 22.2485 27.8667 22.2818 28.02C22.3151 28.1667 22.3485 28.3133 22.3818 28.46C22.4218 28.6067 22.4485 28.7367 22.4618 28.85H22.5218C22.5485 28.7433 22.5785 28.62 22.6118 28.48C22.6451 28.3333 22.6818 28.1867 22.7218 28.04C22.7618 27.8867 22.7985 27.7533 22.8318 27.64L23.6218 24.74H24.4618L22.8818 30H21.9818L21.3018 27.28C21.2751 27.1533 21.2418 27.0067 21.2018 26.84C21.1618 26.6667 21.1218 26.4933 21.0818 26.32C21.0485 26.14 21.0185 25.9833 20.9918 25.85H20.9318C20.9185 25.95 20.8951 26.0767 20.8618 26.23C20.8351 26.3833 20.8018 26.5533 20.7618 26.74C20.7218 26.92 20.6751 27.1 20.6218 27.28L19.9418 30H19.0418Z" fill="white"/>
</svg>
