<svg width="15" height="16" viewBox="0 0 15 16" fill="none" xmlns="http://www.w3.org/2000/svg">
<path fill-rule="evenodd" clip-rule="evenodd" d="M9.46611 0.779953C9.05434 0.871114 8.65775 1.13107 8.38554 1.48825C8.09442 1.87023 7.94745 2.03878 7.58867 2.40224C6.15633 3.85326 4.3551 5.12704 2.31439 6.13206C1.93651 6.31816 1.45869 6.53662 1.25257 6.61747C0.775526 6.80467 0.649324 6.8779 0.487208 7.06163C-0.200949 7.84154 -0.155603 9.50486 0.594609 11.0007C1.28461 12.3765 2.3088 13.0854 3.19281 12.799C3.36307 12.7438 4.65432 12.5281 4.73804 12.5409C4.78926 12.5487 4.86406 12.6791 5.08407 13.1442C5.79228 14.6413 5.84063 14.7315 5.97189 14.8033C6.03863 14.8398 6.45161 14.9919 6.88962 15.1414C7.32762 15.2909 7.73008 15.4285 7.78399 15.447C7.86719 15.4758 7.90463 15.4695 8.03221 15.4056C8.22262 15.3102 8.30032 15.2028 8.31656 15.0125C8.32365 14.9297 8.25182 14.2372 8.15697 13.4738C8.06212 12.7104 7.98851 12.0818 7.99342 12.0768C7.99832 12.0719 8.21225 12.0501 8.46877 12.0283C8.76733 12.003 9.49159 11.989 10.4811 11.9895C11.872 11.9902 12.0505 11.996 12.2612 12.0475C13.5697 12.3671 14.6359 11.4418 14.9296 9.73187C15.112 8.67039 14.9321 7.07596 14.4796 5.74265C14.0968 4.61446 13.5207 3.48477 12.9236 2.69105C12.1815 1.70468 11.3154 1.02392 10.5254 0.806124C10.2608 0.733171 9.73597 0.720179 9.46611 0.779953ZM10.3433 1.80758C11.5207 2.2028 12.758 3.86034 13.5243 6.06894C13.983 7.39079 14.0953 8.82664 13.8238 9.89627C13.6578 10.55 13.2452 11.0434 12.8077 11.1115C12.5317 11.1544 12.1191 11.0279 11.7508 10.7875C11.4777 10.6093 11.0646 10.252 10.9018 10.0534L10.7867 9.91288L10.9306 9.75283C11.1016 9.56267 11.2391 9.28709 11.3297 8.95299C11.4263 8.59691 11.4253 7.81259 11.3278 7.35101C11.1192 6.36441 10.6075 5.34294 10.0027 4.706C9.88538 4.58242 9.69543 4.41709 9.58057 4.33864C9.3698 4.1946 9.00109 4.04285 8.85712 4.04082C8.67049 4.03823 8.63851 4.01169 8.63851 3.85928C8.63851 3.52887 8.82196 2.75067 8.9712 2.44787C9.10437 2.17772 9.36061 1.90296 9.57541 1.80003C9.77351 1.70512 10.046 1.70777 10.3433 1.80758ZM7.69901 5.25858C7.86097 6.3532 8.07655 7.16544 8.42255 7.98448C8.85968 9.01923 9.42004 9.93578 10.0676 10.6752L10.3564 11.0049L10.1143 11.0053C9.64287 11.0062 8.27155 11.0687 7.7016 11.1153C6.18506 11.2394 4.54142 11.4836 3.29015 11.7709C3.03025 11.8306 2.78872 11.8793 2.7534 11.8791C2.61161 11.8784 2.34856 11.7176 2.12745 11.4964C1.61487 10.9837 1.17312 10.0958 1.03417 9.29909C0.9734 8.95059 0.973994 8.36312 1.03539 8.10266C1.11347 7.77137 1.15516 7.72752 1.53967 7.57218C3.57872 6.74842 5.71517 5.41361 7.48299 3.85897L7.62353 3.73536L7.64392 4.37986C7.65516 4.73432 7.67993 5.12976 7.69901 5.25858ZM9.00062 5.1594C9.59684 5.54553 10.1559 6.57516 10.3396 7.62552C10.433 8.15915 10.3911 8.78985 10.2432 9.07566L10.1928 9.17317L10.1385 9.10112C10.0241 8.94949 9.57388 8.09897 9.41043 7.72577C9.0598 6.92512 8.70097 5.62785 8.70097 5.1608C8.70097 5.00253 8.758 5.00228 9.00062 5.1594ZM6.98359 12.1683C6.98371 12.1725 7.03959 12.618 7.10773 13.158C7.17587 13.698 7.22756 14.144 7.22263 14.1489C7.21766 14.1539 7.07191 14.1142 6.89871 14.0608L6.58381 13.9636L6.20946 13.1415L5.83513 12.3193L5.96417 12.3012C6.03516 12.2911 6.28297 12.2569 6.51486 12.2251C6.74674 12.1933 6.94702 12.1658 6.95989 12.1639C6.97275 12.162 6.98343 12.164 6.98359 12.1683Z" fill="#C1CEDE"/>
</svg>
