<svg width="19" height="16" viewBox="0 0 19 16" fill="none" xmlns="http://www.w3.org/2000/svg">
<path d="M15.8562 4.54044V13.1376C15.8562 13.1763 15.8611 13.3401 15.8636 13.3788C15.8636 13.4038 15.8673 13.4276 15.8692 13.4507V4.38232C15.8604 4.43455 15.856 4.48745 15.8562 4.54044Z" fill="#485F7D"/>
<path d="M18.9888 3.92984C18.9306 3.27986 18.5828 2.77926 18.1637 2.77926H15.871V1.59993C15.8704 1.17548 15.7027 0.768634 15.4048 0.468678C15.1069 0.168722 14.7031 0.000165026 14.2821 0H1.5871C1.16638 0.000661148 0.763074 0.169437 0.465577 0.46934C0.168079 0.769242 0.000655847 1.17581 0 1.59993V14.3975C0.00036227 14.7821 0.138 15.1536 0.387752 15.4443C0.637504 15.735 0.982687 15.9253 1.3602 15.9806C1.43531 15.9919 1.51116 15.9975 1.5871 15.9975H16.8214C16.9707 16.009 17.1203 15.981 17.2554 15.9162C17.6994 15.7117 18.0987 15.4205 18.4303 15.0594C18.7644 14.68 19 14.2019 19 13.6176V4.12483C18.9975 4.05671 18.9944 3.99296 18.9888 3.92984ZM1.3602 2.09866C1.3602 1.90573 1.43623 1.72069 1.57156 1.58426C1.70689 1.44784 1.89045 1.37119 2.08184 1.37119H13.7874C13.9784 1.37169 14.1615 1.44855 14.2964 1.58493C14.4314 1.7213 14.5071 1.90605 14.5071 2.09866V13.8988C14.5066 14.0911 14.4306 14.2754 14.2958 14.4113C14.1609 14.5473 13.9781 14.6239 13.7874 14.6244H2.08184C1.89045 14.6244 1.70689 14.5477 1.57156 14.4113C1.43623 14.2749 1.3602 14.0899 1.3602 13.8969V2.09866ZM17.9132 13.1376C17.9135 13.1765 17.911 13.2153 17.9058 13.2538C17.8682 13.5501 17.7661 13.8344 17.6069 14.0863C17.5318 14.2089 17.4281 14.3111 17.3048 14.3839C17.1815 14.4568 17.0424 14.4981 16.8996 14.5043C16.7568 14.5105 16.6146 14.4813 16.4856 14.4193C16.3566 14.3573 16.2445 14.2645 16.1593 14.1488C16.0558 14.0113 15.9113 13.9457 15.8686 13.4507C15.8686 13.4276 15.8648 13.4038 15.863 13.3788C15.863 13.3401 15.8555 13.1763 15.8555 13.1376V4.54044C15.8554 4.48745 15.8598 4.43455 15.8686 4.38232C15.912 4.1217 16.0595 3.92984 16.2343 3.92984H17.5307C17.7402 3.92984 17.9101 4.20357 17.9101 4.54044L17.9132 13.1376Z" fill="#485F7D"/>
<path d="M7.93552 9.61585C7.93552 9.97208 7.6212 10.2608 7.23373 10.2608H3.22381C2.83695 10.2608 2.52263 9.97208 2.52263 9.61585C2.52263 9.25961 2.83633 8.97025 3.22381 8.97025H7.23373C7.62058 8.97025 7.93552 9.25899 7.93552 9.61585Z" fill="#485F7D"/>
<path d="M7.93552 6.66472C7.93552 7.02158 7.71792 7.31032 7.44947 7.31032H3.00744C2.73962 7.31032 2.52201 7.02158 2.52201 6.66472C2.52201 6.30786 2.73962 6.01975 3.00744 6.01975H7.44885C7.7173 6.01975 7.93552 6.31224 7.93552 6.66472Z" fill="#485F7D"/>
<path d="M13.2232 3.71484C13.2232 4.07108 12.8679 4.36044 12.4296 4.36044H3.31618C2.87849 4.36044 2.52325 4.07108 2.52325 3.71484C2.52325 3.35861 2.87849 3.06925 3.31618 3.06925H12.4296C12.8679 3.06925 13.2232 3.35798 13.2232 3.71484Z" fill="#485F7D"/>
<path d="M13.2232 12.2826C13.2232 12.6395 12.8679 12.9282 12.4296 12.9282H3.31618C2.87849 12.9282 2.52325 12.6395 2.52325 12.2826C2.52325 11.9258 2.87849 11.637 3.31618 11.637H12.4296C12.8679 11.637 13.2232 11.9264 13.2232 12.2826Z" fill="#485F7D"/>
<path d="M1.5871 15.9993H1.3602V15.9825C1.43531 15.9938 1.51116 15.9994 1.5871 15.9993Z" fill="#485F7D"/>
<path d="M9.19033 6.01975H12.744C12.7917 6.0208 12.8387 6.03135 12.8824 6.05079C12.926 6.07023 12.9654 6.09818 12.9983 6.13303C13.0312 6.16788 13.0569 6.20894 13.074 6.25385C13.0911 6.29877 13.0993 6.34664 13.098 6.39473V9.89021C13.0993 9.9383 13.0911 9.98618 13.074 10.0311C13.0569 10.076 13.0312 10.1171 12.9983 10.1519C12.9654 10.1868 12.926 10.2147 12.8824 10.2342C12.8387 10.2536 12.7917 10.2641 12.744 10.2652H9.19033C9.14262 10.2641 9.09558 10.2536 9.05193 10.2342C9.00828 10.2147 8.96887 10.1868 8.93598 10.1519C8.90308 10.1171 8.87734 10.076 8.86024 10.0311C8.84314 9.98618 8.83501 9.9383 8.83633 9.89021V6.39286C8.83526 6.34492 8.84357 6.29725 8.86078 6.25255C8.87799 6.20786 8.90377 6.16702 8.93665 6.13237C8.96952 6.09772 9.00885 6.06994 9.05237 6.05062C9.0959 6.03129 9.14278 6.0208 9.19033 6.01975Z" fill="#485F7D"/>
</svg>
