<svg width="16" height="16" viewBox="0 0 16 16" fill="none" xmlns="http://www.w3.org/2000/svg">
<path d="M6.95652 0H0.347826C0.156522 0 0 0.156522 0 0.347826V6.95652C0 7.14783 0.156522 7.30435 0.347826 7.30435H6.95652C7.14783 7.30435 7.30435 7.14783 7.30435 6.95652V0.347826C7.30435 0.156522 7.14783 0 6.95652 0ZM5.82609 5.82609H1.47826V1.47826H5.82609V5.82609ZM15.6522 0H9.04348C8.85217 0 8.69565 0.156522 8.69565 0.347826V6.95652C8.69565 7.14783 8.85217 7.30435 9.04348 7.30435H15.6522C15.8435 7.30435 16 7.14783 16 6.95652V0.347826C16 0.156522 15.8435 0 15.6522 0ZM14.5217 5.82609H10.1739V1.47826H14.5217V5.82609ZM6.95652 8.69565H0.347826C0.156522 8.69565 0 8.85217 0 9.04348V15.6522C0 15.8435 0.156522 16 0.347826 16H6.95652C7.14783 16 7.30435 15.8435 7.30435 15.6522V9.04348C7.30435 8.85217 7.14783 8.69565 6.95652 8.69565ZM5.82609 14.5217H1.47826V10.1739H5.82609V14.5217ZM15.6522 8.69565H9.04348C8.85217 8.69565 8.69565 8.85217 8.69565 9.04348V15.6522C8.69565 15.8435 8.85217 16 9.04348 16H15.6522C15.8435 16 16 15.8435 16 15.6522V9.04348C16 8.85217 15.8435 8.69565 15.6522 8.69565ZM14.5217 14.5217H10.1739V10.1739H14.5217V14.5217Z"/>
</svg>
