<svg width="13" height="13" viewBox="0 0 13 13" fill="none" xmlns="http://www.w3.org/2000/svg">
<path d="M5.51054 0.0712891H0.53019C0.386022 0.0712891 0.268066 0.18868 0.268066 0.332159V5.28868C0.268066 5.43216 0.386022 5.54955 0.53019 5.54955H5.51054C5.65471 5.54955 5.77267 5.43216 5.77267 5.28868V0.332159C5.77267 0.18868 5.65471 0.0712891 5.51054 0.0712891ZM4.65864 4.44085H1.38209V1.17998H4.65864V4.44085ZM12.0636 0.0712891H7.08328C6.93912 0.0712891 6.82116 0.18868 6.82116 0.332159V5.28868C6.82116 5.43216 6.93912 5.54955 7.08328 5.54955H12.0636C12.2078 5.54955 12.3258 5.43216 12.3258 5.28868V0.332159C12.3258 0.18868 12.2078 0.0712891 12.0636 0.0712891ZM11.2117 4.44085H7.93519V1.17998H11.2117V4.44085ZM5.51054 6.59303H0.53019C0.386022 6.59303 0.268066 6.71042 0.268066 6.8539V11.8104C0.268066 11.9539 0.386022 12.0713 0.53019 12.0713H5.51054C5.65471 12.0713 5.77267 11.9539 5.77267 11.8104V6.8539C5.77267 6.71042 5.65471 6.59303 5.51054 6.59303ZM4.65864 10.9626H1.38209V7.70172H4.65864V10.9626ZM12.0636 6.59303H7.08328C6.93912 6.59303 6.82116 6.71042 6.82116 6.8539V11.8104C6.82116 11.9539 6.93912 12.0713 7.08328 12.0713H12.0636C12.2078 12.0713 12.3258 11.9539 12.3258 11.8104V6.8539C12.3258 6.71042 12.2078 6.59303 12.0636 6.59303ZM11.2117 10.9626H7.93519V7.70172H11.2117V10.9626Z" fill="#C6D3E3"/>
</svg>
