<svg width="18" height="18" viewBox="0 0 18 18" fill="none" xmlns="http://www.w3.org/2000/svg">
<path d="M7.58582 5.95943L6.38374 4.75735L9.1061 2.03499C10.9991 0.14195 14.072 0.141951 15.965 2.03499C17.8581 3.92802 17.8581 7.00089 15.965 8.89392L13.2427 11.6163L12.0406 10.4142L14.763 7.69184C15.9883 6.46654 15.9883 4.46237 14.763 3.23707C13.5376 2.01176 11.5335 2.01176 10.3082 3.23707L7.58582 5.95943ZM7.69189 14.7629L10.4142 12.0405L11.6163 13.2426L8.89397 15.965C7.00093 17.858 3.92807 17.858 2.03503 15.965C0.141997 14.072 0.141997 10.9991 2.03503 9.10605L4.75739 6.38369L5.95948 7.58577L3.23711 10.3081C2.01181 11.5334 2.01181 13.5376 3.23711 14.7629C4.46242 15.9882 6.46658 15.9882 7.69189 14.7629ZM5.67663 11.1213L11.1214 5.67659L12.3234 6.87867L6.87871 12.3234L5.67663 11.1213Z" fill="#90A0B7" stroke="white" stroke-width="0.3"/>
</svg>
