<svg width="20" height="9" viewBox="0 0 20 9" fill="none" xmlns="http://www.w3.org/2000/svg">
<path d="M13.9219 4.32404C13.9219 4.74519 13.5259 5.08774 13.0405 5.08774H6.96066C6.47413 5.08774 6.07927 4.74347 6.07927 4.32404C6.07927 3.9046 6.47531 3.56205 6.96066 3.56205H13.0393C13.5259 3.56205 13.9219 3.90173 13.9219 4.32404Z" />
<path d="M20 4.32404C20 6.70868 17.7859 8.64865 15.0642 8.64865H12.0263C11.5392 8.64865 11.1449 8.30438 11.1449 7.88609C11.1449 7.4678 11.541 7.12238 12.0263 7.12238H15.0654C16.8129 7.12238 18.2343 5.86752 18.2343 4.32404C18.2343 2.78056 16.8129 1.52627 15.0654 1.52627H12.0263C11.5392 1.52627 11.1449 1.182 11.1449 0.763707C11.1449 0.345418 11.5392 0 12.0263 0H15.0654C17.7859 0 20 1.93996 20 4.32404Z" />
<path d="M8.85683 7.88609C8.85683 8.30667 8.46079 8.64865 7.97544 8.64865H4.93581C2.21524 8.64865 0 6.70868 0 4.32404C0 1.93939 2.21406 0 4.93581 0H7.97544C8.46197 0 8.85683 0.344271 8.85683 0.763707C8.85683 1.18314 8.46138 1.52627 7.97426 1.52627H4.93581C3.1883 1.52627 1.7669 2.78113 1.7669 4.32404C1.7669 5.86694 3.18712 7.12238 4.93581 7.12238H7.97544C8.46138 7.12238 8.85683 7.46493 8.85683 7.88609Z" />
</svg>
