<svg width="17" height="18" viewBox="0 0 17 18" fill="none" xmlns="http://www.w3.org/2000/svg">
<path d="M15.4022 2.59437C14.6745 1.86533 13.705 1.69993 12.1816 1.66796C12.1112 1.20329 11.8763 0.779333 11.5197 0.473224C11.1631 0.167116 10.7084 -0.000807934 10.2385 2.92286e-06H6.10193C5.63219 -0.000474797 5.17788 0.167599 4.82155 0.473678C4.46522 0.779757 4.23054 1.20352 4.16015 1.66796C2.64093 1.69993 1.66795 1.86533 0.938224 2.59437C0 3.53467 0 4.8878 0 7.34456V12.3081C0 14.7649 0 16.118 0.938224 17.0583C1.87645 17.9986 3.23166 18 5.68842 18H10.6534C13.1094 18 14.4619 18 15.4022 17.0604C16.3425 16.1208 16.3418 14.767 16.3418 12.3102V7.34456C16.3418 4.8878 16.3418 3.53398 15.4022 2.59437ZM6.10193 1.44973H10.2385C10.3755 1.44992 10.5069 1.50445 10.6039 1.60138C10.7008 1.69831 10.7553 1.82972 10.7555 1.9668V2.79313C10.7553 2.93021 10.7008 3.06162 10.6039 3.15855C10.5069 3.25548 10.3755 3.31001 10.2385 3.3102H6.10193C6.03412 3.3101 5.96699 3.29666 5.90438 3.27062C5.84176 3.24459 5.78489 3.20648 5.737 3.15846C5.68912 3.11045 5.65116 3.05347 5.62529 2.99079C5.59943 2.92811 5.58616 2.86094 5.58625 2.79313V1.9668C5.58625 1.8299 5.64054 1.6986 5.73721 1.60167C5.83388 1.50474 5.96504 1.4501 6.10193 1.44973ZM14.892 12.3081C14.892 14.4452 14.892 15.5182 14.3764 16.0325C13.8607 16.5468 12.7897 16.5482 10.6534 16.5482H5.68842C3.55066 16.5482 2.4783 16.5482 1.96402 16.0325C1.44973 15.5168 1.44973 14.4459 1.44973 12.3081V7.34456C1.44973 5.2068 1.44973 4.13375 1.96402 3.61946C2.30386 3.27892 2.86332 3.14896 4.16293 3.1156C4.23913 3.57488 4.47583 3.99222 4.8309 4.29333C5.18597 4.59444 5.63637 4.75978 6.10193 4.75993H10.2385C10.7042 4.75983 11.1548 4.59454 11.5101 4.29345C11.8654 3.99236 12.1023 3.575 12.1788 3.1156C13.4771 3.14896 14.0365 3.27892 14.3764 3.62016C14.892 4.13444 14.892 5.2068 14.892 7.34456V12.3081Z" />
<path d="M12.2046 10.6541C12.2044 10.8462 12.1279 11.0304 11.992 11.1662C11.8561 11.3019 11.6718 11.3782 11.4797 11.3782H4.86069C4.76366 11.3812 4.66701 11.3647 4.57649 11.3297C4.48596 11.2946 4.40339 11.2417 4.33369 11.1741C4.26399 11.1066 4.20858 11.0257 4.17073 10.9363C4.13289 10.8469 4.11339 10.7508 4.11339 10.6537C4.11339 10.5566 4.13289 10.4605 4.17073 10.3711C4.20858 10.2817 4.26399 10.2008 4.33369 10.1333C4.40339 10.0657 4.48596 10.0128 4.57649 9.97776C4.66701 9.9427 4.76366 9.92618 4.86069 9.92919H11.4797C11.6719 9.92937 11.8561 10.0058 11.992 10.1417C12.1279 10.2776 12.2044 10.4619 12.2046 10.6541Z" />
<path d="M13.0323 7.75807C13.0321 7.95026 12.9557 8.13452 12.8198 8.27042C12.6839 8.40632 12.4996 8.48275 12.3074 8.48293H4.03089C3.83864 8.48293 3.65427 8.40656 3.51833 8.27063C3.38239 8.13469 3.30602 7.95031 3.30602 7.75807C3.30602 7.56582 3.38239 7.38145 3.51833 7.24551C3.65427 7.10957 3.83864 7.0332 4.03089 7.0332H12.3074C12.4996 7.03339 12.6839 7.10982 12.8198 7.24571C12.9557 7.38161 13.0321 7.56588 13.0323 7.75807Z" />
<path d="M11.3775 13.5521C11.3773 13.7443 11.3009 13.9286 11.165 14.0645C11.0291 14.2004 10.8449 14.2768 10.6527 14.277H5.68842C5.49617 14.277 5.3118 14.2006 5.17586 14.0647C5.03992 13.9287 4.96355 13.7444 4.96355 13.5521C4.96355 13.3599 5.03992 13.1755 5.17586 13.0396C5.3118 12.9036 5.49617 12.8273 5.68842 12.8273H10.6527C10.8449 12.8274 11.0291 12.9039 11.165 13.0398C11.3009 13.1757 11.3773 13.3599 11.3775 13.5521Z" />
</svg>
