<svg width="17" height="18" viewBox="0 0 17 18" fill="none" xmlns="http://www.w3.org/2000/svg">
<path d="M16.9984 3.21966C16.9287 1.00779 12.565 0 8.49959 0C4.43422 0 0.0713366 1.00779 0 3.21881C0 3.23665 0 3.2545 0 3.27234V14.7268C0 16.9761 4.40585 18 8.49959 18C12.5933 18 17 16.9761 17 14.7268V3.27319C17 3.25535 17 3.2375 16.9984 3.21966ZM15.3001 14.7268C15.3001 15.1083 13.1802 16.3643 8.49959 16.3643C3.81894 16.3643 1.70235 15.1083 1.70235 14.7268V11.0687C3.35849 11.8861 5.98903 12.2728 8.50203 12.2728C11.015 12.2728 13.6456 11.8861 15.3025 11.0687L15.3001 14.7268ZM15.3001 9.00042C15.3001 9.38111 13.1802 10.6362 8.49959 10.6362C3.81894 10.6362 1.70235 9.38111 1.70235 9.00042V5.34145C3.35606 6.1589 5.9866 6.54298 8.49959 6.54298C11.0126 6.54298 13.6431 6.15635 15.3001 5.3389V9.00042ZM8.49959 4.90894C4.03781 4.90894 1.70235 3.69296 1.70235 3.27319C1.70235 2.85342 4.04025 1.63575 8.50203 1.63575C12.9638 1.63575 15.3025 2.85172 15.3025 3.27319C15.3025 3.69466 12.9622 4.90894 8.49959 4.90894Z" />
</svg>
