<svg width="18" height="18" viewBox="0 0 18 18" fill="none" xmlns="http://www.w3.org/2000/svg">
<path d="M16.1979 0H1.8C1.32284 0.000743823 0.865434 0.190625 0.528029 0.528029C0.190625 0.865434 0.000743823 1.32284 0 1.8V16.1979C-3.27163e-07 16.6755 0.189575 17.1335 0.52708 17.4714C0.864585 17.8093 1.32242 17.9994 1.8 18H16.1979C16.6751 17.9994 17.1326 17.8096 17.4701 17.4722C17.8075 17.1347 17.9973 16.6772 17.9979 16.2V1.8C17.9971 1.32284 17.8073 0.865434 17.4699 0.528029C17.1325 0.190625 16.6751 0.000743823 16.1979 0ZM2.36109 16.4531C2.14403 16.4531 1.93586 16.3669 1.78237 16.2134C1.62888 16.0599 1.54266 15.8518 1.54266 15.6347V2.36109C1.54266 2.14403 1.62888 1.93586 1.78237 1.78237C1.93586 1.62888 2.14403 1.54266 2.36109 1.54266H15.6368C15.8535 1.54321 16.0611 1.62969 16.2142 1.78312C16.3672 1.93654 16.4531 2.1444 16.4531 2.36109V15.6368C16.4526 15.8531 16.3664 16.0604 16.2134 16.2134C16.0604 16.3664 15.8531 16.4526 15.6368 16.4531H2.36109Z" />
<path d="M9.15891 11.3548C9.0474 11.2532 8.9039 11.1937 8.7532 11.1867C8.10277 11.179 7.48085 10.9185 7.01906 10.4604C6.55727 10.0023 6.29183 9.38246 6.27891 8.73211C6.31758 8.52117 6.3443 8.30109 6.39844 8.09086C6.47649 7.78641 6.56578 7.76531 6.78797 7.98539C7.20492 8.39812 7.61484 8.81719 8.03672 9.2243C8.07317 9.25881 8.11613 9.28573 8.16309 9.30347C8.21005 9.32122 8.26007 9.32944 8.31024 9.32766C9.14203 9.19899 9.14133 9.19477 9.35578 8.39461C9.35843 8.38503 9.36172 8.37563 9.36563 8.36648C9.43594 8.20758 9.38602 8.09367 9.26297 7.97555C8.86219 7.58883 8.46867 7.19508 8.08242 6.7943C8.00719 6.71695 7.97063 6.60164 7.91578 6.50391C8.01914 6.45328 8.11758 6.37945 8.22656 6.35625C8.57966 6.27919 8.94548 6.28171 9.29747 6.36364C9.64947 6.44557 9.9788 6.60485 10.2616 6.82992C10.5443 7.05499 10.7734 7.3402 10.9322 7.66484C11.0911 7.98949 11.1756 8.34542 11.1797 8.7068C11.1763 8.799 11.1931 8.89083 11.2289 8.97585C11.2648 9.06087 11.3187 9.13703 11.3871 9.19898C12.1685 9.97523 12.9488 10.7529 13.7278 11.532C14.3342 10.3983 14.5129 9.08451 14.2312 7.83012C13.9496 6.57574 13.2264 5.46439 12.1936 4.69881C11.1608 3.93322 9.88724 3.56441 8.60516 3.65966C7.32308 3.7549 6.11796 4.30786 5.20962 5.21765C4.30128 6.12744 3.75027 7.33345 3.65708 8.61568C3.56389 9.89791 3.93474 11.1709 4.70198 12.2025C5.46922 13.2341 6.58173 13.9554 7.83656 14.2351C9.0914 14.5147 10.4049 14.3339 11.5376 13.7257C10.7454 12.933 9.9525 12.1427 9.15891 11.3548Z" />
</svg>
