<svg width="20" height="20" viewBox="0 0 20 20" fill="none" xmlns="http://www.w3.org/2000/svg">
<mask id="path-1-outside-1_140378_589" maskUnits="userSpaceOnUse" x="0" y="0" width="20" height="20" fill="black">
<rect fill="white" width="20" height="20"/>
<path fill-rule="evenodd" clip-rule="evenodd" d="M9.77931 1.03689C9.64889 1.09728 9.53195 1.2215 9.48237 1.35235C9.45945 1.41277 9.44501 1.78384 9.44536 2.30307C9.44593 3.11882 9.44927 3.16058 9.52477 3.29552C9.60994 3.44781 9.84741 3.59482 10.0082 3.59482C10.1684 3.59482 10.4064 3.44774 10.4926 3.29552C10.5704 3.15801 10.572 3.1333 10.5631 2.25046C10.5545 1.39989 10.5497 1.34048 10.4814 1.24911C10.4414 1.19566 10.3674 1.12101 10.3168 1.08323C10.2001 0.996112 9.91963 0.971921 9.77931 1.03689ZM3.85721 3.49277C3.58998 3.5701 3.42128 3.88422 3.49516 4.16701C3.52826 4.2937 3.63252 4.41483 4.17436 4.95604C4.78441 5.56541 4.82226 5.59658 4.98128 5.6202C5.35568 5.6758 5.6809 5.35087 5.62488 4.97716C5.60132 4.82019 5.56674 4.77737 4.99592 4.19856C4.28144 3.47408 4.167 3.40312 3.85721 3.49277ZM15.7653 3.5208C15.678 3.5613 15.3951 3.81866 15.0205 4.19856C14.4541 4.77286 14.4149 4.82117 14.392 4.97364C14.3278 5.40189 14.7305 5.73932 15.1256 5.58841C15.3471 5.50383 16.4635 4.37353 16.5223 4.1744C16.6058 3.89169 16.4268 3.56964 16.1424 3.49062C15.9667 3.44182 15.9293 3.44481 15.7653 3.5208ZM9.35677 4.78107C7.37029 5.03854 5.71108 6.37384 5.05001 8.24697C4.83261 8.86304 4.77919 9.20667 4.77965 9.98577C4.78015 10.7608 4.82053 11.0492 5.00983 11.6284C5.30343 12.5268 5.86312 13.3676 6.55743 13.9532C7.08821 14.4009 7.30994 14.6485 7.46656 14.9683C7.7135 15.4726 7.72667 15.5565 7.75417 16.7993C7.77636 17.8016 7.78583 17.9279 7.85259 18.1103C7.99386 18.4962 8.21489 18.7442 8.5645 18.9088L8.75817 19H10.0082H11.2582L11.4927 18.8889C11.7839 18.7509 11.9934 18.5403 12.1351 18.2429L12.2441 18.0141L12.2648 16.8169C12.2823 15.8053 12.2952 15.5896 12.348 15.426C12.5089 14.9276 12.7889 14.5324 13.2759 14.1162C13.9556 13.5353 14.3729 13.0191 14.7079 12.345C15.0793 11.5976 15.2154 11.0431 15.2437 10.1618C15.2599 9.65682 15.2516 9.49717 15.1905 9.14068C14.8758 7.30586 13.6538 5.79478 11.9311 5.11044C11.6105 4.98308 11.0743 4.84533 10.7011 4.79438C10.4427 4.75913 9.59104 4.75068 9.35677 4.78107ZM10.699 5.93732C11.5327 6.08056 12.2438 6.43941 12.8532 7.02445C13.2253 7.38164 13.4487 7.67774 13.6665 8.10193C13.9917 8.7355 14.128 9.29688 14.128 10.0034C14.128 10.697 13.9808 11.3038 13.6655 11.9098C13.3866 12.4458 13.1071 12.7709 12.3701 13.4166C11.7655 13.9462 11.3346 14.6792 11.2007 15.4056L11.158 15.6373H10.0064H8.8549L8.77926 15.3116C8.58123 14.4588 8.14038 13.7789 7.42012 13.2154C7.32329 13.1397 7.133 12.9604 6.99729 12.817C5.96527 11.7265 5.61562 10.1045 6.10055 8.65712C6.57215 7.24945 7.79065 6.20574 9.27702 5.9363C9.63068 5.87221 10.3229 5.87271 10.699 5.93732ZM9.92213 6.70015C9.40638 7.00234 9.63818 7.74981 10.2476 7.74981C10.4893 7.74981 10.9243 7.86827 11.1812 8.00404C11.4628 8.15285 11.8587 8.54881 12.0075 8.83033C12.1433 9.08727 12.2618 9.52224 12.2618 9.76393C12.2618 10.2395 12.7325 10.5273 13.1192 10.2883C13.3698 10.1334 13.4361 9.86031 13.3509 9.33435C13.1112 7.85499 11.8707 6.72321 10.3955 6.63807C10.0901 6.62047 10.0489 6.62585 9.92213 6.70015ZM1.32671 9.48953C0.996772 9.63323 0.892967 10.0826 1.12575 10.3593C1.28959 10.5539 1.36294 10.5668 2.30447 10.5662C3.12374 10.5656 3.16536 10.5623 3.30033 10.4868C3.45262 10.4016 3.59963 10.1642 3.59963 10.0034C3.59963 9.8426 3.45262 9.60513 3.30033 9.51995C3.16505 9.44424 3.12536 9.44118 2.29679 9.44196C1.65837 9.44252 1.40618 9.45491 1.32671 9.48953ZM16.7161 9.519C16.5638 9.60516 16.4167 9.84316 16.4167 10.0034C16.4167 10.1636 16.5638 10.4016 16.7161 10.4877C16.8536 10.5656 16.8783 10.5672 17.7611 10.5583C18.7568 10.5482 18.751 10.5495 18.9322 10.3067C19.034 10.1704 19.034 9.83636 18.9322 9.70002C18.751 9.45727 18.7568 9.4585 17.7611 9.44843C16.8783 9.43953 16.8536 9.44118 16.7161 9.519ZM4.90247 14.3953C4.84733 14.4055 4.57539 14.6502 4.17436 15.0508C3.46921 15.7551 3.41572 15.8395 3.49298 16.1264C3.54203 16.3085 3.75696 16.5022 3.94531 16.5341C4.19492 16.5763 4.33239 16.4813 4.99592 15.8083C5.56671 15.2294 5.60132 15.1866 5.62488 15.0296C5.6609 14.7894 5.5416 14.5574 5.32635 14.4489C5.17441 14.3722 5.08811 14.3614 4.90247 14.3953ZM14.7009 14.4369C14.4409 14.5582 14.321 14.8535 14.4232 15.1208C14.5077 15.3423 15.638 16.4587 15.8372 16.5175C16.2419 16.637 16.6418 16.2369 16.5223 15.8323C16.4893 15.7208 16.3573 15.5658 15.9115 15.1151C15.5987 14.7988 15.3006 14.5095 15.2489 14.4722C15.1058 14.3687 14.8783 14.354 14.7009 14.4369ZM11.135 17.263C11.135 17.6779 11.1251 17.7729 11.0767 17.8264C11.0229 17.8859 10.9432 17.8908 10.0291 17.8903C9.48505 17.89 9.02106 17.8778 8.99807 17.8631C8.91321 17.8092 8.88141 17.629 8.88141 17.2019V16.764H10.0082H11.135V17.263Z"/>
</mask>
<path fill-rule="evenodd" clip-rule="evenodd" d="M9.77931 1.03689C9.64889 1.09728 9.53195 1.2215 9.48237 1.35235C9.45945 1.41277 9.44501 1.78384 9.44536 2.30307C9.44593 3.11882 9.44927 3.16058 9.52477 3.29552C9.60994 3.44781 9.84741 3.59482 10.0082 3.59482C10.1684 3.59482 10.4064 3.44774 10.4926 3.29552C10.5704 3.15801 10.572 3.1333 10.5631 2.25046C10.5545 1.39989 10.5497 1.34048 10.4814 1.24911C10.4414 1.19566 10.3674 1.12101 10.3168 1.08323C10.2001 0.996112 9.91963 0.971921 9.77931 1.03689ZM3.85721 3.49277C3.58998 3.5701 3.42128 3.88422 3.49516 4.16701C3.52826 4.2937 3.63252 4.41483 4.17436 4.95604C4.78441 5.56541 4.82226 5.59658 4.98128 5.6202C5.35568 5.6758 5.6809 5.35087 5.62488 4.97716C5.60132 4.82019 5.56674 4.77737 4.99592 4.19856C4.28144 3.47408 4.167 3.40312 3.85721 3.49277ZM15.7653 3.5208C15.678 3.5613 15.3951 3.81866 15.0205 4.19856C14.4541 4.77286 14.4149 4.82117 14.392 4.97364C14.3278 5.40189 14.7305 5.73932 15.1256 5.58841C15.3471 5.50383 16.4635 4.37353 16.5223 4.1744C16.6058 3.89169 16.4268 3.56964 16.1424 3.49062C15.9667 3.44182 15.9293 3.44481 15.7653 3.5208ZM9.35677 4.78107C7.37029 5.03854 5.71108 6.37384 5.05001 8.24697C4.83261 8.86304 4.77919 9.20667 4.77965 9.98577C4.78015 10.7608 4.82053 11.0492 5.00983 11.6284C5.30343 12.5268 5.86312 13.3676 6.55743 13.9532C7.08821 14.4009 7.30994 14.6485 7.46656 14.9683C7.7135 15.4726 7.72667 15.5565 7.75417 16.7993C7.77636 17.8016 7.78583 17.9279 7.85259 18.1103C7.99386 18.4962 8.21489 18.7442 8.5645 18.9088L8.75817 19H10.0082H11.2582L11.4927 18.8889C11.7839 18.7509 11.9934 18.5403 12.1351 18.2429L12.2441 18.0141L12.2648 16.8169C12.2823 15.8053 12.2952 15.5896 12.348 15.426C12.5089 14.9276 12.7889 14.5324 13.2759 14.1162C13.9556 13.5353 14.3729 13.0191 14.7079 12.345C15.0793 11.5976 15.2154 11.0431 15.2437 10.1618C15.2599 9.65682 15.2516 9.49717 15.1905 9.14068C14.8758 7.30586 13.6538 5.79478 11.9311 5.11044C11.6105 4.98308 11.0743 4.84533 10.7011 4.79438C10.4427 4.75913 9.59104 4.75068 9.35677 4.78107ZM10.699 5.93732C11.5327 6.08056 12.2438 6.43941 12.8532 7.02445C13.2253 7.38164 13.4487 7.67774 13.6665 8.10193C13.9917 8.7355 14.128 9.29688 14.128 10.0034C14.128 10.697 13.9808 11.3038 13.6655 11.9098C13.3866 12.4458 13.1071 12.7709 12.3701 13.4166C11.7655 13.9462 11.3346 14.6792 11.2007 15.4056L11.158 15.6373H10.0064H8.8549L8.77926 15.3116C8.58123 14.4588 8.14038 13.7789 7.42012 13.2154C7.32329 13.1397 7.133 12.9604 6.99729 12.817C5.96527 11.7265 5.61562 10.1045 6.10055 8.65712C6.57215 7.24945 7.79065 6.20574 9.27702 5.9363C9.63068 5.87221 10.3229 5.87271 10.699 5.93732ZM9.92213 6.70015C9.40638 7.00234 9.63818 7.74981 10.2476 7.74981C10.4893 7.74981 10.9243 7.86827 11.1812 8.00404C11.4628 8.15285 11.8587 8.54881 12.0075 8.83033C12.1433 9.08727 12.2618 9.52224 12.2618 9.76393C12.2618 10.2395 12.7325 10.5273 13.1192 10.2883C13.3698 10.1334 13.4361 9.86031 13.3509 9.33435C13.1112 7.85499 11.8707 6.72321 10.3955 6.63807C10.0901 6.62047 10.0489 6.62585 9.92213 6.70015ZM1.32671 9.48953C0.996772 9.63323 0.892967 10.0826 1.12575 10.3593C1.28959 10.5539 1.36294 10.5668 2.30447 10.5662C3.12374 10.5656 3.16536 10.5623 3.30033 10.4868C3.45262 10.4016 3.59963 10.1642 3.59963 10.0034C3.59963 9.8426 3.45262 9.60513 3.30033 9.51995C3.16505 9.44424 3.12536 9.44118 2.29679 9.44196C1.65837 9.44252 1.40618 9.45491 1.32671 9.48953ZM16.7161 9.519C16.5638 9.60516 16.4167 9.84316 16.4167 10.0034C16.4167 10.1636 16.5638 10.4016 16.7161 10.4877C16.8536 10.5656 16.8783 10.5672 17.7611 10.5583C18.7568 10.5482 18.751 10.5495 18.9322 10.3067C19.034 10.1704 19.034 9.83636 18.9322 9.70002C18.751 9.45727 18.7568 9.4585 17.7611 9.44843C16.8783 9.43953 16.8536 9.44118 16.7161 9.519ZM4.90247 14.3953C4.84733 14.4055 4.57539 14.6502 4.17436 15.0508C3.46921 15.7551 3.41572 15.8395 3.49298 16.1264C3.54203 16.3085 3.75696 16.5022 3.94531 16.5341C4.19492 16.5763 4.33239 16.4813 4.99592 15.8083C5.56671 15.2294 5.60132 15.1866 5.62488 15.0296C5.6609 14.7894 5.5416 14.5574 5.32635 14.4489C5.17441 14.3722 5.08811 14.3614 4.90247 14.3953ZM14.7009 14.4369C14.4409 14.5582 14.321 14.8535 14.4232 15.1208C14.5077 15.3423 15.638 16.4587 15.8372 16.5175C16.2419 16.637 16.6418 16.2369 16.5223 15.8323C16.4893 15.7208 16.3573 15.5658 15.9115 15.1151C15.5987 14.7988 15.3006 14.5095 15.2489 14.4722C15.1058 14.3687 14.8783 14.354 14.7009 14.4369ZM11.135 17.263C11.135 17.6779 11.1251 17.7729 11.0767 17.8264C11.0229 17.8859 10.9432 17.8908 10.0291 17.8903C9.48505 17.89 9.02106 17.8778 8.99807 17.8631C8.91321 17.8092 8.88141 17.629 8.88141 17.2019V16.764H10.0082H11.135V17.263Z" fill="#C2CFE0"/>
<path fill-rule="evenodd" clip-rule="evenodd" d="M9.77931 1.03689C9.64889 1.09728 9.53195 1.2215 9.48237 1.35235C9.45945 1.41277 9.44501 1.78384 9.44536 2.30307C9.44593 3.11882 9.44927 3.16058 9.52477 3.29552C9.60994 3.44781 9.84741 3.59482 10.0082 3.59482C10.1684 3.59482 10.4064 3.44774 10.4926 3.29552C10.5704 3.15801 10.572 3.1333 10.5631 2.25046C10.5545 1.39989 10.5497 1.34048 10.4814 1.24911C10.4414 1.19566 10.3674 1.12101 10.3168 1.08323C10.2001 0.996112 9.91963 0.971921 9.77931 1.03689ZM3.85721 3.49277C3.58998 3.5701 3.42128 3.88422 3.49516 4.16701C3.52826 4.2937 3.63252 4.41483 4.17436 4.95604C4.78441 5.56541 4.82226 5.59658 4.98128 5.6202C5.35568 5.6758 5.6809 5.35087 5.62488 4.97716C5.60132 4.82019 5.56674 4.77737 4.99592 4.19856C4.28144 3.47408 4.167 3.40312 3.85721 3.49277ZM15.7653 3.5208C15.678 3.5613 15.3951 3.81866 15.0205 4.19856C14.4541 4.77286 14.4149 4.82117 14.392 4.97364C14.3278 5.40189 14.7305 5.73932 15.1256 5.58841C15.3471 5.50383 16.4635 4.37353 16.5223 4.1744C16.6058 3.89169 16.4268 3.56964 16.1424 3.49062C15.9667 3.44182 15.9293 3.44481 15.7653 3.5208ZM9.35677 4.78107C7.37029 5.03854 5.71108 6.37384 5.05001 8.24697C4.83261 8.86304 4.77919 9.20667 4.77965 9.98577C4.78015 10.7608 4.82053 11.0492 5.00983 11.6284C5.30343 12.5268 5.86312 13.3676 6.55743 13.9532C7.08821 14.4009 7.30994 14.6485 7.46656 14.9683C7.7135 15.4726 7.72667 15.5565 7.75417 16.7993C7.77636 17.8016 7.78583 17.9279 7.85259 18.1103C7.99386 18.4962 8.21489 18.7442 8.5645 18.9088L8.75817 19H10.0082H11.2582L11.4927 18.8889C11.7839 18.7509 11.9934 18.5403 12.1351 18.2429L12.2441 18.0141L12.2648 16.8169C12.2823 15.8053 12.2952 15.5896 12.348 15.426C12.5089 14.9276 12.7889 14.5324 13.2759 14.1162C13.9556 13.5353 14.3729 13.0191 14.7079 12.345C15.0793 11.5976 15.2154 11.0431 15.2437 10.1618C15.2599 9.65682 15.2516 9.49717 15.1905 9.14068C14.8758 7.30586 13.6538 5.79478 11.9311 5.11044C11.6105 4.98308 11.0743 4.84533 10.7011 4.79438C10.4427 4.75913 9.59104 4.75068 9.35677 4.78107ZM10.699 5.93732C11.5327 6.08056 12.2438 6.43941 12.8532 7.02445C13.2253 7.38164 13.4487 7.67774 13.6665 8.10193C13.9917 8.7355 14.128 9.29688 14.128 10.0034C14.128 10.697 13.9808 11.3038 13.6655 11.9098C13.3866 12.4458 13.1071 12.7709 12.3701 13.4166C11.7655 13.9462 11.3346 14.6792 11.2007 15.4056L11.158 15.6373H10.0064H8.8549L8.77926 15.3116C8.58123 14.4588 8.14038 13.7789 7.42012 13.2154C7.32329 13.1397 7.133 12.9604 6.99729 12.817C5.96527 11.7265 5.61562 10.1045 6.10055 8.65712C6.57215 7.24945 7.79065 6.20574 9.27702 5.9363C9.63068 5.87221 10.3229 5.87271 10.699 5.93732ZM9.92213 6.70015C9.40638 7.00234 9.63818 7.74981 10.2476 7.74981C10.4893 7.74981 10.9243 7.86827 11.1812 8.00404C11.4628 8.15285 11.8587 8.54881 12.0075 8.83033C12.1433 9.08727 12.2618 9.52224 12.2618 9.76393C12.2618 10.2395 12.7325 10.5273 13.1192 10.2883C13.3698 10.1334 13.4361 9.86031 13.3509 9.33435C13.1112 7.85499 11.8707 6.72321 10.3955 6.63807C10.0901 6.62047 10.0489 6.62585 9.92213 6.70015ZM1.32671 9.48953C0.996772 9.63323 0.892967 10.0826 1.12575 10.3593C1.28959 10.5539 1.36294 10.5668 2.30447 10.5662C3.12374 10.5656 3.16536 10.5623 3.30033 10.4868C3.45262 10.4016 3.59963 10.1642 3.59963 10.0034C3.59963 9.8426 3.45262 9.60513 3.30033 9.51995C3.16505 9.44424 3.12536 9.44118 2.29679 9.44196C1.65837 9.44252 1.40618 9.45491 1.32671 9.48953ZM16.7161 9.519C16.5638 9.60516 16.4167 9.84316 16.4167 10.0034C16.4167 10.1636 16.5638 10.4016 16.7161 10.4877C16.8536 10.5656 16.8783 10.5672 17.7611 10.5583C18.7568 10.5482 18.751 10.5495 18.9322 10.3067C19.034 10.1704 19.034 9.83636 18.9322 9.70002C18.751 9.45727 18.7568 9.4585 17.7611 9.44843C16.8783 9.43953 16.8536 9.44118 16.7161 9.519ZM4.90247 14.3953C4.84733 14.4055 4.57539 14.6502 4.17436 15.0508C3.46921 15.7551 3.41572 15.8395 3.49298 16.1264C3.54203 16.3085 3.75696 16.5022 3.94531 16.5341C4.19492 16.5763 4.33239 16.4813 4.99592 15.8083C5.56671 15.2294 5.60132 15.1866 5.62488 15.0296C5.6609 14.7894 5.5416 14.5574 5.32635 14.4489C5.17441 14.3722 5.08811 14.3614 4.90247 14.3953ZM14.7009 14.4369C14.4409 14.5582 14.321 14.8535 14.4232 15.1208C14.5077 15.3423 15.638 16.4587 15.8372 16.5175C16.2419 16.637 16.6418 16.2369 16.5223 15.8323C16.4893 15.7208 16.3573 15.5658 15.9115 15.1151C15.5987 14.7988 15.3006 14.5095 15.2489 14.4722C15.1058 14.3687 14.8783 14.354 14.7009 14.4369ZM11.135 17.263C11.135 17.6779 11.1251 17.7729 11.0767 17.8264C11.0229 17.8859 10.9432 17.8908 10.0291 17.8903C9.48505 17.89 9.02106 17.8778 8.99807 17.8631C8.91321 17.8092 8.88141 17.629 8.88141 17.2019V16.764H10.0082H11.135V17.263Z" stroke="#C2CFE0" stroke-width="0.2" mask="url(#path-1-outside-1_140378_589)"/>
</svg>
