<svg width="19" height="18" viewBox="0 0 19 18" fill="none" xmlns="http://www.w3.org/2000/svg">
<path d="M10.7771 16.9679C10.7296 17.2562 10.5812 17.5182 10.3584 17.7072C10.1357 17.8962 9.853 18 9.56084 18C9.26867 18 8.986 17.8962 8.76324 17.7072C8.54047 17.5182 8.39208 17.2562 8.34453 16.9679H10.7771Z" fill="#485F7D"/>
<path d="M12.2465 15.3037C12.2462 15.4389 12.1922 15.5685 12.0965 15.664C12.0007 15.7596 11.871 15.8132 11.7358 15.8132H7.38533C7.25004 15.8132 7.12029 15.7595 7.02462 15.6638C6.92895 15.5681 6.87521 15.4384 6.87521 15.3031C6.87521 15.1678 6.92895 15.038 7.02462 14.9424C7.12029 14.8467 7.25004 14.793 7.38533 14.793H11.7358C11.8712 14.7931 12.001 14.847 12.0967 14.9427C12.1925 15.0385 12.2463 15.1683 12.2465 15.3037Z" fill="#485F7D"/>
<path d="M9.56084 3.80919C8.14722 3.80981 6.79169 4.37164 5.79211 5.37122C4.79254 6.37079 4.23071 7.72633 4.23008 9.13994C4.23008 11.8256 6.08038 13.2743 6.88519 13.7457H12.2365C13.0407 13.2761 14.8916 11.8256 14.8916 9.13994C14.891 7.72633 14.3291 6.37079 13.3296 5.37122C12.33 4.37164 10.9744 3.80981 9.56084 3.80919ZM11.9676 12.5775L11.9124 12.6175H7.20746L7.15228 12.5775C6.4819 12.1021 5.35834 11.0243 5.35834 9.14053C5.35834 8.02596 5.8011 6.95704 6.58922 6.16892C7.37734 5.3808 8.44627 4.93803 9.56084 4.93803C10.6754 4.93803 11.7443 5.3808 12.5324 6.16892C13.3206 6.95704 13.7633 8.02596 13.7633 9.14053C13.7633 11.0255 12.6386 12.1026 11.9688 12.5775H11.9676Z" fill="#485F7D"/>
<path d="M2.22188 8.80534H0.649247C0.477664 8.80534 0.313057 8.87325 0.191401 8.99425C0.0697441 9.11525 0.000930827 9.27948 0 9.45106C0 9.62325 0.0684026 9.78839 0.19016 9.91015C0.311917 10.0319 0.477056 10.1003 0.649247 10.1003H2.22188C2.39407 10.1003 2.55921 10.0319 2.68097 9.91015C2.80272 9.78839 2.87113 9.62325 2.87113 9.45106C2.8702 9.27948 2.80138 9.11525 2.67973 8.99425C2.55807 8.87325 2.39346 8.80534 2.22188 8.80534Z" fill="#485F7D"/>
<path d="M4.74079 3.85615L3.62545 2.74374C3.50372 2.62219 3.33872 2.55391 3.16669 2.55391C2.99466 2.55391 2.82967 2.62219 2.70794 2.74374C2.5862 2.8655 2.51781 3.03062 2.51781 3.2028C2.51781 3.37497 2.5862 3.54009 2.70794 3.66185L3.82269 4.77425C3.9446 4.8957 4.10966 4.96389 4.28174 4.96389C4.45382 4.96389 4.61889 4.8957 4.74079 4.77425C4.80149 4.71421 4.84968 4.64271 4.88257 4.56392C4.91546 4.48512 4.93239 4.40059 4.93239 4.3152C4.93239 4.22982 4.91546 4.14528 4.88257 4.06649C4.84968 3.98769 4.80149 3.9162 4.74079 3.85615Z" fill="#485F7D"/>
<path d="M10.1032 2.22188V0.649247C10.1032 0.477056 10.0348 0.311917 9.91308 0.19016C9.79133 0.0684026 9.62619 0 9.454 0C9.28191 0.000155596 9.11692 0.0686269 8.99529 0.190367C8.87366 0.312108 8.80534 0.477158 8.80534 0.649247V2.22188C8.80534 2.39397 8.87366 2.55902 8.99529 2.68076C9.11692 2.8025 9.28191 2.87097 9.454 2.87113C9.62619 2.87113 9.79133 2.80272 9.91308 2.68097C10.0348 2.55921 10.1032 2.39407 10.1032 2.22188Z" fill="#485F7D"/>
<path d="M15.0507 4.8582L16.1625 3.74286C16.2231 3.68282 16.2712 3.61136 16.3041 3.53262C16.3369 3.45388 16.3538 3.36941 16.3538 3.2841C16.3538 3.19878 16.3369 3.11432 16.3041 3.03557C16.2712 2.95683 16.2231 2.88538 16.1625 2.82534C16.1025 2.76473 16.031 2.71662 15.9523 2.68378C15.8735 2.65095 15.789 2.63404 15.7037 2.63404C15.6184 2.63404 15.534 2.65095 15.4552 2.68378C15.3765 2.71662 15.305 2.76473 15.245 2.82534L14.1326 3.9401C14.0108 4.06185 13.9424 4.22697 13.9424 4.39915C13.9424 4.57132 14.0108 4.73644 14.1326 4.8582C14.2543 4.97993 14.4194 5.04832 14.5916 5.04832C14.7638 5.04832 14.9289 4.97993 15.0507 4.8582Z" fill="#485F7D"/>
<path d="M16.5669 10.2206H18.139C18.3112 10.2206 18.4763 10.1522 18.5981 10.0305C18.7198 9.90873 18.7882 9.74359 18.7882 9.5714C18.7881 9.39931 18.7196 9.23433 18.5979 9.11269C18.4761 8.99106 18.3111 8.92274 18.139 8.92274H16.5658C16.3937 8.92274 16.2288 8.99108 16.1071 9.11273C15.9855 9.23438 15.9171 9.39937 15.9171 9.5714C15.9171 9.65671 15.9339 9.74119 15.9666 9.81999C15.9993 9.8988 16.0471 9.9704 16.1075 10.0307C16.1678 10.091 16.2395 10.1388 16.3183 10.1714C16.3972 10.204 16.4816 10.2207 16.5669 10.2206Z" fill="#485F7D"/>
</svg>
