<svg width="18" height="18" viewBox="0 0 18 18" fill="none" xmlns="http://www.w3.org/2000/svg">
<path d="M16.1979 0H1.8C1.32284 0.000743823 0.865434 0.190625 0.528029 0.528029C0.190625 0.865434 0.000743823 1.32284 0 1.8V16.1979C-3.27163e-07 16.6755 0.189575 17.1335 0.52708 17.4714C0.864585 17.8093 1.32242 17.9994 1.8 18H16.1979C16.6751 17.9994 17.1326 17.8096 17.4701 17.4722C17.8075 17.1347 17.9973 16.6772 17.9979 16.2V1.8C17.9971 1.32284 17.8073 0.865434 17.4699 0.528029C17.1325 0.190625 16.6751 0.000743823 16.1979 0ZM2.36109 16.4531C2.14403 16.4531 1.93586 16.3669 1.78237 16.2134C1.62888 16.0599 1.54266 15.8518 1.54266 15.6347V2.36109C1.54266 2.14403 1.62888 1.93586 1.78237 1.78237C1.93586 1.62888 2.14403 1.54266 2.36109 1.54266H15.6368C15.8535 1.54321 16.0611 1.62969 16.2142 1.78312C16.3672 1.93654 16.4531 2.1444 16.4531 2.36109V15.6368C16.4526 15.8531 16.3664 16.0604 16.2134 16.2134C16.0604 16.3664 15.8531 16.4526 15.6368 16.4531H2.36109Z" fill="#485F7D"/>
<path d="M9 3.63727C7.93949 3.63713 6.90276 3.95147 6.0209 4.54054C5.13904 5.12961 4.45166 5.96696 4.0457 6.94669C3.63973 7.92642 3.5334 9.00453 3.74016 10.0447C3.94692 11.0848 4.45748 12.0403 5.20727 12.7903C5.95707 13.5403 6.91242 14.0511 7.95253 14.2582C8.99263 14.4652 10.0708 14.3591 11.0506 13.9534C12.0304 13.5477 12.868 12.8606 13.4573 11.9789C14.0466 11.0972 14.3612 10.0605 14.3613 9C14.3611 7.57802 13.7963 6.2143 12.7909 5.20868C11.7855 4.20305 10.422 3.63782 9 3.63727Z" fill="#485F7D"/>
<path d="M13.1716 7.90664L11.3133 6.04688C11.2572 5.99111 11.1814 5.95977 11.1023 5.95969H6.89555C6.81648 5.95977 6.74066 5.99111 6.68461 6.04688L4.82625 7.90664C4.75557 7.9773 4.71505 8.07262 4.71321 8.17254C4.71138 8.27247 4.74837 8.36921 4.81641 8.44242L8.88609 12.8313C8.90056 12.8468 8.91804 12.8591 8.93745 12.8675C8.95686 12.8759 8.97779 12.8802 8.99895 12.8802C9.0201 12.8802 9.04103 12.8759 9.06044 12.8675C9.07985 12.8591 9.09733 12.8468 9.1118 12.8313L13.1815 8.44242C13.2495 8.36921 13.2865 8.27247 13.2847 8.17254C13.2828 8.07262 13.2423 7.9773 13.1716 7.90664ZM12.567 8.45859L9.27 12.0537C9.25562 12.0689 9.23704 12.0795 9.21663 12.0841C9.19621 12.0887 9.17488 12.0872 9.15535 12.0796C9.13582 12.0721 9.11898 12.0589 9.10697 12.0418C9.09495 12.0246 9.08831 12.0043 9.08789 11.9834V6.44133C9.08789 6.42268 9.0953 6.4048 9.10849 6.39161C9.12167 6.37842 9.13956 6.37102 9.1582 6.37102H10.8394C10.9045 6.37053 10.9672 6.3958 11.0138 6.44133L12.5606 8.00437C12.62 8.06468 12.6538 8.14558 12.655 8.23021C12.6562 8.31484 12.6246 8.39666 12.567 8.45859Z" fill="white"/>
</svg>
