<svg width="17" height="17" viewBox="0 0 17 17" fill="none" xmlns="http://www.w3.org/2000/svg">
<path d="M1.62558 13.1347C2.67253 13.5627 3.90551 13.7835 5.32453 13.7971C5.05985 13.3139 4.86178 12.7977 4.73562 12.2621C4.43625 12.2409 4.11699 12.2076 3.77785 12.1621C3.16892 12.0822 2.56885 11.946 1.98547 11.7552C1.47917 11.5971 1.0024 11.3576 0.574151 11.0463C0.191384 10.7597 0 10.4202 0 10.0279V11.5361C0 12.1598 0.541862 12.6927 1.62558 13.1347Z" />
<path d="M6.43562 15.2613C6.09348 15.291 5.77123 15.3061 5.46887 15.3065C4.9019 15.3015 4.3359 15.259 3.77464 15.1791C3.16571 15.0992 2.56564 14.9629 1.98226 14.7721C1.47596 14.614 0.999192 14.3746 0.570943 14.0633C0.190314 13.7762 0 13.4366 0 13.0442V14.5524C0 15.1761 0.541862 15.709 1.62558 16.151C2.70931 16.593 3.9904 16.814 5.46887 16.814C6.40881 16.8242 7.34633 16.7172 8.25943 16.4956C7.58244 16.195 6.96483 15.7771 6.43562 15.2613Z" />
<path d="M10.7844 4.65952C9.55513 4.65965 8.3535 5.0217 7.33149 5.69988C6.30947 6.37807 5.51299 7.34192 5.04277 8.46954C4.57255 9.59717 4.44971 10.8379 4.6898 12.0348C4.92988 13.2318 5.52211 14.3311 6.39156 15.1939C7.26102 16.0567 8.36866 16.6441 9.57439 16.8818C10.7801 17.1195 12.0298 16.9969 13.1653 16.5295C14.3009 16.0621 15.2713 15.2709 15.9539 14.2558C16.6365 13.2408 17.0005 12.0477 17 10.8272C16.9973 9.19172 16.3415 7.62402 15.1763 6.46785C14.0112 5.31168 12.4318 4.66138 10.7844 4.65952ZM10.7844 16.1083C9.73262 16.1085 8.7044 15.799 7.82979 15.2189C6.95517 14.6389 6.27344 13.8144 5.87078 12.8497C5.46813 11.8851 5.36265 10.8235 5.56767 9.7993C5.7727 8.7751 6.27902 7.83425 7.02262 7.09574C7.76622 6.35722 8.71369 5.8542 9.74524 5.65028C10.7768 5.44636 11.8461 5.5507 12.8179 5.95011C13.7897 6.34951 14.6204 7.02605 15.205 7.89416C15.7895 8.76228 16.1016 9.78298 16.1019 10.8272C16.1005 12.2271 15.5399 13.5693 14.5431 14.5594C13.5462 15.5494 12.1945 16.1065 10.7844 16.1083Z" />
<path d="M12.8385 11.2921C12.5255 10.9138 12.0116 10.6119 11.2675 10.3712L11.1687 10.34V8.07965C11.4714 8.15189 11.7405 8.32387 11.9321 8.56751C11.9966 8.6442 12.0837 8.69889 12.1812 8.72391C12.2786 8.74893 12.3815 8.74301 12.4754 8.70699C12.5401 8.68317 12.5982 8.64441 12.6448 8.59391C12.6914 8.54341 12.7253 8.48262 12.7436 8.41656C12.759 8.35838 12.7601 8.29739 12.7469 8.23868C12.7338 8.17997 12.7067 8.12523 12.6679 8.07901C12.321 7.65488 11.8262 7.37571 11.2816 7.2969L11.1745 7.27907V6.93578C11.1719 6.83691 11.1358 6.74178 11.072 6.66583C11.0082 6.58988 10.9204 6.53755 10.8229 6.51734L10.7992 6.51225L10.7786 6.50843H10.6869C10.5703 6.50917 10.4586 6.55456 10.3749 6.63513C10.2912 6.71571 10.2421 6.82524 10.2378 6.94088V7.27461L10.1352 7.29499C9.43853 7.43575 8.94521 7.76693 8.67192 8.28091C8.54378 8.51903 8.47204 8.78303 8.46215 9.05282C8.46215 9.60883 8.69823 10.0489 9.18321 10.3973C9.51423 10.6349 9.91004 10.7909 10.25 10.9068V13.5181C9.74709 13.357 9.43917 12.9888 9.25955 12.6666C9.20224 12.5724 9.11313 12.5016 9.0081 12.4666C8.90307 12.4316 8.78894 12.4347 8.68604 12.4755L8.6514 12.4895L8.63792 12.494C8.57832 12.5167 8.52422 12.5517 8.47912 12.5965C8.43403 12.6414 8.39896 12.6952 8.37619 12.7545C8.35706 12.8046 8.34922 12.8583 8.35321 12.9118C8.35719 12.9652 8.37292 13.0172 8.39928 13.064C8.87464 13.941 9.69257 14.2384 10.1378 14.3378L10.2378 14.3607V14.7288C10.2466 14.8462 10.2997 14.9559 10.3866 15.036C10.4735 15.1161 10.5876 15.1606 10.7062 15.1606C10.8247 15.1606 10.9388 15.1161 11.0257 15.036C11.1126 14.9559 11.1657 14.8462 11.1745 14.7288V14.3925L11.2822 14.3747C11.6741 14.3151 12.0504 14.1794 12.3895 13.9754C12.9418 13.6257 13.2234 13.113 13.2234 12.4526C13.2189 11.9736 13.0977 11.6068 12.8385 11.2921ZM10.2475 10.0184C10.1252 9.9678 10.0069 9.90841 9.89336 9.84066C9.74466 9.75753 9.61698 9.64188 9.52 9.50247C9.43208 9.36552 9.3874 9.20561 9.3917 9.04327C9.3917 8.6191 9.66434 8.3758 9.89208 8.24651C10.0052 8.18427 10.1254 8.13553 10.25 8.1013L10.2475 10.0184ZM11.7826 13.334C11.5955 13.4511 11.3868 13.5299 11.1687 13.5659V11.2278C11.415 11.3222 11.6465 11.4509 11.8564 11.61C12.1425 11.8373 12.2759 12.1042 12.2759 12.4481C12.2783 12.6254 12.2341 12.8003 12.1476 12.9555C12.0611 13.1106 11.9353 13.2407 11.7826 13.3328V13.334Z" />
<path d="M1.5114 4.08695C2.51942 4.57991 3.83858 4.82639 5.46887 4.82639C7.09916 4.82639 8.4181 4.57991 9.4257 4.08695C10.4333 3.59442 10.9371 3.0365 10.9371 2.4132C10.9371 1.7797 10.4333 1.21902 9.4257 0.731156C8.4181 0.243294 7.09916 -0.000424043 5.46887 5.53822e-07C3.83815 5.53822e-07 2.51899 0.243719 1.5114 0.731156C0.503799 1.21859 0 1.77927 0 2.4132C0 3.03693 0.503799 3.59485 1.5114 4.08695Z" />
<path d="M10.7613 4.68882H10.7844C10.8357 4.68882 10.8864 4.68882 10.9371 4.68882V4.07231C10.9387 4.29022 10.8777 4.50408 10.7613 4.68882Z" />
<path d="M4.76449 9.32478C4.45528 9.30376 4.12298 9.27001 3.77464 9.22224C3.16571 9.14232 2.56564 9.00607 1.98226 8.81526C1.47596 8.65715 0.999192 8.41769 0.570943 8.1064C0.190314 7.8198 0 7.48054 0 7.08864V8.59808C0 9.22139 0.541862 9.75447 1.62558 10.1973C2.48307 10.5468 3.46458 10.758 4.57011 10.831C4.57215 10.3229 4.63744 9.81699 4.76449 9.32478Z" />
<path d="M1.62558 7.17908C2.68365 7.61089 3.9301 7.83168 5.36494 7.84145C5.6994 7.25239 6.12843 6.72146 6.63513 6.26959C6.24771 6.31042 5.85846 6.33167 5.46887 6.33328C4.9019 6.32828 4.3359 6.28573 3.77464 6.2059C3.16571 6.12599 2.56564 5.98974 1.98226 5.79893C1.47596 5.64082 0.999192 5.40135 0.570943 5.09006C0.190314 4.80346 0 4.46421 0 4.07231V5.58047C0 6.20336 0.541862 6.73622 1.62558 7.17908Z" />
</svg>
