<svg width="18" height="18" viewBox="0 0 18 18" fill="none" xmlns="http://www.w3.org/2000/svg">
<path d="M9 0C4.03757 0 0 4.03644 0 8.99905C0 13.9617 4.03757 18 9 18C13.9624 18 18 13.9623 18 8.99905C18 4.03581 13.9624 0 9 0ZM9 16.7015C7.47679 16.7016 5.98774 16.25 4.72116 15.4038C3.45459 14.5577 2.46737 13.3549 1.88434 11.9476C1.30132 10.5403 1.14867 8.99179 1.44572 7.49776C1.74276 6.00374 2.47614 4.63135 3.55313 3.55415C4.63011 2.47695 6.00233 1.74331 7.49625 1.44601C8.99018 1.14872 10.5387 1.30111 11.946 1.88392C13.3533 2.46674 14.5562 3.45379 15.4026 4.72028C16.2489 5.98676 16.7007 7.47578 16.7009 8.99905C16.6987 11.041 15.8867 12.9986 14.443 14.4426C12.9993 15.8866 11.0418 16.6989 9 16.7015Z" fill="#485F7D"/>
<path d="M11.9744 9.67528C11.5215 9.12338 10.7774 8.68377 9.69968 8.3317L9.55631 8.28666V4.98798C9.99334 5.0945 10.3813 5.34609 10.6569 5.70164C10.7505 5.81338 10.8768 5.89298 11.018 5.92928C11.1592 5.96557 11.3082 5.95673 11.4441 5.904C11.5377 5.86929 11.6217 5.81282 11.6892 5.73925C11.7567 5.66569 11.8058 5.57713 11.8323 5.48088C11.8546 5.39592 11.8563 5.30686 11.8372 5.22113C11.8181 5.13539 11.7788 5.05545 11.7226 4.98798C11.3819 4.56359 10.7571 4.02185 9.7149 3.84613L9.56012 3.82076V3.31961C9.55653 3.17563 9.50448 3.03707 9.41239 2.92633C9.3203 2.81559 9.19356 2.73915 9.05265 2.70936L9.01903 2.70174C9.00951 2.70174 8.99937 2.69794 8.98922 2.69604L8.9575 2.69223H8.85537C8.49443 2.70618 8.20581 2.9834 8.20581 3.32278V3.80617L8.05674 3.83598C7.04751 4.04088 6.33387 4.52426 5.93741 5.27408C5.75205 5.62147 5.64835 6.00657 5.6342 6.40007C5.6342 7.21205 5.97547 7.85339 6.67832 8.36088C7.15788 8.70788 7.73069 8.93561 8.22293 9.10499V12.9112C7.49408 12.6758 7.04941 12.1385 6.78869 11.6684C6.70602 11.5308 6.57713 11.4271 6.42503 11.3757C6.27292 11.3243 6.10752 11.3287 5.95834 11.3881L5.90823 11.4084L5.8892 11.416C5.80231 11.4486 5.7234 11.4995 5.65775 11.5651C5.59211 11.6308 5.54126 11.7097 5.5086 11.7966C5.48095 11.8698 5.46953 11.9482 5.47511 12.0263C5.4807 12.1044 5.50316 12.1803 5.54095 12.2489C6.22984 13.5278 7.41479 13.9617 8.05991 14.1063L8.20454 14.1393V14.6772C8.20454 15.0255 8.50839 15.3116 8.88265 15.3116C9.25691 15.3116 9.56076 15.028 9.56076 14.6772V14.1856L9.7168 14.1602C10.2849 14.0731 10.8302 13.8743 11.321 13.5753C12.1203 13.0678 12.5263 12.3174 12.5263 11.3551C12.5257 10.6681 12.3499 10.1339 11.9744 9.67528ZM8.2223 7.81533C8.04528 7.74143 7.87378 7.65493 7.70912 7.55651C7.49422 7.43516 7.30964 7.26663 7.1693 7.06361C7.04032 6.8639 6.97404 6.63015 6.979 6.39246C6.979 5.77459 7.37356 5.41935 7.70341 5.23094C7.86712 5.13995 8.0411 5.06882 8.22167 5.01907L8.2223 7.81533ZM10.4463 12.6517C10.1756 12.8221 9.87373 12.9368 9.55822 12.9892V9.57885C10.0023 9.76219 10.3137 9.9379 10.5541 10.1314C10.9684 10.4638 11.1618 10.8527 11.1618 11.3538C11.1599 11.9 10.9106 12.3472 10.4463 12.6517Z" fill="#485F7D"/>
</svg>
