<svg width="20" height="18" viewBox="0 0 20 18" fill="none" xmlns="http://www.w3.org/2000/svg">
<path d="M19.7287 4.74286L17.9632 2.89301C17.1447 2.03373 16.3268 1.17469 15.5097 0.315892C15.4158 0.212229 15.302 0.130516 15.1756 0.0761497C15.0493 0.0217833 14.9133 -0.00399993 14.7767 0.000502776C11.8021 0.00626331 8.68325 0.00626331 5.23105 0.000502776C5.09051 -0.00384139 4.95071 0.0232812 4.82106 0.0800444C4.69142 0.136808 4.57493 0.221894 4.47945 0.329573C3.41798 1.45 2.3358 2.58266 1.40408 3.55619L0.295673 4.71838C-0.0818475 5.11513 -0.0949607 5.36644 0.239769 5.79848L0.303265 5.87984C0.998491 6.77513 1.69395 7.66921 2.38963 8.56209C2.47452 8.66938 2.55803 8.77811 2.64154 8.88468C2.64583 8.8899 2.64975 8.89544 2.65328 8.90124C2.71608 9.00421 3.09222 9.4881 3.92387 10.5365L4.07226 10.7295L4.476 11.2487C6.1324 13.381 7.7888 15.5127 9.4452 17.6436C9.56459 17.7962 9.75232 18 9.99733 18C10.2423 18 10.4273 17.7998 10.5439 17.6493C13.6225 13.6942 16.6991 9.7394 19.7735 5.7848C20.0882 5.38156 20.0765 5.11297 19.7287 4.74286ZM12.5289 12.9783L12.7104 12.5534C13.7539 10.1153 14.627 8.07029 15.4973 6.0181C15.5449 5.90505 15.5663 5.88848 15.6808 5.88848H15.6933C16.2136 5.89569 16.7444 5.89497 17.2579 5.89497H17.8542C17.8822 5.89505 17.9097 5.90339 17.9334 5.91902C17.9571 5.93466 17.9761 5.95695 17.9882 5.98335C18.0003 6.00975 18.005 6.03917 18.0018 6.06825C17.9986 6.09732 17.9876 6.12486 17.9701 6.14771L12.6144 13.0337C12.6108 13.0395 12.6062 13.0444 12.6007 13.0481C12.5952 13.0519 12.589 13.0544 12.5825 13.0556C12.576 13.0567 12.5694 13.0565 12.563 13.0548C12.5566 13.0532 12.5506 13.0501 12.5454 13.0459C12.5348 13.0391 12.5272 13.0282 12.5241 13.0156C12.521 13.003 12.5227 12.9896 12.5289 12.9783ZM14.7215 1.2455L14.7346 1.25918L14.7588 1.2851C15.8041 2.37912 16.8486 3.47338 17.8921 4.56788C17.8993 4.57524 17.9042 4.58465 17.9062 4.59492C17.9081 4.60519 17.9071 4.61585 17.9033 4.62552C17.8994 4.63519 17.8929 4.64344 17.8845 4.64921C17.8761 4.65498 17.8663 4.658 17.8562 4.65789H17.0025C16.5435 4.65789 16.068 4.65789 15.6028 4.65069C15.5706 4.64641 15.5396 4.63513 15.5117 4.61757C15.5053 4.61253 15.4999 4.60616 15.4959 4.59885C14.9651 3.60443 14.4309 2.58266 13.9285 1.62137L13.7794 1.33335C13.7744 1.32371 13.7719 1.31289 13.7721 1.30192C13.7723 1.29096 13.7752 1.28024 13.7805 1.27081C13.7859 1.26138 13.7935 1.25356 13.8026 1.24811C13.8117 1.24266 13.8221 1.23978 13.8326 1.23974C14.1162 1.24118 14.4171 1.2419 14.7215 1.2455ZM7.73358 1.23326C9.08562 1.23974 10.4998 1.2383 11.7469 1.23686H12.2804C12.3112 1.2369 12.3415 1.24554 12.3681 1.26186C12.3946 1.27819 12.4166 1.30163 12.4315 1.32975C12.4419 1.35063 12.4516 1.36863 12.4557 1.37583C12.9174 2.27015 13.346 3.08671 13.7725 3.89606L14.1307 4.57796C14.1351 4.58598 14.1374 4.59503 14.1374 4.60425C14.1374 4.61346 14.1351 4.62251 14.1307 4.63053C14.1262 4.63838 14.1199 4.64489 14.1122 4.64943C14.1046 4.65397 14.096 4.65639 14.0872 4.65645H10.8359C10.5495 4.65645 10.2644 4.65645 9.97386 4.65645C9.96513 4.65716 9.95636 4.65716 9.94764 4.65645H8.10213C7.8095 4.65645 7.51733 4.65645 7.22562 4.65645H6.08271C6.05698 4.65641 6.0317 4.64943 6.00933 4.63618C5.98696 4.62293 5.96825 4.60387 5.95503 4.58084C5.94233 4.55733 5.93566 4.53079 5.93566 4.5038C5.93566 4.4768 5.94233 4.45027 5.95503 4.42675L6.27043 3.82766C6.69765 3.01326 7.13935 2.1715 7.57347 1.32975C7.61833 1.24406 7.63765 1.23182 7.73289 1.23182M2.1115 4.56644L2.36686 4.2993C3.24406 3.37617 4.14127 2.40912 5.11855 1.42263C5.24899 1.29014 5.33871 1.24766 5.40842 1.24478C5.57682 1.23614 5.7466 1.23398 5.92052 1.23398H6.20073C6.2304 1.23398 6.28286 1.23398 6.26974 1.25342C6.26974 1.25342 6.23524 1.32542 6.21246 1.36431L5.77904 2.1895C5.36977 2.96862 4.9467 3.77365 4.52777 4.56572C4.5121 4.59188 4.49357 4.61604 4.47255 4.63773C4.46344 4.6462 4.45163 4.65083 4.43943 4.65069C3.69129 4.66149 2.94936 4.66005 2.16188 4.65861H2.14532C2.13532 4.65896 2.12548 4.65602 2.11718 4.6502C2.10888 4.64438 2.10255 4.63599 2.09907 4.62621C2.09458 4.6162 2.09336 4.60493 2.09561 4.59414C2.09785 4.58334 2.10343 4.57361 2.1115 4.56644ZM7.45407 13.0467C7.44886 13.0509 7.44288 13.0539 7.4365 13.0555C7.43012 13.0572 7.42347 13.0575 7.41699 13.0563C7.41051 13.0552 7.40432 13.0526 7.39882 13.0489C7.39333 13.0451 7.38864 13.0402 7.38505 13.0344C6.8626 12.3633 5.25589 10.3147 4.00324 8.71834L3.98875 8.69746C3.89696 8.55345 2.61601 6.8973 2.03006 6.14555C2.01245 6.12278 2.00139 6.09527 1.99815 6.06621C1.99491 6.03715 1.99964 6.00772 2.01177 5.98135C2.02391 5.95497 2.04296 5.93272 2.06671 5.91718C2.09047 5.90164 2.11796 5.89343 2.14601 5.89352H2.4621C3.07152 5.89352 3.7044 5.89353 4.32555 5.88632C4.42562 5.88632 4.44771 5.89137 4.49809 6.01162C5.12821 7.49711 5.77352 9.00781 6.39742 10.4688L7.47063 12.979C7.47679 12.9903 7.4785 13.0037 7.47541 13.0163C7.47232 13.0289 7.46467 13.0398 7.45407 13.0467ZM10.1857 15.6771C10.178 15.7097 10.1591 15.7383 10.1325 15.7573C10.1059 15.7763 10.0735 15.7844 10.0415 15.78C10.0081 15.7842 9.97439 15.7762 9.94598 15.7574C9.91758 15.7387 9.89622 15.7103 9.88552 15.6771L5.83563 6.11099C5.82585 6.08729 5.82191 6.06143 5.82415 6.03574C5.82639 6.01005 5.83474 5.98536 5.84846 5.96389C5.86217 5.94243 5.88081 5.92488 5.90267 5.91285C5.92454 5.90081 5.94894 5.89466 5.97366 5.89497C6.6797 5.89497 7.38712 5.89497 8.09316 5.89497C8.14906 5.89497 8.20704 5.89497 8.2588 5.89497H9.71229C9.7194 5.89426 9.72657 5.89426 9.73368 5.89497C9.79063 5.90301 9.84824 5.9047 9.90553 5.90001H9.92693H9.94764C9.95728 5.89916 9.96698 5.89916 9.97662 5.90001H9.99111C11.0521 5.90001 12.1127 5.90001 13.1728 5.90001H14.1839C14.192 5.90015 14.2001 5.90235 14.2073 5.9064C14.2145 5.91046 14.2206 5.91626 14.2252 5.92332C14.2298 5.93038 14.2327 5.93848 14.2337 5.94696C14.2347 5.95543 14.2337 5.96402 14.2308 5.97201L10.1857 15.6771Z" />
</svg>
