<svg width="19" height="14" viewBox="0 0 19 14" fill="none" xmlns="http://www.w3.org/2000/svg">
<path d="M15.603 4.2572L15.603 4.25723C15.6214 4.29166 15.6322 4.34114 15.6387 4.38299C15.6459 4.42896 15.6504 4.48175 15.6504 4.53136C15.6504 4.60907 15.6457 4.67448 15.606 4.74896C15.5709 4.81476 15.51 4.884 15.4194 4.98281L15.3457 4.91524L15.4194 4.98281C15.1603 5.26552 13.7891 6.7133 12.4738 8.0971C11.816 8.78927 11.1718 9.46584 10.687 9.97333C10.4447 10.2271 10.2421 10.4386 10.0976 10.5887C10.0254 10.6638 9.96759 10.7236 9.92651 10.7657C9.906 10.7867 9.88947 10.8035 9.87733 10.8157L15.603 4.2572ZM15.603 4.2572C15.5958 4.24376 15.5852 4.23152 15.5814 4.22716C15.5751 4.21975 15.5672 4.21095 15.5581 4.20121C15.5399 4.1816 15.5148 4.15559 15.4841 4.12426C15.4224 4.06146 15.3359 3.97539 15.2311 3.87242C15.0215 3.66637 14.7374 3.39155 14.4295 3.0976C13.9878 2.67595 13.6996 2.40561 13.508 2.23683C13.4123 2.15254 13.339 2.09196 13.2816 2.05009C13.2264 2.00979 13.1776 1.98035 13.1323 1.96777L13.1055 2.06412L13.1323 1.96777C13.1116 1.96203 13.0833 1.95859 13.0549 1.95594C13.0241 1.95307 12.9848 1.95048 12.9379 1.94813C12.8439 1.94342 12.7159 1.93951 12.5562 1.9364C12.2368 1.93018 11.7878 1.92713 11.2249 1.92752L11.214 1.92753C10.281 1.92816 9.80459 1.92849 9.54416 1.95334C9.41337 1.96582 9.32356 1.98538 9.25443 2.02226C9.18455 2.05954 9.14454 2.11046 9.10854 2.15627L9.10522 2.1605L9.10521 2.16051L9.02813 2.25852L9.00674 2.28573V2.32034V6.4457V10.571V10.6099L9.03301 10.6386L9.15487 10.7716L9.15488 10.7716C9.20823 10.8298 9.25587 10.8782 9.31776 10.9061C9.38042 10.9344 9.44703 10.937 9.52319 10.937C9.65396 10.937 9.76109 10.9129 9.84746 10.844L15.603 4.2572ZM0.261298 4.98103C0.147448 4.82764 0.0834275 4.59129 0.103716 4.39457L4.43149 0.133201C4.43141 0.133217 4.43157 0.133201 4.43199 0.133155C4.43419 0.132918 4.44373 0.131892 4.46492 0.130668C4.48742 0.129368 4.51805 0.128076 4.55662 0.126809C4.63364 0.124279 4.74024 0.121915 4.87248 0.119727C5.13685 0.115352 5.50213 0.111701 5.93498 0.108778C6.80058 0.102933 7.93539 0.100007 9.07125 0.1C10.2071 0.0999933 11.3438 0.102907 12.2133 0.108739C12.648 0.111656 13.0157 0.115301 13.2829 0.119671C13.4166 0.121857 13.5248 0.124218 13.6035 0.126747C13.6429 0.128013 13.6745 0.129306 13.6979 0.130612C13.7097 0.131266 13.719 0.131899 13.726 0.132493C13.7336 0.133144 13.7363 0.133574 13.7361 0.133527C13.8519 0.153729 13.9938 0.207068 14.061 0.251782L14.1164 0.168568L14.061 0.251778L14.0609 0.251672C14.0609 0.251676 14.062 0.252495 14.0648 0.254626L14.077 0.264484C14.0873 0.272993 14.1008 0.284573 14.1177 0.299265C14.1514 0.328601 14.1968 0.369113 14.2527 0.419708C14.3645 0.520827 14.5171 0.661133 14.6997 0.830517C15.0648 1.16922 15.5489 1.62347 16.0638 2.11146L16.0726 2.11987C17.0918 3.08584 17.5946 3.56236 17.8488 3.85135C17.9755 3.99545 18.0335 4.0855 18.0639 4.16019C18.0941 4.23414 18.1001 4.29934 18.1097 4.40895C18.1222 4.55127 18.1108 4.63289 18.0573 4.77454C18.0429 4.81273 18.0388 4.83068 18.036 4.84288C18.0322 4.85998 18.0309 4.86576 18.0072 4.9001C17.9633 4.96373 17.861 5.08384 17.6003 5.36616C17.1663 5.83623 16.307 6.74177 14.5867 8.55468C14.2549 8.90429 13.8912 9.28765 13.4922 9.70814C13.2494 9.96415 13.0213 10.2047 12.807 10.4306C11.1396 12.1889 10.309 13.0647 9.84887 13.4998C9.58702 13.7475 9.4564 13.841 9.36782 13.8774C9.3061 13.9027 9.26835 13.9012 9.19607 13.8984C9.17059 13.8974 9.14081 13.8962 9.10417 13.896C9.06689 13.8957 9.03699 13.8967 9.01156 13.8974C8.94145 13.8996 8.90543 13.9007 8.84309 13.8735C8.75178 13.8337 8.61467 13.7325 8.33697 13.4675C7.85004 13.0028 6.96432 12.0689 5.18716 10.1951C4.95473 9.95005 4.70705 9.6889 4.44302 9.41062C3.3127 8.2193 2.27626 7.12432 1.51699 6.31987C1.13735 5.91763 0.827052 5.58808 0.608984 5.35547C0.499933 5.23914 0.414048 5.14716 0.35412 5.08249C0.324131 5.05013 0.300806 5.02479 0.284387 5.00671C0.272929 4.9941 0.266462 4.98679 0.263412 4.98334C0.261522 4.9812 0.260945 4.98055 0.261307 4.98104L0.261298 4.98103Z" fill="#C2CFE0" stroke="white" stroke-width="0.2"/>
</svg>
