<svg viewBox="0 0 24 24" fill="none" xmlns="http://www.w3.org/2000/svg">
<path d="M9.40191 4.57019L9.14851 5.53755L9.14851 5.53755L9.40191 4.57019ZM12.0565 4.13679L11.5183 3.29393L11.5183 3.29393L12.0565 4.13679ZM4.59279 8.4936L5.56702 8.26805L5.56702 8.26805L4.59279 8.4936ZM8.77361 4.4056L9.02702 3.43824L9.02702 3.43824L8.77361 4.4056ZM4.23753 11.7821L5.0679 12.3393L5.0679 12.3393L4.23753 11.7821ZM4.73983 9.12875L3.7656 9.35429L3.7656 9.35429L4.73983 9.12875ZM6.30443 17.4487L6.35579 16.45L6.35579 16.45L6.30443 17.4487ZM3.86521 12.3369L3.03485 11.7797L3.03485 11.7797L3.86521 12.3369ZM9.30163 18.6888L10.0884 18.0715L10.0884 18.0715L9.30163 18.6888ZM6.95753 17.4823L6.90616 18.481L6.90616 18.481L6.95753 17.4823ZM15.3882 18.2675L16.3109 18.6529L16.3109 18.6529L15.3882 18.2675ZM9.69982 19.1963L8.91308 19.8136L8.91308 19.8136L9.69982 19.1963ZM17.5958 15.7454L17.2324 14.8138L17.2324 14.8138L17.5958 15.7454ZM15.6448 17.6531L14.722 17.2678L14.722 17.2678L15.6448 17.6531ZM19.2906 9.81846L18.6493 10.5858L18.6493 10.5858L19.2906 9.81846ZM18.2142 15.5043L18.5776 16.4359L18.5776 16.4359L18.2142 15.5043ZM17.6578 7.01967L16.6581 7.04401L16.6581 7.04402L17.6578 7.01967ZM18.7961 9.40516L19.4374 8.63786L19.4374 8.63786L18.7961 9.40516ZM17.6418 6.36312L18.6415 6.33877L18.6415 6.33877L17.6418 6.36312ZM12.6187 3.77783L13.1568 4.62069L13.1568 4.62069L12.6187 3.77783ZM19.7071 18.2929C19.3166 17.9024 18.6834 17.9024 18.2929 18.2929C17.9024 18.6834 17.9024 19.3166 18.2929 19.7071L19.7071 18.2929ZM20.2929 21.7071C20.6834 22.0976 21.3166 22.0976 21.7071 21.7071C22.0976 21.3166 22.0976 20.6834 21.7071 20.2929L20.2929 21.7071ZM16.6421 6.38747L16.6581 7.04401L18.6575 6.99532L18.6415 6.33877L16.6421 6.38747ZM18.1548 10.1725L18.6493 10.5858L19.9319 9.05116L19.4374 8.63786L18.1548 10.1725ZM17.8509 14.5726L17.2324 14.8138L17.9591 16.6771L18.5776 16.4359L17.8509 14.5726ZM14.722 17.2678L14.4654 17.8822L16.3109 18.6529L16.5675 18.0385L14.722 17.2678ZM10.4866 18.579L10.0884 18.0715L8.51489 19.3061L8.91308 19.8136L10.4866 18.579ZM7.00889 16.4836L6.35579 16.45L6.25307 18.4474L6.90616 18.481L7.00889 16.4836ZM4.69558 12.8941L5.0679 12.3393L3.40716 11.2249L3.03485 11.7797L4.69558 12.8941ZM5.71407 8.9032L5.56702 8.26805L3.61856 8.71914L3.7656 9.35429L5.71407 8.9032ZM8.52021 5.37297L9.14851 5.53755L9.65531 3.60283L9.02702 3.43824L8.52021 5.37297ZM12.5946 4.97965L13.1568 4.62069L12.0805 2.93497L11.5183 3.29393L12.5946 4.97965ZM9.14851 5.53755C9.75552 5.69656 10.3406 5.87036 10.9448 5.77171L10.6225 3.79784C10.5336 3.81235 10.4285 3.80537 9.65531 3.60283L9.14851 5.53755ZM11.5183 3.29393C10.8275 3.73497 10.7179 3.78227 10.6225 3.79784L10.9448 5.77171C11.5424 5.67413 12.0503 5.32715 12.5946 4.97965L11.5183 3.29393ZM5.56702 8.26805C5.27522 7.00762 5.08506 6.17425 5.03718 5.56796C4.99056 4.97763 5.10415 4.87601 5.13464 4.8462L3.73639 3.4162C3.0716 4.06622 2.97965 4.91828 3.04339 5.72542C3.10587 6.51662 3.34199 7.52453 3.61856 8.71914L5.56702 8.26805ZM9.02702 3.43824C7.84571 3.1288 6.84771 2.86453 6.06069 2.78055C5.25654 2.69473 4.40252 2.76485 3.73639 3.4162L5.13464 4.8462C5.16378 4.8177 5.26454 4.70694 5.84848 4.76926C6.44955 4.8334 7.27297 5.04625 8.52021 5.37297L9.02702 3.43824ZM5.0679 12.3393C5.42893 11.8013 5.78648 11.3024 5.89908 10.7076L3.93398 10.3356C3.91544 10.4335 3.86404 10.544 3.40716 11.2249L5.0679 12.3393ZM3.7656 9.35429C3.9463 10.1348 3.95141 10.2435 3.93398 10.3356L5.89908 10.7076C6.0128 10.1069 5.85639 9.51796 5.71407 8.9032L3.7656 9.35429ZM6.35579 16.45C5.0592 16.3834 4.20356 16.3366 3.61314 16.2165C3.32826 16.1585 3.17469 16.0957 3.09422 16.0479C3.03259 16.0112 3.02277 15.9902 3.01469 15.9732L1.20966 16.8345C1.61854 17.6914 2.43341 18.0174 3.21439 18.1763C3.98759 18.3336 5.02526 18.3843 6.25307 18.4474L6.35579 16.45ZM3.03485 11.7797C2.33353 12.8248 1.74344 13.6997 1.39578 14.4223C1.04767 15.1458 0.806238 15.9891 1.20966 16.8345L3.01469 15.9732C3.01247 15.9686 2.928 15.8507 3.19804 15.2894C3.46852 14.7272 3.95778 13.9936 4.69558 12.8941L3.03485 11.7797ZM10.0884 18.0715C9.70697 17.5854 9.34272 17.0868 8.79719 16.806L7.88194 18.5843C7.94842 18.6185 8.02154 18.6773 8.5149 19.3061L10.0884 18.0715ZM6.90616 18.481C7.71458 18.5226 7.8123 18.5485 7.88194 18.5843L8.79719 16.806C8.25482 16.5269 7.63518 16.5158 7.00889 16.4836L6.90616 18.481ZM14.4654 17.8822C13.957 19.0996 13.6161 19.9092 13.2957 20.4457C12.9784 20.9767 12.8237 20.9923 12.7933 20.9973L13.1156 22.9711C14.0312 22.8216 14.5975 22.1663 15.0126 21.4713C15.4245 20.7818 15.8276 19.8103 16.3109 18.6529L14.4654 17.8822ZM8.91308 19.8136C9.66101 20.7668 10.2933 21.5773 10.866 22.1136C11.4509 22.6614 12.1832 23.1234 13.1156 22.9711L12.7933 20.9973C12.7798 20.9995 12.6543 21.0483 12.2331 20.6538C11.7998 20.248 11.2778 19.5873 10.4865 18.579L8.91308 19.8136ZM17.2324 14.8138C16.6308 15.0484 16.0574 15.2522 15.6231 15.6768L17.0213 17.1068C17.0964 17.0334 17.2023 16.9723 17.9591 16.6771L17.2324 14.8138ZM16.5675 18.0385C16.8815 17.2867 16.9457 17.1808 17.0213 17.1068L15.6231 15.6768C15.1893 16.101 14.9717 16.6699 14.722 17.2678L16.5675 18.0385ZM18.6493 10.5858C19.6319 11.407 20.2754 11.9486 20.6679 12.3945C21.0485 12.8271 20.9999 12.9548 20.9962 12.9743L22.9613 13.3463C23.1366 12.4203 22.6996 11.6759 22.1693 11.0732C21.6507 10.484 20.8607 9.82748 19.9319 9.05116L18.6493 10.5858ZM18.5776 16.4359C19.7423 15.9817 20.7208 15.6027 21.4187 15.2073C22.1237 14.8079 22.7889 14.2571 22.9613 13.3463L20.9962 12.9743C20.9896 13.0091 20.9677 13.1641 20.4328 13.4672C19.8908 13.7743 19.0765 14.0946 17.8509 14.5726L18.5776 16.4359ZM16.6581 7.04402C16.6734 7.67452 16.6679 8.29387 16.9302 8.84345L18.7352 7.98214C18.7003 7.90891 18.6772 7.80712 18.6575 6.99532L16.6581 7.04402ZM19.4374 8.63786C18.8251 8.12617 18.7681 8.05098 18.7352 7.98214L16.9302 8.84345C17.1945 9.39743 17.6807 9.77621 18.1548 10.1725L19.4374 8.63786ZM18.6415 6.33877C18.6114 5.10405 18.5887 4.06211 18.453 3.28281C18.3162 2.49772 18.0149 1.6716 17.1713 1.23742L16.2561 3.01571C16.2713 3.02353 16.2922 3.03352 16.3277 3.09755C16.3737 3.18065 16.4324 3.33767 16.4827 3.62602C16.5867 4.22308 16.6103 5.08445 16.6421 6.38747L18.6415 6.33877ZM13.1568 4.62069C14.2711 3.90924 15.0139 3.43797 15.5802 3.18172C16.1456 2.92583 16.2561 3.01571 16.2561 3.01571L17.1713 1.23742C16.336 0.807488 15.4855 1.02927 14.7556 1.35963C14.0264 1.68962 13.1393 2.25896 12.0805 2.93497L13.1568 4.62069ZM18.2929 19.7071L20.2929 21.7071L21.7071 20.2929L19.7071 18.2929L18.2929 19.7071Z" fill=""/>
</svg>
