<svg  viewBox="0 0 24 24" fill="none" xmlns="http://www.w3.org/2000/svg">
<path d="M15.1098 10.8563C14.7991 10.5176 14.4527 10.2135 14.0767 9.9493C13.8477 9.78675 13.61 9.63687 13.3647 9.50035C13.2965 9.46355 13.2373 9.41212 13.1914 9.34974C13.1455 9.28735 13.114 9.21558 13.0991 9.13956C13.0842 9.06354 13.0863 8.98516 13.1053 8.91007C13.1243 8.83497 13.1597 8.76502 13.209 8.70523L13.215 8.69919C13.7271 8.08192 14.0039 7.30325 13.9965 6.50129V6.46123C13.9933 5.99714 13.8943 5.53872 13.7055 5.11472C13.5168 4.69072 13.2425 4.31029 12.8999 3.99729C12.1902 3.34351 11.2227 2.98677 10.1812 3.00038C8.1511 3.0291 6.5125 4.62234 6.53064 6.55268C6.54563 7.33915 6.83276 8.0961 7.34314 8.69465C7.3941 8.75528 7.4308 8.82657 7.45053 8.90327C7.47026 8.97997 7.47252 9.06012 7.45714 9.13781C7.44176 9.2155 7.40914 9.28875 7.36167 9.35215C7.31421 9.41555 7.25312 9.46748 7.18291 9.50412C5.14071 10.5668 4.07501 12.2575 4.02135 14.5295C3.99263 15.7207 3.99943 18.5814 4.00472 19.7401C4.00472 19.8761 4.00472 20.0666 4.00472 20.2646C4.00512 20.4598 4.08294 20.6468 4.22109 20.7847C4.35925 20.9226 4.54646 21 4.74164 21C4.83854 20.9999 4.93447 20.9807 5.02394 20.9435C5.1134 20.9063 5.19465 20.8518 5.26303 20.7831C5.33141 20.7144 5.38557 20.633 5.42243 20.5433C5.45928 20.4537 5.4781 20.3577 5.4778 20.2608C5.4778 20.0681 5.4778 19.8829 5.4778 19.7514V19.734C5.47175 18.5829 5.4657 15.7282 5.49518 14.5582C5.54053 12.6846 6.45052 11.3271 8.19796 10.523C8.80431 10.2354 9.46057 10.0678 10.1306 10.0294C10.2356 10.0249 10.3263 10.0249 10.4102 10.0294H10.4193C11.3572 10.0498 12.2831 10.3794 13.1727 11.012C13.4931 11.2356 13.7854 11.497 14.0434 11.7905C14.1472 11.9116 14.2893 11.9937 14.446 12.0232C14.6028 12.0528 14.765 12.028 14.9058 11.9529L14.93 11.9401C15.0236 11.89 15.1044 11.8191 15.1663 11.7328C15.2281 11.6465 15.2693 11.5472 15.2867 11.4425C15.3041 11.3377 15.2972 11.2304 15.2665 11.1288C15.2359 11.0271 15.1823 10.9339 15.1098 10.8563ZM10.4457 8.6818H10.4412C10.3838 8.68785 10.321 8.69163 10.2553 8.69314H10.1215C10.095 8.69314 10.0686 8.69314 10.0459 8.68709C9.55025 8.64659 9.08319 8.43838 8.72174 8.09681C8.50255 7.89961 8.32594 7.65974 8.20273 7.39188C8.07953 7.12402 8.01232 6.83383 8.00523 6.53908C7.99313 5.32449 8.95452 4.36083 10.1971 4.33589H10.2477C10.8385 4.32658 11.4113 4.5397 11.8523 4.93298C12.0649 5.1293 12.2341 5.36796 12.3489 5.63362C12.4633 5.90015 12.5227 6.18705 12.5235 6.4771C12.534 7.65239 11.6611 8.5775 10.4457 8.6818Z" fill="#485F7D"/>
<path d="M16.0773 12.3384C15.2222 12.3384 14.3863 12.592 13.6753 13.0671C12.9644 13.5421 12.4103 14.2174 12.0831 15.0074C11.7559 15.7974 11.6703 16.6667 11.8372 17.5053C12.004 18.344 12.4159 19.1143 13.0206 19.7189C13.6253 20.3235 14.3956 20.7352 15.2343 20.9019C16.073 21.0686 16.9423 20.9829 17.7322 20.6556C18.5222 20.3282 19.1973 19.774 19.6723 19.063C20.1472 18.3519 20.4007 17.516 20.4005 16.6609C20.3991 15.5148 19.9432 14.4161 19.1327 13.6057C18.3222 12.7954 17.2234 12.3396 16.0773 12.3384ZM16.0773 19.8073C15.455 19.8073 14.8466 19.6228 14.3292 19.2771C13.8118 18.9313 13.4085 18.4399 13.1704 17.865C12.9322 17.29 12.8699 16.6574 12.9913 16.0471C13.1127 15.4367 13.4124 14.8761 13.8524 14.436C14.2925 13.996 14.8531 13.6963 15.4634 13.5749C16.0738 13.4535 16.7064 13.5158 17.2814 13.754C17.8563 13.9921 18.3477 14.3954 18.6935 14.9128C19.0392 15.4303 19.2237 16.0386 19.2237 16.6609C19.2227 17.4951 18.8909 18.2948 18.301 18.8847C17.7112 19.4745 16.9115 19.8063 16.0773 19.8073Z" fill="#485F7D"/>
<path d="M16.1529 19.0183C16.055 19.0183 15.9612 18.9794 15.8921 18.9102C15.8229 18.8411 15.784 18.7473 15.784 18.6494V18.6457C15.2172 18.5043 14.8015 18.0448 14.8015 17.5021C14.8058 17.4071 14.8466 17.3174 14.9153 17.2516C14.9841 17.1859 15.0756 17.1492 15.1707 17.1492C15.2658 17.1492 15.3573 17.1859 15.4261 17.2516C15.4948 17.3174 15.5356 17.4071 15.5399 17.5021C15.5399 17.7462 15.8211 17.9556 16.1544 17.9556C16.4877 17.9556 16.7696 17.7493 16.7696 17.5021C16.7696 17.255 16.4877 17.0486 16.1544 17.0486C15.4084 17.0486 14.8015 16.5158 14.8015 15.8605C14.8015 15.3171 15.2187 14.8575 15.784 14.7162C15.784 14.6678 15.7936 14.6198 15.8121 14.575C15.8306 14.5303 15.8578 14.4896 15.8921 14.4554C15.9263 14.4211 15.967 14.394 16.0117 14.3754C16.0565 14.3569 16.1044 14.3474 16.1529 14.3474C16.2013 14.3474 16.2493 14.3569 16.294 14.3754C16.3388 14.394 16.3794 14.4211 16.4137 14.4554C16.4479 14.4896 16.4751 14.5303 16.4936 14.575C16.5122 14.6198 16.5217 14.6678 16.5217 14.7162C17.0886 14.8575 17.5043 15.3208 17.5043 15.8605C17.5043 15.9583 17.4654 16.0521 17.3962 16.1213C17.3271 16.1905 17.2332 16.2293 17.1354 16.2293C17.0376 16.2293 16.9438 16.1905 16.8746 16.1213C16.8054 16.0521 16.7666 15.9583 16.7666 15.8605C16.7666 15.6156 16.4847 15.407 16.1514 15.407C15.818 15.407 15.5369 15.6133 15.5369 15.8605C15.5369 16.1076 15.818 16.314 16.1514 16.314C16.8973 16.314 17.5043 16.8468 17.5043 17.5029C17.5043 18.0455 17.087 18.5051 16.5217 18.6464V18.6502C16.5217 18.6986 16.5122 18.7465 16.4936 18.7912C16.4751 18.8359 16.4479 18.8765 16.4136 18.9107C16.3794 18.9449 16.3387 18.972 16.294 18.9905C16.2492 19.0089 16.2013 19.0184 16.1529 19.0183Z" fill="#485F7D"/>
</svg>
