<svg width="42" height="18" viewBox="0 0 42 18" fill="none" xmlns="http://www.w3.org/2000/svg">
<path d="M24.8264 11.296H21.3344L20.7344 13H19.3064L22.2944 4.648H23.8784L26.8664 13H25.4264L24.8264 11.296ZM24.4424 10.18L23.0864 6.304L21.7184 10.18H24.4424ZM34.1656 6.388L30.1096 16.108H28.6936L30.0376 12.892L27.4336 6.388H28.9576L30.8176 11.428L32.7496 6.388H34.1656ZM41.306 9.532C41.306 9.78 41.29 10.004 41.258 10.204H36.206C36.246 10.732 36.442 11.156 36.794 11.476C37.146 11.796 37.578 11.956 38.09 11.956C38.826 11.956 39.346 11.648 39.65 11.032H41.126C40.926 11.64 40.562 12.14 40.034 12.532C39.514 12.916 38.866 13.108 38.09 13.108C37.458 13.108 36.89 12.968 36.386 12.688C35.89 12.4 35.498 12 35.21 11.488C34.93 10.968 34.79 10.368 34.79 9.688C34.79 9.008 34.926 8.412 35.198 7.9C35.478 7.38 35.866 6.98 36.362 6.7C36.866 6.42 37.442 6.28 38.09 6.28C38.714 6.28 39.27 6.416 39.758 6.688C40.246 6.96 40.626 7.344 40.898 7.84C41.17 8.328 41.306 8.892 41.306 9.532ZM39.878 9.1C39.87 8.596 39.69 8.192 39.338 7.888C38.986 7.584 38.55 7.432 38.03 7.432C37.558 7.432 37.154 7.584 36.818 7.888C36.482 8.184 36.282 8.588 36.218 9.1H39.878Z" fill="#243A57" fill-opacity="0.6"/>
<path d="M24.8264 11.296H21.3344L20.7344 13H19.3064L22.2944 4.648H23.8784L26.8664 13H25.4264L24.8264 11.296ZM24.4424 10.18L23.0864 6.304L21.7184 10.18H24.4424ZM34.1656 6.388L30.1096 16.108H28.6936L30.0376 12.892L27.4336 6.388H28.9576L30.8176 11.428L32.7496 6.388H34.1656ZM41.306 9.532C41.306 9.78 41.29 10.004 41.258 10.204H36.206C36.246 10.732 36.442 11.156 36.794 11.476C37.146 11.796 37.578 11.956 38.09 11.956C38.826 11.956 39.346 11.648 39.65 11.032H41.126C40.926 11.64 40.562 12.14 40.034 12.532C39.514 12.916 38.866 13.108 38.09 13.108C37.458 13.108 36.89 12.968 36.386 12.688C35.89 12.4 35.498 12 35.21 11.488C34.93 10.968 34.79 10.368 34.79 9.688C34.79 9.008 34.926 8.412 35.198 7.9C35.478 7.38 35.866 6.98 36.362 6.7C36.866 6.42 37.442 6.28 38.09 6.28C38.714 6.28 39.27 6.416 39.758 6.688C40.246 6.96 40.626 7.344 40.898 7.84C41.17 8.328 41.306 8.892 41.306 9.532ZM39.878 9.1C39.87 8.596 39.69 8.192 39.338 7.888C38.986 7.584 38.55 7.432 38.03 7.432C37.558 7.432 37.154 7.584 36.818 7.888C36.482 8.184 36.282 8.588 36.218 9.1H39.878Z" fill="#2ED47A"/>
<path fill-rule="evenodd" clip-rule="evenodd" d="M7.78722 1.03096C7.72567 1.05385 7.62477 1.12177 7.56302 1.18184C7.37942 1.36052 7.36605 1.44638 7.36605 2.44789V3.32046L7.28746 3.42625C7.02733 3.7764 5.91949 5.03283 4.91162 6.12077L4.45546 6.61315L4.45575 10.3853L4.45607 14.1573L5.14017 14.4086C5.8758 14.6789 6.16208 14.771 6.50152 14.8466C7.11565 14.9834 7.12332 14.9837 9.90082 14.9963C11.7697 15.0048 12.5913 14.9989 12.725 14.976C13.4134 14.8583 13.9372 14.238 13.9361 13.5419C13.9357 13.2751 13.8851 13.0774 13.7585 12.8474L13.6617 12.6717L13.8351 12.4949C14.0248 12.3015 14.1425 12.0893 14.2138 11.8118C14.3009 11.4731 14.2259 11.0044 14.0398 10.7242L13.9696 10.6185L14.1492 10.4352C14.6063 9.96825 14.6979 9.30035 14.3837 8.7263L14.2874 8.55049L14.4376 8.40271C15.0297 7.81996 15.0371 6.94676 14.4549 6.35734C14.3387 6.23977 14.1973 6.13217 14.0837 6.07508C13.749 5.90669 13.6906 5.90221 11.8112 5.90166C10.8721 5.9014 10.1037 5.89379 10.1037 5.88475C10.1037 5.87573 10.2093 5.50516 10.3384 5.06126L10.573 4.25419L10.556 3.7208C10.5359 3.08817 10.4827 2.83055 10.2908 2.43638C9.88993 1.61309 9.06799 1.0635 8.15052 1.00526C7.96822 0.993689 7.86843 1.00075 7.78722 1.03096ZM0.132812 10.1657V14.7173H1.86187H3.59093V10.1657V5.614H1.86187H0.132812V10.1657Z" fill="#2ED47A"/>
</svg>
