<svg width="105" height="137" viewBox="0 0 105 137" fill="none" xmlns="http://www.w3.org/2000/svg">
<path d="M52.8882 103.761C34.2967 94.8489 18.1339 72.206 16.6795 53.2556C15.225 34.3053 29.0139 26.0199 47.6054 34.9319C66.197 43.8439 82.3597 66.4868 83.8142 85.4371C85.2686 104.387 71.4797 112.673 52.8882 103.761Z" fill="#306EFF" stroke="#253D8E" stroke-width="1.65274"/>
<path d="M57.5159 100.221C39.5238 91.5967 23.8107 69.2057 22.356 50.2516C20.9012 31.2974 34.2463 22.8357 52.2383 31.4603C70.2304 40.0849 85.9435 62.4759 87.3982 81.43C88.853 100.384 75.5079 108.846 57.5159 100.221Z" fill="#E5007A" stroke="#253D8E" stroke-width="1.65274"/>
<path d="M59.0115 94.4628C42.7844 86.6842 28.6863 66.9099 27.4164 50.3636C26.1464 33.8172 38.1701 26.5645 54.3972 34.3431C70.6244 42.1217 84.7224 61.8961 85.9924 78.4424C87.2624 94.9887 75.2387 102.241 59.0115 94.4628Z" fill="#E5007A" stroke="#253D8E" stroke-width="1.65274"/>
<g filter="url(#filter0_d_372_6179)">
<path d="M68.9947 54.6585C69.0586 54.7494 69.1182 54.8437 69.1862 54.9312C70.0891 56.0657 70.8721 57.273 71.503 58.5035C71.9505 59.3605 72.2606 60.223 72.4142 61.0383C72.4805 61.4046 72.489 61.7478 72.4393 62.054C72.3936 62.3836 72.2585 62.6493 72.0454 62.8287C71.8324 63.008 71.5475 63.0958 71.215 63.0846C70.745 63.0721 70.2241 62.9303 69.6899 62.6696C68.778 62.2264 67.8646 61.6129 67.0012 60.8638C66.2706 60.243 65.5683 59.5627 64.9067 58.8349C63.731 57.5563 62.6915 56.1507 61.8408 54.6895C61.2507 53.704 60.811 52.6926 60.549 51.7177C60.3965 51.1623 60.3601 50.6431 60.4425 50.1994C60.4989 49.897 60.6346 49.654 60.8394 49.4889C61.0442 49.3237 61.3127 49.2407 61.6245 49.2461C62.0988 49.2535 62.627 49.3957 63.1688 49.6621C63.9542 50.0366 64.7429 50.5444 65.4985 51.1621C66.4379 51.9228 67.3358 52.783 68.1666 53.7182C68.2338 53.7885 68.3031 53.8563 68.374 53.921L68.9947 54.6585Z" fill="white"/>
<path d="M40.7238 48.0874C41.0532 47.7955 41.4725 47.6147 41.9602 47.5541C42.2134 47.5252 42.4926 47.5491 42.7876 47.6249C43.6664 47.8657 44.4378 48.4836 45.1237 49.3941C45.8513 50.3676 46.2796 51.3626 46.592 52.3693C46.9657 53.6197 47.1388 54.8162 47.1031 55.9026C47.0886 57.136 46.8388 58.2296 46.3657 59.1314C46.1074 59.6357 45.7498 60.0466 45.3045 60.3507C44.9932 60.5713 44.609 60.6953 44.1712 60.7163C43.4852 60.7398 42.7665 60.4746 41.9925 59.8049C41.4864 59.3494 41.0409 58.8021 40.7018 58.2195C40.218 57.4041 39.8545 56.5688 39.6323 55.7617C39.2478 54.4146 39.0915 53.133 39.1712 51.9827C39.2239 50.9144 39.4622 49.9616 39.877 49.1606C40.0955 48.7391 40.3797 48.3789 40.7238 48.0874Z" fill="white"/>
<path d="M46.0366 43.5885C46.6351 43.1379 47.3685 42.8621 48.2054 42.7729C49.592 42.5872 51.1871 42.8278 52.8679 43.4761C53.6683 43.7775 54.4868 44.2206 55.2871 44.7856C55.844 45.1707 56.3746 45.6562 56.8414 46.2079C57.1973 46.6216 57.4839 47.0842 57.671 47.5472C57.8581 48.0102 57.939 48.4567 57.905 48.8399C57.8705 49.3366 57.7159 49.7547 57.4522 50.0642C56.8955 50.7779 56.0673 51.1221 55.1043 51.2708C53.5921 51.5256 51.8135 51.25 49.9396 50.4707C49.0709 50.1235 48.1846 49.5938 47.3376 48.9155C46.7848 48.4822 46.279 47.9392 45.8711 47.3409C45.6498 47.0094 45.476 46.6636 45.36 46.3241C45.244 45.9846 45.1882 45.6584 45.1959 45.3649C45.2059 44.8416 45.3474 44.3991 45.6091 44.0734C45.7384 43.8983 45.8923 43.7492 46.0366 43.5885Z" fill="white"/>
<path d="M70.0417 82.8457C69.4289 83.3416 68.6623 83.6422 67.7792 83.7328C66.4023 83.9088 64.8216 83.6659 63.1573 83.0224C62.2639 82.6913 61.3475 82.1778 60.4615 81.5118C59.9858 81.1569 59.5356 80.7265 59.1378 80.246C58.8161 79.864 58.5537 79.4422 58.3739 79.0179C58.1941 78.5937 58.1025 78.1802 58.1071 77.8142C58.1137 77.2957 58.2474 76.8544 58.4979 76.5245C58.9557 75.9093 59.6073 75.5039 60.407 75.3366C62.0213 74.9197 63.9937 75.1629 66.0891 76.0371C66.9568 76.3869 67.8413 76.9191 68.6857 77.5993C69.2272 78.0242 69.7231 78.5555 70.1245 79.1409C70.3871 79.5314 70.5849 79.9413 70.7024 80.3381C70.8198 80.7349 70.8536 81.1077 70.801 81.427C70.7385 81.8776 70.576 82.2576 70.3226 82.5455C70.2192 82.6693 70.1034 82.7815 70.0417 82.8457Z" fill="white"/>
<path d="M75.1724 78.5246C74.8645 78.7719 74.4761 78.9166 74.0281 78.9509C73.8157 78.9676 73.5882 78.9527 73.3499 78.9065C72.448 78.7171 71.6384 78.0872 70.915 77.1322C70.3541 76.3688 69.9172 75.5526 69.6406 74.7513C69.2434 73.659 69.0091 72.5967 68.9479 71.611C68.8162 69.9893 69.0488 68.5563 69.629 67.4148C69.8551 66.9598 70.16 66.5779 70.536 66.2788C70.8743 65.9945 71.3076 65.8298 71.8105 65.7943C72.4917 65.7651 73.2203 66.017 73.9971 66.6917C74.4666 67.1069 74.8854 67.6044 75.2144 68.1379C75.6137 68.7758 75.933 69.4325 76.1581 70.079C76.5652 71.2323 76.7941 72.3501 76.834 73.3805C76.9276 74.9381 76.6771 76.311 76.0995 77.4059C75.858 77.8476 75.5469 78.223 75.1724 78.5246Z" fill="white"/>
<path d="M47.566 72.4629C46.2617 70.9134 45.3143 69.5514 44.5698 68.1069C44.0936 67.2115 43.7662 66.3081 43.6094 65.4567C43.5437 65.096 43.5349 64.7582 43.5833 64.4565C43.6305 64.1193 43.771 63.849 43.9923 63.6691C44.2136 63.4892 44.5091 63.4053 44.853 63.4245C45.3538 63.4492 45.9073 63.6137 46.4716 63.9054C47.3363 64.3458 48.1991 64.9344 49.0177 65.6424C49.743 66.2579 50.4402 66.9327 51.0969 67.6548C52.255 68.9086 53.283 70.2856 54.1311 71.719C54.6696 72.6152 55.0912 73.5333 55.3764 74.4309C55.5504 74.9724 55.633 75.4917 55.6201 75.9613C55.6123 76.4305 55.4537 76.8048 55.1651 77.0355C54.8787 77.2477 54.4871 77.3179 54.0367 77.2377C53.4808 77.143 52.8851 76.9136 52.2886 76.5643C51.3409 76.0174 50.4072 75.3182 49.5317 74.4998C48.8415 73.8693 48.1825 73.1865 47.566 72.4629Z" fill="white"/>
</g>
<defs>
<filter id="filter0_d_372_6179" x="35.1511" y="42.712" width="45.7021" height="49.0764" filterUnits="userSpaceOnUse" color-interpolation-filters="sRGB">
<feFlood flood-opacity="0" result="BackgroundImageFix"/>
<feColorMatrix in="SourceAlpha" type="matrix" values="0 0 0 0 0 0 0 0 0 0 0 0 0 0 0 0 0 0 127 0" result="hardAlpha"/>
<feOffset dy="4"/>
<feGaussianBlur stdDeviation="2"/>
<feComposite in2="hardAlpha" operator="out"/>
<feColorMatrix type="matrix" values="0 0 0 0 0 0 0 0 0 0 0 0 0 0 0 0 0 0 0.25 0"/>
<feBlend mode="normal" in2="BackgroundImageFix" result="effect1_dropShadow_372_6179"/>
<feBlend mode="normal" in="SourceGraphic" in2="effect1_dropShadow_372_6179" result="shape"/>
</filter>
</defs>
</svg>
