<svg width="24" height="24" viewBox="0 0 24 24" fill="none" xmlns="http://www.w3.org/2000/svg">
<path d="M20.6619 6.95766C19.6905 5.99245 18.4138 5.72922 16.5659 5.652C16.5483 4.39372 16.4509 3.49871 15.763 2.80902C14.9531 2 13.9037 2 12.0031 2C10.1025 2 9.04602 2 8.23613 2.80727C7.54732 3.49695 7.44641 4.39196 7.43149 5.65024C5.58882 5.72746 4.3086 5.98631 3.33813 6.95766C2 8.29667 2 10.1385 2 13.808C2 17.4776 2 19.322 3.33813 20.6619C4.67626 22.0018 6.51981 22 10.1902 22H13.8098C17.4793 22 19.3211 22 20.6619 20.6619C22.0026 19.3237 22 17.4793 22 13.808C22 10.1367 22 8.29667 20.6619 6.95766ZM10.1902 7.52801H13.8098C16.9537 7.52801 18.5331 7.52801 19.3132 8.30895C20.0933 9.0899 20.0942 10.6685 20.0942 13.8124C20.0942 15.3857 20.0942 16.5668 19.9968 17.4521C19.8994 18.3375 19.7046 18.928 19.3132 19.3185C18.5331 20.0985 16.9537 20.0985 13.8098 20.0985H10.1902C7.04453 20.0985 5.46685 20.0985 4.68591 19.3185C3.90497 18.5384 3.90585 16.9581 3.90585 13.8124C3.90585 10.6667 3.90585 9.08902 4.68591 8.30895C5.46598 7.52889 7.04453 7.52801 10.1902 7.52801ZM9.58391 4.15593C9.82433 3.91462 10.5772 3.90322 11.9987 3.90322C13.4202 3.90322 14.1739 3.91462 14.4152 4.15593C14.5907 4.33142 14.6451 4.81139 14.6583 5.61866H10.1902C9.89365 5.61866 9.61111 5.61866 9.33734 5.61866C9.35314 4.81227 9.40491 4.33493 9.58391 4.15593Z" fill="black"/>
<path d="M12.0031 17.6188C11.8436 17.6186 11.6907 17.5551 11.578 17.4422C11.4653 17.3294 11.402 17.1764 11.402 17.0169V17.0107C10.4772 16.78 9.79801 16.0315 9.79801 15.1461C9.80395 14.9906 9.86992 14.8434 9.98208 14.7354C10.0942 14.6275 10.2438 14.5672 10.3995 14.5672C10.5552 14.5672 10.7048 14.6275 10.8169 14.7354C10.9291 14.8434 10.9951 14.9906 11.001 15.1461C11.001 15.5445 11.4599 15.8815 12.0031 15.8815C12.5462 15.8815 13.006 15.5445 13.006 15.1461C13.006 14.7478 12.5471 14.4108 12.0031 14.4108C10.7869 14.4108 9.79801 13.5421 9.79801 12.4734C9.79801 11.588 10.4772 10.8396 11.402 10.6088V10.5991C11.3989 10.5182 11.4122 10.4375 11.441 10.3618C11.4699 10.2861 11.5137 10.2171 11.5698 10.1587C11.626 10.1004 11.6933 10.054 11.7679 10.0223C11.8424 9.99056 11.9225 9.97421 12.0035 9.97421C12.0845 9.97421 12.1646 9.99056 12.2392 10.0223C12.3137 10.054 12.381 10.1004 12.4372 10.1587C12.4934 10.2171 12.5372 10.2861 12.566 10.3618C12.5948 10.4375 12.6081 10.5182 12.605 10.5991V10.6053C13.529 10.836 14.2081 11.5845 14.2081 12.4699C14.2081 12.6293 14.1448 12.7822 14.0321 12.8949C13.9194 13.0076 13.7665 13.0709 13.6071 13.0709C13.4477 13.0709 13.2948 13.0076 13.1821 12.8949C13.0693 12.7822 13.006 12.6293 13.006 12.4699C13.006 12.0715 12.5471 11.7346 12.0031 11.7346C11.459 11.7346 11.001 12.0715 11.001 12.4699C11.001 12.8682 11.4599 13.2052 12.0031 13.2052C13.2192 13.2052 14.2081 14.0739 14.2081 15.1426C14.2081 16.028 13.529 16.7765 12.605 17.0072V17.0134C12.6055 17.0927 12.5902 17.1714 12.5602 17.2448C12.5302 17.3182 12.4859 17.385 12.43 17.4413C12.374 17.4976 12.3075 17.5422 12.2342 17.5727C12.161 17.6031 12.0824 17.6188 12.0031 17.6188Z" fill="black"/>
</svg>
