<svg  viewBox="0 0 24 24" fill="none" xmlns="http://www.w3.org/2000/svg">
<path d="M20.203 17.9999H3.78051C3.47777 18.0012 3.17973 17.9275 2.91487 17.7857C2.65001 17.6439 2.42716 17.4389 2.26762 17.1901C2.089 16.9078 1.99629 16.5824 2.00011 16.2514V7.72129C1.99974 7.49381 2.04608 7.26852 2.13645 7.05849C2.22683 6.84846 2.35943 6.65786 2.52659 6.49775C2.69374 6.33764 2.89211 6.21121 3.11019 6.12578C3.32827 6.04036 3.56173 5.99764 3.79702 6.0001H20.2195C20.4548 5.99956 20.688 6.04424 20.9053 6.13154C21.1226 6.21885 21.3199 6.34704 21.4855 6.50867C21.6512 6.6703 21.782 6.86214 21.8703 7.07305C21.9586 7.28396 22.0026 7.50973 21.9999 7.73724V16.2787C22.0004 16.5062 21.9542 16.7316 21.8639 16.9417C21.7736 17.1518 21.641 17.3425 21.4738 17.5026C21.3066 17.6628 21.1082 17.7892 20.89 17.8746C20.6719 17.9599 20.4383 18.0025 20.203 17.9999ZM17.5038 17.0027H20.203C20.306 17.0046 20.4085 16.9865 20.5042 16.9495C20.6411 16.894 20.7581 16.8009 20.8407 16.6816C20.9232 16.5623 20.9676 16.4222 20.9684 16.2787V14.3847L17.5038 17.0027ZM3.6588 13.5929L7.54487 16.5293L7.56275 16.5459C7.86902 16.8347 8.27859 16.9983 8.70636 17.0027H15.2943C15.7219 16.9981 16.1311 16.8345 16.4372 16.5459L16.4744 16.5147L20.3412 13.5929C20.5433 13.3964 20.7029 13.1629 20.8106 12.906C20.9183 12.6492 20.9719 12.3742 20.9684 12.0971V11.9641C20.9719 11.687 20.9183 11.412 20.8106 11.1551C20.7029 10.8983 20.5433 10.6648 20.3412 10.4683L16.4551 7.52916L16.4372 7.51254C16.1311 7.22396 15.7219 7.06041 15.2943 7.05582H8.70636C8.27859 7.06024 7.86902 7.2238 7.56275 7.51254L7.52561 7.54378L3.6588 10.4689C3.45692 10.6652 3.29749 10.8984 3.18981 11.1549C3.08213 11.4114 3.02836 11.686 3.03163 11.9628V12.0957C3.0279 12.3731 3.08145 12.6483 3.18914 12.9054C3.29683 13.1625 3.4565 13.3962 3.6588 13.5929ZM3.03163 14.3847V16.2514C3.02885 16.3955 3.06793 16.5373 3.14441 16.661C3.21145 16.7657 3.3051 16.8521 3.41645 16.9119C3.5278 16.9717 3.65313 17.0029 3.78051 17.0027H6.49616L3.03163 14.3847ZM3.79702 6.99731C3.69416 6.99528 3.59194 7.01337 3.4965 7.0505C3.35946 7.10584 3.24229 7.19896 3.15963 7.31825C3.07696 7.43753 3.03244 7.57771 3.03163 7.72129V9.67516L6.57524 6.99731H3.79702ZM17.4248 6.99731L20.9684 9.67516V7.73724C20.9704 7.6376 20.9517 7.53858 20.9133 7.44606C20.856 7.31369 20.7596 7.20057 20.6362 7.12077C20.5129 7.04098 20.3679 6.99804 20.2195 6.99731H17.4248Z" />
<path d="M12.0024 15.9676C10.9829 15.9686 9.99951 15.6029 9.24348 14.9417C8.48746 14.2806 8.0129 13.3711 7.91213 12.3904C7.81136 11.4096 8.09159 10.4277 8.6983 9.63565C9.30501 8.8436 10.1948 8.29807 11.1946 8.10519C12.1943 7.91231 13.2326 8.08588 14.1073 8.59212C14.982 9.09837 15.6306 9.90109 15.927 10.8441C16.2233 11.7871 16.1462 12.803 15.7106 13.6941C15.275 14.5852 14.5121 15.2877 13.5703 15.6651C13.0735 15.8651 12.5406 15.9679 12.0024 15.9676ZM12.0024 9.0303C11.2916 9.02979 10.6026 9.2676 10.0529 9.7032C9.50313 10.1388 9.12665 10.7452 8.98762 11.4191C8.84858 12.093 8.95559 12.7926 9.29039 13.3988C9.6252 14.005 10.1671 14.4801 10.8237 14.7433C11.4803 15.0064 12.211 15.0413 12.8912 14.842C13.5715 14.6427 14.1592 14.2214 14.5541 13.6501C14.9491 13.0788 15.1269 12.3927 15.0572 11.7089C14.9875 11.025 14.6747 10.3857 14.172 9.89986C13.8872 9.62364 13.5488 9.4046 13.176 9.25536C12.8033 9.10612 12.4038 9.02963 12.0003 9.0303H12.0024Z" />
<path d="M12.1241 13.9778C12.08 13.9779 12.0363 13.9696 11.9955 13.9533C11.9547 13.937 11.9176 13.9131 11.8864 13.883C11.8551 13.8529 11.8304 13.8171 11.8135 13.7777C11.7966 13.7383 11.7878 13.696 11.7878 13.6534C11.2721 13.5291 10.8939 13.1215 10.8939 12.6475C10.8939 12.5615 10.9292 12.479 10.9922 12.4181C11.0551 12.3573 11.1405 12.3231 11.2295 12.3231C11.3185 12.3231 11.4038 12.3573 11.4667 12.4181C11.5297 12.479 11.565 12.5615 11.565 12.6475C11.565 12.8622 11.8209 13.0464 12.1248 13.0464C12.4288 13.0464 12.6839 12.8649 12.6839 12.6475C12.6839 12.4301 12.4281 12.2486 12.1248 12.2486C11.4461 12.2486 10.8939 11.7833 10.8939 11.2036C10.8939 10.7256 11.2728 10.3214 11.7878 10.197V10.1884C11.7918 10.1048 11.8289 10.0259 11.8914 9.96808C11.954 9.91026 12.0372 9.878 12.1238 9.878C12.2103 9.878 12.2936 9.91026 12.3561 9.96808C12.4187 10.0259 12.4558 10.1048 12.4597 10.1884V10.1917C12.9755 10.316 13.3537 10.7236 13.3537 11.1982C13.3537 11.2843 13.3183 11.3668 13.2554 11.4276C13.1925 11.4885 13.1071 11.5227 13.0181 11.5227C12.9291 11.5227 12.8437 11.4885 12.7808 11.4276C12.7179 11.3668 12.6825 11.2843 12.6825 11.1982C12.6825 10.9828 12.4267 10.7994 12.1234 10.7994C11.8202 10.7994 11.5637 10.9808 11.5637 11.1982C11.5637 11.4156 11.8195 11.5971 12.1234 11.5971C12.8022 11.5971 13.3537 12.0665 13.3537 12.6429C13.3537 13.1202 12.9748 13.5244 12.4597 13.6487C12.4603 13.6917 12.4521 13.7344 12.4356 13.7743C12.419 13.8142 12.3944 13.8505 12.3631 13.8811C12.3319 13.9118 12.2947 13.9361 12.2537 13.9527C12.2126 13.9693 12.1686 13.9778 12.1241 13.9778Z" />
</svg>
