<svg width="20" height="20" viewBox="0 0 20 20" fill="none" xmlns="http://www.w3.org/2000/svg">
<path d="M9.99195 2.00001C8.41005 2.0016 6.86412 2.47215 5.54959 3.35216C4.23505 4.23218 3.21093 5.48217 2.60666 6.94411C2.00239 8.40606 1.84511 10.0143 2.1547 11.5657C2.46429 13.117 3.22685 14.5417 4.34599 15.6597C5.46513 16.7777 6.89061 17.5388 8.44224 17.8469C9.99387 18.1549 11.602 17.996 13.0633 17.3903C14.5247 16.7845 15.7736 15.7591 16.6523 14.4437C17.531 13.1283 18 11.5819 18 10C18.0005 8.94862 17.7936 7.90745 17.3913 6.9361C16.9889 5.96475 16.3989 5.08229 15.6551 4.33921C14.9113 3.59614 14.0282 3.00705 13.0565 2.60566C12.0847 2.20427 11.0433 1.99846 9.99195 2.00001ZM10 16.4004C8.73413 16.4004 7.49668 16.025 6.44415 15.3217C5.39161 14.6184 4.57126 13.6188 4.08683 12.4493C3.6024 11.2798 3.47565 9.99291 3.72261 8.75136C3.96957 7.50981 4.57915 6.36937 5.47426 5.47426C6.36936 4.57915 7.5098 3.96958 8.75135 3.72262C9.9929 3.47566 11.2798 3.60241 12.4493 4.08684C13.6188 4.57126 14.6184 5.39162 15.3217 6.44415C16.025 7.49669 16.4004 8.73413 16.4004 10C16.4007 10.8406 16.2354 11.673 15.9138 12.4497C15.5923 13.2264 15.1209 13.9321 14.5265 14.5265C13.9321 15.1209 13.2264 15.5923 12.4497 15.9138C11.673 16.2354 10.8406 16.4007 10 16.4004Z" fill="#F89118"/>
<path d="M10.8001 13.3237C10.8001 12.8818 10.4419 12.5236 10 12.5236C9.5581 12.5236 9.19987 12.8818 9.19987 13.3237C9.19987 13.7656 9.5581 14.1239 10 14.1239C10.4419 14.1239 10.8001 13.7656 10.8001 13.3237Z" fill="#F89118"/>
<path d="M10.8001 6.80012V10.6193C10.8001 10.8315 10.7158 11.035 10.5658 11.1851C10.4157 11.3351 10.2122 11.4194 10 11.4194C9.78779 11.4194 9.58428 11.3351 9.43423 11.1851C9.28417 11.035 9.19987 10.8315 9.19987 10.6193V6.80012C9.19987 6.58792 9.28417 6.3844 9.43423 6.23435C9.58428 6.0843 9.78779 6 10 6C10.2122 6 10.4157 6.0843 10.5658 6.23435C10.7158 6.3844 10.8001 6.58792 10.8001 6.80012Z" fill="#F89118"/>
</svg>
