<svg width="40" height="40" viewBox="0 0 40 40" fill="none" xmlns="http://www.w3.org/2000/svg">
<rect width="40" height="40" rx="20" fill="#F6F7F9"/>
<rect width="40" height="40" rx="20" fill="#FFDDAB"/>
<rect x="4" y="4" width="32" height="32" rx="16" fill="#F8BC14"/>
<rect x="4" y="4" width="32" height="32" rx="16" fill="#FFD663"/>
<rect x="4" y="4" width="32" height="32" rx="16" fill="#FFBF60"/>
<path d="M24.375 17V16.5625C24.375 14.6016 21.4219 13.125 17.5 13.125C13.5781 13.125 10.625 14.6016 10.625 16.5625V19.6875C10.625 21.3203 12.6719 22.6172 15.625 23.0078V23.4375C15.625 25.3984 18.5781 26.875 22.5 26.875C26.4219 26.875 29.375 25.3984 29.375 23.4375V20.3125C29.375 18.6953 27.3906 17.3984 24.375 17ZM15.625 21.7344V19.8828C16.2468 19.9627 16.8731 20.0019 17.5 20C18.1269 20.0019 18.7532 19.9627 19.375 19.8828V21.7344C18.7547 21.831 18.1277 21.8781 17.5 21.875C16.8723 21.8781 16.2453 21.831 15.625 21.7344ZM23.125 18.5859V19.6875C23.125 20.3438 22.1562 21.0469 20.625 21.4766V19.6484C21.6328 19.4062 22.4844 19.0391 23.125 18.5859ZM11.875 19.6875V18.5859C12.5156 19.0391 13.3672 19.4062 14.375 19.6484V21.4766C12.8438 21.0469 11.875 20.3438 11.875 19.6875ZM16.875 23.4375V23.1094L17.5 23.125C17.8073 23.125 18.1042 23.1172 18.3906 23.1016C18.7031 23.2109 19.0312 23.3047 19.375 23.3906V25.2266C17.8438 24.7969 16.875 24.0938 16.875 23.4375ZM20.625 25.4844V23.625C21.2467 23.7066 21.873 23.7483 22.5 23.75C23.1269 23.7519 23.7532 23.7127 24.375 23.6328V25.4844C23.132 25.6719 21.868 25.6719 20.625 25.4844ZM25.625 25.2266V23.3984C26.6328 23.1562 27.4844 22.7891 28.125 22.3359V23.4375C28.125 24.0938 27.1562 24.7969 25.625 25.2266Z" fill="white"/>
</svg>
