<svg  viewBox="0 0 24 24" fill="none" xmlns="http://www.w3.org/2000/svg">
<path d="M15.1098 10.8563C14.7991 10.5176 14.4527 10.2135 14.0767 9.9493C13.8477 9.78674 13.61 9.63687 13.3647 9.50035C13.2965 9.46355 13.2373 9.41212 13.1914 9.34974C13.1455 9.28735 13.114 9.21558 13.0991 9.13956C13.0842 9.06354 13.0863 8.98516 13.1053 8.91007C13.1243 8.83497 13.1597 8.76502 13.209 8.70523L13.215 8.69919C13.7271 8.08192 14.0039 7.30325 13.9965 6.50129V6.46123C13.9933 5.99714 13.8943 5.53872 13.7055 5.11472C13.5168 4.69072 13.2425 4.31029 12.8999 3.99729C12.1901 3.34351 11.2227 2.98677 10.1812 3.00038C8.1511 3.0291 6.5125 4.62234 6.53064 6.55268C6.54563 7.33915 6.83276 8.0961 7.34314 8.69465C7.3941 8.75528 7.4308 8.82657 7.45053 8.90327C7.47026 8.97997 7.47252 9.06012 7.45714 9.13781C7.44176 9.2155 7.40914 9.28875 7.36167 9.35215C7.31421 9.41555 7.25312 9.46748 7.18291 9.50412C5.14071 10.5668 4.07501 12.2575 4.02135 14.5295C3.99263 15.7207 3.99943 18.5814 4.00472 19.7401C4.00472 19.8761 4.00472 20.0666 4.00472 20.2646C4.00512 20.4598 4.08294 20.6468 4.22109 20.7847C4.35925 20.9226 4.54646 21 4.74164 21C4.83854 20.9999 4.93447 20.9807 5.02394 20.9435C5.1134 20.9063 5.19465 20.8518 5.26303 20.7831C5.33141 20.7144 5.38557 20.633 5.42243 20.5433C5.45928 20.4537 5.4781 20.3577 5.4778 20.2608C5.4778 20.0681 5.4778 19.8829 5.4778 19.7514V19.734C5.47175 18.5829 5.4657 15.7282 5.49518 14.5582C5.54053 12.6846 6.45052 11.3271 8.19796 10.523C8.80431 10.2354 9.46057 10.0678 10.1306 10.0294C10.2356 10.0249 10.3263 10.0249 10.4102 10.0294H10.4193C11.3572 10.0498 12.2831 10.3794 13.1727 11.012C13.4931 11.2356 13.7854 11.497 14.0434 11.7905C14.1472 11.9116 14.2893 11.9937 14.446 12.0232C14.6028 12.0528 14.765 12.028 14.9058 11.9529L14.93 11.9401C15.0236 11.89 15.1044 11.8191 15.1663 11.7328C15.2281 11.6465 15.2693 11.5472 15.2867 11.4425C15.3041 11.3377 15.2972 11.2304 15.2665 11.1288C15.2359 11.0271 15.1823 10.9339 15.1098 10.8563ZM10.4457 8.6818H10.4412C10.3838 8.68785 10.321 8.69163 10.2553 8.69314H10.1215C10.095 8.69314 10.0686 8.69314 10.0459 8.68709C9.55025 8.64659 9.08319 8.43838 8.72174 8.09681C8.50255 7.89961 8.32594 7.65974 8.20273 7.39188C8.07953 7.12402 8.01232 6.83383 8.00523 6.53908C7.99313 5.32449 8.95453 4.36083 10.1971 4.33589H10.2477C10.8385 4.32658 11.4113 4.5397 11.8523 4.93298C12.0649 5.1293 12.2341 5.36796 12.3489 5.63362C12.4633 5.90015 12.5227 6.18705 12.5235 6.4771C12.534 7.65239 11.6611 8.5775 10.4457 8.6818Z" />
<path d="M16.6729 16.6435V18.4287C16.6757 18.5087 16.6624 18.5884 16.6338 18.6631C16.6052 18.7378 16.5618 18.806 16.5062 18.8635C16.4507 18.9211 16.3841 18.9669 16.3105 18.9981C16.2368 19.0294 16.1577 19.0455 16.0777 19.0455C15.9977 19.0455 15.9185 19.0294 15.8449 18.9981C15.7712 18.9669 15.7046 18.9211 15.6491 18.8635C15.5935 18.806 15.5502 18.7378 15.5215 18.6631C15.4929 18.5884 15.4796 18.5087 15.4825 18.4287V16.6435C15.488 16.4893 15.5531 16.3433 15.6641 16.2361C15.7751 16.129 15.9234 16.0691 16.0777 16.0691C16.2319 16.0691 16.3802 16.129 16.4912 16.2361C16.6023 16.3433 16.6674 16.4893 16.6729 16.6435Z" />
<path d="M16.6729 15.0042C16.6733 15.0924 16.6541 15.1797 16.6167 15.2596C16.5793 15.3396 16.5246 15.4102 16.4565 15.4664C16.3884 15.5226 16.3087 15.563 16.2231 15.5846C16.1375 15.6062 16.0482 15.6085 15.9616 15.5914C15.875 15.5742 15.7933 15.5381 15.7224 15.4855C15.6515 15.4329 15.5932 15.3652 15.5517 15.2873C15.5102 15.2094 15.4865 15.1232 15.4824 15.035C15.4782 14.9468 15.4938 14.8589 15.5278 14.7774C15.5652 14.6871 15.6243 14.6074 15.6999 14.5453C15.7754 14.4833 15.8651 14.4408 15.961 14.4217C16.0569 14.4025 16.156 14.4073 16.2496 14.4356C16.3431 14.4639 16.4283 14.5149 16.4975 14.5839C16.6093 14.6952 16.6724 14.8464 16.6729 15.0042Z" />
<path d="M16.0773 12.3384C15.2224 12.3386 14.3868 12.5922 13.676 13.0673C12.9653 13.5423 12.4114 14.2174 12.0844 15.0073C11.7573 15.7971 11.6718 16.6662 11.8387 17.5046C12.0056 18.3431 12.4173 19.1132 13.0219 19.7176C13.6264 20.322 14.3966 20.7337 15.235 20.9004C16.0735 21.0671 16.9426 20.9815 17.7324 20.6543C18.5221 20.3271 19.1972 19.7731 19.6721 19.0623C20.147 18.3514 20.4005 17.5158 20.4005 16.6609C20.3991 15.5148 19.9432 14.4161 19.1327 13.6057C18.3222 12.7954 17.2234 12.3396 16.0773 12.3384ZM16.0773 19.8073C15.455 19.8073 14.8466 19.6228 14.3292 19.2771C13.8118 18.9313 13.4085 18.4399 13.1704 17.865C12.9322 17.29 12.8699 16.6574 12.9913 16.0471C13.1127 15.4367 13.4124 14.8761 13.8524 14.436C14.2925 13.996 14.8531 13.6963 15.4634 13.5749C16.0738 13.4535 16.7064 13.5158 17.2814 13.754C17.8563 13.9921 18.3477 14.3954 18.6935 14.9128C19.0392 15.4303 19.2237 16.0386 19.2237 16.6609C19.2227 17.4951 18.8909 18.2948 18.301 18.8847C17.7112 19.4745 16.9115 19.8063 16.0773 19.8073Z" />
</svg>
