<svg  viewBox="0 0 24 24" fill="none" xmlns="http://www.w3.org/2000/svg">
<path d="M18.4355 14.2588C18.4215 13.4103 18.1998 12.5781 17.7897 11.8351C17.3539 11.0704 16.7504 10.4144 16.0246 9.91658C15.7962 9.75377 15.5593 9.6032 15.3149 9.46552L15.2999 9.45801C15.2339 9.42145 15.1769 9.3708 15.1328 9.30967C15.0887 9.24855 15.0586 9.17845 15.0446 9.10436C15.0307 9.03028 15.0333 8.95404 15.0522 8.88106C15.0711 8.80809 15.1059 8.74019 15.154 8.68218L15.1653 8.66865C15.6746 8.05498 15.95 7.28071 15.9426 6.48327V6.44342C15.9395 5.98199 15.841 5.52619 15.6534 5.10459C15.4658 4.68299 15.1932 4.30469 14.8526 3.99342C14.1459 3.34088 13.1851 2.98755 12.1477 3.00033C10.1285 3.0289 8.49938 4.61287 8.51742 6.53364C8.53188 7.31575 8.81754 8.06856 9.32557 8.66339C9.37566 8.7237 9.41164 8.79443 9.43089 8.87043C9.45014 8.94643 9.45216 9.02577 9.43682 9.10265C9.42147 9.17953 9.38914 9.25201 9.34219 9.31479C9.29523 9.37757 9.23485 9.42907 9.16544 9.46552C7.13492 10.5255 6.07493 12.2072 6.02155 14.467C5.99299 15.6518 5.999 18.5732 6.00502 19.7256C6.00502 19.8835 6.00502 20.0414 6.00502 20.1992C6.00561 20.3931 6.083 20.5789 6.22023 20.7158C6.35746 20.8528 6.54336 20.9298 6.73724 20.93C6.83375 20.93 6.9293 20.9109 7.01843 20.8739C7.10755 20.8369 7.18849 20.7826 7.25659 20.7142C7.32469 20.6458 7.37862 20.5647 7.41528 20.4754C7.45194 20.3861 7.4706 20.2905 7.47021 20.194C7.47021 20.0436 7.47021 19.8895 7.47021 19.7369V19.7189C7.46419 18.5747 7.45818 15.6593 7.48675 14.4956C7.5326 12.632 8.43698 11.2818 10.1758 10.4819C10.7786 10.1958 11.4312 10.0294 12.0973 9.99176C12.2026 9.99176 12.292 9.9865 12.3755 9.99176H12.3845C13.3174 10.0121 14.2391 10.3398 15.1232 10.9691C16.317 11.8118 16.9387 12.9312 16.9703 14.2949C17.0034 15.7187 16.9958 18.695 16.9883 20.1744V20.2346C16.9845 20.4248 17.053 20.6095 17.1799 20.7512C17.3069 20.893 17.4829 20.9813 17.6724 20.9984C17.7722 21.005 17.8724 20.9912 17.9666 20.9577C18.0609 20.9242 18.1472 20.8717 18.2204 20.8035C18.2936 20.7353 18.3521 20.6529 18.3921 20.5612C18.4322 20.4696 18.4531 20.3707 18.4535 20.2707V20.1632C18.461 18.7371 18.4693 15.6924 18.4355 14.2588ZM12.4108 8.65136C12.3853 8.65136 12.3582 8.65587 12.3304 8.65662C12.3026 8.65737 12.2612 8.65662 12.2251 8.66113H12.1642C12.1131 8.66113 12.062 8.66113 12.0139 8.65437H12.0086C11.469 8.60618 10.9656 8.36267 10.5928 7.96955C10.22 7.57643 10.0036 7.06076 9.98411 6.51935C9.97133 5.31202 10.9276 4.35351 12.1642 4.32946C12.1815 4.32946 12.1973 4.32946 12.2139 4.32946C12.8017 4.3201 13.3715 4.5324 13.8099 4.9241C14.0213 5.11925 14.1898 5.35634 14.3045 5.62024C14.4176 5.88527 14.4764 6.1703 14.4774 6.45846C14.4879 7.6267 13.6189 8.54687 12.4108 8.65136Z" fill="#485F7D"/>
</svg>
