<svg width="20" height="21" viewBox="0 0 20 21" fill="none" xmlns="http://www.w3.org/2000/svg">
<path d="M9.99195 2.50001C8.41004 2.5016 6.86412 2.97215 5.54959 3.85216C4.23505 4.73218 3.21093 5.98217 2.60666 7.44411C2.00239 8.90606 1.84511 10.5143 2.1547 12.0657C2.46429 13.617 3.22685 15.0417 4.34599 16.1597C5.46513 17.2777 6.89061 18.0388 8.44224 18.3469C9.99387 18.6549 11.602 18.496 13.0633 17.8903C14.5247 17.2845 15.7736 16.2591 16.6523 14.9437C17.531 13.6283 18 12.0819 18 10.5C18.0005 9.44862 17.7936 8.40745 17.3913 7.4361C16.9889 6.46475 16.3989 5.58229 15.6551 4.83921C14.9113 4.09614 14.0282 3.50705 13.0565 3.10566C12.0847 2.70427 11.0433 2.49846 9.99195 2.50001ZM10 16.9004C8.73413 16.9004 7.49668 16.525 6.44415 15.8217C5.39161 15.1184 4.57126 14.1188 4.08683 12.9493C3.6024 11.7798 3.47565 10.4929 3.72261 9.25136C3.96957 8.00981 4.57915 6.86937 5.47426 5.97426C6.36936 5.07915 7.5098 4.46958 8.75135 4.22262C9.9929 3.97566 11.2798 4.10241 12.4493 4.58684C13.6188 5.07126 14.6184 5.89162 15.3217 6.94415C16.025 7.99669 16.4004 9.23413 16.4004 10.5C16.4007 11.3406 16.2354 12.173 15.9138 12.9497C15.5923 13.7264 15.1209 14.4321 14.5265 15.0265C13.9321 15.6209 13.2264 16.0923 12.4497 16.4138C11.673 16.7354 10.8406 16.9007 10 16.9004Z" fill="white" fill-opacity="0.8"/>
<path d="M10.7995 7.30029C10.7995 7.74219 10.4412 8.10041 9.99934 8.10041C9.55745 8.10041 9.19922 7.74219 9.19922 7.30029C9.19922 6.85839 9.55745 6.50017 9.99934 6.50017C10.4412 6.50017 10.7995 6.85839 10.7995 7.30029Z" fill="white" fill-opacity="0.8"/>
<path d="M10.7995 13.8239V10.0047C10.7995 9.79253 10.7152 9.58901 10.5651 9.43896C10.4151 9.28891 10.2115 9.20461 9.99934 9.20461C9.78714 9.20461 9.58362 9.28891 9.43357 9.43896C9.28352 9.58901 9.19922 9.79253 9.19922 10.0047V13.8239C9.19922 14.0361 9.28352 14.2396 9.43357 14.3897C9.58362 14.5397 9.78714 14.624 9.99934 14.624C10.2115 14.624 10.4151 14.5397 10.5651 14.3897C10.7152 14.2396 10.7995 14.0361 10.7995 13.8239Z" fill="white" fill-opacity="0.8"/>
</svg>
