<svg  viewBox="0 0 24 24" fill="none" xmlns="http://www.w3.org/2000/svg">
<path d="M15.0135 3C11.7111 3 9.02465 5.67672 9.02465 8.96695C9.02808 9.69242 9.17357 10.4102 9.45289 11.0797L3.6127 16.8955C3.46887 17.0361 3 17.5627 3 18.3347C3 18.6914 3.10564 19.2228 3.61189 19.7275L4.36843 20.4791L4.3798 20.4897C4.75813 20.8129 5.23768 20.9934 5.73523 21C5.98026 21.0004 6.22289 20.9517 6.44874 20.8566C6.67458 20.7616 6.87905 20.6221 7.05002 20.4466L7.40757 20.0907C7.74002 20.254 8.10998 20.3258 8.47939 20.2987C8.80542 20.2716 9.1221 20.1763 9.40894 20.0189C9.69577 19.8616 9.94634 19.6457 10.1444 19.3854C10.3545 19.0994 10.4854 18.763 10.5239 18.4102C10.7011 18.442 10.8815 18.4515 11.061 18.4387C12.041 18.3696 12.6302 17.6813 12.7903 17.4692C13.4615 16.5339 13.2307 15.4987 12.8268 14.8925C12.7897 14.8247 12.7485 14.7593 12.7033 14.6966L12.8658 14.5341C13.7508 14.912 14.8047 14.9315 15.016 14.9315C16.6009 14.9323 18.1214 14.3045 19.244 13.1857C20.3666 12.067 20.9995 10.5486 21.0041 8.9637C21.0016 5.67672 18.3152 3 15.0135 3ZM15.0135 13.3006C14.4008 13.3006 13.546 13.1381 13.2502 12.8902C13.0941 12.7594 12.8945 12.692 12.6911 12.7013C12.4876 12.7106 12.295 12.796 12.1515 12.9406L11.43 13.6589C10.7701 14.3163 10.7222 14.9323 11.2878 15.5474C11.3292 15.5875 11.3655 15.6325 11.3958 15.6815C11.4153 15.7197 11.4413 15.7628 11.4551 15.7815C11.482 15.8205 11.7079 16.1748 11.4738 16.5014C11.4107 16.5854 11.3313 16.656 11.2405 16.7089C11.1496 16.7617 11.0491 16.7959 10.9448 16.8094C10.7157 16.8256 10.4573 16.6924 10.1777 16.4145C10.0243 16.2625 9.81713 16.1772 9.60119 16.1772C9.38525 16.1772 9.17804 16.2625 9.02465 16.4145L8.78087 16.6583C8.63786 16.8034 8.5536 16.9964 8.5443 17.1999C8.53499 17.4035 8.60131 17.6033 8.73049 17.761C8.78087 17.8227 9.02384 18.1445 8.82475 18.4232C8.70836 18.5633 8.54249 18.6533 8.36156 18.6743C8.25999 18.68 8.09909 18.6654 7.88863 18.4557C7.8131 18.3797 7.72328 18.3193 7.62433 18.2782C7.52538 18.237 7.41926 18.2158 7.31208 18.2158C7.20491 18.2158 7.09879 18.237 6.99984 18.2782C6.90089 18.3193 6.81107 18.3797 6.73554 18.4557L5.89775 19.2887C5.75148 19.4333 5.57271 19.3472 5.47519 19.2773L4.76498 18.5695C4.63333 18.4395 4.63333 18.3582 4.63333 18.3347C4.64387 18.2277 4.69026 18.1275 4.76498 18.0502L11.022 11.8216C11.1533 11.6919 11.2364 11.5214 11.2578 11.3381C11.2792 11.1548 11.2376 10.9697 11.1399 10.8132C10.831 10.2464 10.6663 9.61238 10.6604 8.96695C10.6561 8.10458 10.9078 7.26033 11.3838 6.54119C11.8597 5.82204 12.5384 5.26036 13.3339 4.92733C14.1294 4.5943 15.0058 4.50491 15.8522 4.67049C16.6985 4.83606 17.4767 5.24915 18.088 5.8574C18.6993 6.46565 19.1163 7.24169 19.2862 8.08718C19.456 8.93267 19.3711 9.80955 19.042 10.6067C18.713 11.4039 18.1548 12.0854 17.4381 12.565C16.7213 13.0445 15.8784 13.3006 15.016 13.3006H15.0135Z" fill="#485F7D"/>
<path d="M15.0135 6.35362C14.4968 6.3549 13.9919 6.50933 13.5629 6.79739C13.1338 7.08546 12.7998 7.49423 12.6029 7.97206C12.4061 8.44989 12.3553 8.97534 12.457 9.48203C12.5586 9.98872 12.8082 10.4539 13.1741 10.8188C13.5401 11.1837 14.006 11.432 14.5129 11.5322C15.0199 11.6325 15.5452 11.5802 16.0225 11.3821C16.4998 11.1839 16.9076 10.8487 17.1945 10.4188C17.4813 9.98898 17.6343 9.48374 17.6342 8.96695C17.6323 8.27318 17.3553 7.60849 16.864 7.1186C16.3728 6.62871 15.7073 6.35362 15.0135 6.35362ZM15.0135 9.94695C14.8201 9.94535 14.6314 9.88651 14.4713 9.77786C14.3112 9.6692 14.1869 9.51559 14.114 9.33639C14.041 9.15718 14.0228 8.9604 14.0615 8.77083C14.1002 8.58127 14.1942 8.40741 14.3316 8.27117C14.4689 8.13492 14.6436 8.04239 14.8334 8.00523C15.0233 7.96807 15.22 7.98795 15.3986 8.06235C15.5771 8.13676 15.7297 8.26237 15.8371 8.42335C15.9444 8.58433 16.0017 8.77347 16.0017 8.96695C16.0004 9.22788 15.8956 9.47763 15.7103 9.66136C15.5251 9.8451 15.2745 9.94782 15.0135 9.94695Z" fill="#485F7D"/>
</svg>
