<svg width="24" height="24" viewBox="0 0 24 24" fill="none" xmlns="http://www.w3.org/2000/svg">
<path d="M22.4936 9.84507C22.4679 9.5117 22.3569 9.19118 22.1719 8.91582C21.987 8.64045 21.7345 8.41998 21.4399 8.27662C21.327 6.6338 21.0197 5.39324 20.0987 4.44676C18.6874 3 16.6986 3 12.7375 3H9.77161C5.81133 3 3.82254 3 2.41127 4.44676C1 5.89352 1 7.93437 1 11.9975C1 16.0606 1 18.1006 2.41127 19.549C3.82254 20.9975 5.81133 21 9.77244 21H12.7383C16.6994 21 18.6882 21 20.0995 19.5524C21.0197 18.6034 21.327 17.3662 21.4399 15.72C21.7344 15.5774 21.9869 15.3576 22.1719 15.0828C22.3569 14.8079 22.4679 14.4879 22.4936 14.1549C22.4977 14.1068 22.4986 14.0535 22.4986 13.9377V10.0504C22.5027 9.93718 22.4969 9.88563 22.4936 9.84507ZM18.8777 18.2958C17.9715 19.2254 16.2232 19.2254 12.7392 19.2254H9.77326C6.28834 19.2254 4.54259 19.2254 3.63635 18.2958C2.7301 17.3662 2.7301 15.5738 2.7301 11.9992C2.7301 8.42451 2.7301 6.6338 3.63635 5.70423C4.54259 4.77465 6.29082 4.77465 9.77491 4.77465H12.7408C16.2216 4.77465 17.9715 4.77465 18.8777 5.70423C19.3341 6.17324 19.5755 6.85099 19.6892 8.07042H17.9097C15.6704 8.07042 13.8522 9.83155 13.8522 11.9975C13.8522 14.1634 15.6729 15.927 17.9105 15.927H19.69C19.5739 17.1473 19.3325 17.8251 18.8777 18.2958ZM20.7726 14.0341C20.7592 14.0692 20.7357 14.0994 20.7053 14.1207C20.6748 14.1419 20.6389 14.1533 20.602 14.1532H17.908C16.6245 14.1532 15.5798 13.1865 15.5798 11.9983C15.5798 10.8101 16.6245 9.84507 17.908 9.84507H20.5864C20.7017 9.85268 20.7635 9.92958 20.7685 10.0563L20.7726 14.0341Z" fill="#485F7D"/>
<path d="M18.7953 11.9975C18.7963 12.2234 18.732 12.4445 18.6105 12.633C18.4891 12.8215 18.3159 12.9688 18.1129 13.0564C17.9099 13.144 17.6861 13.168 17.4698 13.1252C17.2536 13.0825 17.0545 12.975 16.8977 12.8163C16.7409 12.6576 16.6335 12.4549 16.589 12.2336C16.5445 12.0124 16.5648 11.7825 16.6476 11.5731C16.7303 11.3638 16.8716 11.1842 17.0537 11.0571C17.2358 10.93 17.4505 10.8612 17.6708 10.8592H17.6798C17.9749 10.8585 18.2581 10.978 18.4673 11.1915C18.6765 11.4049 18.7945 11.6948 18.7953 11.9975Z" fill="#485F7D"/>
</svg>
