<svg width="43" height="18" viewBox="0 0 43 18" fill="none" xmlns="http://www.w3.org/2000/svg">
<path d="M26.6504 13H25.2824L21.1664 6.772V13H19.7984V4.648H21.1664L25.2824 10.864V4.648H26.6504V13ZM28.0389 9.664C28.0389 9 28.1749 8.412 28.4469 7.9C28.7269 7.388 29.1029 6.992 29.5749 6.712C30.0549 6.424 30.5829 6.28 31.1589 6.28C31.6789 6.28 32.1309 6.384 32.5149 6.592C32.9069 6.792 33.2189 7.044 33.4509 7.348V6.388H34.8309V13H33.4509V12.016C33.2189 12.328 32.9029 12.588 32.5029 12.796C32.1029 13.004 31.6469 13.108 31.1349 13.108C30.5669 13.108 30.0469 12.964 29.5749 12.676C29.1029 12.38 28.7269 11.972 28.4469 11.452C28.1749 10.924 28.0389 10.328 28.0389 9.664ZM33.4509 9.688C33.4509 9.232 33.3549 8.836 33.1629 8.5C32.9789 8.164 32.7349 7.908 32.4309 7.732C32.1269 7.556 31.7989 7.468 31.4469 7.468C31.0949 7.468 30.7669 7.556 30.4629 7.732C30.1589 7.9 29.9109 8.152 29.7189 8.488C29.5349 8.816 29.4429 9.208 29.4429 9.664C29.4429 10.12 29.5349 10.52 29.7189 10.864C29.9109 11.208 30.1589 11.472 30.4629 11.656C30.7749 11.832 31.1029 11.92 31.4469 11.92C31.7989 11.92 32.1269 11.832 32.4309 11.656C32.7349 11.48 32.9789 11.224 33.1629 10.888C33.3549 10.544 33.4509 10.144 33.4509 9.688ZM42.6277 6.388L38.5717 16.108H37.1557L38.4997 12.892L35.8957 6.388H37.4197L39.2797 11.428L41.2117 6.388H42.6277Z" fill="#FF3C5F"/>
<path fill-rule="evenodd" clip-rule="evenodd" d="M7.78722 15.969C7.72567 15.9461 7.62477 15.8782 7.56302 15.8182C7.37942 15.6395 7.36605 15.5536 7.36605 14.5521V13.6795L7.28746 13.5737C7.02733 13.2236 5.91949 11.9672 4.91162 10.8792L4.45546 10.3868L4.45575 6.61475L4.45607 2.84268L5.14017 2.59138C5.8758 2.32112 6.16208 2.22903 6.50152 2.15341C7.11565 2.01661 7.12332 2.01626 9.90082 2.00368C11.7697 1.99521 12.5913 2.0011 12.725 2.02396C13.4134 2.14173 13.9372 2.76199 13.9361 3.45815C13.9357 3.72487 13.8851 3.92264 13.7585 4.15261L13.6617 4.32833L13.8351 4.50511C14.0248 4.69852 14.1425 4.91068 14.2138 5.18817C14.3009 5.52686 14.2259 5.99558 14.0398 6.27577L13.9696 6.38148L14.1492 6.56484C14.6063 7.03175 14.6979 7.69965 14.3837 8.2737L14.2874 8.44951L14.4376 8.59729C15.0297 9.18004 15.0371 10.0532 14.4549 10.6427C14.3387 10.7602 14.1973 10.8678 14.0837 10.9249C13.749 11.0933 13.6906 11.0978 11.8112 11.0983C10.8721 11.0986 10.1037 11.1062 10.1037 11.1153C10.1037 11.1243 10.2093 11.4948 10.3384 11.9387L10.573 12.7458L10.556 13.2792C10.5359 13.9118 10.4827 14.1695 10.2908 14.5636C9.88993 15.3869 9.06799 15.9365 8.15052 15.9947C7.96822 16.0063 7.86843 15.9992 7.78722 15.969ZM0.132812 6.83435V2.2827H1.86187H3.59093V6.83435V11.386H1.86187H0.132812V6.83435Z" fill="#FF3C5F"/>
</svg>
