<svg width="24" height="24" viewBox="0 0 24 24" fill="none" xmlns="http://www.w3.org/2000/svg">
<path d="M5.00569 14.2025C5.40449 15.489 6.10239 16.6066 7.0517 17.5509C8.17006 18.6685 9.50516 19.4092 11.0483 19.773C11.7116 19.929 12.3834 20.0156 13.0597 20.0026C14.2474 19.981 15.3831 19.7254 16.4668 19.2272C17.4204 18.7897 18.2527 18.1876 18.9766 17.4339C19.0806 17.3256 19.1413 17.3083 19.2627 17.4253C19.5618 17.7155 19.8739 17.9927 20.1817 18.2699C20.2727 18.3479 20.277 18.3956 20.1903 18.4909C18.7122 20.0416 16.9176 21.0076 14.8196 21.4277C13.9786 21.5967 13.1247 21.6313 12.2751 21.575C11.083 21.497 9.9343 21.2025 8.84195 20.7043C7.71925 20.1975 6.72659 19.5045 5.87264 18.6295C4.79329 17.5249 3.97836 16.247 3.51021 14.7656C3.79197 14.601 4.1084 14.5447 4.41183 14.4321C4.61123 14.3584 4.82363 14.3108 5.01003 14.2025H5.00569Z" fill="#FC85C6"/>
<path d="M10.0904 16.8578C8.4952 15.9395 7.47653 14.588 7.12108 12.7817C6.81765 11.2526 7.08207 9.80579 7.91868 8.4803C8.75962 7.1548 9.943 6.28413 11.4645 5.87695C11.4905 5.86829 11.5165 5.87262 11.5425 5.86829C11.6162 5.9246 11.6292 6.01557 11.6509 6.09787C11.7333 6.41841 11.8113 6.74329 11.8806 7.06817C11.9066 7.18512 11.9457 7.29774 12.0193 7.39737C11.4515 7.51 10.9313 7.73525 10.4675 8.07312C9.36648 8.88314 8.71627 9.9574 8.62524 11.3392C8.52987 12.7167 9.0067 13.8732 9.99502 14.8262C10.2508 15.0731 10.5412 15.281 10.849 15.4586C10.849 15.5973 10.7536 15.6926 10.6886 15.8008C10.4805 16.1517 10.3115 16.5242 10.086 16.8621L10.0904 16.8578Z" fill="#FC85C6"/>
<path d="M8.14856 5.29636C9.21491 4.49933 10.407 3.98819 11.7247 3.77594C12.7564 3.60701 13.7837 3.65899 14.7981 3.89723C15.9945 4.17879 17.0651 4.71159 18.0188 5.49129C18.3786 5.78584 18.708 6.11072 19.0114 6.46159C19.0981 6.56122 19.0721 6.60886 18.9811 6.6825C18.6387 6.9554 18.3005 7.23263 17.9754 7.51852C17.8671 7.61382 17.8281 7.54018 17.7674 7.47953C17.3512 7.02904 16.9091 6.6132 16.3846 6.28399C15.5653 5.76852 14.6767 5.44797 13.7144 5.33968C12.0368 5.14909 10.524 5.57359 9.15422 6.55255C9.01985 6.50057 8.97216 6.36629 8.8898 6.26233C8.64272 5.94178 8.42165 5.59958 8.14423 5.30069L8.14856 5.29636Z" fill="#FC85C6"/>
<path d="M8.14856 5.29636C8.23092 5.2747 8.26539 5.33534 8.3044 5.39165C8.58616 5.77717 8.87225 6.16269 9.15401 6.54821C8.4041 7.13299 7.7799 7.82606 7.34209 8.67507C6.5445 10.2085 6.39711 11.8112 6.8696 13.4746C6.89127 13.5439 6.90428 13.6175 6.92162 13.6868C6.83059 13.7735 6.70488 13.7821 6.59218 13.8211C6.20638 13.9597 5.81192 14.068 5.4348 14.2196C5.07068 13.2147 4.94064 12.1751 5.01433 11.1095C5.14004 9.27717 5.82926 7.67878 7.04733 6.30563C7.37677 5.93311 7.74976 5.60391 8.14423 5.30069L8.14856 5.29636Z" fill="#E2007A"/>
<path d="M5.43482 14.2152C5.44349 14.1632 5.4695 14.1373 5.52151 14.1199C5.95499 13.977 6.38846 13.8297 6.82627 13.6868C6.85662 13.6781 6.89129 13.6868 6.92597 13.6824C7.15571 14.2672 7.4158 14.8303 7.79292 15.3371C9.03266 17.0048 10.6929 17.8928 12.7692 17.9925C12.9123 18.0011 12.9686 18.0271 12.9643 18.1831C12.9556 18.5989 12.9599 19.0147 12.9686 19.4349C12.9686 19.5735 12.9253 19.6038 12.7952 19.6038C9.55716 19.5302 6.70057 17.5246 5.53018 14.5054C5.49551 14.4145 5.43048 14.3279 5.43482 14.2239V14.2152Z" fill="#C10061"/>
<path d="M3.95669 7.39291C4.32081 6.56989 4.8193 5.82917 5.4045 5.15343C6.74393 3.60702 8.39981 2.56308 10.3721 2.01729C10.5325 1.97397 10.5802 2.00863 10.6149 2.16024C10.6972 2.54142 10.7883 2.91828 10.8966 3.29081C10.9443 3.46407 10.9226 3.53771 10.7362 3.58536C9.58753 3.88858 8.56019 4.43004 7.64556 5.18375C6.68325 5.98078 5.929 6.93809 5.40016 8.06866C5.39149 8.08598 5.37849 8.10331 5.36548 8.1163C5.06639 7.89972 4.71094 7.7871 4.3815 7.62682C4.23411 7.55318 4.06506 7.5142 3.95236 7.38425L3.95669 7.39291Z" fill="#FC4D9D"/>
<path d="M3.95669 7.39291C4.3945 7.59217 4.82807 7.79143 5.26588 7.98636C5.32657 8.01235 5.36124 8.06 5.36991 8.12064C4.85841 9.2642 4.58532 10.4554 4.59833 11.7073C4.607 12.5563 4.74571 13.388 5.00579 14.198C5.00579 14.2543 4.97979 14.302 4.9191 14.3193C4.44661 14.4579 3.98703 14.6486 3.51021 14.7656C2.71261 12.2792 2.85142 9.84465 3.91777 7.46222C3.93078 7.43623 3.94369 7.41457 3.95669 7.39291Z" fill="#E2007A"/>
<path d="M10.0904 16.8578C10.0817 16.7192 10.1814 16.6236 10.2421 16.5153C10.4415 16.1601 10.6149 15.7876 10.849 15.4541C12.1537 16.1298 13.4802 16.1818 14.8239 15.5753C15.0884 15.4541 15.3354 15.3068 15.5608 15.1248C15.6519 15.0512 15.6996 15.0642 15.7689 15.1552C16.029 15.4887 16.2934 15.8222 16.5622 16.1428C16.6575 16.2597 16.6532 16.3161 16.5318 16.407C15.0017 17.5116 13.3198 17.8451 11.4862 17.412C10.992 17.295 10.5282 17.1044 10.0861 16.8575L10.0904 16.8578Z" fill="#E2007A"/>
<path d="M12.0195 7.39302C11.9155 7.39736 11.8895 7.32372 11.8721 7.24142C11.7638 6.78226 11.6511 6.3231 11.5427 5.86394C12.6134 5.58238 13.6754 5.63436 14.7331 5.94191C14.9108 5.99389 14.9325 6.05886 14.8674 6.21914C14.7201 6.59166 14.59 6.97285 14.4643 7.35404C14.421 7.48399 14.3733 7.51431 14.2389 7.47099C13.6147 7.27607 12.9775 7.23275 12.3316 7.31938C12.2276 7.33238 12.1322 7.40169 12.0238 7.38436L12.0195 7.39302Z" fill="#E2007A"/>
</svg>
