<svg width="40" height="40" viewBox="0 0 40 40" fill="none" xmlns="http://www.w3.org/2000/svg">
<rect width="40" height="40" rx="20" fill="#FFAAD4"/>
<rect x="4" y="4" width="32" height="32" rx="16" fill="#E5007A"/>
<path d="M20.7165 11C20.7579 11.0063 20.7994 11.016 20.8409 11.0188C21.3842 11.0446 21.9194 11.1599 22.4246 11.36C22.7784 11.4953 23.1006 11.7009 23.3715 11.9642C23.4925 12.0839 23.593 12.2224 23.6688 12.3744C23.7523 12.5341 23.7959 12.7115 23.7959 12.8914C23.7959 13.0713 23.7523 13.2486 23.6688 13.4084C23.5518 13.6355 23.3854 13.834 23.1817 13.9895C22.8345 14.2559 22.438 14.4522 22.0148 14.5672C21.6604 14.6701 21.2958 14.7342 20.9273 14.7584C20.2769 14.8075 19.6229 14.7366 18.9985 14.5491C18.5734 14.4307 18.1772 14.2272 17.8344 13.9512C17.6383 13.7955 17.4806 13.5974 17.3733 13.3721C17.3002 13.2184 17.2633 13.0502 17.2653 12.8803C17.2674 12.7103 17.3084 12.5431 17.3852 12.3912C17.5018 12.1598 17.6701 11.9579 17.8773 11.8009C18.1743 11.5685 18.5103 11.39 18.8698 11.2735C19.3148 11.1256 19.7782 11.0397 20.2469 11.0181C20.2833 11.0142 20.3195 11.0081 20.3552 11H20.7165Z" fill="white"/>
<path d="M12.0077 22.2402C12.0035 21.956 12.0529 21.6735 12.1532 21.4072C12.2061 21.27 12.2803 21.1419 12.3733 21.0277C12.6544 20.6935 13.0179 20.5693 13.4445 20.6091C13.8993 20.6544 14.2881 20.8567 14.6522 21.1212C15.101 21.4567 15.4859 21.869 15.7888 22.3386C16.139 22.8589 16.3924 23.4374 16.5368 24.0465C16.6191 24.384 16.6506 24.7317 16.6303 25.0784C16.6184 25.3241 16.5612 25.5655 16.4616 25.7907C16.3027 26.1395 16.0532 26.3844 15.6743 26.4884C15.4215 26.549 15.157 26.5415 14.9081 26.4667C14.5574 26.3666 14.2301 26.1988 13.945 25.9728C13.4659 25.6023 13.0607 25.1464 12.75 24.6284C12.4564 24.1579 12.2407 23.6437 12.1111 23.1053C12.0429 22.8219 12.0083 22.5316 12.0077 22.2402Z" fill="white"/>
<path d="M12 17.7423C12.0153 17.259 12.1132 16.7817 12.2896 16.3309C12.5711 15.5683 13.0251 14.8799 13.6168 14.3188C13.8964 14.0486 14.221 13.8284 14.5763 13.6679C14.8211 13.5528 15.0884 13.4926 15.3594 13.4914C15.5639 13.4876 15.7657 13.5384 15.9437 13.6385C16.1216 13.7387 16.2692 13.8845 16.3709 14.0607C16.505 14.2844 16.5876 14.5348 16.6127 14.794C16.683 15.366 16.5818 15.9186 16.392 16.4565C16.1 17.31 15.5916 18.0745 14.9158 18.6765C14.6065 18.9615 14.2407 19.1791 13.8417 19.3156C13.584 19.4086 13.3062 19.4326 13.0361 19.3853C12.8877 19.3568 12.7466 19.2988 12.6212 19.2149C12.4958 19.131 12.3888 19.0229 12.3065 18.897C12.1588 18.6743 12.0661 18.4202 12.0358 18.1553C12.0169 18.0186 12.0112 17.8805 12 17.7423Z" fill="white"/>
<path d="M29.0526 22.2102C29.0469 22.7195 28.9481 23.2235 28.7609 23.6977C28.479 24.4515 28.0278 25.1318 27.4415 25.6867C27.1309 25.9906 26.7624 26.2299 26.3576 26.3907C26.141 26.4782 25.9088 26.5216 25.675 26.5184C25.4878 26.5184 25.3035 26.4726 25.1384 26.385C24.9734 26.2974 24.8327 26.1706 24.7288 26.016C24.5817 25.797 24.4874 25.5473 24.4533 25.2863C24.3874 24.804 24.4284 24.3133 24.5735 23.8484C24.8436 22.877 25.3895 22.0032 26.146 21.3312C26.4557 21.0478 26.8219 20.832 27.2208 20.6977C27.4733 20.6068 27.7454 20.5827 28.0102 20.6279C28.1855 20.6606 28.3508 20.7333 28.493 20.8403C28.6351 20.9474 28.7502 21.0858 28.8291 21.2447C28.9432 21.463 29.013 21.7015 29.0344 21.9465C29.0449 22.0491 29.0491 22.153 29.0526 22.2102Z" fill="white"/>
<path d="M29.0519 17.8763C29.0485 18.1314 28.9963 18.3836 28.898 18.6193C28.8515 18.7312 28.7923 18.8375 28.7215 18.936C28.4495 19.303 28.0734 19.4412 27.625 19.4014C27.2706 19.361 26.9311 19.2374 26.6345 19.0407C26.2254 18.7826 25.8642 18.4564 25.5668 18.0765C25.0699 17.4669 24.7151 16.7557 24.5278 15.994C24.4519 15.6929 24.416 15.3833 24.421 15.073C24.4211 14.7875 24.4784 14.5048 24.5897 14.2414C24.7457 13.8926 24.9939 13.6372 25.3748 13.534C25.6073 13.4746 25.851 13.4746 26.0834 13.534C26.3627 13.602 26.6281 13.7174 26.8679 13.8751C27.2969 14.1537 27.6727 14.5057 27.9778 14.9147C28.4471 15.5165 28.7803 16.2115 28.9549 16.9526C29.0233 17.2557 29.0559 17.5657 29.0519 17.8763Z" fill="white"/>
<path d="M20.6497 29C19.8905 29 19.2712 28.9016 18.6772 28.6686C18.3055 28.5314 17.9674 28.3174 17.6854 28.0407C17.5661 27.9231 17.4671 27.7869 17.3923 27.6374C17.307 27.4738 17.2633 27.2919 17.2652 27.1077C17.267 26.9234 17.3143 26.7424 17.4028 26.5805C17.5308 26.3432 17.7116 26.138 17.9314 25.9805C18.2665 25.7362 18.6435 25.5547 19.0442 25.4447C19.3957 25.3422 19.7576 25.2783 20.1232 25.2542C20.7623 25.2034 21.4053 25.2682 22.0211 25.4453C22.4081 25.5521 22.7731 25.7256 23.0994 25.9581C23.2967 26.0975 23.4656 26.2727 23.5971 26.4744C23.7298 26.6735 23.7989 26.9076 23.7953 27.1463C23.7871 27.3762 23.7127 27.5989 23.5809 27.7881C23.4196 28.0236 23.21 28.2226 22.9659 28.3721C22.5802 28.613 22.1544 28.7836 21.7083 28.8758C21.3609 28.9547 21.006 28.9963 20.6497 29Z" fill="white"/>
</svg>
