<svg  viewBox="0 0 24 24" fill="none" xmlns="http://www.w3.org/2000/svg">
<path d="M19.4005 5.59408C18.6729 4.86513 17.7035 4.69974 16.1803 4.66778C16.1099 4.20316 15.875 3.77925 15.5184 3.47317C15.1619 3.1671 14.7073 2.99919 14.2373 3H10.1013C9.63158 2.99953 9.17731 3.16758 8.82103 3.47363C8.46474 3.77967 8.23008 4.20339 8.1597 4.66778C6.64064 4.69974 5.66777 4.86513 4.93812 5.59408C4 6.53429 4 7.88727 4 10.3438V15.3068C4 17.7633 4 19.1162 4.93812 20.0565C5.87624 20.9967 7.23131 20.998 9.6878 20.998H14.6522C17.108 20.998 18.4603 20.998 19.4005 20.0585C20.3407 19.119 20.34 17.7653 20.34 15.3089V10.3438C20.34 7.88727 20.34 6.5336 19.4005 5.59408ZM10.1013 4.44958H14.2373C14.3744 4.44976 14.5058 4.50429 14.6027 4.60121C14.6996 4.69813 14.7542 4.82952 14.7544 4.96658V5.79283C14.7542 5.92989 14.6996 6.06129 14.6027 6.1582C14.5058 6.25512 14.3744 6.30965 14.2373 6.30984H10.1013C10.0335 6.30975 9.96634 6.2963 9.90373 6.27027C9.84113 6.24424 9.78426 6.20613 9.73638 6.15812C9.6885 6.11011 9.65055 6.05314 9.62468 5.99046C9.59882 5.92779 9.58556 5.86063 9.58565 5.79283V4.96658C9.58565 4.82971 9.63993 4.69841 9.73658 4.60149C9.83324 4.50458 9.96439 4.44994 10.1013 4.44958ZM18.8904 15.3068C18.8904 17.4436 18.8904 18.5165 18.3748 19.0308C17.8592 19.545 16.7883 19.5464 14.6522 19.5464H9.6878C7.55027 19.5464 6.47803 19.5464 5.9638 19.0308C5.44957 18.5152 5.44957 17.4443 5.44957 15.3068V10.3438C5.44957 8.20623 5.44957 7.1333 5.9638 6.61907C6.30361 6.27857 6.86301 6.14862 8.16248 6.11526C8.23867 6.57449 8.47534 6.99179 8.83037 7.29287C9.18541 7.59394 9.63576 7.75927 10.1013 7.75941H14.2373C14.703 7.75932 15.1536 7.59404 15.5088 7.29299C15.8641 6.99193 16.101 6.57461 16.1775 6.11526C17.4756 6.14862 18.035 6.27857 18.3748 6.61976C18.8904 7.13399 18.8904 8.20623 18.8904 10.3438V15.3068Z" />
<path d="M15.0546 14.6946C15.2275 14.8675 15.3247 15.1021 15.3247 15.3467C15.3247 15.5913 15.2275 15.8259 15.0546 15.9989C14.8816 16.1719 14.647 16.269 14.4024 16.269C14.1578 16.269 13.9232 16.1719 13.7502 15.9989L12.17 14.418L10.5898 15.9989C10.4168 16.1719 10.1822 16.269 9.93762 16.269C9.69301 16.269 9.45841 16.1719 9.28545 15.9989C9.11248 15.8259 9.01531 15.5913 9.01531 15.3467C9.01531 15.1021 9.11248 14.8675 9.28545 14.6946L10.8657 13.1157L9.28545 11.5348C9.1163 11.3611 9.02239 11.1277 9.02405 10.8853C9.0257 10.6428 9.12279 10.4107 9.29429 10.2393C9.46579 10.0679 9.6979 9.97096 9.94036 9.96944C10.1828 9.96791 10.4161 10.0619 10.5898 10.2312L12.17 11.8114L13.7502 10.2312C13.9239 10.0619 14.1572 9.96791 14.3996 9.96944C14.6421 9.97096 14.8742 10.0679 15.0457 10.2393C15.2172 10.4107 15.3143 10.6428 15.316 10.8853C15.3176 11.1277 15.2237 11.3611 15.0546 11.5348L13.4743 13.1157L15.0546 14.6946Z"/>
</svg>
