<svg  viewBox="0 0 24 24" fill="none" xmlns="http://www.w3.org/2000/svg">
<path d="M17.9238 4.68224C17.1715 3.92851 16.1692 3.7575 14.5942 3.72445C14.5214 3.24404 14.2786 2.80573 13.9099 2.48925C13.5412 2.17278 13.0711 1.99916 12.5852 2H8.3086C7.82296 1.99951 7.35325 2.17328 6.98486 2.48972C6.61646 2.80617 6.37383 3.24429 6.30106 3.72445C4.73038 3.7575 3.72445 3.92851 2.97 4.68224C2 5.6544 2 7.05335 2 9.59332V14.725C2 17.265 2 18.6639 2.97 19.6361C3.94 20.6082 5.34112 20.6097 7.88108 20.6097H13.2599C13.4584 20.6095 13.6488 20.5305 13.7891 20.3902C13.9295 20.2498 14.0084 20.0595 14.0086 19.861C14.0086 19.6622 13.9297 19.4716 13.7891 19.3311C13.6486 19.1905 13.458 19.1116 13.2592 19.1116H7.88108C5.67092 19.1116 4.56224 19.1116 4.03054 18.5784C3.49883 18.0453 3.49883 16.938 3.49883 14.7279V9.59332C3.49883 7.38315 3.49883 6.27376 4.03054 5.74205C4.38117 5.3907 4.95886 5.25562 6.29962 5.22113C6.30077 5.22133 6.30185 5.22183 6.30273 5.22259C6.30362 5.22335 6.30428 5.22433 6.30465 5.22544C6.38446 5.6993 6.6295 6.12959 6.99633 6.43999C7.36316 6.7504 7.82807 6.92086 8.3086 6.92115H12.5852C13.0667 6.92105 13.5326 6.75016 13.8999 6.43887C14.2673 6.12758 14.5123 5.69608 14.5913 5.22113C15.9335 5.25562 16.5119 5.38998 16.8633 5.74277C17.3964 6.27448 17.3964 7.38315 17.3964 9.59332V11.8682C17.3965 11.968 17.4166 12.0668 17.4557 12.1586C17.4948 12.2504 17.552 12.3335 17.6239 12.4027C17.6958 12.4719 17.7809 12.5259 17.8742 12.5615C17.9675 12.597 18.067 12.6134 18.1667 12.6097H18.1818C18.373 12.6015 18.5536 12.5198 18.6861 12.3817C18.8185 12.2435 18.8924 12.0595 18.8924 11.8682V9.59332C18.8953 7.05335 18.8953 5.65368 17.9238 4.68224ZM12.5852 5.42231H8.3086C8.2385 5.42222 8.16909 5.40832 8.10436 5.3814C8.03962 5.35448 7.98083 5.31508 7.93132 5.26544C7.88181 5.2158 7.84257 5.1569 7.81583 5.09209C7.78908 5.02728 7.77537 4.95784 7.77546 4.88773V4.03341C7.77546 3.89188 7.83159 3.75613 7.93153 3.65592C8.03147 3.55571 8.16707 3.49922 8.3086 3.49884H12.4494C12.9696 3.49884 13.1227 3.70505 13.1227 4.09305V4.88773C13.0875 5.18089 12.8798 5.42231 12.5852 5.42231Z" />
<path d="M14.3952 13.0149C14.3967 13.2117 14.3201 13.4011 14.1822 13.5414C14.0442 13.6818 13.8562 13.7617 13.6594 13.7636H6.93982C6.74518 13.7576 6.56052 13.676 6.42497 13.5362C6.28941 13.3964 6.21361 13.2093 6.21361 13.0145C6.21361 12.8198 6.28941 12.6327 6.42497 12.4929C6.56052 12.3531 6.74518 12.2715 6.93982 12.2655H13.6594C13.8563 12.2676 14.0443 12.3476 14.1822 12.4881C14.3201 12.6286 14.3967 12.818 14.3952 13.0149Z" />
<path d="M15.4629 10.1473C15.4302 10.3239 15.3361 10.4833 15.1973 10.5973C15.0584 10.7113 14.8838 10.7726 14.7041 10.7703H6.19041C6.01078 10.7726 5.83611 10.7113 5.69727 10.5973C5.55842 10.4833 5.46434 10.3239 5.43165 10.1473C5.41341 10.04 5.41873 9.93002 5.44724 9.82499C5.47576 9.71996 5.52679 9.62239 5.5968 9.53905C5.6668 9.45572 5.7541 9.38862 5.85263 9.3424C5.95117 9.29619 6.05858 9.27197 6.16742 9.27142H14.7243C14.8333 9.27155 14.9411 9.29546 15.04 9.3415C15.1389 9.38753 15.2265 9.45458 15.2968 9.53796C15.3671 9.62134 15.4184 9.71906 15.4471 9.8243C15.4758 9.92954 15.4812 10.0398 15.4629 10.1473Z" />
<path d="M13.4863 16.0111C13.488 16.2078 13.4117 16.3971 13.274 16.5376C13.1363 16.6781 12.9486 16.7583 12.7519 16.7606H7.72229C7.52353 16.7606 7.33292 16.6816 7.19237 16.5411C7.05183 16.4005 6.97288 16.2099 6.97288 16.0111C6.97288 15.8124 7.05183 15.6218 7.19237 15.4812C7.33292 15.3407 7.52353 15.2617 7.72229 15.2617H12.7519C12.9486 15.264 13.1363 15.3442 13.274 15.4846C13.4117 15.6251 13.488 15.8145 13.4863 16.0111Z" />
<path d="M19.6303 17.9634C19.7178 18.0601 19.7648 18.1869 19.7615 18.3173C19.7583 18.4478 19.705 18.572 19.6127 18.6643C19.5204 18.7565 19.3962 18.8098 19.2658 18.8131C19.1353 18.8164 19.0086 18.7694 18.9118 18.6819L18.0402 17.8103L17.168 18.6826C17.0712 18.7701 16.9444 18.8171 16.814 18.8138C16.6835 18.8105 16.5593 18.7573 16.467 18.665C16.3748 18.5727 16.3215 18.4485 16.3182 18.318C16.3149 18.1876 16.3619 18.0609 16.4494 17.9641L17.321 17.0932L16.4494 16.2217C16.3619 16.1249 16.3149 15.9981 16.3182 15.8677C16.3215 15.7372 16.3748 15.613 16.467 15.5208C16.5593 15.4285 16.6835 15.3752 16.814 15.3719C16.9444 15.3686 17.0712 15.4156 17.168 15.5031L18.0395 16.3704L18.9111 15.4988C19.0079 15.4113 19.1346 15.3643 19.2651 15.3676C19.3955 15.3709 19.5197 15.4242 19.612 15.5164C19.7043 15.6087 19.7576 15.7329 19.7608 15.8634C19.7641 15.9938 19.7171 16.1206 19.6296 16.2174L18.758 17.0889L19.6303 17.9634Z" />
<path d="M18.0395 13.132C17.2562 13.132 16.4905 13.3643 15.8392 13.7995C15.1879 14.2347 14.6803 14.8532 14.3805 15.5769C14.0808 16.3006 14.0023 17.0969 14.1551 17.8652C14.308 18.6334 14.6852 19.3391 15.239 19.893C15.7929 20.4469 16.4986 20.8241 17.2669 20.9769C18.0351 21.1297 18.8314 21.0513 19.5551 20.7515C20.2788 20.4518 20.8974 19.9441 21.3325 19.2928C21.7677 18.6415 22 17.8758 22 17.0925C21.9987 16.0425 21.581 15.0359 20.8385 14.2935C20.0961 13.551 19.0895 13.1334 18.0395 13.132ZM18.0395 19.9752C17.4694 19.9752 16.912 19.8061 16.438 19.4894C15.9639 19.1726 15.5944 18.7224 15.3762 18.1957C15.1581 17.6689 15.101 17.0893 15.2122 16.5301C15.3234 15.9709 15.598 15.4573 16.0011 15.0541C16.4043 14.651 16.9179 14.3764 17.4771 14.2652C18.0363 14.154 18.6159 14.2111 19.1427 14.4292C19.6694 14.6474 20.1196 15.0169 20.4364 15.491C20.7532 15.965 20.9222 16.5224 20.9222 17.0925C20.9213 17.8568 20.6173 18.5894 20.0768 19.1298C19.5364 19.6702 18.8038 19.9743 18.0395 19.9752Z" />
</svg>
