<svg  viewBox="0 0 24 24" fill="none" xmlns="http://www.w3.org/2000/svg">
<path d="M19.4022 5.59437C18.6745 4.86533 17.705 4.69993 16.1816 4.66796C16.1112 4.20329 15.8763 3.77933 15.5197 3.47322C15.1631 3.16712 14.7084 2.99919 14.2385 3H10.1019C9.63219 2.99953 9.17788 3.1676 8.82155 3.47368C8.46522 3.77976 8.23054 4.20352 8.16015 4.66796C6.64093 4.69993 5.66795 4.86533 4.93822 5.59437C4 6.53467 4 7.8878 4 10.3446V15.3081C4 17.7649 4 19.118 4.93822 20.0583C5.87645 20.9986 7.23166 21 9.68842 21H14.6534C17.1094 21 18.4619 21 19.4022 20.0604C20.3425 19.1208 20.3418 17.767 20.3418 15.3102V10.3446C20.3418 7.8878 20.3418 6.53398 19.4022 5.59437ZM10.1019 4.44973H14.2385C14.3755 4.44992 14.5069 4.50445 14.6039 4.60138C14.7008 4.69831 14.7553 4.82972 14.7555 4.9668V5.79313C14.7553 5.93021 14.7008 6.06162 14.6039 6.15855C14.5069 6.25548 14.3755 6.31001 14.2385 6.3102H10.1019C10.0341 6.3101 9.96699 6.29666 9.90438 6.27062C9.84176 6.24459 9.78489 6.20648 9.737 6.15846C9.68912 6.11045 9.65116 6.05347 9.62529 5.99079C9.59943 5.92811 9.58616 5.86094 9.58625 5.79313V4.9668C9.58625 4.8299 9.64054 4.6986 9.73721 4.60167C9.83388 4.50474 9.96504 4.4501 10.1019 4.44973ZM18.892 15.3081C18.892 17.4452 18.892 18.5182 18.3764 19.0325C17.8607 19.5468 16.7897 19.5482 14.6534 19.5482H9.68842C7.55066 19.5482 6.4783 19.5482 5.96402 19.0325C5.44973 18.5168 5.44973 17.4459 5.44973 15.3081V10.3446C5.44973 8.2068 5.44973 7.13375 5.96402 6.61946C6.30386 6.27892 6.86332 6.14896 8.16293 6.1156C8.23913 6.57488 8.47583 6.99222 8.8309 7.29333C9.18597 7.59444 9.63637 7.75978 10.1019 7.75993H14.2385C14.7042 7.75983 15.1548 7.59454 15.5101 7.29345C15.8654 6.99236 16.1023 6.575 16.1788 6.1156C17.4771 6.14896 18.0365 6.27892 18.3764 6.62016C18.892 7.13444 18.892 8.2068 18.892 10.3446V15.3081Z"/>
<path d="M16.2046 13.6541C16.2044 13.8462 16.1279 14.0304 15.992 14.1662C15.8561 14.3019 15.6718 14.3782 15.4797 14.3782H8.86069C8.76366 14.3812 8.66701 14.3647 8.57648 14.3297C8.48596 14.2946 8.40339 14.2417 8.33369 14.1741C8.26399 14.1066 8.20858 14.0257 8.17073 13.9363C8.13289 13.8469 8.11339 13.7508 8.11339 13.6537C8.11339 13.5566 8.13289 13.4605 8.17073 13.3711C8.20858 13.2817 8.26399 13.2008 8.33369 13.1333C8.40339 13.0657 8.48596 13.0128 8.57648 12.9778C8.66701 12.9427 8.76366 12.9262 8.86069 12.9292H15.4797C15.6719 12.9294 15.8561 13.0058 15.992 13.1417C16.1279 13.2776 16.2044 13.4619 16.2046 13.6541Z"/>
<path d="M17.0323 10.7581C17.0321 10.9503 16.9557 11.1345 16.8198 11.2704C16.6839 11.4063 16.4996 11.4827 16.3074 11.4829H8.03089C7.83864 11.4829 7.65427 11.4066 7.51833 11.2706C7.38239 11.1347 7.30602 10.9503 7.30602 10.7581C7.30602 10.5658 7.38239 10.3815 7.51833 10.2455C7.65427 10.1096 7.83864 10.0332 8.03089 10.0332H16.3074C16.4996 10.0334 16.6839 10.1098 16.8198 10.2457C16.9557 10.3816 17.0321 10.5659 17.0323 10.7581Z"/>
<path d="M15.3775 16.5521C15.3773 16.7443 15.3009 16.9286 15.165 17.0645C15.0291 17.2004 14.8449 17.2768 14.6527 17.277H9.68842C9.49617 17.277 9.3118 17.2006 9.17586 17.0647C9.03992 16.9287 8.96355 16.7444 8.96355 16.5521C8.96355 16.3599 9.03992 16.1755 9.17586 16.0396C9.3118 15.9036 9.49617 15.8273 9.68842 15.8273H14.6527C14.8449 15.8274 15.0291 15.9039 15.165 16.0398C15.3009 16.1757 15.3773 16.3599 15.3775 16.5521Z"/>
</svg>
