<svg width="16" height="16" viewBox="0 0 16 16" fill="none" xmlns="http://www.w3.org/2000/svg">
<path fill-rule="evenodd" clip-rule="evenodd" d="M2 6.94448C2 4.81276 2 3.74689 2.25168 3.38831C2.50335 3.02973 3.50555 2.68668 5.50994 2.00057L5.89182 1.86985C6.93666 1.5122 7.45907 1.33337 8 1.33337C8.54093 1.33337 9.06335 1.5122 10.1082 1.86985L10.4901 2.00057C12.4945 2.68668 13.4966 3.02973 13.7483 3.38831C14 3.74689 14 4.81276 14 6.94448V7.99428C14 11.753 11.174 13.577 9.40096 14.3516C8.91999 14.5617 8.67951 14.6667 8 14.6667C7.32049 14.6667 7.08001 14.5617 6.59904 14.3516C4.82597 13.577 2 11.753 2 7.99428V6.94448ZM9.33333 6.00004C9.33333 6.73642 8.73638 7.33337 8 7.33337C7.26362 7.33337 6.66667 6.73642 6.66667 6.00004C6.66667 5.26366 7.26362 4.66671 8 4.66671C8.73638 4.66671 9.33333 5.26366 9.33333 6.00004ZM8 11.3334C10.6667 11.3334 10.6667 10.7364 10.6667 10C10.6667 9.26366 9.47276 8.66671 8 8.66671C6.52724 8.66671 5.33333 9.26366 5.33333 10C5.33333 10.7364 5.33333 11.3334 8 11.3334Z" fill="#E5007A"/>
</svg>
