<svg width="24" height="24" viewBox="0 0 24 24" fill="none" xmlns="http://www.w3.org/2000/svg">
<rect width="24" height="24" rx="12" fill="#FFB99B"/>
<rect x="2.3999" y="2.3999" width="19.2" height="19.2" rx="9.6" fill="#F37630"/>
<path fill-rule="evenodd" clip-rule="evenodd" d="M11.957 12.5901C12.8813 12.5901 13.7022 12.1668 14.2313 11.5144C14.6205 11.0441 14.8516 10.4446 14.8516 9.7921C14.8516 9.31009 14.7239 8.85748 14.505 8.46365C14.0124 7.59369 13.0577 7 11.957 7C10.3637 7 9.06846 8.25203 9.06846 9.7921C9.06846 11.3322 10.3637 12.5901 11.957 12.5901Z" fill="white"/>
<path fill-rule="evenodd" clip-rule="evenodd" d="M16.8298 16.2529C16.292 14.8409 15.1756 13.882 13.6508 13.4946C13.1538 13.3632 12.6025 13.2975 12.017 13.2975H11.983C9.53234 13.2975 7.74881 14.46 7.08169 16.4894L7 16.7324L7.23145 16.8637C8.52485 17.6321 10.0769 17.9999 11.9626 17.9999H11.9966C13.9299 18.0065 15.4683 17.6321 16.7686 16.8637L17 16.7324L16.9183 16.4894C16.8911 16.4106 16.8639 16.3317 16.8298 16.2529Z" fill="white"/>
</svg>
