<svg viewBox="0 0 24 24" fill="none" xmlns="http://www.w3.org/2000/svg">
<path d="M12.5839 17.1853C12.4341 17.185 12.2905 17.1253 12.1843 17.0191C12.0781 16.9129 12.0178 16.7688 12.0167 16.6182V16.6123C11.143 16.393 10.5015 15.6814 10.5015 14.8405C10.5015 14.7655 10.5162 14.6912 10.5447 14.6219C10.5732 14.5526 10.6151 14.4896 10.6678 14.4365C10.7206 14.3835 10.7832 14.3414 10.8521 14.3127C10.921 14.284 10.9949 14.2692 11.0695 14.2692C11.1441 14.2692 11.2179 14.284 11.2869 14.3127C11.3558 14.3414 11.4184 14.3835 11.4711 14.4365C11.5239 14.4896 11.5657 14.5526 11.5943 14.6219C11.6228 14.6912 11.6375 14.7655 11.6375 14.8405C11.6375 15.2185 12.071 15.5386 12.5848 15.5386C13.0985 15.5386 13.5312 15.2185 13.5312 14.8405C13.5312 14.4624 13.0976 14.1423 12.5848 14.1423C11.4354 14.1423 10.5015 13.3165 10.5015 12.3008C10.5015 11.4607 11.143 10.7482 12.0167 10.529V10.5231C12.0167 10.3716 12.0766 10.2263 12.1831 10.1191C12.2896 10.012 12.4341 9.95181 12.5848 9.95181C12.7354 9.95181 12.8799 10.012 12.9864 10.1191C13.0929 10.2263 13.1528 10.3716 13.1528 10.5231V10.529C14.0257 10.7482 14.6672 11.4598 14.6672 12.3008C14.6672 12.4523 14.6074 12.5976 14.5008 12.7048C14.3943 12.8119 14.2498 12.8721 14.0992 12.8721C13.9485 12.8721 13.8041 12.8119 13.6975 12.7048C13.591 12.5976 13.5312 12.4523 13.5312 12.3008C13.5312 11.9219 13.0976 11.6027 12.5848 11.6027C12.0719 11.6027 11.6375 11.9219 11.6375 12.3008C11.6375 12.6797 12.071 12.9989 12.5848 12.9989C13.7333 12.9989 14.6672 13.8248 14.6672 14.8405C14.6672 15.6806 14.0257 16.393 13.1528 16.6123V16.6182C13.1514 16.769 13.0909 16.9133 12.9844 17.0195C12.8779 17.1257 12.7339 17.1853 12.5839 17.1853Z" />
<path d="M20.877 15.4176L20.8686 15.3798L17.9659 7.04079C17.8499 6.70707 17.6658 6.40144 17.4254 6.14354C17.4645 6.09448 17.4994 6.04221 17.5298 5.98728L18.7527 3.86681C18.8598 3.68341 18.9163 3.47459 18.9163 3.26192C18.9163 3.04925 18.8598 2.84043 18.7527 2.65703C18.6335 2.45533 18.4637 2.28856 18.2605 2.1733C18.0572 2.05804 17.8275 1.99832 17.5942 2.00006H7.40327C7.16951 1.99787 6.93927 2.05739 6.73553 2.17267C6.53179 2.28795 6.36168 2.45496 6.24217 2.65703C6.13511 2.84043 6.07866 3.04925 6.07866 3.26192C6.07866 3.47459 6.13511 3.68341 6.24217 3.86681L7.46759 5.98728C7.49906 6.04233 7.5351 6.0946 7.57534 6.14354C7.33431 6.40111 7.14989 6.70682 7.03406 7.04079L4.13216 15.3798L4.1238 15.4176C3.95587 16.1662 3.95882 16.9432 4.13243 17.6904C4.30605 18.4376 4.64581 19.1355 5.12619 19.7317C6.26723 21.1725 8.03895 22 9.98774 22H15.0097C16.9585 22 18.7302 21.1733 19.8704 19.7317C20.3516 19.136 20.6922 18.4382 20.8665 17.691C21.0409 16.9437 21.0445 16.1665 20.877 15.4176ZM17.3678 3.42827L16.3387 5.21268H8.66209L7.63298 3.42827H17.3678ZM18.7611 18.842C17.9049 19.9241 16.5057 20.571 15.0114 20.571H9.98942C8.49754 20.571 7.09587 19.9241 6.23883 18.842C5.52631 17.9414 5.26401 16.8534 5.50125 15.7781L8.37474 7.51294C8.45043 7.29245 8.59254 7.10116 8.78132 6.96565C8.97009 6.83014 9.19616 6.75715 9.42808 6.75683H15.5719C15.8039 6.7571 16.0301 6.83006 16.219 6.96556C16.4079 7.10106 16.5502 7.29238 16.626 7.51294L19.5012 15.7781C19.7368 16.8534 19.4745 17.9414 18.7611 18.842Z" />
</svg>
