<svg viewBox="0 0 24 24" fill="none" xmlns="http://www.w3.org/2000/svg">
<path d="M11.9985 21C10.2186 20.9997 8.47872 20.4716 6.99892 19.4826C5.51911 18.4935 4.36579 17.0879 3.68479 15.4434C3.0038 13.799 2.8257 11.9895 3.17301 10.2438C3.52033 8.49813 4.37746 6.89462 5.63604 5.63604C6.89462 4.37746 8.49813 3.52033 10.2438 3.17301C11.9895 2.8257 13.799 3.0038 15.4434 3.68479C17.0879 4.36579 18.4935 5.51911 19.4826 6.99892C20.4716 8.47872 20.9997 10.2186 21 11.9985C20.9978 14.3851 20.0487 16.6734 18.361 18.361C16.6734 20.0487 14.3851 20.9978 11.9985 21ZM11.9985 4.53052C10.5215 4.53082 9.07781 4.96906 7.84991 5.78984C6.62202 6.61061 5.66507 7.77705 5.10007 9.14167C4.53508 10.5063 4.3874 12.0078 4.67573 13.4563C4.96406 14.9049 5.67543 16.2354 6.7199 17.2797C7.76438 18.3239 9.09504 19.035 10.5436 19.323C11.9922 19.6111 13.4937 19.4631 14.8582 18.8978C16.2227 18.3325 17.389 17.3753 18.2095 16.1473C19.03 14.9192 19.468 13.4754 19.468 11.9985C19.4657 10.0183 18.678 8.11983 17.2776 6.71975C15.8773 5.31968 13.9787 4.53234 11.9985 4.53052Z"/>
<path d="M11.9985 16.8842C11.7939 16.8842 11.5977 16.8029 11.453 16.6582C11.3084 16.5136 11.2271 16.3174 11.2271 16.1128V16.1043C10.0413 15.8087 9.17031 14.8488 9.17031 13.7128C9.17031 13.5082 9.25158 13.312 9.39625 13.1674C9.54091 13.0227 9.73712 12.9414 9.9417 12.9414C10.1463 12.9414 10.3425 13.0227 10.4872 13.1674C10.6318 13.312 10.7131 13.5082 10.7131 13.7128C10.7131 14.2238 11.3014 14.6558 11.9985 14.6558C12.6955 14.6558 13.2839 14.2238 13.2839 13.7128C13.2839 13.2019 12.6955 12.7699 11.9985 12.7699C10.4388 12.7699 9.17031 11.6553 9.17031 10.2841C9.17031 9.1481 10.0413 8.18827 11.2271 7.89259V7.88416C11.2271 7.67958 11.3084 7.48337 11.453 7.33871C11.5977 7.19405 11.7939 7.11278 11.9985 7.11278C12.2031 7.11278 12.3993 7.19405 12.5439 7.33871C12.6886 7.48337 12.7699 7.67958 12.7699 7.88416V7.89259C13.9557 8.18827 14.8274 9.1481 14.8274 10.2841C14.8306 10.3875 14.8131 10.4905 14.7758 10.587C14.7385 10.6835 14.6821 10.7715 14.6101 10.8458C14.5382 10.92 14.452 10.9791 14.3567 11.0195C14.2615 11.0598 14.1591 11.0806 14.0556 11.0806C13.9522 11.0806 13.8498 11.0598 13.7545 11.0195C13.6593 10.9791 13.5731 10.92 13.5011 10.8458C13.4291 10.7715 13.3728 10.6835 13.3355 10.587C13.2981 10.4905 13.2806 10.3875 13.2839 10.2841C13.2839 9.77317 12.6955 9.34114 11.9985 9.34114C11.3014 9.34114 10.7131 9.77317 10.7131 10.2841C10.7131 10.795 11.3014 11.2271 11.9985 11.2271C13.5581 11.2271 14.8274 12.3424 14.8274 13.7128C14.8274 14.8488 13.9557 15.8087 12.7699 16.1043V16.1128C12.7699 16.3174 12.6886 16.5136 12.5439 16.6582C12.3993 16.8029 12.2031 16.8842 11.9985 16.8842Z"/>
</svg>
