<svg width="24" height="24" viewBox="0 0 24 24" fill="none" xmlns="http://www.w3.org/2000/svg">
<rect width="24" height="24" rx="12" fill="#F6F7F9"/>
<rect width="24" height="24" rx="12" fill="#FFDDAB"/>
<rect x="2.40002" y="2.3999" width="19.2" height="19.2" rx="9.6" fill="#F8BC14"/>
<rect x="2.40002" y="2.3999" width="19.2" height="19.2" rx="9.6" fill="#FFD663"/>
<rect x="2.40002" y="2.3999" width="19.2" height="19.2" rx="9.6" fill="#FFBF60"/>
<path d="M14.1251 10.2V9.9375C14.1251 8.76094 12.3532 7.875 10.0001 7.875C7.647 7.875 5.87512 8.76094 5.87512 9.9375V11.8125C5.87512 12.7922 7.10325 13.5703 8.87512 13.8047V14.0625C8.87512 15.2391 10.647 16.125 13.0001 16.125C15.3532 16.125 17.1251 15.2391 17.1251 14.0625V12.1875C17.1251 11.2172 15.9345 10.4391 14.1251 10.2ZM8.87512 13.0406V11.9297C9.24819 11.9776 9.62399 12.0011 10.0001 12C10.3763 12.0011 10.7521 11.9776 11.1251 11.9297V13.0406C10.753 13.0986 10.3768 13.1268 10.0001 13.125C9.62348 13.1268 9.24728 13.0986 8.87512 13.0406ZM13.3751 11.1516V11.8125C13.3751 12.2063 12.7939 12.6281 11.8751 12.8859V11.7891C12.4798 11.6437 12.9907 11.4234 13.3751 11.1516ZM6.62512 11.8125V11.1516C7.0095 11.4234 7.52043 11.6437 8.12512 11.7891V12.8859C7.20637 12.6281 6.62512 12.2063 6.62512 11.8125ZM9.62512 14.0625V13.8656L10.0001 13.875C10.1845 13.875 10.3626 13.8703 10.5345 13.8609C10.722 13.9266 10.9189 13.9828 11.1251 14.0344V15.1359C10.2064 14.8781 9.62512 14.4563 9.62512 14.0625ZM11.8751 15.2906V14.175C12.2481 14.2239 12.6239 14.249 13.0001 14.25C13.3763 14.2511 13.7521 14.2276 14.1251 14.1797V15.2906C13.3793 15.4031 12.6209 15.4031 11.8751 15.2906ZM14.8751 15.1359V14.0391C15.4798 13.8938 15.9907 13.6734 16.3751 13.4016V14.0625C16.3751 14.4563 15.7939 14.8781 14.8751 15.1359Z" fill="white"/>
</svg>
