<svg width="25" height="24" viewBox="0 0 25 24" fill="none" xmlns="http://www.w3.org/2000/svg">
<rect x="0.5" width="24" height="24" rx="12" fill="#9A1C9D" fill-opacity="0.32"/>
<rect x="2.90002" y="2.3999" width="19.2" height="19.2" rx="9.6" fill="#9A1C9D"/>
<path d="M6.5 15.5714C6.5 14.8979 6.5 14.5612 6.67574 14.352C6.85147 14.1428 7.13431 14.1428 7.7 14.1428H17.3C17.8657 14.1428 18.1485 14.1428 18.3243 14.352C18.5 14.5612 18.5 14.8979 18.5 15.5714C18.5 16.2448 18.5 16.5816 18.3243 16.7908C18.1485 17 17.8657 17 17.3 17H7.7C7.13431 17 6.85147 17 6.67574 16.7908C6.5 16.5816 6.5 16.2448 6.5 15.5714Z" fill="white"/>
<path fill-rule="evenodd" clip-rule="evenodd" d="M12.8113 7H12.1884C9.83956 7 8.66513 7 7.93543 7.59767C7.20573 8.19534 7.20573 9.15728 7.20573 11.0812V13.2323C7.29617 13.2313 7.42313 13.2313 7.51715 13.2313H17.4825C17.5766 13.2313 17.7035 13.2313 17.794 13.2323V11.0812C17.794 9.15728 17.794 8.19534 17.0643 7.59767C16.3346 7 15.1601 7 12.8113 7ZM14.2643 8.90035C14.446 9.06456 14.4618 9.34678 14.2995 9.5307L12.1987 11.9117C12.115 12.0066 11.9953 12.0608 11.8696 12.0608C11.7439 12.0608 11.6242 12.0066 11.5405 11.9117L10.7002 10.9593C10.5379 10.7754 10.5537 10.4932 10.7354 10.329C10.9172 10.1647 11.1961 10.1807 11.3584 10.3646L11.8696 10.9441L13.6413 8.93603C13.8036 8.75211 14.0825 8.73613 14.2643 8.90035Z" fill="white"/>
</svg>
