<svg width="24" height="24" viewBox="0 0 24 24" fill="none" xmlns="http://www.w3.org/2000/svg">
<rect width="24" height="24" rx="12" fill="#FFAAD4"/>
<rect x="2.40002" y="2.3999" width="19.2" height="19.2" rx="9.6" fill="#E5007A"/>
<path d="M12.145 5C12.1766 5.00488 12.2082 5.01248 12.2398 5.01465C12.654 5.03467 13.062 5.12435 13.4472 5.28C13.7169 5.38524 13.9625 5.54515 14.169 5.74992C14.2613 5.843 14.3379 5.95079 14.3957 6.06899C14.4593 6.19322 14.4925 6.33113 14.4925 6.47109C14.4925 6.61104 14.4593 6.74895 14.3957 6.87318C14.3064 7.04983 14.1796 7.20421 14.0243 7.32519C13.7596 7.53237 13.4574 7.68501 13.1347 7.7745C12.8646 7.85449 12.5866 7.90435 12.3057 7.92318C11.8098 7.96142 11.3113 7.90622 10.8353 7.76039C10.5112 7.66834 10.2092 7.51008 9.94783 7.29535C9.79836 7.17424 9.67813 7.02021 9.59629 6.84496C9.54057 6.72542 9.51243 6.59461 9.51401 6.46243C9.51559 6.33024 9.54684 6.20016 9.6054 6.08202C9.6943 5.90207 9.8226 5.74505 9.98052 5.62295C10.2069 5.44217 10.4631 5.3033 10.7372 5.21271C11.0764 5.09771 11.4297 5.03087 11.787 5.01411C11.8147 5.01104 11.8423 5.00633 11.8695 5H12.145Z" fill="white"/>
<path d="M5.50589 13.7424C5.5027 13.5213 5.54032 13.3016 5.61682 13.0945C5.65709 12.9878 5.71369 12.8882 5.78455 12.7993C5.99891 12.5394 6.27596 12.4428 6.60124 12.4737C6.94796 12.509 7.2443 12.6664 7.52189 12.872C7.86402 13.133 8.15746 13.4536 8.38841 13.8189C8.65538 14.2236 8.8485 14.6735 8.95859 15.1473C9.02131 15.4098 9.04533 15.6802 9.02987 15.9498C9.02082 16.1409 8.97723 16.3287 8.90125 16.5039C8.78014 16.7752 8.5899 16.9657 8.30106 17.0465C8.10835 17.0937 7.9067 17.0878 7.71695 17.0297C7.44964 16.9518 7.20014 16.8213 6.98279 16.6455C6.61754 16.3574 6.30859 16.0027 6.07179 15.5998C5.84793 15.2339 5.68347 14.834 5.58467 14.4153C5.53274 14.1948 5.50631 13.969 5.50589 13.7424Z" fill="white"/>
<path d="M5.5 10.244C5.51163 9.86809 5.58629 9.49688 5.72078 9.14628C5.93535 8.55311 6.28148 8.01772 6.73253 7.58132C6.94573 7.37114 7.1932 7.19986 7.46401 7.07504C7.65067 6.98554 7.85447 6.93867 8.06099 6.93775C8.21692 6.93477 8.37078 6.97429 8.50645 7.0522C8.64212 7.1301 8.7546 7.24351 8.83212 7.38054C8.93437 7.55455 8.99732 7.74931 9.01647 7.95085C9.07006 8.39581 8.99289 8.82558 8.8482 9.24395C8.62561 9.90775 8.23806 10.5024 7.72285 10.9706C7.48707 11.1922 7.20817 11.3615 6.90402 11.4677C6.70756 11.54 6.49576 11.5587 6.28989 11.5219C6.17672 11.4997 6.06913 11.4547 5.97356 11.3894C5.87798 11.3241 5.79638 11.24 5.73365 11.1421C5.62108 10.9689 5.5504 10.7713 5.52733 10.5653C5.51286 10.4589 5.50857 10.3515 5.5 10.244Z" fill="white"/>
<path d="M18.5 13.7191C18.4956 14.1152 18.4203 14.5071 18.2776 14.876C18.0627 15.4623 17.7187 15.9914 17.2718 16.423C17.035 16.6593 16.7541 16.8455 16.4454 16.9705C16.2803 17.0386 16.1033 17.0724 15.9251 17.0698C15.7824 17.0699 15.6419 17.0343 15.516 16.9661C15.3902 16.8979 15.2829 16.7994 15.2038 16.6791C15.0916 16.5088 15.0198 16.3146 14.9937 16.1116C14.9435 15.7365 14.9748 15.3548 15.0854 14.9932C15.2913 14.2377 15.7074 13.5581 16.2841 13.0353C16.5203 12.815 16.7994 12.6471 17.1035 12.5426C17.296 12.4719 17.5034 12.4532 17.7053 12.4884C17.839 12.5138 17.965 12.5703 18.0734 12.6536C18.1817 12.7369 18.2694 12.8445 18.3296 12.9681C18.4166 13.1379 18.4698 13.3234 18.4861 13.514C18.4941 13.5937 18.4973 13.6746 18.5 13.7191Z" fill="white"/>
<path d="M18.4995 10.3482C18.4969 10.5466 18.457 10.7428 18.3821 10.9261C18.3467 11.0132 18.3015 11.0958 18.2476 11.1725C18.0402 11.4579 17.7535 11.5653 17.4116 11.5344C17.1415 11.503 16.8827 11.4068 16.6566 11.2539C16.3447 11.0531 16.0693 10.7994 15.8426 10.504C15.4638 10.0298 15.1933 9.47667 15.0505 8.88419C14.9926 8.65004 14.9653 8.40924 14.9691 8.16791C14.9692 7.9458 15.0129 7.72593 15.0977 7.52109C15.2166 7.24977 15.4058 7.05116 15.6963 6.97085C15.8734 6.92472 16.0593 6.92472 16.2364 6.97085C16.4494 7.02379 16.6517 7.11356 16.8345 7.2362C17.1615 7.45291 17.448 7.72666 17.6806 8.04473C18.0384 8.51283 18.2924 9.05342 18.4255 9.62977C18.4776 9.86553 18.5025 10.1066 18.4995 10.3482Z" fill="white"/>
<path d="M12.094 19C11.5153 19 11.0432 18.9235 10.5904 18.7422C10.307 18.6356 10.0492 18.4691 9.83423 18.2539C9.74329 18.1624 9.6678 18.0565 9.61076 17.9402C9.54574 17.8129 9.51248 17.6715 9.51388 17.5282C9.51529 17.3849 9.55131 17.2441 9.6188 17.1181C9.71636 16.9336 9.85418 16.774 10.0218 16.6515C10.2772 16.4615 10.5647 16.3203 10.8701 16.2347C11.1381 16.1551 11.414 16.1054 11.6927 16.0866C12.1799 16.0471 12.6701 16.0975 13.1396 16.2353C13.4346 16.3183 13.7129 16.4533 13.9616 16.6341C14.112 16.7425 14.2407 16.8787 14.341 17.0357C14.4422 17.1905 14.4948 17.3726 14.4921 17.5582C14.4858 17.737 14.4291 17.9102 14.3287 18.0574C14.2057 18.2406 14.0459 18.3953 13.8598 18.5116C13.5658 18.699 13.2411 18.8317 12.9011 18.9034C12.6363 18.9647 12.3657 18.9971 12.094 19Z" fill="white"/>
</svg>
