<svg width="24" height="24" viewBox="0 0 24 24" fill="none" xmlns="http://www.w3.org/2000/svg">
<rect width="24" height="24" rx="12" fill="#A4C0FF"/>
<rect x="2.40002" y="2.3999" width="19.2" height="19.2" rx="9.6" fill="#407BFF"/>
<path fill-rule="evenodd" clip-rule="evenodd" d="M12.7552 11.5185C13.0602 11.7335 13.4352 11.8635 13.8352 11.8635C14.8652 11.8635 15.7052 11.0235 15.7052 9.9885C15.7052 8.9585 14.8652 8.1185 13.8352 8.1185C13.5452 8.1185 13.2752 8.1835 13.0302 8.3035C13.2652 8.7185 13.4002 9.1985 13.4002 9.7085C13.4002 10.3935 13.1602 11.0235 12.7552 11.5185Z" fill="white"/>
<path fill-rule="evenodd" clip-rule="evenodd" d="M10.5202 12.0885C11.2802 12.0885 11.9552 11.7285 12.3902 11.1735C12.7102 10.7735 12.9002 10.2635 12.9002 9.7085C12.9002 9.2985 12.7952 8.9135 12.6152 8.5785C12.2102 7.8385 11.4252 7.3335 10.5202 7.3335C9.2102 7.3335 8.1452 8.3985 8.1452 9.7085C8.1452 11.0185 9.2102 12.0885 10.5202 12.0885Z" fill="white"/>
<path fill-rule="evenodd" clip-rule="evenodd" d="M14.5268 15.2042C14.0846 14.0031 13.1666 13.1875 11.9129 12.8579C11.5043 12.7461 11.0509 12.6903 10.5696 12.6903H10.5416C8.5266 12.6903 7.06015 13.6791 6.51162 15.4053L6.44446 15.612L6.63476 15.7237C7.69822 16.3774 8.97437 16.6902 10.5248 16.6902H10.5528C12.1424 16.6958 13.4073 16.3774 14.4764 15.7237L14.6667 15.612L14.5995 15.4053C14.5771 15.3383 14.5547 15.2712 14.5268 15.2042Z" fill="white"/>
<path fill-rule="evenodd" clip-rule="evenodd" d="M17.7093 14.3439C17.2758 13.0098 16.1121 12.2458 14.5149 12.2458H14.4921C13.7904 12.2458 13.1801 12.3953 12.6667 12.6665C13.9559 13.1205 14.9142 14.056 15.3591 15.3569C16.2091 15.2684 16.9564 15.0359 17.5838 14.665L17.7778 14.5487L17.7093 14.3439Z" fill="white"/>
</svg>
