<svg width="24" height="24" viewBox="0 0 24 24" fill="none" xmlns="http://www.w3.org/2000/svg">
<path d="M20.9984 6.21966C20.9287 4.00779 16.565 3 12.4996 3C8.43422 3 4.07134 4.00779 4 6.21881C4 6.23665 4 6.2545 4 6.27234V17.7268C4 19.9761 8.40585 21 12.4996 21C16.5933 21 21 19.9761 21 17.7268V6.27319C21 6.25535 21 6.2375 20.9984 6.21966ZM19.3001 17.7268C19.3001 18.1083 17.1802 19.3643 12.4996 19.3643C7.81894 19.3643 5.70235 18.1083 5.70235 17.7268V14.0687C7.35849 14.8861 9.98903 15.2728 12.502 15.2728C15.015 15.2728 17.6456 14.8861 19.3025 14.0687L19.3001 17.7268ZM19.3001 12.0004C19.3001 12.3811 17.1802 13.6362 12.4996 13.6362C7.81894 13.6362 5.70235 12.3811 5.70235 12.0004V8.34145C7.35606 9.1589 9.9866 9.54298 12.4996 9.54298C15.0126 9.54298 17.6431 9.15635 19.3001 8.3389V12.0004ZM12.4996 7.90894C8.03781 7.90894 5.70235 6.69296 5.70235 6.27319C5.70235 5.85342 8.04025 4.63575 12.502 4.63575C16.9638 4.63575 19.3025 5.85172 19.3025 6.27319C19.3025 6.69466 16.9622 7.90894 12.4996 7.90894Z" fill="#485F7D"/>
</svg>
