<svg width="40" height="40" viewBox="0 0 40 40" fill="none" xmlns="http://www.w3.org/2000/svg">
<rect width="40" height="40" rx="20" fill="#9A1C9D" fill-opacity="0.32"/>
<rect x="4" y="4" width="32" height="32" rx="16" fill="#9A1C9D"/>
<path d="M11 25.7055C11 24.7073 11 24.2081 11.2636 23.898C11.5272 23.5879 11.9515 23.5879 12.8 23.5879H27.2C28.0485 23.5879 28.4728 23.5879 28.7364 23.898C29 24.2081 29 24.7073 29 25.7055C29 26.7038 29 27.2029 28.7364 27.5131C28.4728 27.8232 28.0485 27.8232 27.2 27.8232H12.8C11.9515 27.8232 11.5272 27.8232 11.2636 27.5131C11 27.2029 11 26.7038 11 25.7055Z" fill="white"/>
<path fill-rule="evenodd" clip-rule="evenodd" d="M20.4669 13H19.5326C16.0093 13 14.2477 13 13.1531 13.8859C12.0586 14.7719 12.0586 16.1978 12.0586 19.0496V22.2382C12.1943 22.2367 12.3847 22.2367 12.5257 22.2367H27.4738C27.6148 22.2367 27.8053 22.2367 27.9409 22.2382V19.0496C27.9409 16.1978 27.9409 14.7719 26.8464 13.8859C25.7518 13 23.9902 13 20.4669 13ZM22.6464 15.8169C22.919 16.0603 22.9427 16.4787 22.6993 16.7513L19.548 20.2807C19.4225 20.4213 19.2429 20.5017 19.0544 20.5017C18.8659 20.5017 18.6863 20.4213 18.5608 20.2807L17.3003 18.8689C17.0568 18.5963 17.0805 18.178 17.3531 17.9346C17.6258 17.6911 18.0441 17.7148 18.2875 17.9875L19.0544 18.8463L21.712 15.8698C21.9554 15.5972 22.3738 15.5735 22.6464 15.8169Z" fill="white"/>
</svg>
