<svg width="40" height="40" viewBox="0 0 40 40" fill="none" xmlns="http://www.w3.org/2000/svg">
<rect width="40" height="40" rx="20" fill="#FFB99B"/>
<rect x="4" y="4" width="32" height="32" rx="16" fill="#F37630"/>
<path fill-rule="evenodd" clip-rule="evenodd" d="M19.7929 19.925C21.0596 19.925 22.1846 19.325 22.9096 18.4C23.4429 17.7333 23.7596 16.8833 23.7596 15.9583C23.7596 15.275 23.5846 14.6333 23.2846 14.075C22.6096 12.8417 21.3012 12 19.7929 12C17.6096 12 15.8346 13.775 15.8346 15.9583C15.8346 18.1417 17.6096 19.925 19.7929 19.925Z" fill="white"/>
<path fill-rule="evenodd" clip-rule="evenodd" d="M26.4705 25.1178C25.7335 23.116 24.2036 21.7566 22.114 21.2073C21.4331 21.0211 20.6774 20.928 19.8752 20.928H19.8285C16.4702 20.928 14.0261 22.576 13.1119 25.453L13 25.7975L13.3172 25.9837C15.0896 27.0731 17.2165 27.5945 19.8005 27.5945H19.8472C22.4965 27.6038 24.6048 27.0731 26.3865 25.9837L26.7037 25.7975L26.5918 25.453C26.5544 25.3413 26.5171 25.2296 26.4705 25.1178Z" fill="white"/>
</svg>
