<svg width="40" height="40" viewBox="0 0 40 40" fill="none" xmlns="http://www.w3.org/2000/svg">
<rect width="40" height="40" rx="20" fill="#A4C0FF"/>
<rect x="4" y="4" width="32" height="32" rx="16" fill="#407BFF"/>
<path fill-rule="evenodd" clip-rule="evenodd" d="M21.2586 19.1972C21.767 19.5555 22.392 19.7722 23.0586 19.7722C24.7753 19.7722 26.1753 18.3722 26.1753 16.6472C26.1753 14.9305 24.7753 13.5305 23.0586 13.5305C22.5753 13.5305 22.1253 13.6388 21.717 13.8388C22.1086 14.5305 22.3336 15.3305 22.3336 16.1805C22.3336 17.3222 21.9336 18.3722 21.2586 19.1972Z" fill="white"/>
<path fill-rule="evenodd" clip-rule="evenodd" d="M17.5336 20.1472C18.8003 20.1472 19.9253 19.5472 20.6503 18.6222C21.1836 17.9555 21.5003 17.1055 21.5003 16.1805C21.5003 15.4972 21.3253 14.8555 21.0253 14.2972C20.3503 13.0638 19.042 12.2222 17.5336 12.2222C15.3503 12.2222 13.5753 13.9972 13.5753 16.1805C13.5753 18.3638 15.3503 20.1472 17.5336 20.1472Z" fill="white"/>
<path fill-rule="evenodd" clip-rule="evenodd" d="M24.2112 25.34C23.4743 23.3382 21.9444 21.9788 19.8548 21.4294C19.1738 21.2432 18.4182 21.1501 17.6159 21.1501H17.5693C14.211 21.1501 11.7669 22.7981 10.8527 25.6752L10.7407 26.0197L11.0579 26.2059C12.8303 27.2953 14.9572 27.8167 17.5413 27.8167H17.5879C20.2372 27.826 22.3455 27.2953 24.1273 26.2059L24.4444 26.0197L24.3325 25.6752C24.2952 25.5634 24.2579 25.4517 24.2112 25.34Z" fill="white"/>
<path fill-rule="evenodd" clip-rule="evenodd" d="M29.5155 23.9061C28.793 21.6826 26.8535 20.4094 24.1915 20.4094H24.1534C22.984 20.4094 21.9667 20.6585 21.1111 21.1106C23.2597 21.8671 24.857 23.4264 25.5985 25.5946C27.0151 25.4469 28.2606 25.0594 29.3064 24.4413L29.6296 24.2475L29.5155 23.9061Z" fill="white"/>
</svg>
