<svg  viewBox="0 0 24 24" fill="none" xmlns="http://www.w3.org/2000/svg">
<path d="M21.7287 7.74286L19.9632 5.89301C19.1447 5.03373 18.3268 4.17469 17.5097 3.31589C17.4158 3.21223 17.302 3.13052 17.1756 3.07615C17.0493 3.02178 16.9133 2.996 16.7767 3.0005C13.8021 3.00626 10.6833 3.00626 7.23105 3.0005C7.09051 2.99616 6.95071 3.02328 6.82106 3.08004C6.69142 3.13681 6.57493 3.22189 6.47946 3.32957C5.41798 4.45 4.3358 5.58266 3.40408 6.55619L2.29567 7.71838C1.91815 8.11513 1.90504 8.36644 2.23977 8.79848L2.30326 8.87984C2.99849 9.77513 3.69395 10.6692 4.38963 11.5621C4.47452 11.6694 4.55803 11.7781 4.64154 11.8847C4.64583 11.8899 4.64975 11.8954 4.65328 11.9012C4.71608 12.0042 5.09222 12.4881 5.92387 13.5365L6.07226 13.7295L6.476 14.2487C8.1324 16.381 9.7888 18.5127 11.4452 20.6436C11.5646 20.7962 11.7523 21 11.9973 21C12.2423 21 12.4273 20.7998 12.5439 20.6493C15.6225 16.6942 18.6991 12.7394 21.7735 8.7848C22.0882 8.38156 22.0765 8.11297 21.7287 7.74286ZM14.5289 15.9783L14.7104 15.5534C15.7539 13.1153 16.627 11.0703 17.4973 9.0181C17.5449 8.90505 17.5663 8.88848 17.6808 8.88848H17.6933C18.2136 8.89569 18.7444 8.89497 19.2579 8.89497H19.8542C19.8822 8.89505 19.9097 8.90339 19.9334 8.91902C19.9571 8.93466 19.9761 8.95695 19.9882 8.98335C20.0003 9.00975 20.005 9.03917 20.0018 9.06825C19.9986 9.09732 19.9876 9.12486 19.9701 9.14771L14.6144 16.0337C14.6108 16.0395 14.6062 16.0444 14.6007 16.0481C14.5952 16.0519 14.589 16.0544 14.5825 16.0556C14.576 16.0567 14.5694 16.0565 14.563 16.0548C14.5566 16.0532 14.5506 16.0501 14.5454 16.0459C14.5348 16.0391 14.5272 16.0282 14.5241 16.0156C14.521 16.003 14.5227 15.9896 14.5289 15.9783ZM16.7215 4.2455L16.7346 4.25918L16.7588 4.2851C17.8041 5.37912 18.8486 6.47338 19.8921 7.56788C19.8993 7.57524 19.9042 7.58465 19.9062 7.59492C19.9081 7.60519 19.9071 7.61585 19.9033 7.62552C19.8994 7.63519 19.8929 7.64344 19.8845 7.64921C19.8761 7.65498 19.8663 7.658 19.8562 7.65789H19.0025C18.5435 7.65789 18.068 7.65789 17.6028 7.65069C17.5706 7.64641 17.5396 7.63513 17.5117 7.61757C17.5053 7.61253 17.4999 7.60616 17.4959 7.59885C16.9651 6.60443 16.4309 5.58266 15.9285 4.62137L15.7794 4.33335C15.7744 4.32371 15.7719 4.31289 15.7721 4.30192C15.7723 4.29096 15.7752 4.28024 15.7805 4.27081C15.7859 4.26138 15.7935 4.25356 15.8026 4.24811C15.8117 4.24266 15.8221 4.23978 15.8326 4.23974C16.1162 4.24118 16.4171 4.2419 16.7215 4.2455ZM9.73358 4.23326C11.0856 4.23974 12.4998 4.2383 13.7469 4.23686H14.2804C14.3112 4.2369 14.3415 4.24554 14.3681 4.26186C14.3946 4.27819 14.4166 4.30163 14.4315 4.32975C14.4419 4.35063 14.4516 4.36863 14.4557 4.37583C14.9174 5.27015 15.346 6.08671 15.7725 6.89606L16.1307 7.57796C16.1351 7.58598 16.1374 7.59503 16.1374 7.60425C16.1374 7.61346 16.1351 7.62251 16.1307 7.63053C16.1262 7.63838 16.1199 7.64489 16.1122 7.64943C16.1046 7.65397 16.096 7.65639 16.0872 7.65645H12.8359C12.5495 7.65645 12.2644 7.65645 11.9739 7.65645C11.9651 7.65716 11.9564 7.65716 11.9476 7.65645H10.1021C9.8095 7.65645 9.51733 7.65645 9.22562 7.65645H8.08271C8.05698 7.65641 8.0317 7.64943 8.00933 7.63618C7.98696 7.62293 7.96825 7.60387 7.95503 7.58084C7.94233 7.55733 7.93566 7.53079 7.93566 7.5038C7.93566 7.4768 7.94233 7.45027 7.95503 7.42675L8.27043 6.82766C8.69765 6.01326 9.13935 5.1715 9.57347 4.32975C9.61833 4.24406 9.63765 4.23182 9.73289 4.23182M4.1115 7.56644L4.36686 7.2993C5.24406 6.37617 6.14127 5.40912 7.11855 4.42263C7.24899 4.29014 7.33871 4.24766 7.40842 4.24478C7.57682 4.23614 7.7466 4.23398 7.92052 4.23398H8.20073C8.2304 4.23398 8.28286 4.23398 8.26974 4.25342C8.26974 4.25342 8.23524 4.32542 8.21246 4.36431L7.77904 5.1895C7.36977 5.96862 6.9467 6.77365 6.52777 7.56572C6.5121 7.59188 6.49357 7.61604 6.47255 7.63773C6.46344 7.6462 6.45163 7.65083 6.43943 7.65069C5.69129 7.66149 4.94936 7.66005 4.16188 7.65861H4.14532C4.13532 7.65896 4.12548 7.65602 4.11718 7.6502C4.10888 7.64438 4.10255 7.63599 4.09907 7.62621C4.09458 7.6162 4.09336 7.60493 4.09561 7.59414C4.09785 7.58334 4.10343 7.57361 4.1115 7.56644ZM9.45407 16.0467C9.44886 16.0509 9.44288 16.0539 9.4365 16.0555C9.43012 16.0572 9.42347 16.0575 9.41699 16.0563C9.41051 16.0552 9.40432 16.0526 9.39882 16.0489C9.39333 16.0451 9.38864 16.0402 9.38505 16.0344C8.8626 15.3633 7.25589 13.3147 6.00324 11.7183L5.98875 11.6975C5.89696 11.5534 4.61601 9.8973 4.03006 9.14555C4.01245 9.12278 4.00139 9.09527 3.99815 9.06621C3.99491 9.03715 3.99964 9.00772 4.01177 8.98135C4.02391 8.95497 4.04296 8.93272 4.06671 8.91718C4.09047 8.90164 4.11796 8.89343 4.14601 8.89352H4.4621C5.07152 8.89352 5.7044 8.89352 6.32555 8.88632C6.42562 8.88632 6.44771 8.89137 6.49809 9.01162C7.12821 10.4971 7.77352 12.0078 8.39742 13.4688L9.47063 15.979C9.47679 15.9903 9.4785 16.0037 9.47541 16.0163C9.47232 16.0289 9.46467 16.0398 9.45407 16.0467ZM12.1857 18.6771C12.178 18.7097 12.1591 18.7383 12.1325 18.7573C12.1059 18.7763 12.0735 18.7844 12.0415 18.78C12.0081 18.7842 11.9744 18.7762 11.946 18.7574C11.9176 18.7387 11.8962 18.7103 11.8855 18.6771L7.83563 9.11099C7.82585 9.08729 7.82191 9.06143 7.82415 9.03574C7.82639 9.01005 7.83474 8.98536 7.84846 8.96389C7.86217 8.94243 7.88081 8.92488 7.90267 8.91285C7.92454 8.90081 7.94894 8.89466 7.97366 8.89497C8.6797 8.89497 9.38712 8.89497 10.0932 8.89497C10.1491 8.89497 10.207 8.89497 10.2588 8.89497H11.7123C11.7194 8.89426 11.7266 8.89426 11.7337 8.89497C11.7906 8.90301 11.8482 8.9047 11.9055 8.90001H11.9269H11.9476C11.9573 8.89916 11.967 8.89916 11.9766 8.90001H11.9911C13.0521 8.90001 14.1127 8.90001 15.1728 8.90001H16.1839C16.192 8.90015 16.2001 8.90235 16.2073 8.9064C16.2145 8.91046 16.2206 8.91626 16.2252 8.92332C16.2298 8.93038 16.2327 8.93848 16.2337 8.94696C16.2347 8.95543 16.2337 8.96402 16.2308 8.97201L12.1857 18.6771Z" />
</svg>
