<svg width="24" height="24" viewBox="0 0 24 24" fill="none" xmlns="http://www.w3.org/2000/svg">
<path fill-rule="evenodd" clip-rule="evenodd" d="M14.3999 8.4C13.7372 8.4 13.1999 7.86274 13.1999 7.2C13.1999 6.53726 13.7372 6 14.3999 6H20.3999C21.0626 6 21.5999 6.53726 21.5999 7.2V13.2C21.5999 13.8627 21.0626 14.4 20.3999 14.4C19.7372 14.4 19.1999 13.8627 19.1999 13.2V10.0971L14.0484 15.2485C13.5798 15.7172 12.82 15.7172 12.3514 15.2485L9.5999 12.4971L4.44843 17.6485C3.9798 18.1172 3.22 18.1172 2.75137 17.6485C2.28275 17.1799 2.28275 16.4201 2.75137 15.9515L8.75137 9.95147C9.22 9.48284 9.9798 9.48284 10.4484 9.95147L13.1999 12.7029L17.5028 8.4H14.3999Z" fill="#E5007A"/>
</svg>
