<svg width="24" height="24" viewBox="0 0 24 24" fill="none" xmlns="http://www.w3.org/2000/svg">
<path d="M18.0438 5.534C17.3331 4.82193 16.3861 4.66037 14.8982 4.62915C14.8294 4.17529 14.6 3.7612 14.2517 3.46221C13.9033 3.16323 13.4593 2.99921 13.0002 3H8.95995C8.50114 2.99954 8.0574 3.1637 7.70936 3.46266C7.36133 3.76161 7.1321 4.17552 7.06336 4.62915C5.57948 4.66037 4.62914 4.82193 3.91639 5.534C3 6.45243 3 7.77407 3 10.1737V15.0217C3 17.4213 3 18.743 3.91639 19.6614C4.83279 20.5798 6.15647 20.5812 8.55606 20.5812H13.6376C13.8252 20.581 14.005 20.5064 14.1376 20.3738C14.2702 20.2412 14.3448 20.0614 14.3449 19.8739C14.3449 19.6861 14.2704 19.506 14.1376 19.3732C14.0048 19.2405 13.8247 19.1659 13.6369 19.1659H8.55606C6.46804 19.1659 5.42064 19.1659 4.91832 18.6622C4.416 18.1585 4.416 17.1125 4.416 15.0244V10.1737C4.416 8.08565 4.416 7.03756 4.91832 6.53524C5.24958 6.20331 5.79534 6.07569 7.062 6.04311C7.06308 6.04329 7.0641 6.04377 7.06493 6.04449C7.06577 6.04521 7.0664 6.04614 7.06675 6.04718C7.14215 6.49485 7.37365 6.90136 7.7202 7.19461C8.06676 7.48786 8.50597 7.6489 8.95995 7.64917H13.0002C13.4551 7.64908 13.8952 7.48764 14.2422 7.19355C14.5893 6.89947 14.8207 6.49181 14.8955 6.04311C16.1635 6.07569 16.7099 6.20263 17.0419 6.53592C17.5455 7.03824 17.5455 8.08565 17.5455 10.1737V12.3228C17.5456 12.4171 17.5646 12.5104 17.6015 12.5972C17.6385 12.6839 17.6925 12.7624 17.7604 12.8278C17.8284 12.8932 17.9088 12.9442 17.9969 12.9778C18.085 13.0114 18.179 13.0269 18.2732 13.0233H18.2875C18.4681 13.0156 18.6388 12.9384 18.7639 12.8079C18.889 12.6774 18.9588 12.5036 18.9588 12.3228V10.1737C18.9615 7.77407 18.9615 6.45175 18.0438 5.534ZM13.0002 6.23317H8.95995C8.89372 6.23308 8.82815 6.21995 8.76699 6.19452C8.70584 6.16909 8.65029 6.13187 8.60352 6.08497C8.55674 6.03808 8.51967 5.98243 8.49441 5.9212C8.46914 5.85997 8.45618 5.79437 8.45627 5.72814V4.92103C8.45627 4.78733 8.5093 4.65907 8.60371 4.5644C8.69813 4.46973 8.82624 4.41636 8.95995 4.416H12.8719C13.3634 4.416 13.508 4.61082 13.508 4.97738V5.72814C13.4747 6.00509 13.2785 6.23317 13.0002 6.23317Z" fill="black"/>
<path d="M14.7101 13.4062C14.7116 13.5921 14.6392 13.771 14.5089 13.9036C14.3786 14.0362 14.201 14.1117 14.015 14.1135H7.66682C7.48293 14.1078 7.30848 14.0307 7.18042 13.8986C7.05235 13.7665 6.98074 13.5898 6.98074 13.4058C6.98074 13.2218 7.05235 13.0451 7.18042 12.913C7.30848 12.7809 7.48293 12.7039 7.66682 12.6982H14.015C14.201 12.7001 14.3786 12.7758 14.5089 12.9085C14.6392 13.0412 14.7116 13.2202 14.7101 13.4062Z" fill="black"/>
<path d="M15.7189 10.697C15.688 10.8639 15.5991 11.0145 15.4679 11.1222C15.3368 11.2299 15.1717 11.2877 15.002 11.2856H6.95882C6.78912 11.2877 6.6241 11.2299 6.49293 11.1222C6.36176 11.0145 6.27288 10.8639 6.242 10.697C6.22476 10.5957 6.22979 10.4918 6.25673 10.3925C6.28367 10.2933 6.33188 10.2011 6.39802 10.1224C6.46415 10.0437 6.54662 9.98027 6.63971 9.93661C6.7328 9.89295 6.83428 9.87007 6.9371 9.86956H15.021C15.1241 9.86968 15.2259 9.89227 15.3193 9.93576C15.4127 9.97925 15.4955 10.0426 15.562 10.1214C15.6284 10.2001 15.6768 10.2925 15.7039 10.3919C15.731 10.4913 15.7361 10.5954 15.7189 10.697Z" fill="black"/>
<path d="M13.8515 16.2368C13.8531 16.4226 13.781 16.6015 13.6509 16.7342C13.5209 16.8669 13.3435 16.9426 13.1577 16.9448H8.40604C8.21827 16.9448 8.03819 16.8702 7.90541 16.7374C7.77264 16.6046 7.69804 16.4246 7.69804 16.2368C7.69804 16.049 7.77264 15.8689 7.90541 15.7362C8.03819 15.6034 8.21827 15.5288 8.40604 15.5288H13.1577C13.3435 15.5309 13.5209 15.6067 13.6509 15.7394C13.781 15.8721 13.8531 16.051 13.8515 16.2368Z" fill="black"/>
<path d="M18.1531 13.5168C17.4131 13.5168 16.6897 13.7362 16.0743 14.1474C15.459 14.5585 14.9795 15.1429 14.6963 15.8266C14.4131 16.5102 14.339 17.2626 14.4834 17.9883C14.6277 18.7141 14.9841 19.3808 15.5074 19.9041C16.0306 20.4274 16.6973 20.7837 17.4231 20.9281C18.1489 21.0725 18.9012 20.9984 19.5849 20.7152C20.2686 20.432 20.853 19.9524 21.2641 19.3371C21.6752 18.7218 21.8947 17.9984 21.8947 17.2584C21.8934 16.2665 21.4988 15.3155 20.7974 14.6141C20.096 13.9127 19.145 13.5181 18.1531 13.5168ZM18.1531 19.9818C17.6144 19.9818 17.0879 19.8221 16.64 19.5228C16.1922 19.2236 15.8431 18.7982 15.637 18.3006C15.4309 17.803 15.3769 17.2554 15.482 16.7271C15.5871 16.1988 15.8465 15.7135 16.2273 15.3327C16.6082 14.9518 17.0935 14.6924 17.6218 14.5873C18.15 14.4823 18.6976 14.5362 19.1953 14.7423C19.6929 14.9484 20.1182 15.2975 20.4175 15.7454C20.7167 16.1932 20.8765 16.7198 20.8765 17.2584C20.8756 17.9804 20.5883 18.6726 20.0778 19.1831C19.5673 19.6937 18.8751 19.9809 18.1531 19.9818Z" fill="black"/>
<path d="M20.3551 16.1071C20.3552 16.1736 20.3421 16.2395 20.3166 16.3009C20.2911 16.3623 20.2537 16.418 20.2065 16.4649L17.9046 18.7674C17.8585 18.8143 17.8034 18.8516 17.7427 18.877C17.682 18.9024 17.6168 18.9154 17.551 18.9154H17.5476C17.4809 18.9156 17.4149 18.9027 17.3532 18.8773C17.2916 18.8519 17.2356 18.8145 17.1885 18.7674L16.1024 17.6779C16.032 17.6071 15.9841 17.517 15.9647 17.4191C15.9453 17.3211 15.9554 17.2196 15.9935 17.1273C16.0317 17.0351 16.0963 16.9561 16.1792 16.9004C16.2621 16.8448 16.3596 16.8149 16.4594 16.8145C16.5261 16.8142 16.5921 16.8272 16.6536 16.8527C16.7151 16.8783 16.771 16.9158 16.8179 16.9631L17.5496 17.6922L19.493 15.7494C19.5637 15.6784 19.6539 15.63 19.7522 15.6103C19.8504 15.5906 19.9523 15.6006 20.0449 15.6389C20.1375 15.6772 20.2166 15.7422 20.2722 15.8256C20.3278 15.9089 20.3574 16.0069 20.3572 16.1071H20.3551Z" fill="black"/>
</svg>
