<svg width="24" height="24" viewBox="0 0 24 24" fill="none" xmlns="http://www.w3.org/2000/svg">
<path d="M12.25 22C17.7728 22 22.25 17.5228 22.25 12C22.25 6.47715 17.7728 2 12.25 2C6.72715 2 2.25 6.47715 2.25 12C2.25 17.5228 6.72715 22 12.25 22Z" fill="white" stroke="#FF49AA" stroke-width="1.5" stroke-linecap="round" stroke-linejoin="round"/>
<circle cx="9.375" cy="10.125" r="1.125" fill="#FF49AA"/>
<circle cx="15.375" cy="10.125" r="1.125" fill="#FF49AA"/>
<path d="M12.2463 17.6828C11.036 17.6828 9.82567 17.6792 8.61533 17.6856C8.33278 17.687 8.16902 17.5267 8.05515 17.3088C7.94761 17.1028 8.00736 16.9031 8.14793 16.7218C9.69985 14.7133 12.467 14.0884 14.7204 15.2469C15.4212 15.6068 16.0158 16.101 16.4951 16.7302C16.7566 17.0733 16.6519 17.4606 16.2484 17.6019C16.1093 17.6504 15.9553 17.6799 15.8077 17.6806C14.6206 17.687 13.4335 17.6842 12.247 17.6842L12.2463 17.6828Z" fill="#FF49AA"/>
</svg>
