<svg width="18" height="21" viewBox="0 0 18 21" fill="" xmlns="http://www.w3.org/2000/svg">
<path fill-rule="evenodd" clip-rule="evenodd" d="M0.377516 3.58241C0 4.12028 0 5.71907 0 8.91666V10.4914C0 16.1294 4.23896 18.8655 6.89856 20.0273C7.62001 20.3424 7.98074 20.5 9 20.5C10.0193 20.5 10.38 20.3424 11.1014 20.0273C13.761 18.8655 18 16.1294 18 10.4914V8.91666C18 5.71907 18 4.12028 17.6225 3.58241C17.245 3.04454 15.7417 2.52996 12.7351 1.50079L12.1623 1.30472C10.595 0.768239 9.81139 0.5 9 0.5C8.18861 0.5 7.40498 0.768239 5.83772 1.30472L5.26491 1.50079C2.25832 2.52996 0.755031 3.04454 0.377516 3.58241ZM9.75 7.5C9.75 7.08579 9.41421 6.75 9 6.75C8.58579 6.75 8.25 7.08579 8.25 7.5L8.25 9.75002H6C5.58579 9.75002 5.25 10.0858 5.25 10.5C5.25 10.9142 5.58579 11.25 6 11.25H8.25V13.5C8.25 13.9142 8.58578 14.25 9 14.25C9.41421 14.25 9.75 13.9142 9.75 13.5V11.25H12C12.4142 11.25 12.75 10.9142 12.75 10.5C12.75 10.0858 12.4142 9.75002 12 9.75002H9.75L9.75 7.5Z" />
</svg>
