<svg width="19" height="20" viewBox="0 0 19 20" fill="" xmlns="http://www.w3.org/2000/svg">
<path fill-rule="evenodd" clip-rule="evenodd" d="M0 5.5814C0 2.77502 2.27502 0.5 5.0814 0.5H13.9186C16.725 0.5 19 2.77502 19 5.5814V14.4186C19 17.225 16.725 19.5 13.9186 19.5H5.0814C2.27502 19.5 0 17.225 0 14.4186V5.5814ZM4.58259 11.9938C4.34155 12.2693 4.36946 12.688 4.64494 12.929C4.92042 13.1701 5.33915 13.1422 5.5802 12.8667L8.24716 9.81873L10.4013 11.6138C10.6777 11.8442 11.0874 11.8119 11.3244 11.5411L14.4174 8.00622C14.6585 7.73074 14.6305 7.31201 14.3551 7.07097C14.0796 6.82992 13.6608 6.85784 13.4198 7.13332L10.7528 10.1813L8.59873 8.38618C8.3223 8.15582 7.91257 8.1881 7.67562 8.4589L4.58259 11.9938Z" />
</svg>
