<svg width="21" height="20" viewBox="0 0 21 20" fill="none" xmlns="http://www.w3.org/2000/svg">
<circle cx="10.5" cy="10" r="10" fill="#202428"/>
<path d="M6.38147 12.105C5.65631 12.5438 3.75498 13.4397 4.91302 14.5607C5.47871 15.1084 6.10875 15.5 6.90086 15.5H11.4208C12.2129 15.5 12.843 15.1084 13.4086 14.5607C14.5667 13.4397 12.6653 12.5438 11.9402 12.105C10.2397 11.0762 8.08197 11.0762 6.38147 12.105Z" fill="#8F9193" stroke="#8F9193" stroke-width="0.892857" stroke-linecap="round" stroke-linejoin="round"/>
<path opacity="0.5" d="M11.393 7.16672C11.393 8.48168 10.327 9.54767 9.01206 9.54767C7.69709 9.54767 6.6311 8.48168 6.6311 7.16672C6.6311 5.85175 7.69709 4.78577 9.01206 4.78577C10.327 4.78577 11.393 5.85175 11.393 7.16672Z" fill="#8F9193" stroke="#8F9193" stroke-width="0.892857"/>
<path d="M13.4763 5.9762H16.4525" stroke="#8F9193" stroke-width="0.892857" stroke-linecap="round" stroke-linejoin="round"/>
<path d="M13.4763 7.76196H16.4525" stroke="#8F9193" stroke-width="0.892857" stroke-linecap="round" stroke-linejoin="round"/>
<path d="M15.2621 9.54761H16.4526" stroke="#8F9193" stroke-width="0.892857" stroke-linecap="round" stroke-linejoin="round"/>
</svg>
