<svg width="21" height="20" viewBox="0 0 21 20" fill="none" xmlns="http://www.w3.org/2000/svg">
<circle cx="10.5" cy="10" r="10" fill="#D2D8E0" fill-opacity="0.4"/>
<path d="M6.3816 12.105C5.65643 12.5438 3.7551 13.4397 4.91314 14.5607C5.47883 15.1084 6.10887 15.5 6.90098 15.5H11.4209C12.213 15.5 12.8431 15.1084 13.4087 14.5607C14.5668 13.4397 12.6655 12.5438 11.9403 12.105C10.2398 11.0762 8.08209 11.0762 6.3816 12.105Z" fill="white" stroke="white" stroke-width="0.892857" stroke-linecap="round" stroke-linejoin="round"/>
<path opacity="0.5" d="M11.3933 7.16672C11.3933 8.48168 10.3272 9.54767 9.0123 9.54767C7.69734 9.54767 6.63135 8.48168 6.63135 7.16672C6.63135 5.85175 7.69734 4.78577 9.0123 4.78577C10.3272 4.78577 11.3933 5.85175 11.3933 7.16672Z" fill="white" stroke="white" stroke-width="0.892857"/>
<path d="M13.4766 5.9762H16.4528" stroke="white" stroke-width="0.892857" stroke-linecap="round" stroke-linejoin="round"/>
<g filter="url(#filter0_d_166_24690)">
<path d="M13.4766 7.76196H16.4528" stroke="white" stroke-width="0.892857" stroke-linecap="round" stroke-linejoin="round" shape-rendering="crispEdges"/>
</g>
<path d="M15.2622 9.54761H16.4527" stroke="white" stroke-width="0.892857" stroke-linecap="round" stroke-linejoin="round"/>
<defs>
<filter id="filter0_d_166_24690" x="9.03027" y="7.31555" width="11.8691" height="8.89282" filterUnits="userSpaceOnUse" color-interpolation-filters="sRGB">
<feFlood flood-opacity="0" result="BackgroundImageFix"/>
<feColorMatrix in="SourceAlpha" type="matrix" values="0 0 0 0 0 0 0 0 0 0 0 0 0 0 0 0 0 0 127 0" result="hardAlpha"/>
<feOffset dy="4"/>
<feGaussianBlur stdDeviation="2"/>
<feComposite in2="hardAlpha" operator="out"/>
<feColorMatrix type="matrix" values="0 0 0 0 0 0 0 0 0 0 0 0 0 0 0 0 0 0 0.25 0"/>
<feBlend mode="normal" in2="BackgroundImageFix" result="effect1_dropShadow_166_24690"/>
<feBlend mode="normal" in="SourceGraphic" in2="effect1_dropShadow_166_24690" result="shape"/>
</filter>
</defs>
</svg>
