<svg width="70" height="71" viewBox="0 0 70 71" fill="none" xmlns="http://www.w3.org/2000/svg">
<circle cx="35" cy="35.5" r="35" fill="#CCF3FF"/>
<path opacity="0.5" d="M38.3933 53.6495L37.2639 55.5575C36.2573 57.2581 33.7427 57.2581 32.7361 55.5575L31.6068 53.6495C30.7308 52.1695 30.2928 51.4295 29.5892 51.0203C28.8857 50.6112 27.9999 50.5959 26.2284 50.5654C23.613 50.5203 21.9728 50.3601 20.5971 49.7902C18.0448 48.733 16.0169 46.7052 14.9597 44.1528C14.1667 42.2385 14.1667 39.8117 14.1667 34.9582V32.8748C14.1667 26.0552 14.1667 22.6454 15.7017 20.1405C16.5607 18.7389 17.7391 17.5604 19.1407 16.7015C21.6456 15.1665 25.0554 15.1665 31.8751 15.1665H38.1251C44.9447 15.1665 48.3546 15.1665 50.8594 16.7015C52.2611 17.5604 53.4395 18.7389 54.2984 20.1405C55.8334 22.6454 55.8334 26.0552 55.8334 32.8748V34.9582C55.8334 39.8117 55.8334 42.2385 55.0405 44.1528C53.9833 46.7052 51.9554 48.733 49.403 49.7902C48.0274 50.3601 46.3871 50.5203 43.7717 50.5654C42.0002 50.5959 41.1144 50.6112 40.4108 51.0203C39.7073 51.4295 39.2693 52.1695 38.3933 53.6495Z" fill="#0F5FC2"/>
<path d="M25.1042 29.75C25.1042 28.8871 25.8038 28.1875 26.6667 28.1875H43.3334C44.1964 28.1875 44.8959 28.8871 44.8959 29.75C44.8959 30.6129 44.1964 31.3125 43.3334 31.3125H26.6667C25.8038 31.3125 25.1042 30.6129 25.1042 29.75Z" fill="#0F5FC2"/>
<path d="M25.1042 37.0417C25.1042 36.1787 25.8038 35.4792 26.6667 35.4792H38.1251C38.988 35.4792 39.6876 36.1787 39.6876 37.0417C39.6876 37.9046 38.988 38.6042 38.1251 38.6042H26.6667C25.8038 38.6042 25.1042 37.9046 25.1042 37.0417Z" fill="#0F5FC2"/>
</svg>
