<svg width="207" height="207" viewBox="0 0 207 207" fill="none" xmlns="http://www.w3.org/2000/svg">
<rect width="207" height="207" rx="103.5" fill="#F9F9F9"/>
<path d="M112.59 102.167L121.055 95.9335C121.055 95.9335 123.164 90.1678 122.883 88.1044C122.601 86.0421 124.617 88.1247 124.383 90.1774C124.148 92.2301 124.402 92.9328 124.402 92.9328C124.402 92.9328 128.831 88.4947 131.203 93.0267C132.726 95.9378 128.226 98.7455 126.493 99.6369C124.758 100.527 117.072 108.778 117.072 108.778C117.072 108.778 108.766 106.62 112.591 102.167H112.59Z" fill="white" stroke="black" stroke-miterlimit="10"/>
<path d="M94.4796 110.981C94.4796 110.981 108.361 101.013 112.572 101.793C117.395 102.684 118.571 105.637 118.008 109.668C117.445 113.7 104.51 135.263 93.5425 128.044C82.5751 120.825 94.4786 110.981 94.4786 110.981H94.4796Z" fill="#CB5C8D" stroke="black" stroke-miterlimit="10"/>
<path d="M111.307 101.749L115.478 99.1965C115.478 99.1965 121.853 99.6828 121.712 106.949L117.472 111.385C117.472 111.385 119.04 103.768 111.307 101.749Z" fill="#CB5C8D" stroke="black" stroke-miterlimit="10"/>
<path d="M93.2468 153.759C101.625 146.687 92.7567 122.392 73.4382 99.4952C54.1197 76.5981 31.6668 63.7691 23.2883 70.8408C14.9098 77.9125 23.7784 102.207 43.0969 125.104C62.4154 148.001 84.8683 160.83 93.2468 153.759Z" fill="#FFE1F1" stroke="black" stroke-miterlimit="10"/>
<path d="M86.8525 90.0036C86.8525 90.0036 72.7496 87.2545 60.3685 95.6904C48.9128 103.495 39.6363 113.166 36.182 116.251C36.182 116.251 52.9406 140.702 75.3317 152.31C75.3317 152.31 103.325 115.692 101.201 107.946C99.0747 100.2 97.7826 92.6385 86.8536 90.0036H86.8525Z" fill="#CB5C8D" stroke="black" stroke-miterlimit="10"/>
<path d="M100.763 75.3093C100.763 75.3093 101.88 74.8241 102.288 75.7401C102.696 76.655 103.334 78.7419 104.059 78.3953C104.783 78.0498 105.402 78.0722 105.778 74.1811C105.778 74.1811 106.34 70.2431 101.653 67.8993C101.653 67.8993 101.277 70.9 97.9031 70.1493C94.5287 69.3996 85.4825 69.5862 86.4207 77.04C86.4207 77.04 82.202 84.5406 89.1394 87.3526C89.1394 87.3526 92.0179 89.7551 93.8592 87.874C95.7015 85.993 99.7325 86.0868 100.599 82.1957C101.466 78.3047 100.766 75.3072 100.766 75.3072L100.763 75.3093Z" fill="black"/>
<path d="M94.1886 87.8528C94.2931 87.776 94.2099 87.6108 94.0852 87.646C92.1075 88.2037 90.4518 86.7364 90.8942 85.1752C91.4337 83.2772 93.1598 83.821 93.792 84.7348C94.4242 85.6487 94.6907 85.1752 94.6907 85.1752C94.6907 85.1752 95.2537 84.8148 94.6907 83.5885C94.2184 82.5595 93.7963 82.2449 94.0884 81.4644C94.1971 81.1743 94.4839 80.993 94.7931 81.0144C96.0533 81.1018 99.9298 80.4577 100.596 75.6123C100.666 75.1026 101.234 75.2305 101.337 75.222C101.628 75.1985 102.368 75.3734 102.694 76.6562C102.809 77.1094 103.014 77.5392 103.319 77.8943C103.532 78.1427 103.79 78.3602 104.057 78.3965C104.449 78.4498 104.824 78.3101 105.087 77.2768C105.103 77.2161 105.187 77.2097 105.207 77.2694C105.527 78.2024 106.957 81.5166 108.012 82.6437C109.283 84.0001 111.035 84.9641 108.399 85.7372C108.399 85.7372 107.134 85.9483 107.134 86.7918C107.134 87.6353 108.094 93.8702 103.848 94.0344L100.106 94.0632C99.8327 94.0653 99.5716 94.173 99.3786 94.366C98.3455 95.394 95.0202 98.7583 94.9008 99.589C94.7601 100.573 96.6589 106.62 93.2131 104.793C89.7673 102.965 83.9334 95.2298 84.0741 91.2214L89.1361 87.3538C89.1361 87.3538 91.6693 89.7019 94.1876 87.8518L94.1886 87.8528Z" fill="white" stroke="black" stroke-miterlimit="10"/>
<path d="M100.597 94.0599C100.597 94.0599 96.3785 92.9765 94.4807 89.8137C94.4807 89.8137 94.34 95.6264 97.258 96.553L99.3807 94.3659C99.3807 94.3659 99.756 94.0663 100.598 94.0588L100.597 94.0599Z" fill="black"/>
<path d="M103.774 111.074C103.774 111.074 102.659 125.958 94.4338 131.571C94.4338 131.571 86.8653 137.983 76.5866 127.091C76.5866 127.091 71.2111 123.003 71.4691 103.33C71.4894 101.752 72.0193 100.218 73.0076 98.9896C74.6089 97.0008 77.3862 94.6336 80.7957 96.199C82.3107 96.8942 83.4856 98.1664 84.1477 99.6955L88.376 111.488C88.5359 111.905 89.3046 112.175 89.6117 111.85C90.9241 110.46 93.8858 106.966 96.1674 105.825C99.1675 104.324 103.931 108.945 103.773 111.075L103.774 111.074Z" fill="#CB5C8D"/>
<path d="M118.032 73.8398L118.023 73.8489C118.026 73.845 118.03 73.8424 118.032 73.8398Z" fill="black"/>
<path d="M124.799 84.8169C125.236 83.4861 124.982 81.1433 124.027 78.6897C122.807 75.56 120.868 73.3356 119.491 73.3814C119.491 73.3814 119.464 73.3836 119.421 73.3868C119.405 73.3878 119.389 73.3889 119.373 73.391C119.071 73.4198 118.277 73.5243 118.032 73.84C118.057 73.8133 118.157 73.7205 118.315 73.7141C118.286 73.7227 118.256 73.7312 118.227 73.7429C116.849 74.2793 116.815 77.4933 118.15 80.9205C119.344 83.9851 121.229 86.1818 122.599 86.2287C122.599 86.2287 122.602 86.2287 122.609 86.2287C122.727 86.2319 122.841 86.2191 122.95 86.1903C123.229 86.1466 123.626 86.0549 123.95 85.8683C123.95 85.8683 124.494 85.7627 124.788 84.8489C124.79 84.8414 124.793 84.834 124.795 84.8265C124.795 84.8233 124.797 84.8201 124.799 84.8169Z" fill="black"/>
<path d="M122.265 84.6662C123.083 84.3474 122.946 82.0347 121.959 79.5006C120.972 76.9666 119.508 75.1708 118.69 75.4896C117.872 75.8084 118.009 78.1211 118.997 80.6552C119.984 83.1892 121.447 84.985 122.265 84.6662Z" fill="white" stroke="black" stroke-miterlimit="10"/>
<path d="M118.872 76.4109C118.872 76.4109 118.394 79.7101 121.668 83.7249" stroke="black" stroke-miterlimit="10" stroke-linecap="round"/>
<path d="M125.641 86.6424C125.498 86.395 125.244 86.2222 124.925 86.1572L124.629 86.0964L124.066 85.0674L123.21 85.768L123.746 86.5997L123.729 86.6093L123.642 86.9612C123.582 87.2022 123.61 87.4357 123.721 87.6287L129.653 97.9584L131.523 96.8846L125.641 86.6424Z" fill="black"/>
<path d="M128.83 90.3544C129.227 90.1166 129.919 89.9769 130.095 90.4003C130.219 90.6988 129.974 91.0251 129.773 91.2213C129.292 91.6937 125.839 93.868 125.604 93.1077C125.314 92.1693 127.871 90.9281 128.83 90.3533V90.3544Z" fill="white" stroke="black" stroke-miterlimit="10"/>
<path d="M129.5 91.5423C129.93 91.2757 130.682 91.1136 130.877 91.5753C131.014 91.9016 130.751 92.2631 130.534 92.4817C130.015 93.0063 126.282 95.4419 126.018 94.6101C125.694 93.5843 128.464 92.1863 129.5 91.5423Z" fill="white" stroke="black" stroke-miterlimit="10"/>
<path d="M130.406 92.758C130.795 92.5159 131.475 92.3677 131.651 92.7868C131.775 93.0832 131.536 93.4106 131.34 93.61C130.871 94.0866 127.493 96.3004 127.256 95.5465C126.964 94.6155 129.468 93.3434 130.406 92.758Z" fill="white" stroke="black" stroke-miterlimit="10"/>
<path d="M130.997 93.9938C131.392 93.7496 132.08 93.6003 132.259 94.0237C132.386 94.3233 132.143 94.6539 131.945 94.8544C131.469 95.3353 128.044 97.5693 127.803 96.8068C127.506 95.8663 130.046 94.5835 130.997 93.9928V93.9938Z" fill="white" stroke="black" stroke-miterlimit="10"/>
<path d="M106.774 83.3747C107.525 83.0822 107.695 81.7187 107.153 80.3293C106.612 78.9399 105.565 78.0508 104.814 78.3433C104.064 78.6358 103.894 79.9993 104.435 81.3886C104.977 82.778 106.024 83.6672 106.774 83.3747Z" fill="white" stroke="black" stroke-miterlimit="10"/>
<path d="M105.319 81.5901C105.554 81.4984 105.662 81.2118 105.56 80.9501C105.458 80.6883 105.185 80.5505 104.95 80.6422C104.714 80.734 104.606 81.0205 104.708 81.2823C104.81 81.544 105.083 81.6818 105.319 81.5901Z" fill="black"/>
<path d="M104.791 79.69C104.791 79.69 104.042 79.3029 103.444 80.2178" stroke="black" stroke-miterlimit="10" stroke-linecap="round"/>
<path d="M106.854 88.3038H102.776" stroke="black" stroke-miterlimit="10" stroke-linecap="round"/>
<path d="M43.1237 143.537C46.4434 143.537 49.1346 140.845 49.1346 137.525C49.1346 134.205 46.4434 131.513 43.1237 131.513C39.8039 131.513 37.1127 134.205 37.1127 137.525C37.1127 140.845 39.8039 143.537 43.1237 143.537Z" fill="#FFE1F1" stroke="black" stroke-miterlimit="10"/>
<path d="M67.4658 87.4091C69.1639 87.4091 70.5405 86.0322 70.5405 84.3338C70.5405 82.6353 69.1639 81.2584 67.4658 81.2584C65.7676 81.2584 64.391 82.6353 64.391 84.3338C64.391 86.0322 65.7676 87.4091 67.4658 87.4091Z" fill="#FFE1F1" stroke="black" stroke-miterlimit="10"/>
<path d="M104.144 80.2178L93.743 84.0843" stroke="black" stroke-miterlimit="10" stroke-linecap="round"/>
<path d="M101.827 99.9057C101.827 99.9057 102.422 94.7147 101.208 91.5466C101.108 91.2843 101.119 90.9868 101.258 90.7437C101.435 90.4365 101.775 90.2723 102.39 91.2566C103.445 92.9446 104.043 94.9131 104.043 94.9131C104.043 94.9131 106.202 93.4532 106.611 92.2248C107.022 90.9964 107.19 89.8223 107.19 89.8138C107.19 89.8053 108.437 89.9556 108.507 91.1158C108.577 92.276 108.472 92.6983 108.507 93.401C108.542 94.1037 108.999 94.9834 109.456 95.475C109.913 95.9677 110.616 96.8815 110.123 98.0417C109.631 99.2019 107.065 102.964 107.065 102.964L104.077 110.453C104.077 110.453 98.8743 105.601 97.258 105.425L101.827 99.9057Z" fill="white" stroke="black" stroke-miterlimit="10"/>
<path d="M96.1673 105.824L98.6045 102.449C98.6045 102.449 105.729 102.167 106.104 108.262L103.774 112.106C103.774 112.106 103.292 107.512 96.1684 105.824H96.1673Z" fill="#CB5C8D" stroke="black" stroke-miterlimit="10"/>
<path d="M77.5376 95.7011C77.5376 95.7011 82.3949 94.3735 84.5709 100.673C86.0944 105.083 87.6062 109.334 88.376 111.488C88.5903 112.088 89.3856 112.205 89.7641 111.693C90.9337 110.112 93.2195 107.411 96.1674 105.825" stroke="black" stroke-miterlimit="10"/>
<path d="M103.774 112.105C103.774 112.105 101.465 133.116 88.4464 133.509C88.4464 133.509 73.2144 132.594 71.9308 114.017C71.9308 114.017 70.9371 103.24 73.0076 98.9884" stroke="black" stroke-miterlimit="10"/>
<path d="M103.849 111.982C103.849 111.982 104.912 115.621 103.774 119.419C102.636 123.216 102.401 123.028 102.683 124.903C102.964 126.778 100.92 129.12 100.92 129.12C100.92 129.12 98.4212 129.799 96.9232 129.4C96.9232 129.4 101.689 125.405 103.85 111.982H103.849Z" fill="black"/>
<path d="M71.7026 107.276C71.7026 107.276 67.6939 136.057 84.4153 139.832L88.7449 133.509C88.7449 133.509 73.0161 132.542 71.7037 107.276H71.7026Z" fill="black"/>
<path d="M95.4733 98.6122C95.4733 98.6122 97.3614 104.669 94.4796 105.135C94.4796 105.135 95.856 103.759 95.0106 100.725L94.9029 99.5889L95.4733 98.6122Z" fill="black"/>
<path d="M156.648 40.5883H117.44C116.223 40.5883 115.236 41.5751 115.236 42.7924V68.6779C115.236 69.8952 116.223 70.882 117.44 70.882H156.648C157.866 70.882 158.852 69.8952 158.852 68.6779V42.7924C158.852 41.5751 157.866 40.5883 156.648 40.5883Z" fill="#CB5C8D" stroke="black" stroke-miterlimit="10"/>
<path d="M115.236 56.2282C115.236 56.2282 124.344 62.3224 130.128 54.2598C135.263 47.1025 142.562 50.3612 144.136 51.1844C144.489 51.3689 144.877 51.4777 145.225 51.6707C150.091 54.3771 156.692 55.2589 158.852 46.9468" stroke="#FFE1F1" stroke-width="3" stroke-miterlimit="10"/>
<path d="M158.851 59.6033C158.851 59.6033 154.731 48.9207 147.349 49.0092C141.733 49.0764 139.073 62.8056 133.194 62.5102C123.868 62.041 128.305 49.0092 115.236 51.9161" stroke="#D7D7D7" stroke-width="2" stroke-miterlimit="10"/>
<path d="M120.319 40.6298V70.8819" stroke="black" stroke-miterlimit="10"/>
<path d="M125.885 40.6298V70.8819" stroke="black" stroke-miterlimit="10"/>
<path d="M131.459 40.6298V70.8819" stroke="black" stroke-miterlimit="10"/>
<path d="M137.044 40.6298V70.8819" stroke="black" stroke-miterlimit="10"/>
<path d="M142.479 40.6298V70.8819" stroke="black" stroke-miterlimit="10"/>
<path d="M148.301 40.6298V70.8819" stroke="black" stroke-miterlimit="10"/>
<path d="M153.738 40.6298V70.8819" stroke="black" stroke-miterlimit="10"/>
<path d="M115.151 65.8359H158.851" stroke="black" stroke-miterlimit="10"/>
<path d="M115.151 60.7838H158.851" stroke="black" stroke-miterlimit="10"/>
<path d="M115.151 55.7207H158.851" stroke="black" stroke-miterlimit="10"/>
<path d="M115.151 50.7932H158.851" stroke="black" stroke-miterlimit="10"/>
<path d="M115.151 45.5168H158.851" stroke="black" stroke-miterlimit="10"/>
<path d="M186.301 74.6664H140.907C138.774 74.6664 137.044 76.3961 137.044 78.5297V107.698C137.044 109.832 138.774 111.562 140.907 111.562H186.301C188.434 111.562 190.164 109.832 190.164 107.698V78.5297C190.164 76.3961 188.434 74.6664 186.301 74.6664Z" fill="#FFE1F1" stroke="black" stroke-miterlimit="10"/>
<path d="M143.623 104.421H183.524V91.2417C183.524 91.2417 182.231 90.01 180.877 91.858C179.663 93.513 177.115 96.4038 173.809 94.0216C173.249 93.6185 172.766 93.1195 172.361 92.5607C171.928 91.9646 171.007 90.957 169.9 91.2822C169.489 91.4027 169.15 91.6917 168.938 92.0627C168.401 93.0054 166.745 95.5497 165.298 93.9512C165.298 93.9512 163.512 90.6253 161.788 92.227C160.232 93.6729 159.278 96.5734 157.385 95.9912C157.026 95.8803 156.724 95.6371 156.516 95.3247C155.928 94.4396 154.474 92.1928 152.766 92.3165C151.711 92.3933 150.598 93.7422 149.8 94.9643C148.989 96.2034 147.604 96.9455 146.125 96.9541L143.624 96.969V104.421H143.623Z" fill="#CB5C8D"/>
<path d="M183.524 87.8569C183.524 87.8569 182.231 86.6253 180.877 88.4732C179.663 90.1282 177.115 93.0191 173.809 90.6369C173.249 90.2338 172.766 89.7347 172.361 89.176C171.928 88.5799 171.007 87.5722 169.9 87.8974C169.489 88.0179 169.15 88.3069 168.938 88.678C168.401 89.6206 166.745 92.1649 165.298 90.5665C165.298 90.5665 163.512 87.2406 161.788 88.8422C160.232 90.2882 159.278 93.1886 157.385 92.6064C157.026 92.4955 156.724 92.2524 156.516 91.9399C155.928 91.0549 154.474 88.8081 152.766 88.9318C151.711 89.0085 150.598 90.3575 149.8 91.5795C148.989 92.8186 147.604 93.5608 146.125 93.5693L143.039 93.5842" stroke="#D7D7D7" stroke-width="3" stroke-miterlimit="10"/>
<path d="M162.373 89.1676C162.752 89.1676 163.06 88.8596 163.06 88.4798C163.06 88.0999 162.752 87.792 162.373 87.792C161.993 87.792 161.685 88.0999 161.685 88.4798C161.685 88.8596 161.993 89.1676 162.373 89.1676Z" fill="white" stroke="black" stroke-miterlimit="10"/>
<path d="M152.89 89.8553C153.27 89.8553 153.578 89.5474 153.578 89.1675C153.578 88.7877 153.27 88.4797 152.89 88.4797C152.511 88.4797 152.203 88.7877 152.203 89.1675C152.203 89.5474 152.511 89.8553 152.89 89.8553Z" fill="white" stroke="black" stroke-miterlimit="10"/>
<path d="M176.822 92.452C177.202 92.452 177.51 92.1441 177.51 91.7642C177.51 91.3844 177.202 91.0764 176.822 91.0764C176.442 91.0764 176.134 91.3844 176.134 91.7642C176.134 92.1441 176.442 92.452 176.822 92.452Z" fill="white" stroke="black" stroke-miterlimit="10"/>
<path d="M170.623 88.4797C171.003 88.4797 171.311 88.1718 171.311 87.7919C171.311 87.4121 171.003 87.1041 170.623 87.1041C170.244 87.1041 169.936 87.4121 169.936 87.7919C169.936 88.1718 170.244 88.4797 170.623 88.4797Z" fill="white" stroke="black" stroke-miterlimit="10"/>
<path d="M162.373 89.3904V105.931" stroke="#FFE1F1" stroke-miterlimit="10"/>
<path d="M152.89 90.0035V106.758" stroke="#FFE1F1" stroke-miterlimit="10"/>
<path d="M170.623 88.6493V104.42" stroke="#FFE1F1" stroke-miterlimit="10"/>
<path d="M176.822 92.6259V104.379" stroke="#FFE1F1" stroke-miterlimit="10"/>
<path d="M143.038 83.1117V103.905C143.038 104.19 143.268 104.42 143.553 104.42H183.523" stroke="black" stroke-miterlimit="10"/>
<path d="M169.941 115.38H124.725C122.312 115.38 120.356 117.337 120.356 119.75V145.665C120.356 148.078 122.312 150.034 124.725 150.034H169.941C172.354 150.034 174.31 148.078 174.31 145.665V119.75C174.31 117.337 172.354 115.38 169.941 115.38Z" fill="#CB5C8D" stroke="black" stroke-miterlimit="10"/>
<path d="M136.048 125.354H130.428V144.958H136.048V125.354Z" fill="#FFE1F1" stroke="black" stroke-miterlimit="10"/>
<path d="M143.22 130.433H137.6V144.958H143.22V130.433Z" fill="#D7D7D7" stroke="black" stroke-miterlimit="10"/>
<path d="M150.708 120.998H145.087V144.958H150.708V120.998Z" fill="#FFE1F1" stroke="black" stroke-miterlimit="10"/>
<path d="M158.323 138.448H152.703V144.958H158.323V138.448Z" fill="#D7D7D7" stroke="black" stroke-miterlimit="10"/>
<path d="M124.832 122.317V144.957H165.531" stroke="black" stroke-miterlimit="10"/>
</svg>
