<svg width="20" height="21" viewBox="0 0 20 21" fill="" xmlns="http://www.w3.org/2000/svg">
<path fill-rule="evenodd" clip-rule="evenodd" d="M11.75 3.87627C12.1399 3.95587 12.5223 4.07272 12.8918 4.22575C13.6501 4.53984 14.3391 5.00021 14.9194 5.58058C15.4998 6.16095 15.9602 6.84994 16.2742 7.60823C16.4273 7.97768 16.5441 8.36006 16.6237 8.75L13.7692 8.75C13.7577 8.72006 13.7459 8.69026 13.7336 8.66061C13.5577 8.23597 13.2999 7.85013 12.9749 7.52512C12.6499 7.20012 12.264 6.94231 11.8394 6.76642C11.8097 6.75414 11.7799 6.74227 11.75 6.73082V3.87627ZM11.75 2.6049C12.3045 2.69863 12.8481 2.85466 13.3701 3.0709C14.2801 3.44781 15.1069 4.00026 15.8033 4.6967C16.4997 5.39314 17.0522 6.21993 17.4291 7.12987C17.6453 7.65192 17.8014 8.19546 17.8951 8.75C17.9509 9.08019 17.9846 9.41428 17.9958 9.75004C18.0004 9.88804 17.8881 10 17.75 10L13 10C12.8619 10 12.7514 9.88773 12.7361 9.75051C12.7127 9.54069 12.6598 9.33478 12.5787 9.13896C12.4657 8.86598 12.2999 8.61794 12.091 8.40901C11.8821 8.20008 11.634 8.03434 11.361 7.92127C11.2199 7.86281 10.9435 7.81177 10.7217 7.77907C10.5957 7.76049 10.5 7.65371 10.5 7.52639V2.75C10.5 2.61193 10.612 2.49956 10.75 2.50416C11.0857 2.51536 11.4198 2.54909 11.75 2.6049ZM8.25 3.6049C7.4537 3.7395 6.6816 4.0023 5.96452 4.38559C4.87678 4.967 3.94921 5.8077 3.26398 6.83322C2.57875 7.85874 2.15701 9.03743 2.03612 10.2649C1.91522 11.4923 2.09891 12.7306 2.57091 13.8701C3.0429 15.0096 3.78864 16.0151 4.74205 16.7976C5.69547 17.58 6.82714 18.1153 8.03683 18.3559C9.24651 18.5965 10.4969 18.5351 11.6771 18.1771C12.4552 17.941 13.187 17.5809 13.8452 17.113C14.1148 16.9214 14.3777 16.706 14.623 16.4771C14.7241 16.3828 14.724 16.224 14.6262 16.1262L11.2678 12.7678C11.1701 12.6701 11.0126 12.6714 10.9048 12.7576C10.6822 12.9355 10.4272 13.07 10.1531 13.1531C9.79906 13.2605 9.42395 13.279 9.06105 13.2068C8.69814 13.1346 8.35864 12.974 8.07262 12.7393C7.78659 12.5045 7.56287 12.2029 7.42127 11.861C7.27967 11.5192 7.22457 11.1477 7.26084 10.7795C7.2971 10.4112 7.42363 10.0576 7.62919 9.74996C7.83476 9.44231 8.11303 9.1901 8.43936 9.01567C8.69182 8.88073 8.96702 8.79557 9.25 8.76393C9.38722 8.74859 9.5 8.63807 9.5 8.5L9.5 3.75847C9.5 3.61714 9.38297 3.50388 9.24184 3.51149C8.91452 3.52913 8.50584 3.56165 8.25 3.6049ZM8.25 4.87627C7.66014 4.99668 7.08859 5.20212 6.55377 5.48799C5.64732 5.9725 4.87434 6.67308 4.30332 7.52768C3.73229 8.38229 3.38084 9.36452 3.2801 10.3874C3.17935 11.4103 3.33243 12.4422 3.72576 13.3918C4.11908 14.3414 4.74053 15.1793 5.53504 15.8313C6.32956 16.4834 7.27262 16.9294 8.28069 17.1299C9.28876 17.3304 10.3307 17.2792 11.3143 16.9809C11.8946 16.8048 12.444 16.546 12.9462 16.214L10.9278 14.1955C10.7943 14.2552 10.6567 14.3066 10.516 14.3493C9.96521 14.5164 9.38171 14.545 8.81719 14.4327C8.25267 14.3205 7.72455 14.0707 7.27962 13.7055C6.8347 13.3404 6.48669 12.8712 6.26642 12.3394C6.04616 11.8076 5.96044 11.2297 6.01686 10.6569C6.07327 10.0841 6.27008 9.53408 6.58986 9.0555C6.90963 8.57693 7.3425 8.1846 7.85011 7.91327C7.97983 7.84394 8.1134 7.78305 8.25 7.73082L8.25 4.87627ZM13.2559 12.6551C13.1702 12.7627 13.1695 12.9195 13.2668 13.0168L16.6265 16.3765C16.7242 16.4742 16.8828 16.4744 16.9771 16.3736C17.2066 16.1283 17.419 15.8682 17.613 15.5952C17.9388 15.1368 18.2129 14.6422 18.4291 14.1201C18.6453 13.5981 18.8014 13.0545 18.8951 12.5C18.9509 12.1698 18.9846 11.8357 18.9958 11.5C19.0004 11.362 18.8881 11.25 18.75 11.25H14C13.8619 11.25 13.7514 11.3623 13.7361 11.4995C13.7127 11.7093 13.6598 11.9152 13.5787 12.111C13.4987 12.3042 13.3878 12.4894 13.2559 12.6551ZM14.6955 12.6778C14.7086 12.6485 14.7213 12.619 14.7336 12.5894C14.7459 12.5597 14.7577 12.5299 14.7692 12.5H17.6237C17.5441 12.8899 17.4273 13.2723 17.2742 13.6418C17.1212 14.0112 16.9335 14.3642 16.714 14.6962L14.6955 12.6778Z" />
<path d="M6.55377 5.48799C7.08859 5.20212 7.66014 4.99668 8.25 4.87627L8.25 7.73082C8.1134 7.78305 7.97983 7.84394 7.85011 7.91327C7.3425 8.1846 6.90963 8.57693 6.58986 9.0555C6.27008 9.53408 6.07327 10.0841 6.01686 10.6569C5.96044 11.2297 6.04616 11.8076 6.26642 12.3394C6.48669 12.8712 6.8347 13.3404 7.27962 13.7055C7.72455 14.0707 8.25267 14.3205 8.81719 14.4327C9.38171 14.545 9.96521 14.5164 10.516 14.3493C10.6567 14.3066 10.7943 14.2552 10.9278 14.1955L12.9462 16.214C12.444 16.546 11.8946 16.8048 11.3143 16.9809C10.3307 17.2792 9.28876 17.3304 8.28069 17.1299C7.27262 16.9294 6.32956 16.4834 5.53504 15.8313C4.74053 15.1793 4.11908 14.3414 3.72576 13.3918C3.33243 12.4422 3.17935 11.4103 3.2801 10.3874C3.38084 9.36452 3.73229 8.38229 4.30332 7.52768C4.87434 6.67308 5.64732 5.9725 6.55377 5.48799Z" />
<path d="M11.75 3.87627C12.1399 3.95587 12.5223 4.07272 12.8918 4.22575C13.6501 4.53984 14.3391 5.00021 14.9194 5.58058C15.4998 6.16095 15.9602 6.84994 16.2742 7.60823C16.4273 7.97768 16.5441 8.36006 16.6237 8.75L13.7692 8.75C13.7577 8.72006 13.7459 8.69026 13.7336 8.66061C13.5577 8.23597 13.2999 7.85013 12.9749 7.52512C12.6499 7.20012 12.264 6.94231 11.8394 6.76642C11.8097 6.75414 11.7799 6.74227 11.75 6.73082V3.87627Z" />
<path d="M14.6955 12.6778C14.7086 12.6485 14.7213 12.619 14.7336 12.5894C14.7459 12.5597 14.7577 12.5299 14.7692 12.5H17.6237C17.5441 12.8899 17.4273 13.2723 17.2742 13.6418C17.1212 14.0112 16.9335 14.3642 16.714 14.6962L14.6955 12.6778Z" />
</svg>
