<svg width="17" height="17" viewBox="0 0 17 17" fill="none" xmlns="http://www.w3.org/2000/svg">
<path fill-rule="evenodd" clip-rule="evenodd" d="M9.75 1.87627C10.1399 1.95587 10.5223 2.07272 10.8918 2.22575C11.6501 2.53984 12.3391 3.00021 12.9194 3.58058C13.4998 4.16095 13.9602 4.84994 14.2742 5.60823C14.4273 5.97768 14.5441 6.36006 14.6237 6.75L11.7692 6.75C11.7577 6.72006 11.7459 6.69026 11.7336 6.66061C11.5577 6.23597 11.2999 5.85013 10.9749 5.52512C10.6499 5.20012 10.264 4.94231 9.83939 4.76642C9.80974 4.75414 9.77994 4.74227 9.75 4.73082V1.87627ZM9.75 0.604898C10.3045 0.698631 10.8481 0.854663 11.3701 1.0709C12.2801 1.44781 13.1069 2.00026 13.8033 2.6967C14.4997 3.39314 15.0522 4.21993 15.4291 5.12987C15.6453 5.65192 15.8014 6.19546 15.8951 6.75C15.9509 7.08019 15.9846 7.41428 15.9958 7.75004C16.0004 7.88804 15.8881 8 15.75 8L11 8C10.8619 8 10.7514 7.88773 10.7361 7.75051C10.7127 7.54069 10.6598 7.33478 10.5787 7.13896C10.4657 6.86598 10.2999 6.61794 10.091 6.40901C9.88206 6.20008 9.63402 6.03434 9.36104 5.92127C9.21991 5.86281 8.94347 5.81177 8.72167 5.77907C8.59571 5.76049 8.5 5.65371 8.5 5.52639V0.749997C8.5 0.611926 8.612 0.499563 8.75 0.504165C9.08575 0.515362 9.41982 0.549087 9.75 0.604898ZM6.25 1.6049C5.4537 1.7395 4.6816 2.0023 3.96452 2.38559C2.87678 2.967 1.94921 3.8077 1.26398 4.83322C0.578748 5.85874 0.157008 7.03743 0.0361162 8.26487C-0.084776 9.49231 0.0989109 10.7306 0.570906 11.8701C1.0429 13.0096 1.78864 14.0151 2.74205 14.7976C3.69547 15.58 4.82714 16.1153 6.03683 16.3559C7.24651 16.5965 8.49686 16.5351 9.67714 16.1771C10.4552 15.941 11.187 15.5809 11.8452 15.113C12.1148 14.9214 12.3777 14.706 12.623 14.4771C12.7241 14.3828 12.724 14.224 12.6262 14.1262L9.26777 10.7678C9.17014 10.6701 9.01262 10.6714 8.90476 10.7576C8.6822 10.9355 8.42724 11.07 8.15314 11.1531C7.79906 11.2605 7.42395 11.279 7.06105 11.2068C6.69814 11.1346 6.35864 10.974 6.07262 10.7393C5.78659 10.5045 5.56287 10.2029 5.42127 9.86104C5.27967 9.51919 5.22457 9.14769 5.26084 8.77946C5.2971 8.41123 5.42363 8.05762 5.62919 7.74996C5.83476 7.44231 6.11303 7.1901 6.43936 7.01567C6.69182 6.88073 6.96702 6.79557 7.25 6.76393C7.38722 6.74859 7.5 6.63807 7.5 6.5L7.5 1.75847C7.5 1.61714 7.38297 1.50388 7.24184 1.51149C6.91452 1.52913 6.50584 1.56165 6.25 1.6049ZM6.25 2.87627C5.66014 2.99668 5.08859 3.20212 4.55377 3.48799C3.64732 3.9725 2.87434 4.67308 2.30332 5.52768C1.73229 6.38229 1.38084 7.36452 1.2801 8.38739C1.17935 9.41026 1.33243 10.4422 1.72576 11.3918C2.11908 12.3414 2.74053 13.1793 3.53504 13.8313C4.32956 14.4834 5.27262 14.9294 6.28069 15.1299C7.28876 15.3304 8.33072 15.2792 9.31428 14.9809C9.8946 14.8048 10.444 14.546 10.9462 14.214L8.92777 12.1955C8.79426 12.2552 8.65675 12.3066 8.516 12.3493C7.96521 12.5164 7.38171 12.545 6.81719 12.4327C6.25267 12.3205 5.72455 12.0707 5.27962 11.7055C4.8347 11.3404 4.48669 10.8712 4.26642 10.3394C4.04616 9.80762 3.96044 9.22974 4.01686 8.65694C4.07327 8.08413 4.27008 7.53408 4.58986 7.0555C4.90963 6.57693 5.3425 6.1846 5.85011 5.91327C5.97983 5.84394 6.1134 5.78305 6.25 5.73082L6.25 2.87627ZM11.2559 10.6551C11.1702 10.7627 11.1695 10.9195 11.2668 11.0168L14.6265 14.3765C14.7242 14.4742 14.8828 14.4744 14.9771 14.3736C15.2066 14.1283 15.419 13.8682 15.613 13.5952C15.9388 13.1368 16.2129 12.6422 16.4291 12.1201C16.6453 11.5981 16.8014 11.0545 16.8951 10.5C16.9509 10.1698 16.9846 9.83572 16.9958 9.49995C17.0004 9.36196 16.8881 9.25 16.75 9.25H12C11.8619 9.25 11.7514 9.36226 11.7361 9.49949C11.7127 9.70931 11.6598 9.91521 11.5787 10.111C11.4987 10.3042 11.3878 10.4894 11.2559 10.6551ZM12.6955 10.6778C12.7086 10.6485 12.7213 10.619 12.7336 10.5894C12.7459 10.5597 12.7577 10.5299 12.7692 10.5H15.6237C15.5441 10.8899 15.4273 11.2723 15.2742 11.6418C15.1212 12.0112 14.9335 12.3642 14.714 12.6962L12.6955 10.6778Z" fill="#243A57"/>
<path d="M4.55377 3.48799C5.08859 3.20212 5.66014 2.99668 6.25 2.87627L6.25 5.73082C6.1134 5.78305 5.97983 5.84394 5.85011 5.91327C5.3425 6.1846 4.90963 6.57693 4.58986 7.0555C4.27008 7.53408 4.07327 8.08413 4.01686 8.65694C3.96044 9.22974 4.04616 9.80762 4.26642 10.3394C4.48669 10.8712 4.8347 11.3404 5.27962 11.7055C5.72455 12.0707 6.25267 12.3205 6.81719 12.4327C7.38171 12.545 7.96521 12.5164 8.516 12.3493C8.65675 12.3066 8.79426 12.2552 8.92777 12.1955L10.9462 14.214C10.444 14.546 9.8946 14.8048 9.31428 14.9809C8.33072 15.2792 7.28876 15.3304 6.28069 15.1299C5.27262 14.9294 4.32956 14.4834 3.53504 13.8313C2.74053 13.1793 2.11908 12.3414 1.72576 11.3918C1.33243 10.4422 1.17935 9.41026 1.2801 8.38739C1.38084 7.36452 1.73229 6.38229 2.30332 5.52768C2.87434 4.67308 3.64732 3.9725 4.55377 3.48799Z" fill="#243A57"/>
<path d="M9.75 1.87627C10.1399 1.95587 10.5223 2.07272 10.8918 2.22575C11.6501 2.53984 12.3391 3.00021 12.9194 3.58058C13.4998 4.16095 13.9602 4.84994 14.2742 5.60823C14.4273 5.97768 14.5441 6.36006 14.6237 6.75L11.7692 6.75C11.7577 6.72006 11.7459 6.69026 11.7336 6.66061C11.5577 6.23597 11.2999 5.85013 10.9749 5.52512C10.6499 5.20012 10.264 4.94231 9.83939 4.76642C9.80974 4.75414 9.77994 4.74227 9.75 4.73082V1.87627Z" fill="#243A57"/>
<path d="M12.6955 10.6778C12.7086 10.6485 12.7213 10.619 12.7336 10.5894C12.7459 10.5597 12.7577 10.5299 12.7692 10.5H15.6237C15.5441 10.8899 15.4273 11.2723 15.2742 11.6418C15.1212 12.0112 14.9335 12.3642 14.714 12.6962L12.6955 10.6778Z" fill="#243A57"/>
</svg>
