<svg width="70" height="71" viewBox="0 0 70 71" fill="none" xmlns="http://www.w3.org/2000/svg">
<circle cx="35" cy="35.5" r="35" fill="#CCF3FF"/>
<path opacity="0.5" d="M52.9688 43.3322V31.3519C52.9688 25.7043 52.9688 22.8805 51.2144 21.126C49.6803 19.5918 47.3286 19.3992 42.9861 19.375H27.0139C22.6714 19.3992 20.3197 19.5918 18.7856 21.126C17.0312 22.8805 17.0312 25.7043 17.0312 31.3519V43.3322C17.0312 48.9798 17.0312 51.8035 18.7856 53.558C20.5399 55.3125 23.3634 55.3125 29.0104 55.3125H40.9896C46.6366 55.3125 49.4601 55.3125 51.2144 53.558C52.9688 51.8035 52.9688 48.9798 52.9688 43.3322Z" fill="#0F5FC2"/>
<path d="M26.667 18.854C26.667 17.1281 28.0661 15.729 29.792 15.729H40.2087C41.9345 15.729 43.3337 17.1281 43.3337 18.854V20.9373C43.3337 22.6632 41.9345 24.0623 40.2087 24.0623H29.792C28.0661 24.0623 26.667 22.6632 26.667 20.9373V18.854Z" fill="#0F5FC2"/>
<path fill-rule="evenodd" clip-rule="evenodd" d="M23.0205 40.2085C23.0205 39.3456 23.7201 38.646 24.583 38.646H41.2497C42.1126 38.646 42.8122 39.3456 42.8122 40.2085C42.8122 41.0714 42.1126 41.771 41.2497 41.771H24.583C23.7201 41.771 23.0205 41.0714 23.0205 40.2085ZM23.0205 47.5002C23.0205 46.6372 23.7201 45.9377 24.583 45.9377H36.0413C36.9043 45.9377 37.6038 46.6372 37.6038 47.5002C37.6038 48.3631 36.9043 49.0627 36.0413 49.0627H24.583C23.7201 49.0627 23.0205 48.3631 23.0205 47.5002Z" fill="#0F5FC2"/>
</svg>
