<svg width="20" height="20" viewBox="0 0 20 20" fill="none" xmlns="http://www.w3.org/2000/svg">
<circle cx="10" cy="10" r="10" fill="#3B444F" fill-opacity="0.41"/>
<path opacity="0.5" d="M3.75012 13.9241C3.75012 13.2639 3.75012 12.9338 3.92446 12.7287C4.0988 12.5236 4.3794 12.5236 4.9406 12.5236H14.4644C15.0256 12.5236 15.3062 12.5236 15.4805 12.7287C15.6549 12.9338 15.6549 13.2639 15.6549 13.9241C15.6549 14.5844 15.6549 14.9145 15.4805 15.1196C15.3062 15.3247 15.0256 15.3247 14.4644 15.3247H4.9406C4.3794 15.3247 4.0988 15.3247 3.92446 15.1196C3.75012 14.9145 3.75012 14.5844 3.75012 13.9241Z" fill="white" fill-opacity="0.5"/>
<path fill-rule="evenodd" clip-rule="evenodd" d="M10.0112 5.521H9.39335C7.06312 5.521 5.89801 5.521 5.1741 6.10694C4.4502 6.69287 4.4502 7.63593 4.4502 9.52203V12.5238C4.53992 12.5228 4.66587 12.5228 4.75914 12.5228H14.6455C14.7387 12.5228 14.8647 12.5228 14.9544 12.5238V9.52203C14.9544 7.63593 14.9544 6.69287 14.2305 6.10694C13.5066 5.521 12.3415 5.521 10.0112 5.521ZM11.4527 7.38404C11.633 7.54503 11.6487 7.82171 11.4877 8.00201L9.40353 10.3363C9.32049 10.4293 9.20173 10.4825 9.07705 10.4825C8.95237 10.4825 8.83361 10.4293 8.75057 10.3363L7.91691 9.40257C7.75592 9.22227 7.77158 8.94559 7.95189 8.7846C8.13219 8.62361 8.40887 8.63927 8.56986 8.81958L9.07705 9.38763L10.8347 7.41902C10.9957 7.23871 11.2724 7.22305 11.4527 7.38404Z" fill="white" fill-opacity="0.5"/>
<path fill-rule="evenodd" clip-rule="evenodd" d="M10.0112 5.521H9.39335C7.06312 5.521 5.89801 5.521 5.1741 6.10694C4.4502 6.69287 4.4502 7.63593 4.4502 9.52203V12.5238C4.53992 12.5228 4.66587 12.5228 4.75914 12.5228H14.6455C14.7387 12.5228 14.8647 12.5228 14.9544 12.5238V9.52203C14.9544 7.63593 14.9544 6.69287 14.2305 6.10694C13.5066 5.521 12.3415 5.521 10.0112 5.521ZM11.4527 7.38404C11.633 7.54503 11.6487 7.82171 11.4877 8.00201L9.40353 10.3363C9.32049 10.4293 9.20173 10.4825 9.07705 10.4825C8.95237 10.4825 8.83361 10.4293 8.75057 10.3363L7.91691 9.40257C7.75592 9.22227 7.77158 8.94559 7.95189 8.7846C8.13219 8.62361 8.40887 8.63927 8.56986 8.81958L9.07705 9.38763L10.8347 7.41902C10.9957 7.23871 11.2724 7.22305 11.4527 7.38404Z" fill="white" fill-opacity="0.5"/>
</svg>
