<svg width="20" height="20" viewBox="0 0 20 20" fill="none" xmlns="http://www.w3.org/2000/svg">
<circle cx="10" cy="10" r="10" fill="#D2D8E0" fill-opacity="0.4"/>
<path opacity="0.5" d="M3.75049 13.9241C3.75049 13.2639 3.75049 12.9338 3.92483 12.7287C4.09917 12.5236 4.37977 12.5236 4.94096 12.5236H14.4648C15.026 12.5236 15.3066 12.5236 15.4809 12.7287C15.6552 12.9338 15.6552 13.2639 15.6552 13.9241C15.6552 14.5844 15.6552 14.9145 15.4809 15.1196C15.3066 15.3247 15.026 15.3247 14.4648 15.3247H4.94096C4.37977 15.3247 4.09917 15.3247 3.92483 15.1196C3.75049 14.9145 3.75049 14.5844 3.75049 13.9241Z" fill="#485F7D"/>
<path fill-rule="evenodd" clip-rule="evenodd" d="M10.0117 5.521H9.39384C7.06361 5.521 5.8985 5.521 5.17459 6.10694C4.45068 6.69287 4.45068 7.63593 4.45068 9.52203V12.5238C4.5404 12.5228 4.66636 12.5228 4.75963 12.5228H14.6459C14.7392 12.5228 14.8652 12.5228 14.9549 12.5238V9.52203C14.9549 7.63593 14.9549 6.69287 14.231 6.10694C13.5071 5.521 12.342 5.521 10.0117 5.521ZM11.4532 7.38404C11.6335 7.54503 11.6492 7.82171 11.4882 8.00201L9.40402 10.3363C9.32098 10.4293 9.20222 10.4825 9.07754 10.4825C8.95286 10.4825 8.8341 10.4293 8.75106 10.3363L7.91739 9.40257C7.7564 9.22227 7.77206 8.94559 7.95237 8.7846C8.13268 8.62361 8.40936 8.63927 8.57035 8.81958L9.07754 9.38763L10.8352 7.41902C10.9962 7.23871 11.2729 7.22305 11.4532 7.38404Z" fill="#485F7D"/>
<path fill-rule="evenodd" clip-rule="evenodd" d="M10.0117 5.521H9.39384C7.06361 5.521 5.8985 5.521 5.17459 6.10694C4.45068 6.69287 4.45068 7.63593 4.45068 9.52203V12.5238C4.5404 12.5228 4.66636 12.5228 4.75963 12.5228H14.6459C14.7392 12.5228 14.8652 12.5228 14.9549 12.5238V9.52203C14.9549 7.63593 14.9549 6.69287 14.231 6.10694C13.5071 5.521 12.342 5.521 10.0117 5.521ZM11.4532 7.38404C11.6335 7.54503 11.6492 7.82171 11.4882 8.00201L9.40402 10.3363C9.32098 10.4293 9.20222 10.4825 9.07754 10.4825C8.95286 10.4825 8.8341 10.4293 8.75106 10.3363L7.91739 9.40257C7.7564 9.22227 7.77206 8.94559 7.95237 8.7846C8.13268 8.62361 8.40936 8.63927 8.57035 8.81958L9.07754 9.38763L10.8352 7.41902C10.9962 7.23871 11.2729 7.22305 11.4532 7.38404Z" fill="#485F7D"/>
</svg>
