<svg width="20" height="20" viewBox="0 0 20 20" fill="none" xmlns="http://www.w3.org/2000/svg">
<circle cx="10" cy="10" r="10" fill="#202428"/>
<path d="M10.0001 16.0952C13.2875 16.0952 15.9525 13.4302 15.9525 10.1428C15.9525 6.8554 13.2875 4.19043 10.0001 4.19043C6.7127 4.19043 4.04773 6.8554 4.04773 10.1428C4.04773 13.4302 6.7127 16.0952 10.0001 16.0952Z" fill="#585B5E" stroke="#8F9193" stroke-width="0.892857"/>
<path d="M7.61926 12.5239L12.3812 7.76196M8.80974 8.3572C8.80974 8.68594 8.54324 8.95244 8.2145 8.95244C7.88576 8.95244 7.61926 8.68594 7.61926 8.3572C7.61926 8.02846 7.88576 7.76196 8.2145 7.76196C8.54324 7.76196 8.80974 8.02846 8.80974 8.3572ZM12.3812 11.8265C12.3812 12.1552 12.1147 12.4217 11.7859 12.4217C11.4572 12.4217 11.1907 12.1552 11.1907 11.8265C11.1907 11.4977 11.4572 11.2312 11.7859 11.2312C12.1147 11.2312 12.3812 11.4977 12.3812 11.8265Z" stroke="#8F9193" stroke-width="0.892857" stroke-linecap="round"/>
</svg>
