<svg width="20" height="20" viewBox="0 0 20 20" fill="none" xmlns="http://www.w3.org/2000/svg">
<circle cx="10" cy="10" r="10" fill="#D2D8E0" fill-opacity="0.4"/>
<path d="M10.0002 16.0952C13.2876 16.0952 15.9526 13.4302 15.9526 10.1428C15.9526 6.8554 13.2876 4.19043 10.0002 4.19043C6.71282 4.19043 4.04785 6.8554 4.04785 10.1428C4.04785 13.4302 6.71282 16.0952 10.0002 16.0952Z" fill="#485F7D" fill-opacity="0.2" stroke="#485F7D" stroke-width="0.892857"/>
<path d="M7.61914 12.5239L12.381 7.76196M8.80962 8.3572C8.80962 8.68594 8.54312 8.95244 8.21438 8.95244C7.88564 8.95244 7.61914 8.68594 7.61914 8.3572C7.61914 8.02846 7.88564 7.76196 8.21438 7.76196C8.54312 7.76196 8.80962 8.02846 8.80962 8.3572ZM12.381 11.8265C12.381 12.1552 12.1146 12.4217 11.7858 12.4217C11.4571 12.4217 11.1906 12.1552 11.1906 11.8265C11.1906 11.4977 11.4571 11.2312 11.7858 11.2312C12.1146 11.2312 12.381 11.4977 12.381 11.8265Z" stroke="#485F7D" stroke-width="0.892857" stroke-linecap="round"/>
</svg>
