<svg width="21" height="18" viewBox="0 0 21 18" fill="" xmlns="http://www.w3.org/2000/svg">
<path d="M0.5 14.8526C0.5 13.7434 0.5 13.1888 0.792893 12.8442C1.08579 12.4996 1.55719 12.4996 2.5 12.4996H18.5C19.4428 12.4996 19.9142 12.4996 20.2071 12.8442C20.5 13.1888 20.5 13.7434 20.5 14.8526C20.5 15.9618 20.5 16.5164 20.2071 16.8609C19.9142 17.2055 19.4428 17.2055 18.5 17.2055H2.5C1.55719 17.2055 1.08579 17.2055 0.792893 16.8609C0.5 16.5164 0.5 15.9618 0.5 14.8526Z"/>
<path fill-rule="evenodd" clip-rule="evenodd" d="M11.0188 0.735352H9.98077C6.06599 0.735352 4.1086 0.735352 2.89244 1.71973C1.67627 2.70411 1.67627 4.28843 1.67627 7.4571V11.0001C1.827 10.9983 2.03861 10.9984 2.1953 10.9984H18.8043C18.961 10.9984 19.1726 10.9983 19.3233 11.0001V7.4571C19.3233 4.28843 19.3233 2.70411 18.1072 1.71973C16.891 0.735352 14.9336 0.735352 11.0188 0.735352ZM13.4405 3.86526C13.7434 4.13572 13.7697 4.60054 13.4993 4.90346L9.99787 8.82503C9.85837 8.98127 9.65885 9.07061 9.44939 9.07061C9.23993 9.07061 9.04041 8.98127 8.9009 8.82503L7.50034 7.2564C7.22988 6.95348 7.25619 6.48866 7.55911 6.2182C7.86203 5.94774 8.32685 5.97405 8.59731 6.27697L9.44939 7.23129L12.4023 3.92403C12.6728 3.62111 13.1376 3.5948 13.4405 3.86526Z" />
</svg>
