<svg width="71" height="71" viewBox="0 0 71 71" fill="none" xmlns="http://www.w3.org/2000/svg">
<circle cx="35.5" cy="35.5" r="35" fill="#CCF3FF"/>
<g opacity="0.5">
<path d="M13.625 49.2345C13.625 46.9237 13.625 45.7683 14.2352 45.0504C14.8454 44.3325 15.8275 44.3325 17.7917 44.3325H51.125C53.0892 44.3325 54.0713 44.3325 54.6815 45.0504C55.2917 45.7683 55.2917 46.9237 55.2917 49.2345C55.2917 51.5453 55.2917 52.7007 54.6815 53.4186C54.0713 54.1364 53.0892 54.1364 51.125 54.1364H17.7917C15.8275 54.1364 14.8454 54.1364 14.2352 53.4186C13.625 52.7007 13.625 51.5453 13.625 49.2345Z" fill="#FF823C"/>
<path d="M13.625 49.2345C13.625 46.9237 13.625 45.7683 14.2352 45.0504C14.8454 44.3325 15.8275 44.3325 17.7917 44.3325H51.125C53.0892 44.3325 54.0713 44.3325 54.6815 45.0504C55.2917 45.7683 55.2917 46.9237 55.2917 49.2345C55.2917 51.5453 55.2917 52.7007 54.6815 53.4186C54.0713 54.1364 53.0892 54.1364 51.125 54.1364H17.7917C15.8275 54.1364 14.8454 54.1364 14.2352 53.4186C13.625 52.7007 13.625 51.5453 13.625 49.2345Z" fill="#0F5FC2"/>
</g>
<path fill-rule="evenodd" clip-rule="evenodd" d="M35.5394 19.8237H33.3767C25.2209 19.8237 21.143 19.8237 18.6094 21.8745C16.0757 23.9253 16.0757 27.226 16.0757 33.8274V44.3335C16.3897 44.33 16.8306 44.33 17.157 44.3301H51.7591C52.0855 44.33 52.5264 44.33 52.8404 44.3335V33.8274C52.8404 27.226 52.8404 23.9253 50.3067 21.8745C47.773 19.8237 43.6951 19.8237 35.5394 19.8237ZM40.5845 26.3444C41.2156 26.9078 41.2704 27.8762 40.7069 28.5073L33.4123 36.6772C33.1217 37.0027 32.7061 37.1888 32.2697 37.1888C31.8333 37.1888 31.4176 37.0027 31.127 36.6772L28.2092 33.4093C27.6457 32.7782 27.7005 31.8098 28.3316 31.2463C28.9627 30.6829 29.9311 30.7377 30.4945 31.3688L32.2697 33.3569L38.4216 26.4668C38.9851 25.8357 39.9534 25.7809 40.5845 26.3444Z" fill="#FF823C"/>
<path fill-rule="evenodd" clip-rule="evenodd" d="M35.5394 19.8237H33.3767C25.2209 19.8237 21.143 19.8237 18.6094 21.8745C16.0757 23.9253 16.0757 27.226 16.0757 33.8274V44.3335C16.3897 44.33 16.8306 44.33 17.157 44.3301H51.7591C52.0855 44.33 52.5264 44.33 52.8404 44.3335V33.8274C52.8404 27.226 52.8404 23.9253 50.3067 21.8745C47.773 19.8237 43.6951 19.8237 35.5394 19.8237ZM40.5845 26.3444C41.2156 26.9078 41.2704 27.8762 40.7069 28.5073L33.4123 36.6772C33.1217 37.0027 32.7061 37.1888 32.2697 37.1888C31.8333 37.1888 31.4176 37.0027 31.127 36.6772L28.2092 33.4093C27.6457 32.7782 27.7005 31.8098 28.3316 31.2463C28.9627 30.6829 29.9311 30.7377 30.4945 31.3688L32.2697 33.3569L38.4216 26.4668C38.9851 25.8357 39.9534 25.7809 40.5845 26.3444Z" fill="#0F5FC2"/>
</svg>
