<svg width="153" height="45" viewBox="0 0 153 45" fill="none" xmlns="http://www.w3.org/2000/svg">
<path fill-rule="evenodd" clip-rule="evenodd" d="M47.1791 29.0449C44.6006 29.0449 42.3796 30.7391 41.0966 32.9758C37.3027 39.5897 30.1716 44.0449 22 44.0449C9.84974 44.0449 0 34.1952 0 22.0449C0 9.89466 9.84974 0.0449219 22 0.0449219C31.6714 0.0449219 39.8853 6.28564 42.8342 14.9598C43.6092 17.2394 45.5922 19.0449 48 19.0449C50.4078 19.0449 52.3908 17.2394 53.1658 14.9598C56.1147 6.28564 64.3286 0.0449219 74 0.0449219H130C142.15 0.0449219 152 9.89466 152 22.0449C152 34.1952 142.15 44.0449 130 44.0449H74C65.8284 44.0449 58.6973 39.5897 54.9034 32.9758C53.6204 30.7391 51.3994 29.0449 48.8209 29.0449H47.1791Z" fill="url(#paint0_linear_1063_222215)"/>
<path d="M22 20.1411C20.8816 20.1411 19.975 20.9935 19.975 22.0449C19.975 23.0964 20.8816 23.9488 22 23.9488C23.1184 23.9488 24.025 23.0964 24.025 22.0449C24.025 20.9935 23.1184 20.1411 22 20.1411Z" fill="white"/>
<path fill-rule="evenodd" clip-rule="evenodd" d="M22 16.5449C19.644 16.5449 17.5252 17.4346 15.9985 18.5362C15.2341 19.0878 14.6069 19.7003 14.1668 20.2965C13.7352 20.8813 13 22.0449 13 22.0449C13 22.0449 13.7352 23.2085 14.1668 23.7933C14.6069 24.3895 15.2341 25.0021 15.9985 25.5536C17.5252 26.6553 19.644 27.5449 22 27.5449C24.356 27.5449 26.4748 26.6553 28.0015 25.5536C28.7659 25.0021 29.3931 24.3895 29.8332 23.7933C30.2648 23.2085 31 22.0449 31 22.0449C31 22.0449 30.2648 20.8813 29.8332 20.2965C29.3931 19.7003 28.7659 19.0878 28.0015 18.5362C26.4748 17.4346 24.356 16.5449 22 16.5449ZM18.625 22.0449C18.625 20.2925 20.136 18.8718 22 18.8718C23.864 18.8718 25.375 20.2925 25.375 22.0449C25.375 23.7974 23.864 25.218 22 25.218C20.136 25.218 18.625 23.7974 18.625 22.0449Z" fill="white"/>
<path d="M81.6 27.2319V19.1059H83.096V17.6609H84.592V16.1989H86.768V17.6609H88.264V19.1059H89.777V27.2319H87.601V24.3249H83.759V27.2319H81.6ZM83.759 21.9959H87.601V19.9729H86.105V18.5279H85.255V19.9729H83.759V21.9959ZM91.8432 30.0539V20.5679H93.3392V19.1059H98.5072V20.5679H100.02V25.7869H98.5072V27.2319H94.0022V30.0539H91.8432ZM94.0022 24.9199H97.8442V21.4179H94.0022V24.9199ZM102.086 30.0539V20.5679H103.582V19.1059H108.75V20.5679H110.263V25.7869H108.75V27.2319H104.245V30.0539H102.086ZM104.245 24.9199H108.087V21.4179H104.245V24.9199ZM112.329 27.2319V16.1989H114.488V27.2319H112.329ZM117.727 30.1389V28.6939H116.231V26.3819H118.39V27.8269H122.249V25.7869H117.727V24.3249H116.231V19.1059H118.39V23.4579H122.249V19.1059H124.408V28.6939H122.912V30.1389H117.727Z" fill="white"/>
<defs>
<linearGradient id="paint0_linear_1063_222215" x1="127.3" y1="24.5138" x2="3.43488" y2="62.3221" gradientUnits="userSpaceOnUse">
<stop stop-color="#333333"/>
<stop offset="1" stop-color="#0A0A0A"/>
</linearGradient>
</defs>
</svg>
