<svg width="17" height="17" viewBox="0 0 17 17" fill="none" xmlns="http://www.w3.org/2000/svg">
<path d="M9.74847 8.01974L5.71651 3.98778C5.50438 3.77438 5.38531 3.4857 5.38531 3.1848C5.38531 2.8839 5.50438 2.59523 5.71651 2.38183C5.82239 2.27507 5.94837 2.19034 6.08716 2.13252C6.22595 2.07469 6.37483 2.04492 6.52518 2.04492C6.67554 2.04492 6.82441 2.07469 6.9632 2.13252C7.102 2.19034 7.22797 2.27507 7.33385 2.38183L12.1631 7.21107C12.2698 7.31695 12.3546 7.44292 12.4124 7.58172C12.4702 7.72051 12.5 7.86938 12.5 8.01974C12.5 8.1701 12.4702 8.31897 12.4124 8.45776C12.3546 8.59656 12.2698 8.72253 12.1631 8.82841L7.33385 13.7146C7.22743 13.8202 7.10121 13.9037 6.96244 13.9604C6.82367 14.017 6.67508 14.0458 6.52518 14.0449C6.37529 14.0458 6.22669 14.017 6.08792 13.9604C5.94915 13.9037 5.82294 13.8202 5.71651 13.7146C5.50438 13.5012 5.38531 13.2125 5.38531 12.9116C5.38531 12.6107 5.50438 12.3221 5.71651 12.1086L9.74847 8.01974Z" fill="white" fill-opacity="0.7"/>
</svg>
