<svg width="73" height="212" viewBox="0 0 73 212" fill="none" xmlns="http://www.w3.org/2000/svg">
<g id="Group 7">
<g id="Group 1410119435">
<rect id="Rectangle 59" x="66.9034" y="201.158" width="8.89972" height="62.9922" transform="rotate(90.5828 66.9034 201.158)" fill="white"/>
<rect id="Rectangle 60" width="20.0214" height="63.0355" transform="matrix(-0.0191995 0.999816 -0.998646 -0.0520111 67.2462 175.783)" fill="white"/>
<rect id="Rectangle 61" width="4.4492" height="63.0355" transform="matrix(-0.0191995 0.999816 -0.998646 -0.0520111 67.2887 164.656)" fill="white"/>
<rect id="Rectangle 62" width="4.4492" height="63.0355" transform="matrix(-0.0191995 0.999816 -0.998646 -0.0520111 67.4034 153.533)" fill="white"/>
<rect id="Rectangle 63" width="4.4492" height="63.0355" transform="matrix(-0.0191995 0.999816 -0.998646 -0.0520111 67.5153 142.406)" fill="white"/>
<rect id="Rectangle 64" width="11.123" height="63.0355" transform="matrix(-0.0191995 0.999816 -0.998646 -0.0520111 67.7277 124.609)" fill="white"/>
<rect id="Rectangle 65" width="2.2246" height="63.0355" transform="matrix(-0.0191995 0.999816 -0.998646 -0.0520111 67.7775 115.709)" fill="white"/>
<rect id="Rectangle 66" width="2.2246" height="63.0355" transform="matrix(-0.0191995 0.999816 -0.998646 -0.0520111 67.8668 106.809)" fill="white"/>
<rect id="Rectangle 67" width="2.2246" height="63.0355" transform="matrix(-0.0191995 0.999816 -0.998646 -0.0520111 67.9581 97.9102)" fill="white"/>
<rect id="Rectangle 68" width="2.2246" height="63.0355" transform="matrix(-0.0191995 0.999816 -0.998646 -0.0520111 68.0485 89.0156)" fill="white"/>
<rect id="Rectangle 69" width="2.2246" height="63.0355" transform="matrix(-0.0191995 0.999816 -0.998646 -0.0520111 68.1388 80.1113)" fill="white"/>
<rect id="Rectangle 70" width="2.2246" height="63.0355" transform="matrix(-0.0191995 0.999816 -0.998646 -0.0520111 68.2286 71.2129)" fill="white"/>
<rect id="Rectangle 71" width="8.8984" height="63.0355" transform="matrix(-0.0191995 0.999816 -0.998646 -0.0520111 68.4181 55.6406)" fill="white"/>
<rect id="Rectangle 72" width="8.8984" height="63.0355" transform="matrix(-0.0191995 0.999816 -0.998646 -0.0520111 68.5773 40.0645)" fill="white"/>
<rect id="Rectangle 73" width="6.6738" height="63.0355" transform="matrix(-0.0191995 0.999816 -0.998646 -0.0520111 68.7032 26.7207)" fill="white"/>
<rect id="Rectangle 74" width="6.6738" height="63.0355" transform="matrix(-0.0191995 0.999816 -0.998646 -0.0520111 68.8395 13.3672)" fill="white"/>
<rect id="Rectangle 75" width="2.2246" height="63.0355" transform="matrix(-0.0191995 0.999816 -0.998646 -0.0520111 68.9078 4.4707)" fill="white"/>
</g>
</g>
</svg>
