<svg width="262" height="28" viewBox="0 0 262 28" fill="none" xmlns="http://www.w3.org/2000/svg">
<g clip-path="url(#clip0_1706_37055)">
<rect x="198.687" y="-16.5352" width="10.5254" height="85.9683" fill="#2D2D2D"/>
<rect width="23.6789" height="86.0087" transform="matrix(0.9997 -0.0244854 -0.00137601 0.999999 167.191 -15.3984)" fill="#2D2D2D"/>
<rect width="5.26197" height="86.0087" transform="matrix(0.9997 -0.0244854 -0.00137601 0.999999 154.043 -14.8457)" fill="#2D2D2D"/>
<rect width="5.26197" height="86.0087" transform="matrix(0.9997 -0.0244854 -0.00137601 0.999999 140.895 -14.3887)" fill="#2D2D2D"/>
<rect width="5.26197" height="86.0087" transform="matrix(0.9997 -0.0244854 -0.00137601 0.999999 127.743 -13.9258)" fill="#2D2D2D"/>
<rect width="13.1549" height="86.0087" transform="matrix(0.9997 -0.0244854 -0.00137601 0.999999 106.705 -13.2344)" fill="#2D2D2D"/>
<rect width="2.63098" height="86.0087" transform="matrix(0.9997 -0.0244854 -0.00137601 0.999999 96.1876 -12.8105)" fill="#2D2D2D"/>
<rect width="2.63098" height="86.0087" transform="matrix(0.9997 -0.0244854 -0.00137601 0.999999 85.6673 -12.4434)" fill="#2D2D2D"/>
<rect width="2.63098" height="86.0087" transform="matrix(0.9997 -0.0244854 -0.00137601 0.999999 75.1494 -12.0762)" fill="#2D2D2D"/>
<rect width="2.63098" height="86.0087" transform="matrix(0.9997 -0.0244854 -0.00137601 0.999999 64.6358 -11.7109)" fill="#2D2D2D"/>
<rect width="2.63098" height="86.0087" transform="matrix(0.9997 -0.0244854 -0.00137601 0.999999 54.1109 -11.3438)" fill="#2D2D2D"/>
<rect width="2.63098" height="86.0087" transform="matrix(0.9997 -0.0244854 -0.00137601 0.999999 43.5935 -10.9707)" fill="#2D2D2D"/>
<rect width="10.5239" height="86.0087" transform="matrix(0.9997 -0.0244854 -0.00137601 0.999999 25.1851 -10.3711)" fill="#2D2D2D"/>
<rect width="10.5239" height="86.0087" transform="matrix(0.9997 -0.0244854 -0.00137601 0.999999 6.77385 -9.73242)" fill="#2D2D2D"/>
<rect width="1.95753" height="85.9834" transform="matrix(0.999782 -0.0209017 0.00790708 0.999969 256.255 -10.791)" fill="#2D2D2D"/>
<rect width="1.95753" height="85.9834" transform="matrix(0.999782 -0.0209017 0.00790708 0.999969 248.424 -10.5176)" fill="#2D2D2D"/>
<rect width="1.95753" height="85.9834" transform="matrix(0.999782 -0.0209017 0.00790708 0.999969 240.599 -10.2383)" fill="#2D2D2D"/>
<rect width="7.83011" height="85.9834" transform="matrix(0.999782 -0.0209017 0.00790708 0.999969 226.903 -9.80273)" fill="#2D2D2D"/>
<rect width="7.83011" height="85.9834" transform="matrix(0.999782 -0.0209017 0.00790708 0.999969 213.205 -9.32812)" fill="#2D2D2D"/>
<rect width="5.87259" height="85.9834" transform="matrix(0.999782 -0.0209017 0.00790708 0.999969 201.471 -8.9043)" fill="#2D2D2D"/>
<rect width="5.87259" height="85.9834" transform="matrix(0.999782 -0.0209017 0.00790708 0.999969 189.728 -8.49414)" fill="#2D2D2D"/>
<rect width="1.95753" height="85.9834" transform="matrix(0.999782 -0.0209017 0.00790708 0.999969 181.906 -8.19336)" fill="#2D2D2D"/>
</g>
<defs>
<clipPath id="clip0_1706_37055">
<rect width="262" height="28" fill="white"/>
</clipPath>
</defs>
</svg>
