<svg width="33" height="33" viewBox="0 0 33 33" fill="none" xmlns="http://www.w3.org/2000/svg">
<path d="M15.4998 10.5076C14.252 10.8488 13.4998 11.8063 13.4998 12.7109C13.4998 13.6155 14.252 14.5731 15.4998 14.9143V10.5076Z" fill="#FFC91A"/>
<path d="M17.4998 17.1742V21.581C18.7477 21.2397 19.4998 20.2822 19.4998 19.3776C19.4998 18.473 18.7477 17.5155 17.4998 17.1742Z" fill="#FFC91A"/>
<path fill-rule="evenodd" clip-rule="evenodd" d="M29.8332 16.0443C29.8332 23.4081 23.8636 29.3776 16.4998 29.3776C9.13604 29.3776 3.1665 23.4081 3.1665 16.0443C3.1665 8.68047 9.13604 2.71094 16.4998 2.71094C23.8636 2.71094 29.8332 8.68047 29.8332 16.0443ZM16.4998 7.04427C17.0521 7.04427 17.4998 7.49199 17.4998 8.04427V8.46658C19.6737 8.85583 21.4998 10.4891 21.4998 12.7109C21.4998 13.2632 21.0521 13.7109 20.4998 13.7109C19.9476 13.7109 19.4998 13.2632 19.4998 12.7109C19.4998 11.8063 18.7477 10.8488 17.4998 10.5076V15.1332C19.6737 15.5225 21.4998 17.1557 21.4998 19.3776C21.4998 21.5995 19.6737 23.2327 17.4998 23.622V24.0443C17.4998 24.5966 17.0521 25.0443 16.4998 25.0443C15.9476 25.0443 15.4998 24.5966 15.4998 24.0443V23.622C13.3259 23.2327 11.4998 21.5995 11.4998 19.3776C11.4998 18.8253 11.9476 18.3776 12.4998 18.3776C13.0521 18.3776 13.4998 18.8253 13.4998 19.3776C13.4998 20.2822 14.252 21.2397 15.4998 21.581V16.9553C13.3259 16.566 11.4998 14.9328 11.4998 12.7109C11.4998 10.4891 13.3259 8.85583 15.4998 8.46658V8.04427C15.4998 7.49199 15.9476 7.04427 16.4998 7.04427Z" fill="#FFC91A"/>
</svg>
