<svg width="51" height="52" viewBox="0 0 51 52" fill="none" xmlns="http://www.w3.org/2000/svg">
<path fill-rule="evenodd" clip-rule="evenodd" d="M42.767 44.4871C53.0234 35.0279 53.6697 19.0452 44.2105 8.78882C34.7514 -1.4676 18.7687 -2.11388 8.51229 7.34529C-1.74411 16.8045 -2.39041 32.7871 7.06877 43.0435C16.528 53.3 32.5106 53.9462 42.767 44.4871ZM19.7067 19.0495C19.0112 18.9955 18.4036 19.5156 18.3496 20.2111C18.2956 20.9067 18.8158 21.5142 19.5113 21.5682L28.6534 22.2775L18.7117 31.4465C18.1989 31.9194 18.1665 32.7186 18.6395 33.2314C19.1124 33.7442 19.9116 33.7765 20.4244 33.3036L30.3661 24.1346L30.335 33.3042C30.3326 34.0018 30.8962 34.5692 31.5939 34.5716C32.2915 34.574 32.8589 34.0104 32.8613 33.3127L32.9063 20.0736L19.7067 19.0495Z" fill="#151515"/>
</svg>
