<svg width="308" height="113" viewBox="0 0 308 113" fill="none" xmlns="http://www.w3.org/2000/svg">
<path d="M28.5624 112.802L22.7192 112.802L30.156 102.709L49.8101 104.303L49.8101 109.083L28.5624 112.802Z" fill="#101010"/>
<path d="M16.8758 65.5215L12.0951 65.5215L6.78316 69.2419L4.12719 71.1021L2.79921 72.0322L2.13522 72.4973L1.80322 72.7298L1.77002 81.9926L2.06882 81.9926L2.66641 81.9926L3.8616 81.9926L6.25197 81.9926L16.8758 71.3688L16.8758 65.5215Z" fill="#101010"/>
<path d="M306.054 112.584L258.431 112.625L258.414 100.374L281.468 100.354L281.46 94.6235L264.443 77.6442L258.251 77.6495L258.234 65.3322L269.498 65.3225L287.373 83.1573L293.762 83.1518L293.737 65.3016L305.989 65.291L306.014 83.4047L293.778 94.9422L293.785 100.343L306.037 100.333L306.054 112.584Z" fill="#101010"/>
<path d="M236.9 112.643L224.583 112.654L224.535 77.6777L209.649 77.6906L209.632 65.3732L251.656 65.337L251.673 77.6543L236.852 77.6671L236.9 112.643Z" fill="#101010"/>
<path d="M212.912 112.662L200.661 112.673L200.636 94.6909L183.553 77.7116L177.427 77.7169L177.475 112.693L165.158 112.703L165.093 65.4102L188.674 65.3899L212.88 89.6084L212.912 112.662Z" fill="#101010"/>
<path d="M158.561 112.707L123.388 112.738L110.658 100.497L110.61 65.4553L122.928 65.4446L122.976 100.486L146.227 100.466L146.179 65.4246L158.496 65.4139L158.561 112.707Z" fill="#101010"/>
<path d="M104.077 112.758L56.2567 112.799L56.1919 65.5061L104.012 65.4648L104.077 112.758ZM91.7428 100.517L91.7117 77.7927L68.5261 77.8127L68.5573 100.537L91.7428 100.517Z" fill="#101010"/>
<path d="M49.595 65.5097L49.6193 83.2281L43.4359 89.1616L49.6357 95.1502L49.6506 106.018L30.0878 106.035L23.2468 112.826L1.77383 112.844L1.72362 76.2216L6.66372 76.2173L14.6227 68.1746L14.6191 65.5398L49.595 65.5097ZM37.2948 77.9693L13.9775 77.9895L13.9853 83.6541L37.3026 83.634L37.2948 77.9693ZM14.0083 100.45L37.3256 100.43L37.3191 95.6878L14.0018 95.7079L14.0083 100.45ZM25.6181 112.824L30.7487 107.681L49.6529 107.665L49.6599 112.803L25.6181 112.824ZM12.9751 67.5173L5.93691 74.5712L1.72136 74.5749L1.70898 65.551L12.9724 65.5413L12.9751 67.5173Z" fill="#101010"/>
<path fill-rule="evenodd" clip-rule="evenodd" d="M307.126 49.5879L257.378 49.6308L257.359 35.2546L280.412 35.2347L280.407 31.0066L264.012 14.6492L257.199 14.6551L257.179 0.21296L269.945 0.201944L287.819 18.0368L292.706 18.0326L292.682 0.182325L307.058 0.169919L307.085 19.8051L294.849 31.3426L294.854 35.2223L307.106 35.2117L307.126 49.5879ZM293.794 36.2856L293.786 30.8844L306.022 19.3469L305.997 1.23322L293.745 1.24379L293.77 19.094L287.381 19.0995L269.506 1.26471L258.243 1.27443L258.259 13.5917L264.451 13.5864L281.468 30.5657L281.476 36.2962L258.422 36.3161L258.439 48.5675L306.062 48.5264L306.045 36.275L293.794 36.2856Z" fill="#101010"/>
<path fill-rule="evenodd" clip-rule="evenodd" d="M237.973 49.6486L223.531 49.6611L223.483 14.6852L208.597 14.698L208.577 0.255929L252.725 0.217833L252.745 14.6599L237.925 14.6727L237.973 49.6486ZM224.544 13.6219L224.592 48.5978L236.909 48.5871L236.861 13.6112L251.681 13.5985L251.664 1.28114L209.641 1.3174L209.657 13.6347L224.544 13.6219Z" fill="#101010"/>
<path fill-rule="evenodd" clip-rule="evenodd" d="M213.984 49.668L199.608 49.6804L199.582 31.0773L183.124 14.7187L178.499 14.7227L178.547 49.6986L164.105 49.711L164.037 0.293038L189.121 0.271393L213.95 25.1126L213.984 49.668ZM177.435 13.6612L183.561 13.6559L200.644 30.6351L200.669 48.6171L212.92 48.6065L212.889 25.5527L188.682 1.33416L165.101 1.35451L165.166 48.6477L177.483 48.6371L177.435 13.6612Z" fill="#101010"/>
<path fill-rule="evenodd" clip-rule="evenodd" d="M159.633 49.7128L122.969 49.7444L109.605 36.8937L109.555 0.337962L123.997 0.3255L124.045 35.3673L145.172 35.349L145.124 0.30727L159.566 0.294808L159.633 49.7128ZM146.235 36.4105L122.984 36.4306L122.936 1.3888L110.619 1.39943L110.667 36.4412L123.396 48.6817L158.57 48.6513L158.505 1.35811L146.187 1.36874L146.235 36.4105Z" fill="#101010"/>
<path fill-rule="evenodd" clip-rule="evenodd" d="M105.15 49.7636L55.2045 49.8067L55.1368 0.388741L105.082 0.345644L105.15 49.7636ZM68.5348 13.7569L68.566 36.4814L91.7515 36.4613L91.7204 13.7369L68.5348 13.7569ZM90.6595 14.8002L69.5987 14.8184L69.6269 35.4181L90.6877 35.3999L90.6595 14.8002ZM104.086 48.7022L104.021 1.40895L56.2006 1.45021L56.2655 48.7434L104.086 48.7022Z" fill="#101010"/>
<path fill-rule="evenodd" clip-rule="evenodd" d="M50.6651 0.390657L50.6915 19.6252L44.9768 25.1088L50.7066 30.6435L50.7329 49.8087L0.722059 49.8518L0.654297 0.433811L50.6651 0.390657ZM1.71814 1.49528L1.78299 48.7885L49.6042 48.7472L49.6597 41.9628L49.6448 31.0946L43.445 25.1059L49.6285 19.1725L49.6042 1.45396L1.71814 1.49528ZM25.6272 48.7679L49.6042 48.7472L49.662 43.6095L49.6691 48.7472L25.6272 48.7679ZM13.9867 13.9338L37.304 13.9136L37.3117 19.5783L13.9944 19.5984L13.9867 13.9338ZM15.0554 18.5351L36.2479 18.5168L36.243 14.9769L15.0505 14.9952L15.0554 18.5351ZM37.3348 36.3746L14.0175 36.3947L14.011 31.6523L37.3283 31.6321L37.3348 36.3746ZM36.2673 32.6954L15.0748 32.7137L15.0784 35.3314L36.2709 35.3132L36.2673 32.6954Z" fill="#101010"/>
</svg>
