<svg width="73" height="212" viewBox="0 0 73 212" fill="none" xmlns="http://www.w3.org/2000/svg">
<rect x="66.9033" y="201.158" width="8.89972" height="62.9922" transform="rotate(90.5828 66.9033 201.158)" fill="#2D2D2D"/>
<rect width="20.0214" height="63.0355" transform="matrix(-0.0191995 0.999816 -0.998646 -0.0520111 67.2461 175.783)" fill="#2D2D2D"/>
<rect width="4.4492" height="63.0355" transform="matrix(-0.0191995 0.999816 -0.998646 -0.0520111 67.2886 164.656)" fill="#2D2D2D"/>
<rect width="4.4492" height="63.0355" transform="matrix(-0.0191995 0.999816 -0.998646 -0.0520111 67.4033 153.533)" fill="#2D2D2D"/>
<rect width="4.4492" height="63.0355" transform="matrix(-0.0191995 0.999816 -0.998646 -0.0520111 67.5151 142.406)" fill="#2D2D2D"/>
<rect width="11.123" height="63.0355" transform="matrix(-0.0191995 0.999816 -0.998646 -0.0520111 67.7275 124.609)" fill="#2D2D2D"/>
<rect width="2.2246" height="63.0355" transform="matrix(-0.0191995 0.999816 -0.998646 -0.0520111 67.7773 115.709)" fill="#2D2D2D"/>
<rect width="2.2246" height="63.0355" transform="matrix(-0.0191995 0.999816 -0.998646 -0.0520111 67.8667 106.809)" fill="#2D2D2D"/>
<rect width="2.2246" height="63.0355" transform="matrix(-0.0191995 0.999816 -0.998646 -0.0520111 67.958 97.9102)" fill="#2D2D2D"/>
<rect width="2.2246" height="63.0355" transform="matrix(-0.0191995 0.999816 -0.998646 -0.0520111 68.0483 89.0156)" fill="#2D2D2D"/>
<rect width="2.2246" height="63.0355" transform="matrix(-0.0191995 0.999816 -0.998646 -0.0520111 68.1387 80.1113)" fill="#2D2D2D"/>
<rect width="2.2246" height="63.0355" transform="matrix(-0.0191995 0.999816 -0.998646 -0.0520111 68.2285 71.2129)" fill="#2D2D2D"/>
<rect width="8.8984" height="63.0355" transform="matrix(-0.0191995 0.999816 -0.998646 -0.0520111 68.418 55.6406)" fill="#2D2D2D"/>
<rect width="8.8984" height="63.0355" transform="matrix(-0.0191995 0.999816 -0.998646 -0.0520111 68.5771 40.0645)" fill="#2D2D2D"/>
<rect width="6.6738" height="63.0355" transform="matrix(-0.0191995 0.999816 -0.998646 -0.0520111 68.7031 26.7207)" fill="#2D2D2D"/>
<rect width="6.6738" height="63.0355" transform="matrix(-0.0191995 0.999816 -0.998646 -0.0520111 68.8394 13.3672)" fill="#2D2D2D"/>
<rect width="2.2246" height="63.0355" transform="matrix(-0.0191995 0.999816 -0.998646 -0.0520111 68.9077 4.4707)" fill="#2D2D2D"/>
</svg>
