<svg width="16" height="17" viewBox="0 0 16 17" fill="none" xmlns="http://www.w3.org/2000/svg">
<path fill-rule="evenodd" clip-rule="evenodd" d="M8.0665 1.37891V4.04557L8.0665 4.08352V4.08352V4.08353V4.08353C8.06647 4.52237 8.06644 4.91019 8.10847 5.22279C8.15402 5.56164 8.25863 5.90044 8.53513 6.17694C8.81164 6.45345 9.15044 6.55805 9.48928 6.60361C9.80189 6.64564 10.1897 6.64561 10.6286 6.64558L10.6665 6.64557H13.3332V10.7122C13.3332 12.5979 13.3332 13.5407 12.7474 14.1265C12.1616 14.7122 11.2188 14.7122 9.33317 14.7122H6.6665C4.78089 14.7122 3.83808 14.7122 3.25229 14.1265C2.6665 13.5407 2.6665 12.5979 2.6665 10.7122V5.37891C2.6665 3.49329 2.6665 2.55048 3.25229 1.96469C3.83808 1.37891 4.78089 1.37891 6.6665 1.37891H8.0665ZM9.2665 1.38064V4.04557C9.2665 4.53394 9.26778 4.83985 9.29777 5.0629C9.32543 5.26868 9.36728 5.31203 9.38366 5.32842C9.40005 5.3448 9.4434 5.38665 9.64918 5.41431C9.87222 5.4443 10.1781 5.44557 10.6665 5.44557H13.3314C13.3264 5.13319 13.307 4.93617 13.2317 4.75428C13.1302 4.50925 12.9375 4.31657 12.5521 3.9312L12.5521 3.93119L10.7809 2.15995C10.3955 1.77458 10.2028 1.58189 9.9578 1.4804C9.77591 1.40506 9.57889 1.38565 9.2665 1.38064ZM5.39984 8.71224C5.39984 8.38087 5.66847 8.11224 5.99984 8.11224L9.99984 8.11224C10.3312 8.11224 10.5998 8.38087 10.5998 8.71224C10.5998 9.04361 10.3312 9.31224 9.99984 9.31224L5.99984 9.31224C5.66847 9.31224 5.39984 9.04361 5.39984 8.71224ZM5.99984 10.7789C5.66847 10.7789 5.39984 11.0475 5.39984 11.3789C5.39984 11.7103 5.66847 11.9789 5.99984 11.9789H8.6665C8.99787 11.9789 9.2665 11.7103 9.2665 11.3789C9.2665 11.0475 8.99788 10.7789 8.6665 10.7789L5.99984 10.7789Z"/>
</svg>
