<svg width="56" height="56" viewBox="0 0 56 56" fill="none" xmlns="http://www.w3.org/2000/svg">
<path d="M28 56C43.464 56 56 43.464 56 28C56 12.536 43.464 -3.44329e-07 28 -2.21821e-07C12.536 -9.93126e-08 9.93126e-08 12.536 2.21821e-07 28C3.44329e-07 43.464 12.536 56 28 56Z" fill="#2D2D2D"/>
<path d="M26.9321 15.4993C26.2962 14.8669 25.2256 14.8303 24.5407 15.4175C23.8559 16.0047 23.8163 16.9934 24.4522 17.6257L32.8105 25.9375L34.3479 27.5L32.8105 29.0625L24.4522 37.3743C23.8163 38.0066 23.8559 38.9953 24.5407 39.5825C25.2256 40.1697 26.2962 40.1331 26.9321 39.5007L39 27.5L26.9321 15.4993Z" fill="white"/>
</svg>
