<svg width="17" height="17" viewBox="0 0 17 17" fill="none" xmlns="http://www.w3.org/2000/svg">
<path d="M12.8889 5.37825C13.6866 5.37826 14.3333 6.02495 14.3333 6.8227C14.3333 7.62044 13.6866 8.26714 12.8889 8.26714C12.0911 8.26714 11.4444 7.62044 11.4444 6.8227C11.4444 6.02495 12.0911 5.37825 12.8889 5.37825Z" fill="white"/>
<path d="M12.8889 11.156C13.6866 11.156 14.3333 11.8027 14.3333 12.6005C14.3333 13.3982 13.6866 14.0449 12.8889 14.0449C12.0911 14.0449 11.4444 13.3982 11.4444 12.6005C11.4444 11.8027 12.0911 11.156 12.8889 11.156Z" fill="white"/>
<path d="M4.94444 3.93381C4.1467 3.93381 3.5 3.28711 3.5 2.48937C3.5 1.69162 4.1467 1.04492 4.94444 1.04492C5.74219 1.04492 6.38889 1.69162 6.38889 2.48937C6.38889 3.28711 5.74219 3.93381 4.94444 3.93381Z" fill="white"/>
<path d="M11.4444 6.8227C11.4444 6.02495 12.0911 5.37826 12.8889 5.37826C13.6866 5.37826 14.3333 6.02495 14.3333 6.8227C14.3333 7.62044 13.6866 8.26714 12.8889 8.26714C12.0911 8.26714 11.4444 7.62044 11.4444 6.8227ZM11.4444 6.8227L7.83333 6.8227C6.4715 6.8227 5.79058 6.8227 5.36751 6.39963C4.94444 5.97656 4.94444 5.29565 4.94444 3.93381M11.4444 12.6005C11.4444 11.8027 12.0911 11.156 12.8889 11.156C13.6866 11.156 14.3333 11.8027 14.3333 12.6005C14.3333 13.3982 13.6866 14.0449 12.8889 14.0449C12.0911 14.0449 11.4444 13.3982 11.4444 12.6005ZM11.4444 12.6005H7.83333C6.4715 12.6005 5.79058 12.6005 5.36751 12.1774C4.94444 11.7543 4.94444 11.0734 4.94444 9.71159V3.21159M4.94444 3.93381C5.74219 3.93381 6.38889 3.28711 6.38889 2.48937C6.38889 1.69162 5.74219 1.04492 4.94444 1.04492C4.1467 1.04492 3.5 1.69162 3.5 2.48937C3.5 3.28711 4.1467 3.93381 4.94444 3.93381Z" stroke="white" stroke-width="1.2"/>
</svg>
