<svg width="242" height="17" viewBox="0 0 242 17" fill="none" xmlns="http://www.w3.org/2000/svg">
<path d="M2 13.22L2 11.48H0.22L0.22 2.06L2 2.06V0.299999L7.9 0.299999V2.06H9.7L9.7 6.22H7.36L7.36 2.74L2.54 2.74L2.54 10.8L7.36 10.8V7.28H9.7V11.48H7.9V13.22L2 13.22ZM11.5341 13.22V5.56L13.3141 5.56V3.8L19.2141 3.8V5.56H21.0141V7.96H18.6741V6.22L13.8541 6.22V13.22H11.5341ZM24.0227 13.22V11.48H22.2427L22.2427 5.56L24.0227 5.56V3.8L29.9227 3.8V5.56H31.7227V7.96H29.3827V6.22L24.5627 6.22V7.28L28.1427 7.28L28.1427 9.72L24.5627 9.72V10.8L29.3827 10.8L29.3827 9.02H31.7227V11.46H29.9227V13.22L24.0227 13.22ZM35.3367 13.22V11.48H33.5567V5.56L35.3367 5.56V3.8L41.2367 3.8V5.56H43.0367V10.8H44.8367V13.22H42.4967V11.48H41.2367V13.22L35.3367 13.22ZM35.8767 10.8L40.6967 10.8V6.22L35.8767 6.22V10.8ZM48.0206 13.22V11.48H46.2406V6.22H44.4606V3.8L46.2406 3.8V0.299999L48.5606 0.299999V3.8L53.9406 3.8V6.22L48.5606 6.22V10.8L53.4006 10.8V9.04H55.7406V11.48H53.9406V13.22L48.0206 13.22ZM58.7461 13.22V11.48H56.9661V5.56L58.7461 5.56V3.8L64.6461 3.8V5.56H66.4461V7.96H64.1061V6.22L59.2861 6.22V7.28L62.8661 7.28V9.72L59.2861 9.72V10.8L64.1061 10.8V9.02H66.4461V11.46H64.6461V13.22L58.7461 13.22ZM68.2802 13V10.56H70.6002V13H68.2802ZM75.8497 13.22V2.06H77.6297V0.299999L83.5297 0.299999V2.06L85.3297 2.06V7.96H83.5297V9.72L78.1697 9.72V13.22H75.8497ZM78.1697 7.28L82.9897 7.28V2.74L78.1697 2.74V7.28ZM88.3383 13.22V11.48H86.5583V5.56H88.3383V3.8L94.2383 3.8V5.56L96.0383 5.56V10.8H97.8383V13.22H95.4983V11.48H94.2383V13.22L88.3383 13.22ZM88.8783 10.8L93.6983 10.8V6.22L88.8783 6.22V10.8ZM99.6692 13.22V5.56L101.449 5.56V3.8L107.349 3.8V5.56H109.149V7.96H106.809V6.22L101.989 6.22V13.22H99.6692ZM114.543 13.22V11.48H112.763V6.22H110.983V3.8L112.763 3.8V0.299999L115.083 0.299999V3.8L120.463 3.8V6.22H115.083V10.8H119.923V9.04H122.263V11.48H120.463V13.22L114.543 13.22ZM124.094 13.22V3.8H126.414V13.22L124.094 13.22ZM124.094 2.74V0.299999L126.414 0.299999V2.74H124.094ZM129.649 13.22V11.48H127.869V5.56L129.649 5.56V3.8L135.549 3.8V5.56H137.349V7.96L135.009 7.96V6.22H130.189V10.8H135.009V9.04L137.349 9.04V11.48L135.549 11.48V13.22H129.649ZM139.183 13.22V3.8L141.503 3.8V13.22H139.183ZM139.183 2.74V0.299999L141.503 0.299999V2.74L139.183 2.74ZM143.349 16.62V5.56H145.129V3.8L151.029 3.8V5.56H152.829V11.48H151.029V13.22L145.669 13.22V16.62H143.349ZM145.669 10.8L150.489 10.8V6.22L145.669 6.22V10.8ZM156.443 13.22V11.48H154.663V5.56L156.443 5.56V3.8L162.343 3.8V5.56H164.143V10.8H165.943V13.22H163.603V11.48H162.343V13.22L156.443 13.22ZM156.983 10.8L161.803 10.8V6.22L156.983 6.22V10.8ZM169.127 13.22V11.48H167.347V6.22H165.567V3.8H167.347V0.299999L169.667 0.299999V3.8L175.047 3.8V6.22L169.667 6.22V10.8L174.507 10.8V9.04H176.847V11.48H175.047V13.22L169.127 13.22ZM179.852 13.22V11.48H178.072V5.56L179.852 5.56V3.8L185.752 3.8V5.56H187.552V7.96H185.212V6.22L180.392 6.22V7.28L183.972 7.28V9.72L180.392 9.72V10.8L185.212 10.8V9.02H187.552V11.46H185.752V13.22L179.852 13.22ZM189.386 13V10.56H191.706V13H189.386ZM198.736 13.22V11.48H196.956V2.06H198.736V0.299999L204.636 0.299999V2.06L206.436 2.06V4.48L204.096 4.48V2.74L199.276 2.74V5.56L202.856 5.56V7.96H199.276V10.8L204.096 10.8V9.04H206.436V11.48H204.636V13.22L198.736 13.22ZM210.05 13.22V11.48H208.27V5.56H210.05V3.8L215.95 3.8V5.56L217.75 5.56V10.8H219.55V13.22H217.21V11.48H215.95V13.22L210.05 13.22ZM210.59 10.8L215.41 10.8V6.22L210.59 6.22V10.8ZM221.381 13.22V5.56L223.161 5.56V3.8L229.061 3.8V5.56H230.861V7.96H228.521V6.22L223.701 6.22V13.22H221.381ZM232.09 13.22V3.8L239.77 3.8V5.56H241.57V13.22H239.23V6.22L234.41 6.22V13.22H232.09Z" fill="#2D2D2D"/>
</svg>
