<svg width="92" height="208" viewBox="0 0 92 208" fill="none" xmlns="http://www.w3.org/2000/svg">
<path d="M23.9236 204.036L20.7046 204.036L20.7046 207.329L3.2776 207.329L3.2776 204.036L0.0215997 204.036L0.0215996 193.121L3.2776 193.121L3.2776 189.791L10.9736 189.791L10.9736 194.12L4.5356 194.12L4.5356 203.037L19.4466 203.037L19.4466 194.12L12.9346 194.12L12.9346 189.791L20.7046 189.791L20.7046 193.121L23.9236 193.121L23.9236 204.036ZM23.9236 186.398L9.7526 186.398L9.7526 183.105L6.4966 183.105L6.4966 172.19L9.7526 172.19L9.7526 168.86L14.1926 168.86L14.1926 173.189L10.9736 173.189L10.9736 182.106L23.9236 182.106L23.9236 186.398ZM23.9236 163.294L20.7046 163.294L20.7046 166.587L9.7526 166.587L9.7526 163.294L6.4966 163.294L6.4966 152.379L9.7526 152.379L9.7526 149.049L14.1926 149.049L14.1926 153.378L10.9736 153.378L10.9736 162.295L12.9346 162.295L12.9346 155.672L17.4486 155.672L17.4486 162.295L19.4466 162.295L19.4466 153.378L16.1536 153.378L16.1536 149.049L20.6676 149.049L20.6676 152.379L23.9236 152.379L23.9236 163.294ZM23.9236 142.363L20.7046 142.363L20.7046 145.656L9.7526 145.656L9.7526 142.363L6.4966 142.363L6.4966 131.448L9.7526 131.448L9.7526 128.118L19.4466 128.118L19.4466 124.788L23.9236 124.788L23.9236 129.117L20.7046 129.117L20.7046 131.448L23.9236 131.448L23.9236 142.363ZM19.4466 141.364L19.4466 132.447L10.9736 132.447L10.9736 141.364L19.4466 141.364ZM23.9236 118.898L20.7046 118.898L20.7046 122.191L10.9736 122.191L10.9736 125.484L6.4966 125.484L6.4966 122.191L0.021599 122.191L0.021599 117.899L6.4966 117.899L6.4966 107.946L10.9736 107.946L10.9736 117.899L19.4466 117.899L19.4466 108.945L16.1906 108.945L16.1906 104.616L20.7046 104.616L20.7046 107.946L23.9236 107.946L23.9236 118.898ZM23.9236 99.0557L20.7046 99.0557L20.7046 102.349L9.7526 102.349L9.7526 99.0557L6.4966 99.0557L6.4966 88.1407L9.7526 88.1407L9.7526 84.8107L14.1926 84.8107L14.1926 89.1397L10.9736 89.1397L10.9736 98.0567L12.9346 98.0567L12.9346 91.4337L17.4486 91.4337L17.4486 98.0567L19.4466 98.0567L19.4466 89.1397L16.1536 89.1397L16.1536 84.8107L20.6676 84.8107L20.6676 88.1407L23.9236 88.1407L23.9236 99.0557ZM57.9236 207.329L37.2776 207.329L37.2776 204.036L34.0216 204.036L34.0216 193.121L37.2776 193.121L37.2776 189.791L48.1926 189.791L48.1926 193.121L51.4486 193.121L51.4486 203.037L57.9236 203.037L57.9236 207.329ZM46.9346 203.037L46.9346 194.12L38.5356 194.12L38.5356 203.037L46.9346 203.037ZM57.9236 184.225L54.7046 184.225L54.7046 187.518L43.7526 187.518L43.7526 184.225L40.4966 184.225L40.4966 173.31L43.7526 173.31L43.7526 169.98L53.4466 169.98L53.4466 166.65L57.9236 166.65L57.9236 170.979L54.7046 170.979L54.7046 173.31L57.9236 173.31L57.9236 184.225ZM53.4466 183.226L53.4466 174.309L44.9736 174.309L44.9736 183.226L53.4466 183.226ZM57.9236 163.263L43.7526 163.263L43.7526 159.97L40.4966 159.97L40.4966 149.055L43.7526 149.055L43.7526 145.725L48.1926 145.725L48.1926 150.054L44.9736 150.054L44.9736 158.971L57.9236 158.971L57.9236 163.263ZM57.9236 135.746L54.7046 135.746L54.7046 139.039L44.9736 139.039L44.9736 142.332L40.4966 142.332L40.4966 139.039L34.0216 139.039L34.0216 134.747L40.4966 134.747L40.4966 124.794L44.9736 124.794L44.9736 134.747L53.4466 134.747L53.4466 125.793L50.1906 125.793L50.1906 121.464L54.7046 121.464L54.7046 124.794L57.9236 124.794L57.9236 135.746ZM57.9236 118.077L40.4966 118.077L40.4966 113.785L57.9236 113.785L57.9236 118.077ZM38.5356 118.077L34.0216 118.077L34.0216 113.785L38.5356 113.785L38.5356 118.077ZM57.9236 107.8L54.7046 107.8L54.7046 111.093L43.7526 111.093L43.7526 107.8L40.4966 107.8L40.4966 96.8848L43.7526 96.8848L43.7526 93.5548L48.1926 93.5548L48.1926 97.8838L44.9736 97.8838L44.9736 106.801L53.4466 106.801L53.4466 97.8838L50.1906 97.8838L50.1906 93.5548L54.7046 93.5548L54.7046 96.8848L57.9236 96.8848L57.9236 107.8ZM57.9236 90.1618L40.4966 90.1618L40.4966 85.8698L57.9236 85.8698L57.9236 90.1618ZM38.5356 90.1618L34.0216 90.1618L34.0216 85.8698L38.5356 85.8698L38.5356 90.1618ZM64.2136 82.4554L43.7526 82.4554L43.7526 79.1624L40.4966 79.1624L40.4966 68.2474L43.7526 68.2474L43.7526 64.9174L54.7046 64.9174L54.7046 68.2474L57.9236 68.2474L57.9236 78.1634L64.2136 78.1634L64.2136 82.4554ZM53.4466 78.1634L53.4466 69.2464L44.9736 69.2464L44.9736 78.1634L53.4466 78.1634ZM57.9236 58.2314L54.7046 58.2314L54.7046 61.5244L43.7526 61.5244L43.7526 58.2314L40.4966 58.2314L40.4966 47.3164L43.7526 47.3164L43.7526 43.9864L53.4466 43.9864L53.4466 40.6564L57.9236 40.6564L57.9236 44.9854L54.7046 44.9854L54.7046 47.3164L57.9236 47.3164L57.9236 58.2314ZM53.4466 57.2324L53.4466 48.3154L44.9736 48.3154L44.9736 57.2324L53.4466 57.2324ZM57.9236 34.7661L54.7046 34.7661L54.7046 38.0591L44.9736 38.0591L44.9736 41.3521L40.4966 41.3521L40.4966 38.0591L34.0216 38.0591L34.0216 33.7671L40.4966 33.7671L40.4966 23.8141L44.9736 23.8141L44.9736 33.7671L53.4466 33.7671L53.4466 24.8131L50.1906 24.8131L50.1906 20.4841L54.7046 20.4841L54.7046 23.8141L57.9236 23.8141L57.9236 34.7661ZM57.9236 14.924L54.7046 14.924L54.7046 18.217L43.7526 18.217L43.7526 14.924L40.4966 14.924L40.4966 4.00903L43.7526 4.00903L43.7526 0.679028L48.1926 0.679028L48.1926 5.00803L44.9736 5.00803L44.9736 13.925L46.9346 13.925L46.9346 7.30203L51.4486 7.30203L51.4486 13.925L53.4466 13.925L53.4466 5.00803L50.1536 5.00803L50.1536 0.679028L54.6676 0.679028L54.6676 4.00903L57.9236 4.00903L57.9236 14.924ZM91.9236 204.036L88.7046 204.036L88.7046 207.329L71.2776 207.329L71.2776 204.036L68.0216 204.036L68.0216 193.121L71.2776 193.121L71.2776 189.791L75.7546 189.791L75.7546 194.12L72.5356 194.12L72.5356 203.037L77.7526 203.037L77.7526 196.414L82.1926 196.414L82.1926 203.037L87.4466 203.037L87.4466 194.12L84.1906 194.12L84.1906 189.791L88.7046 189.791L88.7046 193.121L91.9236 193.121L91.9236 204.036ZM91.9236 183.105L88.7046 183.105L88.7046 186.398L77.7526 186.398L77.7526 183.105L74.4966 183.105L74.4966 172.19L77.7526 172.19L77.7526 168.86L87.4466 168.86L87.4466 165.53L91.9236 165.53L91.9236 169.859L88.7046 169.859L88.7046 172.19L91.9236 172.19L91.9236 183.105ZM87.4466 182.106L87.4466 173.189L78.9736 173.189L78.9736 182.106L87.4466 182.106ZM91.9236 162.143L77.7526 162.143L77.7526 158.85L74.4966 158.85L74.4966 147.935L77.7526 147.935L77.7526 144.605L82.1926 144.605L82.1926 148.934L78.9736 148.934L78.9736 157.851L91.9236 157.851L91.9236 162.143ZM91.9236 142.332L74.4966 142.332L74.4966 128.124L77.7526 128.124L77.7526 124.794L91.9236 124.794L91.9236 129.123L78.9736 129.123L78.9736 138.04L91.9236 138.04L91.9236 142.332Z" fill="white"/>
</svg>
