<svg width="16" height="17" viewBox="0 0 16 17" fill="none" xmlns="http://www.w3.org/2000/svg">
<path fill-rule="evenodd" clip-rule="evenodd" d="M11.1132 8.7976C12.0265 9.4176 12.6665 10.2576 12.6665 11.3776V13.3776H15.3332V11.3776C15.3332 9.92427 12.9532 9.06427 11.1132 8.7976Z" />
<path d="M5.99984 8.04427C7.4726 8.04427 8.6665 6.85036 8.6665 5.3776C8.6665 3.90484 7.4726 2.71094 5.99984 2.71094C4.52708 2.71094 3.33317 3.90484 3.33317 5.3776C3.33317 6.85036 4.52708 8.04427 5.99984 8.04427Z" />
<path fill-rule="evenodd" clip-rule="evenodd" d="M9.99984 8.04427C11.4732 8.04427 12.6665 6.85094 12.6665 5.3776C12.6665 3.90427 11.4732 2.71094 9.99984 2.71094C9.6865 2.71094 9.39317 2.7776 9.11317 2.87094C9.6665 3.5576 9.99984 4.43094 9.99984 5.3776C9.99984 6.32427 9.6665 7.1976 9.11317 7.88427C9.39317 7.9776 9.6865 8.04427 9.99984 8.04427Z" />
<path fill-rule="evenodd" clip-rule="evenodd" d="M5.99984 8.71094C4.21984 8.71094 0.666504 9.60427 0.666504 11.3776V13.3776H11.3332V11.3776C11.3332 9.60427 7.77984 8.71094 5.99984 8.71094Z" />
</svg>
