<svg width="209" height="3" viewBox="0 0 209 3" fill="none" xmlns="http://www.w3.org/2000/svg">
<path fill-rule="evenodd" clip-rule="evenodd" d="M204 0.887642L208.734 0.887642V2.8125L204 2.8125V0.887642ZM185.067 0.887642L194.534 0.887642V2.8125L185.067 2.8125V0.887642ZM166.133 0.887642L175.6 0.887642V2.8125L166.133 2.8125V0.887642ZM147.2 0.887642L156.667 0.887642V2.8125L147.2 2.8125V0.887642ZM128.266 0.887642L137.733 0.887642V2.8125L128.266 2.8125V0.887642ZM109.333 0.887642L118.799 0.887642V2.8125L109.333 2.8125V0.887642ZM90.399 0.887642L99.8658 0.887642V2.8125L90.399 2.8125V0.887642ZM71.4654 0.887642L80.9322 0.887642V2.8125L71.4654 2.8125V0.887642ZM52.5318 0.887642L61.9986 0.887642V2.8125L52.5318 2.8125V0.887642ZM33.5983 0.887642L43.065 0.887642V2.8125L33.5983 2.8125V0.887642ZM14.6647 0.887642L24.1315 0.887642V2.8125L14.6647 2.8125V0.887642ZM0.464493 0.887642L5.19789 0.887642V2.8125L0.464493 2.8125V0.887642Z" fill="#B2B2B2" fill-opacity="0.8"/>
</svg>
