<svg width="3" height="209" viewBox="0 0 3 209" fill="none" xmlns="http://www.w3.org/2000/svg">
<path fill-rule="evenodd" clip-rule="evenodd" d="M2.66971 204.251L2.67486 208.984L0.75 208.986L0.744851 204.253L2.66971 204.251ZM2.64911 185.317L2.65941 194.784L0.734554 194.786L0.724257 185.319L2.64911 185.317ZM2.62852 166.384L2.63882 175.85L0.71396 175.853L0.703663 166.386L2.62852 166.384ZM2.60793 147.45L2.61822 156.917L0.693366 156.919L0.683068 147.452L2.60793 147.45ZM2.58733 128.517L2.59763 137.983L0.672771 137.985L0.662474 128.519L2.58733 128.517ZM2.56674 109.583L2.57703 119.05L0.652177 119.052L0.64188 109.585L2.56674 109.583ZM2.54614 90.6494L2.55644 100.116L0.631582 100.118L0.621285 90.6515L2.54614 90.6494ZM2.52555 71.7158L2.53585 81.1826L0.610988 81.1847L0.600691 71.7179L2.52555 71.7158ZM2.50495 52.7823L2.51525 62.2491L0.590394 62.2512L0.580097 52.7844L2.50495 52.7823ZM2.48436 33.8487L2.49466 43.3155L0.569799 43.3176L0.559502 33.8508L2.48436 33.8487ZM2.46376 14.9151L2.47406 24.3819L0.549205 24.384L0.538908 14.9172L2.46376 14.9151ZM2.44832 0.714952L2.45347 5.44835L0.528611 5.45044L0.523462 0.717046L2.44832 0.714952Z" fill="#B2B2B2" fill-opacity="0.8"/>
</svg>
