<svg width="20" height="29" viewBox="0 0 20 29" fill="none" xmlns="http://www.w3.org/2000/svg">
<path d="M10.0001 28.7116C7.99633 28.7114 6.0388 28.1093 4.38133 26.9832C2.72387 25.8571 1.44293 24.2591 0.704587 22.3963C-0.0337537 20.5335 -0.195436 18.4918 0.240502 16.536C0.676441 14.5802 1.68989 12.8005 3.14946 11.4276C4.93879 9.74359 9.33346 6.71159 8.66679 0.0449219C16.6668 5.37825 20.6668 10.7116 12.6668 18.7116C14.0001 18.7116 16.0001 18.7116 19.3335 15.4183C19.6935 16.4489 20.0001 17.5569 20.0001 18.7116C20.0001 21.3638 18.9466 23.9073 17.0712 25.7827C15.1958 27.658 12.6523 28.7116 10.0001 28.7116Z" fill="#FF4E02"/>
</svg>
