<svg width="32" height="32" viewBox="0 0 32 32" fill="none" xmlns="http://www.w3.org/2000/svg">
<path d="M15.9859 30C13.2176 29.9972 10.5122 29.1737 8.21177 27.6337C5.91134 26.0937 4.11912 23.9062 3.06165 21.3478C2.00419 18.7894 1.72895 15.9749 2.27073 13.2601C2.81252 10.5453 4.147 8.05206 6.10549 6.09553C8.06398 4.13901 10.5586 2.80704 13.2739 2.26798C15.9893 1.72893 18.8035 2.007 21.3608 3.06704C23.9182 4.12708 26.1038 5.9215 27.6415 8.22348C29.1793 10.5255 30 13.2317 30 16C30.0008 17.8399 29.6388 19.662 28.9347 21.3618C28.2306 23.0617 27.1981 24.606 25.8964 25.9064C24.5947 27.2068 23.0494 28.2377 21.3488 28.9401C19.6482 29.6425 17.8258 30.0027 15.9859 30ZM16 4.79935C13.7847 4.79935 11.6192 5.45625 9.77725 6.687C7.93532 7.91774 6.4997 9.66704 5.65195 11.7137C4.8042 13.7603 4.58239 16.0124 5.01457 18.1851C5.44675 20.3578 6.51351 22.3536 8.07995 23.92C9.64638 25.4865 11.6421 26.5532 13.8149 26.9854C15.9876 27.4176 18.2396 27.1958 20.2863 26.348C22.3329 25.5003 24.0823 24.0647 25.313 22.2227C26.5437 20.3808 27.2006 18.2153 27.2006 16C27.2012 14.5289 26.9119 13.0722 26.3492 11.713C25.7865 10.3538 24.9615 9.11886 23.9213 8.07867C22.8811 7.03848 21.6462 6.21347 20.287 5.65079C18.9278 5.0881 17.471 4.79878 16 4.79935Z" fill="#485F7D"/>
<path d="M17.4002 10.1835C17.4002 10.9568 16.7733 11.5837 16 11.5837C15.2267 11.5837 14.5998 10.9568 14.5998 10.1835C14.5998 9.41016 15.2267 8.78326 16 8.78326C16.7733 8.78326 17.4002 9.41016 17.4002 10.1835Z" fill="#485F7D"/>
<path d="M17.4002 21.5998V14.9162C17.4002 14.5449 17.2527 14.1887 16.9901 13.9261C16.7275 13.6636 16.3714 13.516 16 13.516C15.6286 13.516 15.2725 13.6636 15.0099 13.9261C14.7473 14.1887 14.5998 14.5449 14.5998 14.9162V21.5998C14.5998 21.9711 14.7473 22.3273 15.0099 22.5899C15.2725 22.8525 15.6286 23 16 23C16.3714 23 16.7275 22.8525 16.9901 22.5899C17.2527 22.3273 17.4002 21.9711 17.4002 21.5998Z" fill="#485F7D"/>
</svg>
