<svg width="24" height="24" viewBox="0 0 24 24" fill="none" xmlns="http://www.w3.org/2000/svg">
<path fill-rule="evenodd" clip-rule="evenodd" d="M6 4C4.89543 4 4 4.89543 4 6V18C4 19.1046 4.89543 20 6 20H18C19.1046 20 20 19.1046 20 18V6C20 4.89543 19.1046 4 18 4H6ZM16.3309 8.8297C16.4848 8.67581 16.5712 8.46708 16.5712 8.24944C16.5712 8.14167 16.55 8.03496 16.5088 7.9354C16.4675 7.83584 16.4071 7.74537 16.3309 7.66917C16.2547 7.59297 16.1643 7.53253 16.0647 7.49129C15.9651 7.45005 15.8584 7.42882 15.7507 7.42882H8.25023C8.0326 7.42882 7.82389 7.51528 7.67 7.66917C7.51612 7.82307 7.42967 8.0318 7.42967 8.24944C7.42967 8.46708 7.51612 8.67581 7.67 8.8297C7.82389 8.9836 8.0326 9.07006 8.25023 9.07006H15.7507C15.9683 9.07006 16.177 8.9836 16.3309 8.8297ZM16.5712 12.0012C16.5712 12.2189 16.4848 12.4276 16.3309 12.5815C16.177 12.7354 15.9683 12.8218 15.7507 12.8218H8.25023C8.03666 12.8159 7.83384 12.7268 7.68489 12.5736C7.53593 12.4204 7.4526 12.2152 7.4526 12.0015C7.4526 11.7879 7.53593 11.5826 7.68489 11.4294C7.83384 11.2762 8.03666 11.1872 8.25023 11.1812H15.7507C15.9682 11.1812 16.1768 11.2676 16.3307 11.4214C16.4845 11.5751 16.5711 11.7837 16.5712 12.0012ZM13.7583 15.7511C13.7583 15.9687 13.6718 16.1774 13.5179 16.3313C13.364 16.4852 13.1553 16.5717 12.9377 16.5717H8.24895C8.03132 16.5717 7.82261 16.4852 7.66872 16.3313C7.51484 16.1774 7.42839 15.9687 7.42839 15.7511C7.42839 15.5334 7.51484 15.3247 7.66872 15.1708C7.82261 15.0169 8.03132 14.9304 8.24895 14.9304H12.9377C13.1553 14.9304 13.364 15.0169 13.5179 15.1708C13.6718 15.3247 13.7583 15.5334 13.7583 15.7511Z" fill="white"/>
</svg>
