<svg width="154" height="45" viewBox="0 0 154 45" fill="none" xmlns="http://www.w3.org/2000/svg">
<path fill-rule="evenodd" clip-rule="evenodd" d="M47.6791 29.0449C45.1006 29.0449 42.8796 30.7391 41.5966 32.9758C37.8027 39.5897 30.6716 44.0449 22.5 44.0449C10.3497 44.0449 0.5 34.1952 0.5 22.0449C0.5 9.89466 10.3497 0.0449219 22.5 0.0449219C32.1714 0.0449219 40.3853 6.28564 43.3342 14.9598C44.1092 17.2394 46.0922 19.0449 48.5 19.0449C50.9078 19.0449 52.8908 17.2394 53.6658 14.9598C56.6147 6.28564 64.8286 0.0449219 74.5 0.0449219H130.5C142.65 0.0449219 152.5 9.89466 152.5 22.0449C152.5 34.1952 142.65 44.0449 130.5 44.0449H74.5C66.3284 44.0449 59.1973 39.5897 55.4034 32.9758C54.1204 30.7391 51.8994 29.0449 49.3209 29.0449H47.6791Z" fill="url(#paint0_linear_1063_223040)"/>
<path d="M22.5 20.1411C21.3816 20.1411 20.475 20.9935 20.475 22.0449C20.475 23.0964 21.3816 23.9488 22.5 23.9488C23.6184 23.9488 24.525 23.0964 24.525 22.0449C24.525 20.9935 23.6184 20.1411 22.5 20.1411Z" fill="white"/>
<path fill-rule="evenodd" clip-rule="evenodd" d="M22.5 16.5449C20.144 16.5449 18.0252 17.4346 16.4985 18.5362C15.7341 19.0878 15.1069 19.7003 14.6668 20.2965C14.2352 20.8813 13.5 22.0449 13.5 22.0449C13.5 22.0449 14.2352 23.2085 14.6668 23.7933C15.1069 24.3895 15.7341 25.0021 16.4985 25.5536C18.0252 26.6553 20.144 27.5449 22.5 27.5449C24.856 27.5449 26.9748 26.6553 28.5015 25.5536C29.2659 25.0021 29.8931 24.3895 30.3332 23.7933C30.7648 23.2085 31.5 22.0449 31.5 22.0449C31.5 22.0449 30.7648 20.8813 30.3332 20.2965C29.8931 19.7003 29.2659 19.0878 28.5015 18.5362C26.9748 17.4346 24.856 16.5449 22.5 16.5449ZM19.125 22.0449C19.125 20.2925 20.636 18.8718 22.5 18.8718C24.364 18.8718 25.875 20.2925 25.875 22.0449C25.875 23.7974 24.364 25.218 22.5 25.218C20.636 25.218 19.125 23.7974 19.125 22.0449Z" fill="white"/>
<path d="M86.8767 27.2319V25.7869H85.3807V22.8629H83.8847V16.1989H86.0437V21.9959H87.5397V24.9199H88.3897V21.9959H89.8857V16.1989H92.0617V22.8629H90.5487V25.7869H89.0527V27.2319H86.8767ZM94.9432 27.2319V25.7869H93.4472V20.5679H94.9432V19.1059H100.111V20.5679H101.624V25.7869H100.111V27.2319H94.9432ZM95.6062 24.9199H99.4482V21.4179H95.6062V24.9199ZM106.682 27.2319V25.7869H105.186V21.4179H103.69V19.1059H105.186V16.1989H107.345V19.1059H111.867V21.4179H107.345V24.9199H111.204V23.4579H113.38V25.7869H111.867V27.2319H106.682ZM116.442 27.2319V25.7869H114.946V20.5679H116.442V19.1059H121.61V20.5679H123.123V22.8629H120.947V21.4179H117.105V21.9959H120.114V24.3249H117.105V24.9199H120.947V23.4409H123.123V25.7699H121.61V27.2319H116.442Z" fill="white"/>
<defs>
<linearGradient id="paint0_linear_1063_223040" x1="127.8" y1="24.5138" x2="3.93488" y2="62.3221" gradientUnits="userSpaceOnUse">
<stop stop-color="#333333"/>
<stop offset="1" stop-color="#0A0A0A"/>
</linearGradient>
</defs>
</svg>
