<svg xmlns="http://www.w3.org/2000/svg" width="20" height="17" viewBox="0 0 20 17" fill="none">
<path d="M4.7225 16.2C5.9875 16.2 7.01417 15.7967 7.8025 14.99C8.5725 14.1833 8.9575 13.065 8.9575 11.635C8.9575 9.875 8.38917 8.02333 7.2525 6.08C6.11583 4.11833 4.59417 2.3675 2.6875 0.827496L0.9825 2.285C1.3675 2.67 1.76167 3.20167 2.165 3.88C2.55 4.54 2.88917 5.255 3.1825 6.025C3.47583 6.795 3.65917 7.51917 3.7325 8.1975C2.76083 8.43583 1.99083 8.9125 1.4225 9.6275C0.835832 10.3242 0.542499 11.1583 0.542499 12.13C0.542499 13.3217 0.927499 14.3025 1.6975 15.0725C2.4675 15.8242 3.47583 16.2 4.7225 16.2ZM15.2 16.2C16.4833 16.2 17.51 15.7967 18.28 14.99C19.05 14.1833 19.435 13.065 19.435 11.635C19.435 9.875 18.8667 8.02333 17.73 6.08C16.5933 4.11833 15.0808 2.3675 13.1925 0.827496L11.46 2.285C11.845 2.67 12.2392 3.20167 12.6425 3.88C13.0275 4.54 13.3667 5.255 13.66 6.025C13.9533 6.795 14.1367 7.51917 14.21 8.1975C13.2383 8.43583 12.4683 8.9125 11.9 9.6275C11.3133 10.3242 11.02 11.1583 11.02 12.13C11.02 13.3217 11.405 14.3025 12.175 15.0725C12.945 15.8242 13.9533 16.2 15.2 16.2Z" fill="#185CF6"/>
</svg>