<svg xmlns="http://www.w3.org/2000/svg" width="20" height="17" viewBox="0 0 20 17" fill="none">
<path d="M15.2775 16.2C14.0125 16.2 12.9858 15.7967 12.1975 14.99C11.4275 14.1833 11.0425 13.065 11.0425 11.635C11.0425 9.875 11.6108 8.02333 12.7475 6.08C13.8842 4.11833 15.4058 2.3675 17.3125 0.827496L19.0175 2.285C18.6325 2.67 18.2383 3.20167 17.835 3.88C17.45 4.54 17.1108 5.255 16.8175 6.025C16.5242 6.795 16.3408 7.51917 16.2675 8.1975C17.2392 8.43583 18.0092 8.9125 18.5775 9.6275C19.1642 10.3242 19.4575 11.1583 19.4575 12.13C19.4575 13.3217 19.0725 14.3025 18.3025 15.0725C17.5325 15.8242 16.5242 16.2 15.2775 16.2ZM4.8 16.2C3.51667 16.2 2.49 15.7967 1.72 14.99C0.95 14.1833 0.565 13.065 0.565 11.635C0.565 9.875 1.13333 8.02333 2.27 6.08C3.40667 4.11833 4.91917 2.3675 6.8075 0.827496L8.54 2.285C8.155 2.67 7.76083 3.20167 7.3575 3.88C6.9725 4.54 6.63333 5.255 6.34 6.025C6.04667 6.795 5.86333 7.51917 5.79 8.1975C6.76167 8.43583 7.53167 8.9125 8.1 9.6275C8.68667 10.3242 8.98 11.1583 8.98 12.13C8.98 13.3217 8.595 14.3025 7.825 15.0725C7.055 15.8242 6.04667 16.2 4.8 16.2Z" fill="#185CF6"/>
</svg>