<svg width="24" height="24" viewBox="0 0 24 24" fill="none" xmlns="http://www.w3.org/2000/svg">
<g id="sad-dizzy">
<path id="Vector" d="M12.25 22C17.7728 22 22.25 17.5228 22.25 12C22.25 6.47715 17.7728 2 12.25 2C6.72715 2 2.25 6.47715 2.25 12C2.25 17.5228 6.72715 22 12.25 22Z" fill="#0D0D0D" stroke="#FF49AA" stroke-width="1.5" stroke-linecap="round" stroke-linejoin="round"/>
<g id="Group 26086833">
<circle id="Ellipse 323" cx="9.375" cy="10.125" r="1.125" fill="#FF49AA"/>
<circle id="Ellipse 324" cx="15.375" cy="10.125" r="1.125" fill="#FF49AA"/>
</g>
<path id="Vector_2" d="M12.2463 17.6813C11.036 17.6813 9.82567 17.6778 8.61533 17.6841C8.33278 17.6855 8.16902 17.5252 8.05515 17.3073C7.94761 17.1013 8.00736 16.9017 8.14793 16.7203C9.69985 14.7119 12.467 14.0869 14.7204 15.2454C15.4212 15.6054 16.0158 16.0996 16.4951 16.7287C16.7566 17.0718 16.6519 17.4591 16.2484 17.6004C16.1093 17.649 15.9553 17.6785 15.8077 17.6792C14.6206 17.6855 13.4335 17.6827 12.247 17.6827L12.2463 17.6813Z" fill="#FF49AA"/>
</g>
</svg>
