<svg width="20" height="20" viewBox="0 0 20 20" fill="none" xmlns="http://www.w3.org/2000/svg">
<path d="M10.2083 18.3327C14.8107 18.3327 18.5417 14.6017 18.5417 9.99935C18.5417 5.39698 14.8107 1.66602 10.2083 1.66602C5.60596 1.66602 1.875 5.39698 1.875 9.99935C1.875 14.6017 5.60596 18.3327 10.2083 18.3327Z" fill="#222222" stroke="#A7A7A7" stroke-width="1.5" stroke-linecap="round" stroke-linejoin="round"/>
<path d="M7.8099 9.375C8.32766 9.375 8.7474 8.95527 8.7474 8.4375C8.7474 7.91973 8.32766 7.5 7.8099 7.5C7.29213 7.5 6.8724 7.91973 6.8724 8.4375C6.8724 8.95527 7.29213 9.375 7.8099 9.375Z" fill="#A7A7A7"/>
<path d="M12.8099 9.375C13.3277 9.375 13.7474 8.95527 13.7474 8.4375C13.7474 7.91973 13.3277 7.5 12.8099 7.5C12.2921 7.5 11.8724 7.91973 11.8724 8.4375C11.8724 8.95527 12.2921 9.375 12.8099 9.375Z" fill="#A7A7A7"/>
<path d="M10.2027 14.7345C9.19406 14.7345 8.18545 14.7316 7.17684 14.7369C6.94138 14.7381 6.80491 14.6045 6.71002 14.4229C6.62041 14.2512 6.67019 14.0849 6.78734 13.9337C8.08061 12.26 10.3866 11.7392 12.2644 12.7047C12.8484 13.0046 13.3439 13.4164 13.7434 13.9408C13.9612 14.2266 13.874 14.5494 13.5378 14.6672C13.4218 14.7076 13.2935 14.7322 13.1705 14.7328C12.1812 14.7381 11.192 14.7357 10.2033 14.7357L10.2027 14.7345Z" fill="#A7A7A7"/>
</svg>
