<svg width="20" height="21" viewBox="0 0 20 21" fill="none" xmlns="http://www.w3.org/2000/svg">
<g id="sad-dizzy">
<path id="Vector" d="M10.2083 18.8327C14.8107 18.8327 18.5417 15.1017 18.5417 10.4993C18.5417 5.89698 14.8107 2.16602 10.2083 2.16602C5.60596 2.16602 1.875 5.89698 1.875 10.4993C1.875 15.1017 5.60596 18.8327 10.2083 18.8327Z" fill="#222222" stroke="white" stroke-opacity="0.6" stroke-width="1.5" stroke-linecap="round" stroke-linejoin="round"/>
<g id="Group 26086833">
<circle id="Ellipse 323" cx="7.8125" cy="8.9375" r="0.9375" fill="white" fill-opacity="0.6"/>
<circle id="Ellipse 324" cx="12.8125" cy="8.9375" r="0.9375" fill="white" fill-opacity="0.6"/>
</g>
<path id="Vector_2" d="M10.3286 12.726C11.3372 12.726 12.3458 12.7289 13.3544 12.7236C13.5899 12.7224 13.7263 12.856 13.8212 13.0376C13.9108 13.2093 13.8611 13.3756 13.7439 13.5268C12.4506 15.2005 10.1447 15.7213 8.26684 14.7558C7.68288 14.4559 7.18736 14.0441 6.7879 13.5197C6.57001 13.2339 6.65728 12.9111 6.99349 12.7933C7.10946 12.7529 7.23773 12.7283 7.36073 12.7277C8.35002 12.7224 9.3393 12.7248 10.328 12.7248L10.3286 12.726Z" fill="white" fill-opacity="0.6"/>
</g>
</svg>
