<svg width="20" height="20" viewBox="0 0 20 20" fill="none" xmlns="http://www.w3.org/2000/svg">
<g id="sad-dizzy">
<path id="Vector" d="M10.2083 18.3327C14.8107 18.3327 18.5417 14.6017 18.5417 9.99935C18.5417 5.39698 14.8107 1.66602 10.2083 1.66602C5.60596 1.66602 1.875 5.39698 1.875 9.99935C1.875 14.6017 5.60596 18.3327 10.2083 18.3327Z" fill="#222222" stroke="#FF60B5" stroke-width="1.5" stroke-linecap="round" stroke-linejoin="round"/>
<g id="Group 26086833">
<circle id="Ellipse 323" cx="7.8125" cy="8.4375" r="0.9375" fill="#FF60B5"/>
<circle id="Ellipse 324" cx="12.8125" cy="8.4375" r="0.9375" fill="#FF60B5"/>
</g>
<path id="Vector_2" d="M10.3286 12.226C11.3372 12.226 12.3458 12.2289 13.3544 12.2236C13.5899 12.2224 13.7263 12.356 13.8212 12.5376C13.9108 12.7093 13.8611 12.8756 13.7439 13.0268C12.4506 14.7005 10.1447 15.2213 8.26684 14.2558C7.68288 13.9559 7.18736 13.5441 6.7879 13.0197C6.57001 12.7339 6.65728 12.4111 6.99349 12.2933C7.10946 12.2529 7.23773 12.2283 7.36073 12.2277C8.35002 12.2224 9.3393 12.2248 10.328 12.2248L10.3286 12.226Z" fill="#FF60B5"/>
</g>
</svg>
