<svg width="20" height="21" viewBox="0 0 20 21" fill="none" xmlns="http://www.w3.org/2000/svg">
<g id="sad-dizzy">
<path id="Vector" d="M10.2083 18.8327C14.8107 18.8327 18.5417 15.1017 18.5417 10.4993C18.5417 5.89698 14.8107 2.16602 10.2083 2.16602C5.60596 2.16602 1.875 5.89698 1.875 10.4993C1.875 15.1017 5.60596 18.8327 10.2083 18.8327Z" fill="#222222" stroke="#FF60B5" stroke-width="1.5" stroke-linecap="round" stroke-linejoin="round"/>
<g id="Group 26086833">
<circle id="Ellipse 323" cx="7.8125" cy="8.9375" r="0.9375" fill="#FF60B5"/>
<circle id="Ellipse 324" cx="12.8125" cy="8.9375" r="0.9375" fill="#FF60B5"/>
</g>
<path id="Vector_2" d="M10.2027 15.235C9.19406 15.235 8.18545 15.232 7.17684 15.2373C6.94138 15.2385 6.80491 15.1049 6.71002 14.9233C6.62041 14.7517 6.67019 14.5853 6.78734 14.4342C8.08061 12.7605 10.3866 12.2397 12.2644 13.2051C12.8484 13.505 13.3439 13.9169 13.7434 14.4412C13.9612 14.7271 13.874 15.0499 13.5378 15.1676C13.4218 15.208 13.2935 15.2326 13.1705 15.2332C12.1812 15.2385 11.192 15.2361 10.2033 15.2361L10.2027 15.235Z" fill="#FF60B5"/>
</g>
</svg>
