<svg width="14" height="14" viewBox="0 0 14 14" fill="none" xmlns="http://www.w3.org/2000/svg">
<path d="M6.993 0C3.129 0 0 3.136 0 7C0 10.864 3.129 14 6.993 14C10.864 14 14 10.864 14 7C14 3.136 10.864 0 6.993 0ZM7 12.6C3.906 12.6 1.4 10.094 1.4 7C1.4 3.906 3.906 1.4 7 1.4C10.094 1.4 12.6 3.906 12.6 7C12.6 10.094 10.094 12.6 7 12.6ZM6.846 3.5H6.804C6.524 3.5 6.3 3.724 6.3 4.004V7.308C6.3 7.553 6.426 7.784 6.643 7.91L9.548 9.653C9.786 9.793 10.094 9.723 10.234 9.485C10.381 9.247 10.304 8.932 10.059 8.792L7.35 7.182V4.004C7.35 3.724 7.126 3.5 6.846 3.5Z" fill="#9E9E9E"/>
</svg>
