<svg width="14" height="14" viewBox="0 0 14 14" fill="none" xmlns="http://www.w3.org/2000/svg">
<path d="M13.5682 6.6305C13.8459 7.00764 13.9996 7.46972 13.9996 7.95048C13.9996 8.71326 13.5847 9.43525 12.917 9.83787C12.7451 9.94151 12.5494 9.99606 12.3501 9.99587H8.38673L8.4859 12.0837C8.50904 12.5883 8.3355 13.0673 7.99833 13.4326C7.83286 13.6126 7.63324 13.7558 7.41178 13.8534C7.19033 13.951 6.95176 14.0009 6.71082 14C5.85137 14 5.09109 13.4054 4.86301 12.5543L3.44327 7.27096H1.30623C1.01369 7.27096 0.777344 7.02802 0.777344 6.72733V0.543624C0.777344 0.242932 1.01369 9.53674e-07 1.30623 9.53674e-07H11.2444C11.3964 9.53674e-07 11.5452 0.0305796 11.6824 0.0917377C12.4691 0.436598 12.9765 1.22655 12.9765 2.10314C12.9765 2.31719 12.9467 2.52785 12.8872 2.73171C13.1649 3.10884 13.3186 3.57092 13.3186 4.05169C13.3186 4.26574 13.2889 4.4764 13.2294 4.68025C13.507 5.05739 13.6607 5.51947 13.6607 6.00024C13.6574 6.21429 13.6277 6.42664 13.5682 6.6305ZM1.96734 1.22315V6.0478H3.30609V1.22315H1.96734ZM12.4856 7.21999L12.1237 6.89722L12.3534 6.46571C12.4291 6.32357 12.4683 6.16397 12.4674 6.00194C12.4674 5.72163 12.3484 5.45492 12.1435 5.27144L11.7815 4.94867L12.0113 4.51717C12.087 4.37503 12.1262 4.21542 12.1253 4.05339C12.1253 3.77308 12.0063 3.50637 11.8014 3.3229L11.4394 3.00012L11.6691 2.56862C11.7448 2.42648 11.7841 2.26688 11.7832 2.10484C11.7832 1.72431 11.565 1.38114 11.2279 1.22485H4.36387V6.10217L6.00839 12.2264C6.05079 12.3834 6.14182 12.5219 6.26768 12.6209C6.39354 12.7199 6.54737 12.7741 6.70586 12.7751C6.83147 12.7751 6.95543 12.7378 7.05459 12.6613C7.21822 12.5356 7.30582 12.3453 7.2959 12.1432L7.13723 8.77271H12.3336C12.6278 8.58754 12.8096 8.27496 12.8096 7.95048C12.8096 7.67018 12.6906 7.40516 12.4856 7.21999Z" fill="#FF4098"/>
</svg>
