<svg width="16" height="15" viewBox="0 0 16 15" fill="none" xmlns="http://www.w3.org/2000/svg">
<path d="M12.8405 10.6923H8.9932V12.3077V13.1044C8.9932 13.6065 8.71065 14.0658 8.26253 14.2922C7.52898 14.6629 6.63817 14.2866 6.39247 13.5023L4.5 7.46154H1.8C1.35817 7.46154 1 7.10337 1 6.66154V1.8C1 1.35817 1.35817 1 1.8 1H4.5H9.7392C10.458 1 11.1646 1.18525 11.791 1.53787C12.8738 2.14744 13.6294 3.2069 13.8532 4.42915L14.6111 8.56812C14.8135 9.67367 13.9644 10.6923 12.8405 10.6923Z" fill="#E5007A"/>
<path d="M4.5 7.46154L6.39247 13.5023C6.63817 14.2866 7.52898 14.6629 8.26253 14.2922V14.2922C8.71065 14.0658 8.9932 13.6065 8.9932 13.1044V12.3077V10.6923H12.8405C13.9644 10.6923 14.8135 9.67367 14.6111 8.56812L13.8532 4.42915C13.6294 3.2069 12.8738 2.14744 11.791 1.53787V1.53787C11.1646 1.18525 10.458 1 9.7392 1L4.5 1M4.5 7.46154H1.8C1.35817 7.46154 1 7.10337 1 6.66154V1.8C1 1.35817 1.35817 1 1.8 1H4.5M4.5 7.46154V1" stroke="white"/>
</svg>
