<svg width="16" height="15" viewBox="0 0 16 15" fill="none" xmlns="http://www.w3.org/2000/svg">
<path d="M12.8405 4.30769H8.9932V2.69231V1.89556C8.9932 1.3935 8.71065 0.934165 8.26253 0.70776C7.52898 0.337144 6.63817 0.713441 6.39247 1.49771L4.5 7.53846H1.8C1.35817 7.53846 1 7.89663 1 8.33846V13.2C1 13.6418 1.35817 14 1.8 14H4.5H9.7392C10.458 14 11.1646 13.8148 11.791 13.4621C12.8738 12.8526 13.6294 11.7931 13.8532 10.5709L14.6111 6.43188C14.8135 5.32633 13.9644 4.30769 12.8405 4.30769Z" fill="#E5007A"/>
<path d="M4.5 7.53846L6.39247 1.49771C6.63817 0.713441 7.52898 0.337144 8.26253 0.707759V0.707759C8.71065 0.934165 8.9932 1.3935 8.9932 1.89556V2.69231V4.30769H12.8405C13.9644 4.30769 14.8135 5.32633 14.6111 6.43188L13.8532 10.5709C13.6294 11.7931 12.8738 12.8526 11.791 13.4621V13.4621C11.1646 13.8148 10.458 14 9.7392 14L4.5 14M4.5 7.53846H1.8C1.35817 7.53846 1 7.89663 1 8.33846V13.2C1 13.6418 1.35817 14 1.8 14H4.5M4.5 7.53846V14" stroke="white"/>
</svg>
