<svg width="14" height="14" viewBox="0 0 14 14" fill="none" xmlns="http://www.w3.org/2000/svg">
<path d="M13.5682 7.3695C13.8459 6.99236 13.9996 6.53028 13.9996 6.04952C13.9996 5.28674 13.5847 4.56475 12.917 4.16213C12.7451 4.05849 12.5494 4.00394 12.3501 4.00413H8.38673L8.4859 1.91628C8.50904 1.41173 8.3355 0.932665 7.99833 0.567419C7.83286 0.387392 7.63324 0.244155 7.41178 0.146562C7.19033 0.0489683 6.95176 -0.000908892 6.71082 1.25376e-05C5.85137 1.25376e-05 5.09109 0.5946 4.86301 1.44571L3.44327 6.72904H1.30623C1.01369 6.72904 0.777344 6.97198 0.777344 7.27267V13.4564C0.777344 13.7571 1.01369 14 1.30623 14H11.2444C11.3964 14 11.5452 13.9694 11.6824 13.9083C12.4691 13.5634 12.9765 12.7735 12.9765 11.8969C12.9765 11.6828 12.9467 11.4722 12.8872 11.2683C13.1649 10.8912 13.3186 10.4291 13.3186 9.94831C13.3186 9.73426 13.2889 9.5236 13.2294 9.31975C13.507 8.94261 13.6607 8.48053 13.6607 7.99976C13.6574 7.78571 13.6277 7.57336 13.5682 7.3695ZM1.96734 12.7768V7.9522H3.30609V12.7768H1.96734ZM12.4856 6.78001L12.1237 7.10278L12.3534 7.53429C12.4291 7.67643 12.4683 7.83603 12.4674 7.99806C12.4674 8.27837 12.3484 8.54508 12.1435 8.72856L11.7815 9.05133L12.0113 9.48283C12.087 9.62497 12.1262 9.78458 12.1253 9.94661C12.1253 10.2269 12.0063 10.4936 11.8014 10.6771L11.4394 10.9999L11.6691 11.4314C11.7448 11.5735 11.7841 11.7331 11.7832 11.8952C11.7832 12.2757 11.565 12.6189 11.2279 12.7751H4.36387V7.89783L6.00839 1.77358C6.05079 1.61661 6.14182 1.47813 6.26768 1.37911C6.39354 1.28009 6.54737 1.22594 6.70586 1.22486C6.83147 1.22486 6.95543 1.26224 7.05459 1.33868C7.21822 1.4644 7.30582 1.65466 7.2959 1.85682L7.13723 5.22729H12.3336C12.6278 5.41246 12.8096 5.72504 12.8096 6.04952C12.8096 6.32982 12.6906 6.59484 12.4856 6.78001Z" fill="#E5007A"/>
</svg>
