<svg width="13" height="14" viewBox="0 0 13 14" fill="none" xmlns="http://www.w3.org/2000/svg">
<path d="M10.8464 9.71428C10.3348 9.71428 9.86279 9.89286 9.49304 10.1911L5.77407 7.51429C5.83634 7.17423 5.83634 6.82577 5.77407 6.48571L9.49304 3.80893C9.86279 4.10714 10.3348 4.28571 10.8464 4.28571C12.0346 4.28571 13.0002 3.325 13.0002 2.14286C13.0002 0.960714 12.0346 0 10.8464 0C9.65817 0 8.69253 0.960714 8.69253 2.14286C8.69253 2.35 8.72125 2.54821 8.77689 2.7375L5.24458 5.28214C4.72048 4.59107 3.88766 4.14286 2.94894 4.14286C1.36228 4.14286 0.0771484 5.42143 0.0771484 7C0.0771484 8.57857 1.36228 9.85714 2.94894 9.85714C3.88766 9.85714 4.72048 9.40893 5.24458 8.71786L8.77689 11.2625C8.72125 11.4518 8.69253 11.6518 8.69253 11.8571C8.69253 13.0393 9.65817 14 10.8464 14C12.0346 14 13.0002 13.0393 13.0002 11.8571C13.0002 10.675 12.0346 9.71428 10.8464 9.71428ZM10.8464 1.21429C11.3615 1.21429 11.7797 1.63036 11.7797 2.14286C11.7797 2.65536 11.3615 3.07143 10.8464 3.07143C10.3313 3.07143 9.91304 2.65536 9.91304 2.14286C9.91304 1.63036 10.3313 1.21429 10.8464 1.21429ZM2.94894 8.57143C2.07843 8.57143 1.36946 7.86607 1.36946 7C1.36946 6.13393 2.07843 5.42857 2.94894 5.42857C3.81946 5.42857 4.52843 6.13393 4.52843 7C4.52843 7.86607 3.81946 8.57143 2.94894 8.57143ZM10.8464 12.7857C10.3313 12.7857 9.91304 12.3696 9.91304 11.8571C9.91304 11.3446 10.3313 10.9286 10.8464 10.9286C11.3615 10.9286 11.7797 11.3446 11.7797 11.8571C11.7797 12.3696 11.3615 12.7857 10.8464 12.7857Z" fill="#FF4098"/>
</svg>
