<svg width="25" height="24" viewBox="0 0 25 24" fill="none" xmlns="http://www.w3.org/2000/svg">
<path d="M20.5561 11.3299C20.2437 11.0175 19.7371 11.0175 19.4247 11.3299C19.1123 11.6424 19.1123 12.1489 19.4247 12.4613L20.5561 11.3299ZM21.9686 13.8738L21.4029 14.4395C21.7153 14.7519 22.2218 14.7519 22.5343 14.4395L21.9686 13.8738ZM24.5124 12.4613C24.8248 12.1489 24.8248 11.6424 24.5124 11.3299C24.2 11.0175 23.6935 11.0175 23.3811 11.3299L24.5124 12.4613ZM0.434315 10.5387C0.121895 10.8511 0.121895 11.3576 0.434315 11.6701C0.746734 11.9825 1.25327 11.9825 1.56569 11.6701L0.434315 10.5387ZM2.97817 9.1262L3.54385 8.56051C3.23143 8.24809 2.7249 8.24809 2.41248 8.56051L2.97817 9.1262ZM4.39065 11.6701C4.70307 11.9825 5.2096 11.9825 5.52202 11.6701C5.83444 11.3576 5.83444 10.8511 5.52202 10.5387L4.39065 11.6701ZM21.9686 11.5L21.1686 11.4996V11.5H21.9686ZM4.323 5.20532C4.05306 5.5551 4.11779 6.05748 4.46757 6.32741C4.81735 6.59735 5.31973 6.53262 5.58967 6.18284L4.323 5.20532ZM2.97817 11.5L3.77817 11.5004V11.5H2.97817ZM20.6237 17.7947C20.8937 17.4449 20.8289 16.9425 20.4792 16.6726C20.1294 16.4027 19.627 16.4674 19.3571 16.8172L20.6237 17.7947ZM8.74453 16.2414L9.32041 16.7967L9.32041 16.7967L8.74453 16.2414ZM16.5807 16.2414L17.1566 15.6861V15.6861L16.5807 16.2414ZM17.5607 18.8759L16.7635 18.9429L17.5607 18.8759ZM17.5995 19.3366L18.0492 19.9983L18.4358 19.7355L18.3966 19.2696L17.5995 19.3366ZM17.2171 19.5966L17.6668 20.2582L17.2171 19.5966ZM8.10815 19.5965L8.5579 18.9349L8.10815 19.5965ZM7.72577 19.3366L6.92858 19.2696L6.88942 19.7354L7.27602 19.9982L7.72577 19.3366ZM7.7645 18.8758L6.96732 18.8088L7.7645 18.8758ZM19.4247 12.4613L21.4029 14.4395L22.5343 13.3081L20.5561 11.3299L19.4247 12.4613ZM22.5343 14.4395L24.5124 12.4613L23.3811 11.3299L21.4029 13.3081L22.5343 14.4395ZM1.56569 11.6701L3.54385 9.69188L2.41248 8.56051L0.434315 10.5387L1.56569 11.6701ZM2.41248 9.69188L4.39065 11.6701L5.52202 10.5387L3.54385 8.56051L2.41248 9.69188ZM22.7686 13.8738V11.5H21.1686V13.8738H22.7686ZM22.7686 11.5004C22.7697 9.35128 22.0982 7.25569 20.8482 5.50744L19.5467 6.43801C20.6023 7.91456 21.1695 9.68447 21.1686 11.4996L22.7686 11.5004ZM20.8482 5.50744C19.5983 3.75919 17.8325 2.44593 15.7986 1.75179L15.2818 3.26604C16.9997 3.8523 18.491 4.96146 19.5467 6.43801L20.8482 5.50744ZM15.7986 1.75179C13.7647 1.05765 11.5645 1.01742 9.50652 1.63676L9.9676 3.16888C11.7057 2.6458 13.564 2.67977 15.2818 3.26604L15.7986 1.75179ZM9.50652 1.63676C7.44856 2.25609 5.63602 3.50392 4.323 5.20532L5.58967 6.18284C6.69863 4.74587 8.22948 3.69196 9.9676 3.16888L9.50652 1.63676ZM2.17817 9.1262V11.5H3.77817V9.1262H2.17817ZM2.17817 11.4996C2.17708 13.6487 2.84858 15.7443 4.09853 17.4926L5.40008 16.562C4.34439 15.0854 3.77725 13.3155 3.77817 11.5004L2.17817 11.4996ZM4.09853 17.4926C5.34848 19.2408 7.1142 20.5541 9.14815 21.2482L9.66493 19.734C7.94708 19.1477 6.45578 18.0385 5.40008 16.562L4.09853 17.4926ZM9.14815 21.2482C11.1821 21.9424 13.3823 21.9826 15.4402 21.3632L14.9791 19.8311C13.241 20.3542 11.3828 20.3202 9.66493 19.734L9.14815 21.2482ZM15.4402 21.3632C17.4982 20.7439 19.3107 19.4961 20.6237 17.7947L19.3571 16.8172C18.2481 18.2541 16.7173 19.308 14.9791 19.8311L15.4402 21.3632ZM12.6627 5.9524C10.5821 5.9524 8.89541 7.63905 8.89541 9.71965H10.4954C10.4954 8.52271 11.4657 7.5524 12.6627 7.5524V5.9524ZM16.4299 9.71965C16.4299 7.63905 14.7433 5.9524 12.6627 5.9524V7.5524C13.8596 7.5524 14.8299 8.52271 14.8299 9.71965H16.4299ZM12.6627 13.4869C14.7433 13.4869 16.4299 11.8002 16.4299 9.71965H14.8299C14.8299 10.9166 13.8596 11.8869 12.6627 11.8869V13.4869ZM8.89541 9.71965C8.89541 11.8002 10.5821 13.4869 12.6627 13.4869V11.8869C11.4657 11.8869 10.4954 10.9166 10.4954 9.71965H8.89541ZM12.6626 14.2607C10.6027 14.2607 9.12225 14.6972 8.16865 15.6861L9.32041 16.7967C9.83161 16.2666 10.7805 15.8607 12.6626 15.8607V14.2607ZM17.1566 15.6861C16.203 14.6972 14.7225 14.2607 12.6626 14.2607V15.8607C14.5447 15.8607 15.4936 16.2666 16.0048 16.7967L17.1566 15.6861ZM18.3579 18.8089C18.2677 17.7354 18.015 16.5763 17.1566 15.6861L16.0048 16.7967C16.475 17.2843 16.683 17.9845 16.7635 18.9429L18.3579 18.8089ZM18.3966 19.2696L18.3579 18.8089L16.7635 18.9429L16.8023 19.4037L18.3966 19.2696ZM17.6668 20.2582L18.0492 19.9983L17.1497 18.675L16.7673 18.935L17.6668 20.2582ZM12.6627 21.7952C14.515 21.7952 16.2398 21.2282 17.6668 20.2582L16.7673 18.935C15.5972 19.7304 14.1842 20.1952 12.6627 20.1952V21.7952ZM7.65841 20.2581C9.08546 21.2282 10.8102 21.7952 12.6627 21.7952V20.1952C11.1411 20.1952 9.72807 19.7304 8.5579 18.9349L7.65841 20.2581ZM7.27602 19.9982L7.65841 20.2581L8.5579 18.9349L8.17551 18.675L7.27602 19.9982ZM6.96732 18.8088L6.92858 19.2696L8.52296 19.4036L8.56169 18.9429L6.96732 18.8088ZM8.16865 15.6861C7.31028 16.5763 7.05756 17.7354 6.96732 18.8088L8.56169 18.9429C8.64226 17.9845 8.85025 17.2843 9.32041 16.7967L8.16865 15.6861Z"/>
</svg>
