<svg width="24" height="24" viewBox="0 0 24 24" fill="none" xmlns="http://www.w3.org/2000/svg">
<path d="M4.5 20C4.1 20 3.75 19.85 3.45 19.55C3.15 19.25 3 18.9 3 18.5V5.5C3 5.1 3.15 4.75 3.45 4.45C3.75 4.15 4.1 4 4.5 4H11.025C11.4392 4 11.775 4.33579 11.775 4.75C11.775 5.16421 11.4392 5.5 11.025 5.5H4.5V18.5H11.025C11.4392 18.5 11.775 18.8358 11.775 19.25C11.775 19.6642 11.4392 20 11.025 20H4.5ZM17.1875 15.8375C16.8906 16.1344 16.4094 16.1344 16.1125 15.8375C15.8156 15.5406 15.8156 15.0594 16.1125 14.7625L18.125 12.75H10.125C9.71079 12.75 9.375 12.4142 9.375 12C9.375 11.5858 9.71079 11.25 10.125 11.25H18.075L16.0625 9.2375C15.7656 8.94065 15.7656 8.45935 16.0625 8.1625C16.3594 7.86565 16.8406 7.86565 17.1375 8.1625L21 12.025L17.1875 15.8375Z" />
</svg>
