<svg width="25" height="24" viewBox="0 0 25 24" fill="none" xmlns="http://www.w3.org/2000/svg">
    <path
        d="M5 20C4.6 20 4.25 19.85 3.95 19.55C3.65 19.25 3.5 18.9 3.5 18.5V5.5C3.5 5.1 3.65 4.75 3.95 4.45C4.25 4.15 4.6 4 5 4H11.525C11.9392 4 12.275 4.33579 12.275 4.75C12.275 5.16421 11.9392 5.5 11.525 5.5H5V18.5H11.525C11.9392 18.5 12.275 18.8358 12.275 19.25C12.275 19.6642 11.9392 20 11.525 20H5ZM17.6875 15.8375C17.3906 16.1344 16.9094 16.1344 16.6125 15.8375C16.3156 15.5406 16.3156 15.0594 16.6125 14.7625L18.625 12.75H10.625C10.2108 12.75 9.875 12.4142 9.875 12C9.875 11.5858 10.2108 11.25 10.625 11.25H18.575L16.5625 9.2375C16.2656 8.94065 16.2656 8.45935 16.5625 8.1625C16.8594 7.86565 17.3406 7.86565 17.6375 8.1625L21.5 12.025L17.6875 15.8375Z"
        fill="#E5007A" />
</svg>