<svg width="24" height="24" viewBox="0 0 24 24" fill="none" xmlns="http://www.w3.org/2000/svg">
<path d="M11.8893 19.7659C12.0937 19.7659 12.2846 19.6633 12.398 19.4924L14.0284 17.035C14.2157 16.7527 14.1398 16.3713 13.8588 16.1831C13.5779 15.9949 13.1983 16.0712 13.011 16.3535L12.5007 17.1226V9.74048C12.5996 9.79114 12.7031 9.83486 12.8108 9.87092L16.6152 10.7624C17.0313 10.9017 17.312 11.293 17.312 11.7337V13.2491V14.1173C17.1198 14.3104 17.1153 14.109 17.0913 14.2886C17.0708 14.442 17.3119 14.312 17.312 14.48L17.6881 14.6203C17.688 14.7883 17.8748 14.5234 17.8954 14.6767C17.9194 14.8564 17.0327 14.7187 17.2249 14.9119C17.4171 15.105 17.4331 15.1556 17.6119 15.1798C17.7645 15.2004 17.7281 15.8554 17.8954 15.8553L17.9236 15.614C18.0909 15.614 18.4698 15.6346 18.6224 15.614C18.4302 15.8071 18.8012 15.5898 18.6224 15.614C18.8146 15.4208 18.5984 15.0915 18.6224 14.9119C18.6225 15.0799 18.6429 14.7585 18.6224 14.9119L19.3501 14.6203C19.3501 14.4523 18.7139 14.7737 18.6934 14.6203C18.6693 14.4407 18.7271 14.4818 18.5348 14.2886C18.3712 14.1241 18.5348 13.2491 18.5348 13.2491V11.7337C18.5348 10.7641 17.9174 9.90335 17.0019 9.59674L13.1974 8.70529C12.7813 8.56592 12.5007 8.17465 12.5007 7.73394V7.15739C13.0982 6.91436 13.5197 6.32576 13.5197 5.63824C13.5197 4.73346 12.7897 4 11.8893 4C10.9888 4 10.2588 4.73346 10.2588 5.63824C10.2588 6.32576 10.6803 6.91436 11.2778 7.15739V8.96052C11.2778 9.40124 10.9972 9.79251 10.5811 9.93188L7.34813 10.6373C6.43269 10.9439 5.81522 11.8047 5.81522 12.7743V14.3936C5.33323 14.6237 5 15.1173 5 15.6891C5 16.4808 5.63872 17.1226 6.42663 17.1226C7.21454 17.1226 7.85326 16.4808 7.85326 15.6891C7.85326 15.1173 7.52003 14.6237 7.03804 14.3936V12.7743C7.03804 12.3336 7.31871 11.9423 7.73482 11.8029L10.9678 11.0975C11.0754 11.0614 11.1789 11.0177 11.2778 10.9671V17.1226L10.7675 16.3535C10.5802 16.0712 10.2006 15.9949 9.91967 16.1831C9.6387 16.3713 9.56278 16.7527 9.75009 17.035L11.3805 19.4924C11.4939 19.6633 11.6848 19.7659 11.8893 19.7659Z"/>
<path d="M19.3501 14.6203C19.3501 15.3958 18.7244 16.0245 17.9526 16.0245C17.1807 16.0245 16.555 15.3958 16.555 14.6203C16.555 13.8448 17.1807 13.2161 17.9526 13.2161C18.7244 13.2161 19.3501 13.8448 19.3501 14.6203Z" />
<path d="M14.6845 17.1916C14.6845 18.7426 13.4331 20 11.8895 20C10.3458 20 9.09445 18.7426 9.09445 17.1916C9.09445 15.6406 10.3458 14.3832 11.8895 14.3832C13.4331 14.3832 14.6845 15.6406 14.6845 17.1916Z" />
</svg>
