<svg width="24" height="24" viewBox="0 0 24 24" fill="none" xmlns="http://www.w3.org/2000/svg">
<ellipse cx="2.7" cy="2.7" rx="2.7" ry="2.7" transform="matrix(-1 0 0 1 14.219 9.30078)"  stroke-width="1.5"/>
<path d="M15.569 5.64375L15.944 4.99423L15.944 4.99423L15.569 5.64375ZM15.569 18.3555L15.944 19.005L15.569 18.3555ZM7.46902 18.3555L7.84402 17.706L7.46902 18.3555ZM7.46902 5.64375L7.09402 4.99423L7.46902 5.64375ZM8.73641 3.96824L8.00938 3.78408L8.73641 3.96824ZM4.6449 17.8095L4.07231 18.2939L4.6449 17.8095ZM9.35902 20.7391L9.5384 20.0109L9.35902 20.7391ZM8.73656 20.0316L8.00948 20.2156L8.73656 20.0316ZM14.3015 20.0316L13.5744 19.8476L14.3015 20.0316ZM13.679 20.7391L13.4996 20.0109L13.679 20.7391ZM18.393 17.8095L18.9656 18.2939L18.393 17.8095ZM19.9965 8.97103L20.7028 8.71866L19.9965 8.97103ZM19.6533 9.9573L20.144 10.5245L19.6533 9.9573ZM3.38463 14.0427L2.89392 13.4755L3.38463 14.0427ZM17.4833 5.94587L17.3264 5.21248L17.4833 5.94587ZM18.3925 6.1898L17.8199 6.67425L18.3925 6.1898ZM4.64548 6.18977L4.07295 5.70531L4.64548 6.18977ZM19.6533 14.0427L20.144 13.4755L19.6533 14.0427ZM19.9965 15.029L20.7028 15.2813L19.9965 15.029ZM14.3016 3.96826L13.5746 4.15243L14.3016 3.96826ZM13.6792 3.26094L13.4998 3.98917L13.6792 3.26094ZM13.5746 4.15243C13.795 5.02248 14.3543 5.80844 15.194 6.29327L15.944 4.99423C15.4692 4.72009 15.1537 4.2778 15.0287 3.78409L13.5746 4.15243ZM15.194 6.29327C15.9636 6.7376 16.8351 6.85163 17.6403 6.67926L17.3264 5.21248C16.8701 5.31014 16.3796 5.24573 15.944 4.99423L15.194 6.29327ZM20.7028 8.71866C20.3054 7.60656 19.7121 6.58832 18.965 5.70534L17.8199 6.67425C18.4528 7.42218 18.9545 8.28372 19.2903 9.22339L20.7028 8.71866ZM19.469 12C19.469 11.4108 19.7294 10.8832 20.144 10.5245L19.1626 9.3901C18.4327 10.0216 17.969 10.9571 17.969 12H19.469ZM20.144 13.4755C19.7294 13.1168 19.469 12.5892 19.469 12H17.969C17.969 13.0429 18.4327 13.9784 19.1626 14.6099L20.144 13.4755ZM18.9656 18.2939C19.7125 17.4111 20.3055 16.3931 20.7028 15.2813L19.2903 14.7766C18.9546 15.716 18.4531 16.5773 17.8205 17.3251L18.9656 18.2939ZM15.944 19.005C16.3797 18.7535 16.8703 18.6891 17.3266 18.7868L17.6408 17.3201C16.8354 17.1476 15.9638 17.2616 15.194 17.706L15.944 19.005ZM15.0286 20.2156C15.1535 19.7217 15.4691 19.2792 15.944 19.005L15.194 17.706C14.354 18.1909 13.7947 18.9772 13.5744 19.8476L15.0286 20.2156ZM11.519 21.75C12.3245 21.75 13.1082 21.6522 13.8584 21.4673L13.4996 20.0109C12.8659 20.167 12.2026 20.25 11.519 20.25V21.75ZM9.17963 21.4674C9.92982 21.6522 10.7135 21.75 11.519 21.75V20.25C10.8353 20.25 10.1721 20.167 9.5384 20.0109L9.17963 21.4674ZM7.09402 19.005C7.56899 19.2792 7.8845 19.7217 8.00948 20.2156L9.46364 19.8476C9.24338 18.9772 8.68402 18.1909 7.84402 17.706L7.09402 19.005ZM5.71136 18.7868C6.16768 18.6891 6.65831 18.7535 7.09402 19.005L7.84402 17.706C7.07424 17.2615 6.20255 17.1476 5.39714 17.3201L5.71136 18.7868ZM2.33511 15.2813C2.73238 16.3931 3.32546 17.4111 4.07231 18.2939L5.21748 17.3251C4.58486 16.5774 4.08332 15.716 3.74764 14.7766L2.33511 15.2813ZM3.56896 12C3.56896 12.5892 3.30853 13.1168 2.89392 13.4755L3.87533 14.6099C4.60525 13.9784 5.06896 13.0429 5.06896 12H3.56896ZM2.89392 10.5245C3.30853 10.8832 3.56896 11.4108 3.56896 12H5.06896C5.06896 10.9571 4.60525 10.0216 3.87533 9.3901L2.89392 10.5245ZM4.07295 5.70531C3.32579 6.5883 2.7325 7.60655 2.33511 8.71866L3.74764 9.22339C4.08341 8.28371 4.58515 7.42216 5.21802 6.67423L4.07295 5.70531ZM7.09402 4.99423C6.65839 5.24574 6.16787 5.31015 5.71163 5.21247L5.39762 6.67924C6.2029 6.85164 7.07439 6.73761 7.84402 6.29327L7.09402 4.99423ZM8.00938 3.78408C7.88432 4.27779 7.56886 4.72008 7.09402 4.99423L7.84402 6.29327C8.68378 5.80843 9.24306 5.02246 9.46345 4.1524L8.00938 3.78408ZM11.519 2.25C10.7134 2.25 9.92967 2.34785 9.17942 2.53268L9.53822 3.98913C10.172 3.83301 10.8353 3.75 11.519 3.75V2.25ZM13.8587 2.53272C13.1084 2.34787 12.3246 2.25 11.519 2.25V3.75C12.2027 3.75 12.866 3.83302 13.4998 3.98917L13.8587 2.53272ZM9.46345 4.1524C9.48208 4.07886 9.51108 4.02753 9.53331 4.0007C9.55241 3.97766 9.55487 3.98503 9.53822 3.98913L9.17942 2.53268C8.48218 2.70445 8.13039 3.30632 8.00938 3.78408L9.46345 4.1524ZM3.87533 9.3901C3.80999 9.33358 3.77214 9.27443 3.757 9.23518C3.74425 9.20212 3.75419 9.20507 3.74764 9.22339L2.33511 8.71866C2.06156 9.4842 2.48217 10.1683 2.89392 10.5245L3.87533 9.3901ZM5.39714 17.3201C5.32313 17.336 5.26437 17.3327 5.23045 17.3247C5.20129 17.3178 5.20659 17.3123 5.21748 17.3251L4.07231 18.2939C4.5353 18.8412 5.22949 18.8901 5.71136 18.7868L5.39714 17.3201ZM9.5384 20.0109C9.55505 20.015 9.55259 20.0224 9.53349 19.9993C9.51126 19.9725 9.48226 19.9211 9.46364 19.8476L8.00948 20.2156C8.13042 20.6935 8.48221 21.2956 9.17963 21.4674L9.5384 20.0109ZM13.5744 19.8476C13.5558 19.9211 13.5268 19.9725 13.5046 19.9993C13.4855 20.0224 13.483 20.015 13.4996 20.0109L13.8584 21.4673C14.5558 21.2955 14.9076 20.6934 15.0286 20.2156L13.5744 19.8476ZM17.8205 17.3251C17.8313 17.3122 17.8366 17.3178 17.8075 17.3247C17.7736 17.3327 17.7148 17.3359 17.6408 17.3201L17.3266 18.7868C17.8085 18.89 18.5027 18.8412 18.9656 18.2939L17.8205 17.3251ZM19.2903 9.22339C19.2837 9.20506 19.2937 9.20212 19.2809 9.23518C19.2658 9.27443 19.2279 9.33358 19.1626 9.3901L20.144 10.5245C20.5557 10.1683 20.9764 9.4842 20.7028 8.71866L19.2903 9.22339ZM3.74764 14.7766C3.75419 14.7949 3.74425 14.7979 3.757 14.7648C3.77214 14.7256 3.80999 14.6664 3.87533 14.6099L2.89392 13.4755C2.48217 13.8317 2.06156 14.5158 2.33511 15.2813L3.74764 14.7766ZM17.6403 6.67926C17.7143 6.66342 17.7731 6.66665 17.807 6.67469C17.8361 6.68159 17.8308 6.68713 17.8199 6.67425L18.965 5.70534C18.5021 5.15827 17.8081 5.10936 17.3264 5.21248L17.6403 6.67926ZM5.21802 6.67423C5.20712 6.68711 5.20184 6.68157 5.23099 6.67466C5.26488 6.66663 5.32363 6.6634 5.39762 6.67924L5.71163 5.21247C5.22985 5.10933 4.53587 5.15822 4.07295 5.70531L5.21802 6.67423ZM19.1626 14.6099C19.2279 14.6664 19.2658 14.7256 19.2809 14.7648C19.2937 14.7979 19.2837 14.7949 19.2903 14.7766L20.7028 15.2813C20.9764 14.5158 20.5557 13.8317 20.144 13.4755L19.1626 14.6099ZM15.0287 3.78409C14.9076 3.30635 14.5559 2.70449 13.8587 2.53272L13.4998 3.98917C13.4832 3.98507 13.4856 3.97769 13.5047 4.00073C13.527 4.02756 13.556 4.07889 13.5746 4.15243L15.0287 3.78409Z" />
</svg>
