<svg width="16" height="16" viewBox="0 0 16 16" fill="none" xmlns="http://www.w3.org/2000/svg">
<path d="M11.6667 5.83333H11.0476V4.59524C11.0476 2.88667 9.66095 1.5 7.95238 1.5C6.24381 1.5 4.85714 2.88667 4.85714 4.59524V5.83333H4.2381C3.55714 5.83333 3 6.39048 3 7.07143V13.2619C3 13.9429 3.55714 14.5 4.2381 14.5H11.6667C12.3476 14.5 12.9048 13.9429 12.9048 13.2619V7.07143C12.9048 6.39048 12.3476 5.83333 11.6667 5.83333ZM7.95238 11.4048C7.27143 11.4048 6.71429 10.8476 6.71429 10.1667C6.71429 9.48571 7.27143 8.92857 7.95238 8.92857C8.63333 8.92857 9.19048 9.48571 9.19048 10.1667C9.19048 10.8476 8.63333 11.4048 7.95238 11.4048ZM6.09524 5.83333V4.59524C6.09524 3.56762 6.92476 2.7381 7.95238 2.7381C8.98 2.7381 9.80952 3.56762 9.80952 4.59524V5.83333H6.09524Z" fill="#FFC451"/>
</svg>
