<svg width="16" height="16" viewBox="0 0 16 16" fill="none" xmlns="http://www.w3.org/2000/svg">
<path d="M8.5 1.5C7.21442 1.5 5.95771 1.88122 4.8888 2.59545C3.81988 3.30968 2.98676 4.32484 2.49479 5.51256C2.00282 6.70028 1.87409 8.00721 2.1249 9.26809C2.3757 10.529 2.99477 11.6872 3.90381 12.5962C4.81285 13.5052 5.97104 14.1243 7.23191 14.3751C8.49279 14.6259 9.79972 14.4972 10.9874 14.0052C12.1752 13.5132 13.1903 12.6801 13.9046 11.6112C14.6188 10.5423 15 9.28558 15 8C14.9991 6.27638 14.3139 4.62362 13.0952 3.40484C11.8764 2.18605 10.2236 1.50093 8.5 1.5ZM6.73644 10.7895L4.40551 8.45601C4.28396 8.33446 4.21568 8.16962 4.21568 7.99773C4.21568 7.82584 4.28396 7.661 4.40551 7.53946C4.52705 7.41791 4.69189 7.34963 4.86378 7.34963C5.03567 7.34963 5.20051 7.41791 5.32206 7.53946L7.20051 9.41085L11.6744 4.93895C11.796 4.81741 11.9608 4.74913 12.1327 4.74913C12.3046 4.74913 12.4694 4.81741 12.591 4.93895C12.7125 5.06049 12.7808 5.22534 12.7808 5.39723C12.7808 5.56911 12.7125 5.73396 12.591 5.8555L7.65651 10.7895C7.59635 10.8499 7.52486 10.8978 7.44613 10.9305C7.3674 10.9632 7.28299 10.98 7.19773 10.98C7.11248 10.98 7.02807 10.9632 6.94934 10.9305C6.87061 10.8978 6.79911 10.8499 6.73896 10.7895H6.73644Z" fill="#51D36E"/>
</svg>
