<svg  height="25" width="25" viewBox="0 0 24 25" fill="none" xmlns="http://www.w3.org/2000/svg">
<path d="M13.5 4.25H10.5M10.5 20.75H13.5M17.25 4.25H19.5C19.6989 4.25 19.8897 4.32902 20.0303 4.46967C20.171 4.61032 20.25 4.80109 20.25 5V7.25M20.25 14V11M17.25 20.75H19.5C19.6989 20.75 19.8897 20.671 20.0303 20.5303C20.171 20.3897 20.25 20.1989 20.25 20V17.75M3.75 11V14M6.75 20.75H4.5C4.30109 20.75 4.11032 20.671 3.96967 20.5303C3.82902 20.3897 3.75 20.1989 3.75 20V17.75M6.75 4.25H4.5C4.30109 4.25 4.11032 4.32902 3.96967 4.46967C3.82902 4.61032 3.75 4.80109 3.75 5V7.25M7.5 8H16.5V17H7.5V8Z" stroke="#485F7D" stroke-width="1.6" stroke-linecap="round" stroke-linejoin="round"/>
</svg>
