<svg xmlns="http://www.w3.org/2000/svg" width="24" height="24" viewBox="0 0 24 24" fill="none">
  <path d="M19.1998 3H4.80021C4.32299 3.00074 3.86554 3.19062 3.52809 3.52803C3.19065 3.86543 3.00074 4.32284 3 4.8V19.1979C3 19.6755 3.1896 20.1335 3.52714 20.4714C3.86469 20.8093 4.32257 20.9994 4.80021 21H19.1998C19.6771 20.9994 20.1346 20.8096 20.4721 20.4722C20.8096 20.1347 20.9994 19.6772 21 19.2V4.8C20.9993 4.32284 20.8094 3.86543 20.4719 3.52803C20.1345 3.19062 19.677 3.00074 19.1998 3ZM19.4551 19.4531H4.54284V4.54266H19.4551V19.4531Z" fill="#FF3C5F"/>
  <path d="M13.9285 16.1126C13.9285 16.3513 13.8337 16.5802 13.6649 16.749C13.4961 16.9178 13.2672 17.0126 13.0284 17.0126H7.88518C7.64646 17.0126 7.41751 16.9178 7.24871 16.749C7.07991 16.5802 6.98508 16.3513 6.98508 16.1126C6.98508 15.8739 7.07991 15.645 7.24871 15.4762C7.41751 15.3074 7.64646 15.2126 7.88518 15.2126H13.0284C13.2672 15.2126 13.4961 15.3074 13.6649 15.4762C13.8337 15.645 13.9285 15.8739 13.9285 16.1126Z" fill="#FF3C5F"/>
  <path d="M17.0142 12C17.0142 12.2387 16.9194 12.4676 16.7506 12.6364C16.5818 12.8052 16.3528 12.9 16.1141 12.9H7.88659C7.65231 12.8935 7.42983 12.7958 7.26644 12.6278C7.10305 12.4598 7.01164 12.2347 7.01164 12.0004C7.01164 11.766 7.10305 11.5409 7.26644 11.3729C7.42983 11.2049 7.65231 11.1073 7.88659 11.1007H16.1141C16.3527 11.1007 16.5816 11.1954 16.7503 11.3641C16.9191 11.5327 17.014 11.7614 17.0142 12Z" fill="#FF3C5F"/>
  <path d="M17.0142 7.88531C17.0142 8.12401 16.9194 8.35293 16.7506 8.52171C16.5818 8.69049 16.3528 8.78531 16.1141 8.78531H7.88659C7.64787 8.78531 7.41892 8.69049 7.25012 8.52171C7.08132 8.35293 6.98648 8.12401 6.98648 7.88531C6.98648 7.64662 7.08132 7.4177 7.25012 7.24892C7.41892 7.08013 7.64787 6.98531 7.88659 6.98531H16.1141C16.2323 6.98531 16.3494 7.00859 16.4586 7.05382C16.5678 7.09905 16.667 7.16534 16.7506 7.24892C16.8342 7.33249 16.9005 7.4317 16.9457 7.5409C16.9909 7.65009 17.0142 7.76712 17.0142 7.88531Z" fill="#FF3C5F"/>
</svg>