<svg width="30" height="30" viewBox="0 0 30 30" fill="none" xmlns="http://www.w3.org/2000/svg">
<path d="M14.9731 13.1657C15.1795 13.1779 15.3267 13.1918 15.472 13.1918C16.906 13.1935 18.3418 13.2022 19.7758 13.1814C19.9804 13.1779 20.2317 13.0685 20.3807 12.9297C20.9388 12.4055 21.7465 12.3586 22.2669 12.8602C22.7802 13.3549 22.791 14.0371 22.2921 14.5144C21.7303 15.0508 20.955 15.0109 20.3825 14.4606C20.2263 14.3114 19.9535 14.2055 19.7328 14.2037C18.1049 14.1829 16.4753 14.1951 14.8475 14.1899C14.1188 14.1881 13.9806 14.0458 13.9824 13.3549C13.9824 12.5478 13.9734 11.7389 13.986 10.9318C13.995 10.3642 14.1924 10.1889 14.7793 10.1871C16.0194 10.1837 17.2596 10.1733 18.4998 10.1941C18.8659 10.201 18.9592 10.0795 18.9485 9.748C18.9251 9.0884 18.9413 8.42707 18.9413 7.73102H5.04634V10.1646C5.18633 10.1715 5.34427 10.1854 5.50041 10.1854C6.93441 10.1854 8.37021 10.1854 9.80422 10.1854C10.6424 10.1854 10.8954 10.4406 10.8954 11.2477C10.8918 13.7281 10.8847 16.2103 10.9044 18.6907C10.9044 18.8834 11.048 19.1264 11.2041 19.2549C11.7479 19.7009 11.8377 20.3848 11.3746 20.8934C10.8577 21.461 9.96395 21.4905 9.42373 20.9577C8.94274 20.482 9.00196 19.7652 9.51526 19.3052C9.68038 19.1577 9.83652 18.9025 9.83832 18.6959C9.85267 16.3162 9.83473 13.9364 9.83114 11.5549C9.83114 11.1939 9.59782 11.1765 9.32322 11.1783C7.79948 11.1783 6.27574 11.1783 4.7502 11.1765C4.19383 11.1765 4.0341 11.0689 4.01974 10.536C3.99282 9.48416 3.99462 8.43054 4.01795 7.37865C4.02872 6.87007 4.19922 6.74509 4.81482 6.73815C6.05499 6.72426 7.29516 6.72947 8.53533 6.72947C12.0315 6.72947 15.5277 6.72947 19.022 6.73294C19.8548 6.73294 19.9858 6.86313 19.9858 7.65638C19.9858 8.57982 19.9876 9.50325 19.984 10.4267C19.9804 11.003 19.801 11.1748 19.2123 11.1765C17.9578 11.1765 16.7014 11.1887 15.4469 11.1713C15.0736 11.1661 14.948 11.2894 14.9659 11.6452C14.9928 12.133 14.9731 12.6242 14.9731 13.164V13.1657Z" fill="#66A5FF"/>
<path d="M20.5668 17.3434H14.9725C14.9725 17.5187 14.9725 17.6732 14.9725 17.8277C14.9725 19.3864 14.9743 20.9451 14.9725 22.5038C14.9725 23.1166 14.8146 23.2797 14.1793 23.2884C13.447 23.2988 12.7147 23.2693 11.9825 23.2954C11.7905 23.3023 11.5571 23.4082 11.4225 23.5418C10.9559 24.007 10.3618 24.1389 9.80008 23.8404C9.34421 23.5974 9.0732 23.2225 9.11448 22.7156C9.15397 22.2296 9.47343 21.8963 9.9293 21.7141C10.448 21.5075 10.9613 21.57 11.3166 21.9901C11.5625 22.2799 11.8246 22.3337 12.1656 22.3251C12.7309 22.3112 13.2962 22.3216 13.9226 22.3216C13.9226 22.1376 13.9226 21.9848 13.9226 21.8321C13.9226 20.23 13.9208 18.6279 13.9244 17.0275C13.9244 16.4998 14.1003 16.3279 14.6495 16.3262C16.726 16.321 18.8043 16.321 20.8809 16.3262C21.4426 16.3262 21.6167 16.5067 21.6185 17.0656C21.6239 18.6383 21.6203 20.2109 21.6221 21.7852C21.6221 21.9415 21.6221 22.0959 21.6221 22.2886H25.1272C25.138 22.1654 25.1595 22.0421 25.1595 21.9172C25.1595 17.4874 25.1595 13.0595 25.1649 8.62977C25.1649 8.37287 25.0931 8.21145 24.8616 8.06217C24.4039 7.76535 24.2747 7.2776 24.456 6.76207C24.6265 6.29341 25.077 6.00527 25.6477 6.00007C26.2507 5.99486 26.7299 6.29341 26.9112 6.78637C27.0835 7.25677 26.9489 7.78792 26.5038 8.04828C26.1628 8.2479 26.1664 8.51173 26.1682 8.81723C26.1735 13.2764 26.1771 17.7357 26.1807 22.1949C26.1807 23.0246 25.9169 23.2902 25.0698 23.2919C23.8601 23.2954 22.6487 23.2954 21.439 23.2919C20.7911 23.2902 20.5722 23.0801 20.5722 22.4622C20.5686 20.775 20.5722 19.0878 20.5722 17.3434H20.5668Z" fill="#66A5FF"/>
</svg>
