<svg width="30" height="30" viewBox="0 0 30 30" fill="none" xmlns="http://www.w3.org/2000/svg">
<path d="M16.713 10.8071C15.1527 10.8071 13.7137 10.8071 12.2827 10.8071C11.8866 10.8071 11.4985 10.8398 11.1185 10.9705C10.1484 11.3055 9.57441 12.0737 9.51781 13.1197C9.46931 14.0758 10.0191 14.9583 10.9245 15.3587C11.3611 15.5549 11.83 15.6447 12.307 15.6447C13.8269 15.6447 15.3387 15.6447 16.8586 15.6447C17.6751 15.6447 18.1117 15.988 18.2572 16.6662C18.4108 17.4017 18.0308 17.9982 17.3032 18.178C16.8666 18.2842 16.422 18.2597 15.9854 18.2597C14.514 18.2515 13.0507 18.2924 11.5794 18.2107C9.33995 18.0799 7.37542 16.2086 7.05203 13.9614C6.65589 11.2647 8.53959 8.20028 12.0887 8.20028C14.1907 8.20028 16.2926 8.20028 18.3946 8.20028C18.6614 8.20028 18.9282 8.20028 19.2031 8.20028C19.8013 8.17576 19.9954 7.98781 19.9954 7.3831C19.9954 6.47604 19.9873 5.56898 19.9873 4.65374C19.9873 4.04086 20.0277 4.00817 20.634 4C21.111 4 21.5799 4 22.0569 4C22.3479 4 22.4854 4.12258 22.4854 4.4331C22.4854 6.39432 22.4854 8.35554 22.4854 10.3168C22.4854 10.66 22.2994 10.7254 22.0084 10.7499C20.2056 10.897 18.4108 10.758 16.7292 10.8234L16.713 10.8071Z" fill="white"/>
<path d="M12.3799 19.2218C13.8962 19.2218 15.4045 19.2218 16.9209 19.2218C17.3 19.2218 17.6791 19.1809 18.0501 19.1074C19.2922 18.8623 20.0101 17.898 19.9617 16.5906C19.9133 15.4875 19.018 14.5642 17.8162 14.4089C17.3322 14.3435 16.8483 14.3108 16.3563 14.3108C15.0819 14.319 13.7994 14.319 12.525 14.3108C11.7023 14.3027 11.2668 13.8614 11.2587 13.0933C11.2507 12.3007 11.6943 11.7859 12.5009 11.7777C14.3479 11.7532 16.195 11.7042 18.034 11.7941C20.3408 11.9085 22.3733 14.0657 22.4782 16.3864C22.6073 19.0584 20.986 21.2401 18.5421 21.6895C18.2114 21.7467 17.8888 21.7712 17.5581 21.7794C15.2916 21.853 13.0171 21.8366 10.7506 21.7794C9.71816 21.7549 9.47619 21.9919 9.51652 23.0296C9.54878 23.8386 9.51652 24.6557 9.51652 25.4647C9.51652 25.8487 9.4036 26.0203 9.00838 26.004C8.49217 25.9795 7.96789 25.9876 7.44362 26.004C7.15325 26.004 7 25.8978 7 25.5872C7 23.6098 7 21.6323 7 19.6549C7 19.2545 7.26617 19.2463 7.54847 19.2463C9.15356 19.2463 10.7667 19.2463 12.3718 19.2463C12.3718 19.2463 12.3718 19.2463 12.3718 19.2381L12.3799 19.2218Z" fill="white"/>
</svg>
