<svg width="24" height="24" viewBox="0 0 24 24" fill="none" xmlns="http://www.w3.org/2000/svg">
<path d="M15.004 12.1984C15.7955 12.1984 16.5692 11.9579 17.2273 11.5073C17.8853 11.0568 18.3982 10.4164 18.7009 9.66714C19.0037 8.91792 19.0827 8.09354 18.9281 7.29829C18.7734 6.50303 18.392 5.77263 17.8322 5.19948C17.2723 4.62633 16.559 4.23617 15.7827 4.07837C15.0063 3.92057 14.2017 4.00221 13.4707 4.31297C12.7396 4.62372 12.1149 5.14963 11.6757 5.82417C11.2364 6.4987 11.0023 7.29156 11.0029 8.10244C11.0035 9.18912 11.4254 10.2311 12.1757 10.9991C12.926 11.7672 13.9433 12.1986 15.004 12.1984ZM6.00144 9.30737V7.25777C6.00144 6.98598 5.89605 6.72532 5.70846 6.53313C5.52087 6.34094 5.26644 6.23298 5.00115 6.23298C4.73586 6.23298 4.48143 6.34094 4.29384 6.53313C4.10625 6.72532 4.00086 6.98598 4.00086 7.25777V9.30737H2.00029C1.86893 9.30737 1.73885 9.33388 1.61749 9.38538C1.49613 9.43688 1.38586 9.51237 1.29298 9.60753C1.20009 9.70269 1.12641 9.81566 1.07614 9.94C1.02587 10.0643 1 10.1976 1 10.3322C1 10.4667 1.02587 10.6 1.07614 10.7243C1.12641 10.8487 1.20009 10.9616 1.29298 11.0568C1.38586 11.152 1.49613 11.2275 1.61749 11.279C1.73885 11.3305 1.86893 11.357 2.00029 11.357H4.00086V13.4066C4.00086 13.5411 4.02674 13.6744 4.07701 13.7987C4.12728 13.9231 4.20096 14.036 4.29384 14.1312C4.38673 14.2264 4.497 14.3019 4.61836 14.3534C4.73972 14.4049 4.86979 14.4314 5.00115 14.4314C5.13251 14.4314 5.26259 14.4049 5.38395 14.3534C5.50531 14.3019 5.61558 14.2264 5.70846 14.1312C5.80135 14.036 5.87503 13.9231 5.9253 13.7987C5.97557 13.6744 6.00144 13.5411 6.00144 13.4066V11.357H8.00202C8.26731 11.357 8.52174 11.249 8.70933 11.0568C8.89692 10.8646 9.0023 10.604 9.0023 10.3322C9.0023 10.0604 8.89692 9.79971 8.70933 9.60753C8.52174 9.41534 8.26731 9.30737 8.00202 9.30737H6.00144Z" fill="#3C74E1"/>
<path d="M7.00173 20C7.00173 16.4526 10.5847 13.577 15.0009 13.577C19.4202 13.577 23 16.4526 23 20" fill="#3C74E1"/>
</svg>
