<svg width="259" height="259" viewBox="0 0 259 259" fill="none" xmlns="http://www.w3.org/2000/svg">
<rect width="259" height="259" rx="129.5" fill="#F9F9F9"/>
<path d="M212.276 120.938C209.087 109.881 205.784 98.8564 202.531 87.8189C200.163 79.7841 197.698 71.7685 195.483 63.6889C193.312 55.7886 188.203 53.3621 181.724 54.1368C177.896 54.5978 174.086 55.1868 170.258 55.6541C166.32 56.1407 162.377 56.5248 158.439 56.9986C154.4 57.4852 150.373 58.0358 146.333 58.5351C142.555 59.0025 138.772 59.4187 134.994 59.8924C131.166 60.3726 127.35 60.936 123.528 61.4033C119.591 61.8899 115.647 62.274 111.709 62.7542C106.94 63.3432 102.177 64.0154 97.4069 64.5981C92.6308 65.1807 87.8484 65.6672 83.0723 66.2498C77.2527 66.9541 71.4459 67.8056 65.6135 68.4202C60.1139 69.0028 55.7668 73.5932 55.7668 79.0991C55.6644 81.4231 56.4583 83.5935 56.9448 85.8086C58.6414 93.5105 60.4212 101.193 62.137 108.895C64.89 121.239 67.6174 133.588 70.3703 145.932C71.8812 152.699 73.4242 159.46 74.9415 166.227C75.9146 170.542 78.5331 173.321 82.7522 174.595C85.7869 175.51 88.7575 174.582 91.7217 174.14C97.3109 173.308 102.868 172.239 108.464 171.4C113.444 170.651 117.126 167.661 118.387 163.147C119.315 159.831 120.295 156.521 121.268 153.218C123.342 146.201 125.429 139.184 127.523 132.167C128.131 130.138 128.759 128.115 129.437 126.104C129.61 125.592 129.86 124.837 130.641 125.157C131.268 125.413 131.057 126.066 130.916 126.572C130.346 128.614 129.764 130.656 129.168 132.686C127.491 138.384 125.807 144.082 124.117 149.773C124.015 150.119 123.739 150.509 124.136 150.791C124.495 151.047 124.879 150.791 125.167 150.593C126.319 149.792 127.581 149.248 128.944 148.979C135.014 147.789 141.096 146.636 147.165 145.452C158.894 143.153 170.616 140.836 182.345 138.531C189.509 137.122 196.661 135.676 203.837 134.331C209.971 133.185 214.03 126.956 212.295 120.938H212.276Z" fill="url(#paint0_linear_13498_42061)"/>
<path d="M149.835 177.168C149.278 177.162 148.721 177.149 148.164 177.136C148.516 177.284 149.035 177.258 149.835 177.168Z" fill="#87204D"/>
<path d="M177.446 141.117C174.335 141.732 171.217 142.334 168.105 142.942C160.48 144.434 152.849 145.932 145.224 147.424C140.243 148.397 135.249 149.287 130.281 150.324C127.362 150.932 124.82 152.232 123.034 154.825C121.472 157.091 121.049 159.722 120.358 162.258C118.859 167.789 115.716 171.618 109.858 172.7C105.6 173.487 101.33 174.255 97.0471 174.883C93.0265 175.472 89.0635 176.541 84.9532 176.515C79.7482 176.483 74.8505 172.732 73.6533 167.661C70.3946 153.807 67.3599 139.907 64.3189 126.002C61.4763 112.973 58.416 99.996 55.4582 86.9931C55.3814 86.6473 55.503 86.148 54.978 86.1352C54.9076 86.1352 54.85 86.1416 54.7988 86.1544C55.0036 88.0814 55.3366 90.0085 55.8615 91.9356C55.3366 90.0085 55.01 88.0814 54.7988 86.1544C54.4723 86.2504 54.5235 86.6537 54.4723 86.961C54.0497 89.6244 53.6144 92.2813 53.2046 94.9446C52.2187 101.366 51.2647 107.794 50.2532 114.215C49.2416 120.63 48.1405 127.039 47.1417 133.454C45.9189 141.284 44.7665 149.127 43.5565 156.957C42.4041 164.422 41.2004 171.88 40.0609 179.345C39.6063 182.322 41.751 184.832 44.7345 184.8C46.6423 184.781 48.5438 184.621 50.4453 184.493C53.5631 184.281 56.6746 184.051 59.7925 183.82C65.1768 183.411 70.5547 182.982 75.9325 182.585C79.3641 182.335 82.8085 182.169 86.2401 181.912C91.4067 181.522 96.5733 181.055 101.74 180.677C105.383 180.408 109.038 180.273 112.688 180.005C117.861 179.62 123.021 179.147 128.187 178.763C131.779 178.494 135.396 178.474 138.969 178.045C140.825 177.821 142.682 177.969 144.52 177.681C145.121 177.585 145.505 177.418 145.698 177.098C145.198 177.098 144.705 177.085 144.206 177.085C144.705 177.085 145.198 177.085 145.698 177.098C145.877 176.803 145.896 176.387 145.768 175.76C144.846 171.394 143.706 167.104 142.125 162.923C141.907 162.354 140.883 161.489 141.952 161.028C143.137 160.51 143.079 161.95 143.559 162.533C143.591 162.571 143.604 162.629 143.623 162.68C145.179 166.694 146.274 170.843 147.17 175.049C147.445 176.336 147.625 176.925 148.156 177.143C148.713 177.156 149.27 177.162 149.827 177.175C149.872 177.175 149.917 177.168 149.961 177.162C150.768 177.066 151.165 176.803 150.755 175.926C150.486 175.35 150.282 174.742 150.128 174.127C150.045 173.788 149.961 173.333 150.384 173.129C150.877 172.892 151.203 173.263 151.434 173.615C151.639 173.916 151.767 174.281 151.856 174.633C152.305 176.355 153.182 177.399 155.051 176.784C156.172 176.957 157.158 176.759 158.15 176.535C158.598 176.432 159.213 176.688 159.43 176.138C159.622 175.645 159.168 175.28 158.873 174.902C155.954 171.182 153.816 167.053 152.522 162.501C152.061 160.875 151.594 159.236 151.696 157.507C151.716 157.181 151.735 156.835 152.145 156.777C152.503 156.726 152.759 156.944 152.887 157.264C153.041 157.661 153.207 158.064 153.259 158.48C154.027 164.447 156.665 169.588 160.243 174.294C160.788 175.011 161.345 175.933 162.299 176.131C162.375 176.144 162.446 176.17 162.523 176.17C167.19 176.503 172.171 174.812 174.668 170.228C175.807 168.135 176.121 165.862 176.396 163.519C177.216 156.547 178.24 149.594 179.168 142.628C179.245 142.065 179.226 141.674 179.085 141.418C178.56 141.406 178.035 141.354 177.504 141.246C178.029 141.348 178.554 141.399 179.085 141.418C178.867 141.015 178.362 140.957 177.446 141.137V141.117Z" fill="#87204D"/>
<path d="M162.956 124.741C160.357 124.721 158.225 122.948 157.796 120.432C157.406 118.153 158.904 115.528 161.26 114.804C164.999 113.658 168.789 112.679 172.566 111.648C175.882 110.739 179.212 109.875 182.534 108.959C184.871 108.319 186.888 108.793 188.367 110.752C189.692 112.512 190.038 114.529 189.077 116.571C188.341 118.127 187.035 119.119 185.339 119.529C179.839 120.861 174.346 122.193 168.846 123.511C166.9 123.979 165.005 124.721 162.956 124.734V124.741Z" fill="#ED1E79"/>
<path d="M152.969 105.592C152.809 104.093 153.897 103.396 155.19 103.056C159.077 102.032 162.995 101.097 166.9 100.13C171.779 98.9268 176.657 97.7232 181.536 96.526C182.355 96.3275 183.2 95.9946 184.007 96.0586C185.364 96.1611 186.312 97.0574 186.42 98.4082C186.529 99.7207 185.921 100.777 184.5 101.136C180.646 102.109 176.791 103.082 172.937 104.049C167.387 105.438 161.842 106.834 156.285 108.21C154.339 108.69 152.975 107.659 152.962 105.592H152.969Z" fill="#ED1E79"/>
<path d="M136.43 158.468L159.042 153.493L163.421 175.805L141.859 177.757L136.43 158.468Z" fill="#87204D"/>
<path d="M159.467 157.725C159.365 164.358 158.533 170.901 157.432 177.437C156.062 185.549 153.859 193.436 151.606 201.324C150.639 204.698 149.365 207.989 148.238 211.318C148.148 211.881 147.598 212.611 148.43 212.925C149.23 213.226 149.608 212.573 149.807 211.868C150.421 209.999 151.036 208.13 151.657 206.26C152.483 203.789 153.475 201.356 154.122 198.84C155.645 192.905 157.374 187.015 158.507 180.991C159.314 176.688 160.095 172.38 160.46 168.007C160.71 165.011 160.966 162.008 161.215 159.012C161.305 158.82 161.407 158.621 161.401 158.403C161.375 157.654 161.58 157.283 161.939 157.168C160.742 156.668 159.551 156.156 158.347 155.67C159.007 156.175 159.487 156.937 159.474 157.718L159.467 157.725Z" fill="#C1C1C1"/>
<path d="M153.407 154.319C154.048 154.639 154.272 155.17 154.086 156.022C153.433 159.018 152.978 162.078 152.044 164.985C150.898 168.557 150.059 172.207 148.586 175.715C146.326 181.087 143.823 186.24 139.982 190.632C136.083 195.088 131.358 198.142 125.212 198.469C121.211 198.68 116.723 195.978 115.372 192.431C113.822 188.372 113.547 184.307 115.224 180.184C117.132 175.504 120.833 172.815 125.859 173.436C129.687 173.91 131.499 177.873 129.533 181.195C127.984 183.807 125.846 184.877 122.888 184.441C122.312 184.358 121.607 184.134 121.467 184.96C121.319 185.843 122.1 185.959 122.721 186.061C125.173 186.464 127.395 185.901 129.22 184.217C132.875 180.837 133.048 174.588 128.432 172.572C124.783 170.971 121.223 171.477 118.029 173.833C113.041 177.521 111.172 184.998 113.374 191.58C115.397 197.643 120.769 200.889 126.94 199.967C131.736 199.25 135.814 197.06 139.284 193.782C145.142 188.244 148.356 181.055 151.122 173.705C153.266 168.007 154.432 161.995 155.712 156.041C155.77 155.759 155.776 155.49 155.923 155.311C155.065 155.023 154.278 154.549 153.401 154.319H153.407Z" fill="#C1C1C1"/>
<path d="M239.164 157.846C240.016 149.844 237.269 143.217 230.208 138.781C227.692 137.199 224.958 136.258 221.987 136.008C221.859 135.816 221.661 135.772 221.443 135.74C218.242 135.24 215.323 136.053 212.55 137.59C206.552 140.906 202.268 149.031 207.39 157.059C210.047 161.227 215.521 163.173 220.143 161.419C226.706 158.928 227.135 151.611 223.434 147.693C222.468 146.668 221.097 146.348 220.63 147.02C219.83 148.166 220.912 148.736 221.546 149.383C224.74 152.654 223.377 157.936 218.991 159.236C215.201 160.356 211.129 158.608 209.119 155.19C205.534 149.101 208.696 142.468 213.933 139.651C217.986 137.475 222.167 137.641 226.437 139.293C232.032 141.457 235.522 145.49 236.732 151.207C238.403 159.088 236.175 166.169 230.854 172.085C224.593 179.051 216.398 181.285 207.281 180.754C198.728 180.209 190.892 177.546 183.766 172.77C178.734 169.518 174.963 165.139 171.967 159.902C170.872 159.85 169.803 159.703 168.766 159.485C169.227 159.934 169.617 160.497 169.924 161.214C170.738 163.096 171.928 164.857 173.298 166.413C174.668 167.968 175.635 169.985 177.793 170.734C187.992 179.595 199.823 183.635 213.319 182.745C216.936 182.329 220.451 181.471 223.735 179.896C232.993 175.453 238.089 167.917 239.164 157.853V157.846Z" fill="#C1C1C1"/>
<path d="M176.895 185.306C176.268 185.875 175.73 185.575 175.179 185.05C173.521 183.468 172.132 181.663 170.781 179.819C167.791 175.741 165.8 171.214 164.494 166.355C164.436 166.15 164.379 165.945 164.34 165.734C164.238 165.183 164.187 164.614 164.904 164.46C165.608 164.306 165.839 164.876 165.979 165.388C166.376 166.816 166.741 168.25 167.298 169.639C169.129 174.204 171.364 178.513 174.725 182.162C175.333 182.828 175.928 183.507 176.517 184.192C176.761 184.473 176.953 184.793 176.889 185.312L176.895 185.306Z" fill="#C1C1C1"/>
<defs>
<linearGradient id="paint0_linear_13498_42061" x1="55.754" y1="114.497" x2="212.679" y2="114.497" gradientUnits="userSpaceOnUse">
<stop stop-color="#FFE2F0"/>
<stop offset="1" stop-color="#FFB4F0"/>
</linearGradient>
</defs>
</svg>
