<svg width="259" height="259" viewBox="0 0 259 259" fill="none" xmlns="http://www.w3.org/2000/svg">
<rect width="259" height="259" rx="129.5" fill="#252525"/>
<path d="M212.274 120.938C209.085 109.881 205.782 98.8564 202.529 87.8189C200.161 79.7841 197.696 71.7685 195.481 63.6889C193.31 55.7886 188.201 53.3621 181.722 54.1368C177.894 54.5978 174.084 55.1868 170.256 55.6541C166.318 56.1407 162.375 56.5248 158.437 56.9986C154.398 57.4852 150.371 58.0358 146.331 58.5351C142.553 59.0025 138.77 59.4187 134.992 59.8924C131.164 60.3726 127.348 60.936 123.526 61.4033C119.589 61.8899 115.645 62.274 111.707 62.7542C106.938 63.3432 102.175 64.0154 97.4049 64.5981C92.6289 65.1807 87.8464 65.6672 83.0703 66.2498C77.2507 66.9541 71.4439 67.8056 65.6115 68.4202C60.1119 69.0028 55.7648 73.5932 55.7648 79.0991C55.6624 81.4231 56.4563 83.5935 56.9428 85.8086C58.6394 93.5105 60.4192 101.193 62.135 108.895C64.888 121.239 67.6154 133.588 70.3683 145.932C71.8792 152.699 73.4222 159.46 74.9395 166.227C75.9126 170.542 78.5311 173.321 82.7502 174.595C85.7849 175.51 88.7555 174.582 91.7197 174.14C97.3089 173.308 102.866 172.239 108.462 171.4C113.442 170.651 117.124 167.661 118.385 163.147C119.313 159.831 120.293 156.521 121.266 153.218C123.34 146.201 125.427 139.184 127.521 132.167C128.129 130.138 128.757 128.115 129.435 126.104C129.608 125.592 129.858 124.837 130.639 125.157C131.266 125.413 131.055 126.066 130.914 126.572C130.344 128.614 129.762 130.656 129.166 132.686C127.489 138.384 125.805 144.082 124.115 149.773C124.013 150.119 123.737 150.509 124.134 150.791C124.493 151.047 124.877 150.791 125.165 150.593C126.317 149.792 127.579 149.248 128.942 148.979C135.012 147.789 141.094 146.636 147.163 145.452C158.892 143.153 170.614 140.836 182.343 138.531C189.507 137.122 196.659 135.676 203.836 134.331C209.969 133.185 214.028 126.956 212.293 120.938H212.274Z" fill="url(#paint0_linear_467_54450)"/>
<path d="M149.833 177.168C149.276 177.162 148.719 177.149 148.162 177.136C148.514 177.284 149.033 177.258 149.833 177.168Z" fill="#87204D"/>
<path d="M177.446 141.117C174.335 141.732 171.217 142.334 168.105 142.942C160.48 144.434 152.849 145.932 145.224 147.424C140.243 148.397 135.249 149.287 130.281 150.324C127.362 150.932 124.82 152.232 123.034 154.825C121.472 157.091 121.049 159.722 120.358 162.258C118.859 167.789 115.716 171.618 109.858 172.7C105.6 173.487 101.33 174.255 97.0471 174.883C93.0265 175.472 89.0635 176.541 84.9532 176.515C79.7482 176.483 74.8505 172.732 73.6533 167.661C70.3946 153.807 67.3599 139.907 64.3189 126.002C61.4763 112.973 58.416 99.9959 55.4582 86.993C55.3814 86.6473 55.503 86.1479 54.978 86.1351C54.9076 86.1351 54.85 86.1415 54.7988 86.1543C55.0036 88.0814 55.3366 90.0085 55.8615 91.9355C55.3366 90.0085 55.01 88.0814 54.7988 86.1543C54.4723 86.2504 54.5235 86.6537 54.4723 86.961C54.0497 89.6243 53.6144 92.2813 53.2046 94.9446C52.2187 101.366 51.2647 107.794 50.2532 114.215C49.2416 120.63 48.1405 127.039 47.1417 133.454C45.9189 141.284 44.7665 149.127 43.5565 156.957C42.4041 164.422 41.2004 171.88 40.0609 179.345C39.6063 182.322 41.751 184.832 44.7345 184.8C46.6423 184.781 48.5438 184.621 50.4453 184.493C53.5631 184.281 56.6746 184.051 59.7925 183.82C65.1768 183.411 70.5547 182.982 75.9325 182.585C79.3641 182.335 82.8085 182.168 86.2401 181.912C91.4067 181.522 96.5733 181.055 101.74 180.677C105.383 180.408 109.038 180.273 112.688 180.005C117.861 179.62 123.021 179.147 128.187 178.763C131.779 178.494 135.396 178.474 138.969 178.045C140.825 177.821 142.682 177.969 144.52 177.681C145.121 177.584 145.505 177.418 145.698 177.098C145.198 177.098 144.705 177.085 144.206 177.085C144.705 177.085 145.198 177.085 145.698 177.098C145.877 176.803 145.896 176.387 145.768 175.76C144.846 171.394 143.706 167.104 142.125 162.923C141.907 162.354 140.883 161.489 141.952 161.028C143.137 160.51 143.079 161.95 143.559 162.533C143.591 162.571 143.604 162.629 143.623 162.68C145.179 166.694 146.274 170.843 147.17 175.049C147.445 176.336 147.625 176.925 148.156 177.143C148.713 177.156 149.27 177.162 149.827 177.175C149.872 177.175 149.917 177.168 149.961 177.162C150.768 177.066 151.165 176.803 150.755 175.926C150.486 175.35 150.282 174.742 150.128 174.127C150.045 173.788 149.961 173.333 150.384 173.129C150.877 172.892 151.203 173.263 151.434 173.615C151.639 173.916 151.767 174.281 151.856 174.633C152.305 176.355 153.182 177.399 155.051 176.784C156.172 176.957 157.158 176.759 158.15 176.535C158.598 176.432 159.213 176.688 159.43 176.138C159.622 175.645 159.168 175.28 158.873 174.902C155.954 171.182 153.816 167.053 152.522 162.501C152.061 160.875 151.594 159.236 151.696 157.507C151.716 157.181 151.735 156.835 152.145 156.777C152.503 156.726 152.759 156.944 152.887 157.264C153.041 157.661 153.207 158.064 153.259 158.48C154.027 164.447 156.665 169.588 160.243 174.294C160.788 175.011 161.345 175.933 162.299 176.131C162.375 176.144 162.446 176.17 162.523 176.17C167.19 176.503 172.171 174.812 174.668 170.228C175.807 168.135 176.121 165.862 176.396 163.519C177.216 156.547 178.24 149.594 179.168 142.628C179.245 142.065 179.226 141.674 179.085 141.418C178.56 141.406 178.035 141.354 177.504 141.245C178.029 141.348 178.554 141.399 179.085 141.418C178.867 141.015 178.362 140.957 177.446 141.137V141.117Z" fill="#87204D"/>
<path d="M162.959 124.741C160.359 124.721 158.227 122.948 157.798 120.432C157.408 118.153 158.906 115.528 161.262 114.804C165.001 113.658 168.791 112.679 172.568 111.648C175.885 110.739 179.214 109.875 182.537 108.959C184.873 108.319 186.89 108.793 188.369 110.752C189.694 112.512 190.04 114.529 189.08 116.571C188.343 118.127 187.037 119.119 185.341 119.529C179.841 120.861 174.348 122.193 168.849 123.511C166.902 123.979 165.007 124.721 162.959 124.734V124.741Z" fill="#ED1E79"/>
<path d="M152.969 105.591C152.809 104.093 153.898 103.396 155.191 103.056C159.077 102.032 162.995 101.097 166.901 100.13C171.779 98.9268 176.658 97.7232 181.536 96.5259C182.356 96.3275 183.201 95.9946 184.007 96.0586C185.365 96.161 186.312 97.0573 186.421 98.4082C186.53 99.7207 185.922 100.777 184.5 101.136C180.646 102.109 176.792 103.082 172.938 104.049C167.387 105.438 161.843 106.834 156.286 108.21C154.34 108.69 152.976 107.659 152.963 105.591H152.969Z" fill="#ED1E79"/>
<path d="M136.432 158.467L159.045 153.493L163.424 175.805L141.861 177.757L136.432 158.467Z" fill="#87204D"/>
<path d="M159.466 157.725C159.363 164.357 158.531 170.901 157.43 177.437C156.06 185.549 153.858 193.436 151.604 201.324C150.637 204.698 149.363 207.989 148.236 211.318C148.147 211.881 147.596 212.611 148.428 212.925C149.229 213.226 149.606 212.573 149.805 211.868C150.42 209.999 151.034 208.13 151.655 206.26C152.481 203.789 153.473 201.356 154.12 198.84C155.644 192.905 157.372 187.015 158.506 180.99C159.312 176.688 160.093 172.379 160.458 168.007C160.708 165.011 160.964 162.008 161.214 159.012C161.303 158.82 161.406 158.621 161.399 158.403C161.374 157.654 161.579 157.283 161.937 157.168C160.74 156.668 159.549 156.156 158.345 155.67C159.005 156.175 159.485 156.937 159.472 157.718L159.466 157.725Z" fill="#C1C1C1"/>
<path d="M153.411 154.319C154.051 154.639 154.275 155.17 154.089 156.022C153.436 159.018 152.982 162.078 152.047 164.985C150.901 168.557 150.062 172.207 148.59 175.715C146.33 181.087 143.826 186.24 139.985 190.632C136.086 195.088 131.361 198.142 125.215 198.469C121.214 198.68 116.726 195.978 115.375 192.431C113.826 188.372 113.55 184.307 115.228 180.184C117.136 175.504 120.836 172.815 125.862 173.436C129.69 173.91 131.502 177.873 129.537 181.195C127.987 183.807 125.849 184.877 122.891 184.441C122.315 184.358 121.611 184.134 121.47 184.96C121.323 185.843 122.104 185.959 122.725 186.061C125.177 186.464 127.398 185.901 129.223 184.217C132.879 180.837 133.052 174.588 128.436 172.572C124.786 170.971 121.227 171.477 118.032 173.833C113.045 177.521 111.175 184.998 113.378 191.58C115.401 197.643 120.772 200.889 126.944 199.967C131.739 199.25 135.817 197.06 139.287 193.782C145.145 188.244 148.359 181.055 151.125 173.705C153.27 168.007 154.435 161.995 155.715 156.041C155.773 155.759 155.779 155.49 155.927 155.311C155.069 155.023 154.281 154.549 153.404 154.319H153.411Z" fill="#C1C1C1"/>
<path d="M239.162 157.846C240.013 149.844 237.267 143.217 230.205 138.781C227.689 137.199 224.955 136.258 221.985 136.009C221.857 135.816 221.658 135.772 221.441 135.74C218.239 135.24 215.32 136.053 212.548 137.59C206.549 140.906 202.266 149.031 207.388 157.059C210.045 161.227 215.518 163.173 220.141 161.419C226.703 158.928 227.132 151.611 223.432 147.693C222.465 146.668 221.095 146.348 220.627 147.02C219.827 148.166 220.909 148.736 221.543 149.383C224.738 152.654 223.374 157.936 218.988 159.236C215.198 160.356 211.127 158.608 209.116 155.19C205.531 149.101 208.694 142.468 213.931 139.651C217.983 137.475 222.164 137.641 226.434 139.293C232.03 141.457 235.519 145.49 236.729 151.207C238.4 159.089 236.172 166.169 230.852 172.085C224.59 179.051 216.396 181.285 207.279 180.754C198.725 180.209 190.889 177.546 183.763 172.77C178.731 169.518 174.96 165.139 171.964 159.902C170.869 159.85 169.8 159.703 168.763 159.485C169.224 159.934 169.615 160.497 169.922 161.214C170.735 163.096 171.926 164.857 173.296 166.413C174.666 167.968 175.633 169.985 177.79 170.734C187.989 179.595 199.82 183.635 213.316 182.745C216.933 182.329 220.448 181.471 223.733 179.896C232.99 175.453 238.086 167.917 239.162 157.853V157.846Z" fill="#C1C1C1"/>
<path d="M176.897 185.306C176.269 185.875 175.732 185.574 175.181 185.05C173.523 183.468 172.134 181.663 170.783 179.819C167.793 175.741 165.802 171.214 164.496 166.355C164.438 166.15 164.381 165.945 164.342 165.734C164.24 165.183 164.188 164.614 164.906 164.46C165.61 164.306 165.84 164.876 165.981 165.388C166.378 166.816 166.743 168.25 167.3 169.639C169.131 174.204 171.365 178.513 174.727 182.162C175.335 182.828 175.93 183.507 176.519 184.192C176.762 184.473 176.955 184.793 176.89 185.312L176.897 185.306Z" fill="#C1C1C1"/>
<defs>
<linearGradient id="paint0_linear_467_54450" x1="55.752" y1="114.497" x2="212.677" y2="114.497" gradientUnits="userSpaceOnUse">
<stop stop-color="#FFE2F0"/>
<stop offset="1" stop-color="#FFB4F0"/>
</linearGradient>
</defs>
</svg>
