<svg width="296" height="296" viewBox="0 0 296 296" fill="none" xmlns="http://www.w3.org/2000/svg">
<rect width="296" height="296" rx="148" fill="#F9F9F9"/>
<path d="M62.2674 218.979C62.2674 206.816 62.2674 194.653 62.2869 182.49C62.2869 181.872 62.0527 181.182 62.5733 180.635C63.0939 181.215 63.7837 180.961 64.3955 180.961C70.6299 180.98 76.8579 180.974 83.0924 180.974C87.1533 180.974 91.2076 181.032 95.2685 180.954C100.188 180.87 102.622 184.078 102.831 188.054C103.039 192.063 105.889 194.914 110.106 194.92C124.554 194.953 139.001 194.946 153.448 194.92C157.802 194.914 160.848 191.9 161.036 187.54C161.199 183.798 164.134 180.967 167.883 180.961C172.106 180.948 176.323 180.961 180.547 180.961C187.458 180.961 194.369 180.961 201.274 180.961C201.775 181.299 201.639 181.82 201.639 182.288C201.645 188.061 201.899 193.84 201.573 199.593C201.209 206.055 201.482 212.511 201.346 218.966C201.339 220.912 201.3 222.865 201.333 224.81C201.359 226.398 200.74 227.713 199.914 229.021C197.864 232.242 194.805 233.264 191.2 233.264C151.594 233.264 111.981 233.264 72.374 233.264C72.1007 233.264 71.8339 233.271 71.5606 233.264C66.7318 233.043 63.2306 230.075 62.5277 225.591C62.1763 223.372 62.4301 221.173 62.2739 218.966L62.2674 218.979Z" fill="url(#paint0_linear_13520_42091)"/>
<path d="M180.554 180.974C176.331 180.974 172.114 180.967 167.89 180.974C164.141 180.98 161.206 183.811 161.044 187.553C160.855 191.913 157.809 194.927 153.456 194.933C139.008 194.953 124.561 194.959 110.114 194.933C105.897 194.92 103.046 192.07 102.838 188.067C102.63 184.085 100.196 180.876 95.2759 180.967C91.2216 181.039 87.1607 180.98 83.0998 180.987C83.0998 172.514 83.0868 164.041 83.0868 155.574C83.0868 136.304 83.0673 117.041 83.0868 97.7716C83.0868 94.0101 85.0717 91.5891 89.2757 91.6022C117.851 91.6933 146.434 91.6477 175.01 91.6477C178.452 91.6477 180.541 93.7432 180.541 97.1859C180.541 116.67 180.541 136.155 180.541 155.639C180.541 164.086 180.548 172.533 180.554 180.98V180.974ZM131.863 104.312C121.633 104.312 111.396 104.312 101.165 104.312C97.9832 104.312 97.0525 105.262 97.0525 108.496C97.0525 116.996 97.0525 125.495 97.0525 133.994C97.0525 135.458 97.007 136.923 97.0656 138.38C97.1241 139.662 97.4105 140.99 98.8877 141.276C100.033 141.497 101.205 141.686 102.408 141.68C121.411 141.647 140.421 141.66 159.423 141.654C160.985 141.654 162.534 141.68 164.102 141.38C165.996 141.016 166.569 140.489 166.575 138.497C166.582 135.035 166.575 131.567 166.575 128.104C166.575 121.174 166.556 114.243 166.588 107.312C166.595 105.77 165.99 104.898 164.48 104.514C163.777 104.338 163.094 104.312 162.397 104.305C152.219 104.305 142.041 104.305 131.863 104.305V104.312ZM131.804 170.581C121.463 170.581 111.122 170.581 100.788 170.581C100.411 170.581 100.027 170.561 99.6492 170.581C98.0482 170.665 97.391 171.83 97.1502 173.132C96.9354 174.29 97.3519 175.384 98.6079 175.898C99.4149 176.23 100.228 176.444 101.12 176.431C103.827 176.399 106.534 176.418 109.242 176.418C126.891 176.418 144.54 176.418 162.183 176.425C163.276 176.425 164.389 176.373 165.306 175.807C166.497 175.071 166.894 173.796 166.458 172.533C166.009 171.238 164.994 170.542 163.465 170.548C152.909 170.587 142.353 170.568 131.798 170.568L131.804 170.581ZM131.772 161.164C142.165 161.164 152.558 161.164 162.957 161.164C163.393 161.164 163.829 161.203 164.252 161.151C165.723 160.969 166.393 159.986 166.556 158.646C166.725 157.285 165.801 155.86 164.571 155.711C163.348 155.567 162.144 155.301 160.881 155.301C141.826 155.333 122.771 155.32 103.71 155.327C102.474 155.327 101.25 155.333 100.007 155.593C98.0873 155.99 96.9484 157.045 97.1046 158.587C97.2608 160.136 98.5754 161.164 100.417 161.164C110.869 161.164 121.314 161.164 131.765 161.164H131.772Z" fill="url(#paint1_linear_13520_42091)"/>
<g filter="url(#filter0_d_13520_42091)">
<path d="M221.034 51C228.453 51.1041 235.344 52.9654 241.273 57.5534C247.319 62.226 250.755 68.3108 250.019 76.1787C249.635 80.2981 247.917 83.9815 245.256 87.1443C240.446 92.8712 234.082 95.9299 226.845 97.0687C219.888 98.1685 213.088 97.2444 206.645 94.2769C205.786 93.8799 205.044 93.8799 204.172 94.2443C201.881 95.1945 199.545 96.0405 197.235 96.9386C196.545 97.2054 195.881 97.3356 195.269 96.7694C194.612 96.1641 194.905 95.5069 195.126 94.8235C195.79 92.7736 196.402 90.6976 197.091 88.6541C197.345 87.9123 197.241 87.4242 196.701 86.7994C190.414 79.4391 190.785 68.2066 197.319 61.0025C202.506 55.2756 208.975 52.3406 216.504 51.3189C218.014 51.1106 219.511 51.0716 221.027 51.013L221.034 51ZM232.52 78.3198C234.895 78.3198 236.093 77.1939 236.106 74.9357C236.119 72.8076 234.681 71.1937 232.735 71.1677C230.555 71.1351 228.967 72.6254 228.954 74.7079C228.941 77.0637 230.177 78.3132 232.526 78.3198H232.52ZM221.144 77.9879C223.314 77.9879 224.398 76.9227 224.398 74.7925V74.6298C224.398 72.543 223.346 71.4996 221.242 71.4996C219.021 71.4996 217.91 72.5929 217.91 74.7795C217.91 76.9661 218.99 78.0356 221.151 77.9879H221.144ZM213.387 77.9879C212.222 75.9249 211.213 74.1613 210.231 72.3846C209.905 71.7989 209.638 71.877 209.326 72.3846C208.415 73.9075 207.484 75.4173 206.58 76.9401C206.144 77.669 206.326 78.0074 207.218 77.9944C209.157 77.9618 211.09 77.9879 213.387 77.9879Z" fill="#ED1E79"/>
</g>
<path d="M62.266 218.979C62.4287 221.179 62.1749 223.379 62.5198 225.604C63.2227 230.088 66.7304 233.056 71.5526 233.277C71.8195 233.29 72.0928 233.277 72.3661 233.277C111.973 233.277 151.586 233.277 191.192 233.277C194.797 233.277 197.856 232.255 199.906 229.034C200.739 227.726 201.351 226.411 201.325 224.823C201.292 222.878 201.325 220.925 201.338 218.979C206.518 220.307 211.679 221.648 216.163 224.771C219.664 227.212 219.677 230.238 216.202 232.672C211.763 235.776 206.635 237.123 201.513 238.425C194.739 240.143 187.847 241.269 180.897 242.095C175.398 242.752 169.905 243.364 164.38 243.729C160.833 243.963 157.286 244.132 153.746 244.373C143.223 245.076 132.687 245.043 122.157 244.952C116.606 244.906 111.055 244.627 105.51 244.295C100.415 243.989 95.3191 243.572 90.2496 243.006C78.8153 241.737 67.3942 240.292 56.3765 236.778C52.693 235.6 48.9901 234.357 46.2243 231.383C44.5778 229.613 44.6169 227.902 46.1917 226.099C48.2417 223.75 50.9685 222.611 53.7538 221.582C56.5326 220.554 59.3505 219.624 62.2595 218.986L62.266 218.979Z" fill="#EDEDED"/>
<path d="M180.552 180.974C180.552 172.527 180.546 164.08 180.539 155.632C182.719 157.507 184.275 159.928 186.09 162.114C190.867 167.88 195.566 173.705 200.284 179.516C200.655 179.972 200.954 180.486 201.286 180.974C194.375 180.974 187.463 180.974 180.559 180.974H180.552Z" fill="#87204D"/>
<path d="M83.0842 155.561C83.0842 164.034 83.0972 172.507 83.0972 180.974C76.8627 180.974 70.6348 180.974 64.4003 180.961C63.7886 180.961 63.0987 181.208 62.5781 180.635C68.2204 173.666 73.8431 166.689 79.5114 159.739C80.6698 158.32 81.633 156.732 83.0842 155.561Z" fill="#87204D"/>
<path d="M131.861 104.305C142.039 104.305 152.218 104.305 162.396 104.305C163.092 104.305 163.775 104.331 164.478 104.514C165.988 104.898 166.593 105.763 166.587 107.312C166.548 114.243 166.574 121.174 166.574 128.104C166.574 131.567 166.574 135.035 166.574 138.497C166.574 140.489 165.995 141.016 164.101 141.38C162.539 141.68 160.984 141.654 159.422 141.654C140.419 141.654 121.41 141.654 102.407 141.68C101.203 141.68 100.032 141.498 98.8862 141.276C97.4154 140.99 97.1226 139.662 97.064 138.38C96.9989 136.923 97.051 135.458 97.051 133.994C97.051 125.495 97.051 116.996 97.051 108.496C97.051 105.262 97.9881 104.312 101.164 104.312C111.394 104.312 121.631 104.312 131.861 104.312V104.305Z" fill="white"/>
<path d="M131.803 170.574C142.359 170.574 152.914 170.594 163.47 170.555C165.006 170.555 166.021 171.245 166.463 172.54C166.899 173.802 166.503 175.078 165.312 175.813C164.394 176.379 163.281 176.431 162.188 176.431C144.539 176.418 126.89 176.425 109.247 176.425C106.54 176.425 103.832 176.405 101.125 176.438C100.234 176.451 99.4201 176.23 98.6131 175.904C97.3571 175.39 96.9406 174.297 97.1554 173.138C97.3962 171.843 98.0469 170.678 99.6544 170.587C100.032 170.568 100.409 170.587 100.793 170.587C111.134 170.587 121.475 170.587 131.809 170.587L131.803 170.574Z" fill="white"/>
<path d="M131.761 161.158C121.309 161.158 110.864 161.158 100.413 161.158C98.5709 161.158 97.2499 160.129 97.1002 158.581C96.944 157.038 98.0829 155.984 100.003 155.587C101.246 155.333 102.469 155.32 103.706 155.32C122.76 155.32 141.815 155.327 160.877 155.294C162.139 155.294 163.343 155.561 164.567 155.704C165.797 155.847 166.714 157.279 166.551 158.639C166.389 159.98 165.718 160.969 164.248 161.145C163.818 161.197 163.382 161.158 162.953 161.158C152.56 161.158 142.167 161.158 131.767 161.158H131.761Z" fill="white"/>
<path d="M232.51 78.3198C230.168 78.3198 228.925 77.0638 228.938 74.7079C228.951 72.6254 230.545 71.1352 232.719 71.1677C234.664 71.1937 236.103 72.8077 236.09 74.9357C236.077 77.1874 234.879 78.3198 232.504 78.3198H232.51Z" fill="#FEFEFE"/>
<path d="M221.132 77.9879C218.971 77.9879 217.891 76.9184 217.891 74.7795C217.891 72.6406 219.001 71.5473 221.223 71.4996C223.327 71.4996 224.379 72.543 224.379 74.6298V74.7925C224.379 76.9227 223.294 77.9879 221.125 77.9879H221.132Z" fill="#FEFEFE"/>
<path d="M213.378 77.9879C211.08 77.9879 209.148 77.9684 207.208 77.9944C206.317 78.0074 206.135 77.669 206.571 76.9401C207.475 75.4173 208.406 73.9075 209.317 72.3847C209.623 71.8706 209.896 71.799 210.221 72.3847C211.211 74.1613 212.213 75.9249 213.378 77.9879Z" fill="#FEFEFE"/>
<defs>
<filter id="filter0_d_13520_42091" x="190.695" y="47.5" width="68.9219" height="57.5166" filterUnits="userSpaceOnUse" color-interpolation-filters="sRGB">
<feFlood flood-opacity="0" result="BackgroundImageFix"/>
<feColorMatrix in="SourceAlpha" type="matrix" values="0 0 0 0 0 0 0 0 0 0 0 0 0 0 0 0 0 0 127 0" result="hardAlpha"/>
<feOffset dx="4" dy="2"/>
<feGaussianBlur stdDeviation="2.75"/>
<feComposite in2="hardAlpha" operator="out"/>
<feColorMatrix type="matrix" values="0 0 0 0 0.712158 0 0 0 0 0.0265321 0 0 0 0 0.327943 0 0 0 0.36 0"/>
<feBlend mode="normal" in2="BackgroundImageFix" result="effect1_dropShadow_13520_42091"/>
<feBlend mode="normal" in="SourceGraphic" in2="effect1_dropShadow_13520_42091" result="shape"/>
</filter>
<linearGradient id="paint0_linear_13520_42091" x1="62" y1="233" x2="212" y2="175.5" gradientUnits="userSpaceOnUse">
<stop stop-color="#FFB6F1"/>
<stop offset="1" stop-color="#FFE2F0"/>
</linearGradient>
<linearGradient id="paint1_linear_13520_42091" x1="93" y1="189" x2="181" y2="76.5" gradientUnits="userSpaceOnUse">
<stop stop-color="#BCBCBC"/>
<stop offset="1" stop-color="#F9F9F9"/>
</linearGradient>
</defs>
</svg>
