<svg width="296" height="296" viewBox="0 0 296 296" fill="none" xmlns="http://www.w3.org/2000/svg">
<rect width="296" height="296" rx="148" fill="#252525"/>
<path d="M62.2674 212.979C62.2674 200.816 62.2674 188.653 62.2869 176.49C62.2869 175.872 62.0527 175.182 62.5733 174.635C63.0939 175.215 63.7837 174.961 64.3955 174.961C70.6299 174.98 76.8579 174.974 83.0924 174.974C87.1533 174.974 91.2076 175.032 95.2685 174.954C100.188 174.87 102.622 178.078 102.831 182.054C103.039 186.063 105.889 188.913 110.106 188.92C124.554 188.953 139.001 188.946 153.448 188.92C157.802 188.913 160.848 185.9 161.036 181.54C161.199 177.798 164.134 174.967 167.883 174.961C172.106 174.948 176.323 174.961 180.547 174.961C187.458 174.961 194.369 174.961 201.274 174.961C201.775 175.299 201.639 175.82 201.639 176.288C201.645 182.061 201.899 187.84 201.573 193.593C201.209 200.055 201.482 206.511 201.346 212.966C201.339 214.912 201.3 216.864 201.333 218.81C201.359 220.398 200.74 221.713 199.914 223.021C197.864 226.242 194.805 227.264 191.2 227.264C151.594 227.264 111.981 227.264 72.374 227.264C72.1007 227.264 71.8339 227.27 71.5606 227.264C66.7318 227.043 63.2306 224.075 62.5277 219.591C62.1763 217.372 62.4301 215.172 62.2739 212.966L62.2674 212.979Z" fill="url(#paint0_linear_13520_42122)"/>
<path d="M180.554 174.974C176.331 174.974 172.114 174.967 167.89 174.974C164.141 174.98 161.206 177.811 161.044 181.553C160.855 185.913 157.809 188.927 153.456 188.933C139.008 188.953 124.561 188.959 110.114 188.933C105.897 188.92 103.046 186.07 102.838 182.067C102.63 178.085 100.196 174.876 95.2759 174.967C91.2216 175.039 87.1607 174.98 83.0998 174.987C83.0998 166.514 83.0868 158.041 83.0868 149.574C83.0868 130.304 83.0673 111.041 83.0868 91.7716C83.0868 88.0101 85.0717 85.5892 89.2757 85.6022C117.851 85.6933 146.434 85.6478 175.01 85.6478C178.452 85.6478 180.541 87.7433 180.541 91.1859C180.541 110.67 180.541 130.155 180.541 149.639C180.541 158.086 180.548 166.533 180.554 174.98V174.974ZM131.863 98.312C121.633 98.312 111.396 98.312 101.165 98.312C97.9832 98.312 97.0525 99.2621 97.0525 102.496C97.0525 110.996 97.0525 119.495 97.0525 127.994C97.0525 129.458 97.007 130.923 97.0656 132.38C97.1241 133.662 97.4105 134.99 98.8877 135.276C100.033 135.498 101.205 135.686 102.408 135.68C121.411 135.647 140.421 135.66 159.423 135.654C160.985 135.654 162.534 135.68 164.102 135.38C165.996 135.016 166.569 134.489 166.575 132.497C166.582 129.035 166.575 125.567 166.575 122.104C166.575 115.174 166.556 108.243 166.588 101.312C166.595 99.7697 165.99 98.8977 164.48 98.5137C163.777 98.338 163.094 98.312 162.397 98.3055C152.219 98.3055 142.041 98.3055 131.863 98.3055V98.312ZM131.804 164.581C121.463 164.581 111.122 164.581 100.788 164.581C100.411 164.581 100.027 164.561 99.6492 164.581C98.0482 164.666 97.391 165.83 97.1502 167.132C96.9354 168.29 97.3519 169.384 98.6079 169.898C99.4149 170.23 100.228 170.444 101.12 170.431C103.827 170.399 106.534 170.418 109.242 170.418C126.891 170.418 144.54 170.418 162.183 170.425C163.276 170.425 164.389 170.373 165.306 169.807C166.497 169.071 166.894 167.796 166.458 166.533C166.009 165.238 164.994 164.542 163.465 164.548C152.909 164.587 142.353 164.568 131.798 164.568L131.804 164.581ZM131.772 155.164C142.165 155.164 152.558 155.164 162.957 155.164C163.393 155.164 163.829 155.203 164.252 155.151C165.723 154.969 166.393 153.986 166.556 152.646C166.725 151.285 165.801 149.86 164.571 149.711C163.348 149.567 162.144 149.301 160.881 149.301C141.826 149.333 122.771 149.32 103.71 149.327C102.474 149.327 101.25 149.333 100.007 149.593C98.0873 149.99 96.9484 151.045 97.1046 152.587C97.2608 154.136 98.5754 155.164 100.417 155.164C110.869 155.164 121.314 155.164 131.765 155.164H131.772Z" fill="url(#paint1_linear_13520_42122)"/>
<g filter="url(#filter0_d_13520_42122)">
<path d="M221.034 45C228.453 45.1041 235.344 46.9654 241.273 51.5534C247.319 56.226 250.755 62.3108 250.019 70.1787C249.635 74.2981 247.917 77.9815 245.256 81.1443C240.446 86.8712 234.082 89.9299 226.845 91.0687C219.888 92.1685 213.088 91.2444 206.645 88.2769C205.786 87.8799 205.044 87.8799 204.172 88.2443C201.881 89.1945 199.545 90.0405 197.235 90.9386C196.545 91.2054 195.881 91.3356 195.269 90.7694C194.612 90.1641 194.905 89.5069 195.126 88.8235C195.79 86.7736 196.402 84.6976 197.091 82.6541C197.345 81.9123 197.241 81.4242 196.701 80.7994C190.414 73.4391 190.785 62.2066 197.319 55.0025C202.506 49.2756 208.975 46.3406 216.504 45.3189C218.014 45.1106 219.511 45.0716 221.027 45.013L221.034 45ZM232.52 72.3198C234.895 72.3198 236.093 71.1939 236.106 68.9357C236.119 66.8076 234.681 65.1937 232.735 65.1677C230.555 65.1351 228.967 66.6254 228.954 68.7079C228.941 71.0637 230.177 72.3132 232.526 72.3198H232.52ZM221.144 71.9879C223.314 71.9879 224.398 70.9227 224.398 68.7925V68.6298C224.398 66.543 223.346 65.4996 221.242 65.4996C219.021 65.4996 217.91 66.5929 217.91 68.7795C217.91 70.9661 218.99 72.0356 221.151 71.9879H221.144ZM213.387 71.9879C212.222 69.9249 211.213 68.1613 210.231 66.3846C209.905 65.7989 209.638 65.877 209.326 66.3846C208.415 67.9075 207.484 69.4173 206.58 70.9401C206.144 71.669 206.326 72.0074 207.218 71.9944C209.157 71.9618 211.09 71.9879 213.387 71.9879Z" fill="#ED1E79"/>
</g>
<path d="M62.266 212.979C62.4287 215.179 62.1749 217.379 62.5198 219.604C63.2227 224.088 66.7304 227.056 71.5526 227.277C71.8195 227.29 72.0928 227.277 72.3661 227.277C111.973 227.277 151.586 227.277 191.192 227.277C194.797 227.277 197.856 226.255 199.906 223.034C200.739 221.726 201.351 220.411 201.325 218.823C201.292 216.878 201.325 214.925 201.338 212.979C206.518 214.307 211.679 215.648 216.163 218.771C219.664 221.212 219.677 224.238 216.202 226.672C211.763 229.776 206.635 231.123 201.513 232.425C194.739 234.143 187.847 235.269 180.897 236.095C175.398 236.752 169.905 237.364 164.38 237.729C160.833 237.963 157.286 238.132 153.746 238.373C143.223 239.076 132.687 239.043 122.157 238.952C116.606 238.906 111.055 238.627 105.51 238.295C100.415 237.989 95.3191 237.572 90.2496 237.006C78.8153 235.737 67.3942 234.292 56.3765 230.778C52.693 229.6 48.9901 228.357 46.2243 225.383C44.5778 223.613 44.6169 221.902 46.1917 220.099C48.2417 217.75 50.9685 216.611 53.7538 215.582C56.5326 214.554 59.3505 213.624 62.2595 212.986L62.266 212.979Z" fill="#EDEDED"/>
<path d="M180.552 174.974C180.552 166.527 180.546 158.08 180.539 149.632C182.719 151.507 184.275 153.928 186.09 156.114C190.867 161.88 195.566 167.705 200.284 173.516C200.655 173.972 200.954 174.486 201.286 174.974C194.375 174.974 187.463 174.974 180.559 174.974H180.552Z" fill="#87204D"/>
<path d="M83.0842 149.561C83.0842 158.034 83.0972 166.507 83.0972 174.974C76.8627 174.974 70.6348 174.974 64.4003 174.961C63.7886 174.961 63.0987 175.208 62.5781 174.635C68.2204 167.665 73.8431 160.689 79.5114 153.739C80.6698 152.32 81.633 150.732 83.0842 149.561Z" fill="#87204D"/>
<path d="M131.861 98.3054C142.039 98.3054 152.218 98.3054 162.396 98.3054C163.092 98.3054 163.775 98.3315 164.478 98.5137C165.988 98.8976 166.593 99.7632 166.587 101.312C166.548 108.243 166.574 115.174 166.574 122.104C166.574 125.567 166.574 129.035 166.574 132.497C166.574 134.489 165.995 135.016 164.101 135.38C162.539 135.68 160.984 135.654 159.422 135.654C140.419 135.654 121.41 135.654 102.407 135.68C101.203 135.68 100.032 135.498 98.8862 135.276C97.4154 134.99 97.1226 133.662 97.064 132.38C96.9989 130.923 97.051 129.458 97.051 127.994C97.051 119.495 97.051 110.996 97.051 102.496C97.051 99.2621 97.9881 98.3119 101.164 98.3119C111.394 98.3119 121.631 98.3119 131.861 98.3119V98.3054Z" fill="white"/>
<path d="M131.803 164.574C142.359 164.574 152.914 164.594 163.47 164.555C165.006 164.555 166.021 165.245 166.463 166.54C166.899 167.802 166.503 169.078 165.312 169.813C164.394 170.379 163.281 170.431 162.188 170.431C144.539 170.418 126.89 170.425 109.247 170.425C106.54 170.425 103.832 170.405 101.125 170.438C100.234 170.451 99.4201 170.23 98.6131 169.904C97.3571 169.39 96.9406 168.297 97.1554 167.138C97.3962 165.843 98.0469 164.678 99.6544 164.587C100.032 164.568 100.409 164.587 100.793 164.587C111.134 164.587 121.475 164.587 131.809 164.587L131.803 164.574Z" fill="white"/>
<path d="M131.761 155.158C121.309 155.158 110.864 155.158 100.413 155.158C98.5709 155.158 97.2499 154.129 97.1002 152.581C96.944 151.038 98.0829 149.984 100.003 149.587C101.246 149.333 102.469 149.32 103.706 149.32C122.76 149.32 141.815 149.327 160.877 149.294C162.139 149.294 163.343 149.561 164.567 149.704C165.797 149.847 166.714 151.279 166.551 152.639C166.389 153.98 165.718 154.969 164.248 155.145C163.818 155.197 163.382 155.158 162.953 155.158C152.56 155.158 142.167 155.158 131.767 155.158H131.761Z" fill="white"/>
<path d="M232.51 72.3197C230.168 72.3197 228.925 71.0637 228.938 68.7079C228.951 66.6254 230.545 65.1351 232.719 65.1676C234.664 65.1937 236.103 66.8076 236.09 68.9357C236.077 71.1874 234.879 72.3197 232.504 72.3197H232.51Z" fill="#FEFEFE"/>
<path d="M221.132 71.9879C218.971 71.9879 217.891 70.9185 217.891 68.7796C217.891 66.6407 219.001 65.5474 221.223 65.4996C223.327 65.4996 224.379 66.5431 224.379 68.6299V68.7926C224.379 70.9228 223.294 71.9879 221.125 71.9879H221.132Z" fill="#FEFEFE"/>
<path d="M213.378 71.9879C211.08 71.9879 209.148 71.9684 207.208 71.9944C206.317 72.0074 206.135 71.669 206.571 70.9401C207.475 69.4173 208.406 67.9075 209.317 66.3847C209.623 65.8706 209.896 65.799 210.221 66.3847C211.211 68.1613 212.213 69.9249 213.378 71.9879Z" fill="#FEFEFE"/>
<defs>
<filter id="filter0_d_13520_42122" x="190.695" y="41.5" width="68.9219" height="57.5166" filterUnits="userSpaceOnUse" color-interpolation-filters="sRGB">
<feFlood flood-opacity="0" result="BackgroundImageFix"/>
<feColorMatrix in="SourceAlpha" type="matrix" values="0 0 0 0 0 0 0 0 0 0 0 0 0 0 0 0 0 0 127 0" result="hardAlpha"/>
<feOffset dx="4" dy="2"/>
<feGaussianBlur stdDeviation="2.75"/>
<feComposite in2="hardAlpha" operator="out"/>
<feColorMatrix type="matrix" values="0 0 0 0 0.712158 0 0 0 0 0.0265321 0 0 0 0 0.327943 0 0 0 0.36 0"/>
<feBlend mode="normal" in2="BackgroundImageFix" result="effect1_dropShadow_13520_42122"/>
<feBlend mode="normal" in="SourceGraphic" in2="effect1_dropShadow_13520_42122" result="shape"/>
</filter>
<linearGradient id="paint0_linear_13520_42122" x1="62" y1="227" x2="212" y2="169.5" gradientUnits="userSpaceOnUse">
<stop stop-color="#FFB6F1"/>
<stop offset="1" stop-color="#FFE2F0"/>
</linearGradient>
<linearGradient id="paint1_linear_13520_42122" x1="93" y1="183" x2="181" y2="70.5001" gradientUnits="userSpaceOnUse">
<stop stop-color="#BCBCBC"/>
<stop offset="1" stop-color="#F9F9F9"/>
</linearGradient>
</defs>
</svg>
