<svg width="30" height="30" viewBox="0 0 30 30" fill="none" xmlns="http://www.w3.org/2000/svg">
<path d="M14.9731 13.1653C15.1795 13.1774 15.3267 13.1913 15.472 13.1913C16.906 13.193 18.3418 13.2017 19.7758 13.1809C19.9804 13.1774 20.2317 13.0681 20.3807 12.9292C20.9388 12.405 21.7465 12.3581 22.2669 12.8598C22.7802 13.3545 22.791 14.0366 22.2921 14.514C21.7303 15.0503 20.955 15.0104 20.3825 14.4601C20.2263 14.3109 19.9535 14.205 19.7328 14.2033C18.1049 14.1824 16.4753 14.1946 14.8475 14.1894C14.1188 14.1876 13.9806 14.0453 13.9824 13.3545C13.9824 12.5473 13.9734 11.7384 13.986 10.9313C13.995 10.3637 14.1924 10.1884 14.7793 10.1867C16.0194 10.1832 17.2596 10.1728 18.4998 10.1936C18.8659 10.2005 18.9592 10.079 18.9485 9.74751C18.9251 9.08791 18.9413 8.42658 18.9413 7.73053H5.04634V10.1641C5.18633 10.171 5.34427 10.1849 5.50041 10.1849C6.93441 10.1849 8.37021 10.1849 9.80422 10.1849C10.6424 10.1849 10.8954 10.4401 10.8954 11.2472C10.8918 13.7276 10.8847 16.2098 10.9044 18.6902C10.9044 18.8829 11.048 19.1259 11.2041 19.2544C11.7479 19.7005 11.8377 20.3844 11.3746 20.8929C10.8577 21.4605 9.96395 21.49 9.42373 20.9572C8.94274 20.4816 9.00196 19.7647 9.51526 19.3047C9.68038 19.1572 9.83652 18.902 9.83832 18.6954C9.85267 16.3157 9.83473 13.9359 9.83114 11.5545C9.83114 11.1934 9.59782 11.1761 9.32322 11.1778C7.79948 11.1778 6.27574 11.1778 4.7502 11.1761C4.19383 11.1761 4.0341 11.0684 4.01974 10.5356C3.99282 9.48367 3.99462 8.43005 4.01795 7.37816C4.02872 6.86958 4.19922 6.74461 4.81482 6.73766C6.05499 6.72378 7.29516 6.72898 8.53533 6.72898C12.0315 6.72898 15.5277 6.72898 19.022 6.73246C19.8548 6.73246 19.9858 6.86264 19.9858 7.65589C19.9858 8.57933 19.9876 9.50276 19.984 10.4262C19.9804 11.0025 19.801 11.1743 19.2123 11.1761C17.9578 11.1761 16.7014 11.1882 15.4469 11.1708C15.0736 11.1656 14.948 11.2889 14.9659 11.6447C14.9928 12.1325 14.9731 12.6237 14.9731 13.1635V13.1653Z" fill="#66A5FF"/>
<path d="M20.5664 17.3434H14.9722C14.9722 17.5187 14.9722 17.6732 14.9722 17.8277C14.9722 19.3864 14.974 20.9451 14.9722 22.5038C14.9722 23.1166 14.8142 23.2797 14.1789 23.2884C13.4466 23.2988 12.7144 23.2693 11.9821 23.2954C11.7901 23.3023 11.5568 23.4082 11.4222 23.5418C10.9555 24.007 10.3615 24.1389 9.79971 23.8404C9.34384 23.5974 9.07284 23.2225 9.11412 22.7156C9.1536 22.2296 9.47307 21.8963 9.92893 21.7141C10.4476 21.5075 10.9609 21.57 11.3163 21.9901C11.5622 22.2799 11.8242 22.3337 12.1652 22.3251C12.7305 22.3112 13.2959 22.3216 13.9222 22.3216C13.9222 22.1376 13.9222 21.9848 13.9222 21.8321C13.9222 20.23 13.9205 18.6279 13.924 17.0275C13.924 16.4998 14.0999 16.3279 14.6491 16.3262C16.7256 16.321 18.804 16.321 20.8805 16.3262C21.4422 16.3262 21.6163 16.5067 21.6181 17.0656C21.6235 18.6383 21.6199 20.2109 21.6217 21.7852C21.6217 21.9415 21.6217 22.0959 21.6217 22.2886H25.1268C25.1376 22.1654 25.1591 22.0421 25.1591 21.9172C25.1591 17.4874 25.1591 13.0595 25.1645 8.62977C25.1645 8.37287 25.0927 8.21145 24.8612 8.06217C24.4036 7.76535 24.2743 7.2776 24.4556 6.76207C24.6261 6.29341 25.0766 6.00527 25.6473 6.00007C26.2504 5.99486 26.7296 6.29341 26.9108 6.78637C27.0831 7.25677 26.9485 7.78792 26.5034 8.04828C26.1624 8.2479 26.166 8.51173 26.1678 8.81723C26.1732 13.2764 26.1768 17.7357 26.1804 22.1949C26.1804 23.0246 25.9165 23.2902 25.0694 23.2919C23.8598 23.2954 22.6483 23.2954 21.4387 23.2919C20.7908 23.2902 20.5718 23.0801 20.5718 22.4622C20.5682 20.775 20.5718 19.0878 20.5718 17.3434H20.5664Z" fill="#66A5FF"/>
</svg>
