<svg width="30" height="30" viewBox="0 0 30 30" fill="none" xmlns="http://www.w3.org/2000/svg">
<path d="M16.713 10.8076C15.1527 10.8076 13.7137 10.8076 12.2827 10.8076C11.8866 10.8076 11.4985 10.8402 11.1185 10.971C10.1484 11.306 9.57441 12.0742 9.51781 13.1202C9.46931 14.0763 10.0191 14.9588 10.9245 15.3592C11.3611 15.5553 11.83 15.6452 12.307 15.6452C13.8269 15.6452 15.3387 15.6452 16.8586 15.6452C17.6751 15.6452 18.1117 15.9884 18.2572 16.6667C18.4108 17.4022 18.0308 17.9987 17.3032 18.1785C16.8666 18.2847 16.422 18.2602 15.9854 18.2602C14.514 18.252 13.0507 18.2929 11.5794 18.2112C9.33995 18.0804 7.37542 16.2091 7.05203 13.9619C6.65589 11.2652 8.53959 8.20077 12.0887 8.20077C14.1907 8.20077 16.2926 8.20077 18.3946 8.20077C18.6614 8.20077 18.9282 8.20077 19.2031 8.20077C19.8013 8.17625 19.9954 7.9883 19.9954 7.38359C19.9954 6.47653 19.9873 5.56946 19.9873 4.65423C19.9873 4.04135 20.0277 4.00866 20.634 4.00049C21.111 4.00049 21.5799 4.00049 22.0569 4.00049C22.3479 4.00049 22.4854 4.12306 22.4854 4.43359C22.4854 6.39481 22.4854 8.35603 22.4854 10.3173C22.4854 10.6605 22.2994 10.7258 22.0084 10.7504C20.2056 10.8974 18.4108 10.7585 16.7292 10.8239L16.713 10.8076Z" fill="black"/>
<path d="M12.3799 19.2223C13.8962 19.2223 15.4045 19.2223 16.9209 19.2223C17.3 19.2223 17.6791 19.1814 18.0501 19.1079C19.2922 18.8627 20.0101 17.8985 19.9617 16.5911C19.9133 15.488 19.018 14.5646 17.8162 14.4094C17.3322 14.344 16.8483 14.3113 16.3563 14.3113C15.0819 14.3195 13.7994 14.3195 12.525 14.3113C11.7023 14.3032 11.2668 13.8619 11.2587 13.0938C11.2507 12.3012 11.6943 11.7864 12.5009 11.7782C14.3479 11.7537 16.195 11.7047 18.034 11.7946C20.3408 11.909 22.3733 14.0662 22.4782 16.3868C22.6073 19.0589 20.986 21.2406 18.5421 21.69C18.2114 21.7472 17.8888 21.7717 17.5581 21.7799C15.2916 21.8534 13.0171 21.8371 10.7506 21.7799C9.71816 21.7554 9.47619 21.9924 9.51652 23.0301C9.54878 23.8391 9.51652 24.6562 9.51652 25.4652C9.51652 25.8492 9.4036 26.0208 9.00838 26.0045C8.49217 25.98 7.96789 25.9881 7.44362 26.0045C7.15325 26.0045 7 25.8982 7 25.5877C7 23.6103 7 21.6328 7 19.6554C7 19.255 7.26617 19.2468 7.54847 19.2468C9.15356 19.2468 10.7667 19.2468 12.3718 19.2468C12.3718 19.2468 12.3718 19.2468 12.3718 19.2386L12.3799 19.2223Z" fill="black"/>
</svg>
