<svg width="24" height="25" viewBox="0 0 24 25" fill="none" xmlns="http://www.w3.org/2000/svg">
<path d="M6.62011 17.4627C6.18207 17.4627 5.82631 17.1848 5.82631 16.8415V11.6003C5.82631 11.2577 6.18207 10.9791 6.62011 10.9791C7.05815 10.9791 7.41315 11.2577 7.41315 11.6003V16.8415C7.41315 17.187 7.05815 17.4627 6.62011 17.4627Z" />
<path d="M19.3918 9.50085H4.6196C3.72676 9.50085 3 8.82235 3 7.98802C3.00334 7.70711 3.0879 7.43268 3.24417 7.19566C3.40044 6.95863 3.62219 6.76842 3.88446 6.64646L11.0752 3.179H11.0851C11.3987 3.05088 11.7374 2.99023 12.0778 3.00128C12.4181 3.01232 12.7519 3.09479 13.0559 3.24295L20.1224 6.6494C20.3832 6.77173 20.6035 6.9618 20.7585 7.19826C20.9135 7.43473 20.9972 7.70822 21 7.98802C21.0023 8.82235 20.2801 9.50085 19.3918 9.50085ZM11.3631 4.35516L4.42306 7.70427C4.36544 7.72909 4.31596 7.76865 4.27997 7.81867C4.24398 7.86869 4.22286 7.92725 4.21889 7.98802C4.21889 8.17326 4.39868 8.32469 4.6196 8.32469H19.3918C19.4899 8.32952 19.5859 8.2969 19.6592 8.23389C19.7325 8.17087 19.7771 8.08254 19.7834 7.98802C19.7806 7.92773 19.7606 7.86936 19.7256 7.81931C19.6907 7.76925 19.6422 7.72945 19.5853 7.70427L12.5104 4.29341C12.3529 4.21762 12.1794 4.17817 12.0034 4.17817C11.8275 4.17817 11.6539 4.21762 11.4964 4.29341L11.3631 4.35516Z" />
<path d="M20.293 21H3.99035C3.63306 21 3.34281 20.6104 3.34281 20.1296C3.34281 19.6489 3.63306 19.2593 3.99035 19.2593H20.293C20.6503 19.2593 20.9406 19.6489 20.9406 20.1296C20.9421 20.6104 20.6518 21 20.293 21Z" />
<path d="M12.0015 17.4627C11.5635 17.4627 11.2085 17.1848 11.2085 16.8415V11.6003C11.2085 11.2577 11.5635 10.9791 12.0015 10.9791C12.4396 10.9791 12.7946 11.2577 12.7946 11.6003V16.8415C12.7946 17.187 12.4396 17.4627 12.0015 17.4627Z" />
<path d="M17.3829 17.4627C16.9449 17.4627 16.5899 17.1848 16.5899 16.8415V11.6003C16.5899 11.2577 16.9449 10.9791 17.3829 10.9791C17.821 10.9791 18.176 11.2577 18.176 11.6003V16.8415C18.176 17.187 17.821 17.4627 17.3829 17.4627Z" />
</svg>
