<svg xmlns="http://www.w3.org/2000/svg" width="19" height="18" viewBox="0 0 19 18" fill="none">
  <path d="M6.82285 11.8185L12.2392 6.18152M6.82285 11.8185C7.12626 12.1343 8.44925 11.9373 8.85397 11.9594M6.82285 11.8185C6.51944 11.5027 6.70869 10.1258 6.68744 9.70463M12.2392 6.18152C12.5426 6.49729 12.3533 7.87418 12.3746 8.29538M12.2392 6.18152C11.9357 5.86575 10.6128 6.06271 10.2081 6.04059" stroke="#90A0B7" stroke-width="1.5" stroke-linecap="round" stroke-linejoin="round"/>
  <path d="M9.53064 16.5C13.5106 16.5 16.7371 13.1421 16.7371 9C16.7371 4.85786 13.5106 1.5 9.53064 1.5C5.55064 1.5 2.32422 4.85786 2.32422 9C2.32422 13.1421 5.55064 16.5 9.53064 16.5Z" stroke="#90A0B7" stroke-width="1.5"/>
</svg>