<?xml version="1.0" standalone="no"?>
<!DOCTYPE svg PUBLIC "-//W3C//DTD SVG 20010904//EN"
 "http://www.w3.org/TR/2001/REC-SVG-20010904/DTD/svg10.dtd">
<svg version="1.0" xmlns="http://www.w3.org/2000/svg"
 width="64.000000pt" height="64.000000pt" viewBox="0 0 64.000000 64.000000"
 preserveAspectRatio="xMidYMid meet">

<g transform="translate(0.000000,64.000000) scale(0.100000,-0.100000)"
fill="#fff" stroke="none">
<path d="M304 606 c-8 -34 -1 -61 16 -61 8 0 16 8 18 18 5 25 -6 67 -18 67 -5
0 -12 -11 -16 -24z"/>
<path d="M170 573 c1 -23 36 -70 46 -60 9 9 -22 77 -36 77 -5 0 -10 -8 -10
-17z"/>
<path d="M433 555 c-9 -19 -13 -38 -9 -42 10 -10 45 37 46 60 0 28 -19 19 -37
-18z"/>
<path d="M241 455 c-38 -35 -39 -35 -135 -35 -79 0 -96 -3 -96 -15 0 -12 18
-15 103 -15 l103 0 34 35 c50 52 92 49 149 -9 29 -29 42 -50 38 -60 -9 -23
-22 -20 -60 14 -34 30 -57 38 -57 21 0 -13 78 -81 93 -81 24 0 57 31 57 54 0
27 -13 45 -68 90 -60 49 -107 50 -161 1z"/>
<path d="M500 405 c0 -12 14 -15 65 -15 51 0 65 3 65 15 0 12 -14 15 -65 15
-51 0 -65 -3 -65 -15z"/>
<path d="M166 270 c-25 -27 -46 -56 -46 -65 0 -9 11 -27 25 -41 14 -14 25 -33
25 -42 0 -24 19 -42 45 -42 11 0 26 -9 33 -20 7 -11 23 -20 37 -20 14 0 34 -9
45 -20 11 -11 28 -20 38 -20 9 0 60 43 112 95 74 74 101 95 122 95 18 0 28 5
28 15 0 10 -10 15 -32 15 -28 0 -47 -14 -130 -97 -88 -88 -99 -96 -113 -82
-14 14 -14 18 5 42 28 36 6 47 -29 13 -15 -14 -35 -26 -44 -26 -23 0 -22 33 3
55 14 13 17 22 10 29 -7 7 -19 1 -38 -17 -58 -56 -85 -21 -31 40 22 25 27 39
20 46 -8 8 -19 3 -40 -17 -29 -27 -61 -30 -61 -6 0 6 20 32 45 59 40 42 47 61
25 61 -4 0 -28 -22 -54 -50z"/>
<path d="M10 205 c0 -10 11 -15 35 -15 24 0 35 5 35 15 0 10 -11 15 -35 15
-24 0 -35 -5 -35 -15z"/>
</g>
</svg>
