<svg width="24" height="24" viewBox="0 0 24 24" fill="none" xmlns="http://www.w3.org/2000/svg">
<path fill-rule="evenodd" clip-rule="evenodd" d="M8.0962 4.0326C7.94211 4.08644 7.80962 4.20364 7.7398 4.34785C7.68467 4.46176 7.67407 4.54169 7.67407 4.84409V5.20455L7.18118 5.22394C6.49627 5.25092 6.14237 5.3331 5.6624 5.57662C4.87468 5.97626 4.3109 6.6925 4.06792 7.60227L4 7.85654V12.6094V17.3622L4.07117 17.6418C4.14818 17.9442 4.35543 18.411 4.51693 18.6457C4.65833 18.8512 4.99785 19.2049 5.2116 19.3694C5.61103 19.6767 6.16858 19.9062 6.67769 19.9728C6.86055 19.9968 8.51038 20.0043 12.1611 19.9978L17.383 19.9885L17.6251 19.9196C18.1819 19.7612 18.6005 19.5354 18.9651 19.1968C19.5095 18.691 19.8247 18.1212 19.9465 17.4228C20.0181 17.0123 20.0178 8.20485 19.9462 7.79426C19.8352 7.15738 19.549 6.61558 19.0711 6.13739C18.4145 5.48037 17.7113 5.21828 16.5966 5.21515L16.3105 5.21434L16.2995 4.8105C16.289 4.42024 16.2854 4.40216 16.1948 4.2739C15.9215 3.88717 15.3576 3.92019 15.1405 4.33566C15.0602 4.4895 15.0535 4.52962 15.0535 4.85831V5.21434H11.9892H8.92482V4.85831C8.92482 4.52962 8.91813 4.4895 8.83777 4.33566C8.69621 4.06471 8.37721 3.93435 8.0962 4.0326ZM7.67407 7.13836C7.67407 7.85705 7.69111 7.95782 7.83973 8.11714C8.15886 8.45925 8.76938 8.32114 8.89217 7.87903C8.90993 7.81508 8.92454 7.47075 8.92463 7.11391L8.92482 6.46509H11.9892H15.0535L15.0537 7.11391C15.0538 7.47075 15.0684 7.81508 15.0861 7.87903C15.2089 8.32114 15.8194 8.45925 16.1386 8.11714C16.2873 7.95764 16.3042 7.85739 16.3042 7.13377V6.45589L16.7498 6.47415C16.9995 6.48435 17.2767 6.5143 17.3805 6.54226C17.8774 6.67615 18.3248 7.04878 18.5547 7.52028C18.6916 7.80107 18.742 8.06952 18.7427 8.52101L18.7432 8.90405H11.9892H5.23511L5.23564 8.52101C5.2363 8.06952 5.28671 7.80107 5.42363 7.52028C5.69633 6.96095 6.21251 6.58891 6.84473 6.49598C6.9311 6.48329 7.15307 6.47112 7.33793 6.469L7.67407 6.46509V7.13836ZM18.7432 13.6363C18.7432 17.0178 18.7414 17.1248 18.6805 17.3628C18.5254 17.9692 18.059 18.4655 17.4596 18.6618L17.2267 18.7381H11.9892H6.75165L6.51869 18.6618C6.24175 18.5711 5.88266 18.3393 5.70321 18.1355C5.51697 17.9239 5.36926 17.6422 5.29756 17.3619C5.23699 17.125 5.23511 17.0137 5.23511 13.6363V10.1548H11.9892H18.7432V13.6363ZM7.43927 12.058C7.2274 12.1542 7.04904 12.4134 7.04904 12.625C7.04904 12.8367 7.2274 13.0958 7.43927 13.1921C7.54887 13.2419 7.65615 13.2491 8.29263 13.2497C9.09736 13.2505 9.16593 13.2378 9.35605 13.0538C9.42008 12.9918 9.47696 12.8922 9.50676 12.7897C9.54972 12.6418 9.54972 12.6082 9.50676 12.4604C9.47696 12.3579 9.42008 12.2582 9.35605 12.1962C9.16593 12.0122 9.09736 11.9996 8.29263 12.0003C7.65615 12.0009 7.54887 12.0082 7.43927 12.058ZM11.0881 12.0809C10.7273 12.2606 10.6375 12.7181 10.9036 13.0212C11.0906 13.2341 11.1615 13.249 11.9892 13.249C12.8035 13.249 12.8794 13.2341 13.0642 13.0373C13.3411 12.7425 13.2295 12.2351 12.849 12.0589C12.7386 12.0078 12.6375 12.0009 11.9875 12.0003C11.2566 11.9997 11.2497 12.0003 11.0881 12.0809ZM14.8346 12.0495C14.3143 12.2749 14.3185 12.9838 14.8414 13.2019C14.9353 13.2411 15.0976 13.2503 15.6857 13.2497C16.3221 13.2491 16.4294 13.2419 16.539 13.1921C16.7509 13.0958 16.9293 12.8367 16.9293 12.625C16.9293 12.4134 16.7509 12.1542 16.539 12.058C16.429 12.008 16.3236 12.0011 15.6789 12.0016C15.0921 12.002 14.922 12.0117 14.8346 12.0495ZM7.39834 15.7706C7.03757 15.9503 6.94782 16.4079 7.21392 16.7109C7.40044 16.9233 7.47264 16.9386 8.29263 16.9394C8.88067 16.94 9.04298 16.9308 9.13688 16.8916C9.56164 16.7145 9.66873 16.1812 9.34191 15.8708C9.16553 15.7033 9.08498 15.6894 8.29094 15.6894C7.56807 15.6894 7.55975 15.6901 7.39834 15.7706ZM11.1605 15.7308C10.9376 15.818 10.7981 15.9874 10.7542 16.2238C10.7082 16.4715 10.8765 16.7671 11.129 16.8818C11.2389 16.9317 11.3451 16.9387 11.9892 16.9387C12.8217 16.9387 12.8965 16.9226 13.0766 16.7042C13.336 16.3895 13.2248 15.9226 12.849 15.7486C12.7381 15.6973 12.6408 15.6909 11.9892 15.6924C11.5047 15.6935 11.2224 15.7066 11.1605 15.7308ZM14.8346 15.7392C14.3143 15.9646 14.3185 16.6735 14.8414 16.8916C14.9353 16.9308 15.0976 16.94 15.6857 16.9394C16.5057 16.9386 16.5779 16.9233 16.7644 16.7109C17.0316 16.4066 16.9384 15.9491 16.5719 15.7665C16.4202 15.6909 16.4021 15.6894 15.6805 15.6906C15.0934 15.6915 14.9218 15.7014 14.8346 15.7392Z" fill="#485F7D"/>
</svg>
