<svg width="24" height="24" viewBox="0 0 24 24" fill="none" xmlns="http://www.w3.org/2000/svg">
<mask id="path-1-inside-1_518_13294" fill="white">
<path d="M14.7309 12.4013C15.4505 12.4013 16.1538 12.1842 16.7521 11.7774C17.3503 11.3707 17.8165 10.7925 18.0917 10.1162C18.367 9.43979 18.4388 8.69556 18.2982 7.97762C18.1577 7.25968 17.8109 6.60029 17.302 6.08286C16.793 5.56543 16.1446 5.21321 15.4388 5.07075C14.733 4.92829 14.0016 5.002 13.337 5.28254C12.6724 5.56308 12.1045 6.03786 11.7051 6.64682C11.3058 7.25577 11.093 7.97155 11.0935 8.70359C11.0941 9.68462 11.4776 10.6253 12.1597 11.3187C12.8418 12.0121 13.7667 12.4015 14.7309 12.4013Z"/>
<path d="M7.45612 19.4444C7.45612 16.2419 10.7134 13.6459 14.7281 13.6459C18.7456 13.6459 22 16.2419 22 19.4444"/>
</mask>
<path d="M7.45612 20.1444H14.7281V18.7444H7.45612V20.1444ZM14.7281 20.1444H22V18.7444H14.7281V20.1444ZM14.7309 12.4013L14.7309 11.0013H14.7307L14.7309 12.4013ZM11.0935 8.70359L12.4935 8.70278V8.7025L11.0935 8.70359ZM14.7309 13.8013C15.7328 13.8013 16.7102 13.4989 17.5393 12.9352L15.9649 10.6197C15.5975 10.8695 15.1681 11.0013 14.7309 11.0013L14.7309 13.8013ZM17.5393 12.9352C18.368 12.3717 19.0103 11.5733 19.3885 10.6438L16.795 9.58851C16.6228 10.0118 16.3326 10.3697 15.9649 10.6197L17.5393 12.9352ZM19.3885 10.6438C19.7666 9.71456 19.865 8.69341 19.6722 7.70859L16.9243 8.24665C17.0127 8.6977 16.9673 9.16502 16.795 9.58851L19.3885 10.6438ZM19.6722 7.70859C19.4793 6.72365 19.003 5.81578 18.3 5.10109L16.3039 7.06464C16.6188 7.38481 16.836 7.79572 16.9243 8.24665L19.6722 7.70859ZM18.3 5.10109C17.5967 4.38614 16.6979 3.89666 15.7158 3.69843L15.1618 6.44308C15.5913 6.52977 15.9892 6.74473 16.3039 7.06464L18.3 5.10109ZM15.7158 3.69843C14.7336 3.50017 13.7159 3.60297 12.7925 3.99274L13.8814 6.57233C14.2873 6.40102 14.7325 6.35642 15.1618 6.44308L15.7158 3.69843ZM12.7925 3.99274C11.8694 4.38241 11.0846 5.04018 10.5344 5.87909L12.8759 7.41455C13.1244 7.03555 13.4753 6.74376 13.8814 6.57233L12.7925 3.99274ZM10.5344 5.87909C9.98445 6.71774 9.69275 7.70101 9.69353 8.70468L12.4935 8.7025C12.4932 8.24208 12.6272 7.79381 12.8759 7.41455L10.5344 5.87909ZM9.69353 8.70441C9.69431 10.0489 10.2197 11.3429 11.1617 12.3005L13.1578 10.3369C12.7355 9.90765 12.4939 9.32031 12.4935 8.70278L9.69353 8.70441ZM11.1617 12.3005C12.1044 13.2589 13.3879 13.8016 14.7312 13.8013L14.7307 11.0013C14.1455 11.0014 13.5792 10.7653 13.1578 10.3369L11.1617 12.3005ZM8.85612 19.4444C8.85612 17.2944 11.174 15.0459 14.7281 15.0459V12.2459C10.2527 12.2459 6.05612 15.1894 6.05612 19.4444H8.85612ZM14.7281 15.0459C18.2846 15.0459 20.6 17.294 20.6 19.4444H23.4C23.4 15.1897 19.2067 12.2459 14.7281 12.2459V15.0459Z" fill="#485F7D" mask="url(#path-1-inside-1_518_13294)"/>
<path d="M6.04689 10.2916H6.54689H8.36559C8.47135 10.2916 8.57455 10.3343 8.65201 10.4131L9.0086 10.0626L8.65201 10.4131C8.72976 10.4922 8.77494 10.6013 8.77494 10.7168C8.77494 10.8323 8.72976 10.9414 8.65201 11.0205C8.57455 11.0993 8.47135 11.1419 8.36559 11.1419H6.54689H6.04689V11.6419V13.4923C6.04689 13.5493 6.03584 13.6056 6.01458 13.6578L6.47767 13.8463L6.01458 13.6578C5.99332 13.71 5.96239 13.7569 5.92395 13.796C5.88554 13.835 5.84041 13.8656 5.79136 13.8863C5.74232 13.9069 5.69008 13.9174 5.63753 13.9174C5.58499 13.9174 5.53274 13.9069 5.48371 13.8863C5.43466 13.8656 5.38952 13.835 5.35111 13.796C5.31268 13.7569 5.28175 13.71 5.26049 13.6578C5.23923 13.6056 5.22818 13.5493 5.22818 13.4923V11.6419V11.1419H4.72818H2.90947C2.85692 11.1419 2.80468 11.1314 2.75565 11.1108C2.7066 11.0901 2.66147 11.0596 2.62305 11.0205C2.58462 10.9814 2.55369 10.9345 2.53243 10.8823C2.51117 10.8301 2.50012 10.7738 2.50012 10.7168C2.50012 10.6598 2.51117 10.6035 2.53243 10.5513C2.55369 10.4991 2.58462 10.4522 2.62305 10.4131C2.66147 10.374 2.7066 10.3435 2.75565 10.3228L2.56409 9.86822L2.75565 10.3228C2.80468 10.3021 2.85692 10.2916 2.90947 10.2916H4.72818H5.22818V9.79161V7.94128C5.22818 7.82576 5.27337 7.71668 5.35111 7.63758L5.00007 7.29254L5.35111 7.63758C5.42857 7.55878 5.53177 7.51611 5.63753 7.51611C5.74329 7.51611 5.8465 7.55878 5.92396 7.63758C6.0017 7.71668 6.04689 7.82576 6.04689 7.94128V9.79161V10.2916Z" stroke="#485F7D"/>
<path d="M21.2447 18.7446H8.31107C8.72131 16.1642 11.3659 14.0335 14.7779 14.0335C18.1899 14.0335 20.8345 16.1642 21.2447 18.7446Z" stroke="#485F7D" stroke-width="1.4"/>
</svg>
