<svg width="24" height="24" viewBox="0 0 24 24" fill="none" xmlns="http://www.w3.org/2000/svg">
<path fill-rule="evenodd" clip-rule="evenodd" d="M4.90416 4.45258C5.19394 4.1628 5.58697 4 5.99679 4H17.0121C17.4219 4 17.815 4.1628 18.1047 4.45258C18.3945 4.74236 18.5573 5.13539 18.5573 5.54521V6.06537H20.4547C20.8645 6.06537 21.2575 6.22817 21.5473 6.51795C21.8371 6.80774 21.9999 7.20077 21.9999 7.61058V8.98749C21.9999 9.94508 21.6195 10.8634 20.9424 11.5406C20.2652 12.2177 19.3469 12.5981 18.3893 12.5981H18.1943C18.1406 12.7588 18.0811 12.9178 18.0158 13.0748C17.6583 13.9337 17.1344 14.7134 16.4743 15.3689C15.8142 16.0245 15.0309 16.543 14.1695 16.8945C13.5891 17.1314 12.9809 17.2894 12.3612 17.3652V19.1461H14.2583C14.7315 19.1461 15.115 19.5297 15.115 20.0028C15.115 20.476 14.7315 20.8596 14.2583 20.8596H8.75062C8.27745 20.8596 7.89387 20.476 7.89387 20.0028C7.89387 19.5297 8.27745 19.1461 8.75062 19.1461H10.6477V17.3649C7.92106 17.0292 5.69395 15.1205 4.83384 12.5981H4.61046C3.65287 12.5981 2.73451 12.2177 2.05739 11.5406C1.38028 10.8634 0.999878 9.94508 0.999878 8.98749V7.61058C0.999878 7.20077 1.16268 6.80774 1.45246 6.51795C1.74224 6.22817 2.13527 6.06537 2.54508 6.06537H4.45158V5.54521C4.45158 5.13539 4.61438 4.74236 4.90416 4.45258ZM4.45158 7.77887H2.71337V8.98749C2.71337 9.49063 2.91324 9.97316 3.26902 10.3289C3.59295 10.6529 4.02197 10.8476 4.47594 10.8798C4.45981 10.6841 4.45158 10.4864 4.45158 10.287V7.77887ZM6.32506 11.6017C6.3186 11.5623 6.30944 11.5237 6.29779 11.4863C6.21093 11.1 6.16508 10.6986 6.16508 10.287V5.7135H16.8438V10.3644C16.8438 11.0687 16.7045 11.7661 16.4339 12.4163C16.1632 13.0666 15.7666 13.6568 15.2669 14.1531C14.7671 14.6494 14.1741 15.0419 13.522 15.3081C12.886 15.5676 12.2061 15.702 11.5195 15.7039C11.5145 15.7038 11.5095 15.7038 11.5044 15.7038C11.4994 15.7038 11.4944 15.7038 11.4894 15.7039C11.4823 15.7039 11.4751 15.7039 11.4679 15.7038C8.98389 15.685 6.90353 13.9348 6.32506 11.6017ZM18.5386 10.8787C18.9871 10.8433 19.4103 10.6494 19.7307 10.3289C20.0865 9.97316 20.2864 9.49063 20.2864 8.98749V7.77887H18.5573V10.3644C18.5573 10.3644 18.5573 10.3644 18.5573 10.3644C18.5573 10.5362 18.551 10.7078 18.5386 10.8787Z" fill="#485F7D"/>
</svg>
