<svg xmlns="http://www.w3.org/2000/svg" width="24" height="24" viewBox="0 0 24 24" fill="none">
  <path d="M11.9909 21C10.2113 20.9982 8.47213 20.4688 6.99328 19.4788C5.51443 18.4888 4.36229 17.0826 3.68249 15.4379C3.00269 13.7932 2.82575 11.9839 3.17404 10.2386C3.52233 8.49341 4.38021 6.89061 5.63924 5.63284C6.89827 4.37508 8.50193 3.51881 10.2475 3.17228C11.9931 2.82574 13.8022 3.0045 15.4462 3.68596C17.0902 4.36741 18.4953 5.52096 19.4838 7.00081C20.4724 8.48065 21 10.2204 21 12C21.0005 13.1828 20.7678 14.3541 20.3152 15.4469C19.8625 16.5397 19.1988 17.5324 18.362 18.3684C17.5252 19.2043 16.5317 19.8671 15.4385 20.3186C14.3453 20.7702 13.1738 21.0017 11.9909 21ZM12 4.79958C10.5759 4.79958 9.18376 5.22188 7.99966 6.01307C6.81556 6.80426 5.89267 7.92881 5.34768 9.24452C4.8027 10.5602 4.66011 12.008 4.93794 13.4047C5.21577 14.8015 5.90154 16.0845 6.90854 17.0915C7.91553 18.0985 9.19852 18.7842 10.5953 19.0621C11.992 19.3399 13.4398 19.1973 14.7555 18.6523C16.0712 18.1073 17.1957 17.1844 17.9869 16.0003C18.7781 14.8162 19.2004 13.4241 19.2004 12C19.2008 11.0543 19.0148 10.1178 18.6531 9.24408C18.2913 8.37032 17.761 7.57641 17.0923 6.90772C16.4236 6.23902 15.6297 5.70866 14.7559 5.34693C13.8822 4.98521 12.9457 4.79922 12 4.79958Z" fill="#485F7D"/>
  <path d="M12.9001 8.26081C12.9001 8.75794 12.4971 9.16094 12 9.16094C11.5029 9.16094 11.0999 8.75794 11.0999 8.26081C11.0999 7.76367 11.5029 7.36067 12 7.36067C12.4971 7.36067 12.9001 7.76367 12.9001 8.26081Z" fill="#485F7D"/>
  <path d="M12.9001 15.5999V11.3033C12.9001 11.0646 12.8053 10.8356 12.6365 10.6668C12.4677 10.498 12.2387 10.4032 12 10.4032C11.7613 10.4032 11.5323 10.498 11.3635 10.6668C11.1947 10.8356 11.0999 11.0646 11.0999 11.3033V15.5999C11.0999 15.8386 11.1947 16.0675 11.3635 16.2364C11.5323 16.4052 11.7613 16.5 12 16.5C12.2387 16.5 12.4677 16.4052 12.6365 16.2364C12.8053 16.0675 12.9001 15.8386 12.9001 15.5999Z" fill="#485F7D"/>
</svg>