<svg width="18" height="18" viewBox="0 0 18 18" fill="none" xmlns="http://www.w3.org/2000/svg">
<rect x="0.75" y="0.75" width="16.5" height="16.5" rx="8.25" fill="white"/>
<rect x="0.75" y="0.75" width="16.5" height="16.5" rx="8.25" stroke="#E5007A" stroke-width="0.5"/>
<path d="M13.6738 8.79032C13.8838 8.494 14 8.13094 14 7.75319C14 7.15387 13.6862 6.58659 13.1813 6.27024C13.0512 6.18881 12.9032 6.14596 12.7525 6.14611H9.755L9.83 4.50565C9.8475 4.10922 9.71625 3.73281 9.46125 3.44583C9.33611 3.30438 9.18513 3.19184 9.01764 3.11516C8.85016 3.03848 8.66973 2.99929 8.4875 3.00001C7.8375 3.00001 7.2625 3.46719 7.09 4.13591L6.01625 8.28711H4.4C4.17875 8.28711 4 8.47798 4 8.71424V13.5729C4 13.8091 4.17875 14 4.4 14H11.9162C12.0312 14 12.1438 13.976 12.2475 13.9279C12.8425 13.657 13.2262 13.0363 13.2262 12.3475C13.2262 12.1793 13.2038 12.0138 13.1588 11.8537C13.3688 11.5573 13.485 11.1943 13.485 10.8165C13.485 10.6483 13.4625 10.4828 13.4175 10.3227C13.6275 10.0263 13.7438 9.66327 13.7438 9.28553C13.7413 9.11734 13.7188 8.9505 13.6738 8.79032ZM4.9 13.039V9.24815H5.9125V13.039H4.9ZM12.855 8.32715L12.5813 8.58076L12.755 8.9198C12.8122 9.03148 12.8419 9.15688 12.8413 9.28419C12.8413 9.50443 12.7513 9.71399 12.5963 9.85815L12.3225 10.1118L12.4963 10.4508C12.5535 10.5625 12.5832 10.6879 12.5825 10.8152C12.5825 11.0354 12.4925 11.245 12.3375 11.3892L12.0638 11.6428L12.2375 11.9818C12.2947 12.0935 12.3244 12.2189 12.3238 12.3462C12.3238 12.6452 12.1587 12.9148 11.9037 13.0376H6.7125V9.20544L7.95625 4.39353C7.98832 4.27019 8.05717 4.16138 8.15235 4.08359C8.24754 4.00579 8.36388 3.96324 8.48375 3.96239C8.57875 3.96239 8.6725 3.99176 8.7475 4.05182C8.87125 4.1506 8.9375 4.30009 8.93 4.45893L8.81 7.10715H12.74C12.9625 7.25265 13.1 7.49825 13.1 7.75319C13.1 7.97343 13.01 8.18166 12.855 8.32715Z" fill="#E5007A"/>
</svg>
