<svg width="10" height="9" viewBox="0 0 10 9" fill="none" xmlns="http://www.w3.org/2000/svg">
<path d="M4.61124 0.909577L4.61128 0.909541C4.66043 0.862754 4.74038 0.806692 4.8123 0.780512L4.61124 0.909577ZM4.61124 0.909577C4.58289 0.936583 4.54332 0.976332 4.51103 1.03333C4.47805 1.09154 4.46127 1.1519 4.45154 1.21304C4.43428 1.32164 4.43335 1.48141 4.43335 1.7215V2.07193C4.2917 2.25259 3.75371 2.84986 3.25194 3.37988C3.25194 3.37988 3.25194 3.37988 3.25194 3.37988L3.01966 3.62524L3.01097 3.63442M4.61124 0.909577L3.01097 3.63442M3.01097 3.63442V3.29922V3.04922H2.76097H1.88048H1H0.75V3.29922V5.56737V7.83552V8.08552H1H1.88048H2.76097H3.01097V7.83552V7.75364L3.11694 7.79174L3.4653 7.91696C3.4653 7.91696 3.4653 7.91696 3.46531 7.91697C3.84073 8.05193 3.99976 8.10277 4.18987 8.14421C4.52918 8.21818 4.56917 8.21836 5.90757 8.22427L5.97302 8.22456C6.44897 8.22667 6.7927 8.227 7.02629 8.22536C7.14294 8.22454 7.23344 8.22322 7.29976 8.22133C7.3584 8.21967 7.41606 8.2173 7.45351 8.21103L7.45352 8.21103C7.92023 8.1329 8.27976 7.72307 8.27901 7.2494L3.01097 3.63442ZM8.19683 6.85993C8.30192 6.742 8.37055 6.60977 8.4122 6.45119M8.19683 6.85993L8.21458 3.30469C8.30255 3.34798 8.39611 3.41973 8.4691 3.49203C8.8458 3.86521 8.85947 4.42194 8.51568 4.80872C8.67144 5.15553 8.61139 5.54572 8.35774 5.83226M8.19683 6.85993C8.25379 6.98351 8.27878 7.10466 8.27901 7.24938L8.19683 6.85993ZM8.4122 6.45119C8.4122 6.4512 8.41219 6.45121 8.41219 6.45122L8.1704 6.38768L8.4122 6.45119ZM8.4122 6.45119C8.44515 6.32579 8.44517 6.18885 8.42499 6.06544C8.41233 5.988 8.3904 5.90779 8.35774 5.83226M8.35774 5.83226C8.34381 5.84799 8.32931 5.86341 8.31422 5.87849L8.31421 5.8785L8.22279 5.96987L8.09188 5.83889L8.04606 5.79304M8.35774 5.83226C8.33852 5.78783 8.3156 5.74501 8.28867 5.70533L8.25292 5.65266L8.15495 5.71915L8.04606 5.79304M6.40823 3.19064C6.55612 3.19179 6.74355 3.19251 6.947 3.19257C7.41985 3.1927 7.67894 3.19314 7.83914 3.2051C7.92258 3.21134 7.99084 3.22134 8.05521 3.23988C8.11988 3.25851 8.17076 3.28312 8.21454 3.30467L6.40823 3.19064ZM6.40823 3.19064C6.41732 3.1599 6.42681 3.12785 6.43658 3.09499C6.43658 3.09498 6.43658 3.09498 6.43658 3.09497L6.55607 2.69281L6.56761 2.65397L6.56629 2.61347L6.55764 2.34768M6.40823 3.19064L6.55764 2.34768M6.55764 2.34768C6.55238 2.18621 6.54256 2.05764 6.51764 1.9396C6.49181 1.81719 6.45184 1.71559 6.39651 1.6044M6.55764 2.34768L6.39651 1.6044M6.39651 1.6044C6.15157 1.11207 5.65228 0.787513 5.09833 0.753103M6.39651 1.6044L5.09833 0.753103M8.04606 5.79304L8.08181 5.84572L8.25691 4.85012C8.41694 5.13618 8.37026 5.46901 8.13749 5.70167L8.04606 5.79304ZM5.09833 0.753103C5.00097 0.747055 4.90553 0.746581 4.81234 0.780498L5.09833 0.753103Z" fill="white" stroke="#E5007A" stroke-width="0.5"/>
</svg>
