<svg width="60" height="60" viewBox="0 0 60 60" fill="none" xmlns="http://www.w3.org/2000/svg">
<path fill-rule="evenodd" clip-rule="evenodd" d="M31.2149 55.7547C30.9944 55.6745 30.633 55.4364 30.4117 55.2258C29.7541 54.5995 29.7062 54.2985 29.7062 50.7877V47.7289L29.4246 47.3581C28.4928 46.1306 24.5242 41.7262 20.9137 37.9124L19.2797 36.1864L19.2807 22.9633L19.2818 9.74029L21.7325 8.85935C24.3677 7.91196 25.3932 7.58912 26.6092 7.32407C28.8092 6.84449 28.8366 6.84328 38.7864 6.79919C45.481 6.76949 48.4244 6.79013 48.9032 6.87026C51.3694 7.2831 53.2458 9.45742 53.2419 11.8978C53.2405 12.8328 53.0592 13.5261 52.6056 14.3322L52.2589 14.9482L52.8801 15.5679C53.5597 16.2459 53.9811 16.9897 54.2366 17.9624C54.5485 19.1497 54.2799 20.7928 53.6134 21.775L53.3619 22.1456L54.005 22.7883C55.6425 24.4251 55.9709 26.7664 54.8451 28.7787L54.5003 29.395L55.0383 29.9131C57.1595 31.9559 57.1858 35.0169 55.1001 37.0831C54.6841 37.4953 54.1774 37.8725 53.7707 38.0726C52.5714 38.6629 52.3624 38.6786 45.6298 38.6805C42.2657 38.6814 39.5132 38.7081 39.5132 38.7398C39.5132 38.7714 39.8915 40.0704 40.3538 41.6265L41.1944 44.4557L41.1335 46.3255C41.0613 48.5432 40.8708 49.4463 40.1832 50.8281C38.7474 53.7141 35.803 55.6407 32.5163 55.8448C31.8633 55.8854 31.5058 55.8606 31.2149 55.7547ZM3.7948 23.7331V7.77728H9.98875H16.1827V23.7331V39.6889H9.98875H3.7948V23.7331Z" fill="white"/>
</svg>
