<svg  viewBox="0 0 24 25" fill="none" xmlns="http://www.w3.org/2000/svg">
<path d="M12.1984 9.73278C12.2257 9.73278 12.251 9.73278 12.2809 9.73278C12.3109 9.73278 12.3335 9.73278 12.3613 9.72895C12.3072 9.7295 12.2525 9.73059 12.1984 9.73278Z" fill="#485F7D"/>
<path d="M22.5448 15.7984C22.4999 15.3045 22.3432 14.8287 22.0874 14.4101C21.8316 13.9915 21.4841 13.6421 21.0735 13.3906C21.4787 12.9403 21.7008 12.344 21.693 11.7269V11.6925C21.6767 10.3484 20.6894 9.3426 19.392 9.3426H19.3663C18.9174 9.34728 18.4799 9.48963 18.1083 9.75186C17.7367 10.0141 17.4476 10.3846 17.2771 10.817C17.1066 11.2494 17.0623 11.7245 17.1496 12.1831C17.237 12.6416 17.4522 13.0631 17.7683 13.3949C17.3035 13.6751 16.9218 14.0831 16.6648 14.5743C16.6648 14.4161 16.6601 14.2569 16.6564 14.0976C16.627 12.7246 16.0364 11.5474 14.9492 10.6998C14.7261 10.5247 14.4898 10.3688 14.2425 10.2335C14.7143 9.70731 14.9729 9.01179 14.9644 8.29189V8.26398C14.9645 7.89664 14.8943 7.53297 14.7579 7.19417C14.6216 6.85537 14.4219 6.54822 14.1705 6.29062C13.9143 6.031 13.6108 5.82739 13.2779 5.69177C12.945 5.55616 12.5894 5.49127 12.232 5.50094C10.7744 5.52393 9.59947 6.79134 9.61261 8.32636C9.62207 9.03843 9.88996 9.72037 10.3624 10.2352C8.80392 11.033 7.9595 12.4241 7.91852 14.253C7.91852 14.3592 7.91431 14.4648 7.91274 14.571C7.64776 14.0845 7.26352 13.68 6.79928 13.3988C7.00958 13.1721 7.17458 12.9043 7.28471 12.6107C7.39485 12.3171 7.44793 12.0037 7.44087 11.6886C7.41985 10.3462 6.43093 9.3426 5.13566 9.3426H5.10781C4.65987 9.34856 4.22348 9.49145 3.85285 9.75351C3.48222 10.0156 3.19368 10.3852 3.02307 10.8166C2.85246 11.248 2.80729 11.7221 2.89318 12.18C2.97908 12.6379 3.19224 13.0594 3.5062 13.3922C2.71118 13.8771 2.14736 14.7007 2.05172 15.6518C1.97973 16.3911 1.99917 17.1397 2.01441 17.8616C2.02177 18.1746 2.02913 18.4974 2.02913 18.8148V19.4951H16.1867V19.5H22.5658V18.8192C22.5658 18.5171 22.5721 18.208 22.5779 17.9092C22.5894 17.2202 22.6036 16.5077 22.5448 15.7984ZM5.12148 10.7041C5.70737 10.6932 6.12511 11.1118 6.13457 11.7116C6.1435 12.2983 5.72103 12.7514 5.15195 12.7618C5.02423 12.7639 4.89744 12.7388 4.77935 12.6881C4.66125 12.6374 4.55435 12.5621 4.46517 12.4668C4.36982 12.3708 4.29365 12.2561 4.24108 12.1293C4.1885 12.0025 4.16054 11.8661 4.15883 11.728C4.15823 11.46 4.25882 11.2024 4.4389 11.0109C4.61898 10.8193 4.86412 10.7092 5.12148 10.7041ZM6.97163 17.8211C6.97163 17.9245 6.96638 18.029 6.96375 18.1341H3.32755C3.32755 18.0312 3.32282 17.9294 3.32071 17.8287C3.3039 17.1173 3.28814 16.4464 3.35329 15.7913C3.43474 14.9672 4.23397 14.2946 5.13566 14.2908H5.14302C6.04577 14.2908 6.84972 14.9513 6.93643 15.7683C7.00684 16.4256 6.99107 17.1025 6.97163 17.8211ZM11.3062 7.29153C11.4285 7.15813 11.5752 7.05148 11.7376 6.97781C11.9 6.90415 12.0749 6.86494 12.252 6.86249H12.2762C12.6412 6.85614 12.9938 6.99987 13.2577 7.26252C13.3856 7.39495 13.4869 7.55258 13.5556 7.72622C13.6244 7.89986 13.6592 8.08601 13.6581 8.27383C13.6655 9.07664 13.1253 9.67751 12.3634 9.73059C12.3371 9.73059 12.3109 9.73388 12.283 9.73442C12.2552 9.73497 12.2305 9.73442 12.2005 9.73442C11.8796 9.71476 11.5767 9.57321 11.3493 9.33658C11.0843 9.07074 10.9314 8.70625 10.9242 8.32314C10.917 7.94002 11.0561 7.56959 11.3109 7.29317L11.3062 7.29153ZM15.3622 17.3707C15.3622 17.6246 15.3596 17.8785 15.3585 18.1341H9.21746V18.0575C9.21746 17.6689 9.21623 17.2806 9.21378 16.8924C9.2101 16.0359 9.2059 15.1505 9.22534 14.2853C9.25477 12.9511 9.82069 12.0235 10.9557 11.4484C12.0702 10.8842 13.1506 10.9991 14.1668 11.7904C14.9313 12.3858 15.3291 13.1728 15.3496 14.1282C15.3722 15.2003 15.3675 16.2548 15.3622 17.3707ZM19.392 10.7041C19.6857 10.7041 19.9322 10.8048 20.1061 10.981C20.1972 11.077 20.2689 11.191 20.3169 11.3163C20.3649 11.4416 20.3883 11.5756 20.3857 11.7105C20.393 12.3081 19.9816 12.7503 19.4072 12.7618C19.2794 12.7617 19.1529 12.7352 19.0349 12.6839C18.9169 12.6327 18.8099 12.5576 18.7199 12.463C18.5781 12.3239 18.4794 12.1438 18.4366 11.9459C18.3937 11.748 18.4086 11.5413 18.4794 11.3522C18.5501 11.1632 18.6735 11.0005 18.8337 10.885C18.9939 10.7695 19.1835 10.7066 19.3783 10.7041H19.392ZM21.2705 17.8813C21.2705 17.9661 21.2669 18.0525 21.2653 18.139H17.5361C17.5361 18.0296 17.5375 17.9212 17.5403 17.8139C17.5492 17.0631 17.5576 16.3544 17.6669 15.6715C17.8025 14.8293 18.6232 14.2361 19.5743 14.2941C20.4387 14.3461 21.1712 15.0602 21.2427 15.9161C21.2952 16.552 21.2837 17.1977 21.269 17.8813H21.2705Z" />
</svg>
