<svg width="16" height="16" viewBox="0 0 16 16" fill="none" xmlns="http://www.w3.org/2000/svg">
<path d="M13.9991 2.64V5.95361C14.0013 6.10656 13.9465 6.25486 13.8453 6.3696C13.7441 6.48433 13.6039 6.55727 13.4518 6.5742C13.3685 6.58195 13.2845 6.57228 13.2051 6.54579C13.1257 6.5193 13.0527 6.47658 12.9907 6.42035C12.9288 6.36412 12.8792 6.2956 12.8451 6.21916C12.811 6.14271 12.7933 6.06002 12.7929 5.97633V4.06201C12.7928 4.06144 12.7926 4.06089 12.7923 4.06042C12.792 4.05995 12.7915 4.05957 12.791 4.05934C12.7904 4.0591 12.7899 4.059 12.7893 4.05905C12.7887 4.05911 12.7882 4.05931 12.7877 4.05964L6.51172 10.337C6.39872 10.4497 6.24562 10.5128 6.0861 10.5125C5.92657 10.5122 5.77368 10.4486 5.66106 10.3356C5.54845 10.2226 5.48533 10.0695 5.4856 9.91C5.48587 9.75047 5.54949 9.59759 5.66249 9.48497L11.9408 3.21041C11.9413 3.21019 11.9418 3.20983 11.9421 3.20937C11.9424 3.2089 11.9425 3.20836 11.9425 3.20781C11.9425 3.20726 11.9424 3.20672 11.9421 3.20625C11.9418 3.20579 11.9413 3.20543 11.9408 3.20521H10.0473C9.89447 3.20732 9.74628 3.15246 9.63165 3.0513C9.51701 2.95014 9.44414 2.80993 9.42722 2.65799C9.41962 2.57489 9.42935 2.49113 9.45578 2.41198C9.48222 2.33284 9.52479 2.26005 9.58081 2.1982C9.63682 2.13636 9.70506 2.08681 9.78121 2.0527C9.85736 2.01858 9.93976 2.00064 10.0232 2H13.3609C13.5303 2.00063 13.6925 2.06832 13.8121 2.18826C13.9317 2.3082 13.9989 2.47063 13.9991 2.64Z" fill="#E5007A"/>
<path d="M13.9991 8.67456V12.7219C13.9991 13.0609 13.8644 13.386 13.6247 13.6257C13.385 13.8653 13.0599 14 12.7209 14H3.27811C2.93913 14 2.61404 13.8653 2.37435 13.6257C2.13466 13.386 2 13.0609 2 12.7219V3.27811C2 2.93913 2.13466 2.61404 2.37435 2.37435C2.61404 2.13466 2.93913 2 3.27811 2H7.32592C7.48574 2 7.63901 2.06349 7.75202 2.1765C7.86503 2.28951 7.92852 2.44278 7.92852 2.6026C7.92852 2.76242 7.86503 2.9157 7.75202 3.02871C7.63901 3.14172 7.48574 3.20521 7.32592 3.20521H3.95172C3.75384 3.20558 3.56419 3.28435 3.42427 3.42427C3.28435 3.56419 3.20558 3.75384 3.20521 3.95172V12.0464C3.20546 12.2443 3.28419 12.434 3.42413 12.574C3.56407 12.7139 3.75381 12.7926 3.95172 12.7929H12.0464C12.2442 12.7926 12.4339 12.714 12.5738 12.5741C12.7137 12.4343 12.7925 12.2447 12.7929 12.0469V8.67456C12.7929 8.51474 12.8564 8.36146 12.9694 8.24845C13.0824 8.13544 13.2357 8.07195 13.3955 8.07195C13.5553 8.07195 13.7086 8.13544 13.8216 8.24845C13.9346 8.36146 13.9981 8.51474 13.9981 8.67456H13.9991Z" fill="#E5007A"/>
</svg>
