<?xml version="1.0" encoding="UTF-8"?><svg id="Layer_2" xmlns="http://www.w3.org/2000/svg" viewBox="0 0 455.15 456.91"><defs><style>.cls-1{fill:#f2e06e;}.cls-2{fill:#010101;}.cls-3{fill:#fff;}.cls-4{fill:#efeff4;}.cls-5{fill:#c7c9d2;}</style></defs><g id="Layer_1-2"><g id="TVO2A8.tif"><path class="cls-4" d="m71.26,430.52c-8.81-3.91-17.31-8.41-25.54-13.41-9.78-5.94-18.59-13.12-26.11-21.7-9.66-11.03-16.21-23.68-18.76-38.32-1.71-9.82-.64-19.42,1.35-29.02,2.62-12.59,6.78-24.74,10.67-36.96,6.58-20.66,12.34-41.54,16.38-62.86,1.43-7.53,2.41-15.14,3.26-22.78,1.16-10.45,1.02-20.89.75-31.32-.17-6.39-.89-12.84-2.24-19.15-.12-.56-.06-1.15-.08-1.73.48.12,1.01.14,1.44.36,9.55,4.93,19.95,5.71,30.39,6.15,4.58.19,9.07.3,12.99,3.07.23,1.82.23,3.64.03,5.47-.23.08-.57.08-.68.24-2.5,3.65-5.84,6.55-8.65,9.93-5,6-6.95,12.54-3.61,20.03,1.51,3.4,3.8,6.25,6.62,8.61,6.73,5.64,14.16,8.89,23.14,6.18,2.21-.67,4.42-1.34,6.62-2.01.36,1.43-.19,2.77-.41,4.14-1.2,7.73-5.68,12.5-13.08,14.91-3.47,1.13-7.37,1.58-9.8,5.01-.82,1.15-1.39,2.4-2.15,3.57-3.7,5.7-4.03,11.97-1.77,18.05,3.5,9.44,10.74,15.49,19.93,19.15,1.65.66,1.54,1.45,1.32,2.57-1.33,6.86-2.83,13.68-2.99,20.71-.04,1.83-.61,3.69-2.35,4.84-2.66.4-4.09-.65-4.69-3.36-.46-2.08-1.55-4.01-2.28-6.04-.3-.84-.69-1.22-1.63-1.07-2.28.36-4.58.64-6.86.99-1.32.2-2.13.69-2.26,2.36-.14,1.72-.37,3.45-.39,5.19-.03,2.51-.44,4.76-3.57,5.21-.7.1-1.39.56-2.01.97-1.1.73-1.86.46-2.81-.41-1.88-1.74-3.94-3.29-5.91-4.94-1.02-.85-1.86-1.02-3,.03-1.64,1.5-3.49,2.79-5.32,4.07-1.01.7-1.22,1.33-.63,2.46,1.18,2.29,2.19,4.65,3.29,6.98.4.84.72,1.61.15,2.57-2.74,4.67-4.03,5.26-9.3,4.1-.32-.07-.65-.12-.98-.18q-4.64-.79-6.33,3.63-2.03,5.33,2.73,8.5c2.64,1.75,5.5,3.36,3.76,7.36-.15.35-.07.83-.03,1.24.13,1.19-.42,1.82-1.52,2.21-2.5.88-4.95,1.9-7.46,2.76-1.11.38-1.7.93-1.5,2.14.15.89.32,1.79.4,2.69.19,1.96-.13,4.33,1.14,5.68,1.36,1.45,3.79.67,5.77.77,3.26.17,5.96.77,6.92,4.72.46,1.89.84,3.12-.74,4.59-1.38,1.28-2.24,3.11-3.61,4.41-1.78,1.67-1.63,2.9.05,4.54,1.74,1.7,2.62,5.05,4.82,5.27,2.14.21,4.6-1.62,6.74-2.88,2.21-1.3,3.61-.8,5.74.57,2.96,1.91,3.5,3.87,2.34,6.9-.43,1.13-.29,2.46-.61,3.65-.57,2.17.03,3.47,2.29,4.12,1.83.52,3.58,1.31,5.33,2.05,1.18.5,1.9.35,2.62-.85,1.29-2.12,2.84-4.08,4.23-6.15.59-.88,1.21-1.51,2.38-1.48q5.66.17,7.7,5.58c.23.62.67,1.19.79,1.83.47,2.48,1.46,4.21,4.43,3.66.21-.04.51.35.77.54-1.56,4.12-3.25,8.19-4.75,12.34-.64,1.76-2.08,3.42-4.12,4.49-4.98,2.61-9.12,6.06-8.78,12.52Zm-56.22-96.74c.53,6.03,0,13.32,1.39,20.48.91,4.73,1.91,9.43,3.38,14.03,2.45,7.68,5.32,15.17,9.53,22.09.64,1.05,1.07,3.17,2.36,2.41,1.12-.66-.48-2.27-1.12-3.25-3.29-5.05-5.39-10.68-7.57-16.21-2.72-6.91-3.84-14.28-5.12-21.59-.99-5.69-.9-11.43-1.42-17.14-.34-3.77.67-7.54.5-11.36-.11-2.43.83-4.86.47-7.35-.04-.28.25-.6.3-.91.24-1.52.44-3.05.66-4.58.07-.49-.24-.84-.6-.98-.46-.18-.68.23-.83.62-1.02,2.56-1.73,5.51-1.68,7.95.1,4.88-.16,9.73-.25,15.79Zm-3.98-5.41c.53-.67-.03-1.06-.52-1.25-.65-.24-.95.09-1.14.83-.7,2.75-.95,5.47-.79,8.33.2,3.67-.39,7.39-.11,11.04.38,4.91,1.04,9.81,1.99,14.64,1.46,7.47,3.83,14.68,7.45,21.42,1.06,1.98,2.47,3.78,3.74,5.65.38.56.99.75,1.51.37.58-.43,0-.85-.25-1.23-.88-1.34-1.82-2.65-2.65-4.02-3.58-5.94-5.82-12.39-7.39-19.13-.71-3.04-.52-6.34-1.27-9.11-1.13-4.17-.88-8.28-1.24-12.38-.44-5.04-.12-10.12.68-15.17Zm22.61-46.19c.74.25,1.66-.08,2.5-.68.48-.34.99-.8.6-1.44-.41-.68-.98-.36-1.48,0-1.3.95-2.61.95-3.88-.04-1.13-.88-1.39-2.14-.94-3.35.52-1.4,1.6-2.27,3.28-2.03.6.09,1.21.04,1.13-.85-.06-.74-.62-.58-1.09-.63-2.61-.26-5.19,1.71-5.38,4.12-.21,2.68,2.01,4.87,5.26,4.89Z"/><path class="cls-5" d="m75.76,162.84c-3.92-2.77-8.41-2.88-12.99-3.07-10.43-.44-20.84-1.22-30.39-6.15-.43-.22-.96-.24-1.44-.36-.4-.7-1.15-.93-1.78-1.31-14.19-8.47-23.5-20.73-26.46-36.94-2.67-14.59.24-28.4,9.7-40.33,4.74-5.98,11.1-9.28,18.46-10.84,1.14-.13,2.29-.32,3.43-.4,8.18-.56,16.05.78,23.55,4.06,10.42,4.56,19.11,11.19,25.14,21.08,2.67,4.39,4.58,9.23,7.93,13.22,4.49,5.35,10.18,7.34,17.05,6.28,4.15-.64,7.81-2.78,11.84-3.76,4.74-1.16,9-.36,12.72,3.01,3.81,3.45,4.92,8.14,6.26,12.76.7,2.43.57,5.1,2.05,7.3-.19.53-.59,1.08-.53,1.57.43,3.26-1.09,6.26-1.18,9.49-.06,2-.2,4.07-.45,6.1-.46,3.72-1.05,7.43-1.38,11.16-.28,3.17-1.02,6.26-1.31,9.44-.17,1.86-.05,3.74-.4,5.63-.82,4.39-1.24,8.86-1.8,13.31-.09.75.55.67,1,.78-.22,2.67-1.39,5.29-.49,8.03-1.01,1.2-2.01,2.4-3.02,3.6-2.41,2.88-5.44,4.1-9.23,3.83-2.98-.21-5.98.01-8.97-.07-2.14-.06-3.99.78-5.76,1.71-3.87,2.04-6.49,5.25-8.08,9.31-2.21.67-4.41,1.35-6.62,2.01-8.99,2.71-16.41-.54-23.14-6.18-2.82-2.36-5.11-5.2-6.62-8.61-3.34-7.5-1.39-14.03,3.61-20.03,2.81-3.37,6.15-6.28,8.65-9.93.11-.16.45-.16.68-.24.11,3.24.19,6.47.34,9.71.13,3.02,1.47,4.29,4.49,4.29,8.07.01,16.14.05,24.2-.04,1.58-.02,2.62.45,3.58,1.67,1.58,2.01,3.31,3.91,5,5.84.42.48.85,1.14,1.65.78.7-.32.75-1,.74-1.7-.02-1.5.05-3-.02-4.49-.06-1.29.29-1.92,1.74-2.1,3.2-.4,4.64-2.11,4.61-5.36-.06-7.24-.19-14.47-.33-21.7-.05-2.43-1.45-3.95-3.81-3.96-12.56-.04-25.12-.05-37.68.01-2.68.01-4.41,1.95-4.45,4.62-.04,2.32-.07,4.65-.1,6.97Z"/><path class="cls-2" d="m99.23,211.28c1.59-4.07,4.21-7.28,8.08-9.31,1.77-.93,3.62-1.77,5.76-1.71,2.99.09,5.99-.14,8.97.07,3.79.27,6.82-.95,9.23-3.83,1.01-1.2,2.01-2.4,3.02-3.6,3.44-3.26,6.52-7.01,11.45-8.18,2.65.47,5.34-.4,8.03.8,3.99,1.79,6.82,4.64,9.03,8.27-.24,2.46.48,5.06-1.37,7.26-.56.67-.21,1.56.42,2.21-.2,3.68.16,7.44-1.23,10.97-.93,2.36-2.04,4.57-5.32,4.06-1.65-.26-2.78.67-3.47,2.24-.57,1.29-.81,2.63-1.11,3.97,4.01.94,8.08,1.25,11.63,3.54,4.86,3.14,8.38,7.51,11.66,12.13.59.96.78,2.25,2.12,2.6-.27,1.79,1.16,2.95,1.66,4.46,1.8,3.25,1.52,6.94,2.13,10.53.89-3.42,2.85-6.42,2.82-9.97.62-2.29,1.53-4.43,1.06-7.01-.57-3.09.49-5.9,2.89-8.19,2.67-2.55,5.44-4.86,8.79-6.49.92-.45,2.05-.65,2.48-.23.64.63.57,1.92.06,2.76-.85,1.39-1.91,2.66-2.92,3.94-.52.65-1.01,1.1-.48,2.13,1.44,2.81.39,5.3-1.52,7.44-1.34,1.5-2.12,3.06-1.82,5.08-.24,2.15.19,4.36-.5,6.48-.19,2.2-.27,4.41-.59,6.59-.68,4.63-1.46,9.24-3.14,13.64-1.45,3.82-4.79,5.19-8.68,3.8-2.76-.99-4.47-3.51-7.1-4.66-.05-.38-.25-.64-.63-.44-2.14,1.14-3.87.87-5.21-1.31-.3-.49-.66-1.22-1.51-.98-.63.97.39,1.68.34,2.59-.4,6.77,1.07,13.45.98,20.21-.03,1.8-.13,3.58.39,5.39.25.86.78,2.47-.59,2.84-2.12.57-1.31,2.02-1.14,3.1.5,3.05,1.19,6.07,1.41,9.16.56,2.49.25,5.04.47,7.54.43,4.86.81,9.72.67,14.59-.28,9.87-.87,19.74-1.73,29.58-.32,3.66-.48,7.37-1.24,10.95-.97,4.61-1.15,9.31-2.11,13.94-1.02,4.89-1.76,9.89-2.42,14.86-.56,4.18-2.09,8.18-2.16,12.43-1.17,3.75-2.44,7.48-2.47,11.48-1.01,1.18-.28,3.42-2.23,3.97-1.49.42-1.91,1.3-1.86,2.71.06,1.54-.22,2.99,1.76,3.83,4.96,2.12,9.86,4.41,14.71,6.77,4.3,2.1,4.83,3.24,4.44,8.15-1.06,2.13-2.95,2.05-4.96,2.07-6.26.06-12.51.45-18.76.37-3.36-.04-6.82-.36-9.77-2.39-1.41-.97-2.01-2.33-2-4,0-1.56.53-3.05.71-4.6.29-2.54.55-5.43,1.93-7.41,1.82-2.61,2.4-4.57.23-7.03-.27-.3-.34-.98-.21-1.4.95-3.21.56-6.52.8-9.78.61-8.21-.62-16.41-.34-24.63,0-.25.01-.5-.02-.75-.91-6.51-.99-13.08-1.49-19.62-.17-2.21-.22-4.44-.58-6.61-.83-4.99-1.09-10.04-1.82-15.04-.72-4.94-1.44-9.86-2.72-14.67-1.32-4.99-3.74-9.66-4.35-14.86-.06-.54-.15-1.03-.83-.96-.49.05-.71.45-.66.89.09.89-.06,1.76.18,2.69,1.32,5.1,3.02,10.1,4.54,15.14,1.91,6.33,2.14,12.23-.66,18.22-.55,1.48-1.14,2.95-1.65,4.45-.79,2.36-2.15,4.53-2.36,7.07-.35.65-.78,1.27-1.05,1.95-2.95,7.5-6.75,14.57-10.78,21.53-1.43,2.46-3.15,4.73-4.67,7.12-3.66,5.75-7.85,11.07-12.91,15.6-2.09,1.88-3.96,3.61-5.09,6.3-.73,1.75-.02,3.15-.02,4.71,0,3.57.09,7.14.15,10.71.11,3.29.28,6.57.32,9.86.06,5.2-3.65,7.69-8.71,6.27-4.62-1.29-6.56-4.97-8.17-8.76-2.22-5.2-3.98-10.61-4.16-16.37-.34-6.46,3.8-9.9,8.78-12.52,2.04-1.07,3.48-2.72,4.12-4.49,1.5-4.15,3.19-8.22,4.75-12.34,1.86-4.21,3.11-8.65,4.53-13.01,2.06-6.28,4.24-12.54,5.37-19.08.69-2.27,1.47-4.51,2.04-6.81,1.21-4.92,2.4-9.84,3.43-14.8.92-4.42,1.99-8.83,2.42-13.34,1.64-6.76,2.62-13.63,3.56-20.5.99-5.3,2.08-10.57,3.94-15.65.25-.68-.21-.97-.53-1.23-1.58-1.27-1.72-3.08-1.32-4.72,1.19-4.96,1.92-10,2.83-15.01.07-.41.28-.86-.03-1.16-.48-.46-.87.06-1.3.25-.91.4-1.81,1.04-2.74,1.11-4.19.31-5.89,2.8-6.92,6.6-1.13,4.18-2.92,8.18-4.42,12.26-1.35,3.38-3.31,6.57-2.94,10.46.1,1-.66,1.87-1.33,2.6-1.12,1.22-2.28,2.42-3.52,3.52-1.84,1.64-2.88,3.55-2.68,6.09.08.97.23,2.01-.5,2.86-2.14,1.57-3.19,1.34-4.55-.97-.67-5.9-1.81-11.91,3.69-16.43,1.74-1.15,2.31-3.01,2.35-4.84.16-7.04,1.65-13.86,2.99-20.71.22-1.12.33-1.91-1.32-2.57-9.19-3.66-16.42-9.71-19.93-19.15-2.26-6.08-1.93-12.36,1.77-18.05.76-1.16,1.33-2.42,2.15-3.57,2.44-3.42,6.33-3.88,9.8-5.01,7.4-2.41,11.88-7.18,13.08-14.91.21-1.37.76-2.71.41-4.14Zm78.57,42.74c.15-1.51-.24-2.83-.74-4.19-1.7-4.65-4.11-8.92-7.32-12.63-3.26-3.77-6.4-7.79-11.58-9.28-6.47-1.86-13.15-2.05-19.78-2.61-3.59-.3-7.17.53-10.75.91-8,.85-14.59,4.15-19.72,10.44-4.14,5.07-6.85,10.91-9.61,16.75-.76,1.62-.36,2.82.94,3.84,3.44,2.7,6.98,5.28,10.33,8.09,1.51,1.27,2.39.94,3.44-.39.87-1.11,1.85-2.13,2.79-3.2.43-.49.99-.65,1.58-.49.71.18.26.83.43,1.23.72,1.69.01,3.36-.03,5.03-.2,8.32-2.11,16.4-3.74,24.49-.44,2.18.18,3.31,1.84,4.19,7.57,4,15.17,7.96,22.77,11.91,6.01,3.13,12.03,6.24,18.06,9.32.72.37,2.1,1.53,1.99-.52-.21-3.91,1.13-7.65,1.04-11.53-.05-2.11.95-3.76,2.69-4.69,1.2-.64,1.38-1.38,1.32-2.53-.36-6.59-.83-13.18-.95-19.78-.06-3.15-.71-6.24-.57-9.39.03-.7.09-1.36.81-1.65.66-.27,1.12.25,1.51.63.84.81,1.7,1.62,2.37,2.56,1.17,1.64,2.47,1.36,3.44.1,3.81-4.94,6.28-10.5,7.46-16.6Zm-92.56,59.27c.19,2.6-.19,4.42.54,6.18.22.54.15,1.23.96,1.14.93-.09.55-.88.55-1.37,0-2.64.9-4.88,2.59-6.91,2.16-2.59,6.02-4.2,5.1-8.62,2.73-7.24,5.44-14.48,8.18-21.7,1.73-4.57,3.44-9.14,5.31-13.65.45-1.09.27-1.67-.55-2.3-2.33-1.81-4.64-3.64-6.97-5.45-.81-.63-1.37-.8-1.71.55-.72,2.89-1.76,5.71-2.41,8.62-1.2,5.44-2.32,10.9-3.28,16.39-.73,4.17-1.47,8.38-1.64,12.6-.12,2.97-1.13,5.19-3.16,7.14-2.34,2.24-4.42,4.57-3.51,7.39Zm93.26-54.18c-1.37,2.88-2.55,5.77-4.08,8.47-2.29,4.02-2.37,4.07,1.42,6.72.41.29.79.6,1.2.88,3.88,2.74,6.68,1.97,8.63-2.37.64-1.42.8-2.96,1.2-4.42,1.85-6.72,2.49-13.61,2.72-20.51.1-2.99.76-5.42,2.75-7.59,1.03-1.12,1.99-2.68,1.08-3.97-1.93-2.75-.38-4.28,1.42-6,.62-.59,1-1.45,1.45-2.13-.37-.6-1.02-.46-1.17-.34-2.75,2.42-6.2,4.07-8.29,7.16-1.08,1.59-2.33,3.35-1.24,5.62.32.67.36,1.6.19,2.52-.96,5.26-2.45,10.37-4.14,15.42-.62,1.84-1.69,2.32-3.13.53Zm-25.49,182.79c-1.5-1.51-2.96-1.39-4.8-.68-2.14.83-4.51.56-6.41-.85-1.88-1.39-2.46-.82-2.91,1.21-1.49,6.71-1.28,7.4,5.05,8.76,6.64,1.43,13.44,1.37,20.18,1.02,1.56-.08,3.45.07,4.9-1.07-1.34-1.87-2.29-2.47-7.12-4.68-1.79-.82-3.47-1.56-5.03.43-.42.54-1.34.76-1.8.27-.66-.72.28-1.05.7-1.47.39-.39,1.05-.53,1.14-1.11-1.26-1.16-2.45-1.17-3.61.1-.27.3-.63.54-.98.77-.49.32-1.08.73-1.52.08-.41-.61.09-1.06.57-1.44.58-.45,1.14-.92,1.65-1.33Zm-67.84,12.11c3.31-.02,4.26-1.34,2.95-4.45-.76-1.79-1.65-3.57-3.31-4.83-2.27-1.72-3.27-4.19-4.09-6.87-1-3.24-.89-6.59-1.33-9.88-.23-1.67-.98-2.64-2.49-2.9-1.25-.21-2.77-.46-3.28,1.3-.47,1.63-1.1,3.3-.75,5.02,1.1,5.39,2.1,10.85,4.64,15.78,1.63,3.16,2.99,6.96,7.67,6.83Zm74.3-252.34c-1.53.89-2.64,1.59-2.77,3.36-.08,1.06-.88,1.93-1.98.68-.52-.59-1.04-1.35-1.75-.78-.54.44-.38,1.36.11,2.03.42.57.31,1.55,1.14,1.77.77.2,1.38.54.87,1.28-.38.55-1.21.33-1.82,0-1.23-.66-1.45-2.07-2.17-3.12-4.03,5.49-6.53,11.84-11.98,16.86,2.18,0,3.62-.19,4.99.03,4.56.75,4.55.81,6.04-3.37,1.14-3.19,1.8-3.69,5.16-3.61,1.25.03,2.35-.12,2.88-1.41,1.79-4.35,2.87-8.79,1.26-13.73Zm-69.48,241.19c1.82-4.41-1.49-5.58-4.4-7.01.65-.27,1.05-.2,1.29-.36,1.09-.76,2.84,1.58,3.27-.32.46-2.02-2-1.16-2.93-1.95-.47-.4-1.52-.43-1.28-1.24.28-.94,1.36-.66,1.89-.39,2.3,1.2,2.61.1,2.58-1.89-.02-1.21-.25-2.28-.89-3.26-1.13-1.74-2.23-3.5-3.42-5.19-1.64-2.32-5.09-2.49-7.37-.23,4.66.66,5.31,3.81,5.17,7.67-.08,2.1.37,4.22.63,6.32.44,3.49,3.29,5.33,5.47,7.85Zm80.02,9.66c-11.22.64-22.1,1.65-32.56-2.46-.57,1.25.02,2.11.93,2.78,1.74,1.26,3.74,2.08,5.85,2.11,7.15.1,14.3.04,21.45.04,1.7,0,3.19-.41,4.33-2.47Zm-79.85-28.54c1.09-1.21,1-2.8,1.84-4.06,2.26-3.4,1.19-6.11-2.72-7.59-1.31-.5-2.23-.47-2.95,1-.61,1.24-2.05,2.2-2.29,3.44-.33,1.69,1.97,1.67,2.81,2.82,1.07,1.45,1.66,3.31,3.31,4.39Zm.25,27.39c1.14-4.17-1.1-7.03-3.7-9.6-1.92-1.9-3.53-3.93-3.84-6.62-.33-2.83-.52-5.66-1-8.48-.63-3.72-1.01-4.08-4.76-3.34,2.99,1.19,2.82,1.25,3.8,4.37.44,1.43.3,2.76.39,4.14.22,3.17.31,6.64,2.32,9.04,2.7,3.23,5.87,6.03,6.8,10.48Zm55.39-17.86q-4.57,0-4.56,2.82c0,2,1.84,3.75,3.84,3.67,2.96-.12,3.37-.87,3.73-3.71.42-3.37-1.6-2.87-3.01-2.78Z"/><path class="cls-4" d="m427.11,113.38c1.74.44,1.99,2.19,2.67,3.39,8.63,15.22,15.57,31.14,19.73,48.2,2.41,9.88,4.05,19.86,5,30,.47,5.04.68,10.14.63,15.11-.06,6.31-.3,12.69-1.08,19.05-1.09,8.8-2.58,17.48-4.7,26.05-2.87,11.59-6.92,22.79-11.78,33.7-5.68,12.77-12.57,24.87-20.08,36.63-.38.6-.74,1.1-1.49,1.14-.04-2.13.17-4.3.53-6.33,1.52-8.76,2.22-17.61,3.39-26.41.8-5.98,1.28-12.02,2.12-17.97,1.28-9.04,2.18-18.13,3.41-27.17.47-3.48.54-7.03,1.08-10.46.7-4.44,1.23-8.86,1.42-13.36.24-5.74-5.15-10.75-10.8-10.61-2.27.06-3.26-.55-2.66-2.81.47-1.78.16-3.62.52-5.36,1.22-5.94,1.7-11.97,2.46-17.96.56-4.36.97-8.75,1.54-13.11.61-4.68,1.49-9.33,1.96-14.03.46-4.71.99-9.42,1.6-14.09.74-5.63,1.5-11.26,2.32-16.88.81-5.56,1.16-11.18,2.21-16.71Z"/><path class="cls-4" d="m140.83,127.4c-1.49-2.21-1.36-4.87-2.05-7.3-1.33-4.63-2.44-9.32-6.26-12.76-3.73-3.37-7.98-4.17-12.72-3.01-4.03.98-7.69,3.12-11.84,3.76-6.86,1.06-12.55-.94-17.05-6.28-3.35-3.98-5.26-8.83-7.93-13.22-6.03-9.89-14.72-16.51-25.14-21.08-7.5-3.28-15.37-4.63-23.55-4.06-1.15.08-2.29.26-3.43.4.05-1.75,1.42-2.77,2.37-3.95,5.85-7.23,12.39-13.67,19.86-19.34,10.13-7.68,21.24-13.39,32.76-18.49.15-.06.33-.04.49-.06-.41,2.27-1.31,4.41-1.73,6.7-1.09,6.01,1.62,10.84,7.4,12.91,4.64,1.66,9.54,1.94,14.32,2.84,7.64,1.45,14.79,3.85,19.63,10.49,1.26,1.72,2.21,3.66,3.31,5.5.02,2.54-.44,5.02-1.01,7.47-.79,3.38-1.32,6.82-1.85,10.21-.68,4.32-1.26,8.71-2.35,12.88-.99,3.82,3.37,9.38,7.25,9.24,6.3-.22,12.63.06,18.94.13,1.08,6.78,1.95,13.58,1.98,20.45-5.15-.15-9.06,1.85-11.41,6.57Zm-58.06-74.19c-2.07-.49-3.62-.9-5.18-1.21-.41-.08-1.04-.2-1.2.48-.1.4-.11.9.43.97,1.8.24,3.62,1.68,5.95-.25Zm-19.18-3.33c-.91-.61-1.33-.19-1.62.31-.34.59.23,1.05.57,1.11,1.4.27,2.82.4,4.24.54.46.05.82-.31.92-.68.22-.8-.58-.51-.89-.75-1.07-.82-2.33-.4-3.23-.54Zm8.25,8.46c-.31-.53.67-1.75-.7-1.85-1.45-.11-.55,1.24-.91,1.85-.62,1.09-.46,2.34-.05,3.5.04.12.82.17.85.09.45-1.11.94-2.23.8-3.58Zm.48-12.85c.31.46-.65,1.73.59,1.81.98.06.97-1.12,1-1.95,0-.24,0-.49.09-.71.37-.96,1.05-2.32-.36-2.53-1.03-.16-1.12,1.44-1.24,2.44-.03.25-.04.49-.07.95Z"/><path class="cls-2" d="m427.11,113.38c-1.06,5.53-1.4,11.15-2.21,16.71-.82,5.62-1.58,11.26-2.32,16.88-.61,4.67-1.14,9.38-1.6,14.09-.46,4.69-1.34,9.35-1.96,14.03-.57,4.36-.98,8.74-1.54,13.11-.76,5.99-1.25,12.02-2.46,17.96-.36,1.74-.05,3.58-.52,5.36-.6,2.26.39,2.87,2.66,2.81,5.65-.14,11.04,4.87,10.8,10.61-.19,4.5-.72,8.91-1.42,13.36-.54,3.44-.61,6.98-1.08,10.46-1.23,9.05-2.13,18.13-3.41,27.17-.84,5.96-1.32,12-2.12,17.97-1.17,8.8-1.87,17.65-3.39,26.41-.35,2.03-.57,4.2-.53,6.33-1.01,5.84-1.62,11.74-2.41,17.61-.68,5.06-1.4,10.15-1.75,15.29-.41,5.92-1.53,11.79-2.27,17.69-.44,3.49-.52,7.03-1.15,10.48-.84,4.58-.03,9.52-3.33,13.6-2.26,2.79-5,4.24-8.44,4.64-.25.03-.5.02-.75.02-6.37.12-6.33.13-6.9,6.47-.73,8.04-5.96,13.48-12.73,15.86-4.71,1.65-9.82.66-14.75.66.02-.13.05-.26.07-.38,5.41-.74,9.34-3.69,12.4-8.09,2.83-4.08,2.69-8.88,3.55-13.45.24-1.28-.67-1.06-1.37-1.05-3.56.02-7.12.07-10.68.1-.99-.04-1.99-.1-2.98-.1-27.86-.02-55.72-.03-83.58-.05-2.09,0-3.95-.75-5.6-1.96-5.01-3.69-5.85-7.93-4.91-14.11.5-3.3.81-6.63,1.2-9.95.39-3.4.73-6.81,1.17-10.21.4-3.15.93-6.28,1.35-9.42.47-3.47,1.08-6.94,1.27-10.43.19-3.6,1.29-7.08,1.13-10.7.72-4.48,1.61-8.93,1.58-13.49,1.15-1.05.51-2.51.69-3.73.75-5.06,1.18-10.17,1.72-15.26.2-.79.49-1.56.58-2.36.71-5.91,1.38-11.82,2.05-17.74.38-3.41.66-6.83,1.09-10.22.74-5.8,1.79-11.56,2.31-17.37.44-4.8,1.09-9.58,1.7-14.34.77-5.97,1.65-11.95,2.18-17.92.63-7.12,5.49-12.82,13.19-12.65,14.46.33,28.93.1,43.4.09,2.82,0,5.65-.08,8.47-.12,12.33.21,24.65.2,36.98,0,3.07.04,6.15.09,9.22.11.54,0,1.2.19,1.31-.71.8-6.28,1.82-12.54,2.37-18.83.43-4.8,1.22-9.55,1.74-14.33.53-4.91,1.22-9.83,1.84-14.74.42-3.37,1.03-6.72,1.47-10.1.4-3.08.92-6.15,1.05-9.27.12-3.17.91-6.28,1.21-9.45.15-1.62.21-3.36.54-5.05,1.02-5.18,1.8-10.45,2.14-15.72.22-3.43,1.06-6.75,1.24-10.2.24-4.59,1.41-9.14,1.78-13.73.41-5.05,1.02-10.11,1.78-15.06,1.12-7.34,1.38-14.78,2.8-22.06.73-3.74.75-7.54,1.4-11.3.8-4.64.76-9.44,1.7-14.05.73-3.58.81-7.21,1.6-10.78.99-4.54.6-9.19-2.89-12.88-3.06-3.23-7.02-4.23-11.34-4.23-62.75,0-125.51,0-188.26.03-5.31,0-10.62-.3-15.92.31-4.39.5-7.97,2.49-10.75,5.76-2.9,3.4-3.99,7.45-4.53,11.96-.67,5.6-1.18,11.24-2.26,16.79-2.02.26-1.69-1.21-1.43-2.22,1.33-5.15,1.7-10.45,2.31-15.68.94-8.08,4.78-13.71,12.11-17.07C205.87.33,209.15,0,212.55,0c66.31.05,132.62-.06,198.93.17,6.88.02,14,.67,20.48,3.82,3.9,1.89,7.08,5.89,7.04,10.36-.04,3.89-.9,7.75-.4,11.64.08.65-.03,1.17-.26,1.69-.59,1.39-1.4,2.69-.49,4.32.64,1.14-.82,1.82-.96,2.91-.84,6.94-1.66,13.88-2.59,20.8-.74,5.54-1.15,11.15-2.28,16.67-.36,1.76-.77,3.68-.54,5.57-1.04.65-.42,1.63-.51,2.48-.81,4.97-1.2,10-1.89,14.98-.67,4.91-1.51,9.87-1.66,14.87-.03,1.04-.22,2.07-.34,3.1Zm-68.55,102.37c-19.31,0-38.62-.03-57.93.02-4.28.01-7.35,2.08-9.27,5.96-1.38,2.8-1.23,5.86-1.71,8.8-.6,3.67-.49,7.46-1.16,11.12-1.4,7.69-1.78,15.49-2.88,23.21-.44,3.08-.61,6.23-1.17,9.26-.89,4.83-1.16,9.7-1.81,14.53-.42,3.16-.64,6.38-1.16,9.5-1,5.96-1.48,11.97-2.25,17.94-.62,4.85-1.17,9.75-1.77,14.61-.79,6.37-1.67,12.74-2.32,19.13-.44,4.38-1.4,8.68-1.63,13.11-.24,4.69-1.2,9.34-1.79,14.01-.57,4.54-.56,9.23-1.73,13.61-1.74,6.5,2.75,13.91,11.18,13.86,37.87-.2,75.74-.12,113.61-.05,5.31,0,10.71-2.74,11.27-10.48.25-3.5.51-7.05,1.12-10.49.76-4.34,1.22-8.72,1.74-13.07.58-4.87,1.44-9.71,1.64-14.64.24-5.87,2.49-11.59,1.45-17.58-.05-.27.14-.63.32-.87,1.37-1.8,1.31-3.85.97-5.9-.07-.44-.51-.93-.22-1.36,1.84-2.74,1.36-5.97,1.86-8.98.42-2.5.2-5.12.74-7.57.92-4.13,1.36-8.34,1.73-12.51.41-4.62,1.31-9.17,1.63-13.8.35-5.02,1.25-10.01,1.93-15.01.47-3.49.56-7.07,1.16-10.49,1.07-6.09,1.3-12.26,2.29-18.35.75-4.57,1.12-9.21,1.92-13.77,1.31-7.49-2.7-13.82-10.83-13.77-18.98.1-37.95.03-56.93.04Z"/><path class="cls-5" d="m129.28,60.45c-1.09-1.84-2.05-3.78-3.31-5.5-4.84-6.64-11.98-9.04-19.63-10.49-4.78-.91-9.68-1.18-14.32-2.84-5.78-2.07-8.49-6.91-7.4-12.91.42-2.3,1.32-4.43,1.73-6.7,1.55-2.35,2.81-4.86,4.49-7.15,5.16-7,12.26-10.46,20.56-12.46,8.6-2.08,23.86.35,31.97,2.91.94.3,1.92.47,2.89.7,1.96.85,3.92,1.68,5.88,2.54,11.64,5.12,21.45,12.65,29.82,22.2,2.34,2.68,4.17,5.74,6.7,8.25.03,1.79.05,3.58.08,5.37-10.33,0-20.67,0-31,0-.26-1.28-1.13-2.2-1.97-3.09-7.8-8.24-16.4-15.53-26.07-21.47-3.46-2.12-6.99-4.19-10.87-5.53-.69-.24-1.58-.66-1.86.38-.23.84.71,1.01,1.29,1.24,3.25,1.29,6.34,2.92,9.37,4.66,6.65,3.81,12.75,8.42,18.39,13.56,3.47,3.16,7.1,6.25,9.77,10.21-5.48.04-10.95.12-16.43.1-3.34-.01-7.35,2.14-8.13,6.91-.5,3.05-.46,6.26-1.92,9.12Z"/><path class="cls-4" d="m130.36,360.08c2.8-5.98,2.57-11.89.66-18.22-1.52-5.03-3.22-10.03-4.54-15.14-.24-.93-.09-1.8-.18-2.69-.04-.44.18-.84.66-.89.68-.07.77.42.83.96.61,5.2,3.03,9.87,4.35,14.86,1.28,4.81,1.99,9.74,2.72,14.67.73,5,.99,10.05,1.82,15.04.36,2.18.41,4.41.58,6.61.5,6.54.58,13.11,1.49,19.62.03.25.03.5.02.75-.28,8.22.94,16.42.34,24.63-.24,3.25.15,6.57-.8,9.78-.12.42-.05,1.09.21,1.4,2.17,2.46,1.59,4.42-.23,7.03-1.38,1.98-1.64,4.87-1.93,7.41-.18,1.55-.7,3.04-.71,4.6-5.8-.38-11.39-1.89-17.02-3.15-9.05-2.02-17.86-4.9-26.64-7.83-.05-3.57-.15-7.14-.15-10.71,0-1.55-.71-2.96.02-4.71,1.13-2.69,3-4.43,5.09-6.3,5.06-4.53,9.25-9.85,12.91-15.6,1.52-2.39,3.24-4.66,4.67-7.12,4.03-6.96,7.83-14.03,10.78-21.53.27-.68.69-1.3,1.05-1.95q4.34.08,6.08-4.3c.31-.77.47-1.64.95-2.29,1.57-2.16.18-3.25-1.42-4.28-.48-.3-1.06-.44-1.59-.66Z"/><path class="cls-4" d="m171.14,454.46c.39-4.91-.14-6.05-4.44-8.15-4.85-2.37-9.75-4.65-14.71-6.77-1.98-.85-1.7-2.3-1.76-3.83-.06-1.41.36-2.29,1.86-2.71,1.95-.55,1.21-2.79,2.23-3.97,6.88,0,13.76,0,20.63,0,.64,1.33,1.86.88,2.87.87,23.95-.08,47.91-.21,71.86-.27,15.63-.04,31.27,0,46.9,0-1.15,1.7-3.14,2.04-4.81,2.73-15.33,6.33-31.01,11.57-47.24,15.13-10,2.19-20.05,4.03-30.25,5.09-6.5.67-13,1.13-19.51,1.57-7.89.54-15.76.16-23.64.34Z"/><path class="cls-4" d="m188.64,38.99c-2.52-2.51-4.36-5.57-6.7-8.25-8.37-9.55-18.18-17.08-29.82-22.2-1.95-.86-3.92-1.69-5.88-2.54,3.82-1.45,7.9-1.43,11.87-1.95,6.05-.79,12.13-1.36,18.2-1.95,2.47-.24,4.97-.43,7.41-.48,5.47-.11,10.93-.39,16.39-.59.86-.03,1.85-.35,2.57.5-7.32,3.36-11.17,8.98-12.11,17.07-.61,5.23-.98,10.53-2.31,15.68-.26,1.01-.59,2.48,1.43,2.22-.25.87-.32,1.82-1.07,2.48Z"/><path class="cls-2" d="m296.58,429.6c-15.63,0-31.27-.04-46.9,0-23.95.07-47.91.2-71.86.27-1.01,0-2.23.45-2.87-.87.66-1.31,1.89-.83,2.89-.83,41.44-.12,82.88-.21,124.32-.33,14.4-.04,28.79-.16,43.18-.2,1.02,0,2.52-.61,2.59,1.34-.2.15-.4.3-.6.45-16.92.05-33.84.11-50.75.16Z"/><path class="cls-4" d="m347.33,429.45c.2-.15.4-.3.6-.45,4.55-.15,9.13.46,13.66-.43-.02.13-.05.25-.07.38-.44.68-1.14.57-1.79.57-4.14-.02-8.27-.05-12.41-.07Z"/><path class="cls-4" d="m430.99,80.43c.09-.84-.53-1.83.51-2.48.59.98.92,1.91-.51,2.48Z"/><path class="cls-5" d="m98.81,369.09c-1.13,6.55-3.32,12.8-5.37,19.08-1.43,4.36-2.67,8.8-4.53,13.01-.26-.19-.55-.58-.77-.54-2.97.55-3.96-1.18-4.43-3.66-.12-.64-.55-1.21-.79-1.83q-2.04-5.43-7.7-5.58c-1.18-.04-1.79.6-2.38,1.48-1.39,2.06-2.94,4.02-4.23,6.15-.73,1.2-1.45,1.35-2.62.85-1.75-.74-3.51-1.53-5.33-2.05-2.26-.64-2.87-1.94-2.29-4.12.31-1.19.18-2.52.61-3.65,1.15-3.03.62-4.99-2.34-6.9-2.12-1.37-3.53-1.87-5.74-.57-2.13,1.26-4.6,3.09-6.74,2.88-2.2-.22-3.08-3.57-4.82-5.27-1.68-1.64-1.82-2.86-.05-4.54,1.37-1.29,2.23-3.12,3.61-4.41,1.58-1.47,1.2-2.7.74-4.59-.96-3.95-3.66-4.55-6.92-4.72-1.97-.1-4.41.68-5.77-.77-1.27-1.35-.95-3.72-1.14-5.68-.09-.9-.26-1.79-.4-2.69-.2-1.21.39-1.76,1.5-2.14,2.51-.86,4.96-1.88,7.46-2.76,1.11-.39,1.65-1.02,1.52-2.21-.04-.41-.13-.89.03-1.24,1.74-4-1.12-5.61-3.76-7.36q-4.76-3.16-2.73-8.5,1.68-4.42,6.33-3.63c.33.06.65.11.98.18,5.27,1.16,6.55.57,9.3-4.1.57-.96.24-1.73-.15-2.57-1.09-2.33-2.11-4.7-3.29-6.98-.58-1.13-.37-1.76.63-2.46,1.83-1.28,3.68-2.57,5.32-4.07,1.14-1.05,1.98-.88,3-.03,1.97,1.65,4.02,3.2,5.91,4.94.95.88,1.71,1.14,2.81.41.62-.41,1.31-.86,2.01-.97,3.13-.45,3.54-2.69,3.57-5.21.02-1.74.25-3.46.39-5.19.13-1.67.94-2.15,2.26-2.36,2.28-.35,4.58-.63,6.86-.99.94-.15,1.33.23,1.63,1.07.73,2.03,1.81,3.96,2.28,6.04.61,2.71,2.04,3.76,4.69,3.36-5.5,4.52-4.36,10.53-3.69,16.43-8.19-.38-15.3,2.45-20.79,8.31-6.18,6.6-8.5,14.69-6.61,23.69,3,14.27,16.17,23.21,31.17,20.63,3.93-.68,7.19-2.84,10.8-4.21Z"/><path class="cls-2" d="m75.76,162.84c.03-2.32.06-4.65.1-6.97.05-2.67,1.78-4.61,4.45-4.62,12.56-.06,25.12-.05,37.68-.01,2.35,0,3.76,1.54,3.81,3.96.14,7.23.26,14.47.33,21.7.03,3.25-1.41,4.96-4.61,5.36-1.45.18-1.8.81-1.74,2.1.07,1.49,0,2.99.02,4.49.01.7-.04,1.37-.74,1.7-.8.37-1.23-.3-1.65-.78-1.69-1.92-3.42-3.82-5-5.84-.96-1.22-2-1.69-3.58-1.67-8.07.09-16.13.05-24.2.04-3.02,0-4.36-1.27-4.49-4.29-.14-3.23-.23-6.47-.34-9.71.2-1.82.2-3.65-.03-5.47Zm38.03,24.9c0-1.43,0-2.17,0-2.91.02-2.72,1.11-4.32,3.7-4.46,2.44-.13,2.9-1.4,2.88-3.38-.05-6.9-.08-13.8-.13-20.69-.03-2.97-.55-3.48-3.46-3.48-11.8,0-23.6,0-35.4,0-3.11,0-3.92.79-3.91,3.93.02,6.61.37,13.22-.09,19.84-.22,3.18.88,4.12,4.06,4.13,7.56,0,15.13.16,22.69-.08,2.86-.09,4.68.93,6.25,3.06.91,1.24,1.98,2.36,3.41,4.04Z"/><path class="cls-2" d="m15.03,333.79c.09-6.06.35-10.91.25-15.79-.05-2.44.66-5.39,1.68-7.95.16-.39.37-.8.83-.62.36.14.67.49.6.98-.22,1.53-.42,3.05-.66,4.58-.05.31-.34.63-.3.91.36,2.49-.58,4.92-.47,7.35.17,3.82-.85,7.59-.5,11.36.52,5.71.43,11.46,1.42,17.14,1.27,7.31,2.39,14.68,5.12,21.59,2.18,5.53,4.27,11.16,7.57,16.21.64.98,2.24,2.59,1.12,3.25-1.28.76-1.72-1.36-2.36-2.41-4.21-6.92-7.08-14.41-9.53-22.09-1.46-4.6-2.47-9.31-3.38-14.03-1.38-7.16-.86-14.45-1.39-20.48Z"/><path class="cls-2" d="m11.05,328.38c-.81,5.05-1.12,10.13-.68,15.17.36,4.1.11,8.21,1.24,12.38.75,2.77.56,6.07,1.27,9.11,1.57,6.73,3.81,13.19,7.39,19.13.83,1.37,1.77,2.68,2.65,4.02.25.38.84.8.25,1.23-.51.38-1.13.19-1.51-.37-1.27-1.87-2.67-3.67-3.74-5.65-3.62-6.73-5.99-13.95-7.45-21.42-.94-4.83-1.61-9.74-1.99-14.64-.28-3.66.31-7.37.11-11.04-.16-2.86.09-5.59.79-8.33.19-.75.5-1.07,1.14-.83.49.18,1.05.57.52,1.25Z"/><path class="cls-2" d="m33.66,282.19c-3.26-.02-5.48-2.21-5.26-4.89.19-2.41,2.77-4.38,5.38-4.12.47.05,1.03-.11,1.09.63.08.89-.52.93-1.13.85-1.67-.24-2.75.63-3.28,2.03-.45,1.22-.19,2.47.94,3.35,1.27,1,2.58.99,3.88.04.5-.37,1.07-.68,1.48,0,.38.63-.13,1.09-.6,1.44-.84.6-1.76.93-2.5.68Z"/><path class="cls-3" d="m176.12,242.78c-1.34-.35-1.53-1.64-2.12-2.6.62-.44.61-1.11.71-1.77.79-5.26,1.62-10.52,2.43-15.78.84-5.44,1.72-10.88,2.53-16.33.39-2.68.06-3.01-2.65-3.01-5.06,0-10.12,0-15.17-.01-.63-.65-.98-1.55-.42-2.21,1.84-2.2,1.13-4.81,1.37-7.26,5.15,0,10.31-.14,15.46.06,2.49.1,3.12-1.12,3.46-3.16,1.4-8.37,2.87-16.74,4.33-25.1.71-4.06,1.48-8.11,2.11-12.19.22-1.47.37-3.09-2.02-3.08-10.81.04-21.61.02-32.42.02-1.48,0-2.25.68-2.48,2.19-.54,3.5-1.2,6.98-1.8,10.48-1.23,7.23-2.45,14.47-3.68,21.7-4.93,1.17-8.02,4.92-11.45,8.18-.9-2.74.27-5.36.49-8.03,2.01-1.39.47-4.01,1.95-5.58-1.79-3.68,1.03-7.05.86-10.77-.11-2.39.01-5.27.62-7.88.8-3.43.67-7.02,1.21-10.48.95-6.04,1.71-12.1,2.24-18.17.53-6.02,4.07-9.44,9.43-9.42,36.83.17,73.67-.42,110.5.3,4.59.09,8.3,3.9,7.96,8.44-.33,4.3-1.19,8.54-1.54,12.85-.45,5.49-1.53,10.92-2,16.44-.27,3.14-.82,6.28-1.09,9.45-.26,3.16-1.03,6.27-1.27,9.43-.37,4.87-1.14,9.69-1.67,14.54-.56,5.24-1.04,10.51-1.85,15.73-.54,3.48-.55,7.05-1.17,10.47-1.17,6.43-1.37,12.95-2.39,19.38-.49,3.07-.09,6.35-1.9,9.15-.54.11-1.35.05-.6.96-2.25,3.18-5.48,3.43-9.06,3.41-16.45-.12-32.9-.06-49.36-.04-.86,0-1.86-.33-2.5.64-.79,0-1.59,0-2.38,0,.7-2.12.26-4.33.5-6.48,5.57,0,11.15-.04,16.72.01,1.64.02,2.55-.27,2.77-2.24.52-4.67,1.33-9.31,2.04-13.95,1.28-8.4,2.61-16.79,3.84-25.19.41-2.82.1-3.08-2.79-3.08-8.9-.01-17.8,0-26.7,0q-3.75,0-4.39,3.62c-.06.33-.02.67-.08.99-1.24,6.73-1.71,13.59-3.36,20.26-.98,3.97-.92,8.12-1.94,12.12-.29,1.13.28,2.45-1.27,3.01Zm61.62-39.5c-4.74,0-9.49.1-14.22-.04-2.4-.07-3.14.97-3.4,3.19-.62,5.16-1.44,10.29-2.25,15.42-1.2,7.66-2.46,15.31-3.68,22.97-.29,1.81.35,2.9,2.36,2.9,9.57,0,19.13,0,28.7,0,1.52,0,2.56-.67,2.83-2.24.22-1.22.36-2.45.55-3.67,1.13-7.34,2.27-14.67,3.4-22.01.69-4.49,1.41-8.97,2.06-13.46.39-2.7.06-3.06-2.62-3.06-4.58,0-9.15,0-13.73,0Zm-34.32-69.92c-8.39,0-16.78,0-25.17,0-1.34,0-2.92-.2-3.37,1.4-.49,1.77-1.39,3.65-.05,5.49.39.54.74,1.06,1.55,1.05,4.56-.08,9.13-.04,13.69-.19,12.37-.43,24.74-.17,37.11-.12.24,0,.46.18.71.24,1.52.39,3.03.03,3.75-1.25.87-1.55,1.11-3.48.61-5.2-.45-1.56-2.05-1.4-3.4-1.4-8.47,0-16.95,0-25.42,0Zm11.92,61.43c8.56,0,17.11,0,25.67,0,1.32,0,2.47-.39,2.49-1.8.02-1.27-.73-2.11-2.27-1.85-.61.1-1.28-.28-1.93-.29-16.45-.02-32.9-.02-49.34,0-.61,0-1.47-.26-1.66.65-.16.76-1.25,1.15-.68,2.2.6,1.12,1.55,1.08,2.56,1.08,8.39,0,16.78,0,25.17,0Zm10.78-44.45c-6.81,0-13.63.01-20.44,0-1.53,0-3.04.12-2.95,2.09.08,1.78,1.58,1.86,2.97,1.86,13.63,0,27.26,0,40.89,0,1.49,0,3.04-.08,3.07-2.04.03-2.12-1.69-1.89-3.08-1.9-6.81-.02-13.63,0-20.44,0Zm-2.71,18c6.65,0,13.31,0,19.96,0,1.4,0,2.86.03,2.77-1.92-.08-1.75-1.38-2.03-2.84-2.03-13.31.01-26.62,0-39.93,0-1.52,0-3.09.24-3.09,2.07,0,1.96,1.7,1.88,3.15,1.88,6.65,0,13.31,0,19.96,0Zm14.47,12.95c1.74,0,3.48.05,5.22-.02,1.11-.04,1.88-.65,2.01-1.82.11-.96-.44-1.8-1.28-1.89-3.54-.38-7.11-.46-10.64.02-1.39.19-1.57,1.57-1.48,2.79.1,1.36,1.24.82,1.93.87,1.4.11,2.82.03,4.23.03Z"/><path class="cls-2" d="m193.16,253.72c.64-.96,1.64-.64,2.5-.64,16.45-.02,32.9-.08,49.36.04,3.58.03,6.8-.22,9.06-3.41.53-.12.51-.57.6-.96,1.81-2.8,1.41-6.08,1.9-9.15,1.02-6.42,1.22-12.95,2.39-19.38.62-3.42.63-7,1.17-10.47.82-5.22,1.29-10.5,1.85-15.73.52-4.84,1.29-9.67,1.67-14.54.24-3.16,1.01-6.27,1.27-9.43.26-3.17.82-6.31,1.09-9.45.47-5.52,1.55-10.95,2-16.44.35-4.32,1.22-8.55,1.54-12.85.34-4.54-3.37-8.35-7.96-8.44-36.83-.72-73.67-.13-110.5-.3-5.36-.02-8.9,3.39-9.43,9.42-.53,6.07-1.29,12.13-2.24,18.17-.54,3.45-.41,7.05-1.21,10.48-.61,2.62-.73,5.5-.62,7.88.17,3.72-2.66,7.09-.86,10.77-1.48,1.57.06,4.19-1.95,5.58-.45-.11-1.09-.03-1-.78.56-4.44.98-8.91,1.8-13.31.35-1.89.23-3.77.4-5.63.29-3.18,1.03-6.27,1.31-9.44.33-3.73.92-7.44,1.38-11.16.25-2.03.4-4.1.45-6.1.09-3.23,1.6-6.23,1.18-9.49-.06-.49.34-1.05.53-1.57,2.35-4.72,6.26-6.72,11.41-6.57,8.83,0,17.66,0,26.49,0,3.06.03,6.13.06,9.19.1.68,0,1.45.05,1.27-.96-.25-1.44.39-2.73.54-4.11.51-4.77.94-9.55,1.72-14.28.22-1.35-.08-1.39-1.06-1.37-3.06.05-6.12.1-9.18.15-10.32-.23-20.63-.26-30.94.02-6.31-.07-12.64-.35-18.94-.13-3.88.14-8.24-5.42-7.25-9.24,1.08-4.18,1.67-8.57,2.35-12.88.53-3.39,1.06-6.84,1.85-10.21.57-2.45,1.03-4.93,1.01-7.47,1.46-2.86,1.42-6.07,1.92-9.12.79-4.77,4.8-6.92,8.13-6.91,5.48.02,10.95-.06,16.43-.1.65.01,1.3.03,1.96.04,10.33,0,20.67,0,31,0,3.32,0,6.63,0,9.95,0,.37.11.51-.03.44-.4.13-2.45.55-4.86,1-7.27.95-5.07,1.94-5.96,7.18-5.96,66.65,0,133.3,0,199.95,0,.99,0,2.01-.02,2.98.15,2.08.38,3.25,1.5,3.26,3.84,0,1.83-.31,3.58-.54,5.36-.47,3.64-.86,7.29-1.34,10.92-.7,5.32-1.57,10.63-2.13,15.96-.57,5.42-1.2,10.84-2.02,16.23-.96,6.25-1.46,12.55-2.43,18.81-1.04,6.73-1.36,13.56-2.5,20.3-.64,3.76-1.11,7.59-1.49,11.38-.81,8.03-2.06,15.99-3.07,23.99-1.04,8.21-1.92,16.45-3.04,24.65-.55,4.02-.63,8.07-1.32,12.08-.54,3.12-1.04,6.3-1.32,9.49-.12,1.34.62,3.44-1.31,4.43-.8-.44-1.25-.98-.85-1.99,1.2-3.02.76-6.28,1.35-9.4.67-3.6,1.03-7.25,1.5-10.89.37-2.84.69-5.69,1.04-8.53.61-4.84,1.23-9.68,1.84-14.52.71-5.67,1.6-11.32,2.05-17.01.36-4.65,1.1-9.25,1.76-13.83.83-5.81,1.36-11.66,2.25-17.47.74-4.9,1.31-9.84,1.97-14.76.65-4.84,1.02-9.73,1.59-14.58.44-3.78.87-7.57,1.53-11.31.6-3.41.46-6.92,1.14-10.25,1.17-5.76,1.21-11.63,2.37-17.36.6-2.96.25-6,1.11-8.93,1.21-4.1.41-5.05-3.85-5.05-66.88,0-133.76,0-200.64,0-.75,0-1.5,0-2.25.03-1.63.07-3.01,1.32-3.03,2.47-.03,3.06-1.48,5.92-1.07,8.99-.08.37.07.5.43.4,1,.02,1.99.06,2.99.06,55.92,0,111.84,0,167.76,0,2,0,3.99.06,5.99.09,3.91,1.56,6.46,4.67,5.99,7.75-.73,4.8-1.67,9.57-2.53,14.35-1.3,7.21-2.59,14.41-3.91,21.62-.78,4.25-.76,8.85-5.02,11.59-.71.5-1.49.62-2.34.58-1.82-.09-3.65-.19-5.47-.19-56.08,0-112.17,0-168.25,0-.58,0-1.17.03-1.75,0-.97-.07-1.36.14-1.48,1.32-.56,5.52-1.27,11.03-2.01,16.53-.39,2.89-.46,2.85,2.55,2.89,22.85.27,45.71-.56,68.56.43,3.66.16,7.36,3.46,8.45,6.94,1,3.19.16,6.26-.23,9.25-1.13,8.57-2.26,17.13-2.95,25.74-.37.14-.37.46-.43.79-.86,4.64-.45,9.39-1.43,14.05-.7,3.34-.71,6.82-1.15,10.22-.75,5.8-1.84,11.57-2.33,17.39-.43,5.13-1.05,10.25-1.75,15.32-1.11,8.09-1.89,16.24-3.22,24.31-.94,5.71-4.53,9.28-10.37,9.31-8.39.04-16.79.07-25.18.1-8.72-.03-17.44-.04-26.16-.13-.8,0-2.1.71-2.35-.93Zm57.08-155.22c38.94,0,77.89,0,116.83,0,.83,0,1.69.11,2.49-.04,2.34-.43,4.26-1.36,4.97-3.99.55-2.06.76-4.14,1.08-6.22.75-4.84,2.04-9.59,2.85-14.42,1.08-6.47,2.04-12.96,3.44-19.38.71-3.25-.24-6.19-2.71-7.52-1.52-.83-3.26-.94-5.01-.94-70.23.01-140.46.01-210.69.01-7.82,0-15.65-.2-23.46.04-4.51.14-6.19,1.24-7.19,5.71-.65,2.92-1.03,5.89-1.54,8.84-1.68,9.75-3.15,19.55-5.12,29.25-1.2,5.88,1.34,8.76,7.25,8.74,38.94-.14,77.89-.07,116.83-.07Z"/><path class="cls-4" d="m193.16,253.72c.25,1.63,1.55.92,2.35.93,8.72.09,17.44.1,26.16.13-.43,1.27-.62,2.56-.5,3.9-1.33.11-1.39,1.13-1.49,2.1-.08.81-.09,1.61-.22,2.43-.69,4.24-1.21,8.5-1.79,12.75-.63,4.65-1.49,9.28-1.79,13.96-.21,3.23-1.28,6.47-.31,9.74-4.83,0-9.66.05-14.48-.02-2.26-.03-4.06.81-5.5,2.43-1.84,2.08-2.54,4.59-1.51,7.17,1.02,2.57,3.16,3.51,6,3.48,11.4-.11,22.8-.04,34.21-.05,3.42,0,5.73-1.74,6.85-5.02.91-.05,1.82-.13,2.73-.13,8.8-.01,17.61,0,26.41-.02,1.02,0,2.21.4,2.9-.83,1.78,0,3.56,0,5.35,0-.55,5.09-.97,10.2-1.72,15.26-.18,1.22.46,2.68-.69,3.73-6.81,0-13.62-.02-20.43-.02-8.06,0-16.12-.05-24.17.03-2.96.03-4.85,1.77-6.07,4.39-1.17,2.52-1.01,4.85.85,6.93,1.55,1.74,3.65,2.13,5.88,2.13,14.12,0,28.24.02,42.36.03.16,3.62-.93,7.11-1.13,10.7-.19,3.49-.8,6.96-1.27,10.43-.42,3.14-.95,6.28-1.35,9.42-.44,3.4-.78,6.81-1.17,10.21-.38,3.32-.7,6.65-1.2,9.95-.93,6.18-.1,10.42,4.91,14.11,1.65,1.21,3.51,1.96,5.6,1.96,27.86.01,55.72.03,83.58.05.99,0,1.99.07,2.98.1,0,1.66.09,3.33-.02,4.99-.32,4.75-2.26,6.54-6.8,6.52-26.7-.12-53.39-.06-80.09-.07-.03-1.67-1.32-.93-2.01-.93-31.56-.04-63.11-.03-94.67-.05-.93,0-1.84-.1-2.27.99-7.61,0-15.23,0-22.84,0,.07-4.25,1.6-8.25,2.16-12.43.67-4.97,1.41-9.97,2.42-14.86.96-4.63,1.14-9.33,2.11-13.94.76-3.58.92-7.29,1.24-10.95.86-9.84,1.45-19.7,1.73-29.58.14-4.87-.23-9.73-.67-14.59-.22-2.5.09-5.05-.47-7.54,1.08-.18.85-1.02.92-1.74.17-1.88.33-3.77.57-5.65.96-7.58,1.83-15.17,2.98-22.72.53-3.48.5-7.05,1.5-10.46,2.63,1.15,4.34,3.67,7.1,4.66,3.89,1.39,7.22.02,8.68-3.8,1.67-4.4,2.46-9.01,3.14-13.64.32-2.18.4-4.39.59-6.59.79,0,1.59,0,2.38,0Zm20.11,98.87c-12.32,0-24.64-.03-36.96.01-5.05.02-8.73,5.15-7,9.61.98,2.51,3.22,3.85,6.65,3.85,23.72.02,47.44.02,71.16.02,1.94,0,3.78-.51,5.45-1.49,2.44-1.43,4.1-5.32,3.37-7.75-.9-3.01-2.78-4.25-6.47-4.25-12.07,0-24.14,0-36.21,0Zm21.58,25.99c-7.65,0-15.29-.05-22.94.02-4.21.04-7.31,3.39-7.23,7.56.08,3.81,2.55,5.89,7.06,5.89,14.46,0,28.93-.02,43.39.02,2.78,0,5.06-1.05,6.77-3.1,1.67-2.01,2.33-4.37,1.19-6.95-1.12-2.53-3.15-3.45-5.8-3.44-7.48.03-14.96,0-22.44.01Zm-37.79-52.96c-3.91,0-7.81-.03-11.72,0-4.37.05-7.67,3.34-7.62,7.54.04,3.54,3.05,5.92,7.51,5.93,6.56,0,13.13-.09,19.69.05,2.61.05,4.82-.51,6.93-2.06,2.46-1.82,3.69-5,2.75-7.92-.6-1.88-3.38-3.52-6.08-3.53-3.82-.02-7.65,0-11.47,0Z"/><path class="cls-1" d="m177.81,254.02c-1.17,6.1-3.65,11.66-7.46,16.6-.97,1.26-2.27,1.54-3.44-.1-.67-.94-1.54-1.75-2.37-2.56-.4-.38-.86-.9-1.51-.63-.72.29-.78.95-.81,1.65-.13,3.15.52,6.24.57,9.39.12,6.6.59,13.18.95,19.78.06,1.15-.11,1.89-1.32,2.53-1.74.93-2.74,2.59-2.69,4.69.09,3.88-1.25,7.61-1.04,11.53.11,2.05-1.27.89-1.99.52-6.04-3.08-12.05-6.19-18.06-9.32-7.6-3.95-15.19-7.92-22.77-11.91-1.66-.88-2.28-2.01-1.84-4.19,1.64-8.1,3.54-16.17,3.74-24.49.04-1.67.74-3.34.03-5.03-.17-.39.27-1.05-.43-1.23-.6-.15-1.15,0-1.58.49-.93,1.06-1.91,2.09-2.79,3.2-1.05,1.33-1.93,1.66-3.44.39-3.35-2.81-6.88-5.4-10.33-8.09-1.3-1.02-1.7-2.22-.94-3.84,2.76-5.84,5.47-11.68,9.61-16.75,5.13-6.29,11.73-9.59,19.72-10.44,3.58-.38,7.16-1.21,10.75-.91,6.63.56,13.31.76,19.78,2.61,5.18,1.49,8.32,5.51,11.58,9.28,3.21,3.71,5.62,7.98,7.32,12.63.5,1.36.89,2.68.74,4.19Z"/><path class="cls-3" d="m278.58,417.53c26.7,0,53.39-.06,80.09.07,4.54.02,6.48-1.77,6.8-6.52.11-1.66.02-3.33.02-4.99,3.56-.04,7.12-.08,10.68-.1.7,0,1.61-.23,1.37,1.05-.86,4.57-.72,9.37-3.55,13.45-3.06,4.4-6.99,7.35-12.4,8.09-4.53.89-9.11.28-13.66.43-.08-1.95-1.58-1.35-2.59-1.34-14.4.04-28.79.16-43.18.2-41.44.12-82.88.21-124.32.33-1,0-2.23-.48-2.89.83-6.88,0-13.76,0-20.63,0,.03-4,1.3-7.73,2.47-11.48,7.61,0,15.23,0,22.84,0,1.22,2.13,3.02.53,4.45.54,31.02.1,62.03.08,93.05.08.94.79,1.36.44,1.44-.66l.02.04Z"/><path class="cls-4" d="m98.81,369.09c-3.61,1.37-6.86,3.53-10.8,4.21-15,2.58-28.17-6.37-31.17-20.63-1.89-9.01.43-17.1,6.61-23.69,5.49-5.86,12.6-8.69,20.79-8.31,1.36,2.32,2.41,2.54,4.55.97,6.75.99,11.49,5.05,15.6,10.12.69.85.87,2.25,2.3,2.39-.43,4.51-1.5,8.92-2.42,13.34-1.03,4.96-2.22,9.88-3.43,14.8-.57,2.3-1.35,4.54-2.04,6.81Z"/><path class="cls-4" d="m145.75,184.72c1.23-7.23,2.45-14.47,3.68-21.7.6-3.49,1.26-6.98,1.8-10.48.23-1.51,1-2.19,2.48-2.19,10.81,0,21.61.02,32.42-.02,2.4,0,2.25,1.61,2.02,3.08-.62,4.07-1.4,8.13-2.11,12.19-1.45,8.37-2.92,16.73-4.33,25.1-.34,2.04-.96,3.25-3.46,3.16-5.15-.2-10.3-.06-15.46-.06-2.21-3.63-5.03-6.48-9.03-8.27-2.69-1.2-5.38-.33-8.03-.8Z"/><path class="cls-4" d="m176.12,242.78c1.55-.56.98-1.88,1.27-3.01,1.02-4,.96-8.14,1.94-12.12,1.65-6.67,2.12-13.52,3.36-20.26.06-.32.02-.67.08-.99q.64-3.62,4.39-3.62c8.9,0,17.8,0,26.7,0,2.89,0,3.2.26,2.79,3.08-1.23,8.4-2.56,16.79-3.84,25.19-.71,4.65-1.53,9.28-2.04,13.95-.22,1.97-1.13,2.25-2.77,2.24-5.57-.05-11.15-.02-16.72-.01-.31-2.02.48-3.59,1.82-5.08,1.91-2.13,2.96-4.63,1.52-7.44-.53-1.04-.04-1.48.48-2.13,1.01-1.28,2.07-2.55,2.92-3.94.51-.84.59-2.13-.06-2.76-.43-.42-1.57-.22-2.48.23-3.35,1.63-6.12,3.94-8.79,6.49-2.4,2.29-3.46,5.09-2.89,8.19.47,2.58-.44,4.72-1.06,7.01-1.54-1.15-3.31-.31-4.95-.56-.5-1.51-1.94-2.66-1.66-4.46Z"/><path class="cls-4" d="m161.85,203.27c5.06,0,10.12,0,15.17.01,2.71,0,3.05.33,2.65,3.01-.8,5.45-1.68,10.89-2.53,16.33-.82,5.26-1.64,10.52-2.43,15.78-.1.66-.09,1.33-.71,1.77-3.29-4.62-6.81-8.99-11.67-12.13-3.54-2.29-7.62-2.6-11.63-3.54.31-1.34.54-2.68,1.11-3.97.69-1.57,1.82-2.49,3.47-2.24,3.28.51,4.39-1.71,5.32-4.06,1.4-3.52,1.03-7.29,1.23-10.97Z"/><path class="cls-5" d="m106.7,334.15c-1.44-.15-1.61-1.54-2.3-2.39-4.11-5.07-8.85-9.13-15.6-10.12.74-.85.58-1.89.5-2.86-.21-2.53.83-4.45,2.68-6.09,1.24-1.1,2.4-2.29,3.52-3.52.67-.73,1.42-1.6,1.33-2.6-.38-3.89,1.58-7.08,2.94-10.46,1.88,1.58,4.38,1.85,6.47,3,.94.52,1.51.84,1.19,2.21-.64,2.71-.87,5.52-1.36,8.27-.13.73-.24,1.28.5,1.68,1.29.71,2.21,1.99,3.71,2.37-.94,6.88-1.92,13.75-3.56,20.5Z"/><path class="cls-3" d="m85.25,313.29c-.91-2.81,1.18-5.15,3.51-7.39,2.03-1.94,3.04-4.17,3.16-7.14.17-4.22.91-8.43,1.64-12.6.96-5.49,2.08-10.95,3.28-16.39.64-2.91,1.69-5.73,2.41-8.62.34-1.35.9-1.18,1.71-.55,2.33,1.81,4.64,3.65,6.97,5.45.82.64,1,1.21.55,2.3-1.87,4.51-3.58,9.09-5.31,13.65-2.74,7.23-5.46,14.47-8.18,21.7.92,4.42-2.94,6.03-5.1,8.62-1.69,2.02-2.6,4.27-2.59,6.91,0,.48.38,1.27-.55,1.37-.81.08-.74-.61-.96-1.14-.73-1.76-.35-3.58-.54-6.18Z"/><path class="cls-3" d="m178.51,259.12c1.44,1.79,2.51,1.31,3.13-.53,1.69-5.05,3.19-10.16,4.14-15.42.17-.92.13-1.85-.19-2.52-1.09-2.27.16-4.03,1.24-5.62,2.09-3.09,5.55-4.74,8.29-7.16.14-.13.79-.26,1.17.34-.45.68-.83,1.53-1.45,2.13-1.8,1.71-3.35,3.25-1.42,6,.91,1.3-.05,2.86-1.08,3.97-1.99,2.16-2.65,4.59-2.75,7.59-.22,6.9-.87,13.79-2.72,20.51-.4,1.47-.56,3.01-1.2,4.42-1.95,4.34-4.75,5.11-8.63,2.37-.41-.29-.79-.6-1.2-.88-3.79-2.66-3.71-2.7-1.42-6.72,1.53-2.7,2.71-5.59,4.08-8.47Z"/><path class="cls-4" d="m110.26,313.65c-1.5-.39-2.42-1.67-3.71-2.37-.74-.4-.63-.96-.5-1.68.49-2.75.72-5.56,1.36-8.27.33-1.37-.24-1.69-1.19-2.21-2.09-1.15-4.59-1.42-6.47-3,1.5-4.08,3.29-8.08,4.42-12.26,1.03-3.8,2.73-6.3,6.92-6.6.94-.07,1.84-.71,2.74-1.11.42-.19.82-.71,1.3-.25.31.3.11.75.03,1.16-.91,5.01-1.64,10.05-2.83,15.01-.39,1.64-.26,3.44,1.32,4.72.31.25.77.55.53,1.23-1.86,5.08-2.94,10.35-3.94,15.65Z"/><path class="cls-1" d="m153.02,441.9c-.5.41-1.07.88-1.65,1.33-.48.38-.98.83-.57,1.44.44.66,1.03.25,1.52-.08.34-.23.7-.46.98-.77,1.15-1.27,2.35-1.26,3.61-.1-.08.58-.74.72-1.14,1.11-.42.42-1.37.76-.7,1.47.46.49,1.37.28,1.8-.27,1.56-1.99,3.24-1.25,5.03-.43,4.83,2.21,5.78,2.8,7.12,4.68-1.45,1.14-3.34.99-4.9,1.07-6.74.35-13.54.42-20.18-1.02-6.33-1.37-6.54-2.05-5.05-8.76.45-2.03,1.03-2.6,2.91-1.21,1.91,1.41,4.28,1.69,6.41.85,1.84-.72,3.3-.83,4.8.68Z"/><path class="cls-3" d="m85.18,454.01c-4.68.14-6.04-3.67-7.67-6.83-2.55-4.93-3.55-10.39-4.64-15.78-.35-1.72.28-3.39.75-5.02.51-1.76,2.02-1.52,3.28-1.3,1.51.26,2.26,1.22,2.49,2.9.44,3.29.33,6.63,1.33,9.88.82,2.67,1.82,5.15,4.09,6.87,1.66,1.26,2.55,3.04,3.31,4.83,1.31,3.12.36,4.44-2.95,4.45Z"/><path class="cls-3" d="m159.48,201.68c1.61,4.94.53,9.38-1.26,13.73-.53,1.29-1.63,1.44-2.88,1.41-3.36-.08-4.03.42-5.16,3.61-1.49,4.18-1.48,4.12-6.04,3.37-1.37-.22-2.81-.03-4.99-.03,5.45-5.01,7.95-11.37,11.98-16.86.72,1.04.94,2.46,2.17,3.12.61.33,1.44.54,1.82,0,.51-.74-.09-1.08-.87-1.28-.83-.21-.73-1.19-1.14-1.77-.49-.68-.64-1.6-.11-2.03.71-.58,1.23.19,1.75.78,1.1,1.25,1.9.38,1.98-.68.13-1.77,1.24-2.47,2.77-3.36Z"/><path class="cls-3" d="m171.27,273.08c-1,3.41-.97,6.98-1.5,10.46-1.14,7.55-2.02,15.14-2.98,22.72-.24,1.88-.4,3.76-.57,5.65-.07.72.16,1.56-.92,1.74-.22-3.09-.91-6.11-1.41-9.16-.18-1.08-.98-2.53,1.14-3.1,1.37-.37.84-1.98.59-2.84-.52-1.81-.41-3.6-.39-5.39.1-6.76-1.38-13.44-.98-20.21.05-.91-.97-1.62-.34-2.59.84-.24,1.21.49,1.51.98,1.33,2.18,3.07,2.45,5.21,1.31.39-.21.58.06.63.44Z"/><path class="cls-1" d="m90,442.86c-2.18-2.53-5.03-4.36-5.47-7.85-.27-2.1-.71-4.23-.63-6.32.14-3.86-.51-7.01-5.17-7.67,2.28-2.26,5.73-2.09,7.37.23,1.19,1.69,2.29,3.45,3.42,5.19.64.99.87,2.06.89,3.26.03,1.99-.28,3.09-2.58,1.89-.53-.28-1.61-.55-1.89.39-.24.82.82.84,1.28,1.24.93.79,3.39-.07,2.93,1.95-.43,1.9-2.18-.44-3.27.32-.23.16-.64.09-1.29.36,2.92,1.43,6.22,2.6,4.4,7.01Z"/><path class="cls-3" d="m170.02,452.52c-1.14,2.06-2.63,2.47-4.33,2.47-7.15,0-14.3.06-21.45-.04-2.12-.03-4.12-.85-5.85-2.11-.91-.66-1.5-1.53-.93-2.78,10.47,4.12,21.34,3.1,32.56,2.46Z"/><path class="cls-3" d="m90.17,423.98c-1.65-1.08-2.24-2.94-3.31-4.39-.85-1.15-3.14-1.12-2.81-2.82.24-1.24,1.68-2.21,2.29-3.44.73-1.47,1.65-1.49,2.95-1,3.9,1.48,4.97,4.19,2.72,7.59-.83,1.26-.75,2.85-1.84,4.06Z"/><path class="cls-5" d="m130.36,360.08c.53.21,1.12.35,1.59.66,1.61,1.02,2.99,2.12,1.42,4.28-.47.65-.64,1.52-.95,2.29q-1.74,4.38-6.08,4.3c.22-2.55,1.57-4.72,2.36-7.07.5-1.5,1.09-2.97,1.65-4.45Z"/><path class="cls-4" d="m90.43,451.38c-.93-4.45-4.09-7.25-6.8-10.48-2.01-2.4-2.1-5.87-2.32-9.04-.09-1.38.05-2.71-.39-4.14-.97-3.12-.81-3.18-3.8-4.37,3.76-.74,4.13-.37,4.76,3.34.48,2.82.68,5.65,1,8.48.31,2.69,1.93,4.72,3.84,6.62,2.59,2.57,4.83,5.43,3.7,9.6Z"/><path class="cls-3" d="m145.82,433.52c1.41-.09,3.43-.6,3.01,2.78-.36,2.85-.77,3.6-3.73,3.71-2.01.08-3.84-1.67-3.84-3.67q0-2.82,4.56-2.82Z"/><path class="cls-3" d="m177.79,247.23c1.64.25,3.41-.6,4.95.56.03,3.55-1.94,6.55-2.82,9.97-.6-3.59-.32-7.28-2.13-10.53Z"/><path class="cls-5" d="m150.25,100.38c10.31-.28,20.63-.24,30.94-.02-.33,1.84-.6,3.69-.51,5.57-1.68-.47-1.74,1.06-1.87,1.85-.49,2.95-.74,5.93-1.05,8.9-.08.77-.35,1.72.97,1.78,0,.79,0,1.59-.01,2.38-8.83,0-17.66,0-26.49,0-.04-6.88-.9-13.68-1.98-20.45Z"/><path class="cls-2" d="m82.77,53.22c-2.33,1.93-4.15.49-5.95.25-.54-.07-.53-.57-.43-.97.16-.68.79-.57,1.2-.48,1.56.31,3.11.72,5.18,1.21Z"/><path class="cls-2" d="m63.59,49.88c.9.14,2.16-.29,3.23.54.31.24,1.11-.05.89.75-.1.37-.46.73-.92.68-1.42-.14-2.84-.27-4.24-.54-.34-.07-.92-.53-.57-1.11.29-.5.71-.92,1.62-.31Z"/><path class="cls-2" d="m71.84,58.34c.14,1.35-.35,2.47-.8,3.58-.03.08-.81.04-.85-.09-.41-1.16-.58-2.41.05-3.5.35-.62-.54-1.96.91-1.85,1.37.11.4,1.33.7,1.85Z"/><path class="cls-2" d="m72.32,45.49c.03-.45.04-.7.07-.95.12-1,.21-2.6,1.24-2.44,1.41.21.73,1.58.36,2.53-.08.22-.08.47-.09.71-.03.83-.02,2.01-1,1.95-1.24-.08-.28-1.34-.59-1.81Z"/><path class="cls-3" d="m358.56,215.75c18.98,0,37.95.07,56.93-.03,8.12-.04,12.14,6.28,10.83,13.77-.8,4.56-1.18,9.2-1.92,13.77-.99,6.09-1.22,12.26-2.29,18.35-.6,3.42-.69,7-1.16,10.49-.67,5-1.57,9.98-1.93,15.01-.33,4.63-1.22,9.18-1.63,13.8-.37,4.17-.81,8.38-1.73,12.51-.55,2.46-.33,5.08-.74,7.57-.5,3.01-.02,6.24-1.86,8.98-.29.43.15.91.22,1.36.33,2.05.4,4.1-.97,5.9-.18.24-.37.6-.32.87,1.04,6-1.21,11.72-1.45,17.58-.2,4.94-1.06,9.77-1.64,14.64-.52,4.35-.97,8.73-1.74,13.07-.6,3.43-.87,6.99-1.12,10.49-.56,7.75-5.96,10.49-11.27,10.48-37.87-.06-75.74-.15-113.61.05-8.43.04-12.92-7.36-11.18-13.86,1.17-4.38,1.15-9.07,1.73-13.61.59-4.67,1.56-9.32,1.79-14.01.22-4.43,1.19-8.73,1.63-13.11.64-6.39,1.53-12.76,2.32-19.13.6-4.86,1.15-9.75,1.77-14.61.77-5.97,1.25-11.98,2.25-17.94.52-3.11.74-6.34,1.16-9.5.65-4.84.91-9.71,1.81-14.53.56-3.02.73-6.17,1.17-9.26,1.1-7.72,1.48-15.52,2.88-23.21.67-3.65.56-7.45,1.16-11.12.48-2.94.33-6,1.71-8.8,1.92-3.89,5-5.95,9.27-5.96,19.31-.05,38.62-.02,57.93-.02Zm-15.39,109.39c-12.56,0-25.11,0-37.67,0-2.47,0-4.32,1.43-4.41,3.38-.09,2.02,1.83,3.61,4.5,3.61,25.11.01,50.22,0,75.33,0,.82,0,1.62.04,2.35-.56,1.33-1.1,2.18-2.38,1.52-4.11-.67-1.75-2.1-2.35-3.97-2.35-12.56.04-25.11.02-37.67.02Zm4.64-21.58s0-.03,0-.05c10.32,0,20.63,0,30.95,0,1.41,0,2.84.01,4.23-.2,3.57-.54,6.06-3.23,7.06-6.8,1.06-3.8,1.16-7.7,1.73-11.55.83-5.56,1.46-11.16,2.18-16.73.62-4.76,1.26-9.52,1.88-14.28.3-2.33,1.04-4.73.76-7-.51-4.07-4.81-7.27-9.31-7.27-21.8-.04-43.59.02-65.39-.06-3.27-.01-5.62,1.29-7.63,3.69-1.35,1.61-1.42,3.52-1.8,5.45-1.36,6.94-2.18,13.95-2.82,20.96-.5,5.44-2.03,10.69-2.21,16.19-.1,3.22-.91,6.46-.79,9.72.12,3.42,4.59,7.95,7.48,7.95,11.22-.01,22.45,0,33.67,0Zm-20.52,58.54c-8.91,0-17.81-.01-26.72,0-2.81,0-4.06,1.19-3.99,3.62.07,2.37,1.29,3.37,4.25,3.37,14.15,0,28.3,0,42.45,0,3.66,0,7.32.03,10.99-.01,2.6-.03,3.81-1.26,3.74-3.61-.06-2.3-1.27-3.36-4-3.36-8.91-.02-17.81,0-26.72,0Zm-3.25-18.48c-7.15,0-14.3.02-21.45-.01-2.06,0-3.35.76-3.51,2.94-.22,2.9.95,4.05,4.21,4.06,13.97.01,27.93,0,41.9,0,2.58,0,4.26-1.34,4.32-3.4.08-2.47-1.22-3.58-4.27-3.58-7.07-.01-14.13,0-21.2,0Z"/><path class="cls-4" d="m200.76,43.96c-.41-3.07,1.04-5.93,1.07-8.99.01-1.16,1.39-2.4,3.03-2.47.75-.03,1.5-.03,2.25-.03,66.88,0,133.76,0,200.64,0,4.26,0,5.06.95,3.85,5.05-.87,2.94-.51,5.98-1.11,8.93-1.16,5.73-1.2,11.6-2.37,17.36-.68,3.33-.54,6.84-1.14,10.25-.65,3.75-1.09,7.53-1.53,11.31-.57,4.86-.94,9.74-1.59,14.58-.67,4.92-1.23,9.86-1.97,14.76-.88,5.81-1.41,11.66-2.25,17.47-.66,4.58-1.39,9.19-1.76,13.83-.45,5.69-1.34,11.34-2.05,17.01-.61,4.84-1.23,9.68-1.84,14.52-.36,2.84-.68,5.69-1.04,8.53-.47,3.63-.83,7.29-1.5,10.89-.58,3.12-.15,6.39-1.35,9.4-.4,1.01.05,1.55.85,1.99.13,1.92-.82,3.75-.5,5.68-12.33.2-24.65.21-36.98,0-.28-1.76.52-3.42.5-5.16.74-.38.96-.99,1.06-1.8.64-5.51,1.29-11.01,2.02-16.5.59-4.52,1.51-9.01,1.85-13.55.2-2.67.75-5.53-.39-8.12-1.92-4.35-5.48-6.47-10.18-6.48-24.37-.04-48.75-.02-73.12-.01-.87,0-1.9-.28-2.3.94-1.8-.01-3.6-.02-5.4-.04.69-8.62,1.82-17.18,2.95-25.74.39-2.98,1.23-6.06.23-9.25-1.09-3.48-4.78-6.78-8.45-6.94-22.85-.98-45.71-.16-68.56-.43-3.01-.03-2.93,0-2.55-2.89.74-5.5,1.44-11.01,2.01-16.53.12-1.18.51-1.39,1.48-1.32.58.04,1.16,0,1.75,0,56.08,0,112.17,0,168.25,0,1.82,0,3.65.09,5.47.19.85.04,1.64-.08,2.34-.58,1.2.84,2.58.8,3.83.38,4.3-1.43,6.99-4.04,7.75-8.9,2.01-12.84,4.36-25.62,6.66-38.41.76-4.21-2.31-8.35-6.54-8.44-2.08-.05-4.16.03-6.23.06-2-.03-3.99-.09-5.99-.09-55.92,0-111.84,0-167.76,0-1,0-1.99-.04-2.99-.06-.14-.13-.29-.27-.43-.4Zm163.32,77.61c-.03-1.18-.88-1.68-1.52-2.29-.87-.83-1.5,0-2.19.38-2.48,1.4-3.86.71-3.82-2.08.02-1.38-.3-2.1-1.69-2.51-1.53-.45-2.06.33-2.68,1.45-1.15,2.07-2.91,2.08-4.1.09-.62-1.04-1.04-1.96-2.66-1.47-1.51.46-1.9,1.21-1.88,2.68.04,2.54-1.32,3.36-3.45,2.05-1.24-.76-2.02-.97-3.14.23-1.05,1.12-.85,1.86-.12,3.01,1.38,2.16.51,3.69-2.04,3.7-1.27,0-2.28.07-2.63,1.58-.33,1.38.18,2.1,1.4,2.75,2.24,1.2,2.24,2.99.01,4.18-1.2.64-1.74,1.24-1.3,2.71.39,1.28.78,1.91,2.3,1.89,3.19-.05,3.73.93,2.1,3.68-.74,1.24-.32,1.9.53,2.75.82.83,1.46,1.05,2.56.4,2.88-1.69,3.72-1.28,3.71,1.94,0,1.69.89,2.02,2.17,2.46,1.45.49,1.95-.26,2.43-1.34.44-.99.86-1.94,2.29-1.9,1.31.04,1.64.96,2.08,1.84.5,1.02.91,1.85,2.41,1.42,1.43-.41,1.7-1.17,1.68-2.51-.03-2.96,1.42-3.72,4.01-2.11,1.08.67,1.8.74,2.77-.25.98-1,1.22-1.71.38-2.96-1.64-2.47-.89-3.94,1.95-3.89,1.47.03,2.14-.33,2.59-1.88.5-1.74-.56-2.01-1.57-2.54-.8-.42-1.64-.7-1.67-1.9-.03-1.29.75-1.79,1.71-2.14,1.58-.57,1.78-1.45,1.33-3.05-.46-1.66-1.5-1.47-2.66-1.49-2.54-.06-3.21-1.2-2.02-3.39.27-.51.51-1.04.71-1.47Z"/><path class="cls-3" d="m354,208.86c.02,1.74-.78,3.4-.5,5.16-2.82.04-5.65.12-8.47.12-14.47.01-28.94.24-43.4-.09-7.7-.17-12.56,5.53-13.19,12.65-.52,5.97-1.41,11.96-2.18,17.92-.61,4.76-1.27,9.54-1.7,14.34-.53,5.81-1.57,11.58-2.31,17.37-.44,3.4-.71,6.82-1.09,10.22-.66,5.91-1.34,11.83-2.05,17.74-.1.8-.39,1.57-.58,2.36-1.78,0-3.56,0-5.35,0-.49-1.07-1.46-.9-2.36-.9-4.41,0-8.81,0-13.22,0-10.64,0-21.28-.04-31.93.01-5.41.02-8.98-4.48-8.91-9.13.04-2.89.64-5.81.99-8.71.94-7.72,2.41-15.39,3.26-23.12.22-1.96,1.56-4.08.16-6.13-.12-1.33.07-2.63.5-3.9,8.39-.03,16.79-.06,25.18-.1,5.84-.03,9.43-3.6,10.37-9.31,1.33-8.07,2.11-16.21,3.22-24.31.69-5.06,1.31-10.19,1.75-15.32.49-5.82,1.58-11.59,2.33-17.39.44-3.4.46-6.88,1.15-10.22.97-4.65.56-9.41,1.43-14.05.06-.33.06-.65.43-.79,1.8.01,3.6.02,5.4.04.5,1.12,1.51.83,2.38.84,2.99.02,5.98,0,8.98,0,21.2,0,42.39,0,63.59,0,5.78,0,10.43,4.05,9.68,9.61-.23,1.66-1.48,3.73-1.23,4.48.8,2.38-1.06,4.33-.37,6.51.24.76.2,1.69.01,2.48-1.59,6.52-1.48,13.29-2.96,19.82-.19.86.27,1.41.99,1.79Z"/><path class="cls-3" d="m390.47,214.02c-.32-1.94.63-3.76.5-5.68,1.93-.99,1.2-3.09,1.31-4.43.28-3.19.79-6.37,1.32-9.49.69-4.02.77-8.07,1.32-12.08,1.12-8.2,2-16.44,3.04-24.65,1.01-8,2.26-15.96,3.07-23.99.38-3.8.85-7.62,1.49-11.38,1.14-6.74,1.46-13.57,2.5-20.3.97-6.26,1.47-12.56,2.43-18.81.83-5.39,1.45-10.81,2.02-16.23.56-5.34,1.43-10.64,2.13-15.96.48-3.64.87-7.29,1.34-10.92.23-1.78.55-3.53.54-5.36-.01-2.34-1.18-3.46-3.26-3.84-.97-.18-1.99-.15-2.98-.15-66.65,0-133.3,0-199.95,0-5.23,0-6.23.89-7.18,5.96-.45,2.41-.87,4.82-1,7.27-.15.13-.29.27-.44.4-3.32,0-6.63,0-9.95,0-.03-1.79-.05-3.58-.08-5.37.74-.66.82-1.61,1.07-2.48,1.08-5.55,1.59-11.2,2.26-16.79.54-4.51,1.63-8.56,4.53-11.96,2.78-3.27,6.36-5.26,10.75-5.76,5.31-.61,10.62-.31,15.92-.31,62.75-.03,125.51-.02,188.26-.03,4.32,0,8.28.99,11.34,4.23,3.48,3.68,3.88,8.34,2.89,12.88-.78,3.58-.87,7.21-1.6,10.78-.94,4.61-.9,9.4-1.7,14.05-.65,3.75-.67,7.56-1.4,11.3-1.43,7.28-1.69,14.72-2.8,22.06-.75,4.95-1.37,10.02-1.78,15.06-.37,4.6-1.55,9.14-1.78,13.73-.18,3.45-1.02,6.76-1.24,10.2-.34,5.27-1.12,10.54-2.14,15.72-.33,1.68-.38,3.42-.54,5.05-.3,3.17-1.08,6.28-1.21,9.45-.12,3.12-.65,6.19-1.05,9.27-.43,3.37-1.05,6.72-1.47,10.1-.61,4.92-1.3,9.84-1.84,14.74-.52,4.78-1.31,9.53-1.74,14.33-.56,6.3-1.57,12.56-2.37,18.83-.11.9-.77.71-1.31.71-3.08-.02-6.15-.07-9.22-.11ZM308.94,20.99c3.25.04,6.58-3.21,6.61-6.45.03-2.91-2.5-5.52-5.31-5.47-3.33.06-6.58,3.23-6.67,6.51-.08,3.32,1.95,5.37,5.37,5.41Z"/><path class="cls-5" d="m274.53,339.14c-14.12-.01-28.24-.03-42.36-.03-2.24,0-4.33-.39-5.88-2.13-1.86-2.08-2.02-4.42-.85-6.93,1.22-2.62,3.12-4.36,6.07-4.39,8.06-.08,16.11-.04,24.17-.03,6.81,0,13.62.02,20.43.02.03,4.56-.86,9.02-1.58,13.49Z"/><path class="cls-4" d="m157.72,44.36c-.65-.01-1.3-.03-1.96-.04-2.67-3.96-6.3-7.05-9.77-10.21-5.65-5.13-11.74-9.74-18.39-13.56-3.03-1.74-6.11-3.36-9.37-4.66-.58-.23-1.51-.41-1.29-1.24.28-1.04,1.17-.62,1.86-.38,3.88,1.33,7.41,3.4,10.87,5.53,9.67,5.94,18.27,13.23,26.07,21.47.85.89,1.71,1.81,1.97,3.09Z"/><path class="cls-3" d="m113.79,187.75c-1.43-1.68-2.5-2.8-3.41-4.04-1.57-2.13-3.39-3.15-6.25-3.06-7.55.24-15.12.09-22.69.08-3.19,0-4.29-.94-4.06-4.13.46-6.62.1-13.23.09-19.84,0-3.14.81-3.93,3.91-3.93,11.8,0,23.6,0,35.4,0,2.91,0,3.44.51,3.46,3.48.06,6.9.08,13.8.13,20.69.02,1.98-.44,3.25-2.88,3.38-2.59.14-3.68,1.74-3.7,4.46,0,.74,0,1.48,0,2.91Zm-17.26-28.27c-1.96.35-3.35.93-4.27,2.43-1.76,2.88-1.18,5.36,2.18,8.79,3.51,3.6,3.53,3.63,7.38.6,2.02-1.59,4.09-3.2,5.05-5.73,1.08-2.82-.61-6.1-3.32-5.91-2.49.17-4.93,2.18-7.02-.17Z"/><path class="cls-4" d="m237.74,203.28c4.58,0,9.15,0,13.73,0,2.68,0,3.01.36,2.62,3.06-.65,4.49-1.36,8.97-2.06,13.46-1.13,7.34-2.27,14.67-3.4,22.01-.19,1.22-.33,2.46-.55,3.67-.28,1.56-1.31,2.23-2.83,2.24-9.57,0-19.13,0-28.7,0-2.01,0-2.64-1.1-2.36-2.9,1.22-7.66,2.48-15.31,3.68-22.97.8-5.13,1.63-10.27,2.25-15.42.27-2.22,1-3.26,3.4-3.19,4.74.14,9.48.04,14.22.04Z"/><path class="cls-5" d="m203.43,133.37c8.47,0,16.95,0,25.42,0,1.34,0,2.94-.16,3.4,1.4.5,1.72.26,3.66-.61,5.2-.72,1.28-2.23,1.64-3.75,1.25-.24-.06-.47-.24-.71-.24-12.37-.06-24.74-.31-37.11.12-4.56.16-9.13.12-13.69.19-.81.01-1.16-.51-1.55-1.05-1.34-1.83-.45-3.72.05-5.49.45-1.6,2.03-1.4,3.37-1.4,8.39,0,16.78,0,25.17,0Z"/><path class="cls-1" d="m215.35,194.8c-8.39,0-16.78,0-25.17,0-1,0-1.95.04-2.56-1.08-.57-1.05.52-1.44.68-2.2.19-.91,1.05-.65,1.66-.65,16.45-.01,32.9-.01,49.34,0,.64,0,1.32.39,1.93.29,1.55-.26,2.29.58,2.27,1.85-.02,1.42-1.17,1.81-2.49,1.8-8.56-.02-17.11,0-25.67,0Z"/><path class="cls-1" d="m226.12,150.34c6.81,0,13.63,0,20.44,0,1.39,0,3.11-.22,3.08,1.9-.03,1.95-1.58,2.04-3.07,2.04-13.63,0-27.26,0-40.89,0-1.39,0-2.89-.08-2.97-1.86-.09-1.96,1.42-2.09,2.95-2.09,6.81.02,13.63,0,20.44,0Z"/><path class="cls-1" d="m223.41,168.35c-6.65,0-13.31,0-19.96,0-1.45,0-3.15.07-3.15-1.88,0-1.83,1.56-2.07,3.09-2.07,13.31,0,26.62,0,39.93,0,1.47,0,2.77.28,2.84,2.03.08,1.95-1.38,1.92-2.77,1.92-6.65-.01-13.31,0-19.96,0Z"/><path class="cls-1" d="m237.89,181.29c-1.41,0-2.83.08-4.23-.03-.69-.05-1.83.49-1.93-.87-.09-1.22.09-2.6,1.48-2.79,3.53-.48,7.1-.41,10.64-.02.84.09,1.38.93,1.28,1.89-.13,1.16-.9,1.77-2.01,1.82-1.74.06-3.48.02-5.22.01Z"/><path class="cls-4" d="m254.67,248.75c-.09.39-.07.85-.6.96-.75-.92.06-.86.6-.96Z"/><path class="cls-3" d="m250.24,98.5c-38.94,0-77.89-.07-116.83.07-5.91.02-8.44-2.85-7.25-8.74,1.97-9.7,3.44-19.49,5.12-29.25.51-2.95.89-5.93,1.54-8.84,1-4.47,2.69-5.58,7.19-5.71,7.81-.24,15.64-.04,23.46-.04,70.23,0,140.46,0,210.69-.01,1.75,0,3.48.11,5.01.94,2.47,1.34,3.42,4.27,2.71,7.52-1.39,6.41-2.36,12.9-3.44,19.38-.8,4.83-2.09,9.58-2.85,14.42-.32,2.08-.52,4.17-1.08,6.22-.71,2.63-2.63,3.56-4.97,3.99-.81.15-1.66.04-2.49.04-38.94,0-77.89,0-116.83,0Zm-5.48-20.58c14.89,0,29.78.01,44.67,0,3.73,0,6.71-2.22,7.67-5.57,1.1-3.84-.11-7.31-3.35-9.32-2.28-1.41-4.88-1.52-7.45-1.53-27.62-.02-55.24-.02-82.85,0-1.72,0-3.47.18-5.17.48-2.04.36-3.66,1.49-4.75,3.3-1.66,2.76-2.02,5.64-.36,8.5,1.69,2.9,4.28,4.18,7.68,4.17,14.64-.05,29.28-.02,43.92-.02Zm81.57-.02c2,0,3.99.02,5.99,0,5.1-.05,8.75-3.54,8.71-8.29-.04-4.61-3.68-8.1-8.6-8.16-4.16-.05-8.31-.06-12.47,0-4.87.07-8.98,3.78-8.77,8.35.2,4.34,2.97,7.86,8.66,8.08,2.16.09,4.32.01,6.48.01Zm-163.58,3.57c7.11.48,12.13-5.41,12.48-10.87.36-5.59-2.52-10.29-7.44-12.34-4.68-1.95-10.12-.77-13.68,3.09-3.09,3.35-4.73,8.8-1.6,13.97.96,1.59.42,2.49-.8,3.27-1.98,1.28-3.39,3.16-5.09,4.73-.98.9-1.32,2.05-.37,3.07,1.02,1.11,1.94.26,2.74-.54,1.82-1.82,3.69-3.6,5.45-5.47.82-.87,1.5-1.05,2.56-.4,1.8,1.11,3.78,1.7,5.75,1.49Z"/><path class="cls-1" d="m377.93,44.52c2.08-.02,4.16-.1,6.23-.06,4.23.1,7.3,4.23,6.54,8.44-2.3,12.79-4.65,25.57-6.66,38.41-.76,4.85-3.45,7.47-7.75,8.9-1.25.41-2.62.45-3.83-.38,4.26-2.75,4.24-7.35,5.02-11.59,1.32-7.2,2.61-14.41,3.91-21.62.86-4.78,1.8-9.55,2.53-14.35.47-3.07-2.08-6.19-5.99-7.75Z"/><path class="cls-3" d="m178.72,120.84c0-.79,0-1.59.01-2.38,1.44-4.05,1.3-8.36,1.96-12.53-.09-1.88.17-3.73.51-5.57,3.06-.05,6.12-.1,9.18-.15.98-.02,1.28.02,1.06,1.37-.78,4.73-1.21,9.51-1.72,14.28-.15,1.37-.79,2.67-.54,4.11.18,1.02-.58.97-1.27.96-3.06-.03-6.13-.06-9.19-.1Z"/><path class="cls-5" d="m200.76,43.96c.14.13.29.27.43.4-.36.1-.51-.03-.43-.4Z"/><path class="cls-5" d="m198.67,44.35c.15-.13.29-.27.44-.4.06.37-.08.51-.44.4Z"/><path class="cls-5" d="m213.27,352.59c12.07,0,24.14,0,36.21,0,3.7,0,5.57,1.25,6.47,4.25.73,2.43-.93,6.31-3.37,7.75-1.67.98-3.51,1.49-5.45,1.49-23.72,0-47.44,0-71.16-.02-3.43,0-5.67-1.34-6.65-3.85-1.73-4.46,1.95-9.59,7-9.61,12.32-.04,24.64-.01,36.96-.01Z"/><path class="cls-5" d="m234.85,378.58c7.48,0,14.96.02,22.44,0,2.65,0,4.68.91,5.8,3.44,1.14,2.58.48,4.94-1.19,6.95-1.71,2.05-3.99,3.11-6.77,3.1-14.46-.03-28.93-.01-43.39-.02-4.5,0-6.98-2.08-7.06-5.89-.08-4.17,3.02-7.52,7.23-7.56,7.65-.07,15.29-.02,22.94-.02Z"/><path class="cls-5" d="m197.06,325.62c3.82,0,7.65-.02,11.47,0,2.7.01,5.48,1.66,6.08,3.53.93,2.92-.29,6.1-2.75,7.92-2.11,1.56-4.32,2.12-6.93,2.06-6.56-.14-13.13-.04-19.69-.05-4.46,0-7.46-2.39-7.51-5.93-.05-4.19,3.25-7.49,7.62-7.54,3.91-.04,7.81,0,11.72-.01Z"/><path class="cls-5" d="m241.13,307.65c-1.12,3.29-3.43,5.02-6.85,5.02-11.4.02-22.8-.06-34.21.05-2.85.03-4.98-.92-6-3.48-1.03-2.58-.33-5.09,1.51-7.17,1.44-1.63,3.24-2.47,5.5-2.43,4.83.07,9.65.02,14.48.02,2.27,5.74,5.28,7.81,11.43,7.86,4.71.04,9.43.09,14.14.14Z"/><path class="cls-2" d="m241.13,307.65c-4.71-.05-9.43-.09-14.14-.14-6.16-.05-9.16-2.12-11.43-7.86-.96-3.27.1-6.51.31-9.74.31-4.67,1.17-9.31,1.79-13.96.57-4.25,1.09-8.52,1.79-12.75.13-.82.14-1.62.22-2.43.1-.97.16-1.99,1.49-2.1,1.4,2.06.06,4.17-.16,6.13-.85,7.73-2.32,15.39-3.26,23.12-.35,2.9-.95,5.82-.99,8.71-.07,4.65,3.5,9.16,8.91,9.13,10.64-.05,21.28-.01,31.93-.01,4.41,0,8.81,0,13.22,0,.9,0,1.87-.17,2.36.9-.69,1.23-1.89.83-2.9.83-8.8.03-17.61.01-26.41.02-.91,0-1.82.09-2.73.13Z"/><path class="cls-2" d="m277.12,418.15c-31.02,0-62.03.02-93.05-.08-1.43,0-3.23,1.6-4.45-.54.43-1.08,1.34-.99,2.27-.99,31.56.01,63.11,0,94.67.05.69,0,1.99-.74,2.01.93l-.02-.04c-.51.16-1.29-.28-1.44.66Z"/><path class="cls-5" d="m277.12,418.15c.14-.95.93-.51,1.44-.66-.07,1.1-.49,1.45-1.44.66Z"/><path class="cls-2" d="m180.69,105.93c-.66,4.18-.52,8.48-1.96,12.53-1.31-.05-1.05-1-.97-1.78.31-2.97.56-5.96,1.05-8.9.13-.79.19-2.32,1.87-1.85Z"/><path class="cls-4" d="m343.17,325.14c12.56,0,25.11.02,37.67-.02,1.86,0,3.29.6,3.97,2.35.66,1.73-.2,3.01-1.52,4.11-.73.6-1.53.56-2.35.56-25.11,0-50.22,0-75.33,0-2.67,0-4.59-1.59-4.5-3.61.09-1.95,1.94-3.38,4.41-3.38,12.56,0,25.11,0,37.67,0Z"/><path class="cls-2" d="m347.81,303.55c-11.22,0-22.45,0-33.67,0-2.89,0-7.36-4.53-7.48-7.95-.12-3.26.69-6.5.79-9.72.17-5.5,1.71-10.75,2.21-16.19.64-7.01,1.46-14.03,2.82-20.96.38-1.93.45-3.84,1.8-5.45,2.01-2.4,4.36-3.7,7.63-3.69,21.8.08,43.59.02,65.39.06,4.5,0,8.8,3.2,9.31,7.27.28,2.27-.46,4.66-.76,7-.62,4.76-1.26,9.52-1.88,14.28-.72,5.58-1.35,11.17-2.18,16.73-.58,3.85-.67,7.76-1.73,11.55-1,3.58-3.5,6.26-7.06,6.8-1.39.21-2.82.19-4.23.2-10.32.01-20.63,0-30.95,0,0,.02,0,.03,0,.05Zm-38.14-20.83c-.28,3.17-.57,6.44-1.31,9.44-1.28,5.21,3.18,9.73,7.81,9.7,21.61-.14,43.23-.05,64.84-.07,4.16,0,6.51-1.86,7.76-5.92.25-3.76.76-7.5,1.31-11.2,1.09-7.33,1.74-14.71,2.88-22.03.55-3.54,1.05-7.09,1.49-10.65.82-6.7-1.39-10.95-8.95-10.79-7.98.17-15.97.04-23.96.04-13.23,0-26.46,0-39.69,0-3.19,0-5.78,1.13-6.94,4.35-1.68,4.65-1.65,9.57-2.3,14.39-.61,4.6-1.27,9.2-1.87,13.81-.39,2.97-.71,5.94-1.06,8.92Z"/><path class="cls-4" d="m327.28,362.1c8.91,0,17.81-.01,26.72,0,2.72,0,3.93,1.07,4,3.36.07,2.35-1.15,3.58-3.74,3.61-3.66.05-7.32.01-10.99.01-14.15,0-28.3,0-42.45,0-2.95,0-4.18-1-4.25-3.37-.07-2.43,1.19-3.61,3.99-3.62,8.91-.02,17.81,0,26.72,0Z"/><path class="cls-4" d="m324.03,343.62c7.07,0,14.13,0,21.2,0,3.06,0,4.35,1.11,4.27,3.58-.06,2.06-1.74,3.4-4.32,3.4-13.97,0-27.93,0-41.9,0-3.26,0-4.43-1.15-4.21-4.06.16-2.18,1.46-2.95,3.51-2.94,7.15.03,14.3.01,21.45.01Z"/><path class="cls-1" d="m364.08,121.57c-.21.43-.44.96-.71,1.47-1.18,2.19-.52,3.33,2.02,3.39,1.16.03,2.2-.16,2.66,1.49.45,1.6.24,2.48-1.33,3.05-.96.35-1.74.85-1.71,2.14.03,1.2.87,1.48,1.67,1.9,1,.53,2.07.81,1.57,2.54-.45,1.55-1.12,1.9-2.59,1.88-2.83-.05-3.59,1.43-1.95,3.89.84,1.25.59,1.96-.38,2.96-.97.99-1.69.92-2.77.25-2.59-1.61-4.04-.85-4.01,2.11.01,1.34-.25,2.09-1.68,2.51-1.5.43-1.92-.4-2.41-1.42-.43-.88-.77-1.8-2.08-1.84-1.43-.04-1.85.91-2.29,1.9-.48,1.08-.98,1.83-2.43,1.34-1.28-.43-2.18-.77-2.17-2.46,0-3.22-.82-3.63-3.71-1.94-1.1.64-1.74.43-2.56-.4-.85-.86-1.27-1.51-.53-2.75,1.64-2.75,1.09-3.73-2.1-3.68-1.52.02-1.91-.61-2.3-1.89-.45-1.48.09-2.07,1.3-2.71,2.22-1.18,2.23-2.98-.01-4.18-1.22-.65-1.73-1.37-1.4-2.75.36-1.51,1.36-1.58,2.63-1.58,2.55,0,3.42-1.54,2.04-3.7-.73-1.14-.93-1.89.12-3.01,1.12-1.2,1.91-.99,3.14-.23,2.13,1.31,3.49.49,3.45-2.05-.02-1.47.37-2.22,1.88-2.68,1.62-.49,2.04.43,2.66,1.47,1.19,2,2.94,1.98,4.1-.09.63-1.12,1.15-1.9,2.68-1.45,1.39.41,1.71,1.14,1.69,2.51-.04,2.79,1.34,3.48,3.82,2.08.69-.39,1.31-1.22,2.19-.38.64.62,1.49,1.11,1.52,2.29Zm-23.07,11.63c.04,5.07,4.18,9.14,9.27,9.11,4.89-.03,9.25-4.46,9.17-9.34-.07-4.91-4.42-9.11-9.39-9.09-5.01.02-9.09,4.22-9.05,9.31Z"/><path class="cls-2" d="m354,208.86c-.72-.39-1.18-.94-.99-1.79,1.48-6.53,1.38-13.3,2.96-19.82.19-.78.23-1.72-.01-2.48-.69-2.19,1.17-4.13.37-6.51-.25-.75,1-2.81,1.23-4.48.75-5.56-3.9-9.61-9.68-9.61-21.2.02-42.39,0-63.59,0-2.99,0-5.98.01-8.98,0-.88,0-1.89.28-2.38-.84.39-1.22,1.42-.94,2.3-.94,24.37,0,48.75-.02,73.12.01,4.7,0,8.26,2.13,10.18,6.48,1.14,2.58.6,5.44.39,8.12-.34,4.54-1.26,9.03-1.85,13.55-.72,5.49-1.38,11-2.02,16.5-.09.81-.32,1.43-1.06,1.8Z"/><path class="cls-4" d="m308.94,20.99c-3.42-.04-5.45-2.08-5.37-5.41.08-3.28,3.33-6.45,6.67-6.51,2.81-.05,5.34,2.56,5.31,5.47-.03,3.24-3.36,6.48-6.61,6.45Z"/><path class="cls-1" d="m96.53,159.48c2.09,2.35,4.53.35,7.02.17,2.72-.19,4.4,3.09,3.32,5.91-.97,2.53-3.03,4.14-5.05,5.73-3.85,3.03-3.87,3-7.38-.6-3.35-3.43-3.94-5.92-2.18-8.79.92-1.49,2.31-2.07,4.27-2.43Z"/><path class="cls-5" d="m244.76,77.93c-14.64,0-29.28-.03-43.92.02-3.4.01-5.99-1.27-7.68-4.17-1.66-2.86-1.3-5.73.36-8.5,1.09-1.81,2.71-2.94,4.75-3.3,1.7-.3,3.44-.48,5.17-.48,27.62-.03,55.24-.03,82.85,0,2.57,0,5.18.12,7.45,1.53,3.24,2,4.45,5.47,3.35,9.32-.96,3.35-3.93,5.57-7.67,5.57-14.89.02-29.78,0-44.67,0Z"/><path class="cls-5" d="m326.33,77.91c-2.16,0-4.33.07-6.48-.01-5.68-.22-8.45-3.74-8.66-8.08-.21-4.57,3.9-8.28,8.77-8.35,4.16-.06,8.31-.05,12.47,0,4.91.05,8.55,3.54,8.6,8.16.04,4.75-3.61,8.23-8.71,8.29-1.99.02-3.99,0-5.99,0Z"/><path class="cls-1" d="m162.74,81.47c-1.97.21-3.95-.38-5.75-1.49-1.06-.65-1.74-.47-2.56.4-1.76,1.88-3.63,3.65-5.45,5.47-.8.8-1.71,1.64-2.74.54-.94-1.02-.61-2.17.37-3.07,1.71-1.57,3.11-3.45,5.09-4.73,1.21-.78,1.76-1.68.8-3.27-3.13-5.17-1.49-10.62,1.6-13.97,3.55-3.86,9-5.04,13.68-3.09,4.92,2.05,7.8,6.75,7.44,12.34-.35,5.46-5.37,11.35-12.48,10.87Zm.36-3.01c5.18,0,9.17-3.97,9.13-9.1-.04-4.99-4.04-8.92-9.07-8.92-5.29,0-9.06,3.82-9.02,9.13.04,5.17,3.78,8.88,8.97,8.88Z"/><path class="cls-3" d="m309.67,282.73c.35-2.97.67-5.95,1.06-8.92.6-4.61,1.26-9.2,1.87-13.81.64-4.82.62-9.75,2.3-14.39,1.17-3.23,3.75-4.35,6.94-4.35,13.23-.02,26.46,0,39.69,0,7.99,0,15.98.13,23.96-.04,7.56-.16,9.77,4.08,8.95,10.79-.43,3.56-.93,7.11-1.49,10.65-1.14,7.32-1.79,14.7-2.88,22.03-.55,3.7-1.06,7.45-1.31,11.2-.68-.6-1.42-1.14-2.03-1.81-7.14-7.77-14.24-15.57-21.39-23.32-1.88-2.04-4.32-2.21-6.46-.65-3.49,2.53-5.16,2.43-8.23-.6-3.25-3.21-6.46-6.47-9.71-9.69-2.7-2.67-4.59-2.74-7.25-.13-7.25,7.09-14.44,14.23-21.67,21.34-.69.68-1.2,1.64-2.35,1.71Zm68.53-18.03c3.77,0,6.78-3.01,6.75-6.78-.02-3.66-2.94-6.62-6.6-6.68-3.83-.07-6.82,2.82-6.87,6.64-.05,3.77,2.95,6.81,6.71,6.82Z"/><path class="cls-1" d="m309.67,282.73c1.15-.06,1.66-1.03,2.35-1.71,7.23-7.1,14.43-14.25,21.67-21.34,2.67-2.61,4.56-2.54,7.25.13,3.25,3.22,6.46,6.47,9.71,9.69,3.07,3.03,4.74,3.13,8.23.6,2.14-1.56,4.58-1.39,6.46.65,7.16,7.75,14.25,15.55,21.39,23.32.61.66,1.35,1.21,2.03,1.81-1.26,4.06-3.61,5.92-7.77,5.92-21.61.02-43.23-.07-64.84.07-4.63.03-9.09-4.49-7.81-9.7.74-3,1.03-6.27,1.31-9.44Z"/><path class="cls-4" d="m341.01,133.2c-.04-5.1,4.04-9.3,9.05-9.31,4.97-.02,9.31,4.19,9.39,9.09.07,4.87-4.28,9.31-9.17,9.34-5.08.03-9.23-4.05-9.27-9.11Z"/><path class="cls-3" d="m163.1,78.47c-5.19,0-8.93-3.71-8.97-8.88-.04-5.32,3.73-9.13,9.02-9.13,5.03,0,9.03,3.93,9.07,8.92.04,5.12-3.95,9.1-9.13,9.1Z"/><path class="cls-5" d="m378.2,264.7c-3.76,0-6.76-3.05-6.71-6.82.05-3.82,3.04-6.71,6.87-6.64,3.66.07,6.58,3.02,6.6,6.68.02,3.77-2.98,6.79-6.75,6.78Z"/></g></g></svg>