<?xml version="1.0" encoding="UTF-8"?><svg id="Layer_2" xmlns="http://www.w3.org/2000/svg" viewBox="0 0 1148.91 517.95"><defs><style>.cls-1{fill:#f4b873;}.cls-2{fill:#f6f9fd;}.cls-3{fill:#f6f7f6;}.cls-4{fill:#f2e06e;}.cls-5{fill:#f9f9f9;}.cls-6{fill:#f9dfbf;}.cls-7{fill:#040404;}.cls-8{fill:#010101;}.cls-9{fill:#06080d;}.cls-10{fill:#060606;}.cls-11{fill:#050607;}.cls-12{fill:#050505;}.cls-13{fill:#020202;}.cls-14{fill:#696a6b;}.cls-15{fill:#696c70;}.cls-16{fill:#eeeef3;}.cls-17{fill:#f5dbbd;}.cls-18{fill:#f4f8fb;}.cls-19{fill:#fcfcfc;}.cls-20{fill:#fefefe;}.cls-21{fill:#fbfcfc;}.cls-22{fill:#fbfcfb;}.cls-23{fill:#fdfdfd;}.cls-24{fill:#fdfdfe;}.cls-25{fill:#fecb99;}.cls-26{fill:#6b635c;}.cls-27{fill:#969696;}.cls-28{fill:#6c5e55;}.cls-29{fill:#6c6c6c;}.cls-30{fill:#a0a0a0;}.cls-31{fill:#848280;}.cls-32{fill:#a0c2f9;}.cls-33{fill:#66594c;}.cls-34{fill:#8d8d8d;}.cls-35{fill:#939290;}.cls-36{fill:#d2e2fc;}.cls-37{fill:#b0c8ec;}.cls-38{fill:#d2e3fc;}.cls-39{fill:#d1e0f6;}.cls-40{fill:#d3e3fd;}.cls-41{fill:#d3e3fc;}.cls-42{fill:#d3e2fc;}.cls-43{fill:#c6c8d1;}.cls-44{fill:#161616;}.cls-45{fill:#25395c;}.cls-46{fill:#204073;}.cls-47{fill:#43424b;}.cls-48{fill:#41414b;}.cls-49{fill:#090909;}.cls-50{fill:#080808;}.cls-51{fill:#070505;}.cls-52{fill:#070707;}.cls-53{fill:#111;}.cls-54{fill:#374c68;}.cls-55{fill:#454545;}.cls-56{fill:#181818;}.cls-57{fill:#95bbf7;}.cls-58{fill:#535e6c;}.cls-59{fill:#4689f3;}.cls-60{fill:#9a9a9a;}.cls-61{fill:#878583;}.cls-62{fill:#555f6e;}.cls-63{fill:#5b616a;}.cls-64{fill:#59555a;}.cls-65{fill:#2b2d35;}.cls-66{fill:#2b456c;}.cls-67{fill:#566070;}.cls-68{fill:#565f6d;}.cls-69{fill:#64594e;}.cls-70{fill:#475463;}.cls-71{fill:#294163;}.cls-72{fill:#47556a;}.cls-73{fill:#2c446a;}.cls-74{fill:#314769;}.cls-75{fill:#5a5e66;}.cls-76{fill:#5a5d64;}.cls-77{fill:#584e46;}.cls-78{fill:#585a5e;}.cls-79{fill:#3c4c65;}.cls-80{fill:#3c4f69;}.cls-81{fill:#4c5159;}.cls-82{fill:#615f5e;}.cls-83{fill:#60656d;}.cls-84{fill:#4c5868;}.cls-85{fill:#343b49;}</style></defs><g id="Layer_1-2"><g id="_30wfWE"><g><path class="cls-43" d="M752.97,276.93c3.99-2.59,5.15-7.24,7.67-10.87,16.83-24.24,33.29-48.73,49.86-73.14,14.98-22.06,29.96-44.12,44.93-66.2,20.46-30.19,40.93-60.37,61.34-90.6,2.3-3.4,4.89-5.25,9.36-5.21,24.32,.22,48.65,.22,72.97,0,4.59-.04,5.85,1.21,5.84,5.82-.14,86.62-.06,173.24-.2,259.86,0,4.85,.89,6.64,6.22,6.48,13.65-.43,27.32-.04,40.98-.21,3.52-.04,5.02,.67,4.98,4.63-.19,20.65-.16,41.31-.02,61.97,.02,3.53-1.13,4.55-4.58,4.52-14.16-.16-28.32,.06-42.48-.15-3.92-.06-5.11,1.04-5.09,5.04,.17,25.65,.2,51.31,.02,76.96-.05,8.15-4.78,15.1-6.92,22.74-1.06,3.79-3.21,7.28-4.81,10.93-.52,1.17-1.75,2.47-.7,3.67,1.1,1.26,2.76,.73,4.22,.29,12.02-3.63,24.29-5.06,36.85-4.69,4.1,.12,7.95,.86,11.62,2.36,2.85,1.16,4.45,.2,5.72-2.14,4.69-8.66,6.69-20.84-1.14-31.96-1.22-1.74-2.12-3.7-3.78-6.67,13.19,3.26,23.14,9.09,29.49,21.18,2.31-11.05,1.23-21.58,1.56-32.03,.05-1.51-.91-3.64,1.28-4.33,1.68-.53,2.55,1.24,3.65,2.19,8.27,7.18,7.76,16.27,5.44,25.66-1.72,6.96-2.75,13.97-2.44,21.16,.33,7.53,7.36,13.51,14.8,12.56,7.82-.99,15.15-3.52,21.93-7.41,1.99-1.14,3.16-1.35,4.63,.39,3.93,4.66,9.66,5.49,15.07,7.06,5.39,1.56,6.59-1.99,7.58-5.92,0,7.83-.18,15.67,.09,23.49,.1,3-.61,3.59-3.59,3.59-47.99-.12-95.98-.08-143.98-.08h-149.48c.19-2.89,2.72-2.99,4.59-3.69,8.42-3.16,17.12-5.43,25.8-7.74,5.47-1.46,10.82-3.29,16.24-4.88,12.03-3.54,20.28-10.95,24.96-22.54,.95-2.35,1.67-5.23,4.95-5.71,11.52-.09,22.95,.32,33.96,4.34,2.78,1.02,5.85,1.41,8.87,1.09,3.26-.34,6.27-1.34,7.61-4.75,2.38-6.07,0-9.59-6.5-9.62-10.65-.05-21.3,0-31.95-.02-2.16,0-4.33,.16-6.44-.48-2.1-.83-1.8-2.42-1.28-4.09,.52-1.65,1.66-3.05,2.16-5.2-3.62,3.18-7.16,5.79-10.97,8.02-2.13,1.25-4.31,2.52-6.94,1.29-3.28-2.13-2.63-5.53-2.64-8.59-.07-23.78-.03-47.55-.04-71.33,0-1.66,0-3.32-.09-4.98-.12-2.23-1.29-3.26-3.47-3.38-1.66-.09-3.32-.09-4.99-.09-27.6-.01-55.2,.02-82.8,0-2.1,.04-2.94-1.31-3.18-3.11-1.27-9.54-3.24-19-3.21-28.68,0-1.94,.2-3.85,1.01-5.64-4.06,11.35-10.24,21.72-15.53,32.51-1.06,2.17-1.86,4.79-5.02,4.91-19.49-.01-38.98,.01-58.47-.02-1.99,0-4.01,.06-5.9-.76-2.98-2.68-.96-5.62-.15-8.27,3.82-12.57,7.66-25.12,10.79-37.89,3.48-14.22,6.47-28.52,7.42-43.19,.19-2.89,.15-6.03,2.32-8.47Z"/><path d="M752.97,276.93c-1.72,32.8-11.17,63.92-20.61,95.04-.19,.62-.22,1.29-.33,1.93,1.17,2,.18,3.9-.36,5.77-1.96,6.88-3.71,13.81-5.48,20.74-2.39,9.36-2.68,18.72-.37,28.13,1.04,4.39,1.59,8.9,3.02,13.21,2.69,10.18,6.09,20.14,9.08,30.22,4.02,12.15,7.44,24.46,9.68,37.07,.52,2.91,1.36,5.85,.28,8.82h-54.99c-1.46-1.51-1.79-3.5-2.26-5.42-4.55-18.3-9.8-36.41-14.73-54.61-3.91-15.92-8.96-31.58-11.14-47.9-1.63-13.49-1.39-27.03-1.15-40.43-.05,.03-.16,.34-.34,.62-8.17,12.85-10.96,26.35-5.67,41.15,1.61,4.49,1.37,9.5,2.43,14.21,2.25,18.09,3.77,36.25,5.36,54.41,.3,10.02,1.68,19.95,2.58,29.93,.25,2.78,.96,5.58-1.07,8.04h-46.99c-2.2-2.25-2.59-5.31-3.55-8.09-2.85-8.29-5.55-16.63-8.42-24.91-2.17-7.97-5.03-15.75-6.52-23.91-3.36-12.69-7.45-25.16-11.08-37.76-5.71-19.82-7.15-39.49,1.47-58.93,2.62-7.09,4.85-14.32,7.19-21.51,6.54-19.17,13.07-38.33,17.82-58.05,.54-2.26,1-4.55,2.1-6.63,.69-1.13,1.34-2.29,2.86-2.44,1.39,.34,2.19,1.41,3.04,2.44,17.11,20.66,37.64,19.47,56.76,3.81,15.16-12.41,26.48-28.1,35.25-45.32,5.17-10.14,13.36-14.04,23.18-16.69,2.29-.21,3.23,1.25,3.85,3.1,6.32,15.21,8.67,31.17,8.92,47.52,.03,2.15,.13,4.3,.2,6.44Z"/><path class="cls-16" d="M0,517.87c6.04-2.02,12.59-2.02,18.53-1.53,11.22,.92,22.17,.31,33.11-1.65,4.48-.8,8.17-3.76,11.52-6.69,4.45-3.89,9.73-4.61,15.21-5.15,7.07-.7,14.22-.56,21.24-1.89,8.97-1.71,11.19-7.5,5.29-14.56-6.36-7.62-14.09-13.62-23.28-17.42-10.29-4.26-20.83-7.71-32.12-8.11-1.35-.05-2.65-.2-3.67-1.57,16.63-3.76,32.99-1.86,49.72,1.22-9.9-8.96-16.78-19-13.27-32.81,2.53-9.96,8.83-17.22,18.33-22.31,1.15,7.33,2.06,14.44,3.42,21.46,1.93,10,7.65,17.77,14.91,24.69,8.75,8.34,17.49,16.69,23.58,27.4,3.07,5.4,4.19,11.36,6.23,18.51,5.53-15.96,16.12-24.67,31.38-27.79,.24,.43,.5,.84,.8,1.23,7.13,15.1,13.24,30.75,23.38,44.26,.59,.78,1.18,1.64,.67,2.72H0Z"/><path class="cls-1" d="M579.91,517.87h-88.99c-3.79-5.96-3.26-12.88-4.35-19.44,0-1.08,0-2.16,.11-3.24,.87-5.62,4.83-9.63,7.44-14.35,6.03-9.21,16.29-11.58,25.52-15.41,13.26-5.51,26.96-9.69,41.4-10.99-19.96,1.95-38.05,9.79-56.51,16.88-6.67,2.56-15.17,3.09-22.3-1.6-1.02-5.41-2.96-10.71-2-16.36,3.05-3.12,8-2.05,11.13-5.01,4.31-2.85,7.74-6.41,9.44-11.44,.57-1.7,1.3-3.37,3.26-4.01,4.17-1.15,8.26,.19,12.34,.57,14.99,1.4,30.06,2.09,44.94,4.55,2.25,1.02,2.55,3.1,2.98,5.23,1.01,5.1,1.17,10.35,2.66,15.36,.59,1.35,.38,2.82,.61,4.23,.66,3.32,1.1,6.7,2.61,9.79,.35,1.56,.56,3.14,.98,4.69,1.16,5.06,2.95,9.91,4.86,14.72,3.14,6.66,4.34,13.79,5.15,21.03,.13,1.75-.04,3.43-1.27,4.82Z"/><path class="cls-16" d="M317.73,375.13c6.46,13.46,13.68,26.55,18.72,40.68,8.24,23.1,11.98,46.55,6.34,70.86,.35,3.02-.35,5.85-1.62,8.57-1.51,3.48-2.84,7.04-4.28,10.56-.8,1.66-1.32,3.42-1.82,5.19-.11,.45-.25,.89-.4,1.33-.66,1.97-.89,4.16-2.72,5.56h-7c-2.47-4.89-1.63-10.31-2.39-15.47-.81-5.54-1.05-11.17-2.37-16.64-1.41-8.37-5.51-15.64-9.36-23.02-6.75-12.42-13.16-24.99-17.72-38.42-4.13-12.14-4.94-24.62-4.74-37.34,.29-18.27,3.09-36.42,2.25-54.73-.1-2.15-.86-5.51,1.85-6,2.16-.39,2.62,2.96,3.53,4.8,6.43,12.95,13.04,25.81,20.05,38.46,.99,1.79,1.65,3.59,1.68,5.63Z"/><path class="cls-16" d="M797.93,374.98c7.06-12.32,13.2-25.11,19.81-39.4-.11,14.29,1.53,26.92,4.02,39.45,3.65,6.16,2.68,13.17,3.51,19.82,.72,5.79-.29,11.6-1.26,17.34-3,16.65-10.57,31.54-18.51,46.17-6.48,11.94-9.14,24.57-9.19,37.9-.02,6.01-.37,11.97-1.09,17.93-.16,1.35-.4,2.63-1.35,3.67h-5c-.21-.25-.56-.51-.57-.79-.5-13.28-8.73-23.6-13.54-35.23-5.87-15.49-5.49-31.39-2.4-47.25,3.84-19.65,12.46-37.53,21.84-55.05,.93-1.73,1.8-3.61,3.72-4.57Z"/><path class="cls-16" d="M927.69,473.71c-1.56,3.11-3.23,6.16-4.65,9.34-5.84,13.05-17.4,18.12-30.05,21.74-11.83,3.39-23.66,6.77-35.44,10.29-1.99,.59-4.31,.81-5.69,2.79h-15c-.63-1.73,.68-2.79,1.43-4.01,2.45-3.96,5.01-7.89,6.73-12.21,5.07-12.73,15.17-19.28,27.68-23,.8-.24,1.58-.5,2.37-.76,14.25-3.68,28.55-7.18,41.81-13.85,.59-.3,1.26-.38,1.93-.21,6.59-2.73,11.7-7.75,18.04-11.91-.35,4.41-3.45,7.25-3.95,10.98-.08,4.4-2.16,7.83-5.21,10.81Z"/><path class="cls-16" d="M824.87,517.87h-5c-.93-1.11-1.07-2.41-.81-3.76,2.52-13.28,2.04-26.78,2.84-40.19,.09-1.49,.6-2.94,.59-4.44-2.12,14.15-1.57,28.5-3.22,42.68-.22,1.93-.05,4.03-1.4,5.72h-11c-1.47-.76-1.93-2.12-2.38-3.61-5.04-16.62-2.77-32.52,4.21-48.14,5.43-12.15,13.12-22.76,21.28-33.12,2.49-2.42,4.35-5.46,7.23-7.5,.69-.49,1.55-.95,2.31-.59,1.05,.5,.94,1.62,.82,2.62-.04,.33-.08,.67-.2,.97-4.9,11.87-4.1,24.35-3.92,36.76-1.18,7.53-.83,15.2-1.63,22.82,3.9-5.1,7.38-10.57,10.81-16.07,5.64-9.02,11.61-17.78,19.48-25.07,.89-.71,1.74-1.52,2.78-1.99,1.29-.58,2.76-1.98,4.01-.92,1.64,1.4,.04,2.92-.65,4.31-5.3,6.62-10.54,13.29-14.44,20.89-3.91,7.08-6.79,14.71-11.41,21.42-1.69,2.45-3.21,5.1-5.32,7.15-6.07,5.92-11.39,12.33-14.99,20.07Z"/><path class="cls-16" d="M262.14,481.62c-4.22-9.86-11.43-17.67-17.75-26.43,1.77,.63,3.54,1.25,5.31,1.88,6.57,2.71,9.79,8.84,13.81,14,7.36,9.44,12.99,20.1,20.54,29.61-3.55-18.48-1.07-37.51-5.46-55.9-.97-4.05-2.1-8.03-3.96-11.8-.74-1.51-2.33-3.59-.31-4.85,1.56-.98,3.04,.87,4.09,2.1,8.22,9.59,16.72,18.97,23.13,29.96,.67,1.15,1.42,2.25,2.13,3.37,4.29,8.01,8.04,16.25,10.72,24.96,3.01,8.18,3.34,16.68,2.97,25.25-.07,1.51-.38,2.93-1.42,4.09h-15c-1.71-1.94-1.29-4.33-1.48-6.62-.92-10.86-2.37-21.65-4.37-32.36,.06-3.45-1.44-6.57-1.85-8.63,1.12,2.66,1.52,6.78,2.38,10.81,1.89,10.44,2.09,21.03,3.01,31.56,.16,1.8,.62,3.64-.69,5.24h-12c-5.69-2.97-9.02-8.22-12.27-13.35-4.58-7.24-9.5-14.36-11.55-22.9Z"/><path class="cls-16" d="M204.97,517.87c-10.99-12.79-16.4-28.66-23.95-43.34-.67-1.3-1.39-2.68-1.12-4.26,1.67,.17,3.22,.66,4.6,1.67,11.32,8.33,23.72,14.39,37.37,17.81,.82,.21,1.53,.61,1.92,1.42,1.16,1.11,2.64,.67,4,.84,10.41-.1,20.31,2.18,29.75,6.52,6.75,3.11,11.48,8.32,14.99,14.72,.78,1.41,1.69,2.96,.43,4.63h-22c-9.76-3.67-19.48-7.47-29.39-10.75-5.42-1.8-9.04-6.01-11.51-9.63,7.49,10.16,9.93,11.77,23.24,16.12,2.73,.89,6.38,.58,7.65,4.27h-35.99Z"/><path class="cls-16" d="M775.97,481.74c2.7,5.25,5.37,10.52,8.11,15.75,3.36,6.39,5.32,13.09,4.78,20.38h-40.99c-2.54-15.59-6.84-30.75-11.05-45.94,8.93,.3,16.93,3.76,24.85,7.41,4.58,2.11,9.13,3.97,14.3,2.4Z"/><path class="cls-16" d="M331.95,517.87c.67-2.03,.62-4.28,1.94-6.1,5.57,2.43,5.09,2.29,5.4-3.62,.34-6.35,3.03-12.63,8.29-16.18,3.62-2.44,8.96-1.45,13.49-.58,8.56,1.64,17.06,1.96,25.57-.13,3.3-.81,6.1-.82,6.29,3.65,.07,1.75,1.17,3.06,1.87,4.56,.29,6.33,.28,12.61-2.86,18.4h-59.99Z"/><path class="cls-41" d="M830.73,433.81c-5.42,8.12-11.77,15.59-16.54,24.19-10.54,19-14.64,38.72-7.32,59.87h-13c.62-10.94,1.31-21.87,1.84-32.81,.42-8.64,2.98-16.67,6.97-24.22,8.15-15.43,16.15-30.9,20.06-48.08,7.75,5.09,9.07,12.61,7.99,21.05Z"/><path class="cls-16" d="M666.89,517.87c-.9-10.68-1.81-21.35-2.68-32.03-.16-1.96-.17-3.94-.24-5.91,2.38-.18,1.59,2.71,3.97,3.45,1.16-9.19,2.21-18.58,9.1-25.7,5.84,19.43,11.03,39.03,15.91,58.72,.11,.46-.04,.98-.07,1.47h-26Z"/><path class="cls-38" d="M824.87,517.87c.68-4.52,2.3-9.08,5.49-11.95,10.8-9.68,17.93-21.68,23.83-34.62,.4-.87,1.11-1.6,1.68-2.39,.64,.25,1.38,.59,1.48,1.23,1.04,6.91,6.16,7.29,11.56,7.37,2.1,.03,4.38-.4,6.08,1.46-4.14,1.66-8.39,3.12-12.4,5.04-6.65,3.18-11.75,8.04-14.85,14.87-3.03,6.67-6.38,13.16-10.87,19h-12Z"/><path class="cls-41" d="M272.96,517.87c-4.75-14.24-16.19-19.84-29.6-22.8-5.16-1.14-10.38-2.05-15.57-3.07,5.65-.53,9.81-4.03,13.67-7.57,3.47-3.18,5.1-2.14,7.11,1.3,1.41,2.41,3.66,4.32,5.09,6.72,2,3.36,3.41,2.1,5.09-.15,2.37-3.18,3.4-6.76,3.39-10.69,5.53,9.37,9.53,19.66,16.68,28.07,2.34,2.76,4.76,5.45,7.14,8.18h-13Z"/><path class="cls-42" d="M609.1,484.62c3.95,10.97,7.75,21.99,10.8,33.25h-16c-4.08-2.82-2.01-7.4-2.91-11.08-.87-3.53-1.12-6.93-3.59-10.02-1.91-2.39-2.71-5.67-1.79-8.96,4.25-2.08,8.78-3.04,13.49-3.19Z"/><path class="cls-4" d="M579.91,517.87c.01-1.58,.03-3.15,.04-4.73,.9-2.66-.32-5.19-.55-7.77-.3-3.32,.82-5.52,4.15-6.27,3.71-.84,7.4-1.81,11.27-1.6,4.85,.26,6.53,1.47,6.47,6.15-.06,4.77,2.19,9.41,.62,14.22h-22Z"/><path class="cls-4" d="M413.93,517.87h-20c-1.66-6.12,.57-12,1.22-17.96,.23-2.13,2.6-2.24,4.45-2.35,5.05-.3,9.84,1.04,14.65,2.3,.87,.34,1.57,.9,2.11,1.66,.31,.51,.53,1.06,.67,1.64-.54,5,.54,10.36-3.1,14.71Z"/><path class="cls-60" d="M461.92,517.87h-4c-.87-.92-2.93-1.13-1.86-3.18,.88-1.39,1.89-2.76,1.2-4.54-.47-1.2-1.42-1.99-2.69-1.47-1.49,.6-1.12,1.77-.37,2.81,.74,1.02,2.11,1.67,1.89,3.25-1.81,1.75-3.65,.64-5.5,.1-.47-.19-.89-.47-1.27-.8-.54-.55-.89-1.21-1.03-1.96-.04-.49,.03-.98,.16-1.46,1-1.62,1.12-3.67,2.45-5.14,1.46-.93,3.15-.9,4.77-1.12,.3,0,.63,.07,.93,.01,.6-.11,.74-.55,.2-.8-1.69-.77-3.43,.01-5.15,.05-2.5-.35-6.61,2.16-6.18-3.44,3.64-1.78,7.19-3.8,10.52-4.78-5.51-.45-11.48-1.89-17.42-4.29,.09,1.91,2.86,1.9,2.5,3.85-1.56,1.19-3.19,2.22-5.28,2.06-1.44-2.58-2.27-5.23-1.51-7.04-1.74,3.96-5.29,8.3-8.11,13.09-.66,.41-1.36,.48-2.09,.2-2.05-2.18-.44-4.01,.7-5.74,1.91-2.9,4.04-5.64,5.95-8.55,1.45-2.22,1.92-4.46,.86-6.92-2.41,3.99-3.25,9.08-8.26,11.11-.49-.17-.8-.5-.95-1-.18-1.62,.66-2.92,1.51-4.1,5.7-7.86,6.83-16.28,3.36-25.34,.02-1.14,.38-2.04,1.66-2.25,4.03,2.95,3.85,8.04,6.03,11.93,0,.51-.05,1.01-.14,1.51-.64,8.86,1.73,12.61,9.83,15.23,5.06,1.64,10.34,2.25,15.59,2.94,2.15,.28,3.84-.59,5.56-1.65,2.24-1.37,4.34-3.1,7.17-3.14,.48,.11,.87,.37,1.17,.76-.62,3.57-4.08,4.06-6.39,5.66-6.54,4.53-7.94,10.03-3.92,16.8,.51,.85,1.08,1.68,1.41,2.62,.49,1.43,1.07,3.15-.69,3.91-2.01,.87-2.32-1.19-3.02-2.37-.06,1.07,1,2.03,.4,3.19Z"/><path class="cls-13" d="M461.92,517.87c-1.82-1.75-2.25-3.83-1.41-6.3,2.78,.66,1.86,3.91,4.37,5.87,.05-3.32-1.29-5.33-2.68-7.36-3.64-5.31-2.09-12.77,3.29-16.2,2.92-1.86,5.8-3.79,8.69-5.68,.73-1.6,1.98-2.41,3.51-1.36,1.51,1.04,.89,2.77,.35,4.09-2.41,5.97-4.17,12.09-5.42,18.41-.56,2.84,.52,6.03-1.71,8.54h-9Z"/><path class="cls-13" d="M479.92,517.87h-8c-1.18-6.95,.9-13.51,2.93-19.91,1.43-4.54,3-9.13,5.21-13.42,1.9-1.88,3.84-3.55,6.33-.81,1.09,2.22,.88,4.72,1.48,7.05-.04,1.89-.96,3.59-1.2,5.44-2.12,5.24-3.94,10.57-4.5,16.24-.2,2.04-.77,3.91-2.25,5.41Z"/><path class="cls-36" d="M315.95,517.87c.69-10.16-.17-20.18-2.97-29.99,2.84-.79,5.94-.91,8.16-3.25,2.84,10.9,3.64,22.04,3.81,33.25h-9Z"/><path class="cls-16" d="M240.96,517.87c-3.46-2.47-7.66-2.91-11.56-4.09-10.5-3.18-17.86-9.71-22.09-19.71,.18-.63,.44-.69,.73-.27,5.93,8.37,14.06,13.09,23.97,15.61,6.69,1.7,13.15,4.48,18.95,8.45h-10Z"/><path class="cls-2" d="M817.87,517.87c.96-16.7,.19-33.55,4.74-49.94,.01,16.69,.78,33.42-2.74,49.94h-2Z"/><path class="cls-16" d="M297.95,517.87c-2.05-12.55-1.8-25.29-3.16-37.9-.32-.98-.78-2.04,1.01-1.93,2.76,13.14,5.62,26.27,5.15,39.82h-3Z"/><path class="cls-51" d="M487.8,497.7c1.04,6.72,2.08,13.45,3.12,20.17h-9c-1.82-7.51,1.55-14.07,3.94-20.77,.29-.82,1.41-.09,1.94,.6Z"/><path class="cls-30" d="M439.93,517.87h-12c-.37-2.64,1.21-11,2.44-12.99,1.67-1.65,3.68-2.29,5.99-2.05q4.36,1.92,1.34,6.33c.06,.38-1,1.46,.56,.91,.94-.33,1.83-.79,2.85-.29,.24,.39,.35,.82,.34,1.28-.07,.32-.12,.72-.37,.87-2.54,1.58-3.53,3.42-1.14,5.93Z"/><path class="cls-7" d="M425.93,517.87h-6c-2.14-3.91-1.94-8.28-2.05-12.46-.08-3.28,2.26-4.08,5.18-2.55,2.4,.72,3.25,2.48,3.26,4.82,.19,3.41,2.13,6.89-.39,10.2Z"/><path class="cls-54" d="M414.97,501.21c-5.18-.88-10.24-2.53-15.62-2.24-2.55,.14-4.25,.91-4.23,3.63,.05,5.13-1.73,10.11-1.19,15.27h-2c.66-6.33,1.32-12.66,1.98-18.99,.86-3.07,2.62-5.68,4.21-8.39,.79-.25,1.51-.15,2.13,.43,.17,4.17,2.16,5.75,6.49,5.94,2.99,.13,7.31-.47,8.22,4.34Z"/><path class="cls-60" d="M480.99,484.98c-5.36,10.32-8.41,21.27-9.07,32.89h-1c-.6-10.81,3.09-20.67,7.07-30.52-1.69-.66-2.55,.91-3.81,.85-.2-.24-.4-.47-.6-.71,.31-2.01,2.04-2.7,3.44-3.69,1.6-.53,3.4-1.71,3.97,1.19Z"/><path class="cls-9" d="M413.93,517.87c1.4-5.02,1.34-10.24,2.06-15.35,1.1-.26,2.33,.05,2.25,1.17-.33,4.77,2.1,9.38,.68,14.18h-5Z"/><path class="cls-60" d="M418.93,517.87c-.34-4.2-.75-8.4-1-12.61-.09-1.43-.2-2.59-1.94-2.73-.15-.24-.27-.5-.37-.76,.25-.63,.61-1.18,1.07-1.67,2.11-2.39,1.63-6.81,5.89-7.51,.23,.2,.47,.4,.7,.6,.65,1.52-.04,2.86-.76,4.05-1.24,2.06-.17,3.61,.81,5.25,.07,.48-.06,.89-.4,1.24-3.05-1.21-4.18-.09-3.7,3.03,.57,3.69,.97,7.38,.69,11.12h-1Z"/><path class="cls-49" d="M439.93,517.87c-.82-2.01-3.1-1.28-4.59-2.54,1.87-1.51,3.73-3.01,5.58-4.52,1.78-.54,2.6,.77,3.56,1.81,.78,1.66,2.27,3.13,1.44,5.24h-6Z"/><path class="cls-61" d="M487.8,497.7c-1.17-.8-1.52-.33-1.94,.91-2.11,6.27-4.14,12.53-3.94,19.26h-2c1.02-7.59,1.74-15.26,5.85-22.04,.62-.39,.91-1.42,1.95-1,.03,.96,.06,1.91,.09,2.87Z"/><path class="cls-50" d="M430.86,506c-.95,1.37-2.99,2.2-.25,4.41,.88,.71-2.56,4.55-2.68,7.46h-1c-1.04-3.2,0-6.68-1.3-9.85-.39-2.15-.39-4.03,2.62-3.91,1.2,.17,1.96,.96,2.61,1.9Z"/><path class="cls-52" d="M449.89,513.84c2.03,.37,4.06,.73,6.08,1.1l-.08-.07c-.21,1.6,2.39,1.3,2.03,3h-9c-1.15-1.7-.4-2.94,.97-4.03Z"/><path class="cls-27" d="M449.89,513.84c-.32,1.34-.64,2.68-.97,4.03h-3c-.72-1.62-1.43-3.24-2.15-4.86,.32-.35,.71-.52,1.19-.47,1.48,1.18,3.29,1.12,5.01,1.36l-.09-.06Z"/><path class="cls-60" d="M426.1,507.82c1.47,3.25,.76,6.69,.83,10.05h-1c-.27-3.33-.54-6.67-.81-10,.31-.46,.63-.5,.98-.05Z"/><path class="cls-43" d="M302.69,464.14c-8.04-12.86-17.37-24.71-28.26-35.51,3.23,6.84,5.35,13.95,6.6,21.36,2.08,12.35,1.45,24.89,2.88,37.28,.65,5.59,1.31,11.18,1.54,17.06-12.63-15.24-21.1-33.62-35.76-47.27,2.33-.09,4.71,.1,6.97-.35,3.12-.62,6.58-1.65,7.08-5.31,.47-3.49-.65-6.94-3.56-9.37-4.25-3.55-8.83-4.41-13.78-1.37-.95,.59-1.99,1.04-3.31,1.72-.03-4.37-.33-8.3-1.5-12.13-2.09-6.82-8.1-10.32-14.91-8.19-3.56,1.11-2.68-1.32-2.69-2.88-.06-12.99-.26-25.99,.08-38.97,.13-4.92-1-6.47-6.25-6.45-57.3,.21-114.6,.07-171.9,.24-4.85,.01-6.13-1.34-6.06-6.12,.28-17.48,.47-34.99-.08-52.46-.19-6.1,2.97-10.1,5.82-14.35,11.8-17.57,23.99-34.89,35.9-52.39,11.65-17.11,23.1-34.35,34.7-51.49,15.43-22.78,30.93-45.5,46.38-68.26,18.98-27.95,37.95-55.92,56.92-83.88,1.49-2.19,3.34-4.23,4.38-6.62,2.94-6.8,8.19-7.69,14.93-7.59,22.98,.37,45.97,.26,68.96,.05,4.81-.04,6.26,1.41,6.25,6.24-.13,86.27-.09,172.55-.09,258.82q0,6.95,7.03,6.95c13.16,0,26.32,.12,39.48-.07,4.07-.06,5.59,1.17,5.56,5.4-.17,19.98-.17,39.97,0,59.96,.04,4.31-1.25,5.87-5.69,5.78-12.65-.24-25.32-.1-37.98-.07-1.61,0-3.39-.44-4.6,1.2-9.08-15.65-17.34-31.72-25.16-48.17-.28,.33-.59,.53-.58,.71,1.22,19.84-1.67,39.52-2.37,59.28-.62,17.65,2.64,34.39,10.05,50.34,3.99,8.58,8.23,17.04,12.35,25.55-2.85,2.29-6.14,1.44-9.33,1.29Z"/><path class="cls-43" d="M421.06,390.91c-.07-5.01-2.91-9.15-4.62-13.57-8-20.67-12.26-42.17-15.58-63.96-4.69-30.83-4.49-61.88-3.72-92.87,.45-18.13,2.59-36.23,5.4-54.23,2.92-18.71,7.5-36.91,13.99-54.67,.34-.92,.4-1.95,.59-2.92,2.15-.85,3.32,.89,4.73,1.87,3.36,2.35,6.35,5.18,9.8,7.42,.39,.24,.75,.52,1.1,.81,3,2.74,6.22,5.22,9.48,7.63,.65,.41,1.11,1.08,1.91,1.45,.08-1.4-.95-2.32-1.26-3.49-2.02-5.96-4.02-11.93-6.24-17.81-2.34-6.18-2.13-6.45,3.56-9.77,14.51-9.96,20.62-24.49,22.4-41.34,.35-3.27,.3-6.61,2.36-9.44,8.73-4.68,17.27-9.68,26.7-12.97,12.42-4.34,25.11-6.99,38.22-8.16,6.8-.61,13.57-.96,20.37-.83,19.71,.36,38.9,3.5,57.13,11.31,3.94,1.69,7.76,3.75,11.39,6.03,4.38,2.74,8.92,4.83,14.09,5.38-.8,1.34-2.16,1.49-3.49,1.51-8.57,.12-17.21,1.92-25.65-1.16-4.51-1.65-8.85-.1-13.19,1.02-1.72,.44-3.06,1.3-3.33,3.25-.42,3.1-2.6,4.6-5.26,5.37-12.96,3.74-25.45,8.77-37.95,13.76-7.2,2.87-14.62,4.32-22.42,3.88-3.63-.21-7.25-.03-10.9,.73-4.25,.88-5.91,2.95-5.45,7.24,.46,4.28,1.9,8.05,4.74,11.27,1.31,1.48,2.99,2.69,3.47,4.78-.61,3.99-2.97,3.77-5.79,2.39-9.73-4.75-18.53-2.5-24.65,6.45-3.37,4.92-7.01,9.73-8.23,15.78-.88,4.38-1.14,8.66,2.68,11.95,3.7,3.18,7.85,3.09,12.18,1.49,1.69-.62,3.34-1.59,5.27-.96,2.56,2.59,4.55,5.44,4.42,9.31-6.02,20.58-7.67,41.75-9.03,63.01-.61,9.46-.85,18.91-.97,28.38-.05,4.3,.48,7.63,5.8,7.7,.82,0,1.51,.63,1.93,1.42-.06,.62-.38,1.07-.94,1.35-2.06,.9-4.26,.52-6.41,.64-3.98,.21-5.98,2.1-5.16,6.03,1.58,7.58,1.41,15.11,.88,22.76-.25,3.58-1.19,5.3-4.83,5.17-12.27-.46-24.56-.68-36.8-1.75-3-.26-6-.04-8.98-.31-3.36-.31-4.75-1.49-5.18-5.57-.66-6.28-.85-12.38-.41-18.67,.31-4.39-3.1-7.05-7.75-7.57-5.43-.62-10.14,1.7-11.56,5.66-.74,2.07-1.3,4.3-.92,6.36,1.93,10.42-.97,20.44-2.27,30.59-.46,3.62-1.12,7.34-1.09,10.87,.07,7.06,1.7,9.65,8.92,9.66,6.83,.01,13.65-.07,20.48,.01,7.7,.1,9.19,1.83,7.78,9.28-1.77,9.33-4.28,18.46-7.26,27.46-1.41,4.28-2.68,8.57-3.36,13.01-.62,4.03-2.7,7.39-4.25,11.03-1.86,4.4-2.91,9.16-3.86,13.91-.42,2.08-.1,4.84-3.06,5.67Z"/><path class="cls-4" d="M708.38,169.98l3.04,2.98c5.44,3.28,9.54,8.16,14.53,11.99l-.04-.04c4.85,7.81,.48,14.49-2.96,20.99-3.85,7.26-9.53,13.2-15.51,18.81-1.94,1.82-3.84,3.7-5.51,5.78-1.76,1.8-3.68,3.4-5.91,4.6-9.91,6.37-19.56,13.15-30.02,18.67-11.05,5.83-22.37,11.04-34.11,15.24-4.51,1.61-9.37,4.06-14.25,.56-10.12-18.81-26.9-30.49-44.57-41.05-9.28-5.54-18.53-11.14-27.94-16.47-5.88-3.04-11.31-6.87-17.25-9.81-2.14-1.06-3.87-2.6-3.82-5.33,2.32-8.9,5.64-17.47,8.75-26.11,.16-.46,.37-.91,.61-1.33,1.77-2.1,1.55-6.23,4.82-6.48,3.28-.25,2.93,3.95,4.75,5.76,1.18,1.17,2.35,2.36,3.47,3.6,1.29,1.68,2.74,3.2,4.53,4.37,3.67,2.38,4.84,2.04,7-2.07,1.43-2.75,3.15-5.29,5.52-7.34,1.29-1.08,2.88-1.37,4.45-1.73,2.24-.67,1.56-2.8,2.12-4.31,1.43-4.99,2.75-10.08,9.21-10.73,1.14-4.33-2.32-6.62-4.23-9.59-3.11-4.34-7.28-6.64-12.67-6.73-1.61-.02-3.72,.23-4.38-1.6-.63-1.77,1.02-3.02,2.25-4.09,6.54-5.68,13.28-11.07,21.94-13.25,2.55-.09,4.29,1.59,6.2,2.86,11.11,7.37,22.64,13.89,35.53,17.63,7.84,2.28,15.74,3.88,24.01,2.23,5.74-1.14,10.14,2.64,14.85,4.85,9.01,4.22,17.71,9.07,26.4,13.91,.41,.28,.76,.62,1.06,1.01,5.82,4.41,11.95,8.35,18.16,12.19Z"/><path class="cls-20" d="M378.39,94.97c-.13-.15-.27-.29-.42-.42-7.12-8.64-13.07-17.94-16.09-28.87-2.41-8.7-4-17.48-1.94-26.48,2.79-12.23,11.12-20.04,21.43-26.05,11.46-6.68,23.88-10.61,37.08-12.09,3.43,.45,6.82,.39,10.28,.1,6.02-.5,11.68,1.32,17.09,3.89,9.2,4.78,13.25,13.3,15.56,22.64,4.93,19.98,3.04,39.15-8.24,56.85-3.15,4.94-7.45,8.85-11.93,12.56-1.05,.5-2.05,1.13-3.15,1.51-2.73,.93-2.86,2.66-1.98,5.07,2.23,6.07,4.68,12.06,6.61,18.25,.4,1.29,.92,2.49,.62,3.86-1.58,1.52-2.71,.28-3.74-.72-2.35-2.29-5.2-3.96-7.64-6.13l.04,.03c-4.09-3.08-8.09-6.28-12.06-9.51-1.71-1.39-3.35-2.46-5.81-2.07-12.87,2.06-23.79-2.18-33.33-10.65-.74-.66-1.45-1.37-2.39-1.76Z"/><path class="cls-16" d="M223.79,491.17c-14.82-2.61-27.82-9.26-39.85-18.03-1.33-.97-2.69-1.91-4.04-2.87,.1-.19,.17-.39,.22-.61,1.46,.16,2.95,.6,4.51-.47-3.16-7.96-8.47-14.39-14.29-20.53-5.8-6.12-12.4-11.35-19.74-17.45,14.49-1.38,26.14,3.74,37.94,9.16-2.03-3.46-3.65-6.94-5.08-10.52-4.62-11.55-2.93-20.37,6.08-28.98,8.74-8.35,19.28-12.58,32.65-13.19-3.57,3.5-6.57,5.95-8.99,8.89-12.66,15.39-9.27,31.84-2.69,48.29,4.43,11.08,9.89,21.74,12.77,33.43,1.06,4.31,.62,8.58,.51,12.88Z"/><path class="cls-43" d="M659.9,80.98c3.58,2.23,4.97,6.11,6.9,9.5,11.96,20.97,19.56,43.53,24.07,67.19-.17,.71-.51,.79-.99,.25l.07,.05c-16.02-9.52-32.83-17.43-49.92-24.81-11.47-4.95-11.42-5.32-4.51-15.31,1.89-2.74,3.97-5.34,5.74-8.16,6.16-7.68,11.92-15.59,15.46-24.91,.56-1.49,.61-3.82,3.18-3.8Z"/><path class="cls-16" d="M399.76,484.73c-4.47-22.56-23.09-28.27-41.1-35.2,15.56-.16,30.89,1.61,46.2,6.12-4.03-3.28-8.03-6.59-12.09-9.84-8.79-7.04-17.63-14.03-26.4-21.1-.86-.69-2.04-1.93-1.9-2.71,.32-1.77,2.16-1.14,3.35-1.08,14.03,.69,26.58,5.22,37.22,14.57,1.99,1.75,3.91,3.59,5.86,5.39,1.71,1.67,1.09,3.64,.75,5.6-1.83,10.47-5,20.6-7.66,30.87-1.21,2.55-.61,5.93-3.52,7.7-.24-.11-.48-.22-.72-.33Z"/><path class="cls-74" d="M402.78,477.82c1.86-10.85,5.99-21.16,7.56-32.08,.23-1.61,.38-3.24,.57-4.85,3.93-6.72,1.43-14.43,3.35-21.54,2.53-9.4,5.49-18.73,6.81-28.43,1.39-5.29,2.25-10.78,4.25-15.81,6.41-16.08,10.34-32.87,14.79-49.52,3.63-13.56,3.51-13.6-10.16-13.6-5.5,0-10.99,.09-16.49-.02-6.19-.13-8.72-2.12-8.86-8.25-.2-8.42,.94-16.73,2.81-25.04,1.23-5.45,1.23-11.33,.37-17.17-1.95-13.17,5.97-16.86,16.21-15,4.55,.83,7.36,4.15,6.6,8.59-1.2,7,.53,13.81,.2,20.71-.12,2.43,1.92,1.84,3.19,1.93,5.98,.44,11.96,.82,17.94,1.08,9.65,.42,19.31,.64,28.95,1.14,2.86,.15,3.51-.69,3.5-3.53-.02-6.97,.35-13.91-.74-20.87-1.36-8.68,.01-10.03,8.71-9.76,1.16,.04,2.32,.2,3.48,.3,.34,.52,.26,.96-.23,1.34-.71,.45-1.52,.62-2.34,.77-2.47,.45-5.9-.6-6.64,2.96-.85,4.11-.44,8.3,1.32,12.2,.44,.97,1.62,1.11,2.63,1.14,3.82,.14,7.64,.08,11.45,.59,2.34,.31,3.45-1.11,3.16-3.34-.45-3.46-1.34-6.84-2.04-10.26-.31-1.51-1.79-1.79-3-2.33-1.07-.48-2.89-.5-2.09-2.57,1.79-1.21,3.74-1.02,5.71-.67,2.29,.76,3.48,2.35,3.74,4.75,.91,8.17,4.72,15.95,2.91,24.5-.66,3.12,1.23,4.42,4.38,4.41,2.76,0,5.68-.63,8.2,1.23,.25,.59,.13,1.11-.33,1.55-1.62,1.09-3.48,1.03-5.3,1.05-20.46,.22-40.87-1.02-61.3-1.68-11.98-.39-23.87-1.76-35.82-2.22-9.91-.38-11.16,1.08-11.91,10.85-.32,4.14-1.2,8.23-.83,12.42,.34,3.75,2.51,5.66,6,6.26,3.71,.64,5.18-.8,4.93-4.66-.8-12.19,.83-13.72,12.93-12.11q6.89,.92,8.05,7.67c.22,1.32,.8,2.54,1.07,3.83,.23,.51,.39,1.04,.5,1.58-.06,3.09,1.38,4.33,4.52,4.2,4.41-.18,8.84-.12,13.25,0,1.91,.05,4.01-.26,5.32,1.73-1.17,2.16-3.07,3.3-5.37,3.91-1.58-.48-3.02-1.33-4.68-1.64-7.4-1.37-8.82-.17-9.95,7.19-1.3,8.54-3.94,16.78-6.53,25-1.45,4.59-2.89,9.18-3.79,13.91-.92,4.81-.32,5.51,4.47,5.89,2.13,.17,4.39-.04,5.8,2.11,.25,.97-.26,1.49-1.09,1.81-12.63,.03-12.77-2.96-16.78,13-2.88,11.45-4.78,23.14-8.44,34.41-1.02,3.16-1.21,6.53-1.71,9.82-.48,3.19,.66,4.02,3.78,3.95,4.11-.09,8.27-.82,12.38,.21,.65,1.02,.65,2.06,.06,3.11-2.45,1.98-5.1,.67-7.67,.44-6.73-.61-8.78,.59-10.32,7.12-2.45,10.34-4.51,20.77-7.5,30.97-.56,1.9-.86,3.92-2.45,5.36-.52,.32-1.02,.31-1.52-.04Z"/><path class="cls-82" d="M659.9,80.98c-4.47,10.6-9.75,20.72-17.62,29.27-.55-.23-.85-.64-.93-1.23,.78-3.93,3.71-6.61,5.78-9.77,5.52-8.42,10.11-17.2,11.85-27.25,.43-2.48,.59-4.95,.49-7.45-.26-6.59-3.54-11.08-10.04-12.57-9.25-2.11-18.62-3.52-28.18-1.98-4.46,.72-8.94,.64-13.35-.66-4.72-1.4-9.56-1.17-14.36-.61-3.48,.41-5.64,2.49-5.14,6.08,1.08,7.73,.44,15.64,2.67,23.24,1.8,6.11,3.14,7.21,9.48,6.78,2.94-.2,5.78-.01,7.69,2.53,1.41,1.87,2.37,3.97-1.25,4.66-2.11-2.44-4.65-3.5-7.94-2.81-1.62,.34-3.47,.34-4.9-.47-8.74-4.96-18.53-3.14-27.82-4.19-6.67-.76-13.43-1.87-20.32-.27-6.88,1.6-12.83,4.24-17.45,9.76-4.05,4.83-7.7,4.13-10.89-1.79,.29-.48,.71-.78,1.25-.93,3.87,1.35,6.59,.21,9.42-2.94,5.67-6.32,13.62-8.04,21.69-8.65,8.98-.67,17.89,.9,26.84,1.39,.99,.05,1.97,.34,2.96,.41,8.48,.59,7.72-1.22,6.26-6.83-1.03-3.97-1.52-8.19-1.49-12.34,.03-3.91-1.57-4.47-4.96-3.37-12.03,3.9-23.8,8.48-35.61,12.98-7.68,2.93-15.45,5.1-23.82,3.56-2.48-.46-4.96,.07-7.4,.67-6.58,1.61-7.42,3.34-5.47,9.94,1.32,4.48,5.44,7.1,7.03,11.35-.05,.88-.34,1.55-1.39,1.53-5.17-5.11-9.43-10.61-9.4-18.45,.01-3.29,.92-5.45,4.4-6.07,2.93-.52,5.94-1.97,8.73-1.61,13.86,1.81,26.12-3.23,38.46-8.2,8.3-3.35,16.73-6.33,25.3-8.94,2.74-.84,6.03-1.26,5.27-5.67-.3-1.77,1.65-2.35,2.97-2.91,4.38-1.83,9.25-2.94,13.62-1.62,10.18,3.07,20.36,1.16,30.54,1.22,6.61,.4,13.21,.92,19.51,3.19,6.59,2.37,9.32,6.41,9.79,13.41,.41,6.05-1.05,11.8-2.28,17.61Z"/><path class="cls-40" d="M398.05,490.9c.4,3.58-1.27,6.09-4.13,7.98-2.08-.3-3.04-1.85-2.56-3.54,1.22-4.26-1.46-3.79-3.75-3.15-9.46,2.65-18.73,2.43-28.29-.06-3.02-.79-7.02-.33-10.29,.18-3.55,.55-4.68,4.79-5.77,8.09-1.12,3.41-5.29,6.23-1.79,10.71,.72,.92-1.05,3.69-2.85,4.17-2.62,.7-3.48-1.87-4.74-3.51-.05-.32,.02-.62,.2-.89,2.48-.99,.67-3.56,1.84-5.03,.74-3.91,2.46-7.45,4.2-10.97,3.67-1.27,2.6-4.44,2.83-7.08,16.53,2.19,33.06,3.7,49.62,.16,2.66-.57,4.94-1.79,7.17-3.22,0,0,.36,.29,.36,.29,1.03,2.56-.11,4.36-2.07,5.87Z"/><path class="cls-29" d="M417.86,1.88c-17.07,2.32-32.84,7.74-46.08,19.25-10.72,9.32-13.53,21.34-11.33,34.71,2.22,13.48,7.43,25.75,16.67,36.07,.69,.77,1.3,1.52,.85,2.64-11.82-11.08-17.26-25.22-19.39-40.86-2.09-15.41,3.54-27.57,15.88-36.84,10.14-7.62,21.55-12.25,33.86-14.89,2.42-.52,4.89-.77,7.33-1.15,.96-.11,2.23-.87,2.21,1.07Z"/><path class="cls-15" d="M440.76,96.39c25.22-18.35,26.95-57.96,15.92-78.91-2.54-4.81-5.92-8.82-10.69-11.56-.17-.9-.02-1.45,1.06-.98,11.89,6.99,14.87,18.87,16.97,31.17,.56,3.26,.66,6.61,.97,9.92-.82,16.14-3.94,31.5-15.05,44.14-2.63,3-5.5,5.71-9.02,7.65-.49-.43-.54-.91-.15-1.43Z"/><path class="cls-63" d="M700.4,231.01c.09-2.09,1.73-3.02,3.06-4.24,8.78-8.1,16.97-16.64,21.51-28.04,1.82-4.57,2.67-9.08,.95-13.83,.99-.09,1.82,.51,1.84,1.29,.1,5.77,4.9,7.72,8.46,10.69,5.79,4.83,10.4,10.59,14.18,17.14,1.64,2.84,.71,3.45-1.67,4.62-1.89,.92-5.46,.45-4.87,4.32-1.04-1.24-2.1-2.47-4-2.04,.37-2.82,3.02-2.78,4.81-3.51,2.69-1.08,3.29-2.35,1.7-4.84-3.9-6.1-8.77-11.26-14.53-15.64-1.78-1.35-2.86-1.31-3.65,.96-4.25,12.2-12.85,21.22-21.93,29.87-1.65,1.57-3.12,3.58-5.86,3.24Z"/><path class="cls-14" d="M378.39,94.97c1.88-.59,2.61,1.05,3.67,1.96,9.43,8.06,20.18,11.65,32.57,9.61,.99-.16,1.9-.55,2.79,.21,4.84,4.09,10.57,7.12,14.57,12.22-4.42-.96-6.86-4.85-10.43-7.08-1.54-.96-2.95-2.12-4.42-3.19-2.04-1.46-4.14-.21-6.21-.11-13.03,.65-23.93-3.72-32.54-13.61Z"/><path class="cls-34" d="M447.05,4.93c-.35,.33-.71,.65-1.06,.98-8.94-4.4-18.52-4.35-28.13-4.03-.74-.36-1.47-.71-2.21-1.07,1.85-.83,3.68-1.28,5.6-.07,1.33,.84,2.98,.76,4.32,.35,7.87-2.43,14.72,.35,21.49,3.85Z"/><path class="cls-79" d="M689.88,157.92c.33-.08,.66-.17,1-.25,5.87,4.05,12.32,7.27,17.5,12.31-6.88-2.92-12.87-7.21-18.5-12.06Z"/><path class="cls-84" d="M725.95,184.94c-5.61-3.06-9.94-7.68-14.53-11.99,6.2,2.35,10.56,6.93,14.53,11.99Z"/><path class="cls-40" d="M342.97,487.8c2.25,6.1,2.13,6.41-2.83,7.08,.88-2.74,1.76-5.47,2.64-8.21,.06,.37,.12,.75,.19,1.12Z"/><path class="cls-20" d="M863.53,302.93c-15.33,0-30.65,.02-45.98-.04-1.53,0-3.56,.84-4.42-1.22-.78-1.86,.86-2.96,1.77-4.33,10.15-15.31,20.19-30.7,30.35-46.01,12.75-19.21,25.56-38.37,38.37-57.54,8.39-12.55,16.8-25.08,23.95-38.4,2.97-5.53,5.56-11.26,8.27-16.93,.44-.93,.76-2.09,1.89-1.97,1.32,.14,1.14,1.46,1.1,2.41-.44,8.94-.91,17.88-1.41,26.82-.09,1.65-.48,3.28-.55,4.93-1.59,41.59-.93,83.2-1.05,124.81q-.02,7.48-7.32,7.48c-14.99,0-29.99,0-44.98,0Z"/><path class="cls-20" d="M874.99,478.97c-3.6-.07-7.24,.15-10.8-.27-4.27-.5-8.17-1.79-7.48-7.51,.09-.72-.53-1.52-.83-2.28,3.11-8.03,8.59-14.48,14.02-20.97,2.9,.6,2.03,2.94,2,4.71-.04,2.51-.16,5.03,.68,7.41,1.49,4.22,5.17,4.9,8,1.44,2.94-3.6,3.22-7.86,2.75-12.3-.52-4.9,.43-5.72,5.16-4.61,1.78,.42,3.54,1,5.39,.94,1.27-.04,2.96,.35,3.44-1.26,.43-1.46-.93-2.35-1.91-3.23-2.04-1.83-4.53-2.68-7.1-3.48-4.7-1.47-5-2.61-1.84-6.56,1.36-1.7,2.87-3.33,3.41-5.45,.87-3.42,1.73-7.04-1.92-9.47-3.06-2.04-7.99-.68-10.65,2.7-2.12,2.7-3.59,5.82-3.34,9.2,.51,7.02-1.3,7.79-7.85,4.18-.59-.32-1.15-.66-1.63-1.14-1.41-2.47-.97-5.18-.92-7.8,.08-4.26-1.04-8.2-2.68-12.04-1.24-2.89-2.81-3.1-4.51-.39-1.79,2.85-2.65,6.08-3.38,9.32-1.34,6-1.97,12.11-2.88,18.18-1.29,8.66-3.95,16.8-9.51,23.74-1.48,1.85-2.68,4.36-5.79,3.9-.72-6.98-.33-13.96,.07-20.93,.39-6.81,2.37-13.29,4.5-19.81-2.88,2.88-5.77,5.76-8.65,8.63-.27-.58-.82-1.19-.76-1.74,.83-7.66-2.69-13.67-7.22-19.31,1.97-12.63,.55-25.18-.98-37.72,1.25-1.6,3.04-1.1,4.64-1.1,28.16-.03,56.32,.06,84.48-.11,4-.02,5.06,1.18,5.04,5.09-.16,26.32-.05,52.65-.13,78.97,0,2.66,.2,4.89,3.03,5.95-9.8,6.13-20.63,9.59-31.78,12.22-4.02,.95-8.03,1.94-12.04,2.91Z"/><path class="cls-20" d="M775.97,481.74c-1.38,3.77-4.34,2.01-6.69,1.74-5.03-.59-9.04-3.91-13.71-5.5-6.22-2.12-12.5-4.04-18.76-6.04-3.55-9.84-6.69-19.8-9-30.01-2.58-6.93,4.23-9.11,6.93-13.56-3.48-.83-6.62,2.35-10.01,.6-2.96-8.39-2.49-16.91-.72-25.41,2.09-10.03,4.88-19.89,8-29.65,20.09,0,40.17-.02,60.26,.04,1.89,0,4.03-.77,5.63,1.03-6.59,13.37-13.81,26.45-18.79,40.57-6.78,19.23-10.26,38.77-5.27,59.05,.59,2.41,1.4,4.76,2.11,7.14Z"/><path class="cls-24" d="M927.69,473.71c1.74-3.6,3.47-7.2,5.21-10.81,13.61,0,27.21-.07,40.82,.08,2.5,.03,5.97-1.57,7.04,2.59,1.42,5.52,.01,10.94-3.46,13.03-3.76,2.26-7.95,2.46-11.92,1.2-11.76-3.73-23.74-5.58-36.07-5.09-.52,.02-1.08-.66-1.61-1.01Z"/><path class="cls-20" d="M573.28,386.92c-1.23-10.34-6.8-19.28-9.42-29.17-1.15-.35-1.5-1.27-1.66-2.33-2.18-10.25-6.27-19.97-8.41-30.25-.25-2.8-1.27-5.47-1.24-8.34,.04-3.48,1.63-5.13,5.12-5.27,4.99-.19,9.82,1.26,14.83,1.03,7.29-.34,8.1-1.39,7.36-8.62-.5-4.89-1.35-9.84-.5-14.81,.23-1.33,.03-2.64-.6-3.87-2.87-3.77-3.54-8.05-3.27-12.68,.23-3.97,.23-7.97-1-11.83-.79-2.38-1.12-4.89-1.22-7.36-.17-4.23-2.61-5.74-6.33-6.04-2.99-.24-5.99-.17-8.98-.11-4.77,.09-6.26,1.79-5.42,6.56,.73,4.09,.84,8.26,1.69,12.33,.15,4.24-1.62,8.34-.71,12.66,.41,1.98-1.04,2.92-2.86,3.26-3.15,.27-6.32,.11-9.48,.11-7.58,0-10.36-4.22-7.55-11.46,1.39-3.59,3.53-6.8,5.59-10.02,5.64-8.83,11.11-17.78,17.82-25.88,1.91-2.52,4.45-4.48,6.24-7.11,1.79-2.64,3.95-3.03,6.84-1.43,9.15,5.07,17.82,10.83,25.99,17.36,3.24,2.59,6.43,5.22,9.29,8.24,1.76,1.86,3.16,3.83,3.75,6.35,.88,11.65-.88,23.21-1.21,34.82-.2,7.27-1.24,14.55-1.94,21.82-.93,9.64-3.93,18.79-6.05,28.15-1.92,7.09-4.25,14.05-6.98,20.87-3.25,8.07-7.32,15.6-14.18,21.25-1.58,1.3-2.97,3.47-5.53,1.73Z"/><path class="cls-20" d="M700.4,231.01c11.94-9.3,22.18-19.99,27.01-34.75,.96-2.93,1.81-2.85,3.9-1.31,6.9,5.07,12.6,11.18,17.05,18.53,1.38,2.27,1.26,3.38-1.29,4.27-2.48,.87-5.11,1.46-7.22,3.18-.16,.03-.33,.06-.49,.1-11.18,2.74-18.34,9.55-23.62,19.94-7.24,14.25-17.08,26.92-28.83,37.95-3.53,3.31-7.31,6.27-11.39,8.86-18.5,11.74-37.73,8.56-51.4-8.55-.83-1.04-1.59-2.13-2.39-3.19-2.11-1.89-4.12-4.02,.47-5.02,15.61-3.37,29.58-10.68,43.63-17.81,10.78-5.47,20.64-12.47,30.6-19.26,1.26-1.05,2.12-2.65,3.95-2.94Z"/><path class="cls-43" d="M573.28,386.92c6.59-2.41,10.12-7.99,13.77-13.41,2.1-3.11,3.97-6.38,5.94-9.57-1.7,6.04-3.85,11.99-5.03,18.13-3.1,16.15,1.11,31.58,5.47,46.92,3.03,10.66,6.88,21.08,9.24,31.93-.83,2.3-3.05,2.36-4.89,2.85-2.79,.75-5.22,1.94-7.05,4.22-2.5-7.53-4.42-15.22-5.67-23.04-3.13-19.51-6.45-38.97-11.78-58.03Z"/><path class="cls-23" d="M677.04,457.68c-1.16,5.5-5.77,9.53-6.33,15.41-.28,2.94-.83,5.86-.86,8.85-.01,1.51,.66,3.66-1.92,3.81-2.45,.14-2.93-1.58-3.06-3.62-.05-.75-.59-1.47-.9-2.2-1.75-18.24-3.5-36.49-5.26-54.73-1.18-5.08,.36-9.42,3.63-13.28,.94-1.11,1.74-2.51,3.59-2.04,2.64,16.18,7.5,31.84,11.12,47.8Z"/><path class="cls-43" d="M599.97,343.07c-.08-6.7,2.37-12.99,3.24-19.54,1.06-8.03,2.27-16.04,2.69-24.14,.74-14.24,1.48-28.49,2.21-42.73,4.99,2.7,6.71,7.89,9.39,12.35,1.57,2.78,3.56,5.44,2.42,8.96-5.05,21.35-11.74,42.21-18.88,62.94-.26,.76-.71,1.45-1.07,2.18Z"/><path class="cls-43" d="M665.92,409.89c-4.17,4.28-7.64,8.88-7.21,15.32-2.14-10.72-3.43-21.6-6.24-32.19-.23-.88-.11-2.03,.26-2.87,3.65-8.29,7.39-16.55,11.74-24.71,0,14.92,.38,29.7,1.46,44.46Z"/><path class="cls-23" d="M590.74,467.99c-.12-2.59,.76-4.06,3.66-4.52,2.82-.45,5.52-1.67,8.28-2.55,2.14,7.9,4.28,15.8,6.43,23.7-4.06,2.22-8.46,3.13-13.04,3.29-1.77-6.64-3.54-13.28-5.32-19.92Z"/><path class="cls-58" d="M619.92,277.95c.15-3.34-2.14-5.93-2.78-9.03,.4-.48,.84-.52,1.31-.11,2.5,2.51,5.33,1.27,7.92,.47,20.92-6.43,40.07-16.5,58.41-28.31,3.8-2.45,6.82-6.29,11.67-7.02-9.43,8.52-20.46,14.61-31.55,20.54-14.17,7.57-28.63,14.5-44.78,17.92,.58,1.28,1.1,2.45,1.63,3.62-.61,.64-1.22,1.28-1.83,1.92Z"/><path class="cls-39" d="M724.75,428.96c4.12-.95,8.23-1.9,12.91-2.98-1.09,3.96-4.07,5.64-6.29,7.77-2.43,2.33-3.98,4.74-3.55,8.17-1.61-4.18-2.67-8.49-3.08-12.96Z"/><path d="M552.89,367.92c-.2,.23-.24,.48-.11,.75,2.26,7.16,2.78,14.66,4.13,22,2.27,12.28,4.14,24.64,7.16,36.77,.36,1.44,.94,2.89,0,4.33-.07,.67-.13,1.34-.2,2.01,.17,1.78,.93,3.55,.07,5.34-.68,.42-1.31,.27-1.94-.13-17.21-1.58-34.42-3.18-51.64-4.73-2.47-.22-4.97-.21-7.45-.31-1.02,.75-1.88,.34-2.71-.35-3.44-7.37-10.76-9.17-17.37-11.77-4.48-1.76-7.01-4.62-7.61-9.32,1.22-7.36,2.92-14.74,2.28-22.21-1.18-13.77,3.96-25.68,10.14-37.36,6.68-12.63,14.87-24.33,22.33-36.49,.68-.9,1.34-1.81,2.41-2.3,7.81-1.95,15.8-1.87,23.77-2.01,.53,.21,.93,.57,1.21,1.06,3.39,18.73,9.24,36.78,15.53,54.69Z"/><path d="M431.84,433.99c0-1.04,.01-2.08,.02-3.12-.82-1.03-.66-2.2-.39-3.34,4.29-17.82,6.99-35.92,9.77-54.01,.25-1.62,.24-3.36,1.55-4.64,.33-.37,.67-.74,1-1.12-.44-1.53-.01-2.95,.5-4.38,5.14-14.26,9.45-28.76,12.4-43.65,.35-1.78,.62-3.65,2.36-4.76,.76-2.44,2.48-3.41,4.95-3.25,4.61-2.46,9.02-.54,13.47,.58,.51,.31,.78,.78,.79,1.38-7.07,16.48-11.81,33.56-10.85,51.64,.53,9.94-1.94,18.29-8.93,25.35-4.57,4.62-6.05,9.89-4.18,16.39,1.51,5.26,3.01,10.47,5.38,15.99,0-3.71-.65-6.9,.7-9.93,.5-.66,1.19-.93,1.99-.97,6.48,4.39,10.75,10.69,12.99,17.88,1.29,4.15,3.41,8.55,1.9,13.45-.64,2.09,2.03,3.58,3.1,5.4,.24,.4,.43,.84,.59,1.28,.27,.9,.56,1.8,.09,2.72,.72,5.67,1.44,11.35,2.17,17.02,.12,.62-.08,1.11-.58,1.49-4.87,1.69-9.94,1.02-14.85,.72-14.11-.87-27.83-3.23-38.65-13.62-1.69-3.58-.15-7.11,.3-10.61,.6-4.66,.26-9.5,2.4-13.9Z"/><path class="cls-4" d="M563.73,438.84c-.66-1.7-1.78-3.41,.13-5.05,2.7,.61,5.23-.66,7.88-.75,7.7-.27,9.57,.81,11.01,8.25,2.42,12.52,5.73,24.82,9.04,37.12,1.29,4.79,2.25,9.71,3.93,14.36,1.41,3.91,.88,5.49-3.55,5.01-3-.32-6.05,.14-8.79,1.31-3.05,1.3-4.57,.51-5.52-2.56-.73-2.35-1.88-4.58-2.84-6.86-2.88-3.86-2.94-8.81-5.03-12.99-.31-1.21-1.08-2.38-.33-3.68-1.61-3.3-1.97-6.91-2.67-10.44-.95-.75-.91-1.58-.19-2.46-2.02-6.94-3.1-14.02-3.06-21.26Z"/><path class="cls-6" d="M482.86,470.77c.07-.31,.19-.59,.36-.86,10.86,1.85,21.25,1.78,31.69-3.27,13.76-6.67,28.46-10.89,43.74-12.69,1.44-.17,2.92-.02,4.43,.38-11.94,1.95-23.72,4.35-35,8.7-7.43,2.86-14.83,5.82-22.15,8.95-4.74,2.02-7.74,6.17-11.02,9.91-.4,.36-.8,.34-1.2,0-1.14-3.2,2.9-4.62,2.18-7.77-3.6-.79-7.66-1.29-11.82-.76-.79-.08-1.33-.48-1.6-1.23-.05-.5,.09-.95,.4-1.34Z"/><path class="cls-26" d="M500.55,433.17c.79,.27,1.57,.53,2.36,.8-1.59,6.44-4.47,11.99-10.66,15.21-.23-.04-.46-.09-.68-.13-1.95-.13-3.81-.65-3.98-2.9-.15-1.97,1.8-1.5,2.94-1.85,1.49-.46,1.88-1.74,2.44-2.93,.35-.75,1.1-1.92,1.68-1.38,3.91,3.57,2.28-1.92,3.9-1.98-4.01-.41-5.83,3.82-9.48,4.11-.38-.32-.62-.73-.69-1.22,2.53-4.98,6.67-7.44,12.17-7.73Z"/><path class="cls-85" d="M563.73,438.84c1.02,7.09,2.04,14.17,3.06,21.26-3.12-2.91-1.97-7.01-2.84-10.53-.86-3.47-.58-7.17-1.95-10.56,.58-.06,1.16-.11,1.74-.17Z"/><path class="cls-17" d="M493.68,481.81c.4,.02,.81,.05,1.21,.07-2.34,4.35-5.87,8.03-7.18,12.95-.65,.33-1.3,.67-1.95,1,.38-1.66,.77-3.32,1.15-4.98,1.24-3.77,2.06-7.86,6.76-9.05Z"/><path class="cls-47" d="M569.98,476.69c3.18,3.75,3.13,8.74,5.03,12.99-.05,.84-.11,1.68-.16,2.52-2.19-4.99-4.21-10.03-4.86-15.51Z"/><path class="cls-26" d="M481.04,452.89c-.32-.72-.64-1.44-.96-2.16,3.6-1.77,7.53-1.82,11.41-2.16,.25,.2,.5,.4,.75,.61-3.17,2.93-7.13,3.5-11.2,3.71Z"/><path class="cls-48" d="M566.98,462.56c1.72,3.27,2.02,6.9,2.67,10.44-2.93-2.96-2.97-6.66-2.67-10.44Z"/><path class="cls-22" d="M329.12,492.12c-2.14-24.12-10.3-45.39-21.3-65.76-5.98-11.06-6.37-23.31-6.44-35.48-.04-6.28-.61-12.63,1.36-19.01,1.99,9.93,4.27,19.81,5.91,29.79,2.34,14.27,6.9,27.64,13.79,40.38,8.09,14.96,10.64,31,7.54,47.83-.09,.47-.34,.91-.85,2.25Z"/><path class="cls-21" d="M302.69,464.14c2.83-2.45,6.25-.66,9.33-1.29,4.36,6.71,7.72,13.83,9.11,21.78-1.17,4.97-4.56,4.37-8.16,3.25-2.7-8.23-6.34-16.05-10.28-23.74Z"/><path class="cls-40" d="M335.94,505.85c.13,.78,.11,1.63,.43,2.32,.44,.93,2.07,1.53,1.21,2.79-1.02,1.51-2.3-.37-3.49-.09,.21-1.82,.71-3.54,1.84-5.03Z"/><path class="cls-16" d="M810.54,377.78c1.19,16.73,4.15,33.62-4.41,49.57-9.44,17.6-15.78,36.09-16.89,56.25-3.4-8.23-3.04-16.76-1.95-25.29,.74-5.82,2.38-11.55,5.34-16.54,9.08-15.31,11.73-32.36,14.23-49.5,.71-4.92,1.57-9.81,2.36-14.72,.44,.08,.88,.15,1.31,.23Z"/><path class="cls-18" d="M909.38,476.24c-2.23,6.72-6.53,11.48-12.54,14.76-5.42,2.96-11.31,4.75-17.06,6.88-8.68,3.22-16.88,7.46-25.15,11.64,9.03-7.77,19.14-13.75,30.18-18.03,9.16-3.55,18.59-6.46,24.57-15.25Z"/><path class="cls-57" d="M920.18,467.35c-1.48,1.88-3.43,2.71-6.31,3.67,1.88-2.93,3.85-3.82,6.31-3.67Z"/><path class="cls-37" d="M864.95,430.79c2.77-.06,4.82,1.93,7.69,3.04-.4-5.21-.43-10.01,2.3-14.22,1.73-2.67,3.62-5.33,7.13-5.69,3.33-.34,6.99-.74,8.89,2.84,1.9,3.59,1.55,7.47-.53,10.94-1.5,2.51-5.17,5.14-4.76,7.04,.54,2.5,5.29,1.35,7.68,3.2,.26,.2,.56,.36,.82,.57,2.27,1.94,6.64,3.36,4.94,6.9-1.53,3.18-5.67,1.41-8.72,1.18-.8-.06-1.6-.44-2.36-.76-3.25-1.35-4.5-1.19-3.47,3.04,1.16,4.78,.45,9.67-2.97,13.63-1.48,1.71-3.12,3.78-5.88,2.71-2.59-1-4.14-2.78-4.94-5.72-1.05-3.87,1.31-7.88-.86-11.56,.02-1.29,1.9-1.72,1.5-3.38-2.07,.82-3.99,1.74-5.6,3.24-3.11,.35-6.22,.82-9.29-.27-5.76-2.04-7.27-6.82-3.69-11.73,3.52-4.84,7.38-6.43,12.14-5.01Z"/><path class="cls-16" d="M864.95,430.79c-3.98,.06-7.37,1.32-10.02,4.47-1.84,2.19-3.93,4.32-2.58,7.42,1.33,3.08,4.24,3.84,7.3,4.23,2.05,.26,4.31-.86,6.15,.89-10.92,10.08-17.85,23.11-25.99,35.24-1.9,2.83-3.98,5.54-6.83,9.48,.68-9.89,1.26-18.24,1.84-26.6,9.02-7.2,12.31-17.28,14.03-28.11,1.31-8.3,1.71-16.78,4.87-24.7,1.09-2.73,2.07-6.62,5.13-6.58,2.94,.03,3.06,4.16,4.24,6.61,2.74,5.68,1.47,11.75,1.87,17.65Z"/><path class="cls-32" d="M295.8,478.05c-.33,.64-.67,1.28-1.01,1.93-.91-3.96-1.83-7.92-2.74-11.88,1.98,3.08,3.81,6.19,3.74,9.95Z"/><path class="cls-16" d="M202.83,489.71c-1.82-1.01-3.63-2.02-6.34-3.52,3.8-.35,5.33,1.15,6.34,3.52Z"/><path class="cls-4" d="M431.84,433.99c.66,8.09-2.11,15.89-2.03,23.94,.7,.65,.29,1.33,.06,2.01-.17,.33-.41,.61-.7,.84-1.03,.37-1.31,1.13-1.11,2.14,.82,2.64,.44,5.23-.2,7.84-2.55,10.34-5.64,20.47-10.88,29.82-.45,.39-.9,.78-1.35,1.17-.26-.14-.48-.32-.65-.56-2.23-3.45-6.03-2.9-9.26-3.29-6.71-.8-6.73-.6-5.59-6.99-.11-4.73,1.95-8.84,3.63-13.07,3.34-11.65,6.36-23.37,8.77-35.26,1.92-9.48,3.84-10.63,13.39-9.44,1.98,.25,3.95,.55,5.93,.83Z"/><path class="cls-4" d="M564.06,431.78c-4.64-14.66-6.58-29.88-9.14-44.96-1.02-6-3.09-11.91-2.14-18.15,1.3-.22,2.59-.56,3.9-.64,9.41-.6,10.38-.12,12.66,8.94,3.81,15.11,7.28,30.29,10.93,45.44,.75,3.11,.78,6.23,.46,9.79-5.59-1.06-11.13-.04-16.66-.42Z"/><path class="cls-8" d="M429.18,460.78c-.15-.27-.22-.56-.2-.86,1.25-.97,2.11-.11,3.05,.59,10.72,7.92,23.07,10.45,36.06,10.91,4.94,.18,9.92-.67,14.82,.5l1.06,.82c1.79,2.51,2.27,5.24,1.42,8.2-4.47,3.69-9.96,3.59-15.07,3.06-10.7-1.13-21.19-3.59-31.23-7.62-1.94-.78-4.21-1.27-5.11-3.59-3.5-3.24-2.35-8.35-4.8-12.01Z"/><path class="cls-8" d="M476.57,485.01c-1,.83-1.99,1.65-2.99,2.48-.62,.24-1.36,.33-1.84,.73-11.68,9.84-23.09,3.14-34.46-.66-2.49-.83-4.34-9.2-3.42-13.31,9.16,2.93,18.26,6.02,27.74,7.96,4.98,1.02,10.26,.39,14.97,2.81Z"/><path class="cls-5" d="M445.16,513.1l-1.38-.09c-.95-.73-1.9-1.47-2.86-2.2-.05-.36-.1-.72-.15-1.08-1.22-.57-2.66,0-3.85-.76-.1-.84-.71-1.51,.81-2.13,3.67-1.49,.7-2.22-.56-3.07-1.45-.65-3.51-.49-3.7-2.81,.28-1.7,.52-3.44,2.55-4.04,1.19-1.89,3.18-2,5.09-2.3,3.6-.13,5.52,1.31,4.85,5.18-.32,2.27,.11,3.8,2.92,2.84,1-.34,1.98-1.23,2.94,.05,.81,1.63,3.38,.45,3.96,2.45-1.67,.31-3.34,.61-5,.92-2.22,.96-.76,3.3-1.78,4.72-.03,.39-.06,.78-.08,1.17-1,1.24-2.19,1.84-3.77,1.13Z"/><path class="cls-11" d="M416.98,500.6c3.03-10.16,7.25-19.95,9.56-30.34,.54-2.43,1.02-4.88,1.52-7.32,4.64,8.93,2.61,17.15-2.65,25.03-1,1.5-1.89,3.08-2.83,4.62-3.31,1.66-2.17,6.44-5.6,8.01Z"/><path class="cls-7" d="M422.99,502.69c-2.99-.86-3.77-2.52-2.01-5.25,.87-1.35,1.54-2.83,2.3-4.26,3.86-3.95,5.75-9.1,8.44-14.22,2.02,4.07,2.32,7.43-.22,11.27-2.71,4.09-6.63,7.45-7.92,12.45-.19,.54-.38,.55-.58,0Z"/><path class="cls-10" d="M445.97,499.82c-.86-2.44-2.08-4.53-4.85-5.18-2.89-.39-4.82-1.61-4.17-5.43,7.19,2.99,14.67,4.72,23.47,5.78-4.67,1.59-8.37,2.52-11.29,5.04-1.16,1-2.14,.37-3.16-.2Z"/><path class="cls-31" d="M476.57,485.01c-13.61-1.36-26.92-4.06-39.67-9.15-1.06-.42-2.02-1.07-3.03-1.62,.04-.48,.07-.97,.11-1.45,13.27,5.56,26.98,9.25,41.41,10.19,3.5,.23,6.58-.25,9.39-2.33,1.39,.77,2.23,1.69,.86,3.2-2.1-1.87-3.15,.53-4.65,1.13-1.49-2.21-2.95-.43-4.42,.03Z"/><path class="cls-12" d="M436.03,496.94c-1.67,.92-.48,3.16-1.94,4.17-.8,.84-1.92,1.07-2.92,1.54-1.72,.32-3.36,2.99-5.2,.2-.87-3.82,2.81-5.31,4.17-7.99,1.1-2.16,2.66-4.09,4.23-6.44,1.05,3.07,2.08,5.65,1.65,8.51Z"/><path class="cls-10" d="M455.98,514.94c-.16-1.76-1.83-1.63-2.88-2.22-2.23-1.26-1.39-3.26-.96-4.86,.61-2.27,2.46-.91,3.72-.67,2.96,.56,2.97,2.83,3.11,5.3,.16,2.74-1.59,2.19-3.07,2.38,0,0,.08,.07,.08,.07Z"/><path class="cls-53" d="M455.79,505.16c-.96-1.4-4.42,1.24-3.96-2.45,1.6-.25,3.2-.54,4.8-.75,2.12-.27,2.52,1.02,2.27,2.72-.51,3.41-2.18-.36-3.11,.48Z"/><path class="cls-30" d="M425.98,502.86c2.2,1.41,3.14-1.44,4.93-1.46,.65,2.26,.17,3.74-2.53,3.7-2.5-.55-2.18,1.25-2.27,2.71-.33,.02-.66,.03-.98,.05-.53-1.48,.14-3.6-2.18-4.14,.02-.34,.04-.69,.06-1.03,.19-.12,.39-.12,.58,0,.8,.06,1.6,.12,2.4,.18Z"/><path class="cls-55" d="M449.01,510.8c.86-1.47-5.31-5.59,1.78-4.72,.1,1.83,.69,3.85-1.78,4.72Z"/><path class="cls-44" d="M445.16,513.1c1.31-.21,2.26-1.61,3.77-1.13,.35,.65,.7,1.29,1.06,1.94-1.87,1.32-3.76,2.74-4.83-.81Z"/><path class="cls-1" d="M485.64,483.85c.47-1.27-.72-2.1-.86-3.2-.18-2.64-1.4-5.18-.81-7.9,4.71-2.15,9.29,.33,13.64,.19,.34,3.81-2.8,5.85-3.93,8.87-3.29,2.25-4.12,6.32-6.77,9.05-1.23-2.19-.82-4.67-1.28-7Z"/><path class="cls-60" d="M428.37,505.11c1.61-.71,2.03-2.23,2.53-3.7,1.06-.1,2.13-.2,3.19-.3,1.03,.89,2.06,1.79,3.08,2.68-2.34,.06-4.71,.06-6.32,2.21-.83-.3-1.66-.6-2.49-.9Z"/><path class="cls-56" d="M436.93,508.98c1.4-.37,2.98-1.61,3.85,.76-1.76,1.1-3.51,2.19-5.45,3.41-1.01-2.16,1.51-2.7,1.6-4.16Z"/><path class="cls-70" d="M403.76,477.86c-1.21,4.36-2.42,8.71-3.63,13.07-.69-.01-1.38-.02-2.07-.03,.69-1.96,1.38-3.91,2.07-5.87,.88-2.4,1.77-4.8,2.65-7.2,.33,.01,.65,.02,.98,.04Z"/><path class="cls-20" d="M171.91,302.93c-15.65,0-31.3,.01-46.94-.03-1.22,0-3.01,.68-3.44-1.01-.22-.88,.63-2.16,1.24-3.1,10.07-15.34,20.14-30.69,30.3-45.97,16.43-24.7,33.15-49.2,49.29-74.08,8.12-12.51,15.46-25.54,21.78-39.1,.58-1.25,1.05-3.6,2.69-3.06,2.23,.73,.53,2.74,.37,4.24-.65,6.09-.55,12.23-1.02,18.35-.98,12.73-.55,25.56-1.29,38.31-1.95,33.41-.46,66.84-.84,100.26-.05,4.38-1.8,5.29-5.7,5.25-15.48-.15-30.96-.06-46.44-.06Z"/><path class="cls-20" d="M496.93,245.73c-.28-.18-.53-.47-.83-.52q-8.18-1.4-8.18-9.99c-.02-22.06,1.49-44,4.82-65.84,1.32-8.67,2.18-17.35,6-25.39,3.06,.63,3.61,3.92,5.82,5.45,1.29,1.33,2.59,2.65,3.39,4.35,4.5,7.11,8.62,8.31,15.05,4.38,1-.65,1.74-1.54,2.4-2.53,4.09-4.28,10.14-3.41,12.77,1.83,.81,1.61,.89,3.26-.26,4.65-1.94,2.34-2.5,5.34-4.06,7.85l.04-.05c-3.79,8.61-6.43,17.63-9.39,26.52-.46,1.32-.29,2.61,.24,3.88,0,2.66-1.58,4.67-2.79,6.84-4.05,7.27-7.99,14.58-11.01,22.36-.15,.48-.35,.94-.57,1.39-1.96,3.77-3.69,7.65-5.34,11.56-1.57,3.74-4.21,5.11-8.09,3.26Z"/><path d="M513,99.03c.63-.27,.96-.72,.88-1.43,.85-.67,1.87-.77,2.9-.83,.76-.04,1.53,0,2.29,.09,4.11,.7,7.7,2.41,10.56,5.52,5.27,5.29,9.82,11.1,12.76,18.03,1.16,2.73,2.34,5.51,1.08,8.57-.56,.92-1.36,1.47-2.43,1.6-2.33-.15-3.78-1.93-5.56-3.08-3.36-2.17-6.85-4.04-10.77-4.98-1.58-.38-3.44-1.36-4.75-.13-1.5,1.4,.47,2.63,1.01,3.86,.92,2.1,.16,3.52-1.57,4.63-2.13,1.37-4.33,1.21-6.65,.36-8.31-3.05-9.36-2.75-15.43,3.92-.33,.37-.69,.71-1.09,1.01-.47,.22-.91,.19-1.32-.14-2.52-.31-4.26,1.6-6.45,2.28-8.58,2.69-16.07-2.37-15.35-11.25,.98-11.93,7.12-21.53,16.99-27.87,5.42-3.48,12.26-4.38,18.04,.86,2.06,1.86,3.59,.96,4.87-1.02Z"/><path class="cls-83" d="M440.76,96.39c.05,.48,.1,.95,.15,1.43-4.99,1.79-4.57,4.99-2.87,9.13,2.35,5.73,4.89,11.44,5.96,17.62,.08,.37,.2,.72,.37,1.06-.15,.4-.43,.55-.84,.45-2.25-6.2-4.48-12.42-6.77-18.61q-2.7-7.31,3.99-11.08Z"/><path class="cls-78" d="M496.93,245.73c3.75,1.37,5.59-.17,7.03-3.74,1.67-4.15,2.73-8.7,6-12.08,.92,.96,.99,2.15,.51,3.23-2.08,4.64-3.35,9.66-6.44,13.83-2.06,.01-4.12,.02-6.18,.03-.64,.55-1.27,.47-1.88-.06-.02-.29-.06-.57-.12-.86,.36-.12,.72-.24,1.09-.36Z"/><path class="cls-69" d="M494.9,136.03c.31-.19,.63-.21,.96-.06,4.67,1.36,4.41,6.49,7.12,9.4,1.28,1.37,2.48,3.23,1.14,5.38-2.62-1.6-3.4-4.66-5.39-6.76-1.28-2.65-2.55-5.31-3.83-7.96Z"/><path class="cls-75" d="M443.54,126.08l.3-.04c-.09,2.14-1.45,1.19-2.49,1.03-3.28-2.55-7.33-4.2-9.41-8.14,3.08,.5,4.63,3.29,7.08,4.73,1.47,.87,2.41,2.74,4.52,2.41Z"/><path class="cls-81" d="M441.35,127.07c.96-.03,1.98,.06,2.5-1.03,.05-.49,.11-.98,.16-1.47,1.5,1.47,1.57,3.46,2.53,5.91-2.73-.57-3.82-2.22-5.19-3.41Z"/><path class="cls-79" d="M642.28,110.26c-2.98,4.18-5.79,8.49-8.98,12.5-2.38,2.99-1.99,4.64,1.45,6.27,11.68,5.56,23.34,11.15,34.86,17.02,7,3.57,14.3,6.69,20.34,11.92-2.6,.32-4.17-1.73-6.17-2.75-9.74-4.96-19.44-10.01-29.17-14.99-1.46-.75-2.96-1.61-4.72-1.28-18.91,3.48-35.1-4.03-50.95-12.71-5.78-3.17-11.34-6.76-17-10.16-.22-.46-.18-.9,.14-1.31,.4-.29,.85-.47,1.33-.55,1.28-.07,2.41,.43,3.55,.91,10.32,5.01,20.97,9,32.31,11.14,5.34,1.01,9.34,.15,12.03-5.07,1.58-3.07,4.03-5.66,6.16-8.4,1.1-1.41,2.04-3.11,4.23-3.03,.15,.22,.34,.37,.58,.47Z"/><path class="cls-72" d="M618.45,268.81c-.44,.04-.88,.08-1.31,.11-2.87-4.19-5.19-8.79-9.02-12.28-8.7-11-20.2-18.56-31.87-25.9-8.87-5.58-8.89-5.54-15.86,2.43-.65,.74-1.4,1.38-2.1,2.07-.48-.14-.79-.45-.92-.94-.12-2.3,1.67-3.49,2.93-4.97,3.79-4.47,3.74-4.36-1.06-7.38-4.87-3.07-10.26-5.34-14.54-9.33-.09-.88,.41-1.29,1.17-1.51,17.93,10.7,36.7,20.1,52.79,33.67,8.05,6.78,15.09,14.46,19.81,24.02Z"/><path class="cls-78" d="M533.84,169.96c-.29-2.51,1.07-4.59,2.27-6.44,2.71-4.18,1.21-6.28-2.56-8.77-4.19-2.76-5.88-.59-7.72,2.49-1.69-2.88-.16-5.61,3.47-6.14,2.09-.3,3.95,.48,5.68,1.47,8.65,4.97,17.55,9.31,27.4,11.41,.83,.18,1.49,.7,1.79,1.56-.29,1.54-1.37,2.06-2.78,2.14-7.08-1.19-13.56-4.16-20.15-7.08,1.15,8.71,7.47,11.12,14.7,12.45,.49,.18,.89,.46,1.24,.84,.21,.5,.24,1,.08,1.52-4.54,2.52-7.99-.08-11.5-2.43-3.71-2.23-5.55-5.85-6.92-9.92-3,1.66-2.02,5.69-4.99,6.89Z"/><path class="cls-76" d="M581.94,115.05c0,.35,0,.69,0,1.04-8.83,3.9-16.93,8.82-23.8,16.76,7.84-.45,14.16,1.1,18.09,7.8-.21,.47-.57,.68-1.08,.66-2.59-.82-4.22-3.14-6.69-4.19-3.27-1.39-6.43-2.22-10.09-1.25-3.11,.82-4.33,2.25-3.48,5.36-5.55-.36-12.55-5.98-13.95-11.18,.61-.37,1.21-.74,1.82-1.11,8.01,6.8,7.96,6.76,15.7-.65,5.52-5.28,11.66-9.7,18.72-12.74,1.35-.58,2.64-1.43,4.23-.95,.18,.15,.35,.31,.53,.46Z"/><path class="cls-78" d="M570.91,162.33c-.08,1.77,1.22,4.17-2.05,4.5-.65-.33-1.33-.63-1.96-1-1.86-1.25-3.06-3.02-3.75-5.1-1.66-5.03-3.24-10.08-6.16-14.58-.64-.99-.98-2.12-.22-3.26,3.37-.27,4.47,2.4,5.72,4.64,2.1,3.8,3.03,8.07,4.5,12.15,.2,.04,.09-.12,0-.58-2.28-10.56-1.68-11.25,10.11-11.39,.13-2.3-2.57-3.98-1.57-6.41,.25-.21,.49-.43,.72-.66,2.64,2.42,3.67,5.81,5.32,8.83,.52,.95,.55,1.91-.82,2.27-2.78-.93-5.52,.34-8.3,.17-2.15-.13-2.28,1.65-2.04,3.13,.39,2.42,.16,4.87,.51,7.28Z"/><path class="cls-4" d="M570.91,162.33c-.1-.13-.26-.24-.3-.38-1.07-3.72-3.73-8.5-.98-11.04,2.43-2.24,7.35,.03,11.11,.84-7.64-.52-7.98,5.73-9.83,10.59Z"/><path class="cls-71" d="M545.85,211.13c-.3,.3-.6,.6-.9,.9-4.6,.44-7.29-3.37-10.97-4.97-1.59-.69-2.91-2.45-4.91-.96-2.34,.19-2.76-1.88-3.82-3.22-.5-.97-.6-2.1-1.26-3.01-1.25-.9-1.39-1.85-.1-2.84,.32-.61,.66-.62,1.02-.03,.13,2.56,2.25,3.33,4.01,4.36,5.62,3.28,11.27,6.51,16.92,9.76Z"/><path class="cls-78" d="M524.93,197.01c-.34,.01-.68,.02-1.02,.03,2.61-9.3,4.94-18.71,9.97-27.13-2.09,9.33-6.05,18.04-8.95,27.1Z"/><path class="cls-4" d="M564.14,168.09c-3.85,.24-7.81,.35-7.23,5.96-.36-.04-.71-.07-1.07-.11-1.74-5.17-.73-6.64,4.86-7.05,1.34,.21,2.35-.58,3.45-1.13,1.09-.93,2.2-.64,3.32-.05,.46,.37,.92,.75,1.39,1.12-1.53,.59-3.42-.18-4.72,1.26Z"/><path class="cls-4" d="M435.79,33.21c0,5.49-.01,10.98,0,16.47,.01,3.26-1.4,5.63-4.68,6.06-3.16,.42-4.73-1.73-5.62-4.54-3.25-10.3-6.55-20.59-9.83-30.88-.1-.32-.25-.63-.3-.95-.81-4.87,2.34-6.69,14.03-8.11,4.12-.5,6.41,1.29,6.52,5.48,.14,5.49,.03,10.98,.03,16.47h-.15Z"/><path class="cls-4" d="M383.71,29.08c2.15,.02,3.28,1.41,4.12,3.13,4.11,8.35,8.18,16.72,12.29,25.08,1.18,2.4,1.13,4.6-1.25,6.13-2.12,1.36-4.15,.75-5.84-1-6.59-6.81-13.18-13.63-19.76-20.46-1.11-1.15-1.58-2.53-1.17-4.12,.57-2.23,9.29-8.81,11.61-8.76Z"/><path class="cls-4" d="M406.92,66.83c2.53,.11,8.33,6.71,7.95,9.03-.51,3.14-2.75,4.83-5.87,4.96-1.87,.08-8.1-7.14-7.7-9.03,.65-3.12,3.1-4.43,5.62-4.96Z"/><path class="cls-4" d="M432.49,59.45c3.62-.13,5.16,2.54,5.61,8.89,.28,3.88-2.17,4.43-4.94,4.64-3.77,.28-5.4-2.47-5.99-9.17-.37-4.2,2.9-3.65,5.33-4.36Z"/><path class="cls-4" d="M478.05,313.19c-4.68-.48-9.36-.97-14.05-1.45-6-1.73-12.17-1.05-18.21-.79-4.94,.21-7.23-.78-5.9-6.04,3.87-2.4,8.09-1.24,12.16-1.04,4.66,.23,5.81-.8,5.14-5.25q-1.43-9.42-11.07-9.31c-5.52,.06-6.07,.75-5.82,6.54,.13,3.04,2.11,6.18-.36,9.12-1.53-1.7-2.1-3.81-1.9-5.97,.34-3.68-1.2-5.15-4.82-5.17-2.64-.02-5.27-.71-7.91-.74-5.16-.06-6.81,2.04-6.03,7.25,.19,1.31,.42,2.62,.58,3.93,.33,2.71,2.34,5.97-2.91,6.43-5.79,.51-10.4-1.38-10.78-5.46-.73-7.83,.36-15.62,1.86-23.27,.75-3.83,4.76-3.56,7.79-3.9,6.17-.68,12.32,.27,18.38,1.12,9.1,1.27,18.27,1.18,27.36,1.46,20.45,.64,40.89,2.06,61.37,1.45,5.89-1.45,11.8,.2,17.69-.14,3.11-.18,6.25,.32,9.35-.37,6.45-1.21,13.03-1.09,19.51-2,4.34-.6,7.72,.88,9.82,4.87,1.17,2.56,1.45,5.04-.43,7.24-.48,.27-.85,.26-1.04-.08-3.2-5.73-7.85-7.75-14.25-6.19-1.02,.25-2.01,.6-2.43,1.56-1.76,4.12-5.02,3.7-8.4,2.82-1.48-.38-2.95-.48-4.45-.46-4.94,.09-6.52,2.01-5.6,6.97,.24,1.31,.5,2.61,.7,3.93,.49,3.11,2.13,4.64,5.46,4.36,2.48-.21,4.99-.03,7.49-.06,1.57-.02,3.1-.27,3.88-1.76,1.74-3.3,4.71-3.47,7.76-3.02,3.13,.47,6.22,1.04,9.41,.6,1.72-.24,2.99,.36,2.95,2.39-.03,1.36,.35,2.63,.7,3.92,.89,3.27-.68,5.04-3.62,6.01-3.44,1.14-6.91,.59-10.38,.26-9.45-.9-18.88-.59-28.29,.45-.67,.07-1.32,0-1.92-.36-8.33,.66-16.66,1.31-24.99,1.97-4.49,2.53-9.47,1.66-14.03,1.13-6.6-.76-13.58,.56-19.78-2.94Z"/><path class="cls-20" d="M525.82,202.31c1.3,1.06,1.39,3.25,3.4,3.65,3.16,.92,4.05,3.95,5.79,6.2,5.33,7.42,10.78,14.74,16.45,21.89,2.43,3.06,2.82,5.39,.3,8.76-6.04,8.08-11.18,16.8-16.36,25.46-1.61,2.68-2.48,5.42-1.84,8.51,.75,3.63-.56,5.45-4.39,5.15-2.12-.16-4.34,.5-6.31-.8-3.63-.1-7.26-.32-10.88-.25-2.21,.04-3.12-.81-2.74-2.89,1.77-9.71-2.37-18.8-2.86-28.27-.08-1.63-1-2.32-2.35-2.75,.28-4.25,2.91-7.62,4.24-11.47,.64-1.84,2.1-3.43,1.69-5.59l-.08,.1c4.14-8.94,8.37-17.84,13.47-26.29,.54-.9,.83-2.36,2.46-1.41Z"/><path class="cls-4" d="M442.79,368.89c-.55,12.44-3.16,24.59-5.37,36.79-1.53,8.46-2.74,17.01-5.56,25.2-5.22,2.38-10.79,.03-16.18,1.16-1.63,.34-1.43-2.46-1.29-4.12,.74-8.67,3.81-16.81,5.69-25.22,2.13-9.55,4.85-18.97,6.88-28.53,1.06-5,3.85-6.48,8.47-6.11,2.46,.2,5-.32,7.36,.84Z"/><path class="cls-4" d="M459.05,314.98c-3.52,18.05-8.13,35.79-15.26,52.79-2.32-1.36-4.91-1.07-7.32-.8-4.32,.49-5.14-1.49-4.54-5.19,1.35-8.41,4.68-16.25,6.79-24.43,1.82-7.05,4.33-13.97,4.38-21.39,.02-2.56,1.02-4.05,3.92-3.84,2.82,.21,5.66,.04,8.47,.26,1.59,.12,3.47,.22,3.56,2.59Z"/><path class="cls-4" d="M495.96,246.94c.63,.02,1.25,.04,1.88,.06,1.19,1.21,2.79,.88,4.24,1.08,1.44,.2,2.76,.62,2.7,2.31-.14,3.91,1.3,7.49,2.03,11.21,.79,3.99-.91,5.51-5.07,5.04-2.47-.28-4.94-.72-7.41-.79-8.66-.25-8.66-.2-9.29-8.95-.04-.5-.05-1-.06-1.5-.32-8.33-.3-8.35,8-8.38,1,0,2-.06,2.99-.09Z"/><path class="cls-4" d="M428.92,258.25c-.2,7.8-1.95,8.9-13.55,8.57-5.02-.14-6.61-2.35-6.39-8.88,.24-7.13,3.85-10.54,10.92-10.3,7.83,.27,9.25,1.93,9.02,10.6Z"/><path class="cls-4" d="M507.42,267.54c.18,.3,.33,.44,.34,.59q1.08,12.17-10.97,11.94c-1-.02-1.99-.02-2.99-.05-8.17-.2-8.01-.2-7.96-8.45,.02-3.4,.93-4.57,4.49-4.51,5.74,.1,11.4,2.11,17.09,.48Z"/><path class="cls-4" d="M427.02,294.81c2.03,.13,3.52,.21,5.01,.32,2.96,.21,5.19,1.08,4.65,4.78-.46,3.19,3.41,6.75,.32,9.35-2.45,2.05-6.09,0-9.19-.24-1.94-.16-4.82,1.36-5.69-1.42-1.13-3.62-2.13-7.61-.84-11.27,.97-2.74,4.16-.89,5.74-1.51Z"/><path class="cls-4" d="M420.19,276.79c-1.99,0-4.11,.43-5.94-.12-1.69-.5-5.42,3.72-5.07-1.88,.22-3.38-.88-7.69,5.34-6.76,3.22,.48,6.64,.28,9.89-.61,4.44-1.23,5.27,2.12,5.57,4.98,.3,2.93-1.15,5.06-4.82,4.43-1.61-.28-3.31-.05-4.97-.04Z"/><path class="cls-68" d="M522.85,281.13c.66-.05,1.33-.14,1.99-.15,7.5-.13,7.55-.12,7.86-7.61,.08-1.95,.94-3.46,1.87-5.05,5.09-8.77,10.35-17.45,16.38-25.6,2.04-2.76,2.2-4.49-.02-7.28-6.11-7.67-11.82-15.65-17.69-23.52,3.04-1.12,4.12,1.44,5.42,3.13,4.35,5.62,8.9,11.1,12.97,16.93,1.49,2.14,3.28,3.14,5.85,2.75,.27,.17,.54,.35,.81,.54-8.22,10.58-15.14,22.01-22.33,33.29-2.48,3.89-1.33,7.61-1.53,11.42-.1,1.81,1.68,1.17,2.66,1.18,4.3,.06,8.59,0,12.89-.02,.29,.24,.38,.47,.27,.69-.11,.21-.21,.32-.32,.32-9,1.1-18,1.16-27-.04-.04-.32-.06-.65-.08-.97Z"/><path class="cls-20" d="M641.7,109.79c-4.23,4.48-7.68,9.55-11.02,14.69-1.63,2.51-3.57,3.58-6.55,3.44-11.87-.58-22.61-4.99-33.33-9.55-1.68-.71-3.31-1.56-4.96-2.34-1.39-2.69,.91-3.94,2.29-5.36,5.99-6.15,12.14-12.14,18.14-18.29,.21-.1,.43-.2,.64-.29,1.45-.05,2.48-1.07,1.82-2.18-1.05-1.78-2.39-3.67-4.74-4-.96-.13-1.99,.11-2.98,.23-7.59,.95-9.19-.17-11.27-7.62-2.4-8.6-1.86-17.49-2.73-26.23-.23-2.31,1-3.33,2.89-4.01,5.5-2,11.24-2,16.69-.55,5.31,1.41,10.38,1.57,15.76,.81,9.17-1.29,18.34-.24,27.21,2.05,9.85,2.54,13.21,9.55,10.93,21.19-2.48,12.67-8.61,23.61-16.17,33.87-.97,1.31-2.38,2.37-2.64,4.15Z"/><path class="cls-43" d="M582.58,114.89h-.34s-.3,.17-.3,.17c0,0,.02-.37,.02-.37-1.13-.7-2.2-1.48-3.17-2.4-13.65-12.89-29.37-16.03-47.04-9.92-.95,.33-1.89,.66-2.9,.68-2.83-2.56-6.02-4.42-9.79-5.23-1.57-1.51-3.07-3.05-2.38-5.53,.36-.35,.79-.47,1.27-.3,1,1.86,2.9,2.7,4.49,3.86,1.65,1.2,3.2,.79,4.25-.9,7.43-11.96,19.3-12.89,31.54-12.46,7.46,.26,14.9,1.2,22.36,1.71,4.59,.31,9.19-.11,13.19,3.18,1.98,1.62,4.89,.89,7.28,.36,3.88-.87,5.69,.5,5.86,4.36,0,0,.04-.06,.04-.06-6.46,7.33-13.74,13.86-20.48,20.91-1.12,1.17-2.49,1.52-3.9,1.96Z"/><path class="cls-25" d="M516.87,97.94c-.99-.11-1.99-.23-2.98-.34-4.55-4.32-8.11-9.15-8.8-15.67-.35-3.31,.52-5.3,4.06-6.16,4.72-1.15,9.31-1.85,14.25-1.24,8.51,1.04,16.36-2.05,24.08-5.16,11.4-4.58,22.96-8.73,34.62-12.61,2.98-.99,3.8-.52,3.85,2.56,.13,6.98,.62,13.94,2.67,20.68,.83,2.71-.47,3.14-2.74,2.97-7.46-.56-14.93-.93-22.37-1.63-9.2-.86-18.29-.96-26.96,2.83-3.37,1.48-7,3.13-8.71,6.41-2.51,4.83-5.15,4.33-8.53,1.34-3.62-1.11-3.62-4.6-4.76-7.55-2.55,3.15-.07,5.28,1.13,7.62,0,2.07,3.37,3.46,1.19,5.96Z"/><path class="cls-77" d="M514.73,92.58c-2.73-2.9-4.08-6-1.18-9.56,.63-.78,1.59-1.44,2.59-1.08,1.43,.51,.5,1.57,.29,2.43-.76,3.17,1.56,5.16,2.88,7.54-.45,.02-.9,.05-1.35,.07-.36,0-.71,0-1.07-.01-.18-.13-.37-.26-.55-.39-.88-1.4-1.5-2.92-2.15-4.31,.2,1.41,1.53,2.6,1.36,4.24-.14,.46-.4,.82-.81,1.07Z"/><path class="cls-66" d="M536.86,313.02c10.89-1.97,21.83-1.32,32.76-.64,1.83,.11,3.61,.33,5.43,0,5.25-.94,7.42-5.79,4.56-10.27-.43-.68-.89-.82-1.61-.57-3.32,1.13-6.55,0-9.83-.31-2.82-.26-6.05-1.09-7.06,3.23-.39,1.66-2.23,1.77-3.78,1.73-3.99-.11-7.97-.23-11.96-.36-.49-.02-1.28,.07-1.43-.19-2.54-4.25-3.09-9.01-2.71-13.75,.29-3.65,3.47-4.03,6.45-3.89,2.14,.1,4.27,.46,6.41,.69,2.49,.28,5.21,1.37,5.8-2.78,.22-1.58,2.06-2.05,3.64-2.01,2.98,.08,5.97,.17,8.94,.42,3.93,.32,6.91,1.62,5.17,7.03,2.62-2.24,1.38-4.42,1.36-6.42,.32-.51,.64-.49,.96,0,1.62,4.75-.11,9.72,.97,14.56,.45,2.03,.2,4.22,.64,6.36,1.15,5.54-.47,7.47-6.31,8.02-5.65,.53-11.23-.48-16.83-.84-4.06-.27-5.37,1.14-4.61,5.01,.51,2.59,.79,5.22,1.18,7.83-.34,.36-.69,.39-1.05,.03-.16-.82-.18-1.69-.49-2.44-1.34-3.2,.68-7.83-2.42-9.76-2.84-1.77-6.79,.4-10.27,.24-1.32-.06-2.65-.1-3.98-.14,.02-.25,.03-.51,.04-.76Z"/><path class="cls-45" d="M580,284.91c-.32,0-.64,0-.96,0-3.04-5.42-8.22-4.3-12.81-3.69-5.44,.72-10.85,.92-16.3,.91,.02-.33,.03-.67,.05-1,1.36-.28,2.69-.01,2.52-2.48-.29-4.2,.19-8.46,.35-12.69,.41-.35,.84-.64,1.31-.9,4.23-.87,8.55-.89,12.7-.09,4.31,.83,6.53-.69,7.53-4.69,.37-.51,.83-.6,1.36-.27,1.48,4.57,2.07,9.27,1.34,14.01-.64,4.13,.9,7.54,2.91,10.88Z"/><path class="cls-67" d="M554.24,265.71c-.47,.08-.93,.17-1.4,.25-.63-4.41-1.43-8.8-1.83-13.22-.49-5.25,1.12-6.94,6.33-7.09,4.97-.14,10.35-.64,14.66,1.53,4.91,2.46,1.54,8.75,3.75,12.83-.36,0-.73,0-1.09,0-2.81-.96-2.87-3.54-2.98-5.74-.18-3.54-1.88-5.13-5.25-5.3-.2,0-.36-.06-.49-.09-10.9-1.95-12.45-.46-11.02,10.55,.28,2.14,.74,4.31-.67,6.27Z"/><path class="cls-62" d="M553.99,325.89c.35-.01,.7-.02,1.05-.03,2.88,9.56,5.77,19.13,8.65,28.7,.23,.76-.11,1.24-.75,1.59-3.67-9.88-6.73-19.94-8.96-30.25Z"/><path class="cls-25" d="M460.95,412.88c-1.54,3.69,1.32,7.47-.12,11.3-2.42-.33-3.63-2.05-4.19-3.87-1.86-6.04-3.63-12.12-5.06-18.28-.81-3.5,.84-6.79,3.28-9.05,10.21-9.44,12.19-20.88,11.38-34.38-.89-14.88,4.32-29.13,9.44-43.08,.41-1.13,.99-1.64,2.13-1.61,10.24,.77,20.45,2.01,30.75,1.56,1.09-.05,2.46-.29,2.59,1.48-7.95,13.42-17.06,26.12-24.14,40.07-5.65,11.14-9.36,22.65-8.42,35.37,.46,6.16-.61,12.26-1.6,18.33-.16,.98-.12,2.03-1.38,2.35-1.05,1.79-1.84,.82-2.63-.24-1.95-3.62-.88-7.75-1.51-11.85-2.23,1.24-3.22,2.99-4.41,4.53-.24,.39-.52,.76-.82,1.12-2.04,1.86-3.33,4.35-5.3,6.27Z"/><path class="cls-4" d="M474,413.38c.54-.11,1.07-.21,1.61-.32,2.7,2.5,3.72,5.83,8.25,7.6,6.17,2.41,15.05,3.28,16.7,12.5-4.31,1.75-8.21,4.15-11.68,7.24-.97,2.48-3.69,3.47-4.88,5.76-1.03,1.24-.99,3.64-3.51,3.27-3.52-1.89-6.55-4.01-4.2-8.74,.28-.56,.53-1.49,.27-1.9-2.98-4.51-1.08-10.61-5.27-14.89-3.2-3.26-5.57-7.34-8.31-11.05-2.02-3.59,2.22-4.57,2.93-7.02l-.05,.07c1.06-1.16,1.8-3.01,3.84-2.36,2.02,.64,2.58,2.54,2.6,4.33,.03,2.07,.72,3.8,1.7,5.51Z"/><path class="cls-64" d="M511.15,316.94c-3.62-1.76-7.47-.56-11.2-.79-7.41-.45-14.88-.29-22.14-2.25-.05-.28,.03-.52,.24-.72,11.26,.94,22.51,1.84,33.82,1.8,0,.74,.26,1.57-.72,1.95Z"/><path class="cls-3" d="M480.48,449.44c.82-1,1.63-2,2.45-3,1.74-1.87,3.17-4.13,5.95-4.7,3.81-2.24,7.18-5.25,11.94-7.06-.73,4.12-2.5,7.08-5.51,10.27-.22-1.77-.38-3.07-.54-4.37-1.45,3.02-1.41,7.53-6.76,4.5,.11,2.61,2.57,2.19,3.49,3.49-3.69,1.32-7.22,3.46-11.41,2.16,.13-.43,.26-.86,.39-1.29Z"/><path class="cls-35" d="M482.91,471.93c-18.76,.99-37.13,.2-52.97-11.87-.23-.17-.64-.1-.96-.14,.28-.66,.56-1.33,.84-1.99,13.52,10.89,29.47,13.08,46.1,12.86,2.31-.03,4.62-.01,6.94-.02,.02,.38,.04,.77,.06,1.15Z"/><path class="cls-65" d="M465.91,405.83c.07,2.78-3.82,3.9-2.93,7.02-.68,0-1.35,.02-2.03,.03,.68-3.03,2.26-5.44,4.96-7.05Z"/><path class="cls-80" d="M488.88,441.74c-1.98,1.57-3.96,3.13-5.95,4.7,.39-3.58,3.63-4.34,5.94-6.03,0,.44,0,.89,0,1.33Z"/><path class="cls-59" d="M879.26,434.78c2.29-.1,3.66,1.24,3.61,3.86-.06,2.84-1.54,5.01-4.39,4.96-2.76-.05-4.55-2.19-4.42-4.97,.13-2.72,2.14-3.89,5.19-3.85Z"/><path class="cls-25" d="M567.48,165.71c-1.11,.02-2.21,.04-3.32,.05-11.12-2.24-21.2-6.98-30.88-12.74-1.87-1.11-4.11-2.31-5.8-.22-.88,1.09-4.08,1.92-1.65,4.43-.54,.54-1.08,1.07-1.62,1.6-.31-.17-.65-.3-.93-.16-7.42,3.74-11.6,2.4-16.4-5.25-.92-.9-1.84-1.79-2.76-2.69-1.77-5.47-5.39-9.92-8.26-14.78,3.38-7.71,9.46-9.98,16.69-6.15,1.36,.72,2.65,1.52,4.2,.97,2.68-.94,5.69-1.74,2.27-5.43-1.01-1.09-2.87-2.55-1.7-4.17,.99-1.37,3.11-.85,4.71-.57,7.21,1.27,13.42,4.64,18.92,9.4,3.94,4.96,8.34,9.31,14.68,11.1,.66,.1,1.03,.47,1.13,1.13,4.29,7.49,6.11,16.11,10.71,23.46Z"/><path class="cls-78" d="M525.82,202.31c-6.08,7.04-9.26,15.7-13.44,23.81-.7,1.35-.58,3.3-2.5,3.88,2.05-8.77,7.18-16.11,11.19-23.97,1.03-2.02,2.9-3.65,2.93-6.15,.98,.53,1.62,1.32,1.82,2.43Z"/><path class="cls-33" d="M506.87,153.43c1.28,1.24,2.55,2.48,3.84,3.71,3.38,3.22,6.95,4.92,11.26,1.56,.71-.56,1.59-1.45,2.23,.14-7.13,5.29-14.64,2.94-17.33-5.41Z"/><path class="cls-20" d="M528.85,103.05c5.25-4.41,11.7-4.99,18.05-4.96,12.66,.07,24,3.87,32.95,13.33,.91,.96,1.96,1.81,2.11,3.26-9.67,3.58-17.94,9.27-24.95,16.8-6.08,6.51-10.33,5.76-14.24-2.55,.31-7.86-4.01-13.73-8.48-19.5-1.71-2.2-3.62-4.25-5.44-6.37Z"/><path class="cls-28" d="M514.73,92.58l.19-1.54c1.17-.71,1.44,.49,2.05,.97,0,0-.09-.05-.09-.05,.33,2.1,2.43,3.53,2.18,5.84-.73,.04-1.47,.08-2.2,.12,.77-2.37-1.36-3.6-2.13-5.36Z"/><path class="cls-4" d="M599.79,124.15c14.55,5.99,31.3,3.61,45.2,12.05,.66,.4,1.37,.7,2.41,1.23-14.05,3.25-36.16-4.94-47.61-13.27Z"/><path class="cls-82" d="M582.58,114.89c7.16-4.72,12.11-11.75,18.3-17.47,1.99-1.83,3.08-4.7,6.08-5.39-4.67,7.58-11.92,12.83-17.63,19.47-1.24,1.44-3.21,2.35-3.48,4.54-1.09-.38-2.18-.76-3.27-1.14Z"/><path class="cls-4" d="M557.48,234.72c-2.17,2.77-3.81,2.08-5.69-.51-4.6-6.32-9.36-12.53-14.15-18.71-1.16-1.49-1.89-3.69-4.4-3.58-.74-2.39-3.48-3.43-4.01-5.96-.27-1.86-.53-3.42,2.22-1.74,4.43,2.72,9,5.22,13.52,7.81,6.75,4.13,13.5,8.25,20.49,12.52-2.71,3.46-5.34,6.81-7.97,10.17Z"/><path class="cls-5" d="M560.71,166.89c-4.25,.54-5.6,3.07-4.86,7.05-9.91-.49-14.01-4.23-16.68-15.7,7.1,3.74,14.35,6.1,21.54,8.65Z"/><path class="cls-19" d="M556.76,142.25c-.38-.38-.75-.75-1.13-1.13-1.2-1.1-2.4-2.19-3.65-3.34,9.15-5.73,14.99-4.8,23.54,3.51,1,2.81,3.4,4.93,4.04,8.35-2.86-.33-5.58-.6-8.29-.96-3.74-.49-4.83,1.41-4.23,4.72,.6,3.35,1.33,6.67,1.58,10.16-5.59-6.25-4.71-16.03-11.86-21.32Z"/><path class="cls-46" d="M494.26,311.13q-8.39-.47-9.77-8.85c-1.29-7.81,.97-10.15,8.81-9.14,1.81,.23,3.61,.66,5.42,.73,3.06,.11,4.49,1.31,4.36,4.61-.08,2.1,.61,4.24,1.09,6.34,1.17,5.07,.19,6.36-4.93,6.33-1.66,0-3.32,0-4.98,0Z"/><path class="cls-73" d="M439.95,304.96c-.38-3.77-.67-7.56-1.16-11.32-.61-4.7,1.59-6.01,5.99-6,12.77,.03,13.26,.37,14.26,12.81,.32,4-1.84,5.8-5.32,5.14-4.63-.88-9.23-.37-13.83-.69l.05,.05Z"/><path class="cls-40" d="M516.98,92.02c-.68-.32-1.37-.65-2.05-.97-.53-2.01-2.86-3.81-.24-6.68-.08,3.11,1.69,5.15,2.29,7.65Z"/><path class="cls-4" d="M554.24,265.71c-.49-4.6-.97-9.2-1.46-13.8-.37-3.42,1.3-4.76,4.59-4.87,4.33-.15,8.56,.56,12.83,1.05,2.13,.24,2.71,1.43,2.66,3.37-.08,2.98,.13,5.93,1.8,8.56,.61,6.36-.55,7.6-6.61,6.44-4.59-.88-9.22-.29-13.81-.75Z"/><path class="cls-4" d="M575.52,267.46c1.47,11.61,1.41,11.68-9.37,12.38-1.32,.08-2.66,.11-3.97,.26-2.7,.32-6.49,2.23-7.8-.33-1.66-3.23-.81-7.49-.22-11.25,.33-2.09,2.38-1.24,3.74-1.37,5.9-.55,11.71,2.02,17.61,.3Z"/><path class="cls-65" d="M474,413.38c-1.86-1.29-1.85-3.3-2.28-5.27-.75-3.41-2.44-5.4-5.87-2.21,.01-.32-.1-.74,.06-.94,1.85-2.18,3.34-6.48,5.79-5.83,2.69,.71,1.42,4.94,1.17,7.59-.22,2.42,1.46,4.34,1.12,6.66Z"/><path class="cls-4" d="M492.21,294.9c1.89,.11,3.23,.11,4.55,.27,3.23,.39,5.1,1.36,5.17,5.51,.15,8.87,.52,8.94-8.18,8.28-2.18-.17-5.27,1.33-6.41-1.12-1.6-3.44-2.22-7.53-1.15-11.22,.97-3.34,4.42-.83,6.03-1.72Z"/><path class="cls-4" d="M449.21,303.65c-7.78-.63-10.08-3.58-9.08-11.56,.15-1.22,.31-2.5,1.64-2.76,4.48-.87,9.04-.59,13.26,.93,2.07,.75,.82,3.61,1.24,5.48,1.94,8.61,1.85,8.63-7.06,7.91Z"/></g></g></g></svg>