<svg width="23" height="32" viewBox="0 0 23 32" fill="none" xmlns="http://www.w3.org/2000/svg">
<path d="M3.50273 31.9965H0V22.3686C0.686207 22.3372 1.28365 22.2848 1.88109 22.2848C6.20659 22.2779 10.5287 22.2883 14.8542 22.2779C17.3668 22.2709 19.009 20.8227 18.9987 18.6696C18.9885 16.5304 17.3429 15.0857 14.82 15.0543C12.659 15.0264 10.4945 15.0438 8.33349 15.0543C7.08739 15.0578 6.13148 14.6076 6.17586 13.1978C6.21341 11.9206 7.10787 11.446 8.2891 11.4495C10.7369 11.46 13.1847 11.3867 15.6291 11.4705C19.4869 11.5996 22.5117 14.8275 22.5185 18.7115C22.5253 22.5989 19.504 25.764 15.5813 25.8478C12.1674 25.921 8.74999 25.9525 5.34285 25.8303C3.77584 25.7745 3.3491 26.3293 3.47883 27.8229C3.5949 29.142 3.50273 30.482 3.50273 32V31.9965Z" fill="#243A57"/>
<path d="M22.4675 0V9.57906C21.8189 9.61047 21.2214 9.65932 20.6206 9.66281C16.2985 9.66979 11.973 9.65583 7.65091 9.67328C5.1314 9.68375 3.50635 11.1389 3.53025 13.299C3.55415 15.3823 5.15188 16.8375 7.55873 16.8864C9.77781 16.9282 11.9969 16.9108 14.216 16.8933C15.3938 16.8829 16.3155 17.3121 16.3497 18.6033C16.3872 19.9817 15.4791 20.5016 14.2091 20.4947C11.7613 20.4807 9.31351 20.547 6.87252 20.4702C3.00109 20.3516 0.000212149 17.1376 0.00704008 13.2292C0.013868 9.42552 2.99767 6.22203 6.794 6.11734C10.3172 6.01963 13.8473 6.03359 17.3739 6.10338C18.6131 6.12781 19.1423 5.80327 19.0433 4.45278C18.9375 3.01505 19.0194 1.56336 19.0194 0H22.4675Z" fill="#243A57"/>
</svg>
