<?xml version="1.0" encoding="UTF-8"?><svg id="Layer_1" xmlns="http://www.w3.org/2000/svg" viewBox="0 0 62.96 64.62"><defs><style>.cls-1{fill:#fff;}</style></defs><path class="cls-1" d="m30.96,27.1c-1.93,0-3.71,0-5.48,0-.49,0-.97.04-1.44.2-1.2.41-1.91,1.35-1.98,2.63-.06,1.17.62,2.25,1.74,2.74.54.24,1.12.35,1.71.35,1.88,0,3.75,0,5.63,0,1.01,0,1.55.42,1.73,1.25.19.9-.28,1.63-1.18,1.85-.54.13-1.09.1-1.63.1-1.82-.01-3.63.04-5.45-.06-2.77-.16-5.2-2.45-5.6-5.2-.49-3.3,1.84-7.05,6.23-7.05,2.6,0,5.2,0,7.8,0,.33,0,.66,0,1,0,.74-.03.98-.26.98-1,0-1.11-.01-2.22-.01-3.34,0-.75.05-.79.8-.8.59,0,1.17,0,1.76,0,.36,0,.53.15.53.53,0,2.4,0,4.8,0,7.2,0,.42-.23.5-.59.53-2.23.18-4.45.01-6.53.09Z"/><path class="cls-1" d="m25.58,37.58c1.88,0,3.75,0,5.63,0,.47,0,.94-.05,1.4-.14,1.54-.3,2.43-1.48,2.37-3.08-.06-1.35-1.17-2.48-2.66-2.67-.6-.08-1.2-.12-1.81-.12-1.58.01-3.17.01-4.75,0-1.02-.01-1.56-.55-1.57-1.49-.01-.97.54-1.6,1.54-1.61,2.29-.03,4.58-.09,6.86.02,2.86.14,5.38,2.78,5.51,5.62.16,3.27-1.85,5.94-4.88,6.49-.41.07-.81.1-1.22.11-2.81.09-5.63.07-8.44,0-1.28-.03-1.58.26-1.53,1.53.04.99,0,1.99,0,2.98,0,.47-.14.68-.63.66-.64-.03-1.29-.02-1.94,0-.36,0-.55-.13-.55-.51,0-2.42,0-4.84,0-7.26,0-.49.33-.5.68-.5,1.99,0,3.99,0,5.98,0,0,0,0,0,0-.01Z"/></svg>