<svg xmlns="http://www.w3.org/2000/svg" width="24" height="24" viewBox="0 0 24 24" fill="none">
<path d="M6.48878 23.7344H4V16.8935C4.48757 16.8712 4.91207 16.834 5.33657 16.834C8.40994 16.829 11.4809 16.8365 14.5543 16.829C16.3396 16.8241 17.5064 15.7951 17.4991 14.2652C17.4918 12.7453 16.3226 11.7188 14.53 11.6965C12.9945 11.6766 11.4566 11.689 9.92116 11.6965C9.03578 11.699 8.35658 11.3791 8.38811 10.3774C8.41479 9.46991 9.05033 9.1327 9.88963 9.13518C11.6289 9.14262 13.3681 9.09055 15.1049 9.15006C17.846 9.2418 19.9951 11.5353 20 14.295C20.0048 17.0571 17.8581 19.306 15.0709 19.3655C12.6452 19.4176 10.2171 19.4399 7.79624 19.3531C6.68284 19.3135 6.37962 19.7077 6.4718 20.7689C6.55427 21.7062 6.48878 22.6583 6.48878 23.7368V23.7344Z" fill="black"/>
<path d="M19.9638 1V7.80618C19.5029 7.82849 19.0784 7.8632 18.6515 7.86568C15.5805 7.87064 12.5071 7.86072 9.43617 7.87312C7.646 7.88056 6.49136 8.91451 6.50834 10.4493C6.52532 11.9296 7.66055 12.9635 9.37068 12.9982C10.9474 13.028 12.5241 13.0156 14.1008 13.0032C14.9377 12.9957 15.5926 13.3007 15.6169 14.2181C15.6436 15.1975 14.9983 15.567 14.096 15.562C12.3567 15.5521 10.6175 15.5992 8.88311 15.5446C6.13235 15.4603 4.00015 13.1767 4.005 10.3997C4.00985 7.69708 6.12993 5.42092 8.82732 5.34653C11.3307 5.27711 13.8388 5.28702 16.3446 5.33661C17.2251 5.35397 17.6011 5.12338 17.5308 4.16382C17.4556 3.14227 17.5138 2.11081 17.5138 1H19.9638Z" fill="black"/>
</svg>