<svg width="101" height="107" viewBox="0 0 101 107" fill="none" xmlns="http://www.w3.org/2000/svg">
<g clip-path="url(#clip0_953:21)">
<path d="M50.1296 106.56C60.5696 106.56 69.3296 101.76 69.3296 95.4C69.3296 89.04 60.5696 84.2401 50.1296 84.2401C39.6896 84.2401 30.9297 89.04 30.9297 95.4C30.9297 101.76 39.6896 106.56 50.1296 106.56Z" fill="#E6007A"/>
<path d="M96.2103 79.82C101.49 70.82 101.73 60.8201 96.2103 57.7401C90.6903 54.6601 82.2102 59.6601 77.0102 68.7401C71.8102 77.8201 71.4902 87.82 77.0102 90.94C82.5302 94.06 90.9303 89.02 96.2103 79.78" fill="#E6007A"/>
<path d="M4.04952 79.82C9.32952 89.06 17.7295 94.2201 23.2495 90.9801C28.7695 87.7401 28.5295 77.9 23.2495 68.78C17.9695 59.66 9.56952 54.5 4.04952 57.78C-1.47048 61.06 -1.23048 70.8601 4.04952 79.8601" fill="#E6007A"/>
<path d="M77.0095 37.68C82.1695 46.92 90.6897 52.0801 96.2097 48.8401C101.73 45.6001 101.49 35.76 96.2097 26.64C90.9297 17.52 82.5295 12.36 77.0095 15.64C71.4895 18.92 71.7295 28.7201 77.0095 37.7201" fill="#E6007A"/>
<path d="M23.2495 37.68C28.5295 28.68 28.7695 18.68 23.2495 15.6C17.7295 12.52 9.32952 17.52 4.04952 26.6C-1.23048 35.68 -1.47048 45.68 4.04952 48.8C9.56952 51.92 18.0495 46.88 23.2495 37.64" fill="#E6007A"/>
<path d="M50.1296 22.32C60.5696 22.32 69.3296 17.52 69.3296 11.16C69.3296 4.79997 60.5696 6.10352e-05 50.1296 6.10352e-05C39.6896 6.10352e-05 30.9297 4.79997 30.9297 11.16C30.9297 17.52 39.6896 22.32 50.1296 22.32Z" fill="#E6007A"/>
</g>
<defs>
<clipPath id="clip0_953:21">
<rect width="100.26" height="106.56" fill="white"/>
</clipPath>
</defs>
</svg>
