<svg width="290" height="86" viewBox="0 0 290 86" fill="none" xmlns="http://www.w3.org/2000/svg">
<path d="M0 15C0 6.71573 6.69407 0 14.9783 0C36.1284 0 72.5612 0 75.9003 0C84.6975 0 90.0923 13.4494 96.624 13.4494C103.156 13.4494 161.297 13.4494 161.297 13.4494C161.297 13.4494 188.325 13.4494 197.378 13.4494C206.431 13.4494 208.139 0 216.756 0C235.64 0 259.722 0 275.007 0C283.291 0 290 6.71573 290 15V71C290 79.2843 283.284 86 275 86H195.538H164H125.733H15C6.71572 86 0 79.2843 0 71V15Z" fill="black"/>
<path d="M0 15C0 6.71573 6.69407 0 14.9783 0C36.1284 0 72.5612 0 75.9003 0C84.6975 0 90.0923 13.4494 96.624 13.4494C103.156 13.4494 161.297 13.4494 161.297 13.4494C161.297 13.4494 188.325 13.4494 197.378 13.4494C206.431 13.4494 208.139 0 216.756 0C235.64 0 259.722 0 275.007 0C283.291 0 290 6.71573 290 15V71C290 79.2843 283.284 86 275 86H195.538H164H125.733H15C6.71572 86 0 79.2843 0 71V15Z" fill="white"/>
</svg>
