<svg width="24" height="25" viewBox="0 0 24 25" fill="none" xmlns="http://www.w3.org/2000/svg">
<path d="M5.98795 5H18.0121C18.1452 4.99998 18.2764 5.03146 18.395 5.09187C18.5136 5.15227 18.6162 5.23988 18.6945 5.34755L21.9194 9.7813C21.9768 9.86019 22.005 9.95651 21.9993 10.0539C21.9936 10.1512 21.9543 10.2436 21.8882 10.3153L12.3096 20.6919C12.2337 20.7739 12.1284 20.8225 12.0167 20.8269C11.905 20.8313 11.7962 20.7913 11.714 20.7155C11.7081 20.7105 8.50851 17.2443 2.11179 10.3153C2.04566 10.2436 2.00641 10.1512 2.00072 10.0539C1.99503 9.95651 2.02325 9.86019 2.08058 9.7813L5.30551 5.34755C5.38378 5.23988 5.48641 5.15227 5.60502 5.09187C5.72363 5.03146 5.85485 4.99998 5.98795 5ZM6.41817 6.68712L4.0562 9.93482L12 18.5391L19.9438 9.93482L17.5818 6.68712H6.41817Z" />
</svg>
