<?xml version="1.0" encoding="UTF-8"?><svg id="Layer_2" xmlns="http://www.w3.org/2000/svg" viewBox="0 0 542.98 545.42"><defs><style>.cls-1{fill:#f3e16e;}.cls-2{fill:#010101;}.cls-3{fill:#fff;}.cls-4{fill:#efeff4;}.cls-5{fill:#c7c9d2;}.cls-6{fill:#080807;}</style></defs><g id="Layer_1-2"><g id="JZ1hOb.tif"><path class="cls-4" d="m399.2,513.39c-6.26,2.64-12.52,5.29-18.78,7.92-7.87,3.3-15.99,5.93-24.13,8.46-10.98,3.42-22.15,6.15-33.44,8.27-7.54,1.42-15.14,2.45-22.77,3.42-14.54,1.83-29.11,2.09-43.7,1.84-7.76-.13-15.49-.94-23.23-1.81-13.43-1.51-26.62-4.13-39.63-7.66-11.85-3.22-23.4-7.37-34.66-12.28-13.1-5.71-25.64-12.5-37.58-20.35-7.68-5.05-15.06-10.54-22.16-16.39-1.44-1.18-2.6-2.81-4.5-3.4.6-3.9,1.22-7.8,1.78-11.7.57-3.97,1.22-7.94,1.6-11.93.55-5.63.98-11.27,1.28-16.92.37-6.77-.17-13.53-.66-20.28-.22-3.01-.56-6.1.31-9.11,2.84,0,5.69,0,8.53,0,.07.17.14.34.2.51-.12.35-.02.47.33.32,5.82.04,11.64.12,17.46.11,25.21-.04,50.41-.12,75.62-.17,1.21,0,2.87-.51,2.47,1.77-.9.15-.45.96-.68,1.43-.27.07-.47.18-.36.52,0,.33,0,.67,0,1,.15.75-.94,1.26-.41,2.08-.5.54-.83,1.14-.6,1.91-.19,1.37-1.34,2.53-.95,4.04-.9.22-.55.9-.55,1.46l-.1.94c-.26.09-.52.18-.35.54-.04.33-.09.67-.13,1-.3.03-.51.15-.41.5.02.17.03.34.05.52-.35.62-.83,1.2-.55,1.99.19,1.63-1.2,2.88-1.09,4.49-.59.16-.51.57-.38,1.01-.21.83-.42,1.66-.63,2.49-.63.14-.48.59-.4,1.01-.03.33-.05.66-.08,1-.25.06-.54.11-.3.48-1.24,4.81-2.48,9.62-3.73,14.43-.3.08-.5.22-.33.57-.79,2.91-1.59,5.82-2.38,8.72-.82,1.13-.82,2.5-1.16,3.78-.65,2.39-1.59,4.74-1.86,7.17-.25,2.24-1.33,2.31-3.08,2.29-7.2-.07-14.4-.02-21.61-.02-1.17.32-2.71-.62-3.46,1.06-1.8.2-3.24.92-3.99,2.68-.76.1-.99.63-1.08,1.29-.71.24-.88.88-1.13,1.48-2.76,6.69-1.43,10.54,3.17,16.02,0,.31.12.5.47.4,4.39,2.86,9.33,2.18,14.15,2.18,71.37,0,142.73,0,214.1,0,1.83,0,3.66-.1,5.48-.16,1.99.07,3.98.14,5.97.21.46,1.11.95,2.21,1.38,3.34.49,1.27.88,2.93,2.75,3.1-.04.81-.07,1.62-.11,2.43Zm-203.93,13.83c.99.28,1.85.1,2.77.34,3.1.79,6.12,2.03,9.2,2.65,5.39,1.08,10.84,1.77,16.24,2.97,5.93,1.32,12.08,2.05,18.12,2.45,7.13.48,14.23,1.51,21.44,1.35,8.54-.19,17.1.08,25.62-.66,7.55-.66,15.11-1.39,22.53-3,6.74-1.46,13.41-3.21,19.76-5.98.59-.26,1.89-.52,1.29-1.63-.49-.9-1.29-.09-1.94.14-6.49,2.27-13.08,4.09-19.82,5.58-8.37,1.85-16.84,2.9-25.32,3.29-9.91.46-19.86.27-29.81-.23-7.64-.39-15.19-1.36-22.76-2.22-4.68-.53-9.31-1.49-13.95-2.3-7.01-1.21-13.94-2.83-20.85-4.53-1.35-.33-2.68-.25-2.54,1.78Z"/><path class="cls-2" d="m196.43,439.95c.21-.83.42-1.66.63-2.49.66-.14,1.14-.34.38-1.01-.11-1.61,1.28-2.86,1.09-4.49,1.29-.36,1.09-1.13.55-1.99-.02-.17-.03-.34-.05-.52l.41-.5c.04-.33.09-.67.13-1,.12-.18.23-.36.35-.54.03-.31.07-.63.1-.94.96-.19,1.2-.66.55-1.46-.38-1.51.76-2.66.95-4.04,1.2-.32.97-1.1.6-1.91-.54-.83.55-1.33.41-2.08.32-.05.71-.09.71-.5,0-.41-.38-.45-.71-.5-.12-.34.08-.45.36-.52,1.05-.09,1.33-.54.68-1.43.4-2.29-1.27-1.78-2.47-1.77-25.21.05-50.41.12-75.62.17-5.82.01-11.64-.07-17.46-.11-.05-.17-.16-.28-.33-.32-.07-.17-.14-.34-.2-.51.5-1.47,1.76-.99,2.76-1,30.45-.11,60.9-.2,91.34-.27,42.93-.1,85.85-.18,128.78-.26,11.06-.02,22.13-.05,33.19,0,.73,0,2.2-.85,2.15,1.03-.14.17-.28.34-.42.51-.64.8-1.52.38-2.29.41-2.71.09-5.43.09-8.15.13-2.49-.03-4.99.02-7.48-.11-1.81-.09-2.09.59-1.59,2.17,1.96,6.28,3.4,12.71,5.32,19.02,2.04,6.68,3.55,13.51,5.4,20.25,2.15,7.85,4.54,15.65,6.35,23.59.35,1.56,1.19,2.54,3.26,2.47,5.9-.2,11.82-.04,17.72-.09.75,0,1.65.46,2.29-.38.01-.16.09-.35.03-.48-3.56-9.09-5.86-18.57-8.27-27.98-1.8-7.03-3.2-14.2-4.09-21.43-.38-3.08-1.05-6.18-.91-9.24.13-2.8.06-5.57.03-8.36.66-1.2-.27-2.34-.14-3.53.49-4.31.94-8.62,1.4-12.92.09-2.22.52-4.4.72-6.6.29-3.21.57-3.19-2.63-3.19-65.39,0-130.77,0-196.16,0-1.25,0-2.49-.04-3.74-.11-4.43-.23-7.79-2.52-9.39-6.43-2.62-6.41-1.82-13.28-1.7-20.02,0-.58-.01-1.15-.02-1.73.03-.83.09-1.66.08-2.49-.24-22.05-.49-44.11-.74-66.16,0-.67-.03-1.33-.01-2,.01-.66-.03-1.53.83-1.56.95-.04,1.09.81,1.09,1.6,0,.42,0,.83,0,1.25.33,28.38.69,56.76.96,85.14.02,2.15.46,4.03,1.57,5.81-.1.35.09.49.4.53.62,1.03,1.51,1.79,2.48,2.48.04.32.16.52.52.4,2.62,1.79,5.56,1.44,8.53,1.44,64.46-.05,128.91-.03,193.37-.03,1.33,0,2.67-.09,3.99.02,1.43.12,1.97-.5,1.94-1.84-.07-2.63.86-5.09,1.34-7.62.91-4.8,2.05-9.56,3.09-14.34.88-3.33,1.77-6.67,2.65-10,.12-.2.23-.4.35-.6.88-3.29,1.76-6.59,2.64-9.88.65-.13,1.15-.33.39-1,.35-1.06.7-2.12,1.05-3.19,6.92,5.49,14.61,9.47,23.16,11.73,3.69.98,7.36,2.06,11.25,1.9.5.69,1.01.7,1.52,0,1.56.98,3.29.36,4.94.51.58,0,1.19.12,1.55-.52,1.22-.03,2.42.03,3.67-.22,4.64-.92,8.99-2.56,13.14-4.8.53-.1,1.07-.35,1.58.06.7,3.16,1.39,6.33,2.09,9.49-.54.35-.52.69.02,1.01.12,5.2,1.22,10.38.7,15.58-.6,5.97-.23,11.79,1.78,17.44,1.03,2.9.86,6.28,3.4,8.58-.29,1.66,1.07,2.68,1.65,3.98,1.98,4.42,4.48,8.58,7.36,12.49-.03.46.06.85.56,1,.1.13.2.26.3.38,7.25,11.86,15.57,23.02,23.02,34.75.08,2.01,1.7,3.21,2.63,4.74,1.48,2.42,2.79,4.92,4.09,7.44-.09.35.09.49.41.53.36.82.73,1.65,1.09,2.47-.09.35.1.49.41.52,2.75,5.3,4.62,10.97,6.88,16.47.61,1.48-.48,2.85-.55,4.31-1.93,3.83-4.72,6.87-8.35,9.15-1.6.75-3.05.6-4.61-.33-2.55-1.52-5.23-2.83-7.85-4.22-.08-.71-.5-.95-1.16-.85-2.4-.73-4.21-2.46-6.34-3.65-.17-.13-.35-.26-.52-.4-4.33-2.6-8.49-5.45-12.46-8.56-.17-.14-.35-.29-.52-.43-.37-.23-.75-.46-1.12-.69-.11-.13-.22-.27-.33-.4-.17-.14-.35-.28-.52-.42-6.01-4.61-11.53-9.74-16.48-15.48-.15-.17-.3-.34-.45-.51-1.18-1.5-2.36-3-3.54-4.5-.15-.16-.29-.33-.44-.49-2.99-4.21-5.52-8.69-7.58-13.43-.13-.19-.27-.37-.4-.56-.36-.84-.71-1.67-1.07-2.51-.13-.16-.26-.32-.39-.48-.37-1-.75-1.99-1.12-2.99-.13-.17-.26-.34-.39-.51-.37-1-.74-2-1.11-3-.13-.17-.25-.33-.38-.5-1.88-4.98-3.76-9.95-5.64-14.93-.13-.19-.25-.37-.38-.56-1.11-3.08-2.21-6.17-3.32-9.25-.91,3.09-1.49,6.11-1.74,9.16-.71,8.68.6,17.24,2.13,25.72,1.26,7.02,1.76,14.1,2.26,21.18.49,6.77.19,13.55-.3,20.36-.56,7.83-1.51,15.56-3,23.25-.39,1.8-.77,3.6-1.16,5.4-.3.09-.5.23-.35.58-.77,1.84-2.91.89-4.04,1.98-4.26.98-8.39.24-12.5-.9-1.87-.17-2.26-1.83-2.75-3.1-.43-1.13-.92-2.23-1.38-3.34-.27-2.27-1.09-3.09-3.2-1.42-.76.6-1.84.82-2.77,1.22-1.83.06-3.66.16-5.48.16-71.37,0-142.73,0-214.1,0-4.82,0-9.76.67-14.15-2.18-.16-.13-.32-.27-.47-.4-4.6-5.48-5.93-9.32-3.17-16.02.24-.59.42-1.24,1.13-1.48.9.02,1.07-.57,1.08-1.29.75-1.76,2.2-2.48,3.99-2.68,1.27.03,2.47-.18,3.46-1.06,7.2,0,14.41-.06,21.61.02,1.75.02,2.83-.05,3.08-2.29.27-2.43,1.21-4.78,1.86-7.17,1.42-.94,1.6-2.26,1.16-3.78.79-2.91,1.59-5.82,2.38-8.72.11-.19.22-.38.33-.57,1.24-4.81,2.48-9.62,3.73-14.43l.3-.48c.03-.33.05-.66.08-1,.66-.13,1.18-.31.4-1.01Zm-38.95,42.96c-.16.13-.32.26-.49.39-3.71,2.38-5.83,8.26-3.61,12.7,2.28,4.55,5.74,6.5,10.9,6.5,73.56-.08,147.12-.06,220.68-.06.83,0,1.67,0,2.49-.06,1.77-.12,3.37-.74,4.87-1.7.95-.61,1.16-1.36.75-2.33-2.1-4.98-3.73-10.13-5.34-15.27-.47-1.49-1.28-1.79-2.71-1.79-73.23.03-146.46.02-219.69.04-2.71,0-5.44.08-7.86,1.58Zm189.81-55.94c.78-.7.26-.88-.4-1.01-.03-.34-.05-.68-.08-1.01-.1-.15-.19-.3-.29-.46-.9-3.45-1.84-6.89-2.69-10.36-.39-1.6-1.06-2.26-2.92-2.25-23.13.12-46.27.11-69.4.16-21.05.04-42.11.14-63.16.15-1.64,0-2.49.38-2.94,2.09-2.04,7.75-4.05,15.52-6.36,23.21-2.21,7.35-4,14.82-6.04,22.23-1.79,6.5-3.66,12.98-5.51,19.51.43.06.68.12.92.12,57,0,114.01,0,171.01.05,2.13,0,2.11-.99,1.71-2.45-.78-2.83-1.6-5.65-2.41-8.48-2.3-8.01-4.67-16-6.89-24.03-1.61-5.79-3.04-11.64-4.55-17.46Z"/><path class="cls-2" d="m98.95,411.48c-.87,3.01-.53,6.1-.31,9.11.48,6.76,1.02,13.51.66,20.28-.3,5.65-.74,11.29-1.28,16.92-.39,3.99-1.03,7.96-1.6,11.93-.56,3.91-1.19,7.8-1.78,11.7-1.02,5.5-2.08,10.99-3.03,16.49-.23,1.31-.99,2-2.04,2.55-1.67,0-.83,1.19-.92,1.94-.21.8.13,1.25.91,1.4.67,0,1.34,0,2.01,0,2.85.96,4.47,3.49,6.69,5.25,1.68,1.34,3.21,2.88,4.8,4.32,0,.33.13.52.49.43,4.4,3.65,9.51,6.39,13.46,10.62,1.3,1.39,2.43,2.88,3.18,4.63.55,1.27.57,2.56-.16,3.79-.33.01-.5.17-.45.52l-.55.54c-.35-.06-.51.11-.53.44-6.17,4.02-12.9,4.16-19.83,2.86-2.21-.42-4.4-.95-6.61-1.43-.14-.69-.35-1.18-1.02-.36-5.23-1.18-10.52-2.13-15.66-3.61-3.44-.99-4.45-2.53-4.31-5.72.06-1.4.06-2.8.09-4.21.68-.13,1.18-.33.38-1.01-.38-3.97.58-7.84,1.17-11.7.22-1.42.89-2.83.88-4.38-.01-1.32.38-2.77-1.83-2.42-.72.11-.67-.53-.69-1.02-.14-6.15-1.28-12.25-1-18.43.69-1.26,1.12-2.5-.42-3.5.01-8.5-1.37-16.95-1.1-25.47.71-.84.91-1.57-.4-2.01-.72-13.49-1.43-26.97-2.15-40.46-.34-5.49-.68-10.98-1.01-16.47.49-3.38-.25-6.72-.42-10.07-.22-4.32-.74-8.62-.74-13.01-2.93,7.54-5.09,15.29-7.08,23.09-1.26,5.45-2.85,10.83-3.25,16.44-.72,1.78-.39,3.81-1.01,5.52-1.49,4.11-2.4,8.37-3.78,12.5-1.33,3.25-2.65,6.51-4.01,9.75-1.4,3.32-1.78,6.8-2.28,10.34-.32,2.29-.27,4.53-.28,6.76-.02,5.87-.4,11.74-.66,17.59-.4,9.16-.88,18.31-1,27.48-.13.13-.26.26-.39.4-2,1.75-1.24,4.12-.74,5.96,1.06,3.92,1.29,7.95,2.19,11.88.81,3.55,1.16,7.19,1.76,10.79.39,2.34.99,4.65,1.23,7,.39,3.89-2.44,6.11-7.74,6.47-5.24.37-10.46.59-15.68-.09-1.8-.24-3.48-.76-4.48-2.48-.14-.16-.27-.31-.41-.47-1.15-1.57-.51-3.31-.47-5,.7-.15,1.12-.39.33-1.02.38-1.83.76-3.65,1.13-5.48,1.02-.21,1.15-.72.51-1.5,0-.17,0-.34-.01-.51.14-.16.28-.32.41-.48.75-1.78.54-3.83,1.59-5.52.13-.18.25-.37.38-.55.04-.32.09-.63.13-.95.12-.18.24-.37.37-.55,1.04-3.41,2.71-6.51,4.67-9.47.6-.91,1.15-1.8.81-2.95.81-.74.7-1.25-.38-1.51.27-3.17-2.31-1.54-3.58-2.12-.07-.74.31-1.7-.91-1.88-.2-1.66-.41-3.32-.61-4.98.71-.84.91-1.57-.4-2.01-.69-5.29-1.44-10.57-2.03-15.87-.34-3.01-.42-6.05-.62-9.07.78-.83,1.02-1.56-.34-2.03-.03-1.66-.06-3.33-.09-4.99.73-.97,1.04-1.88-.41-2.5.17-7.32.33-14.65.5-21.97,1.46-.65,1.14-1.55.36-2.52.22-4.15.43-8.31.65-12.46,1.29-.41,1.11-1.14.45-1.99.01-1.34.03-2.67.04-4.01,1.54-1.03,1.11-2.26.36-3.52.19-4.78.16-9.58.63-14.33.58-5.87.5-11.78,1.36-17.64.38-2.6.02-5.31,0-7.96,1.13-4.09.31-8.34,1.04-12.48.28-1.6-1.14-1.11-1.85-.78-2.27,1.03-2.74.09-2.63-2.02.36-6.76.72-13.53.91-20.3.28-9.65.39-19.31.63-28.96.04-1.63-.24-2.75-1.86-3.62-1.57-.84-3-2.06-4.23-3.37-6.45-6.89-9.61-15.07-9.41-24.53.03-1.33-.06-2.67,0-4,.06-1.47-.65-1.22-1.52-.77-.5-.07-.99-.15-1.49-.22,0-.5.06-1.03-.47-1.35-.17-1.54-.02-3.05.55-4.5.5-.08.91-.24.85-.86-.05-.49-.44-.58-.83-.64.84-2.65,1.68-5.3,2.53-7.94.57-.39.33-1.03.48-1.55.12-.18.24-.37.36-.55-.17-1.48,1.27-2.49,1.15-3.95.12-.18.24-.36.35-.54,1.55-4.92,4.01-9.4,6.51-13.88,2.76-4.94,6.61-8.99,10.51-13.01,2.56-1.2,4.65-3.24,7.42-4.06.18-.13.37-.27.56-.4,3.04-.9,5.85-2.48,8.99-3.08.71.77.88.23,1-.41,3.57-.7,7.16-1.35,10.72-2.1,3.41-.72,5.29-2.94,5.77-6.33.16-1.11.4-2.46-1.51-2.27-.17-.12-.34-.24-.51-.37-1.14-.54-1.86-1.48-2.47-2.53-.12-.15-.25-.31-.37-.46-.48-1.3-.17-3.62-1.21-3.84-3.79-.77-3.99-3.34-3.92-6.26.06-2.31.06-4.74-1.2-6.66-1.63-2.49-2.36-4.91-1.19-7.73.12-.19.24-.37.36-.56.38-2.46,2.67-3.34,4.1-4.93l.41-.35c.54-.19,1.06-.41,1.61-.56,2.96-.8,6.05-1.07,8.94-2.17.77-.12,1.57-.19,2.05-.95,1.03.25,1.36-1.25,2.4-.96.17-.16.33-.31.5-.47.34-.92,1.39-.54,1.96-1.04.18-.13.36-.25.54-.38,2.98-1.09,5.97-.79,8.96-.09.05.3.17.5.53.41,1.15.25,2.08.9,3,1.58-.02.34.16.5.49.52.4.65.81,1.31,1.21,1.96-.12.4-.39.83.27,1.02,0,1.47,0,2.93,0,4.4-.31.08-.49.23-.36.58-.65,2.34-1.71,4.61-3.75,5.85-2.44,1.49-2.09,2.96-.72,4.76.65.85,1.39,1.63,2.15,2.39,1.83,1.82,1.78,2.91-.27,4.56-.34-.1-.47.06-.49.37,0,.2,0,.4,0,.6,0,.97,0,1.94,0,2.91,0,.2,0,.4,0,.59-.78,4.47-2.76,6.92-6.01,7.46-.86-.8-.9-.1-.99.53,0,5.13,2.57,7.56,8.45,8.01.18.58.62.42,1.03.35,4.72.47,9.06,1.96,12.93,4.74,3.02,2.6,6.04,5.2,9.06,7.81.97.96,1.59,2.3,2.97,2.81.56.75,1.2,1.41,2.04,1.86,3.99,4.06,7.96,8.14,11.98,12.16,1.16,1.16,1.46,2.29.43,3.65-.49.65-.89,1.4-1.48,1.94-.67.62-.6.92.23,1.1,2.16.46,4,2.05,6.37,1.78.4.38.75.89,1.43.61,2.66,0,5.32,0,7.98,0,4.86.01,9.31-1.47,13.56-3.7,6.56-3.03,11.89-7.7,16.97-12.71.15-.15.3-.3.44-.45.94-1.75,2.56-2.9,3.88-4.3,2.17-2.31,2.95-5.48,5.17-7.72.95-.07.99-.74.97-1.46,1.18-1.52,2.35-3.04,3.53-4.56.15-.17.29-.35.44-.52,1.71-2.28,3.58-4.39,5.99-5.98.17-.14.34-.29.51-.43.67-.52,1.34-1.04,2.01-1.56.16-.15.33-.3.49-.45.26-.2.51-.4.77-.59,2.22-1.63,2.62-1.48,3.28,1.17.11.45.55.81.36,1.34-.56.22-.44.62-.28,1.04l-.27,1.5c-.12.15-.24.29-.36.44-.67.85-1.33,1.71-2,2.56-.31.01-.5.13-.42.48-.86,1-1.72,2-2.58,3-.34,0-.51.15-.44.5l2.51,4.5c-.18,1.66.14,3.37-.45,5-1.89,4.26-5.05,6.75-9.8,6.99-.93.05-1.07.6-1.31,1.42-1.29,4.49-3.07,8.8-5,13.05-.31.03-.52.14-.4.5-3.52,7.8-8.67,14.38-14.95,20.14-2.76,2.53-6.19,4.05-9.18,6.22-2.82,1.03-5.64,2.05-8.46,3.08-2.4-.23-4.78.33-7.08.69-4.63.72-9.09.11-13.6-.56-3.16-.47-6.12-1.84-9.34-2.01-1.24-.02-1.65-1.74-3.02-1.49-.76-.18-.87.35-.97.89-.86.42-.43,1.33-.64,1.97-1.53,4.64-3.04,9.34-2.23,14.3.93,5.63.45,11.32.81,16.97.41,6.4.33,12.86.73,19.28,0,.66.02,1.33.02,1.99.11,9.32-.52,18.61-1.15,27.9-.11,1.59-.06,3.23-1.95,3.91-.22-.61-.63-.44-1.05-.27-1.63-.3-1.45.83-1.46,1.84-.03,3.98-.11,7.95-.1,11.93.02,5.71-.43,11.41-.07,17.12-.27,5.48-.31,10.97.06,16.45Zm-70.35,97.96c-.1.35-.57.93-.25,1,.83.18.64-.62.73-1.11.25-.32.45-.85.76-.92,1.93-.48,3.85-1.24,5.89-.65.95.28,1.42.11,1.38-.96-.03-.83-.08-1.67.01-2.49.16-1.44-.18-1.98-1.84-1.96-1.66.03-3.23.49-4.86.53-2.99.08-3.52.53-2.71,3.38.29,1.04-.09,2.33.88,3.17Zm53.43-33.03c.18-3.36,1.82-6.31,2.64-9.49.12-.18.25-.36.37-.54.57-2.66,2.05-4.92,3.27-7.28,1.89-3.66,3.86-7.27,5.83-10.88.42-.77.86-1.72.07-2.19-.98-.57-1.67.4-2.01,1.22-.79,1.9-2.23,3.44-3.04,5.26-2.38,5.38-5.45,10.46-7.19,16.15-.95,3.09-2.18,6.08-2.01,9.41.08,1.47.47,1.87,1.69.85,1.43-.64,1.12-1.55.37-2.51Zm.53,34.04c1.75-2.81,5.14-4.87,3.91-9.17-3.15.78-6.51.65-9.84.89-.69.05-.93.33-1.01,1.06-.54,4.71-.46,4.88,4.08,6.68.6.24,1.24.38,1.86.57.05.33.1.71.52.7.41-.01.45-.4.49-.73Zm-40.38,26.41c-.09-1.06-.11-2.14-.27-3.19-.91-5.84-1.89-11.66-2.78-17.51-.25-1.62-.66-2.96-2.53-3.24-.14-.18-.27-.35-.41-.53-.14-1.1.1-2.44-1.19-2.95-1.18-.47-4.45,1.16-5.05,2.16-.49.81-.62,2.07-1.79,2.19-1.21.13-.92-1.46-1.85-1.85-1.58,2.28-2.74,4.82-3.69,7.44-2,5.55-3.52,11.23-5.01,16.94-.71,2.73.92,5.44,3.69,5.52,6.06.17,12.12,1.1,18.17-.42,1.58-.4,2.62-.86,2.78-2.55,1.35-.71,1.36-1.38-.07-2.01Zm32.95-322.18c-2.86-2.34-5.79-4.66-5.54-8.92.07-1.2-.93-1.24-1.58-1.53-2.07-.92-4.02-1.99-5.36-3.87-.46-.65-1.68-1.37-.57-2.27,1.14-.93,1.55.43,2.04,1.04,3,3.64,7.44,4.62,10.46,2.57.17-.16.33-.33.5-.49.46-.68.75-1.42,1.06-2.18.99-2.39-.24-5,.89-7.34.18-.13.36-.26.54-.39,1.64-.82.43-1.54-.14-2.15-1.71-1.83-3.05-3.74-3.45-6.37-.3-1.94-1.62-3.61-3.18-4.88-1.86-1.5-3.75-.9-4.19,1.45-.44,2.36-1.94,3.54-4.02,3.79-2.75.32-2.7,1.71-1.98,3.74.93,2.63.5,3.4-2.18,4.32-2.69.93-3.4,3.52-1.09,5.2,1.82,1.33,1.87,2.81,1.83,4.61-.03,1.66.03,3.33-.01,4.99-.14,5.1-2.45,8.12-6.69,9.53,7.74,3.99,15.17,3.39,22.56-.37.23-.06.47-.11.7-.17-.2-.1-.39-.21-.59-.31Zm43.38,315.24c-.13-.18-.26-.37-.4-.55-1.35-2.97-3.83-4.94-6.23-6.97-3.79-3.21-8.27-5.53-11.84-9.05-.02-.64-.36-.95-.99-.96-2.28-2.05-4.58-4.09-6.85-6.15-1.2-1.09-2.28-1.01-3.48.07-1.67,1.52-3.18,3.18-4.36,5.09-.99,1.61-2.11,1.84-3.73,1.07-1.49-.72-3.04-1.32-4.6-1.9-1-.37-1.86-.19-1.95,1.09-.33,4.86-.67,9.72-.91,14.58-.09,1.86.91,3.06,2.73,3.68,1.54.53,3.14.94,4.69,1.32,6.91,1.7,13.91,3.02,20.85,4.61,5.44,1.25,10.37-.07,15.11-2.6,1.26-.68,2.44-1.56,1.94-3.33Zm-77.34-221.8c.63-.14,1.26-.08,1.92-.28,10.22-3.06,17.97-9.6,24.73-17.51,1.16-1.35,1.96-2.68,4.13-1.85.9.34,2.08.06,3.17-.13,6.19-1.07,11.46-4.16,16.64-7.43,1.21-.76,2.79-1.45,3.03-3.19-5.59-.94-10.71,1.29-15.99,2.11-5.47.86-7.99-.27-9.28-5.51-.24-.98-.46-2.19-1.96-2.84.02,3.45.33,6.59,1.25,9.64.32,1.06.38,1.56-.85,2.02-7.62,2.85-15.37,4.97-23.61,4.34-4.38-.34-8.21-2.03-11.5-5.03-4.96-4.52-6.55-10.47-7.18-16.78-.18-1.81-.78-1.9-2.11-1.26-1.15.56-2.26,1.18-3.42,1.7-4.31,1.92-8.65,3.8-12.96,5.73-.79.35-1.52.68-1.6,1.9-.47,7.44.5,14.72,4.28,21.11,5.96,10.09,17.94,15.95,29.75,13.71.6.12,1.21.31,1.56-.45Zm145.89-79.46c.13-.19.25-.38.38-.58.33-2.75.04-5.29-2.46-7.06,0-.62,0-1.24,0-1.86.69-.83,1.38-1.67,2.07-2.5.15-.16.29-.32.44-.48.69-.84,1.37-1.68,2.06-2.52l.44-.49c.45-.81,1.26-1.45,1.18-2.5.99-.27,1.07-1.05.57-1.63-.61-.71-1.1-.26-1.26.54-4.19,2.93-7.82,6.41-10.83,10.59-4.49,6.25-8.38,12.95-14.05,18.35-6.3,5.99-13.17,11.08-21.4,13.88-8.55,2.91-17.2,2.38-25.65-.85l-.55-.4c-2.02.39-2.19,2.47-3.27,3.7-3.08,3.48-5.42,7.38-5.68,12.21-.27.08-.53.17-.35.55-.05.33-.09.67-.14,1-.64.15-.53.57-.36,1.01-.19.89-.17,1.9-.61,2.64-1.26,2.11-.25,3.19,1.62,3.72,6.28,1.79,12.52,3.72,19.2,3.62,7.7-.11,14.99-1.54,21.68-5.49.14-.11.28-.22.42-.33.18-.05.36-.11.54-.16.15-.12.31-.24.46-.36.65-.39,1.31-.77,1.96-1.16.18-.14.36-.29.54-.43,8.55-6.6,14.47-15.14,18.58-25.03.13-.18.26-.36.39-.54.71-1.98,1.41-3.97,2.12-5.95.13-.18.25-.36.38-.54.02-.33-.05-.69.06-.98.92-2.29,1.1-4.79,4.96-4.67,2.94.09,5.62-1.98,6.58-5.3Zm-116.9,23.48c.14-.12.27-.24.41-.36,13.73-.04,27.46-.05,41.2-.15,1.14,0,1.35.65,1.61,1.64,1.75-2.43,3.25-4.63,4.89-6.72.92-1.16.77-1.86-.26-2.89-6.73-6.8-13.49-13.59-20.7-19.88-3.66-3.19-7.26-6.44-12.36-7.52-3.56-.75-6.48-1.03-10.01.96-7.57,4.26-15.56,3.84-23.36.01-1.36-.66-2.63-1.09-4.4-.72-2.33.49-4.62,1.12-6.92,1.67-10.2,2.42-18.58,7.47-24.42,16.46-7.03,10.82-10.89,22.81-13.77,35.57,2.48-.41,4.81-.19,6.88-1.23,5.22-2.61,10.83-4.34,15.93-7.23,2.24-1.27,2.73-.76,2.76,1.97.02,1.96-.12,3.91.48,5.86,1.58,5.11,3.32,10.05,8.24,13.06,7.87,4.81,15.95,3.02,24.07.93.66-.17.57-.65.69-1.13.83-3.12,1.71-6.22,2.57-9.33.6-.11,1.17-.24.47-.98.7-2.5,1.42-5,2.1-7.51,1.13-4.22,2.1-8.49,3.92-12.5Zm31.39,43.24c-.7.37-.94.83-.95,1.45-.04,2.57-1.19,3.47-3.89,3.42-10.9-.17-21.8-.01-32.71-.12-2.21-.02-3.89.59-5.64,1.94-6.72,5.16-14.13,8.66-22.8,9.02-4.65.2-8.89-1.37-13.18-2.69-1.25-.38-1.31-.06-1.23.83.36,3.74-.49,7.41-.52,11.13-.06,6.67-.19,13.34-.31,20.01-.09,5.33-.23,10.65-.32,15.97-.01.81-.46,2.02,1.28,1.49,3.4-1.05,6.9-1.52,10.45-1.89,9.47-1.01,18.74.34,28,1.94,5.38.93,10.58,2.65,15.86,4,5.7,1.46,11.68.91,17.55.66,2.37-.1,4.78.32,7.15-.43.84-.27,1.25-.44,1.33-1.37.45-5.36.84-10.71.95-16.09.29-14.94-.54-29.85-1-44.77-.05-1.47,0-2.94,0-4.51Zm-64.61,147.07c-.83,0-1.66-.04-2.49.02-.49.03-1.27-.34-1.32.62-.04.92.48,1.36,1.38,1.36,1.58,0,3.16,0,4.73,0,.8,0,1.26-.41,1.32-1.17.09-1.13-.81-.78-1.39-.82-.74-.05-1.49-.01-2.24-.01Z"/><path class="cls-4" d="m299.36,5.4c7.47-.01,14.92-.61,22.4-.56,13.43.1,26.82.49,40.19,1.97,10.36,1.14,20.64,2.64,30.75,5.11,9.84,2.41,19.5,5.41,28.21,10.81,6.04,3.74,10.82,8.44,12.16,15.84.91,5.04.38,10.02-.34,15.01-9.41.11-18.83.22-28.24.33-2.92.19-5.9-.71-8.76.5-3.46-1.47-7.07-1.72-10.8-1.7-12.56.07-25.13-.03-37.69-.06-.49-5.57.76-11.15-.82-16.76-1.84-6.56-5.81-9.58-12.26-9.57-10.06.02-20.12-.05-30.18.05-2.09.02-2.68-.58-2.64-2.65.13-6.18.4-12.4-1.99-18.32Z"/><path class="cls-1" d="m537.67,356.53c-.03,11.21-.36,22.42-.01,33.62.39,12.55-7.47,22.31-22,22.88-1.49-.25-2.97-.49-4.46-.74,4.28-1.04,8.01-3,11.16-6.15,4.81-4.81,5.63-10.91,5.63-17.19.04-104.36.03-208.73,0-313.09,0-2.31,0-4.67-.47-6.91-1.81-8.76-7.98-14.65-16.81-15.75,7.27-1.14,14.29-.48,20.1,4.38,3.17,2.64,5.6,6.39,6.36,10.4.5,2.65.39,5.65.39,8.5,0,59.14,0,118.28,0,177.42,0,1.91.06,3.82.09,5.74-.03,1-.08,1.99-.08,2.99,0,27.39,0,54.78,0,82.16,0,3.91.05,7.82.08,11.73Z"/><path class="cls-1" d="m299.36,5.4c2.39,5.92,2.12,12.14,1.99,18.32-.04,2.07.55,2.67,2.64,2.65,10.06-.1,20.12-.03,30.18-.05,6.45-.01,10.42,3.01,12.26,9.57,1.57,5.6.33,11.19.82,16.76-.65,0-1.3,0-1.95,0-.03-1.76-.07-3.52-.1-5.28.03-2.49.23-5,.06-7.48-.45-6.65-2.96-11.63-11.68-11.61-72.03.14-144.07.08-216.1.08-.83,0-1.67-.03-2.49.02-4.84.32-8.51,4.15-8.54,8.96-.02,3.33.03,6.65.05,9.98.1,15.54.05,31.08.35,46.62.47,23.68.48,47.38.72,71.06.05,5.15.18,10.3.26,15.44.26,16.79.17,33.59.21,50.38-.84-.45-1.48-1.11-2.04-1.86.05-1.16.15-2.32.14-3.48-.2-21.44-.39-42.87-.63-64.31-.06-5.31-.26-10.62-.4-15.93-.02-3.66-.03-7.31-.05-10.97-.05-7.63-.09-15.27-.14-22.9-.02-4.05-.03-8.1-.05-12.15.13-5.78.31-11.55-.73-17.28.75-.54.51-1.35.5-2.05-.06-7.86-.15-15.71-.23-23.57.18-4.37-.08-8.72-.35-13.08-.03-.67-.05-1.35-.08-2.02.02-.14.02-.28,0-.42.05-.03.15-.08.15-.1-.04-.1-.09-.19-.14-.29.12-7.74,2.89-12.03,8.96-13.74,2.27-.64,4.63-.34,6.95-.34,58.18-.02,116.37-.02,174.55-.02q5.04,0,4.89-5.01c0-3,.18-6-.03-8.98-.4-5.68-3.46-10.54-10.19-9.96-2.06.18-4.16-.03-6.24-.03-39.7,0-79.4,0-119.1,0-31.04,0-62.09,0-93.13,0-6.47,0-10.14,3.74-10.13,10.25,0,2.91.03,5.82.05,8.74-.02,1.08-.05,2.16-.05,3.24.06,30.94-.03,61.87.42,92.81.02,1.12.38,2.33-.41,3.37-2.5,0-1.85-1.92-1.86-3.24-.09-15.37-.11-30.74-.16-46.11-.01-.19-.02-.37-.03-.56,0-.46.01-.92.02-1.38,0-4.85,0-9.7,0-14.54-.01-.19-.03-.37-.04-.56,0-.34-.02-.67-.03-1.01.08-.14.1-.3.06-.45,0-13.64,0-27.29,0-40.93,0-5.52,3.72-10.29,9.06-11.46,1.53-.34,3.13-.47,4.7-.47C143.44,0,214.58-.02,285.72.05c3.75,0,7.58.08,10.9,2.59,1.1.83,1.42,2.27,2.73,2.77Z"/><path class="cls-4" d="m430.73,436.45c.36.84.71,1.67,1.07,2.51-.09.35.09.5.4.56,2.05,4.74,4.58,9.22,7.58,13.43-.06.35.12.48.44.49,1.18,1.5,2.36,3,3.54,4.5-.06.35.14.48.45.51,4.95,5.74,10.47,10.87,16.48,15.48.03.33.16.52.52.42.11.13.22.27.33.4-4.47,2.69-8.36,6.17-12.56,9.22-9.32,6.75-19.07,12.8-29.02,18.56-.85.49-1.73.92-2.6,1.38,1.49-7.69,2.43-15.42,3-23.25.49-6.81.79-13.59.3-20.36-.51-7.07-1-14.15-2.26-21.18-1.53-8.48-2.84-17.04-2.13-25.72.25-3.05.84-6.06,1.74-9.16,1.11,3.08,2.21,6.17,3.32,9.25-.11.35.07.5.38.56,1.88,4.98,3.76,9.95,5.64,14.93-.12.36.08.47.38.5.37,1,.74,2,1.11,3-.12.35.08.48.38.51.37,1,.75,1.99,1.12,2.99-.12.36.09.46.39.48Z"/><path class="cls-2" d="m510.72,53.21c8.83,1.1,15,6.99,16.81,15.75.46,2.24.47,4.6.47,6.91.02,104.36.03,208.73,0,313.09,0,6.28-.82,12.38-5.63,17.19-3.15,3.15-6.89,5.11-11.17,6.15-8.66.05-17.31.11-25.96.15-.73,0-1.56.15-1.64-.96.41-1.37,1.56-1,2.5-1,7.65-.03,15.3-.04,22.95-.02,1.64,0,3.2-.37,4.72-.86,6.25-2.01,12.06-8.48,11.97-16.09,1.47-.71,1.1-1.61.26-2.56.01-.67.03-1.33.03-2,0-104.53,0-209.05,0-313.58,0-.67-.02-1.33-.03-2,.93-.69.88-1.21-.26-1.56.18-5.33-2.63-9.4-6.18-12.78-3.29-3.13-7.69-4.17-12.22-4.14-24.88.18-49.77.38-74.65.59-8.74.07-17.48.21-26.21.29-1.2.01-2.84.33-1.96-1.88,9.41-.11,18.83-.22,28.24-.33,22.63-.22,45.27-.44,67.9-.67,3.37-.03,6.73-.09,10.08.29Z"/><path class="cls-4" d="m483.59,411.48c.08,1.12.91.97,1.64.96,8.65-.05,17.31-.1,25.96-.15,1.49.24,2.98.49,4.46.74-.42,2.02-1.89,3.46-2.95,5.1-6.68,10.33-14.01,20.17-22.51,29.09-.28.29-.45.69-.66,1.04-7.45-11.73-15.77-22.89-23.02-34.75.17-.34.07-.46-.3-.38-.51-.15-.6-.54-.56-1,.64-.96,1.64-.62,2.51-.63,5.15-.03,10.3-.02,15.45-.02Z"/><path class="cls-4" d="m2.13,272.71c.86-.45,1.58-.7,1.52.77-.05,1.33.03,2.66,0,4-.2,9.46,2.96,17.64,9.41,24.53,1.22,1.31,2.66,2.53,4.23,3.37,1.62.87,1.9,1.99,1.86,3.62-.24,9.65-.35,19.31-.63,28.96-.2,6.77-.55,13.53-.91,20.3-.11,2.11.35,3.06,2.63,2.02.72-.33,2.13-.82,1.85.78-.73,4.14.1,8.39-1.04,12.48-2.18-1.9-2.46-4.75-3.34-7.22-4.4-12.31-7.8-24.92-10.42-37.71-1.67-8.14-2.77-16.4-3.72-24.68-1.2-10.39-1.52-20.78-1.43-31.21Z"/><path class="cls-4" d="m22.63,223.72c-3.89,4.02-7.74,8.06-10.51,13.01-2.5,4.48-4.96,8.96-6.51,13.88-.28.07-.5.19-.35.54.12,1.46-1.31,2.47-1.15,3.95-.31.06-.5.2-.36.55-.16.52.09,1.16-.48,1.55-1.24-2.04-.15-4.18,0-6.18.55-6.74,1.53-13.44,2.86-20.08,3-14.99,7.39-29.54,13.8-43.45.34-.73.54-1.4,1.51-1.27.04.91.13,1.82.13,2.73.01,7.99,0,15.98.02,23.98,0,.92-.41,2.09,1.03,2.45v8.36Z"/><path class="cls-4" d="m48.71,429.48c1.38-4.13,2.29-8.39,3.78-12.5.62-1.71.28-3.74,1.01-5.52,4.17,0,8.33.02,12.5.02.72,13.49,1.43,26.97,2.15,40.46-.05.5-.11,1-.16,1.51-2.61-1.59-4.02-4.28-5.9-6.52-4.41-5.28-8.29-10.96-12.27-16.56-.29-.41-.53-.85-1.11-.89Z"/><path class="cls-2" d="m22.62,215.36c-1.43-.36-1.02-1.53-1.03-2.45-.02-7.99,0-15.98-.02-23.98,0-.91-.08-1.82-.13-2.73.04-1.49.13-2.99.13-4.48.03-37.03.03-74.06.09-111.09.01-7.67,7.49-16.04,15.51-17.25,6.95-1.04,13.94-.38,20.92-.4.13.12.25.24.38.36,0,.34.02.67.03,1.01-.14.15-.28.3-.42.45-5.57.03-11.14.03-16.7.11-3.57.06-7.02.74-9.95,2.92-5.83,4.35-8.08,10-8.04,17.45.26,45.9.13,91.81.13,137.71,0,.89.23,1.89-.89,2.36Z"/><path class="cls-6" d="m509.17,488c.66-2.76,1.21-2.98,3.98-2.33,5.7,1.34,10.44,4.45,15.11,7.77,2.06,1.46,2.41,3.4,1.55,5.45-3.51,8.33-7.79,16.19-14.14,22.79-3.15,3.27-6.26,6.46-10.47,8.45-3.08,1.46-6.23,1.94-9.53,1.68-3.03-.24-4.78-3.34-3.64-6.07,2.2-5.27,3.97-10.65,3.66-16.5-.13-2.48.07-4.99-.11-7.47-.13-1.85.41-3.05,2.17-3.66,2.48-.04,4.97,0,7.45-.14,2.67-.14,4.12-1.6,4.2-4.26.05-1.9-.15-3.8-.24-5.7Zm-13.26,35.18c4.5-2.71,7.3-6.7,8.77-11.7.6-2.04,2.67-2.89,4.1-1.65.65.57,1.1,1.38,1.62,2.08.83-.14.9-.95,1.34-1.4,4.83-4.91,7.59-10.99,9.8-17.38.32-.93.15-1.75-.62-2.17-2.61-1.44-5.27-2.79-8.2-3.48-1.23-.29-1.58.31-1.5,1.49.11,1.74.11,3.49.08,5.23-.03,2.37-1.2,4.03-3.32,5.08-2.74,1.36-5.69.7-8.54.91-1.27.09-2.05.2-1.78,1.78,1.19,7.13-.22,14.02-2.07,20.86-.08.14-.15.29-.23.43.18-.02.36-.05.54-.07Zm11.34-12.2c-4.24,9.34-5.77,11.26-11.71,14.75-.91.54-2.31.93-1.84,2.23.44,1.22,1.56,1.91,3.09,1.95,5.03.11,9.24-1.83,12.92-5.03,7.49-6.5,12.92-14.53,16.85-23.57,2.29-5.27,2.14-5.34-1.21-7.47-1.16-.74-1.91-.81-2.4.87-1.78,6.12-4.98,11.5-8.91,16.47-2.86,3.62-4.18,3.64-6.8-.21Z"/><path class="cls-4" d="m537.67,356.53c-.03-3.91-.08-7.82-.08-11.73,0-27.39,0-54.78,0-82.16,0-1,.05-1.99.08-2.99,1.63,3.5,1.8,7.34,2.4,11.05,1.46,8.97,2.11,18.02,2.68,27.1.58,9.31-.05,18.5-.52,27.76-.49,9.6-2.15,19.01-3.62,28.47-.14.89-.32,1.79-.93,2.52Z"/><path class="cls-6" d="m412.89,519.49c3.02-1.94,4.02-1.58,5.45,1.75,2.36,5.51,3.08,11.28,2.93,17.21-.04,1.73-1.17,2.59-2.47,2.99-3.89,1.21-7.83,2.22-11.86,2.91-5.31.92-10.65,1.26-16.01.96-6.41-.35-12.59-1.5-17.17-6.66-.97-1.1-1.78-2.28-2.22-3.71-.71-2.31-.05-3.75,2.22-4.62,4.58-1.76,9.21-3.44,13.33-6.18,2.55-1.7,4.92-3.62,6.75-6.11,1.32-1.79,2.95-2.18,4.93-1.19,1.51,1.74,2.99,3.5,4.53,5.21,1.04,1.16,2.13,1.72,3.94,1.42,2.68-.44,3.92-2.46,5.64-3.99Zm-34.36,11.27c.64.72,1.28.92,2,1.1,3.69.96,7.24.43,10.74-.83,5.04-1.82,6.05-1.04,5.2,4.24,7.37.37,14.36-1.09,21.14-3.79,1.06-.42,1.27-1.24,1.09-2.2-.27-1.43-.52-2.87-.97-4.24-1.86-5.56-1.93-5.56-6.2-1.7-3.51,3.18-7.09,2.99-10.19-.54-.98-1.11-2.04-2.16-2.9-3.36-1.03-1.42-1.82-1.28-2.91-.05-2.67,3.05-5.9,5.44-9.26,7.67-2.37,1.57-5.15,2.27-7.74,3.7Zm40.59,2.36c-.62.22-1.01.33-1.38.48-6.53,2.58-13.31,3.85-20.34,3.77-2.28-.03-3.33-1.32-2.85-3.44.11-.46.54-1.02.1-1.36-.54-.42-1.24-.29-1.88.01-5.53,2.63-11.07,2.19-16.57-.06-.97-.4-2.04-.82-2.66-.05-.68.84-.23,1.92.36,2.94,3.33,5.77,9.07,7.3,14.89,7.8,8.46.73,16.88-.4,25.13-2.46,5.56-1.39,5.55-1.45,5.18-7.64Z"/><path class="cls-1" d="m412.89,519.49c-1.73,1.53-2.97,3.55-5.64,3.99-1.82.3-2.9-.26-3.94-1.42-1.54-1.71-3.02-3.47-4.53-5.21.29-1.13.64-2.26.43-3.46.03-.81.07-1.62.11-2.43,4.11,1.14,8.24,1.88,12.5.9-.03,2.6.73,5.08,1.08,7.63Z"/><path class="cls-1" d="m509.17,488c.09,1.9.29,3.8.24,5.7-.07,2.67-1.52,4.13-4.2,4.26-2.48.13-4.97.1-7.45.14.08-1.65-1.07-2.82-1.63-4.23,3.63-2.28,6.42-5.31,8.35-9.15,1.54,1.12,2.77,2.68,4.69,3.27Z"/><path class="cls-6" d="m455.18,10.18c.01,2.78-2.85,5.67-5.65,5.7-2.69.03-5.3-2.55-5.33-5.27-.04-3.23,2.38-6.23,5-6.21,3.41.02,5.96,2.49,5.98,5.77Zm-5.23-3.28c-2.59-.02-3.77.96-3.73,3.11.03,2.11,1.27,3.36,3.34,3.4,2.1.04,3.58-1.24,3.66-3.17.09-2.11-1.1-3.32-3.27-3.34Z"/><path class="cls-6" d="m460.88,24.87c.58,0,1.16-.03,1.74,0,.59.04,1.5-.43,1.56.61.05.79-.43,1.4-1.38,1.39-1.58,0-3.15-.03-4.73,0-.69.01-1.22-.34-1.26-.9-.05-.77.58-1.1,1.32-1.11.91,0,1.82,0,2.74,0h0Z"/><path class="cls-6" d="m465.07,16.64c1.97-.68,2.8-.16,2.62,1.85-.1,1.07-.04,2.16-.01,3.24.02.85-.38,1.17-1.2,1.19-.96.03-.75-.64-.79-1.19-.14-1.69.43-3.45-.62-5.09Z"/><path class="cls-6" d="m465.65,31.36c0-.74-.03-1.48.01-2.22.03-.52-.15-1.26.78-1.19.78.05,1.19.52,1.21,1.28.03,1.4.02,2.8.01,4.2,0,.85-.36,1.48-1.29,1.43-1.05-.05-.65-.95-.71-1.52-.07-.65-.02-1.32,0-1.97Z"/><path class="cls-6" d="m472.02,26.38c-.83-.86-3.1,1.42-3.13-.88-.02-1.28,2.19-.43,3.38-.61.81-.13,1.65-.02,2.48-.02.53,0,.99.05.96.78-.03.7-.47.75-1,.74-.83-.01-1.65,0-2.68,0Z"/><path class="cls-6" d="m19.05,413.46c.76,1.26,1.18,2.49-.36,3.52.07-1.18-.54-2.43.36-3.52Z"/><path class="cls-6" d="m69.65,479.42c1.54,1,1.1,2.24.42,3.5-.91-1.08-.37-2.32-.42-3.5Z"/><path class="cls-6" d="m16.7,459.94c1.44.62,1.13,1.53.41,2.5-.88-.71-.36-1.66-.41-2.5Z"/><path class="cls-6" d="m17.56,435.44c.79.97,1.1,1.87-.36,2.52.05-.85-.5-1.79.36-2.52Z"/><path class="cls-4" d="m91.55,503.81c-.67,0-1.34,0-2.01,0,.67-1.33,1.34-1.32,2.01,0Z"/><path class="cls-6" d="m18.65,420.99c.66.84.85,1.58-.45,1.99.05-.69-.5-1.51.45-1.99Z"/><path class="cls-6" d="m17.2,467.43c1.36.47,1.12,1.21.34,2.03-.8-.56-.32-1.34-.34-2.03Z"/><path class="cls-6" d="m67.99,453.45c.05-.5.11-1,.16-1.51,1.31.43,1.12,1.17.4,2.01-.19-.17-.38-.33-.56-.5Z"/><path class="cls-4" d="m88.63,502.4c.09-.75-.74-1.94.92-1.94-.09.75.31,1.73-.92,1.94Z"/><path class="cls-6" d="m20.2,494.4c1.31.43,1.12,1.17.4,2.01-.92-.51-.36-1.32-.4-2.01Z"/><path class="cls-6" d="m21.21,501.39c1.22.18.84,1.14.91,1.88-1.02-.28-1.05-1.04-.91-1.88Z"/><path class="cls-6" d="m25.69,505.39c1.08.26,1.2.77.38,1.51-.77-.34-.38-.98-.38-1.51Z"/><path class="cls-6" d="m.74,265.13c.39.07.78.15.83.64.07.62-.35.78-.85.86,0-.5.01-1,.02-1.5Z"/><path class="cls-6" d="m17.72,527.88c.64.78.51,1.29-.51,1.5-.32-.66.32-1,.51-1.5Z"/><path class="cls-6" d="m.17,271.14c.53.32.46.85.47,1.35-.83-.22-.69-.77-.47-1.35Z"/><path class="cls-6" d="m91.03,535.42c.67-.81.88-.33,1.02.36-.41.08-.85.22-1.02-.36Z"/><path class="cls-6" d="m16.07,534.85c.79.63.37.87-.33,1.02-.16-.42-.26-.83.33-1.02Z"/><path class="cls-6" d="m482.51,488.47c.66-.09,1.09.15,1.16.85-.78.24-1-.27-1.16-.85Z"/><path class="cls-6" d="m71.53,520.86c.79.68.3.88-.38,1.01-.08-.42-.21-.85.38-1.01Z"/><path class="cls-6" d="m16.22,540.86c.14.16.27.31.41.47-.31,0-.5-.12-.41-.47Z"/><path class="cls-4" d="m496.65,460.96c-.32-.03-.5-.17-.41-.53.14.18.27.35.41.53Z"/><path class="cls-4" d="m498.15,463.95c-.32-.03-.5-.16-.41-.52l.41.52Z"/><path class="cls-6" d="m462.67,475.43c.17.14.35.29.52.43-.35.07-.5-.1-.52-.43Z"/><path class="cls-6" d="m475.65,484.42c.17.13.35.26.52.4-.35.11-.49-.08-.52-.4Z"/><path class="cls-6" d="m58.47,53.34c-.13-.12-.25-.24-.38-.36.13-.09.28-.12.44-.1.04.16.02.31-.06.45Z"/><path class="cls-6" d="m40.1,501.8c.13-.13.26-.26.39-.4.13.39-.07.45-.39.4Z"/><path class="cls-4" d="m415.85,509.89c-.15-.36.05-.5.35-.58-.12.19-.23.39-.35.58Z"/><path class="cls-4" d="m103.53,513.81c-.37.09-.49-.1-.49-.43.16.14.33.28.49.43Z"/><path class="cls-6" d="m20.59,519.32c-.12.18-.24.37-.37.55-.15-.36.08-.48.37-.55Z"/><path class="cls-6" d="m20.09,520.82c-.13.18-.25.37-.38.55-.12-.35.07-.5.38-.55Z"/><path class="cls-6" d="m18.12,526.88c-.14.16-.28.32-.41.48-.09-.36.1-.47.41-.48Z"/><path class="cls-4" d="m119.57,533.36c-.06-.35.11-.5.45-.52-.15.17-.3.34-.45.52Z"/><path class="cls-4" d="m118.49,534.35c.03-.33.19-.5.53-.44-.18.15-.36.29-.53.44Z"/><path class="cls-3" d="m98.95,411.48c-.37-5.48-.33-10.97-.06-16.45,1.86,0,3.72-.01,5.58-.02.89.97,2.06.87,3.21.87,21.31.13,42.62.28,63.93.41,46.36.27,92.73.52,139.09.81,17.48.11,34.96.28,52.44.45,1.37.01,2.6.05,2.08-1.91.57-.87,1.47-.61,2.26-.62,2.24-.02,4.47,0,6.71,0-.47,4.31-.92,8.62-1.4,12.92-.13,1.19.8,2.33.14,3.53-2.4,0-4.8,0-7.2,0,.07-.16.06-.32-.02-.48.04-1.88-1.43-1.03-2.15-1.03-11.06-.05-22.13-.03-33.19,0-42.93.08-85.85.16-128.78.26-30.45.07-60.9.17-91.34.27-1,0-2.25-.48-2.76,1-2.84,0-5.69,0-8.53,0Z"/><path class="cls-2" d="m195.27,527.22c-.14-2.03,1.19-2.11,2.54-1.78,6.91,1.7,13.83,3.32,20.85,4.53,4.65.8,9.28,1.76,13.95,2.3,7.57.86,15.12,1.84,22.76,2.22,9.95.5,19.9.7,29.81.23,8.48-.4,16.95-1.44,25.32-3.29,6.73-1.49,13.33-3.31,19.82-5.58.65-.23,1.45-1.04,1.94-.14.6,1.11-.7,1.37-1.29,1.63-6.35,2.77-13.02,4.52-19.76,5.98-7.42,1.61-14.98,2.34-22.53,3-8.52.74-17.08.47-25.62.66-7.21.16-14.31-.87-21.44-1.35-6.04-.4-12.2-1.13-18.12-2.45-5.4-1.2-10.85-1.89-16.24-2.97-3.08-.62-6.09-1.86-9.2-2.65-.92-.23-1.78-.05-2.77-.34Z"/><path class="cls-1" d="m389.22,504.32c.93-.39,2-.61,2.77-1.22,2.11-1.67,2.93-.85,3.2,1.42-1.99-.07-3.98-.14-5.97-.21Z"/><path class="cls-6" d="m161.5,479.37c-.99.88-2.19,1.09-3.46,1.06.75-1.68,2.3-.74,3.46-1.06Z"/><path class="cls-6" d="m189.21,466.15c.44,1.51.26,2.84-1.16,3.78.34-1.27.34-2.65,1.16-3.78Z"/><path class="cls-6" d="m199.08,429.98c.54.86.74,1.63-.55,1.99-.28-.79.2-1.37.55-1.99Z"/><path class="cls-6" d="m200.57,425.02c.65.8.41,1.26-.55,1.46,0-.55-.35-1.24.55-1.46Z"/><path class="cls-6" d="m203.57,414.03c.65.9.36,1.35-.68,1.43.23-.48-.22-1.28.68-1.43Z"/><path class="cls-6" d="m202.12,419.07c.38.82.61,1.59-.6,1.91-.23-.77.09-1.37.6-1.91Z"/><path class="cls-6" d="m154.04,483.11c-.02.72-.18,1.31-1.08,1.29.09-.66.33-1.19,1.08-1.29Z"/><path class="cls-6" d="m196.43,439.95c.78.7.26.88-.4,1.01-.08-.42-.22-.87.4-1.01Z"/><path class="cls-6" d="m197.44,436.46c.77.67.29.87-.38,1.01-.14-.43-.21-.84.38-1.01Z"/><path class="cls-6" d="m202.53,415.98c.32.05.71.09.71.5,0,.41-.38.45-.71.5,0-.33,0-.67,0-1Z"/><path class="cls-6" d="m107.68,411.99c.17.04.29.15.33.32-.36.15-.45.02-.33-.32Z"/><path class="cls-6" d="m199.92,427.41c-.12.18-.23.36-.35.54-.17-.37.09-.46.35-.54Z"/><path class="cls-6" d="m199.44,428.96l-.41.5c-.09-.36.11-.47.41-.5Z"/><path class="cls-6" d="m195.95,441.96c-.1.16-.2.32-.3.48-.24-.37.05-.42.3-.48Z"/><path class="cls-6" d="m191.92,456.86c-.11.19-.22.38-.33.57-.16-.35.04-.49.33-.57Z"/><path class="cls-6" d="m155.01,501.9c.16.13.32.27.47.4-.36.1-.47-.09-.47-.4Z"/><path class="cls-3" d="m108.06,230.82c-.04-16.79.05-33.59-.21-50.38-.08-5.14-.21-10.3-.26-15.44-.25-23.69-.26-47.38-.72-71.06-.31-15.54-.25-31.08-.35-46.62,39.95,0,79.9.01,119.85.02,39.62,0,79.23.02,118.85.02.03,1.76.07,3.52.1,5.28-.99.04-1.99.11-2.98.11-56.8,0-113.61,0-170.41,0-1,0-2,.03-2.99.03-5.43,0-11.37,6.11-10.88,11.35.27,2.88,0,5.8-.03,8.71-1.91.05-3.86-.16-5.71.21-8.01,1.6-15.05,5.07-20.56,11.27-8.81,9.9-11.79,21.33-8.37,34.13,4.48,16.77,19.48,26.96,35.58,26.83.17,5.15.36,10.3.12,15.45-9.98,0-19.96,0-29.95.02-2.43,0-3.45,1-3.6,3.42-.05.83-.02,1.66,0,2.49.05,3.32,1.78,5.06,5.04,5.07,9.57.01,19.13.01,28.7.02.05.66.13,1.32.13,1.98.2,19.37.38,38.75.62,58.12.01.95-.84,2.77,1.03,2.72,1.76-.05.93-1.81.92-2.77-.51-50.72-1.07-101.45-1.62-152.17-.02-1.91.03-3.81.05-5.72,79.6,0,159.2,0,238.79.01.04.5.1.99.11,1.49.31,29.38.61,58.75.94,88.13.25,22.3.54,44.6.86,66.9.01.99-.64,2.45,1.15,2.8,0,1.65.01,3.3.02,4.95-6.35,3.23-11.97,7.38-16.41,13.02-1.72-3.61-4.67-4.24-8.41-4.15-9.89.24-19.79.09-29.68.1-.53-.33-.62-1.17-1.41-1.19-.12-3.77,1.08-7.61-.59-11.3.98-.6,2.07-.52,3.15-.52,10.23,0,20.46,0,30.69,0,2,0,3.76-.45,5-2.2,1.41-1.99,1.41-4.01.25-6.07-1.14-2.02-3-2.72-5.22-2.72-13.56,0-27.12,0-40.67,0-1.35-5.71-2.69-11.41-4.04-17.11-.11-.46-.13-.81.46-.87,2.06-.2,3.77-1.36,5.66-2.03,10-3.54,18.34-9.49,25.1-17.65,5.57-6.72,9.13-14.48,11.54-22.81.58.01,1.16.04,1.74.03,3.55-.01,5.29-1.77,5.34-5.36.04-3.65-1.77-5.58-5.3-5.64-.08-2.66-.16-5.31-.23-7.97.75-.66.35-.9-.37-1.03-.21-1.82.11-3.67-.45-5.46,1.95-.04,4.19.52,5.2-1.87,1.06-2.5,1.05-5.01-.5-7.38-.42-.64-.94-1.24-1.77-1.22-2.08.06-4.07-.88-6.17-.49-1.37-1.88-1.76-4.21-3.2-6.15-1.2-1.6-2.6-3.31-3.19-5.37.18-1.21,1.12-1,1.92-1.01,2.91-.01,5.81,0,8.72,0,2.99-.01,4.92-2.26,4.85-5.61-.08-3.31-1.91-5.37-4.82-5.38-7.39,0-14.77,0-22.16,0-.17,0-.33-.04-.48-.1l-.52-.4c-1.17-.87-2.29-1.81-3.52-2.59-7.04-4.49-14.91-6.85-22.99-8.49-10.78-2.18-20.99.54-30.93,4.34-4.49,1.71-8.44,4.6-12.47,7.24-4.81,0-9.61,0-14.42,0-.91,0-1.86-.09-2.52.73-1.7,2.12-2.04,4.46-1.06,6.99.86,2.23,2.3,3.57,4.88,3.3.7-.07,1.51-.24,2.1.43-.3.56-.54,1.17-.92,1.67-3.66,4.75-6.24,10.04-8.02,15.73-1.64,5.25-2.32,10.67-2.32,16.16,0,4.44-.14,8.94.84,13.27,1.37,6.03,3.8,11.69,6.91,17.08,6.26,10.84,15.26,18.72,26.45,23.91,7.96,3.69,16.54,5.21,25.41,4.66,4.71-.29,4.71-.15,5.64,4.52.12.63.45,1.21.59,1.83.77,3.36,1.51,6.73,2.26,10.1-35.79,0-71.57,0-107.36,0-.67,0-1.33-.03-2,0-3.36.21-5.61,3.57-4.55,6.77.95,2.88,3.09,4.21,6.83,4.21,33.7,0,67.41,0,101.11,0-.11,2.1.52,4.02,1.27,5.96,1.07,2.79,3.7,4.24,5.37,6.5-35.61,0-71.23.02-106.84.02-.75,0-1.5-.04-2.25.01-2.98.19-5.82,2.87-5.83,5.47-.01,3.21,2.51,5.53,6.07,5.5,5.81-.06,11.61.41,17.41.44,31.62.13,63.24.07,94.86.07,1.37,4.66,2.74,9.31,4.12,13.97-36.45,0-72.89.01-109.34.02-2.58,0-5.16.02-7.74,0-1.94-.01-3.3.87-4.19,2.56-2.28,4.31.53,8.43,5.79,8.43,40.11,0,80.22,0,120.32,0,1.96,3.15,3.69,6.43,6.03,9.35,1.06,1.33,2.58,2.36,3.1,4.1-42.79,0-85.58.02-128.36.03-.75,0-1.51-.07-2.25.02-1.8.21-3.35.89-4.36,2.5-1.16,1.84-1.31,3.64-.19,5.63,1.41,2.49,3.63,3.32,6.25,3.32,50.11,0,100.23,0,150.34,0,3.47.14,6.87.21,10.16-1.41,1.44-.71,2.6-2.07,4.36-2.12l-.03-.04c.29,2.93-.43,5.73-1.01,8.56-.87,4.27-1.89,8.48-3.52,12.53-3.67-3.26-8.16-2.5-12.49-2.5-49.03,0-98.05,0-147.08,0-.75,0-1.51-.06-2.25.02-4.48.49-6.52,4.99-3.95,8.65,1.61,2.29,3.95,2.82,6.56,2.82,50.86,0,101.71,0,152.57,0,.58,0,1.21.12,1.74-.05,1.76-.55,3.92-.58,4.41-3.01.98,1.01,1.88,2.09,2.51,3.37-.35,1.06-.7,2.12-1.05,3.19-.62.15-.51.57-.39,1-.88,3.29-1.76,6.59-2.64,9.88-.16,0-.3.04-.45.11-.82-.5-1.73-.51-2.65-.51-52.02,0-104.04.01-156.07-.02-2.48,0-4.12,1.12-5.11,3.24-1.04,2.23-.37,4.12,1.28,5.88,1.6,1.71,3.55,1.9,5.68,1.9,51.44-.01,102.88,0,154.32,0-1.04,4.78-2.18,9.54-3.09,14.34-.48,2.53-1.41,4.99-1.34,7.62.04,1.34-.51,1.96-1.94,1.84-1.32-.11-2.66-.02-3.99-.02-64.46,0-128.92-.01-193.37.03-2.96,0-5.9.36-8.53-1.44-.17-.13-.35-.27-.52-.4-.97-.68-1.86-1.45-2.48-2.48l-.4-.53c-1.11-1.78-1.55-3.66-1.57-5.81-.27-28.38-.63-56.76-.96-85.14,0-.42,0-.83,0-1.25,0-.79-.13-1.63-1.09-1.6-.86.03-.82.9-.83,1.56-.01.67,0,1.33.01,2,.25,22.05.5,44.11.74,66.16,0,.83-.05,1.66-.08,2.49-13.65,0-27.3.07-40.95,0-6.45-.03-10.67-4.45-10.77-10.91-.18-11.31.04-22.62-.36-33.94-.36-10.14-.15-20.3-.24-30.46-.01-1.15.21-2.12,1.01-2.94,3.22.17,6.18,1.55,9.34,2.01,4.52.67,8.97,1.28,13.6.56,2.3-.36,4.68-.92,7.08-.69,2.79,2.46,7.16.87,8.46-3.08,2.99-2.17,6.42-3.68,9.18-6.22,6.27-5.76,11.42-12.34,14.95-20.14.13-.17.27-.34.4-.5,1.93-4.25,3.71-8.57,5-13.05.24-.82.38-1.38,1.31-1.42,4.76-.24,7.91-2.72,9.8-6.99,1.21.21,1.02,1.39,1.41,2.13,1.56,3.01,4.97,4.21,8.51,2.91,2.82-1.04,4.48-4.5,3.74-7.51-.64-2.61-2.24-4.34-4.75-4.88-2.56-.55-5.15-.43-6.96,2.02-.35.47-.71,1.56-1.49.32-.84-1.5-1.67-3-2.51-4.5.15-.17.3-.34.44-.5.86-1,1.72-2,2.58-3,.14-.16.28-.32.42-.48.67-.85,1.33-1.71,2-2.56.32.01.54-.05.36-.44l.27-1.5c.75-.17,1.09-.45.28-1.04.19-.53-.25-.89-.36-1.34-.66-2.65-1.06-2.8-3.28-1.17-.26.19-.52.4-.77.59-.35-.05-.5.12-.49.45-.67.52-1.34,1.04-2.01,1.56-.35-.07-.5.1-.51.43-2.4,1.58-4.28,3.7-5.99,5.98-.33.01-.5.17-.44.52-1.18,1.52-2.35,3.04-3.53,4.56-.54.34-1.03.72-.97,1.46-2.22,2.23-3,5.41-5.17,7.72-1.32,1.4-2.94,2.55-3.88,4.3-.34-.04-.49.11-.44.45-5.08,5.01-10.41,9.68-16.97,12.71-1.89-3.83-4.9-5.27-8.31-4.41-3.01.76-5.27,4.74-5.25,8.11-2.66,0-5.32,0-7.98,0-.19-.87-.7-.99-1.43-.61-2.36.27-4.2-1.32-6.37-1.78-.83-.18-.91-.48-.23-1.1.59-.54.99-1.29,1.48-1.94,1.03-1.36.73-2.48-.43-3.65-4.03-4.02-7.99-8.1-11.98-12.16Zm87.91-122.58c-.03-.33-.08-.7-.47-.75-.42-.05-.51.31-.55.65-4.31,3.99-6.8,9.09-8.43,14.57-1.47,4.94-1.85,9.99-1.11,15.22,1.02,7.17,3.77,13.48,8.46,18.82,4.44,5.04,9.44,9.62,16.25,11.26,2.27.54,4.39,1.66,6.78,1.71,6.67.14,13.26-.25,19.48-3,.18-.13.36-.27.54-.4,3.47-1.09,6.14-3.5,9-5.57.16-.15.33-.3.49-.45,5.63-5.22,9.43-11.51,11.12-19.03.71-.16,1.1-.42.3-1.03.83-4.82.79-9.63.02-14.45.78-.61.4-.86-.31-1.02-.29-2.7-1.5-5.08-2.64-7.49.76-.71.21-.87-.42-1-.69-1.18-1.38-2.36-2.07-3.53.06-.72,0-1.37-.93-1.46-.19-.21-.38-.42-.57-.63.06-.77-.11-1.36-1.06-1.34-2.42-2.27-4.71-4.69-7.44-6.61-.16-.87-.38-1.65-1.5-.9-1.67-.81-3.35-1.62-5.02-2.44-.1-.6-.11-1.36-.98-.53-.16-.04-.33-.08-.49-.12-.16-.14-.33-.28-.49-.41-1-.19-2-.39-3-.58-.18-.13-.35-.27-.53-.4-1.49-.2-2.97-.4-4.46-.6-.08-.49-.25-.91-.87-.84-.49.06-.57.45-.64.83h-5.29c.18,1.01.33,1.76,1.46,1.6,2.15-.3,4.25.27,6.36.51,4.14.47,8.07,1.76,11.69,3.75,4.23,2.33,7.63,5.65,10.81,9.31,3.22,3.7,4.34,8.25,5.92,12.58,1.5,4.11,1.07,8.5.62,12.88-.88,8.66-4.59,15.68-11.02,21.4-4.79-1.91-9.89-2.24-14.91-2.99.78-3.14.1-6.34.41-9.49.54-.36.67-.93.78-1.52.25-.5.51-.99.76-1.49.89-.08,1.01-.68.95-1.4.36-.7.72-1.39,1.07-2.09.63-.12,1.16-.28.44-.99.64-1.3.59-2.72.43-4.07-.51-4.46,1.93-8.29,2.61-12.5.79-4.93-2.05-9.86-6.83-10.93-4.68-1.04-9.41-.46-14.11-.45-7.21.01-12.61,7.68-9.89,14.29,1.76,4.28,2.32,8.67,2.85,13.14-.09.36.1.48.42.49.19.5.38,1.01.58,1.51-.09.35.1.49.41.53,3.51,3,3.02,7.07,2.94,11.03-.03,1.31,0,2.63.02,3.94-5.09.7-10.24,1.08-15.08,3.02-3.05-2.03-4.92-5.06-6.85-8.04-.14-.16-.28-.33-.42-.49-.37-.82-.73-1.63-1.1-2.45-.13-.18-.27-.36-.4-.55-1.2-3.06-2.62-6.07-2.49-9.49.2-.09.4-.18.6-.28-.21-.08-.43-.15-.64-.23-.38-2.33-.71-4.66-.04-6.99.13-.11.25-.22.38-.33-.12-.06-.24-.12-.36-.17-.43-4.13,1.39-7.74,2.61-11.49.12-.15.25-.3.37-.45.4-.65.21-1.6,1.04-2.02,1.01-.09.98-.82.93-1.54.68-2.03,2.42-3.29,3.6-4.96.24-.14.65-.25.68-.43.09-.49-.34-.56-.71-.61l-.04-.02Zm25.84,78.97c-12.65,0-25.3.02-37.94-.03-1.64,0-3.13.25-3.7,1.86-.69,1.94-1.01,3.95-.34,6.08.68,2.17,1.89,3.1,4.15,3.1,25.46-.03,50.92-.02,76.39-.02.74,0,1.48.08,2.15-.42,1.62-1.19,2.26-4.27,1.5-6.91-.7-2.43-1.93-3.74-4.76-3.72-12.48.12-24.96.05-37.44.05Zm-18.37,115.04c.06-3.74-3.11-7.04-6.85-7.15-3.48-.1-6.59,3.03-6.64,6.66-.04,3.48,3.3,6.79,6.89,6.82,3.66.03,6.54-2.73,6.59-6.33Zm0,26.31c0-4.05-2.69-7-6.46-6.97-3.19.03-6.9,2.67-6.6,6.55.31,4.04,2.74,6.91,6.54,6.92,3.9,0,6.52-2.6,6.52-6.49Zm-67.94-127.35c0,3.67,3.17,7.03,6.58,6.97,3.5-.06,6.98-3.4,6.87-6.6-.13-3.67-3.33-6.86-6.9-6.88-3.74-.02-6.55,2.77-6.55,6.51Zm7.44,106.88c3.78,0,6.53-2.6,6.55-6.21.02-4.02-2.78-6.77-6.91-6.78-3.64,0-6.56,2.76-6.57,6.23-.01,4.02,2.8,6.75,6.93,6.76Zm54.28,51.95c4.19.61,6.6-3.4,6.7-6.42.12-3.67-2.83-6.53-6.66-6.57-3.86-.04-6.83,2.71-6.81,6.29.02,3.99,2.74,6.67,6.77,6.7Zm-47.73-32.81c.02-4.27-2.56-7.07-6.6-7.15-3.65-.07-6.38,2.67-6.39,6.42-.01,4.11,2.64,7.01,6.44,7.06,3.63.05,6.54-2.76,6.55-6.33Zm53.45-75.03c.02-3.62-3.21-7.01-6.72-7.03-3.35-.03-6.73,3.33-6.76,6.7-.03,3.48,3.37,6.77,6.98,6.78,3.64,0,6.48-2.81,6.5-6.44Zm-60.96-20.53c4.01,0,7.01-2.56,6.97-6.17-.03-3.14-2.91-7.04-7.1-6.86-3.63.16-6.33,2.63-6.35,6.2-.02,4.23,2.44,6.82,6.48,6.83Zm54.56,51.95c3.98.64,6.79-3.1,6.75-6.31-.04-3.85-3.71-7.06-6.87-6.77-3.83.36-6.48,2.63-6.47,6.37,0,4.18,2.49,6.7,6.59,6.71Z"/><path class="cls-4" d="m402.26,238.2c0-1.65-.01-3.3-.02-4.95,1.13-1,.64-2.32.63-3.5-.38-37.85-.78-75.7-1.19-113.56-.15-14.22-.26-28.45-.51-42.67-.03-2.02.57-2.45,2.48-2.44,14.81.13,29.62.15,44.42.19,17.47.05,34.94.08,52.41.15,5.71.02,8.35,2.28,9.14,7.69.1.68.5.99,1.02,1.27,0,4.77,0,9.55,0,14.32-1.07.72-.57,1.82-.57,2.74.1,50.99.23,101.98.37,152.97,0,1.07.12,2.15.19,3.22,0,17.95,0,35.9,0,53.86-1.03.83-.57,1.99-.57,2.99-.03,20.18-.02,40.36-.03,60.54,0,4.98-.06,9.96-.09,14.94-1.08.13-.9.87-.78,1.59.18,2.39-1.23,3.82-3.04,4.97-1.79,1.14-3.84,1.3-5.9,1.32-11.89.12-23.79.21-35.68.34-1.03.01-2.2-.33-2.95.81-1.66.29-3.48-.68-5,.65-2.54-2.3-2.37-5.69-3.4-8.58-2-5.65-2.37-11.48-1.78-17.44.52-5.2-.58-10.38-.7-15.58.68-.35.66-.69-.02-1.01-.7-3.16-1.39-6.33-2.09-9.49.11-.44.04-.8-.4-1.02,0-.58.33-.76.83-1.03,2.55-1.4,4.42-3.24,4.86-6.42.56-4.14-.69-7.87-1.96-11.63-1.63-4.82-2.79-9.7-2.8-14.84,0-1.89.21-2.52,2.25-1.67,4.24,1.75,8.68,2.78,13.32,2.65,7.17-.19,13.98-5.3,15.41-11.68,1.85-8.25-1.21-15.73-4.14-23.09-1.61-4.04-4.14-7.72-6.25-11.57,2.27.62,4.59.26,6.88.39,2.13.12,4.05-.32,5.01-2.37,1.01-2.18,1.05-4.44-.48-6.5-4.46-5.99-6.35-12.95-6.86-20.18-.46-6.49-.22-13.02-1.07-19.51-.83-6.3-2.25-12.3-5.91-17.7-4.16-6.13-9.82-9.75-16.96-11.13-1.97-.38-4.27-.88-6-.23-3.98,1.49-7.32,4.14-9.48,7.95-.42.73-.48,1.01-1.26.44-6.42-4.72-13.19-5.16-20.34-1.71-1.96.94-3.14,2.13-3.04,4.43.05,1.22.8,2.74.47,3.48-1.11,2.48-1.71,5.43-4.26,7.01-1.44.89-1.64,1.83-.48,2.93,1.31,1.25,1.29,2.47.9,4.21-.98,4.47-1.99,6.22,4.26,7.86,1.61.42,2.41,1.72,2.57,3.15.23,2.11.91,4.19.57,6.35-.17,1.06.61,2.4-.89,3.08-.65.06-1.31.08-1.95.18-3.19.46-6.03,2.08-9.13,2.82Z"/><path class="cls-5" d="m346.81,424.95c.03.34.05.68.08,1.01-.08.42-.18.85.4,1.01,1.51,5.82,2.94,11.66,4.55,17.46,2.23,8.03,4.59,16.02,6.89,24.03.81,2.82,1.63,5.65,2.41,8.48.4,1.46.42,2.46-1.71,2.45-57-.05-114.01-.04-171.01-.05-.25,0-.49-.06-.92-.12,1.85-6.53,3.72-13.01,5.51-19.51,2.04-7.4,3.82-14.88,6.04-22.23,2.31-7.69,4.32-15.45,6.36-23.21.45-1.71,1.3-2.09,2.94-2.09,21.05-.01,42.11-.1,63.16-.15,23.13-.05,46.27-.04,69.4-.16,1.86,0,2.53.65,2.92,2.25.85,3.46,1.79,6.91,2.69,10.36-.23.36.03.4.29.46Z"/><path class="cls-1" d="m402.26,238.2c3.11-.73,5.94-2.36,9.13-2.82.65-.09,1.3-.12,1.95-.18-.32,1.03-1.31,1.46-1.98,2.17-2.63,2.79-2.41,3.76,1.24,5.24.22.09.52,0,.74.09,4.24,1.74,8.69,2.85,13.2,3.28,3.91.37,7.94.81,11.81-.43,2.44-.78,2.58-1.83.74-3.69-1.5-1.52-3.43-2.62-4.46-4.59.85-.29,1.6,0,2.39.31,3.46,1.37,6.86,2.85,10.14,4.61.58,3.03,1.3,5.95,3.18,8.55,4.85,6.72,11.4,10.72,19.39,12.54,2.11,3.84,4.64,7.52,6.25,11.57,2.93,7.36,5.99,14.84,4.14,23.09-1.43,6.38-8.23,11.49-15.41,11.68-4.64.12-9.08-.9-13.32-2.65-2.04-.84-2.26-.21-2.25,1.67.01,5.14,1.17,10.02,2.8,14.84,1.27,3.76,2.53,7.49,1.96,11.63-.43,3.18-2.3,5.02-4.86,6.42-.5.27-.83.46-.83,1.03-.64.02-1.16.19-1.18.97-4.14,2.24-8.49,3.89-13.14,4.8-1.25.25-2.45.19-3.67.22-.95-1.13-1.08.22-1.55.52-1.65-.16-3.38.47-4.94-.51-.5-.66-1.01-.69-1.52,0-3.88.16-7.56-.93-11.25-1.9-8.56-2.26-16.24-6.25-23.16-11.73-.63-1.28-1.53-2.35-2.51-3.37-.77-2.05-.41-4.01.49-5.92,1.63-4.05,2.65-8.27,3.52-12.53.58-2.83,1.3-5.63,1.01-8.56,1.84-.24,3.03-1.42,4.21-2.75,3.6-4.05,6.24-8.69,8.87-13.39,2.43-4.32,4.12-8.95,6.2-13.42.35-.75.99-2.13-.15-2.62-1.25-.53-1.27,1.01-1.6,1.72-1.15,2.44-2.09,4.97-3.24,7.4-3.6,7.61-7.65,14.95-13.59,21.05-.6.62-.67,1.29-.67,2.04-1.76.05-2.92,1.42-4.36,2.12-3.29,1.61-6.69,1.54-10.16,1.41-.19-.14-.37-.39-.58-.42-5.98-.81-11.04-3.63-15.87-7.08-1.74-1.25-2.92-3.18-4.99-3.99-.52-1.74-2.03-2.78-3.1-4.1-2.34-2.92-4.07-6.2-6.03-9.35-1.62-3.67-3.23-7.34-4.85-11.01-1.37-4.66-2.74-9.31-4.12-13.97.39-3.08-1.6-5.91-.93-9.02.84.05,1.51-.31,2.11-.84,2.42-.04,4.55-1.24,6.88-1.68.66-.2,1.33-.41,1.99-.61.79.02.88.86,1.4,1.19,1.72,3.91,3.78,7.63,6.41,11.01,1.35,2.83,3.6,4.99,5.8,7.09,2.98,2.83,6.06,5.65,10.13,6.95,1.22,1.26,2.4,1.17,3.55-.1,2.55-4.66,5.1-9.31,7.65-13.97l4.55-6.93c4.44-5.64,10.06-9.79,16.41-13.02Zm45.88,59.67c1.34.55,1.93.29,2.35-1.1.74-2.45,1.66-4.85,2.3-7.35,1.87-7.28,3.56-14.54,2.42-22.14-.12-.78.24-1.76-1.15-1.64-1.46.13-.94,1.3-.81,1.88,1.28,5.32-.14,10.5-.92,15.65-.76,5.03-2.09,9.99-4.2,14.7Z"/><path class="cls-3" d="m456.62,395.65c1.52-1.33,3.34-.35,5-.65.69,1.45,2.01,1.2,3.24,1.19,11.47-.09,22.95-.4,34.41-.21,7.93.13,13.01-4.3,12.85-12.48-.1-4.99-.02-9.98-.02-14.96,0-19.37,0-38.74,0-58.11,0-1.18.4-2.62-1.44-2.92,0-17.95,0-35.9,0-53.86,2.29-.03,1.76-1.73,1.76-3.05-.09-49.23-.19-98.45-.3-147.68,0-2.16-.06-4.33,0-6.49.03-1.11-.25-1.77-1.47-1.72,0-4.77,0-9.55,0-14.32.77-.13,1.14-.24,1.11-1.36-.05-1.7-.91-3.1-1.12-4.69-.57-3.51-3.41-5.5-6.48-4.54-1.24-.1-2.48-.28-3.72-.29-24.52-.1-49.04-.14-73.56-.27-8.38-.04-16.77.18-25.15-.31-.32-1.2.85-2.77-.91-3.61.09-4.48-1.86-8-5.1-10.92,2.86-1.21,5.84-.32,8.76-.5-.87,2.21.76,1.89,1.96,1.88,8.74-.08,17.48-.21,26.21-.29,24.88-.21,49.77-.42,74.65-.59,4.53-.03,8.93,1.01,12.22,4.14,3.55,3.38,6.35,7.44,6.18,12.78-.04.54-.33,1.12.26,1.56.01.67.03,1.33.03,2,0,104.53,0,209.05,0,313.58,0,.67-.02,1.33-.03,2-.68.79-.26,1.69-.26,2.56.09,7.61-5.71,14.08-11.97,16.09-1.52.49-3.08.87-4.72.86-7.65-.02-15.3,0-22.95.02-.94,0-2.08-.37-2.5,1-5.15,0-10.3-.01-15.45.02-.86,0-1.86-.34-2.51.63-2.88-3.91-5.38-8.07-7.36-12.49-.58-1.29-1.94-2.32-1.65-3.98Z"/><path class="cls-5" d="m157.48,482.91c2.43-1.5,5.15-1.58,7.86-1.58,73.23-.01,146.46,0,219.69-.04,1.43,0,2.24.3,2.71,1.79,1.61,5.15,3.24,10.29,5.34,15.27.41.97.2,1.72-.75,2.33-1.5.96-3.09,1.58-4.87,1.7-.83.06-1.66.06-2.49.06-73.56,0-147.12-.02-220.68.06-5.16,0-8.62-1.95-10.9-6.5-2.22-4.43-.1-10.31,3.61-12.7.36.11.46-.09.49-.39Z"/><path class="cls-4" d="m374.19,395.01c-2.24,0-4.47-.02-6.71,0-.79,0-1.69-.24-2.26.62-.75-.05-1.49-.13-2.24-.13-17.73-.13-35.45-.26-53.18-.38-49.85-.33-99.7-.66-149.55-.98-17.64-.11-35.29-.2-52.93-.26-1.02,0-2.44-.59-2.85,1.12-1.86,0-3.72.01-5.58.02-.37-5.71.08-11.41.07-17.12-.01-3.98.07-7.95.1-11.93,0-1-.17-2.14,1.46-1.84.16.81.47,1.08,1.05.27,1.89-.69,1.85-2.32,1.95-3.91.63-9.29,1.26-18.58,1.15-27.9,2.23-.39,3.06.4,2.92,2.78-.21,3.48.03,6.99-.03,10.48-.12,7.67,6.07,13.04,12.81,12.87,13.63-.35,27.28-.08,40.93-.07-.12,6.74-.92,13.61,1.7,20.02,1.6,3.91,4.96,6.19,9.39,6.43,1.24.07,2.49.11,3.74.11,65.39,0,130.77,0,196.16,0,3.21,0,2.93-.02,2.63,3.19-.2,2.21-.63,4.39-.72,6.6Z"/><path class="cls-4" d="m380.73,359.54c-51.44,0-102.88,0-154.32,0-2.13,0-4.08-.2-5.68-1.9-1.65-1.76-2.32-3.65-1.28-5.88.99-2.12,2.63-3.24,5.11-3.24,52.02.03,104.04.02,156.07.02.93,0,1.83.01,2.65.51.03.16.07.33.1.49-.88,3.33-1.77,6.67-2.65,10Z"/><path class="cls-4" d="m365.73,411.47c2.4,0,4.8,0,7.2,0,.02,2.79.09,5.56-.03,8.36-.14,3.06.53,6.16.91,9.24.89,7.23,2.29,14.4,4.09,21.43,2.42,9.41,4.71,18.89,8.27,27.98.05.14-.02.32-.03.48-3.49-.02-6.99-.16-10.48-.01-1.87.08-2.62-.62-3.07-2.35-2.05-7.78-4.2-15.54-6.34-23.29-3.79-13.76-7.59-27.51-11.38-41.27,2.72-.03,5.43-.04,8.15-.13.76-.03,1.65.39,2.29-.41.15,0,.29,0,.44-.03Z"/><path class="cls-1" d="m354.85,412.04c3.8,13.76,7.6,27.51,11.38,41.27,2.14,7.76,4.29,15.51,6.34,23.29.46,1.73,1.2,2.43,3.07,2.35,3.49-.14,6.99,0,10.48.01-.64.84-1.54.38-2.29.38-5.91.04-11.82-.11-17.72.09-2.07.07-2.9-.92-3.26-2.47-1.81-7.95-4.2-15.74-6.35-23.59-1.85-6.74-3.37-13.57-5.4-20.25-1.92-6.3-3.35-12.73-5.32-19.02-.49-1.58-.22-2.27,1.59-2.17,2.49.13,4.99.08,7.48.11Z"/><path class="cls-1" d="m161.29,358.66c-13.64-.01-27.29-.28-40.93.07-6.74.17-12.92-5.2-12.81-12.87.05-3.49-.18-7,.03-10.48.14-2.37-.69-3.17-2.92-2.78,0-.66-.02-1.33-.02-1.99,2.21.38,3-.39,2.91-2.77-.29-7.7-.37-15.4-.48-23.11-.12-8.87-.19-17.73-.28-26.6.05-.31.09-.62.14-.93,1.38-.26,1.78,1.47,3.02,1.49-.8.83-1.02,1.79-1.01,2.94.09,10.15-.12,20.32.24,30.46.4,11.31.18,22.63.36,33.94.1,6.46,4.32,10.88,10.77,10.91,13.65.06,27.3,0,40.95,0,0,.58.01,1.15.02,1.73Z"/><path class="cls-6" d="m422.22,348.51c.51-.68,1.02-.65,1.52,0-.51.69-1.02.68-1.52,0Z"/><path class="cls-6" d="m428.68,349.03c.48-.3.6-1.65,1.55-.52-.36.63-.98.52-1.55.52Z"/><path class="cls-6" d="m447.04,343.49c.02-.78.54-.95,1.18-.97.44.22.51.59.4,1.02-.51-.41-1.05-.16-1.58-.06Z"/><path class="cls-6" d="m386.37,339.06c-.12-.43-.23-.86.39-1,.77.68.27.87-.39,1Z"/><path class="cls-6" d="m450.72,353.04c.68.32.7.66.02,1.01-.54-.33-.56-.66-.02-1.01Z"/><path class="cls-6" d="m347.29,426.98c-.58-.16-.48-.59-.4-1.01.66.13,1.18.31.4,1.01Z"/><path class="cls-6" d="m365.73,411.47c-.15.02-.29.03-.44.03.14-.17.28-.34.42-.51.08.16.08.31.02.48Z"/><path class="cls-6" d="m421.71,414.05c-.32-.06-.49-.21-.38-.56.13.19.25.37.38.56Z"/><path class="cls-6" d="m346.81,424.95c-.25-.05-.51-.1-.29-.46l.29.46Z"/><path class="cls-4" d="m167.94,381.53c.17.13.35.27.52.4-.37.12-.49-.08-.52-.4Z"/><path class="cls-4" d="m165.06,378.52l.4.53c-.32-.04-.5-.18-.4-.53Z"/><path class="cls-6" d="m427.72,429.47c-.31-.03-.5-.14-.38-.5.13.17.25.33.38.5Z"/><path class="cls-6" d="m429.22,432.98c-.31-.03-.5-.16-.38-.51.13.17.26.34.38.51Z"/><path class="cls-6" d="m383.38,349.54c-.03-.16-.07-.33-.1-.49.14-.06.29-.1.45-.11-.12.2-.23.4-.35.6Z"/><path class="cls-6" d="m430.73,436.45c-.3-.03-.51-.12-.39-.48.13.16.26.32.39.48Z"/><path class="cls-6" d="m432.2,439.52c-.31-.06-.49-.21-.4-.56.13.19.27.37.4.56Z"/><path class="cls-6" d="m440.21,453.44c-.32-.01-.5-.14-.44-.49.15.16.29.33.44.49Z"/><path class="cls-6" d="m444.21,458.45c-.31-.03-.5-.16-.45-.51.15.17.3.34.45.51Z"/><path class="cls-6" d="m461.21,474.35c-.36.1-.5-.09-.52-.42.17.14.35.28.52.42Z"/><path class="cls-6" d="m157.48,482.91c-.02.3-.13.5-.49.39.16-.13.32-.26.49-.39Z"/><path class="cls-6" d="m466.2,413.13c.37-.08.47.04.3.38-.1-.13-.2-.26-.3-.38Z"/><path class="cls-3" d="m104.08,43.24c.27,4.35.54,8.71.35,13.08-3.55,2.66-5.26,6.06-3.88,10.5,1.24,3.99,3.09,7.81,2.68,12.19-.09.94.6,1.95.93,2.94,1.03,5.73.85,11.5.73,17.28-3.76.09-7.36,1.15-10.95,2.1-1.32.35-2.11.15-3.03-.81-8.35-8.64-11.69-18.87-9.87-30.75.26-1.72.7-3.4,1.01-5.11.08-.47.07-1.05-.56-1.22-.63-.17-.91.29-1.09.76-.29.77-.59,1.56-.78,2.36-2.01,8.17-1.38,16.18,2.07,23.83,4.66,10.34,12.24,17.62,23.26,20.99.05,7.63.09,15.27.14,22.9-6.98,0-13.97-.02-20.95,0-2.86,0-4.29,1.33-4.55,4.17-.14,1.5.03,2.97.56,4.4.62,1.66,1.62,2.48,3.54,2.45,7.15-.1,14.3-.05,21.45-.05.14,5.31.34,10.62.4,15.93.24,21.44.43,42.87.63,64.31.01,1.16-.09,2.32-.14,3.48-1.39-.52-2-1.86-2.97-2.81,0-.9.04-1.81-.02-2.71-.26-3.68-4.8-7.39-9.04-5.09-3.87-2.78-8.21-4.27-12.93-4.74-.14-.7-.36-1.18-1.03-.35-5.88-.45-8.44-2.88-8.45-8.01.36-.13.86.03.99-.53,3.25-.53,5.23-2.98,6.01-7.46.12-.07.25-.14.37-.21-.13-.13-.25-.26-.38-.38,0-.97,0-1.94,0-2.91.27-.06.48-.18.47-.51.02-.15.02-.31.02-.46,2.05-1.65,2.1-2.75.27-4.56-.76-.75-1.5-1.54-2.15-2.39-1.37-1.8-1.72-3.27.72-4.76,2.04-1.24,3.11-3.51,3.75-5.85.12-.19.24-.39.36-.58,0-1.47,0-2.93,0-4.4.74-.56.43-.84-.27-1.02-.4-.65-.81-1.31-1.21-1.96-.16-.17-.33-.35-.49-.52-.92-.68-1.85-1.33-3-1.58-.18-.14-.35-.27-.53-.41-3-.69-5.99-1-8.96.09-.36-.13-.49.06-.54.38-.57.51-1.61.12-1.96,1.04-.34-.02-.49.15-.5.47-1.04-.28-1.37,1.21-2.4.96-.06-9.3-.1-18.59-.18-27.89-.01-1.18.33-2.61-1.41-3.03,0-5.34,0-10.69,0-16.03.79-1.04.42-2.25.41-3.37-.45-30.93-.36-61.87-.42-92.81,0-1.08.03-2.16.05-3.24,44.62,0,89.24,0,133.86,0,34.96,0,69.93-.02,104.89-.02q.15,5.01-4.89,5.01c-58.18,0-116.37,0-174.55.02-2.31,0-4.67-.3-6.95.34-6.07,1.71-8.84,6-8.96,13.74,0,.13,0,.25,0,.38.01.14,0,.28,0,.42-2.2.18-4.09,1.23-6.03,2.16-4.42,2.12-7.89,5.4-11.15,8.95-.46.5-.98,1.03-.27,1.68.63.58,1.24.27,1.74-.24.34-.35.57-.81.91-1.17,4.13-4.44,8.91-7.85,14.88-9.36Zm-7.73,125.49c-3.72-.01-6.91,2.82-7.04,6.26-.13,3.26,3.95,7.27,7.31,7.19,3.19-.07,6.42-3.46,6.42-6.72,0-3.96-2.74-6.72-6.69-6.74Zm.03,36.96c3.67.06,6.58-2.69,6.65-6.28.08-3.77-2.96-6.97-6.81-7.17-3.09-.16-6.55,3.26-6.67,6.58-.12,3.43,3.24,6.82,6.82,6.87Z"/><path class="cls-1" d="m63.66,273.13c-.86,3.11-1.74,6.21-2.57,9.33-.13.47-.03.96-.69,1.13-8.12,2.09-16.2,3.88-24.07-.93-4.92-3.01-6.66-7.95-8.24-13.06-.6-1.95-.46-3.9-.48-5.86-.03-2.74-.53-3.24-2.76-1.97-5.1,2.89-10.71,4.63-15.93,7.23-2.07,1.03-4.4.81-6.88,1.23,2.89-12.77,6.75-24.75,13.77-35.57,5.84-8.99,14.22-14.04,24.42-16.46,2.31-.55,4.6-1.18,6.92-1.67,1.77-.37,3.04.06,4.4.72,7.81,3.83,15.8,4.25,23.36-.01,3.53-1.99,6.45-1.71,10.01-.96,5.1,1.08,8.7,4.32,12.36,7.52,7.22,6.29,13.97,13.08,20.7,19.88,1.03,1.04,1.17,1.73.26,2.89-1.64,2.09-3.14,4.29-4.89,6.72-.26-.99-.47-1.65-1.61-1.64-13.73.1-27.46.11-41.2.15-.3-.07-.53-.06-.41.36-1.81,4.01-2.78,8.28-3.92,12.5-.67,2.51-1.4,5-2.1,7.51-.61.11-.55.54-.47.98Z"/><path class="cls-1" d="m101.54,295.38c0,1.57-.04,3.04,0,4.51.46,14.92,1.3,29.83,1,44.77-.11,5.38-.5,10.74-.95,16.09-.08.93-.49,1.11-1.33,1.37-2.37.75-4.77.33-7.15.43-5.87.25-11.84.8-17.55-.66-5.28-1.35-10.47-3.06-15.86-4-9.26-1.61-18.53-2.95-28-1.94-3.55.38-7.05.85-10.45,1.89-1.74.54-1.29-.68-1.28-1.49.09-5.33.22-10.65.32-15.97.12-6.67.24-13.34.31-20.01.04-3.72.88-7.4.52-11.13-.09-.9-.02-1.22,1.23-.83,4.29,1.32,8.53,2.88,13.18,2.69,8.68-.37,16.08-3.87,22.8-9.02,1.75-1.35,3.43-1.96,5.64-1.94,10.9.1,21.81-.05,32.71.12,2.71.04,3.85-.85,3.89-3.42,0-.62.25-1.08.95-1.45Zm-62.56,46.59c.08,0,.17,0,.25-.02,12.08-2.52,23.27-6.96,32.57-15.36,4.63-4.19,8.94-8.67,11.33-14.62.26-.65,1.1-1.32.05-1.83-.93-.45-1.24.44-1.61,1.1-6.87,12.57-17.54,20.57-30.79,25.39-3.83,1.39-7.71,2.62-11.76,3.25-.7.11-1.61.24-1.4,1.32.14.69.71.85,1.36.77Z"/><path class="cls-3" d="m22.62,215.36c1.12-.48.89-1.48.89-2.36,0-45.9.13-91.81-.13-137.71-.04-7.46,2.2-13.11,8.04-17.45,2.93-2.19,6.38-2.87,9.95-2.92,5.57-.09,11.14-.08,16.7-.11.14.1.29.14.46.11,0,4.85,0,9.7,0,14.54-2.99.02-5.99,0-8.98.08-1.46.04-2.9.14-4.33.73-4.87,2-6.42,5.81-6.44,10.73-.09,25.61-.24,51.22-.36,76.83,0,.33.02.67,0,1-.12,1.28.6,1.56,1.68,1.43,0,18.45,0,36.91,0,55.36-.17.19-.33.38-.5.58-3.15.59-5.95,2.18-8.99,3.08-.35-.1-.49.11-.56.4-2.77.82-4.86,2.86-7.42,4.06v-8.36Z"/><path class="cls-4" d="m40.09,215.6c0-18.45,0-36.91,0-55.36.51-.93.33-1.95.33-2.94.11-25.45.2-50.89.32-76.34,0-2.06-.2-4.22,1.16-6.02,1.8-2.38,4.25-3.48,7.2-3.53,2.99-.05,5.98-.1,8.97-.15.16.04.32.08.48.12.04,15.37.07,30.74.16,46.11,0,1.32-.64,3.25,1.86,3.24,0,5.34,0,10.69,0,16.03-.71.84-.57,1.86-.57,2.84.04,9.67.08,19.35.12,29.02-2.89,1.11-5.98,1.38-8.94,2.17-.55.15-1.07.37-1.61.56-.37-.15-.45.03-.41.35-1.43,1.59-3.72,2.47-4.1,4.93-.29.08-.5.21-.36.56-1.17,2.82-.44,5.23,1.19,7.73,1.26,1.93,1.25,4.35,1.2,6.66-.07,2.92.12,5.49,3.92,6.26,1.05.21.73,2.53,1.21,3.84-.14.37.07.45.37.46.61,1.06,1.33,1.99,2.47,2.53.04.31.15.51.51.37,1.91-.19,1.67,1.15,1.51,2.27-.49,3.39-2.37,5.61-5.77,6.33-3.56.75-7.14,1.4-10.72,2.1-.17-.05-.34-.11-.51-.16Z"/><path class="cls-3" d="m191.14,210.69c.07,1.06-.73,1.7-1.18,2.5-.33,0-.5.14-.44.49-.69.84-1.37,1.68-2.06,2.52-.33-.01-.5.13-.44.48-.69.83-1.38,1.67-2.07,2.5-1.15.62-1.62,1.24,0,1.86,2.5,1.77,2.79,4.3,2.46,7.06-.32.07-.49.23-.38.58-.95,3.32-3.64,5.39-6.58,5.3-3.86-.12-4.04,2.38-4.96,4.67-.12.29-.05.65-.06.98-.32.05-.5.19-.38.54-.71,1.98-1.41,3.97-2.12,5.95-.3.06-.5.19-.39.54-4.11,9.89-10.03,18.44-18.58,25.03-.34-.06-.51.1-.54.43-.65.39-1.31.77-1.96,1.16-.38-.17-.45.06-.46.36-.18.05-.36.11-.54.16-.39-.21-.44.01-.42.33-6.69,3.95-13.98,5.38-21.68,5.49-6.68.1-12.92-1.83-19.2-3.62-1.87-.53-2.88-1.61-1.62-3.72.44-.74.42-1.75.61-2.64.67-.14,1.11-.37.36-1.01.05-.33.09-.67.14-1,.12-.18.23-.36.35-.55.26-4.83,2.6-8.73,5.68-12.21,1.09-1.23,1.25-3.31,3.27-3.7.07.3.2.5.55.4,8.45,3.23,17.1,3.76,25.65.85,8.23-2.8,15.1-7.89,21.4-13.88,5.68-5.4,9.56-12.1,14.05-18.35,3.01-4.18,6.64-7.65,10.83-10.59.66.09.46.73.69,1.09Z"/><path class="cls-3" d="m39.6,308.58c-11.8,2.25-23.78-3.61-29.75-13.71-3.77-6.39-4.75-13.67-4.28-21.11.08-1.22.81-1.54,1.6-1.9,4.31-1.93,8.64-3.81,12.96-5.73,1.16-.52,2.28-1.14,3.42-1.7,1.33-.64,1.93-.56,2.11,1.26.63,6.31,2.22,12.26,7.18,16.78,3.28,2.99,7.11,4.69,11.5,5.03,8.24.63,15.99-1.49,23.61-4.34,1.23-.46,1.17-.96.85-2.02-.91-3.05-1.23-6.19-1.25-9.64,1.5.65,1.71,1.87,1.96,2.84,1.3,5.24,3.81,6.36,9.28,5.51,5.28-.83,10.4-3.05,15.99-2.11-.24,1.74-1.82,2.43-3.03,3.19-5.17,3.27-10.45,6.36-16.64,7.43-1.09.19-2.26.47-3.17.13-2.17-.82-2.98.5-4.13,1.85-6.76,7.91-14.51,14.45-24.73,17.51-.67.2-1.29.13-1.92.28-.57-.01-1.16-.12-1.56.45Z"/><path class="cls-1" d="m100.04,513.35c3.56,3.52,8.04,5.84,11.84,9.05,2.39,2.03,4.88,4,6.23,6.97-.08.34.09.49.4.55.5,1.77-.68,2.65-1.94,3.33-4.74,2.53-9.67,3.85-15.11,2.6-6.94-1.59-13.94-2.91-20.85-4.61-1.55-.38-3.15-.8-4.69-1.32-1.82-.62-2.82-1.82-2.73-3.68.23-4.86.58-9.72.91-14.58.09-1.29.95-1.47,1.95-1.09,1.55.58,3.11,1.18,4.6,1.9,1.62.78,2.74.55,3.73-1.07,1.17-1.91,2.69-3.57,4.36-5.09,1.2-1.09,2.27-1.17,3.48-.07,2.27,2.06,4.57,4.1,6.85,6.15,0,.34,0,.67,0,1.01-2.82.62-7.5,5.43-7.2,7.6,2.93-1.54,4.97-4.05,7.35-6.12.65-.56-.09-1.02-.21-1.53.35,0,.7,0,1.05,0Zm4.81,21.07c3.37-.06,6-1,8.69-1.61,1-.23,1.9-.95,2.81-1.5.6-.36,1.11-.95.69-1.65-.46-.77-1.13-.37-1.73-.02-.78.46-1.51.98-2.4,1.27-5.68,1.86-11.4,1.14-17.05.06-6.48-1.23-12.79-3.18-18.94-5.63-.76-.3-1.92-1.13-2.29.22-.32,1.15.83,1.52,1.84,1.82,4.78,1.43,9.41,3.27,14.28,4.48,4.85,1.21,9.74,1.84,14.1,2.55Z"/><path class="cls-3" d="m75.01,215.16c-7.39,3.76-14.82,4.36-22.56.37,4.23-1.41,6.55-4.43,6.69-9.53.05-1.66-.02-3.33.01-4.99.03-1.8,0-3.28-1.83-4.61-2.32-1.68-1.6-4.28,1.09-5.2,2.68-.92,3.11-1.69,2.18-4.32-.72-2.04-.78-3.42,1.98-3.74,2.08-.25,3.58-1.42,4.02-3.79.44-2.35,2.33-2.95,4.19-1.45,1.57,1.27,2.89,2.94,3.18,4.88.4,2.63,1.74,4.54,3.45,6.37.57.61,1.78,1.33.14,2.15-.36-.12-.48.08-.54.39-1.12,2.34.1,4.95-.89,7.34-.31.76-.61,1.5-1.06,2.18-.33,0-.51.15-.5.49-3.01,2.05-7.46,1.07-10.46-2.57-.5-.6-.91-1.96-2.04-1.04-1.11.91.1,1.63.57,2.27,1.34,1.87,3.29,2.94,5.36,3.87.65.29,1.65.32,1.58,1.53-.25,4.26,2.68,6.57,5.54,8.92-.08.15-.12.31-.11.48Z"/><path class="cls-1" d="m36.6,512.92c1.87.29,2.28,1.62,2.53,3.24.88,5.84,1.86,11.67,2.78,17.51.16,1.05.18,2.13.27,3.19.02.67.04,1.34.07,2.01-.16,1.69-1.2,2.15-2.78,2.55-6.05,1.52-12.12.59-18.17.42-2.77-.08-4.4-2.79-3.69-5.52,1.49-5.7,3-11.39,5.01-16.94.95-2.63,2.1-5.16,3.69-7.44.93.39.65,1.98,1.85,1.85,1.17-.13,1.31-1.39,1.79-2.19.6-1,3.87-2.63,5.05-2.16,1.3.51,1.05,1.85,1.19,2.95-.08.34.11.48.41.53Zm-15.84,23.88c-.68.34-1.83-.53-2.07.71-.12.61.31,1.26,1.15,1.35,6.49.72,12.96,1,19.33-.82.8-.23,2.17-.06,1.88-1.4-.29-1.3-1.44-.72-2.29-.49-3.54.94-7.14,1.22-10.78,1.22-2.42,0-4.82-.22-7.21-.56Zm9.39-8.42c1.17-.3,2.75.39,4.29-.36.65-.32,1.64-.22,1.49-1.23-.13-.93-1.03-1.05-1.78-.88-2.69.61-5.41.44-8.12.46-.68,0-1.44-.01-1.38.96.05.8.64,1.07,1.4,1.06,1.25-.02,2.49,0,4.09,0Z"/><path class="cls-3" d="m66,411.48c-4.17,0-8.33-.02-12.5-.02.41-5.62,1.99-11,3.25-16.44h8.23c.34,5.48.68,10.98,1.01,16.47Z"/><path class="cls-3" d="m106.8,278.14c.09,8.87.15,17.73.28,26.6.11,7.7.19,15.41.48,23.11.09,2.38-.7,3.15-2.91,2.77-.41-6.42-.33-12.88-.73-19.28-.36-5.65.12-11.34-.81-16.97-.82-4.97.7-9.67,2.23-14.3.21-.65-.22-1.55.64-1.97.28.01.55.03.83.04Z"/><path class="cls-4" d="m189.52,224.18c.78,1.24,1.14.14,1.49-.32,1.82-2.45,4.41-2.57,6.96-2.02,2.51.54,4.11,2.28,4.75,4.88.74,3-.92,6.47-3.74,7.51-3.54,1.31-6.95.1-8.51-2.91-.38-.74-.2-1.92-1.41-2.13.59-1.63.26-3.34.45-5Z"/><path class="cls-4" d="m64.99,395.01h-8.23c2-7.79,4.15-15.54,7.08-23.08,0,4.39.52,8.69.74,13.01.17,3.36.9,6.69.42,10.07Z"/><path class="cls-3" d="m81.55,510.48c-.62-.19-1.26-.33-1.86-.57-4.54-1.8-4.62-1.98-4.08-6.68.08-.73.32-1.01,1.01-1.06,3.34-.24,6.7-.11,9.84-.89,1.23,4.3-2.16,6.37-3.91,9.17-.33.01-.67.02-1,.03Z"/><path class="cls-4" d="m135,252.07c-.02-3.37,2.24-7.35,5.25-8.11,3.41-.86,6.42.58,8.31,4.41-4.25,2.23-8.7,3.71-13.56,3.7Z"/><path class="cls-4" d="m84.67,466.93c-.82,3.18-2.46,6.13-2.64,9.49-.85.73-.34,1.66-.37,2.51-1.22,1.01-1.62.62-1.69-.85-.18-3.33,1.06-6.32,2.01-9.41,1.74-5.68,4.8-10.76,7.19-16.15.81-1.82,2.25-3.36,3.04-5.26.34-.82,1.03-1.8,2.01-1.22.79.46.35,1.42-.07,2.19-1.97,3.61-3.94,7.23-5.83,10.88-1.22,2.36-2.7,4.62-3.27,7.28-.29.07-.5.19-.37.54Z"/><path class="cls-1" d="m60.13,168.64c-.04-9.67-.08-19.35-.12-29.02,0-.98-.14-2,.57-2.84,1.74.42,1.4,1.85,1.41,3.03.08,9.3.13,18.59.18,27.89-.48.76-1.27.83-2.05.95Z"/><path class="cls-3" d="m28.6,509.44c-.97-.85-.59-2.13-.88-3.17-.81-2.86-.28-3.3,2.71-3.38,1.63-.04,3.2-.5,4.86-.53,1.66-.03,2.01.51,1.84,1.96-.09.82-.04,1.66-.01,2.49.04,1.07-.43,1.24-1.38.96-2.03-.6-3.96.17-5.89.65-.31.08-.51.6-.76.92-.16.04-.32.08-.48.12Z"/><path class="cls-4" d="m93.99,218.34c4.24-2.3,8.78,1.41,9.04,5.09.06.9.02,1.81.02,2.71-3.02-2.6-6.04-5.2-9.06-7.81Z"/><path class="cls-4" d="m148.44,277.5c-1.3,3.94-5.67,5.53-8.46,3.08,2.82-1.03,5.64-2.05,8.46-3.08Z"/><path class="cls-3" d="m36.93,442.46c.75,0,1.5-.04,2.24.01.58.04,1.48-.31,1.39.82-.06.76-.53,1.17-1.32,1.17-1.58,0-3.16,0-4.73,0-.9,0-1.42-.44-1.38-1.36.04-.96.83-.58,1.32-.62.83-.06,1.66-.02,2.49-.02Z"/><path class="cls-6" d="m81.65,478.92c.03-.85-.48-1.78.37-2.51.74.97,1.06,1.87-.37,2.51Z"/><path class="cls-6" d="m191.14,210.69c-.23-.37-.03-1-.69-1.09.16-.8.65-1.25,1.26-.54.5.58.42,1.36-.57,1.63Z"/><path class="cls-6" d="m42.24,538.86c-.02-.67-.04-1.34-.07-2.01,1.43.62,1.42,1.29.07,2.01Z"/><path class="cls-6" d="m184.96,221.03c-1.62-.61-1.16-1.23,0-1.86,0,.62,0,1.24,0,1.86Z"/><path class="cls-5" d="m39.6,308.58c.4-.57.99-.46,1.56-.45-.34.76-.96.57-1.56.45Z"/><path class="cls-6" d="m175.02,223.19c-.06-.74.43-1.12.97-1.46.02.71-.02,1.39-.97,1.46Z"/><path class="cls-6" d="m63.66,273.13c-.08-.44-.14-.87.47-.98.7.74.13.87-.47.98Z"/><path class="cls-6" d="m28.6,509.44c.16-.04.32-.08.48-.12-.09.49.1,1.3-.73,1.11-.32-.07.15-.65.25-1Z"/><path class="cls-6" d="m100.04,513.35c-.35,0-.7,0-1.05,0,0,0,.05.05.05.05,0-.34,0-.67,0-1.01.63.02.97.33.99.96Z"/><path class="cls-4" d="m193.37,210.16c.81.59.47.87-.28,1.04-.16-.41-.28-.82.28-1.04Z"/><path class="cls-4" d="m80.04,213.25c.66-.83.88-.35,1.03.35-.41.07-.84.23-1.03-.35Z"/><path class="cls-5" d="m101.57,364.42c-.58.81-.89.54-1.05-.27.42-.16.83-.34,1.05.27Z"/><path class="cls-4" d="m125.59,251.45c.73-.38,1.24-.26,1.43.61-.68.28-1.03-.24-1.43-.61Z"/><path class="cls-4" d="m106.8,278.14c-.28-.01-.55-.03-.83-.04.1-.54.21-1.07.97-.89-.05.31-.09.62-.14.93Z"/><path class="cls-6" d="m40.09,215.6c.17.05.34.11.51.16-.13.64-.29,1.19-1,.41.17-.19.33-.38.5-.58Z"/><path class="cls-6" d="m81.55,510.48c.33-.01.67-.02,1-.03-.04.33-.07.72-.49.73-.42.01-.47-.37-.52-.7Z"/><path class="cls-4" d="m81.76,169.22c.7.18,1.01.46.27,1.02-.66-.19-.39-.63-.27-1.02Z"/><path class="cls-6" d="m72.57,204.71c-.12.56-.63.4-.99.53.08-.64.13-1.33.99-.53Z"/><path class="cls-4" d="m108.52,268.63c.75.64.32.87-.36,1.01-.17-.44-.28-.86.36-1.01Z"/><path class="cls-6" d="m75.01,215.16c0-.17.03-.33.11-.48l.59.31c-.23.06-.47.11-.7.17Z"/><path class="cls-6" d="m188.46,208.69c0-.33.14-.5.49-.45-.16.15-.33.3-.49.45Z"/><path class="cls-6" d="m55.57,205.07c-.36.15-.48-.05-.51-.37.17.12.34.24.51.37Z"/><path class="cls-6" d="m150.05,274.12c-.01-.31.04-.54.42-.33-.14.11-.28.22-.42.33Z"/><path class="cls-6" d="m151.02,273.63c0-.3.08-.53.46-.36-.15.12-.31.24-.46.36Z"/><path class="cls-6" d="m84.67,466.93c-.13-.35.08-.47.37-.54-.12.18-.25.36-.37.54Z"/><path class="cls-6" d="m153.44,272.11c.04-.33.2-.49.54-.43-.18.14-.36.29-.54.43Z"/><path class="cls-4" d="m109.01,267.08c-.12.18-.23.36-.35.55-.18-.37.08-.46.35-.55Z"/><path class="cls-6" d="m67.03,165.22c.05-.31.18-.51.54-.38-.18.13-.36.25-.54.38Z"/><path class="cls-6" d="m3.75,255.64c-.14-.35.05-.49.36-.55-.12.18-.24.37-.36.55Z"/><path class="cls-6" d="m70.15,252.14c-.12-.41.11-.42.41-.36-.14.12-.27.24-.41.36Z"/><path class="cls-6" d="m118.52,251.57c-.35.09-.49-.11-.55-.4.18.13.37.27.55.4Z"/><path class="cls-6" d="m5.26,251.14c-.14-.35.07-.47.35-.54-.12.18-.24.36-.35.54Z"/><path class="cls-4" d="m76.53,164.75c.18.14.35.27.53.41-.36.1-.48-.11-.53-.41Z"/><path class="cls-6" d="m64.57,166.73c.01-.32.17-.49.5-.47-.17.16-.33.31-.5.47Z"/><path class="cls-6" d="m172.56,246.65c-.11-.36.09-.49.39-.54-.13.18-.26.36-.39.54Z"/><path class="cls-4" d="m80.06,166.73c.16.17.33.35.49.52-.33-.02-.51-.18-.49-.52Z"/><path class="cls-6" d="m175.07,240.15c-.12-.35.06-.49.38-.54-.13.18-.25.36-.38.54Z"/><path class="cls-6" d="m49.16,171.72c-.03-.32.05-.5.41-.35-.14.12-.28.23-.41.35Z"/><path class="cls-6" d="m165.53,235.66c-.05-.34.1-.49.44-.45-.15.15-.3.3-.44.45Z"/><path class="cls-4" d="m82.02,174.64c-.12.19-.24.39-.36.58-.13-.35.05-.5.36-.58Z"/><path class="cls-6" d="m187.05,228.67c-.11-.35.06-.51.38-.58-.13.19-.25.38-.38.58Z"/><path class="cls-6" d="m44.7,177.22c-.13-.35.08-.48.36-.56-.12.19-.24.37-.36.56Z"/><path class="cls-6" d="m36.6,512.92c-.31-.04-.49-.18-.41-.53.14.18.27.35.41.53Z"/><path class="cls-6" d="m77.02,191.69c.05-.3.18-.51.54-.39-.18.13-.36.26-.54.39Z"/><path class="cls-4" d="m79.06,192.78c0,.15,0,.31-.02.46-.16-.02-.31-.05-.47-.09.02-.31.15-.48.49-.37Z"/><path class="cls-4" d="m187.45,219.17c-.15.17-.3.34-.44.5-.07-.36.11-.5.44-.5Z"/><path class="cls-6" d="m30.05,219.66c.07-.29.2-.5.56-.4-.19.13-.37.27-.56.4Z"/><path class="cls-6" d="m78.58,193.16c.15.03.31.06.47.09.02.33-.19.45-.47.51,0-.2,0-.4,0-.6Z"/><path class="cls-6" d="m78.57,196.66c.13.13.25.26.38.38-.12.07-.25.14-.37.21,0-.2,0-.4,0-.59Z"/><path class="cls-6" d="m179.52,217.18c-.06-.34.1-.5.44-.52-.15.17-.29.35-.44.52Z"/><path class="cls-6" d="m187.03,216.68c-.07-.35.1-.49.44-.48-.15.16-.29.32-.44.48Z"/><path class="cls-4" d="m190.46,215.7c-.14.16-.28.32-.42.48-.08-.35.11-.47.42-.48Z"/><path class="cls-6" d="m74.57,201.7c-.01-.34.17-.49.5-.49-.17.16-.33.33-.5.49Z"/><path class="cls-6" d="m118.5,529.93c-.31-.06-.48-.22-.4-.55.13.18.26.37.4.55Z"/><path class="cls-6" d="m189.52,213.68c-.06-.35.1-.49.44-.49l-.44.49Z"/><path class="cls-6" d="m192.81,212.69c.18.39-.05.45-.36.44.12-.15.24-.29.36-.44Z"/><path class="cls-6" d="m185.94,210.68c.01-.33.16-.5.51-.43-.17.14-.34.29-.51.43Z"/><path class="cls-6" d="m52.59,202.17c-.3-.01-.51-.09-.37-.46.12.15.25.31.37.46Z"/><path class="cls-4" d="m172.97,250.64c-.13.17-.27.34-.4.5-.12-.37.09-.47.4-.5Z"/><path class="cls-2" d="m395.73,54.41c3.24,2.92,5.19,6.44,5.1,10.92.39,1.18-1.15,2.85.91,3.61,8.38.49,16.76.27,25.15.31,24.52.13,49.04.17,73.56.27,1.24,0,2.48.19,3.72.29,2.64.82,4.81,2.33,6.48,4.54.22,1.59,1.07,2.99,1.12,4.69.03,1.12-.34,1.23-1.11,1.36-.52-.28-.92-.59-1.02-1.27-.79-5.41-3.43-7.67-9.14-7.69-17.47-.07-34.94-.1-52.41-.15-14.81-.05-29.62-.07-44.42-.19-1.91-.02-2.52.42-2.48,2.44.25,14.22.36,28.45.51,42.67.4,37.85.81,75.7,1.19,113.56.01,1.18.5,2.5-.63,3.5-1.79-.34-1.13-1.81-1.15-2.8-.32-22.3-.61-44.6-.86-66.9-.33-29.38-.62-58.75-.94-88.13,0-.5-.07-.99-.11-1.49.02-2.41.27-4.85.02-7.23-.82-7.61-2.31-12.07-12.76-12-29.12.19-58.23.06-87.35.07-43.18.02-86.35.04-129.53.09-4.87,0-9.09,3.6-9.44,8.37-.26,3.54-.25,7.13.26,10.68-.02,1.91-.08,3.81-.05,5.72.55,50.72,1.11,101.45,1.62,152.17,0,.96.84,2.72-.92,2.77-1.87.05-1.02-1.77-1.03-2.72-.25-19.37-.43-38.75-.62-58.12,0-.66-.09-1.32-.13-1.98.14-3.68.21-7.36-.18-11.03.24-5.15.05-10.3-.12-15.45.02-1.89-.03-3.78.09-5.67.08-1.33-.3-1.77-1.72-1.89-2.94-.26-5.03-1.83-5.89-4.79-.22-2.39.78-4.88-.57-7.19q.16-5.7-5.42-5.87c-.08,0-.17,0-.25,0-5.25.02-8.09-3.51-9.99-7.33-.6-1.22-1.12-2.82-.66-4.27,2.6-8.18,5.06-16.45,11.22-22.86.61-.64.4-1.64,1.14-2.01,2.34-1.17,4.68-3.02,7.11-3.19,4.21-.28,4.25-2.68,4.08-5.65,0-.08-.04-.16-.06-.24.21-.49.23-.98-.02-1.46.03-2.9.3-5.83.03-8.71-.5-5.23,5.45-11.34,10.88-11.35,1,0,2-.03,2.99-.03,56.8,0,113.61,0,170.41,0,.99,0,1.99-.07,2.98-.11.65,0,1.3,0,1.95,0,12.56.04,25.13.14,37.69.06,3.73-.02,7.34.23,10.8,1.7Zm-237.11,48.56h-.17c0-3.16-.04-6.32.02-9.48.03-1.22-.22-1.82-1.62-1.77-2.49.09-4.99,0-7.48,0-1.14,0-1.84.29-1.78,1.72.11,2.9-.02,5.81.04,8.72.08,4.01,1.59,7.34,4.78,9.89.97.77,3.78,1.35.67,3.12-.2.11-.1.79-.1,1.2-.02,4.82.02,9.65-.08,14.47-.04,2.09,1.16,3.31,2.6,4.44.78.61,1.76.72,2.58.4.86-.33.32-1.3.4-1.99.08-.66-.03-1.34.04-1.99.62-5.49.72-10.94-.99-16.29-.12-.37-.17-.93.28-1.11,1.23-.49.79-1.52.8-2.35.04-2.99.02-5.99.02-8.98Z"/><path class="cls-5" d="m299.36,21.31c-34.96,0-69.93.02-104.89.02-44.62,0-89.24,0-133.86,0-.02-2.91-.05-5.83-.05-8.74,0-6.52,3.66-10.25,10.13-10.25,31.04,0,62.09,0,93.13,0,39.7,0,79.4,0,119.1,0,2.08,0,4.17.21,6.24.03,6.73-.58,9.78,4.28,10.19,9.96.21,2.98.03,5.99.03,8.98ZM70.06,11.11c-.03,2.23,1.1,3.58,3.11,3.69,1.69.09,3.72-1.77,3.81-3.52.08-1.6-1.81-3.37-3.63-3.38-1.92-.01-3.25,1.29-3.28,3.21Zm18.01-.09c-.03-1.99-1.57-3.61-3.38-3.56-2,.06-3.18,1.46-3.14,3.72.03,1.95,1.39,3.24,3.34,3.19,1.99-.05,3.21-1.34,3.18-3.36Zm8.81,2.89c1.82-.02,3.86-1.83,3.53-3.4-.38-1.8-1.39-3.18-3.57-3.15-2.17.03-3.37,1.23-3.31,3.42.06,2.04,1.24,3.15,3.34,3.12Z"/><path class="cls-5" d="m345.2,47.35c-39.62,0-79.23-.02-118.85-.02-39.95,0-79.9-.01-119.85-.02-.02-3.33-.07-6.65-.05-9.98.03-4.81,3.69-8.63,8.54-8.96.83-.06,1.66-.02,2.49-.02,72.03,0,144.07.06,216.1-.08,8.72-.02,11.23,4.96,11.68,11.61.17,2.48-.03,4.99-.06,7.48Zm-214.61-6.98c2.11-.02,3.48-1.37,3.41-3.37-.06-1.87-1.75-3.52-3.56-3.48-1.84.05-3.43,1.73-3.41,3.62.02,2.04,1.36,3.25,3.55,3.23Zm-11.49.47c2.08-.02,3.41-1.34,3.42-3.42.01-1.73-1.74-3.52-3.47-3.54-1.71-.02-3.45,1.76-3.5,3.56-.05,1.71,1.73,3.41,3.55,3.39Zm26.91-4.12c-.05-2.06-1.39-3.37-3.46-3.36-1.72,0-3.5,1.77-3.5,3.49,0,1.7,1.88,3.54,3.57,3.47,1.72-.06,3.43-1.87,3.39-3.6Z"/><path class="cls-4" d="m105.12,145.24c-7.15,0-14.3-.05-21.45.05-1.92.03-2.92-.79-3.54-2.45-.53-1.43-.7-2.9-.56-4.4.26-2.83,1.7-4.16,4.55-4.17,6.98-.02,13.97,0,20.95,0,.02,3.66.03,7.31.05,10.97Z"/><path class="cls-2" d="m58.08,71.27c-2.99.05-5.98.1-8.97.15-2.95.05-5.4,1.14-7.2,3.53-1.36,1.81-1.16,3.96-1.16,6.02-.12,25.45-.21,50.89-.32,76.34,0,.98.18,2-.33,2.94-1.08.13-1.8-.15-1.68-1.43.03-.33,0-.66,0-1,.13-25.61.27-51.22.36-76.83.02-4.92,1.58-8.73,6.44-10.73,1.43-.59,2.87-.68,4.33-.73,2.99-.08,5.99-.06,8.98-.08,0,.46-.01.92-.02,1.38-.15.15-.29.29-.44.44Z"/><path class="cls-5" d="m104.94,111.37c-11.02-3.37-18.6-10.65-23.26-20.99-3.45-7.65-4.08-15.65-2.07-23.83.2-.8.49-1.59.78-2.36.18-.47.47-.93,1.09-.76.63.17.65.74.56,1.22-.31,1.71-.75,3.4-1.01,5.11-1.82,11.88,1.52,22.11,9.87,30.75.92.95,1.71,1.16,3.03.81,3.59-.95,7.19-2.01,10.95-2.1.01,4.05.03,8.1.05,12.15Z"/><path class="cls-6" d="m104.16,81.94c-.33-.98-1.02-1.99-.93-2.94.4-4.38-1.44-8.2-2.68-12.19-1.38-4.43.33-7.83,3.88-10.5.08,7.86.17,15.71.23,23.57,0,.71.25,1.51-.5,2.05Z"/><path class="cls-5" d="m104.08,43.24c-5.98,1.51-10.75,4.92-14.88,9.36-.34.36-.57.82-.91,1.17-.5.52-1.11.82-1.74.24-.71-.65-.19-1.18.27-1.68,3.26-3.56,6.74-6.83,11.15-8.95,1.94-.93,3.83-1.98,6.03-2.16.03.67.05,1.34.08,2.02Z"/><path class="cls-6" d="m58.08,71.27c.15-.15.29-.29.44-.44.01.19.02.37.03.56-.16-.04-.32-.08-.48-.12Z"/><path class="cls-6" d="m58.54,54.91c-.17.03-.32,0-.46-.11.14-.15.28-.3.42-.45.01.19.03.37.04.56Z"/><path class="cls-4" d="m104.01,40.8c0-.13,0-.25,0-.38.05.09.11.19.14.29,0,.01-.1.06-.15.1Z"/><path class="cls-6" d="m525.72,393.51c0-.86-.42-1.76.26-2.56.84.95,1.21,1.84-.26,2.56Z"/><path class="cls-6" d="m525.98,73.38c-.59-.44-.3-1.02-.26-1.56,1.14.34,1.19.87.26,1.56Z"/><path class="cls-3" d="m495.59,522.81c1.85-6.84,3.26-13.73,2.07-20.86-.26-1.58.51-1.69,1.78-1.78,2.85-.21,5.8.45,8.54-.91,2.12-1.05,3.28-2.71,3.32-5.08.03-1.74.02-3.49-.08-5.23-.07-1.18.27-1.78,1.5-1.49,2.93.69,5.59,2.04,8.2,3.48.77.43.94,1.24.62,2.17-2.21,6.39-4.98,12.47-9.8,17.38-.45.45-.51,1.27-1.34,1.4-.53-.69-.97-1.51-1.62-2.08-1.43-1.25-3.5-.39-4.1,1.65-1.46,5-4.26,8.98-8.77,11.7-.09-.13-.2-.25-.31-.36Z"/><path class="cls-3" d="m507.25,510.97c2.62,3.85,3.94,3.83,6.8.21,3.93-4.98,7.13-10.36,8.91-16.47.49-1.68,1.24-1.61,2.4-.87,3.35,2.13,3.49,2.2,1.21,7.47-3.92,9.04-9.36,17.06-16.85,23.57-3.68,3.2-7.89,5.14-12.92,5.03-1.54-.03-2.66-.72-3.09-1.95-.47-1.31.93-1.7,1.84-2.23,5.95-3.49,7.47-5.41,11.71-14.75Z"/><path class="cls-3" d="m495.91,523.18c-.18.02-.36.05-.54.07.08-.14.15-.29.23-.43.12.11.22.23.31.36Z"/><path class="cls-3" d="m378.52,530.77c2.59-1.43,5.37-2.13,7.74-3.7,3.36-2.23,6.59-4.62,9.26-7.67,1.08-1.24,1.88-1.37,2.91.05.87,1.19,1.92,2.25,2.9,3.36,3.1,3.53,6.68,3.72,10.19.54,4.27-3.87,4.33-3.87,6.2,1.7.46,1.37.71,2.82.97,4.24.18.96-.03,1.78-1.09,2.2-6.78,2.7-13.77,4.16-21.14,3.79.85-5.28-.16-6.06-5.2-4.24-3.5,1.26-7.06,1.79-10.74.83-.71-.19-1.35-.38-2-1.1Z"/><path class="cls-3" d="m419.11,533.13c.37,6.18.38,6.25-5.18,7.64-8.25,2.06-16.68,3.19-25.13,2.46-5.82-.5-11.56-2.03-14.89-7.8-.59-1.02-1.04-2.1-.36-2.94.62-.78,1.69-.35,2.66.05,5.49,2.25,11.04,2.69,16.57.06.63-.3,1.34-.43,1.88-.01.43.34,0,.89-.1,1.36-.48,2.12.57,3.41,2.85,3.44,7.02.09,13.8-1.19,20.34-3.77.38-.15.76-.27,1.38-.48Z"/><path class="cls-3" d="m449.95,6.9c2.17.02,3.36,1.23,3.27,3.34-.08,1.93-1.56,3.21-3.66,3.17-2.07-.04-3.31-1.3-3.34-3.4-.03-2.15,1.14-3.13,3.73-3.11Z"/><path class="cls-2" d="m104.47,395.01c.41-1.71,1.84-1.12,2.85-1.12,17.64.06,35.29.15,52.93.26,49.85.32,99.7.65,149.55.98,17.73.12,35.45.25,53.18.38.75,0,1.49.09,2.24.13.52,1.96-.71,1.92-2.08,1.91-17.48-.17-34.96-.34-52.44-.45-46.36-.29-92.73-.53-139.09-.81-21.31-.13-42.62-.27-63.93-.41-1.15,0-2.32.09-3.21-.87Z"/><path class="cls-1" d="m160.39,73.91c-.51-3.55-.52-7.14-.26-10.68.35-4.78,4.56-8.37,9.44-8.37,43.18-.05,86.35-.07,129.53-.09,29.12-.01,58.24.12,87.35-.07,10.44-.07,11.93,4.39,12.76,12,.26,2.38,0,4.82-.02,7.23-79.6,0-159.2,0-238.79-.01Zm21.02-10.12c-.02,2.14,1.25,3.5,3.28,3.51,1.97,0,3.38-1.46,3.3-3.53-.07-2.05-1.16-3.24-3.21-3.38-1.97-.13-3.36,1.33-3.37,3.4Zm15.4,3.08c1.85-.03,3.63-1.78,3.52-3.46-.1-1.64-2.14-3.54-3.71-3.46-1.7.08-3.28,1.95-3.21,3.79.08,1.97,1.36,3.16,3.4,3.13Zm-26.88-2.83c-.04,1.85,1.59,3.68,3.28,3.7,1.58.02,3.58-1.92,3.64-3.53.06-1.57-1.67-3.32-3.33-3.38-2.1-.07-3.55,1.22-3.59,3.21Z"/><path class="cls-2" d="m337.48,248.28c-.6.53-1.28.89-2.11.84-.45-1.21-1.19-2.13-2.49-2.49-1.67-2.26-4.29-3.71-5.37-6.5-.75-1.94-1.38-3.86-1.27-5.96.52-1.77,1.2-3.5,1.5-5.31.22-1.34,1.1-2.24,1.88-2.99.71-.69,2.06-.19,3.3.29-.28-1.15-.49-2.07-.71-2.99-.75-3.37-1.49-6.73-2.26-10.1-.14-.62-.47-1.21-.59-1.83-.93-4.67-.93-4.81-5.64-4.52-8.88.55-17.46-.97-25.41-4.66-11.19-5.19-20.2-13.07-26.45-23.91-3.11-5.39-5.55-11.05-6.91-17.08-.98-4.33-.84-8.83-.84-13.27,0-5.49.68-10.91,2.32-16.16,1.78-5.69,4.36-10.99,8.02-15.73.38-.5.62-1.11.92-1.67,3.29-4.19,7.1-7.86,11.02-11.44,4.03-2.64,7.98-5.52,12.47-7.24,9.94-3.8,20.15-6.52,30.93-4.34,8.08,1.63,15.94,4,22.99,8.49,1.22.78,2.35,1.72,3.52,2.59.04.3.15.51.52.4.15.07.32.1.48.1,2.45,1.81,4.76,3.78,6.79,6.05,1.68,1.89,2.76,4.26,4.71,5.94.59,2.06,2,3.76,3.19,5.37,1.45,1.94,1.84,4.27,3.2,6.15,1.4,3.56,2.18,7.3,3.24,10.96.55,1.79.24,3.65.45,5.46-.1.42-.26.87.37,1.03.08,2.66.16,5.31.23,7.97-.08.5-.17,1-.25,1.5-.6.18-.45.61-.36,1.03.31,2.91-.98,5.6-1.17,8.44-2.41,8.33-5.97,16.09-11.54,22.81-6.76,8.15-15.1,14.1-25.1,17.65-1.89.67-3.61,1.83-5.66,2.03-.6.06-.57.41-.46.87,1.35,5.7,2.7,11.41,4.04,17.11.46,2.32.93,4.65,1.38,6.97.11.54.44,1.05.92.98,2.77-.37,3.45,1.82,4.5,3.56,1.67,3.69.46,7.53.59,11.3-.66.2-1.33.41-1.99.61.04-1.39.07-2.75.3-4.15.56-3.39.11-6.67-2.64-9.5-.28,1.12-.6,1.88-.65,2.67-.1,1.44-.38,2.8-1.81,3.42-1.51.66-2.4-.68-3.43-1.39-.53-.37-.9-.96-1.32-1.47-1.64-1.96-2.34-4.4-3.37-6.67-.35-.78-.54-2.07-1.66-.53-1.93,2.65-1.82,8.58-.01,11.36,2.07,3.18,5.73,4.75,7.72,7.96Zm3.35-146.04c-5.33-2.48-10.98-3.6-16.81-3.94-7.34-.44-14.35,1.03-21.17,3.6-6.23,2.71-11.97,6.15-16.51,11.34-3.84,3.77-7.23,7.85-9.12,12.99-.36.33-.68.63-.87,1.14-1.21,3.27-2.51,6.52-3.39,9.9-1.1,3.99-1.32,8.09-1.58,12.19-.05.82-.07,1.64.57,2.29-.47,4.01.59,7.79,1.83,11.53.94,3.29,2.15,6.47,3.87,9.46,9.46,16.44,23.37,25.67,42.57,26.34,7.13.25,14.06-1.05,20.57-3.9,14.26-6.24,23.91-16.75,28.62-31.68,1.4-3.79,1.87-7.77,2.26-11.75.45-4.91.21-9.76-1.37-14.48-.4-4.18-2.11-7.91-3.96-11.59-2.14-4.45-4.81-8.52-8.41-11.94-1.51-2.12-3.58-3.64-5.64-5.15-3.55-2.59-7.17-5.06-11.45-6.34Z"/><path class="cls-4" d="m385.78,325.59c-.9,1.91-1.26,3.87-.49,5.92-.49,2.43-2.65,2.45-4.41,3.01-.53.17-1.16.05-1.74.05-50.86,0-101.71,0-152.57,0-2.61,0-4.95-.53-6.56-2.82-2.57-3.66-.52-8.16,3.95-8.65.74-.08,1.5-.02,2.25-.02,49.03,0,98.05,0,147.08,0,4.32,0,8.81-.76,12.49,2.5Z"/><path class="cls-4" d="m354.39,296.58c2.07.81,3.24,2.74,4.99,3.99,4.82,3.45,9.88,6.27,15.87,7.08.21.03.39.27.58.42-50.11,0-100.23.02-150.34,0-2.62,0-4.84-.83-6.25-3.32-1.13-1.98-.97-3.78.19-5.63,1.01-1.62,2.56-2.3,4.36-2.5.74-.08,1.5-.02,2.25-.02,42.79,0,85.58-.02,128.36-.03Z"/><path class="cls-4" d="m340.41,272.11c1.62,3.67,3.23,7.34,4.85,11.01-40.11,0-80.22,0-120.32,0-5.26,0-8.07-4.12-5.79-8.43.89-1.68,2.25-2.57,4.19-2.56,2.58.02,5.16,0,7.74,0,36.45,0,72.89-.01,109.34-.02Z"/><path class="cls-4" d="m332.88,246.63c1.3.36,2.04,1.28,2.49,2.49-.67,3.11,1.32,5.94.93,9.02-31.62,0-63.24.07-94.86-.07-5.8-.02-11.6-.49-17.41-.44-3.56.03-6.08-2.29-6.07-5.5,0-2.6,2.85-5.28,5.83-5.47.75-.05,1.5-.01,2.25-.01,35.61,0,71.23-.02,106.84-.02Z"/><path class="cls-4" d="m332.21,223.17c.22.92.44,1.84.71,2.99-1.24-.48-2.59-.98-3.3-.29-.78.75-1.65,1.66-1.88,2.99-.3,1.8-.98,3.54-1.5,5.31-33.7,0-67.41,0-101.11,0-3.74,0-5.87-1.32-6.83-4.21-1.06-3.2,1.2-6.56,4.55-6.77.66-.04,1.33,0,2,0,35.79,0,71.57,0,107.36,0Z"/><path class="cls-4" d="m221.81,187.21c12.48,0,24.96.07,37.44-.05,2.82-.03,4.06,1.29,4.76,3.72.76,2.63.12,5.71-1.5,6.91-.67.49-1.41.42-2.15.42-25.46,0-50.92,0-76.39.02-2.26,0-3.48-.93-4.15-3.1-.66-2.14-.35-4.14.34-6.08.57-1.61,2.06-1.87,3.7-1.86,12.65.05,25.3.03,37.94.03Z"/><path class="cls-2" d="m209.52,138.26c-.53-4.47-1.09-8.86-2.85-13.14-2.73-6.62,2.68-14.28,9.89-14.29,4.7,0,9.44-.59,14.11.45,4.78,1.07,7.62,6,6.83,10.93-.68,4.22-3.12,8.04-2.61,12.5.15,1.35.21,2.77-.43,4.07-.63.12-.56.54-.44.99-.36.7-.72,1.39-1.07,2.09-.55.31-1.1.62-.95,1.4-.25.5-.51.99-.76,1.49-1.16.05-1.79.36-.78,1.52-.3,3.16.38,6.36-.41,9.49-.72,4.09-4.28,6.93-8.62,6.89-.23-1.16-1.07-.9-1.84-.79-3.25-.78-4.65-3.28-5.7-6.1,0-1.31-.04-2.63-.02-3.94.08-3.96.56-8.03-2.94-11.03-.14-.18-.27-.35-.41-.53-.19-.5-.38-1.01-.58-1.51-.14-.16-.28-.32-.42-.49Zm17.75,8.39c-1.57.54-3.19.69-4.84.63-.4-.01-.87.09-.99-.47-.12-.57.13-.94.71-1.1.55-.15,1.08-.37,1.63-.45,4.99-.75,7.95-3.48,9.2-8.37.78-3.04.28-6.11.38-9.17.13-3.77-1.81-6.62-4.63-8.81-.75-.58-1.83-1.64-3.22-.72-4.36,2.92-9.03,5.35-13.27,8.47-.49.36-.94.56-.95,1.22-.05,3.24-.42,6.54.3,9.68.67,2.91,2.54,5.26,5.34,6.64.66.33,1.1.71.98,1.51-.06.38-.28.68-.63.58-1.73-.51-1.43.69-1.42,1.64,0,2.33-.01,4.65.06,6.98.07,2.23,2.39,5.01,4.36,5.33,3.44.56,6.7-.95,7.58-3.62,1.06-3.22.47-6.56.48-9.85-.25-.69-.39-.7-1.08-.12Z"/><path class="cls-4" d="m345.76,234.68c-1.06-1.74-1.73-3.93-4.5-3.56-.48.06-.81-.44-.92-.98-.45-2.33-.92-4.65-1.38-6.97,13.56,0,27.12,0,40.67,0,2.22,0,4.08.7,5.22,2.72,1.16,2.06,1.16,4.09-.25,6.07-1.24,1.75-3,2.2-5,2.2-10.23,0-20.46,0-30.69,0-1.08,0-2.17-.08-3.15.52Z"/><path class="cls-5" d="m151.43,132.92c.85,2.96,2.95,4.53,5.89,4.79,1.41.13,1.8.56,1.72,1.89-.11,1.88-.07,3.78-.09,5.67-16.09.13-31.1-10.06-35.58-26.83-3.42-12.8-.44-24.23,8.37-34.13,5.51-6.2,12.55-9.67,20.56-11.27,1.84-.37,3.8-.15,5.71-.21.25.48.24.97.02,1.46-.67.37-1.37.47-2.14.51-8.58.45-15.92,3.89-21.89,9.89-7.07,7.1-10.12,15.88-10.03,25.92.07,8.07,3.56,14.6,8.32,20.69.97,1.24,2.01,1.55,3.67,1.09,4.71-1.3,9.53-2.09,14.43-2.15.12.98-.04,2.06,1.03,2.67Z"/><path class="cls-6" d="m257.52,141.27c-1.69,7.52-5.49,13.81-11.12,19.03-.34-.04-.5.11-.49.45-2.86,2.08-5.53,4.48-9,5.57-.35-.09-.5.09-.54.4-6.22,2.76-12.81,3.14-19.48,3-2.39-.05-4.51-1.17-6.78-1.71-6.82-1.63-11.82-6.21-16.25-11.26-4.69-5.33-7.44-11.64-8.46-18.82-.74-5.24-.36-10.28,1.11-15.22,1.63-5.48,4.12-10.58,8.43-14.57.34.03.69.07,1.03.1l.04.02c.01.34.02.69.03,1.03-1.18,1.67-2.92,2.93-3.6,4.96-.6.34-1.04.77-.93,1.54-.83.43-.64,1.38-1.04,2.02-.31,0-.52.08-.37.45-1.22,3.75-3.05,7.36-2.61,11.49,0,.17-.01.34-.02.5-.67,2.33-.33,4.66.04,6.99l.04.51c-.13,3.41,1.29,6.42,2.49,9.49-.09.35.1.49.4.55.37.82.73,1.63,1.1,2.45-.08.36.1.48.42.49,1.93,2.98,3.8,6.01,6.85,8.04,4.18,4.03,9.16,6.5,14.75,7.96,4.37,1.14,8.69,1.13,13.13.52,7-.97,13.13-3.66,18.28-8.52,6.43-5.71,10.15-12.74,11.02-21.4.44-4.38.88-8.77-.62-12.88-1.58-4.33-2.7-8.88-5.92-12.58-3.19-3.66-6.59-6.98-10.81-9.31-3.62-2-7.55-3.29-11.69-3.75-2.11-.24-4.2-.81-6.36-.51-1.13.16-1.28-.59-1.46-1.6h5.29c.5,0,1.01,0,1.51,0,1.49.2,2.97.4,4.46.6.05.29.17.51.53.4,1,.19,2,.39,3,.58.02.31.13.51.49.41.16.04.33.08.49.12.12.56.62.41.98.53,1.67.81,3.35,1.62,5.02,2.44.3.63.67,1.15,1.5.9,2.73,1.92,5.01,4.35,7.44,6.61.1.65.37,1.16,1.06,1.34.19.21.38.42.57.63-.18.8.38,1.13.93,1.46.69,1.18,1.38,2.36,2.07,3.53-.07.42-.24.89.42,1,1.14,2.4,2.35,4.78,2.64,7.49-.18.42-.28.83.31,1.02.78,4.82.81,9.63-.02,14.45-.57.2-.46.61-.3,1.03Z"/><path class="cls-4" d="m159.07,160.72c.4,3.67.32,7.35.18,11.03-9.57,0-19.13,0-28.7-.02-3.25,0-4.99-1.75-5.04-5.07-.01-.83-.04-1.67,0-2.49.15-2.43,1.17-3.42,3.6-3.42,9.98-.02,19.96-.02,29.95-.02Z"/><path class="cls-4" d="m354.17,258.18c-2.63-3.38-4.69-7.1-6.41-11.01,9.89,0,19.79.14,29.68-.1,3.75-.09,6.7.54,8.41,4.15-1.52,2.31-3.03,4.62-4.55,6.93-9.04.01-18.09.02-27.13.03Z"/><path class="cls-1" d="m244.96,158.75c-5.15,4.86-11.27,7.55-18.28,8.52-4.44.61-8.76.62-13.13-.52-5.59-1.46-10.58-3.93-14.75-7.96,4.84-1.94,9.99-2.32,15.08-3.02,1.06,2.82,2.45,5.32,5.7,6.1.38.8,1.03.99,1.84.79,4.34.04,7.9-2.81,8.62-6.89,5.02.75,10.13,1.07,14.91,2.99Z"/><path class="cls-4" d="m368.78,114.8c-1.95-1.68-3.03-4.05-4.71-5.94-2.03-2.28-4.34-4.24-6.79-6.05,7.39,0,14.77-.01,22.16,0,2.91,0,4.75,2.06,4.82,5.38.08,3.34-1.86,5.59-4.85,5.61-2.91.01-5.81,0-8.72,0-.8,0-1.74-.21-1.92,1.01Z"/><path class="cls-4" d="m203.44,302.25c-.06,3.6-2.94,6.37-6.59,6.33-3.59-.03-6.93-3.34-6.89-6.82.04-3.63,3.16-6.76,6.64-6.66,3.74.11,6.91,3.41,6.85,7.15Z"/><path class="cls-4" d="m203.44,328.57c0,3.9-2.62,6.5-6.52,6.49-3.81,0-6.23-2.87-6.54-6.92-.3-3.88,3.4-6.52,6.6-6.55,3.77-.03,6.46,2.92,6.46,6.97Z"/><path class="cls-4" d="m135.51,201.22c0-3.74,2.81-6.53,6.55-6.51,3.57.02,6.77,3.21,6.9,6.88.11,3.2-3.37,6.54-6.87,6.6-3.41.06-6.58-3.3-6.58-6.97Z"/><path class="cls-4" d="m142.94,308.09c-4.14,0-6.95-2.75-6.93-6.76.01-3.47,2.94-6.24,6.57-6.23,4.13.01,6.93,2.77,6.91,6.78-.02,3.61-2.77,6.21-6.55,6.21Z"/><path class="cls-4" d="m197.22,360.04c-4.03-.03-6.75-2.72-6.77-6.7-.02-3.58,2.96-6.33,6.81-6.29,3.83.04,6.77,2.9,6.66,6.57-.1,3.02-2.51,7.03-6.7,6.42Z"/><path class="cls-4" d="m149.49,327.23c-.02,3.57-2.92,6.38-6.55,6.33-3.8-.05-6.45-2.95-6.44-7.06,0-3.75,2.74-6.49,6.39-6.42,4.04.08,6.62,2.88,6.6,7.15Z"/><path class="cls-4" d="m202.94,252.2c-.02,3.63-2.85,6.44-6.5,6.44-3.61,0-7-3.3-6.98-6.78.03-3.37,3.41-6.72,6.76-6.7,3.51.03,6.74,3.41,6.72,7.03Z"/><path class="cls-4" d="m141.98,231.67c-4.04,0-6.5-2.59-6.48-6.83.02-3.57,2.71-6.04,6.35-6.2,4.19-.18,7.06,3.72,7.1,6.86.04,3.6-2.96,6.17-6.97,6.17Z"/><path class="cls-4" d="m196.54,283.62c-4.11,0-6.58-2.53-6.59-6.71,0-3.73,2.64-6.01,6.47-6.37,3.16-.29,6.83,2.91,6.87,6.77.03,3.21-2.77,6.94-6.75,6.31Z"/><path class="cls-4" d="m286.37,102.8c-3.92,3.57-7.73,7.25-11.02,11.44-.59-.67-1.39-.51-2.1-.43-2.58.27-4.02-1.07-4.88-3.3-.97-2.53-.63-4.87,1.06-6.99.66-.82,1.6-.73,2.52-.73,4.81,0,9.61,0,14.42,0Z"/><path class="cls-4" d="m378.42,137.27c-1.05-3.66-1.84-7.4-3.24-10.96,2.1-.39,4.1.55,6.17.49.83-.02,1.35.58,1.77,1.22,1.54,2.36,1.55,4.88.5,7.38-1.01,2.39-3.25,1.83-5.2,1.87Z"/><path class="cls-4" d="m379.21,153.23c.08-.5.17-1,.25-1.5,3.53.06,5.34,1.99,5.3,5.64-.04,3.59-1.79,5.35-5.34,5.36-.58,0-1.16-.02-1.74-.03.2-2.84,1.48-5.53,1.17-8.44.7-.14,1.16-.37.36-1.03Z"/><path class="cls-6" d="m230.45,146.27c-1.01-1.16-.38-1.47.78-1.52-.1.59-.24,1.15-.78,1.52Z"/><path class="cls-4" d="m242.41,102.7c-.83.25-1.2-.27-1.5-.9,1.13-.75,1.34.03,1.5.9Z"/><path class="cls-4" d="m225.92,96.72c-.5,0-1.01,0-1.51,0,.07-.39.15-.78.64-.83.62-.07.79.35.87.84Z"/><path class="cls-4" d="m231.99,143.26c-.15-.79.4-1.1.95-1.4.05.72-.06,1.33-.95,1.4Z"/><path class="cls-4" d="m250.91,110.65c-.69-.18-.96-.69-1.06-1.34.94-.02,1.12.57,1.06,1.34Z"/><path class="cls-4" d="m252.41,112.74c-.55-.33-1.11-.66-.93-1.46.93.09.99.74.93,1.46Z"/><path class="cls-4" d="m191.51,115.8c-.11-.77.33-1.2.93-1.54.04.73.07,1.45-.93,1.54Z"/><path class="cls-4" d="m257.84,125.79c-.58-.2-.48-.6-.31-1.02.7.16,1.09.42.31,1.02Z"/><path class="cls-4" d="m254.9,117.28c-.67-.11-.5-.58-.42-1,.63.13,1.18.29.42,1Z"/><path class="cls-4" d="m234.02,139.77c-.11-.45-.19-.87.44-.99.72.71.19.87-.44.99Z"/><path class="cls-4" d="m257.52,141.27c-.16-.42-.27-.82.3-1.03.8.61.4.86-.3,1.03Z"/><path class="cls-5" d="m379.23,143.76c-.63-.16-.47-.6-.37-1.03.72.13,1.12.37.37,1.03Z"/><path class="cls-4" d="m196.04,109.3c-.01-.34-.02-.69-.03-1.03.38.05.81.12.71.61-.03.18-.44.29-.68.43Z"/><path class="cls-4" d="m195.97,108.24c-.34-.03-.69-.07-1.03-.1.05-.34.14-.69.55-.65.39.04.44.41.47.75Z"/><path class="cls-4" d="m235.89,99.36c-.36-.11-.86.03-.98-.53.87-.84.89-.08.98.53Z"/><path class="cls-4" d="m187.54,137.77l-.04-.51c.21.08.43.15.64.23-.2.09-.4.18-.6.28Z"/><path class="cls-4" d="m234.41,98.71c-.36.09-.48-.1-.49-.41.16.14.33.28.49.41Z"/><path class="cls-4" d="m356.79,102.7c-.36.12-.47-.1-.52-.4l.52.4Z"/><path class="cls-4" d="m190.09,118.28c-.14-.37.06-.46.37-.45-.12.15-.25.3-.37.45Z"/><path class="cls-5" d="m187.46,130.27c0-.17.01-.34.02-.5.12.06.24.12.36.17-.13.11-.25.22-.38.33Z"/><path class="cls-6" d="m209.52,138.26c.14.16.28.32.42.49-.32-.01-.51-.13-.42-.49Z"/><path class="cls-6" d="m210.51,140.26c.14.18.27.35.41.53-.31-.04-.5-.18-.41-.53Z"/><path class="cls-4" d="m190.43,147.8c-.31-.05-.49-.2-.4-.55.13.18.27.36.4.55Z"/><path class="cls-4" d="m191.95,150.74c-.32-.01-.5-.13-.42-.49.14.16.28.33.42.49Z"/><path class="cls-4" d="m245.91,160.74c-.01-.34.15-.49.49-.45l-.49.45Z"/><path class="cls-4" d="m236.37,166.72c.05-.31.2-.49.54-.4-.18.13-.36.27-.54.4Z"/><path class="cls-4" d="m230.91,97.72c-.36.1-.47-.11-.53-.4.18.13.35.27.53.4Z"/><path class="cls-2" d="m469.73,263.26c-7.99-1.81-14.54-5.81-19.39-12.54-1.88-2.6-2.6-5.52-3.18-8.55-.97-5.41-.88-10.91-1.37-16.36-.53-5.94-.62-11.94-2.14-17.72-.91-3.46-1.87-7.16-5.81-8.77-.3.8.24,1.32.42,1.94.9,3.18.99,6.53.17,9.59-1.12,4.16-4.1,7.31-7.65,9.74-1.5,1.03-2.24,2.13-2.1,4.03.34,4.7,2.2,8.65,5.32,12.09.11.33.3.56.69.54h-.05c1.03,1.97,2.96,3.07,4.46,4.59,1.84,1.86,1.71,2.91-.74,3.69-3.87,1.24-7.9.8-11.81.43-4.52-.42-8.96-1.53-13.2-3.28-.22-.09-.51,0-.74-.09-3.66-1.48-3.87-2.45-1.24-5.24.67-.71,1.66-1.14,1.98-2.17,1.5-.67.72-2.02.89-3.08.35-2.15-.34-4.24-.57-6.35-.16-1.42-.95-2.73-2.57-3.15-6.24-1.64-5.24-3.39-4.26-7.86.38-1.74.4-2.96-.9-4.21-1.15-1.1-.96-2.04.48-2.93,2.56-1.58,3.16-4.53,4.26-7.01.33-.75-.42-2.26-.47-3.48-.1-2.3,1.08-3.49,3.04-4.43,7.15-3.44,13.92-3,20.34,1.71.78.58.84.3,1.26-.44,2.16-3.8,5.5-6.45,9.48-7.95,1.74-.65,4.04-.15,6,.23,7.14,1.38,12.8,5,16.96,11.13,3.66,5.4,5.08,11.4,5.91,17.7.85,6.49.61,13.02,1.07,19.51.51,7.24,2.4,14.19,6.86,20.18,1.53,2.06,1.49,4.32.48,6.5-.96,2.05-2.88,2.49-5.01,2.37-2.29-.13-4.62.24-6.88-.39Zm-31.8-19.5c-.37-.55-.44-.71-.56-.81-6.61-5.5-11.04-12.07-10.68-21.13.08-2.05-2.14-3.15-2.79-5.04-.23-.66-1.59.26-2.45.41-.83.14-1.4-.39-2.08-.65-.6-.23-1.4-.45-1.06-1.34.31-.81,1.1-.67,1.66-.39,1.47.74,2.64.03,3.72-.75,1.75-1.27,1.46-3.27.76-4.71-.9-1.85-3.06-2.12-4.83-1.48-1.88.68-3.02-.02-4.1-1.25-.81-.92-1.54-1.94-2.18-2.99-.87-1.43-1.51-.92-1.93.22-.67,1.81-1.59,3.41-3.14,4.61-.55.43-.73.96-.2,1.48,1.89,1.85,1.1,3.97.55,6-.88,3.27-.83,4.01,2.39,4.59,3.62.65,4.39,2.99,4.76,5.9.09.73.3,1.46.36,2.14.29,3.42.62,6.94-2.24,9.63-1.97,1.85-1.93,1.95.84,3.01,4.53,1.74,9.25,2.51,14.06,2.81,2.97.18,5.95.3,9.16-.25Z"/><path class="cls-2" d="m510.65,94.72c1.22-.04,1.5.61,1.47,1.72-.07,2.16-.01,4.32,0,6.49.1,49.23.21,98.45.3,147.68,0,1.32.53,3.02-1.76,3.05-.07-1.07-.18-2.15-.19-3.22-.14-50.99-.27-101.98-.37-152.97,0-.91-.5-2.01.57-2.74Z"/><path class="cls-2" d="m510.65,307.51c1.84.3,1.44,1.74,1.44,2.92.01,19.37,0,38.74,0,58.11,0,4.99-.08,9.98.02,14.96.16,8.19-4.91,12.62-12.85,12.48-11.47-.19-22.94.12-34.41.21-1.22,0-2.55.26-3.24-1.19.74-1.13,1.92-.8,2.95-.81,11.89-.13,23.79-.22,35.68-.34,2.06-.02,4.1-.19,5.9-1.32,1.81-1.15,3.22-2.58,3.04-4.97.63-.35,1.09-.78.78-1.59.03-4.98.09-9.96.09-14.94.01-20.18,0-40.36.03-60.54,0-1-.46-2.16.57-2.99Z"/><path class="cls-5" d="m509.96,385.98c.31.81-.15,1.24-.78,1.59-.12-.72-.3-1.46.78-1.59Z"/><path class="cls-4" d="m434,236.71c-3.12-3.44-4.99-7.4-5.32-12.09-.14-1.9.6-3.01,2.1-4.03,3.56-2.43,6.53-5.58,7.65-9.74.82-3.05.73-6.41-.17-9.59-.17-.62-.72-1.14-.42-1.94,3.94,1.61,4.9,5.3,5.81,8.77,1.52,5.78,1.6,11.78,2.14,17.72.49,5.45.4,10.95,1.37,16.36-3.28-1.76-6.68-3.24-10.14-4.61-.79-.31-1.54-.61-2.39-.31,0,0,.05,0,.05,0-.04-.41-.32-.54-.68-.54Z"/><path class="cls-3" d="m354.17,258.18c9.04-.01,18.09-.02,27.13-.03-2.55,4.66-5.1,9.31-7.65,13.97-1.18.03-2.37.07-3.55.1-4.07-1.3-7.15-4.12-10.13-6.95-2.2-2.09-4.45-4.25-5.8-7.09Z"/><path class="cls-3" d="m337.48,248.28c-2-3.21-5.66-4.78-7.72-7.96-1.81-2.78-1.92-8.71.01-11.36,1.12-1.54,1.31-.25,1.66.53,1.03,2.27,1.73,4.71,3.37,6.67.42.51.8,1.1,1.32,1.47,1.03.72,1.92,2.05,3.43,1.39,1.43-.62,1.71-1.98,1.81-3.42.05-.79.37-1.55.65-2.67,2.75,2.84,3.2,6.11,2.64,9.5-.23,1.41-.25,2.77-.3,4.15-2.32.44-4.46,1.65-6.88,1.68Z"/><path class="cls-6" d="m390.34,304.53c0-.75.07-1.42.67-2.04,5.94-6.1,9.99-13.44,13.59-21.05,1.15-2.43,2.09-4.97,3.24-7.4.33-.71.35-2.25,1.6-1.72,1.14.48.49,1.87.15,2.62-2.08,4.47-3.78,9.09-6.2,13.42-2.63,4.7-5.27,9.34-8.87,13.39-1.18,1.32-2.37,2.5-4.21,2.75,0,0,.03.04.03.04Z"/><path class="cls-2" d="m448.14,297.86c2.11-4.71,3.44-9.67,4.2-14.7.78-5.15,2.2-10.33.92-15.65-.14-.58-.66-1.75.81-1.88,1.39-.12,1.03.85,1.15,1.64,1.14,7.6-.56,14.87-2.42,22.14-.64,2.5-1.56,4.9-2.3,7.35-.42,1.4-1.01,1.65-2.35,1.1Z"/><path class="cls-4" d="m370.1,272.21c1.18-.03,2.37-.07,3.55-.1-1.15,1.27-2.33,1.36-3.55.1Z"/><path class="cls-4" d="m510.64,74.35c-1.67-2.21-3.84-3.71-6.48-4.54,3.07-.96,5.91,1.03,6.48,4.54Z"/><path class="cls-4" d="m401.74,68.94c-2.06-.76-.52-2.43-.91-3.61,1.76.84.58,2.41.91,3.61Z"/><path class="cls-4" d="m96.35,168.73c3.94.01,6.68,2.77,6.69,6.74,0,3.26-3.23,6.64-6.42,6.72-3.36.08-7.44-3.94-7.31-7.19.13-3.44,3.32-6.27,7.04-6.26Z"/><path class="cls-4" d="m96.38,205.69c-3.58-.06-6.94-3.44-6.82-6.87.11-3.32,3.57-6.74,6.67-6.58,3.84.2,6.89,3.41,6.81,7.17-.08,3.59-2.99,6.33-6.65,6.28Z"/><path class="cls-6" d="m38.97,341.97c-.65.09-1.23-.08-1.36-.77-.21-1.08.7-1.22,1.4-1.32,4.05-.63,7.93-1.86,11.76-3.25,13.26-4.82,23.92-12.81,30.79-25.39.36-.67.68-1.55,1.61-1.1,1.05.51.21,1.19-.05,1.83-2.4,5.95-6.7,10.44-11.33,14.62-9.29,8.4-20.49,12.84-32.57,15.36-.08.02-.17.02-.25.02Z"/><path class="cls-6" d="m104.85,534.42c-4.36-.71-9.25-1.35-14.1-2.55-4.87-1.21-9.5-3.05-14.28-4.48-1.01-.3-2.16-.67-1.84-1.82.37-1.35,1.53-.53,2.29-.22,6.14,2.46,12.45,4.4,18.94,5.63,5.65,1.07,11.36,1.79,17.05-.06.9-.29,1.62-.81,2.4-1.27.6-.35,1.26-.75,1.73.02.42.7-.08,1.29-.69,1.65-.91.55-1.81,1.27-2.81,1.5-2.68.62-5.32,1.56-8.69,1.61Z"/><path class="cls-6" d="m98.99,513.34c.12.5.85.97.21,1.53-2.38,2.07-4.43,4.57-7.35,6.12-.3-2.17,4.37-6.97,7.2-7.6,0,0-.05-.05-.05-.05Z"/><path class="cls-6" d="m20.76,536.79c2.4.34,4.79.56,7.21.56,3.65,0,7.25-.27,10.78-1.22.84-.23,2-.81,2.29.49.3,1.34-1.08,1.17-1.88,1.4-6.38,1.82-12.85,1.54-19.33.82-.84-.09-1.26-.74-1.15-1.35.24-1.24,1.39-.37,2.07-.71Z"/><path class="cls-6" d="m30.15,528.38c-1.6,0-2.85-.01-4.09,0-.76.01-1.35-.25-1.4-1.06-.06-.97.7-.96,1.38-.96,2.71-.02,5.44.15,8.12-.46.74-.17,1.65-.05,1.78.88.14,1.02-.85.92-1.49,1.23-1.54.75-3.12.06-4.29.36Z"/><path class="cls-3" d="m150.4,130.25c-4.91.07-9.73.85-14.43,2.15-1.66.46-2.7.15-3.67-1.09-4.76-6.1-8.25-12.62-8.32-20.69-.09-10.04,2.96-18.82,10.03-25.92,5.97-6,13.31-9.44,21.89-9.89.77-.04,1.47-.13,2.14-.51.02.08.06.16.06.24.17,2.97.13,5.36-4.08,5.65-2.43.16-4.77,2.02-7.11,3.19-.74.37-.53,1.37-1.14,2.01-6.16,6.42-8.62,14.69-11.22,22.86-.46,1.46.06,3.06.66,4.27,1.89,3.82,4.74,7.35,9.99,7.33.08,0,.17,0,.25,0q5.58.17,5.42,5.87c-.81,1.44-.1,3.03-.46,4.52Z"/><path class="cls-3" d="m158.62,102.97c0,2.99.02,5.99-.02,8.98-.01.84.43,1.86-.8,2.35-.45.18-.4.74-.28,1.11,1.71,5.35,1.61,10.8.99,16.29-.07.66.04,1.34-.04,1.99-.08.68.45,1.65-.4,1.99-.82.32-1.8.21-2.58-.4-1.44-1.14-2.64-2.35-2.6-4.44.1-4.82.06-9.65.08-14.47,0-.41-.1-1.09.1-1.2,3.11-1.78.3-2.35-.67-3.12-3.19-2.55-4.7-5.88-4.78-9.89-.06-2.91.08-5.82-.04-8.72-.05-1.43.64-1.73,1.78-1.72,2.49,0,4.99.1,7.48,0,1.4-.05,1.64.55,1.62,1.77-.07,3.16-.02,6.32-.02,9.48h.17Z"/><path class="cls-6" d="m150.4,130.25c.36-1.48-.35-3.08.46-4.52,1.35,2.3.35,4.79.57,7.19-1.08-.61-.91-1.69-1.03-2.67Z"/><path class="cls-4" d="m70.06,11.11c.03-1.92,1.36-3.22,3.28-3.21,1.82,0,3.72,1.77,3.63,3.38-.09,1.75-2.11,3.62-3.81,3.52-2.01-.11-3.14-1.46-3.11-3.69Z"/><path class="cls-4" d="m88.06,11.02c.03,2.02-1.19,3.31-3.18,3.36-1.95.05-3.31-1.25-3.34-3.19-.04-2.26,1.14-3.66,3.14-3.72,1.81-.06,3.35,1.57,3.38,3.56Z"/><path class="cls-4" d="m96.88,13.91c-2.1.03-3.29-1.08-3.34-3.12-.06-2.19,1.14-3.39,3.31-3.42,2.17-.03,3.18,1.35,3.57,3.15.33,1.57-1.71,3.38-3.53,3.4Z"/><path class="cls-4" d="m130.58,40.38c-2.2.02-3.53-1.19-3.55-3.23-.02-1.89,1.56-3.57,3.41-3.62,1.81-.05,3.5,1.6,3.56,3.48.06,2-1.3,3.35-3.41,3.37Z"/><path class="cls-4" d="m119.09,40.85c-1.82.02-3.6-1.68-3.55-3.39.05-1.81,1.79-3.58,3.5-3.56,1.72.02,3.48,1.81,3.47,3.54-.02,2.08-1.34,3.4-3.42,3.42Z"/><path class="cls-4" d="m146,36.73c.04,1.72-1.67,3.53-3.39,3.6-1.68.06-3.57-1.77-3.57-3.47,0-1.71,1.77-3.48,3.5-3.49,2.07,0,3.42,1.31,3.46,3.36Z"/><path class="cls-5" d="m181.42,63.79c.02-2.07,1.4-3.54,3.37-3.4,2.04.14,3.14,1.33,3.21,3.38.07,2.07-1.33,3.54-3.3,3.53-2.03-.01-3.29-1.37-3.28-3.51Z"/><path class="cls-5" d="m196.82,66.87c-2.03.03-3.32-1.15-3.4-3.13-.07-1.85,1.51-3.71,3.21-3.79,1.57-.07,3.61,1.82,3.71,3.46.11,1.68-1.67,3.43-3.52,3.46Z"/><path class="cls-5" d="m169.93,64.04c.04-1.99,1.48-3.28,3.59-3.21,1.67.06,3.39,1.81,3.33,3.38-.06,1.6-2.06,3.54-3.64,3.53-1.69-.02-3.32-1.85-3.28-3.7Z"/><path class="cls-3" d="m370.29,137.26c1.59,4.72,1.82,9.57,1.37,14.48-1.9,0-3.8.04-5.69,0-1.1-.02-1.81.31-1.67,1.53.3,2.61-.66,5.05-1.19,7.51-.39,1.78.18,1.89,1.62,2,1.56.12,3.31-.78,4.67.71-4.7,14.93-14.36,25.44-28.62,31.68-6.51,2.85-13.43,4.15-20.57,3.9-19.19-.67-33.11-9.9-42.57-26.34-1.72-2.99-2.93-6.16-3.87-9.46,1.06-.64,2.23-.54,3.4-.54,25.54,0,51.07,0,76.61,0q7.25,0,8.44-7.14c.04-.24.04-.5.06-.75.2-2.99.11-3.1-2.86-3.1-24.79,0-49.58,0-74.37,0-3.38,0-3.74.42-3.02,3.74.21.98.78,2.2-.57,2.49-1.24.27-1.03-1.23-1.42-1.97-.69-1.29.74-3.36-.92-4.05-1.36-.56-3.11-.18-4.69-.21-.83-.01-1.66,0-2.5,0-.64-.65-.62-1.47-.57-2.29.26-4.1.48-8.2,1.58-12.19,32.44,0,64.89,0,97.33-.01Z"/><path class="cls-4" d="m370.29,137.26c-32.44,0-64.89,0-97.33.01.88-3.39,2.18-6.63,3.39-9.9.19-.51.51-.81.87-1.14,29.02.02,58.05.03,87.07.04.73,0,1.53.17,2.04-.6,1.85,3.68,3.56,7.41,3.96,11.59Z"/><path class="cls-3" d="m366.33,125.67c-.51.77-1.31.6-2.04.6-29.02-.01-58.05-.03-87.07-.04,1.89-5.14,5.28-9.22,9.12-12.99.46.66,1.16.55,1.81.55,23.26-.01,46.52-.03,69.77-.05,3.59,3.42,6.27,7.49,8.41,11.94Z"/><path class="cls-4" d="m271.95,151.74c.83,0,1.66,0,2.5,0,1.58.03,3.33-.36,4.69.21,1.66.69.23,2.76.92,4.05.39.73.18,2.24,1.42,1.97,1.35-.29.78-1.51.57-2.49-.72-3.32-.36-3.74,3.02-3.74,24.79,0,49.58,0,74.37,0,2.96,0,3.06.11,2.86,3.1-.02.25-.02.5-.06.75q-1.2,7.14-8.44,7.14c-25.54,0-51.07,0-76.61,0-1.16,0-2.34-.11-3.4.54-1.24-3.74-2.3-7.52-1.83-11.53Z"/><path class="cls-4" d="m357.92,113.73c-23.26.02-46.52.04-69.77.05-.65,0-1.35.12-1.81-.55,4.54-5.18,10.28-8.62,16.51-11.34.43,1.45,1.64.87,2.51.87,10.97.04,21.94.03,32.91.01.87,0,1.86.34,2.56-.54,4.28,1.28,7.91,3.75,11.45,6.34,2.06,1.5,4.13,3.03,5.64,5.15Z"/><path class="cls-3" d="m340.83,102.24c-.7.88-1.69.54-2.56.54-10.97.02-21.94.03-32.91-.01-.87,0-2.09.59-2.51-.87,6.82-2.58,13.83-4.04,21.17-3.6,5.83.35,11.48,1.46,16.81,3.94Z"/><path class="cls-4" d="m369.4,163.49c-1.35-1.49-3.11-.59-4.67-.71-1.44-.11-2.01-.22-1.62-2,.53-2.46,1.49-4.9,1.19-7.51-.14-1.22.57-1.55,1.67-1.53,1.9.04,3.8,0,5.69,0-.4,3.99-.87,7.96-2.26,11.75Z"/><path class="cls-5" d="m379.21,153.23c.8.66.34.89-.36,1.03-.09-.42-.25-.85.36-1.03Z"/><path class="cls-3" d="m228.34,146.77c-.01,3.29.58,6.62-.48,9.85-.88,2.68-4.14,4.18-7.58,3.62-1.97-.32-4.29-3.09-4.36-5.33-.07-2.32-.05-4.65-.06-6.98,0-.95-.3-2.15,1.42-1.64.35.1.57-.2.63-.58.12-.8-.32-1.18-.98-1.51-2.8-1.38-4.67-3.73-5.34-6.64-.72-3.14-.35-6.45-.3-9.68,0-.66.46-.86.95-1.22,4.24-3.12,8.91-5.55,13.27-8.47,1.38-.92,2.46.13,3.22.72,2.83,2.19,4.76,5.04,4.63,8.81-.1,3.06.4,6.13-.38,9.17-1.25,4.89-4.21,7.63-9.2,8.37-.55.08-1.09.31-1.63.45-.57.15-.83.52-.71,1.1.12.56.59.46.99.47,1.65.06,3.27-.09,4.84-.63.36.04.72.08,1.08.12Z"/><path class="cls-6" d="m221.43,162.65c-.81.2-1.46.01-1.84-.79.77-.11,1.61-.37,1.84.79Z"/><path class="cls-5" d="m228.34,146.77c-.36-.04-.72-.08-1.08-.12.68-.58.82-.57,1.08.12Z"/><path class="cls-3" d="m437.93,243.76c-3.21.55-6.19.43-9.16.25-4.8-.3-9.52-1.07-14.06-2.81-2.76-1.06-2.8-1.16-.84-3.01,2.86-2.69,2.53-6.21,2.24-9.63-.06-.68-.26-1.41-.36-2.14-.37-2.91-1.14-5.25-4.76-5.9-3.21-.58-3.26-1.32-2.39-4.59.54-2.03,1.34-4.15-.55-6-.53-.52-.35-1.05.2-1.48,1.54-1.2,2.46-2.8,3.14-4.61.42-1.14,1.06-1.65,1.93-.22.64,1.05,1.37,2.07,2.18,2.99,1.07,1.22,2.22,1.93,4.1,1.25,1.77-.64,3.93-.38,4.83,1.48.71,1.45,1,3.44-.76,4.71-1.08.79-2.25,1.49-3.72.75-.56-.28-1.35-.43-1.66.39-.34.9.46,1.12,1.06,1.34.68.26,1.26.79,2.08.65.86-.15,2.22-1.06,2.45-.41.65,1.89,2.88,2.99,2.79,5.04-.36,9.07,4.07,15.63,10.68,21.13.12.1.18.26.56.81Z"/><path class="cls-1" d="m434,236.71c.37,0,.64.13.68.54-.39.02-.57-.21-.68-.54Z"/></g></g></svg>