<svg width="20" height="21" viewBox="0 0 20 21" fill="none" xmlns="http://www.w3.org/2000/svg">
<path d="M7.08012 10.6915L4.04954 8.57017C3.97679 8.5192 3.92724 8.44143 3.91177 8.35395C3.8963 8.26647 3.91618 8.17642 3.96705 8.10359L6.229 4.87299C6.25413 4.8369 6.28613 4.80611 6.32317 4.78241C6.36021 4.7587 6.40157 4.74253 6.44487 4.73483C6.48817 4.72712 6.53256 4.72803 6.5755 4.73751C6.61845 4.74699 6.6591 4.76484 6.69514 4.79005L9.72705 6.91096C9.7999 6.96196 9.84955 7.03977 9.8651 7.12733C9.88065 7.21488 9.86083 7.30503 9.80999 7.37799L7.54803 10.609C7.52278 10.6452 7.49063 10.6761 7.45342 10.6999C7.41621 10.7236 7.37468 10.7398 7.33121 10.7475C7.28773 10.7551 7.24317 10.7541 7.20008 10.7445C7.157 10.7349 7.11623 10.7169 7.08012 10.6915Z" fill="#E5007A"/>
<path d="M8.88658 9.33392C9.056 9.08998 9.22276 8.85048 9.39352 8.60566C9.43185 8.54904 9.4905 8.50936 9.5573 8.49482C9.62411 8.48029 9.69394 8.49202 9.75233 8.5276H9.75455C12.1433 10.0495 14.5316 11.5722 16.9192 13.0959C17.5845 13.5207 17.6967 14.3617 17.16 14.8602C16.7573 15.2345 16.1701 15.2443 15.6853 14.8735C14.1581 13.7053 12.6324 12.5352 11.1082 11.3635L8.94512 9.70603C8.88929 9.6635 8.85204 9.60106 8.84113 9.53173C8.83022 9.4624 8.8465 9.39153 8.88658 9.33392Z" fill="#E5007A"/>
<path d="M10.2566 16.872H2.89151C2.85603 16.1153 3.50357 15.4297 4.31078 15.419C5.82052 15.4001 7.33041 15.4001 8.84045 15.419C9.64056 15.4301 10.2987 16.1282 10.2566 16.872Z" fill="#E5007A"/>
<path d="M11.1862 6.3743C11.1373 6.44874 11.0706 6.5098 10.9922 6.55193C10.9137 6.59407 10.826 6.61594 10.7369 6.61558C10.5711 6.60952 10.4111 6.55288 10.2783 6.45325C9.73488 6.07537 9.19216 5.69675 8.65018 5.3174C8.07686 4.91645 7.50279 4.51581 6.92799 4.11545C6.52882 3.8387 6.58382 3.54509 6.65123 3.39518C6.7047 3.28988 6.78036 3.19743 6.87299 3.12419C6.9636 3.04417 7.08032 3.00001 7.2012 3C7.26767 2.99985 7.33348 3.01328 7.39457 3.03947C7.46839 3.06898 7.53899 3.10599 7.60525 3.14991C8.65949 3.88216 9.75454 4.64812 10.9538 5.4917C11.3007 5.73475 11.3916 6.08114 11.1862 6.3743Z" fill="#E5007A"/>
<path d="M7.0912 12.2629C7.04611 12.3301 6.98716 12.3869 6.91831 12.4294C6.84946 12.472 6.77231 12.4993 6.69204 12.5095C6.66866 12.5126 6.6451 12.5141 6.62152 12.514C6.47306 12.5105 6.32931 12.4612 6.20993 12.3729C5.52513 11.8952 4.83014 11.4078 4.1582 10.9359C3.70315 10.6163 3.24751 10.2967 2.79128 9.97702C2.52073 9.78808 2.43202 9.52463 2.5531 9.27227C2.59667 9.18827 2.65706 9.11414 2.73051 9.0545C2.83027 8.96711 2.95634 8.91551 3.08874 8.90788C3.22114 8.90024 3.3523 8.93701 3.46143 9.01236L3.48938 9.03144C4.61636 9.81469 5.75887 10.613 6.88497 11.4047C7.21317 11.6349 7.29389 11.972 7.0912 12.2629Z" fill="#E5007A"/>
</svg>
