<svg width="14" height="14" viewBox="0 0 14 14" fill="none" xmlns="http://www.w3.org/2000/svg">
<path d="M13.0135 6.6305C13.2912 7.00764 13.4449 7.46972 13.4449 7.95048C13.4449 8.71326 13.03 9.43525 12.3623 9.83787C12.1904 9.94151 11.9947 9.99606 11.7954 9.99587H7.83205L7.93121 12.0837C7.95435 12.5883 7.78081 13.0673 7.44364 13.4326C7.27818 13.6126 7.07855 13.7558 6.8571 13.8534C6.63565 13.951 6.39707 14.0009 6.15613 14C5.29668 14 4.53641 13.4054 4.30832 12.5543L2.88859 7.27096H0.751545C0.459003 7.27096 0.222656 7.02802 0.222656 6.72733V0.543624C0.222656 0.242932 0.459003 9.53674e-07 0.751545 9.53674e-07H10.6897C10.8418 9.53674e-07 10.9905 0.0305796 11.1277 0.0917377C11.9144 0.436598 12.4218 1.22655 12.4218 2.10314C12.4218 2.31719 12.3921 2.52785 12.3326 2.73171C12.6102 3.10884 12.7639 3.57092 12.7639 4.05169C12.7639 4.26574 12.7342 4.4764 12.6747 4.68025C12.9524 5.05739 13.1061 5.51947 13.1061 6.00024C13.1028 6.21429 13.073 6.42664 13.0135 6.6305ZM1.41266 1.22315V6.0478H2.75141V1.22315H1.41266ZM11.9309 7.21999L11.569 6.89722L11.7987 6.46571C11.8744 6.32357 11.9136 6.16397 11.9128 6.00194C11.9128 5.72163 11.7938 5.45492 11.5888 5.27144L11.2269 4.94867L11.4566 4.51717C11.5323 4.37503 11.5715 4.21542 11.5706 4.05339C11.5706 3.77308 11.4516 3.50637 11.2467 3.3229L10.8847 3.00012L11.1145 2.56862C11.1901 2.42648 11.2294 2.26688 11.2285 2.10484C11.2285 1.72431 11.0103 1.38114 10.6732 1.22485H3.80918V6.10217L5.4537 12.2264C5.4961 12.3834 5.58713 12.5219 5.71299 12.6209C5.83885 12.7199 5.99268 12.7741 6.15117 12.7751C6.27678 12.7751 6.40074 12.7378 6.49991 12.6613C6.66353 12.5356 6.75113 12.3453 6.74121 12.1432L6.58254 8.77271H11.7789C12.0731 8.58754 12.2549 8.27496 12.2549 7.95048C12.2549 7.67018 12.1359 7.40516 11.9309 7.21999Z" fill="#485F7D"/>
</svg>
