<svg width="15" height="14" viewBox="0 0 15 14" fill="none" xmlns="http://www.w3.org/2000/svg">
<g clip-path="url(#clip0_4459_63630)">
<path d="M1.61133 11.3214V1.92408C1.61133 1.75605 1.68716 1.58803 1.83883 1.42C1.99049 1.25198 2.14799 1.16797 2.31133 1.16797H11.3938C11.5688 1.16797 11.7322 1.24898 11.8838 1.411C12.0355 1.57303 12.1113 1.74405 12.1113 1.92408V8.33299C12.1113 8.50102 12.0355 8.66904 11.8838 8.83706C11.7322 9.00509 11.5688 9.0891 11.3938 9.0891H4.41133L2.06633 11.5014C1.98466 11.5855 1.88841 11.6065 1.77758 11.5645C1.66674 11.5224 1.61133 11.4414 1.61133 11.3214ZM5.12883 12.6896C4.96549 12.6896 4.80508 12.6056 4.64758 12.4376C4.49008 12.2696 4.41133 12.1015 4.41133 11.9335V10.1693H13.1613V4.04838H14.9113C15.0747 4.04838 15.2322 4.13239 15.3838 4.30042C15.5355 4.46844 15.6113 4.64246 15.6113 4.82249V14.9039C15.6113 15.0239 15.5559 15.105 15.4451 15.147C15.3342 15.189 15.238 15.168 15.1563 15.084L12.8288 12.6896H5.12883ZM11.0613 2.24812H2.66133V8.00895H11.0613V2.24812Z" fill="#485F7D"/>
</g>
<defs>
<clipPath id="clip0_4459_63630">
<rect width="14" height="14" fill="white" transform="translate(0.445312)"/>
</clipPath>
</defs>
</svg>
