<svg width="14" height="14" viewBox="0 0 14 14" fill="none" xmlns="http://www.w3.org/2000/svg">
<path d="M12.7908 7.3695C13.0685 6.99236 13.2222 6.53028 13.2222 6.04952C13.2222 5.28675 12.8074 4.56475 12.1397 4.16213C11.9678 4.05849 11.772 4.00394 11.5727 4.00414H7.60939L7.70856 1.91628C7.73169 1.41173 7.55815 0.932666 7.22099 0.567419C7.05552 0.387392 6.85589 0.244155 6.63444 0.146562C6.41299 0.0489683 6.17442 -0.000908892 5.93347 1.25376e-05C5.07403 1.25376e-05 4.31375 0.5946 4.08567 1.44571L2.66593 6.72904H0.528889C0.236347 6.72904 0 6.97198 0 7.27267V13.4564C0 13.7571 0.236347 14 0.528889 14H10.467C10.6191 14 10.7678 13.9694 10.905 13.9083C11.6917 13.5634 12.1992 12.7735 12.1992 11.8969C12.1992 11.6828 12.1694 11.4722 12.1099 11.2683C12.3876 10.8912 12.5413 10.4291 12.5413 9.94831C12.5413 9.73426 12.5115 9.52361 12.452 9.31975C12.7297 8.94261 12.8834 8.48053 12.8834 7.99976C12.8801 7.78571 12.8503 7.57336 12.7908 7.3695ZM1.19 12.7768V7.9522H2.52875V12.7768H1.19ZM11.7083 6.78001L11.3463 7.10279L11.5761 7.53429C11.6517 7.67643 11.691 7.83603 11.6901 7.99806C11.6901 8.27837 11.5711 8.54508 11.3662 8.72856L11.0042 9.05133L11.2339 9.48283C11.3096 9.62498 11.3489 9.78458 11.348 9.94661C11.348 10.2269 11.229 10.4936 11.024 10.6771L10.6621 10.9999L10.8918 11.4314C10.9675 11.5735 11.0067 11.7331 11.0058 11.8952C11.0058 12.2757 10.7877 12.6189 10.4505 12.7752H3.58653V7.89783L5.23104 1.77358C5.27345 1.61661 5.36448 1.47813 5.49033 1.37911C5.61619 1.28009 5.77002 1.22594 5.92851 1.22486C6.05412 1.22486 6.17808 1.26224 6.27725 1.33868C6.44087 1.4644 6.52847 1.65466 6.51855 1.85682L6.35989 5.22729H11.5562C11.8504 5.41246 12.0322 5.72504 12.0322 6.04952C12.0322 6.32982 11.9132 6.59484 11.7083 6.78001Z" fill="#485F7D"/>
</svg>
