<svg width="25" height="24" viewBox="0 0 25 24" fill="none" xmlns="http://www.w3.org/2000/svg">
<g id="Frame 2087324699">
<g id="Vector">
<path fill-rule="evenodd" clip-rule="evenodd" d="M17.5945 12.96C19.0891 13.9745 20.1364 15.3491 20.1364 17.1818V20.4545H24.5V17.1818C24.5 14.8036 20.6055 13.3964 17.5945 12.96Z" fill="#044CE0"/>
<path d="M9.22727 11.7273C11.6372 11.7273 13.5909 9.77361 13.5909 7.36364C13.5909 4.95367 11.6372 3 9.22727 3C6.8173 3 4.86364 4.95367 4.86364 7.36364C4.86364 9.77361 6.8173 11.7273 9.22727 11.7273Z" fill="#044CE0"/>
<path fill-rule="evenodd" clip-rule="evenodd" d="M15.7727 11.7273C18.1836 11.7273 20.1364 9.77455 20.1364 7.36364C20.1364 4.95273 18.1836 3 15.7727 3C15.26 3 14.78 3.10909 14.3218 3.26182C15.2273 4.38545 15.7727 5.81455 15.7727 7.36364C15.7727 8.91273 15.2273 10.3418 14.3218 11.4655C14.78 11.6182 15.26 11.7273 15.7727 11.7273Z" fill="#044CE0"/>
<path fill-rule="evenodd" clip-rule="evenodd" d="M9.22727 12.8182C5.41803 12.8182 0.5 14.3115 0.5 17.1818V20.4545H17.9545V17.1818C17.9545 14.8033 13.2869 12.8182 9.22727 12.8182Z" fill="#044CE0"/>
</g>
</g>
</svg>
