<svg width="25" height="24" viewBox="0 0 25 24" fill="none" xmlns="http://www.w3.org/2000/svg">
<g id="Frame 2087324699">
<g id="Vector">
<path d="M15.7771 11.8816C16.6406 11.8816 17.4846 11.6211 18.2025 11.1329C18.9204 10.6448 19.4798 9.95105 19.8101 9.1394C20.1404 8.32775 20.2266 7.43467 20.0579 6.57315C19.8892 5.71162 19.4731 4.92035 18.8623 4.29944C18.2516 3.67852 17.4735 3.25585 16.6266 3.0849C15.7796 2.91395 14.9019 3.00239 14.1044 3.33905C13.3068 3.6757 12.6254 4.24543 12.1462 4.97618C11.667 5.70693 11.4115 6.56586 11.4122 7.44431C11.4129 8.62154 11.8731 9.75031 12.6916 10.5824C13.5102 11.4145 14.62 11.8818 15.7771 11.8816ZM5.95612 8.74965V6.52925C5.95612 6.23481 5.84115 5.95243 5.6365 5.74423C5.43186 5.53602 5.1543 5.41906 4.86489 5.41906C4.57548 5.41906 4.29793 5.53602 4.09328 5.74423C3.88864 5.95243 3.77367 6.23481 3.77367 6.52925V8.74965H1.59122C1.44792 8.74965 1.30602 8.77837 1.17363 8.83416C1.04124 8.88995 0.920941 8.97173 0.819612 9.07482C0.718282 9.17791 0.637904 9.3003 0.583064 9.43499C0.528225 9.56969 0.5 9.71406 0.5 9.85985C0.5 10.0056 0.528225 10.15 0.583064 10.2847C0.637904 10.4194 0.718282 10.5418 0.819612 10.6449C0.920941 10.748 1.04124 10.8297 1.17363 10.8855C1.30602 10.9413 1.44792 10.97 1.59122 10.97H3.77367V13.1904C3.77367 13.3362 3.8019 13.4806 3.85673 13.6153C3.91157 13.75 3.99195 13.8724 4.09328 13.9755C4.19461 14.0786 4.31491 14.1603 4.4473 14.2161C4.57969 14.2719 4.72159 14.3006 4.86489 14.3006C5.00819 14.3006 5.15009 14.2719 5.28249 14.2161C5.41488 14.1603 5.53518 14.0786 5.6365 13.9755C5.73783 13.8724 5.81821 13.75 5.87305 13.6153C5.92789 13.4806 5.95612 13.3362 5.95612 13.1904V10.97H8.13856C8.42797 10.97 8.70553 10.8531 8.91017 10.6449C9.11482 10.4367 9.22979 10.1543 9.22979 9.85985C9.22979 9.56541 9.11482 9.28302 8.91017 9.07482C8.70553 8.86662 8.42797 8.74965 8.13856 8.74965H5.95612Z" fill="#485F7D"/>
<path d="M7.04734 20.3333C7.04734 16.4903 10.956 13.375 15.7737 13.375C20.5948 13.375 24.5 16.4903 24.5 20.3333" fill="#485F7D"/>
</g>
</g>
</svg>
