<svg width="24" height="24" viewBox="0 0 24 24" fill="none" xmlns="http://www.w3.org/2000/svg">
<g id="Frame 2087324699">
<g id="Icon">
<path d="M16 6C16 8.20914 14.2091 10 12 10C9.79086 10 8 8.20914 8 6C8 3.79086 9.79086 2 12 2C14.2091 2 16 3.79086 16 6Z" fill="#485F7D"/>
<path d="M22.6667 8.66667C22.6667 10.1394 21.4728 11.3333 20 11.3333C18.5272 11.3333 17.3333 10.1394 17.3333 8.66667C17.3333 7.19391 18.5272 6 20 6C21.4728 6 22.6667 7.19391 22.6667 8.66667Z" fill="#485F7D"/>
<path d="M17.3333 18C17.3333 15.0545 14.9455 12.6667 12 12.6667C9.05448 12.6667 6.66667 15.0545 6.66667 18V22H17.3333V18Z" fill="#485F7D"/>
<path d="M6.66667 8.66667C6.66667 10.1394 5.47276 11.3333 4 11.3333C2.52724 11.3333 1.33333 10.1394 1.33333 8.66667C1.33333 7.19391 2.52724 6 4 6C5.47276 6 6.66667 7.19391 6.66667 8.66667Z" fill="#485F7D"/>
<path d="M19 22V18C19 16.5945 18.6375 15.2736 18.001 14.1258C18.3203 14.0437 18.6551 14 19 14C21.2091 14 24 15.7909 24 18V22H19Z" fill="#485F7D"/>
<path d="M5.99902 14.1258C5.36246 15.2736 5 16.5945 5 18V22H0V18C0 15.7909 2.79086 14 5 14C5.34495 14 5.67969 14.0437 5.99902 14.1258Z" fill="#485F7D"/>
</g>
</g>
</svg>
