<svg width="20" height="20" viewBox="0 0 20 20" fill="none" xmlns="http://www.w3.org/2000/svg">
<path d="M10.2083 18.3337C14.8107 18.3337 18.5417 14.6027 18.5417 10.0003C18.5417 5.39795 14.8107 1.66699 10.2083 1.66699C5.60596 1.66699 1.875 5.39795 1.875 10.0003C1.875 14.6027 5.60596 18.3337 10.2083 18.3337Z" fill="white" stroke="#667589" stroke-width="1.5" stroke-linecap="round" stroke-linejoin="round"/>
<circle cx="7.8125" cy="8.4375" r="0.9375" fill="#667589"/>
<circle cx="12.8125" cy="8.4375" r="0.9375" fill="#667589"/>
<path d="M10.2046 14.735C9.19601 14.735 8.1874 14.732 7.17879 14.7373C6.94333 14.7385 6.80686 14.6049 6.71198 14.4233C6.62236 14.2517 6.67215 14.0853 6.78929 13.9342C8.08256 12.2605 10.3885 11.7397 12.2664 12.7051C12.8503 13.005 13.3458 13.4169 13.7453 13.9412C13.9632 14.2271 13.8759 14.5499 13.5397 14.6676C13.4237 14.708 13.2955 14.7326 13.1725 14.7332C12.1832 14.7385 11.1939 14.7361 10.2052 14.7361L10.2046 14.735Z" fill="#667589"/>
</svg>
