<svg width="20" height="20" viewBox="0 0 20 20" fill="none" xmlns="http://www.w3.org/2000/svg">
<path d="M10.2083 18.3327C14.8107 18.3327 18.5417 14.6017 18.5417 9.99935C18.5417 5.39698 14.8107 1.66602 10.2083 1.66602C5.60596 1.66602 1.875 5.39698 1.875 9.99935C1.875 14.6017 5.60596 18.3327 10.2083 18.3327Z" fill="#222222" stroke="#FF60B5" stroke-width="1.5" stroke-linecap="round" stroke-linejoin="round"/>
<circle cx="7.8125" cy="8.4375" r="0.9375" fill="#FF60B5"/>
<circle cx="12.8125" cy="8.4375" r="0.9375" fill="#FF60B5"/>
<path d="M10.3247 12.226C11.3333 12.226 12.3419 12.2289 13.3505 12.2236C13.586 12.2224 13.7224 12.356 13.8173 12.5376C13.9069 12.7093 13.8572 12.8756 13.74 13.0268C12.4467 14.7005 10.1408 15.2213 8.26294 14.2558C7.67897 13.9559 7.18346 13.5441 6.78399 13.0197C6.56611 12.7339 6.65338 12.4111 6.98958 12.2933C7.10555 12.2529 7.23383 12.2283 7.35683 12.2277C8.34611 12.2224 9.33539 12.2248 10.3241 12.2248L10.3247 12.226Z" fill="#FF60B5"/>
</svg>
