<svg width="20" height="21" viewBox="0 0 20 21" fill="none" xmlns="http://www.w3.org/2000/svg">
<path d="M10.2083 18.8334C14.8107 18.8334 18.5417 15.1025 18.5417 10.5001C18.5417 5.89771 14.8107 2.16675 10.2083 2.16675C5.60596 2.16675 1.875 5.89771 1.875 10.5001C1.875 15.1025 5.60596 18.8334 10.2083 18.8334Z" fill="#222222" stroke="white" stroke-opacity="0.6" stroke-width="1.5" stroke-linecap="round" stroke-linejoin="round"/>
<circle cx="7.8125" cy="8.9375" r="0.9375" fill="white" fill-opacity="0.6"/>
<circle cx="12.8125" cy="8.9375" r="0.9375" fill="white" fill-opacity="0.6"/>
<path d="M10.3286 12.725C11.3372 12.725 12.3458 12.7279 13.3544 12.7226C13.5899 12.7215 13.7263 12.855 13.8212 13.0366C13.9108 13.2083 13.8611 13.3747 13.7439 13.5258C12.4506 15.1995 10.1447 15.7203 8.26684 14.7549C7.68288 14.4549 7.18736 14.0431 6.7879 13.5188C6.57001 13.2329 6.65728 12.9101 6.99349 12.7924C7.10946 12.7519 7.23773 12.7273 7.36073 12.7267C8.35002 12.7215 9.3393 12.7238 10.328 12.7238L10.3286 12.725Z" fill="white" fill-opacity="0.6"/>
</svg>
