<svg width="20" height="20" viewBox="0 0 20 20" fill="none" xmlns="http://www.w3.org/2000/svg">
<path d="M10.2083 18.3337C14.8107 18.3337 18.5417 14.6027 18.5417 10.0003C18.5417 5.39795 14.8107 1.66699 10.2083 1.66699C5.60596 1.66699 1.875 5.39795 1.875 10.0003C1.875 14.6027 5.60596 18.3337 10.2083 18.3337Z" fill="white" stroke="#E5007A" stroke-width="1.5" stroke-linecap="round" stroke-linejoin="round"/>
<circle cx="7.8125" cy="8.4375" r="0.9375" fill="#E5007A"/>
<circle cx="12.8125" cy="8.4375" r="0.9375" fill="#E5007A"/>
<path d="M10.3266 12.225C11.3352 12.225 12.3438 12.2279 13.3525 12.2226C13.5879 12.2215 13.7244 12.355 13.8193 12.5366C13.9089 12.7083 13.8591 12.8747 13.742 13.0258C12.4487 14.6995 10.1427 15.2203 8.26489 14.2549C7.68093 13.9549 7.18541 13.5431 6.78595 13.0188C6.56806 12.7329 6.65533 12.4101 6.99153 12.2924C7.10751 12.2519 7.23578 12.2273 7.35878 12.2267C8.34806 12.2215 9.33734 12.2238 10.326 12.2238L10.3266 12.225Z" fill="#E5007A"/>
</svg>
