<svg width="24" height="24" viewBox="0 0 24 24" fill="none" xmlns="http://www.w3.org/2000/svg">
<path fill-rule="evenodd" clip-rule="evenodd" d="M21 10C21 7.19108 21 5.78661 20.2416 4.77772C19.9133 4.34096 19.4914 3.96596 19.0001 3.67412C17.8651 3 16.285 3 13.125 3H10.875C7.71496 3 6.13494 3 4.99993 3.67412C4.50858 3.96596 4.0867 4.34096 3.75839 4.77772C3 5.78661 3 7.19108 3 10C3 12.8089 3 14.2134 3.75839 15.2223C4.0867 15.659 4.50858 16.034 4.99993 16.3259C5.99145 16.9148 7.32259 16.9892 9.75 16.9986V17L11.1284 19.4505C11.5107 20.1302 12.4893 20.1302 12.8716 19.4505L14.25 17V16.9986C16.6774 16.9892 18.0085 16.9148 19.0001 16.3259C19.4914 16.034 19.9133 15.659 20.2416 15.2223C21 14.2134 21 12.8089 21 10ZM8 11C8.55228 11 9 10.5523 9 10C9 9.44772 8.55228 9 8 9C7.44772 9 7 9.44772 7 10C7 10.5523 7.44772 11 8 11ZM13 10C13 10.5523 12.5523 11 12 11C11.4477 11 11 10.5523 11 10C11 9.44772 11.4477 9 12 9C12.5523 9 13 9.44772 13 10ZM17 10C17 10.5523 16.5523 11 16 11C15.4477 11 15 10.5523 15 10C15 9.44772 15.4477 9 16 9C16.5523 9 17 9.44772 17 10Z" fill="#485F7D"/>
</svg>
