<svg width="18" height="17" viewBox="0 0 18 17" fill="none" xmlns="http://www.w3.org/2000/svg">
<path d="M16.2004 0H1.79958C1.32347 0.00167586 0.867476 0.192177 0.531672 0.529695C0.195869 0.867212 0.00769114 1.32417 0.00843918 1.80028L3.56852e-07 15.6779C-0.000102535 15.7529 0.0220471 15.8263 0.0636459 15.8887C0.105245 15.9511 0.164423 15.9997 0.23369 16.0285C0.302957 16.0573 0.3792 16.0648 0.452769 16.0502C0.526337 16.0357 0.593925 15.9996 0.646976 15.9466L3.10127 13.4923C3.25928 13.3343 3.44688 13.209 3.65334 13.1236C3.85979 13.0381 4.08107 12.9942 4.3045 12.9944H16.1997C16.6767 12.9929 17.1338 12.8027 17.4711 12.4654C17.8084 12.1281 17.9985 11.6711 18 11.1941V1.80028C17.9987 1.32334 17.8087 0.86629 17.4715 0.528973C17.1343 0.191656 16.6774 0.00148462 16.2004 0ZM4.6308 8.20042C4.32288 8.20042 4.02756 8.0781 3.80982 7.86036C3.59208 7.64262 3.46976 7.34731 3.46976 7.03938C3.46976 6.73145 3.59208 6.43614 3.80982 6.2184C4.02756 6.00066 4.32288 5.87834 4.6308 5.87834C4.93873 5.87834 5.23404 6.00066 5.45178 6.2184C5.66952 6.43614 5.79184 6.73145 5.79184 7.03938C5.79184 7.19185 5.76181 7.34283 5.70346 7.48369C5.64512 7.62456 5.55959 7.75255 5.45178 7.86036C5.34397 7.96817 5.21598 8.0537 5.07511 8.11204C4.93425 8.17039 4.78327 8.20042 4.6308 8.20042ZM9.27215 8.20042C9.11968 8.20042 8.96871 8.17039 8.82784 8.11204C8.68698 8.0537 8.55899 7.96817 8.45117 7.86036C8.34336 7.75255 8.25784 7.62456 8.19949 7.48369C8.14114 7.34283 8.11111 7.19185 8.11111 7.03938C8.11111 6.73145 8.23344 6.43614 8.45117 6.2184C8.66891 6.00066 8.96423 5.87834 9.27215 5.87834C9.58008 5.87834 9.87539 6.00066 10.0931 6.2184C10.3109 6.43614 10.4332 6.73145 10.4332 7.03938C10.4332 7.34694 10.3112 7.64194 10.0939 7.85962C9.8766 8.07729 9.58182 8.19986 9.27426 8.20042H9.27215ZM13.9135 8.20042C13.761 8.20042 13.6101 8.17039 13.4692 8.11204C13.3283 8.0537 13.2003 7.96817 13.0925 7.86036C12.9847 7.75255 12.8992 7.62456 12.8408 7.48369C12.7825 7.34283 12.7525 7.19185 12.7525 7.03938C12.7525 6.73145 12.8748 6.43614 13.0925 6.2184C13.3103 6.00066 13.6056 5.87834 13.9135 5.87834C14.2214 5.87834 14.5167 6.00066 14.7345 6.2184C14.9522 6.43614 15.0745 6.73145 15.0745 7.03938C15.0745 7.34646 14.9529 7.64103 14.7362 7.85863C14.5196 8.07622 14.2255 8.19912 13.9184 8.20042H13.9135Z" fill="#E5007A"/>
</svg>
