<svg width="20" height="20" viewBox="0 0 20 20" fill="none" xmlns="http://www.w3.org/2000/svg">
<path fill-rule="evenodd" clip-rule="evenodd" d="M20 10C20 15.5228 15.5228 20 10 20H0.993697C0.110179 20 -0.332289 18.9229 0.292453 18.2929L2.2495 16.3195C0.843343 14.597 1.21409e-08 12.397 1.21409e-08 10C1.21409e-08 4.47715 4.47715 0 10 0C15.5228 0 20 4.47715 20 10ZM10.99 6C10.99 5.44772 10.5446 5 9.99502 5C9.44549 5 9 5.44772 9 6V10C9 10.5523 9.44549 11 9.99502 11C10.5446 11 10.99 10.5523 10.99 10V6ZM9.99502 13C9.44549 13 9 13.4477 9 14C9 14.5523 9.44549 15 9.99502 15H10.005C10.5545 15 11 14.5523 11 14C11 13.4477 10.5545 13 10.005 13H9.99502Z" fill="#FFC400"/>
<path fill-rule="evenodd" clip-rule="evenodd" d="M20 10C20 15.5228 15.5228 20 10 20H0.993697C0.110179 20 -0.332289 18.9229 0.292453 18.2929L2.2495 16.3195C0.843343 14.597 1.21409e-08 12.397 1.21409e-08 10C1.21409e-08 4.47715 4.47715 0 10 0C15.5228 0 20 4.47715 20 10ZM10.99 6C10.99 5.44772 10.5446 5 9.99502 5C9.44549 5 9 5.44772 9 6V10C9 10.5523 9.44549 11 9.99502 11C10.5446 11 10.99 10.5523 10.99 10V6ZM9.99502 13C9.44549 13 9 13.4477 9 14C9 14.5523 9.44549 15 9.99502 15H10.005C10.5545 15 11 14.5523 11 14C11 13.4477 10.5545 13 10.005 13H9.99502Z" fill="#243A57"/>
</svg>
