<svg width="20" height="20" viewBox="0 0 20 20" fill="none" xmlns="http://www.w3.org/2000/svg">
<path fill-rule="evenodd" clip-rule="evenodd" d="M20 10C20 15.5228 15.5228 20 10 20H0.993697C0.110179 20 -0.332289 18.9229 0.292453 18.2929L2.2495 16.3195C0.843343 14.597 1.21409e-08 12.397 1.21409e-08 10C1.21409e-08 4.47715 4.47715 0 10 0C15.5228 0 20 4.47715 20 10ZM13.7071 8.70711C14.0976 8.31658 14.0976 7.68342 13.7071 7.29289C13.3166 6.90237 12.6834 6.90237 12.2929 7.29289L9 10.5858L7.70711 9.29289C7.31658 8.90237 6.68342 8.90237 6.29289 9.29289C5.90237 9.68342 5.90237 10.3166 6.29289 10.7071L8.29289 12.7071C8.48043 12.8946 8.73478 13 9 13C9.26522 13 9.51957 12.8946 9.70711 12.7071L13.7071 8.70711Z" fill="#31C440"/>
</svg>
