<?xml version="1.0" standalone="no"?>
<!DOCTYPE svg PUBLIC "-//W3C//DTD SVG 20010904//EN"
 "http://www.w3.org/TR/2001/REC-SVG-20010904/DTD/svg10.dtd">
<svg version="1.0" xmlns="http://www.w3.org/2000/svg"
 width="64.000000pt" height="64.000000pt" viewBox="0 0 64.000000 64.000000"
 preserveAspectRatio="xMidYMid meet">

<g transform="translate(0.000000,64.000000) scale(0.100000,-0.100000)"
fill="#E6007A" stroke="none">
<path d="M225 623 c-93 -34 -148 -83 -193 -173 -38 -79 -38 -182 1 -262 58
-118 159 -182 287 -183 62 0 85 5 132 28 118 58 182 159 183 287 0 62 -5 85
-28 132 -15 31 -44 73 -63 92 -80 80 -219 115 -319 79z m161 -104 c102 -26
161 -137 135 -253 -46 -205 -356 -205 -402 0 -38 171 94 296 267 253z"/>
<path d="M278 413 c-27 -31 -29 -56 -8 -88 11 -16 20 -42 20 -57 0 -39 10 -58
30 -58 20 0 30 19 30 56 0 14 10 43 22 64 l23 39 -21 28 c-26 34 -73 42 -96
16z"/>
</g>
</svg>
