<svg viewBox="0 0 319 319" fill="none" xmlns="http://www.w3.org/2000/svg"><g clip-path="url(#clip0_8265_59508)"><g clip-path="url(#clip1_8265_59508)"><path d="M274.102 35.5l-99.5 73.9 18.4-43.6 81.1-30.3z" fill="#E2761B" stroke="#E2761B" stroke-linecap="round" stroke-linejoin="round"/><path d="M44.398 35.5l98.7 74.6-17.5-44.3-81.2-30.3zm193.9 171.3l-26.5 40.6 56.7 15.6 16.3-55.3-46.5-.9zm-204.4.9l16.2 55.3 56.7-15.6-26.5-40.6-46.4.9z" fill="#E4761B" stroke="#000" stroke-linecap="round" stroke-linejoin="round"/><path d="M103.597 138.2l-15.8 23.9 56.3 2.5-2-60.5-38.5 34.1zm111.3 0l-39-34.8-1.3 61.2 56.2-2.5-15.9-23.9zm-108.1 109.2l33.8-16.5-29.2-22.8-4.6 39.3zm71.1-16.5l33.9 16.5-4.7-39.3-29.2 22.8z" fill="#E4761B" stroke="#000" stroke-linecap="round" stroke-linejoin="round"/><path d="M211.797 247.4l-33.9-16.5 2.7 22.1-.3 9.3 31.5-14.9zm-105 0l31.5 14.9-.2-9.3 2.5-22.1-33.8 16.5z" fill="#D7C1B3" stroke="#D7C1B3" stroke-linecap="round" stroke-linejoin="round"/><path d="M138.802 193.5l-28.2-8.3 19.9-9.1 8.3 17.4zm40.9 0l8.3-17.4 20 9.1-28.3 8.3z" fill="#233447" stroke="#233447" stroke-linecap="round" stroke-linejoin="round"/><path d="M106.797 247.4l4.8-40.6-31.3.9 26.5 39.7zm100.2-40.6l4.8 40.6 26.5-39.7-31.3-.9zm23.8-44.7l-56.2 2.5 5.2 28.9 8.3-17.4 20 9.1 22.7-23.1zm-120.2 23.1l20-9.1 8.2 17.4 5.3-28.9-56.3-2.5 22.8 23.1z" fill="#CD6116" stroke="#CD6116" stroke-linecap="round" stroke-linejoin="round"/><path d="M87.797 162.1l23.6 46-.8-22.9-22.8-23.1zm120.3 23.1l-1 22.9 23.7-46-22.7 23.1zm-64-20.6l-5.3 28.9 6.6 34.1 1.5-44.9-2.8-18.1zm30.5 0l-2.7 18 1.2 45 6.7-34.1-5.2-28.9z" fill="#E4751F" stroke="#E4751F" stroke-linecap="round" stroke-linejoin="round"/><path d="M179.802 193.5l-6.7 34.1 4.8 3.3 29.2-22.8 1-22.9-28.3 8.3zm-69.2-8.3l.8 22.9 29.2 22.8 4.8-3.3-6.6-34.1-28.2-8.3z" fill="#F6851B" stroke="#F6851B" stroke-linecap="round" stroke-linejoin="round"/><path d="M180.297 262.3l.3-9.3-2.5-2.2h-37.7l-2.3 2.2.2 9.3-31.5-14.9 11 9 22.3 15.5h38.3l22.4-15.5 11-9-31.5 14.9z" fill="#C0AD9E" stroke="#C0AD9E" stroke-linecap="round" stroke-linejoin="round"/><path d="M177.902 230.9l-4.8-3.3h-27.7l-4.8 3.3-2.5 22.1 2.3-2.2h37.7l2.5 2.2-2.7-22.1z" fill="#161616" stroke="#161616" stroke-linecap="round" stroke-linejoin="round"/><path d="M278.297 114.2l8.5-40.8-12.7-37.9-96.2 71.4 37 31.3 52.3 15.3 11.6-13.5-5-3.6 8-7.3-6.2-4.8 8-6.1-5.3-4zm-246.5-40.8l8.5 40.8-5.4 4 8 6.1-6.1 4.8 8 7.3-5 3.6 11.5 13.5 52.3-15.3 37-31.3-96.2-71.4-12.6 37.9z" fill="#763D16" stroke="#763D16" stroke-linecap="round" stroke-linejoin="round"/><path d="M267.198 153.5l-52.3-15.3 15.9 23.9-23.7 46 31.2-.4h46.5l-17.6-54.2zm-163.6-15.3l-52.3 15.3-17.4 54.2h46.4l31.1.4-23.6-46 15.8-23.9zm71 26.4l3.3-57.7 15.2-41.1h-67.5l15 41.1 3.5 57.7 1.2 18.2.1 44.8h27.7l.2-44.8 1.3-18.2z" fill="#F6851B" stroke="#F6851B" stroke-linecap="round" stroke-linejoin="round"/><g clip-path="url(#clip2_8265_59508)"><path d="M255 319c35.346 0 64-28.654 64-64 0-35.346-28.654-64-64-64-35.346 0-64 28.654-64 64 0 35.346 28.654 64 64 64z" fill="#000"/><path d="M297.342 219.67a27.457 27.457 0 00-8.2-4.78 45.995 45.995 0 00-15.61-2.82 76.035 76.035 0 00-22.48 3.1 55.042 55.042 0 00-9.8 3.5l-.16.07a62.545 62.545 0 0113.47-1.24c4.587.025 9.135.848 13.44 2.43a23.681 23.681 0 017.07 4.12 17.05 17.05 0 016.17 13.43 26.415 26.415 0 01-3.41 12.52 51.076 51.076 0 01-11.76 14.42 78.856 78.856 0 01-22.91 14 73.112 73.112 0 01-24.53 5.48 44.614 44.614 0 01-13.14-1.25 29.407 29.407 0 008.82 4.4 50.577 50.577 0 0017.51 2.1 84.723 84.723 0 0028.47-6.4 91.693 91.693 0 0026.59-16.21 59.245 59.245 0 0013.66-16.76 30.799 30.799 0 004-14.52 19.78 19.78 0 00-7.2-15.59z" fill="#E30B7B"/><path d="M256.561 271.54c1-.66 2-1.34 3-2-1.69-.4-3.44-.86-5-1.33-4.76-1.47-3.17-7.82-2-9.38a68.701 68.701 0 007.14-13.4c1.49-4.1.19-9.22-.49-11.36-.12-.33-.24-.67-.34-1l-1.84-5.56a19.568 19.568 0 00-2.53-4.67 7.578 7.578 0 00-6-3.14 16.253 16.253 0 00-3.74.33c-2 .32-4 .68-6 1a.922.922 0 01-.21 0c.48.61.9 1.14 1.3 1.67.59.8 1.17 1.62 1.77 2.42a8.634 8.634 0 011.72 4.88 17.494 17.494 0 01-.24 3.32 70.378 70.378 0 00-5.45 8.89l-14.91 29.41a1.314 1.314 0 00-.07.18l.06.06 5-3 .06.07c-5.353 8.58-10.713 17.16-16.08 25.74h.05l2.24-1.27c-.63 1.54-1.22 3-1.84 4.54a9.482 9.482 0 002.84-1.54 7.825 7.825 0 002.1-2.49l.42.71.29-.35c3.73-4.73 7.59-9.36 11.63-13.84a107.247 107.247 0 019.77-9.77 23.316 23.316 0 014.79-3.31 5.396 5.396 0 012-.59l-2.59 2.79c1.88-1 2.15-.31 4-1.27l.21.22c1.62 1.92 5.27 2.6 7.77 2.82.395.043.786.116 1.17.22z" fill="#fff"/></g></g></g><defs><clipPath id="clip0_8265_59508"><path fill="#fff" d="M0 0h319v319H0z"/></clipPath><clipPath id="clip1_8265_59508"><path fill="#fff" d="M0 0h318.6v318.6H0z"/></clipPath><clipPath id="clip2_8265_59508"><path fill="#fff" transform="translate(191 191)" d="M0 0h128v128H0z"/></clipPath></defs></svg>