<svg xmlns="http://www.w3.org/2000/svg" fill="none" viewBox="0 0 250 250" >
  <path fill="#000" d="M0 0h250v250H0z"/>
  <path fill="url(#a)" d="m85.476 137.062 17.283 9.336-19.244 8.463L66 145.749l19.476-8.687Z"/>
  <path fill="url(#b)" d="m103.315 90.4013-.015 8.193-19.8161 8.8557-.023-27.3797 19.8541 10.331Z"/>
  <path fill="url(#c)" d="m101.315 159.579 44.062-19.42-61.8926-32.7 19.8146-8.8574 80.173 42.2294-81.979 35.943-.178-17.195Z"/>
  <path fill="url(#d)" d="M183.471 140.828v26.67l-99.9183 43.596-.039-56.228 19.2443-8.463-.039 12.563-.046 17.296 80.798-35.434Z"/>
  <path fill="url(#e)" d="m66 145.75 17.515 9.112.031 56.228L66 202.334V145.75Z"/>
  <path fill="url(#f)" d="m183.448 112.451.031-24.6619-20.51 8.949-.008 24.7779 20.487-9.065Z"/>
  <path fill="url(#g)" d="M66 47.227 86.58 38l96.9 49.788-20.533 8.95L66 47.228v-.001Z"/>
  <path fill="url(#h)" d="M162.97 121.515V96.7366L66 47.2266v71.1774l58.196 31.11 21.259-9.382-61.947-32.677-.047-27.4504 79.509 41.5104Z"/>
  <defs>
    <linearGradient id="a" x1="62.042" x2="137.056" y1="145.961" y2="145.961" gradientUnits="userSpaceOnUse">
      <stop stop-color="#00FECF"/>
      <stop offset=".08" stop-color="#00E5D0"/>
      <stop offset=".25" stop-color="#00A5D1"/>
      <stop offset=".494" stop-color="#0040D4"/>
      <stop offset=".557" stop-color="#0025D5"/>
    </linearGradient>
    <linearGradient id="b" x1="93.3879" x2="93.3879" y1="117.21" y2="55.8283" gradientUnits="userSpaceOnUse">
      <stop stop-color="#00FECF"/>
      <stop offset=".078" stop-color="#00E5D0"/>
      <stop offset=".244" stop-color="#00A5D1"/>
      <stop offset=".482" stop-color="#0040D4"/>
      <stop offset=".544" stop-color="#0025D5"/>
      <stop offset="1"/>
    </linearGradient>
    <linearGradient id="c" x1="83.4804" x2="243.678" y1="137.69" y2="137.69" gradientUnits="userSpaceOnUse">
      <stop stop-color="#FDEC9F"/>
      <stop offset=".076" stop-color="#E4D8A4"/>
      <stop offset=".238" stop-color="#A4A6B2"/>
      <stop offset=".47" stop-color="#3F57C7"/>
      <stop offset=".608" stop-color="#0025D5"/>
      <stop offset="1"/>
    </linearGradient>
    <linearGradient id="d" x1="50.8917" x2="255.464" y1="175.96" y2="175.96" gradientUnits="userSpaceOnUse">
      <stop offset=".054" stop-color="#62A5FF"/>
      <stop offset=".449" stop-color="#1032D1"/>
      <stop offset="1"/>
    </linearGradient>
    <linearGradient id="e" x1="59.634" x2="102.979" y1="177.57" y2="179.994" gradientUnits="userSpaceOnUse">
      <stop stop-color="#FFD4B2"/>
      <stop offset=".356" stop-color="#9ACEB7"/>
      <stop offset=".671" stop-color="#47C8BB"/>
      <stop offset=".892" stop-color="#14C5BE"/>
      <stop offset="1" stop-color="#00C4BF"/>
    </linearGradient>
    <linearGradient id="f" x1="143.134" x2="280.433" y1="105.198" y2="102.719" gradientUnits="userSpaceOnUse">
      <stop stop-color="#00FECF"/>
      <stop offset=".047" stop-color="#00E5D0"/>
      <stop offset=".147" stop-color="#00A5D1"/>
      <stop offset=".291" stop-color="#0040D4"/>
      <stop offset=".328" stop-color="#0025D5"/>
    </linearGradient>
    <linearGradient id="g" x1="66" x2="284.982" y1="67.368" y2="67.368" gradientUnits="userSpaceOnUse">
      <stop stop-color="#FFD4AF"/>
      <stop offset=".1" stop-color="#E6D5BA"/>
      <stop offset=".312" stop-color="#A7D6D5"/>
      <stop offset=".612" stop-color="#43D9FF"/>
      <stop offset=".63" stop-color="#37B1D0"/>
      <stop offset=".65" stop-color="#2B8CA5"/>
      <stop offset=".672" stop-color="#216B7D"/>
      <stop offset=".696" stop-color="#184E5B"/>
      <stop offset=".722" stop-color="#10353F"/>
      <stop offset=".751" stop-color="#0A2228"/>
      <stop offset=".784" stop-color="#061316"/>
      <stop offset=".823" stop-color="#020809"/>
      <stop offset=".876" stop-color="#010202"/>
      <stop offset="1"/>
    </linearGradient>
    <linearGradient id="h" x1="41.744" x2="213.009" y1="98.3706" y2="98.3706" gradientUnits="userSpaceOnUse">
      <stop stop-color="#FFD4B2"/>
      <stop offset=".356" stop-color="#9ACEB7"/>
      <stop offset=".671" stop-color="#47C8BB"/>
      <stop offset=".892" stop-color="#14C5BE"/>
      <stop offset="1" stop-color="#00C4BF"/>
    </linearGradient>
  </defs>
</svg>