<svg width="40" height="41" viewBox="0 0 40 41" fill="none" xmlns="http://www.w3.org/2000/svg">
<rect y="0.5" width="40" height="40" rx="9" fill="#FEF2F8"/>
<g clip-path="url(#clip0_2140_158060)">
<g clip-path="url(#clip1_2140_158060)">
<path d="M18.076 19.5C18.676 19.5 19.162 19.95 19.151 20.5C19.151 21.05 18.677 21.5 18.076 21.5C17.486 21.5 17 21.05 17 20.5C17 19.95 17.475 19.5 18.076 19.5ZM21.924 19.5C22.525 19.5 23 19.95 23 20.5C23 21.05 22.525 21.5 21.924 21.5C21.334 21.5 20.849 21.05 20.849 20.5C20.849 19.95 21.323 19.5 21.924 19.5ZM26.891 10.5C28.054 10.5 29 11.466 29 12.663V31.5L26.789 29.505L25.544 28.329L24.227 27.079L24.773 29.022H13.109C11.946 29.022 11 28.056 11 26.859V12.663C11 11.466 11.946 10.5 13.109 10.5H26.89H26.891ZM22.921 24.213C25.194 24.14 26.069 22.617 26.069 22.617C26.069 19.236 24.587 16.495 24.587 16.495C23.107 15.362 21.697 15.393 21.697 15.393L21.553 15.561C23.302 16.107 24.114 16.895 24.114 16.895C23.1591 16.357 22.1066 16.0143 21.018 15.887C20.3274 15.809 19.6299 15.8157 18.941 15.907C18.879 15.907 18.827 15.918 18.766 15.928C18.406 15.96 17.531 16.096 16.431 16.59C16.051 16.768 15.824 16.895 15.824 16.895C15.824 16.895 16.678 16.065 18.529 15.519L18.426 15.393C18.426 15.393 17.017 15.362 15.536 16.496C15.536 16.496 14.055 19.236 14.055 22.617C14.055 22.617 14.919 24.139 17.192 24.213C17.192 24.213 17.572 23.741 17.882 23.342C16.575 22.942 16.082 22.102 16.082 22.102C16.082 22.102 16.184 22.176 16.369 22.281C16.379 22.291 16.389 22.302 16.41 22.312C16.441 22.334 16.472 22.344 16.503 22.365C16.76 22.512 17.017 22.627 17.253 22.722C17.675 22.89 18.179 23.058 18.766 23.174C19.6453 23.3464 20.5494 23.3498 21.43 23.184C21.9429 23.0925 22.4433 22.9411 22.921 22.733C23.281 22.596 23.682 22.396 24.104 22.113C24.104 22.113 23.59 22.974 22.242 23.363C22.551 23.762 22.922 24.213 22.922 24.213H22.921Z" fill="#E5007A"/>
</g>
</g>
<defs>
<clipPath id="clip0_2140_158060">
<rect width="24" height="24" fill="white" transform="translate(8 8.5)"/>
</clipPath>
<clipPath id="clip1_2140_158060">
<rect width="24" height="24" fill="white" transform="translate(8 8.5)"/>
</clipPath>
</defs>
</svg>
