<svg width="40" height="41" viewBox="0 0 40 41" fill="none" xmlns="http://www.w3.org/2000/svg">
<rect y="0.5" width="40" height="40" rx="9" fill="#FEF2F8"/>
<g clip-path="url(#clip0_2140_158068)">
<path d="M19.5 10.9C14.1979 10.9 9.90002 15.1979 9.90002 20.5C9.90002 25.8021 14.1979 30.1 19.5 30.1C24.8021 30.1 29.1 25.8021 29.1 20.5C29.1 15.1979 24.8021 10.9 19.5 10.9ZM18.4818 14.4173C19.7395 14.4254 20.8596 14.8313 21.8156 15.6475C22.9754 16.6395 23.5706 17.9121 23.6477 19.4299C23.6716 19.7573 23.6004 20.0432 23.3159 20.2389C23.2095 20.3149 23.0854 20.3625 22.9554 20.377C22.8255 20.3916 22.694 20.3727 22.5734 20.3221C22.4528 20.2714 22.3472 20.1908 22.2666 20.0879C22.1859 19.9849 22.133 19.863 22.1128 19.7339C22.0645 19.4398 22.0677 19.1355 22.0086 18.8446C21.8417 18.0446 21.4078 17.3251 20.7782 16.8041C20.1486 16.2831 19.3607 15.9915 18.5436 15.9771C18.0926 15.9672 17.7653 15.7205 17.7035 15.3413C17.6214 14.8376 17.9677 14.4137 18.4818 14.4173ZM13.6563 22.6988C13.2505 22.6361 13.0074 22.2902 13.0165 21.7874C13.0615 19.2644 15.0538 17.0756 17.5619 16.7937C17.7879 16.7674 18.0153 16.7556 18.2428 16.7586C18.6387 16.7658 18.9454 17.0742 18.9819 17.4801C18.9945 17.6671 18.9382 17.8523 18.8235 18.0006C18.7089 18.149 18.5438 18.2501 18.3596 18.285C18.0525 18.3359 17.7355 18.3332 17.432 18.3968C16.6359 18.566 15.9205 18.9997 15.4023 19.6274C14.8841 20.255 14.5936 21.0395 14.578 21.8533C14.5659 22.4223 14.1781 22.779 13.6563 22.6988ZM20.5133 27.3831C19.2484 27.3714 18.1233 26.961 17.1664 26.1354C16.0224 25.1496 15.4339 23.887 15.3564 22.3827C15.3311 22.0571 15.3951 21.768 15.6765 21.5683C15.783 21.4887 15.9082 21.4382 16.04 21.4217C16.1719 21.4051 16.3057 21.4232 16.4285 21.4739C16.5513 21.5247 16.6587 21.6066 16.7404 21.7114C16.822 21.8162 16.8749 21.9405 16.8941 22.072C16.9423 22.3727 16.9392 22.683 17.0023 22.9801C17.3414 24.6035 18.788 25.7886 20.4488 25.8211C20.9764 25.8319 21.3218 26.1498 21.315 26.6192C21.3051 27.0521 20.966 27.3872 20.5133 27.3831ZM24.7521 23.2173C23.76 24.3767 22.4861 24.9715 20.9678 25.0459C20.6707 25.0711 20.4042 25.0098 20.2071 24.7753C20.0182 24.5499 19.9663 24.2852 20.0718 24.0087C20.1773 23.7323 20.3875 23.5497 20.6923 23.5091C20.9881 23.4699 21.2907 23.4663 21.5815 23.4054C23.2049 23.0658 24.3927 21.6197 24.4261 19.9607C24.4351 19.5003 24.67 19.1769 25.0466 19.1075C25.5539 19.0133 25.9899 19.3659 25.9863 19.8881C25.975 21.1426 25.5678 22.2636 24.7507 23.2173H24.7521Z" fill="#E5007A"/>
</g>
<defs>
<clipPath id="clip0_2140_158068">
<rect width="24" height="24" fill="white" transform="translate(7.5 8.5)"/>
</clipPath>
</defs>
</svg>
