<svg width="16" height="17" viewBox="0 0 16 17" fill="none" xmlns="http://www.w3.org/2000/svg">
<g clip-path="url(#clip0_5255_37160)">
<mask id="mask0_5255_37160" style="mask-type:luminance" maskUnits="userSpaceOnUse" x="0" y="0" width="16" height="17">
<path d="M16 0.5H0V16.5H16V0.5Z" fill="white"/>
</mask>
<g mask="url(#mask0_5255_37160)">
<path d="M8 16.5C12.4183 16.5 16 12.9183 16 8.5C16 4.08172 12.4183 0.5 8 0.5C3.58172 0.5 0 4.08172 0 8.5C0 12.9183 3.58172 16.5 8 16.5Z" fill="#E6007A"/>
<path d="M7.99998 5.21192C9.12958 5.21192 10.0452 4.6796 10.0452 4.02295C10.0452 3.3663 9.12958 2.83398 7.99998 2.83398C6.87038 2.83398 5.95465 3.3663 5.95465 4.02295C5.95465 4.6796 6.87038 5.21192 7.99998 5.21192Z" fill="white"/>
<path d="M7.99998 14.167C9.12958 14.167 10.0452 13.6347 10.0452 12.978C10.0452 12.3214 9.12958 11.7891 7.99998 11.7891C6.87038 11.7891 5.95465 12.3214 5.95465 12.978C5.95465 13.6347 6.87038 14.167 7.99998 14.167Z" fill="white"/>
<path d="M5.14925 6.85634C5.71405 5.879 5.71047 4.82055 5.14126 4.49222C4.57205 4.1639 3.65275 4.69003 3.08795 5.66737C2.52316 6.6447 2.52673 7.70314 3.09595 8.03147C3.66516 8.3598 4.58445 7.83367 5.14925 6.85634Z" fill="white"/>
<path d="M12.9121 11.3329C13.4769 10.3555 13.4733 9.29712 12.9041 8.96879C12.3349 8.64046 11.4156 9.16659 10.8508 10.1439C10.286 11.1213 10.2895 12.1797 10.8588 12.508C11.428 12.8363 12.3473 12.3102 12.9121 11.3329Z" fill="white"/>
<path d="M5.14126 12.5081C5.71047 12.1797 5.71405 11.1213 5.14925 10.1439C4.58446 9.16659 3.66516 8.64046 3.09594 8.96879C2.52674 9.29712 2.52316 10.3555 3.08796 11.3329C3.65276 12.3102 4.57205 12.8363 5.14126 12.5081Z" fill="white"/>
<path d="M12.904 8.0315C13.4732 7.70317 13.4768 6.6447 12.912 5.66737C12.3472 4.69003 11.4279 4.1639 10.8587 4.49223C10.2895 4.82055 10.2859 5.879 10.8507 6.85633C11.4155 7.8337 12.3348 8.35977 12.904 8.0315Z" fill="white"/>
</g>
</g>
<defs>
<clipPath id="clip0_5255_37160">
<rect width="16" height="16" fill="white" transform="translate(0 0.5)"/>
</clipPath>
</defs>
</svg>
