<svg width="16" height="16" viewBox="0 0 16 16" fill="none" xmlns="http://www.w3.org/2000/svg">
<mask id="mask0_5255_33850" style="mask-type:luminance" maskUnits="userSpaceOnUse" x="0" y="0" width="16" height="16">
<path d="M16 0H0V16H16V0Z" fill="white"/>
</mask>
<g mask="url(#mask0_5255_33850)">
<path d="M8 16C12.4183 16 16 12.4183 16 8C16 3.58172 12.4183 0 8 0C3.58172 0 0 3.58172 0 8C0 12.4183 3.58172 16 8 16Z" fill="#F1305A"/>
<path d="M3.17651 6.40115C3.17651 3.62205 5.33605 1.36914 7.99996 1.36914C10.6639 1.36914 12.8234 3.62205 12.8234 6.40115V9.60157C12.8234 11.1012 12.1946 12.4476 11.1971 13.3695V6.40115C11.1971 4.55907 9.76569 3.06576 7.99996 3.06576C6.23422 3.06576 4.80281 4.55907 4.80281 6.40115V13.3695C3.80529 12.4476 3.17651 11.1012 3.17651 9.60157V6.40115Z" fill="white"/>
<path d="M4.80298 13.3691C5.65409 14.1557 6.77366 14.6333 8.00013 14.6333C9.22659 14.6333 10.3462 14.1557 11.1973 13.3691H4.80298Z" fill="white"/>
<path d="M9.99599 6.40057C8.89366 6.40057 8.00006 5.46833 8.00006 4.31836C8.00006 5.46833 7.10646 6.40057 6.00415 6.40057C7.10646 6.40057 8.00006 7.33279 8.00006 8.48279C8.00006 7.33279 8.89366 6.40057 9.99599 6.40057Z" fill="white"/>
</g>
</svg>
