<svg width="14" height="17" viewBox="0 0 14 17" fill="none" xmlns="http://www.w3.org/2000/svg">
<path d="M12.2492 3.90599V6.74623C12.2511 6.87733 12.2032 7.00445 12.1146 7.10279C12.0261 7.20113 11.9034 7.26366 11.7704 7.27817C11.6974 7.28481 11.6239 7.27652 11.5545 7.25381C11.485 7.23111 11.4211 7.19449 11.3669 7.14629C11.3127 7.09809 11.2693 7.03936 11.2395 6.97384C11.2097 6.90832 11.1941 6.83744 11.1938 6.76571V5.12486C11.1937 5.12437 11.1936 5.1239 11.1933 5.12349C11.193 5.12309 11.1926 5.12277 11.1921 5.12257C11.1916 5.12236 11.1911 5.12228 11.1906 5.12232C11.1901 5.12237 11.1896 5.12255 11.1892 5.12283L5.69775 10.5035C5.59888 10.6 5.46492 10.6541 5.32533 10.6539C5.18575 10.6536 5.05197 10.5991 4.95343 10.5022C4.85489 10.4054 4.79967 10.2742 4.7999 10.1374C4.80013 10.0007 4.85581 9.86964 4.95467 9.77311L10.4482 4.39492C10.4487 4.39473 10.449 4.39442 10.4493 4.39402C10.4496 4.39363 10.4497 4.39316 10.4497 4.39269C10.4497 4.39221 10.4496 4.39175 10.4493 4.39135C10.449 4.39096 10.4487 4.39065 10.4482 4.39046H8.79142C8.65766 4.39227 8.528 4.34524 8.42769 4.25854C8.32739 4.17183 8.26362 4.05165 8.24882 3.92141C8.24217 3.85019 8.25068 3.77839 8.27381 3.71055C8.29694 3.64272 8.33419 3.58032 8.38321 3.52731C8.43222 3.4743 8.49193 3.43183 8.55856 3.40259C8.62519 3.37335 8.69729 3.35797 8.7703 3.35742H11.6908C11.839 3.35796 11.981 3.41598 12.0856 3.51879C12.1903 3.62159 12.2491 3.76082 12.2492 3.90599Z" fill="#E5007A"/>
<path d="M12.2492 9.07847V12.5476C12.2492 12.8382 12.1313 13.1168 11.9216 13.3223C11.7119 13.5277 11.4274 13.6431 11.1308 13.6431H2.86834C2.57174 13.6431 2.28729 13.5277 2.07756 13.3223C1.86783 13.1168 1.75 12.8382 1.75 12.5476V4.45294C1.75 4.16239 1.86783 3.88374 2.07756 3.67829C2.28729 3.47284 2.57174 3.35742 2.86834 3.35742H6.41018C6.55002 3.35742 6.68414 3.41184 6.78302 3.50871C6.8819 3.60557 6.93746 3.73695 6.93746 3.87394C6.93746 4.01093 6.8819 4.14231 6.78302 4.23917C6.68414 4.33604 6.55002 4.39046 6.41018 4.39046H3.45775C3.28461 4.39078 3.11866 4.4583 2.99624 4.57822C2.87381 4.69815 2.80488 4.86072 2.80456 5.03032V11.9686C2.80478 12.1383 2.87366 12.3009 2.99611 12.4208C3.11857 12.5408 3.28458 12.6083 3.45775 12.6085H10.5406C10.7137 12.6083 10.8796 12.5408 11.0021 12.421C11.1245 12.3011 11.1935 12.1386 11.1938 11.969V9.07847C11.1938 8.94148 11.2493 8.8101 11.3482 8.71324C11.4471 8.61637 11.5812 8.56195 11.7211 8.56195C11.8609 8.56195 11.995 8.61637 12.0939 8.71324C12.1928 8.8101 12.2483 8.94148 12.2483 9.07847H12.2492Z" fill="#E5007A"/>
</svg>
