<svg width="16" height="17" viewBox="0 0 16 17" fill="none" xmlns="http://www.w3.org/2000/svg">
<g clip-path="url(#clip0_5255_37202)">
<mask id="mask0_5255_37202" style="mask-type:luminance" maskUnits="userSpaceOnUse" x="0" y="0" width="16" height="17">
<path d="M16 0.5H0V16.5H16V0.5Z" fill="white"/>
</mask>
<g mask="url(#mask0_5255_37202)">
<path d="M8 16.5C12.4183 16.5 16 12.9183 16 8.5C16 4.08172 12.4183 0.5 8 0.5C3.58172 0.5 0 4.08172 0 8.5C0 12.9183 3.58172 16.5 8 16.5Z" fill="#2B75C6"/>
<path d="M6.23383 3.29423C6.44728 3.22284 6.65923 3.38723 6.65923 3.61091V3.95382C6.65923 4.10461 6.55975 4.23658 6.41751 4.28932C4.69879 4.92655 3.47489 6.57172 3.47489 8.5008C3.47489 10.4299 4.69879 12.075 6.41751 12.7123C6.55975 12.765 6.65923 12.8969 6.65923 13.0477V13.3907C6.65923 13.6143 6.44728 13.7787 6.23383 13.7073C4.04539 12.9755 2.4693 10.9209 2.4693 8.5008C2.4693 6.08066 4.04539 4.02611 6.23383 3.29423Z" fill="white"/>
<path d="M9.58255 12.7123C9.44029 12.765 9.34082 12.8969 9.34082 13.0477V13.3907C9.34082 13.6143 9.55275 13.7787 9.76622 13.7073C11.9547 12.9755 13.5308 10.9209 13.5308 8.5008C13.5308 6.08066 11.9547 4.02611 9.76622 3.29423C9.55275 3.22284 9.34082 3.38723 9.34082 3.61091V3.95382C9.34082 4.10461 9.44029 4.23658 9.58255 4.28932C11.3013 4.92655 12.5252 6.57172 12.5252 8.5008C12.5252 10.4299 11.3013 12.075 9.58255 12.7123Z" fill="white"/>
<path d="M7.61495 5.19964C7.61495 5.10772 7.68995 5.0332 7.78255 5.0332H8.25182C8.34435 5.0332 8.41942 5.10772 8.41942 5.19964V5.84056C8.66002 5.86967 8.88122 5.93105 9.08309 6.0247C9.37589 6.1582 9.60275 6.34772 9.76362 6.59326C9.89729 6.79439 9.97622 7.01791 10.0004 7.26384C10.0094 7.3553 9.93342 7.43004 9.84082 7.43004H9.09582C9.00329 7.43004 8.93042 7.3549 8.91455 7.2643C8.88662 7.10424 8.81555 6.97472 8.70135 6.87576C8.55015 6.74226 8.33769 6.67551 8.06409 6.67551C7.80002 6.67551 7.59475 6.73153 7.44835 6.84358C7.30189 6.95324 7.22869 7.09866 7.22869 7.27984C7.22869 7.4491 7.31389 7.59097 7.48435 7.70537C7.65715 7.81977 7.91042 7.9271 8.24409 8.02717C8.28809 8.0403 8.33122 8.05317 8.37355 8.0657L8.37575 8.06637C8.92369 8.22897 9.33229 8.3503 9.59275 8.60224C9.87355 8.87404 10.0084 9.3205 10.0084 9.72577C10.0084 10.1763 9.83682 10.5303 9.49355 10.7878C9.21422 10.9954 8.85622 11.1185 8.41949 11.1571L8.41942 11.7853C8.41942 11.8772 8.34435 11.9517 8.25182 11.9517H7.78249C7.68995 11.9517 7.61489 11.8772 7.61489 11.7853V11.1314C7.39975 11.0959 7.19662 11.0362 7.00542 10.9523C6.67415 10.8045 6.42093 10.603 6.24569 10.348C6.10195 10.1358 6.01797 9.89564 5.99378 9.62737C5.98553 9.53584 6.06148 9.4611 6.15404 9.4611H6.90269C6.99522 9.4611 7.06855 9.53617 7.08095 9.62724C7.14402 10.091 7.48615 10.3229 8.10729 10.3229C8.36409 10.3229 8.56455 10.2716 8.70855 10.1692C8.85262 10.0642 8.92462 9.91884 8.92462 9.7329C8.92462 9.53024 8.85815 9.26737 8.71415 9.1601C8.62835 9.09477 8.49962 9.06604 8.33035 9.0283C8.21555 9.0027 8.08215 8.9729 7.93082 8.92477C7.55635 8.80317 7.25989 8.68397 7.04142 8.56717C6.44613 8.2477 6.14847 7.81744 6.14847 7.27624C6.14847 6.99496 6.22769 6.74464 6.38612 6.52532C6.54695 6.30362 6.77622 6.13078 7.07389 6.00682C7.24282 5.93702 7.42315 5.88687 7.61495 5.85638V5.19964Z" fill="white"/>
</g>
</g>
<defs>
<clipPath id="clip0_5255_37202">
<rect width="16" height="16" fill="white" transform="translate(0 0.5)"/>
</clipPath>
</defs>
</svg>
