<svg width="16" height="17" viewBox="0 0 16 17" fill="none" xmlns="http://www.w3.org/2000/svg">
<g clip-path="url(#clip0_5255_37054)">
<mask id="mask0_5255_37054" style="mask-type:luminance" maskUnits="userSpaceOnUse" x="0" y="0" width="16" height="17">
<path d="M16 0.5H0V16.5H16V0.5Z" fill="white"/>
</mask>
<g mask="url(#mask0_5255_37054)">
<path d="M8 16.5C12.4183 16.5 16 12.9183 16 8.5C16 4.08172 12.4183 0.5 8 0.5C3.58172 0.5 0 4.08172 0 8.5C0 12.9183 3.58172 16.5 8 16.5Z" fill="#009393"/>
<path fill-rule="evenodd" clip-rule="evenodd" d="M12.0412 4.5V6.00841H9.00725V7.05425C11.1381 7.16601 12.7368 7.62503 12.7487 8.17523L12.7486 9.32217C12.7367 9.87237 11.1381 10.3314 9.00725 10.4432V13.0098H6.99266V10.4432C4.86184 10.3314 3.26314 9.87237 3.25128 9.32217L3.25136 8.17523C3.26321 7.62503 4.86184 7.16601 6.99266 7.05425V6.00841H3.95873V4.5H12.0412ZM7.99999 9.65517C10.2739 9.65517 12.1747 9.26703 12.6398 8.7487C12.2453 8.30917 10.8186 7.96323 9.00725 7.86823V8.96317C8.68259 8.98023 8.34559 8.98923 7.99999 8.98923C7.65432 8.98923 7.31732 8.98023 6.99266 8.96317V7.86823C5.18136 7.96323 3.75462 8.30917 3.36017 8.7487C3.82532 9.26703 5.72598 9.65517 7.99999 9.65517Z" fill="white"/>
</g>
</g>
<defs>
<clipPath id="clip0_5255_37054">
<rect width="16" height="16" fill="white" transform="translate(0 0.5)"/>
</clipPath>
</defs>
</svg>
