<svg width="14" height="14" viewBox="0 0 14 14" fill="none" xmlns="http://www.w3.org/2000/svg">
<g id="payments_FILL0_wght400_GRAD0_opsz48 2">
<path id="Vector" d="M7.87492 7.87602C7.38881 7.87602 6.97561 7.70588 6.63534 7.3656C6.29506 7.02532 6.12492 6.61213 6.12492 6.12602C6.12492 5.63991 6.29506 5.22671 6.63534 4.88643C6.97561 4.54616 7.38881 4.37602 7.87492 4.37602C8.36103 4.37602 8.77422 4.54616 9.1145 4.88643C9.45478 5.22671 9.62492 5.63991 9.62492 6.12602C9.62492 6.61213 9.45478 7.02532 9.1145 7.3656C8.77422 7.70588 8.36103 7.87602 7.87492 7.87602ZM3.20825 9.91768C2.96763 9.91768 2.76164 9.83201 2.59028 9.66065C2.41893 9.4893 2.33325 9.28331 2.33325 9.04268V3.20935C2.33325 2.96873 2.41893 2.76274 2.59028 2.59138C2.76164 2.42003 2.96763 2.33435 3.20825 2.33435H12.5416C12.7822 2.33435 12.9882 2.42003 13.1596 2.59138C13.3309 2.76274 13.4166 2.96873 13.4166 3.20935V9.04268C13.4166 9.28331 13.3309 9.4893 13.1596 9.66065C12.9882 9.83201 12.7822 9.91768 12.5416 9.91768H3.20825ZM4.66659 9.04268H11.0833C11.0833 8.63435 11.2242 8.28921 11.5062 8.00727C11.7881 7.72532 12.1333 7.58435 12.5416 7.58435V4.66768C12.1333 4.66768 11.7881 4.52671 11.5062 4.24477C11.2242 3.96282 11.0833 3.61768 11.0833 3.20935H4.66659C4.66659 3.61768 4.52561 3.96282 4.24367 4.24477C3.96172 4.52671 3.61659 4.66768 3.20825 4.66768V7.58435C3.61659 7.58435 3.96172 7.72532 4.24367 8.00727C4.52561 8.28921 4.66659 8.63435 4.66659 9.04268ZM11.6666 11.6677H1.45825C1.21763 11.6677 1.01164 11.582 0.840283 11.4107C0.668929 11.2393 0.583252 11.0333 0.583252 10.7927V4.08435H1.45825V10.7927H11.6666V11.6677Z" fill="#576D8B" fill-opacity="0.8"/>
</g>
</svg>
