<svg width="14" height="14" viewBox="0 0 14 14" fill="none" xmlns="http://www.w3.org/2000/svg">
<g id="email_icon">
<g id="Vector">
<path d="M8.63856 7.10017C9.07028 7.10017 9.49231 6.97992 9.85124 6.75464C10.2102 6.52935 10.4899 6.20916 10.655 5.83455C10.8202 5.45994 10.8633 5.04775 10.7789 4.65012C10.6946 4.25249 10.4866 3.88729 10.1812 3.60072C9.87578 3.31414 9.48674 3.11906 9.06328 3.04016C8.63981 2.96126 8.20094 3.00208 7.80218 3.15746C7.40342 3.31284 7.06269 3.57579 6.82308 3.91306C6.58348 4.25033 6.45577 4.64676 6.45612 5.0522C6.45646 5.59554 6.68656 6.1165 7.09582 6.50055C7.50509 6.8846 8.06001 7.10028 8.63856 7.10017ZM3.72806 5.65466V4.62986C3.72806 4.49397 3.67057 4.36364 3.56825 4.26754C3.46593 4.17145 3.32715 4.11746 3.18245 4.11746C3.03774 4.11746 2.89896 4.17145 2.79664 4.26754C2.69432 4.36364 2.63683 4.49397 2.63683 4.62986V5.65466H1.54561C1.47396 5.65466 1.40301 5.66792 1.33682 5.69367C1.27062 5.71942 1.21047 5.75716 1.15981 5.80474C1.10914 5.85232 1.06895 5.90881 1.04153 5.97097C1.01411 6.03314 1 6.09977 1 6.16706C1 6.23435 1.01411 6.30098 1.04153 6.36315C1.06895 6.42531 1.10914 6.4818 1.15981 6.52938C1.21047 6.57696 1.27062 6.61471 1.33682 6.64046C1.40301 6.66621 1.47396 6.67946 1.54561 6.67946H2.63683V7.70426C2.63683 7.77155 2.65095 7.83818 2.67837 7.90034C2.70579 7.96251 2.74598 8.019 2.79664 8.06658C2.84731 8.11416 2.90745 8.1519 2.97365 8.17765C3.03985 8.2034 3.1108 8.21666 3.18245 8.21666C3.2541 8.21666 3.32505 8.2034 3.39124 8.17765C3.45744 8.1519 3.51759 8.11416 3.56825 8.06658C3.61892 8.019 3.65911 7.96251 3.68653 7.90034C3.71395 7.83818 3.72806 7.77155 3.72806 7.70426V6.67946H4.81928C4.96399 6.67946 5.10277 6.62548 5.20509 6.52938C5.30741 6.43329 5.36489 6.30296 5.36489 6.16706C5.36489 6.03116 5.30741 5.90083 5.20509 5.80474C5.10277 5.70865 4.96399 5.65466 4.81928 5.65466H3.72806Z" fill="#576D8B" fill-opacity="0.8"/>
<path d="M4.27367 11.001C4.27367 9.22726 6.22802 7.78946 8.63684 7.78946C11.0474 7.78946 13 9.22726 13 11.001" fill="#576D8B" fill-opacity="0.8"/>
</g>
</g>
</svg>
