<svg width="14" height="14" viewBox="0 0 14 14" fill="none" xmlns="http://www.w3.org/2000/svg">
<g id="how_to_vote_FILL0_wght400_GRAD0_opsz48 (1) 2">
<path id="Vector" d="M2.625 12.8343C2.39167 12.8343 2.1875 12.7468 2.0125 12.5718C1.8375 12.3968 1.75 12.1926 1.75 11.9593V9.07177L3.71875 6.89886L4.34583 7.52594L2.625 9.40719H11.375L9.75625 7.56969L10.3833 6.94261L12.25 9.07177V11.9593C12.25 12.1926 12.1625 12.3968 11.9875 12.5718C11.8125 12.7468 11.6083 12.8343 11.375 12.8343H2.625ZM2.625 11.9593H11.375V10.2822H2.625V11.9593ZM6.44583 8.38636L4.12708 6.06761C3.94236 5.88288 3.85972 5.67629 3.87917 5.44781C3.89861 5.21934 3.99583 5.01761 4.17083 4.84261L7.2625 1.75094C7.42714 1.58994 7.63114 1.50594 7.87452 1.49894C8.11789 1.49194 8.32708 1.57594 8.50208 1.75094L10.8208 4.06969C10.9861 4.23497 11.0712 4.43184 11.076 4.66031C11.0809 4.88879 10.9861 5.10024 10.7917 5.29469L7.7 8.38636C7.53472 8.55163 7.33056 8.63913 7.0875 8.64886C6.84444 8.65858 6.63056 8.57108 6.44583 8.38636ZM10.0771 4.63844L7.88958 2.45094L4.85625 5.48427L7.04375 7.67177L10.0771 4.63844Z" fill="#576D8B" fill-opacity="0.8"/>
</g>
</svg>
