<svg id="Layer_1" data-name="Layer 1" xmlns="http://www.w3.org/2000/svg" viewBox="0 0 306.82 306.82">
  <defs>
    <style>
      .cls-1 {
        fill: #14b8ca;
      }

      .cls-2 {
        fill: #fff;
      }
    </style>
  </defs>
  <g>
    <circle class="cls-1" cx="153.41" cy="153.41" r="153.41"/>
    <g>
      <path class="cls-2" d="M191.19,103.3a64.7,64.7,0,0,1,5.87,26.94c0,.3.05.59.06.89l31.23-27.75V70.28Z"/>
      <path class="cls-2" d="M187.16,130.24c0-33.06-29.57-60-65.93-60V95c22.19,0,40.3,15.09,41.11,33.9l-16.81,14.93a65.3,65.3,0,0,1,8.39,25.64l15-13.32c10.66,20.1,33.29,34,59.43,34V165.44C205.64,165.44,187.16,149.65,187.16,130.24Z"/>
      <path class="cls-2" d="M185.59,236.36V211.62c-22.71,0-41.19-15.8-41.19-35.21,0-33.06-29.58-59.95-65.94-59.95V141.2c19.3,0,35.5,11.42,39.94,26.76l-8.69,7.72-18,16h0L78.46,203.44v33.1l45-40C132.61,219.73,157,236.36,185.59,236.36Z"/>
    </g>
  </g>
</svg>
