<svg width="15" viewBox="0 0 13 27" fill="none" xmlns="http://www.w3.org/2000/svg">
<path d="M0.888 13.048C1.304 10.712 2.432 9.544 4.272 9.544C4.704 9.544 5.088 9.624 5.424 9.784C5.776 9.928 6.168 10.144 6.6 10.432C6.984 10.672 7.296 10.848 7.536 10.96C7.792 11.072 8.056 11.128 8.328 11.128C8.744 11.128 9.096 10.992 9.384 10.72C9.688 10.432 9.872 10.048 9.936 9.568H11.568C11.168 11.904 10.032 13.072 8.16 13.072C7.744 13.072 7.376 13 7.056 12.856C6.736 12.712 6.344 12.496 5.88 12.208C5.496 11.968 5.184 11.792 4.944 11.68C4.704 11.552 4.432 11.488 4.128 11.488C3.712 11.488 3.352 11.632 3.048 11.92C2.744 12.192 2.56 12.568 2.496 13.048H0.888Z" />
<path d="M0.888 19.048C1.304 16.712 2.432 15.544 4.272 15.544C4.704 15.544 5.088 15.624 5.424 15.784C5.776 15.928 6.168 16.144 6.6 16.432C6.984 16.672 7.296 16.848 7.536 16.96C7.792 17.072 8.056 17.128 8.328 17.128C8.744 17.128 9.096 16.992 9.384 16.72C9.688 16.432 9.872 16.048 9.936 15.568H11.568C11.168 17.904 10.032 19.072 8.16 19.072C7.744 19.072 7.376 19 7.056 18.856C6.736 18.712 6.344 18.496 5.88 18.208C5.496 17.968 5.184 17.792 4.944 17.68C4.704 17.552 4.432 17.488 4.128 17.488C3.712 17.488 3.352 17.632 3.048 17.92C2.744 18.192 2.56 18.568 2.496 19.048H0.888Z"/>
</svg>
