<svg width="24" height="19" viewBox="0 0 24 19" fill="none" xmlns="http://www.w3.org/2000/svg">
<g opacity="0.5">
<path d="M0.749268 15.8814C0.749268 14.6336 0.749268 14.0097 1.07877 13.622C1.40828 13.2344 1.93861 13.2344 2.99927 13.2344H20.9993C22.0599 13.2344 22.5903 13.2344 22.9198 13.622C23.2493 14.0097 23.2493 14.6336 23.2493 15.8814C23.2493 17.1293 23.2493 17.7532 22.9198 18.1408C22.5903 18.5285 22.0599 18.5285 20.9993 18.5285H2.99927C1.93861 18.5285 1.40828 18.5285 1.07877 18.1408C0.749268 17.7532 0.749268 17.1293 0.749268 15.8814Z" fill="#FF823C"/>
<path d="M0.749268 15.8814C0.749268 14.6336 0.749268 14.0097 1.07877 13.622C1.40828 13.2344 1.93861 13.2344 2.99927 13.2344H20.9993C22.0599 13.2344 22.5903 13.2344 22.9198 13.622C23.2493 14.0097 23.2493 14.6336 23.2493 15.8814C23.2493 17.1293 23.2493 17.7532 22.9198 18.1408C22.5903 18.5285 22.0599 18.5285 20.9993 18.5285H2.99927C1.93861 18.5285 1.40828 18.5285 1.07877 18.1408C0.749268 17.7532 0.749268 17.1293 0.749268 15.8814Z" fill="#7F8FA4"/>
<path d="M0.749268 15.8814C0.749268 14.6336 0.749268 14.0097 1.07877 13.622C1.40828 13.2344 1.93861 13.2344 2.99927 13.2344H20.9993C22.0599 13.2344 22.5903 13.2344 22.9198 13.622C23.2493 14.0097 23.2493 14.6336 23.2493 15.8814C23.2493 17.1293 23.2493 17.7532 22.9198 18.1408C22.5903 18.5285 22.0599 18.5285 20.9993 18.5285H2.99927C1.93861 18.5285 1.40828 18.5285 1.07877 18.1408C0.749268 17.7532 0.749268 17.1293 0.749268 15.8814Z" fill="#407BFF"/>
</g>
<path fill-rule="evenodd" clip-rule="evenodd" d="M12.5839 0H11.416C7.01192 0 4.80986 0 3.44167 1.10742C2.07349 2.21485 2.07349 3.99722 2.07349 7.56196V13.2353C2.24306 13.2334 2.48112 13.2334 2.6574 13.2334H21.3425C21.5188 13.2334 21.7569 13.2334 21.9264 13.2353V7.56196C21.9264 3.99722 21.9264 2.21485 20.5582 1.10742C19.1901 0 16.988 0 12.5839 0ZM15.3083 3.52115C15.649 3.82542 15.6786 4.34834 15.3744 4.68912L11.4353 9.10089C11.2783 9.27666 11.0539 9.37716 10.8182 9.37716C10.5826 9.37716 10.3581 9.27666 10.2012 9.10089L8.62557 7.33618C8.3213 6.9954 8.3509 6.47248 8.69168 6.16821C9.03246 5.86393 9.55538 5.89353 9.85966 6.23432L10.8182 7.30794L14.1403 3.58726C14.4445 3.24648 14.9675 3.21688 15.3083 3.52115Z" fill="#FF823C"/>
<path fill-rule="evenodd" clip-rule="evenodd" d="M12.5839 0H11.416C7.01192 0 4.80986 0 3.44167 1.10742C2.07349 2.21485 2.07349 3.99722 2.07349 7.56196V13.2353C2.24306 13.2334 2.48112 13.2334 2.6574 13.2334H21.3425C21.5188 13.2334 21.7569 13.2334 21.9264 13.2353V7.56196C21.9264 3.99722 21.9264 2.21485 20.5582 1.10742C19.1901 0 16.988 0 12.5839 0ZM15.3083 3.52115C15.649 3.82542 15.6786 4.34834 15.3744 4.68912L11.4353 9.10089C11.2783 9.27666 11.0539 9.37716 10.8182 9.37716C10.5826 9.37716 10.3581 9.27666 10.2012 9.10089L8.62557 7.33618C8.3213 6.9954 8.3509 6.47248 8.69168 6.16821C9.03246 5.86393 9.55538 5.89353 9.85966 6.23432L10.8182 7.30794L14.1403 3.58726C14.4445 3.24648 14.9675 3.21688 15.3083 3.52115Z" fill="#7F8FA4"/>
<path fill-rule="evenodd" clip-rule="evenodd" d="M12.5839 0H11.416C7.01192 0 4.80986 0 3.44167 1.10742C2.07349 2.21485 2.07349 3.99722 2.07349 7.56196V13.2353C2.24306 13.2334 2.48112 13.2334 2.6574 13.2334H21.3425C21.5188 13.2334 21.7569 13.2334 21.9264 13.2353V7.56196C21.9264 3.99722 21.9264 2.21485 20.5582 1.10742C19.1901 0 16.988 0 12.5839 0ZM15.3083 3.52115C15.649 3.82542 15.6786 4.34834 15.3744 4.68912L11.4353 9.10089C11.2783 9.27666 11.0539 9.37716 10.8182 9.37716C10.5826 9.37716 10.3581 9.27666 10.2012 9.10089L8.62557 7.33618C8.3213 6.9954 8.3509 6.47248 8.69168 6.16821C9.03246 5.86393 9.55538 5.89353 9.85966 6.23432L10.8182 7.30794L14.1403 3.58726C14.4445 3.24648 14.9675 3.21688 15.3083 3.52115Z" fill="#407BFF"/>
</svg>
