<svg width="20" height="20" viewBox="0 0 20 20" fill="none" xmlns="http://www.w3.org/2000/svg">
<path d="M10.008 2.00001C11.59 2.0016 13.1359 2.47215 14.4504 3.35216C15.7649 4.23218 16.7891 5.48217 17.3933 6.94412C17.9976 8.40606 18.1549 10.0143 17.8453 11.5657C17.5357 13.117 16.7731 14.5417 15.654 15.6597C14.5349 16.7777 13.1094 17.5388 11.5578 17.8469C10.0061 18.1549 8.39801 17.996 6.93668 17.3903C5.47534 16.7845 4.22638 15.7591 3.34768 14.4437C2.46899 13.1283 2 11.5819 2 10C1.99951 8.94862 2.20637 7.90745 2.60874 6.9361C3.0111 5.96475 3.60108 5.08229 4.3449 4.33921C5.08872 3.59614 5.97178 3.00705 6.94353 2.60566C7.91529 2.20427 8.95666 1.99846 10.008 2.00001ZM10 16.4004C11.2659 16.4004 12.5033 16.025 13.5559 15.3217C14.6084 14.6184 15.4287 13.6188 15.9132 12.4493C16.3976 11.2798 16.5243 9.99291 16.2774 8.75136C16.0304 7.50981 15.4209 6.36937 14.5257 5.47426C13.6306 4.57915 12.4902 3.96958 11.2486 3.72262C10.0071 3.47566 8.7202 3.60241 7.55068 4.08684C6.38117 4.57127 5.38157 5.39162 4.67828 6.44415C3.975 7.49669 3.59963 8.73413 3.59963 10C3.5993 10.8406 3.76463 11.673 4.08616 12.4497C4.4077 13.2264 4.87913 13.9321 5.47353 14.5265C6.06792 15.1209 6.77362 15.5923 7.5503 15.9138C8.32697 16.2354 9.1594 16.4007 10 16.4004Z" fill="#FF3C5F"/>
<path d="M9.19988 13.3237C9.19988 12.8818 9.55811 12.5236 10 12.5236C10.4419 12.5236 10.8001 12.8818 10.8001 13.3237C10.8001 13.7656 10.4419 14.1239 10 14.1239C9.55811 14.1239 9.19988 13.7656 9.19988 13.3237Z" fill="#FF3C5F"/>
<path d="M9.19988 6.80012V10.6193C9.19988 10.8315 9.28418 11.035 9.43423 11.1851C9.58428 11.3351 9.7878 11.4194 10 11.4194C10.2122 11.4194 10.4157 11.3351 10.5658 11.1851C10.7158 11.035 10.8001 10.8315 10.8001 10.6193V6.80012C10.8001 6.58792 10.7158 6.3844 10.5658 6.23435C10.4157 6.0843 10.2122 6 10 6C9.7878 6 9.58428 6.0843 9.43423 6.23435C9.28418 6.3844 9.19988 6.58792 9.19988 6.80012Z" fill="#FF3C5F"/>
</svg>
