<svg viewBox="0 0 19 19" fill="none" xmlns="http://www.w3.org/2000/svg">
<path fill-rule="evenodd" clip-rule="evenodd" d="M1.35463 1.35463C0 2.70926 0 4.88951 0 9.25C0 13.6105 0 15.7907 1.35463 17.1454C2.70926 18.5 4.88951 18.5 9.25 18.5C13.6105 18.5 15.7907 18.5 17.1454 17.1454C18.5 15.7907 18.5 13.6105 18.5 9.25C18.5 4.88951 18.5 2.70926 17.1454 1.35463C15.7907 0 13.6105 0 9.25 0C4.88951 0 2.70926 0 1.35463 1.35463ZM7.90237 5.10345C8.16661 4.826 8.1559 4.38687 7.87845 4.12263C7.601 3.85839 7.16187 3.8691 6.89763 4.14655L4.75714 6.39406L4.20237 5.81155C3.93813 5.5341 3.499 5.52339 3.22155 5.78763C2.9441 6.05187 2.93339 6.491 3.19763 6.76845L4.25477 7.87845C4.38571 8.01594 4.56728 8.09375 4.75714 8.09375C4.94701 8.09375 5.12857 8.01594 5.25951 7.87845L7.90237 5.10345ZM10.175 5.78125C9.79185 5.78125 9.48125 6.09185 9.48125 6.475C9.48125 6.85815 9.79185 7.16875 10.175 7.16875H14.8C15.1831 7.16875 15.4938 6.85815 15.4938 6.475C15.4938 6.09185 15.1831 5.78125 14.8 5.78125H10.175ZM7.90237 11.5784C8.16661 11.301 8.1559 10.8619 7.87845 10.5976C7.601 10.3334 7.16187 10.3441 6.89763 10.6216L4.75714 12.8691L4.20237 12.2866C3.93813 12.0091 3.499 11.9984 3.22155 12.2626C2.9441 12.5269 2.93339 12.966 3.19763 13.2434L4.25477 14.3534C4.38571 14.4909 4.56728 14.5688 4.75714 14.5688C4.94701 14.5688 5.12857 14.4909 5.25951 14.3534L7.90237 11.5784ZM10.175 12.2563C9.79185 12.2563 9.48125 12.5669 9.48125 12.95C9.48125 13.3331 9.79185 13.6438 10.175 13.6438H14.8C15.1831 13.6438 15.4938 13.3331 15.4938 12.95C15.4938 12.5669 15.1831 12.2563 14.8 12.2563H10.175Z" fill=''/>
</svg>
