<svg width="36" height="36" viewBox="0 0 36 36" fill="none" xmlns="http://www.w3.org/2000/svg">
<rect width="36" height="36" rx="4" fill="#F3F4F6"/>
<rect width="36" height="36" rx="4" fill="#FEF2F8"/>
<path d="M18 16.875C20.4853 16.875 22.5 14.8603 22.5 12.375C22.5 9.88972 20.4853 7.875 18 7.875C15.5147 7.875 13.5 9.88972 13.5 12.375C13.5 14.8603 15.5147 16.875 18 16.875Z" fill="#E5007A"/>
<path d="M12.3754 12.3738C12.3754 10.9619 12.8985 9.67375 13.7591 8.68375C13.4947 8.6275 13.2191 8.59375 12.9379 8.59375C10.8004 8.59375 9.06787 10.3263 9.06787 12.4638C9.06787 14.6013 10.8004 16.3338 12.9379 16.3338C13.2697 16.3338 13.5847 16.2888 13.8885 16.21C12.9547 15.2031 12.3754 13.8588 12.3754 12.3738Z" fill="#F280BD"/>
<path d="M23.0624 8.59375C22.7812 8.59375 22.5056 8.6275 22.2412 8.68375C23.1018 9.67375 23.6249 10.9619 23.6249 12.3738C23.6249 13.8588 23.0456 15.2031 22.1118 16.2044C22.4156 16.2831 22.7362 16.3281 23.0624 16.3281C25.1999 16.3281 26.9324 14.5956 26.9324 12.4581C26.9324 10.3263 25.1999 8.59375 23.0624 8.59375Z" fill="#F280BD"/>
<path d="M18 27C22.3492 27 25.875 24.9853 25.875 22.5C25.875 20.0147 22.3492 18 18 18C13.6508 18 10.125 20.0147 10.125 22.5C10.125 24.9853 13.6508 27 18 27Z" fill="#E5007A"/>
<path d="M9 22.5C9 20.1938 11.6494 18.2475 15.3056 17.5894C14.5744 17.3981 13.7756 17.2969 12.9375 17.2969C9.5175 17.2969 6.75 19.0294 6.75 21.1669C6.75 22.5506 7.92 23.7656 9.66937 24.4462C9.24187 23.8444 9 23.1863 9 22.5Z" fill="#F280BD"/>
<path d="M23.0627 17.2969C22.2246 17.2969 21.4258 17.4038 20.6946 17.5894C24.3508 18.2475 27.0002 20.1938 27.0002 22.5C27.0002 23.1863 26.7583 23.8444 26.3308 24.4462C28.0802 23.7656 29.2502 22.5506 29.2502 21.1669C29.2502 19.0294 26.4827 17.2969 23.0627 17.2969Z" fill="#F280BD"/>
</svg>
