<svg viewBox="0 0 20 21" fill="none" xmlns="http://www.w3.org/2000/svg">
<path d="M10 8.59615C8.88162 8.59615 7.975 9.44853 7.975 10.5C7.975 11.5515 8.88162 12.4038 10 12.4038C11.1184 12.4038 12.025 11.5515 12.025 10.5C12.025 9.44853 11.1184 8.59615 10 8.59615Z"/>
<path fill-rule="evenodd" clip-rule="evenodd" d="M10 5C7.64401 5 5.52521 5.88963 3.99846 6.9913C3.23408 7.54285 2.60689 8.15542 2.16684 8.75158C1.73517 9.33638 1 10.5 1 10.5C1 10.5 1.73517 11.6636 2.16684 12.2484C2.60689 12.8446 3.23408 13.4571 3.99846 14.0087C5.52521 15.1104 7.64401 16 10 16C12.356 16 14.4748 15.1104 16.0015 14.0087C16.7659 13.4571 17.3931 12.8446 17.8332 12.2484C18.2648 11.6636 19 10.5 19 10.5C19 10.5 18.2648 9.33638 17.8332 8.75158C17.3931 8.15542 16.7659 7.54285 16.0015 6.9913C14.4748 5.88963 12.356 5 10 5ZM6.625 10.5C6.625 8.74756 8.13604 7.32692 10 7.32692C11.864 7.32692 13.375 8.74756 13.375 10.5C13.375 12.2524 11.864 13.6731 10 13.6731C8.13604 13.6731 6.625 12.2524 6.625 10.5Z"/>
</svg>
