<svg width="22" height="22" viewBox="0 0 22 22" fill="none" xmlns="http://www.w3.org/2000/svg">
<path d="M10.25 0.433013C10.7141 0.165063 11.2859 0.165064 11.75 0.433013L19.7763 5.06699C20.2404 5.33494 20.5263 5.83013 20.5263 6.36603V15.634C20.5263 16.1699 20.2404 16.6651 19.7763 16.933L11.75 21.567C11.2859 21.8349 10.7141 21.8349 10.25 21.567L2.22372 16.933C1.75962 16.6651 1.47372 16.1699 1.47372 15.634V6.36603C1.47372 5.83013 1.75962 5.33494 2.22372 5.06699L10.25 0.433013Z" fill="#272525"/>
<path d="M10.25 2.01036C10.7141 1.74241 11.2859 1.74241 11.75 2.01036L18.4103 5.85566C18.8744 6.12361 19.1603 6.6188 19.1603 7.1547V14.8453C19.1603 15.3812 18.8744 15.8764 18.4103 16.1443L11.75 19.9896C11.2859 20.2576 10.7141 20.2576 10.25 19.9896L3.58975 16.1443C3.12564 15.8764 2.83975 15.3812 2.83975 14.8453V7.1547C2.83975 6.6188 3.12564 6.12361 3.58975 5.85566L10.25 2.01036Z" stroke="white" stroke-linejoin="round"/>
<path d="M14 9.24684V8.51052C14 8.37728 13.958 8.25105 13.8881 8.13885C13.8182 8.02665 13.7133 7.9425 13.5874 7.89341L9 6V6.40673L13.0839 8.08976C13.1259 8.1108 13.1608 8.13885 13.1748 8.18093C13.1888 8.223 13.1888 8.27209 13.1748 8.31417C13.1678 8.3352 13.1538 8.35624 13.1399 8.37027C13.1259 8.38429 13.1049 8.39832 13.0839 8.40533L9 10.0954V11.7503L11.4615 10.7335L13.0769 11.3997C13.0979 11.4067 13.1189 11.4208 13.1329 11.4348C13.1469 11.4488 13.1608 11.4698 13.1678 11.4909C13.1748 11.5119 13.1818 11.533 13.1818 11.554C13.1818 11.575 13.1748 11.5961 13.1678 11.6171C13.1608 11.6381 13.1469 11.6592 13.1329 11.6732C13.1189 11.6872 13.0979 11.7013 13.0769 11.7083L9 13.3913V16L13.5804 14.1136C13.6993 14.0645 13.8042 13.9804 13.8811 13.8682C13.951 13.756 13.993 13.6297 13.993 13.4965V11.7994C13.993 11.6662 13.951 11.54 13.8811 11.4278C13.8112 11.3156 13.7063 11.2314 13.5804 11.1823L11.958 10.5091L13.5804 9.84292C13.7063 9.79383 13.8112 9.70968 13.8811 9.60449C13.965 9.50631 14 9.38008 14 9.24684Z" fill="white"/>
</svg>
