<svg  viewBox="0 0 15 15" fill="none" xmlns="http://www.w3.org/2000/svg">
<mask id="path-1-inside-1_2764_25972">
<path d="M5.40467 14.1652H5.3998C3.9958 13.803 2.81246 13.0821 1.82865 11.9997C1.98469 11.9429 2.12773 11.8837 2.27565 11.8375C2.70152 11.7068 3.12902 11.5807 3.55692 11.4557C3.71338 11.4099 3.715 11.4131 3.77067 11.562C4.02709 12.2517 4.3534 12.9007 4.80244 13.489C4.98239 13.7247 5.1852 13.9421 5.40792 14.1381L5.41117 14.1409C5.4319 14.1543 5.4319 14.1697 5.40467 14.1652Z"/>
<path d="M14.4 7.43996C14.3898 7.60223 14.385 7.76125 14.3687 7.91947C14.2361 9.24212 13.7401 10.5025 12.9355 11.5616C12.9303 11.5715 12.9232 11.5803 12.9144 11.5873C12.9057 11.5944 12.8957 11.5996 12.8849 11.6025C12.8741 11.6055 12.8628 11.6062 12.8517 11.6046C12.8406 11.603 12.83 11.5991 12.8205 11.5933C12.1847 11.3446 11.533 11.1384 10.8699 10.9758L10.8293 10.9645C11.1718 9.81478 11.3336 8.64076 11.3575 7.44077L14.4 7.43996Z"/>
<path d="M10.6826 11.418C11.3236 11.5702 11.9537 11.7652 12.5685 12.0018C11.6437 13.0365 10.4374 13.7803 9.09651 14.1425C9.0888 14.1447 9.08057 14.1442 9.07316 14.1412C9.06574 14.1381 9.05957 14.1327 9.05563 14.1257C9.05169 14.1187 9.05022 14.1106 9.05144 14.1027C9.05266 14.0948 9.05652 14.0875 9.06238 14.0821C9.84097 13.3466 10.316 12.42 10.6826 11.418Z"/>
<path d="M3.04003 6.95639H0C0.0036573 6.87526 0.00528276 6.79737 0.0109719 6.71826C0.0583187 6.03267 0.202375 5.35718 0.438876 4.71179C0.685833 4.05006 1.0254 3.42657 1.44748 2.85989C1.48811 2.80309 1.52306 2.78687 1.59418 2.81486C2.17572 3.04221 2.77067 3.23378 3.37569 3.38848L3.55083 3.4327C3.5553 3.4327 3.55855 3.43919 3.56627 3.44568C3.24533 4.51289 3.08908 5.60485 3.04724 6.71826C3.04426 6.79753 3.04186 6.87691 3.04003 6.95639Z"/>
<path d="M11.2348 3.33169C11.7723 3.18725 12.3014 3.01322 12.8196 2.8104C12.8668 2.79173 12.896 2.7893 12.9314 2.83595C13.5292 3.61901 13.959 4.51663 14.194 5.47284C14.2934 5.87699 14.3659 6.34084 14.3878 6.71826C14.3928 6.80341 14.3952 6.88415 14.3947 6.95883H11.3563C11.3553 6.8786 11.3536 6.79841 11.3511 6.71826C11.3171 5.60872 11.1432 4.50755 10.8333 3.44081L11.2348 3.33169Z"/>
<path d="M4.42939 2.48139C4.68459 1.91345 4.99384 1.37917 5.41605 0.9163C5.70579 0.599062 6.03251 0.331317 6.43197 0.162961C7.07078 -0.10519 7.68033 -0.0341965 8.26468 0.315495C8.68689 0.567825 9.01727 0.917517 9.30579 1.31183C9.68981 1.83921 9.97101 2.42176 10.197 3.03189C10.2014 3.04417 10.2048 3.05679 10.2071 3.06962C10.2071 3.07408 10.2071 3.07936 10.2026 3.09031C8.21484 3.49108 6.16668 3.48956 4.17948 3.08585C4.264 2.87693 4.34121 2.67733 4.42939 2.48139Z"/>
<path d="M3.71622 2.98281C3.07592 2.82974 2.44622 2.63542 1.83109 2.40107C2.21829 1.96698 2.65701 1.5816 3.13755 1.25342C3.79658 0.802529 4.52763 0.466845 5.29942 0.260729C5.30711 0.258698 5.31525 0.259279 5.32257 0.262383C5.32988 0.265486 5.33595 0.270934 5.33982 0.277866C5.34369 0.284798 5.34513 0.292819 5.34393 0.300662C5.34272 0.308504 5.33893 0.315722 5.33315 0.321175C4.55577 1.05869 4.08195 1.98404 3.71622 2.98281Z"/>
<path d="M3.51791 7.44077H10.8788C10.8679 8.59894 10.6955 9.74995 10.3664 10.8606C8.27767 10.4284 6.12233 10.4284 4.03359 10.8606C3.69468 9.74379 3.54108 8.60627 3.51791 7.44077Z"/>
<path d="M9.18388 13.2488C8.84741 13.6711 8.46217 14.0362 7.95422 14.2431C7.23657 14.5356 6.57054 14.4054 5.95205 13.9665C5.52211 13.6598 5.19336 13.2598 4.91013 12.8196C4.61227 12.3465 4.36919 11.8412 4.18557 11.3133C6.17609 10.9111 8.22716 10.9111 10.2177 11.3133C10.1648 11.4501 10.1197 11.5774 10.0673 11.7016C9.83407 12.2513 9.55774 12.7786 9.18388 13.2488Z"/>
<path d="M10.8736 6.95518H3.5297C3.5297 6.87591 3.52664 6.79687 3.52546 6.71826C3.52445 6.65084 3.52482 6.58373 3.5297 6.51705C3.56749 6.08338 3.60447 5.64971 3.66014 5.21889C3.73434 4.67366 3.85105 4.13505 4.00921 3.60795C4.02628 3.54913 4.04985 3.54304 4.10389 3.554C4.69993 3.68054 5.30401 3.76579 5.91182 3.80917C6.35476 3.83675 6.7981 3.86434 7.24186 3.86596C7.93544 3.86971 8.6283 3.82034 9.31432 3.7183C9.64633 3.66799 9.9767 3.60633 10.3075 3.55035C10.3229 3.54751 10.3384 3.5467 10.3583 3.54467C10.5937 4.09807 10.8724 5.86145 10.8803 6.71826C10.8812 6.80798 10.879 6.88777 10.8736 6.95518Z"/>
<path d="M9.06766 0.321175C9.06201 0.315558 9.05837 0.308234 9.05732 0.300341C9.05627 0.292449 9.05786 0.284431 9.06185 0.277536C9.06584 0.27064 9.07199 0.265253 9.07937 0.262214C9.08674 0.259174 9.09491 0.258652 9.10261 0.260729C10.4593 0.633139 11.6118 1.34402 12.56 2.39336C12.4182 2.49235 10.9499 2.94792 10.6813 2.97753C10.3152 1.98769 9.84423 1.0591 9.06766 0.321175Z"/>
<path d="M3.5679 10.9645C2.86805 11.1351 2.18076 11.3534 1.51087 11.618C1.07514 11.062 0.725307 10.4439 0.473011 9.78435C0.184223 9.03421 0.0243077 8.24079 0 7.43752H3.04003C3.06603 8.63467 3.22289 9.8095 3.5679 10.9645Z"/>
</mask>
<path d="M5.40467 14.1652H5.3998C3.9958 13.803 2.81246 13.0821 1.82865 11.9997C1.98469 11.9429 2.12773 11.8837 2.27565 11.8375C2.70152 11.7068 3.12902 11.5807 3.55692 11.4557C3.71338 11.4099 3.715 11.4131 3.77067 11.562C4.02709 12.2517 4.3534 12.9007 4.80244 13.489C4.98239 13.7247 5.1852 13.9421 5.40792 14.1381L5.41117 14.1409C5.4319 14.1543 5.4319 14.1697 5.40467 14.1652Z"/>
<path d="M14.4 7.43996C14.3898 7.60223 14.385 7.76125 14.3687 7.91947C14.2361 9.24212 13.7401 10.5025 12.9355 11.5616C12.9303 11.5715 12.9232 11.5803 12.9144 11.5873C12.9057 11.5944 12.8957 11.5996 12.8849 11.6025C12.8741 11.6055 12.8628 11.6062 12.8517 11.6046C12.8406 11.603 12.83 11.5991 12.8205 11.5933C12.1847 11.3446 11.533 11.1384 10.8699 10.9758L10.8293 10.9645C11.1718 9.81478 11.3336 8.64076 11.3575 7.44077L14.4 7.43996Z"/>
<path d="M10.6826 11.418C11.3236 11.5702 11.9537 11.7652 12.5685 12.0018C11.6437 13.0365 10.4374 13.7803 9.09651 14.1425C9.0888 14.1447 9.08057 14.1442 9.07316 14.1412C9.06574 14.1381 9.05957 14.1327 9.05563 14.1257C9.05169 14.1187 9.05022 14.1106 9.05144 14.1027C9.05266 14.0948 9.05652 14.0875 9.06238 14.0821C9.84097 13.3466 10.316 12.42 10.6826 11.418Z"/>
<path d="M3.04003 6.95639H0C0.0036573 6.87526 0.00528276 6.79737 0.0109719 6.71826C0.0583187 6.03267 0.202375 5.35718 0.438876 4.71179C0.685833 4.05006 1.0254 3.42657 1.44748 2.85989C1.48811 2.80309 1.52306 2.78687 1.59418 2.81486C2.17572 3.04221 2.77067 3.23378 3.37569 3.38848L3.55083 3.4327C3.5553 3.4327 3.55855 3.43919 3.56627 3.44568C3.24533 4.51289 3.08908 5.60485 3.04724 6.71826C3.04426 6.79753 3.04186 6.87691 3.04003 6.95639Z"/>
<path d="M11.2348 3.33169C11.7723 3.18725 12.3014 3.01322 12.8196 2.8104C12.8668 2.79173 12.896 2.7893 12.9314 2.83595C13.5292 3.61901 13.959 4.51663 14.194 5.47284C14.2934 5.87699 14.3659 6.34084 14.3878 6.71826C14.3928 6.80341 14.3952 6.88415 14.3947 6.95883H11.3563C11.3553 6.8786 11.3536 6.79841 11.3511 6.71826C11.3171 5.60872 11.1432 4.50755 10.8333 3.44081L11.2348 3.33169Z"/>
<path d="M4.42939 2.48139C4.68459 1.91345 4.99384 1.37917 5.41605 0.9163C5.70579 0.599062 6.03251 0.331317 6.43197 0.162961C7.07078 -0.10519 7.68033 -0.0341965 8.26468 0.315495C8.68689 0.567825 9.01727 0.917517 9.30579 1.31183C9.68981 1.83921 9.97101 2.42176 10.197 3.03189C10.2014 3.04417 10.2048 3.05679 10.2071 3.06962C10.2071 3.07408 10.2071 3.07936 10.2026 3.09031C8.21484 3.49108 6.16668 3.48956 4.17948 3.08585C4.264 2.87693 4.34121 2.67733 4.42939 2.48139Z"/>
<path d="M3.71622 2.98281C3.07592 2.82974 2.44622 2.63542 1.83109 2.40107C2.21829 1.96698 2.65701 1.5816 3.13755 1.25342C3.79658 0.802529 4.52763 0.466845 5.29942 0.260729C5.30711 0.258698 5.31525 0.259279 5.32257 0.262383C5.32988 0.265486 5.33595 0.270934 5.33982 0.277866C5.34369 0.284798 5.34513 0.292819 5.34393 0.300662C5.34272 0.308504 5.33893 0.315722 5.33315 0.321175C4.55577 1.05869 4.08195 1.98404 3.71622 2.98281Z"/>
<path d="M3.51791 7.44077H10.8788C10.8679 8.59894 10.6955 9.74995 10.3664 10.8606C8.27767 10.4284 6.12233 10.4284 4.03359 10.8606C3.69468 9.74379 3.54108 8.60627 3.51791 7.44077Z"/>
<path d="M9.18388 13.2488C8.84741 13.6711 8.46217 14.0362 7.95422 14.2431C7.23657 14.5356 6.57054 14.4054 5.95205 13.9665C5.52211 13.6598 5.19336 13.2598 4.91013 12.8196C4.61227 12.3465 4.36919 11.8412 4.18557 11.3133C6.17609 10.9111 8.22716 10.9111 10.2177 11.3133C10.1648 11.4501 10.1197 11.5774 10.0673 11.7016C9.83407 12.2513 9.55774 12.7786 9.18388 13.2488Z"/>
<path d="M10.8736 6.95518H3.5297C3.5297 6.87591 3.52664 6.79687 3.52546 6.71826C3.52445 6.65084 3.52482 6.58373 3.5297 6.51705C3.56749 6.08338 3.60447 5.64971 3.66014 5.21889C3.73434 4.67366 3.85105 4.13505 4.00921 3.60795C4.02628 3.54913 4.04985 3.54304 4.10389 3.554C4.69993 3.68054 5.30401 3.76579 5.91182 3.80917C6.35476 3.83675 6.7981 3.86434 7.24186 3.86596C7.93544 3.86971 8.6283 3.82034 9.31432 3.7183C9.64633 3.66799 9.9767 3.60633 10.3075 3.55035C10.3229 3.54751 10.3384 3.5467 10.3583 3.54467C10.5937 4.09807 10.8724 5.86145 10.8803 6.71826C10.8812 6.80798 10.879 6.88777 10.8736 6.95518Z"/>
<path d="M9.06766 0.321175C9.06201 0.315558 9.05837 0.308234 9.05732 0.300341C9.05627 0.292449 9.05786 0.284431 9.06185 0.277536C9.06584 0.27064 9.07199 0.265253 9.07937 0.262214C9.08674 0.259174 9.09491 0.258652 9.10261 0.260729C10.4593 0.633139 11.6118 1.34402 12.56 2.39336C12.4182 2.49235 10.9499 2.94792 10.6813 2.97753C10.3152 1.98769 9.84423 1.0591 9.06766 0.321175Z"/>
<path d="M3.5679 10.9645C2.86805 11.1351 2.18076 11.3534 1.51087 11.618C1.07514 11.062 0.725307 10.4439 0.473011 9.78435C0.184223 9.03421 0.0243077 8.24079 0 7.43752H3.04003C3.06603 8.63467 3.22289 9.8095 3.5679 10.9645Z"/>
</svg>
