<svg width="24" height="24" viewBox="0 0 24 24" fill="none" xmlns="http://www.w3.org/2000/svg">
<path fill-rule="evenodd" clip-rule="evenodd" d="M12.5 22.5C18.0228 22.5 22.5 18.0228 22.5 12.5C22.5 6.97715 18.0228 2.5 12.5 2.5C6.97715 2.5 2.5 6.97715 2.5 12.5C2.5 18.0228 6.97715 22.5 12.5 22.5ZM12.4749 19.5C11.9916 19.5 11.5999 19.1082 11.5999 18.625V18.2C10.8165 18.0167 10.179 17.6792 9.68735 17.1875C9.36117 16.8613 9.09184 16.4673 8.87936 16.0054C8.68851 15.5905 8.92501 15.1219 9.34988 14.9545C9.83318 14.7641 10.3597 15.0427 10.6284 15.4873C10.7859 15.7478 10.9722 15.9645 11.1874 16.1375C11.6124 16.4792 12.0999 16.65 12.6499 16.65C13.1999 16.65 13.6707 16.5208 14.0624 16.2625C14.454 16.0042 14.6499 15.6 14.6499 15.05C14.6499 14.5667 14.4457 14.175 14.0374 13.875C13.629 13.575 12.8999 13.2333 11.8499 12.85C10.8665 12.5 10.1457 12.0833 9.68735 11.6C9.22902 11.1167 8.99985 10.4833 8.99985 9.7C8.99985 9.01667 9.23319 8.4 9.69985 7.85C10.1665 7.3 10.8165 6.93333 11.6499 6.75V6.375C11.6499 5.89175 12.0416 5.5 12.5249 5.5C13.0081 5.5 13.3999 5.89175 13.3999 6.375V6.75C13.9999 6.8 14.5457 7.04167 15.0374 7.475C15.3111 7.7163 15.5371 7.98086 15.7153 8.26868C15.9551 8.65601 15.7249 9.13202 15.3028 9.30348C14.839 9.49192 14.3229 9.23171 13.983 8.86411C13.9259 8.80231 13.8648 8.74344 13.7999 8.6875C13.4999 8.42917 13.0832 8.3 12.5499 8.3C11.9665 8.3 11.5207 8.425 11.2124 8.675C10.904 8.925 10.7499 9.26667 10.7499 9.7C10.7499 10.1333 10.9415 10.475 11.3249 10.725C11.7082 10.975 12.3999 11.2667 13.3999 11.6C14.5999 12.0333 15.3999 12.5417 15.7999 13.125C16.1999 13.7083 16.3999 14.35 16.3999 15.05C16.3999 16.0333 16.0999 16.775 15.4999 17.275C14.8999 17.775 14.1832 18.1 13.3499 18.25V18.625C13.3499 19.1082 12.9581 19.5 12.4749 19.5Z" fill="white"/>
</svg>
