<svg width="18" height="18" viewBox="0 0 18 18" fill="none" xmlns="http://www.w3.org/2000/svg">
<path d="M8.99935 17.3327C7.84657 17.3327 6.76324 17.1139 5.74935 16.6764C4.73546 16.2389 3.85352 15.6452 3.10352 14.8952C2.35352 14.1452 1.75977 13.2632 1.32227 12.2493C0.884766 11.2355 0.666016 10.1521 0.666016 8.99935C0.666016 7.84657 0.884766 6.76324 1.32227 5.74935C1.75977 4.73546 2.35352 3.85352 3.10352 3.10352C3.85352 2.35352 4.73546 1.75977 5.74935 1.32227C6.76324 0.884766 7.84657 0.666016 8.99935 0.666016C10.1521 0.666016 11.2355 0.884766 12.2493 1.32227C13.2632 1.75977 14.1452 2.35352 14.8952 3.10352C15.6452 3.85352 16.2389 4.73546 16.6764 5.74935C17.1139 6.76324 17.3327 7.84657 17.3327 8.99935C17.3327 10.1521 17.1139 11.2355 16.6764 12.2493C16.2389 13.2632 15.6452 14.1452 14.8952 14.8952C14.1452 15.6452 13.2632 16.2389 12.2493 16.6764C11.2355 17.1139 10.1521 17.3327 8.99935 17.3327ZM8.99935 16.0827C10.9768 16.0827 12.6517 15.3965 14.0241 14.0241C15.3965 12.6517 16.0827 10.9768 16.0827 8.99935C16.0827 8.15682 15.9368 7.34549 15.6452 6.56537C15.3535 5.78524 14.9438 5.07574 14.416 4.43685L4.43685 14.416C5.06185 14.9577 5.76666 15.3709 6.55129 15.6556C7.33593 15.9403 8.15195 16.0827 8.99935 16.0827ZM3.60352 13.5618L13.5618 3.60352C12.923 3.06185 12.2135 2.64518 11.4333 2.35352C10.6532 2.06185 9.84188 1.91602 8.99935 1.91602C7.02192 1.91602 5.347 2.60221 3.9746 3.9746C2.60221 5.347 1.91602 7.02192 1.91602 8.99935C1.91602 9.84675 2.06879 10.6628 2.37435 11.4474C2.6799 12.232 3.08963 12.9368 3.60352 13.5618Z" fill="#B6BBC2"/>
</svg>
