<svg width="18" height="18" viewBox="0 0 18 18" fill="none" xmlns="http://www.w3.org/2000/svg">
<path d="M8.93685 17.3327C7.78407 17.3327 6.70074 17.1139 5.68685 16.6764C4.67296 16.2389 3.79102 15.6452 3.04102 14.8952C2.29102 14.1452 1.69727 13.2632 1.25977 12.2493C0.822266 11.2355 0.603516 10.1521 0.603516 8.99935C0.603516 7.84657 0.822266 6.76324 1.25977 5.74935C1.69727 4.73546 2.29102 3.85352 3.04102 3.10352C3.79102 2.35352 4.67296 1.75977 5.68685 1.32227C6.70074 0.884766 7.78407 0.666016 8.93685 0.666016C10.0896 0.666016 11.173 0.884766 12.1868 1.32227C13.2007 1.75977 14.0827 2.35352 14.8327 3.10352C15.5827 3.85352 16.1764 4.73546 16.6139 5.74935C17.0514 6.76324 17.2702 7.84657 17.2702 8.99935C17.2702 10.1521 17.0514 11.2355 16.6139 12.2493C16.1764 13.2632 15.5827 14.1452 14.8327 14.8952C14.0827 15.6452 13.2007 16.2389 12.1868 16.6764C11.173 17.1139 10.0896 17.3327 8.93685 17.3327ZM8.93685 16.0827C10.9143 16.0827 12.5892 15.3965 13.9616 14.0241C15.334 12.6517 16.0202 10.9768 16.0202 8.99935C16.0202 8.15682 15.8743 7.34549 15.5827 6.56537C15.291 5.78524 14.8813 5.07574 14.3535 4.43685L4.37435 14.416C4.99935 14.9577 5.70416 15.3709 6.48879 15.6556C7.27343 15.9403 8.08945 16.0827 8.93685 16.0827ZM3.54102 13.5618L13.4993 3.60352C12.8605 3.06185 12.151 2.64518 11.3708 2.35352C10.5907 2.06185 9.77938 1.91602 8.93685 1.91602C6.95942 1.91602 5.2845 2.60221 3.9121 3.9746C2.53971 5.347 1.85352 7.02192 1.85352 8.99935C1.85352 9.84675 2.00629 10.6628 2.31185 11.4474C2.6174 12.232 3.02713 12.9368 3.54102 13.5618Z" fill="#576D8B"/>
</svg>
