<svg width="24" height="24" viewBox="0 0 24 24" fill="none" xmlns="http://www.w3.org/2000/svg">
<g id="manage_accounts_FILL0_wght400_GRAD0_opsz48">
<path id="Vector" d="M10 11.875C8.9 11.875 8 11.525 7.3 10.825C6.6 10.125 6.25 9.225 6.25 8.125C6.25 7.025 6.6 6.125 7.3 5.425C8 4.725 8.9 4.375 10 4.375C11.1 4.375 12 4.725 12.7 5.425C13.4 6.125 13.75 7.025 13.75 8.125C13.75 9.225 13.4 10.125 12.7 10.825C12 11.525 11.1 11.875 10 11.875ZM2 19.9V17.55C2 16.9667 2.14583 16.4417 2.4375 15.975C2.72917 15.5083 3.15 15.15 3.7 14.9C4.9 14.3667 6.0125 13.9833 7.0375 13.75C8.0625 13.5167 9.05 13.4 10 13.4H10.575C10.475 13.6333 10.4 13.8625 10.35 14.0875C10.3 14.3125 10.2583 14.5833 10.225 14.9H10C9.03333 14.9 8.0875 15.0042 7.1625 15.2125C6.2375 15.4208 5.28333 15.7667 4.3 16.25C4.03333 16.3833 3.83333 16.5708 3.7 16.8125C3.56667 17.0542 3.5 17.3 3.5 17.55V18.4H10.225C10.3083 18.7 10.4083 18.9708 10.525 19.2125C10.6417 19.4542 10.7833 19.6833 10.95 19.9H2ZM16.675 21L16.425 19.35C16.1417 19.2667 15.8542 19.1458 15.5625 18.9875C15.2708 18.8292 15.025 18.65 14.825 18.45L13.45 18.75L12.825 17.7L14 16.6C13.9667 16.45 13.95 16.2417 13.95 15.975C13.95 15.7083 13.9667 15.5 14 15.35L12.825 14.25L13.45 13.2L14.825 13.5C15.025 13.3 15.2708 13.1208 15.5625 12.9625C15.8542 12.8042 16.1417 12.6833 16.425 12.6L16.675 10.95H18.025L18.275 12.6C18.5583 12.6833 18.8458 12.8042 19.1375 12.9625C19.4292 13.1208 19.675 13.3 19.875 13.5L21.25 13.2L21.875 14.25L20.7 15.35C20.7333 15.5 20.75 15.7083 20.75 15.975C20.75 16.2417 20.7333 16.45 20.7 16.6L21.875 17.7L21.25 18.75L19.875 18.45C19.675 18.65 19.4292 18.8292 19.1375 18.9875C18.8458 19.1458 18.5583 19.2667 18.275 19.35L18.025 21H16.675ZM17.35 17.975C17.95 17.975 18.4333 17.7917 18.8 17.425C19.1667 17.0583 19.35 16.575 19.35 15.975C19.35 15.375 19.1667 14.8917 18.8 14.525C18.4333 14.1583 17.95 13.975 17.35 13.975C16.75 13.975 16.2667 14.1583 15.9 14.525C15.5333 14.8917 15.35 15.375 15.35 15.975C15.35 16.575 15.5333 17.0583 15.9 17.425C16.2667 17.7917 16.75 17.975 17.35 17.975ZM10 10.375C10.65 10.375 11.1875 10.1625 11.6125 9.7375C12.0375 9.3125 12.25 8.775 12.25 8.125C12.25 7.475 12.0375 6.9375 11.6125 6.5125C11.1875 6.0875 10.65 5.875 10 5.875C9.35 5.875 8.8125 6.0875 8.3875 6.5125C7.9625 6.9375 7.75 7.475 7.75 8.125C7.75 8.775 7.9625 9.3125 8.3875 9.7375C8.8125 10.1625 9.35 10.375 10 10.375Z" fill="#1974D2"/>
</g>
</svg>
