<svg width="24" height="24" viewBox="0 0 24 24" fill="none" xmlns="http://www.w3.org/2000/svg">
<g clip-path="url(#clip0_6393_71193)">
<path d="M15.3204 21.0004H8.64815C8.48609 20.8964 8.31731 20.7889 8.29855 20.5771C8.2621 20.1613 8.35481 19.7652 8.51405 19.3824C8.52289 19.3698 8.53209 19.3574 8.54094 19.3447C8.77696 18.8182 9.16654 18.4292 9.66583 18.1567C10.1669 17.8833 10.7214 17.8227 11.2836 17.8392C11.4319 17.8438 11.4768 17.8145 11.4765 17.6542C11.4708 14.2157 11.4722 10.7775 11.4722 7.33898C11.4722 7.30973 11.4687 7.27978 11.4729 7.25123C11.486 7.16383 11.446 7.14727 11.3647 7.14445C11.2295 7.13951 11.0993 7.17722 10.9673 7.17969C10.6771 7.18568 10.3905 7.21669 10.1028 7.25053C9.5487 7.31607 8.99847 7.40312 8.45708 7.53598C8.11986 7.6188 7.77662 7.68188 7.44931 7.80523C7.62659 8.20733 7.80174 8.60592 7.97796 9.00415C8.24795 9.61383 8.51865 10.2235 8.78899 10.8332C9.06393 11.4534 9.33958 12.0733 9.61204 12.6946C9.65733 12.7976 9.71041 12.8455 9.83886 12.8487C10.2164 12.8585 10.4217 13.0936 10.4079 13.4393C10.3933 13.7984 10.3088 14.1494 10.1421 14.4708C9.77481 15.1795 9.20158 15.6659 8.47512 15.989C7.71399 16.3277 6.92314 16.4225 6.10008 16.3256C5.5279 16.2583 4.99324 16.0754 4.50209 15.7867C3.9239 15.447 3.47204 14.9815 3.19391 14.3588C3.10651 14.1632 3.08174 13.9521 3 13.7575V13.5817C3.05272 13.5232 3.05237 13.4643 3 13.4058C3 13.3353 3 13.2652 3 13.1947C3.01168 13.1842 3.0276 13.1757 3.03432 13.1627C3.12986 12.9695 3.27742 12.8286 3.49928 12.8501C3.70027 12.8694 3.75441 12.745 3.81386 12.6125C3.99326 12.2125 4.167 11.8104 4.34498 11.4101C4.68857 10.6355 5.03393 9.86122 5.37787 9.08661C5.51694 8.77331 5.65494 8.46002 5.80745 8.11465C5.45643 8.15835 5.13796 8.21791 4.81702 8.23236C4.43238 8.24962 4.0474 8.27359 3.6617 8.28028C3.34005 8.28557 3.12102 8.18372 3.00035 7.88593V7.81545C3.05025 7.76858 3.05025 7.72171 3.00035 7.67483V7.60435C3.04635 7.5973 3.08952 7.58884 3.03468 7.53352C3.06086 7.40559 3.16171 7.33969 3.26539 7.29599C3.60013 7.15432 3.95363 7.05952 4.28908 6.92348C4.95113 6.65494 5.60504 6.3649 6.25436 6.06641C7.16198 5.64879 7.98469 5.06731 8.91 4.68318C9.29145 4.52459 9.67892 4.38362 10.0862 4.29446C10.4945 4.20495 10.9032 4.13023 11.3187 4.08653C11.4199 4.07596 11.4928 4.03508 11.4768 3.90152C11.4602 3.76302 11.4726 3.62064 11.4744 3.48003C11.4775 3.23897 11.6764 3.0173 11.9252 3.00215C12.1927 2.98594 12.429 3.13889 12.4973 3.37959C12.5543 3.57976 12.5256 3.7831 12.5306 3.98539C12.5324 4.05165 12.5352 4.08794 12.6219 4.09182C12.9722 4.10697 13.319 4.16689 13.6608 4.23525C14.2779 4.35895 14.8632 4.5919 15.4315 4.85445C16.0585 5.14414 16.6399 5.52333 17.2527 5.84051C17.8603 6.15486 18.4848 6.43715 19.1207 6.693C19.3288 6.77688 19.5216 6.91256 19.736 6.96366C20.0683 7.04295 20.3815 7.167 20.6946 7.29317C20.8404 7.35202 20.9547 7.45634 20.971 7.63783C20.9915 7.86866 20.9487 8.06919 20.7357 8.19394C20.6539 8.24187 20.5612 8.27429 20.4593 8.27359C19.9696 8.27042 19.4816 8.27006 18.9926 8.21156C18.7297 8.1802 18.4632 8.13579 18.1841 8.13227C18.3171 8.43394 18.4424 8.71869 18.5683 9.00309C18.8383 9.61242 19.1094 10.2217 19.3794 10.8314C19.6543 11.4517 19.9292 12.0719 20.2021 12.6932C20.2467 12.7951 20.2983 12.8458 20.4282 12.8487C20.8171 12.8571 21.0241 13.1101 20.9982 13.4555C20.9621 13.9362 20.8284 14.3901 20.5446 14.7936C20.1193 15.3994 19.5499 15.8167 18.8631 16.0775C18.1614 16.3439 17.4364 16.414 16.6898 16.3277C16.2963 16.2822 15.9293 16.1582 15.5645 16.0215C15.2241 15.8935 14.9262 15.6937 14.6459 15.4629C13.9651 14.9018 13.5688 14.2069 13.59 13.3057C13.5914 13.2391 13.612 13.1859 13.6417 13.1306C13.7585 12.9107 13.9474 12.8296 14.1873 12.843C14.2468 12.8462 14.3013 12.8465 14.3306 12.7757C14.401 12.6044 14.4757 12.4349 14.5504 12.2658C14.8565 11.5718 15.1615 10.8776 15.4697 10.1847C15.8076 9.42493 16.1477 8.66583 16.4895 7.90778C16.5238 7.83201 16.5479 7.80769 16.4325 7.77386C15.9796 7.64206 15.5228 7.52788 15.0596 7.43942C14.5408 7.34004 14.0189 7.26533 13.4927 7.20859C13.2751 7.18498 13.0554 7.20683 12.8374 7.15291C12.5674 7.0863 12.531 7.12894 12.531 7.40383V15.7184C12.531 16.3806 12.5338 17.0428 12.5281 17.7046C12.5271 17.8145 12.5561 17.8427 12.6644 17.8385C12.9542 17.8276 13.2429 17.853 13.5285 17.9055C14.5415 18.0922 15.2018 18.6885 15.555 19.639C15.6445 19.8801 15.6777 20.1359 15.7036 20.3893C15.7336 20.6829 15.5557 20.8636 15.3196 21.0004H15.3204ZM15.4679 6.08297C15.4566 6.07451 15.4453 6.06606 15.4339 6.0576C14.9506 5.75804 14.4315 5.54448 13.8848 5.38589C13.3034 5.21744 12.7104 5.13814 12.1095 5.11136C11.8777 5.10114 11.6456 5.11524 11.4121 5.13638C10.9595 5.17726 10.5193 5.26078 10.0816 5.37884C9.18282 5.62131 8.40824 6.11927 7.60465 6.55697C7.52822 6.59856 7.41994 6.60666 7.36969 6.71873C10.4478 5.87575 13.515 5.86694 16.5857 6.7145C16.5861 6.69899 16.5864 6.68314 16.5868 6.66763C16.4353 6.5901 16.2842 6.51221 16.1328 6.43468C16.1328 6.37653 16.1024 6.38957 16.0695 6.40825C15.9845 6.35927 15.8996 6.30993 15.815 6.26094C15.8157 6.2035 15.7864 6.21196 15.752 6.23275C15.6958 6.15134 15.5574 6.17953 15.5263 6.06465C15.5118 6.06288 15.4973 6.06147 15.4828 6.05971C15.4969 6.06147 15.5107 6.06288 15.5249 6.06465C15.5114 6.08685 15.4927 6.09319 15.4683 6.08332L15.4679 6.08297ZM8.52501 12.8391C8.25715 12.2358 7.99919 11.6582 7.74371 11.0799C7.5353 10.6083 7.33112 10.1351 7.12235 9.66352C7.00523 9.39921 6.88386 9.13701 6.76107 8.87552C6.74692 8.84556 6.74763 8.79058 6.68499 8.79904C6.64819 8.80397 6.64642 8.82442 6.63369 8.85296C6.48472 9.18881 6.32973 9.5222 6.1797 9.85805C5.87539 10.5393 5.57214 11.2208 5.27066 11.9035C5.13478 12.2115 5.00491 12.5223 4.86939 12.8391H8.52501ZM15.4569 12.8353H19.1211C19.0429 12.6633 18.9693 12.504 18.8974 12.3436C18.6702 11.8383 18.4417 11.3336 18.2173 10.8268C17.9314 10.1816 17.6501 9.53453 17.3621 8.89067C17.3479 8.85895 17.3476 8.79516 17.2771 8.79869C17.2092 8.80186 17.2106 8.86318 17.1968 8.89631C16.8738 9.67374 16.5178 10.4364 16.1753 11.205C15.9364 11.741 15.7018 12.2788 15.4569 12.8356V12.8353ZM4.17337 13.9055C4.259 14.184 4.40585 14.37 4.71476 14.6414C5.16875 15.0403 5.71191 15.2384 6.29717 15.2969C6.79186 15.3462 7.2876 15.3075 7.77096 15.1461C8.13507 15.0245 8.44504 14.8211 8.74086 14.5931C8.97016 14.4166 9.12444 14.1769 9.23625 13.9059H4.17372L4.17337 13.9055ZM19.8242 13.908H14.7524C14.826 14.1804 15.0029 14.3753 15.1873 14.5491C15.6586 14.9931 16.2393 15.2373 16.8755 15.2972C17.6388 15.3691 18.3766 15.2553 19.034 14.8148C19.3804 14.5825 19.6716 14.3069 19.8242 13.908ZM14.5599 19.9428C14.4233 19.6809 14.2945 19.455 14.0812 19.2739C13.7135 18.9617 13.2818 18.894 12.8261 18.8919C12.273 18.8891 11.7203 18.8926 11.1672 18.8905C10.9471 18.8898 10.7309 18.8954 10.5161 18.9595C9.99632 19.1146 9.63363 19.4325 9.43512 19.9431H14.5599V19.9428Z" fill="#243A57"/>
<path d="M3 13.4053C3.05237 13.4638 3.05272 13.5226 3 13.5811V13.4053Z" fill="#243A57"/>
<path d="M3 7.53356C3.01132 7.53497 3.02265 7.53497 3.03432 7.5332C3.08952 7.58853 3.046 7.59699 3 7.60404V7.53356Z" fill="#243A57"/>
<path d="M3 7.6748C3.04989 7.72168 3.04989 7.76855 3 7.81542V7.6748Z" fill="#243A57"/>
<path d="M15.813 6.26045C15.7875 6.26081 15.7528 6.28125 15.75 6.23226C15.7847 6.21182 15.8137 6.20336 15.813 6.26045Z" fill="#243A57"/>
<path d="M16.1337 6.43397C16.1075 6.43785 16.0742 6.45758 16.0703 6.40754C16.1029 6.38886 16.1333 6.37547 16.1337 6.43397Z" fill="#243A57"/>
<path d="M15.524 6.06353C15.524 6.06353 15.5222 6.06353 15.5226 6.06353C15.5088 6.06177 15.4946 6.06036 15.4805 6.05859C15.495 6.06036 15.5095 6.06177 15.524 6.06353Z" fill="#243A57"/>
<path d="M15.4691 6.08299C15.444 6.09251 15.4284 6.09004 15.4352 6.05762C15.4465 6.06608 15.4578 6.07453 15.4691 6.08299Z" fill="#243A57"/>
<path d="M8.51416 19.3824C8.50531 19.3574 8.52194 19.35 8.54105 19.3447C8.53221 19.3574 8.52301 19.3697 8.51416 19.3824Z" fill="#243A57"/>
</g>
<defs>
<clipPath id="clip0_6393_71193">
<rect width="18" height="18" fill="white" transform="translate(3 3)"/>
</clipPath>
</defs>
</svg>
