<svg width="34" height="34" viewBox="0 0 34 34" fill="none" xmlns="http://www.w3.org/2000/svg">
<path d="M26 18.4581H8C6.35 18.4581 5 19.5381 5 20.8572V25.6591C5 26.9791 6.35 28.0581 8 28.0581H26C27.6491 28.0581 29 26.9791 29 25.6591V20.8591C29 19.5381 27.6472 18.4581 26 18.4581ZM25.0625 23.2572H9.19531C8.32437 23.2572 7.61 22.7172 7.61 22.0572C7.61 21.3972 8.32437 20.8572 9.19531 20.8572H25.0569C25.9297 20.8572 26.6431 21.3972 26.6431 22.0572C26.6431 22.7172 25.9297 23.2572 25.0569 23.2572H25.0625Z" fill="#B318CC"/>
<path d="M21.0406 10.1669L17.5625 17.2338C17.5126 17.3408 17.4331 17.4314 17.3335 17.4949C17.2338 17.5584 17.1181 17.5921 17 17.5921C16.8819 17.5921 16.7662 17.5584 16.6665 17.4949C16.5669 17.4314 16.4874 17.3408 16.4375 17.2338L12.9556 10.1659C12.5918 9.42626 12.4548 8.59556 12.5617 7.77822C12.6686 6.96089 13.0147 6.19339 13.5566 5.57219C15.4166 3.47594 18.5806 3.47594 20.4406 5.57219C20.9827 6.19346 21.3289 6.96119 21.4357 7.77877C21.5424 8.59634 21.405 9.42724 21.0406 10.1669Z" fill="#B318CC"/>
</svg>
