<svg width="19" height="18" viewBox="0 0 19 18" fill="none" xmlns="http://www.w3.org/2000/svg">
<path d="M16.0404 11.6042V4.89583L11.6654 1.83333L7.29036 4.89583V7.58333H6.04036V4.27083L11.6654 0.25L17.2904 4.27083V11.6042H16.0404ZM12.082 6.08333H12.9154V5.25H12.082V6.08333ZM10.4154 6.08333H11.2487V5.25H10.4154V6.08333ZM12.082 7.75H12.9154V6.91667H12.082V7.75ZM10.4154 7.75H11.2487V6.91667H10.4154V7.75ZM11.7904 17.7083L5.3112 15.8542V17.0417H0.832031V8.83333H7.26953L12.582 10.8333C12.957 10.9722 13.273 11.1979 13.5299 11.5104C13.7869 11.8229 13.9154 12.2708 13.9154 12.8542H16.2904C16.8737 12.8542 17.3598 13.0625 17.7487 13.4792C18.1376 13.8958 18.332 14.4583 18.332 15.1667V15.7083L11.7904 17.7083ZM2.08203 15.7917H4.04036V10.0833H2.08203V15.7917ZM11.707 16.4167L17.0404 14.7917C16.957 14.5278 16.8529 14.3472 16.7279 14.25C16.6029 14.1528 16.457 14.1042 16.2904 14.1042H11.9779C11.5612 14.1042 11.1758 14.0764 10.8216 14.0208C10.4674 13.9653 10.1306 13.8889 9.8112 13.7917L8.1237 13.2708L8.58203 12.0625L10.1029 12.5625C10.4501 12.6736 10.7799 12.75 11.0924 12.7917C11.4049 12.8333 11.9015 12.8542 12.582 12.8542C12.582 12.6875 12.5508 12.5243 12.4883 12.3646C12.4258 12.2049 12.3181 12.0903 12.1654 12.0208L7.0612 10.0833H5.3112V14.5417L11.707 16.4167Z" fill="#243A57"/>
</svg>
