<svg width="20" height="21" viewBox="0 0 20 21" fill="none" xmlns="http://www.w3.org/2000/svg">
<path fill-rule="evenodd" clip-rule="evenodd" d="M13.8209 10.97C14.9418 11.7309 15.7273 12.7618 15.7273 14.1364V16.5909H19V14.1364C19 12.3527 16.0791 11.2973 13.8209 10.97Z" fill="white"/>
<path d="M7.54545 10.0455C9.35293 10.0455 10.8182 8.5802 10.8182 6.77273C10.8182 4.96525 9.35293 3.5 7.54545 3.5C5.73798 3.5 4.27273 4.96525 4.27273 6.77273C4.27273 8.5802 5.73798 10.0455 7.54545 10.0455Z" fill="white"/>
<path fill-rule="evenodd" clip-rule="evenodd" d="M12.4545 10.0455C14.2627 10.0455 15.7273 8.58091 15.7273 6.77273C15.7273 4.96455 14.2627 3.5 12.4545 3.5C12.07 3.5 11.71 3.58182 11.3664 3.69636C12.0455 4.53909 12.4545 5.61091 12.4545 6.77273C12.4545 7.93454 12.0455 9.00636 11.3664 9.84909C11.71 9.96364 12.07 10.0455 12.4545 10.0455Z" fill="white"/>
<path fill-rule="evenodd" clip-rule="evenodd" d="M7.54545 10.8636C5.36091 10.8636 1 11.96 1 14.1364V16.5909H14.0909V14.1364C14.0909 11.96 9.73 10.8636 7.54545 10.8636Z" fill="white"/>
</svg>
