<svg width="16" height="17" viewBox="0 0 16 17" fill="none" xmlns="http://www.w3.org/2000/svg">
<path d="M7.3335 11.8335H8.66683V9.16683H11.3335V7.8335H8.66683V5.16683H7.3335V7.8335H4.66683V9.16683H7.3335V11.8335ZM8.00016 15.1668C7.07794 15.1668 6.21127 14.9918 5.40016 14.6418C4.58905 14.2918 3.8835 13.8168 3.2835 13.2168C2.6835 12.6168 2.2085 11.9113 1.8585 11.1002C1.5085 10.2891 1.3335 9.42238 1.3335 8.50016C1.3335 7.57794 1.5085 6.71127 1.8585 5.90016C2.2085 5.08905 2.6835 4.3835 3.2835 3.7835C3.8835 3.1835 4.58905 2.7085 5.40016 2.3585C6.21127 2.0085 7.07794 1.8335 8.00016 1.8335C8.92238 1.8335 9.78905 2.0085 10.6002 2.3585C11.4113 2.7085 12.1168 3.1835 12.7168 3.7835C13.3168 4.3835 13.7918 5.08905 14.1418 5.90016C14.4918 6.71127 14.6668 7.57794 14.6668 8.50016C14.6668 9.42238 14.4918 10.2891 14.1418 11.1002C13.7918 11.9113 13.3168 12.6168 12.7168 13.2168C12.1168 13.8168 11.4113 14.2918 10.6002 14.6418C9.78905 14.9918 8.92238 15.1668 8.00016 15.1668ZM8.00016 13.8335C9.48905 13.8335 10.7502 13.3168 11.7835 12.2835C12.8168 11.2502 13.3335 9.98905 13.3335 8.50016C13.3335 7.01127 12.8168 5.75016 11.7835 4.71683C10.7502 3.6835 9.48905 3.16683 8.00016 3.16683C6.51127 3.16683 5.25016 3.6835 4.21683 4.71683C3.1835 5.75016 2.66683 7.01127 2.66683 8.50016C2.66683 9.98905 3.1835 11.2502 4.21683 12.2835C5.25016 13.3168 6.51127 13.8335 8.00016 13.8335Z" fill="#E5007A"/>
</svg>
