<svg width="48" height="48" viewBox="0 0 48 48" fill="none" xmlns="http://www.w3.org/2000/svg">
<path d="M24.5 44C35.5457 44 44.5 35.0457 44.5 24C44.5 12.9543 35.5457 4 24.5 4C13.4543 4 4.5 12.9543 4.5 24C4.5 35.0457 13.4543 44 24.5 44Z" fill="#90A0B7" stroke="#90A0B7" stroke-width="1.5" stroke-linecap="round" stroke-linejoin="round"/>
<circle cx="18.75" cy="20.25" r="2.25" fill="white"/>
<circle cx="30.75" cy="20.25" r="2.25" fill="white"/>
<path d="M24.4927 35.3636C22.072 35.3636 19.6513 35.3565 17.2307 35.3692C16.6656 35.372 16.338 35.0514 16.1103 34.6156C15.8952 34.2036 16.0147 33.8043 16.2959 33.4416C19.3997 29.4247 24.9341 28.1748 29.4408 30.4919C30.8423 31.2117 32.0316 32.2001 32.9903 33.4585C33.5132 34.1446 33.3038 34.9193 32.4969 35.2019C32.2185 35.2989 31.9107 35.3579 31.6155 35.3593C29.2412 35.372 26.8669 35.3664 24.4941 35.3664L24.4927 35.3636Z" fill="white"/>
</svg>
