<svg  viewBox="0 0 26 26" fill="none" xmlns="http://www.w3.org/2000/svg">
<g clip-path="url(#clip0_2355_45746)">
<rect width="26" height="26" fill="white"/>
<path d="M13.0005 26C5.80764 26.0009 -0.010038 20.1822 1.30039e-05 12.9982C0.010064 5.80867 5.82683 -0.0145947 13.0105 2.74768e-05C20.1942 0.0146496 25.9297 5.77212 25.9991 12.8629C26.0722 20.3065 20.016 26.0494 12.9996 26H13.0005ZM12.9968 1.3736C6.57882 1.37177 1.37517 6.58091 1.37608 13.0156C1.37608 19.3735 6.48288 24.5369 12.8095 24.6338C19.3993 24.7352 24.6203 19.4118 24.6258 13.032C24.6303 6.59462 19.434 1.37542 12.9968 1.3736Z" fill="#FF49AA"/>
<path d="M12.905 19.929C11.3316 19.929 9.75813 19.9244 8.1847 19.9326C7.81738 19.9345 7.60449 19.7261 7.45646 19.4428C7.31666 19.175 7.39433 18.9155 7.57707 18.6797C9.59458 16.0687 13.1919 15.2563 16.1213 16.7624C17.0323 17.2303 17.8053 17.8727 18.4285 18.6907C18.7684 19.1367 18.6322 19.6402 18.1077 19.8239C17.9268 19.8869 17.7267 19.9253 17.5348 19.9262C15.9916 19.9345 14.4483 19.9308 12.9059 19.9308L12.905 19.929Z" fill="#FF49AA"/>
<path d="M15.4766 10.6974C15.4756 9.9179 16.086 9.31291 16.8663 9.3184C17.6147 9.32388 18.2214 9.93527 18.225 10.6865C18.2296 11.4578 17.6083 12.0847 16.8426 12.0802C16.0824 12.0765 15.4775 11.4633 15.4766 10.6965V10.6974Z" fill="#FF49AA"/>
<path d="M8.09099 10.6801C8.10287 9.90242 8.70319 9.31022 9.47254 9.31844C10.2428 9.32667 10.8559 9.95816 10.8386 10.7258C10.8212 11.4843 10.1907 12.0939 9.43691 12.0802C8.67578 12.0665 8.07912 11.446 8.09099 10.6792V10.6801Z" fill="#FF49AA"/>
</g>
<defs>
<clipPath id="clip0_2355_45746">
<rect width="26" height="26" fill="white"/>
</clipPath>
</defs>
</svg>
