<svg viewBox="0 0 32 32" fill="none" xmlns="http://www.w3.org/2000/svg">
<path d="M16.3333 29.3327C23.6971 29.3327 29.6667 23.3631 29.6667 15.9993C29.6667 8.63555 23.6971 2.66602 16.3333 2.66602C8.96954 2.66602 3 8.63555 3 15.9993C3 23.3631 8.96954 29.3327 16.3333 29.3327Z" fill="white" stroke="#FF49AA" stroke-width="1.5" stroke-linecap="round" stroke-linejoin="round"/>
<circle cx="12.5" cy="13.5" r="1.5" fill="#FF49AA"/>
<circle cx="20.5" cy="13.5" r="1.5" fill="#FF49AA"/>
<path d="M16.3288 23.5744C14.715 23.5744 13.1012 23.5697 11.4874 23.5782C11.1107 23.58 10.8923 23.3663 10.7405 23.0758C10.5971 22.8011 10.6768 22.5349 10.8642 22.2931C12.9335 19.6152 16.623 18.7819 19.6275 20.3266C20.5619 20.8065 21.3547 21.4654 21.9939 22.3043C22.3425 22.7617 22.2028 23.2782 21.6649 23.4666C21.4794 23.5313 21.2741 23.5707 21.0773 23.5716C19.4945 23.58 17.9116 23.5763 16.3297 23.5763L16.3288 23.5744Z" fill="#FF49AA"/>
</svg>
