<svg width="32" height="32" viewBox="0 0 32 32" fill="none" xmlns="http://www.w3.org/2000/svg">
<path d="M27.3164 4.68474C27.1333 4.50114 26.9465 4.32297 26.7563 4.15022C26.6274 4.0334 26.4978 3.91942 26.3661 3.80827C26.2344 3.69711 26.1076 3.59021 25.9766 3.48472C25.8987 3.42313 25.8208 3.36153 25.7422 3.30135C25.6171 3.2046 25.4903 3.1102 25.3619 3.01816L25.352 3.01037C25.2323 2.924 25.1113 2.83904 24.9895 2.75692C22.3783 0.989029 19.3037 0.0302998 16.1503 0.00070638C12.9968 -0.0288871 9.90473 0.87197 7.26087 2.59054C7.15111 2.66134 7.04276 2.73214 6.93441 2.81072C6.82607 2.88931 6.70568 2.97285 6.59238 3.05285C6.51377 3.10949 6.43588 3.16755 6.35798 3.22631C6.22697 3.32542 6.09809 3.42667 5.96991 3.53003C5.84174 3.63339 5.7086 3.74242 5.58043 3.8557C5.27309 4.11907 4.97496 4.39542 4.68603 4.68474C1.68557 7.68526 0 11.7544 0 15.9972C0 20.24 1.68557 24.3091 4.68603 27.3096C5.31037 27.9344 5.9849 28.507 6.70285 29.0215C9.39779 30.9535 12.6302 31.9933 15.9464 31.995H16.0037C19.1679 31.9935 22.2606 31.0542 24.891 29.296C27.5214 27.5377 29.5715 25.0394 30.7822 22.1167C31.9929 19.194 32.3098 15.9781 31.6929 12.8754C31.076 9.77267 29.5531 6.9224 27.3164 4.68474ZM26.7676 26.7609C26.3067 27.2219 25.8171 27.6532 25.3017 28.0523C25.1729 28.1523 25.043 28.2498 24.9123 28.3447C22.3218 30.2208 19.2025 31.2265 16.0037 31.217H15.9237C12.914 31.2101 9.97507 30.3043 7.48394 28.6158C7.35317 28.5276 7.22334 28.4367 7.09446 28.3433C6.96345 28.2484 6.83315 28.1507 6.70497 28.0509C6.18987 27.6522 5.70051 27.2214 5.23981 26.7609C2.38573 23.9065 0.782412 20.0357 0.782412 15.9997C0.782412 11.9636 2.38573 8.09281 5.23981 5.23838C5.35311 5.12511 5.46783 5.01419 5.58397 4.90563C5.71144 4.78457 5.84103 4.66704 5.97274 4.55164C6.10446 4.43624 6.23051 4.32863 6.36223 4.22031C6.43942 4.15659 6.51731 4.09429 6.59592 4.0327C6.72409 3.93075 6.85439 3.83163 6.9854 3.73534C7.11641 3.63906 7.24388 3.54773 7.37489 3.45711C9.97195 1.67451 13.0576 0.740062 16.2076 0.782279C19.3575 0.824497 22.417 1.8413 24.9654 3.69287C25.0964 3.78915 25.226 3.88685 25.3549 3.98738C25.4837 4.08792 25.6162 4.19482 25.7443 4.30243C25.8237 4.36851 25.9023 4.43553 25.9802 4.5035C26.1119 4.61772 26.2417 4.73572 26.3696 4.85749C26.5021 4.97997 26.6317 5.10528 26.7598 5.23343L26.7676 5.23838C28.1812 6.65152 29.3026 8.32921 30.0677 10.1756C30.8327 12.0221 31.2265 14.0011 31.2265 15.9997C31.2265 17.9982 30.8327 19.9773 30.0677 21.8237C29.3026 23.6701 28.1812 25.3478 26.7676 26.7609Z" fill="#3C74E1"/>
<path d="M24.9625 3.69003V5.69361C23.8458 4.40226 22.3934 3.48968 20.6301 2.97285C18.1515 2.24717 15.513 2.15514 12.7859 2.69957C10.6069 3.13427 8.9222 4.03482 7.64186 5.45078C7.54838 5.55414 7.45916 5.66317 7.37205 5.76795V3.45428C9.96912 1.67167 13.0548 0.73723 16.2047 0.779447C19.3547 0.821665 22.4142 1.83847 24.9625 3.69003Z" fill="#3C74E1"/>
<path d="M31.2247 15.9997C31.2298 17.9992 30.8381 19.9799 30.0723 21.8271C29.3065 23.6743 28.1818 25.3513 26.7634 26.7609C26.3025 27.2219 25.8129 27.6532 25.2975 28.0523V26.9733C25.2975 25.4158 24.6991 24.0805 23.5661 23.1106C22.5074 22.2044 21.05 21.706 19.4588 21.706H12.5387C10.9503 21.706 9.49368 22.2016 8.43145 23.1106C7.29841 24.0805 6.70002 25.4165 6.70002 26.9733V28.0509C6.18662 27.652 5.69891 27.2212 5.23981 26.7609C2.38573 23.9065 0.782412 20.0357 0.782412 15.9997C0.782412 11.9636 2.38573 8.09281 5.23981 5.23838C5.35311 5.12511 5.46783 5.01419 5.58397 4.90563C5.58397 5.6214 5.58397 6.27628 5.58397 6.89718C5.58397 9.52519 5.58397 11.601 5.57476 15.0927C5.57476 16.0839 5.8729 16.9668 6.49536 17.7831C7.25238 18.7742 8.29407 19.4942 9.77339 20.0429C11.1529 20.5555 12.6952 20.8429 14.6271 20.9484C15.2205 20.981 15.7891 20.9973 16.338 20.9973C18.1034 20.9973 19.6571 20.8281 21.1336 20.479C22.9889 20.0401 24.3337 19.3583 25.3648 18.3339C26.291 17.4135 26.7428 16.4846 26.7478 15.4942C26.7641 11.7787 26.7627 9.64272 26.7598 6.68691C26.7598 6.22247 26.7598 5.73963 26.7598 5.22918L26.7676 5.23838C28.1852 6.64847 29.3091 8.32561 30.0741 10.1728C30.8392 12.0199 31.2303 14.0004 31.2247 15.9997Z" fill="#3C74E1"/>
<path d="M25.3513 6.85541V3.15126C25.3513 2.20753 25.3513 4.09571 25.3513 3.15126C25.3513 2.74771 25.5439 2.53107 25.8711 2.54098C26.1983 2.5509 26.3668 2.75338 26.3668 3.14064C26.3668 8.20127 26.3803 10.4328 26.3576 15.4892C26.3526 16.5193 25.801 17.3477 25.0893 18.0549C23.9655 19.1721 22.5506 19.7406 21.0429 20.0974C18.9383 20.593 16.7997 20.6744 14.6476 20.5569C13.0281 20.4684 11.4354 20.2426 9.90794 19.6755C8.69771 19.2259 7.60362 18.5923 6.80411 17.5445C6.25217 16.8465 5.95512 15.981 5.96212 15.0913C5.97912 10.2197 5.96991 8.18003 5.96991 3.30914C5.96471 3.20294 5.9666 3.0965 5.97558 2.99055C5.98145 2.92569 6.00005 2.86262 6.03032 2.80495C6.06058 2.74728 6.10192 2.69614 6.15197 2.65445C6.20202 2.61276 6.2598 2.58135 6.322 2.562C6.3842 2.54265 6.44961 2.53575 6.51448 2.54169C6.79774 2.57001 6.96486 2.72718 6.98115 3.02099C6.98682 3.12719 6.98115 3.23339 6.98115 3.33958V6.91558C7.32461 6.47735 7.60291 6.07451 7.92937 5.71202C9.25503 4.2465 10.9595 3.45852 12.8602 3.07976C15.4294 2.56718 17.9957 2.60612 20.5189 3.34525C22.5279 3.93499 24.173 5.05926 25.3513 6.85541ZM16.1567 16.7784C17.2536 16.7784 18.3519 16.7834 19.4482 16.7784C19.8481 16.7868 20.2482 16.7653 20.6449 16.714C22.5938 16.399 23.9435 14.6566 23.8083 12.658C23.6787 10.738 22.0209 9.15563 20.0798 9.14147C17.4833 9.12306 14.8867 9.12306 12.2902 9.14147C10.182 9.15634 8.49872 10.9058 8.51643 13.0198C8.53413 15.0835 10.2436 16.7721 12.3319 16.7799C13.6087 16.7784 14.8827 16.7784 16.1567 16.7784Z" fill="#CDDFF9"/>
<path d="M24.197 12.6276C24.1745 12.3003 24.1115 11.9771 24.0094 11.6654C23.9995 11.6343 23.9888 11.6038 23.9782 11.5734C23.9363 11.4512 23.8879 11.3314 23.833 11.2144C23.7658 11.0686 23.6902 10.9267 23.6064 10.7896L23.5554 10.7082L23.5023 10.6275L23.4478 10.5489C23.4152 10.5022 23.3812 10.4562 23.3465 10.4109C23.3225 10.3797 23.2984 10.3493 23.2757 10.3188L23.2184 10.248L23.1475 10.1645C23.1065 10.1192 23.0647 10.0739 23.0222 10.03C22.9101 9.91543 22.7919 9.80696 22.6681 9.70502C22.6193 9.66396 22.569 9.62431 22.518 9.58608L22.4401 9.52944C22.3884 9.49192 22.336 9.45864 22.2822 9.42041C22.2553 9.40342 22.2284 9.38572 22.2007 9.36944C22.1731 9.35316 22.1519 9.339 22.1299 9.32413L22.0393 9.27103C21.9841 9.23988 21.9274 9.21014 21.87 9.18112C21.8127 9.15209 21.7539 9.12519 21.6951 9.09899C21.6661 9.08554 21.6364 9.0728 21.6066 9.06076L21.5358 9.03244L21.4841 9.01262L21.4246 8.98996L21.334 8.9581C21.2455 8.92766 21.1562 8.90076 21.0656 8.87739L20.9565 8.85049L20.8666 8.83067L20.7781 8.81297H20.7611C20.732 8.8073 20.7037 8.80235 20.6747 8.7981C20.6456 8.79385 20.6173 8.7889 20.5883 8.78536C20.4849 8.7712 20.3808 8.76128 20.2753 8.75562C20.2455 8.75562 20.2151 8.75562 20.1846 8.75137C20.1542 8.74713 20.1188 8.75137 20.0855 8.75137C17.4243 8.73297 14.8027 8.73226 12.2958 8.75137C12.2609 8.75137 12.2262 8.75137 12.1917 8.75137L12.0983 8.75491L11.9602 8.76482C11.9 8.76978 11.8405 8.77686 11.781 8.78465C11.7449 8.7889 11.7102 8.79456 11.6727 8.80022L11.5813 8.8158H11.5778L11.4786 8.83562H11.4673C11.4043 8.84907 11.3427 8.86323 11.2803 8.87952C11.2478 8.88801 11.2152 8.89651 11.1826 8.90642C11.15 8.91633 11.1288 8.922 11.1019 8.93049C11.0644 8.94111 11.0275 8.95315 10.99 8.9666C10.9525 8.98005 10.9142 8.99279 10.8767 9.00695C10.8392 9.02111 10.8059 9.03315 10.7719 9.04731C10.7646 9.04953 10.7575 9.05237 10.7506 9.0558L10.6798 9.08554C10.6572 9.09451 10.6336 9.10442 10.609 9.11527C10.5835 9.12589 10.5587 9.13793 10.5339 9.14997C10.4667 9.18182 10.4008 9.21581 10.335 9.25191L10.325 9.25758C10.2896 9.27669 10.2542 9.29652 10.2202 9.31705L10.1168 9.38006L10.0149 9.4459L9.91503 9.5167C9.88174 9.54006 9.84917 9.56413 9.81659 9.5875L9.72028 9.66254C9.68842 9.68874 9.65726 9.71422 9.6261 9.74113C9.59494 9.76803 9.56378 9.79493 9.53333 9.82255C9.47243 9.87777 9.41295 9.93441 9.35488 9.99388C8.96096 10.392 8.65002 10.8644 8.44009 11.3835C8.23015 11.9027 8.1254 12.4584 8.1319 13.0184C8.14039 13.8778 8.41663 14.7133 8.9222 15.4085C9.05972 15.5976 9.21248 15.7752 9.37895 15.9395C9.43065 15.9912 9.48305 16.0407 9.53758 16.0889L9.5999 16.1434C9.70116 16.2305 9.80739 16.3126 9.91715 16.3898C9.97239 16.428 10.0276 16.4655 10.0843 16.5016C10.1126 16.52 10.1409 16.5377 10.1707 16.5547C10.228 16.5894 10.2861 16.6255 10.3449 16.6552C10.3852 16.6772 10.4256 16.6977 10.4667 16.7183L10.4978 16.7338L10.6175 16.7905C10.767 16.8575 10.9202 16.9159 11.0764 16.9653L11.1401 16.9852C11.253 17.0191 11.367 17.0482 11.4822 17.0722L11.565 17.0885L11.6486 17.1034C11.7045 17.1133 11.7605 17.1211 11.8171 17.1282C11.8738 17.1353 11.9212 17.1402 11.9743 17.1452C12.0451 17.1515 12.1103 17.1558 12.1783 17.1586H12.3362C13.2171 17.1586 14.1115 17.1586 14.9769 17.1586H18.0205C18.4971 17.1586 18.9779 17.1586 19.4538 17.1544H19.5381C19.93 17.1608 20.3218 17.1371 20.7101 17.0836C20.7745 17.073 20.8383 17.0616 20.902 17.0475C20.9324 17.0418 20.9629 17.0347 20.9933 17.0276L21.0812 17.0064C21.5634 16.8836 22.0193 16.6742 22.4266 16.3883C22.4514 16.3713 22.4762 16.3536 22.4975 16.3352C22.5187 16.3168 22.5463 16.2991 22.5683 16.2807L22.6391 16.2248L22.7099 16.1667L22.7772 16.1094L22.7814 16.1051L22.8459 16.0471C22.8905 16.006 22.9337 15.9643 22.9769 15.9218C23.0201 15.8793 23.0612 15.8354 23.1015 15.7901C23.1634 15.7235 23.2221 15.6549 23.2778 15.5841L23.3338 15.5133C23.4265 15.3936 23.5121 15.2685 23.5901 15.1388C23.6383 15.0609 23.6829 14.9816 23.724 14.9002C24.0874 14.2004 24.251 13.4141 24.197 12.6276ZM21.0911 16.2021C21.0543 16.2142 21.0203 16.2255 20.9799 16.2361C20.9395 16.2467 20.8992 16.2588 20.8581 16.2687L20.8418 16.2729C20.8 16.2829 20.759 16.2921 20.7165 16.3006C20.674 16.309 20.6265 16.3183 20.5812 16.3253C20.2324 16.3713 19.8806 16.3909 19.5289 16.3841H19.4439C18.6593 16.3898 17.8612 16.3883 17.0886 16.3876H16.156H14.9719C14.1073 16.3876 13.2136 16.3876 12.3348 16.3876H12.247L12.15 16.3834C12.1245 16.3834 12.099 16.3834 12.0735 16.3777C12.0197 16.3742 11.9665 16.3685 11.9134 16.3614C11.8816 16.3614 11.8497 16.3529 11.8178 16.348C11.786 16.343 11.7675 16.3402 11.7428 16.3352C11.7316 16.3338 11.7204 16.3317 11.7095 16.3289C11.6613 16.3211 11.6146 16.3112 11.5679 16.2991C11.5402 16.2935 11.5126 16.2871 11.4857 16.2793C11.3773 16.2518 11.2704 16.2185 11.1656 16.1795C11.1139 16.1604 11.0629 16.1398 11.012 16.1186C10.9822 16.1073 10.9532 16.0938 10.9241 16.0804C10.8951 16.0669 10.8809 16.0613 10.8604 16.0506C10.8172 16.0294 10.774 16.0082 10.7315 15.9855C10.689 15.9628 10.6473 15.9395 10.6062 15.9147C10.5233 15.8659 10.4433 15.8142 10.3647 15.7589C10.275 15.6966 10.1885 15.6297 10.1055 15.5586L10.0234 15.4878L10.005 15.4708C9.97805 15.446 9.95185 15.4205 9.92565 15.3943C9.45252 14.9305 9.12497 14.3388 8.9831 13.6916C8.96539 13.6102 8.95123 13.5267 8.93919 13.4431C8.92021 13.3023 8.91004 13.1605 8.90874 13.0184C8.90389 12.4495 9.03852 11.8882 9.30085 11.3834C9.56318 10.8786 9.94522 10.4458 10.4136 10.1227L10.4915 10.0703C10.5205 10.0519 10.5495 10.0335 10.5793 10.0158C10.609 9.99812 10.6388 9.98042 10.6685 9.96343C10.6982 9.94644 10.7287 9.93016 10.7591 9.91458C10.7896 9.89901 10.8208 9.88272 10.8512 9.86786C10.9008 9.84378 10.9503 9.82113 11.0013 9.79706L11.0778 9.76591C11.1543 9.73546 11.2315 9.70785 11.3108 9.68307C11.3632 9.66679 11.4163 9.65121 11.4694 9.63776C11.5558 9.61511 11.6436 9.59599 11.7321 9.58112C11.7619 9.57546 11.7916 9.57121 11.8221 9.56626L11.8759 9.55918L11.9524 9.54997L12.0182 9.5436L12.1011 9.53723C12.1337 9.53723 12.1662 9.53298 12.1995 9.53227C12.2328 9.53157 12.2625 9.53227 12.2944 9.53227C14.7991 9.51528 17.4172 9.51599 20.0749 9.53227C20.1174 9.53227 20.1591 9.53227 20.2009 9.53581H20.2087C20.2512 9.53581 20.2937 9.54148 20.3362 9.54502L20.453 9.55776H20.475C20.509 9.56201 20.5458 9.56767 20.577 9.57334C20.6216 9.58042 20.6655 9.58891 20.7094 9.59812L20.754 9.60803C20.7795 9.61298 20.805 9.61936 20.8298 9.62573C20.841 9.62781 20.8522 9.63064 20.8631 9.63422C20.8977 9.64272 20.9339 9.65263 20.9671 9.66325C21.0004 9.67387 21.0486 9.68803 21.0889 9.70148L21.1633 9.72768C21.1881 9.73617 21.2122 9.74538 21.2341 9.75529C21.2561 9.7652 21.283 9.7744 21.3049 9.78502C21.3269 9.79564 21.3531 9.80485 21.3758 9.81617C21.4232 9.83671 21.4706 9.85865 21.5174 9.88272C21.5407 9.89405 21.5641 9.90609 21.5882 9.91883L21.6498 9.95281C21.7442 10.0043 21.8349 10.0602 21.9217 10.1206C21.9437 10.1348 21.9649 10.1496 21.9855 10.1659C22.006 10.1822 22.028 10.1957 22.0485 10.2119C22.1731 10.306 22.2914 10.4082 22.4026 10.5178C22.421 10.5348 22.4394 10.5532 22.4578 10.573C22.5286 10.6438 22.5909 10.7146 22.6525 10.7911L22.6823 10.8272L22.7134 10.8675C22.7304 10.8881 22.746 10.9086 22.7609 10.9298C22.7758 10.9511 22.7921 10.9716 22.8062 10.9928C22.8204 11.0141 22.8367 11.0353 22.8508 11.0573C22.865 11.0792 22.8799 11.1004 22.8933 11.1224C22.9365 11.1882 22.9762 11.2555 23.0137 11.3242C23.0158 11.3286 23.0182 11.3328 23.0208 11.3369C23.2478 11.7516 23.3823 12.2105 23.4152 12.6821C23.4223 12.7911 23.4251 12.8994 23.4223 13.007C23.4223 13.0856 23.4166 13.1642 23.4096 13.2421C23.4053 13.2938 23.3996 13.3454 23.3926 13.3964C23.3732 13.5487 23.3431 13.6994 23.3026 13.8474C23.2002 14.2339 23.0305 14.5994 22.8013 14.9271L22.7588 14.9873C22.7304 15.0269 22.7 15.0665 22.6688 15.1048C22.6377 15.143 22.6072 15.1812 22.5747 15.2181L22.5251 15.2733C22.4925 15.3094 22.4585 15.3441 22.4238 15.3802C22.3891 15.4163 22.353 15.451 22.3176 15.4821C22.2822 15.5133 22.2468 15.5529 22.2064 15.5805C22.1505 15.628 22.0924 15.674 22.0322 15.7179C22.0124 15.7328 21.9925 15.7476 21.972 15.7611C21.9319 15.7894 21.8908 15.817 21.8488 15.8439C21.7865 15.8843 21.7227 15.9218 21.6576 15.9579C21.579 16.0004 21.4983 16.0407 21.4154 16.0775C21.3828 16.0924 21.3503 16.1059 21.3177 16.1193L21.237 16.1512L21.1753 16.1738L21.0911 16.2021ZM24.197 12.6276C24.1745 12.3003 24.1115 11.9771 24.0094 11.6654C23.9995 11.6343 23.9888 11.6038 23.9782 11.5734C23.9363 11.4512 23.8879 11.3314 23.833 11.2144C23.7658 11.0686 23.6902 10.9267 23.6064 10.7896L23.5554 10.7082L23.5023 10.6275L23.4478 10.5489C23.4152 10.5022 23.3812 10.4562 23.3465 10.4109C23.3225 10.3797 23.2984 10.3493 23.2757 10.3188L23.2184 10.248L23.1475 10.1645C23.1065 10.1192 23.0647 10.0739 23.0222 10.03C22.9101 9.91543 22.7919 9.80696 22.6681 9.70502C22.6193 9.66396 22.569 9.62431 22.518 9.58608L22.4401 9.52944C22.3884 9.49192 22.336 9.45864 22.2822 9.42041C22.2553 9.40342 22.2284 9.38572 22.2007 9.36944C22.1731 9.35316 22.1519 9.339 22.1299 9.32413L22.0393 9.27103C21.9841 9.23988 21.9274 9.21014 21.87 9.18112C21.8127 9.15209 21.7539 9.12519 21.6951 9.09899C21.6661 9.08554 21.6364 9.0728 21.6066 9.06076L21.5358 9.03244L21.4841 9.01262L21.4246 8.98996L21.334 8.9581C21.2455 8.92766 21.1562 8.90076 21.0656 8.87739L20.9565 8.85049L20.8666 8.83067L20.7781 8.81297H20.7611C20.732 8.8073 20.7037 8.80235 20.6747 8.7981C20.6456 8.79385 20.6173 8.7889 20.5883 8.78536C20.4849 8.7712 20.3808 8.76128 20.2753 8.75562C20.2455 8.75562 20.2151 8.75562 20.1846 8.75137C20.1542 8.74713 20.1188 8.75137 20.0855 8.75137C17.4243 8.73297 14.8027 8.73226 12.2958 8.75137C12.2609 8.75137 12.2262 8.75137 12.1917 8.75137L12.0983 8.75491L11.9602 8.76482C11.9 8.76978 11.8405 8.77686 11.781 8.78465C11.7449 8.7889 11.7102 8.79456 11.6727 8.80022L11.5813 8.8158H11.5778L11.4786 8.83562H11.4673C11.4043 8.84907 11.3427 8.86323 11.2803 8.87952C11.2478 8.88801 11.2152 8.89651 11.1826 8.90642C11.15 8.91633 11.1288 8.922 11.1019 8.93049C11.0644 8.94111 11.0275 8.95315 10.99 8.9666C10.9525 8.98005 10.9142 8.99279 10.8767 9.00695C10.8392 9.02111 10.8059 9.03315 10.7719 9.04731C10.7646 9.04953 10.7575 9.05237 10.7506 9.0558L10.6798 9.08554C10.6572 9.09451 10.6336 9.10442 10.609 9.11527C10.5835 9.12589 10.5587 9.13793 10.5339 9.14997C10.4667 9.18182 10.4008 9.21581 10.335 9.25191L10.325 9.25758C10.2896 9.27669 10.2542 9.29652 10.2202 9.31705L10.1168 9.38006L10.0149 9.4459L9.91503 9.5167C9.88174 9.54006 9.84917 9.56413 9.81659 9.5875L9.72028 9.66254C9.68842 9.68874 9.65726 9.71422 9.6261 9.74113C9.59494 9.76803 9.56378 9.79493 9.53333 9.82255C9.47243 9.87777 9.41295 9.93441 9.35488 9.99388C8.96096 10.392 8.65002 10.8644 8.44009 11.3835C8.23015 11.9027 8.1254 12.4584 8.1319 13.0184C8.14039 13.8778 8.41663 14.7133 8.9222 15.4085C9.05972 15.5976 9.21248 15.7752 9.37895 15.9395C9.43065 15.9912 9.48305 16.0407 9.53758 16.0889L9.5999 16.1434C9.70116 16.2305 9.80739 16.3126 9.91715 16.3898C9.97239 16.428 10.0276 16.4655 10.0843 16.5016C10.1126 16.52 10.1409 16.5377 10.1707 16.5547C10.228 16.5894 10.2861 16.6255 10.3449 16.6552C10.3852 16.6772 10.4256 16.6977 10.4667 16.7183L10.4978 16.7338L10.6175 16.7905C10.767 16.8575 10.9202 16.9159 11.0764 16.9653L11.1401 16.9852C11.253 17.0191 11.367 17.0482 11.4822 17.0722L11.565 17.0885L11.6486 17.1034C11.7045 17.1133 11.7605 17.1211 11.8171 17.1282C11.8738 17.1353 11.9212 17.1402 11.9743 17.1452C12.0451 17.1515 12.1103 17.1558 12.1783 17.1586H12.3362C13.2171 17.1586 14.1115 17.1586 14.9769 17.1586H18.0205C18.4971 17.1586 18.9779 17.1586 19.4538 17.1544H19.5381C19.93 17.1608 20.3218 17.1371 20.7101 17.0836C20.7745 17.073 20.8383 17.0616 20.902 17.0475C20.9324 17.0418 20.9629 17.0347 20.9933 17.0276L21.0812 17.0064C21.5634 16.8836 22.0193 16.6742 22.4266 16.3883C22.4514 16.3713 22.4762 16.3536 22.4975 16.3352C22.5187 16.3168 22.5463 16.2991 22.5683 16.2807L22.6391 16.2248L22.7099 16.1667L22.7772 16.1094L22.7814 16.1051L22.8459 16.0471C22.8905 16.006 22.9337 15.9643 22.9769 15.9218C23.0201 15.8793 23.0612 15.8354 23.1015 15.7901C23.1634 15.7235 23.2221 15.6549 23.2778 15.5841L23.3338 15.5133C23.4265 15.3936 23.5121 15.2685 23.5901 15.1388C23.6383 15.0609 23.6829 14.9816 23.724 14.9002C24.0874 14.2004 24.251 13.4141 24.197 12.6276ZM21.0911 16.2021C21.0543 16.2142 21.0203 16.2255 20.9799 16.2361C20.9395 16.2467 20.8992 16.2588 20.8581 16.2687L20.8418 16.2729C20.8 16.2829 20.759 16.2921 20.7165 16.3006C20.674 16.309 20.6265 16.3183 20.5812 16.3253C20.2324 16.3713 19.8806 16.3909 19.5289 16.3841H19.4439C18.6593 16.3898 17.8612 16.3883 17.0886 16.3876H16.156H14.9719C14.1073 16.3876 13.2136 16.3876 12.3348 16.3876H12.247L12.15 16.3834C12.1245 16.3834 12.099 16.3834 12.0735 16.3777C12.0197 16.3742 11.9665 16.3685 11.9134 16.3614C11.8816 16.3614 11.8497 16.3529 11.8178 16.348C11.786 16.343 11.7675 16.3402 11.7428 16.3352C11.7316 16.3338 11.7204 16.3317 11.7095 16.3289C11.6613 16.3211 11.6146 16.3112 11.5679 16.2991C11.5402 16.2935 11.5126 16.2871 11.4857 16.2793C11.3773 16.2518 11.2704 16.2185 11.1656 16.1795C11.1139 16.1604 11.0629 16.1398 11.012 16.1186C10.9822 16.1073 10.9532 16.0938 10.9241 16.0804C10.8951 16.0669 10.8809 16.0613 10.8604 16.0506C10.8172 16.0294 10.774 16.0082 10.7315 15.9855C10.689 15.9628 10.6473 15.9395 10.6062 15.9147C10.5233 15.8659 10.4433 15.8142 10.3647 15.7589C10.275 15.6966 10.1885 15.6297 10.1055 15.5586L10.0234 15.4878L10.005 15.4708C9.97805 15.446 9.95185 15.4205 9.92565 15.3943C9.45252 14.9305 9.12497 14.3388 8.9831 13.6916C8.96539 13.6102 8.95123 13.5267 8.93919 13.4431C8.92021 13.3023 8.91004 13.1605 8.90874 13.0184C8.90389 12.4495 9.03852 11.8882 9.30085 11.3834C9.56318 10.8786 9.94522 10.4458 10.4136 10.1227L10.4915 10.0703C10.5205 10.0519 10.5495 10.0335 10.5793 10.0158C10.609 9.99812 10.6388 9.98042 10.6685 9.96343C10.6982 9.94644 10.7287 9.93016 10.7591 9.91458C10.7896 9.89901 10.8208 9.88272 10.8512 9.86786C10.9008 9.84378 10.9503 9.82113 11.0013 9.79706L11.0778 9.76591C11.1543 9.73546 11.2315 9.70785 11.3108 9.68307C11.3632 9.66679 11.4163 9.65121 11.4694 9.63776C11.5558 9.61511 11.6436 9.59599 11.7321 9.58112C11.7619 9.57546 11.7916 9.57121 11.8221 9.56626L11.8759 9.55918L11.9524 9.54997L12.0182 9.5436L12.1011 9.53723C12.1337 9.53723 12.1662 9.53298 12.1995 9.53227C12.2328 9.53157 12.2625 9.53227 12.2944 9.53227C14.7991 9.51528 17.4172 9.51599 20.0749 9.53227C20.1174 9.53227 20.1591 9.53227 20.2009 9.53581H20.2087C20.2512 9.53581 20.2937 9.54148 20.3362 9.54502L20.453 9.55776H20.475C20.509 9.56201 20.5458 9.56767 20.577 9.57334C20.6216 9.58042 20.6655 9.58891 20.7094 9.59812L20.754 9.60803C20.7795 9.61298 20.805 9.61936 20.8298 9.62573C20.841 9.62781 20.8522 9.63064 20.8631 9.63422C20.8977 9.64272 20.9339 9.65263 20.9671 9.66325C21.0004 9.67387 21.0486 9.68803 21.0889 9.70148L21.1633 9.72768C21.1881 9.73617 21.2122 9.74538 21.2341 9.75529C21.2561 9.7652 21.283 9.7744 21.3049 9.78502C21.3269 9.79564 21.3531 9.80485 21.3758 9.81617C21.4232 9.83671 21.4706 9.85865 21.5174 9.88272C21.5407 9.89405 21.5641 9.90609 21.5882 9.91883L21.6498 9.95281C21.7442 10.0043 21.8349 10.0602 21.9217 10.1206C21.9437 10.1348 21.9649 10.1496 21.9855 10.1659C22.006 10.1822 22.028 10.1957 22.0485 10.2119C22.1731 10.306 22.2914 10.4082 22.4026 10.5178C22.421 10.5348 22.4394 10.5532 22.4578 10.573C22.5286 10.6438 22.5909 10.7146 22.6525 10.7911L22.6823 10.8272L22.7134 10.8675C22.7304 10.8881 22.746 10.9086 22.7609 10.9298C22.7758 10.9511 22.7921 10.9716 22.8062 10.9928C22.8204 11.0141 22.8367 11.0353 22.8508 11.0573C22.865 11.0792 22.8799 11.1004 22.8933 11.1224C22.9365 11.1882 22.9762 11.2555 23.0137 11.3242C23.0158 11.3286 23.0182 11.3328 23.0208 11.3369C23.2478 11.7516 23.3823 12.2105 23.4152 12.6821C23.4223 12.7911 23.4251 12.8994 23.4223 13.007C23.4223 13.0856 23.4166 13.1642 23.4096 13.2421C23.4053 13.2938 23.3996 13.3454 23.3926 13.3964C23.3732 13.5487 23.3431 13.6994 23.3026 13.8474C23.2002 14.2339 23.0305 14.5994 22.8013 14.9271L22.7588 14.9873C22.7304 15.0269 22.7 15.0665 22.6688 15.1048C22.6377 15.143 22.6072 15.1812 22.5747 15.2181L22.5251 15.2733C22.4925 15.3094 22.4585 15.3441 22.4238 15.3802C22.3891 15.4163 22.353 15.451 22.3176 15.4821C22.2822 15.5133 22.2468 15.5529 22.2064 15.5805C22.1505 15.628 22.0924 15.674 22.0322 15.7179C22.0124 15.7328 21.9925 15.7476 21.972 15.7611C21.9319 15.7894 21.8908 15.817 21.8488 15.8439C21.7865 15.8843 21.7227 15.9218 21.6576 15.9579C21.579 16.0004 21.4983 16.0407 21.4154 16.0775C21.3828 16.0924 21.3503 16.1059 21.3177 16.1193L21.237 16.1512L21.1753 16.1738L21.0911 16.2021ZM26.7563 6.68478C26.7563 6.22035 26.7563 5.73751 26.7563 5.22705C26.7563 4.88156 26.7563 4.52332 26.7563 4.15022C26.7563 3.82597 26.7563 3.49038 26.7563 3.14135C26.7563 2.43337 26.3066 2.16576 25.886 2.15018C25.7696 2.14321 25.6531 2.16009 25.5435 2.19977C25.4339 2.23946 25.3335 2.30113 25.2486 2.38098C25.1874 2.44022 25.1355 2.50851 25.095 2.58346C25.0449 2.62952 25.0086 2.68859 24.9902 2.75409C24.9768 2.79566 24.9685 2.83868 24.9654 2.88223V2.92188C24.9654 2.92966 24.9654 2.93816 24.9654 2.94666V3.37144C24.9654 3.38135 24.9654 3.39197 24.9654 3.40189V5.69361C23.8458 4.40226 22.3934 3.48968 20.6301 2.97285C18.1515 2.24717 15.513 2.15514 12.7859 2.69957C10.6069 3.13427 8.9222 4.03482 7.64186 5.45078C7.54838 5.55414 7.45916 5.66317 7.37205 5.76795V3.33958C7.37205 3.31056 7.37205 3.28153 7.37205 3.2525C7.37205 3.17179 7.37205 3.08825 7.37205 3.00046C7.36632 2.85724 7.32908 2.71704 7.263 2.58983C7.12986 2.34204 6.88343 2.18629 6.55485 2.15443C6.32357 2.13372 6.09336 2.20425 5.9134 2.35096C5.73344 2.49767 5.61801 2.70892 5.59176 2.93958C5.58063 3.03591 5.57732 3.13298 5.58185 3.22985C5.58185 3.25604 5.58185 3.28224 5.58185 3.30914V3.8557C5.58185 4.2196 5.58185 4.56793 5.58185 4.9028C5.58185 5.61857 5.58185 6.27345 5.58185 6.89434C5.58185 9.52236 5.58184 11.5982 5.57264 15.0899C5.57264 16.0811 5.87077 16.9639 6.49324 17.7802C7.25025 18.7714 8.29194 19.4914 9.77127 20.0401C11.1508 20.5527 12.6931 20.8401 14.6249 20.9456C15.2184 20.9782 15.787 20.9944 16.3358 20.9944C18.1013 20.9944 19.6549 20.8252 21.1314 20.4762C22.9868 20.0373 24.3316 19.3555 25.3626 18.331C26.2889 17.4107 26.7407 16.4818 26.7457 15.4913C26.7627 11.7766 26.7612 9.64059 26.7584 6.68478H26.7563ZM25.9773 6.68478C25.9773 9.63918 25.9816 11.7744 25.9653 15.4878C25.9617 16.2722 25.5949 17 24.8124 17.7788C23.8876 18.6992 22.6603 19.3137 20.9509 19.718C19.0898 20.1583 17.0928 20.3013 14.666 20.1682C12.8142 20.067 11.3448 19.7944 10.0411 19.3102C8.7055 18.8146 7.77499 18.1774 7.11074 17.308C6.61214 16.6776 6.34426 15.8957 6.35161 15.092C6.36364 11.5996 6.36223 9.52307 6.36081 6.89434C6.36081 6.08017 6.36081 5.20794 6.36081 4.21748V3.30914C6.36081 3.28082 6.36081 3.25392 6.36081 3.22631V3.21286C6.35742 3.15603 6.35742 3.09906 6.36081 3.04223C6.3686 2.98418 6.4033 2.92825 6.46491 2.92825H6.47482C6.586 2.93958 6.58671 2.95728 6.59096 3.04152C6.59096 3.04506 6.59096 3.0486 6.59096 3.05214C6.59096 3.11161 6.59096 3.17604 6.59096 3.2433C6.59096 3.27516 6.59096 3.30702 6.59096 3.33888V8.04269L7.28707 7.15488C7.39967 7.01328 7.50589 6.87169 7.60857 6.73505C7.81394 6.46319 8.00868 6.20548 8.21759 5.97468C9.38391 4.68545 10.927 3.86349 12.936 3.46277C15.5392 2.94382 18.0531 3.0302 20.4084 3.71977C22.4224 4.30951 23.9322 5.40476 25.0241 7.06851L25.7394 8.15738V3.38348C25.739 3.37758 25.739 3.37167 25.7394 3.36578V3.15339C25.7394 3.02099 25.7691 2.95727 25.7847 2.94099C25.8067 2.93046 25.8313 2.92629 25.8555 2.92896C25.9263 2.92896 25.9709 2.9325 25.9709 3.14135V3.48401C25.9709 3.838 25.9709 4.17358 25.9709 4.49996C25.978 5.28723 25.9787 6.00583 25.9794 6.68549L25.9773 6.68478ZM24.0072 11.6647C23.9973 11.6336 23.9867 11.6031 23.9761 11.5727C23.9342 11.4505 23.8857 11.3307 23.8309 11.2137C23.7637 11.0678 23.688 10.926 23.6043 10.7889L23.5533 10.7075L23.5002 10.6268L23.4457 10.5482C23.4131 10.5015 23.3791 10.4555 23.3444 10.4102C23.3203 10.379 23.2963 10.3486 23.2736 10.3181L23.2162 10.2473L23.1454 10.1638C23.1043 10.1185 23.0626 10.0732 23.0201 10.0293C22.9079 9.91472 22.7897 9.80625 22.666 9.70431C22.6171 9.66325 22.5669 9.6236 22.5159 9.58537L22.438 9.52873C22.3863 9.49121 22.3339 9.45794 22.2801 9.4197C22.2532 9.40271 22.2262 9.38501 22.1986 9.36873C22.171 9.35245 22.1498 9.33829 22.1278 9.32342L22.0372 9.27032C21.9819 9.23917 21.9253 9.20943 21.8679 9.18041C21.8106 9.15138 21.7518 9.12448 21.693 9.09828C21.664 9.08483 21.6342 9.07209 21.6045 9.06005L21.5337 9.03173L21.482 9.01191L21.4225 8.98925L21.3318 8.95739C21.2433 8.92695 21.1541 8.90005 21.0635 8.87669L20.9544 8.84978L20.8645 8.82996L20.7759 8.81226H20.759C20.7299 8.8066 20.7016 8.80164 20.6726 8.79739C20.6435 8.79314 20.6152 8.78819 20.5862 8.78465C20.4828 8.77049 20.3787 8.76058 20.2732 8.75491C20.2434 8.75491 20.213 8.75491 20.1825 8.75067C20.1521 8.74642 20.1167 8.75067 20.0834 8.75067C17.4221 8.73226 14.8006 8.73155 12.2937 8.75067C12.2588 8.75067 12.2241 8.75067 12.1896 8.75067L12.0961 8.75421L11.958 8.76412C11.8978 8.76907 11.8384 8.77615 11.7789 8.78394C11.7428 8.78819 11.7081 8.79385 11.6705 8.79952L11.5792 8.81509H11.5756L11.4765 8.83491H11.4652C11.4021 8.84837 11.3405 8.86253 11.2782 8.87881C11.2456 8.88731 11.2131 8.8958 11.1805 8.90571C11.1479 8.91562 11.1267 8.92129 11.0998 8.92978C11.0622 8.9404 11.0254 8.95244 10.9879 8.96589C10.9503 8.97934 10.9121 8.99209 10.8746 9.00625C10.837 9.0204 10.8038 9.03244 10.7698 9.0466C10.7625 9.04882 10.7553 9.05166 10.7485 9.0551L10.6777 9.08483C10.655 9.0938 10.6314 9.10371 10.6069 9.11457C10.5814 9.12519 10.5566 9.13722 10.5318 9.14926C10.4646 9.18112 10.3987 9.2151 10.3328 9.25121L10.3229 9.25687C10.2875 9.27598 10.2521 9.29581 10.2181 9.31634L10.1147 9.37935L10.0127 9.44519L9.9129 9.51599C9.87962 9.53935 9.84704 9.56342 9.81447 9.58679L9.71816 9.66183C9.68629 9.68803 9.65513 9.71352 9.62397 9.74042C9.59282 9.76732 9.56166 9.79423 9.53121 9.82184C9.47031 9.87706 9.41082 9.9337 9.35275 9.99317C8.95884 10.3913 8.6479 10.8636 8.43796 11.3828C8.22802 11.902 8.12327 12.4577 8.12978 13.0177C8.13873 13.8776 8.41573 14.7134 8.9222 15.4085C9.05972 15.5976 9.21248 15.7752 9.37895 15.9395C9.43065 15.9912 9.48305 16.0407 9.53758 16.0889L9.5999 16.1434C9.70116 16.2305 9.80739 16.3126 9.91715 16.3898C9.97239 16.428 10.0276 16.4655 10.0843 16.5016C10.1126 16.52 10.1409 16.5377 10.1707 16.5547C10.228 16.5894 10.2861 16.6255 10.3449 16.6552C10.3852 16.6772 10.4256 16.6977 10.4667 16.7183L10.4978 16.7338L10.6175 16.7905C10.767 16.8575 10.9202 16.9159 11.0764 16.9653L11.1401 16.9852C11.253 17.0191 11.367 17.0482 11.4822 17.0722L11.565 17.0885L11.6486 17.1034C11.7045 17.1133 11.7605 17.1211 11.8171 17.1282C11.8738 17.1353 11.9212 17.1402 11.9743 17.1452C12.0451 17.1515 12.1103 17.1558 12.1783 17.1586H12.3362C13.2171 17.1586 14.1115 17.1586 14.9769 17.1586H18.0205C18.4971 17.1586 18.9779 17.1586 19.4538 17.1544H19.5381C19.93 17.1608 20.3218 17.1371 20.7101 17.0836C20.7745 17.073 20.8383 17.0616 20.902 17.0475C20.9324 17.0418 20.9629 17.0347 20.9933 17.0276L21.0812 17.0064C21.5634 16.8836 22.0193 16.6742 22.4266 16.3883C22.4514 16.3713 22.4762 16.3536 22.4975 16.3352C22.5187 16.3168 22.5463 16.2991 22.5683 16.2807L22.6391 16.2248L22.7099 16.1667L22.7772 16.1094L22.7814 16.1051L22.8459 16.0471C22.8905 16.006 22.9337 15.9643 22.9769 15.9218C23.0201 15.8793 23.0612 15.8354 23.1015 15.7901C23.1634 15.7235 23.2221 15.6549 23.2778 15.5841L23.3338 15.5133C23.4265 15.3936 23.5121 15.2685 23.5901 15.1388C23.6383 15.0609 23.6829 14.9816 23.724 14.9002C24.0892 14.1975 24.2529 13.4075 24.197 12.6176C24.1737 12.2937 24.1107 11.9739 24.0094 11.6654L24.0072 11.6647ZM21.0889 16.2014C21.0521 16.2135 21.0181 16.2248 20.9778 16.2354C20.9374 16.246 20.897 16.2581 20.856 16.268L20.8397 16.2722C20.7979 16.2821 20.7568 16.2913 20.7143 16.2998C20.6718 16.3083 20.6244 16.3175 20.5791 16.3246C20.2303 16.3706 19.8785 16.3902 19.5268 16.3834H19.4418C18.6572 16.389 17.8591 16.3876 17.0865 16.3869L14.9719 16.3876C14.1073 16.3876 13.2136 16.3876 12.3348 16.3876H12.247L12.15 16.3834C12.1245 16.3834 12.099 16.3834 12.0735 16.3777C12.0197 16.3742 11.9665 16.3685 11.9134 16.3614C11.8816 16.3614 11.8497 16.3529 11.8178 16.348C11.786 16.343 11.7675 16.3402 11.7428 16.3352C11.7316 16.3338 11.7204 16.3317 11.7095 16.3289C11.6613 16.3211 11.6146 16.3112 11.5679 16.2991C11.5402 16.2935 11.5126 16.2871 11.4857 16.2793C11.3773 16.2518 11.2704 16.2185 11.1656 16.1795C11.1139 16.1604 11.0629 16.1398 11.012 16.1186C10.9822 16.1073 10.9532 16.0938 10.9241 16.0804C10.8951 16.0669 10.8809 16.0613 10.8604 16.0506C10.8172 16.0294 10.774 16.0082 10.7315 15.9855C10.689 15.9628 10.6473 15.9395 10.6062 15.9147C10.5233 15.8659 10.4433 15.8142 10.3647 15.7589C10.275 15.6966 10.1885 15.6297 10.1055 15.5586L10.0234 15.4878L10.005 15.4708C9.97805 15.446 9.95185 15.4205 9.92565 15.3943C9.45252 14.9305 9.12497 14.3388 8.9831 13.6916C8.96539 13.6102 8.95123 13.5267 8.93919 13.4431C8.92021 13.3023 8.91004 13.1605 8.90874 13.0184C8.90389 12.4495 9.03852 11.8882 9.30085 11.3834C9.56318 10.8786 9.94522 10.4458 10.4136 10.1227L10.4915 10.0703C10.5205 10.0519 10.5495 10.0335 10.5793 10.0158C10.609 9.99812 10.6388 9.98042 10.6685 9.96343C10.6982 9.94644 10.7287 9.93016 10.7591 9.91458C10.7896 9.89901 10.8208 9.88272 10.8512 9.86786C10.9008 9.84378 10.9503 9.82113 11.0013 9.79706L11.0778 9.76591C11.1543 9.73546 11.2315 9.70785 11.3108 9.68307C11.3632 9.66679 11.4163 9.65121 11.4694 9.63776C11.5558 9.61511 11.6436 9.59599 11.7321 9.58112C11.7619 9.57546 11.7916 9.57121 11.8221 9.56626L11.8759 9.55918L11.9524 9.54997L12.0182 9.5436L12.1011 9.53723C12.1337 9.53723 12.1662 9.53298 12.1995 9.53227C12.2328 9.53157 12.2625 9.53227 12.2944 9.53227C14.7991 9.51528 17.4172 9.51599 20.0749 9.53227C20.1174 9.53227 20.1591 9.53227 20.2009 9.53581H20.2087C20.2512 9.53581 20.2937 9.54148 20.3362 9.54502L20.453 9.55776H20.475C20.509 9.56201 20.5458 9.56767 20.577 9.57334C20.6216 9.58042 20.6655 9.58891 20.7094 9.59812L20.754 9.60803C20.7795 9.61298 20.805 9.61936 20.8298 9.62573C20.841 9.62781 20.8522 9.63064 20.8631 9.63422C20.8977 9.64272 20.9339 9.65263 20.9671 9.66325C21.0004 9.67387 21.0486 9.68803 21.0889 9.70148L21.1633 9.72768C21.1881 9.73617 21.2122 9.74538 21.2341 9.75529C21.2561 9.7652 21.283 9.7744 21.3049 9.78502C21.3269 9.79564 21.3531 9.80485 21.3758 9.81617C21.4232 9.83671 21.4706 9.85865 21.5174 9.88272C21.5407 9.89405 21.5641 9.90609 21.5882 9.91883L21.6498 9.95281C21.7442 10.0043 21.8349 10.0602 21.9217 10.1206C21.9437 10.1348 21.9649 10.1496 21.9855 10.1659C22.006 10.1822 22.028 10.1957 22.0485 10.2119C22.1731 10.306 22.2914 10.4082 22.4026 10.5178C22.421 10.5348 22.4394 10.5532 22.4578 10.573C22.5286 10.6438 22.5909 10.7146 22.6525 10.7911L22.6823 10.8272L22.7134 10.8675C22.7304 10.8881 22.746 10.9086 22.7609 10.9298C22.7758 10.9511 22.7921 10.9716 22.8062 10.9928C22.8204 11.0141 22.8367 11.0353 22.8508 11.0573C22.865 11.0792 22.8799 11.1004 22.8933 11.1224C22.9365 11.1882 22.9762 11.2555 23.0137 11.3242C23.0158 11.3286 23.0182 11.3328 23.0208 11.3369C23.2478 11.7516 23.3823 12.2105 23.4152 12.6821C23.4223 12.7911 23.4251 12.8994 23.4223 13.007C23.4223 13.0856 23.4166 13.1642 23.4096 13.2421C23.4053 13.2938 23.3996 13.3454 23.3926 13.3964C23.3732 13.5487 23.3431 13.6994 23.3026 13.8474C23.2002 14.2339 23.0305 14.5994 22.8013 14.9271L22.7588 14.9873C22.7304 15.0269 22.7 15.0665 22.6688 15.1048C22.6377 15.143 22.6072 15.1812 22.5747 15.2181L22.5251 15.2733C22.4925 15.3094 22.4585 15.3441 22.4238 15.3802C22.3891 15.4163 22.353 15.451 22.3176 15.4821C22.2822 15.5133 22.2468 15.5529 22.2064 15.5805C22.1505 15.628 22.0924 15.674 22.0322 15.7179C22.0124 15.7328 21.9925 15.7476 21.972 15.7611C21.9319 15.7894 21.8908 15.817 21.8488 15.8439C21.7865 15.8843 21.7227 15.9218 21.6576 15.9579C21.579 16.0004 21.4983 16.0407 21.4154 16.0775C21.3828 16.0924 21.3503 16.1059 21.3177 16.1193L21.237 16.1512L21.1753 16.1738L21.0889 16.2014ZM24.1949 12.6268C24.1724 12.2996 24.1094 11.9764 24.0072 11.6647C23.9973 11.6336 23.9867 11.6031 23.9761 11.5727C23.9342 11.4505 23.8857 11.3307 23.8309 11.2137C23.7637 11.0678 23.688 10.926 23.6043 10.7889L23.5533 10.7075L23.5002 10.6268L23.4457 10.5482C23.4131 10.5015 23.3791 10.4555 23.3444 10.4102C23.3203 10.379 23.2963 10.3486 23.2736 10.3181L23.2162 10.2473L23.1454 10.1638C23.1043 10.1185 23.0626 10.0732 23.0201 10.0293C22.9079 9.91472 22.7897 9.80625 22.666 9.70431C22.6171 9.66325 22.5669 9.6236 22.5159 9.58537L22.438 9.52873C22.3863 9.49121 22.3339 9.45794 22.2801 9.4197C22.2532 9.40271 22.2262 9.38501 22.1986 9.36873C22.171 9.35245 22.1498 9.33829 22.1278 9.32342L22.0372 9.27032C21.9819 9.23917 21.9253 9.20943 21.8679 9.18041C21.8106 9.15138 21.7518 9.12448 21.693 9.09828C21.664 9.08483 21.6342 9.07209 21.6045 9.06005L21.5337 9.03173L21.482 9.01191L21.4225 8.98925L21.3318 8.95739C21.2433 8.92695 21.1541 8.90005 21.0635 8.87669L20.9544 8.84978L20.8645 8.82996L20.7759 8.81226H20.759C20.7299 8.8066 20.7016 8.80164 20.6726 8.79739C20.6435 8.79314 20.6152 8.78819 20.5862 8.78465C20.4828 8.77049 20.3787 8.76058 20.2732 8.75491C20.2434 8.75491 20.213 8.75491 20.1825 8.75067C20.1521 8.74642 20.1167 8.75067 20.0834 8.75067C17.4221 8.73226 14.8006 8.73155 12.2937 8.75067C12.2588 8.75067 12.2241 8.75067 12.1896 8.75067L12.0961 8.75421L11.958 8.76412C11.8978 8.76907 11.8384 8.77615 11.7789 8.78394C11.7428 8.78819 11.7081 8.79385 11.6705 8.79952L11.5792 8.81509H11.5756L11.4765 8.83491H11.4652C11.4021 8.84837 11.3405 8.86253 11.2782 8.87881C11.2456 8.88731 11.2131 8.8958 11.1805 8.90571C11.1479 8.91562 11.1267 8.92129 11.0998 8.92978C11.0622 8.9404 11.0254 8.95244 10.9879 8.96589C10.9503 8.97934 10.9121 8.99209 10.8746 9.00625C10.837 9.0204 10.8038 9.03244 10.7698 9.0466C10.7625 9.04882 10.7553 9.05166 10.7485 9.0551L10.6777 9.08483C10.655 9.0938 10.6314 9.10371 10.6069 9.11457C10.5814 9.12519 10.5566 9.13722 10.5318 9.14926C10.4646 9.18112 10.3987 9.2151 10.3328 9.25121L10.3229 9.25687C10.2875 9.27598 10.2521 9.29581 10.2181 9.31634L10.1147 9.37935L10.0127 9.44519L9.9129 9.51599C9.87962 9.53935 9.84704 9.56342 9.81447 9.58679L9.71816 9.66183C9.68629 9.68803 9.65513 9.71352 9.62397 9.74042C9.59282 9.76732 9.56166 9.79423 9.53121 9.82184C9.47031 9.87706 9.41082 9.9337 9.35275 9.99317C8.95884 10.3913 8.6479 10.8636 8.43796 11.3828C8.22802 11.902 8.12327 12.4577 8.12978 13.0177C8.13873 13.8776 8.41573 14.7134 8.9222 15.4085C9.05972 15.5976 9.21248 15.7752 9.37895 15.9395C9.43065 15.9912 9.48305 16.0407 9.53758 16.0889L9.5999 16.1434C9.70116 16.2305 9.80739 16.3126 9.91715 16.3898C9.97239 16.428 10.0276 16.4655 10.0843 16.5016C10.1126 16.52 10.1409 16.5377 10.1707 16.5547C10.228 16.5894 10.2861 16.6255 10.3449 16.6552C10.3852 16.6772 10.4256 16.6977 10.4667 16.7183L10.4978 16.7338L10.6175 16.7905C10.767 16.8575 10.9202 16.9159 11.0764 16.9653L11.1401 16.9852C11.253 17.0191 11.367 17.0482 11.4822 17.0722L11.565 17.0885L11.6486 17.1034C11.7045 17.1133 11.7605 17.1211 11.8171 17.1282C11.8738 17.1353 11.9212 17.1402 11.9743 17.1452C12.0451 17.1515 12.1103 17.1558 12.1783 17.1586H12.3362C13.2171 17.1586 14.1115 17.1586 14.9769 17.1586H18.0205C18.4971 17.1586 18.9779 17.1586 19.4538 17.1544H19.5381C19.93 17.1608 20.3218 17.1371 20.7101 17.0836C20.7745 17.073 20.8383 17.0616 20.902 17.0475C20.9324 17.0418 20.9629 17.0347 20.9933 17.0276L21.0812 17.0064C21.5634 16.8836 22.0193 16.6742 22.4266 16.3883C22.4514 16.3713 22.4762 16.3536 22.4975 16.3352C22.5187 16.3168 22.5463 16.2991 22.5683 16.2807L22.6391 16.2248L22.7099 16.1667L22.7772 16.1094L22.7814 16.1051L22.8459 16.0471C22.8905 16.006 22.9337 15.9643 22.9769 15.9218C23.0201 15.8793 23.0612 15.8354 23.1015 15.7901C23.1634 15.7235 23.2221 15.6549 23.2778 15.5841L23.3338 15.5133C23.4265 15.3936 23.5121 15.2685 23.5901 15.1388C23.6383 15.0609 23.6829 14.9816 23.724 14.9002C24.0874 14.2004 24.251 13.4141 24.197 12.6276L24.1949 12.6268ZM21.0889 16.2014C21.0521 16.2135 21.0181 16.2248 20.9778 16.2354C20.9374 16.246 20.897 16.2581 20.856 16.268L20.8397 16.2722C20.7979 16.2821 20.7568 16.2913 20.7143 16.2998C20.6718 16.3083 20.6244 16.3175 20.5791 16.3246C20.2303 16.3706 19.8785 16.3902 19.5268 16.3834H19.4418C18.6572 16.389 17.8591 16.3876 17.0865 16.3869L14.9719 16.3876C14.1073 16.3876 13.2136 16.3876 12.3348 16.3876H12.247L12.15 16.3834C12.1245 16.3834 12.099 16.3834 12.0735 16.3777C12.0197 16.3742 11.9665 16.3685 11.9134 16.3614C11.8816 16.3614 11.8497 16.3529 11.8178 16.348C11.786 16.343 11.7675 16.3402 11.7428 16.3352C11.7316 16.3338 11.7204 16.3317 11.7095 16.3289C11.6613 16.3211 11.6146 16.3112 11.5679 16.2991C11.5402 16.2935 11.5126 16.2871 11.4857 16.2793C11.3773 16.2518 11.2704 16.2185 11.1656 16.1795C11.1139 16.1604 11.0629 16.1398 11.012 16.1186C10.9822 16.1073 10.9532 16.0938 10.9241 16.0804C10.8951 16.0669 10.8809 16.0613 10.8604 16.0506C10.8172 16.0294 10.774 16.0082 10.7315 15.9855C10.689 15.9628 10.6473 15.9395 10.6062 15.9147C10.5233 15.8659 10.4433 15.8142 10.3647 15.7589C10.275 15.6966 10.1885 15.6297 10.1055 15.5586L10.0234 15.4878L10.005 15.4708C9.97805 15.446 9.95185 15.4205 9.92565 15.3943C9.45252 14.9305 9.12497 14.3388 8.9831 13.6916C8.96539 13.6102 8.95123 13.5267 8.93919 13.4431C8.92021 13.3023 8.91004 13.1605 8.90874 13.0184C8.90389 12.4495 9.03852 11.8882 9.30085 11.3834C9.56318 10.8786 9.94522 10.4458 10.4136 10.1227L10.4915 10.0703C10.5205 10.0519 10.5495 10.0335 10.5793 10.0158C10.609 9.99812 10.6388 9.98042 10.6685 9.96343C10.6982 9.94644 10.7287 9.93016 10.7591 9.91458C10.7896 9.89901 10.8208 9.88272 10.8512 9.86786C10.9008 9.84378 10.9503 9.82113 11.0013 9.79706L11.0778 9.76591C11.1543 9.73546 11.2315 9.70785 11.3108 9.68307C11.3632 9.66679 11.4163 9.65121 11.4694 9.63776C11.5558 9.61511 11.6436 9.59599 11.7321 9.58112C11.7619 9.57546 11.7916 9.57121 11.8221 9.56626L11.8759 9.55918L11.9524 9.54997L12.0182 9.5436L12.1011 9.53723C12.1337 9.53723 12.1662 9.53298 12.1995 9.53227C12.2328 9.53157 12.2625 9.53227 12.2944 9.53227C14.7991 9.51528 17.4172 9.51599 20.0749 9.53227C20.1174 9.53227 20.1591 9.53227 20.2009 9.53581H20.2087C20.2512 9.53581 20.2937 9.54148 20.3362 9.54502L20.453 9.55776H20.475C20.509 9.56201 20.5458 9.56767 20.577 9.57334C20.6216 9.58042 20.6655 9.58891 20.7094 9.59812L20.754 9.60803C20.7795 9.61298 20.805 9.61936 20.8298 9.62573C20.841 9.62781 20.8522 9.63064 20.8631 9.63422C20.8977 9.64272 20.9339 9.65263 20.9671 9.66325C21.0004 9.67387 21.0486 9.68803 21.0889 9.70148L21.1633 9.72768C21.1881 9.73617 21.2122 9.74538 21.2341 9.75529C21.2561 9.7652 21.283 9.7744 21.3049 9.78502C21.3269 9.79564 21.3531 9.80485 21.3758 9.81617C21.4232 9.83671 21.4706 9.85865 21.5174 9.88272C21.5407 9.89405 21.5641 9.90609 21.5882 9.91883L21.6498 9.95281C21.7442 10.0043 21.8349 10.0602 21.9217 10.1206C21.9437 10.1348 21.9649 10.1496 21.9855 10.1659C22.006 10.1822 22.028 10.1957 22.0485 10.2119C22.1731 10.306 22.2914 10.4082 22.4026 10.5178C22.421 10.5348 22.4394 10.5532 22.4578 10.573C22.5286 10.6438 22.5909 10.7146 22.6525 10.7911L22.6823 10.8272L22.7134 10.8675C22.7304 10.8881 22.746 10.9086 22.7609 10.9298C22.7758 10.9511 22.7921 10.9716 22.8062 10.9928C22.8204 11.0141 22.8367 11.0353 22.8508 11.0573C22.865 11.0792 22.8799 11.1004 22.8933 11.1224C22.9365 11.1882 22.9762 11.2555 23.0137 11.3242C23.0158 11.3286 23.0182 11.3328 23.0208 11.3369C23.2478 11.7516 23.3823 12.2105 23.4152 12.6821C23.4223 12.7911 23.4251 12.8994 23.4223 13.007C23.4223 13.0856 23.4166 13.1642 23.4096 13.2421C23.4053 13.2938 23.3996 13.3454 23.3926 13.3964C23.3732 13.5487 23.3431 13.6994 23.3026 13.8474C23.2002 14.2339 23.0305 14.5994 22.8013 14.9271L22.7588 14.9873C22.7304 15.0269 22.7 15.0665 22.6688 15.1048C22.6377 15.143 22.6072 15.1812 22.5747 15.2181L22.5251 15.2733C22.4925 15.3094 22.4585 15.3441 22.4238 15.3802C22.3891 15.4163 22.353 15.451 22.3176 15.4821C22.2822 15.5133 22.2468 15.5529 22.2064 15.5805C22.1505 15.628 22.0924 15.674 22.0322 15.7179C22.0124 15.7328 21.9925 15.7476 21.972 15.7611C21.9319 15.7894 21.8908 15.817 21.8488 15.8439C21.7865 15.8843 21.7227 15.9218 21.6576 15.9579C21.579 16.0004 21.4983 16.0407 21.4154 16.0775C21.3828 16.0924 21.3503 16.1059 21.3177 16.1193L21.237 16.1512L21.1753 16.1738L21.0889 16.2014ZM24.1949 12.6268C24.1724 12.2996 24.1094 11.9764 24.0072 11.6647C23.9973 11.6336 23.9867 11.6031 23.9761 11.5727C23.9342 11.4505 23.8857 11.3307 23.8309 11.2137C23.7637 11.0678 23.688 10.926 23.6043 10.7889L23.5533 10.7075L23.5002 10.6268L23.4457 10.5482C23.4131 10.5015 23.3791 10.4555 23.3444 10.4102C23.3203 10.379 23.2963 10.3486 23.2736 10.3181L23.2162 10.2473L23.1454 10.1638C23.1043 10.1185 23.0626 10.0732 23.0201 10.0293C22.9079 9.91472 22.7897 9.80625 22.666 9.70431C22.6171 9.66325 22.5669 9.6236 22.5159 9.58537L22.438 9.52873C22.3863 9.49121 22.3339 9.45794 22.2801 9.4197C22.2532 9.40271 22.2262 9.38501 22.1986 9.36873C22.171 9.35245 22.1498 9.33829 22.1278 9.32342L22.0372 9.27032C21.9819 9.23917 21.9253 9.20943 21.8679 9.18041C21.8106 9.15138 21.7518 9.12448 21.693 9.09828C21.664 9.08483 21.6342 9.07209 21.6045 9.06005L21.5337 9.03173L21.482 9.01191L21.4225 8.98925L21.3318 8.95739C21.2433 8.92695 21.1541 8.90005 21.0635 8.87669L20.9544 8.84978L20.8645 8.82996L20.7759 8.81226H20.759C20.7299 8.8066 20.7016 8.80164 20.6726 8.79739C20.6435 8.79314 20.6152 8.78819 20.5862 8.78465C20.4828 8.77049 20.3787 8.76058 20.2732 8.75491C20.2434 8.75491 20.213 8.75491 20.1825 8.75067C20.1521 8.74642 20.1167 8.75067 20.0834 8.75067C17.4221 8.73226 14.8006 8.73155 12.2937 8.75067C12.2588 8.75067 12.2241 8.75067 12.1896 8.75067L12.0961 8.75421L11.958 8.76412C11.8978 8.76907 11.8384 8.77615 11.7789 8.78394C11.7428 8.78819 11.7081 8.79385 11.6705 8.79952L11.5792 8.81509H11.5756L11.4765 8.83491H11.4652C11.4021 8.84837 11.3405 8.86253 11.2782 8.87881C11.2456 8.88731 11.2131 8.8958 11.1805 8.90571C11.1479 8.91562 11.1267 8.92129 11.0998 8.92978C11.0622 8.9404 11.0254 8.95244 10.9879 8.96589C10.9503 8.97934 10.9121 8.99209 10.8746 9.00625C10.837 9.0204 10.8038 9.03244 10.7698 9.0466C10.7625 9.04882 10.7553 9.05166 10.7485 9.0551L10.6777 9.08483C10.655 9.0938 10.6314 9.10371 10.6069 9.11457C10.5814 9.12519 10.5566 9.13722 10.5318 9.14926C10.4646 9.18112 10.3987 9.2151 10.3328 9.25121L10.3229 9.25687C10.2875 9.27598 10.2521 9.29581 10.2181 9.31634L10.1147 9.37935L10.0127 9.44519L9.9129 9.51599C9.87962 9.53935 9.84704 9.56342 9.81447 9.58679L9.71816 9.66183C9.68629 9.68803 9.65513 9.71352 9.62397 9.74042C9.59282 9.76732 9.56166 9.79423 9.53121 9.82184C9.47031 9.87706 9.41082 9.9337 9.35275 9.99317C8.95884 10.3913 8.6479 10.8636 8.43796 11.3828C8.22802 11.902 8.12327 12.4577 8.12978 13.0177C8.13873 13.8776 8.41573 14.7134 8.9222 15.4085C9.05972 15.5976 9.21248 15.7752 9.37895 15.9395C9.43065 15.9912 9.48305 16.0407 9.53758 16.0889L9.5999 16.1434C9.70116 16.2305 9.80739 16.3126 9.91715 16.3898C9.97239 16.428 10.0276 16.4655 10.0843 16.5016C10.1126 16.52 10.1409 16.5377 10.1707 16.5547C10.228 16.5894 10.2861 16.6255 10.3449 16.6552C10.3852 16.6772 10.4256 16.6977 10.4667 16.7183L10.4978 16.7338L10.6175 16.7905C10.767 16.8575 10.9202 16.9159 11.0764 16.9653L11.1401 16.9852C11.253 17.0191 11.367 17.0482 11.4822 17.0722L11.565 17.0885L11.6486 17.1034C11.7045 17.1133 11.7605 17.1211 11.8171 17.1282C11.8738 17.1353 11.9212 17.1402 11.9743 17.1452C12.0451 17.1515 12.1103 17.1558 12.1783 17.1586H12.3362C13.2171 17.1586 14.1115 17.1586 14.9769 17.1586H18.0205C18.4971 17.1586 18.9779 17.1586 19.4538 17.1544H19.5381C19.93 17.1608 20.3218 17.1371 20.7101 17.0836C20.7745 17.073 20.8383 17.0616 20.902 17.0475C20.9324 17.0418 20.9629 17.0347 20.9933 17.0276L21.0812 17.0064C21.5634 16.8836 22.0193 16.6742 22.4266 16.3883C22.4514 16.3713 22.4762 16.3536 22.4975 16.3352C22.5187 16.3168 22.5463 16.2991 22.5683 16.2807L22.6391 16.2248L22.7099 16.1667L22.7772 16.1094L22.7814 16.1051L22.8459 16.0471C22.8905 16.006 22.9337 15.9643 22.9769 15.9218C23.0201 15.8793 23.0612 15.8354 23.1015 15.7901C23.1634 15.7235 23.2221 15.6549 23.2778 15.5841L23.3338 15.5133C23.4265 15.3936 23.5121 15.2685 23.5901 15.1388C23.6383 15.0609 23.6829 14.9816 23.724 14.9002C24.0874 14.2004 24.251 13.4141 24.197 12.6276L24.1949 12.6268ZM21.0889 16.2014C21.0521 16.2135 21.0181 16.2248 20.9778 16.2354C20.9374 16.246 20.897 16.2581 20.856 16.268L20.8397 16.2722C20.7979 16.2821 20.7568 16.2913 20.7143 16.2998C20.6718 16.3083 20.6244 16.3175 20.5791 16.3246C20.2303 16.3706 19.8785 16.3902 19.5268 16.3834H19.4418C18.6572 16.389 17.8591 16.3876 17.0865 16.3869L14.9719 16.3876C14.1073 16.3876 13.2136 16.3876 12.3348 16.3876H12.247L12.15 16.3834C12.1245 16.3834 12.099 16.3834 12.0735 16.3777C12.0197 16.3742 11.9665 16.3685 11.9134 16.3614C11.8816 16.3614 11.8497 16.3529 11.8178 16.348C11.786 16.343 11.7675 16.3402 11.7428 16.3352C11.7316 16.3338 11.7204 16.3317 11.7095 16.3289C11.6613 16.3211 11.6146 16.3112 11.5679 16.2991C11.5402 16.2935 11.5126 16.2871 11.4857 16.2793C11.3773 16.2518 11.2704 16.2185 11.1656 16.1795C11.1139 16.1604 11.0629 16.1398 11.012 16.1186C10.9822 16.1073 10.9532 16.0938 10.9241 16.0804C10.8951 16.0669 10.8809 16.0613 10.8604 16.0506C10.8172 16.0294 10.774 16.0082 10.7315 15.9855C10.689 15.9628 10.6473 15.9395 10.6062 15.9147C10.5233 15.8659 10.4433 15.8142 10.3647 15.7589C10.275 15.6966 10.1885 15.6297 10.1055 15.5586L10.0234 15.4878L10.005 15.4708C9.97805 15.446 9.95185 15.4205 9.92565 15.3943C9.45252 14.9305 9.12497 14.3388 8.9831 13.6916C8.96539 13.6102 8.95123 13.5267 8.93919 13.4431C8.92021 13.3023 8.91004 13.1605 8.90874 13.0184C8.90389 12.4495 9.03852 11.8882 9.30085 11.3834C9.56318 10.8786 9.94522 10.4458 10.4136 10.1227L10.4915 10.0703C10.5205 10.0519 10.5495 10.0335 10.5793 10.0158C10.609 9.99812 10.6388 9.98042 10.6685 9.96343C10.6982 9.94644 10.7287 9.93016 10.7591 9.91458C10.7896 9.89901 10.8208 9.88272 10.8512 9.86786C10.9008 9.84378 10.9503 9.82113 11.0013 9.79706L11.0778 9.76591C11.1543 9.73546 11.2315 9.70785 11.3108 9.68307C11.3632 9.66679 11.4163 9.65121 11.4694 9.63776C11.5558 9.61511 11.6436 9.59599 11.7321 9.58112C11.7619 9.57546 11.7916 9.57121 11.8221 9.56626L11.8759 9.55918L11.9524 9.54997L12.0182 9.5436L12.1011 9.53723C12.1337 9.53723 12.1662 9.53298 12.1995 9.53227C12.2328 9.53157 12.2625 9.53227 12.2944 9.53227C14.7991 9.51528 17.4172 9.51599 20.0749 9.53227C20.1174 9.53227 20.1591 9.53227 20.2009 9.53581H20.2087C20.2512 9.53581 20.2937 9.54148 20.3362 9.54502L20.453 9.55776H20.475C20.509 9.56201 20.5458 9.56767 20.577 9.57334C20.6216 9.58042 20.6655 9.58891 20.7094 9.59812L20.754 9.60803C20.7795 9.61298 20.805 9.61936 20.8298 9.62573C20.841 9.62781 20.8522 9.63064 20.8631 9.63422C20.8977 9.64272 20.9339 9.65263 20.9671 9.66325C21.0004 9.67387 21.0486 9.68803 21.0889 9.70148L21.1633 9.72768C21.1881 9.73617 21.2122 9.74538 21.2341 9.75529C21.2561 9.7652 21.283 9.7744 21.3049 9.78502C21.3269 9.79564 21.3531 9.80485 21.3758 9.81617C21.4232 9.83671 21.4706 9.85865 21.5174 9.88272C21.5407 9.89405 21.5641 9.90609 21.5882 9.91883L21.6498 9.95281C21.7442 10.0043 21.8349 10.0602 21.9217 10.1206C21.9437 10.1348 21.9649 10.1496 21.9855 10.1659C22.006 10.1822 22.028 10.1957 22.0485 10.2119C22.1731 10.306 22.2914 10.4082 22.4026 10.5178C22.421 10.5348 22.4394 10.5532 22.4578 10.573C22.5286 10.6438 22.5909 10.7146 22.6525 10.7911L22.6823 10.8272L22.7134 10.8675C22.7304 10.8881 22.746 10.9086 22.7609 10.9298C22.7758 10.9511 22.7921 10.9716 22.8062 10.9928C22.8204 11.0141 22.8367 11.0353 22.8508 11.0573C22.865 11.0792 22.8799 11.1004 22.8933 11.1224C22.9365 11.1882 22.9762 11.2555 23.0137 11.3242C23.0158 11.3286 23.0182 11.3328 23.0208 11.3369C23.2478 11.7516 23.3823 12.2105 23.4152 12.6821C23.4223 12.7911 23.4251 12.8994 23.4223 13.007C23.4223 13.0856 23.4166 13.1642 23.4096 13.2421C23.4053 13.2938 23.3996 13.3454 23.3926 13.3964C23.3732 13.5487 23.3431 13.6994 23.3026 13.8474C23.2002 14.2339 23.0305 14.5994 22.8013 14.9271L22.7588 14.9873C22.7304 15.0269 22.7 15.0665 22.6688 15.1048C22.6377 15.143 22.6072 15.1812 22.5747 15.2181L22.5251 15.2733C22.4925 15.3094 22.4585 15.3441 22.4238 15.3802C22.3891 15.4163 22.353 15.451 22.3176 15.4821C22.2822 15.5133 22.2468 15.5529 22.2064 15.5805C22.1505 15.628 22.0924 15.674 22.0322 15.7179C22.0124 15.7328 21.9925 15.7476 21.972 15.7611C21.9319 15.7894 21.8908 15.817 21.8488 15.8439C21.7865 15.8843 21.7227 15.9218 21.6576 15.9579C21.579 16.0004 21.4983 16.0407 21.4154 16.0775C21.3828 16.0924 21.3503 16.1059 21.3177 16.1193L21.237 16.1512L21.1753 16.1738L21.0889 16.2014Z" fill="#3C74E1"/>
<path d="M16.1567 16.7784C14.882 16.7784 13.6066 16.7827 12.3319 16.7784C10.2436 16.7699 8.53484 15.0793 8.51713 13.0184C8.49943 10.9043 10.1827 9.15492 12.2909 9.14005C14.8874 9.12259 17.484 9.12259 20.0805 9.14005C22.0223 9.15421 23.6794 10.7365 23.809 12.6566C23.9421 14.6545 22.5895 16.3947 20.6435 16.7076C20.2468 16.7589 19.8467 16.7805 19.4467 16.7721C18.3498 16.7799 17.2515 16.7721 16.156 16.7721L16.1567 16.7784Z" fill="white"/>
<path d="M18.0163 17.1678H14.9726C14.1073 17.1678 13.2129 17.1678 12.3319 17.1678C10.034 17.1586 8.14819 15.2988 8.12907 13.0219C8.12227 12.462 8.22683 11.9063 8.43665 11.387C8.64647 10.8678 8.95739 10.3955 9.35134 9.99742C9.73416 9.60553 10.191 9.29353 10.6954 9.07951C11.1997 8.8655 11.7416 8.75372 12.2895 8.75067C14.7984 8.73367 17.42 8.73438 20.0791 8.75067C22.2036 8.76624 24.0504 10.5065 24.1935 12.6304C24.3422 14.8315 22.8416 16.7515 20.7037 17.097C20.3154 17.1506 19.9236 17.1743 19.5317 17.1678H19.4475C18.9737 17.1664 18.4929 17.1678 18.0163 17.1678ZM16.5454 16.389H17.0886C17.8612 16.389 18.6593 16.389 19.4439 16.3855H19.5289C19.8806 16.3923 20.2324 16.3727 20.5812 16.3267C22.3204 16.0436 23.5399 14.4789 23.4188 12.6814C23.3019 10.9546 21.8021 9.54077 20.0756 9.52803C17.4179 9.50962 14.7999 9.50891 12.2951 9.52803C11.8496 9.53068 11.4091 9.62173 10.9991 9.79588C10.5891 9.97003 10.2177 10.2238 9.90653 10.5426C9.58486 10.8679 9.33097 11.2538 9.15957 11.6779C8.98817 12.1021 8.90268 12.556 8.90803 13.0134C8.92361 14.8662 10.461 16.3798 12.3348 16.3876C13.2136 16.3876 14.1052 16.3876 14.9719 16.3876H16.156L16.5454 16.389Z" fill="#3C74E1"/>
<path d="M11.2343 13.3731L11.2209 13.3624C11.1665 13.3199 11.1213 13.2669 11.088 13.2064C11.0547 13.146 11.0339 13.0795 11.027 13.0108C11.02 12.9422 11.0271 12.8729 11.0476 12.807C11.0681 12.7411 11.1018 12.6801 11.1465 12.6276C11.8787 11.778 13.1145 11.6697 13.9536 12.6276C13.9986 12.6802 14.0324 12.7414 14.053 12.8074C14.0736 12.8735 14.0806 12.9431 14.0735 13.0119C14.0664 13.0808 14.0454 13.1475 14.0118 13.208C13.9782 13.2685 13.9326 13.3215 13.8778 13.3639L13.8587 13.3787C13.762 13.4543 13.6414 13.4927 13.5188 13.4871C13.3962 13.4815 13.2797 13.4323 13.1902 13.3483C12.6237 12.823 12.4275 12.8166 11.9156 13.332C11.8268 13.4211 11.7083 13.4745 11.5827 13.4821C11.4572 13.4896 11.3332 13.4509 11.2343 13.3731Z" fill="#3C74E1"/>
<path d="M21.0153 13.3639L20.9933 13.3808C20.8974 13.4545 20.7786 13.4919 20.6577 13.4866C20.5369 13.4813 20.4218 13.4336 20.3326 13.3518C19.759 12.83 19.536 12.8194 19.0523 13.3228C18.9646 13.4133 18.8465 13.4681 18.7208 13.4769C18.595 13.4856 18.4705 13.4477 18.3711 13.3702L18.3633 13.3646C18.308 13.322 18.2619 13.2687 18.228 13.2078C18.194 13.1469 18.1728 13.0797 18.1656 13.0104C18.1584 12.941 18.1655 12.8709 18.1863 12.8044C18.2072 12.7378 18.2414 12.6762 18.2868 12.6233C19.0339 11.7638 20.2491 11.6902 21.0797 12.6084C21.1279 12.661 21.1646 12.7229 21.1875 12.7904C21.2105 12.8578 21.2192 12.9293 21.2132 13.0003C21.2071 13.0713 21.1864 13.1402 21.1523 13.2028C21.1183 13.2654 21.0716 13.3202 21.0153 13.3639Z" fill="#3C74E1"/>
<path d="M19.4637 22.0946H12.5387C9.5305 22.0946 7.09233 23.9658 7.09233 26.9726V28.9139C9.72801 30.7015 12.8474 31.6406 16.0321 31.6054C19.2168 31.5702 22.3146 30.5624 24.9101 28.7171V26.9733C24.9101 23.9658 22.472 22.0946 19.4637 22.0946Z" fill="#CDDFF9"/>
<path d="M23.5682 23.1099C22.5095 22.2037 21.0521 21.7053 19.4609 21.7053L12.5387 21.706C10.9503 21.706 9.49368 22.2016 8.43145 23.1106C7.29841 24.0805 6.70002 25.4165 6.70002 26.9733L6.70002 29.1199L6.87351 29.2389C9.5226 31.0428 12.6547 32.0052 15.86 32H15.9464C19.2442 31.9894 22.4569 30.9529 25.1389 29.0343L25.3025 28.9181V26.9733C25.2996 25.4158 24.7012 24.0798 23.5682 23.1099ZM24.5207 28.5146C21.9962 30.2692 18.9962 31.2118 15.9216 31.2162H15.8621C12.8832 31.2212 9.96902 30.3479 7.48394 28.7058V26.9733C7.48394 25.6508 7.98814 24.5195 8.94273 23.7025C9.86333 22.9173 11.138 22.4847 12.5409 22.4847H19.4659C20.8687 22.4847 22.1462 22.9173 23.064 23.7025C24.0186 24.5195 24.5228 25.6508 24.5228 26.9733L24.5207 28.5146Z" fill="#3C74E1"/>
</svg>
