<svg width="40" height="40" viewBox="0 0 40 40" fill="none" xmlns="http://www.w3.org/2000/svg">
<path d="M34.1455 5.85593C33.9166 5.62643 33.6832 5.40371 33.4454 5.18777C33.2843 5.04175 33.1223 4.89927 32.9576 4.76033C32.793 4.62139 32.6345 4.48776 32.4708 4.3559C32.3734 4.27891 32.276 4.20191 32.1778 4.12669C32.0214 4.00574 31.8629 3.88775 31.7024 3.7727L31.69 3.76297C31.5404 3.655 31.3891 3.5488 31.2368 3.44615C27.9729 1.23629 24.1296 0.0378748 20.1878 0.000882975C16.2461 -0.0361088 12.3809 1.08996 9.07609 3.23818C8.93889 3.32668 8.80345 3.41517 8.66802 3.5134C8.53258 3.61164 8.3821 3.71606 8.24047 3.81607C8.14222 3.88686 8.04484 3.95943 7.94747 4.03288C7.78371 4.15678 7.62261 4.28333 7.46239 4.41254C7.30217 4.54174 7.13576 4.67803 6.97554 4.81963C6.59136 5.14884 6.2187 5.49427 5.85754 5.85593C2.10697 9.60658 0 14.693 0 19.9965C0 25.3 2.10697 30.3864 5.85754 34.137C6.63796 34.918 7.48112 35.6337 8.37856 36.2769C11.7472 38.6918 15.7877 39.9916 19.9329 39.9938H20.0046C23.9599 39.9918 27.8258 38.8178 31.1138 36.6199C34.4018 34.4221 36.9644 31.2992 38.4777 27.6459C39.9911 23.9925 40.3872 19.9726 39.6161 16.0942C38.8451 12.2158 36.9413 8.653 34.1455 5.85593ZM33.4595 33.4512C32.8834 34.0273 32.2714 34.5665 31.6272 35.0654C31.4661 35.1904 31.3038 35.3123 31.1403 35.4309C27.9022 37.776 24.0031 39.0331 20.0046 39.0212H19.9046C16.1425 39.0126 12.4688 37.8804 9.35493 35.7698C9.19146 35.6595 9.02918 35.5459 8.86807 35.4291C8.70431 35.3105 8.54144 35.1884 8.38122 35.0636C7.73734 34.5653 7.12563 34.0267 6.54976 33.4512C2.98216 29.8831 0.978015 25.0446 0.978015 19.9996C0.978015 14.9545 2.98216 10.116 6.54976 6.54798C6.69139 6.40638 6.83479 6.26774 6.97996 6.13204C7.1393 5.98071 7.30129 5.83381 7.46593 5.68955C7.63058 5.5453 7.78814 5.41079 7.95279 5.27539C8.04927 5.19574 8.14664 5.11786 8.2449 5.04087C8.40512 4.91343 8.56799 4.78954 8.73175 4.66918C8.89551 4.54882 9.05485 4.43466 9.21861 4.32139C12.4649 2.09313 16.322 0.925078 20.2595 0.977849C24.1969 1.03062 28.0213 2.30163 31.2067 4.61608C31.3705 4.73644 31.5325 4.85856 31.6936 4.98423C31.8547 5.1099 32.0202 5.24353 32.1804 5.37804C32.2796 5.46064 32.3778 5.54442 32.4752 5.62938C32.6398 5.77215 32.8021 5.91965 32.962 6.07186C33.1276 6.22496 33.2896 6.3816 33.4498 6.54178L33.4595 6.54798C35.2266 8.3144 36.6283 10.4115 37.5846 12.7195C38.5409 15.0276 39.0331 17.5013 39.0331 19.9996C39.0331 22.4978 38.5409 24.9716 37.5846 27.2796C36.6283 29.5876 35.2266 31.6847 33.4595 33.4512Z" fill="#3C74E1"/>
<path d="M31.2032 4.61254V7.11702C29.8072 5.50283 27.9917 4.36209 25.7876 3.71606C22.6894 2.80897 19.3912 2.69392 15.9823 3.37446C13.2586 3.91784 11.1527 5.04352 9.55232 6.81347C9.43548 6.94268 9.32394 7.07896 9.21507 7.20994V4.31785C12.4614 2.08959 16.3185 0.921538 20.2559 0.974309C24.1934 1.02708 28.0178 2.29809 31.2032 4.61254Z" fill="#3C74E1"/>
<path d="M39.0309 19.9996C39.0372 22.499 38.5476 24.9749 37.5904 27.2839C36.6331 29.5928 35.2273 31.6891 33.4542 33.4512C32.8781 34.0273 32.2661 34.5665 31.6219 35.0654V33.7167C31.6219 31.7697 30.8739 30.1007 29.4576 28.8882C28.1342 27.7555 26.3125 27.1325 24.3235 27.1325H15.6734C13.6879 27.1325 11.8671 27.7519 10.5393 28.8882C9.12301 30.1007 8.37502 31.7706 8.37502 33.7167V35.0636C7.73327 34.565 7.12364 34.0265 6.54976 33.4512C2.98216 29.8831 0.978015 25.0446 0.978015 19.9996C0.978015 14.9545 2.98216 10.116 6.54976 6.54798C6.69139 6.40638 6.83479 6.26774 6.97996 6.13204C6.97996 7.02675 6.97996 7.84535 6.97996 8.62147C6.97996 11.9065 6.97996 14.5012 6.96846 18.8659C6.96846 20.1049 7.34112 21.2084 8.1192 22.2288C9.06547 23.4678 10.3676 24.3678 12.2167 25.0537C13.9411 25.6944 15.869 26.0537 18.2838 26.1855C19.0256 26.2262 19.7364 26.2466 20.4225 26.2466C22.6292 26.2466 24.5713 26.0351 26.417 25.5988C28.7362 25.0501 30.4171 24.1979 31.706 22.9173C32.8638 21.7669 33.4285 20.6058 33.4347 19.3677C33.4551 14.7234 33.4533 12.0534 33.4498 8.35863C33.4498 7.77809 33.4498 7.17454 33.4498 6.53647L33.4595 6.54798C35.2316 8.31058 36.6364 10.407 37.5927 12.716C38.549 15.0249 39.0378 17.5005 39.0309 19.9996Z" fill="#3C74E1"/>
<path d="M31.6891 8.56926V3.93908C31.6891 2.75941 31.6891 5.11963 31.6891 3.93908C31.6891 3.43464 31.9299 3.16384 32.3389 3.17623C32.7478 3.18862 32.9585 3.44172 32.9585 3.9258C32.9585 10.2516 32.9753 13.041 32.947 19.3615C32.9408 20.6491 32.2512 21.6846 31.3616 22.5687C29.9568 23.9651 28.1882 24.6758 26.3036 25.1218C23.6729 25.7413 20.9996 25.8431 18.3095 25.6961C16.2851 25.5855 14.2943 25.3032 12.3849 24.5944C10.8721 24.0324 9.50452 23.2403 8.50514 21.9306C7.81521 21.0581 7.4439 19.9763 7.45265 18.8642C7.4739 12.7747 7.46239 10.225 7.46239 4.13643C7.45588 4.00367 7.45825 3.87063 7.46947 3.73819C7.47681 3.65711 7.50006 3.57827 7.53789 3.50619C7.57573 3.4341 7.6274 3.37017 7.68997 3.31806C7.75253 3.26596 7.82475 3.22669 7.9025 3.2025C7.98025 3.17832 8.06201 3.16969 8.1431 3.17711C8.49718 3.21251 8.70608 3.40898 8.72644 3.77624C8.73352 3.90899 8.72644 4.04173 8.72644 4.17448V8.64448C9.15576 8.09668 9.50364 7.59313 9.91171 7.14003C11.5688 5.30813 13.6994 4.32316 16.0753 3.84969C19.2868 3.20897 22.4947 3.25765 25.6486 4.18156C28.1599 4.91874 30.2162 6.32408 31.6891 8.56926ZM20.1958 20.973C21.567 20.973 22.9399 20.9792 24.3102 20.973C24.8102 20.9835 25.3102 20.9566 25.8062 20.8925C28.2422 20.4987 29.9294 18.3208 29.7603 15.8225C29.5983 13.4225 27.5261 11.4445 25.0998 11.4268C21.8541 11.4038 18.6084 11.4038 15.3627 11.4268C12.7275 11.4454 10.6234 13.6322 10.6455 16.2747C10.6677 18.8544 12.8045 20.9651 15.4149 20.9748C17.0109 20.973 18.6034 20.973 20.1958 20.973Z" fill="#CDDFF9"/>
<path d="M30.2463 15.7844C30.2182 15.3754 30.1394 14.9714 30.0117 14.5818C29.9993 14.5428 29.986 14.5048 29.9728 14.4667C29.9204 14.314 29.8598 14.1642 29.7913 14.018C29.7073 13.8357 29.6127 13.6584 29.508 13.4871L29.4443 13.3853L29.3779 13.2844L29.3098 13.1862C29.269 13.1278 29.2265 13.0702 29.1832 13.0136C29.1531 12.9747 29.123 12.9366 29.0947 12.8985L29.023 12.81L28.9344 12.7056C28.8831 12.649 28.8309 12.5923 28.7778 12.5375C28.6376 12.3943 28.4898 12.2587 28.3352 12.1313C28.2741 12.0799 28.2112 12.0304 28.1475 11.9826L28.0501 11.9118C27.9855 11.8649 27.92 11.8233 27.8527 11.7755C27.8191 11.7543 27.7855 11.7322 27.7509 11.7118C27.7164 11.6914 27.6899 11.6737 27.6624 11.6552L27.5491 11.5888C27.4801 11.5498 27.4093 11.5127 27.3376 11.4764C27.2659 11.4401 27.1924 11.4065 27.1189 11.3737C27.0826 11.3569 27.0454 11.341 27.0083 11.3259L26.9197 11.2906L26.8551 11.2658L26.7808 11.2375L26.6675 11.1976C26.5568 11.1596 26.4453 11.1259 26.332 11.0967L26.1957 11.0631L26.0832 11.0383L25.9726 11.0162H25.9513C25.9151 11.0091 25.8796 11.0029 25.8433 10.9976C25.8071 10.9923 25.7717 10.9861 25.7354 10.9817C25.6061 10.964 25.476 10.9516 25.3441 10.9445C25.3069 10.9445 25.2689 10.9445 25.2308 10.9392C25.1927 10.9339 25.1485 10.9392 25.1069 10.9392C21.7803 10.9162 18.5034 10.9153 15.3698 10.9392C15.3261 10.9392 15.2827 10.9392 15.2397 10.9392L15.1228 10.9436L14.9502 10.956C14.875 10.9622 14.8006 10.9711 14.7263 10.9808C14.6811 10.9861 14.6377 10.9932 14.5908 11.0003L14.4766 11.0197H14.4722L14.3483 11.0445H14.3341C14.2553 11.0613 14.1783 11.079 14.1004 11.0994C14.0597 11.11 14.019 11.1206 13.9783 11.133C13.9376 11.1454 13.911 11.1525 13.8774 11.1631C13.8304 11.1764 13.7844 11.1914 13.7375 11.2082C13.6906 11.2251 13.6428 11.241 13.5959 11.2587C13.549 11.2764 13.5073 11.2914 13.4649 11.3091C13.4557 11.3119 13.4468 11.3155 13.4383 11.3198L13.3498 11.3569C13.3215 11.3681 13.292 11.3805 13.2613 11.3941C13.2294 11.4074 13.1984 11.4224 13.1674 11.4375C13.0833 11.4773 13.001 11.5198 12.9187 11.5649L12.9063 11.572C12.862 11.5959 12.8178 11.6206 12.7753 11.6463L12.6461 11.7251L12.5186 11.8074L12.3938 11.8959C12.3522 11.9251 12.3115 11.9552 12.2707 11.9844L12.1504 12.0782C12.1105 12.1109 12.0716 12.1428 12.0326 12.1764C11.9937 12.21 11.9547 12.2437 11.9167 12.2782C11.8405 12.3472 11.7662 12.418 11.6936 12.4923C11.2012 12.99 10.8125 13.5804 10.5501 14.2294C10.2877 14.8784 10.1567 15.573 10.1649 16.273C10.1755 17.3473 10.5208 18.3916 11.1527 19.2606C11.3247 19.497 11.5156 19.719 11.7237 19.9244C11.7883 19.989 11.8538 20.0509 11.922 20.1111L11.9999 20.1792C12.1265 20.2881 12.2592 20.3907 12.3964 20.4872C12.4655 20.535 12.5345 20.5819 12.6053 20.627C12.6407 20.65 12.6762 20.6722 12.7133 20.6934C12.785 20.7368 12.8576 20.7819 12.9311 20.8191C12.9815 20.8465 13.032 20.8722 13.0833 20.8978L13.1223 20.9173L13.2719 20.9881C13.4587 21.0719 13.6502 21.1449 13.8455 21.2067L13.9252 21.2315C14.0662 21.2739 14.2087 21.3102 14.3527 21.3403L14.4563 21.3607L14.5607 21.3792C14.6307 21.3916 14.7006 21.4014 14.7714 21.4102C14.8422 21.4191 14.9015 21.4253 14.9679 21.4315C15.0564 21.4394 15.1379 21.4447 15.2228 21.4483H15.4202C16.5214 21.4483 17.6394 21.4483 18.7211 21.4483H22.5257C23.1214 21.4483 23.7224 21.4483 24.3173 21.443H24.4226C24.9125 21.451 25.4023 21.4214 25.8876 21.3545C25.9682 21.3412 26.0478 21.327 26.1275 21.3093C26.1656 21.3023 26.2036 21.2934 26.2417 21.2846L26.3515 21.258C26.9543 21.1045 27.5241 20.8427 28.0333 20.4854C28.0643 20.4642 28.0953 20.4421 28.1218 20.4191C28.1484 20.396 28.1829 20.3739 28.2103 20.3509L28.2989 20.281L28.3874 20.2084L28.4715 20.1367L28.4768 20.1314L28.5573 20.0589C28.6131 20.0075 28.6671 19.9553 28.7211 19.9022C28.7751 19.8491 28.8264 19.7943 28.8769 19.7376C28.9542 19.6544 29.0277 19.5686 29.0973 19.4801L29.1672 19.3916C29.2832 19.242 29.3902 19.0857 29.4877 18.9234C29.5479 18.8261 29.6036 18.727 29.655 18.6252C30.1092 17.7505 30.3138 16.7677 30.2463 15.7844ZM26.3638 20.2527C26.3178 20.2677 26.2753 20.2819 26.2249 20.2952C26.1744 20.3084 26.124 20.3235 26.0726 20.3359L26.0523 20.3412C26 20.3536 25.9487 20.3651 25.8956 20.3757C25.8425 20.3863 25.7832 20.3978 25.7265 20.4067C25.2905 20.4641 24.8508 20.4886 24.4111 20.4801H24.3049C23.3241 20.4872 22.3265 20.4854 21.3608 20.4845H20.195H18.7149C17.6341 20.4845 16.517 20.4845 15.4185 20.4845H15.3087L15.1874 20.4792C15.1556 20.4792 15.1237 20.4792 15.0918 20.4721C15.0246 20.4677 14.9582 20.4606 14.8918 20.4518C14.852 20.4518 14.8121 20.4412 14.7723 20.435C14.7325 20.4288 14.7094 20.4252 14.6785 20.4191C14.6644 20.4173 14.6505 20.4146 14.6369 20.4111C14.5767 20.4014 14.5182 20.389 14.4598 20.3739C14.4253 20.3668 14.3908 20.3589 14.3571 20.3491C14.2216 20.3148 14.088 20.2731 13.957 20.2244C13.8924 20.2005 13.8287 20.1748 13.7649 20.1482C13.7278 20.1341 13.6915 20.1173 13.6552 20.1005C13.6189 20.0836 13.6012 20.0766 13.5755 20.0633C13.5215 20.0367 13.4675 20.0102 13.4144 19.9819C13.3613 19.9536 13.3091 19.9244 13.2577 19.8934C13.1542 19.8323 13.0541 19.7677 12.9559 19.6987C12.8437 19.6207 12.7356 19.5371 12.6319 19.4482L12.5292 19.3597L12.5062 19.3385C12.4726 19.3075 12.4398 19.2757 12.4071 19.2429C11.8157 18.6631 11.4062 17.9235 11.2289 17.1146C11.2067 17.0128 11.189 16.9084 11.174 16.8039C11.1503 16.6279 11.1376 16.4506 11.1359 16.273C11.1299 15.5619 11.2981 14.8602 11.6261 14.2292C11.954 13.5983 12.4315 13.0572 13.017 12.6534L13.1143 12.5879C13.1506 12.5649 13.1869 12.5419 13.2241 12.5198C13.2613 12.4977 13.2984 12.4755 13.3356 12.4543C13.3728 12.4331 13.4109 12.4127 13.4489 12.3932C13.487 12.3738 13.5259 12.3534 13.564 12.3348C13.626 12.3047 13.6879 12.2764 13.7517 12.2463L13.8473 12.2074C13.9429 12.1693 14.0393 12.1348 14.1385 12.1038C14.204 12.0835 14.2704 12.064 14.3368 12.0472C14.4448 12.0189 14.5545 11.995 14.6652 11.9764C14.7024 11.9693 14.7395 11.964 14.7776 11.9578L14.8449 11.949L14.9405 11.9375L15.0228 11.9295L15.1264 11.9215C15.1671 11.9215 15.2078 11.9162 15.2494 11.9153C15.291 11.9145 15.3282 11.9153 15.368 11.9153C18.4989 11.8941 21.7715 11.895 25.0936 11.9153C25.1467 11.9153 25.1989 11.9153 25.2512 11.9198H25.2609C25.314 11.9198 25.3671 11.9268 25.4202 11.9313L25.5663 11.9472H25.5937C25.6362 11.9525 25.6822 11.9596 25.7212 11.9667C25.777 11.9755 25.8318 11.9861 25.8867 11.9976L25.9425 12.01C25.9744 12.0162 26.0062 12.0242 26.0372 12.0322C26.0513 12.0348 26.0652 12.0383 26.0788 12.0428C26.1222 12.0534 26.1673 12.0658 26.2089 12.0791C26.2505 12.0923 26.3107 12.11 26.3612 12.1269L26.4541 12.1596C26.4851 12.1702 26.5152 12.1817 26.5427 12.1941C26.5701 12.2065 26.6037 12.218 26.6312 12.2313C26.6586 12.2446 26.6914 12.2561 26.7197 12.2702C26.779 12.2959 26.8383 12.3233 26.8967 12.3534C26.9259 12.3676 26.9551 12.3826 26.9852 12.3985L27.0623 12.441C27.1803 12.5053 27.2936 12.5752 27.4022 12.6508C27.4296 12.6685 27.4562 12.687 27.4818 12.7074C27.5075 12.7277 27.5349 12.7446 27.5606 12.7649C27.7164 12.8825 27.8643 13.0102 28.0032 13.1472C28.0262 13.1685 28.0492 13.1915 28.0723 13.2163C28.1608 13.3048 28.2387 13.3932 28.3157 13.4888L28.3529 13.534L28.3918 13.5844C28.4131 13.6101 28.4325 13.6357 28.4511 13.6623C28.4697 13.6888 28.4901 13.7145 28.5078 13.741C28.5255 13.7676 28.5458 13.7941 28.5635 13.8216C28.5812 13.849 28.5998 13.8756 28.6167 13.903C28.6706 13.9853 28.7202 14.0694 28.7671 14.1552C28.7697 14.1607 28.7727 14.166 28.776 14.1711C29.0597 14.6895 29.2279 15.2631 29.269 15.8526C29.2779 15.9889 29.2814 16.1243 29.2779 16.2588C29.2779 16.357 29.2708 16.4553 29.262 16.5526C29.2566 16.6172 29.2496 16.6818 29.2407 16.7455C29.2165 16.9358 29.1789 17.1242 29.1283 17.3093C29.0002 17.7924 28.7881 18.2492 28.5016 18.6588L28.4485 18.7341C28.4131 18.7836 28.375 18.8332 28.336 18.881C28.2971 18.9288 28.259 18.9765 28.2183 19.0226L28.1564 19.0916C28.1156 19.1367 28.0731 19.1801 28.0298 19.2252C27.9864 19.2704 27.9413 19.3137 27.897 19.3527C27.8527 19.3916 27.8085 19.4412 27.758 19.4757C27.6881 19.535 27.6155 19.5925 27.5403 19.6474C27.5155 19.6659 27.4907 19.6845 27.465 19.7013C27.4149 19.7367 27.3635 19.7713 27.311 19.8049C27.2331 19.8553 27.1534 19.9022 27.072 19.9474C26.9737 20.0005 26.8728 20.0509 26.7693 20.0969C26.7285 20.1155 26.6878 20.1323 26.6471 20.1491L26.5462 20.189L26.4692 20.2173L26.3638 20.2527ZM30.2463 15.7844C30.2182 15.3754 30.1394 14.9714 30.0117 14.5818C29.9993 14.5428 29.986 14.5048 29.9728 14.4667C29.9204 14.314 29.8598 14.1642 29.7913 14.018C29.7073 13.8357 29.6127 13.6584 29.508 13.4871L29.4443 13.3853L29.3779 13.2844L29.3098 13.1862C29.269 13.1278 29.2265 13.0702 29.1832 13.0136C29.1531 12.9747 29.123 12.9366 29.0947 12.8985L29.023 12.81L28.9344 12.7056C28.8831 12.649 28.8309 12.5923 28.7778 12.5375C28.6376 12.3943 28.4898 12.2587 28.3352 12.1313C28.2741 12.0799 28.2112 12.0304 28.1475 11.9826L28.0501 11.9118C27.9855 11.8649 27.92 11.8233 27.8527 11.7755C27.8191 11.7543 27.7855 11.7322 27.7509 11.7118C27.7164 11.6914 27.6899 11.6737 27.6624 11.6552L27.5491 11.5888C27.4801 11.5498 27.4093 11.5127 27.3376 11.4764C27.2659 11.4401 27.1924 11.4065 27.1189 11.3737C27.0826 11.3569 27.0454 11.341 27.0083 11.3259L26.9197 11.2906L26.8551 11.2658L26.7808 11.2375L26.6675 11.1976C26.5568 11.1596 26.4453 11.1259 26.332 11.0967L26.1957 11.0631L26.0832 11.0383L25.9726 11.0162H25.9513C25.9151 11.0091 25.8796 11.0029 25.8433 10.9976C25.8071 10.9923 25.7717 10.9861 25.7354 10.9817C25.6061 10.964 25.476 10.9516 25.3441 10.9445C25.3069 10.9445 25.2689 10.9445 25.2308 10.9392C25.1927 10.9339 25.1485 10.9392 25.1069 10.9392C21.7803 10.9162 18.5034 10.9153 15.3698 10.9392C15.3261 10.9392 15.2827 10.9392 15.2397 10.9392L15.1228 10.9436L14.9502 10.956C14.875 10.9622 14.8006 10.9711 14.7263 10.9808C14.6811 10.9861 14.6377 10.9932 14.5908 11.0003L14.4766 11.0197H14.4722L14.3483 11.0445H14.3341C14.2553 11.0613 14.1783 11.079 14.1004 11.0994C14.0597 11.11 14.019 11.1206 13.9783 11.133C13.9376 11.1454 13.911 11.1525 13.8774 11.1631C13.8304 11.1764 13.7844 11.1914 13.7375 11.2082C13.6906 11.2251 13.6428 11.241 13.5959 11.2587C13.549 11.2764 13.5073 11.2914 13.4649 11.3091C13.4557 11.3119 13.4468 11.3155 13.4383 11.3198L13.3498 11.3569C13.3215 11.3681 13.292 11.3805 13.2613 11.3941C13.2294 11.4074 13.1984 11.4224 13.1674 11.4375C13.0833 11.4773 13.001 11.5198 12.9187 11.5649L12.9063 11.572C12.862 11.5959 12.8178 11.6206 12.7753 11.6463L12.6461 11.7251L12.5186 11.8074L12.3938 11.8959C12.3522 11.9251 12.3115 11.9552 12.2707 11.9844L12.1504 12.0782C12.1105 12.1109 12.0716 12.1428 12.0326 12.1764C11.9937 12.21 11.9547 12.2437 11.9167 12.2782C11.8405 12.3472 11.7662 12.418 11.6936 12.4923C11.2012 12.99 10.8125 13.5804 10.5501 14.2294C10.2877 14.8784 10.1567 15.573 10.1649 16.273C10.1755 17.3473 10.5208 18.3916 11.1527 19.2606C11.3247 19.497 11.5156 19.719 11.7237 19.9244C11.7883 19.989 11.8538 20.0509 11.922 20.1111L11.9999 20.1792C12.1265 20.2881 12.2592 20.3907 12.3964 20.4872C12.4655 20.535 12.5345 20.5819 12.6053 20.627C12.6407 20.65 12.6762 20.6722 12.7133 20.6934C12.785 20.7368 12.8576 20.7819 12.9311 20.8191C12.9815 20.8465 13.032 20.8722 13.0833 20.8978L13.1223 20.9173L13.2719 20.9881C13.4587 21.0719 13.6502 21.1449 13.8455 21.2067L13.9252 21.2315C14.0662 21.2739 14.2087 21.3102 14.3527 21.3403L14.4563 21.3607L14.5607 21.3792C14.6307 21.3916 14.7006 21.4014 14.7714 21.4102C14.8422 21.4191 14.9015 21.4253 14.9679 21.4315C15.0564 21.4394 15.1379 21.4447 15.2228 21.4483H15.4202C16.5214 21.4483 17.6394 21.4483 18.7211 21.4483H22.5257C23.1214 21.4483 23.7224 21.4483 24.3173 21.443H24.4226C24.9125 21.451 25.4023 21.4214 25.8876 21.3545C25.9682 21.3412 26.0478 21.327 26.1275 21.3093C26.1656 21.3023 26.2036 21.2934 26.2417 21.2846L26.3515 21.258C26.9543 21.1045 27.5241 20.8427 28.0333 20.4854C28.0643 20.4642 28.0953 20.4421 28.1218 20.4191C28.1484 20.396 28.1829 20.3739 28.2103 20.3509L28.2989 20.281L28.3874 20.2084L28.4715 20.1367L28.4768 20.1314L28.5573 20.0589C28.6131 20.0075 28.6671 19.9553 28.7211 19.9022C28.7751 19.8491 28.8264 19.7943 28.8769 19.7376C28.9542 19.6544 29.0277 19.5686 29.0973 19.4801L29.1672 19.3916C29.2832 19.242 29.3902 19.0857 29.4877 18.9234C29.5479 18.8261 29.6036 18.727 29.655 18.6252C30.1092 17.7505 30.3138 16.7677 30.2463 15.7844ZM26.3638 20.2527C26.3178 20.2677 26.2753 20.2819 26.2249 20.2952C26.1744 20.3084 26.124 20.3235 26.0726 20.3359L26.0523 20.3412C26 20.3536 25.9487 20.3651 25.8956 20.3757C25.8425 20.3863 25.7832 20.3978 25.7265 20.4067C25.2905 20.4641 24.8508 20.4886 24.4111 20.4801H24.3049C23.3241 20.4872 22.3265 20.4854 21.3608 20.4845H20.195H18.7149C17.6341 20.4845 16.517 20.4845 15.4185 20.4845H15.3087L15.1874 20.4792C15.1556 20.4792 15.1237 20.4792 15.0918 20.4721C15.0246 20.4677 14.9582 20.4606 14.8918 20.4518C14.852 20.4518 14.8121 20.4412 14.7723 20.435C14.7325 20.4288 14.7094 20.4252 14.6785 20.4191C14.6644 20.4173 14.6505 20.4146 14.6369 20.4111C14.5767 20.4014 14.5182 20.389 14.4598 20.3739C14.4253 20.3668 14.3908 20.3589 14.3571 20.3491C14.2216 20.3148 14.088 20.2731 13.957 20.2244C13.8924 20.2005 13.8287 20.1748 13.7649 20.1482C13.7278 20.1341 13.6915 20.1173 13.6552 20.1005C13.6189 20.0836 13.6012 20.0766 13.5755 20.0633C13.5215 20.0367 13.4675 20.0102 13.4144 19.9819C13.3613 19.9536 13.3091 19.9244 13.2577 19.8934C13.1542 19.8323 13.0541 19.7677 12.9559 19.6987C12.8437 19.6207 12.7356 19.5371 12.6319 19.4482L12.5292 19.3597L12.5062 19.3385C12.4726 19.3075 12.4398 19.2757 12.4071 19.2429C11.8157 18.6631 11.4062 17.9235 11.2289 17.1146C11.2067 17.0128 11.189 16.9084 11.174 16.8039C11.1503 16.6279 11.1376 16.4506 11.1359 16.273C11.1299 15.5619 11.2981 14.8602 11.6261 14.2292C11.954 13.5983 12.4315 13.0572 13.017 12.6534L13.1143 12.5879C13.1506 12.5649 13.1869 12.5419 13.2241 12.5198C13.2613 12.4977 13.2984 12.4755 13.3356 12.4543C13.3728 12.4331 13.4109 12.4127 13.4489 12.3932C13.487 12.3738 13.5259 12.3534 13.564 12.3348C13.626 12.3047 13.6879 12.2764 13.7517 12.2463L13.8473 12.2074C13.9429 12.1693 14.0393 12.1348 14.1385 12.1038C14.204 12.0835 14.2704 12.064 14.3368 12.0472C14.4448 12.0189 14.5545 11.995 14.6652 11.9764C14.7024 11.9693 14.7395 11.964 14.7776 11.9578L14.8449 11.949L14.9405 11.9375L15.0228 11.9295L15.1264 11.9215C15.1671 11.9215 15.2078 11.9162 15.2494 11.9153C15.291 11.9145 15.3282 11.9153 15.368 11.9153C18.4989 11.8941 21.7715 11.895 25.0936 11.9153C25.1467 11.9153 25.1989 11.9153 25.2512 11.9198H25.2609C25.314 11.9198 25.3671 11.9268 25.4202 11.9313L25.5663 11.9472H25.5937C25.6362 11.9525 25.6822 11.9596 25.7212 11.9667C25.777 11.9755 25.8318 11.9861 25.8867 11.9976L25.9425 12.01C25.9744 12.0162 26.0062 12.0242 26.0372 12.0322C26.0513 12.0348 26.0652 12.0383 26.0788 12.0428C26.1222 12.0534 26.1673 12.0658 26.2089 12.0791C26.2505 12.0923 26.3107 12.11 26.3612 12.1269L26.4541 12.1596C26.4851 12.1702 26.5152 12.1817 26.5427 12.1941C26.5701 12.2065 26.6037 12.218 26.6312 12.2313C26.6586 12.2446 26.6914 12.2561 26.7197 12.2702C26.779 12.2959 26.8383 12.3233 26.8967 12.3534C26.9259 12.3676 26.9551 12.3826 26.9852 12.3985L27.0623 12.441C27.1803 12.5053 27.2936 12.5752 27.4022 12.6508C27.4296 12.6685 27.4562 12.687 27.4818 12.7074C27.5075 12.7277 27.5349 12.7446 27.5606 12.7649C27.7164 12.8825 27.8643 13.0102 28.0032 13.1472C28.0262 13.1685 28.0492 13.1915 28.0723 13.2163C28.1608 13.3048 28.2387 13.3932 28.3157 13.4888L28.3529 13.534L28.3918 13.5844C28.4131 13.6101 28.4325 13.6357 28.4511 13.6623C28.4697 13.6888 28.4901 13.7145 28.5078 13.741C28.5255 13.7676 28.5458 13.7941 28.5635 13.8216C28.5812 13.849 28.5998 13.8756 28.6167 13.903C28.6706 13.9853 28.7202 14.0694 28.7671 14.1552C28.7697 14.1607 28.7727 14.166 28.776 14.1711C29.0597 14.6895 29.2279 15.2631 29.269 15.8526C29.2779 15.9889 29.2814 16.1243 29.2779 16.2588C29.2779 16.357 29.2708 16.4553 29.262 16.5526C29.2566 16.6172 29.2496 16.6818 29.2407 16.7455C29.2165 16.9358 29.1789 17.1242 29.1283 17.3093C29.0002 17.7924 28.7881 18.2492 28.5016 18.6588L28.4485 18.7341C28.4131 18.7836 28.375 18.8332 28.336 18.881C28.2971 18.9288 28.259 18.9765 28.2183 19.0226L28.1564 19.0916C28.1156 19.1367 28.0731 19.1801 28.0298 19.2252C27.9864 19.2704 27.9413 19.3137 27.897 19.3527C27.8527 19.3916 27.8085 19.4412 27.758 19.4757C27.6881 19.535 27.6155 19.5925 27.5403 19.6474C27.5155 19.6659 27.4907 19.6845 27.465 19.7013C27.4149 19.7367 27.3635 19.7713 27.311 19.8049C27.2331 19.8553 27.1534 19.9022 27.072 19.9474C26.9737 20.0005 26.8728 20.0509 26.7693 20.0969C26.7285 20.1155 26.6878 20.1323 26.6471 20.1491L26.5462 20.189L26.4692 20.2173L26.3638 20.2527ZM33.4454 8.35598C33.4454 7.77544 33.4454 7.17188 33.4454 6.53382C33.4454 6.10195 33.4454 5.65416 33.4454 5.18777C33.4454 4.78246 33.4454 4.36298 33.4454 3.92669C33.4454 3.04171 32.8833 2.70719 32.3575 2.68772C32.212 2.67901 32.0663 2.70011 31.9293 2.74972C31.7923 2.79933 31.6669 2.87641 31.5608 2.97623C31.4842 3.05028 31.4194 3.13564 31.3687 3.22933C31.3061 3.2869 31.2607 3.36074 31.2377 3.44261C31.221 3.49458 31.2106 3.54835 31.2067 3.60279V3.65234C31.2067 3.66208 31.2067 3.6727 31.2067 3.68332V4.2143C31.2067 4.22669 31.2067 4.23997 31.2067 4.25236V7.11702C29.8072 5.50282 27.9917 4.36209 25.7876 3.71606C22.6894 2.80897 19.3912 2.69392 15.9823 3.37446C13.2586 3.91784 11.1527 5.04352 9.55232 6.81347C9.43548 6.94268 9.32394 7.07896 9.21507 7.20994V4.17448C9.21507 4.1382 9.21507 4.10191 9.21507 4.06563C9.21507 3.96474 9.21507 3.86031 9.21507 3.75058C9.20789 3.57155 9.16135 3.3963 9.07875 3.23729C8.91233 2.92755 8.60428 2.73286 8.19356 2.69303C7.90446 2.66715 7.6167 2.75531 7.39175 2.9387C7.16681 3.12208 7.02251 3.38615 6.9897 3.67447C6.97579 3.79488 6.97164 3.91623 6.97731 4.03731C6.97731 4.07005 6.97731 4.1028 6.97731 4.13643V4.81963C6.97731 5.2745 6.97731 5.70991 6.97731 6.1285C6.97731 7.02321 6.97731 7.84181 6.97731 8.61793C6.97731 11.903 6.97731 14.4977 6.9658 18.8624C6.9658 20.1013 7.33846 21.2049 8.11654 22.2253C9.06281 23.4642 10.3649 24.3643 12.2141 25.0501C13.9384 25.6908 15.8664 26.0501 18.2812 26.182C19.023 26.2227 19.7338 26.2431 20.4198 26.2431C22.6266 26.2431 24.5687 26.0316 26.4143 25.5953C28.7335 25.0466 30.4145 24.1943 31.7033 22.9138C32.8611 21.7633 33.4259 20.6022 33.4321 19.3642C33.4533 14.7207 33.4516 12.0507 33.448 8.35598H33.4454ZM32.4717 8.35598C32.4717 12.049 32.477 14.7181 32.4566 19.3597C32.4522 20.3403 31.9936 21.25 31.0155 22.2235C29.8595 23.374 28.3254 24.1421 26.1886 24.6475C23.8623 25.1979 21.3661 25.3767 18.3325 25.2103C16.0177 25.0837 14.181 24.743 12.5513 24.1377C10.8819 23.5182 9.71874 22.7218 8.88843 21.635C8.26518 20.847 7.93033 19.8696 7.93951 18.865C7.95456 14.4995 7.95279 11.9038 7.95101 8.61793C7.95101 7.60021 7.95101 6.50992 7.95101 5.27185V4.13643C7.95101 4.10103 7.95101 4.0674 7.95101 4.03288V4.01607C7.94677 3.94504 7.94677 3.87382 7.95101 3.80279C7.96075 3.73022 8.00413 3.66031 8.08114 3.66031H8.09353C8.23251 3.67447 8.23339 3.69659 8.2387 3.80191C8.2387 3.80633 8.2387 3.81076 8.2387 3.81518C8.2387 3.88952 8.2387 3.97005 8.2387 4.05412C8.2387 4.09395 8.2387 4.13377 8.2387 4.17359V10.0534L9.10884 8.9436C9.24959 8.76661 9.38237 8.58961 9.51072 8.41881C9.76742 8.07898 10.0109 7.75685 10.272 7.46835C11.7299 5.85681 13.6587 4.82936 16.17 4.32846C19.424 3.67978 22.5664 3.78775 25.5105 4.64971C28.028 5.38689 29.9152 6.75595 31.2802 8.83563L32.1742 10.1967V4.22935C32.1738 4.22198 32.1738 4.21459 32.1742 4.20722V3.94173C32.1742 3.77624 32.2114 3.69659 32.2309 3.67624C32.2584 3.66308 32.2891 3.65787 32.3194 3.6612C32.4079 3.6612 32.4637 3.66562 32.4637 3.92669V4.35501C32.4637 4.7975 32.4637 5.21698 32.4637 5.62495C32.4725 6.60904 32.4734 7.50729 32.4743 8.35686L32.4717 8.35598ZM30.0091 14.5809C29.9967 14.5419 29.9834 14.5039 29.9701 14.4658C29.9177 14.3131 29.8572 14.1633 29.7886 14.0172C29.7046 13.8348 29.61 13.6575 29.5054 13.4862L29.4416 13.3844L29.3753 13.2835L29.3071 13.1853C29.2664 13.1269 29.2239 13.0693 29.1805 13.0127C29.1504 12.9738 29.1203 12.9357 29.092 12.8977L29.0203 12.8092L28.9318 12.7047C28.8804 12.6481 28.8282 12.5915 28.7751 12.5366C28.6349 12.3934 28.4872 12.2578 28.3325 12.1304C28.2714 12.0791 28.2086 12.0295 28.1448 11.9817L28.0475 11.9109C27.9829 11.864 27.9174 11.8224 27.8501 11.7746C27.8164 11.7534 27.7828 11.7313 27.7483 11.7109C27.7138 11.6906 27.6872 11.6729 27.6598 11.6543L27.5465 11.5879C27.4774 11.549 27.4066 11.5118 27.3349 11.4755C27.2632 11.4392 27.1897 11.4056 27.1163 11.3729C27.08 11.356 27.0428 11.3401 27.0056 11.3251L26.9171 11.2897L26.8525 11.2649L26.7781 11.2366L26.6648 11.1967C26.5542 11.1587 26.4426 11.1251 26.3293 11.0959L26.193 11.0622L26.0806 11.0374L25.9699 11.0153H25.9487C25.9124 11.0082 25.877 11.002 25.8407 10.9967C25.8044 10.9914 25.769 10.9852 25.7327 10.9808C25.6035 10.9631 25.4733 10.9507 25.3414 10.9436C25.3043 10.9436 25.2662 10.9436 25.2281 10.9383C25.1901 10.933 25.1458 10.9383 25.1042 10.9383C21.7777 10.9153 18.5007 10.9144 15.3671 10.9383C15.3235 10.9383 15.2801 10.9383 15.237 10.9383L15.1202 10.9428L14.9476 10.9551C14.8723 10.9613 14.798 10.9702 14.7236 10.9799C14.6785 10.9852 14.6351 10.9923 14.5882 10.9994L14.474 11.0189H14.4696L14.3456 11.0436H14.3315C14.2527 11.0605 14.1757 11.0782 14.0978 11.0985C14.0571 11.1091 14.0163 11.1198 13.9756 11.1321C13.9349 11.1445 13.9083 11.1516 13.8747 11.1622C13.8278 11.1755 13.7818 11.1905 13.7348 11.2074C13.6879 11.2242 13.6401 11.2401 13.5932 11.2578C13.5463 11.2755 13.5047 11.2906 13.4622 11.3083C13.4531 11.311 13.4442 11.3146 13.4356 11.3189L13.3471 11.356C13.3188 11.3672 13.2893 11.3796 13.2586 11.3932C13.2267 11.4065 13.1958 11.4215 13.1648 11.4366C13.0807 11.4764 12.9984 11.5189 12.916 11.564L12.9037 11.5711C12.8594 11.595 12.8151 11.6198 12.7726 11.6454L12.6434 11.7242L12.5159 11.8065L12.3911 11.895C12.3495 11.9242 12.3088 11.9543 12.2681 11.9835L12.1477 12.0773C12.1079 12.11 12.0689 12.1419 12.03 12.1755C11.991 12.2092 11.9521 12.2428 11.914 12.2773C11.8379 12.3463 11.7635 12.4171 11.6909 12.4915C11.1985 12.9891 10.8099 13.5796 10.5475 14.2285C10.285 14.8775 10.1541 15.5721 10.1622 16.2721C10.1734 17.347 10.5197 18.3917 11.1527 19.2606C11.3247 19.497 11.5156 19.719 11.7237 19.9244C11.7883 19.989 11.8538 20.0509 11.922 20.1111L11.9999 20.1792C12.1265 20.2881 12.2592 20.3907 12.3964 20.4872C12.4655 20.535 12.5345 20.5819 12.6053 20.627C12.6407 20.65 12.6762 20.6722 12.7133 20.6934C12.785 20.7368 12.8576 20.7819 12.9311 20.8191C12.9815 20.8465 13.032 20.8722 13.0833 20.8978L13.1223 20.9173L13.2719 20.9881C13.4587 21.0719 13.6502 21.1449 13.8455 21.2067L13.9252 21.2315C14.0662 21.2739 14.2087 21.3102 14.3527 21.3403L14.4563 21.3607L14.5607 21.3792C14.6307 21.3916 14.7006 21.4014 14.7714 21.4102C14.8422 21.4191 14.9015 21.4253 14.9679 21.4315C15.0564 21.4394 15.1379 21.4447 15.2228 21.4483H15.4202C16.5214 21.4483 17.6394 21.4483 18.7211 21.4483H22.5257C23.1214 21.4483 23.7224 21.4483 24.3173 21.443H24.4226C24.9125 21.451 25.4023 21.4214 25.8876 21.3545C25.9682 21.3412 26.0478 21.327 26.1275 21.3093C26.1656 21.3023 26.2036 21.2934 26.2417 21.2846L26.3515 21.258C26.9543 21.1045 27.5241 20.8427 28.0333 20.4854C28.0643 20.4642 28.0953 20.4421 28.1218 20.4191C28.1484 20.396 28.1829 20.3739 28.2103 20.3509L28.2989 20.281L28.3874 20.2084L28.4715 20.1367L28.4768 20.1314L28.5573 20.0589C28.6131 20.0075 28.6671 19.9553 28.7211 19.9022C28.7751 19.8491 28.8264 19.7943 28.8769 19.7376C28.9542 19.6544 29.0277 19.5686 29.0973 19.4801L29.1672 19.3916C29.2832 19.242 29.3902 19.0857 29.4877 18.9234C29.5479 18.8261 29.6036 18.727 29.655 18.6252C30.1115 17.7469 30.3161 16.7594 30.2463 15.7721C30.2171 15.3672 30.1384 14.9674 30.0117 14.5818L30.0091 14.5809ZM26.3612 20.2518C26.3152 20.2668 26.2727 20.281 26.2222 20.2943C26.1718 20.3075 26.1213 20.3226 26.07 20.335L26.0496 20.3403C25.9974 20.3527 25.946 20.3642 25.8929 20.3748C25.8398 20.3854 25.7805 20.3969 25.7238 20.4058C25.2878 20.4632 24.8481 20.4877 24.4085 20.4792H24.3022C23.3214 20.4863 22.3238 20.4845 21.3581 20.4837L18.7149 20.4845C17.6341 20.4845 16.517 20.4845 15.4185 20.4845H15.3087L15.1874 20.4792C15.1556 20.4792 15.1237 20.4792 15.0918 20.4721C15.0246 20.4677 14.9582 20.4606 14.8918 20.4518C14.852 20.4518 14.8121 20.4412 14.7723 20.435C14.7325 20.4288 14.7094 20.4252 14.6785 20.4191C14.6644 20.4173 14.6505 20.4146 14.6369 20.4111C14.5767 20.4014 14.5182 20.389 14.4598 20.3739C14.4253 20.3668 14.3908 20.3589 14.3571 20.3491C14.2216 20.3148 14.088 20.2731 13.957 20.2244C13.8924 20.2005 13.8287 20.1748 13.7649 20.1482C13.7278 20.1341 13.6915 20.1173 13.6552 20.1005C13.6189 20.0836 13.6012 20.0766 13.5755 20.0633C13.5215 20.0367 13.4675 20.0102 13.4144 19.9819C13.3613 19.9536 13.3091 19.9244 13.2577 19.8934C13.1542 19.8323 13.0541 19.7677 12.9559 19.6987C12.8437 19.6207 12.7356 19.5371 12.6319 19.4482L12.5292 19.3597L12.5062 19.3385C12.4726 19.3075 12.4398 19.2757 12.4071 19.2429C11.8157 18.6631 11.4062 17.9235 11.2289 17.1146C11.2067 17.0128 11.189 16.9084 11.174 16.8039C11.1503 16.6279 11.1376 16.4506 11.1359 16.273C11.1299 15.5619 11.2981 14.8602 11.6261 14.2292C11.954 13.5983 12.4315 13.0572 13.017 12.6534L13.1143 12.5879C13.1506 12.5649 13.1869 12.5419 13.2241 12.5198C13.2613 12.4977 13.2984 12.4755 13.3356 12.4543C13.3728 12.4331 13.4109 12.4127 13.4489 12.3932C13.487 12.3738 13.5259 12.3534 13.564 12.3348C13.626 12.3047 13.6879 12.2764 13.7517 12.2463L13.8473 12.2074C13.9429 12.1693 14.0393 12.1348 14.1385 12.1038C14.204 12.0835 14.2704 12.064 14.3368 12.0472C14.4448 12.0189 14.5545 11.995 14.6652 11.9764C14.7024 11.9693 14.7395 11.964 14.7776 11.9578L14.8449 11.949L14.9405 11.9375L15.0228 11.9295L15.1264 11.9215C15.1671 11.9215 15.2078 11.9162 15.2494 11.9153C15.291 11.9145 15.3282 11.9153 15.368 11.9153C18.4989 11.8941 21.7715 11.895 25.0936 11.9153C25.1467 11.9153 25.1989 11.9153 25.2512 11.9198H25.2609C25.314 11.9198 25.3671 11.9268 25.4202 11.9313L25.5663 11.9472H25.5937C25.6362 11.9525 25.6822 11.9596 25.7212 11.9667C25.777 11.9755 25.8318 11.9861 25.8867 11.9976L25.9425 12.01C25.9744 12.0162 26.0062 12.0242 26.0372 12.0322C26.0513 12.0348 26.0652 12.0383 26.0788 12.0428C26.1222 12.0534 26.1673 12.0658 26.2089 12.0791C26.2505 12.0923 26.3107 12.11 26.3612 12.1269L26.4541 12.1596C26.4851 12.1702 26.5152 12.1817 26.5427 12.1941C26.5701 12.2065 26.6037 12.218 26.6312 12.2313C26.6586 12.2446 26.6914 12.2561 26.7197 12.2702C26.779 12.2959 26.8383 12.3233 26.8967 12.3534C26.9259 12.3676 26.9551 12.3826 26.9852 12.3985L27.0623 12.441C27.1803 12.5053 27.2936 12.5752 27.4022 12.6508C27.4296 12.6685 27.4562 12.687 27.4818 12.7074C27.5075 12.7277 27.5349 12.7446 27.5606 12.7649C27.7164 12.8825 27.8643 13.0102 28.0032 13.1472C28.0262 13.1685 28.0492 13.1915 28.0723 13.2163C28.1608 13.3048 28.2387 13.3932 28.3157 13.4888L28.3529 13.534L28.3918 13.5844C28.4131 13.6101 28.4325 13.6357 28.4511 13.6623C28.4697 13.6888 28.4901 13.7145 28.5078 13.741C28.5255 13.7676 28.5458 13.7941 28.5635 13.8216C28.5812 13.849 28.5998 13.8756 28.6167 13.903C28.6706 13.9853 28.7202 14.0694 28.7671 14.1552C28.7697 14.1607 28.7727 14.166 28.776 14.1711C29.0597 14.6895 29.2279 15.2631 29.269 15.8526C29.2779 15.9889 29.2814 16.1243 29.2779 16.2588C29.2779 16.357 29.2708 16.4553 29.262 16.5526C29.2566 16.6172 29.2496 16.6818 29.2407 16.7455C29.2165 16.9358 29.1789 17.1242 29.1283 17.3093C29.0002 17.7924 28.7881 18.2492 28.5016 18.6588L28.4485 18.7341C28.4131 18.7836 28.375 18.8332 28.336 18.881C28.2971 18.9288 28.259 18.9765 28.2183 19.0226L28.1564 19.0916C28.1156 19.1367 28.0731 19.1801 28.0298 19.2252C27.9864 19.2704 27.9413 19.3137 27.897 19.3527C27.8527 19.3916 27.8085 19.4412 27.758 19.4757C27.6881 19.535 27.6155 19.5925 27.5403 19.6474C27.5155 19.6659 27.4907 19.6845 27.465 19.7013C27.4149 19.7367 27.3635 19.7713 27.311 19.8049C27.2331 19.8553 27.1534 19.9022 27.072 19.9474C26.9737 20.0005 26.8728 20.0509 26.7693 20.0969C26.7285 20.1155 26.6878 20.1323 26.6471 20.1491L26.5462 20.189L26.4692 20.2173L26.3612 20.2518ZM30.2436 15.7836C30.2155 15.3745 30.1367 14.9705 30.0091 14.5809C29.9967 14.5419 29.9834 14.5039 29.9701 14.4658C29.9177 14.3131 29.8572 14.1633 29.7886 14.0172C29.7046 13.8348 29.61 13.6575 29.5054 13.4862L29.4416 13.3844L29.3753 13.2835L29.3071 13.1853C29.2664 13.1269 29.2239 13.0693 29.1805 13.0127C29.1504 12.9738 29.1203 12.9357 29.092 12.8977L29.0203 12.8092L28.9318 12.7047C28.8804 12.6481 28.8282 12.5915 28.7751 12.5366C28.6349 12.3934 28.4872 12.2578 28.3325 12.1304C28.2714 12.0791 28.2086 12.0295 28.1448 11.9817L28.0475 11.9109C27.9829 11.864 27.9174 11.8224 27.8501 11.7746C27.8164 11.7534 27.7828 11.7313 27.7483 11.7109C27.7138 11.6906 27.6872 11.6729 27.6598 11.6543L27.5465 11.5879C27.4774 11.549 27.4066 11.5118 27.3349 11.4755C27.2632 11.4392 27.1897 11.4056 27.1163 11.3729C27.08 11.356 27.0428 11.3401 27.0056 11.3251L26.9171 11.2897L26.8525 11.2649L26.7781 11.2366L26.6648 11.1967C26.5542 11.1587 26.4426 11.1251 26.3293 11.0959L26.193 11.0622L26.0806 11.0374L25.9699 11.0153H25.9487C25.9124 11.0082 25.877 11.002 25.8407 10.9967C25.8044 10.9914 25.769 10.9852 25.7327 10.9808C25.6035 10.9631 25.4733 10.9507 25.3414 10.9436C25.3043 10.9436 25.2662 10.9436 25.2281 10.9383C25.1901 10.933 25.1458 10.9383 25.1042 10.9383C21.7777 10.9153 18.5007 10.9144 15.3671 10.9383C15.3235 10.9383 15.2801 10.9383 15.237 10.9383L15.1202 10.9428L14.9476 10.9551C14.8723 10.9613 14.798 10.9702 14.7236 10.9799C14.6785 10.9852 14.6351 10.9923 14.5882 10.9994L14.474 11.0189H14.4696L14.3456 11.0436H14.3315C14.2527 11.0605 14.1757 11.0782 14.0978 11.0985C14.0571 11.1091 14.0163 11.1198 13.9756 11.1321C13.9349 11.1445 13.9083 11.1516 13.8747 11.1622C13.8278 11.1755 13.7818 11.1905 13.7348 11.2074C13.6879 11.2242 13.6401 11.2401 13.5932 11.2578C13.5463 11.2755 13.5047 11.2906 13.4622 11.3083C13.4531 11.311 13.4442 11.3146 13.4356 11.3189L13.3471 11.356C13.3188 11.3672 13.2893 11.3796 13.2586 11.3932C13.2267 11.4065 13.1958 11.4215 13.1648 11.4366C13.0807 11.4764 12.9984 11.5189 12.916 11.564L12.9037 11.5711C12.8594 11.595 12.8151 11.6198 12.7726 11.6454L12.6434 11.7242L12.5159 11.8065L12.3911 11.895C12.3495 11.9242 12.3088 11.9543 12.2681 11.9835L12.1477 12.0773C12.1079 12.11 12.0689 12.1419 12.03 12.1755C11.991 12.2092 11.9521 12.2428 11.914 12.2773C11.8379 12.3463 11.7635 12.4171 11.6909 12.4915C11.1985 12.9891 10.8099 13.5796 10.5475 14.2285C10.285 14.8775 10.1541 15.5721 10.1622 16.2721C10.1734 17.347 10.5197 18.3917 11.1527 19.2606C11.3247 19.497 11.5156 19.719 11.7237 19.9244C11.7883 19.989 11.8538 20.0509 11.922 20.1111L11.9999 20.1792C12.1265 20.2881 12.2592 20.3907 12.3964 20.4872C12.4655 20.535 12.5345 20.5819 12.6053 20.627C12.6407 20.65 12.6762 20.6722 12.7133 20.6934C12.785 20.7368 12.8576 20.7819 12.9311 20.8191C12.9815 20.8465 13.032 20.8722 13.0833 20.8978L13.1223 20.9173L13.2719 20.9881C13.4587 21.0719 13.6502 21.1449 13.8455 21.2067L13.9252 21.2315C14.0662 21.2739 14.2087 21.3102 14.3527 21.3403L14.4563 21.3607L14.5607 21.3792C14.6307 21.3916 14.7006 21.4014 14.7714 21.4102C14.8422 21.4191 14.9015 21.4253 14.9679 21.4315C15.0564 21.4394 15.1379 21.4447 15.2228 21.4483H15.4202C16.5214 21.4483 17.6394 21.4483 18.7211 21.4483H22.5257C23.1214 21.4483 23.7224 21.4483 24.3173 21.443H24.4226C24.9125 21.451 25.4023 21.4214 25.8876 21.3545C25.9682 21.3412 26.0478 21.327 26.1275 21.3093C26.1656 21.3023 26.2036 21.2934 26.2417 21.2846L26.3515 21.258C26.9543 21.1045 27.5241 20.8427 28.0333 20.4854C28.0643 20.4642 28.0953 20.4421 28.1218 20.4191C28.1484 20.396 28.1829 20.3739 28.2103 20.3509L28.2989 20.281L28.3874 20.2084L28.4715 20.1367L28.4768 20.1314L28.5573 20.0589C28.6131 20.0075 28.6671 19.9553 28.7211 19.9022C28.7751 19.8491 28.8264 19.7943 28.8769 19.7376C28.9542 19.6544 29.0277 19.5686 29.0973 19.4801L29.1672 19.3916C29.2832 19.242 29.3902 19.0857 29.4877 18.9234C29.5479 18.8261 29.6036 18.727 29.655 18.6252C30.1092 17.7505 30.3138 16.7677 30.2463 15.7844L30.2436 15.7836ZM26.3612 20.2518C26.3152 20.2668 26.2727 20.281 26.2222 20.2943C26.1718 20.3075 26.1213 20.3226 26.07 20.335L26.0496 20.3403C25.9974 20.3527 25.946 20.3642 25.8929 20.3748C25.8398 20.3854 25.7805 20.3969 25.7238 20.4058C25.2878 20.4632 24.8481 20.4877 24.4085 20.4792H24.3022C23.3214 20.4863 22.3238 20.4845 21.3581 20.4837L18.7149 20.4845C17.6341 20.4845 16.517 20.4845 15.4185 20.4845H15.3087L15.1874 20.4792C15.1556 20.4792 15.1237 20.4792 15.0918 20.4721C15.0246 20.4677 14.9582 20.4606 14.8918 20.4518C14.852 20.4518 14.8121 20.4412 14.7723 20.435C14.7325 20.4288 14.7094 20.4252 14.6785 20.4191C14.6644 20.4173 14.6505 20.4146 14.6369 20.4111C14.5767 20.4014 14.5182 20.389 14.4598 20.3739C14.4253 20.3668 14.3908 20.3589 14.3571 20.3491C14.2216 20.3148 14.088 20.2731 13.957 20.2244C13.8924 20.2005 13.8287 20.1748 13.7649 20.1482C13.7278 20.1341 13.6915 20.1173 13.6552 20.1005C13.6189 20.0836 13.6012 20.0766 13.5755 20.0633C13.5215 20.0367 13.4675 20.0102 13.4144 19.9819C13.3613 19.9536 13.3091 19.9244 13.2577 19.8934C13.1542 19.8323 13.0541 19.7677 12.9559 19.6987C12.8437 19.6207 12.7356 19.5371 12.6319 19.4482L12.5292 19.3597L12.5062 19.3385C12.4726 19.3075 12.4398 19.2757 12.4071 19.2429C11.8157 18.6631 11.4062 17.9235 11.2289 17.1146C11.2067 17.0128 11.189 16.9084 11.174 16.8039C11.1503 16.6279 11.1376 16.4506 11.1359 16.273C11.1299 15.5619 11.2981 14.8602 11.6261 14.2292C11.954 13.5983 12.4315 13.0572 13.017 12.6534L13.1143 12.5879C13.1506 12.5649 13.1869 12.5419 13.2241 12.5198C13.2613 12.4977 13.2984 12.4755 13.3356 12.4543C13.3728 12.4331 13.4109 12.4127 13.4489 12.3932C13.487 12.3738 13.5259 12.3534 13.564 12.3348C13.626 12.3047 13.6879 12.2764 13.7517 12.2463L13.8473 12.2074C13.9429 12.1693 14.0393 12.1348 14.1385 12.1038C14.204 12.0835 14.2704 12.064 14.3368 12.0472C14.4448 12.0189 14.5545 11.995 14.6652 11.9764C14.7024 11.9693 14.7395 11.964 14.7776 11.9578L14.8449 11.949L14.9405 11.9375L15.0228 11.9295L15.1264 11.9215C15.1671 11.9215 15.2078 11.9162 15.2494 11.9153C15.291 11.9145 15.3282 11.9153 15.368 11.9153C18.4989 11.8941 21.7715 11.895 25.0936 11.9153C25.1467 11.9153 25.1989 11.9153 25.2512 11.9198H25.2609C25.314 11.9198 25.3671 11.9268 25.4202 11.9313L25.5663 11.9472H25.5937C25.6362 11.9525 25.6822 11.9596 25.7212 11.9667C25.777 11.9755 25.8318 11.9861 25.8867 11.9976L25.9425 12.01C25.9744 12.0162 26.0062 12.0242 26.0372 12.0322C26.0513 12.0348 26.0652 12.0383 26.0788 12.0428C26.1222 12.0534 26.1673 12.0658 26.2089 12.0791C26.2505 12.0923 26.3107 12.11 26.3612 12.1269L26.4541 12.1596C26.4851 12.1702 26.5152 12.1817 26.5427 12.1941C26.5701 12.2065 26.6037 12.218 26.6312 12.2313C26.6586 12.2446 26.6914 12.2561 26.7197 12.2702C26.779 12.2959 26.8383 12.3233 26.8967 12.3534C26.9259 12.3676 26.9551 12.3826 26.9852 12.3985L27.0623 12.441C27.1803 12.5053 27.2936 12.5752 27.4022 12.6508C27.4296 12.6685 27.4562 12.687 27.4818 12.7074C27.5075 12.7277 27.5349 12.7446 27.5606 12.7649C27.7164 12.8825 27.8643 13.0102 28.0032 13.1472C28.0262 13.1685 28.0492 13.1915 28.0723 13.2163C28.1608 13.3048 28.2387 13.3932 28.3157 13.4888L28.3529 13.534L28.3918 13.5844C28.4131 13.6101 28.4325 13.6357 28.4511 13.6623C28.4697 13.6888 28.4901 13.7145 28.5078 13.741C28.5255 13.7676 28.5458 13.7941 28.5635 13.8216C28.5812 13.849 28.5998 13.8756 28.6167 13.903C28.6706 13.9853 28.7202 14.0694 28.7671 14.1552C28.7697 14.1607 28.7727 14.166 28.776 14.1711C29.0597 14.6895 29.2279 15.2631 29.269 15.8526C29.2779 15.9889 29.2814 16.1243 29.2779 16.2588C29.2779 16.357 29.2708 16.4553 29.262 16.5526C29.2566 16.6172 29.2496 16.6818 29.2407 16.7455C29.2165 16.9358 29.1789 17.1242 29.1283 17.3093C29.0002 17.7924 28.7881 18.2492 28.5016 18.6588L28.4485 18.7341C28.4131 18.7836 28.375 18.8332 28.336 18.881C28.2971 18.9288 28.259 18.9765 28.2183 19.0226L28.1564 19.0916C28.1156 19.1367 28.0731 19.1801 28.0298 19.2252C27.9864 19.2704 27.9413 19.3137 27.897 19.3527C27.8527 19.3916 27.8085 19.4412 27.758 19.4757C27.6881 19.535 27.6155 19.5925 27.5403 19.6474C27.5155 19.6659 27.4907 19.6845 27.465 19.7013C27.4149 19.7367 27.3635 19.7713 27.311 19.8049C27.2331 19.8553 27.1534 19.9022 27.072 19.9474C26.9737 20.0005 26.8728 20.0509 26.7693 20.0969C26.7285 20.1155 26.6878 20.1323 26.6471 20.1491L26.5462 20.189L26.4692 20.2173L26.3612 20.2518ZM30.2436 15.7836C30.2155 15.3745 30.1367 14.9705 30.0091 14.5809C29.9967 14.5419 29.9834 14.5039 29.9701 14.4658C29.9177 14.3131 29.8572 14.1633 29.7886 14.0172C29.7046 13.8348 29.61 13.6575 29.5054 13.4862L29.4416 13.3844L29.3753 13.2835L29.3071 13.1853C29.2664 13.1269 29.2239 13.0693 29.1805 13.0127C29.1504 12.9738 29.1203 12.9357 29.092 12.8977L29.0203 12.8092L28.9318 12.7047C28.8804 12.6481 28.8282 12.5915 28.7751 12.5366C28.6349 12.3934 28.4872 12.2578 28.3325 12.1304C28.2714 12.0791 28.2086 12.0295 28.1448 11.9817L28.0475 11.9109C27.9829 11.864 27.9174 11.8224 27.8501 11.7746C27.8164 11.7534 27.7828 11.7313 27.7483 11.7109C27.7138 11.6906 27.6872 11.6729 27.6598 11.6543L27.5465 11.5879C27.4774 11.549 27.4066 11.5118 27.3349 11.4755C27.2632 11.4392 27.1897 11.4056 27.1163 11.3729C27.08 11.356 27.0428 11.3401 27.0056 11.3251L26.9171 11.2897L26.8525 11.2649L26.7781 11.2366L26.6648 11.1967C26.5542 11.1587 26.4426 11.1251 26.3293 11.0959L26.193 11.0622L26.0806 11.0374L25.9699 11.0153H25.9487C25.9124 11.0082 25.877 11.002 25.8407 10.9967C25.8044 10.9914 25.769 10.9852 25.7327 10.9808C25.6035 10.9631 25.4733 10.9507 25.3414 10.9436C25.3043 10.9436 25.2662 10.9436 25.2281 10.9383C25.1901 10.933 25.1458 10.9383 25.1042 10.9383C21.7777 10.9153 18.5007 10.9144 15.3671 10.9383C15.3235 10.9383 15.2801 10.9383 15.237 10.9383L15.1202 10.9428L14.9476 10.9551C14.8723 10.9613 14.798 10.9702 14.7236 10.9799C14.6785 10.9852 14.6351 10.9923 14.5882 10.9994L14.474 11.0189H14.4696L14.3456 11.0436H14.3315C14.2527 11.0605 14.1757 11.0782 14.0978 11.0985C14.0571 11.1091 14.0163 11.1198 13.9756 11.1321C13.9349 11.1445 13.9083 11.1516 13.8747 11.1622C13.8278 11.1755 13.7818 11.1905 13.7348 11.2074C13.6879 11.2242 13.6401 11.2401 13.5932 11.2578C13.5463 11.2755 13.5047 11.2906 13.4622 11.3083C13.4531 11.311 13.4442 11.3146 13.4356 11.3189L13.3471 11.356C13.3188 11.3672 13.2893 11.3796 13.2586 11.3932C13.2267 11.4065 13.1958 11.4215 13.1648 11.4366C13.0807 11.4764 12.9984 11.5189 12.916 11.564L12.9037 11.5711C12.8594 11.595 12.8151 11.6198 12.7726 11.6454L12.6434 11.7242L12.5159 11.8065L12.3911 11.895C12.3495 11.9242 12.3088 11.9543 12.2681 11.9835L12.1477 12.0773C12.1079 12.11 12.0689 12.1419 12.03 12.1755C11.991 12.2092 11.9521 12.2428 11.914 12.2773C11.8379 12.3463 11.7635 12.4171 11.6909 12.4915C11.1985 12.9891 10.8099 13.5796 10.5475 14.2285C10.285 14.8775 10.1541 15.5721 10.1622 16.2721C10.1734 17.347 10.5197 18.3917 11.1527 19.2606C11.3247 19.497 11.5156 19.719 11.7237 19.9244C11.7883 19.989 11.8538 20.0509 11.922 20.1111L11.9999 20.1792C12.1265 20.2881 12.2592 20.3907 12.3964 20.4872C12.4655 20.535 12.5345 20.5819 12.6053 20.627C12.6407 20.65 12.6762 20.6722 12.7133 20.6934C12.785 20.7368 12.8576 20.7819 12.9311 20.8191C12.9815 20.8465 13.032 20.8722 13.0833 20.8978L13.1223 20.9173L13.2719 20.9881C13.4587 21.0719 13.6502 21.1449 13.8455 21.2067L13.9252 21.2315C14.0662 21.2739 14.2087 21.3102 14.3527 21.3403L14.4563 21.3607L14.5607 21.3792C14.6307 21.3916 14.7006 21.4014 14.7714 21.4102C14.8422 21.4191 14.9015 21.4253 14.9679 21.4315C15.0564 21.4394 15.1379 21.4447 15.2228 21.4483H15.4202C16.5214 21.4483 17.6394 21.4483 18.7211 21.4483H22.5257C23.1214 21.4483 23.7224 21.4483 24.3173 21.443H24.4226C24.9125 21.451 25.4023 21.4214 25.8876 21.3545C25.9682 21.3412 26.0478 21.327 26.1275 21.3093C26.1656 21.3023 26.2036 21.2934 26.2417 21.2846L26.3515 21.258C26.9543 21.1045 27.5241 20.8427 28.0333 20.4854C28.0643 20.4642 28.0953 20.4421 28.1218 20.4191C28.1484 20.396 28.1829 20.3739 28.2103 20.3509L28.2989 20.281L28.3874 20.2084L28.4715 20.1367L28.4768 20.1314L28.5573 20.0589C28.6131 20.0075 28.6671 19.9553 28.7211 19.9022C28.7751 19.8491 28.8264 19.7943 28.8769 19.7376C28.9542 19.6544 29.0277 19.5686 29.0973 19.4801L29.1672 19.3916C29.2832 19.242 29.3902 19.0857 29.4877 18.9234C29.5479 18.8261 29.6036 18.727 29.655 18.6252C30.1092 17.7505 30.3138 16.7677 30.2463 15.7844L30.2436 15.7836ZM26.3612 20.2518C26.3152 20.2668 26.2727 20.281 26.2222 20.2943C26.1718 20.3075 26.1213 20.3226 26.07 20.335L26.0496 20.3403C25.9974 20.3527 25.946 20.3642 25.8929 20.3748C25.8398 20.3854 25.7805 20.3969 25.7238 20.4058C25.2878 20.4632 24.8481 20.4877 24.4085 20.4792H24.3022C23.3214 20.4863 22.3238 20.4845 21.3581 20.4837L18.7149 20.4845C17.6341 20.4845 16.517 20.4845 15.4185 20.4845H15.3087L15.1874 20.4792C15.1556 20.4792 15.1237 20.4792 15.0918 20.4721C15.0246 20.4677 14.9582 20.4606 14.8918 20.4518C14.852 20.4518 14.8121 20.4412 14.7723 20.435C14.7325 20.4288 14.7094 20.4252 14.6785 20.4191C14.6644 20.4173 14.6505 20.4146 14.6369 20.4111C14.5767 20.4014 14.5182 20.389 14.4598 20.3739C14.4253 20.3668 14.3908 20.3589 14.3571 20.3491C14.2216 20.3148 14.088 20.2731 13.957 20.2244C13.8924 20.2005 13.8287 20.1748 13.7649 20.1482C13.7278 20.1341 13.6915 20.1173 13.6552 20.1005C13.6189 20.0836 13.6012 20.0766 13.5755 20.0633C13.5215 20.0367 13.4675 20.0102 13.4144 19.9819C13.3613 19.9536 13.3091 19.9244 13.2577 19.8934C13.1542 19.8323 13.0541 19.7677 12.9559 19.6987C12.8437 19.6207 12.7356 19.5371 12.6319 19.4482L12.5292 19.3597L12.5062 19.3385C12.4726 19.3075 12.4398 19.2757 12.4071 19.2429C11.8157 18.6631 11.4062 17.9235 11.2289 17.1146C11.2067 17.0128 11.189 16.9084 11.174 16.8039C11.1503 16.6279 11.1376 16.4506 11.1359 16.273C11.1299 15.5619 11.2981 14.8602 11.6261 14.2292C11.954 13.5983 12.4315 13.0572 13.017 12.6534L13.1143 12.5879C13.1506 12.5649 13.1869 12.5419 13.2241 12.5198C13.2613 12.4977 13.2984 12.4755 13.3356 12.4543C13.3728 12.4331 13.4109 12.4127 13.4489 12.3932C13.487 12.3738 13.5259 12.3534 13.564 12.3348C13.626 12.3047 13.6879 12.2764 13.7517 12.2463L13.8473 12.2074C13.9429 12.1693 14.0393 12.1348 14.1385 12.1038C14.204 12.0835 14.2704 12.064 14.3368 12.0472C14.4448 12.0189 14.5545 11.995 14.6652 11.9764C14.7024 11.9693 14.7395 11.964 14.7776 11.9578L14.8449 11.949L14.9405 11.9375L15.0228 11.9295L15.1264 11.9215C15.1671 11.9215 15.2078 11.9162 15.2494 11.9153C15.291 11.9145 15.3282 11.9153 15.368 11.9153C18.4989 11.8941 21.7715 11.895 25.0936 11.9153C25.1467 11.9153 25.1989 11.9153 25.2512 11.9198H25.2609C25.314 11.9198 25.3671 11.9268 25.4202 11.9313L25.5663 11.9472H25.5937C25.6362 11.9525 25.6822 11.9596 25.7212 11.9667C25.777 11.9755 25.8318 11.9861 25.8867 11.9976L25.9425 12.01C25.9744 12.0162 26.0062 12.0242 26.0372 12.0322C26.0513 12.0348 26.0652 12.0383 26.0788 12.0428C26.1222 12.0534 26.1673 12.0658 26.2089 12.0791C26.2505 12.0923 26.3107 12.11 26.3612 12.1269L26.4541 12.1596C26.4851 12.1702 26.5152 12.1817 26.5427 12.1941C26.5701 12.2065 26.6037 12.218 26.6312 12.2313C26.6586 12.2446 26.6914 12.2561 26.7197 12.2702C26.779 12.2959 26.8383 12.3233 26.8967 12.3534C26.9259 12.3676 26.9551 12.3826 26.9852 12.3985L27.0623 12.441C27.1803 12.5053 27.2936 12.5752 27.4022 12.6508C27.4296 12.6685 27.4562 12.687 27.4818 12.7074C27.5075 12.7277 27.5349 12.7446 27.5606 12.7649C27.7164 12.8825 27.8643 13.0102 28.0032 13.1472C28.0262 13.1685 28.0492 13.1915 28.0723 13.2163C28.1608 13.3048 28.2387 13.3932 28.3157 13.4888L28.3529 13.534L28.3918 13.5844C28.4131 13.6101 28.4325 13.6357 28.4511 13.6623C28.4697 13.6888 28.4901 13.7145 28.5078 13.741C28.5255 13.7676 28.5458 13.7941 28.5635 13.8216C28.5812 13.849 28.5998 13.8756 28.6167 13.903C28.6706 13.9853 28.7202 14.0694 28.7671 14.1552C28.7697 14.1607 28.7727 14.166 28.776 14.1711C29.0597 14.6895 29.2279 15.2631 29.269 15.8526C29.2779 15.9889 29.2814 16.1243 29.2779 16.2588C29.2779 16.357 29.2708 16.4553 29.262 16.5526C29.2566 16.6172 29.2496 16.6818 29.2407 16.7455C29.2165 16.9358 29.1789 17.1242 29.1283 17.3093C29.0002 17.7924 28.7881 18.2492 28.5016 18.6588L28.4485 18.7341C28.4131 18.7836 28.375 18.8332 28.336 18.881C28.2971 18.9288 28.259 18.9765 28.2183 19.0226L28.1564 19.0916C28.1156 19.1367 28.0731 19.1801 28.0298 19.2252C27.9864 19.2704 27.9413 19.3137 27.897 19.3527C27.8527 19.3916 27.8085 19.4412 27.758 19.4757C27.6881 19.535 27.6155 19.5925 27.5403 19.6474C27.5155 19.6659 27.4907 19.6845 27.465 19.7013C27.4149 19.7367 27.3635 19.7713 27.311 19.8049C27.2331 19.8553 27.1534 19.9022 27.072 19.9474C26.9737 20.0005 26.8728 20.0509 26.7693 20.0969C26.7285 20.1155 26.6878 20.1323 26.6471 20.1491L26.5462 20.189L26.4692 20.2173L26.3612 20.2518Z" fill="#3C74E1"/>
<path d="M20.1958 20.973C18.6025 20.973 17.0083 20.9784 15.4149 20.973C12.8045 20.9624 10.6685 18.8491 10.6464 16.273C10.6243 13.6304 12.7284 11.4437 15.3636 11.4251C18.6093 11.4032 21.855 11.4032 25.1007 11.4251C27.5279 11.4428 29.5992 13.4207 29.7612 15.8207C29.9276 18.3181 28.2369 20.4934 25.8044 20.8845C25.3085 20.9487 24.8084 20.9756 24.3084 20.9651C22.9373 20.9748 21.5643 20.9651 20.195 20.9651L20.1958 20.973Z" fill="white"/>
<path d="M22.5203 21.4598H18.7158C17.6341 21.4598 16.5161 21.4598 15.4149 21.4598C12.5425 21.4483 10.1852 19.1235 10.1613 16.2774C10.1528 15.5775 10.2835 14.8828 10.5458 14.2338C10.8081 13.5848 11.1967 12.9944 11.6892 12.4968C12.1677 12.0069 12.7387 11.6169 13.3692 11.3494C13.9996 11.0819 14.6769 10.9421 15.3618 10.9383C18.498 10.9171 21.775 10.918 25.0989 10.9383C27.7545 10.9578 30.063 13.1331 30.2419 15.788C30.4277 18.5394 28.552 20.9394 25.8796 21.3713C25.3943 21.4382 24.9045 21.4678 24.4147 21.4598H24.3093C23.7171 21.458 23.1161 21.4598 22.5203 21.4598ZM20.6818 20.4863H21.3608C22.3265 20.4863 23.3241 20.4863 24.3049 20.4819H24.4111C24.8508 20.4904 25.2905 20.4658 25.7265 20.4084C27.9005 20.0544 29.4248 18.0987 29.2735 15.8517C29.1274 13.6933 27.2526 11.926 25.0945 11.91C21.7724 11.887 18.4998 11.8861 15.3689 11.91C14.812 11.9134 14.2614 12.0272 13.7489 12.2449C13.2363 12.4625 12.7721 12.7798 12.3832 13.1782C11.9811 13.5849 11.6637 14.0672 11.4495 14.5974C11.2352 15.1276 11.1283 15.695 11.135 16.2668C11.1545 18.5827 13.0763 20.4748 15.4185 20.4845C16.517 20.4845 17.6314 20.4845 18.7149 20.4845H20.195L20.6818 20.4863Z" fill="#3C74E1"/>
<path d="M14.0429 16.7163L14.0261 16.703C13.9581 16.6499 13.9017 16.5836 13.86 16.508C13.8184 16.4325 13.7924 16.3494 13.7837 16.2636C13.7751 16.1778 13.7838 16.0911 13.8095 16.0087C13.8352 15.9264 13.8772 15.8501 13.9331 15.7844C14.8484 14.7225 16.3931 14.5871 17.442 15.7844C17.4982 15.8502 17.5405 15.9267 17.5663 16.0093C17.592 16.0919 17.6007 16.1789 17.5919 16.2649C17.583 16.351 17.5568 16.4343 17.5147 16.51C17.4727 16.5856 17.4157 16.6519 17.3473 16.7048L17.3234 16.7234C17.2025 16.8178 17.0518 16.8659 16.8986 16.8589C16.7453 16.8519 16.5996 16.7904 16.4878 16.6853C15.7796 16.0287 15.5344 16.0207 14.8944 16.665C14.7834 16.7764 14.6354 16.8431 14.4784 16.8526C14.3215 16.8621 14.1665 16.8136 14.0429 16.7163Z" fill="#3C74E1"/>
<path d="M26.2691 16.7048L26.2417 16.7261C26.1217 16.8181 25.9732 16.8649 25.8221 16.8583C25.6711 16.8517 25.5272 16.792 25.4158 16.6898C24.6988 16.0375 24.42 16.0243 23.8154 16.6535C23.7057 16.7666 23.5581 16.8352 23.401 16.8461C23.2438 16.857 23.0881 16.8096 22.9638 16.7128L22.9541 16.7057C22.885 16.6526 22.8274 16.5859 22.7849 16.5098C22.7425 16.4337 22.7159 16.3497 22.707 16.263C22.698 16.1763 22.7069 16.0886 22.7329 16.0055C22.759 15.9223 22.8017 15.8453 22.8585 15.7791C23.7924 14.7048 25.3113 14.6127 26.3497 15.7606C26.4098 15.8262 26.4557 15.9037 26.4844 15.988C26.5131 16.0723 26.524 16.1616 26.5165 16.2503C26.5089 16.3391 26.483 16.4253 26.4404 16.5035C26.3979 16.5817 26.3395 16.6503 26.2691 16.7048Z" fill="#3C74E1"/>
<path d="M24.3297 27.6183H15.6734C11.9131 27.6183 8.86542 29.9573 8.86542 33.7158V36.1424C12.16 38.3768 16.0592 39.5508 20.0401 39.5068C24.021 39.4628 27.8933 38.203 31.1377 35.8964V33.7167C31.1377 29.9573 28.09 27.6183 24.3297 27.6183Z" fill="#CDDFF9"/>
<path d="M29.4602 28.8874C28.1369 27.7546 26.3152 27.1316 24.3261 27.1316L15.6734 27.1325C13.6879 27.1325 11.8671 27.7519 10.5393 28.8882C9.12301 30.1007 8.37502 31.7706 8.37502 33.7167L8.37502 36.3999L8.59189 36.5486C11.9032 38.8035 15.8184 40.0065 19.8249 40H19.9329C24.0552 39.9867 28.0712 38.6911 31.4236 36.2928L31.6281 36.1477V33.7167C31.6245 31.7697 30.8765 30.0998 29.4602 28.8874ZM30.6508 35.6432C27.4952 37.8365 23.7452 39.0147 19.902 39.0203H19.8276C16.104 39.0264 12.4613 37.9349 9.35493 35.8822V33.7167C9.35493 32.0635 9.98518 30.6493 11.1784 29.6281C12.3292 28.6466 13.9225 28.1059 15.6761 28.1059H24.3323C26.0859 28.1059 27.6828 28.6466 28.83 29.6281C30.0232 30.6493 30.6535 32.0635 30.6535 33.7167L30.6508 35.6432Z" fill="#3C74E1"/>
</svg>
