<svg viewBox="0 0 18 18" fill="none" xmlns="http://www.w3.org/2000/svg">
<path d="M13.1891 2.64107C13.1769 2.56756 13.0712 2.56756 13.059 2.64107C12.8736 3.75343 12.0019 4.6251 10.8896 4.81049C10.816 4.82274 10.816 4.92841 10.8896 4.94066C12.0019 5.12605 12.8736 5.99772 13.059 7.11008C13.0712 7.18359 13.1769 7.18359 13.1891 7.11008C13.3745 5.99772 14.2462 5.12605 15.3586 4.94066C15.4321 4.92841 15.4321 4.82274 15.3586 4.81049C14.2462 4.6251 13.3745 3.75343 13.1891 2.64107Z" />
<path d="M8.39784 4.64305C8.36984 4.47503 8.12832 4.47503 8.10032 4.64305C7.67657 7.18559 5.68418 9.17797 3.14164 9.60173C2.97362 9.62973 2.97362 9.87124 3.14164 9.89925C5.68418 10.323 7.67657 12.3154 8.10032 14.8579C8.12832 15.026 8.36984 15.026 8.39784 14.8579C8.8216 12.3154 10.814 10.323 13.3565 9.89925C13.5245 9.87124 13.5245 9.62973 13.3565 9.60173C10.814 9.17797 8.8216 7.18559 8.39784 4.64305Z" />
</svg>
