<svg width="18" height="15" viewBox="0 0 18 15" fill="none" xmlns="http://www.w3.org/2000/svg">
<path d="M0.75 14.25L9 0L17.25 14.25H0.75ZM2.7 13.125H15.3L9 2.25L2.7 13.125ZM9.07828 12.0563C9.23859 12.0563 9.37188 12.002 9.47813 11.8936C9.58438 11.7851 9.6375 11.6508 9.6375 11.4905C9.6375 11.3302 9.58328 11.1969 9.47484 11.0906C9.36639 10.9844 9.23202 10.9313 9.07172 10.9313C8.91141 10.9313 8.77813 10.9855 8.67188 11.0939C8.56563 11.2024 8.5125 11.3367 8.5125 11.497C8.5125 11.6573 8.56672 11.7906 8.67516 11.8969C8.78361 12.0031 8.91798 12.0563 9.07828 12.0563ZM8.5125 9.975H9.6375V5.775H8.5125V9.975Z" fill="#243A57"/>
</svg>
