<svg width="24" height="24" viewBox="0 0 24 24" fill="none" xmlns="http://www.w3.org/2000/svg">
<g id="document_scanner_FILL0_wght400_GRAD0_opsz24">
<path id="Vector" d="M2 6V2C2 1.44772 2.44772 1 3 1H7V3H5C4.44772 3 4 3.44772 4 4V6H2ZM20 6V4C20 3.44772 19.5523 3 19 3H17V1H21C21.5523 1 22 1.44772 22 2V6H20ZM3 23C2.44772 23 2 22.5523 2 22V18H4V20C4 20.5523 4.44772 21 5 21H7V23H3ZM17 23V21H19C19.5523 21 20 20.5523 20 20V18H22V22C22 22.5523 21.5523 23 21 23H17ZM7 18H17V6H7V18ZM7 20C6.45 20 5.97917 19.8042 5.5875 19.4125C5.19583 19.0208 5 18.55 5 18V6C5 5.45 5.19583 4.97917 5.5875 4.5875C5.97917 4.19583 6.45 4 7 4H17C17.55 4 18.0208 4.19583 18.4125 4.5875C18.8042 4.97917 19 5.45 19 6V18C19 18.55 18.8042 19.0208 18.4125 19.4125C18.0208 19.8042 17.55 20 17 20H7ZM9 9C9 9.55229 9.44772 10 10 10H14C14.5523 10 15 9.55229 15 9C15 8.44772 14.5523 8 14 8H10C9.44772 8 9 8.44772 9 9ZM9 12C9 12.5523 9.44772 13 10 13H14C14.5523 13 15 12.5523 15 12C15 11.4477 14.5523 11 14 11H10C9.44772 11 9 11.4477 9 12ZM9 15C9 15.5523 9.44772 16 10 16H14C14.5523 16 15 15.5523 15 15C15 14.4477 14.5523 14 14 14H10C9.44772 14 9 14.4477 9 15Z" fill="#B318CC"/>
</g>
</svg>
