<svg width="101" height="75" viewBox="0 0 101 75" fill="none" xmlns="http://www.w3.org/2000/svg">
<path d="M46.085 74.9303C69.3278 74.9303 88.1699 73.155 88.1699 70.9651C88.1699 68.7752 69.3278 67 46.085 67C22.8421 67 4 68.7752 4 70.9651C4 73.155 22.8421 74.9303 46.085 74.9303Z" fill="#171717"/>
<path d="M48.9069 55.5264C52.1644 56.6683 53.1347 61.3059 50.5742 65.7159C48.0136 70.1259 43.4881 71.604 40.868 69.3658C38.6087 67.4323 38.5772 63.3165 40.5353 59.9433C42.4933 56.5702 46.1046 54.5421 48.9069 55.5264Z" fill="#5A8EFF"/>
<path d="M47.743 55.1122C50.8114 56.1876 51.6625 60.6431 49.1861 64.92C46.7096 69.1969 42.4048 70.675 39.9353 68.5699C37.7986 66.7414 37.8091 62.7658 39.7181 59.4627C41.6271 56.1596 45.0844 54.184 47.743 55.1122Z" fill="#5A8EFF"/>
<path opacity="0.4" d="M47.743 55.1122C50.8114 56.1876 51.6625 60.6431 49.1861 64.92C46.7096 69.1969 42.4048 70.675 39.9353 68.5699C37.7986 66.7414 37.8091 62.7658 39.7181 59.4627C41.6271 56.1596 45.0844 54.184 47.743 55.1122Z" fill="#0D0D0D"/>
<path d="M46.6768 56.7657C46.8053 56.8175 46.9304 56.8772 47.0516 56.9444C47.0516 56.9444 47.0726 56.9444 47.0831 56.9444C48.9326 58.0687 49.2618 61.1477 47.605 63.9849C45.9482 66.8221 43.1075 68.1112 41.202 67.0849C41.202 67.0849 41.202 67.0603 41.174 67.0638C41.0654 66.9938 40.9428 66.9167 40.8237 66.8292C39.1564 65.5296 39.1108 62.5068 40.582 59.9743C42.0531 57.4418 44.7047 55.9741 46.6768 56.7657Z" fill="#5A8EFF"/>
<path opacity="0.3" d="M47.0548 56.9441C47.0548 56.9441 47.0758 56.9441 47.0863 56.9441C48.9358 58.0685 49.2651 61.1474 47.6083 63.9847C45.9515 66.8219 43.1107 68.1109 41.2052 67.0846C41.2052 67.0846 41.2052 67.0601 41.1772 67.0636C39.7761 65.5784 39.8216 62.7412 41.2192 60.3348C42.6168 57.9284 45.0583 56.4853 47.0548 56.9441Z" fill="#0D0D0D"/>
<path d="M39.5278 52.1445H23.1523V54.7716H39.5278V52.1445Z" fill="#5A8EFF"/>
<path opacity="0.6" d="M39.5278 52.1445H23.1523V54.7716H39.5278V52.1445Z" fill="#0D0D0D"/>
<path opacity="0.2" d="M38.4559 52.1445L23.1523 54.7716H39.5278V52.1445H38.4559Z" fill="white"/>
<path d="M39.5339 52.1445H39.1836V54.7716H39.5339V52.1445Z" fill="#5A8EFF"/>
<path d="M38.0768 52.1445H37.7266V54.7716H38.0768V52.1445Z" fill="#5A8EFF"/>
<path d="M36.6159 52.1445H36.2656V54.7716H36.6159V52.1445Z" fill="#5A8EFF"/>
<path d="M35.1589 52.1445H34.8086V54.7716H35.1589V52.1445Z" fill="#5A8EFF"/>
<path d="M33.7018 52.1445H33.3516V54.7716H33.7018V52.1445Z" fill="#5A8EFF"/>
<path d="M32.2409 52.1445H31.8906V54.7716H32.2409V52.1445Z" fill="#5A8EFF"/>
<path d="M30.7839 52.1445H30.4336V54.7716H30.7839V52.1445Z" fill="#5A8EFF"/>
<path d="M29.3347 52.1445H28.9844V54.7716H29.3347V52.1445Z" fill="#5A8EFF"/>
<path d="M27.8737 52.1445H27.5234V54.7716H27.8737V52.1445Z" fill="#5A8EFF"/>
<path d="M26.4167 52.1445H26.0664V54.7716H26.4167V52.1445Z" fill="#5A8EFF"/>
<path d="M24.9636 52.1445H24.6133V54.7716H24.9636V52.1445Z" fill="#5A8EFF"/>
<path d="M23.5026 52.1445H23.1523V54.7716H23.5026V52.1445Z" fill="#5A8EFF"/>
<path d="M39.5278 54.4258H23.1523V54.7761H39.5278V54.4258Z" fill="#5A8EFF"/>
<path d="M40.5785 54.7695H24.2031V57.3966H40.5785V54.7695Z" fill="#5A8EFF"/>
<path opacity="0.6" d="M40.5785 54.7695H24.2031V57.3966H40.5785V54.7695Z" fill="#0D0D0D"/>
<path opacity="0.2" d="M39.5067 54.7695L24.2031 57.3966H40.5785V54.7695H39.5067Z" fill="white"/>
<path d="M40.5807 54.7695H40.2305V57.3966H40.5807V54.7695Z" fill="#5A8EFF"/>
<path d="M39.1198 54.7695H38.7695V57.3966H39.1198V54.7695Z" fill="#5A8EFF"/>
<path d="M37.6706 54.7695H37.3203V57.3966H37.6706V54.7695Z" fill="#5A8EFF"/>
<path d="M36.2097 54.7695H35.8594V57.3966H36.2097V54.7695Z" fill="#5A8EFF"/>
<path d="M34.7526 54.7695H34.4023V57.3966H34.7526V54.7695Z" fill="#5A8EFF"/>
<path d="M33.2956 54.7695H32.9453V57.3966H33.2956V54.7695Z" fill="#5A8EFF"/>
<path d="M31.8386 54.7695H31.4883V57.3966H31.8386V54.7695Z" fill="#5A8EFF"/>
<path d="M30.3854 54.7695H30.0352V57.3966H30.3854V54.7695Z" fill="#5A8EFF"/>
<path d="M28.9284 54.7695H28.5781V57.3966H28.9284V54.7695Z" fill="#5A8EFF"/>
<path d="M27.4714 54.7695H27.1211V57.3966H27.4714V54.7695Z" fill="#5A8EFF"/>
<path d="M26.0065 54.7695H25.6562V57.3966H26.0065V54.7695Z" fill="#5A8EFF"/>
<path d="M24.5534 54.7695H24.2031V57.3966H24.5534V54.7695Z" fill="#5A8EFF"/>
<path d="M40.5785 57.0508H24.2031V57.4011H40.5785V57.0508Z" fill="#5A8EFF"/>
<path d="M42.6801 57.3984H26.3047V60.0255H42.6801V57.3984Z" fill="#5A8EFF"/>
<path opacity="0.6" d="M42.6801 57.3984H26.3047V60.0255H42.6801V57.3984Z" fill="#0D0D0D"/>
<path opacity="0.2" d="M41.6083 57.3984L26.3047 60.0255H42.6801V57.3984H41.6083Z" fill="white"/>
<path d="M42.6862 57.3984H42.3359V60.0255H42.6862V57.3984Z" fill="#5A8EFF"/>
<path d="M41.2253 57.3984H40.875V60.0255H41.2253V57.3984Z" fill="#5A8EFF"/>
<path d="M39.7643 57.3984H39.4141V60.0255H39.7643V57.3984Z" fill="#5A8EFF"/>
<path d="M38.3112 57.3984H37.9609V60.0255H38.3112V57.3984Z" fill="#5A8EFF"/>
<path d="M36.8542 57.3984H36.5039V60.0255H36.8542V57.3984Z" fill="#5A8EFF"/>
<path d="M35.3972 57.3984H35.0469V60.0255H35.3972V57.3984Z" fill="#5A8EFF"/>
<path d="M33.944 57.3984H33.5938V60.0255H33.944V57.3984Z" fill="#5A8EFF"/>
<path d="M32.4792 57.3984H32.1289V60.0255H32.4792V57.3984Z" fill="#5A8EFF"/>
<path d="M31.03 57.3984H30.6797V60.0255H31.03V57.3984Z" fill="#5A8EFF"/>
<path d="M29.5729 57.3984H29.2227V60.0255H29.5729V57.3984Z" fill="#5A8EFF"/>
<path d="M28.1198 57.3984H27.7695V60.0255H28.1198V57.3984Z" fill="#5A8EFF"/>
<path d="M26.655 57.3984H26.3047V60.0255H26.655V57.3984Z" fill="#5A8EFF"/>
<path d="M42.6801 59.6758H26.3047V60.0261H42.6801V59.6758Z" fill="#5A8EFF"/>
<path d="M40.5785 60.0234H24.2031V62.6505H40.5785V60.0234Z" fill="#5A8EFF"/>
<path opacity="0.6" d="M40.5785 60.0234H24.2031V62.6505H40.5785V60.0234Z" fill="#0D0D0D"/>
<path opacity="0.2" d="M39.5067 60.0234L24.2031 62.6505H40.5785V60.0234H39.5067Z" fill="white"/>
<path d="M40.5807 60.0234H40.2305V62.6505H40.5807V60.0234Z" fill="#5A8EFF"/>
<path d="M39.1198 60.0234H38.7695V62.6505H39.1198V60.0234Z" fill="#5A8EFF"/>
<path d="M37.6706 60.0234H37.3203V62.6505H37.6706V60.0234Z" fill="#5A8EFF"/>
<path d="M36.2097 60.0234H35.8594V62.6505H36.2097V60.0234Z" fill="#5A8EFF"/>
<path d="M34.7526 60.0234H34.4023V62.6505H34.7526V60.0234Z" fill="#5A8EFF"/>
<path d="M33.2956 60.0234H32.9453V62.6505H33.2956V60.0234Z" fill="#5A8EFF"/>
<path d="M31.8386 60.0234H31.4883V62.6505H31.8386V60.0234Z" fill="#5A8EFF"/>
<path d="M30.3854 60.0234H30.0352V62.6505H30.3854V60.0234Z" fill="#5A8EFF"/>
<path d="M28.9284 60.0234H28.5781V62.6505H28.9284V60.0234Z" fill="#5A8EFF"/>
<path d="M27.4714 60.0234H27.1211V62.6505H27.4714V60.0234Z" fill="#5A8EFF"/>
<path d="M26.0065 60.0234H25.6562V62.6505H26.0065V60.0234Z" fill="#5A8EFF"/>
<path d="M24.5534 60.0234H24.2031V62.6505H24.5534V60.0234Z" fill="#5A8EFF"/>
<path d="M40.5785 62.2969H24.2031V62.6472H40.5785V62.2969Z" fill="#5A8EFF"/>
<path d="M41.9809 62.6484H25.6055V65.2755H41.9809V62.6484Z" fill="#5A8EFF"/>
<path opacity="0.6" d="M41.9809 62.6484H25.6055V65.2755H41.9809V62.6484Z" fill="#0D0D0D"/>
<path opacity="0.2" d="M40.909 62.6484L25.6055 65.2755H41.9809V62.6484H40.909Z" fill="white"/>
<path d="M41.9792 62.6484H41.6289V65.2755H41.9792V62.6484Z" fill="#5A8EFF"/>
<path d="M40.5222 62.6484H40.1719V65.2755H40.5222V62.6484Z" fill="#5A8EFF"/>
<path d="M39.069 62.6484H38.7188V65.2755H39.069V62.6484Z" fill="#5A8EFF"/>
<path d="M37.6159 62.6484H37.2656V65.2755H37.6159V62.6484Z" fill="#5A8EFF"/>
<path d="M36.155 62.6484H35.8047V65.2755H36.155V62.6484Z" fill="#5A8EFF"/>
<path d="M34.6979 62.6484H34.3477V65.2755H34.6979V62.6484Z" fill="#5A8EFF"/>
<path d="M33.2409 62.6484H32.8906V65.2755H33.2409V62.6484Z" fill="#5A8EFF"/>
<path d="M31.7839 62.6484H31.4336V65.2755H31.7839V62.6484Z" fill="#5A8EFF"/>
<path d="M30.3268 62.6484H29.9766V65.2755H30.3268V62.6484Z" fill="#5A8EFF"/>
<path d="M28.8737 62.6484H28.5234V65.2755H28.8737V62.6484Z" fill="#5A8EFF"/>
<path d="M27.4206 62.6484H27.0703V65.2755H27.4206V62.6484Z" fill="#5A8EFF"/>
<path d="M25.9557 62.6484H25.6055V65.2755H25.9557V62.6484Z" fill="#5A8EFF"/>
<path d="M41.9809 64.9297H25.6055V65.28H41.9809V64.9297Z" fill="#5A8EFF"/>
<path d="M41.6332 65.2734H25.2578V67.9005H41.6332V65.2734Z" fill="#5A8EFF"/>
<path opacity="0.6" d="M41.6332 65.2734H25.2578V67.9005H41.6332V65.2734Z" fill="#0D0D0D"/>
<path opacity="0.2" d="M40.5614 65.2734L25.2578 67.9005H41.6332V65.2734H40.5614Z" fill="white"/>
<path d="M41.6315 65.2734H41.2812V67.9005H41.6315V65.2734Z" fill="#5A8EFF"/>
<path d="M40.1706 65.2734H39.8203V67.9005H40.1706V65.2734Z" fill="#5A8EFF"/>
<path d="M38.7136 65.2734H38.3633V67.9005H38.7136V65.2734Z" fill="#5A8EFF"/>
<path d="M37.2643 65.2734H36.9141V67.9005H37.2643V65.2734Z" fill="#5A8EFF"/>
<path d="M35.8073 65.2734H35.457V67.9005H35.8073V65.2734Z" fill="#5A8EFF"/>
<path d="M34.3425 65.2734H33.9922V67.9005H34.3425V65.2734Z" fill="#5A8EFF"/>
<path d="M32.8893 65.2734H32.5391V67.9005H32.8893V65.2734Z" fill="#5A8EFF"/>
<path d="M31.4401 65.2734H31.0898V67.9005H31.4401V65.2734Z" fill="#5A8EFF"/>
<path d="M29.9831 65.2734H29.6328V67.9005H29.9831V65.2734Z" fill="#5A8EFF"/>
<path d="M28.5222 65.2734H28.1719V67.9005H28.5222V65.2734Z" fill="#5A8EFF"/>
<path d="M27.0651 65.2734H26.7148V67.9005H27.0651V65.2734Z" fill="#5A8EFF"/>
<path d="M25.6081 65.2734H25.2578V67.9005H25.6081V65.2734Z" fill="#5A8EFF"/>
<path d="M41.6332 67.5547H25.2578V67.905H41.6332V67.5547Z" fill="#5A8EFF"/>
<path d="M40.5785 67.9023H24.2031V70.5294H40.5785V67.9023Z" fill="#5A8EFF"/>
<path opacity="0.6" d="M40.5785 67.9023H24.2031V70.5294H40.5785V67.9023Z" fill="#0D0D0D"/>
<path opacity="0.2" d="M39.5067 67.9023L24.2031 70.5294H40.5785V67.9023H39.5067Z" fill="white"/>
<path d="M40.5807 67.9023H40.2305V70.5294H40.5807V67.9023Z" fill="#5A8EFF"/>
<path d="M39.1198 67.9023H38.7695V70.5294H39.1198V67.9023Z" fill="#5A8EFF"/>
<path d="M37.6706 67.9023H37.3203V70.5294H37.6706V67.9023Z" fill="#5A8EFF"/>
<path d="M36.2097 67.9023H35.8594V70.5294H36.2097V67.9023Z" fill="#5A8EFF"/>
<path d="M34.7526 67.9023H34.4023V70.5294H34.7526V67.9023Z" fill="#5A8EFF"/>
<path d="M33.2956 67.9023H32.9453V70.5294H33.2956V67.9023Z" fill="#5A8EFF"/>
<path d="M31.8386 67.9023H31.4883V70.5294H31.8386V67.9023Z" fill="#5A8EFF"/>
<path d="M30.3854 67.9023H30.0352V70.5294H30.3854V67.9023Z" fill="#5A8EFF"/>
<path d="M28.9284 67.9023H28.5781V70.5294H28.9284V67.9023Z" fill="#5A8EFF"/>
<path d="M27.4714 67.9023H27.1211V70.5294H27.4714V67.9023Z" fill="#5A8EFF"/>
<path d="M26.0065 67.9023H25.6562V70.5294H26.0065V67.9023Z" fill="#5A8EFF"/>
<path d="M24.5534 67.9023H24.2031V70.5294H24.5534V67.9023Z" fill="#5A8EFF"/>
<path d="M40.5785 70.1875H24.2031V70.5378H40.5785V70.1875Z" fill="#5A8EFF"/>
<path d="M80.3559 59.9023H63.9805V62.5294H80.3559V59.9023Z" fill="#5A8EFF"/>
<path opacity="0.6" d="M80.3559 59.9023H63.9805V62.5294H80.3559V59.9023Z" fill="#0D0D0D"/>
<path opacity="0.2" d="M79.284 59.9023L63.9805 62.5294H80.3559V59.9023H79.284Z" fill="white"/>
<path d="M80.3542 59.9023H80.0039V62.5294H80.3542V59.9023Z" fill="#5A8EFF"/>
<path d="M78.9011 59.9023H78.5508V62.5294H78.9011V59.9023Z" fill="#5A8EFF"/>
<path d="M77.444 59.9023H77.0938V62.5294H77.444V59.9023Z" fill="#5A8EFF"/>
<path d="M75.987 59.9023H75.6367V62.5294H75.987V59.9023Z" fill="#5A8EFF"/>
<path d="M74.5339 59.9023H74.1836V62.5294H74.5339V59.9023Z" fill="#5A8EFF"/>
<path d="M73.069 59.9023H72.7188V62.5294H73.069V59.9023Z" fill="#5A8EFF"/>
<path d="M71.6159 59.9023H71.2656V62.5294H71.6159V59.9023Z" fill="#5A8EFF"/>
<path d="M70.1589 59.9023H69.8086V62.5294H70.1589V59.9023Z" fill="#5A8EFF"/>
<path d="M68.7018 59.9023H68.3516V62.5294H68.7018V59.9023Z" fill="#5A8EFF"/>
<path d="M67.2526 59.9023H66.9023V62.5294H67.2526V59.9023Z" fill="#5A8EFF"/>
<path d="M65.7878 59.9023H65.4375V62.5294H65.7878V59.9023Z" fill="#5A8EFF"/>
<path d="M64.3307 59.9023H63.9805V62.5294H64.3307V59.9023Z" fill="#5A8EFF"/>
<path d="M80.3559 62.1797H63.9805V62.53H80.3559V62.1797Z" fill="#5A8EFF"/>
<path d="M79.3012 62.5234H62.9258V65.1505H79.3012V62.5234Z" fill="#5A8EFF"/>
<path opacity="0.6" d="M79.3012 62.5234H62.9258V65.1505H79.3012V62.5234Z" fill="#0D0D0D"/>
<path opacity="0.2" d="M78.2293 62.5234L62.9258 65.1505H79.3012V62.5234H78.2293Z" fill="white"/>
<path d="M79.2995 62.5234H78.9492V65.1505H79.2995V62.5234Z" fill="#5A8EFF"/>
<path d="M77.8464 62.5234H77.4961V65.1505H77.8464V62.5234Z" fill="#5A8EFF"/>
<path d="M76.3932 62.5234H76.043V65.1505H76.3932V62.5234Z" fill="#5A8EFF"/>
<path d="M74.9323 62.5234H74.582V65.1505H74.9323V62.5234Z" fill="#5A8EFF"/>
<path d="M73.4792 62.5234H73.1289V65.1505H73.4792V62.5234Z" fill="#5A8EFF"/>
<path d="M72.0222 62.5234H71.6719V65.1505H72.0222V62.5234Z" fill="#5A8EFF"/>
<path d="M70.5651 62.5234H70.2148V65.1505H70.5651V62.5234Z" fill="#5A8EFF"/>
<path d="M69.1081 62.5234H68.7578V65.1505H69.1081V62.5234Z" fill="#5A8EFF"/>
<path d="M67.6472 62.5234H67.2969V65.1505H67.6472V62.5234Z" fill="#5A8EFF"/>
<path d="M66.194 62.5234H65.8438V65.1505H66.194V62.5234Z" fill="#5A8EFF"/>
<path d="M64.737 62.5234H64.3867V65.1505H64.737V62.5234Z" fill="#5A8EFF"/>
<path d="M63.2761 62.5234H62.9258V65.1505H63.2761V62.5234Z" fill="#5A8EFF"/>
<path d="M79.3012 64.8047H62.9258V65.155H79.3012V64.8047Z" fill="#5A8EFF"/>
<path d="M80.3559 65.1523H63.9805V67.7794H80.3559V65.1523Z" fill="#5A8EFF"/>
<path opacity="0.6" d="M80.3559 65.1523H63.9805V67.7794H80.3559V65.1523Z" fill="#0D0D0D"/>
<path opacity="0.2" d="M79.284 65.1523L63.9805 67.7794H80.3559V65.1523H79.284Z" fill="white"/>
<path d="M80.3542 65.1523H80.0039V67.7794H80.3542V65.1523Z" fill="#5A8EFF"/>
<path d="M78.9011 65.1523H78.5508V67.7794H78.9011V65.1523Z" fill="#5A8EFF"/>
<path d="M77.444 65.1523H77.0938V67.7794H77.444V65.1523Z" fill="#5A8EFF"/>
<path d="M75.987 65.1523H75.6367V67.7794H75.987V65.1523Z" fill="#5A8EFF"/>
<path d="M74.5339 65.1523H74.1836V67.7794H74.5339V65.1523Z" fill="#5A8EFF"/>
<path d="M73.069 65.1523H72.7188V67.7794H73.069V65.1523Z" fill="#5A8EFF"/>
<path d="M71.6159 65.1523H71.2656V67.7794H71.6159V65.1523Z" fill="#5A8EFF"/>
<path d="M70.1589 65.1523H69.8086V67.7794H70.1589V65.1523Z" fill="#5A8EFF"/>
<path d="M68.7018 65.1523H68.3516V67.7794H68.7018V65.1523Z" fill="#5A8EFF"/>
<path d="M67.2526 65.1523H66.9023V67.7794H67.2526V65.1523Z" fill="#5A8EFF"/>
<path d="M65.7878 65.1523H65.4375V67.7794H65.7878V65.1523Z" fill="#5A8EFF"/>
<path d="M64.3307 65.1523H63.9805V67.7794H64.3307V65.1523Z" fill="#5A8EFF"/>
<path d="M80.3559 67.4258H63.9805V67.7761H80.3559V67.4258Z" fill="#5A8EFF"/>
<path d="M78.602 67.7773H62.2266V70.4044H78.602V67.7773Z" fill="#5A8EFF"/>
<path opacity="0.6" d="M78.602 67.7773H62.2266V70.4044H78.602V67.7773Z" fill="#0D0D0D"/>
<path opacity="0.2" d="M77.5301 67.7773L62.2266 70.4044H78.602V67.7773H77.5301Z" fill="white"/>
<path d="M78.6042 67.7773H78.2539V70.4044H78.6042V67.7773Z" fill="#5A8EFF"/>
<path d="M77.1472 67.7773H76.7969V70.4044H77.1472V67.7773Z" fill="#5A8EFF"/>
<path d="M75.694 67.7773H75.3438V70.4044H75.694V67.7773Z" fill="#5A8EFF"/>
<path d="M74.237 67.7773H73.8867V70.4044H74.237V67.7773Z" fill="#5A8EFF"/>
<path d="M72.7761 67.7773H72.4258V70.4044H72.7761V67.7773Z" fill="#5A8EFF"/>
<path d="M71.3268 67.7773H70.9766V70.4044H71.3268V67.7773Z" fill="#5A8EFF"/>
<path d="M69.8659 67.7773H69.5156V70.4044H69.8659V67.7773Z" fill="#5A8EFF"/>
<path d="M68.4089 67.7773H68.0586V70.4044H68.4089V67.7773Z" fill="#5A8EFF"/>
<path d="M66.9518 67.7773H66.6016V70.4044H66.9518V67.7773Z" fill="#5A8EFF"/>
<path d="M65.4909 67.7773H65.1406V70.4044H65.4909V67.7773Z" fill="#5A8EFF"/>
<path d="M64.0339 67.7773H63.6836V70.4044H64.0339V67.7773Z" fill="#5A8EFF"/>
<path d="M62.5768 67.7773H62.2266V70.4044H62.5768V67.7773Z" fill="#5A8EFF"/>
<path d="M78.602 70.0586H62.2266V70.4089H78.602V70.0586Z" fill="#5A8EFF"/>
<path d="M60.3168 52.1445H43.9414V54.7716H60.3168V52.1445Z" fill="#5A8EFF"/>
<path opacity="0.6" d="M60.3168 52.1445H43.9414V54.7716H60.3168V52.1445Z" fill="#0D0D0D"/>
<path opacity="0.2" d="M59.245 52.1445L43.9414 54.7716H60.3203V52.1445H59.245Z" fill="white"/>
<path d="M60.319 52.1445H59.9688V54.7716H60.319V52.1445Z" fill="#5A8EFF"/>
<path d="M58.8698 52.1445H58.5195V54.7716H58.8698V52.1445Z" fill="#5A8EFF"/>
<path d="M57.4089 52.1445H57.0586V54.7716H57.4089V52.1445Z" fill="#5A8EFF"/>
<path d="M55.9557 52.1445H55.6055V54.7716H55.9557V52.1445Z" fill="#5A8EFF"/>
<path d="M54.4948 52.1445H54.1445V54.7716H54.4948V52.1445Z" fill="#5A8EFF"/>
<path d="M53.0378 52.1445H52.6875V54.7716H53.0378V52.1445Z" fill="#5A8EFF"/>
<path d="M51.5847 52.1445H51.2344V54.7716H51.5847V52.1445Z" fill="#5A8EFF"/>
<path d="M50.1237 52.1445H49.7734V54.7716H50.1237V52.1445Z" fill="#5A8EFF"/>
<path d="M48.6667 52.1445H48.3164V54.7716H48.6667V52.1445Z" fill="#5A8EFF"/>
<path d="M47.2097 52.1445H46.8594V54.7716H47.2097V52.1445Z" fill="#5A8EFF"/>
<path d="M45.7487 52.1445H45.3984V54.7716H45.7487V52.1445Z" fill="#5A8EFF"/>
<path d="M44.2917 52.1445H43.9414V54.7716H44.2917V52.1445Z" fill="#5A8EFF"/>
<path d="M60.3168 54.4258H43.9414V54.7761H60.3168V54.4258Z" fill="#5A8EFF"/>
<path d="M61.3676 54.7695H44.9922V57.3966H61.3676V54.7695Z" fill="#5A8EFF"/>
<path opacity="0.6" d="M61.3676 54.7695H44.9922V57.3966H61.3676V54.7695Z" fill="#0D0D0D"/>
<path opacity="0.2" d="M60.2957 54.7695L44.9922 57.3966H61.3711V54.7695H60.2957Z" fill="white"/>
<path d="M61.3776 54.7695H61.0273V57.3966H61.3776V54.7695Z" fill="#5A8EFF"/>
<path d="M59.9167 54.7695H59.5664V57.3966H59.9167V54.7695Z" fill="#5A8EFF"/>
<path d="M58.4597 54.7695H58.1094V57.3966H58.4597V54.7695Z" fill="#5A8EFF"/>
<path d="M57.0026 54.7695H56.6523V57.3966H57.0026V54.7695Z" fill="#5A8EFF"/>
<path d="M55.5456 54.7695H55.1953V57.3966H55.5456V54.7695Z" fill="#5A8EFF"/>
<path d="M54.0886 54.7695H53.7383V57.3966H54.0886V54.7695Z" fill="#5A8EFF"/>
<path d="M52.6354 54.7695H52.2852V57.3966H52.6354V54.7695Z" fill="#5A8EFF"/>
<path d="M51.1706 54.7695H50.8203V57.3966H51.1706V54.7695Z" fill="#5A8EFF"/>
<path d="M49.7175 54.7695H49.3672V57.3966H49.7175V54.7695Z" fill="#5A8EFF"/>
<path d="M48.2565 54.7695H47.9062V57.3966H48.2565V54.7695Z" fill="#5A8EFF"/>
<path d="M46.7995 54.7695H46.4492V57.3966H46.7995V54.7695Z" fill="#5A8EFF"/>
<path d="M45.3425 54.7695H44.9922V57.3966H45.3425V54.7695Z" fill="#5A8EFF"/>
<path d="M61.3676 57.0508H44.9922V57.4011H61.3676V57.0508Z" fill="#5A8EFF"/>
<path d="M61.7192 57.3984H45.3438V60.0255H61.7192V57.3984Z" fill="#5A8EFF"/>
<path opacity="0.6" d="M61.7192 57.3984H45.3438V60.0255H61.7192V57.3984Z" fill="#0D0D0D"/>
<path opacity="0.2" d="M60.6473 57.3984L45.3438 60.0255H61.7227V57.3984H60.6473Z" fill="white"/>
<path d="M61.7253 57.3984H61.375V60.0255H61.7253V57.3984Z" fill="#5A8EFF"/>
<path d="M60.2643 57.3984H59.9141V60.0255H60.2643V57.3984Z" fill="#5A8EFF"/>
<path d="M58.8073 57.3984H58.457V60.0255H58.8073V57.3984Z" fill="#5A8EFF"/>
<path d="M57.3503 57.3984H57V60.0255H57.3503V57.3984Z" fill="#5A8EFF"/>
<path d="M55.8972 57.3984H55.5469V60.0255H55.8972V57.3984Z" fill="#5A8EFF"/>
<path d="M54.4401 57.3984H54.0898V60.0255H54.4401V57.3984Z" fill="#5A8EFF"/>
<path d="M52.9792 57.3984H52.6289V60.0255H52.9792V57.3984Z" fill="#5A8EFF"/>
<path d="M51.5222 57.3984H51.1719V60.0255H51.5222V57.3984Z" fill="#5A8EFF"/>
<path d="M50.0729 57.3984H49.7227V60.0255H50.0729V57.3984Z" fill="#5A8EFF"/>
<path d="M48.6081 57.3984H48.2578V60.0255H48.6081V57.3984Z" fill="#5A8EFF"/>
<path d="M47.155 57.3984H46.8047V60.0255H47.155V57.3984Z" fill="#5A8EFF"/>
<path d="M45.694 57.3984H45.3438V60.0255H45.694V57.3984Z" fill="#5A8EFF"/>
<path d="M61.7192 59.6758H45.3438V60.0261H61.7192V59.6758Z" fill="#5A8EFF"/>
<path d="M61.3676 60.0234H44.9922V62.6505H61.3676V60.0234Z" fill="#5A8EFF"/>
<path opacity="0.6" d="M61.3676 60.0234H44.9922V62.6505H61.3676V60.0234Z" fill="#0D0D0D"/>
<path opacity="0.2" d="M60.2957 60.0234L44.9922 62.6505H61.3711V60.0234H60.2957Z" fill="white"/>
<path d="M61.3776 60.0234H61.0273V62.6505H61.3776V60.0234Z" fill="#5A8EFF"/>
<path d="M59.9167 60.0234H59.5664V62.6505H59.9167V60.0234Z" fill="#5A8EFF"/>
<path d="M58.4597 60.0234H58.1094V62.6505H58.4597V60.0234Z" fill="#5A8EFF"/>
<path d="M57.0026 60.0234H56.6523V62.6505H57.0026V60.0234Z" fill="#5A8EFF"/>
<path d="M55.5456 60.0234H55.1953V62.6505H55.5456V60.0234Z" fill="#5A8EFF"/>
<path d="M54.0886 60.0234H53.7383V62.6505H54.0886V60.0234Z" fill="#5A8EFF"/>
<path d="M52.6354 60.0234H52.2852V62.6505H52.6354V60.0234Z" fill="#5A8EFF"/>
<path d="M51.1706 60.0234H50.8203V62.6505H51.1706V60.0234Z" fill="#5A8EFF"/>
<path d="M49.7175 60.0234H49.3672V62.6505H49.7175V60.0234Z" fill="#5A8EFF"/>
<path d="M48.2565 60.0234H47.9062V62.6505H48.2565V60.0234Z" fill="#5A8EFF"/>
<path d="M46.7995 60.0234H46.4492V62.6505H46.7995V60.0234Z" fill="#5A8EFF"/>
<path d="M45.3425 60.0234H44.9922V62.6505H45.3425V60.0234Z" fill="#5A8EFF"/>
<path d="M61.3676 62.2969H44.9922V62.6472H61.3676V62.2969Z" fill="#5A8EFF"/>
<path d="M61.7192 62.6484H45.3438V65.2755H61.7192V62.6484Z" fill="#5A8EFF"/>
<path opacity="0.6" d="M61.7192 62.6484H45.3438V65.2755H61.7192V62.6484Z" fill="#0D0D0D"/>
<path opacity="0.2" d="M60.6473 62.6484L45.3438 65.2755H61.7227V62.6484H60.6473Z" fill="white"/>
<path d="M61.7253 62.6484H61.375V65.2755H61.7253V62.6484Z" fill="#5A8EFF"/>
<path d="M60.2643 62.6484H59.9141V65.2755H60.2643V62.6484Z" fill="#5A8EFF"/>
<path d="M58.8073 62.6484H58.457V65.2755H58.8073V62.6484Z" fill="#5A8EFF"/>
<path d="M57.3503 62.6484H57V65.2755H57.3503V62.6484Z" fill="#5A8EFF"/>
<path d="M55.8972 62.6484H55.5469V65.2755H55.8972V62.6484Z" fill="#5A8EFF"/>
<path d="M54.4401 62.6484H54.0898V65.2755H54.4401V62.6484Z" fill="#5A8EFF"/>
<path d="M52.9792 62.6484H52.6289V65.2755H52.9792V62.6484Z" fill="#5A8EFF"/>
<path d="M51.5222 62.6484H51.1719V65.2755H51.5222V62.6484Z" fill="#5A8EFF"/>
<path d="M50.0729 62.6484H49.7227V65.2755H50.0729V62.6484Z" fill="#5A8EFF"/>
<path d="M48.6081 62.6484H48.2578V65.2755H48.6081V62.6484Z" fill="#5A8EFF"/>
<path d="M47.155 62.6484H46.8047V65.2755H47.155V62.6484Z" fill="#5A8EFF"/>
<path d="M45.694 62.6484H45.3438V65.2755H45.694V62.6484Z" fill="#5A8EFF"/>
<path d="M61.7192 64.9297H45.3438V65.28H61.7192V64.9297Z" fill="#5A8EFF"/>
<path d="M61.016 65.2734H44.6406V67.9005H61.016V65.2734Z" fill="#5A8EFF"/>
<path opacity="0.6" d="M61.016 65.2734H44.6406V67.9005H61.016V65.2734Z" fill="#0D0D0D"/>
<path opacity="0.2" d="M59.9442 65.2734L44.6406 67.9005H61.0195V65.2734H59.9442Z" fill="white"/>
<path d="M61.0261 65.2734H60.6758V67.9005H61.0261V65.2734Z" fill="#5A8EFF"/>
<path d="M59.569 65.2734H59.2188V67.9005H59.569V65.2734Z" fill="#5A8EFF"/>
<path d="M58.1081 65.2734H57.7578V67.9005H58.1081V65.2734Z" fill="#5A8EFF"/>
<path d="M56.6472 65.2734H56.2969V67.9005H56.6472V65.2734Z" fill="#5A8EFF"/>
<path d="M55.194 65.2734H54.8438V67.9005H55.194V65.2734Z" fill="#5A8EFF"/>
<path d="M53.7409 65.2734H53.3906V67.9005H53.7409V65.2734Z" fill="#5A8EFF"/>
<path d="M52.28 65.2734H51.9297V67.9005H52.28V65.2734Z" fill="#5A8EFF"/>
<path d="M50.8229 65.2734H50.4727V67.9005H50.8229V65.2734Z" fill="#5A8EFF"/>
<path d="M49.3659 65.2734H49.0156V67.9005H49.3659V65.2734Z" fill="#5A8EFF"/>
<path d="M47.9089 65.2734H47.5586V67.9005H47.9089V65.2734Z" fill="#5A8EFF"/>
<path d="M46.4557 65.2734H46.1055V67.9005H46.4557V65.2734Z" fill="#5A8EFF"/>
<path d="M44.9909 65.2734H44.6406V67.9005H44.9909V65.2734Z" fill="#5A8EFF"/>
<path d="M61.016 67.5547H44.6406V67.905H61.016V67.5547Z" fill="#5A8EFF"/>
<path d="M61.3676 67.9023H44.9922V70.5294H61.3676V67.9023Z" fill="#5A8EFF"/>
<path opacity="0.6" d="M61.3676 67.9023H44.9922V70.5294H61.3676V67.9023Z" fill="#0D0D0D"/>
<path opacity="0.2" d="M60.2957 67.9023L44.9922 70.5294H61.3711V67.9023H60.2957Z" fill="white"/>
<path d="M61.3776 67.9023H61.0273V70.5294H61.3776V67.9023Z" fill="#5A8EFF"/>
<path d="M59.9167 67.9023H59.5664V70.5294H59.9167V67.9023Z" fill="#5A8EFF"/>
<path d="M58.4597 67.9023H58.1094V70.5294H58.4597V67.9023Z" fill="#5A8EFF"/>
<path d="M57.0026 67.9023H56.6523V70.5294H57.0026V67.9023Z" fill="#5A8EFF"/>
<path d="M55.5456 67.9023H55.1953V70.5294H55.5456V67.9023Z" fill="#5A8EFF"/>
<path d="M54.0886 67.9023H53.7383V70.5294H54.0886V67.9023Z" fill="#5A8EFF"/>
<path d="M52.6354 67.9023H52.2852V70.5294H52.6354V67.9023Z" fill="#5A8EFF"/>
<path d="M51.1706 67.9023H50.8203V70.5294H51.1706V67.9023Z" fill="#5A8EFF"/>
<path d="M49.7175 67.9023H49.3672V70.5294H49.7175V67.9023Z" fill="#5A8EFF"/>
<path d="M48.2565 67.9023H47.9062V70.5294H48.2565V67.9023Z" fill="#5A8EFF"/>
<path d="M46.7995 67.9023H46.4492V70.5294H46.7995V67.9023Z" fill="#5A8EFF"/>
<path d="M45.3425 67.9023H44.9922V70.5294H45.3425V67.9023Z" fill="#5A8EFF"/>
<path d="M61.3676 70.1875H44.9922V70.5378H61.3676V70.1875Z" fill="#5A8EFF"/>
<path d="M20.5948 69.4069C19.1575 68.7723 17.9406 67.7257 17.0981 66.3996C16.2556 65.0734 15.8253 63.5271 15.8615 61.9564C15.8977 60.3856 16.3989 58.8609 17.3017 57.575C18.2044 56.2891 19.4682 55.2997 20.9332 54.732C22.3983 54.1643 23.9987 54.0438 25.5322 54.3857C27.0658 54.7275 28.4635 55.5165 29.5487 56.6527C30.6338 57.7889 31.3577 59.2214 31.6288 60.769C31.8998 62.3166 31.7059 63.9098 31.0715 65.3472C30.6502 66.3018 30.0451 67.164 29.2905 67.8846C28.536 68.6052 27.6469 69.1702 26.674 69.5471C25.7012 69.9241 24.6635 70.1058 23.6205 70.0817C22.5774 70.0577 21.5492 69.8284 20.5948 69.4069Z" fill="#5A8EFF"/>
<path d="M20.2129 70.2767C18.7761 69.6416 17.5598 68.5947 16.7178 67.2684C15.8758 65.9421 15.446 64.396 15.4826 62.8254C15.5193 61.2549 16.0207 59.7305 16.9236 58.4449C17.8265 57.1593 19.0903 56.1702 20.5552 55.6028C22.0201 55.0353 23.6203 54.9149 25.1537 55.2568C26.687 55.5987 28.0845 56.3875 29.1696 57.5236C30.2546 58.6596 30.9785 60.0919 31.2497 61.6393C31.5209 63.1866 31.3273 64.7797 30.6932 66.217C30.2719 67.172 29.6666 68.0346 28.9118 68.7555C28.157 69.4764 27.2676 70.0415 26.2943 70.4186C25.321 70.7956 24.283 70.9771 23.2395 70.9528C22.196 70.9284 21.1676 70.6987 20.2129 70.2767Z" fill="#5A8EFF"/>
<path opacity="0.4" d="M20.2129 70.2767C18.7761 69.6416 17.5598 68.5947 16.7178 67.2684C15.8758 65.9421 15.446 64.396 15.4826 62.8254C15.5193 61.2549 16.0207 59.7305 16.9236 58.4449C17.8265 57.1593 19.0903 56.1702 20.5552 55.6028C22.0201 55.0353 23.6203 54.9149 25.1537 55.2568C26.687 55.5987 28.0845 56.3875 29.1696 57.5236C30.2546 58.6596 30.9785 60.0919 31.2497 61.6393C31.5209 63.1866 31.3273 64.7797 30.6932 66.217C30.2719 67.172 29.6666 68.0346 28.9118 68.7555C28.157 69.4764 27.2676 70.0415 26.2943 70.4186C25.321 70.7956 24.283 70.9771 23.2395 70.9528C22.196 70.9284 21.1676 70.6987 20.2129 70.2767Z" fill="#0D0D0D"/>
<path d="M28.8603 65.4144C28.7702 65.6181 28.6672 65.8158 28.552 66.0064C27.7632 67.2727 26.5278 68.1969 25.0902 68.5959C23.6527 68.9949 22.1177 68.8397 20.789 68.1611C19.4604 67.4825 18.4349 66.3298 17.9155 64.9312C17.3961 63.5326 17.4206 61.99 17.9842 60.6086C18.6764 59.2539 19.8608 58.2155 21.2944 57.7065C22.728 57.1975 24.302 57.2565 25.6935 57.8713C27.085 58.4862 28.1884 59.6103 28.7773 61.013C29.3662 62.4157 29.3959 63.9905 28.8603 65.4144Z" fill="#5A8EFF"/>
<path opacity="0.3" d="M28.864 65.4132C28.7739 65.6168 28.6709 65.8145 28.5557 66.0051C27.6546 67.1256 26.3785 67.8821 24.9631 68.135C23.5476 68.3879 22.0885 68.1201 20.8551 67.3811C19.6217 66.6421 18.6974 65.4818 18.2528 64.1144C17.8082 62.747 17.8733 61.2649 18.4363 59.9419C18.5203 59.751 18.615 59.5651 18.72 59.3849C19.6116 58.2444 20.8882 57.4677 22.311 57.2002C23.7338 56.9327 25.2053 57.1927 26.4502 57.9315C27.6952 58.6703 28.6284 59.8374 29.0752 61.2144C29.5221 62.5915 29.452 64.0841 28.878 65.4132H28.864Z" fill="#0D0D0D"/>
<g opacity="0.4">
<path d="M21.2127 64.8895C19.9166 64.5707 19.4613 63.3903 20.0077 61.8456L19.0234 61.3832L19.4228 60.476L20.407 60.9419C20.8082 60.1893 21.379 59.5405 22.0743 59.0469L23.0131 59.9506C22.4259 60.3423 21.9379 60.8651 21.5875 61.4778L23.0972 62.1783C23.7417 61.4077 24.4983 60.5741 25.6857 60.8648C26.9817 61.1836 27.4371 62.3885 26.8626 63.9542L27.8469 64.4166L27.4301 65.3308L26.4353 64.865C26.115 65.4571 25.6762 65.977 25.1463 66.3922L24.183 65.541C24.6338 65.218 25.0091 64.8009 25.2829 64.3185L23.7066 63.5794C23.0761 64.3606 22.3335 65.1697 21.2127 64.8895ZM24.3651 62.7878L25.6542 63.3973C25.7733 62.8544 25.6016 62.4901 25.2338 62.392C24.9256 62.329 24.6489 62.5286 24.3581 62.8018L24.3651 62.7878ZM21.612 63.3483C21.8957 63.4183 22.1619 63.2537 22.4281 62.97L21.2022 62.3955C21.0866 62.9244 21.2372 63.2712 21.605 63.3623L21.612 63.3483Z" fill="#0D0D0D"/>
</g>
<path d="M66.2654 70.8249C66.1908 70.8103 66.1172 70.7916 66.0447 70.7688C64.6121 70.2925 62.4369 68.0577 60.5839 65.0138C58.7309 61.9699 57.7502 59.0031 57.9884 57.5074C58.019 57.2516 58.1196 57.0092 58.2791 56.8068L58.3036 56.7788C58.3528 56.7174 58.4134 56.6663 58.4822 56.6282C58.5545 56.5853 58.6323 56.5523 58.7134 56.5301C58.9631 56.4801 59.2218 56.502 59.4595 56.5932C59.7706 56.6941 60.0655 56.8392 60.3352 57.024C60.5562 57.1673 60.769 57.3229 60.9727 57.4899C61.0918 57.5915 61.2214 57.6965 61.351 57.8156C62.7597 59.1582 63.974 60.6909 64.9589 62.3692C65.9934 64.0094 66.7906 65.7878 67.3267 67.6514C67.3722 67.8195 67.4073 68.0017 67.4423 68.1488C67.5043 68.427 67.5476 68.709 67.5719 68.993C67.6079 69.3105 67.5961 69.6317 67.5369 69.9457C67.5033 70.2123 67.3797 70.4594 67.1866 70.6463C67.1481 70.6928 67.1004 70.731 67.0465 70.7583C66.9995 70.7896 66.9473 70.8121 66.8924 70.8249C66.6876 70.8845 66.4701 70.8845 66.2654 70.8249Z" fill="#5A8EFF"/>
<path d="M66.2575 70.8232L66.1384 70.6306L62.1312 64.0384C62.0261 63.8597 61.9211 63.6881 61.8265 63.5234L58.082 57.3691C58.1092 57.1731 58.1734 56.9841 58.2712 56.8122C58.307 56.7528 58.3493 56.6976 58.3973 56.6475L58.8036 56.3988L60.0296 55.6562L60.583 56.5635L60.6811 56.7281L61.0629 57.3586L61.3431 57.821L67.3188 67.6287L67.536 67.979L67.9563 68.6795L68.0544 68.8406L68.6113 69.7514L67.2102 70.613L66.916 70.7917C66.7046 70.868 66.4752 70.8789 66.2575 70.8232Z" fill="#5A8EFF"/>
<path d="M60.039 55.6521C58.8305 56.3877 59.7693 60.1427 62.1406 64.0412C64.512 67.9398 67.3948 70.5038 68.6172 69.7718C69.8397 69.0397 68.8834 65.2812 66.5156 61.3826C64.1477 57.4841 61.2439 54.92 60.039 55.6521Z" fill="#5A8EFF"/>
<path opacity="0.4" d="M60.039 55.6521C58.8305 56.3877 59.7693 60.1427 62.1406 64.0412C64.512 67.9398 67.3948 70.5038 68.6172 69.7718C69.8397 69.0397 68.8834 65.2812 66.5156 61.3826C64.1477 57.4841 61.2439 54.92 60.039 55.6521Z" fill="#0D0D0D"/>
<path d="M60.6642 56.5002C60.5888 56.5461 60.5299 56.6148 60.4961 56.6963C61.4979 56.6963 63.6065 58.9241 65.4805 62.01C67.3545 65.0959 68.3633 67.9962 67.8974 68.8824C67.9858 68.8862 68.0734 68.8643 68.1496 68.8194C68.9658 68.322 67.971 65.1555 65.9009 61.7508C63.8307 58.3461 61.4839 56.0028 60.6642 56.5002Z" fill="#5A8EFF"/>
<path opacity="0.4" d="M60.6642 56.5002C60.5888 56.5461 60.5299 56.6148 60.4961 56.6963C61.4979 56.6963 63.6065 58.9241 65.4805 62.01C67.3545 65.0959 68.3633 67.9962 67.8974 68.8824C67.9858 68.8862 68.0734 68.8643 68.1496 68.8194C68.9658 68.322 67.971 65.1555 65.9009 61.7508C63.8307 58.3461 61.4839 56.0028 60.6642 56.5002Z" fill="#5A8EFF"/>
<path opacity="0.4" d="M60.4984 56.6953C60.0361 57.5885 61.0414 60.4818 62.9153 63.5677C64.7893 66.6537 66.9015 68.8884 67.8998 68.8814C68.3656 67.9952 67.3603 65.1019 65.4829 62.009C63.6054 58.9161 61.5177 56.6953 60.4984 56.6953Z" fill="#5A8EFF"/>
<path d="M33.4968 52.4654C34.4429 52.5773 35.4012 52.5275 36.3306 52.3183C36.6223 52.2579 36.8929 52.122 37.1155 51.924C37.3381 51.726 37.5047 51.473 37.5986 51.1904L38.5128 48.0099C38.1625 47.1482 34.0783 46.3531 31.4688 48.0099C31.4688 48.0099 31.742 50.1115 31.9696 50.9767C32.2218 51.94 32.5896 52.3778 33.4968 52.4654Z" fill="#5A8EFF"/>
<path opacity="0.2" d="M33.4968 52.4654C34.4429 52.5773 35.4012 52.5275 36.3306 52.3183C36.6223 52.2579 36.8929 52.122 37.1155 51.924C37.3381 51.726 37.5047 51.473 37.5986 51.1904L38.5128 48.0099C38.1625 47.1482 34.0783 46.3531 31.4688 48.0099C31.4688 48.0099 31.742 50.1115 31.9696 50.9767C32.2218 51.94 32.5896 52.3778 33.4968 52.4654Z" fill="white"/>
<path d="M50.941 51.9333C51.7149 51.9772 52.4894 51.8578 53.2143 51.583C53.4571 51.481 53.6675 51.3145 53.8225 51.1015C53.9774 50.8885 54.0712 50.6371 54.0935 50.3746L54.5068 46.4025C53.8448 45.8315 49.7465 45.8105 48.8008 47.772C48.8008 47.772 49.046 48.6652 49.5188 50.5742C49.8376 51.8773 50.1914 51.9018 50.941 51.9333Z" fill="#5A8EFF"/>
<path opacity="0.2" d="M50.941 51.9333C51.7149 51.9772 52.4894 51.8578 53.2143 51.583C53.4571 51.481 53.6675 51.3145 53.8225 51.1015C53.9774 50.8885 54.0712 50.6371 54.0935 50.3746L54.5068 46.4025C53.8448 45.8315 49.7465 45.8105 48.8008 47.772C48.8008 47.772 49.046 48.6652 49.5188 50.5742C49.8376 51.8773 50.1914 51.9018 50.941 51.9333Z" fill="white"/>
<path d="M52.0078 21.3054C53.4543 21.6015 54.7291 22.448 55.5631 23.6663C56.0201 22.6355 56.3517 21.5536 56.5509 20.4437C56.642 19.9253 56.691 19.3474 56.3828 18.9481C56.0045 18.4542 55.2163 18.4332 54.6314 18.7274C54.0579 19.0659 53.5625 19.5219 53.1777 20.0654C52.8364 20.5221 52.4439 20.9381 52.0078 21.3054Z" fill="#5A8EFF"/>
<path opacity="0.4" d="M52.0078 21.3054C53.4543 21.6015 54.7291 22.448 55.5631 23.6663C56.0201 22.6355 56.3517 21.5536 56.5509 20.4437C56.642 19.9253 56.691 19.3474 56.3828 18.9481C56.0045 18.4542 55.2163 18.4332 54.6314 18.7274C54.0579 19.0659 53.5625 19.5219 53.1777 20.0654C52.8364 20.5221 52.4439 20.9381 52.0078 21.3054Z" fill="#0D0D0D"/>
<path d="M56.0757 18.6882C56.0757 18.6882 54.6466 18.5866 53.2735 20.5482C53.0182 20.1472 52.6536 19.8276 52.2227 19.6269C52.2227 19.6269 54.6886 17.6899 56.0757 18.6882Z" fill="#5A8EFF"/>
<path opacity="0.3" d="M56.0757 18.6882C56.0757 18.6882 54.6466 18.5866 53.2735 20.5482C53.0182 20.1472 52.6536 19.8276 52.2227 19.6269C52.2227 19.6269 54.6886 17.6899 56.0757 18.6882Z" fill="#0D0D0D"/>
<path d="M46.106 18.0664H35.7029C31.5543 18.1282 27.5966 19.8196 24.6847 22.7751C21.7729 25.7307 20.1406 29.7131 20.1406 33.8621C20.1406 38.0111 21.7729 41.9936 24.6847 44.9491C27.5966 47.9047 31.5543 49.596 35.7029 49.6578H46.106C50.2546 49.596 54.2123 47.9047 57.1242 44.9491C60.036 41.9936 61.6683 38.0111 61.6683 33.8621C61.6683 29.7131 60.036 25.7307 57.1242 22.7751C54.2123 19.8196 50.2546 18.1282 46.106 18.0664Z" fill="#5A8EFF"/>
<path opacity="0.2" d="M56.7244 32.658H54.297C53.3379 32.6876 52.4281 33.0893 51.7602 33.7781C51.0923 34.4669 50.7188 35.3887 50.7188 36.3482C50.7188 37.3076 51.0923 38.2294 51.7602 38.9182C52.4281 39.607 53.3379 40.0088 54.297 40.0383H56.7244C57.2185 40.0535 57.7107 39.9694 58.1717 39.7908C58.6328 39.6122 59.0532 39.3428 59.4081 38.9986C59.7631 38.6545 60.0453 38.2425 60.238 37.7872C60.4307 37.3319 60.53 36.8426 60.53 36.3482C60.53 35.8538 60.4307 35.3644 60.238 34.9091C60.0453 34.4538 59.7631 34.0419 59.4081 33.6977C59.0532 33.3535 58.6328 33.0841 58.1717 32.9056C57.7107 32.727 57.2185 32.6428 56.7244 32.658Z" fill="white"/>
<path opacity="0.3" d="M55.7514 36.3464C55.7514 37.1205 55.3591 37.7475 54.8757 37.7475C54.3923 37.7475 54 37.1205 54 36.3464C54 35.5723 54.3923 34.9453 54.8757 34.9453C55.3591 34.9453 55.7514 35.5758 55.7514 36.3464Z" fill="white"/>
<path opacity="0.3" d="M59.1268 36.3464C59.1268 37.1205 58.7345 37.7475 58.2511 37.7475C57.7677 37.7475 57.3789 37.1205 57.3789 36.3464C57.3789 35.5723 57.7677 34.9453 58.2511 34.9453C58.7345 34.9453 59.1268 35.5758 59.1268 36.3464Z" fill="white"/>
<path opacity="0.4" d="M50.798 28.4752C50.9346 29.1232 50.7735 29.7047 50.1255 29.8413C49.4775 29.9779 49.0956 29.512 48.959 28.8675C48.8224 28.223 48.9836 27.6415 49.6281 27.5014C50.2726 27.3613 50.6649 27.8307 50.798 28.4752Z" fill="white"/>
<path opacity="0.4" d="M59.2859 28.8667C59.1493 29.5112 58.764 29.977 58.1194 29.8404C57.4749 29.7038 57.3103 29.1224 57.4469 28.4743C57.5835 27.8263 57.9688 27.364 58.6168 27.5006C59.2649 27.6372 59.4225 28.2222 59.2859 28.8667Z" fill="white"/>
<path opacity="0.4" d="M53.9668 41.3124C53.7636 41.3369 51.2346 41.0042 50.2223 40.2336C49.21 39.463 50.0507 41.1653 52.4255 41.456C52.9432 41.5381 53.4732 41.4887 53.9668 41.3124Z" fill="white"/>
<path d="M43.7862 17.168C43.7862 17.168 42.0803 17.3186 41.4849 19.3852C40.8894 21.4518 43.4324 24.3591 43.4324 24.3591C43.4324 24.3591 41.5024 21.6725 43.7862 17.168Z" fill="#5A8EFF"/>
<path opacity="0.3" d="M43.7862 17.168C43.7862 17.168 42.0803 17.3186 41.4849 19.3852C40.8894 21.4518 43.4324 24.3591 43.4324 24.3591C43.4324 24.3591 41.5024 21.6725 43.7862 17.168Z" fill="#0D0D0D"/>
<path d="M43.5289 23.7478C43.8407 21.8633 45.0807 20.1855 46.6359 19.5445C46.2366 18.5812 45.6831 17.2467 44.7759 17.033C44.0754 16.8684 43.2872 17.3377 42.8389 18.0418C42.4211 18.7906 42.2187 19.6405 42.2539 20.4972C42.2522 21.8735 42.67 23.2176 43.4519 24.3503C43.3958 24.2872 43.5675 23.8213 43.5289 23.7478Z" fill="#5A8EFF"/>
<path opacity="0.5" d="M43.5289 23.7478C43.8407 21.8633 45.0807 20.1855 46.6359 19.5445C46.2366 18.5812 45.6831 17.2467 44.7759 17.033C44.0754 16.8684 43.2872 17.3377 42.8389 18.0418C42.4211 18.7906 42.2187 19.6405 42.2539 20.4972C42.2522 21.8735 42.67 23.2176 43.4519 24.3503C43.3958 24.2872 43.5675 23.8213 43.5289 23.7478Z" fill="#0D0D0D"/>
<path opacity="0.3" d="M30.346 19.5023C29.5423 19.7663 28.783 20.1501 28.0938 20.6407C31.1972 19.709 35.9364 18.8893 39.5478 19.6494C39.6084 19.6637 39.6716 19.6639 39.7323 19.65C39.793 19.636 39.8498 19.6082 39.8981 19.5688C40.0479 19.4176 40.1393 19.2181 40.1559 19.0058C40.1726 18.7936 40.1135 18.5822 39.9891 18.4094C36.9277 18.2553 33.5861 18.455 30.346 19.5023Z" fill="white"/>
<path opacity="0.1" d="M47.7009 47.8172H36.7793C32.3774 47.8153 28.1565 46.0651 25.0449 42.9516C21.9333 39.838 20.1858 35.616 20.1867 31.2141C20.1867 31.109 20.1867 31.0074 20.1867 30.9023C19.7505 33.1863 19.8239 35.5384 20.4017 37.7907C20.9796 40.043 22.0476 42.1399 23.5296 43.9317C25.0115 45.7235 26.8709 47.166 28.9748 48.1561C31.0787 49.1463 33.3752 49.6597 35.7005 49.6596H46.1072C48.3736 49.6603 50.6135 49.1722 52.6742 48.2286C54.7349 47.285 56.5679 45.9081 58.0481 44.1918C55.1125 46.5432 51.4622 47.8222 47.7009 47.8172Z" fill="white"/>
<path d="M25.9164 52.2364C27.076 52.487 28.2695 52.5415 29.4472 52.3976C29.8145 52.3577 30.1651 52.2231 30.4647 52.0069C30.7644 51.7908 31.0028 51.5006 31.1565 51.1646L32.6522 40.9611C31.836 40.0994 29.1144 39.3393 26.7255 39.7526C25.398 39.9838 23.4504 40.5337 23.538 41.5986C23.6256 42.6634 23.7762 45.3045 24.1965 50.2224C24.3401 51.8792 24.7955 52.0018 25.9164 52.2364Z" fill="#5A8EFF"/>
<path d="M43.9363 52.3741C44.9933 52.5141 46.0653 52.4952 47.1168 52.3181C47.4342 52.2761 47.7359 52.1546 47.9937 51.9647C48.2515 51.7749 48.4571 51.5229 48.5914 51.2322L49.8734 43.9885C49.1028 43.3335 46.6229 42.8606 44.5002 43.3195C43.3163 43.5752 41.5929 44.1216 41.726 44.9763C41.8591 45.831 42.2549 49.9432 42.297 50.8329C42.367 52.1885 42.9205 52.255 43.9363 52.3741Z" fill="#5A8EFF"/>
</svg>
