<svg width="14" height="13" viewBox="0 0 14 13" fill="none" xmlns="http://www.w3.org/2000/svg">
<path fill-rule="evenodd" clip-rule="evenodd" d="M7.23619 0.426267C7.18362 0.445395 7.09746 0.502153 7.04472 0.552359C6.88793 0.701683 6.87651 0.77344 6.87651 1.61041V2.33963L6.80939 2.42804C6.58723 2.72067 5.64112 3.77068 4.78039 4.67989L4.39083 5.09138L4.39107 8.24378L4.39134 11.3961L4.97558 11.6062C5.60381 11.832 5.8483 11.909 6.13819 11.9722C6.66266 12.0865 6.66921 12.0868 9.04124 12.0973C10.6372 12.1044 11.3389 12.0995 11.4531 12.0804C12.041 11.9819 12.4884 11.4636 12.4875 10.8818C12.4871 10.6589 12.4439 10.4936 12.3358 10.3014L12.2531 10.1546L12.4012 10.0068C12.5632 9.8452 12.6637 9.66789 12.7246 9.43599C12.799 9.15294 12.7349 8.76122 12.576 8.52706L12.5161 8.43872L12.6694 8.28549C13.0598 7.89528 13.138 7.33711 12.8697 6.85737L12.7875 6.71044L12.9157 6.58694C13.4214 6.09993 13.4277 5.37018 12.9304 4.8776C12.8313 4.77934 12.7105 4.68942 12.6135 4.64171C12.3276 4.50098 12.2778 4.49723 10.6727 4.49678C9.87072 4.49656 9.21452 4.4902 9.21452 4.48264C9.21452 4.47511 9.3047 4.16542 9.4149 3.79444L9.61531 3.11997L9.60079 2.6742C9.58359 2.1455 9.53815 1.9302 9.37425 1.60079C9.03194 0.912756 8.32999 0.453458 7.54646 0.404788C7.39077 0.395116 7.30554 0.40102 7.23619 0.426267ZM0.699219 8.06026V11.8641H2.17586H3.6525V8.06026V4.25638H2.17586H0.699219V8.06026Z" fill="#2ED47A"/>
</svg>
