<svg width="16" height="16" viewBox="0 0 16 16" fill="none" xmlns="http://www.w3.org/2000/svg">
<g id="Bell_pin">
<path id="Union" fill-rule="evenodd" clip-rule="evenodd" d="M3.88407 5.09938C4.14338 2.7656 6.11602 1 8.46417 1C10.8123 1 12.7849 2.7656 13.0443 5.09938L13.2207 6.68698L13.2272 6.74542C13.3062 7.42123 13.5262 8.07322 13.8729 8.65864L13.9033 8.70931L14.3261 9.41405C14.4974 9.69946 14.6525 9.95802 14.7554 10.1777C14.8602 10.4015 14.9712 10.7046 14.9116 11.0471C14.8566 11.3628 14.6941 11.6498 14.4517 11.8594C14.1887 12.0867 13.8716 12.1474 13.6259 12.1727C13.3845 12.1975 13.083 12.1975 12.7502 12.1975H11.0672C10.9241 12.9261 10.6247 13.6034 10.1799 14.1154C9.71442 14.6511 9.08919 15 8.38771 15C7.68623 15 7.061 14.6511 6.59555 14.1154C6.15072 13.6034 5.85131 12.9261 5.70825 12.1975H4.17819C3.84535 12.1975 3.54379 12.1975 3.30247 12.1727C3.05672 12.1474 2.73962 12.0867 2.47663 11.8594C2.2342 11.6498 2.07171 11.3628 2.01673 11.0471C1.95709 10.7046 2.06815 10.4015 2.17293 10.1777C2.27581 9.95802 2.43097 9.69946 2.60224 9.41405L3.02499 8.70947L3.05518 8.65901C3.40197 8.07356 3.62211 7.42156 3.70107 6.74571L3.88407 5.09938ZM7.13404 12.1975C7.25023 12.6157 7.43185 12.9607 7.64382 13.2046C7.90592 13.5063 8.17213 13.6114 8.38771 13.6114C8.60329 13.6114 8.86949 13.5063 9.1316 13.2046C9.34357 12.9607 9.52519 12.6157 9.64138 12.1975H7.13404ZM8.46417 2.38864C6.8236 2.38864 5.44539 3.6222 5.26422 5.25273L5.08762 6.84215C5.08438 6.87134 5.0824 6.88909 5.08037 6.90647C4.97888 7.77568 4.69595 8.61389 4.2499 9.3668C4.24103 9.38176 4.23208 9.39668 4.21713 9.42159L3.81084 10.0987C3.61643 10.4228 3.49938 10.6196 3.4305 10.7666C3.42685 10.7744 3.4235 10.7818 3.42041 10.7887C3.42791 10.7896 3.43593 10.7905 3.44449 10.7914C3.60605 10.808 3.83503 10.8088 4.21289 10.8088H12.7154C13.0933 10.8088 13.3223 10.808 13.4838 10.7914L13.4957 10.7901L13.5079 10.7887C13.5061 10.7846 13.5042 10.7804 13.5022 10.7761C13.5008 10.773 13.4993 10.7699 13.4978 10.7666C13.429 10.6196 13.3119 10.4228 13.1175 10.0987L12.7118 9.42258C12.6966 9.39734 12.6874 9.38186 12.6784 9.3668C12.2324 8.61389 11.9495 7.77568 11.848 6.90647C11.8459 6.88919 11.844 6.8719 11.8408 6.84301L11.6641 5.25273C11.4829 3.6222 10.1047 2.38864 8.46417 2.38864Z" fill="white"/>
</g>
</svg>
