<svg width="14" height="14" viewBox="0 0 14 14" fill="none" xmlns="http://www.w3.org/2000/svg">
<path fill-rule="evenodd" clip-rule="evenodd" d="M12.6775 9.81068C12.2342 8.40485 11.0442 7.59985 9.41083 7.59985H9.3875C8.67 7.59985 8.04583 7.75735 7.52083 8.04318C8.83917 8.52151 9.81917 9.50735 10.2742 10.8782C11.1433 10.7848 11.9075 10.5398 12.5492 10.149L12.7475 10.0265L12.6775 9.81068Z" fill="#485F7D"/>
<path fill-rule="evenodd" clip-rule="evenodd" d="M8.13916 6.40985C8.495 6.66068 8.9325 6.81235 9.39917 6.81235C10.6008 6.81235 11.5808 5.83235 11.5808 4.62485C11.5808 3.42318 10.6008 2.44318 9.39917 2.44318C9.06083 2.44318 8.74583 2.51901 8.46 2.65901C8.73417 3.14318 8.89166 3.70318 8.89166 4.29818C8.89166 5.09735 8.61166 5.83235 8.13916 6.40985Z" fill="#485F7D"/>
<path fill-rule="evenodd" clip-rule="evenodd" d="M9.67333 10.919C9.2125 9.66485 8.25583 8.81318 6.94917 8.46901C6.52333 8.35235 6.05083 8.29401 5.54917 8.29401H5.52C3.42 8.29401 1.89167 9.32651 1.32 11.129L1.25 11.3448L1.44833 11.4615C2.55667 12.144 3.88667 12.4707 5.5025 12.4707H5.53167C7.18833 12.4765 8.50667 12.144 9.62083 11.4615L9.81917 11.3448L9.74917 11.129C9.72583 11.059 9.7025 10.989 9.67333 10.919Z" fill="#485F7D"/>
<path fill-rule="evenodd" clip-rule="evenodd" d="M5.53165 7.07484C6.41831 7.07484 7.20581 6.65484 7.71331 6.00734C8.08665 5.54068 8.30831 4.94568 8.30831 4.29818C8.30831 3.81984 8.18581 3.37068 7.97581 2.97984C7.50331 2.11651 6.58748 1.52734 5.53165 1.52734C4.00331 1.52734 2.76081 2.76984 2.76081 4.29818C2.76081 5.82651 4.00331 7.07484 5.53165 7.07484Z" fill="#485F7D"/>
</svg>
