<svg width="20" height="21" viewBox="0 0 20 21" fill="none" xmlns="http://www.w3.org/2000/svg">
<g id="Iconly/Regular/Outline/Delete">
<path id="Union" d="M13.2554 4.25833L13.2553 4.25835L13.4692 5.32026L13.4693 5.3204C13.5345 5.64902 13.8256 5.88814 14.1604 5.88814L14.1771 5.88836H16.9122C17.2884 5.88836 17.5938 6.1937 17.5938 6.56995C17.5938 6.9462 17.2884 7.25153 16.9122 7.25153H15.3002L14.7447 17.8058C14.708 18.5033 14.1317 19.05 13.4333 19.05H5.72479C5.02636 19.05 4.45014 18.5033 4.41343 17.8058L3.85794 7.25153H2.63159C2.25534 7.25153 1.95 6.9462 1.95 6.56995C1.95 6.1937 2.25534 5.88836 2.63159 5.88836H5.36636L5.38306 5.88814C5.71788 5.88814 6.00901 5.64905 6.07509 5.32034L13.2554 4.25833ZM13.2554 4.25833L13.2546 4.25532C13.0492 3.48646 12.3498 2.95 11.5541 2.95H7.98941C7.19307 2.95 6.49409 3.48712 6.28043 4.29331L6.28033 4.29329L6.27973 4.29632L6.0751 5.32028L13.2554 4.25833ZM12.1324 5.58836L12.1324 5.5884C12.1532 5.69158 12.1814 5.79174 12.2166 5.88836H7.32709C7.36223 5.79173 7.39045 5.69155 7.41107 5.58836L7.41107 5.58833L7.60697 4.6046C7.65297 4.43307 7.81022 4.31317 7.98941 4.31317H11.5541C11.7357 4.31317 11.8911 4.43529 11.9282 4.56619L12.1324 5.58836ZM8.63332 9.58306V15.7841C8.63332 16.2765 8.23412 16.6757 7.74169 16.6757C7.24925 16.6757 6.85005 16.2765 6.85005 15.7841V9.58306C6.85005 9.09062 7.24925 8.69142 7.74169 8.69142C8.23412 8.69142 8.63332 9.09062 8.63332 9.58306ZM12.308 9.58306V15.7841C12.308 16.2765 11.9088 16.6757 11.4164 16.6757C10.9239 16.6757 10.5247 16.2765 10.5247 15.7841V9.58306C10.5247 9.09062 10.9239 8.69142 11.4164 8.69142C11.9088 8.69142 12.308 9.09062 12.308 9.58306Z" fill="#E5007A" stroke="#E5007A" stroke-width="0.1"/>
</g>
</svg>
