<svg width="16" height="16" viewBox="0 0 16 16" fill="none" xmlns="http://www.w3.org/2000/svg">
<g clip-path="url(#clip0_8310_78519)">
<path d="M0.977575 8.27068C0.782815 8.46648 0.783629 8.78302 0.979389 8.97782C1.17515 9.17255 1.49174 9.17175 1.6865 8.97602L0.977575 8.27068ZM10.3078 9.04655L10.0271 9.46028C10.2372 9.60281 10.5208 9.56528 10.6866 9.37288C10.8523 9.18055 10.8476 8.89448 10.6755 8.70775L10.3078 9.04655ZM5.08228 9.48608C4.91115 9.70282 4.9481 10.0172 5.16482 10.1883C5.38154 10.3595 5.69596 10.3225 5.8671 10.1058L5.08228 9.48608ZM1.69978 13.2044C1.51268 13.0013 1.19636 12.9883 0.993262 13.1754C0.790162 13.3625 0.777195 13.6789 0.964295 13.8819L1.69978 13.2044ZM6.91844 13.437L7.1005 12.9713C6.87224 12.8821 6.61301 12.9714 6.48817 13.1823L6.91844 13.437ZM7.4843 1.87187L9.07544 2.31572L9.3441 1.35249L7.75297 0.908642L7.4843 1.87187ZM9.5081 2.60492C11.2322 4.73179 12.3368 6.359 13.2757 8.42175L14.1858 8.00755C13.1992 5.83961 12.0388 4.13882 10.285 1.97521L9.5081 2.60492ZM9.31017 7.81161C9.36744 8.32855 9.53464 8.94522 9.94003 9.38528L10.6755 8.70775C10.48 8.49548 10.3514 8.12868 10.3041 7.70155L9.31017 7.81161ZM8.75864 5.67642C8.88957 5.84692 8.9805 5.96545 9.04424 6.05402C9.11517 6.15255 9.12237 6.17399 9.11664 6.15955L10.046 5.7903C10.0006 5.67623 9.92364 5.56395 9.85583 5.46979C9.7809 5.36567 9.67857 5.23252 9.55184 5.06746L8.75864 5.67642ZM10.3041 7.70155C10.2422 7.14235 10.1952 6.71815 10.1588 6.42162C10.1406 6.27371 10.1244 6.1523 10.1096 6.05939C10.0984 5.98837 10.0802 5.87648 10.046 5.7903L9.11664 6.15955C9.10217 6.1232 9.10657 6.11875 9.12197 6.21592C9.1339 6.29121 9.14844 6.39874 9.16623 6.54362C9.20177 6.83268 9.2479 7.24948 9.31017 7.81161L10.3041 7.70155ZM5.39295 2.02707C5.1528 2.28773 4.92582 2.53133 4.77817 2.76404C4.61246 3.02523 4.51691 3.31624 4.57758 3.66416L5.56272 3.49237C5.55551 3.45109 5.55243 3.41029 5.62255 3.29977C5.71073 3.16078 5.86296 2.99277 6.12841 2.70464L5.39295 2.02707ZM13.2757 8.42175C13.6719 9.29228 13.9424 9.89048 14.0762 10.3885C14.2026 10.8587 14.1944 11.1971 14.0531 11.5513L14.9819 11.9219C15.2219 11.3204 15.2097 10.7532 15.042 10.1291C14.8818 9.53281 14.5684 8.84788 14.1858 8.00755L13.2757 8.42175ZM11.846 13.9727C12.6435 13.7101 13.3088 13.4933 13.8155 13.211C14.3547 12.9106 14.742 12.5229 14.9819 11.9219L14.0531 11.5513C13.9116 11.9059 13.7006 12.1303 13.3288 12.3374C12.9248 12.5625 12.3668 12.7484 11.5332 13.0229L11.846 13.9727ZM7.33397 4.98626C7.63637 4.93633 7.83637 4.90363 7.98284 4.89007C8.14137 4.87539 8.15144 4.89383 8.1157 4.87912L8.49644 3.95443C8.29117 3.86993 8.06917 3.8778 7.89064 3.89433C7.70004 3.91197 7.45804 3.95224 7.1711 3.99961L7.33397 4.98626ZM6.44271 13.2521C5.85625 13.857 4.97063 14.1757 4.05854 14.1672C3.14655 14.1587 2.27048 13.8239 1.69978 13.2044L0.964295 13.8819C1.75674 14.7421 2.91663 15.1566 4.04926 15.1671C5.18178 15.1777 6.3494 14.7849 7.16063 13.9482L6.44271 13.2521ZM11.5332 13.0229C9.97877 13.5347 8.66117 13.5815 7.1005 12.9713L6.73637 13.9027C8.54743 14.6108 10.1077 14.5451 11.846 13.9727L11.5332 13.0229ZM7.32577 13.7304L7.34864 13.6917L6.48817 13.1823L6.46529 13.2209L7.32577 13.7304ZM7.16063 13.9482C7.2285 13.8783 7.28257 13.8033 7.32577 13.7304L6.46529 13.2209C6.45536 13.2377 6.44738 13.2473 6.44271 13.2521L7.16063 13.9482ZM10.5885 8.63275C9.8845 8.15515 8.48064 7.61222 7.0329 8.07688L7.3385 9.02901C8.3961 8.68955 9.47897 9.08842 10.0271 9.46028L10.5885 8.63275ZM7.0329 8.07688C6.34351 8.29815 5.67044 8.74128 5.08228 9.48608L5.8671 10.1058C6.3393 9.50781 6.8491 9.18615 7.3385 9.02901L7.0329 8.07688ZM7.52877 8.18921C6.66265 7.37235 5.42833 6.99408 4.23628 7.00688C3.0443 7.01962 1.8196 7.42435 0.977575 8.27068L1.6865 8.97602C2.30224 8.35708 3.2525 8.01748 4.24699 8.00681C5.24139 7.99615 6.20502 8.31535 6.84264 8.91668L7.52877 8.18921ZM8.1157 4.87912C8.1675 4.90045 8.25297 4.9685 8.37984 5.13651C8.43897 5.21474 8.4961 5.29923 8.55943 5.39325C8.61944 5.48219 8.6883 5.58473 8.75864 5.67642L9.55184 5.06746C9.5039 5.00501 9.4531 4.92987 9.3887 4.83431C9.3277 4.74382 9.25577 4.63698 9.17777 4.53374C9.0305 4.33881 8.8097 4.08342 8.49644 3.95443L8.1157 4.87912ZM9.07544 2.31572C9.18157 2.34532 9.24117 2.36237 9.28484 2.37766C9.30444 2.3845 9.31517 2.3891 9.32077 2.39173C9.32343 2.39299 9.3249 2.39378 9.3255 2.39411C9.32544 2.39407 9.32577 2.39428 9.3255 2.39411C9.3255 2.39413 9.32604 2.39445 9.3261 2.39445C9.32624 2.39455 9.32664 2.39486 9.32704 2.39518C9.32784 2.3958 9.3295 2.39713 9.3321 2.3995C9.33764 2.40444 9.34704 2.4135 9.3621 2.42995C9.3953 2.46627 9.4367 2.51685 9.5081 2.60492L10.285 1.97521C10.1669 1.82958 10.0445 1.67121 9.87963 1.56163C9.71224 1.45039 9.5197 1.40147 9.3441 1.35249L9.07544 2.31572ZM7.75297 0.908642C7.14717 0.739642 6.66564 0.873075 6.26984 1.15313C5.92856 1.3946 5.62533 1.77483 5.39295 2.02707L6.12841 2.70464C6.44369 2.36242 6.62091 2.12973 6.84743 1.96945C7.01944 1.84777 7.19304 1.79063 7.4843 1.87187L7.75297 0.908642ZM4.57758 3.66416C4.70026 4.3677 5.33013 4.71023 5.82263 4.86341C6.34123 5.02471 6.9295 5.05304 7.33397 4.98626L7.1711 3.99961C6.92417 4.04038 6.49332 4.02476 6.11962 3.90853C5.71982 3.78418 5.5842 3.6156 5.56272 3.49237L4.57758 3.66416Z" fill="#485F7D"/>
</g>
<defs>
<clipPath id="clip0_8310_78519">
<rect width="16" height="16" fill="white"/>
</clipPath>
</defs>
</svg>
