<svg width="16" height="16" viewBox="0 0 16 16" fill="none" xmlns="http://www.w3.org/2000/svg">
<path d="M8 0.5C6.51664 0.5 5.06659 0.939867 3.83323 1.76398C2.59986 2.58809 1.63856 3.75943 1.07091 5.12987C0.50325 6.50032 0.354725 8.00832 0.644114 9.46318C0.933503 10.918 1.64781 12.2544 2.6967 13.3033C3.7456 14.3522 5.08197 15.0665 6.53682 15.3559C7.99168 15.6453 9.49968 15.4968 10.8701 14.9291C12.2406 14.3614 13.4119 13.4001 14.236 12.1668C15.0601 10.9334 15.5 9.48336 15.5 8C15.4987 6.01126 14.7082 4.10433 13.3019 2.69808C11.8957 1.29183 9.98874 0.50125 8 0.5ZM8.65979 12.3232V12.5928C8.66228 12.6811 8.64705 12.7689 8.615 12.8512C8.58294 12.9334 8.53472 13.0084 8.47319 13.0717C8.41165 13.135 8.33804 13.1853 8.25672 13.2197C8.1754 13.2541 8.08802 13.2718 7.99974 13.2718C7.91146 13.2718 7.82408 13.2541 7.74276 13.2197C7.66144 13.1853 7.58783 13.135 7.52629 13.0717C7.46476 13.0084 7.41654 12.9334 7.38448 12.8512C7.35243 12.7689 7.3372 12.6811 7.33969 12.5928V12.2781C6.90833 12.1803 6.50385 11.9886 6.15502 11.7166C5.8062 11.4447 5.52161 11.0992 5.32151 10.7047C5.14895 10.3748 5.31416 9.96206 5.65927 9.8194L5.71172 9.79685C5.85893 9.73561 6.02373 9.73168 6.1737 9.78584C6.32366 9.84001 6.44792 9.94833 6.52203 10.0895C6.76224 10.5474 7.23479 11.1175 8.11224 11.1175C8.80979 11.1175 9.59755 10.7572 9.59755 9.91119C9.59755 9.19108 9.07308 8.81556 7.88724 8.39021C7.06434 8.09178 5.37762 7.61189 5.37762 5.9021C5.37762 5.8271 5.38549 4.10157 7.34336 3.68147V3.41084C7.34087 3.32259 7.3561 3.23475 7.38815 3.15249C7.42021 3.07023 7.46843 2.99524 7.52996 2.93194C7.5915 2.86865 7.66511 2.81833 7.74643 2.78398C7.82775 2.74962 7.91513 2.73192 8.00341 2.73192C8.09169 2.73192 8.17907 2.74962 8.26039 2.78398C8.34171 2.81833 8.41532 2.86865 8.47686 2.93194C8.53839 2.99524 8.58661 3.07023 8.61867 3.15249C8.65072 3.23475 8.66595 3.32259 8.66346 3.41084V3.68829C9.30904 3.79289 9.88948 4.14228 10.2841 4.66381C10.3432 4.742 10.3835 4.83278 10.4018 4.92908C10.4202 5.02538 10.416 5.12461 10.3897 5.21905C10.3634 5.31348 10.3157 5.40059 10.2503 5.47357C10.1848 5.54656 10.1034 5.60346 10.0124 5.63986C9.87949 5.6935 9.73263 5.70203 9.5944 5.66413C9.45616 5.62623 9.33419 5.544 9.2472 5.43007C9.03741 5.14528 8.66189 4.85315 8.04668 4.85315C7.5222 4.85315 6.68881 5.13059 6.68881 5.8958C6.68881 6.60857 7.33444 6.87867 8.66976 7.32133C10.4703 7.94388 10.925 8.85909 10.925 9.90961C10.9276 11.8811 9.0521 12.2556 8.66189 12.3232H8.65979ZM7.44825 10.5138V8.6257C7.64651 8.6687 8.35507 8.94877 8.54965 9.00122V10.6119C8.54965 10.722 8.3021 10.776 7.9979 10.776C7.69371 10.776 7.45035 10.658 7.45035 10.5138H7.44825ZM8.54965 5.26381V6.81836C8.54916 6.82527 8.54704 6.83198 8.54346 6.83792C8.53989 6.84386 8.53496 6.84888 8.52909 6.85256C8.52321 6.85624 8.51655 6.85848 8.50964 6.8591C8.50273 6.85971 8.49578 6.85869 8.48934 6.85612C8.27955 6.78636 7.64493 6.56661 7.47553 6.50891C7.46739 6.50658 7.4602 6.50171 7.45501 6.49501C7.44983 6.48832 7.44691 6.48014 7.44668 6.47168V5.32517C7.44708 5.31117 7.45208 5.29768 7.46089 5.28678C7.4697 5.27589 7.48184 5.26818 7.49546 5.26486C7.65194 5.22053 7.8133 5.19569 7.97588 5.19091C8.26224 5.17989 8.55332 5.22028 8.55332 5.26381H8.54965Z" fill="#243A57"/>
</svg>
