<svg width="14" height="14" viewBox="0 0 14 14" fill="none" xmlns="http://www.w3.org/2000/svg">
<g id="Bold / Money / Dollar">
<g id="Subtract">
<path d="M6.55 4.50849C5.98846 4.66204 5.65 5.09293 5.65 5.5C5.65 5.90707 5.98846 6.33796 6.55 6.49151V4.50849Z" fill="#4F46E5"/>
<path d="M7.45 7.50849V9.49151C8.01154 9.33797 8.35 8.90708 8.35 8.5C8.35 8.09293 8.01154 7.66204 7.45 7.50849Z" fill="#4F46E5"/>
<path fill-rule="evenodd" clip-rule="evenodd" d="M13 7C13 10.3137 10.3137 13 7 13C3.68629 13 1 10.3137 1 7C1 3.68629 3.68629 1 7 1C10.3137 1 13 3.68629 13 7ZM7 2.95C7.24853 2.95 7.45 3.15147 7.45 3.4V3.59004C8.42826 3.7652 9.25 4.50017 9.25 5.5C9.25 5.74853 9.04853 5.95 8.8 5.95C8.55147 5.95 8.35 5.74853 8.35 5.5C8.35 5.09293 8.01154 4.66204 7.45 4.50849V6.59004C8.42826 6.7652 9.25 7.50017 9.25 8.5C9.25 9.49984 8.42826 10.2348 7.45 10.41V10.6C7.45 10.8485 7.24853 11.05 7 11.05C6.75147 11.05 6.55 10.8485 6.55 10.6V10.41C5.57174 10.2348 4.75 9.49984 4.75 8.5C4.75 8.25147 4.95147 8.05 5.2 8.05C5.44853 8.05 5.65 8.25147 5.65 8.5C5.65 8.90708 5.98846 9.33797 6.55 9.49151V7.40996C5.57174 7.2348 4.75 6.49983 4.75 5.5C4.75 4.50017 5.57174 3.7652 6.55 3.59004V3.4C6.55 3.15147 6.75147 2.95 7 2.95Z" fill="#4F46E5"/>
</g>
</g>
</svg>
