<svg width="32" height="32" viewBox="0 0 32 32" fill="none" xmlns="http://www.w3.org/2000/svg">
<g id="Bold Duotone / Time / Calendar">
<path id="Vector" d="M9.25379 2.66669C9.80827 2.66669 10.2578 3.09896 10.2578 3.6322V5.57985C11.1483 5.56324 12.1465 5.56324 13.2697 5.56324H18.6242C19.7473 5.56324 20.7456 5.56324 21.6361 5.57985V3.6322C21.6361 3.09896 22.0856 2.66669 22.6401 2.66669C23.1945 2.66669 23.644 3.09896 23.644 3.6322V5.66527C25.5708 5.81365 26.8356 6.17779 27.7649 7.07147C28.6942 7.96515 29.0728 9.18157 29.2271 11.0345L29.3334 12H3.89949H2.66675V11.0345C2.82103 9.18157 3.19968 7.96515 4.12895 7.07147C5.05823 6.17779 6.32309 5.81365 8.24982 5.66527V3.6322C8.24982 3.09896 8.69931 2.66669 9.25379 2.66669Z" fill="#F57B60"/>
<path id="Vector_2" opacity="0.5" d="M29.3334 18.6667V16C29.3334 14.8813 29.329 12.8869 29.3118 11.9999H2.67954C2.66234 12.8869 2.66669 14.8813 2.66669 16V18.6667C2.66669 23.695 2.66669 26.2091 4.22878 27.7712C5.79088 29.3333 8.30504 29.3333 13.3334 29.3333H18.6667C23.695 29.3333 26.2092 29.3333 27.7713 27.7712C29.3334 26.2091 29.3334 23.695 29.3334 18.6667Z" fill="#F57B60"/>
<g id="Vector_3">
<path d="M23.9999 22.6667C23.9999 23.403 23.403 24 22.6666 24C21.9302 24 21.3333 23.403 21.3333 22.6667C21.3333 21.9303 21.9302 21.3333 22.6666 21.3333C23.403 21.3333 23.9999 21.9303 23.9999 22.6667Z" fill="#F57B60"/>
<path d="M23.9999 17.3333C23.9999 18.0697 23.403 18.6667 22.6666 18.6667C21.9302 18.6667 21.3333 18.0697 21.3333 17.3333C21.3333 16.597 21.9302 16 22.6666 16C23.403 16 23.9999 16.597 23.9999 17.3333Z" fill="#F57B60"/>
</g>
<g id="Vector_4">
<path d="M17.3334 22.6667C17.3334 23.403 16.7365 24 16.0001 24C15.2637 24 14.6667 23.403 14.6667 22.6667C14.6667 21.9303 15.2637 21.3333 16.0001 21.3333C16.7365 21.3333 17.3334 21.9303 17.3334 22.6667Z" fill="#F57B60"/>
<path d="M17.3334 17.3333C17.3334 18.0697 16.7365 18.6667 16.0001 18.6667C15.2637 18.6667 14.6667 18.0697 14.6667 17.3333C14.6667 16.597 15.2637 16 16.0001 16C16.7365 16 17.3334 16.597 17.3334 17.3333Z" fill="#F57B60"/>
</g>
<g id="Vector_5">
<path d="M10.6667 22.6667C10.6667 23.403 10.0697 24 9.33333 24C8.59695 24 8 23.403 8 22.6667C8 21.9303 8.59695 21.3333 9.33333 21.3333C10.0697 21.3333 10.6667 21.9303 10.6667 22.6667Z" fill="#F57B60"/>
<path d="M10.6667 17.3333C10.6667 18.0697 10.0697 18.6667 9.33333 18.6667C8.59695 18.6667 8 18.0697 8 17.3333C8 16.597 8.59695 16 9.33333 16C10.0697 16 10.6667 16.597 10.6667 17.3333Z" fill="#F57B60"/>
</g>
</g>
</svg>
