<svg width="34" height="33" viewBox="0 0 34 33" fill="none" xmlns="http://www.w3.org/2000/svg">
<rect x="1" y="0.5" width="32" height="32" rx="6" stroke="#D2D8E0"/>
<rect x="5" y="4.5" width="24" height="24" rx="4" fill="#F3F4F6"/>
<rect x="10" y="10" width="14" height="14" rx="2" stroke="#485F7D" stroke-width="1.47"/>
<path d="M14.1757 14.1757C14.4101 13.9414 14.7899 13.9414 15.0243 14.1757L17 16.1515L18.9757 14.1757C19.2101 13.9414 19.59 13.9414 19.8243 14.1757C20.0586 14.4101 20.0586 14.79 19.8243 15.0243L17.8485 17L19.8243 18.9757C20.0586 19.21 20.0586 19.5899 19.8243 19.8243C19.5899 20.0586 19.21 20.0586 18.9757 19.8243L17 17.8485L15.0243 19.8243C14.79 20.0586 14.4101 20.0586 14.1757 19.8243C13.9414 19.5899 13.9414 19.2101 14.1757 18.9757L16.1515 17L14.1757 15.0243C13.9414 14.7899 13.9414 14.41 14.1757 14.1757Z" fill="#485F7D" stroke="#485F7D" stroke-width="0.3" stroke-linecap="round"/>
</svg>
