<svg width="20" height="20" viewBox="0 0 20 20" fill="none" xmlns="http://www.w3.org/2000/svg">
<rect x="3" y="3" width="14" height="14" rx="2" stroke="#FFFFFF" stroke-width="1.47"/>
<path d="M7.17574 7.17574C7.41005 6.94142 7.78995 6.94142 8.02426 7.17574L10 9.15148L11.9757 7.17574C12.2101 6.94143 12.59 6.94143 12.8243 7.17574C13.0586 7.41006 13.0586 7.78996 12.8243 8.02427L10.8485 10L12.8243 11.9757C13.0586 12.21 13.0586 12.5899 12.8243 12.8243C12.5899 13.0586 12.21 13.0586 11.9757 12.8243L10 10.8485L8.02427 12.8243C7.78995 13.0586 7.41006 13.0586 7.17574 12.8243C6.94143 12.5899 6.94143 12.2101 7.17574 11.9757L9.15148 10L7.17574 8.02426C6.94142 7.78995 6.94142 7.41005 7.17574 7.17574Z" fill="#FFFFFF" stroke="#FFFFFF" stroke-width="0.3" stroke-linecap="round"/>
</svg>
