<svg width="14" height="14" viewBox="0 0 14 14" fill="none" xmlns="http://www.w3.org/2000/svg">
<path d="M7.8737 7.87565C7.38759 7.87565 6.97439 7.70551 6.63411 7.36523C6.29384 7.02496 6.1237 6.61176 6.1237 6.12565C6.1237 5.63954 6.29384 5.22635 6.63411 4.88607C6.97439 4.54579 7.38759 4.37565 7.8737 4.37565C8.35981 4.37565 8.773 4.54579 9.11328 4.88607C9.45356 5.22635 9.6237 5.63954 9.6237 6.12565C9.6237 6.61176 9.45356 7.02496 9.11328 7.36523C8.773 7.70551 8.35981 7.87565 7.8737 7.87565ZM3.20703 9.91732C2.96641 9.91732 2.76042 9.83164 2.58906 9.66029C2.41771 9.48893 2.33203 9.28294 2.33203 9.04232V3.20898C2.33203 2.96836 2.41771 2.76237 2.58906 2.59102C2.76042 2.41966 2.96641 2.33398 3.20703 2.33398H12.5404C12.781 2.33398 12.987 2.41966 13.1583 2.59102C13.3297 2.76237 13.4154 2.96836 13.4154 3.20898V9.04232C13.4154 9.28294 13.3297 9.48893 13.1583 9.66029C12.987 9.83164 12.781 9.91732 12.5404 9.91732H3.20703ZM4.66536 9.04232H11.082C11.082 8.63398 11.223 8.28885 11.5049 8.0069C11.7869 7.72496 12.132 7.58398 12.5404 7.58398V4.66732C12.132 4.66732 11.7869 4.52635 11.5049 4.2444C11.223 3.96246 11.082 3.61732 11.082 3.20898H4.66536C4.66536 3.61732 4.52439 3.96246 4.24245 4.2444C3.9605 4.52635 3.61536 4.66732 3.20703 4.66732V7.58398C3.61536 7.58398 3.9605 7.72496 4.24245 8.0069C4.52439 8.28885 4.66536 8.63398 4.66536 9.04232ZM11.6654 11.6673H1.45703C1.21641 11.6673 1.01042 11.5816 0.839063 11.4103C0.667708 11.2389 0.582031 11.0329 0.582031 10.7923V4.08398H1.45703V10.7923H11.6654V11.6673Z" fill="#576D8B" fill-opacity="0.8"/>
</svg>
