<svg width="18" height="17" viewBox="0 0 18 17" fill="none" xmlns="http://www.w3.org/2000/svg">
<path d="M5.49614 9.22984L1.85945 6.68421C1.77214 6.62303 1.71268 6.52972 1.69412 6.42474C1.67556 6.31976 1.69942 6.21171 1.76046 6.12431L4.4748 2.24759C4.50496 2.20427 4.54336 2.16734 4.58781 2.13889C4.63226 2.11044 4.68188 2.09104 4.73384 2.08179C4.7858 2.07255 4.83907 2.07364 4.89061 2.08501C4.94214 2.09638 4.99093 2.11781 5.03417 2.14806L8.67246 4.69316C8.75988 4.75435 8.81946 4.84772 8.83812 4.95279C8.85678 5.05786 8.83299 5.16604 8.77198 5.25359L6.05764 9.13084C6.02734 9.1743 5.98876 9.21134 5.94411 9.23985C5.89946 9.26835 5.84962 9.28776 5.79745 9.29696C5.74528 9.30616 5.69181 9.30496 5.6401 9.29344C5.5884 9.28193 5.53947 9.26031 5.49614 9.22984Z" fill="#485F7D"/>
<path d="M7.66389 7.6007C7.8672 7.30798 8.06732 7.02057 8.27222 6.72679C8.31822 6.65885 8.3886 6.61123 8.46876 6.59379C8.54893 6.57635 8.63273 6.59043 8.70279 6.63311H8.70545C11.572 8.45935 14.4379 10.2867 17.303 12.115C18.1013 12.6249 18.236 13.634 17.592 14.2322C17.1087 14.6814 16.4041 14.6931 15.8224 14.2482C13.9897 12.8463 12.1589 11.4423 10.3298 10.0362L7.73414 8.04723C7.66715 7.9962 7.62245 7.92127 7.60936 7.83807C7.59627 7.75488 7.6158 7.66984 7.66389 7.6007Z" fill="#485F7D"/>
<path d="M9.30793 16.6464H0.469813C0.427235 15.7384 1.20428 14.9156 2.17293 14.9028C3.98462 14.8801 5.79649 14.8801 7.60854 14.9028C8.56867 14.9161 9.35849 15.7538 9.30793 16.6464Z" fill="#485F7D"/>
<path d="M10.4235 4.04917C10.3648 4.13849 10.2848 4.21176 10.1906 4.26232C10.0965 4.31288 9.9912 4.33913 9.88433 4.3387C9.68532 4.33142 9.49328 4.26345 9.33401 4.1439C8.68186 3.69045 8.03059 3.2361 7.38021 2.78087C6.69223 2.29974 6.00335 1.81897 5.31359 1.33855C4.83459 1.00644 4.90058 0.654105 4.98148 0.474214C5.04564 0.347858 5.13643 0.236913 5.24759 0.149024C5.35632 0.053004 5.49638 8.57799e-06 5.64144 1.56466e-06C5.72121 -0.00018285 5.80017 0.0159362 5.87349 0.0473695C5.96207 0.0827769 6.04678 0.127184 6.12629 0.179893C7.39139 1.0586 8.70545 1.97775 10.1446 2.99004C10.5608 3.2817 10.6699 3.69736 10.4235 4.04917Z" fill="#485F7D"/>
<path d="M5.50945 11.1155C5.45533 11.1961 5.38459 11.2643 5.30197 11.3153C5.21936 11.3664 5.12677 11.3991 5.03044 11.4114C5.00239 11.4151 4.97412 11.4169 4.94582 11.4167C4.76768 11.4126 4.59517 11.3535 4.45192 11.2475C3.63016 10.6743 2.79617 10.0894 1.98985 9.52309C1.44378 9.13954 0.897012 8.75598 0.34953 8.37242C0.0248732 8.1457 -0.0815717 7.82956 0.0637256 7.52672C0.115999 7.42592 0.188467 7.33697 0.276615 7.2654C0.396322 7.16053 0.547602 7.09861 0.706483 7.08945C0.865364 7.08029 1.02276 7.12442 1.15372 7.21484L1.18725 7.23772C2.53963 8.17763 3.91064 9.13563 5.26196 10.0857C5.65581 10.3619 5.75267 10.7664 5.50945 11.1155Z" fill="#485F7D"/>
</svg>
