<svg viewBox="0 0 37 40" fill="none" xmlns="http://www.w3.org/2000/svg">
<path d="M3.58594 39.7517C2.78594 39.7517 2.08594 39.4517 1.48594 38.8517C0.885938 38.2517 0.585938 37.5517 0.585938 36.7517V26.8517L7.33594 19.4017L9.48594 21.5517L3.58594 28.0017H33.5859L28.0359 21.7017L30.1859 19.5517L36.5859 26.8517V36.7517C36.5859 37.5517 36.2859 38.2517 35.6859 38.8517C35.0859 39.4517 34.3859 39.7517 33.5859 39.7517H3.58594ZM3.58594 36.7517H33.5859V31.0017H3.58594V36.7517ZM16.6859 24.5017L8.73594 16.5517C8.1026 15.9183 7.81927 15.21 7.88594 14.4267C7.9526 13.6433 8.28594 12.9517 8.88594 12.3517L19.4859 1.75165C20.0526 1.18499 20.7526 0.893319 21.5859 0.876652C22.4193 0.859986 23.1359 1.15165 23.7359 1.75165L31.6859 9.70165C32.2526 10.2683 32.5443 10.9433 32.5609 11.7267C32.5776 12.51 32.2526 13.235 31.5859 13.9017L20.9859 24.5017C20.4193 25.0683 19.7193 25.3683 18.8859 25.4017C18.0526 25.435 17.3193 25.135 16.6859 24.5017ZM29.1359 11.6517L21.6359 4.15165L11.2359 14.5517L18.7359 22.0517L29.1359 11.6517Z" fill="#E5007A"/>
</svg>
