<svg width="18" height="19" viewBox="0 0 18 19" fill="none" xmlns="http://www.w3.org/2000/svg">
<path d="M8.99094 18.3555C7.2113 18.3537 5.47213 17.8243 3.99328 16.8343C2.51443 15.8443 1.36229 14.438 0.682491 12.7933C0.00269138 11.1487 -0.174247 9.33934 0.174042 7.59411C0.522331 5.84888 1.38021 4.24608 2.63924 2.98831C3.89827 1.73055 5.50193 0.874279 7.24751 0.527744C8.99309 0.181211 10.8022 0.35997 12.4462 1.04142C14.0902 1.72288 15.4953 2.87643 16.4838 4.35628C17.4724 5.83612 18 7.57582 18 9.35546C18.0005 10.5383 17.7678 11.7096 17.3152 12.8024C16.8625 13.8951 16.1988 14.8879 15.362 15.7239C14.5252 16.5598 13.5317 17.2225 12.4385 17.6741C11.3453 18.1257 10.1738 18.3572 8.99094 18.3555ZM9 2.15505C7.57589 2.15505 6.18376 2.57735 4.99966 3.36854C3.81556 4.15973 2.89267 5.28428 2.34768 6.59999C1.8027 7.91569 1.66011 9.36345 1.93794 10.7602C2.21577 12.1569 2.90154 13.4399 3.90854 14.4469C4.91553 15.4539 6.19852 16.1397 7.59527 16.4175C8.99201 16.6954 10.4398 16.5528 11.7555 16.0078C13.0712 15.4628 14.1957 14.5399 14.9869 13.3558C15.7781 12.1717 16.2004 10.7796 16.2004 9.35546C16.2008 8.40979 16.0148 7.47331 15.6531 6.59955C15.2913 5.72579 14.761 4.93188 14.0923 4.26319C13.4236 3.59449 12.6297 3.06413 11.7559 2.7024C10.8822 2.34068 9.94567 2.15468 9 2.15505Z" fill="#1677FE"/>
<path d="M9.90013 5.61627C9.90013 6.11341 9.49713 6.51641 8.99999 6.51641C8.50286 6.51641 8.09986 6.11341 8.09986 5.61627C8.09986 5.11914 8.50286 4.71614 8.99999 4.71614C9.49713 4.71614 9.90013 5.11914 9.90013 5.61627Z" fill="#1677FE"/>
<path d="M9.90013 12.9553V8.65877C9.90013 8.42004 9.8053 8.19109 9.63649 8.02228C9.46768 7.85347 9.23872 7.75863 8.99999 7.75863C8.76126 7.75863 8.53231 7.85347 8.3635 8.02228C8.19469 8.19109 8.09986 8.42004 8.09986 8.65877V12.9553C8.09986 13.1941 8.19469 13.423 8.3635 13.5918C8.53231 13.7606 8.76126 13.8555 8.99999 13.8555C9.23872 13.8555 9.46768 13.7606 9.63649 13.5918C9.8053 13.423 9.90013 13.1941 9.90013 12.9553Z" fill="#1677FE"/>
</svg>
