<svg width="20" height="21" viewBox="0 0 20 21" fill="none" xmlns="http://www.w3.org/2000/svg">
<g id="Caution">
<path id="Subtract" fill-rule="evenodd" clip-rule="evenodd" d="M5.54958 3.91466C6.86412 3.03464 8.41004 2.5641 9.99195 2.56251C11.0433 2.56096 12.0847 2.76677 13.0565 3.16816C14.0282 3.56955 14.9113 4.15864 15.6551 4.90171C16.3989 5.64478 16.9889 6.52725 17.3913 7.4986C17.7936 8.46995 18.0005 9.51111 18 10.5625C18 12.1444 17.531 13.6908 16.6523 15.0062C15.7736 16.3216 14.5247 17.347 13.0633 17.9528C11.602 18.5585 9.99386 18.7174 8.44224 18.4094C6.89061 18.1013 5.46513 17.3402 4.34599 16.2222C3.22685 15.1042 2.46429 13.6795 2.1547 12.1282C1.84511 10.5768 2.00239 8.96856 2.60666 7.50661C3.21093 6.04467 4.23505 4.79468 5.54958 3.91466ZM11.1556 11.486V6.6804C11.1556 6.41339 11.0479 6.15731 10.8562 5.96849C10.6644 5.77968 10.4044 5.67361 10.1333 5.67361C9.86222 5.67361 9.60222 5.77968 9.41051 5.96849C9.21881 6.15731 9.11111 6.41339 9.11111 6.6804V11.486C9.11111 11.7531 9.21881 12.0091 9.41051 12.198C9.60222 12.3868 9.86222 12.4928 10.1333 12.4928C10.4044 12.4928 10.6644 12.3868 10.8562 12.198C11.0479 12.0091 11.1556 11.7531 11.1556 11.486ZM10.1333 13.8822C10.6979 13.8822 11.1556 14.333 11.1556 14.889C11.1556 15.4451 10.6979 15.8958 10.1333 15.8958C9.56877 15.8958 9.11111 15.4451 9.11111 14.889C9.11111 14.333 9.56877 13.8822 10.1333 13.8822Z" fill="#F7C752"/>
</g>
</svg>
