<svg width="16" height="16" viewBox="0 0 16 16" fill="none" xmlns="http://www.w3.org/2000/svg">
<path d="M7.61541 2.00001C8.80184 2.0012 9.96129 2.35411 10.9472 3.01412C11.9331 3.67414 12.7012 4.61162 13.1544 5.70809C13.6076 6.80455 13.7255 8.01075 13.4933 9.17424C13.2612 10.3377 12.6892 11.4063 11.8499 12.2448C11.0105 13.0833 9.94142 13.6541 8.7777 13.8851C7.61398 14.1162 6.40789 13.997 5.31188 13.5427C4.21588 13.0884 3.27917 12.3194 2.62014 11.3328C1.96112 10.3462 1.60938 9.18643 1.60938 8C1.60901 7.21146 1.76416 6.43059 2.06593 5.70207C2.36771 4.97356 2.81019 4.31171 3.36805 3.75441C3.92592 3.19711 4.58821 2.75529 5.31703 2.45425C6.04584 2.1532 6.82687 1.99885 7.61541 2.00001ZM7.60938 12.8003C8.55878 12.8003 9.48687 12.5187 10.2763 11.9913C11.0657 11.4638 11.6809 10.7141 12.0443 9.83699C12.4076 8.95985 12.5026 7.99468 12.3174 7.06352C12.1322 6.13235 11.675 5.27703 11.0037 4.6057C10.3324 3.93436 9.47703 3.47718 8.54586 3.29196C7.6147 3.10674 6.64953 3.20181 5.77239 3.56513C4.89526 3.92845 4.14555 4.54371 3.61809 5.33311C3.09063 6.12251 2.8091 7.0506 2.8091 8C2.80886 8.63045 2.93285 9.25477 3.174 9.83728C3.41515 10.4198 3.76873 10.9491 4.21452 11.3949C4.66032 11.8407 5.18959 12.1942 5.7721 12.4354C6.35461 12.6765 6.97893 12.8005 7.60938 12.8003Z" fill="#FF3C5F"/>
<path d="M7.00929 10.4928C7.00929 10.1614 7.27796 9.8927 7.60938 9.8927C7.9408 9.8927 8.20947 10.1614 8.20947 10.4928C8.20947 10.8242 7.9408 11.0929 7.60938 11.0929C7.27796 11.0929 7.00929 10.8242 7.00929 10.4928Z" fill="#FF3C5F"/>
<path d="M7.00929 5.60009V8.46447C7.00929 8.62362 7.07251 8.77626 7.18505 8.88879C7.29759 9.00133 7.45022 9.06456 7.60938 9.06456C7.76853 9.06456 7.92117 9.00133 8.03371 8.88879C8.14625 8.77626 8.20947 8.62362 8.20947 8.46447V5.60009C8.20947 5.44094 8.14625 5.2883 8.03371 5.17576C7.92117 5.06322 7.76853 5 7.60938 5C7.45022 5 7.29759 5.06322 7.18505 5.17576C7.07251 5.2883 7.00929 5.44094 7.00929 5.60009Z" fill="#FF3C5F"/>
</svg>
