<svg width="24" height="25" viewBox="0 0 24 25" fill="none" xmlns="http://www.w3.org/2000/svg">
<path d="M11.9909 21.6055C10.2113 21.6037 8.47213 21.0743 6.99328 20.0843C5.51443 19.0943 4.36229 17.688 3.68249 16.0433C3.00269 14.3987 2.82575 12.5893 3.17404 10.8441C3.52233 9.09888 4.38021 7.49608 5.63924 6.23831C6.89827 4.98055 8.50193 4.12428 10.2475 3.77774C11.9931 3.43121 13.8022 3.60997 15.4462 4.29142C17.0902 4.97288 18.4953 6.12643 19.4838 7.60628C20.4724 9.08612 21 10.8258 21 12.6055C21.0005 13.7883 20.7678 14.9596 20.3152 16.0524C19.8625 17.1451 19.1988 18.1379 18.362 18.9739C17.5252 19.8098 16.5317 20.4725 15.4385 20.9241C14.3453 21.3757 13.1738 21.6072 11.9909 21.6055ZM12 5.40505C10.5759 5.40505 9.18376 5.82735 7.99966 6.61854C6.81556 7.40973 5.89267 8.53428 5.34768 9.84999C4.8027 11.1657 4.66011 12.6135 4.93794 14.0102C5.21577 15.4069 5.90154 16.6899 6.90854 17.6969C7.91553 18.7039 9.19852 19.3897 10.5953 19.6675C11.992 19.9454 13.4398 19.8028 14.7555 19.2578C16.0712 18.7128 17.1957 17.7899 17.9869 16.6058C18.7781 15.4217 19.2004 14.0296 19.2004 12.6055C19.2008 11.6598 19.0148 10.7233 18.6531 9.84955C18.2913 8.97579 17.761 8.18188 17.0923 7.51319C16.4236 6.84449 15.6297 6.31413 14.7559 5.9524C13.8822 5.59068 12.9457 5.40468 12 5.40505Z" fill="#1677FE"/>
<path d="M12.9001 8.86627C12.9001 9.36341 12.4971 9.76641 12 9.76641C11.5029 9.76641 11.0999 9.36341 11.0999 8.86627C11.0999 8.36914 11.5029 7.96614 12 7.96614C12.4971 7.96614 12.9001 8.36914 12.9001 8.86627Z" fill="#1677FE"/>
<path d="M12.9001 16.2053V11.9088C12.9001 11.67 12.8053 11.4411 12.6365 11.2723C12.4677 11.1035 12.2387 11.0086 12 11.0086C11.7613 11.0086 11.5323 11.1035 11.3635 11.2723C11.1947 11.4411 11.0999 11.67 11.0999 11.9088V16.2053C11.0999 16.4441 11.1947 16.673 11.3635 16.8418C11.5323 17.0106 11.7613 17.1055 12 17.1055C12.2387 17.1055 12.4677 17.0106 12.6365 16.8418C12.8053 16.673 12.9001 16.4441 12.9001 16.2053Z" fill="#1677FE"/>
</svg>
