<svg width="32" height="32" viewBox="0 0 32 32" fill="none" xmlns="http://www.w3.org/2000/svg">
<g id="Bold Duotone / Messages, Conversation / Chat Line">
<path id="Vector" opacity="0.5" d="M18.1718 27.2958L17.449 28.5169C16.8047 29.6053 15.1954 29.6053 14.5512 28.5169L13.8284 27.2958C13.2677 26.3486 12.9874 25.875 12.5371 25.6131C12.0869 25.3513 11.52 25.3415 10.3862 25.322C8.71237 25.2931 7.6626 25.1906 6.78219 24.8259C5.14867 24.1493 3.85084 22.8514 3.17422 21.2179C2.66675 19.9928 2.66675 18.4396 2.66675 15.3334V14C2.66675 9.63545 2.66675 7.45316 3.64915 5.85003C4.19885 4.95299 4.95305 4.19879 5.85009 3.64909C7.45322 2.66669 9.63551 2.66669 14.0001 2.66669H18.0001C22.3647 2.66669 24.5469 2.66669 26.1501 3.64909C27.0471 4.19879 27.8013 4.95299 28.351 5.85003C29.3334 7.45316 29.3334 9.63545 29.3334 14V15.3334C29.3334 18.4396 29.3334 19.9928 28.8259 21.2179C28.1493 22.8514 26.8515 24.1493 25.218 24.8259C24.3376 25.1906 23.2878 25.2931 21.6139 25.322C20.4801 25.3415 19.9132 25.3513 19.463 25.6131C19.0127 25.875 18.7324 26.3486 18.1718 27.2958L18.1718 27.2958Z" fill="#F57B60"/>
<g id="Vector_2">
<path d="M9.66675 12C9.66675 11.4477 10.1145 11 10.6667 11H21.3334C21.8857 11 22.3334 11.4477 22.3334 12C22.3334 12.5523 21.8857 13 21.3334 13H10.6667C10.1145 13 9.66675 12.5523 9.66675 12Z" fill="#F57B60"/>
<path d="M9.66675 16.6667C9.66675 16.1144 10.1145 15.6667 10.6667 15.6667H18.0001C18.5524 15.6667 19.0001 16.1144 19.0001 16.6667C19.0001 17.219 18.5524 17.6667 18.0001 17.6667H10.6667C10.1145 17.6667 9.66675 17.219 9.66675 16.6667Z" fill="#F57B60"/>
</g>
</g>
</svg>
