<?xml version="1.0" encoding="UTF-8"?>
<!DOCTYPE svg PUBLIC "-//W3C//DTD SVG 1.1//EN" "http://www.w3.org/Graphics/SVG/1.1/DTD/svg11.dtd">
<svg xmlns="http://www.w3.org/2000/svg" version="1.1" width="35px" height="25px" style="shape-rendering:geometricPrecision; text-rendering:geometricPrecision; image-rendering:optimizeQuality; fill-rule:evenodd; clip-rule:evenodd" xmlns:xlink="http://www.w3.org/1999/xlink">
<g><path style="opacity:1" fill="#fefefe" d="M -0.5,-0.5 C 1.83333,-0.5 4.16667,-0.5 6.5,-0.5C 6.33449,3.51383 6.50115,7.51383 7,11.5C 7.27842,12.4158 7.77842,13.0825 8.5,13.5C 8.32842,14.4916 8.66175,15.1583 9.5,15.5C 9.97306,16.9063 10.9731,17.573 12.5,17.5C 16.5955,18.9886 20.5955,18.4886 24.5,16C 28.1776,12.7966 31.511,9.29658 34.5,5.5C 34.5,11.8333 34.5,18.1667 34.5,24.5C 22.8333,24.5 11.1667,24.5 -0.5,24.5C -0.5,16.1667 -0.5,7.83333 -0.5,-0.5 Z"/></g>
<g><path style="opacity:1" fill="#8bacfa" d="M 6.5,-0.5 C 6.83333,-0.5 7.16667,-0.5 7.5,-0.5C 7.35307,4.21425 7.6864,8.88091 8.5,13.5C 7.77842,13.0825 7.27842,12.4158 7,11.5C 6.50115,7.51383 6.33449,3.51383 6.5,-0.5 Z"/></g>
<g><path style="opacity:1" fill="#eff3fe" d="M 7.5,-0.5 C 16.5,-0.5 25.5,-0.5 34.5,-0.5C 34.5,1.5 34.5,3.5 34.5,5.5C 31.511,9.29658 28.1776,12.7966 24.5,16C 20.5955,18.4886 16.5955,18.9886 12.5,17.5C 12.0269,16.0937 11.0269,15.427 9.5,15.5C 8.66175,15.1583 8.32842,14.4916 8.5,13.5C 7.6864,8.88091 7.35307,4.21425 7.5,-0.5 Z"/></g>
<g><path style="opacity:1" fill="#a5befb" d="M 9.5,15.5 C 11.0269,15.427 12.0269,16.0937 12.5,17.5C 10.9731,17.573 9.97306,16.9063 9.5,15.5 Z"/></g>
</svg>
