<svg width="24" height="24" viewBox="0 0 24 24" fill="none" xmlns="http://www.w3.org/2000/svg">
<path d="M20.3992 20.4492H20.4492V20.3992V3.59922V3.54922H20.3992H3.59922H3.54922V3.59922V20.3992V20.4492H3.59922H20.3992ZM16.7992 8.34922H11.9992C11.3668 8.34922 10.8492 7.8316 10.8492 7.19922C10.8492 6.56683 11.3668 6.04922 11.9992 6.04922H16.7992C17.4316 6.04922 17.9492 6.56683 17.9492 7.19922C17.9492 7.8316 17.4316 8.34922 16.7992 8.34922ZM16.7992 13.1492H11.9992C11.3668 13.1492 10.8492 12.6316 10.8492 11.9992C10.8492 11.3668 11.3668 10.8492 11.9992 10.8492H16.7992C17.4316 10.8492 17.9492 11.3668 17.9492 11.9992C17.9492 12.6316 17.4316 13.1492 16.7992 13.1492ZM16.7992 17.9492H11.9992C11.3668 17.9492 10.8492 17.4316 10.8492 16.7992C10.8492 16.1668 11.3668 15.6492 11.9992 15.6492H16.7992C17.4316 15.6492 17.9492 16.1668 17.9492 16.7992C17.9492 17.4316 17.4316 17.9492 16.7992 17.9492ZM6.04922 6.04922H8.34922V8.34922H6.04922V6.04922ZM6.04922 10.8492H8.34922V13.1492H6.04922V10.8492ZM6.04922 15.6492H8.34922V17.9492H6.04922V15.6492ZM2.39922 1.24922H21.5992C22.2316 1.24922 22.7492 1.76683 22.7492 2.39922V21.5992C22.7492 22.2316 22.2316 22.7492 21.5992 22.7492H2.39922C1.76683 22.7492 1.24922 22.2316 1.24922 21.5992V2.39922C1.24922 1.76683 1.76683 1.24922 2.39922 1.24922Z" fill="#51CC18" stroke="white" stroke-width="0.1"/>
</svg>
