<svg width="14" height="14" viewBox="0 0 14 14" fill="none" xmlns="http://www.w3.org/2000/svg">
<g id="File_dock_fill">
<g id="Vector">
<path d="M10.6667 5C11.403 5 12 5.59695 12 6.33333C12 7.06971 11.403 7.66667 10.6667 7.66667C9.93029 7.66667 9.33333 7.06971 9.33333 6.33333C9.33333 5.59695 9.93029 5 10.6667 5Z" fill="#DB511F"/>
<path d="M10.6667 10.3333C11.403 10.3333 12 10.9303 12 11.6667C12 12.403 11.403 13 10.6667 13C9.93029 13 9.33333 12.403 9.33333 11.6667C9.33333 10.9303 9.93029 10.3333 10.6667 10.3333Z" fill="#DB511F"/>
<path d="M3.33333 3.66667C2.59695 3.66667 2 3.06971 2 2.33333C2 1.59695 2.59695 1 3.33333 1C4.06971 1 4.66667 1.59695 4.66667 2.33333C4.66667 3.06971 4.06971 3.66667 3.33333 3.66667Z" fill="#DB511F"/>
<path d="M9.33333 6.33333C9.33333 5.59695 9.93029 5 10.6667 5C11.403 5 12 5.59695 12 6.33333C12 7.06971 11.403 7.66667 10.6667 7.66667C9.93029 7.66667 9.33333 7.06971 9.33333 6.33333ZM9.33333 6.33333L6 6.33333C4.74292 6.33333 4.11438 6.33333 3.72386 5.94281C3.33333 5.55228 3.33333 4.92375 3.33333 3.66667M9.33333 11.6667C9.33333 10.9303 9.93029 10.3333 10.6667 10.3333C11.403 10.3333 12 10.9303 12 11.6667C12 12.403 11.403 13 10.6667 13C9.93029 13 9.33333 12.403 9.33333 11.6667ZM9.33333 11.6667H6C4.74292 11.6667 4.11438 11.6667 3.72386 11.2761C3.33333 10.8856 3.33333 10.2571 3.33333 9V3M3.33333 3.66667C4.06971 3.66667 4.66667 3.06971 4.66667 2.33333C4.66667 1.59695 4.06971 1 3.33333 1C2.59695 1 2 1.59695 2 2.33333C2 3.06971 2.59695 3.66667 3.33333 3.66667Z" stroke="#DB511F" stroke-width="1.2"/>
</g>
</g>
</svg>
