<svg width="13" height="15" viewBox="0 0 13 15" fill="none" xmlns="http://www.w3.org/2000/svg">
<path d="M10.3889 5.66927C11.1866 5.66927 11.8333 6.31597 11.8333 7.11372C11.8333 7.91146 11.1866 8.55816 10.3889 8.55816C9.59114 8.55816 8.94445 7.91146 8.94445 7.11371C8.94445 6.31597 9.59114 5.66927 10.3889 5.66927Z" fill="#485F7D"/>
<path d="M10.3889 11.447C11.1866 11.447 11.8333 12.0937 11.8333 12.8915C11.8333 13.6892 11.1866 14.3359 10.3889 14.3359C9.59114 14.3359 8.94445 13.6892 8.94445 12.8915C8.94445 12.0937 9.59114 11.447 10.3889 11.447Z" fill="#485F7D"/>
<path d="M2.44444 4.22483C1.6467 4.22483 1 3.57813 1 2.78038C1 1.98264 1.6467 1.33594 2.44444 1.33594C3.24219 1.33594 3.88889 1.98264 3.88889 2.78038C3.88889 3.57813 3.24219 4.22483 2.44444 4.22483Z" fill="#485F7D"/>
<path d="M8.94444 7.11371C8.94444 6.31597 9.59114 5.66927 10.3889 5.66927C11.1866 5.66927 11.8333 6.31597 11.8333 7.11372C11.8333 7.91146 11.1866 8.55816 10.3889 8.55816C9.59114 8.55816 8.94444 7.91146 8.94444 7.11371ZM8.94444 7.11371L5.33333 7.11372C3.9715 7.11372 3.29058 7.11372 2.86751 6.69065C2.44444 6.26758 2.44444 5.58666 2.44444 4.22483M8.94444 12.8915C8.94444 12.0937 9.59114 11.447 10.3889 11.447C11.1866 11.447 11.8333 12.0937 11.8333 12.8915C11.8333 13.6892 11.1866 14.3359 10.3889 14.3359C9.59114 14.3359 8.94444 13.6892 8.94444 12.8915ZM8.94444 12.8915H5.33333C3.9715 12.8915 3.29058 12.8915 2.86751 12.4684C2.44444 12.0454 2.44444 11.3644 2.44444 10.0026V3.5026M2.44444 4.22483C3.24219 4.22483 3.88889 3.57813 3.88889 2.78038C3.88889 1.98264 3.24219 1.33594 2.44444 1.33594C1.6467 1.33594 1 1.98264 1 2.78038C1 3.57813 1.6467 4.22483 2.44444 4.22483Z" stroke="#485F7D" stroke-width="1.2"/>
</svg>
