<svg width="30" height="30" viewBox="0 0 30 30" fill="none" xmlns="http://www.w3.org/2000/svg">
<g id="CircleWavyQuestion">
<circle id="Ellipse 793" cx="15" cy="15" r="15" fill="black" fill-opacity="0.12"/>
<path id="Vector" d="M24.1781 12.6375C23.8219 12.2719 23.4562 11.8875 23.3156 11.5594C23.175 11.2313 23.1844 10.7438 23.175 10.2469C23.1656 9.3375 23.1469 8.29688 22.425 7.575C21.7031 6.85312 20.6625 6.83437 19.7531 6.825C19.2562 6.81562 18.75 6.80625 18.4406 6.68437C18.1312 6.5625 17.7281 6.17813 17.3625 5.82188C16.7156 5.20313 15.975 4.5 15 4.5C14.025 4.5 13.2844 5.20313 12.6375 5.82188C12.2719 6.17813 11.8875 6.54375 11.5594 6.68437C11.2313 6.825 10.7438 6.81562 10.2469 6.825C9.3375 6.83437 8.29688 6.85312 7.575 7.575C6.85312 8.29688 6.83437 9.3375 6.825 10.2469C6.81562 10.7438 6.80625 11.25 6.68437 11.5594C6.5625 11.8688 6.17813 12.2719 5.82188 12.6375C5.20313 13.2844 4.5 14.025 4.5 15C4.5 15.975 5.20313 16.7156 5.82188 17.3625C6.17813 17.7281 6.54375 18.1125 6.68437 18.4406C6.825 18.7687 6.81562 19.2562 6.825 19.7531C6.83437 20.6625 6.85312 21.7031 7.575 22.425C8.29688 23.1469 9.3375 23.1656 10.2469 23.175C10.7438 23.1844 11.25 23.1938 11.5594 23.3156C11.8688 23.4375 12.2719 23.8219 12.6375 24.1781C13.2844 24.7969 14.025 25.5 15 25.5C15.975 25.5 16.7156 24.7969 17.3625 24.1781C17.7281 23.8219 18.1125 23.4562 18.4406 23.3156C18.7687 23.175 19.2562 23.1844 19.7531 23.175C20.6625 23.1656 21.7031 23.1469 22.425 22.425C23.1469 21.7031 23.1656 20.6625 23.175 19.7531C23.1844 19.2562 23.1938 18.75 23.3156 18.4406C23.4375 18.1312 23.8219 17.7281 24.1781 17.3625C24.7969 16.7156 25.5 15.975 25.5 15C25.5 14.025 24.7969 13.2844 24.1781 12.6375ZM15 21C14.7775 21 14.56 20.934 14.375 20.8104C14.19 20.6868 14.0458 20.5111 13.9606 20.3055C13.8755 20.1 13.8532 19.8738 13.8966 19.6555C13.94 19.4373 14.0472 19.2368 14.2045 19.0795C14.3618 18.9222 14.5623 18.815 14.7805 18.7716C14.9988 18.7282 15.225 18.7505 15.4305 18.8356C15.6361 18.9208 15.8118 19.065 15.9354 19.25C16.059 19.435 16.125 19.6525 16.125 19.875C16.125 20.1734 16.0065 20.4595 15.7955 20.6705C15.5845 20.8815 15.2984 21 15 21ZM15.75 16.4156V16.5C15.75 16.6989 15.671 16.8897 15.5303 17.0303C15.3897 17.171 15.1989 17.25 15 17.25C14.8011 17.25 14.6103 17.171 14.4697 17.0303C14.329 16.8897 14.25 16.6989 14.25 16.5V15.75C14.25 15.5511 14.329 15.3603 14.4697 15.2197C14.6103 15.079 14.8011 15 15 15C15.3708 15 15.7334 14.89 16.0417 14.684C16.35 14.478 16.5904 14.1851 16.7323 13.8425C16.8742 13.4999 16.9113 13.1229 16.839 12.7592C16.7666 12.3955 16.588 12.0614 16.3258 11.7992C16.0636 11.537 15.7295 11.3584 15.3658 11.286C15.0021 11.2137 14.6251 11.2508 14.2825 11.3927C13.9399 11.5346 13.647 11.775 13.441 12.0833C13.235 12.3916 13.125 12.7542 13.125 13.125C13.125 13.3239 13.046 13.5147 12.9053 13.6553C12.7647 13.796 12.5739 13.875 12.375 13.875C12.1761 13.875 11.9853 13.796 11.8447 13.6553C11.704 13.5147 11.625 13.3239 11.625 13.125C11.625 12.4897 11.8043 11.8672 12.1424 11.3293C12.4804 10.7913 12.9634 10.3597 13.5359 10.0841C14.1083 9.80851 14.7469 9.70007 15.3783 9.77128C16.0096 9.84249 16.608 10.0905 17.1047 10.4867C17.6014 10.8829 17.9761 11.4112 18.1858 12.0109C18.3955 12.6107 18.4317 13.2574 18.2902 13.8768C18.1487 14.4962 17.8352 15.063 17.3858 15.5121C16.9365 15.9613 16.3695 16.2744 15.75 16.4156Z" fill="#485F7D"/>
</g>
</svg>
