<svg width="33" height="32" viewBox="0 0 33 32" fill="none" xmlns="http://www.w3.org/2000/svg">
<g id="Bold Duotone / Notes / Clipboard Text">
<path id="Vector" opacity="0.5" d="M27.8333 21.3326V13.6652C27.8333 10.0507 27.8333 8.24351 26.7105 7.12064C25.7287 6.13873 24.2236 6.01547 21.4444 6H11.2221C8.44294 6.01547 6.93783 6.13873 5.95601 7.12064C4.83325 8.24351 4.83325 10.0507 4.83325 13.6652V21.3326C4.83325 24.947 4.83325 26.7543 5.95601 27.8771C7.07876 29 8.88581 29 12.4999 29H12.4999H20.1666H20.1666C23.7807 29 25.5877 29 26.7105 27.8771C27.8333 26.7543 27.8333 24.947 27.8333 21.3326Z" fill="#F57B60"/>
<path id="Vector_2" d="M11.0002 5.6665C11.0002 4.56193 11.8957 3.6665 13.0002 3.6665H19.6669C20.7715 3.6665 21.6669 4.56193 21.6669 5.6665V6.99984C21.6669 8.10441 20.7715 8.99984 19.6669 8.99984H13.0002C11.8957 8.99984 11.0002 8.10441 11.0002 6.99984V5.6665Z" fill="#F57B60"/>
<path id="Vector_3" fill-rule="evenodd" clip-rule="evenodd" d="M8.66626 19.3335C8.66626 18.7812 9.11398 18.3335 9.66626 18.3335H20.3329C20.8852 18.3335 21.3329 18.7812 21.3329 19.3335C21.3329 19.8858 20.8852 20.3335 20.3329 20.3335H9.66626C9.11398 20.3335 8.66626 19.8858 8.66626 19.3335ZM8.66626 24.0002C8.66626 23.4479 9.11398 23.0002 9.66626 23.0002H16.9996C17.5519 23.0002 17.9996 23.4479 17.9996 24.0002C17.9996 24.5524 17.5519 25.0002 16.9996 25.0002H9.66626C9.11398 25.0002 8.66626 24.5524 8.66626 24.0002Z" fill="#F57B60"/>
</g>
</svg>
