<svg width="24" height="24" viewBox="0 0 24 24" fill="none" xmlns="http://www.w3.org/2000/svg">
<path d="M19.3711 6.59392C19.9137 6.05131 19.9137 5.17155 19.3711 4.62894C18.8284 4.08632 17.9487 4.08632 17.4061 4.62894L12 10.035L6.59392 4.62894C6.05131 4.08632 5.17155 4.08632 4.62894 4.62894C4.08632 5.17155 4.08632 6.0513 4.62894 6.59392L10.035 12L4.62894 17.4061C4.08632 17.9487 4.08632 18.8284 4.62894 19.3711C5.17155 19.9137 6.0513 19.9137 6.59392 19.3711L12 13.965L17.4061 19.3711C17.9487 19.9137 18.8284 19.9137 19.3711 19.3711C19.9137 18.8284 19.9137 17.9487 19.3711 17.4061L13.965 12L19.3711 6.59392Z" fill="white" stroke="white" stroke-width="0.5"/>
</svg>
