<svg width="20" height="20" viewBox="0 0 20 20" fill="none" xmlns="http://www.w3.org/2000/svg">
<g id="cloud-upload">
<path id="Vector" d="M14.565 7.50922C14.5712 7.50918 14.5774 7.50918 14.5837 7.50918C16.6547 7.50918 18.3337 9.19117 18.3337 11.2661C18.3337 13.1998 16.8753 14.7923 15.0003 15M14.565 7.50922C14.5773 7.37172 14.5837 7.23247 14.5837 7.09174C14.5837 4.55579 12.5317 2.5 10.0003 2.5C7.60303 2.5 5.6356 4.34389 5.43401 6.69327M14.565 7.50922C14.4797 8.45633 14.1075 9.3205 13.536 10.0138M5.43401 6.69327C3.32031 6.89478 1.66699 8.67825 1.66699 10.8486C1.66699 12.8681 3.09846 14.5527 5.00033 14.9394M5.43401 6.69327C5.56554 6.68073 5.69885 6.67431 5.83366 6.67431C6.77184 6.67431 7.63761 6.98495 8.33408 7.50918" stroke="#E5007A" stroke-width="2" stroke-linecap="round" stroke-linejoin="round"/>
<path id="Vector_2" d="M10.0003 10.8335V17.5002M10.0003 10.8335C9.41683 10.8335 8.3266 12.4954 7.91699 12.9168M10.0003 10.8335C10.5838 10.8335 11.6741 12.4954 12.0837 12.9168" stroke="#E5007A" stroke-width="2" stroke-linecap="round" stroke-linejoin="round"/>
</g>
</svg>
