<svg viewBox="0 0 32 32" fill="none" xmlns="http://www.w3.org/2000/svg">
<path d="M27.6987 24C28.6977 24 29.4924 23.3713 30.206 22.4921C31.6665 20.6925 29.2684 19.2544 28.3539 18.5501C27.424 17.8341 26.3859 17.4285 25.3333 17.3333M24 14.6667C25.8409 14.6667 27.3333 13.1743 27.3333 11.3333C27.3333 9.49239 25.8409 8 24 8" stroke="#243A57" stroke-width="1.5" stroke-linecap="round"/>
<path d="M4.29998 24C3.30091 24 2.50626 23.3713 1.79276 22.4921C0.332147 20.6925 2.73025 19.2544 3.64489 18.5501C4.57465 17.8341 5.6128 17.4285 6.66536 17.3333M7.33203 14.6667C5.49108 14.6667 3.9987 13.1743 3.9987 11.3333C3.9987 9.49239 5.49108 8 7.33203 8" stroke="#243A57" stroke-width="1.5" stroke-linecap="round"/>
<path d="M10.7771 20.1476C9.41474 20.99 5.84268 22.7101 8.01829 24.8625C9.08107 25.914 10.2647 26.666 11.7529 26.666H20.2446C21.7327 26.666 22.9163 25.914 23.9791 24.8625C26.1547 22.7101 22.5827 20.99 21.2203 20.1476C18.0255 18.1721 13.9719 18.1721 10.7771 20.1476Z" stroke="#243A57" stroke-width="1.5" stroke-linecap="round" stroke-linejoin="round"/>
<path d="M20.6654 10.0007C20.6654 12.578 18.576 14.6673 15.9987 14.6673C13.4214 14.6673 11.332 12.578 11.332 10.0007C11.332 7.42332 13.4214 5.33398 15.9987 5.33398C18.576 5.33398 20.6654 7.42332 20.6654 10.0007Z" stroke="#243A57" stroke-width="1.5"/>
</svg>
