<svg width="580" height="140" viewBox="0 0 580 140" fill="none" xmlns="http://www.w3.org/2000/svg">
<path d="M26.9943 9.25H551.005C555.202 9.25 559.216 10.465 562.167 12.6144C565.117 14.763 566.749 17.6571 566.749 20.6506V113.855C566.749 116.848 565.117 119.743 562.167 121.891C559.216 124.041 555.202 125.256 551.005 125.256L39.0343 125.546C38.437 125.547 37.8875 125.845 37.5525 126.334C36.6115 127.71 34.2718 130.95 31.2557 133.844C28.2276 136.749 24.573 139.25 21 139.25C18.9151 139.25 17.2888 138.768 16.0156 137.993C14.7416 137.218 13.8076 136.14 13.1207 134.929C11.7445 132.501 11.3709 129.554 11.25 127.496V20.6506C11.25 17.6571 12.8822 14.763 15.8318 12.6144C18.7826 10.465 22.7974 9.25 26.9943 9.25Z" fill="white" stroke="#185CF6" stroke-width="0.5"/>
<rect x="543" width="37" height="28" rx="7" fill="white"/>
<path d="M560.722 16.2C561.987 16.2 563.014 15.7967 563.802 14.99C564.572 14.1833 564.957 13.065 564.957 11.635C564.957 9.875 564.389 8.02333 563.252 6.08C562.116 4.11833 560.594 2.3675 558.687 0.827496L556.982 2.285C557.367 2.67 557.762 3.20167 558.165 3.88C558.55 4.54 558.889 5.255 559.182 6.025C559.476 6.795 559.659 7.51917 559.732 8.1975C558.761 8.43583 557.991 8.9125 557.422 9.6275C556.836 10.3242 556.542 11.1583 556.542 12.13C556.542 13.3217 556.927 14.3025 557.697 15.0725C558.467 15.8242 559.476 16.2 560.722 16.2ZM571.2 16.2C572.483 16.2 573.51 15.7967 574.28 14.99C575.05 14.1833 575.435 13.065 575.435 11.635C575.435 9.875 574.867 8.02333 573.73 6.08C572.593 4.11833 571.081 2.3675 569.192 0.827496L567.46 2.285C567.845 2.67 568.239 3.20167 568.642 3.88C569.027 4.54 569.367 5.255 569.66 6.025C569.953 6.795 570.137 7.51917 570.21 8.1975C569.238 8.43583 568.468 8.9125 567.9 9.6275C567.313 10.3242 567.02 11.1583 567.02 12.13C567.02 13.3217 567.405 14.3025 568.175 15.0725C568.945 15.8242 569.953 16.2 571.2 16.2Z" fill="#185CF6"/>
<rect width="37" height="28" rx="7" fill="white"/>
<path d="M19.2775 16.2C18.0125 16.2 16.9858 15.7967 16.1975 14.99C15.4275 14.1833 15.0425 13.065 15.0425 11.635C15.0425 9.875 15.6108 8.02333 16.7475 6.08C17.8842 4.11833 19.4058 2.3675 21.3125 0.827496L23.0175 2.285C22.6325 2.67 22.2383 3.20167 21.835 3.88C21.45 4.54 21.1108 5.255 20.8175 6.025C20.5242 6.795 20.3408 7.51917 20.2675 8.1975C21.2392 8.43583 22.0092 8.9125 22.5775 9.6275C23.1642 10.3242 23.4575 11.1583 23.4575 12.13C23.4575 13.3217 23.0725 14.3025 22.3025 15.0725C21.5325 15.8242 20.5242 16.2 19.2775 16.2ZM8.8 16.2C7.51667 16.2 6.49 15.7967 5.72 14.99C4.95 14.1833 4.565 13.065 4.565 11.635C4.565 9.875 5.13333 8.02333 6.27 6.08C7.40667 4.11833 8.91917 2.3675 10.8075 0.827496L12.54 2.285C12.155 2.67 11.7608 3.20167 11.3575 3.88C10.9725 4.54 10.6333 5.255 10.34 6.025C10.0467 6.795 9.86333 7.51917 9.79 8.1975C10.7617 8.43583 11.5317 8.9125 12.1 9.6275C12.6867 10.3242 12.98 11.1583 12.98 12.13C12.98 13.3217 12.595 14.3025 11.825 15.0725C11.055 15.8242 10.0467 16.2 8.8 16.2Z" fill="#185CF6"/>
<path d="M26.9943 9H551.005C555.247 9 559.315 10.2275 562.315 12.4124C565.314 14.5973 566.999 17.5606 566.999 20.6506V113.855C566.999 116.945 565.314 119.908 562.315 122.093C559.315 124.278 555.247 125.506 551.005 125.506L39.0344 125.796C38.5216 125.797 38.0484 126.052 37.7589 126.476C35.8685 129.239 28.3552 139.5 21 139.5C12.5 139.5 11.242 131.637 11 127.504V20.6506C11 17.5606 12.6851 14.5973 15.6846 12.4124C18.6841 10.2275 22.7524 9 26.9943 9Z" fill="#185CF6" fill-opacity="0.04"/>
</svg>
