<svg width="556" height="131" viewBox="0 0 556 131" fill="none" xmlns="http://www.w3.org/2000/svg">
<path d="M15.9943 0H540.005C544.247 0 548.315 1.22747 551.315 3.41237C554.314 5.59727 555.999 8.56064 555.999 11.6506V104.855C555.999 107.945 554.314 110.908 551.315 113.093C548.315 115.278 544.247 116.506 540.005 116.506L28.0344 116.796C27.5216 116.797 27.0484 117.052 26.7589 117.476C24.8685 120.239 17.3552 130.5 10 130.5C1.5 130.5 0.242018 122.637 0 118.504V11.6506C0 8.56064 1.68511 5.59727 4.68462 3.41237C7.68414 1.22747 11.7524 0 15.9943 0Z" fill="#185CF6" fill-opacity="0.04"/>
</svg>
