<svg width="24" height="24" viewBox="0 0 24 24" fill="none" xmlns="http://www.w3.org/2000/svg">
<path d="M5 15.1535V5.75611C5 5.58808 5.07583 5.42006 5.2275 5.25204C5.37917 5.08401 5.53667 5 5.7 5H14.7825C14.9575 5 15.1208 5.08101 15.2725 5.24303C15.4242 5.40506 15.5 5.57608 15.5 5.75611V12.165C15.5 12.333 15.4242 12.5011 15.2725 12.6691C15.1208 12.8371 14.9575 12.9211 14.7825 12.9211H7.8L5.455 15.3335C5.37333 15.4175 5.27708 15.4385 5.16625 15.3965C5.05542 15.3545 5 15.2735 5 15.1535ZM8.5175 16.5216C8.35417 16.5216 8.19375 16.4376 8.03625 16.2696C7.87875 16.1016 7.8 15.9336 7.8 15.7655V14.0013H16.55V7.88041H18.3C18.4633 7.88041 18.6208 7.96442 18.7725 8.13245C18.9242 8.30047 19 8.4745 19 8.65452V18.736C19 18.856 18.9446 18.937 18.8338 18.979C18.7229 19.021 18.6267 19 18.545 18.916L16.2175 16.5216H8.5175ZM14.45 6.08015H6.05V11.841H14.45V6.08015Z" fill="#E5007A"/>
</svg>
