<svg width="16" height="16" viewBox="0 0 16 16" fill="none" xmlns="http://www.w3.org/2000/svg">
<path d="M10.5276 2.5614C10.5276 2.25135 10.2763 2 9.96621 2H3.79078C3.17323 2 2.66797 2.50526 2.66797 3.12281V10.4211C2.66797 10.7311 2.91932 10.9825 3.22937 10.9825C3.53943 10.9825 3.79078 10.7311 3.79078 10.4211V3.12281H9.96622C10.2763 3.12281 10.5276 2.87146 10.5276 2.5614ZM12.2118 4.24561H6.03639C5.41885 4.24561 4.91358 4.75088 4.91358 5.36842V13.2281C4.91358 13.8456 5.41885 14.3509 6.03639 14.3509H12.2118C12.8294 14.3509 13.3346 13.8456 13.3346 13.2281V5.36842C13.3346 4.75088 12.8294 4.24561 12.2118 4.24561ZM12.2118 13.2281H6.03639V5.36842H12.2118V13.2281Z" fill="#485F7D"/>
</svg>
