<svg width="20" height="20" viewBox="0 0 24 24" fill="none" xmlns="http://www.w3.org/2000/svg">
<path d="M15.7895 3.84211C15.7895 3.37702 15.4124 3 14.9474 3H5.68421C4.75789 3 4 3.75789 4 4.68421V15.6316C4 16.0967 4.37702 16.4737 4.84211 16.4737C5.30719 16.4737 5.68421 16.0967 5.68421 15.6316V4.68421H14.9474C15.4124 4.68421 15.7895 4.30719 15.7895 3.84211ZM18.3158 6.36842H9.05263C8.12632 6.36842 7.36842 7.12632 7.36842 8.05263V19.8421C7.36842 20.7684 8.12632 21.5263 9.05263 21.5263H18.3158C19.2421 21.5263 20 20.7684 20 19.8421V8.05263C20 7.12632 19.2421 6.36842 18.3158 6.36842ZM18.3158 19.8421H9.05263V8.05263H18.3158V19.8421Z"/>
</svg>
