<svg width="12" height="7" viewBox="0 0 12 7" fill="none" xmlns="http://www.w3.org/2000/svg">
<path d="M3.08366 6.41732C2.25727 6.41732 1.56456 6.1378 1.00553 5.57878C0.446506 5.01975 0.166992 4.32704 0.166992 3.50065C0.166992 2.67426 0.446506 1.98155 1.00553 1.42253C1.56456 0.863498 2.25727 0.583984 3.08366 0.583984H5.12533C5.25171 0.583984 5.35623 0.625304 5.43887 0.707943C5.52151 0.790582 5.56283 0.895095 5.56283 1.02148C5.56283 1.14787 5.52151 1.25239 5.43887 1.33503C5.35623 1.41767 5.25171 1.45898 5.12533 1.45898H3.08366C2.50033 1.45898 2.01421 1.65343 1.62533 2.04232C1.23644 2.43121 1.04199 2.91732 1.04199 3.50065C1.04199 4.08398 1.23644 4.5701 1.62533 4.95898C2.01421 5.34787 2.50033 5.54232 3.08366 5.54232H5.12533C5.25171 5.54232 5.35623 5.58364 5.43887 5.66628C5.52151 5.74891 5.56283 5.85343 5.56283 5.97982C5.56283 6.10621 5.52151 6.21072 5.43887 6.29336C5.35623 6.376 5.25171 6.41732 5.12533 6.41732H3.08366ZM4.17741 3.93815C4.05102 3.93815 3.94651 3.89683 3.86387 3.81419C3.78123 3.73155 3.73991 3.62704 3.73991 3.50065C3.73991 3.37426 3.78123 3.26975 3.86387 3.18711C3.94651 3.10447 4.05102 3.06315 4.17741 3.06315H7.82324C7.94963 3.06315 8.05414 3.10447 8.13678 3.18711C8.21942 3.26975 8.26074 3.37426 8.26074 3.50065C8.26074 3.62704 8.21942 3.73155 8.13678 3.81419C8.05414 3.89683 7.94963 3.93815 7.82324 3.93815H4.17741ZM6.87533 6.41732C6.74894 6.41732 6.64442 6.376 6.56178 6.29336C6.47914 6.21072 6.43783 6.10621 6.43783 5.97982C6.43783 5.85343 6.47914 5.74891 6.56178 5.66628C6.64442 5.58364 6.74894 5.54232 6.87533 5.54232H8.91699C9.50033 5.54232 9.98644 5.34787 10.3753 4.95898C10.7642 4.5701 10.9587 4.08398 10.9587 3.50065C10.9587 2.91732 10.7642 2.43121 10.3753 2.04232C9.98644 1.65343 9.50033 1.45898 8.91699 1.45898H6.87533C6.74894 1.45898 6.64442 1.41767 6.56178 1.33503C6.47914 1.25239 6.43783 1.14787 6.43783 1.02148C6.43783 0.895095 6.47914 0.790582 6.56178 0.707943C6.64442 0.625304 6.74894 0.583984 6.87533 0.583984H8.91699C9.74338 0.583984 10.4361 0.863498 10.9951 1.42253C11.5541 1.98155 11.8337 2.67426 11.8337 3.50065C11.8337 4.32704 11.5541 5.01975 10.9951 5.57878C10.4361 6.1378 9.74338 6.41732 8.91699 6.41732H6.87533Z" fill="#90A0B7"/>
</svg>
