<svg width="34" height="34" viewBox="0 0 34 34" fill="none" xmlns="http://www.w3.org/2000/svg">
<g id="Parachains_icon- Unselected/SelectedParachains_icon- Unselected/Selected" clip-path="url(#clip0_88_520)">
<g id="Vector">
<path d="M20.0023 14.456C20.3001 14.7538 20.2623 15.276 19.9191 15.6192L15.62 19.9183C15.2759 20.2624 14.7533 20.2981 14.4567 20.0015C14.1601 19.705 14.1979 19.1827 14.5411 18.8395L18.8394 14.5412C19.1834 14.1972 19.7037 14.1573 20.0023 14.456Z" fill="#FF60B5"/>
<path d="M24.3002 10.1581C25.9864 11.8443 25.7925 14.7816 23.868 16.7062L21.7199 18.8543C21.3754 19.1987 20.8532 19.2341 20.5574 18.9383C20.2617 18.6426 20.2974 18.1183 20.6406 17.7751L22.7896 15.6261C24.0253 14.3905 24.143 12.4981 23.0516 11.4067C21.9602 10.3152 20.0682 10.4334 18.8325 11.6691L16.6836 13.818C16.3391 14.1625 15.8169 14.1978 15.5211 13.902C15.2254 13.6063 15.2599 13.0832 15.6044 12.7388L17.7533 10.5899C19.677 8.66612 22.6144 8.4723 24.3002 10.1581Z" fill="#FF60B5"/>
<path d="M18.9395 20.5563C19.2369 20.8537 19.1987 21.3755 18.8555 21.7187L16.7061 23.8681C14.7824 25.7918 11.8442 25.9864 10.158 24.3002C8.47182 22.614 8.66604 19.6771 10.5906 17.7525L12.74 15.6032C13.084 15.2592 13.6066 15.2234 13.9032 15.52C14.1998 15.8166 14.1628 16.3388 13.8184 16.6833L11.6698 18.8318C10.4342 20.0674 10.3164 21.9598 11.4074 23.0508C12.4984 24.1418 14.3904 24.0253 15.6269 22.7888L17.7762 20.6395C18.1198 20.2959 18.6417 20.2585 18.9395 20.5563Z" fill="#FF60B5"/>
</g>
</g>
<defs>
<clipPath id="clip0_88_520">
<rect width="24" height="24" fill="white" transform="translate(0.0294189 17) rotate(-45)"/>
</clipPath>
</defs>
</svg>
