<svg width="20" height="21" viewBox="0 0 20 21" fill="none" xmlns="http://www.w3.org/2000/svg">
<g id="Create ProposalCreate Proposal Filled">
<g id="Vector">
<path d="M16.9374 15.8851C16.9422 15.864 16.9462 15.8423 16.9496 15.8171H16.9374V15.8851Z" fill="black"/>
<path d="M16.0813 3.32848C15.3886 2.63437 14.474 2.4622 13.0497 2.41797H5.07349C3.58591 2.45267 2.63321 2.61463 1.91868 3.32848C1 4.2492 1 5.57414 1 7.97972V12.8399C1 15.2455 1 16.5724 1.91868 17.4911C2.80742 18.3799 4.07383 18.4098 6.32698 18.4098C6.42837 18.4152 6.53113 18.418 6.63253 18.418H13.8323C14.303 18.4189 14.7681 18.3145 15.1933 18.1124C15.0696 17.9102 15.0044 17.6778 15.0048 17.4408V16.4676H14.1555C13.9841 16.4716 13.8137 16.4412 13.6543 16.3784C13.4948 16.3155 13.3496 16.2215 13.227 16.1017C13.1044 15.9819 13.007 15.8388 12.9405 15.6808C12.874 15.5229 12.8398 15.3532 12.8398 15.1818C12.8398 15.0104 12.874 14.8408 12.9405 14.6828C13.007 14.5249 13.1044 14.3818 13.227 14.262C13.3496 14.1422 13.4948 14.0481 13.6543 13.9853C13.8137 13.9224 13.9841 13.8921 14.1555 13.896H15.0034V13.0474C15.0034 12.8148 15.0666 12.5866 15.1861 12.3871C15.3056 12.1875 15.477 12.0242 15.6821 11.9144C15.8871 11.8046 16.1181 11.7525 16.3505 11.7636C16.5828 11.7748 16.8078 11.8488 17.0014 11.9777V7.97972C17.0014 5.57414 17.0014 4.24852 16.0813 3.32848ZM12.9251 3.83886L13.0422 3.84226H12.9238L12.9251 3.83886ZM5.07349 3.83954L5.08302 3.83886V3.8443C5.08302 3.8443 5.08302 3.8443 5.08302 3.84022L5.07349 3.83954ZM11.1831 14.765H6.41953C6.23129 14.765 6.05076 14.6902 5.91765 14.5571C5.78454 14.424 5.70976 14.2435 5.70976 14.0553C5.70976 13.867 5.78454 13.6865 5.91765 13.5534C6.05076 13.4203 6.23129 13.3455 6.41953 13.3455H11.1831C11.3713 13.3455 11.5518 13.4203 11.6849 13.5534C11.818 13.6865 11.8928 13.867 11.8928 14.0553C11.8928 14.2435 11.818 14.424 11.6849 14.5571C11.5518 14.6902 11.3713 14.765 11.1831 14.765ZM12.0425 11.9294H5.67846C5.49411 11.9237 5.31923 11.8464 5.19085 11.714C5.06246 11.5816 4.99067 11.4044 4.99067 11.2199C4.99067 11.0355 5.06246 10.8583 5.19085 10.7259C5.31923 10.5935 5.49411 10.5162 5.67846 10.5105H12.0425C12.2269 10.5162 12.4018 10.5935 12.5301 10.7259C12.6585 10.8583 12.7303 11.0355 12.7303 11.2199C12.7303 11.4044 12.6585 11.5816 12.5301 11.714C12.4018 11.8464 12.2269 11.9237 12.0425 11.9294ZM13.7506 8.50507C13.7196 8.6723 13.6305 8.82319 13.499 8.93104C13.3675 9.03889 13.202 9.09675 13.032 9.09439L4.9687 9.09371C4.79863 9.09607 4.63322 9.03821 4.5017 8.93036C4.37019 8.82251 4.28106 8.67162 4.25008 8.50439C4.2328 8.40277 4.23784 8.29861 4.26485 8.19914C4.29186 8.09966 4.34019 8.00726 4.40649 7.92833C4.47279 7.84941 4.55547 7.78585 4.64879 7.74208C4.74212 7.69831 4.84384 7.67537 4.94692 7.67486H13.051C13.1544 7.67496 13.2565 7.69762 13.3502 7.74126C13.4439 7.7849 13.527 7.84846 13.5936 7.92751C13.6602 8.00657 13.7088 8.0992 13.7359 8.19895C13.763 8.29871 13.768 8.40318 13.7506 8.50507Z" fill="white"/>
<path d="M13.0361 3.84226H13.0449L12.9279 3.83886C12.9279 3.83886 12.9279 3.83886 12.9279 3.84226H13.0361Z" fill="black"/>
<path d="M18.8346 15.1876C18.8341 15.3553 18.7672 15.516 18.6487 15.6345C18.5301 15.7531 18.3694 15.8199 18.2018 15.8205H16.9374V17.0849C16.9368 17.2525 16.87 17.4132 16.7514 17.5318C16.6329 17.6503 16.4722 17.7172 16.3045 17.7177C16.1777 17.7177 16.0538 17.6793 15.9493 17.6075C15.8641 17.5494 15.7944 17.4715 15.7462 17.3804C15.6979 17.2894 15.6726 17.1879 15.6723 17.0849V15.8239H14.4059C14.3211 15.8267 14.2366 15.8124 14.1574 15.7818C14.0783 15.7513 14.006 15.7052 13.9451 15.6461C13.8841 15.5871 13.8356 15.5165 13.8025 15.4383C13.7694 15.3602 13.7523 15.2762 13.7523 15.1914C13.7523 15.1065 13.7694 15.0225 13.8025 14.9444C13.8356 14.8663 13.8841 14.7956 13.9451 14.7366C14.006 14.6776 14.0783 14.6314 14.1574 14.6009C14.2366 14.5703 14.3211 14.556 14.4059 14.5588H15.6703V13.2904C15.6757 13.1262 15.7447 12.9706 15.8627 12.8563C15.9807 12.7421 16.1386 12.6783 16.3028 12.6783C16.4671 12.6783 16.6249 12.7421 16.7429 12.8563C16.861 12.9706 16.93 13.1262 16.9353 13.2904V14.5554H18.1997C18.3677 14.5552 18.5289 14.6217 18.6479 14.7402C18.7669 14.8587 18.8341 15.0196 18.8346 15.1876Z" fill="white"/>
</g>
</g>
</svg>
