<svg width="20" height="20" viewBox="0 0 20 20" fill="none" xmlns="http://www.w3.org/2000/svg">
<path d="M10.4166 3H4.55556C4.143 3 3.74733 3.16389 3.45561 3.45561C3.16389 3.74733 3 4.143 3 4.55556V15.4444C3 15.857 3.16389 16.2527 3.45561 16.5444C3.74733 16.8361 4.143 17 4.55556 17H15.4444C15.857 17 16.2527 16.8361 16.5444 16.5444C16.8361 16.2527 17 15.857 17 15.4444V11" stroke="white" stroke-width="1.4667" stroke-linecap="round" stroke-linejoin="round"/>
<path fill-rule="evenodd" clip-rule="evenodd" d="M17.9566 4.5433L18.5416 3.95829C19.1169 3.38299 19.1169 2.45025 18.5416 1.87495C17.9663 1.29966 17.0336 1.29966 16.4583 1.87495L15.918 2.41528C16.4701 3.235 17.1597 3.95536 17.9566 4.5433ZM16.5294 5.9705C15.7515 5.3618 15.0625 4.64808 14.4822 3.85104L9.48289 8.85036C9.11841 9.21484 8.93618 9.39708 8.8069 9.61679C8.67762 9.83649 8.60682 10.0843 8.46522 10.5799L8.16388 11.6346C8.05453 12.0174 7.99985 12.2087 8.10386 12.3127C8.20788 12.4168 8.39926 12.3621 8.78201 12.2527L9.8367 11.9514C10.3323 11.8098 10.5801 11.739 10.7998 11.6097C11.0195 11.4804 11.2017 11.2982 11.5662 10.9337L16.5294 5.9705Z" fill="white"/>
</svg>
