<svg width="40" height="40" viewBox="0 0 40 40" fill="none" xmlns="http://www.w3.org/2000/svg">
<rect x="0.5" y="0.5" width="39" height="39" rx="19.5" fill="white"/>
<path d="M26.8571 21.1429H21.1429V26.8571C21.1429 27.4857 20.6286 28 20 28C19.3714 28 18.8571 27.4857 18.8571 26.8571V21.1429H13.1429C12.5143 21.1429 12 20.6286 12 20C12 19.3714 12.5143 18.8571 13.1429 18.8571H18.8571V13.1429C18.8571 12.5143 19.3714 12 20 12C20.6286 12 21.1429 12.5143 21.1429 13.1429V18.8571H26.8571C27.4857 18.8571 28 19.3714 28 20C28 20.6286 27.4857 21.1429 26.8571 21.1429Z" fill="#E5007A"/>
<rect x="0.5" y="0.5" width="39" height="39" rx="19.5" stroke="#E5007A"/>
</svg>
