<svg viewBox="0 0 40 40" fill="none" xmlns="http://www.w3.org/2000/svg">
<rect width="40" height="40" rx="20" fill="#E5007A"/>
<path d="M27.9296 26.1506C27.9349 26.1268 27.9395 26.1023 27.9433 26.074H27.9296V26.1506Z" fill="black"/>
<path d="M26.9665 12.0243C26.1871 11.2435 25.1582 11.0498 23.5559 11H14.5827C12.9092 11.039 11.8374 11.2212 11.0335 12.0243C10 13.0601 10 14.5507 10 17.257V22.7246C10 25.4309 10 26.9238 11.0335 27.9573C12.0333 28.9571 13.4581 28.9908 15.9929 28.9908C16.1069 28.9969 16.2225 29 16.3366 29H24.4363C24.9659 29.001 25.4891 28.8836 25.9674 28.6563C25.8284 28.4288 25.755 28.1673 25.7554 27.9006V26.8059H24.7999C24.6072 26.8103 24.4155 26.7762 24.2361 26.7055C24.0567 26.6348 23.8933 26.5289 23.7554 26.3942C23.6175 26.2594 23.5079 26.0984 23.4331 25.9207C23.3583 25.743 23.3197 25.5522 23.3197 25.3593C23.3197 25.1665 23.3583 24.9757 23.4331 24.798C23.5079 24.6202 23.6175 24.4593 23.7554 24.3245C23.8933 24.1898 24.0567 24.0839 24.2361 24.0132C24.4155 23.9425 24.6072 23.9084 24.7999 23.9128H25.7538V22.9581C25.7539 22.6965 25.8249 22.4397 25.9594 22.2152C26.0938 21.9908 26.2867 21.807 26.5174 21.6835C26.748 21.5599 27.0079 21.5013 27.2693 21.5139C27.5307 21.5264 27.7837 21.6096 28.0015 21.7547V17.257C28.0015 14.5507 28.0015 13.0594 26.9665 12.0243ZM23.4158 12.5985L23.5475 12.6023H23.4143L23.4158 12.5985ZM14.5827 12.5993L14.5934 12.5985V12.6046C14.5934 12.6046 14.5934 12.6046 14.5934 12.6L14.5827 12.5993ZM21.4559 24.8904H16.097C15.8852 24.8904 15.6821 24.8063 15.5324 24.6566C15.3826 24.5068 15.2985 24.3037 15.2985 24.0919C15.2985 23.8802 15.3826 23.6771 15.5324 23.5273C15.6821 23.3776 15.8852 23.2935 16.097 23.2935H21.4559C21.6677 23.2935 21.8708 23.3776 22.0205 23.5273C22.1703 23.6771 22.2544 23.8802 22.2544 24.0919C22.2544 24.3037 22.1703 24.5068 22.0205 24.6566C21.8708 24.8063 21.6677 24.8904 21.4559 24.8904ZM22.4228 21.7003H15.2633C15.0559 21.6939 14.8591 21.607 14.7147 21.458C14.5703 21.309 14.4895 21.1097 14.4895 20.9022C14.4895 20.6947 14.5703 20.4954 14.7147 20.3464C14.8591 20.1974 15.0559 20.1105 15.2633 20.1041H22.4228C22.6302 20.1105 22.827 20.1974 22.9714 20.3464C23.1158 20.4954 23.1966 20.6947 23.1966 20.9022C23.1966 21.1097 23.1158 21.309 22.9714 21.458C22.827 21.607 22.6302 21.6939 22.4228 21.7003ZM24.3444 17.848C24.3096 18.0361 24.2093 18.2059 24.0613 18.3272C23.9134 18.4485 23.7273 18.5136 23.536 18.511L14.4648 18.5102C14.2735 18.5129 14.0874 18.4478 13.9394 18.3264C13.7915 18.2051 13.6912 18.0354 13.6563 17.8472C13.6369 17.7329 13.6426 17.6157 13.673 17.5038C13.7033 17.3919 13.7577 17.2879 13.8323 17.1992C13.9069 17.1104 13.9999 17.0389 14.1049 16.9896C14.2099 16.9404 14.3243 16.9146 14.4403 16.914H23.5574C23.6737 16.9141 23.7886 16.9396 23.894 16.9887C23.9994 17.0378 24.0929 17.1093 24.1678 17.1982C24.2427 17.2872 24.2974 17.3914 24.3279 17.5036C24.3584 17.6158 24.364 17.7334 24.3444 17.848Z" fill="#FDFEFF"/>
<path d="M23.5406 12.6023H23.5505L23.4188 12.5985C23.4188 12.5985 23.4188 12.5985 23.4188 12.6023H23.5406Z" fill="black"/>
<path d="M30.064 25.3659C30.0634 25.5545 29.9881 25.7352 29.8548 25.8686C29.7214 26.002 29.5406 26.0772 29.352 26.0778H27.9296V27.5002C27.929 27.6889 27.8538 27.8696 27.7204 28.003C27.587 28.1364 27.4062 28.2116 27.2176 28.2122C27.0749 28.2122 26.9356 28.169 26.818 28.0882C26.7222 28.0229 26.6437 27.9352 26.5894 27.8328C26.5351 27.7303 26.5066 27.6162 26.5064 27.5002V26.0817H25.0817C24.9862 26.0848 24.8912 26.0687 24.8021 26.0343C24.713 26 24.6318 25.9481 24.5632 25.8817C24.4946 25.8153 24.44 25.7358 24.4028 25.6479C24.3655 25.56 24.3463 25.4655 24.3463 25.3701C24.3463 25.2746 24.3655 25.1801 24.4028 25.0922C24.44 25.0043 24.4946 24.9248 24.5632 24.8584C24.6318 24.792 24.713 24.7401 24.8021 24.7058C24.8912 24.6714 24.9862 24.6553 25.0817 24.6585H26.5041V23.2315C26.5101 23.0468 26.5878 22.8717 26.7205 22.7432C26.8533 22.6147 27.0309 22.5428 27.2157 22.5428C27.4005 22.5428 27.578 22.6147 27.7108 22.7432C27.8436 22.8717 27.9212 23.0468 27.9273 23.2315V24.6546H29.3497C29.5387 24.6544 29.72 24.7292 29.8539 24.8625C29.9878 24.9959 30.0633 25.1769 30.064 25.3659Z" fill="#FDFEFF"/>
</svg>
