<svg width="20" height="21" viewBox="0 0 20 21" fill="none" xmlns="http://www.w3.org/2000/svg">
<path d="M11.5386 13.782C11.5386 13.9724 11.463 14.155 11.3283 14.2897C11.1937 14.4244 11.0111 14.5 10.8206 14.5H6.71799C6.52757 14.5 6.34494 14.4244 6.21029 14.2897C6.07565 14.155 6 13.9724 6 13.782C6 13.5915 6.07565 13.4089 6.21029 13.2742C6.34494 13.1396 6.52757 13.0639 6.71799 13.0639H10.8206C11.0111 13.0639 11.1937 13.1396 11.3283 13.2742C11.463 13.4089 11.5386 13.5915 11.5386 13.782Z" fill="#243A57"/>
<path d="M14 10.5008C14 10.6913 13.9244 10.8739 13.7897 11.0086C13.6551 11.1432 13.4724 11.2189 13.282 11.2189H6.71911C6.53224 11.2137 6.35477 11.1357 6.22444 11.0017C6.09411 10.8677 6.02119 10.6881 6.02119 10.5011C6.02119 10.3142 6.09411 10.1346 6.22444 10.0005C6.35477 9.8665 6.53224 9.78859 6.71911 9.78336H13.282C13.4723 9.78336 13.6549 9.85893 13.7895 9.99347C13.9241 10.128 13.9999 10.3105 14 10.5008Z" fill="#243A57"/>
<path d="M14 7.21804C14 7.40848 13.9244 7.59112 13.7897 7.72578C13.6551 7.86043 13.4724 7.93608 13.282 7.93608H6.71911C6.52869 7.93608 6.34607 7.86043 6.21142 7.72578C6.07677 7.59112 6.00112 7.40848 6.00112 7.21804C6.00112 7.02761 6.07677 6.84497 6.21142 6.71031C6.34607 6.57565 6.52869 6.5 6.71911 6.5H13.282C13.3763 6.5 13.4697 6.51857 13.5568 6.55466C13.6439 6.59074 13.723 6.64363 13.7897 6.71031C13.8564 6.77699 13.9093 6.85614 13.9453 6.94326C13.9814 7.03038 14 7.12375 14 7.21804Z" fill="#243A57"/>
<rect x="3" y="3.5" width="14" height="14" rx="2" stroke="#243A57" stroke-width="1.47"/>
</svg>
