<svg width="20" height="21" viewBox="0 0 20 21" fill="none" xmlns="http://www.w3.org/2000/svg">
<path d="M10.4166 3.5H4.55556C4.143 3.5 3.74733 3.66389 3.45561 3.95561C3.16389 4.24733 3 4.643 3 5.05556V15.9444C3 16.357 3.16389 16.7527 3.45561 17.0444C3.74733 17.3361 4.143 17.5 4.55556 17.5H15.4444C15.857 17.5 16.2527 17.3361 16.5444 17.0444C16.8361 16.7527 17 16.357 17 15.9444V11.5" stroke="#485F7D" stroke-width="1.4667" stroke-linecap="round" stroke-linejoin="round"/>
<path fill-rule="evenodd" clip-rule="evenodd" d="M17.9567 5.0433L18.5417 4.45829C19.117 3.88299 19.117 2.95025 18.5417 2.37495C17.9664 1.79966 17.0336 1.79966 16.4583 2.37495L15.918 2.91528C16.4701 3.735 17.1597 4.45536 17.9567 5.0433ZM16.5295 6.4705C15.7515 5.8618 15.0625 5.14808 14.4822 4.35104L9.48292 9.35036C9.11844 9.71484 8.93621 9.89708 8.80693 10.1168C8.67766 10.3365 8.60685 10.5843 8.46525 11.0799L8.16391 12.1346C8.05456 12.5174 7.99988 12.7087 8.1039 12.8127C8.20791 12.9168 8.39929 12.8621 8.78204 12.7527L9.83673 12.4514C10.3323 12.3098 10.5801 12.239 10.7998 12.1097C11.0195 11.9804 11.2018 11.7982 11.5662 11.4337L16.5295 6.4705Z" fill="#485F7D"/>
</svg>
