<svg width="32" height="32" viewBox="0 0 32 32" fill="none" xmlns="http://www.w3.org/2000/svg">
<rect x="0.7" y="0.7" width="30.6" height="30.6" rx="15.3" stroke="#485F7D" stroke-width="1.4"/>
<path d="M17.5386 19.282C17.5386 19.4724 17.463 19.655 17.3283 19.7897C17.1937 19.9244 17.0111 20 16.8206 20H12.718C12.5276 20 12.3449 19.9244 12.2103 19.7897C12.0756 19.655 12 19.4724 12 19.282C12 19.0915 12.0756 18.9089 12.2103 18.7742C12.3449 18.6396 12.5276 18.5639 12.718 18.5639H16.8206C17.0111 18.5639 17.1937 18.6396 17.3283 18.7742C17.463 18.9089 17.5386 19.0915 17.5386 19.282Z" fill="#485F7D"/>
<path d="M20 16.0008C20 16.1913 19.9244 16.3739 19.7897 16.5086C19.6551 16.6432 19.4724 16.7189 19.282 16.7189H12.7191C12.5322 16.7137 12.3548 16.6357 12.2244 16.5017C12.0941 16.3677 12.0212 16.1881 12.0212 16.0011C12.0212 15.8142 12.0941 15.6346 12.2244 15.5005C12.3548 15.3665 12.5322 15.2886 12.7191 15.2834H19.282C19.4723 15.2834 19.6549 15.3589 19.7895 15.4935C19.9241 15.628 19.9999 15.8105 20 16.0008Z" fill="#485F7D"/>
<path d="M20 12.718C20 12.9085 19.9244 13.0911 19.7897 13.2258C19.6551 13.3604 19.4724 13.4361 19.282 13.4361H12.7191C12.5287 13.4361 12.3461 13.3604 12.2114 13.2258C12.0768 13.0911 12.0011 12.9085 12.0011 12.718C12.0011 12.5276 12.0768 12.345 12.2114 12.2103C12.3461 12.0757 12.5287 12 12.7191 12H19.282C19.3763 12 19.4697 12.0186 19.5568 12.0547C19.6439 12.0907 19.723 12.1436 19.7897 12.2103C19.8564 12.277 19.9093 12.3561 19.9453 12.4433C19.9814 12.5304 20 12.6237 20 12.718Z" fill="#485F7D"/>
<rect x="9" y="9" width="14" height="14" rx="2" stroke="#485F7D" stroke-width="1.47"/>
</svg>
