<svg width="20" height="21" viewBox="0 0 20 21" fill="none" xmlns="http://www.w3.org/2000/svg">
<path fill-rule="evenodd" clip-rule="evenodd" d="M4.97991 2.06042C4.58912 2.26361 4.56727 2.9522 4.94349 3.20957C4.99882 3.24743 6.2731 3.26291 10.6005 3.27832L16.1861 3.29822L16.3756 3.40929C16.5902 3.53513 16.7469 3.72801 16.8495 3.99286C16.9188 4.17161 16.92 4.22078 16.9364 7.66444C16.9529 11.112 16.9539 11.1562 17.0218 11.2648C17.1525 11.4737 17.2591 11.5388 17.47 11.5388C17.6808 11.5388 17.7874 11.4737 17.9181 11.2647C17.9861 11.156 17.9869 11.1185 17.9962 7.70425C18.0067 3.82495 18.0132 3.94752 17.7626 3.34974C17.4935 2.70785 16.9516 2.21365 16.3528 2.06408C16.0204 1.98104 5.13931 1.97754 4.97991 2.06042ZM3.63103 4.61414C3.04973 4.76318 2.50224 5.26706 2.23877 5.89549C1.98093 6.51047 1.99393 6.17416 2.0044 11.9568L2.01371 17.1122L2.10675 17.3384C2.32097 17.8592 2.8079 18.1141 3.27732 17.9512C3.43662 17.8959 3.63977 17.7311 4.48537 16.9712C5.0445 16.4688 5.53493 16.0484 5.57522 16.0371C5.61553 16.0258 7.57679 16.0123 9.93358 16.007L14.2186 15.9975L14.4609 15.8918C15.1645 15.5848 15.6457 14.9355 15.8186 14.0601C15.8607 13.8466 15.8684 13.268 15.8688 10.2813C15.8693 6.90045 15.8666 6.74181 15.8036 6.44753C15.651 5.73542 15.2574 5.14157 14.7355 4.83611C14.2236 4.53655 14.5726 4.55335 8.9165 4.55609C4.71033 4.55812 3.8109 4.56804 3.63103 4.61414ZM14.2414 5.95712C14.456 6.08296 14.6127 6.27583 14.7153 6.54069C14.7851 6.72063 14.7855 6.74619 14.7855 10.2848C14.7855 13.8235 14.7851 13.849 14.7153 14.029C14.6127 14.2938 14.456 14.4867 14.2414 14.6126L14.0519 14.7236L9.70015 14.7435L5.34839 14.7634L5.14988 14.8589C5.01442 14.924 4.65177 15.2246 4.00775 15.8056L3.06413 16.6569V11.7663C3.06413 6.40824 3.05523 6.65458 3.26091 6.3156C3.38269 6.11492 3.53162 5.98685 3.74704 5.8976C3.90377 5.83267 4.23878 5.82877 8.98319 5.83713L14.0519 5.84605L14.2414 5.95712ZM6.53907 9.81281C6.31568 9.98355 6.23688 10.363 6.36774 10.6377C6.48035 10.8741 6.58362 10.9417 6.83232 10.9417C6.99646 10.9417 7.07122 10.9223 7.14028 10.8621C7.25053 10.7659 7.36587 10.5012 7.36587 10.3445C7.36587 10.1739 7.24799 9.91835 7.12254 9.81707C6.97288 9.69625 6.69423 9.69422 6.53907 9.81281ZM8.67327 9.81281C8.44988 9.98355 8.37108 10.363 8.50193 10.6377C8.61454 10.8741 8.71782 10.9417 8.96652 10.9417C9.13065 10.9417 9.20542 10.9223 9.27448 10.8621C9.38472 10.7659 9.50007 10.5012 9.50007 10.3445C9.50007 10.1739 9.38219 9.91835 9.25674 9.81707C9.10708 9.69625 8.82843 9.69422 8.67327 9.81281ZM10.7442 9.81018C10.6242 9.90202 10.5005 10.1731 10.5005 10.3445C10.5005 10.5002 10.6157 10.7659 10.7237 10.8594C10.8493 10.9681 11.1259 10.9889 11.2807 10.9012C11.4352 10.8137 11.5676 10.5549 11.5674 10.341C11.5672 10.1549 11.4541 9.91428 11.3155 9.80525C11.1793 9.69804 10.8876 9.70059 10.7442 9.81018Z" fill="#485F7D"/>
</svg>
