<svg width="20" height="21" viewBox="0 0 20 21" fill="none" xmlns="http://www.w3.org/2000/svg">
<path d="M11.5386 13.6999C11.5386 13.8904 11.463 14.073 11.3283 14.2077C11.1937 14.3423 11.0111 14.418 10.8206 14.418H6.71799C6.52757 14.418 6.34494 14.3423 6.21029 14.2077C6.07565 14.073 6 13.8904 6 13.6999C6 13.5095 6.07565 13.3269 6.21029 13.1922C6.34494 13.0575 6.52757 12.9819 6.71799 12.9819H10.8206C11.0111 12.9819 11.1937 13.0575 11.3283 13.1922C11.463 13.3269 11.5386 13.5095 11.5386 13.6999Z" fill="white"/>
<path d="M14 10.4188C14 10.6092 13.9244 10.7919 13.7897 10.9265C13.6551 11.0612 13.4724 11.1369 13.282 11.1369H6.71911C6.53224 11.1316 6.35477 11.0537 6.22444 10.9197C6.09411 10.7856 6.02119 10.6061 6.02119 10.4191C6.02119 10.2321 6.09411 10.0525 6.22444 9.9185C6.35477 9.78447 6.53224 9.70655 6.71911 9.70133H13.282C13.4723 9.70133 13.6549 9.7769 13.7895 9.91144C13.9241 10.046 13.9999 10.2285 14 10.4188Z" fill="white"/>
<path d="M14 7.13601C14 7.32645 13.9244 7.50908 13.7897 7.64374C13.6551 7.7784 13.4724 7.85405 13.282 7.85405H6.71911C6.52869 7.85405 6.34607 7.7784 6.21142 7.64374C6.07677 7.50908 6.00112 7.32645 6.00112 7.13601C6.00112 6.94557 6.07677 6.76294 6.21142 6.62828C6.34607 6.49362 6.52869 6.41797 6.71911 6.41797H13.282C13.3763 6.41797 13.4697 6.43654 13.5568 6.47263C13.6439 6.50871 13.723 6.5616 13.7897 6.62828C13.8564 6.69495 13.9093 6.77411 13.9453 6.86123C13.9814 6.94834 14 7.04172 14 7.13601Z" fill="white"/>
<rect x="3" y="3.41797" width="14" height="14" rx="2" stroke="white" stroke-width="1.47"/>
</svg>
