<svg width="34" height="33" viewBox="0 0 34 33" fill="none" xmlns="http://www.w3.org/2000/svg">
<rect x="1" y="0.5" width="32" height="32" rx="6" stroke="#D2D8E0"/>
<rect x="5" y="4.5" width="24" height="24" rx="4" fill="#F3F4F6"/>
<path d="M18.5386 20.282C18.5386 20.4724 18.463 20.655 18.3283 20.7897C18.1937 20.9244 18.0111 21 17.8206 21H13.718C13.5276 21 13.3449 20.9244 13.2103 20.7897C13.0756 20.655 13 20.4724 13 20.282C13 20.0915 13.0756 19.9089 13.2103 19.7742C13.3449 19.6396 13.5276 19.5639 13.718 19.5639H17.8206C18.0111 19.5639 18.1937 19.6396 18.3283 19.7742C18.463 19.9089 18.5386 20.0915 18.5386 20.282Z" fill="#485F7D"/>
<path d="M21 17.0008C21 17.1913 20.9244 17.3739 20.7897 17.5086C20.6551 17.6432 20.4724 17.7189 20.282 17.7189H13.7191C13.5322 17.7137 13.3548 17.6357 13.2244 17.5017C13.0941 17.3677 13.0212 17.1881 13.0212 17.0011C13.0212 16.8142 13.0941 16.6346 13.2244 16.5005C13.3548 16.3665 13.5322 16.2886 13.7191 16.2834H20.282C20.4723 16.2834 20.6549 16.3589 20.7895 16.4935C20.9241 16.628 20.9999 16.8105 21 17.0008Z" fill="#485F7D"/>
<path d="M21 13.718C21 13.9085 20.9244 14.0911 20.7897 14.2258C20.6551 14.3604 20.4724 14.4361 20.282 14.4361H13.7191C13.5287 14.4361 13.3461 14.3604 13.2114 14.2258C13.0768 14.0911 13.0011 13.9085 13.0011 13.718C13.0011 13.5276 13.0768 13.345 13.2114 13.2103C13.3461 13.0757 13.5287 13 13.7191 13H20.282C20.3763 13 20.4697 13.0186 20.5568 13.0547C20.6439 13.0907 20.723 13.1436 20.7897 13.2103C20.8564 13.277 20.9093 13.3561 20.9453 13.4433C20.9814 13.5304 21 13.6237 21 13.718Z" fill="#485F7D"/>
<rect x="10" y="10" width="14" height="14" rx="2" stroke="#485F7D" stroke-width="1.47"/>
</svg>
