<svg width="16" height="16" viewBox="0 0 16 16" fill="none" xmlns="http://www.w3.org/2000/svg">
<path d="M8 15.5C5.91667 15.5 4.14583 14.7708 2.6875 13.3125C1.22917 11.8542 0.5 10.0833 0.5 8C0.5 5.91667 1.22917 4.14583 2.6875 2.6875C4.14583 1.22917 5.91667 0.5 8 0.5C8.11111 0.5 8.22917 0.503472 8.35417 0.510417C8.47917 0.517361 8.63889 0.527778 8.83333 0.541667C8.33333 0.986111 7.94444 1.53472 7.66667 2.1875C7.38889 2.84028 7.25 3.52778 7.25 4.25C7.25 5.5 7.6875 6.5625 8.5625 7.4375C9.4375 8.3125 10.5 8.75 11.75 8.75C12.4722 8.75 13.1597 8.62153 13.8125 8.36458C14.4653 8.10764 15.0139 7.75 15.4583 7.29167C15.4722 7.45833 15.4826 7.59375 15.4896 7.69792C15.4965 7.80208 15.5 7.90278 15.5 8C15.5 10.0833 14.7708 11.8542 13.3125 13.3125C11.8542 14.7708 10.0833 15.5 8 15.5ZM8 14.25C9.51389 14.25 10.8333 13.7812 11.9583 12.8438C13.0833 11.9062 13.7847 10.8056 14.0625 9.54167C13.7153 9.69444 13.3426 9.80903 12.9444 9.88542C12.5463 9.96181 12.1482 10 11.75 10C10.1571 10 8.80053 9.4399 7.68031 8.31969C6.5601 7.19946 6 5.8429 6 4.25C6 3.91667 6.03472 3.55903 6.10417 3.17708C6.17361 2.79514 6.29861 2.36111 6.47917 1.875C5.11806 2.25 3.98958 3.01042 3.09375 4.15625C2.19792 5.30208 1.75 6.58333 1.75 8C1.75 9.73611 2.35764 11.2118 3.57292 12.4271C4.78819 13.6424 6.26389 14.25 8 14.25Z" fill="#90A0B7"/>
</svg>
