<svg width="20" height="20" viewBox="0 0 20 20" fill="none" xmlns="http://www.w3.org/2000/svg">
<g clip-path="url(#clip0_10583_36260)">
<path d="M2.24946 3.81499L2.24947 3.81499C2.2906 3.79703 2.33332 3.79129 2.34972 3.78909L2.3504 3.789C2.37542 3.78563 2.40493 3.783 2.43777 3.78077C2.50396 3.77627 2.59725 3.77252 2.72307 3.76931C2.97548 3.76285 3.37027 3.75827 3.96575 3.75519C5.15737 3.74901 7.15995 3.74883 10.4512 3.75213L18.438 3.7602L18.5208 3.76029L18.5872 3.80985L18.691 3.88726L18.691 3.88728C18.8041 3.9717 18.9024 4.06578 18.9671 4.19196C19.0323 4.31911 19.05 4.45288 19.05 4.59211C19.05 4.73134 19.0323 4.86511 18.9671 4.99226C18.9024 5.11845 18.8041 5.21252 18.691 5.29695L18.691 5.29696L18.5872 5.37437L18.5209 5.4239L18.4381 5.42402L10.4888 5.43506C7.73891 5.43887 5.74048 5.43857 4.4175 5.43388C3.75614 5.43154 3.26284 5.4281 2.92861 5.42351C2.76169 5.42122 2.63322 5.41863 2.54289 5.4157C2.49794 5.41425 2.46067 5.41265 2.43208 5.41084C2.41793 5.40995 2.4039 5.40888 2.39114 5.40751L2.39046 5.40744C2.38254 5.40659 2.35806 5.40399 2.33249 5.39661L2.24946 3.81499ZM2.24946 3.81499C1.88471 3.97427 1.69263 4.38284 1.76535 4.77039L2.24946 3.81499ZM2.24941 9.22109L2.24948 9.22106C2.28826 9.20413 2.3274 9.19812 2.34425 9.1956C2.36803 9.19205 2.39527 9.18932 2.42472 9.18704C2.48404 9.18245 2.566 9.17867 2.67472 9.17545C2.89294 9.16897 3.23153 9.16439 3.73929 9.1613C4.75555 9.15512 6.45788 9.15493 9.24947 9.15825L16.0346 9.16632L16.1175 9.16642L16.1839 9.21599L16.2875 9.2934C16.2875 9.2934 16.2875 9.2934 16.2876 9.29341C16.4006 9.37783 16.499 9.4719 16.5636 9.59808C16.6288 9.72523 16.6466 9.859 16.6466 9.99823C16.6466 10.1375 16.6288 10.2712 16.5636 10.3984C16.499 10.5246 16.4006 10.6186 16.2876 10.7031C16.2875 10.7031 16.2875 10.7031 16.2875 10.7031L16.1839 10.7805L16.1175 10.83L16.0347 10.8301L9.28714 10.8412C6.95765 10.845 5.25952 10.8447 4.13173 10.84C3.56798 10.8376 3.1459 10.8342 2.85845 10.8296C2.71493 10.8273 2.60361 10.8247 2.52449 10.8218C2.48514 10.8203 2.45188 10.8187 2.42579 10.8168L2.42348 10.8167C2.40736 10.8156 2.36708 10.8127 2.33249 10.8028L2.33244 10.8027C2.18826 10.7611 2.06114 10.6629 1.96951 10.5616C1.87775 10.4601 1.793 10.3239 1.76535 10.1765L2.24941 9.22109ZM2.24941 9.22109C1.88468 9.38045 1.69263 9.78895 1.76535 10.1765L2.24941 9.22109ZM2.33234 16.209L2.33226 16.2089C2.18815 16.1672 2.06108 16.069 1.96947 15.9676L2.33234 16.209ZM2.33234 16.209C2.3627 16.2177 2.39432 16.221 2.40887 16.2224M2.33234 16.209L2.40887 16.2224M2.40887 16.2224C2.42954 16.2245 2.45396 16.2262 2.48094 16.2277M2.40887 16.2224L2.48094 16.2277M2.48094 16.2277C2.53523 16.2308 2.60827 16.2334 2.69931 16.2357M2.48094 16.2277L2.69931 16.2357M2.69931 16.2357C2.88185 16.2403 3.14396 16.2438 3.48821 16.2461M2.69931 16.2357L3.48821 16.2461M3.48821 16.2461C4.1771 16.2509 5.19985 16.2512 6.58353 16.2474M3.48821 16.2461L6.58353 16.2474M6.58353 16.2474C8.59023 16.2419 9.60468 16.239 10.1296 16.2277M6.58353 16.2474L10.1296 16.2277M10.1296 16.2277C10.3886 16.2222 10.5414 16.2145 10.6379 16.2012M10.1296 16.2277L10.6379 16.2012M10.6379 16.2012C10.6877 16.1943 10.7352 16.1844 10.7802 16.1663M10.6379 16.2012L10.7802 16.1663M10.7802 16.1663C10.8299 16.1464 10.8628 16.1218 10.8797 16.1092M10.7802 16.1663L10.8797 16.1092M10.8797 16.1092L10.8798 16.1092M10.8797 16.1092L10.8798 16.1092M10.8798 16.1092C10.8798 16.1092 10.8798 16.1092 10.8798 16.1092C10.9929 16.0248 11.0912 15.9307 11.1559 15.8045M10.8798 16.1092L11.1559 15.8045M11.1559 15.8045C11.2211 15.6773 11.2388 15.5436 11.2388 15.4043M11.1559 15.8045L11.2388 15.4043M11.2388 15.4043C11.2388 15.2651 11.2211 15.1314 11.1559 15.0042M11.2388 15.4043L11.1559 15.0042M11.1559 15.0042C11.0912 14.878 10.9929 14.7839 10.8798 14.6995L11.1559 15.0042ZM1.76535 4.77041C1.793 4.91777 1.87775 5.05398 1.96951 5.15545C2.06114 5.25677 2.18825 5.35496 2.33244 5.39659L1.76535 4.77041ZM2.24922 14.6272C1.88463 14.7868 1.69261 15.1951 1.76535 15.5826L2.24922 14.6272ZM10.8798 14.6995L10.8795 14.6993C10.8628 14.6868 10.8298 14.6622 10.7801 14.6423C10.735 14.6243 10.6873 14.6143 10.6373 14.6075C10.5405 14.5942 10.3868 14.5866 10.1256 14.5813C9.59641 14.5705 8.57261 14.5683 6.54579 14.5643C4.87835 14.5609 3.85123 14.5612 3.22915 14.5674C2.91859 14.5705 2.7059 14.5751 2.5639 14.5817C2.49322 14.585 2.43625 14.5889 2.39177 14.594C2.35732 14.5979 2.29982 14.6051 2.24926 14.6272L10.8798 14.6995Z" fill="#90A0B7" stroke="#90A0B7" stroke-width="0.5"/>
</g>
<defs>
<clipPath id="clip0_10583_36260">
<rect width="20" height="20" fill="white"/>
</clipPath>
</defs>
</svg>
