<svg width="27" height="26" viewBox="0 0 27 26" fill="none" xmlns="http://www.w3.org/2000/svg">
<g filter="url(#filter0_d_3729_199910)">
<rect x="3" y="1.5" width="21" height="21" rx="4.5" stroke="#9297B7" stroke-opacity="0.24" shape-rendering="crispEdges"/>
<rect x="3" y="1.5" width="21" height="21" rx="4.5" stroke="#D2D8E0" shape-rendering="crispEdges"/>
<path d="M7.84171 10.325C8.18342 10.6667 8.73339 10.6667 9.83333 10.6667C10.9333 10.6667 11.4832 10.6667 11.825 10.325C12.1667 9.98325 12.1667 9.43328 12.1667 8.33333C12.1667 7.23339 12.1667 6.68342 11.825 6.34171C11.4832 6 10.9333 6 9.83333 6C8.73339 6 8.18342 6 7.84171 6.34171C7.5 6.68342 7.5 7.23339 7.5 8.33333C7.5 9.43328 7.5 9.98325 7.84171 10.325Z" stroke="#485F7D" stroke-width="0.651042" stroke-linecap="round" stroke-linejoin="round"/>
<path d="M7.84171 17.6583C8.18342 18 8.73339 18 9.83333 18C10.9333 18 11.4832 18 11.825 17.6583C12.1667 17.3166 12.1667 16.7666 12.1667 15.6667C12.1667 14.5668 12.1667 14.0168 11.825 13.6751C11.4832 13.3334 10.9333 13.3334 9.83333 13.3334C8.73339 13.3334 8.18342 13.3334 7.84171 13.6751C7.5 14.0168 7.5 14.5668 7.5 15.6667C7.5 16.7666 7.5 17.3166 7.84171 17.6583Z" stroke="#485F7D" stroke-width="0.651042" stroke-linecap="round" stroke-linejoin="round"/>
<path d="M15.5 6.66663H19.5" stroke="#485F7D" stroke-width="0.651042" stroke-linecap="round" stroke-linejoin="round"/>
<path d="M15.5 14H19.5" stroke="#485F7D" stroke-width="0.651042" stroke-linecap="round" stroke-linejoin="round"/>
<path d="M15.5 10H19.5" stroke="#485F7D" stroke-width="0.651042" stroke-linecap="round" stroke-linejoin="round"/>
<path d="M15.5 17.3334H19.5" stroke="#485F7D" stroke-width="0.651042" stroke-linecap="round" stroke-linejoin="round"/>
</g>
<defs>
<filter id="filter0_d_3729_199910" x="0.5" y="0" width="26" height="26" filterUnits="userSpaceOnUse" color-interpolation-filters="sRGB">
<feFlood flood-opacity="0" result="BackgroundImageFix"/>
<feColorMatrix in="SourceAlpha" type="matrix" values="0 0 0 0 0 0 0 0 0 0 0 0 0 0 0 0 0 0 127 0" result="hardAlpha"/>
<feOffset dy="1"/>
<feGaussianBlur stdDeviation="1"/>
<feComposite in2="hardAlpha" operator="out"/>
<feColorMatrix type="matrix" values="0 0 0 0 0.0627451 0 0 0 0 0.0941176 0 0 0 0 0.156863 0 0 0 0.06 0"/>
<feBlend mode="normal" in2="BackgroundImageFix" result="effect1_dropShadow_3729_199910"/>
<feBlend mode="normal" in="SourceGraphic" in2="effect1_dropShadow_3729_199910" result="shape"/>
</filter>
</defs>
</svg>
