<svg viewBox="0 0 22 14" fill="none" xmlns="http://www.w3.org/2000/svg">
<path d="M7 14C5.05 14 3.39583 13.3208 2.0375 11.9625C0.679167 10.6042 0 8.95 0 7C0 5.05 0.679167 3.39583 2.0375 2.0375C3.39583 0.679167 5.05 0 7 0H15C16.95 0 18.6042 0.679167 19.9625 2.0375C21.3208 3.39583 22 5.05 22 7C22 8.95 21.3208 10.6042 19.9625 11.9625C18.6042 13.3208 16.95 14 15 14H7ZM7 12.5H15C16.5217 12.5 17.8188 11.9643 18.8913 10.8928C19.9638 9.82133 20.5 8.5255 20.5 7.0053C20.5 5.4851 19.9638 4.1875 18.8913 3.1125C17.8188 2.0375 16.5217 1.5 15 1.5H7C5.47833 1.5 4.18125 2.03573 3.10875 3.1072C2.03625 4.17867 1.5 5.4745 1.5 6.9947C1.5 8.5149 2.03625 9.8125 3.10875 10.8875C4.18125 11.9625 5.47833 12.5 7 12.5ZM7.5 9.75H8.5V7.5H10.75V6.5H8.5V4.25H7.5V6.5H5.25V7.5H7.5V9.75ZM14.75 9.75H15.75V4.25H13.25V5.25H14.75V9.75Z" />
</svg>
