<svg width="34" height="34" viewBox="0 0 34 34" fill="none" xmlns="http://www.w3.org/2000/svg">
<path d="M20.8233 17.6275C21.8307 17.6275 22.8154 17.3158 23.6529 16.7317C24.4904 16.1476 25.1431 15.3175 25.5284 14.3463C25.9138 13.3751 26.0144 12.3064 25.8175 11.2756C25.6207 10.2447 25.1353 9.29786 24.4227 8.55488C23.7102 7.81191 22.8024 7.30615 21.8143 7.10159C20.8262 6.89703 19.8022 7.00287 18.8718 7.4057C17.9413 7.80853 17.1463 8.49026 16.5872 9.36466C16.0281 10.2391 15.7301 11.2668 15.7309 12.318C15.7317 13.7266 16.2686 15.0773 17.2236 16.073C18.1785 17.0686 19.4733 17.6278 20.8233 17.6275ZM9.36547 13.8799V11.223C9.36547 10.8707 9.23134 10.5328 8.99259 10.2837C8.75384 10.0346 8.43002 9.8946 8.09238 9.8946C7.75473 9.8946 7.43091 10.0346 7.19216 10.2837C6.95341 10.5328 6.81928 10.8707 6.81928 11.223V13.8799H4.27309C4.10591 13.8799 3.94036 13.9143 3.7859 13.981C3.63144 14.0478 3.4911 14.1457 3.37288 14.269C3.25466 14.3924 3.16089 14.5388 3.09691 14.7C3.03293 14.8612 3 15.0339 3 15.2084C3 15.3828 3.03293 15.5556 3.09691 15.7167C3.16089 15.8779 3.25466 16.0244 3.37288 16.1477C3.4911 16.2711 3.63144 16.3689 3.7859 16.4357C3.94036 16.5024 4.10591 16.5368 4.27309 16.5368H6.81928V19.1937C6.81928 19.3681 6.85221 19.5409 6.91619 19.7021C6.98017 19.8632 7.07394 20.0097 7.19216 20.133C7.31038 20.2564 7.45072 20.3543 7.60518 20.421C7.75964 20.4878 7.92519 20.5221 8.09238 20.5221C8.25956 20.5221 8.42511 20.4878 8.57957 20.421C8.73403 20.3543 8.87437 20.2564 8.99259 20.133C9.11081 20.0097 9.20458 19.8632 9.26856 19.7021C9.33254 19.5409 9.36547 19.3681 9.36547 19.1937V16.5368H11.9117C12.2493 16.5368 12.5731 16.3968 12.8119 16.1477C13.0506 15.8986 13.1848 15.5607 13.1848 15.2084C13.1848 14.856 13.0506 14.5181 12.8119 14.269C12.5731 14.0199 12.2493 13.8799 11.9117 13.8799H9.36547Z" fill="#3C74E1"/>
<path d="M10.6386 27.7407C10.6386 23.1422 15.1987 19.4146 20.8193 19.4146C26.4439 19.4146 31 23.1422 31 27.7407" fill="#3C74E1"/>
</svg>
