<svg width="18" height="14" viewBox="0 0 18 14" fill="none" xmlns="http://www.w3.org/2000/svg">
<path d="M11.4578 7.16119C12.1054 7.16119 12.7385 6.96579 13.2769 6.5997C13.8153 6.23361 14.2349 5.71329 14.4826 5.10455C14.7303 4.49581 14.7949 3.826 14.6684 3.17986C14.5419 2.53372 14.2298 1.94026 13.7718 1.47458C13.3137 1.00889 12.7301 0.691891 12.0949 0.563677C11.4597 0.435463 10.8014 0.501796 10.2033 0.754285C9.60513 1.00677 9.09403 1.43408 8.73463 1.98214C8.37522 2.5302 8.18366 3.17439 8.18417 3.83323C8.18469 4.71616 8.52984 5.56273 9.14374 6.18681C9.75763 6.81088 10.59 7.16137 11.4578 7.16119ZM4.09209 4.81224V3.14694C4.09209 2.92611 4.00586 2.71432 3.85238 2.55817C3.6989 2.40202 3.49073 2.31429 3.27367 2.31429C3.05661 2.31429 2.84844 2.40202 2.69496 2.55817C2.54148 2.71432 2.45525 2.92611 2.45525 3.14694V4.81224H0.818417C0.710941 4.81224 0.604518 4.83378 0.505223 4.87562C0.405928 4.91746 0.315706 4.9788 0.239709 5.05612C0.163712 5.13343 0.103428 5.22522 0.0622983 5.32625C0.021169 5.42727 0 5.53554 0 5.64489C0 5.75423 0.021169 5.86251 0.0622983 5.96353C0.103428 6.06455 0.163712 6.15634 0.239709 6.23366C0.315706 6.31098 0.405928 6.37231 0.505223 6.41415C0.604518 6.456 0.710941 6.47754 0.818417 6.47754H2.45525V8.14283C2.45525 8.25218 2.47642 8.36045 2.51755 8.46147C2.55868 8.5625 2.61896 8.65429 2.69496 8.7316C2.77096 8.80892 2.86118 8.87025 2.96047 8.9121C3.05977 8.95394 3.16619 8.97548 3.27367 8.97548C3.38115 8.97548 3.48757 8.95394 3.58686 8.9121C3.68616 8.87025 3.77638 8.80892 3.85238 8.7316C3.92838 8.65429 3.98866 8.5625 4.02979 8.46147C4.07092 8.36045 4.09209 8.25218 4.09209 8.14283V6.47754H5.72892C5.94598 6.47754 6.15415 6.38981 6.30763 6.23366C6.46111 6.07751 6.54734 5.86572 6.54734 5.64489C6.54734 5.42405 6.46111 5.21227 6.30763 5.05612C6.15415 4.89996 5.94598 4.81224 5.72892 4.81224H4.09209Z" fill="white"/>
<path d="M4.9105 13.5C4.9105 10.6177 7.84203 8.28128 11.4553 8.28128C15.0711 8.28128 18 10.6177 18 13.5" fill="white"/>
</svg>
