<svg width="48" height="48" viewBox="0 0 48 48" fill="none" xmlns="http://www.w3.org/2000/svg">
<rect x="0.5" y="0.5" width="47" height="47" rx="5.5" fill="white" stroke="#D2D8E0"/>
<path d="M33 18C33 17.17 32.33 16.5 31.5 16.5H16.5C15.67 16.5 15 17.17 15 18C15 18.83 15.67 19.5 16.5 19.5H31.5C32.33 19.5 33 18.83 33 18ZM23 30C23 29.17 22.33 28.5 21.5 28.5H16.5C15.67 28.5 15 29.17 15 30C15 30.83 15.67 31.5 16.5 31.5H21.5C22.33 31.5 23 30.83 23 30ZM28 24C28 23.17 27.33 22.5 26.5 22.5H16.5C15.67 22.5 15 23.17 15 24C15 24.83 15.67 25.5 16.5 25.5H26.5C27.33 25.5 28 24.83 28 24Z" fill="#485F7D"/>
<path d="M33 18C33 17.17 32.33 16.5 31.5 16.5H16.5C15.67 16.5 15 17.17 15 18C15 18.83 15.67 19.5 16.5 19.5H31.5C32.33 19.5 33 18.83 33 18ZM23 30C23 29.17 22.33 28.5 21.5 28.5H16.5C15.67 28.5 15 29.17 15 30C15 30.83 15.67 31.5 16.5 31.5H21.5C22.33 31.5 23 30.83 23 30ZM28 24C28 23.17 27.33 22.5 26.5 22.5H16.5C15.67 22.5 15 23.17 15 24C15 24.83 15.67 25.5 16.5 25.5H26.5C27.33 25.5 28 24.83 28 24Z" fill="#E5007A"/>
</svg>
