<svg width="18" height="13" viewBox="0 0 18 13" fill="none" xmlns="http://www.w3.org/2000/svg">
<path d="M11.4578 6.66119C12.1054 6.66119 12.7385 6.46579 13.2769 6.0997C13.8153 5.73361 14.2349 5.21329 14.4826 4.60455C14.7303 3.99581 14.7949 3.326 14.6684 2.67986C14.5419 2.03372 14.2299 1.44026 13.7718 0.974578C13.3137 0.508891 12.7301 0.191891 12.0949 0.0636767C11.4597 -0.064537 10.8014 0.0017962 10.2033 0.254285C9.60513 0.506775 9.09403 0.934076 8.73463 1.48214C8.37522 2.0302 8.18366 2.67439 8.18417 3.33323C8.18469 4.21616 8.52984 5.06273 9.14374 5.68681C9.75763 6.31088 10.59 6.66137 11.4578 6.66119ZM4.09209 4.31224V2.64694C4.09209 2.42611 4.00586 2.21432 3.85238 2.05817C3.6989 1.90202 3.49073 1.81429 3.27367 1.81429C3.05661 1.81429 2.84844 1.90202 2.69496 2.05817C2.54148 2.21432 2.45525 2.42611 2.45525 2.64694V4.31224H0.818417C0.710941 4.31224 0.604518 4.33378 0.505223 4.37562C0.405928 4.41746 0.315706 4.4788 0.239709 4.55612C0.163712 4.63343 0.103428 4.72522 0.0622983 4.82625C0.021169 4.92727 0 5.03554 0 5.14489C0 5.25423 0.021169 5.36251 0.0622983 5.46353C0.103428 5.56455 0.163712 5.65634 0.239709 5.73366C0.315706 5.81098 0.405928 5.87231 0.505223 5.91415C0.604518 5.956 0.710941 5.97754 0.818417 5.97754H2.45525V7.64283C2.45525 7.75218 2.47642 7.86045 2.51755 7.96147C2.55868 8.0625 2.61896 8.15429 2.69496 8.2316C2.77096 8.30892 2.86118 8.37026 2.96047 8.4121C3.05977 8.45395 3.16619 8.47548 3.27367 8.47548C3.38115 8.47548 3.48757 8.45395 3.58686 8.4121C3.68616 8.37026 3.77638 8.30892 3.85238 8.2316C3.92838 8.15429 3.98866 8.0625 4.02979 7.96147C4.07092 7.86045 4.09209 7.75218 4.09209 7.64283V5.97754H5.72892C5.94598 5.97754 6.15415 5.88981 6.30763 5.73366C6.46111 5.57751 6.54734 5.36572 6.54734 5.14489C6.54734 4.92405 6.46111 4.71227 6.30763 4.55612C6.15415 4.39996 5.94598 4.31224 5.72892 4.31224H4.09209Z" fill="#E5007A"/>
<path d="M4.9105 13C4.9105 10.1177 7.84203 7.78128 11.4553 7.78128C15.0711 7.78128 18 10.1177 18 13" fill="#E5007A"/>
</svg>
