<svg width="24" height="24" viewBox="0 0 24 24" fill="none" xmlns="http://www.w3.org/2000/svg">
<path d="M14.7309 12.4013C15.4505 12.4013 16.1538 12.1842 16.7521 11.7774C17.3503 11.3707 17.8165 10.7925 18.0917 10.1162C18.367 9.43979 18.4388 8.69556 18.2982 7.97762C18.1577 7.25968 17.8109 6.60029 17.302 6.08286C16.793 5.56543 16.1446 5.21321 15.4388 5.07075C14.733 4.92829 14.0016 5.002 13.337 5.28254C12.6724 5.56308 12.1045 6.03786 11.7051 6.64682C11.3058 7.25577 11.093 7.97155 11.0935 8.70359C11.0941 9.68462 11.4776 10.6253 12.1597 11.3187C12.8418 12.0121 13.7667 12.4015 14.7309 12.4013ZM6.54676 9.79138V7.94105C6.54676 7.69568 6.45096 7.46036 6.28042 7.28685C6.10988 7.11335 5.87859 7.01588 5.63741 7.01588C5.39624 7.01588 5.16494 7.11335 4.9944 7.28685C4.82386 7.46036 4.72806 7.69568 4.72806 7.94105V9.79138H2.90935C2.78993 9.79138 2.67169 9.81531 2.56136 9.8618C2.45103 9.90829 2.35078 9.97644 2.26634 10.0624C2.1819 10.1483 2.11492 10.2502 2.06922 10.3625C2.02352 10.4747 2 10.595 2 10.7165C2 10.838 2.02352 10.9583 2.06922 11.0706C2.11492 11.1828 2.1819 11.2848 2.26634 11.3707C2.35078 11.4566 2.45103 11.5248 2.56136 11.5713C2.67169 11.6178 2.78993 11.6417 2.90935 11.6417H4.72806V13.492C4.72806 13.6135 4.75158 13.7338 4.79728 13.8461C4.84298 13.9583 4.90996 14.0603 4.9944 14.1462C5.07884 14.2321 5.17909 14.3003 5.28942 14.3468C5.39974 14.3933 5.51799 14.4172 5.63741 14.4172C5.75683 14.4172 5.87508 14.3933 5.98541 14.3468C6.09573 14.3003 6.19598 14.2321 6.28042 14.1462C6.36486 14.0603 6.43184 13.9583 6.47754 13.8461C6.52324 13.7338 6.54676 13.6135 6.54676 13.492V11.6417H8.36547C8.60665 11.6417 8.83794 11.5442 9.00848 11.3707C9.17902 11.1972 9.27482 10.9619 9.27482 10.7165C9.27482 10.4712 9.17902 10.2359 9.00848 10.0624C8.83794 9.88885 8.60665 9.79138 8.36547 9.79138H6.54676Z" fill="#E5007A"/>
<path d="M14.7309 12.4013C15.4505 12.4013 16.1538 12.1842 16.7521 11.7774C17.3503 11.3707 17.8165 10.7925 18.0917 10.1162C18.367 9.43979 18.4388 8.69556 18.2982 7.97762C18.1577 7.25968 17.8109 6.60029 17.302 6.08286C16.793 5.56543 16.1446 5.21321 15.4388 5.07075C14.733 4.92829 14.0016 5.002 13.337 5.28254C12.6724 5.56308 12.1045 6.03786 11.7051 6.64682C11.3058 7.25577 11.093 7.97155 11.0935 8.70359C11.0941 9.68462 11.4776 10.6253 12.1597 11.3187C12.8418 12.0121 13.7667 12.4015 14.7309 12.4013ZM6.54676 9.79138V7.94105C6.54676 7.69568 6.45096 7.46036 6.28042 7.28685C6.10988 7.11335 5.87859 7.01588 5.63741 7.01588C5.39624 7.01588 5.16494 7.11335 4.9944 7.28685C4.82386 7.46036 4.72806 7.69568 4.72806 7.94105V9.79138H2.90935C2.78993 9.79138 2.67169 9.81531 2.56136 9.8618C2.45103 9.90829 2.35078 9.97644 2.26634 10.0624C2.1819 10.1483 2.11492 10.2502 2.06922 10.3625C2.02352 10.4747 2 10.595 2 10.7165C2 10.838 2.02352 10.9583 2.06922 11.0706C2.11492 11.1828 2.1819 11.2848 2.26634 11.3707C2.35078 11.4566 2.45103 11.5248 2.56136 11.5713C2.67169 11.6178 2.78993 11.6417 2.90935 11.6417H4.72806V13.492C4.72806 13.6135 4.75158 13.7338 4.79728 13.8461C4.84298 13.9583 4.90996 14.0603 4.9944 14.1462C5.07884 14.2321 5.17909 14.3003 5.28942 14.3468C5.39974 14.3933 5.51799 14.4172 5.63741 14.4172C5.75683 14.4172 5.87508 14.3933 5.98541 14.3468C6.09573 14.3003 6.19598 14.2321 6.28042 14.1462C6.36486 14.0603 6.43184 13.9583 6.47754 13.8461C6.52324 13.7338 6.54676 13.6135 6.54676 13.492V11.6417H8.36547C8.60665 11.6417 8.83794 11.5442 9.00848 11.3707C9.17902 11.1972 9.27482 10.9619 9.27482 10.7165C9.27482 10.4712 9.17902 10.2359 9.00848 10.0624C8.83794 9.88885 8.60665 9.79138 8.36547 9.79138H6.54676Z" fill="#51CC18"/>
<path d="M7.45612 19.4444C7.45612 16.2419 10.7134 13.6459 14.7281 13.6459C18.7456 13.6459 22 16.2419 22 19.4444" fill="#E5007A"/>
<path d="M7.45612 19.4444C7.45612 16.2419 10.7134 13.6459 14.7281 13.6459C18.7456 13.6459 22 16.2419 22 19.4444" fill="#51CC18"/>
</svg>
