<svg width="20" height="21" viewBox="0 0 20 21" fill="none" xmlns="http://www.w3.org/2000/svg">
<path d="M12.4578 10.1612C13.1054 10.1612 13.7385 9.96579 14.2769 9.5997C14.8153 9.23361 15.2349 8.71329 15.4826 8.10455C15.7303 7.49581 15.7949 6.826 15.6684 6.17986C15.5419 5.53372 15.2299 4.94026 14.7718 4.47458C14.3137 4.00889 13.7301 3.69189 13.0949 3.56368C12.4597 3.43546 11.8014 3.5018 11.2033 3.75429C10.6051 4.00677 10.094 4.43408 9.73463 4.98214C9.37522 5.5302 9.18366 6.17439 9.18417 6.83323C9.18469 7.71616 9.52984 8.56273 10.1437 9.18681C10.7576 9.81088 11.59 10.1614 12.4578 10.1612ZM5.09209 7.81224V6.14694C5.09209 5.92611 5.00586 5.71432 4.85238 5.55817C4.6989 5.40202 4.49073 5.31429 4.27367 5.31429C4.05661 5.31429 3.84844 5.40202 3.69496 5.55817C3.54148 5.71432 3.45525 5.92611 3.45525 6.14694V7.81224H1.81842C1.71094 7.81224 1.60452 7.83378 1.50522 7.87562C1.40593 7.91746 1.31571 7.9788 1.23971 8.05612C1.16371 8.13343 1.10343 8.22522 1.0623 8.32625C1.02117 8.42727 1 8.53554 1 8.64489C1 8.75423 1.02117 8.86251 1.0623 8.96353C1.10343 9.06455 1.16371 9.15634 1.23971 9.23366C1.31571 9.31098 1.40593 9.37231 1.50522 9.41415C1.60452 9.456 1.71094 9.47754 1.81842 9.47754H3.45525V11.1428C3.45525 11.2522 3.47642 11.3605 3.51755 11.4615C3.55868 11.5625 3.61896 11.6543 3.69496 11.7316C3.77096 11.8089 3.86118 11.8703 3.96047 11.9121C4.05977 11.9539 4.16619 11.9755 4.27367 11.9755C4.38115 11.9755 4.48757 11.9539 4.58686 11.9121C4.68616 11.8703 4.77638 11.8089 4.85238 11.7316C4.92838 11.6543 4.98866 11.5625 5.02979 11.4615C5.07092 11.3605 5.09209 11.2522 5.09209 11.1428V9.47754H6.72892C6.94598 9.47754 7.15415 9.38981 7.30763 9.23366C7.46111 9.07751 7.54734 8.86572 7.54734 8.64489C7.54734 8.42405 7.46111 8.21227 7.30763 8.05612C7.15415 7.89996 6.94598 7.81224 6.72892 7.81224H5.09209Z" fill="white"/>
<path d="M5.9105 16.5C5.9105 13.6177 8.84203 11.2813 12.4553 11.2813C16.0711 11.2813 19 13.6177 19 16.5" fill="white"/>
</svg>
