<svg xmlns="http://www.w3.org/2000/svg" xmlns:xlink="http://www.w3.org/1999/xlink" viewBox="0 0 847 847"><defs><style>.cls-1{fill:#f9f9f9;}.cls-2{fill:url(#linear-gradient);}.cls-3{fill:url(#linear-gradient-2);}.cls-4{fill:#fff;}.cls-5{fill:#ed1e79;}.cls-6{fill:none;stroke:#fff;stroke-linecap:round;stroke-linejoin:round;stroke-width:4px;}</style><linearGradient id="linear-gradient" x1="426.19" y1="442.99" x2="415.75" y2="861.25" gradientUnits="userSpaceOnUse"><stop offset="0" stop-color="#ffe2f0"/><stop offset="0.24" stop-color="#ffddf0"/><stop offset="0.52" stop-color="#ffcff0"/><stop offset="0.82" stop-color="#ffb8f0"/><stop offset="0.87" stop-color="#ffb4f0"/></linearGradient><linearGradient id="linear-gradient-2" x1="417.68" y1="151.06" x2="479.36" y2="553.03" gradientUnits="userSpaceOnUse"><stop offset="0" stop-color="#fff"/><stop offset="1" stop-color="#666"/></linearGradient></defs><title>2</title><g id="Layer_2" data-name="Layer 2"><g id="Layer_1-2" data-name="Layer 1"><circle class="cls-1" cx="423.5" cy="423.5" r="423.5"/><path class="cls-2" d="M491.93,650.86c-4.38,4.57-12.29.11-12.4-6.22-.8-44.91-3.57-171.75-9.69-188.07-5-13.42-20.7-15.52-27.12-15.46a5.6,5.6,0,0,0-5.49,5.26L430.08,556a34.77,34.77,0,0,0-29.81-5c-14.54,4.15-14.91,14.91-14.91,14.91s-7.59-5.56-19.88-2.48c-19.88,5-19.88,17.39-19.88,17.39S288.44,570.88,276,628c-5.26,24.19,13.58,145.48,22.68,200.91a426.26,426.26,0,0,0,217,7.24c16.79-50.39,57.83-178.35,51.1-205.66C560.65,605.72,511.67,630.23,491.93,650.86Z"/><path d="M344.34,580.87c8.61,4.72,17.67,10.22,22.24,19.29a29.74,29.74,0,0,1,2.91,14.17c0,1.77,0,3.53,0,5.3q0,9.52.07,19l.12,24.63q.06,11.41.06,22.83c0,4.69.05,9.39-.12,14.08,0,.43,0,.86-.08,1.29,0,.12,0-.12,0,0s0,0,0,.06.07-.06.1-.13c-.05.1.09,0,0,0l-.19.11a18.51,18.51,0,0,1-4.13,1.49,33.57,33.57,0,0,1-17,.5,23.87,23.87,0,0,1-9.41-4.74A29.11,29.11,0,0,1,331.05,688a69.93,69.93,0,0,1-2.92-8.81c-1-3.59-2-7.19-2.91-10.82A178.82,178.82,0,0,1,321,646.27c-.43-3.64-.72-7.3-.83-11,0-.64-1-.64-1,0,.48,15.27,4,30.23,8.19,44.85,1.52,5.27,3.26,10.45,6.59,14.89a25.3,25.3,0,0,0,9,7.58c5.84,2.88,12.56,3.28,18.9,2.19a35.61,35.61,0,0,0,6.28-1.65,14.75,14.75,0,0,0,1.73-.74c.29-.16.55-.32.63-.66a15.72,15.72,0,0,0,.16-3.36c.05-2.34.06-4.68.07-7,0-7.18,0-14.36,0-21.54q0-12.57-.12-25.14-.06-10.74-.1-21.48,0-3.47,0-7a45.82,45.82,0,0,0-.58-9.57,29.36,29.36,0,0,0-7-13.66,52,52,0,0,0-11.74-9.4c-2.06-1.28-4.17-2.47-6.29-3.63-.57-.31-1.07.55-.51.86Z"/><path d="M386,567.6a43.54,43.54,0,0,1,11.14,8.23A39.3,39.3,0,0,1,404.64,587c4.35,9.6,5.18,20.42,5.05,30.84-.11,8.76-.6,17.53-1.12,26.28q-.88,14.8-2,29.59c-.52,6.75-1,13.5-1.68,20.23l-.12,1.23.24-.43c-4.92,2.92-10.94,2.54-16.06.34a30.27,30.27,0,0,1-14.11-13A32.35,32.35,0,0,1,371,670.28c-.08-.63-1.09-.64-1,0a33.46,33.46,0,0,0,8.88,18.83c4.18,4.39,9.74,7.76,15.81,8.54a17.36,17.36,0,0,0,8.09-.79,15,15,0,0,0,1.84-.79c.55-.28,1.11-.46,1.18-1.13s.13-1.24.18-1.86c.41-4.38.77-8.76,1.12-13.15q.75-9.51,1.42-19,.73-10.36,1.32-20.72c.35-6.13.65-12.26.82-18.39a117,117,0,0,0-.86-20.24,52.47,52.47,0,0,0-6.36-19.18,40.74,40.74,0,0,0-12.74-13.22q-2-1.3-4.1-2.41c-.57-.31-1.08.56-.51.86Z"/><path d="M429.83,556.4a22.07,22.07,0,0,1,7.35,7.56,48.29,48.29,0,0,1,5,11.81,102.37,102.37,0,0,1,3.09,14.9c.78,5.6,1.22,11.24,1.48,16.88.27,5.87.32,11.73.23,17.6s-.31,11.53-.65,17.29c-.3,5.25-.7,10.49-1.17,15.73q-.6,6.57-1.36,13.13c-.35,3.06-.75,6.22-1.15,9.22-.13,1-.27,1.91-.4,2.87a14.66,14.66,0,0,0-.22,1.48l0,.19.48-.37a88.42,88.42,0,0,1-10.42-.46,27,27,0,0,1-8.19-2.08,16.93,16.93,0,0,1-6.22-4.84,26.15,26.15,0,0,1-4.27-8.68,74.39,74.39,0,0,1-2.7-15.75c-.06-.63-1.06-.64-1,0a80.82,80.82,0,0,0,2.36,14.75,29.9,29.9,0,0,0,4.18,9.43,17.87,17.87,0,0,0,6.22,5.5,25.45,25.45,0,0,0,8.17,2.48,81.22,81.22,0,0,0,11.87.65.49.49,0,0,0,.48-.37c.16-1,.3-2,.44-3q.58-4.17,1.09-8.35.75-6.18,1.35-12.37c.49-5.13.92-10.26,1.26-15.39.38-5.7.66-11.41.8-17.12.16-5.91.17-11.83,0-17.75-.17-5.77-.53-11.54-1.2-17.27A118.32,118.32,0,0,0,444,578.49a57.59,57.59,0,0,0-4.64-12.73,26.59,26.59,0,0,0-6.92-8.79,19.78,19.78,0,0,0-2.09-1.43.5.5,0,0,0-.51.86Z"/><path d="M410.55,780.85A49.5,49.5,0,0,1,420,758a72.68,72.68,0,0,1,16.62-16,81.54,81.54,0,0,1,16.1-9,33.3,33.3,0,0,1,8.78-2.47c4.05-.47,8.5-.14,12,2.06a10.65,10.65,0,0,1,4,4.46,14.07,14.07,0,0,1,1,8c-.62,4.5-2.6,9.74-6.61,12.28-4.4,2.79-9.78.59-12.72-3.27a20.66,20.66,0,0,1-3.51-7.32,22.39,22.39,0,0,1-.49-6.73,148.84,148.84,0,0,1,2.62-21.24,163.51,163.51,0,0,1,6.47-23.9,124.92,124.92,0,0,1,11-23.39,81.4,81.4,0,0,1,16-19.3q2.31-2,4.79-3.76c.52-.37,0-1.23-.5-.86a74.76,74.76,0,0,0-17.89,18.47,115.86,115.86,0,0,0-12.42,23.6,160.4,160.4,0,0,0-7.53,25,156.89,156.89,0,0,0-3.29,22.62c-.12,1.69-.23,3.38-.25,5.08a19.58,19.58,0,0,0,1.74,8c2,4.57,5.67,8.87,10.94,9.34,5,.45,8.74-3.38,10.7-7.56,2.13-4.54,3.18-10.33,1.11-15.07-3.68-8.43-14.9-8.65-22.44-6.28a70,70,0,0,0-15.35,7.37A80.81,80.81,0,0,0,423,752.66a54.49,54.49,0,0,0-12.23,21.84,48.79,48.79,0,0,0-1.24,6.35c-.08.64.92.63,1,0Z"/><rect class="cls-3" x="189.75" y="192.87" width="492.63" height="155.97" rx="30.88"/><rect class="cls-4" x="231.95" y="230.06" width="408.23" height="8.59" rx="4.29"/><rect class="cls-4" x="231.95" y="267.85" width="408.23" height="8.59" rx="4.29"/><rect class="cls-4" x="231.95" y="303.05" width="408.23" height="8.59" rx="4.29"/><circle class="cls-5" cx="436.53" cy="333.13" r="78.7"/><line class="cls-6" x1="436.53" y1="292.07" x2="436.53" y2="374.2"/><line class="cls-6" x1="395.47" y1="333.13" x2="477.6" y2="333.13"/></g></g></svg>