<svg width="85" height="12" viewBox="0 0 85 12" fill="none" xmlns="http://www.w3.org/2000/svg">
<path d="M9.436 1.27L5.782 11H3.934L0.266 1.27H1.974L4.858 9.362L7.756 1.27H9.436ZM11.6037 2.264C11.3144 2.264 11.0717 2.166 10.8757 1.97C10.6797 1.774 10.5817 1.53133 10.5817 1.242C10.5817 0.952666 10.6797 0.71 10.8757 0.514C11.0717 0.318 11.3144 0.219999 11.6037 0.219999C11.8837 0.219999 12.1217 0.318 12.3177 0.514C12.5137 0.71 12.6117 0.952666 12.6117 1.242C12.6117 1.53133 12.5137 1.774 12.3177 1.97C12.1217 2.166 11.8837 2.264 11.6037 2.264ZM12.3877 3.286V11H10.7917V3.286H12.3877ZM21.5741 6.954C21.5741 7.24333 21.5554 7.50467 21.5181 7.738H15.6241C15.6708 8.354 15.8994 8.84867 16.3101 9.222C16.7208 9.59533 17.2248 9.782 17.8221 9.782C18.6808 9.782 19.2874 9.42267 19.6421 8.704H21.3641C21.1308 9.41333 20.7061 9.99667 20.0901 10.454C19.4834 10.902 18.7274 11.126 17.8221 11.126C17.0848 11.126 16.4221 10.9627 15.8341 10.636C15.2554 10.3 14.7981 9.83333 14.4621 9.236C14.1354 8.62933 13.9721 7.92933 13.9721 7.136C13.9721 6.34267 14.1308 5.64733 14.4481 5.05C14.7748 4.44333 15.2274 3.97667 15.8061 3.65C16.3941 3.32333 17.0661 3.16 17.8221 3.16C18.5501 3.16 19.1988 3.31867 19.7681 3.636C20.3374 3.95333 20.7808 4.40133 21.0981 4.98C21.4154 5.54933 21.5741 6.20733 21.5741 6.954ZM19.9081 6.45C19.8988 5.862 19.6888 5.39067 19.2781 5.036C18.8674 4.68133 18.3588 4.504 17.7521 4.504C17.2014 4.504 16.7301 4.68133 16.3381 5.036C15.9461 5.38133 15.7128 5.85267 15.6381 6.45H19.9081ZM33.5257 3.286L31.1317 11H29.4517L27.8977 5.302L26.3437 11H24.6637L22.2557 3.286H23.8797L25.4897 9.488L27.1277 3.286H28.7937L30.3617 9.46L31.9577 3.286H33.5257ZM41.5752 1.27C42.6112 1.27 43.5165 1.47067 44.2912 1.872C45.0752 2.264 45.6772 2.83333 46.0972 3.58C46.5265 4.31733 46.7412 5.18067 46.7412 6.17C46.7412 7.15933 46.5265 8.018 46.0972 8.746C45.6772 9.474 45.0752 10.034 44.2912 10.426C43.5165 10.8087 42.6112 11 41.5752 11H38.3972V1.27H41.5752ZM41.5752 9.698C42.7139 9.698 43.5865 9.39 44.1932 8.774C44.7999 8.158 45.1032 7.29 45.1032 6.17C45.1032 5.04067 44.7999 4.15867 44.1932 3.524C43.5865 2.88933 42.7139 2.572 41.5752 2.572H39.9932V9.698H41.5752ZM55.414 6.954C55.414 7.24333 55.3953 7.50467 55.358 7.738H49.464C49.5106 8.354 49.7393 8.84867 50.15 9.222C50.5606 9.59533 51.0646 9.782 51.662 9.782C52.5206 9.782 53.1273 9.42267 53.482 8.704H55.204C54.9706 9.41333 54.546 9.99667 53.93 10.454C53.3233 10.902 52.5673 11.126 51.662 11.126C50.9246 11.126 50.262 10.9627 49.674 10.636C49.0953 10.3 48.638 9.83333 48.302 9.236C47.9753 8.62933 47.812 7.92933 47.812 7.136C47.812 6.34267 47.9706 5.64733 48.288 5.05C48.6146 4.44333 49.0673 3.97667 49.646 3.65C50.234 3.32333 50.906 3.16 51.662 3.16C52.39 3.16 53.0386 3.31867 53.608 3.636C54.1773 3.95333 54.6206 4.40133 54.938 4.98C55.2553 5.54933 55.414 6.20733 55.414 6.954ZM53.748 6.45C53.7386 5.862 53.5286 5.39067 53.118 5.036C52.7073 4.68133 52.1986 4.504 51.592 4.504C51.0413 4.504 50.57 4.68133 50.178 5.036C49.786 5.38133 49.5526 5.85267 49.478 6.45H53.748ZM58.8676 4.588V8.858C58.8676 9.14733 58.9329 9.35733 59.0636 9.488C59.2036 9.60933 59.4369 9.67 59.7636 9.67H60.7436V11H59.4836C58.7649 11 58.2143 10.832 57.8316 10.496C57.4489 10.16 57.2576 9.614 57.2576 8.858V4.588H56.3476V3.286H57.2576V1.368H58.8676V3.286H60.7436V4.588H58.8676ZM61.7036 7.108C61.7036 6.33333 61.8622 5.64733 62.1796 5.05C62.5062 4.45267 62.9449 3.99067 63.4956 3.664C64.0556 3.328 64.6716 3.16 65.3436 3.16C65.9502 3.16 66.4776 3.28133 66.9256 3.524C67.3829 3.75733 67.7469 4.05133 68.0176 4.406V3.286H69.6276V11H68.0176V9.852C67.7469 10.216 67.3782 10.5193 66.9116 10.762C66.4449 11.0047 65.9129 11.126 65.3156 11.126C64.6529 11.126 64.0462 10.958 63.4956 10.622C62.9449 10.2767 62.5062 9.80067 62.1796 9.194C61.8622 8.578 61.7036 7.88267 61.7036 7.108ZM68.0176 7.136C68.0176 6.604 67.9056 6.142 67.6816 5.75C67.4669 5.358 67.1822 5.05933 66.8276 4.854C66.4729 4.64867 66.0902 4.546 65.6796 4.546C65.2689 4.546 64.8862 4.64867 64.5316 4.854C64.1769 5.05 63.8876 5.344 63.6636 5.736C63.4489 6.11867 63.3416 6.576 63.3416 7.108C63.3416 7.64 63.4489 8.10667 63.6636 8.508C63.8876 8.90933 64.1769 9.21733 64.5316 9.432C64.8956 9.63733 65.2782 9.74 65.6796 9.74C66.0902 9.74 66.4729 9.63733 66.8276 9.432C67.1822 9.22667 67.4669 8.928 67.6816 8.536C67.9056 8.13467 68.0176 7.668 68.0176 7.136ZM72.5569 2.264C72.2675 2.264 72.0249 2.166 71.8289 1.97C71.6329 1.774 71.5349 1.53133 71.5349 1.242C71.5349 0.952666 71.6329 0.71 71.8289 0.514C72.0249 0.318 72.2675 0.219999 72.5569 0.219999C72.8369 0.219999 73.0749 0.318 73.2709 0.514C73.4669 0.71 73.5649 0.952666 73.5649 1.242C73.5649 1.53133 73.4669 1.774 73.2709 1.97C73.0749 2.166 72.8369 2.264 72.5569 2.264ZM73.3409 3.286V11H71.7449V3.286H73.3409ZM77.0533 0.64V11H75.4573V0.64H77.0533ZM81.9697 11.126C81.363 11.126 80.817 11.0187 80.3317 10.804C79.8557 10.58 79.4777 10.2813 79.1977 9.908C78.9177 9.52533 78.7683 9.10067 78.7497 8.634H80.4017C80.4297 8.96067 80.5837 9.236 80.8637 9.46C81.153 9.67467 81.5123 9.782 81.9417 9.782C82.3897 9.782 82.735 9.698 82.9777 9.53C83.2297 9.35267 83.3557 9.12867 83.3557 8.858C83.3557 8.56867 83.2157 8.354 82.9357 8.214C82.665 8.074 82.231 7.92 81.6337 7.752C81.055 7.59333 80.5837 7.43933 80.2197 7.29C79.8557 7.14067 79.5383 6.912 79.2677 6.604C79.0063 6.296 78.8757 5.89 78.8757 5.386C78.8757 4.97533 78.997 4.602 79.2397 4.266C79.4823 3.92067 79.8277 3.65 80.2757 3.454C80.733 3.258 81.2557 3.16 81.8437 3.16C82.721 3.16 83.4257 3.384 83.9577 3.832C84.499 4.27067 84.7883 4.87267 84.8257 5.638H83.2297C83.2017 5.29267 83.0617 5.01733 82.8097 4.812C82.5577 4.60667 82.217 4.504 81.7877 4.504C81.3677 4.504 81.0457 4.58333 80.8217 4.742C80.5977 4.90067 80.4857 5.11067 80.4857 5.372C80.4857 5.57733 80.5603 5.75 80.7097 5.89C80.859 6.03 81.041 6.142 81.2557 6.226C81.4703 6.30067 81.7877 6.39867 82.2077 6.52C82.7677 6.66933 83.225 6.82333 83.5797 6.982C83.9437 7.13133 84.2563 7.35533 84.5177 7.654C84.779 7.95267 84.9143 8.34933 84.9237 8.844C84.9237 9.28267 84.8023 9.67467 84.5597 10.02C84.317 10.3653 83.9717 10.636 83.5237 10.832C83.085 11.028 82.567 11.126 81.9697 11.126Z" fill="#E5007A"/>
</svg>