<svg width="32" height="26" viewBox="0 0 32 26" fill="none" xmlns="http://www.w3.org/2000/svg">
<path d="M3.76454 4.34883L3.76453 4.34883C1.96426 6.06072 1.0709 6.91044 0.616502 7.42359C0.390026 7.67934 0.28092 7.84254 0.221973 7.97984C0.163722 8.11551 0.150711 8.23337 0.131797 8.4166L3.76454 4.34883ZM3.76454 4.34883C4.67703 3.4811 5.53347 2.67634 6.17817 2.07884C6.50057 1.78004 6.76972 1.53335 6.96632 1.35662C7.06469 1.2682 7.14442 1.19773 7.20337 1.14715C7.23289 1.12182 7.25662 1.10198 7.27456 1.08758C7.29223 1.07339 7.30023 1.06779 7.30161 1.06683C7.30179 1.0667 7.30186 1.06666 7.30182 1.06668C7.4219 0.995429 7.63957 0.912211 7.77573 0.885456L7.77574 0.885454M3.76454 4.34883L7.77574 0.885454M7.77574 0.885454C7.7755 0.885501 7.78026 0.88469 7.79338 0.883508M7.77574 0.885454L7.79338 0.883508M27.3676 8.20441L27.3676 8.20445C27.3956 8.25674 27.4135 8.33617 27.425 8.40933C27.4373 8.48764 27.4449 8.57775 27.4449 8.66215C27.4449 8.79623 27.4366 8.90093 27.3728 9.02058C27.3148 9.12939 27.2127 9.24611 27.0524 9.42103L26.9603 9.33657L27.0524 9.42103C26.5976 9.91728 24.189 12.4603 21.8781 14.8917C20.7223 16.1078 19.5905 17.2964 18.739 18.1879C18.3132 18.6337 17.9574 19.0053 17.7036 19.269C17.5768 19.4008 17.4753 19.5058 17.4032 19.5796C17.3672 19.6165 17.3383 19.6459 17.3172 19.6671L27.3676 8.20441ZM27.3676 8.20441C27.358 8.18655 27.3432 8.16923 27.336 8.16075L27.3359 8.16062C27.3254 8.14837 27.312 8.1335 27.2963 8.11661C27.2648 8.08266 27.2211 8.03736 27.1672 7.98244C27.0592 7.87243 26.9075 7.72145 26.7235 7.54062C26.3554 7.17885 25.8565 6.69619 25.3156 6.17989C24.5395 5.43902 24.0338 4.96476 23.6982 4.669C23.5305 4.52125 23.403 4.41603 23.3041 4.34384C23.2079 4.27361 23.1283 4.22661 23.058 4.2071L23.0246 4.32754L23.058 4.2071C23.0266 4.19839 22.9811 4.19263 22.931 4.18796C22.8778 4.18301 22.8096 4.1785 22.7275 4.17439C22.5631 4.16615 22.3389 4.15929 22.0586 4.15384C21.4978 4.14292 20.7095 4.13756 19.7206 4.13825L19.7089 4.13826C18.063 4.13937 17.2277 4.13994 16.7726 4.18338C16.5444 4.20515 16.3949 4.23882 16.2826 4.29872C16.1694 4.35914 16.1048 4.44122 16.041 4.52247L16.0364 4.52821L16.0364 4.52822L15.901 4.70041L15.8743 4.73442V4.77768V12.0254V19.273V19.3216L15.9071 19.3574L16.1212 19.5911L16.1212 19.5911C16.2154 19.6939 16.2928 19.7713 16.3909 19.8155C16.4899 19.8602 16.5967 19.8653 16.7309 19.8653C16.9548 19.8653 17.1298 19.824 17.269 19.7129L27.3676 8.20441ZM0.418364 9.48236L0.418407 9.48241C0.417818 9.48162 0.417828 9.48163 0.418802 9.48278C0.420071 9.48427 0.422976 9.48769 0.428325 9.49376C0.43635 9.50286 0.44758 9.51536 0.462115 9.53136C0.491128 9.56329 0.532239 9.60796 0.584961 9.66486C0.690348 9.77858 0.841315 9.94026 1.03292 10.1446C1.4161 10.5534 1.96128 11.1324 2.62828 11.8391C3.96225 13.2524 5.78316 15.1762 7.769 17.2692C8.23304 17.7583 8.66835 18.2173 9.07686 18.648C12.1983 21.9393 13.7554 23.5811 14.6119 24.3983C15.0992 24.8633 15.346 25.0475 15.5158 25.1215C15.6364 25.1741 15.712 25.1717 15.8403 25.1677C15.8842 25.1663 15.9343 25.1648 15.9944 25.1651C16.0538 25.1655 16.1037 25.1675 16.1477 25.1693C16.2795 25.1745 16.358 25.1777 16.4772 25.1287C16.6427 25.0607 16.8784 24.89 17.3379 24.4554C18.1474 23.6899 19.6076 22.15 22.536 19.0621C22.9127 18.6649 23.3137 18.242 23.7408 17.7919C24.4413 17.0535 25.0802 16.3802 25.6629 15.7661C28.6856 12.5807 30.1958 10.9893 30.9586 10.1632C31.4158 9.66798 31.5983 9.45411 31.6779 9.33873C31.7241 9.27177 31.7282 9.25452 31.7371 9.21787C31.7428 9.19465 31.7503 9.16364 31.7716 9.10728C31.8681 8.85163 31.8894 8.70061 31.8668 8.44265C31.85 8.25116 31.839 8.12903 31.7828 7.99093C31.7262 7.85192 31.6199 7.68868 31.3959 7.43399C30.9478 6.92451 30.0633 6.08623 28.2773 4.3935L28.2567 4.37392C27.352 3.51651 26.5014 2.71833 25.8598 2.12312C25.539 1.82547 25.2706 1.57881 25.074 1.40095C24.9757 1.31198 24.8957 1.24057 24.8362 1.18872C24.8064 1.16277 24.7822 1.14211 24.7636 1.12677C24.7543 1.1191 24.7468 1.11306 24.741 1.10852L24.734 1.10322L24.732 1.10177C24.7315 1.10142 24.7313 1.10128 24.7314 1.10131C24.6059 1.01788 24.3496 0.922175 24.1411 0.885825L0.418364 9.48236ZM0.418364 9.48236C0.210586 9.20242 0.0948869 8.77448 0.131796 8.41661L0.418364 9.48236ZM7.79338 0.883508C7.80533 0.88243 7.82123 0.881297 7.84132 0.880135M7.79338 0.883508L7.84132 0.880135M7.84132 0.880135C7.88146 0.877816 7.93575 0.87553 8.00368 0.873298M7.84132 0.880135L8.00368 0.873298M8.00368 0.873298C8.13942 0.86884 8.32701 0.864682 8.55943 0.860836M8.00368 0.873298L8.55943 0.860836M8.55943 0.860836C9.02414 0.853145 9.66609 0.84673 10.4266 0.841595M8.55943 0.860836L10.4266 0.841595M10.4266 0.841595C11.9475 0.831326 13.9413 0.826184 15.9369 0.826172M10.4266 0.841595L15.9369 0.826172M15.9369 0.826172C17.9326 0.82616 19.9297 0.831279 21.4573 0.841527M15.9369 0.826172L21.4573 0.841527M21.4573 0.841527C22.2212 0.846651 22.8674 0.853056 23.3371 0.860737M21.4573 0.841527L23.3371 0.860737M23.3371 0.860737C23.572 0.864579 23.7624 0.868733 23.9011 0.873189M23.3371 0.860737L23.9011 0.873189M23.9011 0.873189C24.0452 0.877819 24.1224 0.882587 24.141 0.88582L23.9011 0.873189Z" fill="#334D6E" stroke="white" stroke-width="0.25"/>
</svg>
