<svg width="20" height="20" viewBox="0 0 20 20" fill="none" xmlns="http://www.w3.org/2000/svg">
<rect width="20" height="20" rx="4" fill="#222222"/>
<g clip-path="url(#clip0_11622_37500)">
<g clip-path="url(#clip1_11622_37500)">
<path d="M8.71733 9.33398C9.11733 9.33398 9.44133 9.63398 9.434 10.0007C9.434 10.3673 9.118 10.6673 8.71733 10.6673C8.324 10.6673 8 10.3673 8 10.0007C8 9.63398 8.31667 9.33398 8.71733 9.33398ZM11.2827 9.33398C11.6833 9.33398 12 9.63398 12 10.0007C12 10.3673 11.6833 10.6673 11.2827 10.6673C10.8893 10.6673 10.566 10.3673 10.566 10.0007C10.566 9.63398 10.882 9.33398 11.2827 9.33398ZM14.594 3.33398C15.3693 3.33398 16 3.97798 16 4.77598V17.334L14.526 16.004L13.696 15.22L12.818 14.3867L13.182 15.682H5.406C4.63067 15.682 4 15.038 4 14.24V4.77598C4 3.97798 4.63067 3.33398 5.406 3.33398H14.5933H14.594ZM11.9473 12.476C13.4627 12.4273 14.046 11.412 14.046 11.412C14.046 9.15798 13.058 7.33065 13.058 7.33065C12.0713 6.57532 11.1313 6.59598 11.1313 6.59598L11.0353 6.70798C12.2013 7.07198 12.7427 7.59732 12.7427 7.59732C12.106 7.23864 11.4044 7.01021 10.6787 6.92532C10.2183 6.87332 9.75329 6.8778 9.294 6.93865C9.25267 6.93865 9.218 6.94598 9.17733 6.95265C8.93733 6.97398 8.354 7.06465 7.62067 7.39398C7.36733 7.51265 7.216 7.59732 7.216 7.59732C7.216 7.59732 7.78533 7.04398 9.01933 6.67998L8.95067 6.59598C8.95067 6.59598 8.01133 6.57532 7.024 7.33132C7.024 7.33132 6.03667 9.15798 6.03667 11.412C6.03667 11.412 6.61267 12.4267 8.128 12.476C8.128 12.476 8.38133 12.1613 8.588 11.8953C7.71667 11.6287 7.388 11.0687 7.388 11.0687C7.388 11.0687 7.456 11.118 7.57933 11.188C7.586 11.1947 7.59267 11.202 7.60667 11.2087C7.62733 11.2233 7.648 11.23 7.66867 11.244C7.84 11.342 8.01133 11.4187 8.16867 11.482C8.45 11.594 8.786 11.706 9.17733 11.7833C9.76355 11.8982 10.3663 11.9005 10.9533 11.79C11.2953 11.729 11.6289 11.628 11.9473 11.4893C12.1873 11.398 12.4547 11.2647 12.736 11.076C12.736 11.076 12.3933 11.65 11.4947 11.9093C11.7007 12.1753 11.948 12.476 11.948 12.476H11.9473Z" fill="#595959"/>
</g>
</g>
<defs>
<clipPath id="clip0_11622_37500">
<rect width="16" height="16" fill="white" transform="translate(2 2)"/>
</clipPath>
<clipPath id="clip1_11622_37500">
<rect width="16" height="16" fill="white" transform="translate(2 2)"/>
</clipPath>
</defs>
</svg>
