<svg width="25" height="24" viewBox="0 0 25 24" fill="none" xmlns="http://www.w3.org/2000/svg">
<g id="Frame" clip-path="url(#clip0_88_508)">
<path id="Vector" d="M10.576 11C11.176 11 11.662 11.45 11.651 12C11.651 12.55 11.177 13 10.576 13C9.986 13 9.5 12.55 9.5 12C9.5 11.45 9.975 11 10.576 11ZM14.424 11C15.025 11 15.5 11.45 15.5 12C15.5 12.55 15.025 13 14.424 13C13.834 13 13.349 12.55 13.349 12C13.349 11.45 13.823 11 14.424 11ZM19.391 2C20.554 2 21.5 2.966 21.5 4.163V23L19.289 21.005L18.044 19.829L16.727 18.579L17.273 20.522H5.609C4.446 20.522 3.5 19.556 3.5 18.359V4.163C3.5 2.966 4.446 2 5.609 2H19.39H19.391ZM15.421 15.713C17.694 15.64 18.569 14.117 18.569 14.117C18.569 10.736 17.087 7.995 17.087 7.995C15.607 6.862 14.197 6.893 14.197 6.893L14.053 7.061C15.802 7.607 16.614 8.395 16.614 8.395C15.6591 7.85699 14.6066 7.51434 13.518 7.387C12.8274 7.309 12.1299 7.31572 11.441 7.407C11.379 7.407 11.327 7.418 11.266 7.428C10.906 7.46 10.031 7.596 8.931 8.09C8.551 8.268 8.324 8.395 8.324 8.395C8.324 8.395 9.178 7.565 11.029 7.019L10.926 6.893C10.926 6.893 9.517 6.862 8.036 7.996C8.036 7.996 6.555 10.736 6.555 14.117C6.555 14.117 7.419 15.639 9.692 15.713C9.692 15.713 10.072 15.241 10.382 14.842C9.075 14.442 8.582 13.602 8.582 13.602C8.582 13.602 8.684 13.676 8.869 13.781C8.879 13.791 8.889 13.802 8.91 13.812C8.941 13.834 8.972 13.844 9.003 13.865C9.26 14.012 9.517 14.127 9.753 14.222C10.175 14.39 10.679 14.558 11.266 14.674C12.1453 14.8464 13.0494 14.8498 13.93 14.684C14.4429 14.5925 14.9433 14.4411 15.421 14.233C15.781 14.096 16.182 13.896 16.604 13.613C16.604 13.613 16.09 14.474 14.742 14.863C15.051 15.262 15.422 15.713 15.422 15.713H15.421Z" fill="#FF60B5"/>
</g>
<defs>
<clipPath id="clip0_88_508">
<rect width="24" height="24" fill="white" transform="translate(0.5)"/>
</clipPath>
</defs>
</svg>
