<svg width="40" height="40" viewBox="0 0 40 40" fill="none" xmlns="http://www.w3.org/2000/svg">
<rect width="40" height="40" rx="9" fill="#FEF2F8"/>
<g clip-path="url(#clip0_6837_71590)">
<g clip-path="url(#clip1_6837_71590)">
<path d="M18.076 19C18.676 19 19.162 19.45 19.151 20C19.151 20.55 18.677 21 18.076 21C17.486 21 17 20.55 17 20C17 19.45 17.475 19 18.076 19ZM21.924 19C22.525 19 23 19.45 23 20C23 20.55 22.525 21 21.924 21C21.334 21 20.849 20.55 20.849 20C20.849 19.45 21.323 19 21.924 19ZM26.891 10C28.054 10 29 10.966 29 12.163V31L26.789 29.005L25.544 27.829L24.227 26.579L24.773 28.522H13.109C11.946 28.522 11 27.556 11 26.359V12.163C11 10.966 11.946 10 13.109 10H26.89H26.891ZM22.921 23.713C25.194 23.64 26.069 22.117 26.069 22.117C26.069 18.736 24.587 15.995 24.587 15.995C23.107 14.862 21.697 14.893 21.697 14.893L21.553 15.061C23.302 15.607 24.114 16.395 24.114 16.395C23.1591 15.857 22.1066 15.5143 21.018 15.387C20.3274 15.309 19.6299 15.3157 18.941 15.407C18.879 15.407 18.827 15.418 18.766 15.428C18.406 15.46 17.531 15.596 16.431 16.09C16.051 16.268 15.824 16.395 15.824 16.395C15.824 16.395 16.678 15.565 18.529 15.019L18.426 14.893C18.426 14.893 17.017 14.862 15.536 15.996C15.536 15.996 14.055 18.736 14.055 22.117C14.055 22.117 14.919 23.639 17.192 23.713C17.192 23.713 17.572 23.241 17.882 22.842C16.575 22.442 16.082 21.602 16.082 21.602C16.082 21.602 16.184 21.676 16.369 21.781C16.379 21.791 16.389 21.802 16.41 21.812C16.441 21.834 16.472 21.844 16.503 21.865C16.76 22.012 17.017 22.127 17.253 22.222C17.675 22.39 18.179 22.558 18.766 22.674C19.6453 22.8464 20.5494 22.8498 21.43 22.684C21.9429 22.5925 22.4433 22.4411 22.921 22.233C23.281 22.096 23.682 21.896 24.104 21.613C24.104 21.613 23.59 22.474 22.242 22.863C22.551 23.262 22.922 23.713 22.922 23.713H22.921Z" fill="#485F7D"/>
</g>
</g>
<defs>
<clipPath id="clip0_6837_71590">
<rect width="24" height="24" fill="white" transform="translate(8 8)"/>
</clipPath>
<clipPath id="clip1_6837_71590">
<rect width="24" height="24" fill="white" transform="translate(8 8)"/>
</clipPath>
</defs>
</svg>
