<svg width="24" height="24" viewBox="0 0 24 24" fill="none" xmlns="http://www.w3.org/2000/svg">
<path d="M21 5.67573C20.9993 5.45482 20.9546 5.23625 20.8685 5.0327C20.7825 4.82915 20.6568 4.64467 20.4988 4.48997C20.1772 4.1756 19.7449 3.99967 19.2948 4H6.71614C6.26647 4.00004 5.83473 4.17594 5.51351 4.48997C5.35529 4.64453 5.22949 4.82898 5.14343 5.03256C5.05738 5.23614 5.0128 5.45478 5.0123 5.67573V5.97472H4.70479C4.25457 5.97452 3.82225 6.15062 3.50077 6.46516C3.34282 6.6199 3.21722 6.80439 3.13126 7.00793C3.0453 7.21148 3.00069 7.43003 3.00002 7.65091V19.5641C2.99887 19.734 3.04729 19.9006 3.13937 20.0434C3.23316 20.186 3.36602 20.2986 3.52214 20.3679C3.6403 20.4216 3.76856 20.4496 3.89839 20.45C4.1133 20.4516 4.32178 20.3769 4.48647 20.2391L7.44218 17.7211H17.2829C17.733 17.7211 18.1651 17.5451 18.4865 17.2306C18.6445 17.0759 18.7701 16.8914 18.856 16.6878C18.942 16.4843 18.9866 16.2657 18.9873 16.0449V15.7445H19.2948C19.7445 15.7447 20.1765 15.569 20.4979 15.255C20.6559 15.1005 20.7817 14.9163 20.8678 14.713C20.954 14.5097 20.999 14.2914 21 14.0706V5.67573ZM17.59 16.0435C17.5899 16.0826 17.5821 16.1213 17.5668 16.1574C17.5516 16.1934 17.5293 16.2261 17.5013 16.2535C17.4428 16.3105 17.3642 16.3423 17.2825 16.342H7.36972C7.10809 16.3414 6.85467 16.4332 6.65436 16.6011L4.39775 18.4989V7.65184C4.39761 7.61261 4.4054 7.57376 4.42065 7.5376C4.43589 7.50145 4.45828 7.46872 4.48647 7.44139C4.54458 7.38436 4.62282 7.3524 4.70433 7.35239H17.2825C17.3642 7.3525 17.4427 7.38443 17.5013 7.44139C17.5293 7.46866 17.5516 7.50125 17.5668 7.53722C17.582 7.5732 17.5899 7.61186 17.59 7.65091V16.0435ZM19.6023 14.0674C19.6022 14.1064 19.5942 14.145 19.5789 14.1809C19.5636 14.2168 19.5412 14.2493 19.5131 14.2764C19.4547 14.3334 19.3764 14.3653 19.2948 14.3654H19.2915L18.9873 14.3705V7.64906C18.9868 7.42814 18.9423 7.20951 18.8564 7.00593C18.7704 6.80235 18.6447 6.61788 18.4865 6.4633C18.1648 6.14955 17.7327 5.97414 17.2829 5.97472H6.41003V5.67619C6.41009 5.63707 6.41797 5.59834 6.4332 5.56228C6.44843 5.52623 6.47072 5.49357 6.49875 5.46621C6.55688 5.40954 6.63489 5.37777 6.71614 5.37767H19.2948C19.3764 5.37733 19.4548 5.40915 19.5131 5.46621C19.5413 5.49348 19.5637 5.52612 19.579 5.56218C19.5943 5.59825 19.6022 5.63702 19.6023 5.67619V14.0674Z" fill="#E5007A"/>
<path d="M13.7606 13.6728C14.3704 13.6728 14.8647 13.187 14.8647 12.5876C14.8647 11.9883 14.3704 11.5025 13.7606 11.5025C13.1508 11.5025 12.6564 11.9883 12.6564 12.5876C12.6564 13.187 13.1508 13.6728 13.7606 13.6728Z" fill="#E5007A"/>
<path d="M10.7422 13.6728C11.352 13.6728 11.8464 13.187 11.8464 12.5876C11.8464 11.9883 11.352 11.5025 10.7422 11.5025C10.1324 11.5025 9.63805 11.9883 9.63805 12.5876C9.63805 13.187 10.1324 13.6728 10.7422 13.6728Z" fill="#E5007A"/>
<path d="M7.72363 13.6728C8.33344 13.6728 8.82778 13.187 8.82778 12.5876C8.82778 11.9883 8.33344 11.5025 7.72363 11.5025C7.11382 11.5025 6.61947 11.9883 6.61947 12.5876C6.61947 13.187 7.11382 13.6728 7.72363 13.6728Z" fill="#E5007A"/>
</svg>
