<svg width="21" height="20" viewBox="0 0 21 20" fill="none" xmlns="http://www.w3.org/2000/svg">
<rect x="0.5" width="20" height="20" rx="4" fill="#FEF2F8"/>
<g clip-path="url(#clip0_7308_70354)">
<g clip-path="url(#clip1_7308_70354)">
<path d="M9.71733 9.33398C10.1173 9.33398 10.4413 9.63398 10.434 10.0007C10.434 10.3673 10.118 10.6673 9.71733 10.6673C9.324 10.6673 9 10.3673 9 10.0007C9 9.63398 9.31667 9.33398 9.71733 9.33398ZM12.2827 9.33398C12.6833 9.33398 13 9.63398 13 10.0007C13 10.3673 12.6833 10.6673 12.2827 10.6673C11.8893 10.6673 11.566 10.3673 11.566 10.0007C11.566 9.63398 11.882 9.33398 12.2827 9.33398ZM15.594 3.33398C16.3693 3.33398 17 3.97798 17 4.77598V17.334L15.526 16.004L14.696 15.22L13.818 14.3867L14.182 15.682H6.406C5.63067 15.682 5 15.038 5 14.24V4.77598C5 3.97798 5.63067 3.33398 6.406 3.33398H15.5933H15.594ZM12.9473 12.476C14.4627 12.4273 15.046 11.412 15.046 11.412C15.046 9.15798 14.058 7.33065 14.058 7.33065C13.0713 6.57532 12.1313 6.59598 12.1313 6.59598L12.0353 6.70798C13.2013 7.07198 13.7427 7.59732 13.7427 7.59732C13.106 7.23864 12.4044 7.01021 11.6787 6.92532C11.2183 6.87332 10.7533 6.8778 10.294 6.93865C10.2527 6.93865 10.218 6.94598 10.1773 6.95265C9.93733 6.97398 9.354 7.06465 8.62067 7.39398C8.36733 7.51265 8.216 7.59732 8.216 7.59732C8.216 7.59732 8.78533 7.04398 10.0193 6.67998L9.95067 6.59598C9.95067 6.59598 9.01133 6.57532 8.024 7.33132C8.024 7.33132 7.03667 9.15798 7.03667 11.412C7.03667 11.412 7.61267 12.4267 9.128 12.476C9.128 12.476 9.38133 12.1613 9.588 11.8953C8.71667 11.6287 8.388 11.0687 8.388 11.0687C8.388 11.0687 8.456 11.118 8.57933 11.188C8.586 11.1947 8.59267 11.202 8.60667 11.2087C8.62733 11.2233 8.648 11.23 8.66867 11.244C8.84 11.342 9.01133 11.4187 9.16867 11.482C9.45 11.594 9.786 11.706 10.1773 11.7833C10.7635 11.8982 11.3663 11.9005 11.9533 11.79C12.2953 11.729 12.6289 11.628 12.9473 11.4893C13.1873 11.398 13.4547 11.2647 13.736 11.076C13.736 11.076 13.3933 11.65 12.4947 11.9093C12.7007 12.1753 12.948 12.476 12.948 12.476H12.9473Z" fill="#485F7D"/>
</g>
</g>
<defs>
<clipPath id="clip0_7308_70354">
<rect width="16" height="16" fill="white" transform="translate(3 2)"/>
</clipPath>
<clipPath id="clip1_7308_70354">
<rect width="16" height="16" fill="white" transform="translate(3 2)"/>
</clipPath>
</defs>
</svg>
