<svg width="35" height="23" viewBox="0 0 25 23" fill="none" xmlns="http://www.w3.org/2000/svg">
<path d="M24.7891 2.98529C24.7881 2.69073 24.7285 2.3993 24.6138 2.12791C24.4991 1.85651 24.3315 1.61054 24.1208 1.40427C23.692 0.985114 23.1156 0.750543 22.5154 0.750977H5.74392C5.14436 0.751028 4.5687 0.985563 4.14041 1.40427C3.92945 1.61035 3.76171 1.85628 3.64697 2.12772C3.53224 2.39917 3.4728 2.69068 3.47213 2.98529V3.38394H3.06212C2.46183 3.38367 1.88539 3.61847 1.45675 4.03785C1.24615 4.24417 1.07869 4.49016 0.964079 4.76156C0.849468 5.03295 0.789988 5.32435 0.789089 5.61886V21.5032C0.787555 21.7297 0.852116 21.9517 0.974895 22.1422C1.09994 22.3323 1.27709 22.4825 1.48524 22.5749C1.64279 22.6465 1.81381 22.6838 1.98692 22.6843C2.27347 22.6865 2.55144 22.5868 2.77102 22.4031L6.71197 19.0457H19.833C20.4331 19.0458 21.0092 18.811 21.4377 18.3918C21.6483 18.1855 21.8158 17.9395 21.9304 17.6681C22.045 17.3967 22.1045 17.1053 22.1054 16.8108V16.4103H22.5154C23.1151 16.4106 23.691 16.1762 24.1195 15.7576C24.3303 15.5517 24.4979 15.306 24.6129 15.035C24.7278 14.7639 24.7877 14.4728 24.7891 14.1785V2.98529ZM20.2424 16.8089C20.2423 16.8611 20.2318 16.9127 20.2115 16.9608C20.1912 17.0089 20.1615 17.0524 20.1241 17.0889C20.0461 17.1649 19.9414 17.2073 19.8324 17.207H6.61535C6.26651 17.2061 5.92863 17.3285 5.66155 17.5525L2.65273 20.0828V5.6201C2.65255 5.5678 2.66293 5.51599 2.68326 5.46778C2.70358 5.41957 2.73343 5.37594 2.77102 5.3395C2.84851 5.26346 2.95283 5.22084 3.0615 5.22083H19.8324C19.9414 5.22098 20.046 5.26355 20.1241 5.3395C20.1614 5.37586 20.1912 5.4193 20.2115 5.46728C20.2318 5.51525 20.2423 5.56678 20.2424 5.61886V16.8089ZM22.9254 14.1741C22.9253 14.2262 22.9147 14.2777 22.8943 14.3255C22.8739 14.3734 22.844 14.4167 22.8065 14.4529C22.7287 14.5288 22.6242 14.5714 22.5154 14.5715H22.5111L22.1054 14.5783V5.61639C22.1048 5.32183 22.0455 5.03032 21.9309 4.75888C21.8163 4.48744 21.6486 4.24149 21.4377 4.03538C21.0089 3.61705 20.4327 3.38317 19.833 3.38394H5.33577V2.9859C5.33585 2.93373 5.34635 2.8821 5.36666 2.83402C5.38697 2.78595 5.41669 2.7424 5.45406 2.70592C5.53157 2.63037 5.63558 2.58801 5.74392 2.58787H22.5154C22.6242 2.58742 22.7288 2.62984 22.8065 2.70592C22.8441 2.74228 22.874 2.7858 22.8944 2.83389C22.9148 2.88198 22.9254 2.93367 22.9254 2.9859V14.1741Z" fill="#334D6E"/>
<path d="M15.1365 13.6481C15.9495 13.6481 16.6087 13.0003 16.6087 12.2012C16.6087 11.4021 15.9495 10.7543 15.1365 10.7543C14.3234 10.7543 13.6643 11.4021 13.6643 12.2012C13.6643 13.0003 14.3234 13.6481 15.1365 13.6481Z" fill="#334D6E"/>
<path d="M11.112 13.6481C11.9251 13.6481 12.5842 13.0003 12.5842 12.2012C12.5842 11.4021 11.9251 10.7543 11.112 10.7543C10.2989 10.7543 9.6398 11.4021 9.6398 12.2012C9.6398 13.0003 10.2989 13.6481 11.112 13.6481Z" fill="#334D6E"/>
<path d="M7.08723 13.6481C7.90031 13.6481 8.55944 13.0003 8.55944 12.2012C8.55944 11.4021 7.90031 10.7543 7.08723 10.7543C6.27416 10.7543 5.61503 11.4021 5.61503 12.2012C5.61503 13.0003 6.27416 13.6481 7.08723 13.6481Z" fill="#334D6E"/>
</svg>
