<svg width="16" height="13" viewBox="0 0 16 13" fill="none" xmlns="http://www.w3.org/2000/svg">
<path fill-rule="evenodd" clip-rule="evenodd" d="M5.43127 0.743623C4.50179 0.950137 3.79404 1.17766 2.91856 1.55137C2.77381 1.61316 2.75087 1.63832 2.54901 1.95736C1.58116 3.48701 0.955142 5.06055 0.671812 6.67578C0.524478 7.51566 0.496617 7.88011 0.500308 8.91857C0.502212 9.45031 0.514898 9.95747 0.52855 10.0456L0.553336 10.2058L0.934195 10.4647C1.88617 11.1119 2.87687 11.6112 3.9131 11.9662C4.1263 12.0392 4.31696 12.0927 4.33679 12.0851C4.40848 12.0576 5.1383 10.892 5.1383 10.805C5.1383 10.7944 5.06251 10.7558 4.96984 10.7193C4.74039 10.6288 3.99059 10.2564 3.94099 10.2082C3.89031 10.159 3.90317 10.1394 4.05962 10.0271L4.18691 9.93564L4.4795 10.0605C6.025 10.7202 7.79362 10.934 9.43029 10.6589C10.1842 10.5322 10.8683 10.3246 11.6731 9.97815C11.776 9.93383 11.7787 9.93453 11.9075 10.0364C11.9791 10.0931 12.0377 10.1548 12.0377 10.1735C12.0377 10.2146 11.4267 10.535 11.1002 10.6652C10.9713 10.7166 10.8538 10.7693 10.8392 10.7823C10.7812 10.8336 11.5409 12.0932 11.6316 12.0962C11.65 12.0968 11.8214 12.0434 12.0125 11.9776C13.0915 11.6061 14.0677 11.116 15.026 10.4648L15.4069 10.206L15.4263 10.0457C15.437 9.95753 15.4551 9.58215 15.4666 9.21154C15.5467 6.62788 14.8784 4.27094 13.4094 1.9561L13.1927 1.61474L12.791 1.44777C12.0499 1.13978 11.084 0.847246 10.37 0.71459L10.1085 0.666016L10.0561 0.734688C10.0273 0.772422 9.93429 0.953125 9.84938 1.1362L9.69502 1.46907L9.54801 1.45106C9.46715 1.44115 9.27575 1.41725 9.12268 1.39797C8.75957 1.35224 7.23385 1.352 6.85217 1.39762C6.69103 1.4169 6.49328 1.44022 6.41271 1.44944L6.26623 1.46626L6.0758 1.0762C5.85379 0.621426 5.89217 0.641231 5.43127 0.743623ZM6.03015 5.57503C6.41134 5.76341 6.69033 6.1293 6.79668 6.58027C6.85492 6.82718 6.83679 7.2335 6.75695 7.47122C6.41831 8.47938 5.31344 8.7851 4.59648 8.06896C4.12738 7.60042 4.01312 6.84013 4.3184 6.21842C4.48466 5.87984 4.75826 5.63436 5.10478 5.51284C5.26761 5.45574 5.34165 5.44657 5.55757 5.45679C5.78131 5.4674 5.84424 5.48316 6.03015 5.57503ZM11.016 5.57767C11.5172 5.82541 11.8188 6.33781 11.8175 6.93986C11.8167 7.37908 11.6792 7.7438 11.4025 8.04022C10.64 8.85737 9.40888 8.43019 9.16354 7.2633C9.03473 6.65052 9.30238 5.96905 9.79639 5.65203C10.0372 5.49751 10.2396 5.44446 10.538 5.45764C10.7642 5.46763 10.8234 5.48251 11.016 5.57767Z" fill="#243A57"/>
</svg>
