<svg width="32" height="32" viewBox="0 0 32 32" fill="none" xmlns="http://www.w3.org/2000/svg">
<g id="Discussion_icon- Unselected">
<g id="Vector">
<path d="M28 7.56765C27.999 7.2731 27.9394 6.98167 27.8247 6.71027C27.71 6.43887 27.5424 6.19291 27.3317 5.98664C26.903 5.56748 26.3266 5.33291 25.7263 5.33334H8.95486C8.3553 5.3334 7.77963 5.56793 7.35135 5.98664C7.14039 6.19272 6.97265 6.43865 6.85791 6.71009C6.74318 6.98153 6.68374 7.27305 6.68307 7.56765V7.9663H6.27306C5.67276 7.96603 5.09633 8.20083 4.66769 8.62022C4.45709 8.82654 4.28963 9.07253 4.17502 9.34392C4.06041 9.61532 4.00093 9.90672 4.00003 10.2012V26.0855C3.99849 26.312 4.06305 26.5341 4.18583 26.7246C4.31088 26.9146 4.48803 27.0648 4.69618 27.1572C4.85373 27.2288 5.02475 27.2661 5.19786 27.2666C5.48441 27.2689 5.76238 27.1692 5.98196 26.9854L9.92291 23.6281H23.0439C23.644 23.6282 24.2202 23.3934 24.6487 22.9742C24.8593 22.7679 25.0267 22.5219 25.1413 22.2505C25.256 21.9791 25.3154 21.6877 25.3163 21.3932V20.9927H25.7263C26.326 20.9929 26.9019 20.7586 27.3305 20.34C27.5412 20.134 27.7089 19.8884 27.8238 19.6173C27.9387 19.3463 27.9986 19.0552 28 18.7608V7.56765ZM23.4533 21.3913C23.4532 21.4435 23.4427 21.4951 23.4224 21.5432C23.4021 21.5913 23.3724 21.6348 23.335 21.6713C23.2571 21.7473 23.1523 21.7897 23.0433 21.7893H9.82629C9.47745 21.7885 9.13957 21.9109 8.87249 22.1348L5.86366 24.6652V10.2025C5.86349 10.1502 5.87387 10.0984 5.89419 10.0502C5.91452 10.0019 5.94437 9.95831 5.98196 9.92186C6.05944 9.84583 6.16376 9.80321 6.27244 9.8032H23.0433C23.1523 9.80335 23.257 9.84592 23.335 9.92186C23.3724 9.95823 23.4021 10.0017 23.4224 10.0496C23.4427 10.0976 23.4532 10.1492 23.4533 10.2012V21.3913ZM26.1364 18.7565C26.1362 18.8085 26.1257 18.86 26.1052 18.9079C26.0848 18.9558 26.055 18.9991 26.0174 19.0352C25.9396 19.1112 25.8352 19.1537 25.7263 19.1539H25.722L25.3163 19.1607V10.1988C25.3158 9.9042 25.2565 9.61269 25.1418 9.34125C25.0272 9.06981 24.8596 8.82386 24.6487 8.61775C24.2198 8.19941 23.6437 7.96554 23.0439 7.9663H8.54671V7.56827C8.54679 7.5161 8.55729 7.46446 8.5776 7.41639C8.59791 7.36832 8.62763 7.32477 8.665 7.28829C8.74251 7.21274 8.84651 7.17038 8.95486 7.17024H25.7263C25.8352 7.16979 25.9398 7.21221 26.0174 7.28829C26.055 7.32465 26.0849 7.36817 26.1053 7.41626C26.1258 7.46435 26.1363 7.51604 26.1364 7.56827V18.7565Z" fill="#243A57"/>
<path d="M18.3474 18.2304C19.1605 18.2304 19.8196 17.5826 19.8196 16.7835C19.8196 15.9844 19.1605 15.3366 18.3474 15.3366C17.5343 15.3366 16.8752 15.9844 16.8752 16.7835C16.8752 17.5826 17.5343 18.2304 18.3474 18.2304Z" fill="#243A57"/>
<path d="M14.3229 18.2304C15.136 18.2304 15.7951 17.5826 15.7951 16.7835C15.7951 15.9844 15.136 15.3366 14.3229 15.3366C13.5099 15.3366 12.8507 15.9844 12.8507 16.7835C12.8507 17.5826 13.5099 18.2304 14.3229 18.2304Z" fill="#243A57"/>
<path d="M10.2982 18.2304C11.1112 18.2304 11.7704 17.5826 11.7704 16.7835C11.7704 15.9844 11.1112 15.3366 10.2982 15.3366C9.4851 15.3366 8.82597 15.9844 8.82597 16.7835C8.82597 17.5826 9.4851 18.2304 10.2982 18.2304Z" fill="#243A57"/>
</g>
</g>
</svg>
