<svg width="40" height="41" viewBox="0 0 40 41" fill="none" xmlns="http://www.w3.org/2000/svg">
<rect y="0.693359" width="40" height="40" rx="9" fill="#222222"/>
<g clip-path="url(#clip0_11609_36911)">
<g clip-path="url(#clip1_11609_36911)">
<path d="M18.076 19.6934C18.676 19.6934 19.162 20.1434 19.151 20.6934C19.151 21.2434 18.677 21.6934 18.076 21.6934C17.486 21.6934 17 21.2434 17 20.6934C17 20.1434 17.475 19.6934 18.076 19.6934ZM21.924 19.6934C22.525 19.6934 23 20.1434 23 20.6934C23 21.2434 22.525 21.6934 21.924 21.6934C21.334 21.6934 20.849 21.2434 20.849 20.6934C20.849 20.1434 21.323 19.6934 21.924 19.6934ZM26.891 10.6934C28.054 10.6934 29 11.6594 29 12.8564V31.6934L26.789 29.6984L25.544 28.5224L24.227 27.2724L24.773 29.2154H13.109C11.946 29.2154 11 28.2494 11 27.0524V12.8564C11 11.6594 11.946 10.6934 13.109 10.6934H26.89H26.891ZM22.921 24.4064C25.194 24.3334 26.069 22.8104 26.069 22.8104C26.069 19.4294 24.587 16.6884 24.587 16.6884C23.107 15.5554 21.697 15.5864 21.697 15.5864L21.553 15.7544C23.302 16.3004 24.114 17.0884 24.114 17.0884C23.1591 16.5503 22.1066 16.2077 21.018 16.0804C20.3274 16.0024 19.6299 16.0091 18.941 16.1004C18.879 16.1004 18.827 16.1114 18.766 16.1214C18.406 16.1534 17.531 16.2894 16.431 16.7834C16.051 16.9614 15.824 17.0884 15.824 17.0884C15.824 17.0884 16.678 16.2584 18.529 15.7124L18.426 15.5864C18.426 15.5864 17.017 15.5554 15.536 16.6894C15.536 16.6894 14.055 19.4294 14.055 22.8104C14.055 22.8104 14.919 24.3324 17.192 24.4064C17.192 24.4064 17.572 23.9344 17.882 23.5354C16.575 23.1354 16.082 22.2954 16.082 22.2954C16.082 22.2954 16.184 22.3694 16.369 22.4744C16.379 22.4844 16.389 22.4954 16.41 22.5054C16.441 22.5274 16.472 22.5374 16.503 22.5584C16.76 22.7054 17.017 22.8204 17.253 22.9154C17.675 23.0834 18.179 23.2514 18.766 23.3674C19.6453 23.5397 20.5494 23.5431 21.43 23.3774C21.9429 23.2858 22.4433 23.1344 22.921 22.9264C23.281 22.7894 23.682 22.5894 24.104 22.3064C24.104 22.3064 23.59 23.1674 22.242 23.5564C22.551 23.9554 22.922 24.4064 22.922 24.4064H22.921Z" fill="#595959"/>
</g>
</g>
<defs>
<clipPath id="clip0_11609_36911">
<rect width="24" height="24" fill="white" transform="translate(8 8.69336)"/>
</clipPath>
<clipPath id="clip1_11609_36911">
<rect width="24" height="24" fill="white" transform="translate(8 8.69336)"/>
</clipPath>
</defs>
</svg>
