<svg width="24" height="24" viewBox="0 0 24 24" fill="none" xmlns="http://www.w3.org/2000/svg">
<path d="M18.5682 11.6305C18.8459 12.0076 18.9996 12.4697 18.9996 12.9505C18.9996 13.7133 18.5847 14.4353 17.917 14.8379C17.7451 14.9415 17.5494 14.9961 17.3501 14.9959H13.3867L13.4859 17.0837C13.509 17.5883 13.3355 18.0673 12.9983 18.4326C12.8329 18.6126 12.6332 18.7558 12.4118 18.8534C12.1903 18.951 11.9518 19.0009 11.7108 19C10.8514 19 10.0911 18.4054 9.86301 17.5543L8.44327 12.271H6.30623C6.01369 12.271 5.77734 12.028 5.77734 11.7273V5.54362C5.77734 5.24293 6.01369 5 6.30623 5H16.2444C16.3964 5 16.5452 5.03058 16.6824 5.09174C17.4691 5.4366 17.9765 6.22655 17.9765 7.10314C17.9765 7.31719 17.9467 7.52785 17.8872 7.73171C18.1649 8.10884 18.3186 8.57092 18.3186 9.05169C18.3186 9.26574 18.2889 9.4764 18.2294 9.68025C18.507 10.0574 18.6607 10.5195 18.6607 11.0002C18.6574 11.2143 18.6277 11.4266 18.5682 11.6305ZM6.96734 6.22315V11.0478H8.30609V6.22315H6.96734ZM17.4856 12.22L17.1237 11.8972L17.3534 11.4657C17.4291 11.3236 17.4683 11.164 17.4674 11.0019C17.4674 10.7216 17.3484 10.4549 17.1435 10.2714L16.7815 9.94867L17.0113 9.51717C17.087 9.37503 17.1262 9.21542 17.1253 9.05339C17.1253 8.77308 17.0063 8.50637 16.8014 8.3229L16.4394 8.00012L16.6691 7.56862C16.7448 7.42648 16.7841 7.26688 16.7832 7.10484C16.7832 6.72431 16.565 6.38114 16.2279 6.22485H9.36387V11.1022L11.0084 17.2264C11.0508 17.3834 11.1418 17.5219 11.2677 17.6209C11.3935 17.7199 11.5474 17.7741 11.7059 17.7751C11.8315 17.7751 11.9554 17.7378 12.0546 17.6613C12.2182 17.5356 12.3058 17.3453 12.2959 17.1432L12.1372 13.7727H17.3336C17.6278 13.5875 17.8096 13.275 17.8096 12.9505C17.8096 12.6702 17.6906 12.4052 17.4856 12.22Z" fill="#E5007A"/>
</svg>
