<svg width="19" height="17" viewBox="0 0 19 17" fill="none" xmlns="http://www.w3.org/2000/svg">
<path fill-rule="evenodd" clip-rule="evenodd" d="M9.09897 16.963C9.17406 16.9357 9.29715 16.8546 9.3725 16.7829C9.59649 16.5696 9.6128 16.4671 9.6128 15.2714L9.6128 14.2297L9.70868 14.1034C10.0261 13.6853 11.3776 12.1853 12.6073 10.8864L13.1638 10.2986L13.1634 5.79516L13.163 1.29177L12.3284 0.991746C11.4309 0.669095 11.0817 0.559144 10.6675 0.468871C9.91829 0.305539 9.90894 0.305129 6.52033 0.290112C4.24032 0.279998 3.23789 0.287026 3.07483 0.314316C2.2349 0.454918 1.59583 1.19543 1.59717 2.02656C1.59766 2.34499 1.6594 2.58111 1.81388 2.85566L1.93194 3.06545L1.7204 3.27651C1.48895 3.50742 1.34543 3.76071 1.25842 4.092C1.15217 4.49635 1.24365 5.05595 1.47067 5.39046L1.55631 5.51667L1.33728 5.73557C0.779597 6.29301 0.66776 7.0904 1.05116 7.77575L1.16859 7.98564L0.985377 8.16207C0.262948 8.8578 0.253983 9.9003 0.964318 10.604C1.10601 10.7443 1.27856 10.8728 1.41709 10.941C1.82552 11.142 1.89671 11.1474 4.18966 11.148C5.33536 11.1483 6.27278 11.1574 6.27278 11.1682C6.27278 11.179 6.14396 11.6214 5.98652 12.1514L5.70023 13.1149L5.72097 13.7517C5.74555 14.507 5.81045 14.8146 6.0446 15.2851C6.53362 16.268 7.5364 16.9242 8.65573 16.9937C8.87814 17.0075 8.99989 16.9991 9.09897 16.963ZM18.4375 6.05733L18.4375 0.623222L16.328 0.623222L14.2185 0.623222L14.2185 6.05733L14.2185 11.4914L16.328 11.4914L18.4375 11.4914L18.4375 6.05733Z" fill="#576D8B"/>
</svg>
