<svg width="20" height="21" viewBox="0 0 20 21" fill="none" xmlns="http://www.w3.org/2000/svg">
<path fill-rule="evenodd" clip-rule="evenodd" d="M12.2051 2.20513C12.2051 2.09184 12.1133 2 12 2H6.25641C5.01023 2 4 3.01023 4 4.25641V15.7436C4 16.9898 5.01023 18 6.25641 18H14.4615C15.7077 18 16.7179 16.9898 16.7179 15.7436V7.65913C16.7179 7.54584 16.6261 7.454 16.5128 7.454H12.8205C12.4806 7.454 12.2051 7.17848 12.2051 6.83861V2.20513ZM12.8205 10.2051C13.1604 10.2051 13.4359 10.4806 13.4359 10.8205C13.4359 11.1604 13.1604 11.4359 12.8205 11.4359H7.89744C7.55757 11.4359 7.28205 11.1604 7.28205 10.8205C7.28205 10.4806 7.55757 10.2051 7.89744 10.2051H12.8205ZM12.8205 13.4872C13.1604 13.4872 13.4359 13.7627 13.4359 14.1026C13.4359 14.4424 13.1604 14.7179 12.8205 14.7179H7.89744C7.55757 14.7179 7.28205 14.4424 7.28205 14.1026C7.28205 13.7627 7.55757 13.4872 7.89744 13.4872H12.8205Z" fill="white"/>
<path d="M13.4359 2.47109C13.4359 2.3197 13.594 2.22359 13.7117 2.31868C13.811 2.39877 13.9001 2.4926 13.9762 2.5986L16.4486 6.04303C16.5048 6.12145 16.4439 6.22323 16.3474 6.22323H13.641C13.5277 6.22323 13.4359 6.13139 13.4359 6.0181V2.47109Z" fill="white"/>
</svg>
