<svg width="27" height="26" viewBox="0 0 27 26" fill="none" xmlns="http://www.w3.org/2000/svg">
<path d="M13.4553 0.191406C6.35273 0.191406 0.59375 5.92283 0.59375 12.9914C0.59375 20.06 6.35273 25.7914 13.4553 25.7914C20.5578 25.7914 26.3168 20.06 26.3168 12.9914C26.3168 5.92283 20.5578 0.191406 13.4553 0.191406ZM13.4553 23.62C7.5585 23.62 2.77562 18.86 2.77562 12.9914C2.77562 7.12283 7.5585 2.36283 13.4553 2.36283C19.3521 2.36283 24.135 7.12283 24.135 12.9914C24.135 18.86 19.3521 23.62 13.4553 23.62ZM14.8247 12.3285L14.0955 12.16V8.32283C15.1864 8.47141 15.8611 9.15141 15.9759 9.98569C15.9903 10.1 16.0879 10.1828 16.2027 10.1828H17.4917C17.6267 10.1828 17.7329 10.0657 17.7214 9.93141C17.5463 8.15141 16.0735 7.00855 14.107 6.81141V5.87712C14.107 5.75141 14.0036 5.64855 13.8773 5.64855H13.0706C12.9443 5.64855 12.8409 5.75141 12.8409 5.87712V6.81998C10.8083 7.01712 9.21787 8.13426 9.21787 10.22C9.21787 12.1514 10.6476 13.0828 12.149 13.44L12.8581 13.62V17.6971C11.5892 17.5285 10.8772 16.8543 10.7308 15.9457C10.7136 15.8371 10.616 15.7571 10.504 15.7571H9.17768C9.04275 15.7571 8.93653 15.8714 8.94801 16.0057C9.0772 17.5771 10.2744 19.0228 12.8294 19.2085V20.1057C12.8294 20.2314 12.9328 20.3343 13.0591 20.3343H13.8744C14.0008 20.3343 14.1041 20.2314 14.1041 20.1028L14.0984 19.1971C16.3463 19 17.954 17.8028 17.954 15.6543C17.9511 13.6714 16.685 12.7857 14.8247 12.3285V12.3285ZM12.8553 11.8657C12.6945 11.82 12.5596 11.7771 12.4246 11.7228C11.4543 11.3743 11.0036 10.8114 11.0036 10.0857C11.0036 9.04855 11.7931 8.45712 12.8553 8.32283V11.8657ZM14.0955 17.7057V13.8857C14.1845 13.9114 14.2649 13.9314 14.3481 13.9485C15.7061 14.36 16.1625 14.9314 16.1625 15.8085C16.1625 16.9257 15.3185 17.5971 14.0955 17.7057Z" fill="#334D6E"/>
</svg>
