<svg width="16" height="16" viewBox="0 0 16 16" fill="none" xmlns="http://www.w3.org/2000/svg">
<path d="M2.65906 10.4094L3.08332 10.8336L2.65906 10.4094C2.49227 10.5762 2.4 10.7949 2.4 11.0336V12.7223C2.4 13.2092 2.79083 13.6 3.27774 13.6H4.96639C5.1812 13.6 5.41665 13.5197 5.59283 13.3332L11.6507 7.28087L12.0754 6.8566L12.0752 6.85641L12.2453 6.68631L13.2618 5.66979C13.7127 5.21883 13.7127 4.48898 13.2618 4.03803L11.962 2.73821C11.511 2.28726 10.7812 2.28726 10.3302 2.73821L9.31369 3.75474L9.14359 3.92484L8.88942 4.179L8.71933 4.3491L2.65906 10.4094Z" stroke="#485F7D" stroke-width="1.2"/>
</svg>
