<svg width="14" height="15" viewBox="0 0 14 15" fill="none" xmlns="http://www.w3.org/2000/svg">
<path d="M11.8125 8.97292L10.7771 7.9375L11.2 7.51458C11.2778 7.43681 11.3799 7.39792 11.5063 7.39792C11.6326 7.39792 11.7347 7.43681 11.8125 7.51458L12.2354 7.9375C12.3132 8.01528 12.3521 8.11736 12.3521 8.24375C12.3521 8.37014 12.3132 8.47222 12.2354 8.55L11.8125 8.97292ZM7 12.75V11.7146L10.15 8.56458L11.1854 9.6L8.03542 12.75H7ZM1.75 9.6875V8.8125H6.125V9.6875H1.75ZM1.75 7.28125V6.40625H8.60417V7.28125H1.75ZM1.75 4.875V4H8.60417V4.875H1.75Z" fill="#90A0B7"/>
</svg>
