<svg width="16" height="17" viewBox="0 0 16 17" fill="none" xmlns="http://www.w3.org/2000/svg">
<path d="M8 0.5C3.58157 0.5 0 4.08157 0 8.5C0 12.9184 3.58157 16.5 8 16.5C12.4184 16.5 16 12.9184 16 8.5C16 4.08157 12.4184 0.5 8 0.5ZM7.15149 3.43109C8.19954 3.43786 9.13298 3.77606 9.92963 4.45622C10.8961 5.28294 11.3922 6.34339 11.4564 7.60827C11.4763 7.88109 11.417 8.11933 11.1799 8.28242C11.0912 8.34579 10.9878 8.38542 10.8795 8.39755C10.7712 8.40968 10.6616 8.3939 10.5611 8.35172C10.4607 8.30954 10.3726 8.24236 10.3055 8.15656C10.2383 8.07077 10.1941 7.96921 10.1773 7.86155C10.1371 7.61654 10.1397 7.36289 10.0905 7.12051C9.95135 6.45385 9.58982 5.85426 9.06517 5.42008C8.54051 4.98589 7.88388 4.74288 7.20297 4.73092C6.82719 4.72265 6.55437 4.5171 6.50289 4.20107C6.4345 3.78132 6.7231 3.42808 7.15149 3.43109ZM3.13025 10.3323C2.79205 10.2801 2.58951 9.99185 2.59702 9.57285C2.6346 7.47036 4.2948 5.64632 6.38489 5.41146C6.57321 5.38949 6.76275 5.3797 6.95232 5.38215C7.28226 5.38816 7.53779 5.64519 7.56823 5.9834C7.57876 6.13927 7.53181 6.29361 7.43626 6.41721C7.3407 6.54081 7.20316 6.62511 7.04965 6.65416C6.79374 6.69663 6.52957 6.69437 6.27667 6.74736C5.61324 6.88837 5.01707 7.24979 4.58522 7.7728C4.15338 8.29581 3.91128 8.94959 3.89835 9.62772C3.88821 10.102 3.56503 10.3992 3.13025 10.3323ZM8.84438 14.2359C7.79031 14.2261 6.85274 13.8842 6.05533 13.1961C5.10198 12.3747 4.61158 11.3225 4.54695 10.0689C4.52591 9.79757 4.57927 9.5567 4.81375 9.39022C4.90244 9.32394 5.00683 9.28185 5.11668 9.26807C5.22654 9.25429 5.33809 9.2693 5.4404 9.31163C5.54271 9.35395 5.63226 9.42214 5.70027 9.5095C5.76828 9.59687 5.81242 9.70041 5.82836 9.80997C5.86857 10.0606 5.86594 10.3192 5.91855 10.5668C6.20114 11.9196 7.40664 12.9072 8.79064 12.9342C9.23031 12.9432 9.51816 13.2082 9.51252 13.5993C9.50425 13.9601 9.22166 14.2393 8.84438 14.2359ZM12.3767 10.7645C11.55 11.7306 10.4884 12.2262 9.22317 12.2882C8.97553 12.3093 8.75344 12.2582 8.58922 12.0628C8.43177 11.8749 8.38856 11.6543 8.47649 11.424C8.56442 11.1936 8.73954 11.0414 8.99356 11.0076C9.24008 10.9749 9.49223 10.9719 9.7346 10.9212C11.0874 10.6382 12.0772 9.43306 12.105 8.05057C12.1125 7.66689 12.3083 7.39746 12.6221 7.33959C13.0449 7.26105 13.4082 7.55491 13.4052 7.99007C13.3958 9.03549 13.0565 9.96968 12.3756 10.7645H12.3767Z"/>
</svg>
