<svg width="16" height="13" viewBox="0 0 16 13" fill="none" xmlns="http://www.w3.org/2000/svg">
<path d="M13.7353 0.25H2.26471C1.29412 0.25 0.508824 1.00335 0.508824 1.92411L0.5 11.0759C0.5 11.9967 1.29412 12.75 2.26471 12.75H13.7353C14.7059 12.75 15.5 11.9967 15.5 11.0759V1.92411C15.5 1.00335 14.7059 0.25 13.7353 0.25ZM13.3824 3.80748L8.46765 7.50725C8.18529 7.67466 7.81471 7.67466 7.53235 7.50725L2.61765 3.80748C2.39706 3.67355 2.26471 3.44754 2.26471 3.2048C2.26471 2.64397 2.90882 2.30915 3.41176 2.60212L8 6.10937L12.5882 2.60212C13.0912 2.30915 13.7353 2.64397 13.7353 3.2048C13.7353 3.44754 13.6029 3.67355 13.3824 3.80748Z"/>
</svg>
