<svg viewBox="0 0 18 14" fill="none" xmlns="http://www.w3.org/2000/svg">
<path d="M15.668 0.333496H2.33464C1.41797 0.333496 0.676302 1.0835 0.676302 2.00016L0.667969 12.0002C0.667969 12.9168 1.41797 13.6668 2.33464 13.6668H15.668C16.5846 13.6668 17.3346 12.9168 17.3346 12.0002V2.00016C17.3346 1.0835 16.5846 0.333496 15.668 0.333496ZM15.3346 3.87516L9.44297 7.5585C9.1763 7.72516 8.8263 7.72516 8.55964 7.5585L2.66797 3.87516C2.45964 3.74183 2.33464 3.51683 2.33464 3.27516C2.33464 2.71683 2.94297 2.3835 3.41797 2.67516L9.0013 6.16683L14.5846 2.67516C15.0596 2.3835 15.668 2.71683 15.668 3.27516C15.668 3.51683 15.543 3.74183 15.3346 3.87516Z" />
</svg>
