<svg width="14" height="14" viewBox="0 0 14 14" fill="none" xmlns="http://www.w3.org/2000/svg">
<path d="M8.63856 7.09919C9.07028 7.09919 9.49231 6.97895 9.85124 6.75366C10.2102 6.52838 10.4899 6.20818 10.655 5.83357C10.8202 5.45896 10.8633 5.04677 10.7789 4.64914C10.6946 4.25152 10.4866 3.88632 10.1812 3.59974C9.87578 3.31316 9.48674 3.11809 9.06328 3.03919C8.63981 2.96028 8.20094 3.00111 7.80218 3.15648C7.40342 3.31186 7.06269 3.57482 6.82308 3.91208C6.58348 4.24935 6.45577 4.64578 6.45612 5.05122C6.45646 5.59456 6.68656 6.11553 7.09582 6.49957C7.50509 6.88362 8.06001 7.0993 8.63856 7.09919ZM3.72806 5.65369V4.62889C3.72806 4.49299 3.67057 4.36266 3.56825 4.26657C3.46593 4.17047 3.32715 4.11649 3.18245 4.11649C3.03774 4.11649 2.89896 4.17047 2.79664 4.26657C2.69432 4.36266 2.63683 4.49299 2.63683 4.62889V5.65369H1.54561C1.47396 5.65369 1.40301 5.66694 1.33682 5.69269C1.27062 5.71844 1.21047 5.75618 1.15981 5.80376C1.10914 5.85134 1.06895 5.90783 1.04153 5.97C1.01411 6.03216 1 6.09879 1 6.16608C1 6.23337 1.01411 6.3 1.04153 6.36217C1.06895 6.42434 1.10914 6.48082 1.15981 6.5284C1.21047 6.57599 1.27062 6.61373 1.33682 6.63948C1.40301 6.66523 1.47396 6.67848 1.54561 6.67848H2.63683V7.70328C2.63683 7.77057 2.65095 7.8372 2.67837 7.89937C2.70579 7.96154 2.74598 8.01802 2.79664 8.0656C2.84731 8.11318 2.90745 8.15093 2.97365 8.17668C3.03985 8.20243 3.1108 8.21568 3.18245 8.21568C3.2541 8.21568 3.32505 8.20243 3.39124 8.17668C3.45744 8.15093 3.51759 8.11318 3.56825 8.0656C3.61892 8.01802 3.65911 7.96154 3.68653 7.89937C3.71395 7.8372 3.72806 7.77057 3.72806 7.70328V6.67848H4.81928C4.96399 6.67848 5.10277 6.6245 5.20509 6.5284C5.30741 6.43231 5.36489 6.30198 5.36489 6.16608C5.36489 6.03019 5.30741 5.89986 5.20509 5.80376C5.10277 5.70767 4.96399 5.65369 4.81928 5.65369H3.72806Z" fill="#576D8B" fill-opacity="0.8"/>
<path d="M4.27367 11C4.27367 9.22628 6.22802 7.78848 8.63684 7.78848C11.0474 7.78848 13 9.22628 13 11" fill="#576D8B" fill-opacity="0.8"/>
</svg>
