<svg xmlns="http://www.w3.org/2000/svg" width="20" height="20" viewBox="0 0 20 20" fill="none">
<g clip-path="url(#clip0_10558_35905)">
<path d="M10.0004 20C4.46741 20.0007 -0.0077215 15.5248 1.0003e-05 9.99862C0.00774151 4.46821 4.48217 -0.0112267 10.0081 2.1136e-05C15.534 0.0112689 19.9459 4.44009 19.9993 9.89457C20.0555 15.6204 15.3977 20.038 10.0004 20ZM9.99755 1.05661C5.06063 1.05521 1.05782 5.06223 1.05852 10.012C1.05852 14.9027 4.98683 18.8745 9.85346 18.9491C14.9225 19.0271 18.9387 14.9322 18.9429 10.0246C18.9464 5.07278 14.9492 1.05802 9.99755 1.05661Z" fill="#FF49AA"/>
<path d="M9.99755 1.05661C14.9492 1.05802 18.9464 5.07278 18.9429 10.0246C18.9387 14.9322 14.9225 19.0271 9.85346 18.9491C4.98683 18.8745 1.05852 14.9027 1.05852 10.012C1.05782 5.06223 5.06063 1.05521 9.99755 1.05661ZM9.92669 15.3311C11.1138 15.3311 12.301 15.3339 13.4874 15.3275C13.635 15.3268 13.7882 15.2973 13.9281 15.2488C14.3315 15.1082 14.4363 14.7202 14.1748 14.3771C13.6955 13.7486 13.1008 13.2544 12.4001 12.8938C10.1467 11.7353 7.37951 12.3602 5.82759 14.3687C5.68702 14.55 5.62727 14.7504 5.73481 14.9557C5.84867 15.1736 6.01244 15.3339 6.29499 15.3325C7.50533 15.3261 8.71636 15.3304 9.92669 15.3311ZM11.9053 8.22877C11.906 8.81858 12.3713 9.29028 12.956 9.2931C13.545 9.29591 14.023 8.81436 14.0195 8.22104C14.016 7.64248 13.5493 7.17288 12.9743 7.16867C12.3741 7.16375 11.9046 7.62912 11.9053 8.22877ZM6.224 8.21612C6.21487 8.80592 6.67384 9.28325 7.25932 9.2938C7.83919 9.30364 8.32416 8.83475 8.33752 8.25197C8.35087 7.66076 7.87925 7.17499 7.28674 7.16937C6.69563 7.16304 6.23314 7.61788 6.224 8.21612Z" fill="white"/>
<path d="M10.0722 12.3181C11.2825 12.3181 12.4929 12.3216 13.7032 12.3152C13.9857 12.3138 14.1495 12.4741 14.2634 12.692C14.3709 12.898 14.3112 13.0977 14.1706 13.279C12.6187 15.2875 9.85149 15.9124 7.5981 14.7539C6.89735 14.394 6.30273 13.8998 5.82337 13.2706C5.56191 12.9275 5.66663 12.5402 6.07008 12.3989C6.20925 12.3504 6.36317 12.3209 6.51077 12.3202C7.69791 12.3138 8.88505 12.3166 10.0715 12.3166L10.0722 12.3181Z" fill="#FF49AA"/>
<path d="M11.9053 8.22877C11.9046 7.62912 12.3741 7.16375 12.9743 7.16867C13.5493 7.17288 14.016 7.64248 14.0195 8.22104C14.023 8.81436 13.545 9.29591 12.956 9.2931C12.3713 9.29028 11.906 8.81858 11.9053 8.22877Z" fill="#FF49AA"/>
<path d="M6.224 8.21612C6.23314 7.61788 6.69492 7.16164 7.28674 7.16796C7.87925 7.17429 8.35087 7.66006 8.33752 8.25056C8.32416 8.83404 7.83919 9.30294 7.25932 9.29239C6.67384 9.28185 6.21487 8.80452 6.224 8.21471V8.21612Z" fill="#FF49AA"/>
</g>
<defs>
<clipPath id="clip0_10558_35905">
<rect width="20" height="20" fill="white"/>
</clipPath>
</defs>
</svg>