<?xml version="1.0" encoding="UTF-8"?><svg id="Layer_2" xmlns="http://www.w3.org/2000/svg" viewBox="0 0 300.19 300.67"><defs><style>.cls-1{fill:#f3f3f3;}.cls-2{fill:#f6f6f6;}.cls-3{fill:#f6f6f7;}.cls-4{fill:#f2f2f2;}.cls-5{fill:#f9f9f9;}.cls-6{fill:#f8f8f8;}.cls-7{fill:#040404;}.cls-8{fill:#010101;}.cls-9{fill:#050505;}.cls-10{fill:#020202;}.cls-11{fill:#eede75;}.cls-12{fill:#ebebf0;}.cls-13{fill:#f0e07a;}.cls-14{fill:#f0e07c;}.cls-15{fill:#f0de6e;}.cls-16{fill:#f0df72;}.cls-17{fill:#eaebee;}.cls-18{fill:#e9e9ee;}.cls-19{fill:#f5f5f6;}.cls-20{fill:#f5f5f7;}.cls-21{fill:#fcfcfc;}.cls-22{fill:#e3e3e3;}.cls-23{fill:#ede9d6;}.cls-24{fill:#ededed;}.cls-25{fill:#e8e8e8;}.cls-26{fill:#ececec;}.cls-27{fill:#ececee;}.cls-28{fill:#ececf1;}.cls-29{fill:#fafafa;}.cls-30{fill:#fbfbfb;}.cls-31{fill:#e5e5ea;}.cls-32{fill:#ebdc7f;}.cls-33{fill:#efeff1;}.cls-34{fill:#efefeb;}.cls-35{fill:#efdd6d;}.cls-36{fill:#efde6e;}.cls-37{fill:#efe183;}.cls-38{fill:#9d9d9a;}.cls-39{fill:#c2c4cd;}.cls-40{fill:#c2c4cc;}.cls-41{fill:#cdcfd7;}.cls-42{fill:#a6a6a6;}.cls-43{fill:#b1b3bb;}.cls-44{fill:#cfd1d9;}.cls-45{fill:#c7c9d1;}.cls-46{fill:#c7c9d2;}.cls-47{fill:#cbccd5;}.cls-48{fill:#c3c5ce;}.cls-49{fill:#c4c6cf;}.cls-50{fill:#e0e0e4;}.cls-51{fill:#c6c6c6;}.cls-52{fill:#e0e1e1;}.cls-53{fill:#c8cad3;}.cls-54{fill:#c8cad2;}.cls-55{fill:#dfdfdf;}.cls-56{fill:#14130e;}.cls-57{fill:#12110b;}.cls-58{fill:#121213;}.cls-59{fill:#171717;}.cls-60{fill:#161616;}.cls-61{fill:#1e1c10;}.cls-62{fill:#1e1e1f;}.cls-63{fill:#1e1e1e;}.cls-64{fill:#222223;}.cls-65{fill:#222;}.cls-66{fill:#212121;}.cls-67{fill:#202020;}.cls-68{fill:#0c0b0b;}.cls-69{fill:#0c0c0c;}.cls-70{fill:#0b0a09;}.cls-71{fill:#434345;}.cls-72{fill:#404042;}.cls-73{fill:#414141;}.cls-74{fill:#090907;}.cls-75{fill:#151515;}.cls-76{fill:#141414;}.cls-77{fill:#111112;}.cls-78{fill:#101011;}.cls-79{fill:#101010;}.cls-80{fill:#1d1d1d;}.cls-81{fill:#0f0f0f;}.cls-82{fill:#0e0e0e;}.cls-83{fill:#0e0e0f;}.cls-84{fill:#363637;}.cls-85{fill:#373737;}.cls-86{fill:#444446;}.cls-87{fill:#191919;}.cls-88{fill:#191813;}.cls-89{fill:#181819;}.cls-90{fill:#3e3e40;}.cls-91{fill:#272728;}.cls-92{fill:#343435;}</style></defs><g id="Layer_1-2"><g id="o4pxtr.tif"><path class="cls-28" d="m3.97,209.53c3.97-.08,4.54-3.26,5.84-6.05,4.29-9.19,6.48-18.95,7.54-28.9,1.8-16.94.27-33.65-4.46-50.09-3.15-10.98-7.38-21.62-10.18-32.72-4.16-16.48-.4-31.06,10.11-44.13,2.69-3.35,5.29-6.78,8.82-9.36.84-.61,1.74-1.34,1.82-2.56,1.33.25,1.18,1.47,1.4,2.34.37,1.43.73,2.88.99,4.34.72,3.99,3.12,6.41,6.85,7.71,1.22.43,2.62.64,3.19,2.09.63,5.48.97,10.98,1.68,16.45.12.9.06,1.82-.48,2.62-.66.62-1.5.71-2.33.68-4.24-.17-8.44.65-12.69.53-3.67-.11-5.3,1.62-4.87,5.24,1.09,9.05,1.91,18.14,3.03,27.18.5,4.05,2.53,5.81,6.49,5.63,3.74-.17,7.49-.05,11.23-.03,1.07,0,2.18-.15,3.11.62.83,1.32.92,2.83,1.05,4.32.85,9.77,1.95,19.52,2.85,29.28,1,10.93,2.09,21.84,3.16,32.76.93,9.51,1.75,19.04,2.78,28.54.14,1.31.47,2.66-.62,3.78-.91.54-1.93.43-2.92.43-13.45.01-26.9.02-40.35,0-1.06,0-2.19.19-3.06-.69Z"/><path d="m298.94,164.19c2.41,5.8,1.23,11.05-2.45,15.92-1.1,2-2.71,3.57-4.53,4.86-6.25,4.46-12.95,7.97-20.66,9.21-1.05-.02-2.18.24-2.94-.82-.1-.41.01-.74.33-1.01,3.18-.52,1.28-2.48,1.12-3.96.14-.38.43-.59.8-.72.72-.17,1.57-.11,2.11-.67,4.1-4.35,8.1-8.92,7.51-15.38-.53-5.82-3.52-10.58-8.32-14.77-.16,2.99-.72,5.48-.73,8.04,0,4.24.02,8.47-.01,12.71-.01,1.36-.1,2.71-1.72,3.24-10.67,2.47-21.24,2.08-31.72-1.02-3.55-.88-6.92-2.29-10.21-3.83-3.85-1.8-5.29-4.7-4.6-8.89.75-4.58,1.88-9.07,2.95-13.58.69-2.51,1.45-5.01,1.99-7.56-.41-1.09-1.42-1.03-2.29-1.12-5.83-.63-11.26-2.52-16.42-5.24-9.8-5.85-16.97-14.1-22.01-24.27-2.21-4.11-3.83-8.44-5.15-12.91-.46-1.56-.12-2.58,1.51-3.07.71-.21,1.45-.4,2.12-.72,2.21-1.06,3.86-.41,5.48,1.33,4.93,5.29,10.32,10.06,16.54,13.83,1.21.73,2.43,1.42,3.71,2.01,8.74,4.49,18.12,7.24,27.46,10.1.79.24,1.6.41,2.36.77.23.13.42.31.56.53.23,1.07-.45,1.34-1.29,1.48-.48.07-.94-.16-1.46-.16.46,1.11.96,2.16,1.66,3.11,2.23,3.45,5.09,6.28,8.4,8.67,5.56,4.02,11.79,4.84,18.4,3.73,3.11-.54,6.35-.64,9.04-2.62.26-.27.57-.47.94-.56,1.76-.1,2.9,1.05,4.1,2.05,5.86,4.93,10.86,10.65,15.36,16.82.98,1.34,1.71,2.82,2.05,4.47Z"/><path class="cls-15" d="m268.48,193.14c.78.84,1.86.35,2.76.64.39,10.85,1.95,21.6,2.93,32.4.15,1.67-.94,3.23-.2,4.88.79,8.56,1.57,17.13,2.36,25.69.53,5.77,1.11,11.53,1.59,17.3.16,1.88-.47,3.7-1.62,5.12-2.03,2.48-4.21,4.87-6.92,6.67-.63-1.6.08-2.79,1.16-3.87,1.25-.82,2.47-1.7,3.44-2.86,1.56-1.87,2.26-3.93,2.02-6.44-1.61-16.62-3.24-33.23-4.77-49.86-.3-3.27-.68-6.53-.44-9.37-.09-.78-.59-.34-.29-.48.12-.06.19,0,.19.15,0,18.55-3.24,36.67-7.26,54.68-.21.49-.24,1.04-.4,1.55-.5,1.41-.74,2.89-1.05,4.36-.15.48-.38.92-.71,1.29-.28.25-.61.41-.96.52-.46.14-.92.23-1.4.17-1.79-.42-3.58-1.16-5.42-.17-.52-.51-1.03-1.05-1.57-1.55-.85-1.53-.57-3.16-.39-4.77.62-1.81-.42-2.95-1.56-4.14-6.99-7.31-12.88-15.38-17.61-24.36-3.66-6.93-4.59-14.21-3.8-21.77,1.34-12.86,4.51-25.35,8.32-37.68.22-.72.42-1.44.91-2.03,10.5,2.94,21.08,3.37,31.76,1.07,1.7,1.93,1.21,4.17.89,6.38-.67,1.17-1.52.61-2.32.2-.95-.49-1.9-.99-2.87-1.44-2.05-.94-3.97-.72-6.31.87,4.01,1.5,7.26,3.57,9.53,6.86Z"/><path class="cls-28" d="m86.36,5.85c3.45.16,6.63-1.27,10-1.65,5.24-.6,10.44-1.43,15.7-1.92,8.38-.78,16.76-.28,25.13-.38,7.2-.09,14.33,1.03,21.43,2.08,12.36,1.82,24.49,4.72,36.3,8.87,8.61,3.03,17.06,6.45,25.14,10.71.59.31,1.22.55,1.54,1.2-1.08,1.14-2.49.76-3.77.76-18.04.03-36.08.02-54.12.02-27.02,0-54.03,0-81.05,0-1.33,0-2.66.08-3.98-.11-3.18-2.05-3.34-6.82-.28-8.81,2.08-1.36,4.08-2.84,6.22-4.11,1.68-.99,2.4-2.15,1.65-4.09-.31-.81-.73-1.74.08-2.56Z"/><path class="cls-28" d="m298.94,164.19c-4.56-7.92-10.79-14.41-17.42-20.58-1.17-1.09-2.44-1.92-3.88-2.54-1.06-.15-1.71-.93-2.46-1.57-2.33-1.99-4.86-3.66-7.6-5.03-2.1-.97-4.48-1.72-3.92-4.85.06-.16.11-.37.24-.42,3.66-1.56,3.89-4.22,2.5-7.5-.48-1.14-.5-2.42-.53-3.67-.06-2.55.49-4.71,2.94-6.12,1.09-.63,2.39-1.61,1.23-3.19-.84-1.14-2.59-.91-3.91.39-1.86,1.81-2.07,1.81-4.23-.1-1.17-3.66-1.07-7.49-1.48-11.25-.21-1.96-.69-3.91-.58-5.91.05-.91-.06-1.83.49-2.64.88-.83,2-.67,3.06-.67,3.64-.01,7.28-.1,10.91-.03,2.66.06,4.94-.38,6.2-3.07.18-.38.56-.59.97-.72,1.15.65,1.67,1.83,2.21,2.91,6.33,12.71,11.33,25.87,13.84,39.91,1.11,6.19,1.54,12.41,2.09,18.65.54,6.09-.17,12.01-.68,17.99Z"/><path class="cls-70" d="m2.97,218.09c-1.83-.88-3.12-2.19-2.96-4.36.13-1.84.89-3.31,2.92-3.72.62-.37,1.3-.22,1.95-.22,34.31.22,68.62-.74,102.93-.5,22.53.16,45.05.03,67.58.03,1.41,0,2.83-.03,4.24.05,1.36.25,2.79.24,4,1.05.04,1.5-1.18,1.07-1.98,1.29-.64.01-1.28-.07-1.9-.21-1.05-.33-2.14-.26-3.22-.26-56.54,0-113.08,0-169.63,0-1.16,0-2.34-.15-3.38.57-.95.67-1.66,1.5-1.27,2.72.42,1.31,1.6,1.57,2.81,1.66,1.08.08,2.16.05,3.24.05,24.54,0,49.08,0,73.62,0,2.44,0,4.79.19,7.05,1.26,3.3,1.57,5.4,4.1,6.35,7.58,1.07,3.93,1.12,7.9.13,11.85-1.15,4.61-4.11,7.49-8.69,8.71-2.11.56-4.26.65-6.44.65-24.29,0-48.58,0-72.87,0-1.16,0-2.33-.05-3.48.17-1.14.21-1.8.91-1.83,2.03-.04,1.06.69,1.65,1.64,1.93,1.38.41,2.81.28,4.22.28,42.01,0,84.02,0,126.02,0,13.64,0,27.28,0,40.93,0,2.41,0,4.82-.04,7.21-.35,1.2-.27,2.01,1.01,3.21.79,2.46-.47,4.83-.44,6.85,1.34-.03.83-.65.88-1.25.97-.32,0-.63-.03-.95-.09-.98-.25-1.99-.17-2.98-.17-58.77,0-117.55,0-176.32,0-1.23,0-2.51-.23-3.62.58-1.16,1.8-.89,2.75.99,3.21,1.3.32,2.65.2,3.97.2,44.3,0,88.6,0,132.9,0,1.74,0,3.51-.14,5.18.51,3.2,1.25,5.46,3.43,6.51,6.76.5,1.59.8,3.23.82,4.9.04,4.41.1,8.81-.03,13.22-.05,1.87.02,3.86-1.55,5.33-.95.29-1.04-.47-1.29-1.04-.39-5.9-.11-11.8-.17-17.71-.07-6.58-2.82-9.4-9.47-9.4-43.51-.02-87.01-.01-130.52,0-3.21,0-3.17.03-2.56,3.27.35,1.87.92,3.72.82,5.66-.24.85.14,2.04-1.24,2.26-.69-3.4-1.38-6.8-2.06-10.2-.22-1.11-.55-1.78-2-1.94-2.79-.3-3.82-2.07-3.08-4.96.24-.93.09-1.11-.76-1.28-2.48-.5-3.76-2.09-3.53-4.6.23-2.41,1.78-3.65,4.18-3.73.93-.03,1.64-.2,1.73-1.3.35-2.93,1.41-5.71,1.92-8.62.75-4.23-.12-8.18-1.31-12.16-.58-1.94-1.59-3.42-3.59-4.07Z"/><path class="cls-74" d="m86.36,5.85c2.25,4.63-.23,7.1-4.08,8.96-.37.18-.71.43-1.05.66q-5.08,3.36-3.28,9.36c.41.47.88.9,1.07,1.52,1.27,4.08,1.91,8.13-.68,11.99-.79,1.18-.32,1.64.95,1.65.75,0,1.5,0,2.25,0,45.26,0,90.51,0,135.77,0,1.25,0,2.5-.09,3.74.12.89.15,1.92.27,1.68,1.63-1.34,1.21-3,.8-4.53.8-35.44.02-70.88.02-106.31.02-10.9,0-21.79,0-32.69,0-.83,0-1.66-.02-2.5.02-2.59.14-3.12.69-2.84,3.21.19,1.74.24,3.49.48,5.22.25,1.86-.55,2.83-2.39,3.04-.74.08-1.48.27-2.22.31-2.4.13-3.31-.66-3.59-3.08q-.34-3.01-3.19-1.9c-5.21,2.04-5.18,2.03-4.51,7.49.3,2.48.62,4.95.82,7.44.07.89.33,1.84-.54,2.54-1.98.08-1.89-1.45-2.05-2.72-.51-4.08-.88-8.17-1.48-12.36-3.8,1.1-7.57,1.37-11.38,1.2-2.85-.18-5.86.78-8.47-1.16-1.07-.41-2.15-.81-3.21-1.23-3.71-1.45-6.1-3.95-6.9-7.99-.46-2.31-.76-4.69-1.75-6.88.05-2.7-1.09-3.98-3.98-3.97-2.64.01-5.28-.62-7.93-.77-1.67-.09-2.25-.89-2.61-2.38-1.16-4.89-1.22-4.89,2.9-7.65C21.79,14.31,31.76,7.68,41.68,1c1.17-.79,2.32-1.11,3.73-.97,12.73,1.31,25.47,2.59,38.21,3.82,1.42.14,2.38.56,2.74,1.99Z"/><path class="cls-28" d="m273.98,231.06c-.95-4.12-.87-8.36-1.37-12.54-.79-6.57-1.4-13.17-1.93-19.78-.13-1.63-.82-3.46.57-4.97,6.48-1.45,12.46-4.07,18.05-7.65,2.66-1.7,4.93-3.85,7.19-6.02-.38,3.64-1.56,7.09-2.65,10.53-2.26,7.17-5.06,14.16-8.58,20.82-2.93,5.55-6.1,10.97-9.89,16-.79,1.05-1.6,2.14-1.39,3.59Z"/><path class="cls-56" d="m191.01,253.03c.43-.09.88-.12,1.14-.55,2.05-.68,3.46.67,4.79,1.74,3.12,2.53,5.02,5.81,5.37,9.89.06,6.21.21,12.42.05,18.63.05,1.82.06,3.64-.02,5.46-.04,1.03-.33,1.95-1.14,2.66-2.85,6.65-7.9,9.54-15.12,9.53-58.78-.07-117.57-.04-176.35-.04-.91,0-1.86.11-2.73-.08-1.8-.38-2.99-1.5-3.03-3.43-.04-1.89.96-3.37,2.81-3.54,1.87-.17,2.19-1.25,2.62-2.65,1.98-6.45,2.27-13.06,2.05-19.73.73-.56.36-1.4.54-2.1,1.3.4,1.09,1.54,1.14,2.48.28,5.83.17,11.63-1.2,17.35-.81,3.37-.73,3.44,2.84,3.45,13.96,0,27.93,0,41.89,0,29.01,0,58.01-.05,87.02.05,4.35.01,8.11-.59,10.44-4.74.21-.37.59-.58,1.04-.59.16.36.33.72.49,1.07.78,1.31-.11,2.22-.81,3.11-2.1,2.64-5,3.76-8.25,4.11-1.24.13-2.49.06-3.74.06-43.76,0-87.52,0-131.28,0-1.25,0-2.5-.09-3.73.15-.77.15-1.49.43-1.53,1.36-.03.89.61,1.32,1.35,1.59.96.35,1.97.31,2.96.31,4.58.01,9.15,0,13.73,0,53.33,0,106.65,0,159.98,0,2.08,0,4.15.03,6.2-.51,5.62-1.49,9.24-5.99,9.3-11.8.07-6.74.03-13.48.01-20.22,0-5.03-2.18-8.77-6.63-11.18-.85-.46-1.91-.72-2.2-1.86Z"/><path class="cls-15" d="m201.21,290.87c.66-2.6.42-5.26.62-7.89.66-.79,1.6-.83,2.51-.83,13.99-.02,27.99-.11,41.98.04.25,0,.49.07.73.11.73.25,1.68.74.8,1.47-3.23,2.69-6.23,5.7-10.09,7.53-.89-.68-1.92-.4-2.89-.4-11.22-.02-22.43-.02-33.65-.02Z"/><path class="cls-69" d="m281.47,84.73c-1.44,3.62-2.57,4.37-6.56,4.41-4.82.04-9.64.11-14.46.17-.5.5-1.16.56-1.81.62-15.2.02-30.4-.02-45.6,0-1.33,0-2.66-.06-3.95.38-7.94.42-15.88.24-23.81.1-.98-.02-2.32.12-2.27-1.56.42-.62,1.08-.73,1.74-.82.66-.09,1.33-.07,1.99-.08,26.18-.65,52.36-.51,78.54-.47,3.59,0,7.12-.52,10.7-.62,2.58-.07,3.47-1.35,3.18-4.55-.47-5.13-.92-10.27-1.59-15.37-.48-3.63-.72-7.28-1.29-10.9-.55-3.5-2.14-4.95-5.7-4.95-9.39,0-18.77.14-28.16.39-13.71.36-27.43.24-41.15.05-12.64-.17-25.25.67-37.88.57-3.56-.03-4.65.98-4.33,4.48.84,9.1,1.67,18.21,3.04,27.25.42,2.79,1.89,3.85,4.81,4.11,1.95.17,4.01-.47,5.84.71.44,1.57-.77,1.66-1.71,1.76-1.98.21-4,.28-5.97-.06-3.29-.56-5.1-2.72-5.61-5.88-.89-5.5-1.34-11.06-1.98-16.59-.47-4.04-1.1-8.08-1.03-12.17.07-4.2,1.42-5.66,5.51-6.25,2.4-.34,4.79-.46,7.21-.46,21.21.01,42.41-.02,63.62.03,3.75,0,7.47-.23,11.2-.47,3.59-.05,7.19-.13,10.78.04.65.04,1.24.22,1.73.68,4.89.01,9.77.02,14.66.04,4.38.01,6.43,1.66,6.96,6.05,1.2,9.78,2.25,19.58,3.36,29.37Z"/><path class="cls-11" d="m256.49,49.27c-.45,0-.91,0-1.36,0-.87-.84-.8-1.95-.9-3.02-.5-5.13-1.09-10.24-1.58-15.37-.25-2.6-1.54-3.8-4.17-4.15-1.32-.18-2.66-.11-3.98-.11-53.77,0-107.54,0-161.3-.02-1.63,0-3.35.37-4.83-.71-.13-.36-.26-.71-.39-1.07,46.89,0,93.78,0,140.66-.01,1,0,1.99-.04,2.99-.07,8.64.02,17.28.12,25.92.04,4.14-.04,6.89,2.05,7.15,6.44.36,6.03,1.18,12.03,1.81,18.05Z"/><path class="cls-68" d="m237.76,291.3c3.45-2.75,6.9-5.5,10.36-8.24,2.49-2.23,3.68-5.08,3.99-8.36.03-.34.29-.57.63-.68,1.05-.22.88.58.98,1.16.28.33.44.75.35,1.15-.58,2.61-.76,5.18.66,7.42,1.44-1.58,2.09-3.82,3-5.93.38-.87.47-1.96,1.5-2.44.31-.13.61-.25.92-.38.49,3.16-1.17,5.67-2.27,8.12,1.7-2.29,1.88-5.43,3.08-8.18.15-.35.3-.7.46-1.06,1.72-1.16,2.07-2.65,1.07-4.47.05-.5.1-1.01.15-1.51.45-.09.92.03,1.12.37,1.3,2.15,3.7,2.95,5.46,4.55,3.27,2.99,3.73,5.5,1.36,9.57-.4,1.15-.79,2.3-1.19,3.45-2.12,5.09-5.48,8.24-11.32,9.14-2.11.32-4.38,2.24-6.74,3.1-4.32,1.57-8.81,2.34-13.38,2.58-2.53.13-3.06-.5-2.86-3.04.18-2.4,1.21-4.45,2.68-6.31Z"/><path class="cls-12" d="m2.97,218.09c2.1-.38,3.07.71,3.78,2.57,2.89,7.56,2.77,14.97-.8,22.27-.09-.48-.05-1.06-.3-1.42-3.4-4.81-3.39-10.41-3.63-15.92-.11-2.52,1.28-4.91.96-7.5Z"/><path class="cls-77" d="m180.33,209.97c-.58.02-1.16.07-1.74.07-58.22,0-116.44,0-174.65,0-.33,0-.66-.02-1-.03.35-.16.69-.32,1.04-.48,12.34.03,24.67.07,37.01.09,3.14,0,6.29-.07,9.43-.12,2.73-1.47,5.67-.48,8.5-.73,4.35-.09,8.7-.03,13.05-.02,23.17-.09,46.34-.02,69.51-.04,11.63,0,23.25-.03,34.88.03,1.39,0,3.07-.5,3.98,1.23Z"/><path class="cls-15" d="m58.82,209.5c-2.8.21-5.61.2-8.41.01-.78-8.08-1.55-16.16-2.33-24.23-.73-7.67-1.44-15.34-2.19-23.01-.76-7.83-1.57-15.65-2.33-23.48-.73-7.5-1.43-15.01-2.15-22.51-.16-1.65-.34-3.29-.52-4.94,2.74-1.51,5.58-.95,8.42-.41,1.24,1.55,1.03,3.48,1.19,5.24,1.37,14.7,2.76,29.4,4.21,44.09,1.44,14.69,2.74,29.4,4.28,44.08.18,1.71.49,3.46-.18,5.16Z"/><path class="cls-81" d="m49.35,111.29c-2.82-.19-5.64-.17-8.46.04-4.81-.01-9.63-.02-14.44-.05-4.07-.02-6.29-1.77-6.78-5.77-1.15-9.39-2.2-18.8-3.17-28.22-.37-3.56,1.66-5.65,5.26-5.73,5.06-.12,10.12-.2,15.19-.3,2.71-1.55,5.65-.54,8.47-.76,4.32-.09,8.63-.09,12.95,0,5.24-.13,10.48-.1,15.72-.04,17.96.21,35.9-.89,53.86-.52,1.08.02,2.16-.02,3.24.04,4.15.23,6.74,2.41,7.27,6.49,1.16,8.99,2.21,17.99,3.01,27.01.5,5.68-1.72,7.9-7.52,7.97-2.66.03-5.32.03-7.98,0-20.2-.22-40.4.25-60.6.5-1,.01-2,.02-2.99-.05-3.39.13-6.78.04-10.17.05-1,0-1.99-.03-2.84-.68Z"/><path class="cls-36" d="m45.41,71.22c-2.82.21-5.64.24-8.46.05-.31-6.5-1.51-12.92-1.61-19.44,2.84.27,5.67.54,8.51.81,1.39,1.86.91,4.12,1.16,6.18.39,3.26.64,6.55.98,9.82.1.92.11,1.82-.56,2.57Z"/><path class="cls-87" d="m28.56,171.65c-.22,1.8-1.11,2.99-3,2.94-1.88-.05-2.89-1.26-2.85-3.06.03-1.7,1.15-2.83,2.83-2.84,1.8-.01,2.81,1.16,3.02,2.97Z"/><path class="cls-90" d="m23.63,189.14c.67-.03.93.29.82.58-.35.93-1.01,1.66-1.92,2.08-.34.15-.67-.28-.57-.58.3-.97,1.13-1.53,1.67-2.08Z"/><path class="cls-72" d="m24.27,185.37c.03.44-.15.78-.52.71-1.04-.21-1.65-1.01-2.16-1.85-.17-.28.14-.72.5-.64,1.03.22,1.55,1.11,2.17,1.78Z"/><path class="cls-84" d="m28.08,188.97c.88.28,1.56.97,2.03,1.83.12.22-.12.77-.48.66-.96-.29-1.59-1.07-2.13-1.86-.18-.27.05-.61.59-.63Z"/><path class="cls-71" d="m29.06,183.17c.46.1.83.39.71.66-.42.89-.96,1.74-1.94,2.08-.33.12-.69-.33-.59-.6.35-.94,1.13-1.56,1.83-2.14Z"/><path class="cls-28" d="m62.38,111.2c8.31-.1,16.63-.24,24.94-.3,15.72-.12,31.44-.18,47.15-.28,4.89-.03,6.72-1.93,6.23-6.76-.92-9.18-1.94-18.35-2.97-27.52-.41-3.63-2.94-5.63-6.99-5.6-22.95.16-45.91.34-68.86.5-1.16,0-2.32-.05-3.48-.08-.78-1.45-1.81-2.9-.01-4.35.62-3.15-.56-6.18-.67-9.29-.08-2.15-1.13-4.58-.43-6.37.74-1.89,3.74-1.54,5.61-2.53,1.23-.65,2.57-1.1,4.02-1.71,0,.83.02,1.48,0,2.13-.15,4.65-.15,4.56,4.46,4.45,1.93-.04,2.69-.43,2.2-2.57-.46-2.01-.42-4.13-.66-6.19-.23-2.01.66-2.97,2.64-3,.75,0,1.5,0,2.25,0,48.23,0,96.46,0,144.69,0,.79-1.06,1.93-1.19,3.12-1.2,4.24-.02,8.48-.11,12.71.03,4.69.15,7.32,4.24,5.75,8.75-1.65.07-3.31.2-4.96.22-25.26.17-50.51.32-75.77.49-5.14.03-6.72,1.75-6.2,6.9.88,8.76,1.81,17.51,2.79,26.26.55,4.9,2.58,6.59,7.57,6.58,1.33,0,2.66-.03,3.99-.01.69,0,1.13-.2,1.05-.99,1.02-.62,2.13-.11,3.18-.28,1.82,1.11.58,2.44.23,3.67-.67,2.36.11,3.93,2.82,5.66,1.78,1.14,3.44.95,4.99-.39,2.34-2.02,1.98-5.29-.72-6.67-.45-.23-.92-.39-1.03-.97.17-.62.31-1.27,1.21-1.07.04,1.63,1.3.93,2.02.94,7.92.03,15.84,0,23.76-.03,1.97-.37,3.96-.15,5.94-.15,10.36-.03,20.72.02,31.08-.05,1.7-.01,2.62.38,2.82,2.22.74,6.92,1.39,13.84,1.87,20.78-1.97,2.64-1.27,6.57-4.34,8.75-.93.66-.28,1.67.43,2.34.85.8,1.91,1.31,2.9,1.9,1.41.84,2.46,1.95,1.73,3.63-.84,1.94-2.4.66-3.67.5-.32-.04-.62-.23-.92-.37-1.8-.63-3.89-.48-5.38-1.96h-.2s-.18-.1-.18-.1c-1.56-.98-1.63-2.59-1.72-4.18-.3-5.16-1.73-6.41-6.98-6.55-5.41-.14-10.79.31-16.18.52-1.76.07-3.48-.15-5.15-.7-7.34-3.37-13.58-8.35-18.81-14.35-2.79-3.2-5.22-3.74-8.78-1.96-1.17.58-1.37.92-.99,2.16,1.39,4.52,3.18,8.87,5.19,13.13.48,1.04-.27,1.31-1,1.54-.8.25-1.64.22-2.48.22-3.82.01-7.65.07-11.47,0-15.38-.32-30.74.76-46.12.54-4.12-.06-5.06,1.07-4.63,5.09.88,8.26,1.83,16.52,2.7,24.79.5,4.72,1.85,5.93,6.54,5.95,8.15.04,16.31.3,24.44-.05,21.36-.92,42.72-.16,64.08-.44,1.41-.02,2.82-.05,4.23-.21,1.01-.11,2.03-.14,2.57.99-1.02,4.76-2.13,9.51-3.03,14.29-.61,3.28.73,5.6,3.69,7.11,3.4,1.73,7,2.96,10.61,4.17-.33,3.82-1.87,7.34-2.83,11-2.66,10.2-4.98,20.43-5.92,30.97-.78,8.8,1.99,16.53,6.4,23.87,4.43,7.36,9.68,14.1,15.65,20.27,1.01,1.05,2.06,2.04,1.02,3.64-.97.81-2.15.8-3.31.8-14.5.01-29,.03-43.5,0-3.27,0-3.39-.22-3.42-3.59,0-.9.18-1.82-.19-2.7-1.22-5.36-4.01-9.35-9.54-10.96-2.11-.89-4.31-1.09-6.56-.74-.42-.89-.44-.93.23-1.38,1.37-.92,2.84-1.68,4.13-2.75,4.69-3.89,7.03-8.8,7.08-14.92.04-4.87-.09-9.58-3.14-13.76-2.1-2.88-4.55-5.23-7.8-6.73-.88-.41-1.94-.57-2.44-1.58-1.04-.58-2.36.3-3.32-.64-1.53-.59-3.12-.33-4.69-.33-33.6-.02-67.2-.01-100.8-.02-.99,0-1.99-.07-2.98-.11-.94-.47-1.1-1.34-1.21-2.26-.4-3.42-.64-6.85-.99-10.27-.61-6.83-1.25-13.65-1.84-20.48-.42-4.86-.67-9.73-1.14-14.58-.72-7.48-1.15-14.99-1.89-22.47-.28-2.79-.08-5.64-1.33-8.26-.7-5.8-1.17-11.63-1.79-17.44-.1-.91.04-1.82.71-2.55Z"/><path class="cls-49" d="m226.52,153.62c-1.69-1.12-3.4.02-5.09.01-19.38-.07-38.76-.28-58.13.11-10.71.22-21.42.25-32.14.35-5.36.05-6.84-1.24-7.35-6.51-.86-8.88-1.72-17.76-2.96-26.6-.35-2.47,1.43-4.27,4.28-4.29,6.32-.04,12.65.24,18.96-.09,13.79-.71,27.58-.22,41.37-.43.83-.01,1.93.41,2.19-.97,5.15,9.82,12,18.09,21.65,23.82,4.17,7.49,10.13,9.67,18.21,6.66.39-.15.78-.29,1.18-.02-.72,2.65-1.44,5.31-2.16,7.96Z"/><path class="cls-49" d="m241.45,127.22c1.87.47,3.74.95,5.61,1.42-.23.42-.6.81-.3,1.35,3.73,5.49,8.88,5.77,14.6,4.04.22-.07.16-.24-.33-.99.15-.26.56-.14.68-.45-1.51-.29-2.74-1.14-1.79-2.66.89-1.42,2.56-1.11,3.99-.4-.15,2.91,2.2,3.53,4.13,4.53-.07.81.4,1.56.26,2.39-.09,1.88-.02,3.75-.06,5.63-.02.9-.04,1.8-.7,2.53-10.59,2.15-18.74-2-25.43-9.87-.79-.93-1.7-1.82-2.04-3.07-.21-1.16,1.09-2.31.01-3.47.56-.17,1.78.59,1.38-.96Z"/><path class="cls-28" d="m270.04,187.19c.07-2.32.04-4.64-.48-6.92,1.43-.45.83-1.63.81-2.5-.13-6.39-.06-12.77.7-19.12.11-.9.29-1.79.44-2.72,8.39,4.56,11.8,17.36,6.79,25.23-1.52,2.39-3.35,4.51-5.3,6.56-.82.86-1.48.8-2.33.27-.46-.07-.76-.27-.63-.8Z"/><path class="cls-49" d="m211.04,116.22c7.53.06,15.05-.74,22.59-.53,4.32.12,6.37,2.05,6.42,6.39.02,1.76.13,3.47,1.02,5.04-10.29-2.88-20.55-5.82-30.03-10.91Z"/><path class="cls-18" d="m228.68,145.66c-6.74,4.39-15.3,1.63-19.33-5.17-.26-.44-.8-.96-.06-1.48,5.75,2.88,11.73,4.96,18.2,5.42.62.04,1.94-.29,1.18,1.22Z"/><path class="cls-29" d="m267.54,144.6c-.01-2.28-.04-4.55-.03-6.83,0-.78-.24-1.66.63-2.21.57-.4,1.13-.16,1.6.14,2.66,1.69,5.47,3.2,7.27,5.94.17.62-.15.83-.7,1.02-2.85,1.01-5.74,1.78-8.78,1.94Z"/><path class="cls-43" d="m248.98,174.09c-7.06.4-18.72-15.26-17.13-22.93,1.55,4.72,2.92,9.5,5.86,13.61,2.93,4.11,6.82,7.02,11.27,9.31Z"/><path class="cls-6" d="m270.03,188.54c.34.43.79.82,1.01,1.3,1.03,2.23.67,2.73-1.84,2.62-.73-.11-1.43-.18-2.03-.76-1.88-1.81-3.47-4.03-6.34-4.47-.43-.07-.91-.47-.81-1.08.09-.54.49-.86.99-.99,1.84-.46,3.59-.26,5.26.67,1.35.76,2.87,1.28,3.74,2.7Z"/><path class="cls-88" d="m270.03,188.54c-1.35-.76-2.68-1.57-4.06-2.28-1.81-.93-3.68-1.22-6.31.08,4.54.71,6.45,4.24,9.55,6.13-.24.22-.49.45-.73.67-.76-.49-1.67-.84-2.25-1.48-1.8-2.01-3.87-3.52-6.48-4.29-.64-.19-1.6-.42-1.54-1.32.05-.72.94-.8,1.51-1.1,2.66-1.38,5.11-.65,7.51.69.93.52,1.86,1.03,2.8,1.55.21.27.42.53.64.8-.21.18-.43.37-.64.55Z"/><path class="cls-62" d="m277.01,141.64c-2.99-1.98-5.39-4.81-8.87-6.08-.15-.49-1.86-.89-.09-1.5,3.56,1.83,6.85,4.05,9.59,7.01-.21.19-.42.38-.63.57Z"/><path class="cls-52" d="m240.07,128.19c2.18,1.16.41,2.31-.01,3.47-.45-.77-.96-1.51-1.34-2.32-.19-.41-.39-1.12-.19-1.36.46-.54,1.01.14,1.54.2Z"/><path class="cls-49" d="m201.69,263.44c.55.53.43,1.22.45,1.88q.14,3.6,3.86,3.6c15.37,0,30.74.02,46.11.03.33,1.67-.84,3.53.61,5.07-.19,1.14-.47,2.27-.54,3.41-.16,2.77-1.65,4.53-4.08,5.63-15.43-.02-30.86-.05-46.29-.08-.04-6.51-.09-13.02-.13-19.54Z"/><path class="cls-49" d="m270.57,282.38c0-.25-.01-.5.03-.74,1.27-6.88,1.22-6.91-5.3-10.57-1.2-.68-1.43-2.41-2.67-3.18,2.6-11.21,4.68-22.5,5.99-33.94.83-7.3,1.24-14.63,2.29-21.92.71,7.65,1.41,15.31,2.15,22.96.76,7.82,1.57,15.64,2.35,23.46.52,5.19,1.09,10.37,1.53,15.56.25,2.92-3.14,7.83-6.36,8.38Z"/><path class="cls-27" d="m251.46,224.89c.97,5.97,1.02,12.01,1.5,18.02.1,1.21.29,2.49-.27,3.67-.33-.09-.55-.31-.63-.63-.11-.43-.28-.66-.71-.29-1.59-1.71-1.6-3.99-1.71-6.02-.25-4.8-.04-9.63-.06-14.45,0-.82.2-.82.74-.38.39-.13.77-.18,1.13.07Z"/><path class="cls-5" d="m259.22,275.36c-1.3,3.25-1.9,6.88-4.52,9.14-2.59-2.91-1.66-6.13-.99-9.33,1.9-1.71,3.7-.51,5.51.18Z"/><path class="cls-61" d="m251.46,224.89c-.39.16-.77.28-1.13-.07-.4-7.78-1.21-15.49-4.14-22.86,1.82,1.08,2.22,2.96,2.71,4.7,1.67,5.95,2.43,12.05,2.56,18.22Z"/><path class="cls-57" d="m251.36,245.66c1.37-1.05,1.12.28,1.34.91.25,5.07.79,10.14-.13,15.25-.48-5.39-.64-10.79-1.21-16.16Z"/><path class="cls-38" d="m260.95,274.92c-.49,3.29-.9,6.61-3.62,9.69.2-3.81,2.81-6.36,2.81-9.63.27-.02.54-.04.81-.06Z"/><path class="cls-34" d="m262.48,269.4c.68.89,1.36,1.78,2.42,3.17-2.1-.87-1.95,1.69-3.49,1.3.15-1.54.29-3.08,1.07-4.47Z"/><path class="cls-76" d="m120.41,8.16c17.84-4.06,35.44-1.74,52.97,2.19-17.58-2.6-35.15-5.26-52.97-2.19Z"/><path class="cls-89" d="m144.38,11.02c11,.35,21.83,2.05,32.54,4.53.61.14,1.94-.04,1.69.94-.28,1.13-1.43.34-2.1.18-10.94-2.64-22.02-4.31-33.29-4.48-2.41-.04-4.82.07-7.23.09-.47,0-1.13.12-1.17-.56-.04-.68.62-.69,1.09-.69,2.83-.02,5.65-.01,8.48-.01Z"/><path class="cls-76" d="m116.66,13.43c.16,1.09-.37,1.28-1.32,1.09-2.52-.51-5.06-.98-7.58-1.46-1.05-.2-1.34-.7-.48-1.47,2.17-1.94,4.36-3.85,6.55-5.77.75-.65,1.31-.68,1.52.49.42,2.37.87,4.74,1.31,7.12Z"/><path class="cls-8" d="m263.91,129.53c-.9.09-1.8.19-2.7.28-.55.06-1.2-.07-1.27.79-.06.82.42,1.15,1.11,1.37.97.3,2.09.17,3.05,1.04-1.08.83-2.12-.2-3.07.12-1.63.68-2.3-.35-2.64-1.64-.67-2.49-1.2-5.01-1.77-7.52-.11-.49-.25-1.17.08-1.45,2.11-1.74.48-3.05-.49-4.35-1.28-1.73-2.22-3.51-1.8-5.9-1.97,1.07-3.71,2.22-4.33,4.41-1.37,4.87-1.34,4.89,3.67,5.77.52.09,1.03.19,1.21.71.24.7-.25,1.13-.8,1.33-1.03.37-1.7.82-1.59,2.13.13,1.53.58,3.43-1.21,4.23-1.88.83-3.73.15-5.31-1.15-.16-.26-.5-.59-.43-.76.29-.74.97-.03,1.42-.29.64.18,1.27.5,1.91.51.67.01,1.66,1.2,2-.25.22-.93.19-1.94-.96-2.56-1.38-.75-2.75-1.56-3.96-2.55-1.73-1.42-1.62-2.45.27-3.62,1.49-.92,2.25-2.11,1.72-3.86-.57-1.91,1.74-1.74,2.09-2.97,1.46-4.85,4.66-6.43,10.59-5.22.67.11,1.09.66,1.65.97,1.35,1.05,2.33,1.3,3.4-.59.95-1.68,3.49-1.79,4.8-.51,1.64,1.59.65,3.24-.69,3.95-4.93,2.59-3.56,6.69-2.65,10.5,1.16,4.8,1.18,5.13-3.33,7.09Z"/><path class="cls-32" d="m262.38,109.09c-.47-.16-.93-.33-1.4-.49-1.6-1.6-1.05-3.72-1.31-5.63-.53-3.83-.74-7.7-1.08-11.55-.06-.75-.13-1.49.47-2.08.46-.01.93-.02,1.39-.03.3,6.63,1.05,13.21,1.93,19.78Z"/><path class="cls-86" d="m287.63,120.2c.51-.77.96-1.68,1.96-2.01.32-.1.68.26.58.59-.3.99-1.04,1.64-1.94,2.07-.24.11-.59-.2-.6-.65Z"/><path class="cls-92" d="m288.67,124.03c.66.54,1.69.87,1.76,2,.02.37-.4.53-.71.34-.76-.45-1.54-.93-1.77-1.87-.11-.43.27-.49.72-.47Z"/><path class="cls-64" d="m284.56,121.1c-.42-.04-.63,0-.72-.08-.68-.65-1.76-.97-1.82-2.12,0-.08.47-.33.57-.26.85.55,1.85.99,1.97,2.46Z"/><path class="cls-91" d="m282.63,126.84c-.16-.34-.24-.42-.22-.48.28-1,.94-1.69,1.85-2.15.09-.05.52.29.5.37-.31,1.07-.94,1.86-2.12,2.26Z"/><path class="cls-49" d="m183.08,250.93c-3.12.61-6.27.57-9.43.57-55.71,0-111.41,0-167.12,0-.91,0-1.84.07-2.74-.06-1.7-.25-2.72-1.3-2.71-3.03,0-1.72,1.03-2.77,2.72-3.04.81-.13,1.66-.08,2.49-.08,25.36,0,50.72,0,76.08,0,2.86,0,5.64-.25,8.05-2.06,2.59-1.95,4.22-4.42,4.56-7.69.28-2.74.32-5.49.05-8.22-.61-6.16-5.16-10.29-11.36-10.3-19.21-.03-38.41-.02-57.62-.02-6.98,0-13.97-.02-20.95.02-1.72,0-3.2-.35-3.85-2.1-.67-1.81.31-3.01,1.75-3.95.8-.34,1.64-.18,2.46-.18,57.41,0,114.83,0,172.24,0,.83,0,1.66-.12,2.48.13.47.05.95.09,1.42.14,9.12,1.36,15.47,8.94,15.6,18.33.06,4.72-.15,9.32-2.85,13.4-2.72,4.11-6.1,7.37-11.25,8.14Z"/><path class="cls-28" d="m155.18,286.83c-1.93,4.49-5.28,6.33-10.21,6.32-44.13-.09-88.25-.07-132.38,0-2.26,0-2.77-.34-2.06-2.67,2.15-7.07,2.69-14.32,1.47-21.65-.03-3.36-1.08-6.52-1.93-9.95h2.81c43.92,0,87.84,0,131.76,0,7.64,0,10.73,3.08,10.71,10.74-.02,5.74-.11,11.47-.17,17.21Z"/><path class="cls-15" d="m191.01,253.03c7.15,2.89,9.64,6.64,9.65,14.5,0,5.99.01,11.98,0,17.96-.03,8.39-5.3,13.72-13.69,13.73-41.25.02-82.49,0-123.74.01-17.88,0-35.76,0-53.64,0-.83,0-1.68.06-2.49-.1-1.3-.25-2.04-1.14-1.99-2.48.05-1.35.87-2.13,2.21-2.26.91-.08,1.83-.04,2.74-.04,45.07,0,90.14,0,135.21,0,5.34,0,8.81-2.17,10.39-6.45,1.48-7.98,1.63-16.04-.07-23.93-.83-3.83-4.25-5.8-8.25-6.18-1.24-.12-2.49-.05-3.74-.05-44.17,0-88.34,0-132.52,0-.92,0-1.83-.02-2.75,0-1.32.02-2.53-.17-3.08-1.58-.55-1.41.12-2.4,1.21-3.21.87-.41,1.8-.21,2.7-.21,59.6-.01,119.19-.01,178.79,0,.9,0,1.83-.23,2.69.23.1.13.22.15.36.07Z"/><path class="cls-12" d="m9.45,225.51c-.77-2.35-1.54-4.7-2.42-7.37h2.24c24.36,0,48.72,0,73.09,0,7.76,0,11.65,3.89,11.67,11.61,0,1.83.06,3.67-.11,5.48-.42,4.6-4.15,8.33-8.75,8.85-.99.11-1.99.12-2.99.12-24.2,0-48.39,0-72.59,0-.81,0-1.66.2-2.65-.35,2.11-4.65,3.02-9.59,2.94-14.71-.39-3.61-.38-3.63,3.23-3.63,9.87,0,19.74,0,29.6,0-11.09,0-22.18,0-33.27,0Z"/><path class="cls-56" d="m190.66,252.96c-6.48-.03-12.96-.09-19.44-.09-53.51,0-107.01,0-160.52,0-1.41,0-2.82.04-4.24.07.74-.8,1.72-.47,2.59-.47,59.59-.02,119.17-.02,178.76,0,.95,0,2.01-.37,2.83.49Z"/><path class="cls-77" d="m180.16,210.92c-4.07-.03-8.15-.09-12.22-.09-53.66,0-107.32,0-160.97,0-1.33,0-2.66.09-3.98.14.76-.76,1.73-.45,2.61-.45,57.31-.01,114.62-.01,171.94,0,.88,0,1.84-.28,2.64.4Z"/><path class="cls-77" d="m183.08,250.93c4.94-1.91,9.12-4.77,11.5-9.69,4.83-9.97,2.66-26.18-13-30.18.69-.15,1.48.2,2.07-.45,8.84,2.98,13.87,9.91,14.22,19.15.36,9.63-3.19,16.91-12.07,21.22-.44.21-.31.47-.2.76-1.21.85-1.6-.78-2.52-.82Z"/><path class="cls-45" d="m9.45,225.51c.74-.43,1.55-.52,2.4-.52,11.05.01,22.11,0,33.16.02.53,0,1.17-.22,1.67.54-.74.72-1.67.43-2.48.43-10.31.02-20.61.1-30.92-.05-2.52-.04-3.72.57-3.39,3.2-.45-1.17-.48-2.39-.44-3.63Z"/><path class="cls-49" d="m244.08,49.33c-.19-1.47-.26-2.96-.58-4.4-.41-1.83-1.65-3.44-3.45-3.48-5.85-.12-11.72-.67-17.55.3.16-.54.16-1-.58-1.01-.83-.02-1.66-.02-2.49-.02-46.88,0-93.75,0-140.63,0h-2.65c-.18-.87.42-1.2.75-1.61,2.45-3,3.17-6.31,2.05-10.04-.31-1.02-.4-2.11-.6-3.17,22.71-.01,45.42-.03,68.13-.03,33.53,0,67.05,0,100.58,0,4.95,0,6.22,1.35,6.53,6.33.36,5.7,1.43,11.35,1.53,17.08-3.68.21-7.36.29-11.05.06Z"/><path class="cls-15" d="m85.08,5.51c-5.11,3.41-10.01,6.67-14.88,9.95-.87.59-1.77.3-2.65.2-6.44-.73-12.88-1.49-19.32-2.23-.62-.07-1.27-.21-2.51.83,7.65.9,14.64,1.72,22.26,2.62-3.44,2.32-6.58,4.13-9.35,6.4-5.16,4.24-10.61,5.72-17.42,4.65-10.47-1.64-21.09-2.26-31.65-3.31-.17-1.1.66-1.22,1.14-1.54,10.41-7,20.85-13.97,31.27-20.96.92-.62,1.84-1.03,3.01-.91,13.07,1.28,26.14,2.53,39.21,3.8.14.01.27.15.88.49Z"/><path class="cls-15" d="m23.92,32.25c6.09.61,11.86,1.09,17.6,1.77,10.19,1.21,10.18,1.26,18.59-4.4,2.88-1.94,5.77-3.86,9.25-6.19-.54,2.77.74,5.12-1.25,7.18-.38.39-.32,1.25-.36,1.9-.18,3.73-.34,7.46-.48,11.2-.04.95-.14,1.75-1.17,2.24-10.03,4.67-20.39,6.97-31.4,4.32-4.52-1.08-7.76-3.47-8.5-8.54-.45-3.08-1.44-6.09-2.27-9.48Z"/><path class="cls-48" d="m69.08,17.93c.92,3.06-.31,4.81-2.88,6.35-4.49,2.68-8.77,5.72-13.08,8.68-1.04.71-2.06.94-3.26.82-12.4-1.25-24.8-2.51-37.21-3.69-1.61-.15-2.48-.58-2.85-2.35-.36-1.75.1-1.99,1.65-1.82,5.2.57,10.42,1.06,15.62,1.59,7.28.74,14.55,1.47,21.82,2.25,1.34.14,2.42-.29,3.48-1.01,5.1-3.43,10.22-6.84,15.34-10.24.39-.26.72-.72,1.36-.56Z"/><path class="cls-49" d="m58.38,66.81c-1.03,1.45.38,2.9.01,4.35-4.33.02-8.66.04-12.99.06-.52-6.19-1.05-12.38-1.57-18.57,3.95-.43,7.94-.53,12.04-1.78.52,4.63,1,9.15,1.54,13.66.1.82-.31,1.93.96,2.28Z"/><path class="cls-35" d="m70.32,26.47c.02-3.57,1.28-5.36,4.25-6.57.87-.35,1.05.08,1.19.67.89,3.8,2.05,7.56,2.57,11.41.51,3.84-2.06,6.5-4.65,8.93-.88.83-1.08.08-1.15-.68-.16-1.74-.6-3.51-.41-5.21.35-3.17-2.56-5.58-1.8-8.55Z"/><path class="cls-39" d="m70.63,21.23c-.79-3.13-.04-5.03,2.65-6.58,4.08-2.34,7.87-5.16,11.81-7.8q1.53,3.71-1.45,5.69c-4.26,2.84-8.53,5.69-13.02,8.68Z"/><path class="cls-40" d="m72.44,50.52c.58,1.82-.75,1.8-2.34,1.9-1.84.12-2.2-.55-2.1-2.26.34-5.71.5-11.42.78-17.13.04-.79-.45-2.11.93-2.14,1.14-.02.92,1.2.99,1.96.59,5.77,1.14,11.54,1.73,17.67Z"/><path class="cls-21" d="m175.67,88.87c-1.07.73-2.09.19-3.13-.09-2.08-.02-4.16,0-6.23-.05-2.8-.07-4.74-1.72-5.06-4.5-1.08-9.32-2.12-18.65-3.11-27.99-.38-3.63.96-4.99,4.68-5.02,35.91-.29,71.82-.57,107.73-.85,4.61-.04,6.1,1.31,6.61,5.87.94,8.51,1.9,17.01,2.78,25.52.53,5.09-.43,6.12-5.46,6.16-29.34.25-58.68.49-88.03.74-1.08,0-2.16.06-3.24.09-.37.33-.74.67-1.1,1-1.68.03-2.25-1.51-3.33-2.33-.88-.67-1.56-2.13-2.83-1.51-1.27.62-.03,1.97-.29,2.97Z"/><path class="cls-49" d="m259.06,89.34c.64,6.42,1.28,12.84,1.92,19.26-.98-.08-1.96-.2-2.94-.23-3.75-.14-6.4,1.51-7.9,4.97-.7-7.39-1.44-14.77-2.06-22.16-.15-1.76-1.27-1.42-2.29-1.42-7.96,0-15.92.04-23.89.03-4.31,0-8.61-.09-12.92-.14.82-.07,1.64-.19,2.46-.2,15.21-.08,30.42-.15,45.63-.22.66,0,1.32.07,1.98.11Z"/><path class="cls-30" d="m236.56,295.39c1.37-3.33,4.24-5.25,6.92-7.33,2.23-1.73,4.51-3.4,6.82-5.02.52-.37.95-1.34,1.86-.71.85.59,1.03,1.42.79,2.42-.19.79-.62,1.57-.18,2.47,1.42-.18,1.97-1.68,3.28-2.25.69,2.43.26,4.83.42,7.2-3.61,2.62-7.81,3.81-12.06,4.82-1.19.28-2.42.62-3.68.59-.99,0-1.98.08-2.96-.09-1.2-.21-1.75-.84-1.2-2.09Z"/><path class="cls-30" d="m269,275.88c-.8,2.94-1.15,6.01-2.6,8.76-1.48,2.82-3.4,5.11-6.55,6.13-1.54.5-2.48.43-2.36-1.67.08-1.54.3-2.89,1.18-4.2,1.54-2.29,2.7-4.78,2.97-7.58.14-1.47,1.25-2.29,2.04-3.52,1.65,2.18,2.4,1.58,2.43-.81,1.4.25,2,1.33,2.87,2.02.33.28.36.57.02.87Z"/><path class="cls-24" d="m256.02,294.89c-5.78,2.91-11.87,4.58-18.38,4.49-1.67-.02-1.67-.06-1.58-1.57.23-.16.48-.28.75-.36,6.12.22,11.86-1.15,17.31-3.93,1.26-.64,2.64-1.01,1.9,1.36Z"/><path class="cls-60" d="m256.02,294.89c.14-1.12.35-1.97-1.37-1.06-5.63,2.99-11.61,4.61-18.06,4.03.14-1.2,1.08-.58,1.66-.69.92-.18,1.91.23,2.82-.26,4.5-.62,8.81-1.82,12.83-3.97.81-.43,1.64-.73,2.55-.77.03.94.45,1.93-.44,2.72Z"/><path class="cls-26" d="m268.55,284.45c-1.43,4.48-3.75,8.11-8.86,8.9-.69.11-1.89.73-2.1-.36-.2-1.03,1.1-.72,1.7-.87,4.65-1.16,7.09-4.53,8.84-8.62.85.01.68.47.42.97Z"/><path class="cls-42" d="m268.55,284.45c-.14-.32-.28-.64-.42-.97.43-1.66.98-3.3,1.24-4.98.13-.83.85-1.92-.37-2.62,0-.29-.02-.58-.02-.87,1.34.55,1.72,1.47,1.36,2.9-.55,2.19-.77,4.47-1.78,6.53Z"/><path class="cls-73" d="m241.07,296.91c-1.32,1.14-3.17-.25-4.48.95-.18-.01-.36-.03-.54-.04.02-.84-.3-1.75.5-2.42-.06.84-.1,1.58,1.16,1.48,1.11-.09,2.24.02,3.36.04Z"/><path class="cls-49" d="m70.33,197c.76,4.14.46,8.41,1.53,12.51-4.35,0-8.69,0-13.04-.01-.47-4.35-.98-8.69-1.41-13.05-.83-8.31-1.63-16.61-2.41-24.92-.73-7.74-1.4-15.48-2.14-23.21-.76-7.9-1.59-15.78-2.35-23.68-.43-4.44-.78-8.89-1.16-13.34,4.34-.03,8.68-.06,13.02-.09.04,6.73,1.59,13.35,1.53,20.09,1.06,4.11,1.03,8.35,1.41,12.54.67,7.49,1.28,14.99,1.87,22.49.4,5.11.81,10.22,1.23,15.32.37,4.53.72,9.06,1.18,13.59.07.68.17,1.31.74,1.77Z"/><path class="cls-21" d="m80.7,110.18c-17.88,0-35.76,0-53.65,0-4.32,0-6.02-1.51-6.47-5.8-.94-8.85-1.87-17.69-2.81-26.54-.39-3.63.91-5.17,4.49-5.2,36.18-.27,72.36-.53,108.54-.78,3.69-.03,5.48,1.63,5.89,5.32.98,8.76,1.97,17.51,2.93,26.27.5,4.6-.65,5.9-5.28,5.91-17.88.02-35.77,0-53.65,0,0,.27,0,.54,0,.81Z"/><path class="cls-50" d="m27.37,171.62c-.09,1.06-.64,1.82-1.66,1.84-1.13.02-1.8-.71-1.79-1.9,0-1.13.72-1.67,1.73-1.65,1.04.02,1.61.69,1.72,1.71Z"/><path class="cls-82" d="m153.23,165.18c14.29-.15,28.57-.35,42.86-.43,3.58-.02,5.8,2.17,6.06,5.64.66,8.78,1.31,17.56,1.91,26.34.28,4.07-1.63,6.22-5.57,6.25-28.91.2-57.82.37-86.73.55-.33,0-.66-.06-.99-.1-.42-.37-2.21.24-.97-1.34,1.72-.48,3.47-.24,5.21-.25,7.06-.03,14.12-.01,21.18-.01,1.16,0,2.33.04,3.45-.34,1.48-.29,2.97-.23,4.47-.23,16.68,0,33.36,0,50.04,0,.91,0,1.83.02,2.74-.02,4.31-.15,5.51-1.7,5.2-5.93-.56-7.77-1.28-15.53-1.71-23.32-.12-2.25-.78-4.04-2.79-5.19-1.06-.66-2.24-.51-3.39-.51-12.51,0-25.02.02-37.54-.03-1.2,0-2.71.55-3.45-1.09Z"/><path class="cls-83" d="m153.23,165.18c.88.73,1.92.4,2.88.4,13.06.02,26.12,0,39.18.03.95,0,2.01-.37,2.85.46-1.26,1.15-2.83.79-4.28.79-21.68.03-43.36-.28-65.03.13-13.62.26-27.23.26-40.84.41-4.12.04-5.3,1.45-4.99,5.52.59,7.86,1.15,15.72,1.64,23.59.12,1.99.56,3.79,2.51,4.81.99.58,2.08.51,3.16.51,5.32,0,10.64-.02,15.96.01,1.05,0,2.2-.21,3.02.76.49.28.99.55,1.48.83-7.47.06-14.95.19-22.42.16-3.02-.01-5.17-2.06-5.42-5.13-.73-9.19-1.4-18.39-1.97-27.59-.2-3.15,1.83-5.28,4.98-5.31,22.43-.16,44.86-.26,67.29-.39Z"/><path class="cls-58" d="m70.33,197c-2.01.37-1.29-1.32-1.36-2.06-.58-6.13-1.01-12.27-1.52-18.4-1.14-13.67-2.31-27.34-3.45-41.02-.12-1.4-.07-2.82-.1-4.23,1.24.31,1,1.36,1.07,2.22,1.31,15.54,2.6,31.08,3.9,46.63.47,5.62.97,11.24,1.45,16.86Z"/><path class="cls-79" d="m175.67,88.87c-.26-.5-.54-1-.79-1.51-.41-.84-.35-1.62.47-2.18.84-.57,1.57-.23,2.23.37,1.52,1.39,3.02,2.79,4.53,4.18,2.74.35,3.86,1.95,3.83,4.66-.03,2.49-1.4,3.76-3.51,4.55-2.84,1.06-4.43-.92-6.22-2.52-1.48-1.33-1.4-2.79-.86-4.52.3-.94,1.73-1.88.32-3.04Z"/><path class="cls-19" d="m133.69,129.17c20.53-1.48,41.06-.8,61.6-.52-20.53.28-41.06.76-61.6.52Z"/><path class="cls-3" d="m159.54,134.79h22.67c0,.17,0,.35,0,.52h-22.67c0-.17,0-.35,0-.52Z"/><path class="cls-20" d="m135.06,141.36h19.71c0,.14,0,.27.01.41h-19.71c0-.14,0-.27-.01-.41Z"/><path class="cls-33" d="m183.91,141.41c-4.25,1.23-8.62.55-12.94.67-.43.01-.92-.19-.93-.64-.02-.62.55-.77,1.05-.77,4.26-.01,8.52,0,12.78,0,.01.25.03.5.04.75Z"/><path class="cls-20" d="m142.93,135.48h-8.69c2.85-1.16,5.77-.72,8.67-.81,0,.27.02.54.02.81Z"/><path class="cls-17" d="m189.02,135.72c-1.11-.33-2.87.47-2.87-.82,0-1.27,1.74-.66,2.71-.71.91-.04,2.5-.41,2.47.77-.03,1.34-1.66.21-2.31.75Z"/><path class="cls-30" d="m246.08,129.7c.88.19,1.77.37,2.65.59,2.98.73,3.53.37,3.43-2.47-.04-1.13-.69-2.46-.28-3.31.42-.86,2.24.15,3.25-1.33-1.85-.28-3.62.11-5.27-.55-1.53-.61-1.91-1.17-1.4-2.92.85-2.89,1.87-5.53,4.27-7.47.69-.56,1.37-1.49,2.32-.99.83.44.22,1.39.04,2.04-.74,2.59,2.06,3.78,2.28,5.98.01.11.41.21.64.28.53.16,1.29-1.06,1.58.13.23.93-.55,1.56-1.35,1.86-1.24.47-1.29,1.26-.99,2.38.59,2.24,1.22,4.5,1.54,6.79.21,1.5.86,2.22,2.25,2.45.37.29.74.58,1.11.88-6.31,3.08-12.84,1.96-16.08-4.31Z"/><path class="cls-31" d="m108.43,12.07c2.07-1.81,3.77-3.3,5.46-4.77.23.19.41.27.44.38q1.6,5.78-5.9,4.39Z"/><path class="cls-41" d="m42.24,269.94c8.88,0,17.77,0,26.65,0,.66,0,1.33,0,1.98.12.25.05.44.41.66.63-.23.21-.44.56-.7.61-.65.11-1.32.11-1.98.11-17.6,0-35.2,0-52.8,0-.33,0-.66,0-1,0-.73-.03-1.82.08-1.79-.84.03-1.05,1.18-.62,1.83-.62,9.05-.03,18.1-.02,27.15-.02Z"/><path class="cls-53" d="m13.29,281.1h61.25c0,.17,0,.33,0,.5H13.29c0-.17,0-.33,0-.5Z"/><path class="cls-46" d="m80.51,265.69h-41.27c0-.16,0-.32,0-.49h41.27c0,.16,0,.32,0,.49Z"/><path class="cls-46" d="m12.79,265.2h23.3c0,.17,0,.33,0,.5H12.78c0-.17,0-.33,0-.5Z"/><path class="cls-44" d="m80.6,269.95c1.65,0,3.3-.01,4.95,0,.39,0,.9-.06,1,.47.12.64-.42.92-.89.92-3.38.04-6.76.04-10.14.02-.4,0-.85-.26-.8-.74.05-.46.5-.64.93-.65,1.65-.02,3.3,0,4.95,0v-.02Z"/><path class="cls-47" d="m10.3,237.65h43.13c0,.17,0,.34,0,.5H10.3c0-.17,0-.34,0-.5Z"/><path class="cls-46" d="m53.56,230.26H11.3c0-.14,0-.28,0-.42h42.25c0,.14,0,.28.01.42Z"/><path class="cls-54" d="m56.55,225.78h-7.31c0-.16-.01-.32-.02-.48h7.31c0,.16.01.32.02.48Z"/><path class="cls-28" d="m258.61,82.23c-7.85,0-14.05-6.48-14.04-14.66,0-6.56,4.9-11.16,11.61-11.35,7.4-.2,14.21,6.66,14.26,14.39.04,6.83-5.24,12.2-11.83,11.61Z"/><path class="cls-63" d="m218.6,62.81c4.32-.05,8.64-.1,12.95-.13.31,0,.63.12.93.18.04,1.01-.67.88-1.21.88-12.96.08-25.92.16-38.89.22-.15,0-.31-.12-.46-.18-7.13.37-14.26.32-21.39.03.48-1.44,1.51-.65,2.36-.58.96-.38,1.97-.21,2.96-.21,13.35-.01,26.7,0,40.05-.02.9,0,1.83.19,2.7-.2Z"/><path class="cls-66" d="m218.6,62.81c-.6.65-1.39.44-2.11.44-14.53,0-29.06,0-43.59-.02.15-.07.3-.19.45-.19,15.08-.08,30.17-.16,45.25-.24Z"/><path class="cls-10" d="m196.59,69.33h22.87v.51h-22.85l-.02-.51Z"/><path class="cls-8" d="m172,75.76h19.97c0,.18,0,.36,0,.54h-19.96c0-.18-.01-.36-.02-.54Z"/><path class="cls-9" d="m221.36,76.2h-14.26c1.16-1.02,11.54-1.34,14.26,0Z"/><path class="cls-66" d="m170.54,63.81c7.13-.01,14.26-.02,21.39-.03-7.13.37-14.26.78-21.39.03Z"/><path class="cls-8" d="m171.33,69.58h9.15c0,.18,0,.35,0,.53h-9.18c0-.18.02-.35.03-.53Z"/><path class="cls-9" d="m223,69.43c2.03-.67,3.79-.54,5.83-.21-1.74,1.04-3.53,1.09-5.83.21Z"/><path class="cls-28" d="m118.2,103.7c-6.81.59-14.3-6.57-13.96-14.38.31-7.09,4.59-11.45,11.72-11.62,7.03-.17,14.09,7.07,13.91,14.62-.16,6.56-5.43,12.15-11.66,11.38Z"/><path class="cls-80" d="m37.77,84.64c1.57-.08,3.13-.21,4.7-.22,15.76-.11,31.52-.2,47.28-.27.77,0,1.63-.3,2.34,1.04h-22.74c-.95-.45-1.96-.22-2.94-.22-8.61.01-17.22-.14-25.83.22-.95.04-2.01.31-2.81-.56Z"/><path class="cls-8" d="m37.77,84.64c9.58.04,19.16.06,28.74.13.95,0,2-.36,2.84.43H30.15c-.01-.19-.02-.37-.03-.56h7.65Z"/><path d="m78.97,91.4h-22.94c0-.17,0-.34-.01-.52h22.98c0,.17-.02.34-.03.52Z"/><path class="cls-85" d="m73.74,98.07c-1.99,0-3.99.01-5.98,0-.54,0-1.32.1-1.28-.73.03-.61.69-.6,1.18-.61,4.07-.02,8.14-.04,12.21-.05.47,0,1.16-.11,1.16.57,0,.84-.78.69-1.31.7-1.99.02-3.98,0-5.98,0v.12Z"/><path d="m51.52,97.91h-19.95c0-.2,0-.39,0-.59h19.98c0,.2-.01.39-.02.59Z"/><path class="cls-67" d="m30.92,91.06h9.03c0,.17.02.34.03.51h-9.03c-.01-.17-.02-.34-.04-.51Z"/><path class="cls-9" d="m82.49,90.88c2.11-.71,3.87-.64,5.84-.17-1.6,1.06-3.43,1.12-5.84.17Z"/><path class="cls-21" d="m86.78,202.06c-1.97-.73-2.72-2.3-2.86-4.25-.65-8.87-1.29-17.75-1.9-26.62-.2-2.92,1.58-4.56,4.85-4.59,16.55-.13,33.1-.27,49.65-.37,19.38-.12,38.76-.21,58.13-.3,1.16,0,2.32.09,3.48.14,2.16,1.24,2.89,3.12,3.03,5.58.47,8.04,1.12,16.06,1.75,24.09.37,4.71-.82,6.12-5.44,6.15-18.68.13-37.35.24-56.03.35-.49,0-.98-.09-1.47-.13-.64.26-1.31.18-1.97.18-16.43,0-32.85,0-49.28,0-.65,0-1.33.14-1.95-.21Z"/><path class="cls-28" d="m86.78,202.06c17.73.01,35.46.03,53.2.04-6.34.51-12.7.22-19.05.36-3.88.08-7.76.1-11.64.15-6.48,0-12.95.01-19.43-.02-1.04,0-2.17.33-3.08-.53Z"/><path class="cls-1" d="m180.29,93.66c.08.03.16.04.23.08.67.38,1.56.81,1.97,0,.64-1.28-1.45-.08-1.14-1.39.64-.68,1.64-1.72,2.69-.58,1.11,1.21,1.08,2.94.33,4.41-1.01,1.98-3.76,2.48-5.53,1.11-.71-.55-1.35-1.17-2.03-1.76,3.08-1.32-.74-2.29.07-3.54,1.03.09,1.12,1.66,2.25,1.69.38-.29.77-.29,1.17-.03Z"/><path class="cls-25" d="m180.29,93.66c-.39,0-.78.02-1.17.03-.45-2.18-1.86-3.94-2.67-5.96-.19-.48-.91-.77-.34-2,1.72,1.66,3.36,3.15,4.88,4.76.5.52-.24.87-.6,1.09-1.13.67-.37,1.38-.1,2.09Z"/><path class="cls-16" d="m249.4,69.95c.56-2.35.92-4.66,1.68-6.83.53-1.54,1.82-1.07,2.45-.05,1.35,2.18,2.49,4.49,3.7,6.76.15.28.3.65-.13.84-.56.24-1.23.32-1.64-.12-1.51-1.61-2.84-2.09-4.34.08-.27.39-1.61.64-1.71-.67Z"/><path class="cls-13" d="m259.93,72.38c1.53-.8,2.29-.62,3.01-.62,1.35,0,1.71.78.89,1.7-1.41,1.59.02,1.75,1.17,2.15-.95,1.04-1.98.62-2.88.65-1.06.04-1.32-.57-.8-1.43.66-1.09,1.57-2.17-1.39-2.46Z"/><path class="cls-13" d="m264.98,70.19c-.09.55-.41.9-.97.84-.53-.05-.86-.43-.87-.97-.01-.62.44-.79.97-.77.56.02.88.31.87.9Z"/><path class="cls-14" d="m260.57,70.01c.1-.47.37-.73.86-.69.55.04.97.31.98.89,0,.59-.41.91-.97.84-.54-.07-.84-.47-.87-1.03Z"/><path class="cls-37" d="m259.93,70.16c.02.5-.29.82-.7.88-.68.1-1.1-.3-1.14-.98-.02-.48.3-.75.78-.75.55,0,.92.29,1.06.85Z"/><path class="cls-79" d="m116.03,81.63c.83,0,1.66-.06,2.48.01,1.73.14,2.53,1.53,1.54,2.92-1.36,1.9-.91,3.23.81,4.54,3.34,2.54,4.04,6.95,1.65,9.84-2.13,2.57-6.43,2.64-9.14.15-3.2-2.93-3.39-7.02-.33-10.04,1.29-1.27,1.01-2.72.24-3.74-.71-.94-1.79-1.58-1.15-2.89.61-1.27,1.9-.63,2.91-.77.32-.05.66,0,.99,0h0Z"/><path class="cls-28" d="m180.17,171.59c5.95-.89,13.73,5.49,13.52,13.2-.18,6.8-5.11,11.69-12.09,11.78-6.89.09-13.99-6.22-13.49-13.86.42-6.43,5.11-11.12,12.06-11.12Z"/><path class="cls-59" d="m94.03,178.56c.86-.8,1.63-.54,2.33-.55,19.1-.17,38.21-.33,57.31-.45.82,0,2.38-.46,2.35.45-.03,1.28-1.58.65-2.43.66-18.86.17-37.71.29-56.57.4-.92,0-1.94.31-3.01-.52Z"/><path class="cls-65" d="m94.45,184.49c.73-.76,1.52-.51,2.23-.52,8.65-.1,17.29-.17,25.94-.25.42,0,.83,0,1.25,0,.51,0,1.09.07,1.07.71-.02.45-.49.6-.95.59-.33,0-.67,0-1,0-8.81.04-17.63.09-26.44.11-.67,0-1.49.33-2.1-.65Z"/><path class="cls-75" d="m112.72,190.89h-17.74c0-.2,0-.4,0-.6h17.75c0,.2,0,.4,0,.6Z"/><path class="cls-7" d="m136.33,190.71h-11.57c0-.19,0-.38-.01-.58h11.6c0,.19-.01.38-.02.58Z"/><path class="cls-8" d="m139.27,183.9h8.9c0,.21,0,.41,0,.62-2.96.46-5.93.25-8.89.27,0-.3,0-.59,0-.89Z"/><path class="cls-23" d="m252.69,65.44c.58.66,1.1,1.24.63,2.01-.1.17-.72.26-.85.14-.65-.63-.43-1.3.23-2.15Z"/><path class="cls-1" d="m121.84,93.79c.75-.02.95.38.96,1.07.03,1.8-.65,3.23-2.15,4.21-1.68,1.09-3.43,1.01-5.18.13-1.21-.61-2.12-1.54-2.77-2.74-.81-1.5-1.14-2.49,1.32-2.41,2.61.08,5.25.34,7.85-.27h-.03Z"/><path class="cls-2" d="m112.77,91.18c1.31-1.49,2.85-2.88,2.02-5.23-.2-.58.25-.93.85-.84.84.12,2.51-.34,2.37.52-.53,3.29,2.6,4.06,3.74,6.15.54.95-.21,1.27-.83,1.33-2.38.21-4.77.2-7.15.02-1.19-.09-1.49-.88-1-1.95Z"/><path class="cls-51" d="m116.35,84.23c-1.11-.57-2.97.64-3-.97-.02-1.16,1.81-.56,2.77-.54,1.04.03,2.97-.73,2.98.59.01,1.6-1.96.13-2.75.92Z"/><path class="cls-1" d="m112.77,91.18c.06.64-.02,1.46.9,1.47,2.53.02,5.06-.03,7.59-.11.17,0,.33-.49.49-.76.55.47.84.94.02,1.42-2.99.46-5.99.36-8.98.04-1.44-.67-.43-1.37-.02-2.06Z"/><path class="cls-10" d="m112.79,93.24c2.99-.21,5.99-.32,8.98-.04.02.2.04.4.07.59,0,0,.03,0,.03,0-3-.51-6.1.49-9.07-.54Z"/><path class="cls-78" d="m188.26,184.7c-2.78-.12-5.73,2.69-5.61,5.31.06,1.49-.64,2.55-2.03,3.09-1.51.58-2.82.09-3.78-1.09-.99-1.21-1.05-2.58-.15-3.91,1.5-2.22.72-6.21-1.5-7.79-1-.71-1.75-1.63-1.38-2.94.28-1,.95-1.75,2.09-1.88,1.3-.15,2.22.44,2.88,1.54,1.37,2.28,6,3.81,8.39,2.78,1.11-.48,2.14-.36,2.98.49.8.8,1.26,1.75.72,2.93-.51,1.12-1.37,1.62-2.59,1.49Z"/><path class="cls-18" d="m177.66,181.13c.08-1.03.63-1.78,1.87-1.42,1.82.52,3.61,1.15,5.36,1.87,1.29.53,1.42,1.54.44,2.5-1.05,1.04-2.14,2.08-3.36,2.92-1.24.85-2.46.33-2.98-.94-.62-1.51-.88-3.17-1.34-4.92Z"/><path class="cls-4" d="m179.38,192.18c-1.28-.16-2.17-.8-2.19-2.21-.02-1.33.77-1.98,2.05-1.95,1.39.03,2.18.87,2.22,2.2.04,1.29-.75,1.95-2.09,1.97Z"/><path class="cls-55" d="m190.01,182.25c-.12.81-.53,1.34-1.41,1.36-.96.02-1.59-.53-1.68-1.42-.1-.95.52-1.57,1.48-1.51.89.05,1.47.62,1.61,1.57Z"/><path class="cls-22" d="m176.11,176.56c1.03.07,1.66.53,1.71,1.51.05.87-.43,1.43-1.31,1.43-.95,0-1.57-.55-1.65-1.49-.07-.88.5-1.32,1.25-1.45Z"/></g></g></svg>