<svg viewBox="0 0 18 18" fill="none" xmlns="http://www.w3.org/2000/svg">
<path d="M8.325 6.875H14.025V5.375H8.325V6.875ZM8.325 12.625H14.025V11.125H8.325V12.625ZM5.7 7.425C6.0575 7.425 6.36354 7.29771 6.61813 7.04313C6.87271 6.78854 7 6.4825 7 6.125C7 5.7675 6.87271 5.46146 6.61813 5.20687C6.36354 4.95229 6.0575 4.825 5.7 4.825C5.3425 4.825 5.03646 4.95229 4.78188 5.20687C4.52729 5.46146 4.4 5.7675 4.4 6.125C4.4 6.4825 4.52729 6.78854 4.78188 7.04313C5.03646 7.29771 5.3425 7.425 5.7 7.425ZM5.7 13.175C6.0575 13.175 6.36354 13.0477 6.61813 12.7931C6.87271 12.5385 7 12.2325 7 11.875C7 11.5175 6.87271 11.2115 6.61813 10.9569C6.36354 10.7023 6.0575 10.575 5.7 10.575C5.3425 10.575 5.03646 10.7023 4.78188 10.9569C4.52729 11.2115 4.4 11.5175 4.4 11.875C4.4 12.2325 4.52729 12.5385 4.78188 12.7931C5.03646 13.0477 5.3425 13.175 5.7 13.175ZM1.5 18C1.1 18 0.75 17.85 0.45 17.55C0.15 17.25 0 16.9 0 16.5V1.5C0 1.1 0.15 0.75 0.45 0.45C0.75 0.15 1.1 0 1.5 0H16.5C16.9 0 17.25 0.15 17.55 0.45C17.85 0.75 18 1.1 18 1.5V16.5C18 16.9 17.85 17.25 17.55 17.55C17.25 17.85 16.9 18 16.5 18H1.5ZM1.5 16.5H16.5V1.5H1.5V16.5Z" />
</svg>
