<svg width="17" height="16" viewBox="0 0 17 16" fill="none" xmlns="http://www.w3.org/2000/svg">
<path d="M8 6.53215C7.13015 6.53215 6.425 7.22955 6.425 8.08984C6.425 8.95013 7.13015 9.64754 8 9.64754C8.86985 9.64754 9.575 8.95013 9.575 8.08984C9.575 7.22955 8.86985 6.53215 8 6.53215Z" fill="#485F7D"/>
<path fill-rule="evenodd" clip-rule="evenodd" d="M8 3.58984C6.16756 3.58984 4.51961 4.31773 3.33213 5.21909C2.73762 5.67036 2.2498 6.17155 1.90754 6.65931C1.5718 7.13779 1 8.08984 1 8.08984C1 8.08984 1.5718 9.0419 1.90754 9.52037C2.2498 10.0081 2.73762 10.5093 3.33213 10.9606C4.51961 11.862 6.16756 12.5898 8 12.5898C9.83244 12.5898 11.4804 11.862 12.6679 10.9606C13.2624 10.5093 13.7502 10.0081 14.0925 9.52037C14.4282 9.0419 15 8.08984 15 8.08984C15 8.08984 14.4282 7.13779 14.0925 6.65931C13.7502 6.17155 13.2624 5.67036 12.6679 5.21909C11.4804 4.31773 9.83244 3.58984 8 3.58984ZM5.375 8.08984C5.375 6.65603 6.55025 5.49369 8 5.49369C9.44975 5.49369 10.625 6.65603 10.625 8.08984C10.625 9.52366 9.44975 10.686 8 10.686C6.55025 10.686 5.375 9.52366 5.375 8.08984Z" fill="#485F7D"/>
</svg>
