<svg width="24" height="24" viewBox="0 0 24 24" fill="none" xmlns="http://www.w3.org/2000/svg">
<path d="M17.7143 18.8571C17.7143 19.4883 18.226 20 18.8571 20C19.4883 20 20 19.4883 20 18.8571C20 18.226 19.4883 17.7143 18.8571 17.7143C18.226 17.7143 17.7143 18.226 17.7143 18.8571Z" stroke="white" stroke-width="2" stroke-linecap="round" stroke-linejoin="round"/>
<path d="M10.8571 18.8571C10.8571 19.4883 11.3688 20 12 20C12.6312 20 13.1429 19.4883 13.1429 18.8571C13.1429 18.226 12.6312 17.7143 12 17.7143C11.3688 17.7143 10.8571 18.226 10.8571 18.8571Z" stroke="white" stroke-width="2" stroke-linecap="round" stroke-linejoin="round"/>
<path d="M4 18.8571C4 19.4883 4.51167 20 5.14286 20C5.77404 20 6.28571 19.4883 6.28571 18.8571C6.28571 18.226 5.77404 17.7143 5.14286 17.7143C4.51167 17.7143 4 18.226 4 18.8571Z" stroke="white" stroke-width="2" stroke-linecap="round" stroke-linejoin="round"/>
<path d="M17.7143 12C17.7143 12.6312 18.226 13.1429 18.8571 13.1429C19.4883 13.1429 20 12.6312 20 12C20 11.3688 19.4883 10.8571 18.8571 10.8571C18.226 10.8571 17.7143 11.3688 17.7143 12Z" stroke="white" stroke-width="2" stroke-linecap="round" stroke-linejoin="round"/>
<path d="M10.8571 12C10.8571 12.6312 11.3688 13.1429 12 13.1429C12.6312 13.1429 13.1429 12.6312 13.1429 12C13.1429 11.3688 12.6312 10.8571 12 10.8571C11.3688 10.8571 10.8571 11.3688 10.8571 12Z" stroke="white" stroke-width="2" stroke-linecap="round" stroke-linejoin="round"/>
<path d="M4 12C4 12.6312 4.51167 13.1429 5.14286 13.1429C5.77404 13.1429 6.28571 12.6312 6.28571 12C6.28571 11.3688 5.77404 10.8571 5.14286 10.8571C4.51167 10.8571 4 11.3688 4 12Z" stroke="white" stroke-width="2" stroke-linecap="round" stroke-linejoin="round"/>
<path d="M17.7143 5.14286C17.7143 5.77404 18.226 6.28571 18.8571 6.28571C19.4883 6.28571 20 5.77404 20 5.14286C20 4.51167 19.4883 4 18.8571 4C18.226 4 17.7143 4.51167 17.7143 5.14286Z" stroke="white" stroke-width="2" stroke-linecap="round" stroke-linejoin="round"/>
<path d="M10.8571 5.14286C10.8571 5.77404 11.3688 6.28571 12 6.28571C12.6312 6.28571 13.1429 5.77404 13.1429 5.14286C13.1429 4.51167 12.6312 4 12 4C11.3688 4 10.8571 4.51167 10.8571 5.14286Z" stroke="white" stroke-width="2" stroke-linecap="round" stroke-linejoin="round"/>
<path d="M4 5.14286C4 5.77404 4.51167 6.28571 5.14286 6.28571C5.77404 6.28571 6.28571 5.77404 6.28571 5.14286C6.28571 4.51167 5.77404 4 5.14286 4C4.51167 4 4 4.51167 4 5.14286Z" stroke="white" stroke-width="2" stroke-linecap="round" stroke-linejoin="round"/>
</svg>
