<svg width="18" height="12" viewBox="0 0 18 12" fill="none" xmlns="http://www.w3.org/2000/svg">
<path d="M17.3236 10.9985V11.0015C17.3236 11.0763 17.3203 11.1526 17.3189 11.2288L17.3081 11.8327H12.8066L12.816 11.1998C12.816 11.1053 12.8183 11.0118 12.8192 10.9193C12.8277 10.218 12.8357 9.55804 12.9403 8.89759C13.1117 7.82769 14.1073 7.0767 15.2573 7.1456C16.313 7.20957 17.2095 8.09689 17.2983 9.16335C17.348 9.77261 17.3363 10.3681 17.3236 10.9985Z" fill="#243A57"/>
<path d="M4.36721 5.13178C4.37169 5.33481 4.33769 5.53676 4.26718 5.72591C4.19666 5.91506 4.09104 6.08765 3.95642 6.23368C3.82181 6.37971 3.66089 6.49628 3.48299 6.57661C3.30508 6.65695 3.11374 6.69946 2.92005 6.70169H2.87921C2.50374 6.69772 2.14495 6.53855 1.88079 6.25877C1.73991 6.11498 1.62759 5.94336 1.55033 5.75381C1.47307 5.56426 1.43239 5.36054 1.43064 5.15442C1.42907 4.95213 1.46551 4.7515 1.5379 4.56399C1.61028 4.37647 1.71718 4.20573 1.8525 4.06153C1.98782 3.91733 2.1489 3.80248 2.32656 3.72355C2.50421 3.64461 2.69495 3.60314 2.88789 3.60149C3.08083 3.59984 3.2722 3.63805 3.45105 3.71394C3.62991 3.78983 3.79276 3.90191 3.9303 4.04378C4.06784 4.18566 4.17738 4.35454 4.25267 4.5408C4.32796 4.72705 4.36751 4.92703 4.36909 5.12932L4.36721 5.13178Z" fill="#243A57"/>
<path d="M7.74361 3.44573C7.3954 3.0931 7.19488 2.61002 7.18608 2.10254C7.17728 1.59506 7.36092 1.10465 7.69667 0.73899C7.85945 0.560817 8.05444 0.418404 8.27026 0.320054C8.48608 0.221703 8.71842 0.169384 8.95372 0.166145H8.9847C9.4641 0.160294 9.92644 0.352455 10.2718 0.701096C10.4415 0.876619 10.5761 1.08583 10.6678 1.3165C10.7596 1.54718 10.8065 1.79471 10.806 2.04462V2.06529C10.806 3.07614 10.1296 3.86207 9.18044 3.96739L8.91101 4.05893L8.82417 3.9728C8.41677 3.93306 8.03502 3.74685 7.74361 3.44573Z" fill="#243A57"/>
<path d="M5.07929 9.01571C5.14595 9.64711 5.13046 10.2741 5.11403 10.935L5.0929 11.8297H0.698843L0.680536 10.9518C0.666923 10.2943 0.650494 9.67172 0.713863 9.04277C0.81807 7.98173 1.77283 7.14658 2.88719 7.14166H2.89611C4.00906 7.14166 4.96898 7.965 5.07929 9.01571Z" fill="#243A57"/>
<path d="M12.3174 7.59737C12.3381 8.58164 12.3334 9.57133 12.3287 10.53C12.3287 10.7579 12.3264 10.9857 12.3254 11.2151L12.3231 11.8297H5.66604V11.1457C5.66604 10.7972 5.66604 10.4498 5.66276 10.1014V10.058C5.65947 9.29671 5.65618 8.50979 5.67355 7.73665C5.70453 6.30503 6.33588 5.26564 7.55115 4.64654C8.74343 4.03924 9.9451 4.16621 11.028 5.01465C11.8485 5.66083 12.2954 6.55307 12.3174 7.59737Z" fill="#243A57"/>
<path d="M16.535 5.13326V5.1559C16.535 6.02205 15.9159 6.68496 15.0855 6.70169H15.055C14.6777 6.69629 14.3173 6.53748 14.0495 6.25877C13.9088 6.11542 13.7966 5.94431 13.7193 5.75528C13.6419 5.56625 13.601 5.36305 13.5989 5.15737C13.5994 4.75393 13.7509 4.36681 14.021 4.07943C14.2911 3.79204 14.658 3.62738 15.0428 3.62093H15.0606C15.4499 3.61227 15.8268 3.76426 16.1102 4.04416C16.2463 4.18718 16.3539 4.35709 16.4268 4.54405C16.4997 4.731 16.5365 4.93128 16.535 5.13326Z" fill="#243A57"/>
</svg>
