<svg width="16" height="20" viewBox="0 0 16 20" fill="none" xmlns="http://www.w3.org/2000/svg">
<path fill-rule="evenodd" clip-rule="evenodd" d="M9.94872 0.248718C9.94872 0.111355 9.83736 0 9.7 0H2.7359C1.2249 0 0 1.2249 0 2.7359V16.6641C0 18.1751 1.2249 19.4 2.7359 19.4H12.6846C14.1956 19.4 15.4205 18.1751 15.4205 16.6641V6.86169C15.4205 6.72433 15.3092 6.61297 15.1718 6.61297H10.6949C10.2828 6.61297 9.94872 6.27891 9.94872 5.86682V0.248718ZM10.6949 9.94872C11.107 9.94872 11.441 10.2828 11.441 10.6949C11.441 11.107 11.107 11.441 10.6949 11.441H4.72564C4.31355 11.441 3.97949 11.107 3.97949 10.6949C3.97949 10.2828 4.31355 9.94872 4.72564 9.94872H10.6949ZM10.6949 13.9282C11.107 13.9282 11.441 14.2623 11.441 14.6744C11.441 15.0864 11.107 15.4205 10.6949 15.4205H4.72564C4.31355 15.4205 3.97949 15.0864 3.97949 14.6744C3.97949 14.2623 4.31355 13.9282 4.72564 13.9282H10.6949Z" fill="#485F7D"/>
<path d="M11.441 0.571191C11.441 0.387642 11.6327 0.271098 11.7755 0.386395C11.8958 0.483507 12.0039 0.597279 12.0962 0.725808L15.0939 4.90218C15.1621 4.99726 15.0882 5.12066 14.9712 5.12066H11.6897C11.5524 5.12066 11.441 5.00931 11.441 4.87195V0.571191Z" fill="#485F7D"/>
</svg>
