<svg width="24" height="24" viewBox="0 0 24 24" fill="none" xmlns="http://www.w3.org/2000/svg">
<g id="summarize_FILL0_wght400_GRAD0_opsz24">
<path id="Vector" d="M8 9C8.28333 9 8.52083 8.90417 8.7125 8.7125C8.90417 8.52083 9 8.28333 9 8C9 7.71667 8.90417 7.47917 8.7125 7.2875C8.52083 7.09583 8.28333 7 8 7C7.71667 7 7.47917 7.09583 7.2875 7.2875C7.09583 7.47917 7 7.71667 7 8C7 8.28333 7.09583 8.52083 7.2875 8.7125C7.47917 8.90417 7.71667 9 8 9ZM8 13C8.28333 13 8.52083 12.9042 8.7125 12.7125C8.90417 12.5208 9 12.2833 9 12C9 11.7167 8.90417 11.4792 8.7125 11.2875C8.52083 11.0958 8.28333 11 8 11C7.71667 11 7.47917 11.0958 7.2875 11.2875C7.09583 11.4792 7 11.7167 7 12C7 12.2833 7.09583 12.5208 7.2875 12.7125C7.47917 12.9042 7.71667 13 8 13ZM8 17C8.28333 17 8.52083 16.9042 8.7125 16.7125C8.90417 16.5208 9 16.2833 9 16C9 15.7167 8.90417 15.4792 8.7125 15.2875C8.52083 15.0958 8.28333 15 8 15C7.71667 15 7.47917 15.0958 7.2875 15.2875C7.09583 15.4792 7 15.7167 7 16C7 16.2833 7.09583 16.5208 7.2875 16.7125C7.47917 16.9042 7.71667 17 8 17ZM5 21C4.45 21 3.97917 20.8042 3.5875 20.4125C3.19583 20.0208 3 19.55 3 19V5C3 4.45 3.19583 3.97917 3.5875 3.5875C3.97917 3.19583 4.45 3 5 3H15.1716C15.702 3 16.2107 3.21071 16.5858 3.58579L20.4142 7.41421C20.7893 7.78929 21 8.29799 21 8.82843V19C21 19.55 20.8042 20.0208 20.4125 20.4125C20.0208 20.8042 19.55 21 19 21H5ZM5 19H19V9H17C15.8954 9 15 8.10457 15 7V5H5V19Z" fill="#51CC18"/>
</g>
</svg>
