<svg viewBox="0 0 18 16" fill="none" xmlns="http://www.w3.org/2000/svg">
<path fill-rule="evenodd" clip-rule="evenodd" d="M10.125 3.3C10.125 5.12254 8.61396 6.6 6.75 6.6C4.88604 6.6 3.375 5.12254 3.375 3.3C3.375 1.47746 4.88604 0 6.75 0C8.61396 0 10.125 1.47746 10.125 3.3ZM6.75 15.3814C13.5 15.3814 13.5 13.9039 13.5 12.0814C13.5 10.2588 10.4779 8.78135 6.75 8.78135C3.02208 8.78135 0 10.2588 0 12.0814C0 13.9039 5.33411e-07 15.3814 6.75 15.3814Z"/>
<path d="M16.072 4.88135L17.464 6.27331C17.76 6.56934 17.76 7.0493 17.464 7.34534C17.168 7.64137 16.688 7.64137 16.392 7.34534L15 5.95337L13.608 7.34534C13.312 7.64137 12.832 7.64137 12.536 7.34534C12.24 7.0493 12.24 6.56934 12.536 6.27331L13.928 4.88135L12.536 3.48938C12.24 3.19335 12.24 2.71339 12.536 2.41736C12.832 2.12133 13.312 2.12133 13.608 2.41736L15 3.80932L16.392 2.41736C16.688 2.12133 17.168 2.12133 17.464 2.41736C17.76 2.71339 17.76 3.19335 17.464 3.48938L16.072 4.88135Z"/>
</svg>
