<svg width="20" height="21" viewBox="0 0 20 21" fill="none" xmlns="http://www.w3.org/2000/svg">
<g id="Bold / Security / Shield Plus">
<path id="Vector" fill-rule="evenodd" clip-rule="evenodd" d="M2.8146 4.73542C2.5 5.18365 2.5 6.51597 2.5 9.18063V10.4929C2.5 15.1913 6.03247 17.4713 8.2488 18.4395C8.85001 18.7021 9.15062 18.8334 10 18.8334C10.8494 18.8334 11.15 18.7021 11.7512 18.4395C13.9675 17.4713 17.5 15.1913 17.5 10.4929V9.18063C17.5 6.51597 17.5 5.18365 17.1854 4.73542C16.8708 4.2872 15.6181 3.85838 13.1126 3.00074L12.6352 2.83735C11.3292 2.39028 10.6762 2.16675 10 2.16675C9.32384 2.16675 8.67082 2.39028 7.36477 2.83735L6.88743 3.00074C4.38194 3.85838 3.12919 4.2872 2.8146 4.73542ZM10.625 8.00008C10.625 7.6549 10.3452 7.37508 10 7.37508C9.65482 7.37508 9.375 7.6549 9.375 8.00008L9.375 9.8751H7.5C7.15482 9.8751 6.875 10.1549 6.875 10.5001C6.875 10.8453 7.15482 11.1251 7.5 11.1251H9.375V13.0001C9.375 13.3453 9.65482 13.6251 10 13.6251C10.3452 13.6251 10.625 13.3453 10.625 13.0001V11.1251H12.5C12.8452 11.1251 13.125 10.8453 13.125 10.5001C13.125 10.1549 12.8452 9.8751 12.5 9.8751H10.625L10.625 8.00008Z" fill="white"/>
</g>
</svg>
