<svg width="48" height="48" viewBox="0 0 48 48" fill="none" xmlns="http://www.w3.org/2000/svg">
<path d="M24.5 44C35.5457 44 44.5 35.0457 44.5 24C44.5 12.9543 35.5457 4 24.5 4C13.4543 4 4.5 12.9543 4.5 24C4.5 35.0457 13.4543 44 24.5 44Z" fill="#5C74FC" stroke="#5C74FC" stroke-width="1.5" stroke-linecap="round" stroke-linejoin="round"/>
<circle cx="18.75" cy="20.25" r="2.25" fill="white"/>
<circle cx="30.75" cy="20.25" r="2.25" fill="white"/>
<path d="M24.7837 29.3396C27.2044 29.3396 29.625 29.3466 32.0457 29.3339C32.6108 29.3311 32.9383 29.6517 33.1661 30.0875C33.3811 30.4995 33.2617 30.8988 32.9805 31.2615C29.8767 35.2784 24.3423 36.5283 19.8355 34.2113C18.434 33.4914 17.2448 32.503 16.2861 31.2447C15.7631 30.5585 15.9726 29.7839 16.7795 29.5013C17.0578 29.4042 17.3657 29.3452 17.6609 29.3438C20.0352 29.3311 22.4094 29.3368 24.7823 29.3368L24.7837 29.3396Z" fill="white"/>
</svg>
