<svg viewBox="0 0 32 32" fill="none" xmlns="http://www.w3.org/2000/svg">
<g clip-path="url(#clip0_2082_44377)">
<g clip-path="url(#clip1_2082_44377)">
<path d="M16.0005 29C8.80764 29.0009 2.98996 23.1822 3.00001 15.9982C3.01006 8.80867 8.82683 2.98541 16.0105 3.00003C23.1942 3.01465 28.9297 8.77212 28.9991 15.8629C29.0722 23.3065 23.016 29.0494 15.9996 29H16.0005ZM15.9968 4.3736C9.57882 4.37177 4.37517 9.58091 4.37608 16.0156C4.37608 22.3735 9.48288 27.5369 15.8095 27.6338C22.3993 27.7352 27.6203 22.4118 27.6258 16.032C27.6303 9.59462 22.434 4.37542 15.9968 4.3736Z" fill="#FF49AA"/>
<path d="M15.9957 4.37305C22.432 4.37488 27.6293 9.59407 27.6247 16.0315C27.6201 22.4113 22.3982 27.7347 15.8084 27.6332C9.48089 27.5354 4.375 22.372 4.375 16.015C4.375 9.58127 9.57865 4.37122 15.9957 4.37305ZM15.9044 22.9295C17.4476 22.9295 18.9909 22.9331 20.5333 22.9249C20.7252 22.924 20.9244 22.8856 21.1062 22.8225C21.6307 22.6398 21.7668 22.1353 21.4269 21.6893C20.8037 20.8723 20.0307 20.2298 19.1198 19.761C16.1904 18.2549 12.593 19.0674 10.5755 21.6784C10.3928 21.9141 10.3151 22.1746 10.4549 22.4414C10.6029 22.7248 10.8158 22.9331 11.1832 22.9313C12.7566 22.9231 14.33 22.9276 15.9034 22.9285L15.9044 22.9295ZM18.4765 13.6965C18.4774 14.4632 19.0823 15.0765 19.8425 15.0801C20.6082 15.0838 21.2295 14.4578 21.225 13.6864C21.2204 12.9343 20.6137 12.3238 19.8663 12.3184C19.0859 12.312 18.4756 12.9179 18.4765 13.6974V13.6965ZM11.0909 13.68C11.079 14.4468 11.6757 15.0673 12.4368 15.081C13.1906 15.0938 13.8211 14.4843 13.8384 13.7267C13.8558 12.9581 13.2427 12.3266 12.4724 12.3193C11.704 12.311 11.1027 12.9032 11.0909 13.681V13.68Z" fill="white"/>
<path d="M16.0935 19.0134C17.6669 19.0134 19.2403 19.018 20.8138 19.0098C21.1811 19.0079 21.394 19.2163 21.542 19.4996C21.6818 19.7674 21.6041 20.0269 21.4214 20.2627C19.4039 22.8737 15.8066 23.6861 12.8772 22.18C11.9662 21.7121 11.1932 21.0697 10.57 20.2517C10.2301 19.8058 10.3663 19.3022 10.8907 19.1185C11.0716 19.0555 11.2718 19.0171 11.4636 19.0162C13.0069 19.008 14.5502 19.0116 16.0926 19.0116L16.0935 19.0134Z" fill="#FF49AA"/>
<path d="M18.4766 13.6974C18.4756 12.9179 19.086 12.3129 19.8663 12.3184C20.6147 12.3239 21.2214 12.9353 21.225 13.6865C21.2296 14.4578 20.6083 15.0847 19.8426 15.0802C19.0824 15.0765 18.4775 14.4633 18.4766 13.6965V13.6974Z" fill="#FF49AA"/>
<path d="M11.091 13.6801C11.1029 12.9024 11.7032 12.3102 12.4725 12.3184C13.2428 12.3267 13.8559 12.9582 13.8386 13.7258C13.8212 14.4843 13.1907 15.0939 12.4369 15.0802C11.6758 15.0665 11.0791 14.446 11.091 13.6792V13.6801Z" fill="#FF49AA"/>
</g>
</g>
<defs>
<clipPath id="clip0_2082_44377">
<rect width="32" height="32" fill="white"/>
</clipPath>
<clipPath id="clip1_2082_44377">
<rect width="26" height="26" fill="white" transform="translate(3 3)"/>
</clipPath>
</defs>
</svg>
