<svg width="13" height="13" viewBox="0 0 13 13" fill="none" xmlns="http://www.w3.org/2000/svg">
<path d="M0 9.4282V0.7021C0 0.546078 0.0704167 0.390056 0.21125 0.234033C0.352083 0.0780111 0.498333 0 0.65 0H9.08375C9.24625 0 9.39792 0.0752251 9.53875 0.225675C9.67958 0.376125 9.75 0.534934 9.75 0.7021V6.65324C9.75 6.80926 9.67958 6.96528 9.53875 7.1213C9.39792 7.27732 9.24625 7.35534 9.08375 7.35534H2.6L0.4225 9.59537C0.346667 9.67338 0.257292 9.69288 0.154375 9.65388C0.0514583 9.61487 0 9.53965 0 9.4282ZM3.26625 10.6987C3.11458 10.6987 2.96563 10.6207 2.81938 10.4646C2.67313 10.3086 2.6 10.1526 2.6 9.99657V8.35834H10.725V2.67467H12.35C12.5017 2.67467 12.6479 2.75268 12.7887 2.9087C12.9296 3.06472 13 3.22632 13 3.39348V12.7548C13 12.8663 12.9485 12.9415 12.8456 12.9805C12.7427 13.0195 12.6533 13 12.5775 12.922L10.4162 10.6987H3.26625ZM8.775 1.003H0.975V6.35234H8.775V1.003Z"/>
</svg>
