<svg version="1.0" xmlns="http://www.w3.org/2000/svg" width="20" height="20" viewBox="0 0 512.000000 512.000000">
<g transform="translate(0.000000,512.000000) scale(0.100000,-0.100000)"
fill="#000000" stroke="none">
<path d="M830 5104 c-42 -18 -86 -58 -108 -99 -15 -27 -17 -109 -20 -871 l-3
-842 -92 -4 c-112 -5 -179 -32 -235 -92 -81 -88 -77 -39 -77 -946 0 -801 0
-805 21 -851 54 -116 140 -169 291 -177 l92 -5 3 -536 c3 -588 1 -562 65 -623
65 -62 -61 -58 1793 -58 1854 0 1728 -4 1793 58 64 61 62 35 65 623 l3 536 92
5 c151 8 237 61 291 177 21 46 21 50 21 851 0 907 4 858 -77 946 -56 60 -123
87 -235 92 l-93 4 -1 302 c-1 165 -4 312 -8 326 -8 30 -994 1160 -1033 1184
-24 15 -138 16 -1270 16 -1088 -1 -1247 -3 -1278 -16z m2400 -714 l0 -530 29
-32 29 -33 466 -3 466 -3 0 -249 0 -250 -1660 0 -1660 0 0 815 0 815 1165 0
1165 0 0 -530z m-1136 -1414 c38 -9 88 -23 111 -32 l42 -16 -35 -131 c-19 -73
-35 -133 -36 -134 0 -1 -39 10 -86 24 -114 33 -304 42 -403 19 -90 -21 -159
-58 -222 -117 -95 -90 -142 -230 -131 -389 17 -234 125 -375 330 -435 44 -13
86 -16 170 -13 61 2 117 7 124 11 9 6 12 50 12 163 l0 154 -115 0 -115 0 0
135 0 135 278 -2 277 -3 0 -395 0 -394 -45 -14 c-179 -53 -421 -79 -580 -63
-139 14 -217 35 -320 83 -70 33 -100 56 -170 127 -141 142 -200 293 -201 511
-1 235 57 401 191 544 116 123 273 206 459 241 97 18 366 13 465 -9z m806
-736 l0 -750 -170 0 -170 0 0 750 0 750 170 0 170 0 0 -750z m1210 610 l0
-140 -287 -2 -288 -3 -3 -167 -2 -168 270 0 270 0 0 -140 0 -140 -270 0 -270
0 0 -300 0 -300 -170 0 -170 0 0 743 c0 409 3 747 7 750 3 4 210 7 460 7 l453
0 0 -140z m110 -2110 l0 -480 -1660 0 -1660 0 0 480 0 480 1660 0 1660 0 0
-480z"/>
</g>
</svg>
