<svg viewBox="0 0 15 17" fill="none" xmlns="http://www.w3.org/2000/svg">
<path fill-rule="evenodd" clip-rule="evenodd" d="M2.25252 0.0416054C2.16674 0.110121 2.03775 0.513363 1.96099 0.953324C1.87896 1.42336 1.90463 2.05469 2.02334 2.48676L2.11193 2.80926L1.97842 2.95703C1.64732 3.32352 1.31181 3.96371 1.16556 4.50801C1.05623 4.91504 1.01689 5.9159 1.08674 6.51414C1.21521 7.61457 1.59502 8.5334 2.19892 9.20469C2.61681 9.66922 3.36248 10.1218 4.11744 10.3691C4.52158 10.5015 5.46967 10.6994 5.69963 10.6994C5.76263 10.6994 5.8142 10.7089 5.8142 10.7206C5.8142 10.7323 5.7451 10.8334 5.66064 10.9452C5.4599 11.2112 5.32224 11.5131 5.24603 11.8547L5.18439 12.131L5.00127 12.1957C4.47912 12.3802 3.84619 12.4314 3.4365 12.3223C2.93744 12.1895 2.50869 11.8678 2.19595 11.3917C2.09408 11.2365 1.9406 11.0244 1.8549 10.9203C1.64127 10.6607 1.20529 10.3632 0.900799 10.2691C0.47701 10.1382 0.0349394 10.1831 0.000759733 10.3605C-0.0154903 10.445 0.230642 10.6903 0.575486 10.9333C0.917049 11.174 1.20701 11.5605 1.50092 12.1668C1.7992 12.7822 2.00564 13.0703 2.3176 13.3063C2.98228 13.8092 3.81881 13.9526 4.98412 13.7633L5.15013 13.7363V14.7092C5.15013 15.8046 5.1497 15.8064 4.86174 15.9371C4.70189 16.0098 4.71197 16.0102 6.54025 16.0111C7.55189 16.0115 8.91017 16.0003 9.55865 15.9861C10.6536 15.9621 10.729 15.956 10.6147 15.9006C10.3884 15.7911 10.3845 15.7569 10.3842 13.8745C10.384 12.3061 10.3776 12.1375 10.3067 11.8421C10.2155 11.4615 10.0462 11.1091 9.85052 10.8925C9.77295 10.8067 9.71634 10.7306 9.72474 10.7236C9.7331 10.7165 9.94213 10.6809 10.1892 10.6444C11.4956 10.4512 12.4569 10.0448 13.148 9.39324C13.5461 9.01801 13.761 8.72434 13.9947 8.23629C14.356 7.48164 14.498 6.76227 14.4994 5.67988C14.5003 4.99985 14.4917 4.905 14.3969 4.54707C14.2685 4.06227 13.9347 3.38828 13.6489 3.03703L13.4373 2.77699L13.5171 2.52922C13.5738 2.35309 13.6026 2.13332 13.6167 1.7691C13.6387 1.20133 13.6015 0.901097 13.4444 0.379027C13.3517 0.0711367 13.3317 0.0368007 13.2313 0.0147695C12.7978 -0.0804258 11.7226 0.294262 10.809 0.858871L10.4242 1.09672L10.1652 1.03176C8.709 0.666566 7.05818 0.660746 5.47385 1.01528L5.11396 1.09578L4.9465 0.982074C4.42924 0.630824 3.57674 0.230082 3.06029 0.0954335C2.70732 0.00340226 2.33178 -0.0216367 2.25252 0.0416054Z" />
</svg>
