<svg width="32" height="32" viewBox="0 0 32 32" fill="none" xmlns="http://www.w3.org/2000/svg">
<g id="analytics-01">
<path id="Vector" d="M9.3335 22.6663V17.333" stroke="#243A57" stroke-width="2" stroke-linecap="round"/>
<path id="Vector_2" d="M16 22.6663V9.33301" stroke="#243A57" stroke-width="2" stroke-linecap="round"/>
<path id="Vector_3" d="M22.6665 22.667V14.667" stroke="#243A57" stroke-width="2" stroke-linecap="round"/>
<path id="Vector_4" d="M3.3335 15.9997C3.3335 10.0286 3.3335 7.04299 5.18848 5.18799C7.04348 3.33301 10.029 3.33301 16.0002 3.33301C21.9712 3.33301 24.9568 3.33301 26.8119 5.18799C28.6668 7.04299 28.6668 10.0286 28.6668 15.9997C28.6668 21.9707 28.6668 24.9563 26.8119 26.8114C24.9568 28.6663 21.9712 28.6663 16.0002 28.6663C10.029 28.6663 7.04348 28.6663 5.18848 26.8114C3.3335 24.9563 3.3335 21.9707 3.3335 15.9997Z" stroke="#243A57" stroke-width="2" stroke-linejoin="round"/>
</g>
</svg>
