<svg width="24" height="25" viewBox="0 0 24 25" fill="none" xmlns="http://www.w3.org/2000/svg">
<path d="M11.25 15.6961H12.75V13.5961H14.85V12.0961H12.75V9.99609H11.25V12.0961H9.15V13.5961H11.25V15.6961ZM4 19.8711V18.3711H6.1V10.7211C6.1 9.31819 6.5125 8.07164 7.3375 6.98142C8.1625 5.8912 9.25 5.20443 10.6 4.92109V4.19609C10.6 3.81276 10.7355 3.49609 11.0066 3.24609C11.2777 2.99609 11.6069 2.87109 11.9941 2.87109C12.3814 2.87109 12.7125 2.99609 12.9875 3.24609C13.2625 3.49609 13.4 3.81276 13.4 4.19609V4.92109C14.75 5.20443 15.8417 5.8912 16.675 6.98142C17.5083 8.07164 17.925 9.31819 17.925 10.7211V18.3711H20V19.8711H4ZM12 22.8711C11.4667 22.8711 11 22.6753 10.6 22.2836C10.2 21.8919 10 21.4211 10 20.8711H14C14 21.4211 13.8042 21.8919 13.4125 22.2836C13.0208 22.6753 12.55 22.8711 12 22.8711ZM7.6 18.3711H16.425V10.7211C16.425 9.48776 16 8.43776 15.15 7.57109C14.3 6.70443 13.2583 6.27109 12.025 6.27109C10.7917 6.27109 9.74583 6.70443 8.8875 7.57109C8.02917 8.43776 7.6 9.48776 7.6 10.7211V18.3711Z" fill="#4053FF"/>
</svg>
