<svg width="16" height="20" viewBox="0 0 16 20" fill="none" xmlns="http://www.w3.org/2000/svg">
<path d="M7.25 12.825H8.75V10.725H10.85V9.225H8.75V7.125H7.25V9.225H5.15V10.725H7.25V12.825ZM0 17V15.5H2.1V7.85C2.1 6.4471 2.5125 5.20054 3.3375 4.11033C4.1625 3.02011 5.25 2.33333 6.6 2.05V1.325C6.6 0.941667 6.73554 0.625 7.00663 0.375C7.27769 0.125 7.60686 0 7.99413 0C8.38138 0 8.7125 0.125 8.9875 0.375C9.2625 0.625 9.4 0.941667 9.4 1.325V2.05C10.75 2.33333 11.8417 3.02011 12.675 4.11033C13.5083 5.20054 13.925 6.4471 13.925 7.85V15.5H16V17H0ZM8 20C7.46667 20 7 19.8042 6.6 19.4125C6.2 19.0208 6 18.55 6 18H10C10 18.55 9.80417 19.0208 9.4125 19.4125C9.02083 19.8042 8.55 20 8 20ZM3.6 15.5H12.425V7.85C12.425 6.61667 12 5.56667 11.15 4.7C10.3 3.83333 9.25833 3.4 8.025 3.4C6.79167 3.4 5.74583 3.83333 4.8875 4.7C4.02917 5.56667 3.6 6.61667 3.6 7.85V15.5Z" fill="#4053FF"/>
</svg>
