<svg width="20" height="20" viewBox="0 0 20 20" fill="none" xmlns="http://www.w3.org/2000/svg">
<g id="Tick" clip-path="url(#clip0_1273_10289)">
<path id="Vector" d="M10 0C8.02219 0 6.08879 0.58649 4.4443 1.6853C2.79981 2.78412 1.51809 4.3459 0.761209 6.17316C0.00433286 8.00043 -0.1937 10.0111 0.192152 11.9509C0.578004 13.8907 1.53041 15.6725 2.92894 17.0711C4.32746 18.4696 6.10929 19.422 8.0491 19.8078C9.98891 20.1937 11.9996 19.9957 13.8268 19.2388C15.6541 18.4819 17.2159 17.2002 18.3147 15.5557C19.4135 13.9112 20 11.9778 20 10C19.9986 7.34827 18.9445 4.80557 17.0695 2.93052C15.1944 1.05547 12.6517 0.00143775 10 0ZM7.28683 14.2915L3.70078 10.7015C3.51379 10.5146 3.40874 10.261 3.40874 9.99651C3.40874 9.73207 3.51379 9.47846 3.70078 9.29147C3.88777 9.10448 4.14138 8.99943 4.40582 8.99943C4.67026 8.99943 4.92387 9.10448 5.11086 9.29147L8.00078 12.1705L14.8837 5.2907C15.0707 5.10371 15.3243 4.99866 15.5888 4.99866C15.8532 4.99866 16.1068 5.10371 16.2938 5.2907C16.4808 5.47768 16.5858 5.73129 16.5858 5.99574C16.5858 6.26018 16.4808 6.51379 16.2938 6.70077L8.70233 14.2915C8.60978 14.3844 8.49978 14.4581 8.37866 14.5085C8.25754 14.5588 8.12767 14.5847 7.99651 14.5847C7.86536 14.5847 7.73549 14.5588 7.61437 14.5085C7.49325 14.4581 7.38325 14.3844 7.2907 14.2915H7.28683Z" fill="#2ED47A"/>
</g>
<defs>
<clipPath id="clip0_1273_10289">
<rect width="20" height="20" fill="white"/>
</clipPath>
</defs>
</svg>
