<svg width="20" height="20" viewBox="0 0 20 20" fill="none" xmlns="http://www.w3.org/2000/svg">
<g id="call_split_FILL0_wght400_GRAD0_opsz48">
<path id="like 1 (Traced)" fill-rule="evenodd" clip-rule="evenodd" d="M10.3385 1.20347C10.2634 1.2308 10.1403 1.31188 10.065 1.3836C9.84101 1.59692 9.8247 1.69943 9.8247 2.89511V3.93685L9.72882 4.06315C9.41145 4.48118 8.05986 5.9812 6.83024 7.28008L6.27372 7.86792L6.27407 12.3713L6.27446 16.8747L7.10908 17.1748C8.00656 17.4974 8.35582 17.6074 8.76995 17.6976C9.51921 17.861 9.52856 17.8614 12.9172 17.8764C15.1972 17.8865 16.1996 17.8795 16.3627 17.8522C17.2026 17.7116 17.8417 16.9711 17.8403 16.1399C17.8398 15.8215 17.7781 15.5854 17.6236 15.3108L17.5056 15.101L17.7171 14.89C17.9486 14.6591 18.0921 14.4058 18.1791 14.0745C18.2853 13.6701 18.1938 13.1106 17.9668 12.776L17.8812 12.6498L18.1002 12.4309C18.6579 11.8735 18.7697 11.0761 18.3863 10.3908L18.2689 10.1809L18.4521 10.0044C19.1746 9.3087 19.1835 8.2662 18.4732 7.56251C18.3315 7.42215 18.1589 7.29369 18.0204 7.22553C17.612 7.02448 17.5408 7.01914 15.2478 7.01848C14.1021 7.01818 13.1647 7.00909 13.1647 6.99829C13.1647 6.98753 13.2935 6.54512 13.451 6.01515L13.7373 5.05161L13.7165 4.41481C13.692 3.65952 13.6271 3.35195 13.3929 2.88136C12.9039 1.89845 11.9011 1.24232 10.7818 1.17279C10.5594 1.15897 10.4376 1.1674 10.3385 1.20347ZM1 12.1092V17.5433H3.10949H5.21898V12.1092V6.67506H3.10949H1V12.1092Z" fill="#2ED47A"/>
</g>
</svg>
