<svg width="14" height="14" viewBox="0 0 14 14" fill="none" xmlns="http://www.w3.org/2000/svg">
<g id="Bold Duotone / Time / Calendar">
<path id="Vector" d="M4.04849 1.16666C4.29107 1.16666 4.48773 1.35578 4.48773 1.58907V2.44116C4.87734 2.4339 5.31406 2.4339 5.80544 2.4339H8.14804C8.63942 2.4339 9.07613 2.4339 9.46575 2.44116V1.58907C9.46575 1.35578 9.6624 1.16666 9.90498 1.16666C10.1476 1.16666 10.3442 1.35578 10.3442 1.58907V2.47854C11.1872 2.54345 11.7405 2.70276 12.1471 3.09375C12.5537 3.48473 12.7193 4.01692 12.7868 4.82758L12.8333 5.24999H1.70598H1.16666V4.82758C1.23416 4.01692 1.39981 3.48473 1.80637 3.09375C2.21293 2.70276 2.76631 2.54345 3.60925 2.47854V1.58907C3.60925 1.35578 3.8059 1.16666 4.04849 1.16666Z" fill="#485F7D"/>
<path id="Vector_2" opacity="0.5" d="M12.8333 8.16665V6.99999C12.8333 6.51055 12.8314 5.63801 12.8239 5.24994H1.1723C1.16477 5.63801 1.16667 6.51055 1.16667 6.99999V8.16665C1.16667 10.3665 1.16667 11.4665 1.85009 12.1499C2.53351 12.8333 3.63345 12.8333 5.83334 12.8333H8.16668C10.3666 12.8333 11.4665 12.8333 12.1499 12.1499C12.8333 11.4665 12.8333 10.3665 12.8333 8.16665Z" fill="#485F7D"/>
<g id="Vector_3">
<path d="M10.5 9.91667C10.5 10.2388 10.2388 10.5 9.91668 10.5C9.59451 10.5 9.33334 10.2388 9.33334 9.91667C9.33334 9.5945 9.59451 9.33333 9.91668 9.33333C10.2388 9.33333 10.5 9.5945 10.5 9.91667Z" fill="#485F7D"/>
<path d="M10.5 7.58333C10.5 7.9055 10.2388 8.16667 9.91668 8.16667C9.59451 8.16667 9.33334 7.9055 9.33334 7.58333C9.33334 7.26117 9.59451 7 9.91668 7C10.2388 7 10.5 7.26117 10.5 7.58333Z" fill="#485F7D"/>
</g>
<g id="Vector_4">
<path d="M7.58332 9.91667C7.58332 10.2388 7.32216 10.5 6.99999 10.5C6.67782 10.5 6.41666 10.2388 6.41666 9.91667C6.41666 9.5945 6.67782 9.33333 6.99999 9.33333C7.32216 9.33333 7.58332 9.5945 7.58332 9.91667Z" fill="#485F7D"/>
<path d="M7.58332 7.58333C7.58332 7.9055 7.32216 8.16667 6.99999 8.16667C6.67782 8.16667 6.41666 7.9055 6.41666 7.58333C6.41666 7.26117 6.67782 7 6.99999 7C7.32216 7 7.58332 7.26117 7.58332 7.58333Z" fill="#485F7D"/>
</g>
<g id="Vector_5">
<path d="M4.66667 9.91667C4.66667 10.2388 4.4055 10.5 4.08333 10.5C3.76117 10.5 3.5 10.2388 3.5 9.91667C3.5 9.5945 3.76117 9.33333 4.08333 9.33333C4.4055 9.33333 4.66667 9.5945 4.66667 9.91667Z" fill="#485F7D"/>
<path d="M4.66667 7.58333C4.66667 7.9055 4.4055 8.16667 4.08333 8.16667C3.76117 8.16667 3.5 7.9055 3.5 7.58333C3.5 7.26117 3.76117 7 4.08333 7C4.4055 7 4.66667 7.26117 4.66667 7.58333Z" fill="#485F7D"/>
</g>
</g>
</svg>
