<svg width="18" height="19" viewBox="0 0 18 19" fill="none" xmlns="http://www.w3.org/2000/svg">
<path d="M6.01875 15.5C5.71875 15.5 5.45625 15.3875 5.23125 15.1625C5.00625 14.9375 4.89375 14.675 4.89375 14.375V12.5H7.21875V10.1188C6.74375 10.1563 6.26875 10.0906 5.79375 9.92188C5.31875 9.75313 4.89375 9.4875 4.51875 9.125V8.0375H3.58125L1.125 5.58125C1.575 5.15625 2.1125 4.80938 2.7375 4.54063C3.3625 4.27188 4 4.1375 4.65 4.1375C5.025 4.1375 5.45312 4.19688 5.93438 4.31563C6.41563 4.43438 6.84375 4.625 7.21875 4.8875V3.5H15.75V13.5312C15.75 14.0813 15.5594 14.5469 15.1781 14.9281C14.7969 15.3094 14.3313 15.5 13.7813 15.5H6.01875ZM8.34375 12.5H12.9375V13.5312C12.9375 13.7812 13.0156 13.9844 13.1719 14.1406C13.3281 14.2969 13.5313 14.375 13.7813 14.375C14.0313 14.375 14.2344 14.2969 14.3906 14.1406C14.5469 13.9844 14.625 13.7812 14.625 13.5312V4.625H8.34375V5.69375L12.8625 10.2125V11.0188H12.0563L9.69375 8.65625L9.375 9.03125C9.2125 9.21875 9.05 9.3625 8.8875 9.4625C8.725 9.5625 8.54375 9.65625 8.34375 9.74375V12.5ZM4.0875 6.9125H5.64375V8.58125C5.85625 8.71875 6.06563 8.82188 6.27188 8.89062C6.47813 8.95938 6.6875 8.99375 6.9 8.99375C7.2125 8.99375 7.53125 8.90938 7.85625 8.74063C8.18125 8.57188 8.41875 8.4 8.56875 8.225L8.8875 7.85L7.59375 6.55625C7.19375 6.15625 6.74375 5.84063 6.24375 5.60938C5.74375 5.37813 5.2125 5.2625 4.65 5.2625C4.3125 5.2625 4.00625 5.30313 3.73125 5.38438C3.45625 5.46563 3.175 5.575 2.8875 5.7125L4.0875 6.9125ZM11.8125 13.625H6.01875V14.375H12.075C12 14.3 11.9375 14.1969 11.8875 14.0656C11.8375 13.9344 11.8125 13.7875 11.8125 13.625Z" fill="#E5007A"/>
</svg>
