<svg width="16" height="17" viewBox="0 0 16 17" fill="none" xmlns="http://www.w3.org/2000/svg">
<g id="Hhourglass_move_light">
<g id="Group 1410119367">
<path id="Vector 496" d="M8.27778 8.5L11.6809 10.8164C12.2281 11.1889 12.5556 11.8079 12.5556 12.4698V13.5C12.5556 13.7761 12.3317 14 12.0556 14H4.5C4.22386 14 4 13.7761 4 13.5V12.4698C4 11.8079 4.32746 11.1889 4.87462 10.8164L8.27778 8.5ZM8.27778 8.5L11.6809 6.18356C12.2281 5.81113 12.5556 5.19211 12.5556 4.53023V3.5C12.5556 3.22386 12.3317 3 12.0556 3H4.5C4.22386 3 4 3.22386 4 3.5V4.53023C4 5.19211 4.32746 5.81113 4.87462 6.18356L8.27778 8.5Z" stroke="white" stroke-width="1.2" stroke-linecap="round" stroke-linejoin="round"/>
<path id="Vector 497" d="M10.1112 13.596V13.85C10.1112 13.9329 10.0441 14 9.96125 14H6.59458C6.51174 14 6.44458 13.9329 6.44458 13.85V13.596C6.44458 13.4634 6.49726 13.3362 6.59103 13.2425L7.71223 12.1213C8.02465 11.8088 8.53118 11.8088 8.8436 12.1213L9.9648 13.2425C10.0586 13.3362 10.1112 13.4634 10.1112 13.596Z" fill="white"/>
<path id="Vector 560" d="M8.27797 7.88885L11.3335 6.05552H5.22241L8.27797 7.88885Z" fill="white"/>
<path id="Vector 559" d="M8.27759 12.1667V8.5" stroke="white" stroke-width="1.2" stroke-linecap="round" stroke-linejoin="round"/>
</g>
</g>
</svg>
