<svg width="16" height="16" viewBox="0 0 16 16" fill="none" xmlns="http://www.w3.org/2000/svg">
<rect width="16" height="16" rx="8" fill="#E53F77"/>
<g clip-path="url(#clip0_2239_272307)">
<path d="M13.1698 8.8157C13.3119 8.67855 13.4947 8.50204 13.6762 8.32696C14.0811 7.93618 14.0813 7.30237 13.6764 6.91142L13.2475 6.49724C11.7118 7.98012 9.41373 8.27806 7.5714 7.39126C8.81659 7.61357 10.107 7.44039 11.2505 6.84677C12.0154 6.44957 12.1607 5.44782 11.5466 4.85484L9.0144 2.40977C8.44857 1.86341 7.53128 1.86341 6.96566 2.40977L4.2363 5.04524C6.03379 4.30785 8.19303 4.64972 9.6549 6.07106C7.42465 5.02577 4.6618 5.39663 2.81004 7.1845C2.66799 7.32165 2.48496 7.49839 2.30343 7.67367C1.89875 8.06465 1.89896 8.69803 2.30343 9.08878L2.73215 9.50276C4.26785 8.01988 6.56591 7.72194 8.40824 8.60874C7.16306 8.38643 5.87263 8.55961 4.72918 9.15323C3.96422 9.55043 3.81896 10.5522 4.43307 11.1452L6.96525 13.5902C7.53107 14.1366 8.44837 14.1366 9.01398 13.5902L11.7433 10.9548C9.94586 11.6921 7.78661 11.3503 6.32454 9.92894C8.55479 10.9742 11.3176 10.6034 13.1694 8.8155L13.1698 8.8157Z" fill="white"/>
</g>
<defs>
<clipPath id="clip0_2239_272307">
<rect width="12" height="12" fill="white" transform="translate(2 2)"/>
</clipPath>
</defs>
</svg>
