<svg width="20" height="20" viewBox="0 0 20 20" fill="none" xmlns="http://www.w3.org/2000/svg">
<path d="M9.9974 5.83366C9.4974 5.83366 9.16406 5.50033 9.16406 5.00033V2.50033C9.16406 2.00033 9.4974 1.66699 9.9974 1.66699C10.4974 1.66699 10.8307 2.00033 10.8307 2.50033V5.00033C10.8307 5.50033 10.4974 5.83366 9.9974 5.83366Z" fill="#33363F"/>
<path d="M9.9974 18.3333C9.4974 18.3333 9.16406 18 9.16406 17.5V15.8333C9.16406 15.3333 9.4974 15 9.9974 15C10.4974 15 10.8307 15.3333 10.8307 15.8333V17.5C10.8307 18 10.4974 18.3333 9.9974 18.3333Z" fill="#33363F"/>
<path d="M17.5 10.8337H15.8333C15.3333 10.8337 15 10.5003 15 10.0003C15 9.50033 15.3333 9.16699 15.8333 9.16699H17.5C18 9.16699 18.3333 9.50033 18.3333 10.0003C18.3333 10.5003 18 10.8337 17.5 10.8337Z" fill="#33363F"/>
<path d="M4.9974 10.8337H2.4974C1.9974 10.8337 1.66406 10.5003 1.66406 10.0003C1.66406 9.50033 1.9974 9.16699 2.4974 9.16699H4.9974C5.4974 9.16699 5.83073 9.50033 5.83073 10.0003C5.83073 10.5003 5.4974 10.8337 4.9974 10.8337Z" fill="#33363F"/>
<path d="M14.7474 6.08398C14.4974 6.08398 14.3307 6.00065 14.1641 5.83398C13.8307 5.50065 13.8307 5.00065 14.1641 4.66732L14.7474 4.08398C15.0807 3.75065 15.5807 3.75065 15.9141 4.08398C16.2474 4.41732 16.2474 4.91732 15.9141 5.25065L15.3307 5.83398C15.1641 6.00065 14.9141 6.08398 14.7474 6.08398Z" fill="#33363F"/>
<path d="M4.66146 16.1673C4.41146 16.1673 4.24479 16.084 4.07812 15.9173C3.74479 15.584 3.74479 15.084 4.07812 14.7507L5.24479 13.584C5.57812 13.2507 6.07812 13.2507 6.41146 13.584C6.74479 13.9173 6.74479 14.4173 6.41146 14.7507L5.24479 15.9173C5.16146 16.084 4.91146 16.1673 4.66146 16.1673Z" fill="#33363F"/>
<path d="M15.3281 16.1673C15.0781 16.1673 14.9115 16.084 14.7448 15.9173L13.5781 14.7507C13.2448 14.4173 13.2448 13.9173 13.5781 13.584C13.9115 13.2507 14.4115 13.2507 14.7448 13.584L15.9115 14.7507C16.2448 15.084 16.2448 15.584 15.9115 15.9173C15.7448 16.084 15.4948 16.1673 15.3281 16.1673Z" fill="#33363F"/>
<path d="M6.49479 7.33398C6.24479 7.33398 6.07812 7.25065 5.91146 7.08398L4.07812 5.25065C3.74479 4.91732 3.74479 4.41732 4.07812 4.08398C4.41146 3.75065 4.91146 3.75065 5.24479 4.08398L7.07812 5.83398C7.41146 6.16732 7.41146 6.66732 7.07812 7.00065C6.91146 7.25065 6.66146 7.33398 6.49479 7.33398Z" fill="#33363F"/>
</svg>
