<svg width="24" height="24" viewBox="0 0 24 24" fill="none" xmlns="http://www.w3.org/2000/svg">
<path d="M11.9909 3.00001C10.2113 3.0018 8.47213 3.53116 6.99328 4.52118C5.51443 5.5112 4.36229 6.91744 3.68249 8.56213C3.00269 10.2068 2.82575 12.0161 3.17404 13.7614C3.52233 15.5066 4.38021 17.1094 5.63924 18.3672C6.89827 19.6249 8.50193 20.4812 10.2475 20.8277C11.9931 21.1743 13.8022 20.9955 15.4462 20.314C17.0902 19.6326 18.4953 18.479 19.4838 16.9992C20.4724 15.5193 21 13.7796 21 12C21.0005 10.8172 20.7678 9.64588 20.3152 8.55311C19.8625 7.46034 19.1988 6.46757 18.362 5.63161C17.5252 4.79566 16.5317 4.13294 15.4385 3.68137C14.3453 3.22981 13.1738 2.99827 11.9909 3.00001ZM12 19.2004C10.5759 19.2004 9.18376 18.7781 7.99966 17.9869C6.81556 17.1957 5.89267 16.0712 5.34768 14.7555C4.8027 13.4398 4.66011 11.992 4.93794 10.5953C5.21577 9.19853 5.90154 7.91554 6.90854 6.90854C7.91553 5.90155 9.19852 5.21577 10.5953 4.93794C11.992 4.66012 13.4398 4.80271 14.7555 5.34769C16.0712 5.89267 17.1957 6.81557 17.9869 7.99967C18.7781 9.18377 19.2004 10.5759 19.2004 12C19.2008 12.9457 19.0148 13.8822 18.6531 14.7559C18.2913 15.6297 17.761 16.4236 17.0923 17.0923C16.4236 17.761 15.6297 18.2913 14.7559 18.6531C13.8822 19.0148 12.9457 19.2008 12 19.2004Z" fill="#E91C26"/>
<path d="M12.9001 15.7392C12.9001 15.2421 12.4971 14.8391 12 14.8391C11.5029 14.8391 11.0999 15.2421 11.0999 15.7392C11.0999 16.2363 11.5029 16.6393 12 16.6393C12.4971 16.6393 12.9001 16.2363 12.9001 15.7392Z" fill="#E91C26"/>
<path d="M12.9001 8.40014V12.6967C12.9001 12.9354 12.8053 13.1644 12.6365 13.3332C12.4677 13.502 12.2387 13.5968 12 13.5968C11.7613 13.5968 11.5323 13.502 11.3635 13.3332C11.1947 13.1644 11.0999 12.9354 11.0999 12.6967V8.40014C11.0999 8.1614 11.1947 7.93245 11.3635 7.76364C11.5323 7.59483 11.7613 7.5 12 7.5C12.2387 7.5 12.4677 7.59483 12.6365 7.76364C12.8053 7.93245 12.9001 8.1614 12.9001 8.40014Z" fill="#E91C26"/>
</svg>
