<svg width="16" height="23" viewBox="0 0 16 23" fill="none" xmlns="http://www.w3.org/2000/svg">
<path d="M1.5 22.5586C1.0875 22.5586 0.734375 22.4117 0.440625 22.118C0.146875 21.8242 0 21.4711 0 21.0586V2.05859C0 1.64609 0.146875 1.29297 0.440625 0.999219C0.734375 0.705469 1.0875 0.558594 1.5 0.558594H12.5C12.9125 0.558594 13.2656 0.705469 13.5594 0.999219C13.8531 1.29297 14 1.64609 14 2.05859V5.70859H12.5V4.30859H1.5V18.8086H12.5V17.4086H14V21.0586C14 21.4711 13.8531 21.8242 13.5594 22.118C13.2656 22.4117 12.9125 22.5586 12.5 22.5586H1.5ZM1.5 20.3086V21.0586H12.5V20.3086H1.5ZM1.5 2.80859H12.5V2.05859H1.5V2.80859ZM13.15 12.2836H6.5V16.0586H5V12.2836C5 11.8711 5.14687 11.518 5.44063 11.2242C5.73438 10.9305 6.0875 10.7836 6.5 10.7836H13.15L11.1 8.75859L12.15 7.70859L15.975 11.5336L12.15 15.3586L11.1 14.3086L13.15 12.2836Z" fill="#E5007A"/>
</svg>
