<svg width="16" height="16" viewBox="0 0 16 16" fill="none" xmlns="http://www.w3.org/2000/svg">
<path d="M8.00008 8.0013C7.26675 8.0013 6.63897 7.74019 6.11675 7.21797C5.59453 6.69575 5.33341 6.06797 5.33341 5.33464C5.33341 4.6013 5.59453 3.97352 6.11675 3.4513C6.63897 2.92908 7.26675 2.66797 8.00008 2.66797C8.73341 2.66797 9.36119 2.92908 9.88342 3.4513C10.4056 3.97352 10.6667 4.6013 10.6667 5.33464C10.6667 6.06797 10.4056 6.69575 9.88342 7.21797C9.36119 7.74019 8.73341 8.0013 8.00008 8.0013ZM2.66675 13.3346V11.468C2.66675 11.0902 2.76397 10.743 2.95841 10.4263C3.15286 10.1096 3.41119 9.86797 3.73341 9.7013C4.4223 9.35686 5.1223 9.09852 5.83341 8.9263C6.54453 8.75408 7.26675 8.66797 8.00008 8.66797C8.73341 8.66797 9.45564 8.75408 10.1667 8.9263C10.8779 9.09852 11.5779 9.35686 12.2667 9.7013C12.589 9.86797 12.8473 10.1096 13.0417 10.4263C13.2362 10.743 13.3334 11.0902 13.3334 11.468V13.3346H2.66675Z" fill="#485F7D"/>
</svg>
