<svg width="40" height="40" viewBox="0 0 40 40" fill="none" xmlns="http://www.w3.org/2000/svg">
<rect width="40" height="40" rx="9" fill="#FEF2F8"/>
<path d="M20 30C18.6 30 17.2917 29.7375 16.075 29.2125C14.8583 28.6875 13.8 27.975 12.9 27.075C12 26.175 11.2917 25.1125 10.775 23.8875C10.2583 22.6625 10 21.35 10 19.95C10 18.55 10.2583 17.2458 10.775 16.0375C11.2917 14.8292 12 13.775 12.9 12.875C13.8 11.975 14.8583 11.2708 16.075 10.7625C17.2917 10.2542 18.6 10 20 10C21.4 10 22.7083 10.2542 23.925 10.7625C25.1417 11.2708 26.2 11.975 27.1 12.875C28 13.775 28.7083 14.8292 29.225 16.0375C29.7417 17.2458 30 18.55 30 19.95C30 21.35 29.7417 22.6625 29.225 23.8875C28.7083 25.1125 28 26.175 27.1 27.075C26.2 27.975 25.1417 28.6875 23.925 29.2125C22.7083 29.7375 21.4 30 20 30ZM20 28.55C20.5833 27.95 21.0708 27.2625 21.4625 26.4875C21.8542 25.7125 22.175 24.7917 22.425 23.725H17.6C17.8333 24.725 18.1458 25.625 18.5375 26.425C18.9292 27.225 19.4167 27.9333 20 28.55ZM17.875 28.25C17.4583 27.6167 17.1 26.9333 16.8 26.2C16.5 25.4667 16.25 24.6417 16.05 23.725H12.3C12.9333 24.9083 13.6667 25.8375 14.5 26.5125C15.3333 27.1875 16.4583 27.7667 17.875 28.25ZM22.15 28.225C23.35 27.8417 24.4292 27.2667 25.3875 26.5C26.3458 25.7333 27.1167 24.8083 27.7 23.725H23.975C23.7583 24.625 23.5042 25.4417 23.2125 26.175C22.9208 26.9083 22.5667 27.5917 22.15 28.225ZM11.8 22.225H15.775C15.725 21.775 15.6958 21.3708 15.6875 21.0125C15.6792 20.6542 15.675 20.3 15.675 19.95C15.675 19.5333 15.6833 19.1625 15.7 18.8375C15.7167 18.5125 15.75 18.15 15.8 17.75H11.8C11.6833 18.15 11.6042 18.5083 11.5625 18.825C11.5208 19.1417 11.5 19.5167 11.5 19.95C11.5 20.3833 11.5208 20.7708 11.5625 21.1125C11.6042 21.4542 11.6833 21.825 11.8 22.225ZM17.325 22.225H22.7C22.7667 21.7083 22.8083 21.2875 22.825 20.9625C22.8417 20.6375 22.85 20.3 22.85 19.95C22.85 19.6167 22.8417 19.2958 22.825 18.9875C22.8083 18.6792 22.7667 18.2667 22.7 17.75H17.325C17.2583 18.2667 17.2167 18.6792 17.2 18.9875C17.1833 19.2958 17.175 19.6167 17.175 19.95C17.175 20.3 17.1833 20.6375 17.2 20.9625C17.2167 21.2875 17.2583 21.7083 17.325 22.225ZM24.2 22.225H28.2C28.3167 21.825 28.3958 21.4542 28.4375 21.1125C28.4792 20.7708 28.5 20.3833 28.5 19.95C28.5 19.5167 28.4792 19.1417 28.4375 18.825C28.3958 18.5083 28.3167 18.15 28.2 17.75H24.225C24.275 18.3333 24.3083 18.7792 24.325 19.0875C24.3417 19.3958 24.35 19.6833 24.35 19.95C24.35 20.3167 24.3375 20.6625 24.3125 20.9875C24.2875 21.3125 24.25 21.725 24.2 22.225ZM23.95 16.25H27.7C27.15 15.1 26.3958 14.1417 25.4375 13.375C24.4792 12.6083 23.375 12.0667 22.125 11.75C22.5417 12.3667 22.8958 13.0333 23.1875 13.75C23.4792 14.4667 23.7333 15.3 23.95 16.25ZM17.6 16.25H22.45C22.2667 15.3667 21.9583 14.5125 21.525 13.6875C21.0917 12.8625 20.5833 12.1333 20 11.5C19.4667 11.95 19.0167 12.5417 18.65 13.275C18.2833 14.0083 17.9333 15 17.6 16.25ZM12.3 16.25H16.075C16.2583 15.35 16.4917 14.5458 16.775 13.8375C17.0583 13.1292 17.4167 12.4417 17.85 11.775C16.6 12.0917 15.5083 12.625 14.575 13.375C13.6417 14.125 12.8833 15.0833 12.3 16.25Z" fill="#485F7D"/>
</svg>
