<svg width="21" height="20" viewBox="0 0 21 20" fill="none" xmlns="http://www.w3.org/2000/svg">
<rect x="0.5" width="20" height="20" rx="4" fill="#FEF2F8"/>
<path d="M10.9987 16.6673C10.0654 16.6673 9.19314 16.4923 8.38203 16.1423C7.57092 15.7923 6.86536 15.3173 6.26536 14.7173C5.66536 14.1173 5.19314 13.409 4.8487 12.5923C4.50425 11.7757 4.33203 10.9007 4.33203 9.96732C4.33203 9.03398 4.50425 8.16454 4.8487 7.35898C5.19314 6.55343 5.66536 5.85065 6.26536 5.25065C6.86536 4.65065 7.57092 4.18121 8.38203 3.84232C9.19314 3.50343 10.0654 3.33398 10.9987 3.33398C11.932 3.33398 12.8043 3.50343 13.6154 3.84232C14.4265 4.18121 15.132 4.65065 15.732 5.25065C16.332 5.85065 16.8043 6.55343 17.1487 7.35898C17.4931 8.16454 17.6654 9.03398 17.6654 9.96732C17.6654 10.9007 17.4931 11.7757 17.1487 12.5923C16.8043 13.409 16.332 14.1173 15.732 14.7173C15.132 15.3173 14.4265 15.7923 13.6154 16.1423C12.8043 16.4923 11.932 16.6673 10.9987 16.6673ZM10.9987 15.7007C11.3876 15.3007 11.7126 14.8423 11.9737 14.3257C12.2348 13.809 12.4487 13.1951 12.6154 12.484H9.3987C9.55425 13.1507 9.76259 13.7507 10.0237 14.284C10.2848 14.8173 10.6098 15.2895 10.9987 15.7007ZM9.58203 15.5007C9.30425 15.0784 9.06536 14.6229 8.86536 14.134C8.66536 13.6451 8.4987 13.0951 8.36536 12.484H5.86536C6.28759 13.2729 6.77648 13.8923 7.33203 14.3423C7.88759 14.7923 8.63759 15.1784 9.58203 15.5007ZM12.432 15.484C13.232 15.2284 13.9515 14.8451 14.5904 14.334C15.2293 13.8229 15.7431 13.2062 16.132 12.484H13.6487C13.5043 13.084 13.3348 13.6284 13.1404 14.1173C12.9459 14.6062 12.7098 15.0618 12.432 15.484ZM5.53203 11.484H8.18203C8.1487 11.184 8.12925 10.9145 8.1237 10.6757C8.11814 10.4368 8.11536 10.2007 8.11536 9.96732C8.11536 9.68954 8.12092 9.44232 8.13203 9.22565C8.14314 9.00898 8.16536 8.76732 8.1987 8.50065H5.53203C5.45425 8.76732 5.40148 9.00621 5.3737 9.21732C5.34592 9.42843 5.33203 9.67843 5.33203 9.96732C5.33203 10.2562 5.34592 10.5145 5.3737 10.7423C5.40148 10.9701 5.45425 11.2173 5.53203 11.484ZM9.21536 11.484H12.7987C12.8431 11.1395 12.8709 10.859 12.882 10.6423C12.8931 10.4257 12.8987 10.2007 12.8987 9.96732C12.8987 9.7451 12.8931 9.53121 12.882 9.32565C12.8709 9.1201 12.8431 8.8451 12.7987 8.50065H9.21536C9.17092 8.8451 9.14314 9.1201 9.13203 9.32565C9.12092 9.53121 9.11536 9.7451 9.11536 9.96732C9.11536 10.2007 9.12092 10.4257 9.13203 10.6423C9.14314 10.859 9.17092 11.1395 9.21536 11.484ZM13.7987 11.484H16.4654C16.5431 11.2173 16.5959 10.9701 16.6237 10.7423C16.6515 10.5145 16.6654 10.2562 16.6654 9.96732C16.6654 9.67843 16.6515 9.42843 16.6237 9.21732C16.5959 9.00621 16.5431 8.76732 16.4654 8.50065H13.8154C13.8487 8.88954 13.8709 9.18676 13.882 9.39232C13.8931 9.59787 13.8987 9.78954 13.8987 9.96732C13.8987 10.2118 13.8904 10.4423 13.8737 10.659C13.857 10.8757 13.832 11.1507 13.7987 11.484ZM13.632 7.50065H16.132C15.7654 6.73398 15.2626 6.0951 14.6237 5.58398C13.9848 5.07287 13.2487 4.71176 12.4154 4.50065C12.6931 4.91176 12.9293 5.35621 13.1237 5.83398C13.3181 6.31176 13.4876 6.86732 13.632 7.50065ZM9.3987 7.50065H12.632C12.5098 6.91176 12.3043 6.34232 12.0154 5.79232C11.7265 5.24232 11.3876 4.75621 10.9987 4.33398C10.6431 4.63398 10.3431 5.02843 10.0987 5.51732C9.85425 6.00621 9.62092 6.66732 9.3987 7.50065ZM5.86536 7.50065H8.38203C8.50425 6.90065 8.65981 6.36454 8.8487 5.89232C9.03759 5.4201 9.27648 4.96176 9.56536 4.51732C8.73203 4.72843 8.00425 5.08398 7.38203 5.58398C6.75981 6.08398 6.25425 6.72287 5.86536 7.50065Z" fill="#485F7D"/>
</svg>
