<svg width="14" height="14" viewBox="0 0 14 14" fill="none" xmlns="http://www.w3.org/2000/svg">
<g id="Layer_1" clip-path="url(#clip0_4678_131645)">
<g id="HQB7qB.tif">
<path id="Vector" d="M9.58249 14.0003H4.39301C4.26696 13.9194 4.13568 13.8358 4.1211 13.6711C4.09275 13.3476 4.16485 13.0395 4.2887 12.7419C4.29558 12.732 4.30274 12.7224 4.30962 12.7125C4.49319 12.303 4.7962 12.0004 5.18453 11.7886C5.57424 11.5758 6.0055 11.5287 6.44282 11.5416C6.55814 11.5451 6.59309 11.5224 6.59282 11.3977C6.58841 8.72328 6.58951 6.04914 6.58951 3.37474C6.58951 3.35199 6.58676 3.32869 6.59006 3.30649C6.60025 3.23851 6.56915 3.22563 6.50585 3.22343C6.40071 3.21959 6.29944 3.24892 6.19678 3.25084C5.9711 3.2555 5.74818 3.27962 5.52442 3.30594C5.09344 3.35692 4.66547 3.42462 4.24439 3.52796C3.98211 3.59237 3.71515 3.64144 3.46057 3.73737C3.59846 4.05012 3.73469 4.36013 3.87175 4.66987C4.08174 5.14406 4.29228 5.61826 4.50255 6.09245C4.71639 6.57487 4.93078 7.05701 5.1427 7.54025C5.17793 7.62029 5.21921 7.65757 5.31911 7.66004C5.61277 7.66771 5.7724 7.85054 5.76166 8.11943C5.75038 8.39874 5.6846 8.67174 5.55497 8.92172C5.2693 9.47294 4.82345 9.8512 4.25843 10.1026C3.66644 10.366 3.05133 10.4397 2.41117 10.3643C1.96615 10.312 1.5503 10.1697 1.16829 9.94522C0.718591 9.68099 0.367139 9.3189 0.150819 8.83456C0.0828402 8.68243 0.0635751 8.51825 0 8.36694V8.23017C0.0410073 8.18467 0.0407321 8.13889 0 8.09339C0 8.03857 0 7.98402 0 7.9292C0.00908215 7.92098 0.0214669 7.9144 0.026696 7.90426C0.101005 7.75405 0.21577 7.64441 0.388331 7.66113C0.544654 7.67621 0.586762 7.57945 0.632998 7.47639C0.772533 7.16528 0.907665 6.85253 1.0461 6.54115C1.31333 5.93868 1.58195 5.33648 1.84946 4.734C1.95762 4.49033 2.06495 4.24665 2.18357 3.97803C1.91055 4.01202 1.66286 4.05835 1.41324 4.06958C1.11408 4.08301 0.814641 4.10165 0.514655 4.10686C0.264483 4.11097 0.0941241 4.03176 0.000275217 3.80014V3.74532C0.0390808 3.70887 0.0390808 3.67241 0.000275217 3.63596V3.58113C0.0360534 3.57565 0.0696298 3.56907 0.0269712 3.52604C0.0473373 3.42654 0.125774 3.37528 0.206413 3.3413C0.466768 3.23111 0.741709 3.15737 1.00261 3.05157C1.51754 2.84271 2.02615 2.61712 2.53117 2.38496C3.2371 2.06015 3.87698 1.60788 4.59667 1.30911C4.89335 1.18576 5.19472 1.07612 5.51149 1.00678C5.82909 0.937154 6.14697 0.879044 6.47007 0.845055C6.54878 0.836832 6.60548 0.805037 6.59309 0.701152C6.58016 0.59343 6.58979 0.482694 6.59117 0.373327C6.59364 0.185842 6.74831 0.0134321 6.94179 0.00164576C7.14985 -0.0109629 7.3337 0.107997 7.38682 0.295208C7.43113 0.450898 7.40883 0.609054 7.41269 0.766388C7.41406 0.817919 7.41626 0.846152 7.48369 0.849167C7.75616 0.860953 8.02587 0.907551 8.29173 0.960726C8.77171 1.05694 9.22692 1.23812 9.66891 1.44232C10.1566 1.66763 10.6088 1.96257 11.0855 2.20926C11.558 2.45376 12.0438 2.67331 12.5383 2.87231C12.7001 2.93754 12.8501 3.04307 13.0169 3.08282C13.2754 3.14449 13.5189 3.24097 13.7625 3.3391C13.8759 3.38488 13.9648 3.46601 13.9774 3.60717C13.9934 3.78671 13.9601 3.94267 13.7944 4.03971C13.7308 4.07698 13.6587 4.1022 13.5795 4.10165C13.1986 4.09919 12.819 4.09891 12.4387 4.05341C12.2342 4.02902 12.027 3.99448 11.8098 3.99174C11.9133 4.22637 12.0107 4.44784 12.1087 4.66904C12.3187 5.14296 12.5295 5.61689 12.7395 6.09108C12.9533 6.5735 13.1672 7.05592 13.3794 7.53916C13.4141 7.61837 13.4542 7.65784 13.5552 7.66004C13.8577 7.66661 14.0187 7.86342 13.9986 8.13204C13.9706 8.50591 13.8665 8.85896 13.6458 9.1728C13.315 9.64398 12.8722 9.96852 12.338 10.1714C11.7922 10.3786 11.2283 10.4331 10.6476 10.366C10.3415 10.3306 10.0561 10.2341 9.77239 10.1278C9.50764 10.0283 9.2759 9.87286 9.05793 9.69332C8.52841 9.25695 8.22017 8.71642 8.23669 8.01555C8.23779 7.96374 8.25375 7.92235 8.27687 7.87932C8.36769 7.70828 8.51465 7.64523 8.70125 7.65565C8.74749 7.65812 8.78987 7.65839 8.81271 7.6033C8.86748 7.47008 8.92555 7.33824 8.98362 7.20667C9.22169 6.66697 9.45892 6.12699 9.69864 5.5881C9.96147 4.99714 10.226 4.40673 10.4918 3.81714C10.5185 3.7582 10.5372 3.73929 10.4475 3.71298C10.0952 3.61046 9.73992 3.52165 9.37966 3.45286C8.97619 3.37556 8.57025 3.31745 8.161 3.27332C7.99174 3.25495 7.82083 3.27195 7.6513 3.23001C7.44131 3.17821 7.41296 3.21137 7.41296 3.42517V9.89204C7.41296 10.4071 7.41516 10.9221 7.41076 11.4369C7.40993 11.5224 7.4325 11.5443 7.51672 11.541C7.74212 11.5325 7.9667 11.5523 8.1888 11.5931C8.97674 11.7384 9.4903 12.2022 9.76496 12.9414C9.83459 13.1289 9.86046 13.3279 9.88056 13.525C9.90395 13.7533 9.76551 13.8939 9.58194 14.0003H9.58249ZM9.69726 2.39784C9.68845 2.39126 9.67965 2.38468 9.67084 2.3781C9.29489 2.14512 8.89115 1.97901 8.46594 1.85567C8.01376 1.72465 7.5525 1.66297 7.08518 1.64214C6.90491 1.63419 6.72437 1.64516 6.54273 1.6616C6.19072 1.6934 5.84835 1.75836 5.50791 1.85018C4.80886 2.03877 4.20641 2.42607 3.5814 2.76651C3.52195 2.79885 3.43773 2.80515 3.39865 2.89232C5.79276 2.23667 8.17834 2.22982 10.5667 2.88903C10.5669 2.87697 10.5672 2.86463 10.5675 2.85257C10.4497 2.79227 10.3322 2.73169 10.2144 2.67139C10.2144 2.62617 10.1907 2.63631 10.1651 2.65083C10.0991 2.61273 10.033 2.57436 9.96725 2.53626C9.9678 2.49158 9.94496 2.49816 9.91826 2.51433C9.8745 2.45102 9.76689 2.47294 9.74267 2.38359C9.73139 2.38222 9.7201 2.38112 9.70882 2.37975C9.71983 2.38112 9.73056 2.38222 9.74157 2.38359C9.73111 2.40085 9.71653 2.40579 9.69754 2.39811L9.69726 2.39784ZM4.29723 7.65264C4.08889 7.18337 3.88826 6.73412 3.68955 6.28432C3.52745 5.91757 3.36865 5.54946 3.20627 5.18271C3.11518 4.97713 3.02078 4.7732 2.92528 4.56982C2.91427 4.54652 2.91482 4.50376 2.86611 4.51034C2.83748 4.51418 2.83611 4.53007 2.8262 4.55228C2.71033 4.81349 2.58979 5.07279 2.4731 5.33401C2.23641 5.86385 2.00055 6.39396 1.76607 6.9249C1.66038 7.16446 1.55938 7.40622 1.45397 7.65264H4.29723ZM9.68873 7.64962H12.5386C12.4778 7.51586 12.4205 7.39196 12.3647 7.26725C12.188 6.87419 12.0102 6.48167 11.8357 6.08752C11.6133 5.58564 11.3945 5.08239 11.1705 4.5816C11.1595 4.55694 11.1592 4.50732 11.1044 4.51006C11.0516 4.51253 11.0527 4.56022 11.042 4.58599C10.7907 5.19066 10.5138 5.78381 10.2474 6.38163C10.0616 6.79854 9.87918 7.21681 9.68873 7.64989V7.64962ZM0.912619 8.48207C0.979221 8.69861 1.09344 8.84333 1.3337 9.05439C1.6868 9.36467 2.10926 9.51872 2.56447 9.56422C2.94922 9.60259 3.3348 9.57244 3.71075 9.4469C3.99394 9.35234 4.23503 9.19418 4.46512 9.01684C4.64346 8.87951 4.76345 8.69312 4.85042 8.48234H0.912894L0.912619 8.48207ZM13.0855 8.48398H9.14077C9.19802 8.69586 9.33563 8.84744 9.47901 8.98258C9.8456 9.32794 10.2972 9.51789 10.7921 9.56449C11.3857 9.62041 11.9595 9.53187 12.4709 9.18925C12.7403 9.00861 12.9668 8.79427 13.0855 8.48398ZM8.99105 13.1777C8.88482 12.974 8.78464 12.7983 8.61869 12.6575C8.33274 12.4146 7.99697 12.362 7.64249 12.3603C7.21233 12.3581 6.78244 12.3609 6.35228 12.3592C6.18109 12.3587 6.01293 12.3631 5.84588 12.413C5.44158 12.5336 5.15949 12.7808 5.00509 13.178H8.99105V13.1777Z" fill="#485F7D"/>
<path id="Vector_2" d="M0 8.09326C0.0407321 8.13876 0.0410073 8.18454 0 8.23004V8.09326Z" fill="#485F7D"/>
<path id="Vector_3" d="M0 3.52615C0.00880694 3.52725 0.0176139 3.52725 0.026696 3.52588C0.0696298 3.56891 0.0357782 3.57549 0 3.58097V3.52615Z" fill="#485F7D"/>
<path id="Vector_4" d="M0 3.6355C0.0388056 3.67195 0.0388056 3.70841 0 3.74486V3.6355Z" fill="#485F7D"/>
<path id="Vector_5" d="M9.96696 2.53591C9.94714 2.53618 9.92017 2.55208 9.91797 2.51398C9.94494 2.49808 9.96751 2.4915 9.96696 2.53591Z" fill="#485F7D"/>
<path id="Vector_6" d="M10.2143 2.67089C10.1939 2.67391 10.1681 2.68926 10.165 2.65034C10.1904 2.63581 10.214 2.62539 10.2143 2.67089Z" fill="#485F7D"/>
<path id="Vector_7" d="M9.74284 2.38274C9.74284 2.38274 9.74146 2.38274 9.74174 2.38274C9.731 2.38137 9.71999 2.38028 9.70898 2.37891C9.72027 2.38028 9.73155 2.38137 9.74284 2.38274Z" fill="#485F7D"/>
<path id="Vector_8" d="M9.69756 2.39742C9.67802 2.40482 9.66591 2.4029 9.67114 2.37769C9.67995 2.38426 9.68875 2.39084 9.69756 2.39742Z" fill="#485F7D"/>
<path id="Vector_9" d="M4.28901 12.7417C4.28213 12.7223 4.29506 12.7165 4.30992 12.7124C4.30304 12.7223 4.29589 12.7319 4.28901 12.7417Z" fill="#485F7D"/>
</g>
</g>
<defs>
<clipPath id="clip0_4678_131645">
<rect width="14" height="14" fill="white"/>
</clipPath>
</defs>
</svg>
