<svg width="15" height="15" viewBox="0 0 18 18" fill="none" xmlns="http://www.w3.org/2000/svg">
<path d="M12.3204 18.0004H5.64815C5.48609 17.8964 5.31731 17.7889 5.29855 17.5771C5.2621 17.1613 5.35481 16.7652 5.51405 16.3824C5.52289 16.3698 5.53209 16.3574 5.54094 16.3447C5.77696 15.8182 6.16654 15.4292 6.66583 15.1567C7.16688 14.8833 7.72136 14.8227 8.28363 14.8392C8.43189 14.8438 8.47683 14.8145 8.47648 14.6542C8.47082 11.2157 8.47223 7.7775 8.47223 4.33898C8.47223 4.30973 8.46869 4.27978 8.47294 4.25123C8.48603 4.16383 8.44605 4.14727 8.36466 4.14445C8.22949 4.13951 8.09927 4.17722 7.96729 4.17969C7.67713 4.18568 7.39051 4.21669 7.10283 4.25053C6.5487 4.31607 5.99847 4.40312 5.45708 4.53598C5.11986 4.6188 4.77662 4.68188 4.44931 4.80523C4.62659 5.20733 4.80174 5.60592 4.97796 6.00415C5.24795 6.61383 5.51865 7.22351 5.78899 7.83319C6.06393 8.45344 6.33958 9.07334 6.61204 9.69465C6.65733 9.79755 6.71041 9.84548 6.83886 9.84865C7.21642 9.85852 7.42165 10.0936 7.40785 10.4393C7.39334 10.7984 7.30877 11.1494 7.14211 11.4708C6.77481 12.1795 6.20158 12.6659 5.47512 12.989C4.71399 13.3277 3.92314 13.4225 3.10008 13.3256C2.5279 13.2583 1.99324 13.0754 1.50209 12.7867C0.923903 12.447 0.472036 11.9815 0.19391 11.3588C0.106509 11.1632 0.0817394 10.9521 0 10.7575V10.5817C0.0527237 10.5232 0.0523698 10.4643 0 10.4058C0 10.3353 0 10.2652 0 10.1947C0.0116771 10.1842 0.0276003 10.1757 0.0343235 10.1627C0.129863 9.96953 0.277418 9.82856 0.499282 9.85006C0.700269 9.86944 0.754408 9.74504 0.813855 9.61253C0.993257 9.21254 1.167 8.81044 1.34498 8.41009C1.68857 7.63548 2.03393 6.86122 2.37787 6.08661C2.51694 5.77331 2.65494 5.46002 2.80745 5.11465C2.45643 5.15835 2.13796 5.21791 1.81702 5.23236C1.43238 5.24962 1.0474 5.27359 0.6617 5.28028C0.34005 5.28557 0.121017 5.18372 0.00035385 4.88593V4.81545C0.0502467 4.76858 0.0502467 4.72171 0.00035385 4.67483V4.60435C0.0463544 4.5973 0.0895241 4.58884 0.0346773 4.53352C0.0608622 4.40559 0.161709 4.33969 0.265388 4.29599C0.60013 4.15432 0.953626 4.05952 1.28908 3.92348C1.95113 3.65494 2.60504 3.3649 3.25436 3.06641C4.16198 2.64879 4.98469 2.06731 5.91 1.68318C6.29145 1.52459 6.67892 1.38362 7.0862 1.29446C7.49454 1.20495 7.90324 1.13023 8.31866 1.08653C8.41986 1.07596 8.49275 1.03508 8.47683 0.901516C8.4602 0.763017 8.47259 0.620641 8.47435 0.480027C8.47754 0.238974 8.6764 0.0173047 8.92516 0.00215085C9.19267 -0.0140603 9.42904 0.138888 9.49734 0.379588C9.55431 0.579761 9.52564 0.783105 9.5306 0.985391C9.53237 1.05165 9.5352 1.08794 9.62189 1.09182C9.9722 1.10697 10.319 1.16689 10.6608 1.23525C11.2779 1.35895 11.8632 1.5919 12.4315 1.85445C13.0585 2.14414 13.6399 2.52333 14.2527 2.84051C14.8603 3.15486 15.4848 3.43715 16.1207 3.693C16.3288 3.77688 16.5216 3.91256 16.736 3.96366C17.0683 4.04295 17.3815 4.167 17.6946 4.29317C17.8404 4.35202 17.9547 4.45634 17.971 4.63783C17.9915 4.86866 17.9487 5.06919 17.7357 5.19394C17.6539 5.24187 17.5612 5.27429 17.4593 5.27359C16.9696 5.27042 16.4816 5.27006 15.9926 5.21156C15.7297 5.1802 15.4632 5.13579 15.1841 5.13227C15.3171 5.43394 15.4424 5.71869 15.5683 6.00309C15.8383 6.61242 16.1094 7.22174 16.3794 7.83142C16.6543 8.45168 16.9292 9.07193 17.2021 9.69324C17.2467 9.79509 17.2983 9.84583 17.4282 9.84865C17.8171 9.85711 18.0241 10.1101 17.9982 10.4555C17.9621 10.9362 17.8284 11.3901 17.5446 11.7936C17.1193 12.3994 16.5499 12.8167 15.8631 13.0775C15.1614 13.3439 14.4364 13.414 13.6898 13.3277C13.2963 13.2822 12.9293 13.1582 12.5645 13.0215C12.2241 12.8935 11.9262 12.6937 11.6459 12.4629C10.9651 11.9018 10.5688 11.2069 10.59 10.3057C10.5914 10.2391 10.612 10.1859 10.6417 10.1306C10.7585 9.91068 10.9474 9.82962 11.1873 9.84301C11.2468 9.84619 11.3013 9.84654 11.3306 9.7757C11.401 9.60443 11.4757 9.43492 11.5504 9.26576C11.8565 8.57185 12.1615 7.87759 12.4697 7.18474C12.8076 6.42493 13.1477 5.66583 13.4895 4.90778C13.5238 4.83201 13.5479 4.80769 13.4325 4.77386C12.9796 4.64206 12.5228 4.52788 12.0596 4.43942C11.5408 4.34004 11.0189 4.26533 10.4927 4.20859C10.2751 4.18498 10.0554 4.20683 9.83739 4.15291C9.5674 4.0863 9.53095 4.12894 9.53095 4.40383V12.7184C9.53095 13.3806 9.53378 14.0428 9.52812 14.7046C9.52706 14.8145 9.55607 14.8427 9.66435 14.8385C9.95416 14.8276 10.2429 14.853 10.5285 14.9055C11.5415 15.0922 12.2018 15.6885 12.555 16.639C12.6445 16.8801 12.6777 17.1359 12.7036 17.3893C12.7336 17.6829 12.5557 17.8636 12.3196 18.0004H12.3204ZM12.4679 3.08297C12.4566 3.07451 12.4453 3.06606 12.4339 3.0576C11.9506 2.75804 11.4315 2.54448 10.8848 2.38589C10.3034 2.21744 9.71035 2.13814 9.10952 2.11136C8.87774 2.10114 8.64562 2.11524 8.41208 2.13638C7.9595 2.17726 7.51931 2.26078 7.0816 2.37884C6.18282 2.62131 5.40824 3.11927 4.60465 3.55697C4.52822 3.59856 4.41994 3.60666 4.36969 3.71873C7.44784 2.87575 10.515 2.86694 13.5857 3.7145C13.5861 3.69899 13.5864 3.68314 13.5868 3.66763C13.4353 3.5901 13.2842 3.51221 13.1328 3.43468C13.1328 3.37653 13.1024 3.38957 13.0695 3.40825C12.9845 3.35927 12.8996 3.30993 12.815 3.26094C12.8157 3.2035 12.7864 3.21196 12.752 3.23275C12.6958 3.15134 12.5574 3.17953 12.5263 3.06465C12.5118 3.06288 12.4973 3.06147 12.4828 3.05971C12.4969 3.06147 12.5107 3.06288 12.5249 3.06465C12.5114 3.08685 12.4927 3.09319 12.4683 3.08332L12.4679 3.08297ZM5.52501 9.83914C5.25715 9.2358 4.99919 8.65819 4.74371 8.07988C4.5353 7.60834 4.33112 7.13505 4.12235 6.66352C4.00523 6.39921 3.88386 6.13701 3.76107 5.87552C3.74692 5.84556 3.74763 5.79058 3.68499 5.79904C3.64819 5.80397 3.64642 5.82442 3.63369 5.85296C3.48472 6.18881 3.32973 6.5222 3.1797 6.85805C2.87539 7.53927 2.57214 8.22084 2.27066 8.90347C2.13478 9.21148 2.00491 9.52232 1.86939 9.83914H5.52501ZM12.4569 9.83526H16.1211C16.0429 9.66328 15.9693 9.50399 15.8974 9.34364C15.6702 8.83828 15.4417 8.33362 15.2173 7.82684C14.9314 7.18157 14.6501 6.53453 14.3621 5.89067C14.3479 5.85895 14.3476 5.79516 14.2771 5.79869C14.2092 5.80186 14.2106 5.86318 14.1968 5.89631C13.8738 6.67374 13.5178 7.43637 13.1753 8.20498C12.9364 8.74101 12.7018 9.2788 12.4569 9.83561V9.83526ZM1.17337 10.9055C1.259 11.184 1.40585 11.37 1.71476 11.6414C2.16875 12.0403 2.71191 12.2384 3.29717 12.2969C3.79186 12.3462 4.2876 12.3075 4.77096 12.1461C5.13507 12.0245 5.44504 11.8211 5.74086 11.5931C5.97016 11.4166 6.12444 11.1769 6.23625 10.9059H1.17372L1.17337 10.9055ZM16.8242 10.908H11.7524C11.826 11.1804 12.0029 11.3753 12.1873 11.5491C12.6586 11.9931 13.2393 12.2373 13.8755 12.2972C14.6388 12.3691 15.3766 12.2553 16.034 11.8148C16.3804 11.5825 16.6716 11.3069 16.8242 10.908ZM11.5599 16.9428C11.4233 16.6809 11.2945 16.455 11.0812 16.2739C10.7135 15.9617 10.2818 15.894 9.82606 15.8919C9.27299 15.8891 8.72028 15.8926 8.16721 15.8905C7.94712 15.8898 7.73092 15.8954 7.51613 15.9595C6.99632 16.1146 6.63363 16.4325 6.43512 16.9431H11.5599V16.9428Z" />
</svg>
