<svg width="25" height="24" viewBox="0 0 25 24" fill="none" xmlns="http://www.w3.org/2000/svg">
<rect x="24.2" y="24" width="24" height="24" rx="12" transform="rotate(-180 24.2 24)" fill="#D2D8E0"/>
<path d="M16.0047 6.7014C16.254 6.4521 16.6582 6.4521 16.9075 6.7014V6.7014C17.1568 6.9507 17.1568 7.3549 16.9075 7.60421L12.2 12.3117L7.49253 7.6042C7.24323 7.3549 7.24323 6.9507 7.49253 6.7014V6.7014C7.74183 6.4521 8.14603 6.4521 8.39534 6.7014L12.2 10.5061L16.0047 6.7014ZM16.0047 12.1397C16.254 11.8904 16.6582 11.8904 16.9075 12.1397V12.1397C17.1568 12.389 17.1568 12.7932 16.9075 13.0425L12.2 17.75L7.49253 13.0425C7.24323 12.7932 7.24323 12.389 7.49253 12.1397V12.1397C7.74183 11.8904 8.14603 11.8904 8.39533 12.1397L12.2 15.9444L16.0047 12.1397Z" fill="#243A57"/>
</svg>
