<svg width="34" height="33" viewBox="0 0 34 33" fill="none" xmlns="http://www.w3.org/2000/svg">
<rect x="1" y="0.5" width="32" height="32" rx="6" stroke="#D2D8E0"/>
<rect x="5" y="4.5" width="24" height="24" rx="4" fill="#F3F4F6"/>
<rect x="10" y="10" width="14" height="14" rx="2" stroke="#485F7D" stroke-width="1.47"/>
<path d="M16.8605 13.0029C14.9492 13.0733 13.3898 14.6179 13.3046 16.5329C13.273 17.1675 13.4061 17.7995 13.691 18.3675C13.976 18.9354 14.403 19.42 14.9307 19.7739V20.4073C14.9307 20.5645 14.9932 20.7153 15.1043 20.8264C15.2154 20.9376 15.3662 21 15.5234 21H15.8197C15.859 21 15.8967 20.9844 15.9245 20.9566C15.9523 20.9288 15.9679 20.8911 15.9679 20.8518V19.974C15.9666 19.8971 15.9946 19.8226 16.0462 19.7655C16.0978 19.7085 16.169 19.6731 16.2457 19.6665C16.2861 19.664 16.3266 19.6698 16.3648 19.6835C16.4029 19.6973 16.4378 19.7187 16.4673 19.7465C16.4968 19.7743 16.5203 19.8078 16.5363 19.845C16.5524 19.8822 16.5606 19.9223 16.5605 19.9629V20.8518C16.5605 20.8911 16.5761 20.9288 16.6039 20.9566C16.6317 20.9844 16.6694 21 16.7087 21H17.3013C17.3406 21 17.3783 20.9844 17.4061 20.9566C17.4339 20.9288 17.4495 20.8911 17.4495 20.8518V19.974C17.4483 19.8971 17.4763 19.8226 17.5278 19.7655C17.5794 19.7085 17.6507 19.6731 17.7273 19.6665C17.7677 19.664 17.8083 19.6698 17.8464 19.6835C17.8845 19.6973 17.9194 19.7187 17.9489 19.7465C17.9784 19.7743 18.0019 19.8078 18.018 19.845C18.034 19.8822 18.0422 19.9223 18.0422 19.9629V20.8518C18.0422 20.8911 18.0578 20.9288 18.0855 20.9566C18.1133 20.9844 18.151 21 18.1903 21H18.4866C18.6438 21 18.7946 20.9376 18.9057 20.8264C19.0169 20.7153 19.0793 20.5645 19.0793 20.4073V19.7739C19.747 19.3231 20.2495 18.6669 20.5106 17.9048C20.7718 17.1427 20.7774 16.3162 20.5265 15.5507C20.2756 14.7851 19.782 14.1222 19.1205 13.6624C18.4589 13.2027 17.6655 12.9711 16.8605 13.0029ZM15.6715 18.0367C15.525 18.0367 15.3818 17.9933 15.26 17.9119C15.1381 17.8305 15.0432 17.7148 14.9871 17.5794C14.931 17.444 14.9164 17.2951 14.945 17.1514C14.9735 17.0077 15.0441 16.8757 15.1477 16.7721C15.2513 16.6685 15.3833 16.5979 15.527 16.5693C15.6707 16.5407 15.8197 16.5554 15.955 16.6115C16.0904 16.6676 16.2061 16.7625 16.2875 16.8843C16.3689 17.0062 16.4124 17.1494 16.4124 17.2959C16.4114 17.4921 16.333 17.68 16.1943 17.8187C16.0556 17.9574 15.8677 18.0358 15.6715 18.0367ZM18.3385 18.0367C18.192 18.0367 18.0487 17.9933 17.9269 17.9119C17.8051 17.8305 17.7101 17.7148 17.6541 17.5794C17.598 17.444 17.5833 17.2951 17.6119 17.1514C17.6405 17.0077 17.711 16.8757 17.8146 16.7721C17.9182 16.6685 18.0502 16.5979 18.194 16.5693C18.3377 16.5407 18.4866 16.5554 18.622 16.6115C18.7573 16.6676 18.873 16.7625 18.9544 16.8843C19.0358 17.0062 19.0793 17.1494 19.0793 17.2959C19.0783 17.4921 19 17.68 18.8612 17.8187C18.7225 17.9574 18.5347 18.0358 18.3385 18.0367Z" fill="#485F7D"/>
</svg>
