<svg width="20" height="20" viewBox="0 0 20 20" fill="none" xmlns="http://www.w3.org/2000/svg">
<rect x="3" y="3" width="14" height="14" rx="2" stroke="#FFFFFF" stroke-width="1.47"/>
<path d="M9.86055 6.00288C7.94924 6.07326 6.38982 7.61786 6.30463 9.53287C6.27296 10.1675 6.40607 10.7995 6.69101 11.3675C6.97596 11.9354 7.40304 12.42 7.93072 12.7739V13.4073C7.93072 13.5645 7.99316 13.7153 8.1043 13.8264C8.21545 13.9376 8.36619 14 8.52337 14H8.8197C8.85899 14 8.89668 13.9844 8.92447 13.9566C8.95225 13.9288 8.96786 13.8911 8.96786 13.8518V12.974C8.96665 12.8971 8.99464 12.8226 9.0462 12.7655C9.09776 12.7085 9.16905 12.6731 9.24567 12.6665C9.28611 12.664 9.32665 12.6698 9.36476 12.6835C9.40288 12.6973 9.43777 12.7187 9.46728 12.7465C9.49679 12.7743 9.52029 12.8078 9.53633 12.845C9.55236 12.8822 9.5606 12.9223 9.56052 12.9629V13.8518C9.56052 13.8911 9.57613 13.9288 9.60391 13.9566C9.6317 13.9844 9.66938 14 9.70868 14H10.3013C10.3406 14 10.3783 13.9844 10.4061 13.9566C10.4339 13.9288 10.4495 13.8911 10.4495 13.8518V12.974C10.4483 12.8971 10.4763 12.8226 10.5278 12.7655C10.5794 12.7085 10.6507 12.6731 10.7273 12.6665C10.7677 12.664 10.8083 12.6698 10.8464 12.6835C10.8845 12.6973 10.9194 12.7187 10.9489 12.7465C10.9784 12.7743 11.0019 12.8078 11.018 12.845C11.034 12.8822 11.0422 12.9223 11.0422 12.9629V13.8518C11.0422 13.8911 11.0578 13.9288 11.0855 13.9566C11.1133 13.9844 11.151 14 11.1903 14H11.4866C11.6438 14 11.7946 13.9376 11.9057 13.8264C12.0169 13.7153 12.0793 13.5645 12.0793 13.4073V12.7739C12.747 12.3231 13.2495 11.6669 13.5106 10.9048C13.7718 10.1427 13.7774 9.31624 13.5265 8.55067C13.2756 7.78511 12.782 7.1222 12.1205 6.66244C11.4589 6.20267 10.6655 5.97112 9.86055 6.00288ZM8.67154 11.0367C8.52502 11.0367 8.38179 10.9933 8.25996 10.9119C8.13813 10.8305 8.04318 10.7148 7.98711 10.5794C7.93104 10.444 7.91637 10.2951 7.94495 10.1514C7.97354 10.0077 8.04409 9.87568 8.1477 9.77208C8.2513 9.66847 8.38331 9.59792 8.52701 9.56933C8.67071 9.54075 8.81967 9.55542 8.95503 9.61149C9.0904 9.66756 9.2061 9.76251 9.2875 9.88434C9.3689 10.0062 9.41235 10.1494 9.41235 10.2959C9.41138 10.4921 9.33302 10.68 9.1943 10.8187C9.05558 10.9574 8.86771 11.0358 8.67154 11.0367ZM11.3385 11.0367C11.192 11.0367 11.0487 10.9933 10.9269 10.9119C10.8051 10.8305 10.7101 10.7148 10.6541 10.5794C10.598 10.444 10.5833 10.2951 10.6119 10.1514C10.6405 10.0077 10.711 9.87568 10.8146 9.77208C10.9182 9.66847 11.0502 9.59792 11.194 9.56933C11.3377 9.54075 11.4866 9.55542 11.622 9.61149C11.7573 9.66756 11.873 9.76251 11.9544 9.88434C12.0358 10.0062 12.0793 10.1494 12.0793 10.2959C12.0783 10.4921 12 10.68 11.8612 10.8187C11.7225 10.9574 11.5347 11.0358 11.3385 11.0367Z" fill="#FFFFFF"/>
</svg>
