<svg width="22" height="22" viewBox="0 0 24 24" fill="none" xmlns="http://www.w3.org/2000/svg">
<path fill-rule="evenodd" clip-rule="evenodd" d="M9.51163 9.2093C9.51163 7.79648 10.6569 6.65116 12.0698 6.65116C13.4826 6.65116 14.6279 7.79648 14.6279 9.2093C14.6279 10.6221 13.4826 11.7674 12.0698 11.7674C10.6569 11.7674 9.51163 10.6221 9.51163 9.2093ZM12.0698 8.04651C11.4276 8.04651 10.907 8.56711 10.907 9.2093C10.907 9.85149 11.4276 10.3721 12.0698 10.3721C12.712 10.3721 13.2326 9.85149 13.2326 9.2093C13.2326 8.56711 12.712 8.04651 12.0698 8.04651Z" />
<path fill-rule="evenodd" clip-rule="evenodd" d="M12.0698 12.2326C10.9574 12.2326 9.91592 12.4565 9.12666 12.8511C8.37914 13.2249 7.65116 13.8703 7.65116 14.7907L7.65104 14.8488C7.64962 15.3236 7.64721 16.123 8.40486 16.6714C8.75645 16.9259 9.22037 17.0882 9.79506 17.1916C10.3751 17.296 11.1183 17.3488 12.0698 17.3488C13.0212 17.3488 13.7645 17.296 14.3445 17.1916C14.9192 17.0882 15.3831 16.9259 15.7347 16.6714C16.4923 16.123 16.4899 15.3236 16.4885 14.8488L16.4884 14.7907C16.4884 13.8703 15.7604 13.2249 15.0129 12.8511C14.2236 12.4565 13.1821 12.2326 12.0698 12.2326ZM9.04651 14.7907C9.04651 14.6836 9.15149 14.3988 9.75068 14.0992C10.3081 13.8204 11.1271 13.6279 12.0698 13.6279C13.0124 13.6279 13.8314 13.8204 14.3889 14.0992C14.988 14.3988 15.093 14.6836 15.093 14.7907C15.093 15.353 15.0572 15.4392 14.9165 15.5411C14.803 15.6233 14.5692 15.7334 14.0974 15.8183C13.6309 15.9022 12.9788 15.9535 12.0698 15.9535C11.1607 15.9535 10.5086 15.9022 10.0421 15.8183C9.57033 15.7334 9.33657 15.6233 9.22304 15.5411C9.08231 15.4392 9.04651 15.353 9.04651 14.7907Z" />
<path fill-rule="evenodd" clip-rule="evenodd" d="M9.02176 2.74522C10.3649 2.28519 11.1977 2 12.0698 2C12.9419 2 13.7746 2.28519 15.1178 2.74523L15.7945 2.97687C17.1724 3.44855 18.2359 3.81258 18.9972 4.12185C19.3807 4.27764 19.7104 4.42853 19.9758 4.5827C20.2313 4.73107 20.4876 4.91613 20.6617 5.16422C20.8339 5.40945 20.9229 5.71093 20.9788 6.00113C21.0369 6.30285 21.072 6.66478 21.0946 7.08034C21.1395 7.90549 21.1395 9.03591 21.1395 10.5022V11.992C21.1395 17.6674 16.853 20.3884 14.3039 21.5019L14.2787 21.5129C13.9626 21.6511 13.6655 21.7809 13.3241 21.8683C12.9637 21.9605 12.5807 22 12.0698 22C11.5588 22 11.1759 21.9605 10.8154 21.8683C10.4741 21.7809 10.177 21.6511 9.86087 21.5129L9.83566 21.5019C7.28654 20.3884 3 17.6674 3 11.992V10.5022C3 9.03608 3 7.90546 3.04493 7.08034C3.06756 6.66478 3.10262 6.30285 3.16076 6.00113C3.21668 5.71093 3.30568 5.40945 3.4778 5.16422C3.65193 4.91613 3.90823 4.73107 4.1637 4.5827C4.42918 4.42853 4.75887 4.27764 5.14235 4.12185C5.90363 3.81258 6.96709 3.44856 8.34507 2.97687L9.02176 2.74522ZM12.0698 3.39535C11.4579 3.39535 10.856 3.59222 9.35406 4.10632L8.82121 4.28872C7.41415 4.77036 6.388 5.1219 5.66753 5.41459C5.30791 5.56069 5.04735 5.68311 4.86445 5.78933C4.77416 5.84177 4.71194 5.88504 4.67039 5.91881C4.63516 5.94745 4.62173 5.96367 4.6198 5.96603C4.61801 5.96896 4.60645 5.98828 4.59017 6.03399C4.57158 6.08618 4.55097 6.16101 4.5309 6.26517C4.49027 6.47599 4.45948 6.76559 4.43821 7.1562C4.39561 7.93871 4.39535 9.03101 4.39535 10.5271V11.992C4.39535 16.806 7.99525 19.1753 10.3942 20.2232C10.7398 20.3742 10.9393 20.4596 11.1615 20.5165C11.3737 20.5708 11.6326 20.6047 12.0698 20.6047C12.507 20.6047 12.7659 20.5708 12.978 20.5165C13.2002 20.4596 13.3998 20.3742 13.7453 20.2232C16.1443 19.1753 19.7442 16.806 19.7442 11.992V10.5271C19.7442 9.03101 19.7439 7.93871 19.7013 7.1562C19.68 6.76559 19.6493 6.47599 19.6086 6.26517C19.5886 6.16101 19.568 6.08618 19.5494 6.03399C19.5331 5.98825 19.5215 5.96893 19.5197 5.96603C19.5178 5.96364 19.5043 5.94743 19.4691 5.91881C19.4276 5.88504 19.3654 5.84177 19.2751 5.78933C19.0922 5.68311 18.8316 5.56069 18.472 5.41459C17.7515 5.1219 16.7254 4.77036 15.3183 4.28872L14.7855 4.10632C13.2836 3.59222 12.6816 3.39535 12.0698 3.39535Z" />
</svg>
