<svg width="20" height="21" viewBox="0 0 20 21" fill="none" xmlns="http://www.w3.org/2000/svg">
<g id="Tick">
<path id="Vector" d="M10 2C8.21997 2 6.47991 2.52784 4.99987 3.51677C3.51983 4.50571 2.36628 5.91131 1.68509 7.55585C1.0039 9.20038 0.82567 11.01 1.17294 12.7558C1.5202 14.5016 2.37737 16.1053 3.63604 17.364C4.89471 18.6226 6.49836 19.4798 8.24419 19.8271C9.99002 20.1743 11.7996 19.9961 13.4442 19.3149C15.0887 18.6337 16.4943 17.4802 17.4832 16.0001C18.4722 14.5201 19 12.78 19 11C18.9987 8.61345 18.0501 6.32501 16.3625 4.63747C14.675 2.94992 12.3866 2.00129 10 2ZM7.55814 14.8623L4.3307 11.6314C4.16241 11.4631 4.06787 11.2349 4.06787 10.9969C4.06787 10.7589 4.16241 10.5306 4.3307 10.3623C4.49899 10.194 4.72724 10.0995 4.96524 10.0995C5.20323 10.0995 5.43148 10.194 5.59977 10.3623L8.2007 12.9535L14.3953 6.76163C14.5636 6.59334 14.7919 6.49879 15.0299 6.49879C15.2679 6.49879 15.4961 6.59334 15.6644 6.76163C15.8327 6.92992 15.9273 7.15816 15.9273 7.39616C15.9273 7.63416 15.8327 7.86241 15.6644 8.0307L8.8321 14.8623C8.7488 14.946 8.64981 15.0123 8.54079 15.0576C8.43178 15.1029 8.3149 15.1262 8.19686 15.1262C8.07882 15.1262 7.96194 15.1029 7.85293 15.0576C7.74392 15.0123 7.64493 14.946 7.56163 14.8623H7.55814Z" fill="#0EB20B"/>
</g>
</svg>
