<svg width="16" height="17" viewBox="0 0 16 17" fill="none" xmlns="http://www.w3.org/2000/svg">
<g id="call_split_FILL0_wght400_GRAD0_opsz48">
<path id="like 1 (Traced)" fill-rule="evenodd" clip-rule="evenodd" d="M8.27081 2.12967C8.21074 2.15153 8.11227 2.2164 8.05199 2.27378C7.8728 2.44443 7.85975 2.52644 7.85975 3.48298V4.31637L7.78304 4.41742C7.52915 4.75184 6.44788 5.95186 5.46418 6.99096L5.01897 7.46123L5.01925 11.064L5.01956 14.6667L5.68725 14.9067C6.40524 15.1648 6.68465 15.2528 7.01595 15.325C7.61535 15.4557 7.62284 15.456 10.3337 15.468C12.1577 15.4761 12.9597 15.4705 13.0901 15.4486C13.7621 15.3362 14.2733 14.7438 14.2723 14.0788C14.2719 13.8241 14.2225 13.6352 14.0989 13.4156L14.0044 13.2477L14.1737 13.0789C14.3588 12.8942 14.4736 12.6915 14.5433 12.4265C14.6283 12.103 14.5551 11.6553 14.3735 11.3877L14.3049 11.2868L14.4802 11.1116C14.9263 10.6657 15.0158 10.0278 14.7091 9.4795L14.6151 9.31159L14.7617 9.17044C15.3396 8.61385 15.3468 7.77986 14.7785 7.21691C14.6652 7.10462 14.5271 7.00184 14.4163 6.94732C14.0896 6.78648 14.0326 6.7822 12.1983 6.78168C11.2817 6.78144 10.5318 6.77417 10.5318 6.76553C10.5318 6.75692 10.6348 6.40299 10.7608 5.97901L10.9898 5.20818L10.9732 4.69874C10.9536 4.09451 10.9016 3.84845 10.7143 3.47198C10.3231 2.68566 9.52087 2.16075 8.62541 2.10512C8.44748 2.09407 8.35008 2.10082 8.27081 2.12967ZM0.799988 10.8542V15.2015H2.48758H4.17517V10.8542V6.50694H2.48758H0.799988V10.8542Z" fill="#2ED47A"/>
</g>
</svg>
