<svg width="19" height="17" viewBox="0 0 19 17" fill="none" xmlns="http://www.w3.org/2000/svg">
<path fill-rule="evenodd" clip-rule="evenodd" d="M10.276 0.0369667C10.2009 0.0642916 10.0778 0.145375 10.0025 0.217098C9.77851 0.430417 9.7622 0.532928 9.7622 1.7286V2.77034L9.66632 2.89665C9.34895 3.31468 7.99736 4.8147 6.76774 6.11357L6.21122 6.70142L6.21158 11.2048L6.21196 15.7082L7.04658 16.0083C7.94406 16.3309 8.29332 16.4409 8.70745 16.5311C9.45671 16.6945 9.46606 16.6949 12.8547 16.7099C15.1347 16.72 16.1371 16.713 16.3002 16.6857C17.1401 16.5451 17.7792 15.8046 17.7778 14.9734C17.7773 14.655 17.7156 14.4189 17.5611 14.1443L17.4431 13.9345L17.6546 13.7235C17.8861 13.4926 18.0296 13.2393 18.1166 12.908C18.2228 12.5036 18.1314 11.944 17.9043 11.6095L17.8187 11.4833L18.0377 11.2644C18.5954 10.707 18.7072 9.9096 18.3238 9.22425L18.2064 9.01436L18.3896 8.83793C19.1121 8.14219 19.121 7.0997 18.4107 6.39601C18.269 6.25565 18.0964 6.12718 17.9579 6.05903C17.5495 5.85798 17.4783 5.85263 15.1853 5.85198C14.0396 5.85167 13.1022 5.84259 13.1022 5.83179C13.1022 5.82102 13.231 5.37861 13.3885 4.84864L13.6748 3.88511L13.654 3.2483C13.6295 2.49301 13.5646 2.18545 13.3304 1.71486C12.8414 0.73195 11.8386 0.0758112 10.7193 0.00628202C10.4969 -0.00753468 10.3751 0.000899318 10.276 0.0369667ZM0.9375 10.9427V16.3768H3.04699H5.15648V10.9427V5.50855H3.04699H0.9375V10.9427Z" fill="white"/>
</svg>
