<svg width="24" height="24" viewBox="0 0 24 24" fill="none" xmlns="http://www.w3.org/2000/svg">
<path d="M18.5682 12.3695C18.8459 11.9924 18.9996 11.5303 18.9996 11.0495C18.9996 10.2867 18.5847 9.56475 17.917 9.16213C17.7451 9.05849 17.5494 9.00394 17.3501 9.00413H13.3867L13.4859 6.91628C13.509 6.41173 13.3355 5.93267 12.9983 5.56742C12.8329 5.38739 12.6332 5.24416 12.4118 5.14656C12.1903 5.04897 11.9518 4.99909 11.7108 5.00001C10.8514 5.00001 10.0911 5.5946 9.86301 6.44571L8.44327 11.729H6.30623C6.01369 11.729 5.77734 11.972 5.77734 12.2727V18.4564C5.77734 18.7571 6.01369 19 6.30623 19H16.2444C16.3964 19 16.5452 18.9694 16.6824 18.9083C17.4691 18.5634 17.9765 17.7735 17.9765 16.8969C17.9765 16.6828 17.9467 16.4722 17.8872 16.2683C18.1649 15.8912 18.3186 15.4291 18.3186 14.9483C18.3186 14.7343 18.2889 14.5236 18.2294 14.3197C18.507 13.9426 18.6607 13.4805 18.6607 12.9998C18.6574 12.7857 18.6277 12.5734 18.5682 12.3695ZM6.96734 17.7768V12.9522H8.30609V17.7768H6.96734ZM17.4856 11.78L17.1237 12.1028L17.3534 12.5343C17.4291 12.6764 17.4683 12.836 17.4674 12.9981C17.4674 13.2784 17.3484 13.5451 17.1435 13.7286L16.7815 14.0513L17.0113 14.4828C17.087 14.625 17.1262 14.7846 17.1253 14.9466C17.1253 15.2269 17.0063 15.4936 16.8014 15.6771L16.4394 15.9999L16.6691 16.4314C16.7448 16.5735 16.7841 16.7331 16.7832 16.8952C16.7832 17.2757 16.565 17.6189 16.2279 17.7751H9.36387V12.8978L11.0084 6.77358C11.0508 6.61661 11.1418 6.47813 11.2677 6.37911C11.3935 6.28009 11.5474 6.22594 11.7059 6.22486C11.8315 6.22486 11.9554 6.26224 12.0546 6.33868C12.2182 6.4644 12.3058 6.65466 12.2959 6.85682L12.1372 10.2273H17.3336C17.6278 10.4125 17.8096 10.725 17.8096 11.0495C17.8096 11.3298 17.6906 11.5948 17.4856 11.78Z" fill="#E5007A"/>
</svg>
