<svg viewBox="0 0 49 49" fill="none" xmlns="http://www.w3.org/2000/svg">
<path d="M3.25781 28.752C2.45781 28.752 1.75781 28.452 1.15781 27.852C0.557812 27.252 0.257812 26.552 0.257812 25.752V12.252C0.257812 11.9186 0.307813 11.6186 0.407813 11.352C0.507812 11.0853 0.691146 10.802 0.957812 10.502L10.7078 0.751953L11.9578 2.10195C12.1245 2.30195 12.2578 2.49362 12.3578 2.67695C12.4578 2.86029 12.5078 3.06862 12.5078 3.30195V3.70195L10.9578 10.752H21.7578C22.4578 10.752 23.0495 10.9936 23.5328 11.477C24.0161 11.9603 24.2578 12.552 24.2578 13.252V15.202C24.2578 15.4353 24.2411 15.6436 24.2078 15.827C24.1745 16.0103 24.1411 16.1353 24.1078 16.202L19.4578 27.202C19.2578 27.702 18.9328 28.0853 18.4828 28.352C18.0328 28.6186 17.4578 28.752 16.7578 28.752H3.25781ZM16.7578 25.752L21.2578 15.302V13.752H7.20781L8.60781 7.10195L3.25781 12.502V25.752H16.7578ZM37.8078 48.752L36.5578 47.352C36.3911 47.1853 36.2578 47.0103 36.1578 46.827C36.0578 46.6436 36.0078 46.4353 36.0078 46.202V45.802L37.5578 38.752H26.7578C26.0578 38.752 25.4661 38.5103 24.9828 38.027C24.4995 37.5436 24.2578 36.952 24.2578 36.252V34.302C24.2578 34.0686 24.2745 33.8603 24.3078 33.677C24.3411 33.4936 24.3745 33.3686 24.4078 33.302L29.0578 22.302C29.2578 21.802 29.5828 21.4186 30.0328 21.152C30.4828 20.8853 31.0578 20.752 31.7578 20.752H45.2578C46.0578 20.752 46.7578 21.052 47.3578 21.652C47.9578 22.252 48.2578 22.952 48.2578 23.752V37.252C48.2578 37.5853 48.2078 37.8853 48.1078 38.152C48.0078 38.4186 47.8245 38.702 47.5578 39.002L37.8078 48.752ZM31.7578 23.752L27.2578 34.202V35.752H41.3078L39.9078 42.402L45.2578 37.002V23.752H31.7578Z" fill="#F696C9"/>
</svg>
