<svg width="24" height="28" viewBox="0 0 24 28" fill="none" xmlns="http://www.w3.org/2000/svg">
<path d="M17.0514 12.6172H16.1907V8.22689C16.1708 7.09863 15.7087 6.0233 14.9038 5.23243C14.0988 4.44156 13.0155 3.99841 11.8871 3.99841C10.7587 3.99841 9.67535 4.44156 8.87043 5.23243C8.06551 6.0233 7.60336 7.09863 7.58349 8.22689V12.6172H6.72144C6.26532 12.6186 5.82828 12.8005 5.50575 13.123C5.18323 13.4455 5.00141 13.8826 5 14.3387V20.277C5.00141 20.7331 5.18323 21.1701 5.50575 21.4927C5.82828 21.8152 6.26532 21.997 6.72144 21.9984H17.0514C17.5077 21.9972 17.9449 21.8154 18.2675 21.4929C18.5902 21.1703 18.7721 20.7332 18.7735 20.277V14.3387C18.7721 13.8824 18.5902 13.4453 18.2675 13.1228C17.9449 12.8002 17.5077 12.6185 17.0514 12.6172ZM12.0773 18.9459C11.7756 18.9858 11.469 18.9302 11.2006 18.7868C10.9322 18.6435 10.7154 18.4197 10.5808 18.1469C10.4461 17.874 10.4003 17.5658 10.4498 17.2656C10.4994 16.9654 10.6417 16.6882 10.8569 16.4731C11.072 16.2579 11.3492 16.1156 11.6494 16.0661C11.9496 16.0166 12.2578 16.0623 12.5307 16.197C12.8035 16.3317 13.0273 16.5484 13.1706 16.8169C13.3139 17.0853 13.3695 17.3918 13.3296 17.6935C13.2872 18.0107 13.1416 18.3052 12.9153 18.5315C12.689 18.7578 12.3945 18.9034 12.0773 18.9459ZM9.30427 12.6172V8.22689C9.29876 7.88426 9.36149 7.54396 9.4888 7.22581C9.61611 6.90767 9.80546 6.61803 10.0458 6.37378C10.2862 6.12954 10.5727 5.93556 10.8888 5.80315C11.2048 5.67075 11.5441 5.60256 11.8868 5.60256C12.2294 5.60256 12.5687 5.67075 12.8847 5.80315C13.2008 5.93556 13.4874 6.12954 13.7277 6.37378C13.9681 6.61803 14.1574 6.90767 14.2847 7.22581C14.412 7.54396 14.4748 7.88426 14.4693 8.22689V12.6172H9.30427Z" fill="#485F7D"/>
</svg>
