<svg width="24" height="27" viewBox="0 0 24 27" fill="none" xmlns="http://www.w3.org/2000/svg">
<g id="Lock">
<path id="Vector" d="M17.0514 11.6174H16.1907V7.22702C16.1708 6.09876 15.7087 5.02342 14.9038 4.23255C14.0988 3.44168 13.0155 2.99854 11.8871 2.99854C10.7587 2.99854 9.67535 3.44168 8.87043 4.23255C8.06551 5.02342 7.60336 6.09876 7.58349 7.22702V11.6174H6.72144C6.26532 11.6188 5.82828 11.8006 5.50575 12.1231C5.18323 12.4456 5.00141 12.8827 5 13.3388V19.2771C5.00141 19.7332 5.18323 20.1703 5.50575 20.4928C5.82828 20.8153 6.26532 20.9971 6.72144 20.9985H17.0514C17.5077 20.9973 17.9449 20.8156 18.2675 20.493C18.5902 20.1705 18.7721 19.7333 18.7735 19.2771V13.3388C18.7721 12.8826 18.5902 12.4454 18.2675 12.1229C17.9449 11.8003 17.5077 11.6186 17.0514 11.6174ZM12.0773 17.946C11.7756 17.9859 11.469 17.9303 11.2006 17.787C10.9322 17.6437 10.7154 17.4199 10.5808 17.147C10.4461 16.8741 10.4003 16.566 10.4498 16.2657C10.4994 15.9655 10.6417 15.6884 10.8569 15.4732C11.072 15.2581 11.3492 15.1157 11.6494 15.0662C11.9496 15.0167 12.2578 15.0625 12.5307 15.1971C12.8035 15.3318 13.0273 15.5486 13.1706 15.817C13.3139 16.0854 13.3695 16.392 13.3296 16.6936C13.2872 17.0108 13.1416 17.3053 12.9153 17.5316C12.689 17.758 12.3945 17.9036 12.0773 17.946ZM9.30427 11.6174V7.22702C9.29876 6.88439 9.36149 6.54408 9.4888 6.22594C9.61611 5.90779 9.80546 5.61815 10.0458 5.37391C10.2862 5.12966 10.5727 4.93568 10.8888 4.80328C11.2048 4.67087 11.5441 4.60268 11.8868 4.60268C12.2294 4.60268 12.5687 4.67087 12.8847 4.80328C13.2008 4.93568 13.4874 5.12966 13.7277 5.37391C13.9681 5.61815 14.1574 5.90779 14.2847 6.22594C14.412 6.54408 14.4748 6.88439 14.4693 7.22702V11.6174H9.30427Z" fill="#485F7D"/>
</g>
</svg>
