<svg width="16" height="17" viewBox="0 0 16 17" fill="none" xmlns="http://www.w3.org/2000/svg">
<path d="M12.3733 7.70353H11.7039V5.28882C11.6884 4.41128 11.329 3.57491 10.7029 2.95979C10.0769 2.34467 9.2343 2 8.35663 2C7.47895 2 6.63638 2.34467 6.01033 2.95979C5.38429 3.57491 5.02484 4.41128 5.00938 5.28882V7.70353H4.3389C3.98414 7.70462 3.64422 7.84604 3.39336 8.09689C3.14251 8.34775 3.00109 8.68766 3 9.04243V13.6611C3.00109 14.0159 3.14251 14.3558 3.39336 14.6066C3.64422 14.8575 3.98414 14.9989 4.3389 15H12.3733C12.7282 14.999 13.0682 14.8577 13.3192 14.6068C13.5702 14.3559 13.7116 14.016 13.7127 13.6611V9.04243C13.7116 8.68757 13.5702 8.34758 13.3192 8.09671C13.0682 7.84584 12.7282 7.70449 12.3733 7.70353ZM8.50453 12.6258C8.26992 12.6568 8.03147 12.6136 7.82271 12.5021C7.61394 12.3907 7.44534 12.2166 7.34061 12.0044C7.23587 11.7921 7.20026 11.5524 7.23877 11.3189C7.27728 11.0854 7.38799 10.8699 7.55533 10.7025C7.72268 10.5352 7.93824 10.4245 8.17175 10.386C8.40525 10.3474 8.64495 10.3831 8.85717 10.4878C9.06939 10.5925 9.24346 10.7611 9.35493 10.9699C9.46639 11.1787 9.50964 11.4171 9.4786 11.6517C9.44561 11.8985 9.33237 12.1275 9.15634 12.3035C8.98032 12.4796 8.75127 12.5928 8.50453 12.6258ZM6.34776 7.70353V5.28882C6.34348 5.02233 6.39227 4.75765 6.49129 4.5102C6.59031 4.26275 6.73758 4.03748 6.92452 3.84751C7.11146 3.65754 7.33433 3.50667 7.58016 3.40369C7.82598 3.3007 8.08984 3.24767 8.35637 3.24767C8.62289 3.24767 8.88675 3.3007 9.13258 3.40369C9.37841 3.50667 9.60128 3.65754 9.78822 3.84751C9.97516 4.03748 10.1224 4.26275 10.2214 4.5102C10.3205 4.75765 10.3693 5.02233 10.365 5.28882V7.70353H6.34776Z" fill="white"/>
</svg>
