<svg width="20" height="20" viewBox="0 0 20 20" fill="none" xmlns="http://www.w3.org/2000/svg">
<path d="M9.99967 3.33344V1.84177C9.99967 1.46677 9.54967 1.28344 9.29134 1.55011L6.95801 3.87511C6.79134 4.04177 6.79134 4.30011 6.95801 4.46677L9.28301 6.79177C9.54967 7.05011 9.99967 6.86677 9.99967 6.49177V5.00011C12.758 5.00011 14.9997 7.24177 14.9997 10.0001C14.9997 10.6584 14.8747 11.3001 14.633 11.8751C14.508 12.1751 14.5997 12.5168 14.8247 12.7418C15.2497 13.1668 15.9663 13.0168 16.1913 12.4584C16.4997 11.7001 16.6663 10.8668 16.6663 10.0001C16.6663 6.31677 13.683 3.33344 9.99967 3.33344ZM9.99967 15.0001C7.24134 15.0001 4.99967 12.7584 4.99967 10.0001C4.99967 9.34177 5.12467 8.70011 5.36634 8.12511C5.49134 7.82511 5.39967 7.48344 5.17467 7.25844C4.74967 6.83344 4.03301 6.98344 3.80801 7.54177C3.49967 8.30011 3.33301 9.13344 3.33301 10.0001C3.33301 13.6834 6.31634 16.6668 9.99967 16.6668V18.1584C9.99967 18.5334 10.4497 18.7168 10.708 18.4501L13.033 16.1251C13.1997 15.9584 13.1997 15.7001 13.033 15.5334L10.708 13.2084C10.4497 12.9501 9.99967 13.1334 9.99967 13.5084V15.0001Z" fill="#90A0B7"/>
</svg>
