<svg width="20" height="21" viewBox="0 0 20 21" fill="none" xmlns="http://www.w3.org/2000/svg">
<g id="mail_FILL0_wght400_GRAD0_opsz48 (1) 1">
<path id="Vector" d="M2.91797 17.1663C2.58464 17.1663 2.29297 17.0413 2.04297 16.7913C1.79297 16.5413 1.66797 16.2497 1.66797 15.9163V5.08301C1.66797 4.74967 1.79297 4.45801 2.04297 4.20801C2.29297 3.95801 2.58464 3.83301 2.91797 3.83301H17.0846C17.418 3.83301 17.7096 3.95801 17.9596 4.20801C18.2096 4.45801 18.3346 4.74967 18.3346 5.08301V15.9163C18.3346 16.2497 18.2096 16.5413 17.9596 16.7913C17.7096 17.0413 17.418 17.1663 17.0846 17.1663H2.91797ZM10.0013 10.8747L2.91797 6.22884V15.9163H17.0846V6.22884L10.0013 10.8747ZM10.0013 9.62467L17.0013 5.08301H3.02214L10.0013 9.62467ZM2.91797 6.22884V5.08301V15.9163V6.22884Z" fill="#243A57"/>
</g>
</svg>
