<svg width="24" height="24" viewBox="0 0 24 24" fill="none" xmlns="http://www.w3.org/2000/svg">
<path d="M12 22L10 16H2L4 22H12ZM12 22H16" stroke="#485F7D" stroke-width="1.5" stroke-linecap="round" stroke-linejoin="round"/>
<path d="M12 13V12.5C12 10.6144 12 9.67157 11.4142 9.08579C10.8284 8.5 9.88562 8.5 8 8.5C6.11438 8.5 5.17157 8.5 4.58579 9.08579C4 9.67157 4 10.6144 4 12.5V13" stroke="#485F7D" stroke-width="1.5" stroke-linecap="round" stroke-linejoin="round"/>
<path d="M19 13C19 14.1046 18.1046 15 17 15C15.8954 15 15 14.1046 15 13C15 11.8954 15.8954 11 17 11C18.1046 11 19 11.8954 19 13Z" stroke="#485F7D" stroke-width="1.5"/>
<path d="M10 4C10 5.10457 9.10457 6 8 6C6.89543 6 6 5.10457 6 4C6 2.89543 6.89543 2 8 2C9.10457 2 10 2.89543 10 4Z" stroke="#485F7D" stroke-width="1.5"/>
<path d="M14 17.5H20C21.1046 17.5 22 18.3954 22 19.5V20C22 21.1046 21.1046 22 20 22H19" stroke="#485F7D" stroke-width="1.5" stroke-linecap="round"/>
</svg>
