<svg width="40" height="40" viewBox="0 0 40 40" fill="none" xmlns="http://www.w3.org/2000/svg">
<path d="M27.2004 12H12.7996C12.3235 12.0017 11.8675 12.1922 11.5317 12.5297C11.1959 12.8672 11.0077 13.3242 11.0084 13.8003L11 27.6779C10.9999 27.7529 11.022 27.8263 11.0636 27.8887C11.1052 27.9511 11.1644 27.9997 11.2337 28.0285C11.303 28.0573 11.3792 28.0648 11.4528 28.0502C11.5263 28.0357 11.5939 27.9996 11.647 27.9466L14.1013 25.4923C14.2593 25.3343 14.4469 25.209 14.6533 25.1236C14.8598 25.0381 15.0811 24.9942 15.3045 24.9944H27.1997C27.6767 24.9929 28.1338 24.8027 28.4711 24.4654C28.8084 24.1281 28.9985 23.6711 29 23.1941V13.8003C28.9987 13.3233 28.8087 12.8663 28.4715 12.529C28.1343 12.1917 27.6774 12.0015 27.2004 12ZM15.6308 20.2004C15.3229 20.2004 15.0276 20.0781 14.8098 19.8604C14.5921 19.6426 14.4698 19.3473 14.4698 19.0394C14.4698 18.7315 14.5921 18.4361 14.8098 18.2184C15.0276 18.0007 15.3229 17.8783 15.6308 17.8783C15.9387 17.8783 16.234 18.0007 16.4518 18.2184C16.6695 18.4361 16.7918 18.7315 16.7918 19.0394C16.7918 19.1919 16.7618 19.3428 16.7035 19.4837C16.6451 19.6246 16.5596 19.7525 16.4518 19.8604C16.344 19.9682 16.216 20.0537 16.0751 20.112C15.9342 20.1704 15.7833 20.2004 15.6308 20.2004ZM20.2722 20.2004C20.1197 20.2004 19.9687 20.1704 19.8278 20.112C19.687 20.0537 19.559 19.9682 19.4512 19.8604C19.3434 19.7525 19.2578 19.6246 19.1995 19.4837C19.1411 19.3428 19.1111 19.1919 19.1111 19.0394C19.1111 18.7315 19.2334 18.4361 19.4512 18.2184C19.6689 18.0007 19.9642 17.8783 20.2722 17.8783C20.5801 17.8783 20.8754 18.0007 21.0931 18.2184C21.3109 18.4361 21.4332 18.7315 21.4332 19.0394C21.4332 19.3469 21.3112 19.6419 21.0939 19.8596C20.8766 20.0773 20.5818 20.1999 20.2743 20.2004H20.2722ZM24.9135 20.2004C24.761 20.2004 24.6101 20.1704 24.4692 20.112C24.3283 20.0537 24.2003 19.9682 24.0925 19.8604C23.9847 19.7525 23.8992 19.6246 23.8408 19.4837C23.7825 19.3428 23.7525 19.1919 23.7525 19.0394C23.7525 18.7315 23.8748 18.4361 24.0925 18.2184C24.3103 18.0007 24.6056 17.8783 24.9135 17.8783C25.2214 17.8783 25.5167 18.0007 25.7345 18.2184C25.9522 18.4361 26.0745 18.7315 26.0745 19.0394C26.0745 19.3465 25.9529 19.641 25.7362 19.8586C25.5196 20.0762 25.2255 20.1991 24.9184 20.2004H24.9135Z" fill="#E5007A" fill-opacity="0.6"/>
<rect x="0.5" y="0.5" width="39" height="39" rx="5.5" stroke="#E5007A" stroke-opacity="0.6"/>
</svg>
