<svg width="14" height="10" viewBox="0 0 14 10" fill="none" xmlns="http://www.w3.org/2000/svg">
<path d="M7.8737 5.87467C7.38759 5.87467 6.97439 5.70454 6.63412 5.36426C6.29384 5.02398 6.1237 4.61079 6.1237 4.12467C6.1237 3.63856 6.29384 3.22537 6.63412 2.88509C6.97439 2.54481 7.38759 2.37467 7.8737 2.37467C8.35981 2.37467 8.773 2.54481 9.11328 2.88509C9.45356 3.22537 9.6237 3.63856 9.6237 4.12467C9.6237 4.61079 9.45356 5.02398 9.11328 5.36426C8.773 5.70454 8.35981 5.87467 7.8737 5.87467ZM3.20703 7.91634C2.96641 7.91634 2.76042 7.83066 2.58906 7.65931C2.41771 7.48796 2.33203 7.28197 2.33203 7.04134V1.20801C2.33203 0.967383 2.41771 0.761393 2.58906 0.590039C2.76042 0.418685 2.96641 0.333008 3.20703 0.333008H12.5404C12.781 0.333008 12.987 0.418685 13.1583 0.590039C13.3297 0.761393 13.4154 0.967383 13.4154 1.20801V7.04134C13.4154 7.28197 13.3297 7.48796 13.1583 7.65931C12.987 7.83066 12.781 7.91634 12.5404 7.91634H3.20703ZM4.66536 7.04134H11.082C11.082 6.63301 11.223 6.28787 11.5049 6.00592C11.7869 5.72398 12.132 5.58301 12.5404 5.58301V2.66634C12.132 2.66634 11.7869 2.52537 11.5049 2.24342C11.223 1.96148 11.082 1.61634 11.082 1.20801H4.66536C4.66536 1.61634 4.52439 1.96148 4.24245 2.24342C3.9605 2.52537 3.61536 2.66634 3.20703 2.66634V5.58301C3.61536 5.58301 3.9605 5.72398 4.24245 6.00592C4.52439 6.28787 4.66536 6.63301 4.66536 7.04134ZM11.6654 9.66634H1.45703C1.21641 9.66634 1.01042 9.58066 0.839063 9.40931C0.667708 9.23796 0.582031 9.03197 0.582031 8.79134V2.08301H1.45703V8.79134H11.6654V9.66634Z" fill="#ffffff"/>
</svg>
