<svg width="16" height="16" viewBox="0 0 16 16" fill="none" xmlns="http://www.w3.org/2000/svg">
<path fill-rule="evenodd" clip-rule="evenodd" d="M9.0068 7.35784C9.41346 7.6445 9.91346 7.81784 10.4468 7.81784C11.8201 7.81784 12.9401 6.69784 12.9401 5.31784C12.9401 3.9445 11.8201 2.8245 10.4468 2.8245C10.0601 2.8245 9.70013 2.91117 9.37346 3.07117C9.6868 3.6245 9.8668 4.2645 9.8668 4.9445C9.8668 5.85784 9.5468 6.69784 9.0068 7.35784Z" fill="#4B5563"/>
<path fill-rule="evenodd" clip-rule="evenodd" d="M6.02677 8.11783C7.04011 8.11783 7.94011 7.63783 8.52011 6.89783C8.94677 6.3645 9.20011 5.6845 9.20011 4.9445C9.20011 4.39783 9.06011 3.8845 8.82011 3.43783C8.28011 2.45117 7.23344 1.77783 6.02677 1.77783C4.28011 1.77783 2.86011 3.19783 2.86011 4.9445C2.86011 6.69117 4.28011 8.11783 6.02677 8.11783Z" fill="#4B5563"/>
<path fill-rule="evenodd" clip-rule="evenodd" d="M11.3689 12.2721C10.7794 10.6706 9.55544 9.5831 7.88376 9.14363C7.33897 8.99465 6.73448 8.92017 6.09267 8.92017H6.05535C3.36872 8.92017 1.41345 10.2386 0.682084 12.5402L0.592529 12.8158L0.846267 12.9648C2.26421 13.8363 3.96575 14.2534 6.03297 14.2534H6.07028C8.18974 14.2609 9.87635 13.8363 11.3018 12.9648L11.5555 12.8158L11.4659 12.5402C11.4361 12.4508 11.4062 12.3614 11.3689 12.2721Z" fill="#4B5563"/>
<path fill-rule="evenodd" clip-rule="evenodd" d="M15.6125 11.1251C15.0344 9.34622 13.4828 8.32764 11.3532 8.32764H11.3228C10.3873 8.32764 9.57344 8.52693 8.88892 8.8886C10.6078 9.49384 11.8856 10.7412 12.4789 12.4758C13.6121 12.3577 14.6085 12.0477 15.4451 11.5532L15.7037 11.3982L15.6125 11.1251Z" fill="#4B5563"/>
</svg>
