<svg width="18" height="20" viewBox="0 0 18 20" fill="none" xmlns="http://www.w3.org/2000/svg">
<path d="M1.5 20.0001C1.1 20.0001 0.75 19.8501 0.45 19.5501C0.15 19.2501 0 18.9001 0 18.5001V13.5501L3.375 9.82508L4.45 10.9001L1.5 14.1251H16.5L13.725 10.9751L14.8 9.90008L18 13.5501V18.5001C18 18.9001 17.85 19.2501 17.55 19.5501C17.25 19.8501 16.9 20.0001 16.5 20.0001H1.5ZM1.5 18.5001H16.5V15.6251H1.5V18.5001ZM8.05 12.3751L4.075 8.40008C3.75833 8.08341 3.61667 7.72924 3.65 7.33758C3.68333 6.94591 3.85 6.60008 4.15 6.30008L9.45 1.00008C9.73223 0.724076 10.082 0.580075 10.4992 0.568075C10.9164 0.556075 11.275 0.700076 11.575 1.00008L15.55 4.97508C15.8333 5.25841 15.9792 5.59591 15.9875 5.98758C15.9958 6.37924 15.8333 6.74174 15.5 7.07508L10.2 12.3751C9.91667 12.6584 9.56667 12.8084 9.15 12.8251C8.73333 12.8417 8.36667 12.6917 8.05 12.3751ZM14.275 5.95008L10.525 2.20008L5.325 7.40008L9.075 11.1501L14.275 5.95008Z" fill="#243A57"/>
</svg>
