<svg width="14" height="14" viewBox="0 0 14 14" fill="none" xmlns="http://www.w3.org/2000/svg">
<path d="M0.169922 10.3292V0.931889C0.169922 0.763865 0.245755 0.595841 0.397422 0.427817C0.549089 0.259793 0.706589 0.175781 0.869922 0.175781H9.95242C10.1274 0.175781 10.2908 0.256793 10.4424 0.418816C10.5941 0.580839 10.6699 0.751863 10.6699 0.931889V7.3408C10.6699 7.50883 10.5941 7.67685 10.4424 7.84488C10.2908 8.0129 10.1274 8.09691 9.95242 8.09691H2.96992L0.624922 10.5093C0.543255 10.5933 0.447005 10.6143 0.336172 10.5723C0.225339 10.5303 0.169922 10.4492 0.169922 10.3292ZM3.68742 11.6974C3.52409 11.6974 3.36367 11.6134 3.20617 11.4454C3.04867 11.2774 2.96992 11.1093 2.96992 10.9413V9.17707H11.7199V3.05619H13.4699C13.6333 3.05619 13.7908 3.1402 13.9424 3.30823C14.0941 3.47625 14.1699 3.65028 14.1699 3.8303V13.9117C14.1699 14.0318 14.1145 14.1128 14.0037 14.1548C13.8928 14.1968 13.7966 14.1758 13.7149 14.0918L11.3874 11.6974H3.68742ZM9.61992 1.25594H1.21992V7.01676H9.61992V1.25594Z" fill="#90A0B7"/>
</svg>
