<svg width="14" height="18" viewBox="0 0 14 18" fill="none" xmlns="http://www.w3.org/2000/svg">
<path fill-rule="evenodd" clip-rule="evenodd" d="M11.1907 8.61882H12.0514C12.5076 8.62005 12.9449 8.80179 13.2675 9.12434C13.5902 9.44689 13.7721 9.88402 13.7735 10.3403V16.2786C13.7721 16.7348 13.5902 17.1719 13.2675 17.4945C12.9449 17.817 12.5076 17.9988 12.0514 18H1.72144C1.26532 17.9986 0.828281 17.8168 0.505753 17.4942C0.183225 17.1717 0.00140779 16.7347 0 16.2786V10.3403C0.00140779 9.88414 0.183225 9.4471 0.505753 9.12457C0.828281 8.80205 1.26532 8.62023 1.72144 8.61882H2.58349V4.22848C2.60336 3.10022 3.06551 2.02488 3.87043 1.23401C4.67535 0.443144 5.75866 0 6.88709 0C8.01553 0 9.09884 0.443144 9.90376 1.23401C10.7087 2.02488 11.1708 3.10022 11.1907 4.22848C11.1907 4.37844 11.0691 4.5 10.9192 4.5H9.74077C9.59082 4.5 9.46925 4.37844 9.46925 4.22848C9.47476 3.88585 9.41203 3.54555 9.28472 3.2274C9.15741 2.90925 8.96807 2.61962 8.72771 2.37537C8.48736 2.13112 8.20081 1.93715 7.88475 1.80474C7.56868 1.67233 7.22943 1.60414 6.88676 1.60414C6.54409 1.60414 6.20483 1.67233 5.88877 1.80474C5.57271 1.93715 5.28616 2.13112 5.04581 2.37537C4.80545 2.61962 4.61611 2.90925 4.4888 3.2274C4.36149 3.54555 4.29876 3.88585 4.30427 4.22848V8.61882H9.46925H9.6875H10.404H11.1907ZM6.20062 14.7884C6.46904 14.9317 6.77561 14.9874 7.07725 14.9474C7.3945 14.905 7.68898 14.7594 7.9153 14.5331C8.14162 14.3068 8.28721 14.0123 8.32963 13.6951C8.36954 13.3934 8.31393 13.0869 8.17062 12.8184C8.02731 12.55 7.8035 12.3333 7.53065 12.1986C7.2578 12.0639 6.94961 12.0181 6.64939 12.0677C6.34917 12.1172 6.07201 12.2595 5.85686 12.4747C5.6417 12.6898 5.49937 12.967 5.44985 13.2672C5.40033 13.5674 5.44612 13.8756 5.58078 14.1485C5.71544 14.4213 5.93221 14.6451 6.20062 14.7884Z" fill="#5BE2FF"/>
<path fill-rule="evenodd" clip-rule="evenodd" d="M11.1907 8.61882H12.0514C12.5076 8.62005 12.9449 8.80179 13.2675 9.12434C13.5902 9.44689 13.7721 9.88402 13.7735 10.3403V16.2786C13.7721 16.7348 13.5902 17.1719 13.2675 17.4945C12.9449 17.817 12.5076 17.9988 12.0514 18H1.72144C1.26532 17.9986 0.828281 17.8168 0.505753 17.4942C0.183225 17.1717 0.00140779 16.7347 0 16.2786V10.3403C0.00140779 9.88414 0.183225 9.4471 0.505753 9.12457C0.828281 8.80205 1.26532 8.62023 1.72144 8.61882H2.58349V4.22848C2.60336 3.10022 3.06551 2.02488 3.87043 1.23401C4.67535 0.443144 5.75866 0 6.88709 0C8.01553 0 9.09884 0.443144 9.90376 1.23401C10.7087 2.02488 11.1708 3.10022 11.1907 4.22848C11.1907 4.37844 11.0691 4.5 10.9192 4.5H9.74077C9.59082 4.5 9.46925 4.37844 9.46925 4.22848C9.47476 3.88585 9.41203 3.54555 9.28472 3.2274C9.15741 2.90925 8.96807 2.61962 8.72771 2.37537C8.48736 2.13112 8.20081 1.93715 7.88475 1.80474C7.56868 1.67233 7.22943 1.60414 6.88676 1.60414C6.54409 1.60414 6.20483 1.67233 5.88877 1.80474C5.57271 1.93715 5.28616 2.13112 5.04581 2.37537C4.80545 2.61962 4.61611 2.90925 4.4888 3.2274C4.36149 3.54555 4.29876 3.88585 4.30427 4.22848V8.61882H9.46925H9.6875H10.404H11.1907ZM6.20062 14.7884C6.46904 14.9317 6.77561 14.9874 7.07725 14.9474C7.3945 14.905 7.68898 14.7594 7.9153 14.5331C8.14162 14.3068 8.28721 14.0123 8.32963 13.6951C8.36954 13.3934 8.31393 13.0869 8.17062 12.8184C8.02731 12.55 7.8035 12.3333 7.53065 12.1986C7.2578 12.0639 6.94961 12.0181 6.64939 12.0677C6.34917 12.1172 6.07201 12.2595 5.85686 12.4747C5.6417 12.6898 5.49937 12.967 5.44985 13.2672C5.40033 13.5674 5.44612 13.8756 5.58078 14.1485C5.71544 14.4213 5.93221 14.6451 6.20062 14.7884Z" fill="#1DF47F"/>
</svg>
