<svg viewBox="0 0 48 48" fill="none" xmlns="http://www.w3.org/2000/svg">
<path d="M12.5 32H15.5V31.5C15.5 29.1333 16.325 27.125 17.975 25.475C19.625 23.825 21.6333 23 24 23C26.3667 23 28.375 23.825 30.025 25.475C31.675 27.125 32.5 29.1333 32.5 31.5V32H35.5V31.5C35.5 28.3 34.3833 25.5833 32.15 23.35C29.9167 21.1167 27.2 20 24 20C20.8 20 18.0833 21.1167 15.85 23.35C13.6167 25.5833 12.5 28.3 12.5 31.5V32ZM14.2 18.5C15.5667 18.3 17.0083 17.7667 18.525 16.9C20.0417 16.0333 21.25 15.05 22.15 13.95L19.85 12.05C19.1833 12.85 18.2583 13.5833 17.075 14.25C15.8917 14.9167 14.8 15.3333 13.8 15.5L14.2 18.5ZM33.8 18.5L34.2 15.5C33.2 15.3333 32.1083 14.9167 30.925 14.25C29.7417 13.5833 28.8167 12.85 28.15 12.05L25.85 13.95C26.75 15.05 27.9583 16.0333 29.475 16.9C30.9917 17.7667 32.4333 18.3 33.8 18.5ZM24 44C21.2333 44 18.6333 43.475 16.2 42.425C13.7667 41.375 11.65 39.95 9.85 38.15C8.05 36.35 6.625 34.2333 5.575 31.8C4.525 29.3667 4 26.7667 4 24C4 21.2333 4.525 18.6333 5.575 16.2C6.625 13.7667 8.05 11.65 9.85 9.85C11.65 8.05 13.7667 6.625 16.2 5.575C18.6333 4.525 21.2333 4 24 4C26.7667 4 29.3667 4.525 31.8 5.575C34.2333 6.625 36.35 8.05 38.15 9.85C39.95 11.65 41.375 13.7667 42.425 16.2C43.475 18.6333 44 21.2333 44 24C44 26.7667 43.475 29.3667 42.425 31.8C41.375 34.2333 39.95 36.35 38.15 38.15C36.35 39.95 34.2333 41.375 31.8 42.425C29.3667 43.475 26.7667 44 24 44ZM24 41C28.7458 41 32.7656 39.3531 36.0594 36.0594C39.3531 32.7656 41 28.7458 41 24C41 19.2542 39.3531 15.2344 36.0594 11.9406C32.7656 8.64687 28.7458 7 24 7C19.2542 7 15.2344 8.64687 11.9406 11.9406C8.64687 15.2344 7 19.2542 7 24C7 28.7458 8.64687 32.7656 11.9406 36.0594C15.2344 39.3531 19.2542 41 24 41Z" fill="#90A0B7"/>
</svg>
