<svg width="14" height="15" viewBox="0 0 14 15" fill="none" xmlns="http://www.w3.org/2000/svg">
<path fill-rule="evenodd" clip-rule="evenodd" d="M5.1913 0.224281C5.77046 0.0777289 6.37652 0 7 0C7.62352 0 8.22962 0.0777399 8.80882 0.224313C9.28149 0.343929 9.52556 0.752141 9.60408 1.09148C9.69709 1.49344 9.94934 1.85554 10.3339 2.07758C10.6875 2.28173 11.0873 2.32969 11.456 2.24276C11.7949 2.16287 12.268 2.20093 12.5847 2.57046C13.1734 3.25752 13.6378 4.05491 13.9425 4.92775C14.1244 5.44885 13.8426 5.91808 13.545 6.16328C13.2014 6.44631 12.9839 6.87333 12.9839 7.3516C12.9839 7.82987 13.2014 8.25689 13.545 8.53992C13.8426 8.78512 14.1244 9.25435 13.9425 9.77544C13.6378 10.6482 13.1735 11.4455 12.5849 12.1325C12.2682 12.5021 11.795 12.5402 11.4561 12.4602C11.0873 12.3733 10.6875 12.4212 10.3339 12.6254C9.94927 12.8474 9.697 13.2096 9.60402 13.6116C9.52552 13.951 9.28145 14.3593 8.80872 14.4789C8.22955 14.6255 7.62349 14.7032 7 14.7032C6.37654 14.7032 5.7705 14.6255 5.19136 14.4789C4.71862 14.3593 4.47454 13.951 4.39604 13.6116C4.30306 13.2096 4.0508 12.8474 3.66616 12.6254C3.31252 12.4212 2.91269 12.3733 2.54394 12.4602C2.20504 12.5402 1.73182 12.5021 1.41515 12.1325C0.826516 11.4455 0.362177 10.6482 0.0574966 9.77545C-0.124422 9.25435 0.157439 8.78512 0.455037 8.53992C0.798557 8.25689 1.01616 7.82987 1.01616 7.3516C1.01616 6.87332 0.798557 6.4463 0.455038 6.16327C0.157439 5.91807 -0.124421 5.44884 0.0574976 4.92774C0.362212 4.0549 0.826621 3.2575 1.41534 2.57044C1.732 2.2009 2.20515 2.16284 2.54404 2.24275C2.91276 2.3297 3.31255 2.28174 3.66616 2.07758C4.05076 1.85554 4.30301 1.49343 4.39602 1.09146C4.47453 0.752119 4.71861 0.343893 5.1913 0.224281ZM6.99998 9.40321C5.86691 9.40321 4.94837 8.48467 4.94837 7.3516C4.94837 6.21853 5.86691 5.29999 6.99998 5.29999C8.13305 5.29999 9.05159 6.21853 9.05159 7.3516C9.05159 8.48467 8.13305 9.40321 6.99998 9.40321Z" fill="#576D8B" fill-opacity="0.8"/>
</svg>
