<svg width="24" height="24" viewBox="0 0 24 24" fill="none" xmlns="http://www.w3.org/2000/svg">
<path fill-rule="evenodd" clip-rule="evenodd" d="M12.2515 2.00474C12.168 2.00159 12.0842 2 12 2C8.64398 2 5.82461 4.52345 5.45399 7.85899L5.20219 10.1252L5.19614 10.1793C5.08331 11.1625 4.76327 12.1106 4.25714 12.9611L4.2292 13.0077L3.65116 13.9711L3.62701 14.0114C3.38549 14.4138 3.16667 14.7785 3.02092 15.0879C2.8728 15.4024 2.71443 15.8286 2.79066 16.3117C2.86601 16.7893 3.11179 17.2233 3.48252 17.5337C3.85759 17.8476 4.30446 17.931 4.65035 17.9658C4.99072 18.0001 5.41598 18 5.88536 18L5.93226 18H18.0678L18.1147 18C18.5841 18 19.0093 18.0001 19.3497 17.9658C19.6956 17.931 20.1425 17.8476 20.5176 17.5337C20.8883 17.2233 21.1341 16.7893 21.2094 16.3117C21.2856 15.8286 21.1273 15.4024 20.9791 15.0879C20.8334 14.7785 20.6146 14.4138 20.373 14.0114L20.3489 13.9711L19.7709 13.0077L19.7429 12.9611C19.712 12.9091 19.6817 12.8567 19.6521 12.8039C19.1224 12.9321 18.5692 13 18.0001 13C17.8355 13 17.6723 12.9943 17.5105 12.9831C17.6604 13.3263 17.8318 13.6606 18.0243 13.9839L18.0559 14.0367L18.6339 15.0001C18.9074 15.456 19.0722 15.733 19.1698 15.9401C19.1751 15.9514 19.18 15.9621 19.1845 15.972C19.1736 15.9733 19.162 15.9746 19.1495 15.9759C18.9218 15.9988 18.5994 16 18.0678 16H5.93226C5.40067 16 5.0783 15.9988 4.85055 15.9759C4.8381 15.9746 4.82645 15.9733 4.81559 15.972C4.82007 15.9621 4.82496 15.9514 4.8303 15.9401C4.92782 15.733 5.09264 15.456 5.36615 15.0001L5.94418 14.0367L5.97581 13.9839C6.62656 12.8904 7.03803 11.6714 7.1831 10.4073L7.18996 10.3461L7.44176 8.07985C7.67256 6.00266 9.26714 4.37774 11.2732 4.05748C11.4871 3.31517 11.8206 2.62353 12.2515 2.00474ZM15.4106 2.95126C14.8977 3.38733 14.4962 3.95052 14.2549 4.59213C15.5002 5.29624 16.3904 6.5683 16.5583 8.07985L16.7495 9.80061C17.143 9.93 17.5634 10 18.0001 10C18.2654 10 18.5247 9.97417 18.7756 9.92488L18.5461 7.85899C18.3127 5.75867 17.1084 3.98033 15.4106 2.95126Z" fill="#E5007A"/>
<path d="M9.10222 17.6647C9.27315 18.6215 9.64978 19.467 10.1737 20.0701C10.6976 20.6731 11.3396 21 12 21C12.6604 21 13.3024 20.6731 13.8263 20.0701C14.3502 19.467 14.7269 18.6215 14.8978 17.6647" stroke="#E5007A" stroke-width="2" stroke-linecap="round"/>
</svg>
