<svg width="24" height="25" viewBox="0 0 24 25" fill="none" xmlns="http://www.w3.org/2000/svg">
<path d="M5.65 20.8711C5.18333 20.8711 4.79167 20.7128 4.475 20.3961C4.15833 20.0794 4 19.6878 4 19.2211C4 18.7544 4.15833 18.3628 4.475 18.0461C4.79167 17.7294 5.18333 17.5711 5.65 17.5711C6.11667 17.5711 6.50833 17.7294 6.825 18.0461C7.14167 18.3628 7.3 18.7544 7.3 19.2211C7.3 19.6878 7.14167 20.0794 6.825 20.3961C6.50833 20.7128 6.11667 20.8711 5.65 20.8711ZM12 20.8711C11.5333 20.8711 11.1417 20.7128 10.825 20.3961C10.5083 20.0794 10.35 19.6878 10.35 19.2211C10.35 18.7544 10.5083 18.3628 10.825 18.0461C11.1417 17.7294 11.5333 17.5711 12 17.5711C12.4667 17.5711 12.8583 17.7294 13.175 18.0461C13.4917 18.3628 13.65 18.7544 13.65 19.2211C13.65 19.6878 13.4917 20.0794 13.175 20.3961C12.8583 20.7128 12.4667 20.8711 12 20.8711ZM18.35 20.8711C17.8833 20.8711 17.4917 20.7128 17.175 20.3961C16.8583 20.0794 16.7 19.6878 16.7 19.2211C16.7 18.7544 16.8583 18.3628 17.175 18.0461C17.4917 17.7294 17.8833 17.5711 18.35 17.5711C18.8167 17.5711 19.2083 17.7294 19.525 18.0461C19.8417 18.3628 20 18.7544 20 19.2211C20 19.6878 19.8417 20.0794 19.525 20.3961C19.2083 20.7128 18.8167 20.8711 18.35 20.8711ZM5.65 14.5211C5.18333 14.5211 4.79167 14.3628 4.475 14.0461C4.15833 13.7294 4 13.3378 4 12.8711C4 12.4044 4.15833 12.0128 4.475 11.6961C4.79167 11.3794 5.18333 11.2211 5.65 11.2211C6.11667 11.2211 6.50833 11.3794 6.825 11.6961C7.14167 12.0128 7.3 12.4044 7.3 12.8711C7.3 13.3378 7.14167 13.7294 6.825 14.0461C6.50833 14.3628 6.11667 14.5211 5.65 14.5211ZM12 14.5211C11.5333 14.5211 11.1417 14.3628 10.825 14.0461C10.5083 13.7294 10.35 13.3378 10.35 12.8711C10.35 12.4044 10.5083 12.0128 10.825 11.6961C11.1417 11.3794 11.5333 11.2211 12 11.2211C12.4667 11.2211 12.8583 11.3794 13.175 11.6961C13.4917 12.0128 13.65 12.4044 13.65 12.8711C13.65 13.3378 13.4917 13.7294 13.175 14.0461C12.8583 14.3628 12.4667 14.5211 12 14.5211ZM18.35 14.5211C17.8833 14.5211 17.4917 14.3628 17.175 14.0461C16.8583 13.7294 16.7 13.3378 16.7 12.8711C16.7 12.4044 16.8583 12.0128 17.175 11.6961C17.4917 11.3794 17.8833 11.2211 18.35 11.2211C18.8167 11.2211 19.2083 11.3794 19.525 11.6961C19.8417 12.0128 20 12.4044 20 12.8711C20 13.3378 19.8417 13.7294 19.525 14.0461C19.2083 14.3628 18.8167 14.5211 18.35 14.5211ZM5.65 8.17109C5.18333 8.17109 4.79167 8.01276 4.475 7.69609C4.15833 7.37943 4 6.98776 4 6.52109C4 6.05443 4.15833 5.66276 4.475 5.34609C4.79167 5.02943 5.18333 4.87109 5.65 4.87109C6.11667 4.87109 6.50833 5.02943 6.825 5.34609C7.14167 5.66276 7.3 6.05443 7.3 6.52109C7.3 6.98776 7.14167 7.37943 6.825 7.69609C6.50833 8.01276 6.11667 8.17109 5.65 8.17109ZM12 8.17109C11.5333 8.17109 11.1417 8.01276 10.825 7.69609C10.5083 7.37943 10.35 6.98776 10.35 6.52109C10.35 6.05443 10.5083 5.66276 10.825 5.34609C11.1417 5.02943 11.5333 4.87109 12 4.87109C12.4667 4.87109 12.8583 5.02943 13.175 5.34609C13.4917 5.66276 13.65 6.05443 13.65 6.52109C13.65 6.98776 13.4917 7.37943 13.175 7.69609C12.8583 8.01276 12.4667 8.17109 12 8.17109ZM18.35 8.17109C17.8833 8.17109 17.4917 8.01276 17.175 7.69609C16.8583 7.37943 16.7 6.98776 16.7 6.52109C16.7 6.05443 16.8583 5.66276 17.175 5.34609C17.4917 5.02943 17.8833 4.87109 18.35 4.87109C18.8167 4.87109 19.2083 5.02943 19.525 5.34609C19.8417 5.66276 20 6.05443 20 6.52109C20 6.98776 19.8417 7.37943 19.525 7.69609C19.2083 8.01276 18.8167 8.17109 18.35 8.17109Z" fill="#20CFF5"/>
</svg>
