<svg width="24" height="24" viewBox="0 0 24 24" fill="none" xmlns="http://www.w3.org/2000/svg">
<path fill-rule="evenodd" clip-rule="evenodd" d="M12.1101 2.03638C8.83004 2.03638 6.07455 4.50266 5.71233 7.76263L5.45824 10.0494L5.44868 10.1345C5.33174 11.136 5.00574 12.1018 4.4918 12.9693L4.44788 13.0427L3.84369 14.0497C3.59318 14.4671 3.374 14.8324 3.23018 15.1395C3.08427 15.4511 2.94601 15.8411 3.02113 16.2725C3.0924 16.6817 3.30302 17.0537 3.61726 17.3254C3.94851 17.6117 4.35411 17.6938 4.69635 17.729C5.03369 17.7637 5.45965 17.7637 5.9465 17.7636H8.10708C8.10965 17.7892 8.11321 17.8148 8.11781 17.8405C8.31361 18.9367 8.75317 19.9598 9.41883 20.7259C10.0892 21.4975 10.9897 22 12 22C13.0103 22 13.9108 21.4975 14.5812 20.7259C15.2468 19.9598 15.6864 18.9367 15.8822 17.8405C15.8868 17.8148 15.8903 17.7892 15.8929 17.7636H18.2736C18.7605 17.7637 19.1864 17.7637 19.5238 17.729C19.866 17.6938 20.2716 17.6117 20.6029 17.3254C20.9171 17.0537 21.1277 16.6817 21.199 16.2725C21.2741 15.8411 21.1359 15.4511 20.99 15.1395C20.8461 14.8324 20.627 14.4672 20.3765 14.0497L19.7723 13.0427L19.7283 12.9693C19.2144 12.1018 18.8884 11.136 18.7715 10.1345L18.7619 10.0494L18.5078 7.76263C18.1456 4.50266 15.3901 2.03638 12.1101 2.03638ZM13.8568 17.7636H10.1432C10.3054 18.4564 10.5902 19.0247 10.9286 19.4142C11.3061 19.8487 11.6895 20 12 20C12.3105 20 12.6939 19.8487 13.0714 19.4142C13.4098 19.0247 13.6946 18.4564 13.8568 17.7636ZM7.30254 7.93932C7.57473 5.48965 9.64532 3.63638 12.1101 3.63638C14.5748 3.63638 16.6454 5.48965 16.9176 7.93932L17.172 10.2292L17.1822 10.32C17.3252 11.5441 17.7236 12.7245 18.3518 13.7848C18.3646 13.8064 18.3775 13.8279 18.4003 13.8659L18.9836 14.838C19.2611 15.3007 19.4363 15.5946 19.541 15.818C19.5953 15.934 19.6125 15.9953 19.6179 16.0189C19.6092 16.0492 19.5935 16.077 19.572 16.1C19.549 16.1076 19.4875 16.1243 19.3601 16.1374C19.1148 16.1626 18.7725 16.1636 18.233 16.1636H5.98714C5.44759 16.1636 5.10538 16.1626 4.85998 16.1374C4.73259 16.1243 4.67117 16.1076 4.64814 16.1C4.62667 16.077 4.61094 16.0492 4.60223 16.0189C4.60759 15.9953 4.62485 15.934 4.67916 15.818C4.78379 15.5946 4.95898 15.3007 5.23658 14.838L5.82115 13.8637C5.84314 13.8271 5.85582 13.8059 5.86836 13.7848C6.49651 12.7245 6.89495 11.5441 7.03788 10.32C7.04073 10.2956 7.04346 10.2711 7.04818 10.2286L7.04819 10.2285L7.30254 7.93932Z" fill="#485F7D"/>
</svg>
