<svg width="16" height="16" viewBox="0 0 16 16" fill="none" xmlns="http://www.w3.org/2000/svg">
<path d="M1.65 16C1.18333 16 0.791667 15.8417 0.475 15.525C0.158333 15.2083 0 14.8167 0 14.35C0 13.8833 0.158333 13.4917 0.475 13.175C0.791667 12.8583 1.18333 12.7 1.65 12.7C2.11667 12.7 2.50833 12.8583 2.825 13.175C3.14167 13.4917 3.3 13.8833 3.3 14.35C3.3 14.8167 3.14167 15.2083 2.825 15.525C2.50833 15.8417 2.11667 16 1.65 16ZM8 16C7.53333 16 7.14167 15.8417 6.825 15.525C6.50833 15.2083 6.35 14.8167 6.35 14.35C6.35 13.8833 6.50833 13.4917 6.825 13.175C7.14167 12.8583 7.53333 12.7 8 12.7C8.46667 12.7 8.85833 12.8583 9.175 13.175C9.49167 13.4917 9.65 13.8833 9.65 14.35C9.65 14.8167 9.49167 15.2083 9.175 15.525C8.85833 15.8417 8.46667 16 8 16ZM14.35 16C13.8833 16 13.4917 15.8417 13.175 15.525C12.8583 15.2083 12.7 14.8167 12.7 14.35C12.7 13.8833 12.8583 13.4917 13.175 13.175C13.4917 12.8583 13.8833 12.7 14.35 12.7C14.8167 12.7 15.2083 12.8583 15.525 13.175C15.8417 13.4917 16 13.8833 16 14.35C16 14.8167 15.8417 15.2083 15.525 15.525C15.2083 15.8417 14.8167 16 14.35 16ZM1.65 9.65C1.18333 9.65 0.791667 9.49167 0.475 9.175C0.158333 8.85833 0 8.46667 0 8C0 7.53333 0.158333 7.14167 0.475 6.825C0.791667 6.50833 1.18333 6.35 1.65 6.35C2.11667 6.35 2.50833 6.50833 2.825 6.825C3.14167 7.14167 3.3 7.53333 3.3 8C3.3 8.46667 3.14167 8.85833 2.825 9.175C2.50833 9.49167 2.11667 9.65 1.65 9.65ZM8 9.65C7.53333 9.65 7.14167 9.49167 6.825 9.175C6.50833 8.85833 6.35 8.46667 6.35 8C6.35 7.53333 6.50833 7.14167 6.825 6.825C7.14167 6.50833 7.53333 6.35 8 6.35C8.46667 6.35 8.85833 6.50833 9.175 6.825C9.49167 7.14167 9.65 7.53333 9.65 8C9.65 8.46667 9.49167 8.85833 9.175 9.175C8.85833 9.49167 8.46667 9.65 8 9.65ZM14.35 9.65C13.8833 9.65 13.4917 9.49167 13.175 9.175C12.8583 8.85833 12.7 8.46667 12.7 8C12.7 7.53333 12.8583 7.14167 13.175 6.825C13.4917 6.50833 13.8833 6.35 14.35 6.35C14.8167 6.35 15.2083 6.50833 15.525 6.825C15.8417 7.14167 16 7.53333 16 8C16 8.46667 15.8417 8.85833 15.525 9.175C15.2083 9.49167 14.8167 9.65 14.35 9.65ZM1.65 3.3C1.18333 3.3 0.791667 3.14167 0.475 2.825C0.158333 2.50833 0 2.11667 0 1.65C0 1.18333 0.158333 0.791667 0.475 0.475C0.791667 0.158333 1.18333 0 1.65 0C2.11667 0 2.50833 0.158333 2.825 0.475C3.14167 0.791667 3.3 1.18333 3.3 1.65C3.3 2.11667 3.14167 2.50833 2.825 2.825C2.50833 3.14167 2.11667 3.3 1.65 3.3ZM8 3.3C7.53333 3.3 7.14167 3.14167 6.825 2.825C6.50833 2.50833 6.35 2.11667 6.35 1.65C6.35 1.18333 6.50833 0.791667 6.825 0.475C7.14167 0.158333 7.53333 0 8 0C8.46667 0 8.85833 0.158333 9.175 0.475C9.49167 0.791667 9.65 1.18333 9.65 1.65C9.65 2.11667 9.49167 2.50833 9.175 2.825C8.85833 3.14167 8.46667 3.3 8 3.3ZM14.35 3.3C13.8833 3.3 13.4917 3.14167 13.175 2.825C12.8583 2.50833 12.7 2.11667 12.7 1.65C12.7 1.18333 12.8583 0.791667 13.175 0.475C13.4917 0.158333 13.8833 0 14.35 0C14.8167 0 15.2083 0.158333 15.525 0.475C15.8417 0.791667 16 1.18333 16 1.65C16 2.11667 15.8417 2.50833 15.525 2.825C15.2083 3.14167 14.8167 3.3 14.35 3.3Z" fill="#20CFF5"/>
</svg>
