<svg width="24" height="24" viewBox="0 0 24 24" fill="none" xmlns="http://www.w3.org/2000/svg">
<path d="M14.4575 11.6612C15.1051 11.6612 15.7381 11.4658 16.2765 11.0997C16.8149 10.7336 17.2345 10.2133 17.4822 9.60455C17.7299 8.99581 17.7946 8.326 17.6681 7.67986C17.5415 7.03372 17.2295 6.44026 16.7714 5.97458C16.3133 5.50889 15.7298 5.19189 15.0946 5.06368C14.4594 4.93546 13.8011 5.0018 13.2029 5.25429C12.6048 5.50677 12.0937 5.93408 11.7343 6.48214C11.3749 7.0302 11.1833 7.67439 11.1838 8.33323C11.1843 9.21616 11.5295 10.0627 12.1434 10.6868C12.7573 11.3109 13.5897 11.6614 14.4575 11.6612Z" fill="#485F7D"/>
<path d="M7.91016 18C7.91016 15.1177 10.8417 12.7813 14.4549 12.7813C18.0707 12.7813 20.9997 15.1177 20.9997 18" fill="#485F7D"/>
<path d="M9.79304 7.32056C9.79304 7.32056 9.79304 7.32056 9.79304 7.30301C9.54593 6.62772 9.09758 6.04469 8.50861 5.63279C7.91964 5.22089 7.21849 5 6.5 5C5.78151 5 5.08036 5.22089 4.49139 5.63279C3.90243 6.04469 3.45407 6.62772 3.20697 7.30301C3.20697 7.30301 3.20697 7.30301 3.20697 7.32056C2.93101 8.0826 2.93101 8.9174 3.20697 9.67944C3.20697 9.67944 3.20697 9.67944 3.20697 9.69699C3.45407 10.3723 3.90243 10.9553 4.49139 11.3672C5.08036 11.7791 5.78151 12 6.5 12C7.21849 12 7.91964 11.7791 8.50861 11.3672C9.09758 10.9553 9.54593 10.3723 9.79304 9.69699C9.79304 9.69699 9.79304 9.69699 9.79304 9.67944C10.069 8.9174 10.069 8.0826 9.79304 7.32056ZM3.7786 9.20205C3.65699 8.74193 3.65699 8.25807 3.7786 7.79795H4.43089C4.37479 8.2643 4.37479 8.7357 4.43089 9.20205H3.7786ZM4.06617 9.9041H4.55714C4.63946 10.2172 4.75712 10.5198 4.90784 10.8062C4.56391 10.5717 4.27641 10.2636 4.06617 9.9041ZM4.55714 7.0959H4.06617C4.27339 6.73754 4.55721 6.42947 4.89732 6.19377C4.75022 6.48064 4.6361 6.78329 4.55714 7.0959ZM6.14229 11.2029C5.71155 10.8865 5.40904 10.4254 5.2901 9.9041H6.14229V11.2029ZM6.14229 9.20205H5.1393C5.07386 8.73631 5.07386 8.26369 5.1393 7.79795H6.14229V9.20205ZM6.14229 7.0959H5.2901C5.40904 6.57455 5.71155 6.1135 6.14229 5.79712V7.0959ZM8.9198 7.0959H8.42883C8.34651 6.78285 8.22886 6.48019 8.07813 6.19377C8.42206 6.42828 8.70956 6.73643 8.9198 7.0959ZM6.84368 5.79712C7.27442 6.1135 7.57694 6.57455 7.69587 7.0959H6.84368V5.79712ZM6.84368 11.2029V9.9041H7.69587C7.57694 10.4254 7.27442 10.8865 6.84368 11.2029ZM7.84667 9.20205H6.84368V7.79795H7.84667C7.91212 8.26369 7.91212 8.73631 7.84667 9.20205ZM8.08865 10.8062C8.23938 10.5198 8.35703 10.2172 8.43935 9.9041H8.93032C8.72008 10.2636 8.43258 10.5717 8.08865 10.8062ZM9.20737 9.20205H8.55508C8.5836 8.96913 8.59766 8.73466 8.59716 8.5C8.59755 8.26534 8.58349 8.03088 8.55508 7.79795H9.20737C9.32898 8.25807 9.32898 8.74193 9.20737 9.20205Z" fill="#485F7D"/>
</svg>
