<svg width="16" height="17" viewBox="0 0 16 17" fill="none" xmlns="http://www.w3.org/2000/svg">
<path d="M13 6.5C13.2652 6.5 13.5196 6.39464 13.7071 6.20711C13.8946 6.01957 14 5.76522 14 5.5V3.5C14 3.23478 13.8946 2.98043 13.7071 2.79289C13.5196 2.60536 13.2652 2.5 13 2.5H11C10.7348 2.5 10.4804 2.60536 10.2929 2.79289C10.1054 2.98043 10 3.23478 10 3.5V4H6V3.5C6 3.23478 5.89464 2.98043 5.70711 2.79289C5.51957 2.60536 5.26522 2.5 5 2.5H3C2.73478 2.5 2.48043 2.60536 2.29289 2.79289C2.10536 2.98043 2 3.23478 2 3.5V5.5C2 5.76522 2.10536 6.01957 2.29289 6.20711C2.48043 6.39464 2.73478 6.5 3 6.5H3.5V10.5H3C2.73478 10.5 2.48043 10.6054 2.29289 10.7929C2.10536 10.9804 2 11.2348 2 11.5V13.5C2 13.7652 2.10536 14.0196 2.29289 14.2071C2.48043 14.3946 2.73478 14.5 3 14.5H5C5.26522 14.5 5.51957 14.3946 5.70711 14.2071C5.89464 14.0196 6 13.7652 6 13.5V13H10V13.5C10 13.7652 10.1054 14.0196 10.2929 14.2071C10.4804 14.3946 10.7348 14.5 11 14.5H13C13.2652 14.5 13.5196 14.3946 13.7071 14.2071C13.8946 14.0196 14 13.7652 14 13.5V11.5C14 11.2348 13.8946 10.9804 13.7071 10.7929C13.5196 10.6054 13.2652 10.5 13 10.5H12.5V6.5H13ZM11.5 10.5H11C10.7348 10.5 10.4804 10.6054 10.2929 10.7929C10.1054 10.9804 10 11.2348 10 11.5V12H6V11.5C6 11.2348 5.89464 10.9804 5.70711 10.7929C5.51957 10.6054 5.26522 10.5 5 10.5H4.5V6.5H5C5.26522 6.5 5.51957 6.39464 5.70711 6.20711C5.89464 6.01957 6 5.76522 6 5.5V5H10V5.5C10 5.76522 10.1054 6.01957 10.2929 6.20711C10.4804 6.39464 10.7348 6.5 11 6.5H11.5V10.5Z" fill="white"/>
</svg>
