<svg width="18" height="18" viewBox="0 0 18 18" fill="none" xmlns="http://www.w3.org/2000/svg">
<path d="M14.7143 15.8571C14.7143 16.4883 15.226 17 15.8571 17C16.4883 17 17 16.4883 17 15.8571C17 15.226 16.4883 14.7143 15.8571 14.7143C15.226 14.7143 14.7143 15.226 14.7143 15.8571Z" stroke="#90A0B7" stroke-width="2" stroke-linecap="round" stroke-linejoin="round"/>
<path d="M7.85714 15.8571C7.85714 16.4883 8.36882 17 9 17C9.63118 17 10.1429 16.4883 10.1429 15.8571C10.1429 15.226 9.63118 14.7143 9 14.7143C8.36882 14.7143 7.85714 15.226 7.85714 15.8571Z" stroke="#90A0B7" stroke-width="2" stroke-linecap="round" stroke-linejoin="round"/>
<path d="M1 15.8571C1 16.4883 1.51167 17 2.14286 17C2.77404 17 3.28571 16.4883 3.28571 15.8571C3.28571 15.226 2.77404 14.7143 2.14286 14.7143C1.51167 14.7143 1 15.226 1 15.8571Z" stroke="#90A0B7" stroke-width="2" stroke-linecap="round" stroke-linejoin="round"/>
<path d="M14.7143 9C14.7143 9.63118 15.226 10.1429 15.8571 10.1429C16.4883 10.1429 17 9.63118 17 9C17 8.36882 16.4883 7.85714 15.8571 7.85714C15.226 7.85714 14.7143 8.36882 14.7143 9Z" stroke="#90A0B7" stroke-width="2" stroke-linecap="round" stroke-linejoin="round"/>
<path d="M7.85714 9C7.85714 9.63118 8.36882 10.1429 9 10.1429C9.63118 10.1429 10.1429 9.63118 10.1429 9C10.1429 8.36882 9.63118 7.85714 9 7.85714C8.36882 7.85714 7.85714 8.36882 7.85714 9Z" stroke="#90A0B7" stroke-width="2" stroke-linecap="round" stroke-linejoin="round"/>
<path d="M1 9C1 9.63118 1.51167 10.1429 2.14286 10.1429C2.77404 10.1429 3.28571 9.63118 3.28571 9C3.28571 8.36882 2.77404 7.85714 2.14286 7.85714C1.51167 7.85714 1 8.36882 1 9Z" stroke="#90A0B7" stroke-width="2" stroke-linecap="round" stroke-linejoin="round"/>
<path d="M14.7143 2.14286C14.7143 2.77404 15.226 3.28571 15.8571 3.28571C16.4883 3.28571 17 2.77404 17 2.14286C17 1.51167 16.4883 1 15.8571 1C15.226 1 14.7143 1.51167 14.7143 2.14286Z" stroke="#90A0B7" stroke-width="2" stroke-linecap="round" stroke-linejoin="round"/>
<path d="M7.85714 2.14286C7.85714 2.77404 8.36882 3.28571 9 3.28571C9.63118 3.28571 10.1429 2.77404 10.1429 2.14286C10.1429 1.51167 9.63118 1 9 1C8.36882 1 7.85714 1.51167 7.85714 2.14286Z" stroke="#90A0B7" stroke-width="2" stroke-linecap="round" stroke-linejoin="round"/>
<path d="M1 2.14286C1 2.77404 1.51167 3.28571 2.14286 3.28571C2.77404 3.28571 3.28571 2.77404 3.28571 2.14286C3.28571 1.51167 2.77404 1 2.14286 1C1.51167 1 1 1.51167 1 2.14286Z" stroke="#90A0B7" stroke-width="2" stroke-linecap="round" stroke-linejoin="round"/>
</svg>
