<svg width="20" height="20" viewBox="0 0 20 20" fill="none" xmlns="http://www.w3.org/2000/svg">
<path d="M5.78389 1.66675C6.13044 1.66675 6.41138 1.93692 6.41138 2.2702V3.48747C6.96797 3.47709 7.59185 3.47709 8.29382 3.47709H11.6404C12.3424 3.47709 12.9662 3.47709 13.5228 3.48747V2.2702C13.5228 1.93692 13.8038 1.66675 14.1503 1.66675C14.4969 1.66675 14.7778 1.93692 14.7778 2.2702V3.54086C15.982 3.6336 16.7725 3.86119 17.3533 4.41974C17.9341 4.97829 18.1708 5.73855 18.2672 6.89663L18.3337 7.50008H2.43745H1.66699V6.89663C1.76342 5.73855 2.00007 4.97829 2.58087 4.41974C3.16167 3.86119 3.95221 3.6336 5.15641 3.54086V2.2702C5.15641 1.93692 5.43735 1.66675 5.78389 1.66675Z" fill="#F57B60"/>
<path opacity="0.5" d="M18.3331 11.6667V10.0001C18.3331 9.30087 18.3304 8.05439 18.3196 7.5H1.67447C1.66372 8.05439 1.66643 9.30087 1.66643 10.0001V11.6667C1.66643 14.8094 1.66643 16.3808 2.64274 17.3571C3.61906 18.3334 5.1904 18.3334 8.3331 18.3334H11.6664C14.8091 18.3334 16.3805 18.3334 17.3568 17.3571C18.3331 16.3808 18.3331 14.8094 18.3331 11.6667Z" fill="#F57B60"/>
<path d="M14.9997 14.1667C14.9997 14.6269 14.6266 15 14.1663 15C13.7061 15 13.333 14.6269 13.333 14.1667C13.333 13.7064 13.7061 13.3333 14.1663 13.3333C14.6266 13.3333 14.9997 13.7064 14.9997 14.1667Z" fill="#F57B60"/>
<path d="M14.9997 10.8333C14.9997 11.2936 14.6266 11.6667 14.1663 11.6667C13.7061 11.6667 13.333 11.2936 13.333 10.8333C13.333 10.3731 13.7061 10 14.1663 10C14.6266 10 14.9997 10.3731 14.9997 10.8333Z" fill="#F57B60"/>
<path d="M10.8337 14.1667C10.8337 14.6269 10.4606 15 10.0003 15C9.54009 15 9.16699 14.6269 9.16699 14.1667C9.16699 13.7064 9.54009 13.3333 10.0003 13.3333C10.4606 13.3333 10.8337 13.7064 10.8337 14.1667Z" fill="#F57B60"/>
<path d="M10.8337 10.8333C10.8337 11.2936 10.4606 11.6667 10.0003 11.6667C9.54009 11.6667 9.16699 11.2936 9.16699 10.8333C9.16699 10.3731 9.54009 10 10.0003 10C10.4606 10 10.8337 10.3731 10.8337 10.8333Z" fill="#F57B60"/>
<path d="M6.66667 14.1667C6.66667 14.6269 6.29357 15 5.83333 15C5.3731 15 5 14.6269 5 14.1667C5 13.7064 5.3731 13.3333 5.83333 13.3333C6.29357 13.3333 6.66667 13.7064 6.66667 14.1667Z" fill="#F57B60"/>
<path d="M6.66667 10.8333C6.66667 11.2936 6.29357 11.6667 5.83333 11.6667C5.3731 11.6667 5 11.2936 5 10.8333C5 10.3731 5.3731 10 5.83333 10C6.29357 10 6.66667 10.3731 6.66667 10.8333Z" fill="#F57B60"/>
</svg>
