<svg viewBox="0 0 24 24" fill="none" xmlns="http://www.w3.org/2000/svg">
<path fill-rule="evenodd" clip-rule="evenodd" d="M10.2409 3.25C7.84315 3.25 5.87045 5.1549 5.87045 7.54C5.87045 9.9251 7.84315 11.83 10.2409 11.83C12.6387 11.83 14.6114 9.9251 14.6114 7.54C14.6114 5.1549 12.6387 3.25 10.2409 3.25ZM7.37045 7.54C7.37045 6.01493 8.63962 4.75 10.2409 4.75C11.8422 4.75 13.1114 6.01493 13.1114 7.54C13.1114 9.06507 11.8422 10.33 10.2409 10.33C8.63962 10.33 7.37045 9.06507 7.37045 7.54ZM3.75 16.96C3.75 16.4285 4.21317 15.7354 5.45022 15.1306C6.63747 14.5502 8.33027 14.17 10.2409 14.17C12.1515 14.17 13.8443 14.5502 15.0316 15.1306C16.2686 15.7354 16.7318 16.4285 16.7318 16.96C16.7318 17.9867 16.694 18.4613 16.1434 18.851C15.8183 19.0811 15.2617 19.3135 14.2971 19.4832C13.3386 19.6518 12.0289 19.75 10.2409 19.75C8.45294 19.75 7.14322 19.6518 6.1847 19.4832C5.2201 19.3135 4.66354 19.0811 4.3384 18.851C3.78781 18.4613 3.75 17.9867 3.75 16.96ZM10.2409 12.67C8.1525 12.67 6.22485 13.0823 4.7914 13.7831C3.40776 14.4595 2.25 15.5365 2.25 16.96L2.24994 17.0389C2.2489 17.9607 2.24749 19.2088 3.47183 20.0753C4.0518 20.4858 4.85291 20.7719 5.92481 20.9605C7.0028 21.1501 8.40842 21.25 10.2409 21.25C12.0734 21.25 13.479 21.1501 14.557 20.9605C15.6289 20.7719 16.43 20.4858 17.01 20.0753C18.2343 19.2088 18.2329 17.9607 18.2319 17.0389L18.2318 16.96C18.2318 15.5365 17.0741 14.4595 15.6904 13.7831C14.257 13.0823 12.3293 12.67 10.2409 12.67ZM21.734 10.7296L20.2409 9.23637L21.734 7.74317C22.0516 7.42561 22.0516 6.91074 21.734 6.59318C21.4165 6.27562 20.9016 6.27562 20.5841 6.59318L19.0909 8.08638L17.5977 6.59318C17.2801 6.27562 16.7652 6.27562 16.4477 6.59318C16.1301 6.91074 16.1301 7.42561 16.4477 7.74317L17.9409 9.23637L16.4477 10.7296C16.1301 11.0471 16.1301 11.562 16.4477 11.8796C16.7652 12.1971 17.2801 12.1971 17.5977 11.8796L19.0909 10.3864L20.5841 11.8796C20.9016 12.1971 21.4165 12.1971 21.734 11.8796C22.0516 11.562 22.0516 11.0471 21.734 10.7296Z" fill=""/>
</svg>
