<svg viewBox="0 0 21 19" fill="none" xmlns="http://www.w3.org/2000/svg">
<path fill-rule="evenodd" clip-rule="evenodd" d="M11.8614 4.54C11.8614 6.49509 10.2404 8.08 8.24091 8.08C6.24139 8.08 4.62045 6.49509 4.62045 4.54C4.62045 2.58491 6.24139 1 8.24091 1C10.2404 1 11.8614 2.58491 11.8614 4.54ZM8.24091 17.5C15.4818 17.5 15.4818 15.9151 15.4818 13.96C15.4818 12.0049 12.24 10.42 8.24091 10.42C4.24187 10.42 1 12.0049 1 13.96C1 15.9151 1 17.5 8.24091 17.5Z" stroke-width="1.5"/>
<path d="M18.2409 6.23637L19.734 7.72957C20.0516 8.04713 20.0516 8.562 19.734 8.87956C19.4165 9.19712 18.9016 9.19712 18.5841 8.87956L17.0909 7.38636L15.5977 8.87956C15.2801 9.19712 14.7652 9.19712 14.4477 8.87956C14.1301 8.562 14.1301 8.04713 14.4477 7.72957L15.9409 6.23637L14.4477 4.74317C14.1301 4.42561 14.1301 3.91074 14.4477 3.59318C14.7652 3.27562 15.2801 3.27562 15.5977 3.59318L17.0909 5.08638L18.5841 3.59318C18.9016 3.27562 19.4165 3.27562 19.734 3.59318C20.0516 3.91074 20.0516 4.42561 19.734 4.74317L18.2409 6.23637Z" />
</svg>
