<svg width="24" height="24" viewBox="0 0 24 24" fill="none" xmlns="http://www.w3.org/2000/svg">
<path d="M4.5 19.5H19.5V10.125L13.875 4.5H4.5V19.5ZM4.5 21C4.0875 21 3.73438 20.8531 3.44063 20.5594C3.14688 20.2656 3 19.9125 3 19.5V4.5C3 4.0875 3.14688 3.73438 3.44063 3.44063C3.73438 3.14688 4.0875 3 4.5 3H14.5L21 9.5V19.5C21 19.9125 20.8531 20.2656 20.5594 20.5594C20.2656 20.8531 19.9125 21 19.5 21H4.5ZM6.975 16.725H17.025V15.225H6.975V16.725ZM6.975 12.75H17.025V11.25H6.975V12.75ZM6.975 8.775H13.875V7.275H6.975V8.775Z" fill="#4053FF"/>
</svg>
