<svg width="24" height="24" viewBox="0 0 24 24" fill="none" xmlns="http://www.w3.org/2000/svg">
<rect width="24" height="24" rx="6" fill="#FCE5F2"/>
<path d="M5.04663 14.4515C5.45356 15.7643 6.1657 16.9047 7.13438 17.8682C8.27557 19.0086 9.63792 19.7645 11.2126 20.1357C11.8893 20.2949 12.5749 20.3833 13.265 20.37C14.4769 20.3479 15.6358 20.0871 16.7416 19.5788C17.7147 19.1324 18.564 18.518 19.3026 17.7489C19.4088 17.6384 19.4707 17.6207 19.5946 17.7401C19.8998 18.0362 20.2182 18.3191 20.5323 18.602C20.6252 18.6815 20.6296 18.7302 20.5411 18.8274C19.0328 20.4098 17.2016 21.3955 15.0608 21.8242C14.2027 21.9966 13.3313 22.032 12.4644 21.9745C11.248 21.8949 10.0758 21.5944 8.96117 21.0861C7.81556 20.5689 6.80264 19.8617 5.93127 18.9688C4.82989 17.8417 3.99833 16.5378 3.52062 15.0261C3.80813 14.8582 4.13102 14.8007 4.44065 14.6858C4.64412 14.6106 4.86085 14.562 5.05105 14.4515H5.04663Z" fill="#FC85C6"/>
<path d="M10.2351 17.161C8.60734 16.2239 7.56789 14.8449 7.20519 13.0017C6.89556 11.4414 7.16538 9.96509 8.01906 8.61255C8.87716 7.26 10.0847 6.37156 11.6372 5.95607C11.6638 5.94723 11.6903 5.95165 11.7169 5.94723C11.7921 6.00469 11.8053 6.09752 11.8274 6.1815C11.9115 6.50858 11.9911 6.84009 12.0619 7.1716C12.0884 7.29094 12.1282 7.40586 12.2034 7.50752C11.624 7.62245 11.0932 7.85229 10.6199 8.19706C9.49641 9.02361 8.83293 10.1198 8.74004 11.5298C8.64273 12.9354 9.12928 14.1156 10.1378 15.088C10.3987 15.3399 10.6951 15.5521 11.0091 15.7333C11.0091 15.8748 10.9118 15.972 10.8455 16.0825C10.6332 16.4405 10.4607 16.8207 10.2307 17.1654L10.2351 17.161Z" fill="#FC85C6"/>
<path d="M8.25363 5.36364C9.34174 4.55034 10.5581 4.02877 11.9028 3.81218C12.9555 3.6398 14.0038 3.69284 15.0388 3.93595C16.2596 4.22325 17.3522 4.76692 18.3253 5.56254C18.6924 5.86311 19.0286 6.19461 19.3382 6.55264C19.4267 6.6543 19.4001 6.70292 19.3072 6.77806C18.9578 7.05653 18.6128 7.33942 18.2811 7.63114C18.1705 7.72838 18.1307 7.65324 18.0687 7.59136C17.6441 7.13167 17.1929 6.70734 16.6577 6.37142C15.8218 5.84543 14.915 5.51834 13.933 5.40784C12.2213 5.21335 10.6776 5.64652 9.27982 6.64546C9.1427 6.59242 9.09404 6.4554 9.01 6.34932C8.75788 6.02223 8.5323 5.67304 8.24921 5.36806L8.25363 5.36364Z" fill="#FC85C6"/>
<path d="M8.25363 5.36364C8.33767 5.34154 8.37285 5.4034 8.41266 5.46087C8.70016 5.85425 8.9921 6.24764 9.27961 6.64103C8.51439 7.23774 7.87745 7.94495 7.4307 8.81129C6.61683 10.376 6.46644 12.0114 6.94857 13.7087C6.97069 13.7795 6.98396 13.8546 7.00165 13.9253C6.90876 14.0137 6.78049 14.0226 6.66549 14.0624C6.27182 14.2038 5.86931 14.3143 5.48449 14.469C5.11294 13.4435 4.98024 12.3827 5.05544 11.2954C5.18371 9.42568 5.887 7.79467 7.12992 6.3935C7.46609 6.01338 7.8467 5.67746 8.24921 5.36806L8.25363 5.36364Z" fill="#E2007A"/>
<path d="M5.48451 14.4645C5.49336 14.4115 5.51989 14.385 5.57297 14.3673C6.01529 14.2214 6.45762 14.0711 6.90436 13.9253C6.93532 13.9164 6.97071 13.9253 7.00609 13.9208C7.24052 14.5176 7.50592 15.0922 7.89074 15.6093C9.15578 17.3111 10.8499 18.2172 12.9686 18.3188C13.1146 18.3277 13.1721 18.3542 13.1676 18.5133C13.1588 18.9376 13.1632 19.362 13.1721 19.7907C13.1721 19.9322 13.1278 19.9631 12.9951 19.9631C9.69098 19.888 6.77609 17.8415 5.58182 14.7607C5.54643 14.6678 5.48009 14.5794 5.48451 14.4734V14.4645Z" fill="#C10061"/>
<path d="M3.97621 7.50297C4.34776 6.66315 4.85643 5.90732 5.45357 5.21779C6.82034 3.63981 8.51001 2.57457 10.5226 2.01764C10.6862 1.97344 10.7349 2.0088 10.7703 2.16351C10.8543 2.55247 10.9472 2.93702 11.0578 3.31715C11.1064 3.49395 11.0843 3.56909 10.8941 3.61771C9.72197 3.92712 8.67367 4.47963 7.74037 5.24873C6.75842 6.06202 5.98878 7.03886 5.44914 8.19251C5.4403 8.21019 5.42703 8.22787 5.41376 8.24113C5.10856 8.02012 4.74585 7.9052 4.40969 7.74166C4.2593 7.66652 4.08679 7.62673 3.97179 7.49413L3.97621 7.50297Z" fill="#FC4D9D"/>
<path d="M3.97621 7.50297C4.42296 7.7063 4.86538 7.90962 5.31212 8.10853C5.37405 8.13505 5.40943 8.18367 5.41828 8.24555C4.89634 9.41245 4.61768 10.628 4.63095 11.9054C4.63979 12.7717 4.78134 13.6204 5.04673 14.4469C5.04673 14.5044 5.02019 14.553 4.95827 14.5707C4.47614 14.7121 4.00717 14.9068 3.52062 15.0261C2.70675 12.489 2.84839 10.0047 3.9365 7.5737C3.94977 7.54718 3.96294 7.52507 3.97621 7.50297Z" fill="#E2007A"/>
<path d="M10.2351 17.161C10.2262 17.0196 10.328 16.9221 10.3899 16.8115C10.5934 16.4491 10.7703 16.069 11.0092 15.7286C12.3405 16.4182 13.694 16.4712 15.0652 15.8524C15.3351 15.7286 15.5872 15.5783 15.8172 15.3927C15.9101 15.3176 15.9587 15.3308 16.0295 15.4236C16.2949 15.764 16.5647 16.1043 16.839 16.4314C16.9363 16.5508 16.9318 16.6082 16.808 16.701C15.2466 17.8282 13.5304 18.1685 11.6594 17.7265C11.1551 17.6072 10.6818 17.4127 10.2307 17.1607L10.2351 17.161Z" fill="#E2007A"/>
<path d="M12.2036 7.50309C12.0974 7.50751 12.0709 7.43236 12.0532 7.34838C11.9426 6.87985 11.8276 6.41132 11.717 5.94279C12.8096 5.65549 13.8933 5.70853 14.9725 6.02236C15.1539 6.0754 15.176 6.1417 15.1096 6.30524C14.9592 6.68537 14.8265 7.07434 14.6983 7.4633C14.654 7.59591 14.6054 7.62685 14.4683 7.58265C13.8313 7.38374 13.1811 7.33954 12.5221 7.42794C12.4159 7.4412 12.3186 7.51193 12.208 7.49425L12.2036 7.50309Z" fill="#E2007A"/>
</svg>
