<svg width="17" height="18" viewBox="0 0 17 18" fill="none" xmlns="http://www.w3.org/2000/svg">
<g clip-path="url(#clip0_5172_82335)">
<path d="M7.76925 2.57009C7.65116 2.69182 7.53234 2.81284 7.41533 2.93563C6.96167 3.41337 6.51053 3.89323 6.05435 4.36885C5.83472 4.5982 5.52256 4.65536 5.24856 4.52869C4.97349 4.40167 4.80714 4.1261 4.86799 3.81913C4.89716 3.67271 4.98105 3.51816 5.08474 3.40737C5.96002 2.47129 6.84573 1.54404 7.72821 0.614311C7.87115 0.46365 8.01157 0.310518 8.15739 0.162679C8.36765 -0.0504344 8.62977 -0.0567855 8.83535 0.159151C9.87949 1.25471 10.9218 2.35204 11.9598 3.45359C12.2234 3.73339 12.2025 4.16139 11.9339 4.40731C11.6466 4.66982 11.2174 4.6543 10.9359 4.36074C10.4019 3.80396 9.87301 3.24189 9.34158 2.68264C9.30594 2.64489 9.26525 2.61172 9.1882 2.5401C9.1882 2.63783 9.1882 2.69252 9.1882 2.74686C9.1882 4.17021 9.18676 5.59355 9.18928 7.0169C9.1918 8.48788 10.3602 9.62472 11.8616 9.64589C12.1388 9.64977 12.276 9.59014 12.3977 9.32022C12.8679 8.27723 14.0272 7.74551 15.1553 8.01261C16.2808 8.27935 17.0376 9.27541 16.998 10.438C16.9605 11.5304 16.0972 12.4771 14.9684 12.6627C13.8566 12.8458 12.726 12.216 12.3285 11.179C12.2713 11.0294 12.1993 10.9923 12.0448 10.9944C10.3904 11.016 9.12879 10.3378 8.29852 8.92787C7.9626 8.35733 7.80958 7.73139 7.80994 7.07053C7.8103 5.64119 7.80958 4.21219 7.80922 2.78285C7.80922 2.71863 7.80922 2.65477 7.80922 2.59055C7.7959 2.58385 7.78258 2.57715 7.76925 2.57044V2.57009ZM14.5655 9.30293C14.0024 9.30752 13.5372 9.77044 13.5408 10.3237C13.5444 10.8833 14.019 11.3374 14.5958 11.3335C15.1567 11.3296 15.6244 10.8628 15.6194 10.3117C15.6143 9.74786 15.1445 9.29835 14.5655 9.30293Z" fill="#243A57"/>
<path d="M7.80295 10.0491C7.75398 10.0766 7.72734 10.0875 7.7061 10.1045C6.90751 10.7385 5.98975 11.0257 4.96794 10.9936C4.79655 10.9883 4.72382 11.0419 4.66153 11.1993C4.25216 12.2338 3.10109 12.8605 2.00763 12.6576C0.831351 12.4395 0.0010812 11.4756 1.05406e-06 10.3264C-0.00107909 9.18461 0.82811 8.19031 1.9529 7.98531C3.12557 7.7715 4.26044 8.39072 4.67918 9.48311C4.72922 9.61331 4.79655 9.638 4.92689 9.64259C5.9001 9.67576 6.69652 9.34056 7.29528 8.57808C7.30536 8.56538 7.32193 8.55797 7.32733 8.55409C7.49511 8.87199 7.64777 9.19696 7.83283 9.50322C8.14499 10.0208 8.56445 10.4481 9.06311 10.7971C9.15673 10.8627 9.19309 10.9304 9.19237 11.0434C9.18733 11.749 9.19345 12.4551 9.18625 13.1607C9.18481 13.3005 9.2291 13.3622 9.36411 13.413C10.477 13.8322 11.0916 14.9309 10.8742 16.0956C10.6725 17.176 9.65503 17.996 8.51152 17.9995C7.35973 18.0034 6.34008 17.1912 6.12693 16.1006C5.90154 14.9464 6.52226 13.8287 7.63157 13.4162C7.78027 13.3608 7.81411 13.2895 7.81339 13.1491C7.80835 12.1668 7.81051 11.1845 7.81015 10.2025C7.81015 10.162 7.80655 10.1217 7.80331 10.0494L7.80295 10.0491ZM8.50252 16.639C9.07932 16.6376 9.54558 16.1764 9.53982 15.614C9.53406 15.0615 9.06491 14.6102 8.49712 14.6112C7.93005 14.6123 7.4591 15.0699 7.4591 15.6193C7.4591 16.1831 7.92752 16.6404 8.50252 16.639ZM2.4242 9.30352C1.85064 9.29787 1.3797 9.75515 1.37826 10.3197C1.37682 10.8687 1.84632 11.3292 2.4116 11.3327C2.98371 11.3362 3.45718 10.8747 3.45682 10.3137C3.45682 9.75973 2.9956 9.30881 2.4242 9.30316V9.30352Z" fill="#243A57"/>
</g>
<defs>
<clipPath id="clip0_5172_82335">
<rect width="17" height="18" fill="white"/>
</clipPath>
</defs>
</svg>
