<svg width="24" height="25" viewBox="0 0 24 25" fill="none" xmlns="http://www.w3.org/2000/svg">
<g clip-path="url(#clip0_5193_85522)">
<path d="M11.1409 4.95651C11.0019 5.10265 10.8622 5.24794 10.7245 5.39535C10.1908 5.96888 9.66002 6.54496 9.12334 7.11595C8.86495 7.39128 8.4977 7.4599 8.17535 7.30784C7.85173 7.15535 7.65604 6.82452 7.72762 6.45601C7.76193 6.28022 7.86063 6.09469 7.98262 5.96168C9.01236 4.83791 10.0544 3.72473 11.0926 2.60858C11.2607 2.42771 11.4259 2.24387 11.5975 2.06639C11.8449 1.81055 12.1532 1.80292 12.3951 2.06216C13.6235 3.37739 14.8498 4.69474 16.071 6.01717C16.381 6.35307 16.3565 6.86688 16.0405 7.16212C15.7025 7.47727 15.1975 7.45863 14.8663 7.10621C14.2381 6.43779 13.6159 5.76302 12.9907 5.09164C12.9487 5.04631 12.9009 5.0065 12.8102 4.92051C12.8102 5.03784 12.8102 5.1035 12.8102 5.16873C12.8102 6.87747 12.8085 8.58622 12.8115 10.295C12.8145 12.0609 14.189 13.4257 15.9553 13.4511C16.2815 13.4558 16.4429 13.3842 16.5861 13.0601C17.1393 11.808 18.5032 11.1697 19.8303 11.4903C21.1544 11.8105 22.0448 13.0063 21.9982 14.402C21.9542 15.7135 20.9384 16.8499 19.6105 17.0727C18.3024 17.2926 16.9724 16.5365 16.5047 15.2916C16.4374 15.112 16.3527 15.0675 16.1709 15.07C14.2246 15.0959 12.7403 14.2817 11.7635 12.5891C11.3683 11.9042 11.1883 11.1527 11.1887 10.3593C11.1892 8.6434 11.1883 6.92788 11.1879 5.21194C11.1879 5.13484 11.1879 5.05817 11.1879 4.98108C11.1722 4.97303 11.1565 4.96499 11.1409 4.95694V4.95651ZM19.1365 13.0394C18.474 13.0449 17.9267 13.6006 17.9309 14.2648C17.9352 14.9366 18.4935 15.4818 19.172 15.4771C19.832 15.4724 20.3822 14.912 20.3763 14.2504C20.3704 13.5735 19.8176 13.0339 19.1365 13.0394Z" fill="#B318CC"/>
<path d="M11.1799 13.9361C11.1223 13.9692 11.091 13.9823 11.066 14.0026C10.1265 14.7638 9.04676 15.1086 7.84463 15.0701C7.643 15.0637 7.55744 15.1281 7.48416 15.317C7.00254 16.559 5.64834 17.3112 4.36191 17.0677C2.97806 16.8059 2.00127 15.6487 2 14.2691C1.99873 12.8983 2.97425 11.7047 4.29753 11.4586C5.67714 11.2019 7.01229 11.9453 7.50492 13.2567C7.56379 13.413 7.643 13.4426 7.79634 13.4481C8.94129 13.488 9.87826 13.0856 10.5827 12.1702C10.5945 12.1549 10.614 12.146 10.6204 12.1414C10.8178 12.523 10.9974 12.9132 11.2151 13.2808C11.5823 13.9022 12.0758 14.4152 12.6625 14.8341C12.7726 14.9129 12.8154 14.9942 12.8146 15.1298C12.8086 15.977 12.8158 16.8245 12.8074 17.6717C12.8057 17.8395 12.8578 17.9136 13.0166 17.9746C14.3259 18.4778 15.049 19.7968 14.7931 21.1951C14.5559 22.4921 13.3589 23.4765 12.0136 23.4808C10.6585 23.4854 9.45891 22.5103 9.20815 21.201C8.94299 19.8155 9.67325 18.4736 10.9783 17.9784C11.1533 17.9119 11.1931 17.8263 11.1922 17.6577C11.1863 16.4785 11.1888 15.2992 11.1884 14.1204C11.1884 14.0717 11.1842 14.0234 11.1804 13.9365L11.1799 13.9361ZM12.003 21.8474C12.6815 21.8457 13.2301 21.2921 13.2233 20.6169C13.2165 19.9536 12.6646 19.4118 11.9966 19.4131C11.3295 19.4143 10.7754 19.9637 10.7754 20.6233C10.7754 21.3001 11.3265 21.8491 12.003 21.8474ZM4.852 13.0411C4.17723 13.0343 3.62318 13.5833 3.62149 14.261C3.61979 14.9201 4.17215 15.4729 4.83718 15.4771C5.51025 15.4814 6.06727 14.9273 6.06684 14.2538C6.06684 13.5888 5.52423 13.0474 4.852 13.0407V13.0411Z" fill="#B318CC"/>
</g>
<defs>
<clipPath id="clip0_5193_85522">
<rect width="20" height="21.6092" fill="white" transform="translate(2 1.87109)"/>
</clipPath>
</defs>
</svg>
