<svg width="20" height="22" viewBox="0 0 20 22" fill="none" xmlns="http://www.w3.org/2000/svg">
<g clip-path="url(#clip0_4651_67523)">
<path d="M9.14283 3.08542C9.00389 3.23156 8.86411 3.37685 8.72644 3.52425C8.19272 4.09779 7.66197 4.67386 7.12529 5.24486C6.8669 5.52019 6.49966 5.58881 6.17731 5.43674C5.85369 5.28425 5.65799 4.95343 5.72958 4.58491C5.76389 4.40912 5.86258 4.22359 5.98458 4.09059C7.01431 2.96682 8.05633 1.85363 9.09454 0.737487C9.2627 0.556617 9.4279 0.372781 9.59945 0.195298C9.84683 -0.0605471 10.1552 -0.0681716 10.3971 0.191063C11.6255 1.50629 12.8517 2.82364 14.0729 4.14608C14.383 4.48198 14.3584 4.99579 14.0424 5.29103C13.7044 5.60618 13.1995 5.58754 12.8683 5.23512C12.2401 4.5667 11.6178 3.89193 10.9926 3.22054C10.9507 3.17522 10.9028 3.1354 10.8122 3.04942C10.8122 3.16675 10.8122 3.2324 10.8122 3.29764C10.8122 5.00638 10.8105 6.71512 10.8134 8.42386C10.8164 10.1898 12.1909 11.5546 13.9573 11.58C14.2835 11.5847 14.4448 11.5131 14.588 11.189C15.1412 9.93691 16.5052 9.29857 17.8323 9.61922C19.1564 9.93945 20.0468 11.1352 20.0002 12.5309C19.9561 13.8424 18.9404 14.9788 17.6124 15.2017C16.3044 15.4215 14.9743 14.6654 14.5067 13.4205C14.4393 13.2409 14.3546 13.1964 14.1729 13.1989C12.2265 13.2248 10.7423 12.4106 9.7655 10.718C9.37029 10.0331 9.19027 9.28162 9.19069 8.48825C9.19112 6.77231 9.19027 5.05679 9.18984 3.34084C9.18984 3.26375 9.18984 3.18708 9.18984 3.10999C9.17417 3.10194 9.1585 3.09389 9.14283 3.08584V3.08542ZM17.1384 11.1683C16.4759 11.1738 15.9287 11.7295 15.9329 12.3937C15.9371 13.0655 16.4954 13.6107 17.174 13.606C17.8339 13.6013 18.3842 13.0409 18.3783 12.3793C18.3723 11.7024 17.8195 11.1628 17.1384 11.1683Z" fill="#B318CC"/>
<path d="M9.17994 12.065C9.12233 12.0981 9.09099 12.1112 9.066 12.1315C8.12648 12.8927 7.04676 13.2375 5.84463 13.199C5.643 13.1926 5.55744 13.257 5.48416 13.4459C5.00254 14.6879 3.64834 15.4402 2.36191 15.1966C0.97806 14.9348 0.001272 13.7776 1.24007e-06 12.398C-0.00126952 11.0272 0.974247 9.83358 2.29753 9.58748C3.67714 9.33078 5.01229 10.0742 5.50492 11.3856C5.56379 11.5419 5.643 11.5715 5.79634 11.5771C6.94129 11.6169 7.87826 11.2145 8.58268 10.2991C8.59455 10.2839 8.61403 10.275 8.62038 10.2703C8.81777 10.6519 8.99737 11.0421 9.2151 11.4097C9.58235 12.0311 10.0758 12.5441 10.6625 12.963C10.7726 13.0418 10.8154 13.1231 10.8146 13.2587C10.8086 14.1059 10.8158 14.9535 10.8074 15.8006C10.8057 15.9684 10.8578 16.0425 11.0166 16.1035C12.3259 16.6067 13.049 17.9258 12.7931 19.324C12.5559 20.621 11.3589 21.6054 10.0136 21.6097C8.65851 21.6143 7.45891 20.6392 7.20815 19.3299C6.94299 17.9444 7.67325 16.6025 8.97831 16.1073C9.15325 16.0408 9.19307 15.9552 9.19222 15.7866C9.18629 14.6074 9.18884 13.4281 9.18841 12.2493C9.18841 12.2006 9.18418 12.1523 9.18036 12.0654L9.17994 12.065ZM10.003 19.9763C10.6815 19.9746 11.2301 19.421 11.2233 18.7458C11.2165 18.0825 10.6646 17.5407 9.99661 17.542C9.32947 17.5433 8.77542 18.0926 8.77542 18.7522C8.77542 19.4291 9.3265 19.978 10.003 19.9763ZM2.852 11.17C2.17723 11.1632 1.62318 11.7122 1.62149 12.3899C1.61979 13.049 2.17215 13.6018 2.83718 13.606C3.51025 13.6103 4.06727 13.0562 4.06684 12.3827C4.06684 11.7177 3.52423 11.1763 2.852 11.1696V11.17Z" fill="#B318CC"/>
</g>
<defs>
<clipPath id="clip0_4651_67523">
<rect width="20" height="21.6092" fill="white"/>
</clipPath>
</defs>
</svg>
