<?xml version="1.0" standalone="no"?>
<!DOCTYPE svg PUBLIC "-//W3C//DTD SVG 20010904//EN"
 "http://www.w3.org/TR/2001/REC-SVG-20010904/DTD/svg10.dtd">
<svg version="1.0" xmlns="http://www.w3.org/2000/svg"
 width="13.000000pt" height="15.000000pt" viewBox="0 0 512.000000 512.000000"
 preserveAspectRatio="xMidYMid meet">

<g transform="translate(0.000000,512.000000) scale(0.100000,-0.100000)"
stroke="none">
<path d="M1731 4624 c-132 -35 -255 -137 -311 -256 -22 -46 -76 -266 -205
-832 -96 -423 -174 -771 -172 -773 3 -2 80 19 173 47 396 120 769 190 1179
221 385 29 1002 -62 1532 -227 80 -25 147 -43 149 -41 3 2 -75 350 -171 773
-129 567 -183 786 -205 832 -57 121 -180 221 -315 257 -119 31 -220 16 -485
-70 -298 -97 -382 -97 -680 0 -264 86 -371 101 -489 69z"/>
<path d="M2290 2869 c-450 -39 -935 -148 -1466 -330 -300 -103 -425 -155 -461
-193 -93 -99 -20 -266 116 -266 17 0 75 18 129 39 491 196 1061 349 1536 413
231 32 602 31 836 0 471 -64 1039 -217 1533 -413 53 -22 111 -39 128 -39 136
0 208 166 116 266 -36 38 -196 105 -502 208 -749 252 -1431 361 -1965 315z"/>
<path d="M1280 2065 c-254 -52 -472 -227 -577 -463 -60 -137 -81 -349 -48
-492 90 -386 438 -651 825 -627 366 23 664 281 738 638 l16 78 56 25 c165 74
375 74 540 0 l57 -25 12 -65 c55 -301 285 -545 587 -625 110 -29 279 -29 389
0 493 131 742 661 525 1117 -155 324 -505 503 -860 440 -251 -45 -473 -218
-581 -452 -18 -38 -33 -70 -35 -72 -1 -2 -51 9 -111 25 -94 24 -127 28 -253
28 -126 0 -159 -4 -253 -28 -60 -16 -110 -27 -111 -25 -2 2 -17 33 -34 70 -87
190 -249 342 -438 414 -140 53 -306 67 -444 39z m275 -320 c172 -45 305 -179
350 -352 65 -249 -94 -511 -350 -578 -251 -65 -513 94 -580 350 -89 343 237
669 580 580z m2240 0 c172 -45 305 -179 350 -352 65 -249 -94 -511 -350 -578
-251 -65 -513 94 -580 350 -89 343 237 669 580 580z"/>
</g>
</svg>
