<svg width="101" height="75" viewBox="0 0 101 75" fill="none" xmlns="http://www.w3.org/2000/svg">
<path d="M46.085 74.9303C69.3278 74.9303 88.1699 73.155 88.1699 70.9651C88.1699 68.7752 69.3278 67 46.085 67C22.8421 67 4 68.7752 4 70.9651C4 73.155 22.8421 74.9303 46.085 74.9303Z" fill="#F5F5F5"/>
<path d="M48.9069 55.5264C52.1644 56.6683 53.1347 61.3059 50.5742 65.7159C48.0136 70.1259 43.4881 71.604 40.868 69.3658C38.6087 67.4323 38.5772 63.3165 40.5353 59.9433C42.4933 56.5702 46.1046 54.5421 48.9069 55.5264Z" fill="#407BFF"/>
<path d="M47.741 55.1142C50.8094 56.1895 51.6606 60.6451 49.1841 64.9219C46.7077 69.1988 42.4028 70.677 39.9334 68.5718C37.7967 66.7434 37.8072 62.7677 39.7162 59.4646C41.6252 56.1615 45.0824 54.186 47.741 55.1142Z" fill="#407BFF"/>
<path opacity="0.4" d="M47.741 55.1142C50.8094 56.1895 51.6606 60.6451 49.1841 64.9219C46.7077 69.1988 42.4028 70.677 39.9334 68.5718C37.7967 66.7434 37.8072 62.7677 39.7162 59.4646C41.6252 56.1615 45.0824 54.186 47.741 55.1142Z" fill="white"/>
<path d="M46.6768 56.7657C46.8053 56.8175 46.9304 56.8772 47.0516 56.9444C47.0516 56.9444 47.0726 56.9444 47.0831 56.9444C48.9326 58.0687 49.2618 61.1477 47.605 63.9849C45.9482 66.8221 43.1075 68.1112 41.202 67.0849C41.202 67.0849 41.202 67.0603 41.174 67.0638C41.0654 66.9938 40.9428 66.9167 40.8237 66.8292C39.1564 65.5296 39.1108 62.5068 40.582 59.9743C42.0531 57.4418 44.7047 55.9741 46.6768 56.7657Z" fill="#407BFF"/>
<path opacity="0.3" d="M47.0529 56.9441C47.0529 56.9441 47.0739 56.9441 47.0844 56.9441C48.9339 58.0685 49.2631 61.1474 47.6063 63.9847C45.9495 66.8219 43.1088 68.1109 41.2033 67.0846C41.2033 67.0846 41.2033 67.0601 41.1752 67.0636C39.7741 65.5784 39.8197 62.7412 41.2173 60.3348C42.6149 57.9284 45.0563 56.4853 47.0529 56.9441Z" fill="white"/>
<path d="M39.5278 52.1445H23.1523V54.7716H39.5278V52.1445Z" fill="#407BFF"/>
<path opacity="0.6" d="M39.5278 52.1445H23.1523V54.7716H39.5278V52.1445Z" fill="white"/>
<path opacity="0.2" d="M38.4559 52.1445L23.1523 54.7716H39.5278V52.1445H38.4559Z" fill="black"/>
<path d="M39.5358 52.1445H39.1855V54.7716H39.5358V52.1445Z" fill="#407BFF"/>
<path d="M38.0749 52.1445H37.7246V54.7716H38.0749V52.1445Z" fill="#407BFF"/>
<path d="M36.6159 52.1445H36.2656V54.7716H36.6159V52.1445Z" fill="#407BFF"/>
<path d="M35.1589 52.1445H34.8086V54.7716H35.1589V52.1445Z" fill="#407BFF"/>
<path d="M33.7038 52.1445H33.3535V54.7716H33.7038V52.1445Z" fill="#407BFF"/>
<path d="M32.2389 52.1445H31.8887V54.7716H32.2389V52.1445Z" fill="#407BFF"/>
<path d="M30.7839 52.1445H30.4336V54.7716H30.7839V52.1445Z" fill="#407BFF"/>
<path d="M29.3347 52.1445H28.9844V54.7716H29.3347V52.1445Z" fill="#407BFF"/>
<path d="M27.8737 52.1445H27.5234V54.7716H27.8737V52.1445Z" fill="#407BFF"/>
<path d="M26.4186 52.1445H26.0684V54.7716H26.4186V52.1445Z" fill="#407BFF"/>
<path d="M24.9655 52.1445H24.6152V54.7716H24.9655V52.1445Z" fill="#407BFF"/>
<path d="M23.5026 52.1445H23.1523V54.7716H23.5026V52.1445Z" fill="#407BFF"/>
<path d="M39.5278 54.4238H23.1523V54.7741H39.5278V54.4238Z" fill="#407BFF"/>
<path d="M40.5805 54.7695H24.2051V57.3966H40.5805V54.7695Z" fill="#407BFF"/>
<path opacity="0.6" d="M40.5805 54.7695H24.2051V57.3966H40.5805V54.7695Z" fill="white"/>
<path opacity="0.2" d="M39.5086 54.7695L24.2051 57.3966H40.5805V54.7695H39.5086Z" fill="black"/>
<path d="M40.5807 54.7695H40.2305V57.3966H40.5807V54.7695Z" fill="#407BFF"/>
<path d="M39.1218 54.7695H38.7715V57.3966H39.1218V54.7695Z" fill="#407BFF"/>
<path d="M37.6725 54.7695H37.3223V57.3966H37.6725V54.7695Z" fill="#407BFF"/>
<path d="M36.2097 54.7695H35.8594V57.3966H36.2097V54.7695Z" fill="#407BFF"/>
<path d="M34.7526 54.7695H34.4023V57.3966H34.7526V54.7695Z" fill="#407BFF"/>
<path d="M33.2956 54.7695H32.9453V57.3966H33.2956V54.7695Z" fill="#407BFF"/>
<path d="M31.8366 54.7695H31.4863V57.3966H31.8366V54.7695Z" fill="#407BFF"/>
<path d="M30.3835 54.7695H30.0332V57.3966H30.3835V54.7695Z" fill="#407BFF"/>
<path d="M28.9284 54.7695H28.5781V57.3966H28.9284V54.7695Z" fill="#407BFF"/>
<path d="M27.4714 54.7695H27.1211V57.3966H27.4714V54.7695Z" fill="#407BFF"/>
<path d="M26.0085 54.7695H25.6582V57.3966H26.0085V54.7695Z" fill="#407BFF"/>
<path d="M24.5554 54.7695H24.2051V57.3966H24.5554V54.7695Z" fill="#407BFF"/>
<path d="M40.5805 57.0527H24.2051V57.403H40.5805V57.0527Z" fill="#407BFF"/>
<path d="M42.6801 57.3965H26.3047V60.0236H42.6801V57.3965Z" fill="#407BFF"/>
<path opacity="0.6" d="M42.6801 57.3965H26.3047V60.0236H42.6801V57.3965Z" fill="white"/>
<path opacity="0.2" d="M41.6083 57.3965L26.3047 60.0236H42.6801V57.3965H41.6083Z" fill="black"/>
<path d="M42.6843 57.3965H42.334V60.0236H42.6843V57.3965Z" fill="#407BFF"/>
<path d="M41.2253 57.3965H40.875V60.0236H41.2253V57.3965Z" fill="#407BFF"/>
<path d="M39.7643 57.3965H39.4141V60.0236H39.7643V57.3965Z" fill="#407BFF"/>
<path d="M38.3132 57.3965H37.9629V60.0236H38.3132V57.3965Z" fill="#407BFF"/>
<path d="M36.8522 57.3965H36.502V60.0236H36.8522V57.3965Z" fill="#407BFF"/>
<path d="M35.3972 57.3965H35.0469V60.0236H35.3972V57.3965Z" fill="#407BFF"/>
<path d="M33.944 57.3965H33.5938V60.0236H33.944V57.3965Z" fill="#407BFF"/>
<path d="M32.4811 57.3965H32.1309V60.0236H32.4811V57.3965Z" fill="#407BFF"/>
<path d="M31.03 57.3965H30.6797V60.0236H31.03V57.3965Z" fill="#407BFF"/>
<path d="M29.5749 57.3965H29.2246V60.0236H29.5749V57.3965Z" fill="#407BFF"/>
<path d="M28.1179 57.3965H27.7676V60.0236H28.1179V57.3965Z" fill="#407BFF"/>
<path d="M26.655 57.3965H26.3047V60.0236H26.655V57.3965Z" fill="#407BFF"/>
<path d="M42.6801 59.6777H26.3047V60.028H42.6801V59.6777Z" fill="#407BFF"/>
<path d="M40.5805 60.0215H24.2051V62.6486H40.5805V60.0215Z" fill="#407BFF"/>
<path opacity="0.6" d="M40.5805 60.0215H24.2051V62.6486H40.5805V60.0215Z" fill="white"/>
<path opacity="0.2" d="M39.5086 60.0215L24.2051 62.6486H40.5805V60.0215H39.5086Z" fill="black"/>
<path d="M40.5807 60.0215H40.2305V62.6486H40.5807V60.0215Z" fill="#407BFF"/>
<path d="M39.1218 60.0215H38.7715V62.6486H39.1218V60.0215Z" fill="#407BFF"/>
<path d="M37.6725 60.0215H37.3223V62.6486H37.6725V60.0215Z" fill="#407BFF"/>
<path d="M36.2097 60.0215H35.8594V62.6486H36.2097V60.0215Z" fill="#407BFF"/>
<path d="M34.7526 60.0215H34.4023V62.6486H34.7526V60.0215Z" fill="#407BFF"/>
<path d="M33.2956 60.0215H32.9453V62.6486H33.2956V60.0215Z" fill="#407BFF"/>
<path d="M31.8366 60.0215H31.4863V62.6486H31.8366V60.0215Z" fill="#407BFF"/>
<path d="M30.3835 60.0215H30.0332V62.6486H30.3835V60.0215Z" fill="#407BFF"/>
<path d="M28.9284 60.0215H28.5781V62.6486H28.9284V60.0215Z" fill="#407BFF"/>
<path d="M27.4714 60.0215H27.1211V62.6486H27.4714V60.0215Z" fill="#407BFF"/>
<path d="M26.0085 60.0215H25.6582V62.6486H26.0085V60.0215Z" fill="#407BFF"/>
<path d="M24.5554 60.0215H24.2051V62.6486H24.5554V60.0215Z" fill="#407BFF"/>
<path d="M40.5805 62.2988H24.2051V62.6491H40.5805V62.2988Z" fill="#407BFF"/>
<path d="M41.9828 62.6504H25.6074V65.2775H41.9828V62.6504Z" fill="#407BFF"/>
<path opacity="0.6" d="M41.9828 62.6504H25.6074V65.2775H41.9828V62.6504Z" fill="white"/>
<path opacity="0.2" d="M40.911 62.6504L25.6074 65.2775H41.9828V62.6504H40.911Z" fill="black"/>
<path d="M41.9811 62.6504H41.6309V65.2775H41.9811V62.6504Z" fill="#407BFF"/>
<path d="M40.5202 62.6504H40.1699V65.2775H40.5202V62.6504Z" fill="#407BFF"/>
<path d="M39.071 62.6504H38.7207V65.2775H39.071V62.6504Z" fill="#407BFF"/>
<path d="M37.6139 62.6504H37.2637V65.2775H37.6139V62.6504Z" fill="#407BFF"/>
<path d="M36.155 62.6504H35.8047V65.2775H36.155V62.6504Z" fill="#407BFF"/>
<path d="M34.6979 62.6504H34.3477V65.2775H34.6979V62.6504Z" fill="#407BFF"/>
<path d="M33.2429 62.6504H32.8926V65.2775H33.2429V62.6504Z" fill="#407BFF"/>
<path d="M31.7819 62.6504H31.4316V65.2775H31.7819V62.6504Z" fill="#407BFF"/>
<path d="M30.3268 62.6504H29.9766V65.2775H30.3268V62.6504Z" fill="#407BFF"/>
<path d="M28.8737 62.6504H28.5234V65.2775H28.8737V62.6504Z" fill="#407BFF"/>
<path d="M27.4206 62.6504H27.0703V65.2775H27.4206V62.6504Z" fill="#407BFF"/>
<path d="M25.9577 62.6504H25.6074V65.2775H25.9577V62.6504Z" fill="#407BFF"/>
<path d="M41.9828 64.9297H25.6074V65.28H41.9828V64.9297Z" fill="#407BFF"/>
<path d="M41.6332 65.2754H25.2578V67.9025H41.6332V65.2754Z" fill="#407BFF"/>
<path opacity="0.6" d="M41.6332 65.2754H25.2578V67.9025H41.6332V65.2754Z" fill="white"/>
<path opacity="0.2" d="M40.5614 65.2754L25.2578 67.9025H41.6332V65.2754H40.5614Z" fill="black"/>
<path d="M41.6315 65.2754H41.2812V67.9025H41.6315V65.2754Z" fill="#407BFF"/>
<path d="M40.1725 65.2754H39.8223V67.9025H40.1725V65.2754Z" fill="#407BFF"/>
<path d="M38.7155 65.2754H38.3652V67.9025H38.7155V65.2754Z" fill="#407BFF"/>
<path d="M37.2624 65.2754H36.9121V67.9025H37.2624V65.2754Z" fill="#407BFF"/>
<path d="M35.8054 65.2754H35.4551V67.9025H35.8054V65.2754Z" fill="#407BFF"/>
<path d="M34.3425 65.2754H33.9922V67.9025H34.3425V65.2754Z" fill="#407BFF"/>
<path d="M32.8893 65.2754H32.5391V67.9025H32.8893V65.2754Z" fill="#407BFF"/>
<path d="M31.4401 65.2754H31.0898V67.9025H31.4401V65.2754Z" fill="#407BFF"/>
<path d="M29.985 65.2754H29.6348V67.9025H29.985V65.2754Z" fill="#407BFF"/>
<path d="M28.5202 65.2754H28.1699V67.9025H28.5202V65.2754Z" fill="#407BFF"/>
<path d="M27.0651 65.2754H26.7148V67.9025H27.0651V65.2754Z" fill="#407BFF"/>
<path d="M25.6081 65.2754H25.2578V67.9025H25.6081V65.2754Z" fill="#407BFF"/>
<path d="M41.6332 67.5547H25.2578V67.905H41.6332V67.5547Z" fill="#407BFF"/>
<path d="M40.5805 67.9023H24.2051V70.5294H40.5805V67.9023Z" fill="#407BFF"/>
<path opacity="0.6" d="M40.5805 67.9023H24.2051V70.5294H40.5805V67.9023Z" fill="white"/>
<path opacity="0.2" d="M39.5086 67.9023L24.2051 70.5294H40.5805V67.9023H39.5086Z" fill="black"/>
<path d="M40.5807 67.9023H40.2305V70.5294H40.5807V67.9023Z" fill="#407BFF"/>
<path d="M39.1218 67.9023H38.7715V70.5294H39.1218V67.9023Z" fill="#407BFF"/>
<path d="M37.6725 67.9023H37.3223V70.5294H37.6725V67.9023Z" fill="#407BFF"/>
<path d="M36.2097 67.9023H35.8594V70.5294H36.2097V67.9023Z" fill="#407BFF"/>
<path d="M34.7526 67.9023H34.4023V70.5294H34.7526V67.9023Z" fill="#407BFF"/>
<path d="M33.2956 67.9023H32.9453V70.5294H33.2956V67.9023Z" fill="#407BFF"/>
<path d="M31.8366 67.9023H31.4863V70.5294H31.8366V67.9023Z" fill="#407BFF"/>
<path d="M30.3835 67.9023H30.0332V70.5294H30.3835V67.9023Z" fill="#407BFF"/>
<path d="M28.9284 67.9023H28.5781V70.5294H28.9284V67.9023Z" fill="#407BFF"/>
<path d="M27.4714 67.9023H27.1211V70.5294H27.4714V67.9023Z" fill="#407BFF"/>
<path d="M26.0085 67.9023H25.6582V70.5294H26.0085V67.9023Z" fill="#407BFF"/>
<path d="M24.5554 67.9023H24.2051V70.5294H24.5554V67.9023Z" fill="#407BFF"/>
<path d="M40.5805 70.1855H24.2051V70.5358H40.5805V70.1855Z" fill="#407BFF"/>
<path d="M80.3539 59.9043H63.9785V62.5314H80.3539V59.9043Z" fill="#407BFF"/>
<path opacity="0.6" d="M80.3539 59.9043H63.9785V62.5314H80.3539V59.9043Z" fill="white"/>
<path opacity="0.2" d="M79.2821 59.9043L63.9785 62.5314H80.3539V59.9043H79.2821Z" fill="black"/>
<path d="M80.3561 59.9043H80.0059V62.5314H80.3561V59.9043Z" fill="#407BFF"/>
<path d="M78.8991 59.9043H78.5488V62.5314H78.8991V59.9043Z" fill="#407BFF"/>
<path d="M77.444 59.9043H77.0938V62.5314H77.444V59.9043Z" fill="#407BFF"/>
<path d="M75.987 59.9043H75.6367V62.5314H75.987V59.9043Z" fill="#407BFF"/>
<path d="M74.5339 59.9043H74.1836V62.5314H74.5339V59.9043Z" fill="#407BFF"/>
<path d="M73.0671 59.9043H72.7168V62.5314H73.0671V59.9043Z" fill="#407BFF"/>
<path d="M71.6139 59.9043H71.2637V62.5314H71.6139V59.9043Z" fill="#407BFF"/>
<path d="M70.1589 59.9043H69.8086V62.5314H70.1589V59.9043Z" fill="#407BFF"/>
<path d="M68.7018 59.9043H68.3516V62.5314H68.7018V59.9043Z" fill="#407BFF"/>
<path d="M67.2526 59.9043H66.9023V62.5314H67.2526V59.9043Z" fill="#407BFF"/>
<path d="M65.7897 59.9043H65.4395V62.5314H65.7897V59.9043Z" fill="#407BFF"/>
<path d="M64.3288 59.9043H63.9785V62.5314H64.3288V59.9043Z" fill="#407BFF"/>
<path d="M80.3539 62.1797H63.9785V62.53H80.3539V62.1797Z" fill="#407BFF"/>
<path d="M79.3012 62.5254H62.9258V65.1525H79.3012V62.5254Z" fill="#407BFF"/>
<path opacity="0.6" d="M79.3012 62.5254H62.9258V65.1525H79.3012V62.5254Z" fill="white"/>
<path opacity="0.2" d="M78.2293 62.5254L62.9258 65.1525H79.3012V62.5254H78.2293Z" fill="black"/>
<path d="M79.2995 62.5254H78.9492V65.1525H79.2995V62.5254Z" fill="#407BFF"/>
<path d="M77.8464 62.5254H77.4961V65.1525H77.8464V62.5254Z" fill="#407BFF"/>
<path d="M76.3932 62.5254H76.043V65.1525H76.3932V62.5254Z" fill="#407BFF"/>
<path d="M74.9343 62.5254H74.584V65.1525H74.9343V62.5254Z" fill="#407BFF"/>
<path d="M73.4811 62.5254H73.1309V65.1525H73.4811V62.5254Z" fill="#407BFF"/>
<path d="M72.0202 62.5254H71.6699V65.1525H72.0202V62.5254Z" fill="#407BFF"/>
<path d="M70.5651 62.5254H70.2148V65.1525H70.5651V62.5254Z" fill="#407BFF"/>
<path d="M69.1081 62.5254H68.7578V65.1525H69.1081V62.5254Z" fill="#407BFF"/>
<path d="M67.6491 62.5254H67.2988V65.1525H67.6491V62.5254Z" fill="#407BFF"/>
<path d="M66.196 62.5254H65.8457V65.1525H66.196V62.5254Z" fill="#407BFF"/>
<path d="M64.737 62.5254H64.3867V65.1525H64.737V62.5254Z" fill="#407BFF"/>
<path d="M63.2761 62.5254H62.9258V65.1525H63.2761V62.5254Z" fill="#407BFF"/>
<path d="M79.3012 64.8047H62.9258V65.155H79.3012V64.8047Z" fill="#407BFF"/>
<path d="M80.3539 65.1523H63.9785V67.7794H80.3539V65.1523Z" fill="#407BFF"/>
<path opacity="0.6" d="M80.3539 65.1523H63.9785V67.7794H80.3539V65.1523Z" fill="white"/>
<path opacity="0.2" d="M79.2821 65.1523L63.9785 67.7794H80.3539V65.1523H79.2821Z" fill="black"/>
<path d="M80.3561 65.1523H80.0059V67.7794H80.3561V65.1523Z" fill="#407BFF"/>
<path d="M78.8991 65.1523H78.5488V67.7794H78.8991V65.1523Z" fill="#407BFF"/>
<path d="M77.444 65.1523H77.0938V67.7794H77.444V65.1523Z" fill="#407BFF"/>
<path d="M75.987 65.1523H75.6367V67.7794H75.987V65.1523Z" fill="#407BFF"/>
<path d="M74.5339 65.1523H74.1836V67.7794H74.5339V65.1523Z" fill="#407BFF"/>
<path d="M73.0671 65.1523H72.7168V67.7794H73.0671V65.1523Z" fill="#407BFF"/>
<path d="M71.6139 65.1523H71.2637V67.7794H71.6139V65.1523Z" fill="#407BFF"/>
<path d="M70.1589 65.1523H69.8086V67.7794H70.1589V65.1523Z" fill="#407BFF"/>
<path d="M68.7018 65.1523H68.3516V67.7794H68.7018V65.1523Z" fill="#407BFF"/>
<path d="M67.2526 65.1523H66.9023V67.7794H67.2526V65.1523Z" fill="#407BFF"/>
<path d="M65.7897 65.1523H65.4395V67.7794H65.7897V65.1523Z" fill="#407BFF"/>
<path d="M64.3288 65.1523H63.9785V67.7794H64.3288V65.1523Z" fill="#407BFF"/>
<path d="M80.3539 67.4258H63.9785V67.7761H80.3539V67.4258Z" fill="#407BFF"/>
<path d="M78.6039 67.7773H62.2285V70.4044H78.6039V67.7773Z" fill="#407BFF"/>
<path opacity="0.6" d="M78.6039 67.7773H62.2285V70.4044H78.6039V67.7773Z" fill="white"/>
<path opacity="0.2" d="M77.5321 67.7773L62.2285 70.4044H78.6039V67.7773H77.5321Z" fill="black"/>
<path d="M78.6042 67.7773H78.2539V70.4044H78.6042V67.7773Z" fill="#407BFF"/>
<path d="M77.1452 67.7773H76.7949V70.4044H77.1452V67.7773Z" fill="#407BFF"/>
<path d="M75.6921 67.7773H75.3418V70.4044H75.6921V67.7773Z" fill="#407BFF"/>
<path d="M74.237 67.7773H73.8867V70.4044H74.237V67.7773Z" fill="#407BFF"/>
<path d="M72.7761 67.7773H72.4258V70.4044H72.7761V67.7773Z" fill="#407BFF"/>
<path d="M71.3268 67.7773H70.9766V70.4044H71.3268V67.7773Z" fill="#407BFF"/>
<path d="M69.8679 67.7773H69.5176V70.4044H69.8679V67.7773Z" fill="#407BFF"/>
<path d="M68.4069 67.7773H68.0566V70.4044H68.4069V67.7773Z" fill="#407BFF"/>
<path d="M66.9518 67.7773H66.6016V70.4044H66.9518V67.7773Z" fill="#407BFF"/>
<path d="M65.4909 67.7773H65.1406V70.4044H65.4909V67.7773Z" fill="#407BFF"/>
<path d="M64.0358 67.7773H63.6855V70.4044H64.0358V67.7773Z" fill="#407BFF"/>
<path d="M62.5788 67.7773H62.2285V70.4044H62.5788V67.7773Z" fill="#407BFF"/>
<path d="M78.6039 70.0566H62.2285V70.4069H78.6039V70.0566Z" fill="#407BFF"/>
<path d="M60.3188 52.1445H43.9434V54.7716H60.3188V52.1445Z" fill="#407BFF"/>
<path opacity="0.6" d="M60.3188 52.1445H43.9434V54.7716H60.3188V52.1445Z" fill="white"/>
<path opacity="0.2" d="M59.2469 52.1445L43.9434 54.7716H60.3223V52.1445H59.2469Z" fill="black"/>
<path d="M60.319 52.1445H59.9688V54.7716H60.319V52.1445Z" fill="#407BFF"/>
<path d="M58.8698 52.1445H58.5195V54.7716H58.8698V52.1445Z" fill="#407BFF"/>
<path d="M57.4069 52.1445H57.0566V54.7716H57.4069V52.1445Z" fill="#407BFF"/>
<path d="M55.9538 52.1445H55.6035V54.7716H55.9538V52.1445Z" fill="#407BFF"/>
<path d="M54.4948 52.1445H54.1445V54.7716H54.4948V52.1445Z" fill="#407BFF"/>
<path d="M53.0378 52.1445H52.6875V54.7716H53.0378V52.1445Z" fill="#407BFF"/>
<path d="M51.5847 52.1445H51.2344V54.7716H51.5847V52.1445Z" fill="#407BFF"/>
<path d="M50.1218 52.1445H49.7715V54.7716H50.1218V52.1445Z" fill="#407BFF"/>
<path d="M48.6667 52.1445H48.3164V54.7716H48.6667V52.1445Z" fill="#407BFF"/>
<path d="M47.2097 52.1445H46.8594V54.7716H47.2097V52.1445Z" fill="#407BFF"/>
<path d="M45.7507 52.1445H45.4004V54.7716H45.7507V52.1445Z" fill="#407BFF"/>
<path d="M44.2936 52.1445H43.9434V54.7716H44.2936V52.1445Z" fill="#407BFF"/>
<path d="M60.3188 54.4238H43.9434V54.7741H60.3188V54.4238Z" fill="#407BFF"/>
<path d="M61.3676 54.7695H44.9922V57.3966H61.3676V54.7695Z" fill="#407BFF"/>
<path opacity="0.6" d="M61.3676 54.7695H44.9922V57.3966H61.3676V54.7695Z" fill="white"/>
<path opacity="0.2" d="M60.2957 54.7695L44.9922 57.3966H61.3711V54.7695H60.2957Z" fill="black"/>
<path d="M61.3757 54.7695H61.0254V57.3966H61.3757V54.7695Z" fill="#407BFF"/>
<path d="M59.9167 54.7695H59.5664V57.3966H59.9167V54.7695Z" fill="#407BFF"/>
<path d="M58.4597 54.7695H58.1094V57.3966H58.4597V54.7695Z" fill="#407BFF"/>
<path d="M57.0046 54.7695H56.6543V57.3966H57.0046V54.7695Z" fill="#407BFF"/>
<path d="M55.5436 54.7695H55.1934V57.3966H55.5436V54.7695Z" fill="#407BFF"/>
<path d="M54.0886 54.7695H53.7383V57.3966H54.0886V54.7695Z" fill="#407BFF"/>
<path d="M52.6354 54.7695H52.2852V57.3966H52.6354V54.7695Z" fill="#407BFF"/>
<path d="M51.1725 54.7695H50.8223V57.3966H51.1725V54.7695Z" fill="#407BFF"/>
<path d="M49.7155 54.7695H49.3652V57.3966H49.7155V54.7695Z" fill="#407BFF"/>
<path d="M48.2565 54.7695H47.9062V57.3966H48.2565V54.7695Z" fill="#407BFF"/>
<path d="M46.7995 54.7695H46.4492V57.3966H46.7995V54.7695Z" fill="#407BFF"/>
<path d="M45.3425 54.7695H44.9922V57.3966H45.3425V54.7695Z" fill="#407BFF"/>
<path d="M61.3676 57.0527H44.9922V57.403H61.3676V57.0527Z" fill="#407BFF"/>
<path d="M61.7211 57.3965H45.3457V60.0236H61.7211V57.3965Z" fill="#407BFF"/>
<path opacity="0.6" d="M61.7211 57.3965H45.3457V60.0236H61.7211V57.3965Z" fill="white"/>
<path opacity="0.2" d="M60.6493 57.3965L45.3457 60.0236H61.7246V57.3965H60.6493Z" fill="black"/>
<path d="M61.7253 57.3965H61.375V60.0236H61.7253V57.3965Z" fill="#407BFF"/>
<path d="M60.2663 57.3965H59.916V60.0236H60.2663V57.3965Z" fill="#407BFF"/>
<path d="M58.8093 57.3965H58.459V60.0236H58.8093V57.3965Z" fill="#407BFF"/>
<path d="M57.3503 57.3965H57V60.0236H57.3503V57.3965Z" fill="#407BFF"/>
<path d="M55.8972 57.3965H55.5469V60.0236H55.8972V57.3965Z" fill="#407BFF"/>
<path d="M54.4401 57.3965H54.0898V60.0236H54.4401V57.3965Z" fill="#407BFF"/>
<path d="M52.9811 57.3965H52.6309V60.0236H52.9811V57.3965Z" fill="#407BFF"/>
<path d="M51.5202 57.3965H51.1699V60.0236H51.5202V57.3965Z" fill="#407BFF"/>
<path d="M50.071 57.3965H49.7207V60.0236H50.071V57.3965Z" fill="#407BFF"/>
<path d="M48.6081 57.3965H48.2578V60.0236H48.6081V57.3965Z" fill="#407BFF"/>
<path d="M47.155 57.3965H46.8047V60.0236H47.155V57.3965Z" fill="#407BFF"/>
<path d="M45.696 57.3965H45.3457V60.0236H45.696V57.3965Z" fill="#407BFF"/>
<path d="M61.7211 59.6777H45.3457V60.028H61.7211V59.6777Z" fill="#407BFF"/>
<path d="M61.3676 60.0215H44.9922V62.6486H61.3676V60.0215Z" fill="#407BFF"/>
<path opacity="0.6" d="M61.3676 60.0215H44.9922V62.6486H61.3676V60.0215Z" fill="white"/>
<path opacity="0.2" d="M60.2957 60.0215L44.9922 62.6486H61.3711V60.0215H60.2957Z" fill="black"/>
<path d="M61.3757 60.0215H61.0254V62.6486H61.3757V60.0215Z" fill="#407BFF"/>
<path d="M59.9167 60.0215H59.5664V62.6486H59.9167V60.0215Z" fill="#407BFF"/>
<path d="M58.4597 60.0215H58.1094V62.6486H58.4597V60.0215Z" fill="#407BFF"/>
<path d="M57.0046 60.0215H56.6543V62.6486H57.0046V60.0215Z" fill="#407BFF"/>
<path d="M55.5436 60.0215H55.1934V62.6486H55.5436V60.0215Z" fill="#407BFF"/>
<path d="M54.0886 60.0215H53.7383V62.6486H54.0886V60.0215Z" fill="#407BFF"/>
<path d="M52.6354 60.0215H52.2852V62.6486H52.6354V60.0215Z" fill="#407BFF"/>
<path d="M51.1725 60.0215H50.8223V62.6486H51.1725V60.0215Z" fill="#407BFF"/>
<path d="M49.7155 60.0215H49.3652V62.6486H49.7155V60.0215Z" fill="#407BFF"/>
<path d="M48.2565 60.0215H47.9062V62.6486H48.2565V60.0215Z" fill="#407BFF"/>
<path d="M46.7995 60.0215H46.4492V62.6486H46.7995V60.0215Z" fill="#407BFF"/>
<path d="M45.3425 60.0215H44.9922V62.6486H45.3425V60.0215Z" fill="#407BFF"/>
<path d="M61.3676 62.2988H44.9922V62.6491H61.3676V62.2988Z" fill="#407BFF"/>
<path d="M61.7211 62.6504H45.3457V65.2775H61.7211V62.6504Z" fill="#407BFF"/>
<path opacity="0.6" d="M61.7211 62.6504H45.3457V65.2775H61.7211V62.6504Z" fill="white"/>
<path opacity="0.2" d="M60.6493 62.6504L45.3457 65.2775H61.7246V62.6504H60.6493Z" fill="black"/>
<path d="M61.7253 62.6504H61.375V65.2775H61.7253V62.6504Z" fill="#407BFF"/>
<path d="M60.2663 62.6504H59.916V65.2775H60.2663V62.6504Z" fill="#407BFF"/>
<path d="M58.8093 62.6504H58.459V65.2775H58.8093V62.6504Z" fill="#407BFF"/>
<path d="M57.3503 62.6504H57V65.2775H57.3503V62.6504Z" fill="#407BFF"/>
<path d="M55.8972 62.6504H55.5469V65.2775H55.8972V62.6504Z" fill="#407BFF"/>
<path d="M54.4401 62.6504H54.0898V65.2775H54.4401V62.6504Z" fill="#407BFF"/>
<path d="M52.9811 62.6504H52.6309V65.2775H52.9811V62.6504Z" fill="#407BFF"/>
<path d="M51.5202 62.6504H51.1699V65.2775H51.5202V62.6504Z" fill="#407BFF"/>
<path d="M50.071 62.6504H49.7207V65.2775H50.071V62.6504Z" fill="#407BFF"/>
<path d="M48.6081 62.6504H48.2578V65.2775H48.6081V62.6504Z" fill="#407BFF"/>
<path d="M47.155 62.6504H46.8047V65.2775H47.155V62.6504Z" fill="#407BFF"/>
<path d="M45.696 62.6504H45.3457V65.2775H45.696V62.6504Z" fill="#407BFF"/>
<path d="M61.7211 64.9297H45.3457V65.28H61.7211V64.9297Z" fill="#407BFF"/>
<path d="M61.016 65.2754H44.6406V67.9025H61.016V65.2754Z" fill="#407BFF"/>
<path opacity="0.6" d="M61.016 65.2754H44.6406V67.9025H61.016V65.2754Z" fill="white"/>
<path opacity="0.2" d="M59.9442 65.2754L44.6406 67.9025H61.0195V65.2754H59.9442Z" fill="black"/>
<path d="M61.0241 65.2754H60.6738V67.9025H61.0241V65.2754Z" fill="#407BFF"/>
<path d="M59.5671 65.2754H59.2168V67.9025H59.5671V65.2754Z" fill="#407BFF"/>
<path d="M58.1081 65.2754H57.7578V67.9025H58.1081V65.2754Z" fill="#407BFF"/>
<path d="M56.6491 65.2754H56.2988V67.9025H56.6491V65.2754Z" fill="#407BFF"/>
<path d="M55.196 65.2754H54.8457V67.9025H55.196V65.2754Z" fill="#407BFF"/>
<path d="M53.7429 65.2754H53.3926V67.9025H53.7429V65.2754Z" fill="#407BFF"/>
<path d="M52.28 65.2754H51.9297V67.9025H52.28V65.2754Z" fill="#407BFF"/>
<path d="M50.8229 65.2754H50.4727V67.9025H50.8229V65.2754Z" fill="#407BFF"/>
<path d="M49.3659 65.2754H49.0156V67.9025H49.3659V65.2754Z" fill="#407BFF"/>
<path d="M47.9108 65.2754H47.5605V67.9025H47.9108V65.2754Z" fill="#407BFF"/>
<path d="M46.4538 65.2754H46.1035V67.9025H46.4538V65.2754Z" fill="#407BFF"/>
<path d="M44.9909 65.2754H44.6406V67.9025H44.9909V65.2754Z" fill="#407BFF"/>
<path d="M61.016 67.5547H44.6406V67.905H61.016V67.5547Z" fill="#407BFF"/>
<path d="M61.3676 67.9023H44.9922V70.5294H61.3676V67.9023Z" fill="#407BFF"/>
<path opacity="0.6" d="M61.3676 67.9023H44.9922V70.5294H61.3676V67.9023Z" fill="white"/>
<path opacity="0.2" d="M60.2957 67.9023L44.9922 70.5294H61.3711V67.9023H60.2957Z" fill="black"/>
<path d="M61.3757 67.9023H61.0254V70.5294H61.3757V67.9023Z" fill="#407BFF"/>
<path d="M59.9167 67.9023H59.5664V70.5294H59.9167V67.9023Z" fill="#407BFF"/>
<path d="M58.4597 67.9023H58.1094V70.5294H58.4597V67.9023Z" fill="#407BFF"/>
<path d="M57.0046 67.9023H56.6543V70.5294H57.0046V67.9023Z" fill="#407BFF"/>
<path d="M55.5436 67.9023H55.1934V70.5294H55.5436V67.9023Z" fill="#407BFF"/>
<path d="M54.0886 67.9023H53.7383V70.5294H54.0886V67.9023Z" fill="#407BFF"/>
<path d="M52.6354 67.9023H52.2852V70.5294H52.6354V67.9023Z" fill="#407BFF"/>
<path d="M51.1725 67.9023H50.8223V70.5294H51.1725V67.9023Z" fill="#407BFF"/>
<path d="M49.7155 67.9023H49.3652V70.5294H49.7155V67.9023Z" fill="#407BFF"/>
<path d="M48.2565 67.9023H47.9062V70.5294H48.2565V67.9023Z" fill="#407BFF"/>
<path d="M46.7995 67.9023H46.4492V70.5294H46.7995V67.9023Z" fill="#407BFF"/>
<path d="M45.3425 67.9023H44.9922V70.5294H45.3425V67.9023Z" fill="#407BFF"/>
<path d="M61.3676 70.1855H44.9922V70.5358H61.3676V70.1855Z" fill="#407BFF"/>
<path d="M20.5948 69.4089C19.1575 68.7743 17.9406 67.7277 17.0981 66.4015C16.2556 65.0753 15.8253 63.5291 15.8615 61.9584C15.8977 60.3876 16.3989 58.8629 17.3017 57.5769C18.2044 56.291 19.4682 55.3016 20.9332 54.734C22.3983 54.1663 23.9987 54.0457 25.5322 54.3876C27.0658 54.7295 28.4635 55.5184 29.5487 56.6546C30.6338 57.7908 31.3577 59.2233 31.6288 60.7709C31.8998 62.3186 31.7059 63.9118 31.0715 65.3492C30.6502 66.3037 30.0451 67.1659 29.2905 67.8865C28.536 68.6072 27.6469 69.1721 26.674 69.5491C25.7012 69.9261 24.6635 70.1077 23.6205 70.0837C22.5774 70.0596 21.5492 69.8303 20.5948 69.4089Z" fill="#407BFF"/>
<path d="M20.2129 70.2767C18.7761 69.6416 17.5598 68.5947 16.7178 67.2684C15.8758 65.9421 15.446 64.396 15.4826 62.8254C15.5193 61.2549 16.0207 59.7305 16.9236 58.4449C17.8265 57.1593 19.0903 56.1702 20.5552 55.6028C22.0201 55.0353 23.6203 54.9149 25.1537 55.2568C26.687 55.5987 28.0845 56.3875 29.1696 57.5236C30.2546 58.6596 30.9785 60.0919 31.2497 61.6393C31.5209 63.1866 31.3273 64.7797 30.6932 66.217C30.2719 67.172 29.6666 68.0346 28.9118 68.7555C28.157 69.4764 27.2676 70.0415 26.2943 70.4186C25.321 70.7956 24.283 70.9771 23.2395 70.9528C22.196 70.9284 21.1676 70.6987 20.2129 70.2767Z" fill="#407BFF"/>
<path opacity="0.4" d="M20.2129 70.2767C18.7761 69.6416 17.5598 68.5947 16.7178 67.2684C15.8758 65.9421 15.446 64.396 15.4826 62.8254C15.5193 61.2549 16.0207 59.7305 16.9236 58.4449C17.8265 57.1593 19.0903 56.1702 20.5552 55.6028C22.0201 55.0353 23.6203 54.9149 25.1537 55.2568C26.687 55.5987 28.0845 56.3875 29.1696 57.5236C30.2546 58.6596 30.9785 60.0919 31.2497 61.6393C31.5209 63.1866 31.3273 64.7797 30.6932 66.217C30.2719 67.172 29.6666 68.0346 28.9118 68.7555C28.157 69.4764 27.2676 70.0415 26.2943 70.4186C25.321 70.7956 24.283 70.9771 23.2395 70.9528C22.196 70.9284 21.1676 70.6987 20.2129 70.2767Z" fill="white"/>
<path d="M28.8603 65.4144C28.7702 65.6181 28.6672 65.8158 28.552 66.0064C27.7632 67.2727 26.5278 68.1969 25.0902 68.5959C23.6527 68.9949 22.1177 68.8397 20.789 68.1611C19.4604 67.4825 18.4349 66.3298 17.9155 64.9312C17.3961 63.5326 17.4206 61.99 17.9842 60.6086C18.6764 59.2539 19.8608 58.2155 21.2944 57.7065C22.728 57.1975 24.302 57.2565 25.6935 57.8713C27.085 58.4862 28.1884 59.6103 28.7773 61.013C29.3662 62.4157 29.3959 63.9905 28.8603 65.4144Z" fill="#407BFF"/>
<path opacity="0.3" d="M28.862 65.4151C28.7719 65.6188 28.669 65.8165 28.5538 66.0071C27.6526 67.1275 26.3765 67.884 24.9611 68.1369C23.5457 68.3899 22.0865 68.1221 20.8531 67.3831C19.6197 66.6441 18.6954 65.4837 18.2508 64.1163C17.8062 62.749 17.8714 61.2669 18.4343 59.9438C18.5183 59.753 18.6131 59.567 18.718 59.3869C19.6097 58.2463 20.8863 57.4697 22.309 57.2022C23.7318 56.9347 25.2033 57.1946 26.4483 57.9335C27.6933 58.6723 28.6264 59.8394 29.0733 61.2164C29.5201 62.5934 29.45 64.0861 28.876 65.4151H28.862Z" fill="white"/>
<g opacity="0.4">
<path d="M21.2127 64.8895C19.9166 64.5707 19.4613 63.3903 20.0077 61.8456L19.0234 61.3832L19.4228 60.476L20.407 60.9419C20.8082 60.1893 21.379 59.5405 22.0743 59.0469L23.0131 59.9506C22.4259 60.3423 21.9379 60.8651 21.5875 61.4778L23.0972 62.1783C23.7417 61.4077 24.4983 60.5741 25.6857 60.8648C26.9817 61.1836 27.4371 62.3885 26.8626 63.9542L27.8469 64.4166L27.4301 65.3308L26.4353 64.865C26.115 65.4571 25.6762 65.977 25.1463 66.3922L24.183 65.541C24.6338 65.218 25.0091 64.8009 25.2829 64.3185L23.7066 63.5794C23.0761 64.3606 22.3335 65.1697 21.2127 64.8895ZM24.3651 62.7878L25.6542 63.3973C25.7733 62.8544 25.6016 62.4901 25.2338 62.392C24.9256 62.329 24.6489 62.5286 24.3581 62.8018L24.3651 62.7878ZM21.612 63.3483C21.8957 63.4183 22.1619 63.2537 22.4281 62.97L21.2022 62.3955C21.0866 62.9244 21.2372 63.2712 21.605 63.3623L21.612 63.3483Z" fill="white"/>
</g>
<path d="M66.2673 70.8249C66.1928 70.8103 66.1191 70.7916 66.0467 70.7688C64.614 70.2925 62.4388 68.0577 60.5859 65.0138C58.7329 61.9699 57.7521 59.0031 57.9903 57.5074C58.021 57.2516 58.1216 57.0092 58.281 56.8068L58.3056 56.7788C58.3547 56.7174 58.4154 56.6663 58.4842 56.6282C58.5565 56.5853 58.6343 56.5523 58.7154 56.5301C58.965 56.4801 59.2238 56.502 59.4615 56.5932C59.7725 56.6941 60.0674 56.8392 60.3372 57.024C60.5581 57.1673 60.771 57.3229 60.9747 57.4899C61.0938 57.5915 61.2234 57.6965 61.353 57.8156C62.7616 59.1582 63.976 60.6909 64.9608 62.3692C65.9954 64.0094 66.7926 65.7878 67.3287 67.6514C67.3742 67.8195 67.4092 68.0017 67.4443 68.1488C67.5063 68.427 67.5496 68.709 67.5739 68.993C67.6099 69.3105 67.598 69.6317 67.5388 69.9457C67.5052 70.2123 67.3816 70.4594 67.1886 70.6463C67.15 70.6928 67.1023 70.731 67.0484 70.7583C67.0015 70.7896 66.9493 70.8121 66.8943 70.8249C66.6896 70.8845 66.4721 70.8845 66.2673 70.8249Z" fill="#407BFF"/>
<path d="M66.2575 70.8232L66.1384 70.6306L62.1312 64.0384C62.0261 63.8597 61.9211 63.6881 61.8265 63.5234L58.082 57.3691C58.1092 57.1731 58.1734 56.9841 58.2712 56.8122C58.307 56.7528 58.3493 56.6976 58.3973 56.6475L58.8036 56.3988L60.0296 55.6562L60.583 56.5635L60.6811 56.7281L61.0629 57.3586L61.3431 57.821L67.3188 67.6287L67.536 67.979L67.9563 68.6795L68.0544 68.8406L68.6113 69.7514L67.2102 70.613L66.916 70.7917C66.7046 70.868 66.4752 70.8789 66.2575 70.8232Z" fill="#407BFF"/>
<path d="M60.039 55.6521C58.8305 56.3877 59.7693 60.1427 62.1406 64.0412C64.512 67.9398 67.3948 70.5038 68.6172 69.7718C69.8397 69.0397 68.8834 65.2812 66.5156 61.3826C64.1477 57.4841 61.2439 54.92 60.039 55.6521Z" fill="#407BFF"/>
<path opacity="0.4" d="M60.039 55.6521C58.8305 56.3877 59.7693 60.1427 62.1406 64.0412C64.512 67.9398 67.3948 70.5038 68.6172 69.7718C69.8397 69.0397 68.8834 65.2812 66.5156 61.3826C64.1477 57.4841 61.2439 54.92 60.039 55.6521Z" fill="white"/>
<path d="M60.6662 56.4982C60.5908 56.5441 60.5319 56.6128 60.498 56.6944C61.4998 56.6944 63.6085 58.9221 65.4825 62.008C67.3565 65.094 68.3652 67.9943 67.8994 68.8805C67.9878 68.8842 68.0754 68.8623 68.1516 68.8174C68.9677 68.32 67.9729 65.1535 65.9028 61.7488C63.8327 58.3442 61.4858 56.0008 60.6662 56.4982Z" fill="#407BFF"/>
<path opacity="0.4" d="M60.6662 56.4982C60.5908 56.5441 60.5319 56.6128 60.498 56.6944C61.4998 56.6944 63.6085 58.9221 65.4825 62.008C67.3565 65.094 68.3652 67.9943 67.8994 68.8805C67.9878 68.8842 68.0754 68.8623 68.1516 68.8174C68.9677 68.32 67.9729 65.1535 65.9028 61.7488C63.8327 58.3442 61.4858 56.0008 60.6662 56.4982Z" fill="#407BFF"/>
<path opacity="0.4" d="M60.4984 56.6973C60.0361 57.5905 61.0414 60.4837 62.9153 63.5697C64.7893 66.6556 66.9015 68.8904 67.8998 68.8834C68.3656 67.9972 67.3603 65.1039 65.4829 62.011C63.6054 58.918 61.5177 56.6973 60.4984 56.6973Z" fill="#407BFF"/>
<path d="M33.4949 52.4673C34.441 52.5792 35.3992 52.5295 36.3286 52.3202C36.6203 52.2599 36.891 52.1239 37.1135 51.926C37.3361 51.728 37.5027 51.475 37.5966 51.1923L38.5108 48.0118C38.1606 47.1502 34.0764 46.355 31.4668 48.0118C31.4668 48.0118 31.74 50.1135 31.9677 50.9787C32.2199 51.9419 32.5877 52.3798 33.4949 52.4673Z" fill="#407BFF"/>
<path opacity="0.2" d="M33.4949 52.4673C34.441 52.5792 35.3992 52.5295 36.3286 52.3202C36.6203 52.2599 36.891 52.1239 37.1135 51.926C37.3361 51.728 37.5027 51.475 37.5966 51.1923L38.5108 48.0118C38.1606 47.1502 34.0764 46.355 31.4668 48.0118C31.4668 48.0118 31.74 50.1135 31.9677 50.9787C32.2199 51.9419 32.5877 52.3798 33.4949 52.4673Z" fill="black"/>
<path d="M50.941 51.9333C51.7149 51.9772 52.4894 51.8578 53.2143 51.583C53.4571 51.481 53.6675 51.3145 53.8225 51.1015C53.9774 50.8885 54.0712 50.6371 54.0935 50.3746L54.5068 46.4025C53.8448 45.8315 49.7465 45.8105 48.8008 47.772C48.8008 47.772 49.046 48.6652 49.5188 50.5742C49.8376 51.8773 50.1914 51.9018 50.941 51.9333Z" fill="#407BFF"/>
<path opacity="0.2" d="M50.941 51.9333C51.7149 51.9772 52.4894 51.8578 53.2143 51.583C53.4571 51.481 53.6675 51.3145 53.8225 51.1015C53.9774 50.8885 54.0712 50.6371 54.0935 50.3746L54.5068 46.4025C53.8448 45.8315 49.7465 45.8105 48.8008 47.772C48.8008 47.772 49.046 48.6652 49.5188 50.5742C49.8376 51.8773 50.1914 51.9018 50.941 51.9333Z" fill="black"/>
<path d="M52.0039 21.3054C53.4503 21.6015 54.7251 22.448 55.5592 23.6663C56.0162 22.6355 56.3478 21.5536 56.547 20.4437C56.6381 19.9253 56.6871 19.3474 56.3789 18.9481C56.0006 18.4542 55.2124 18.4332 54.6275 18.7274C54.054 19.0659 53.5586 19.5219 53.1738 20.0654C52.8325 20.5221 52.44 20.9381 52.0039 21.3054Z" fill="#407BFF"/>
<path opacity="0.4" d="M52.0039 21.3054C53.4503 21.6015 54.7251 22.448 55.5592 23.6663C56.0162 22.6355 56.3478 21.5536 56.547 20.4437C56.6381 19.9253 56.6871 19.3474 56.3789 18.9481C56.0006 18.4542 55.2124 18.4332 54.6275 18.7274C54.054 19.0659 53.5586 19.5219 53.1738 20.0654C52.8325 20.5221 52.44 20.9381 52.0039 21.3054Z" fill="white"/>
<path d="M56.0737 18.6882C56.0737 18.6882 54.6446 18.5866 53.2715 20.5482C53.0162 20.1472 52.6516 19.8276 52.2207 19.6269C52.2207 19.6269 54.6866 17.6899 56.0737 18.6882Z" fill="#407BFF"/>
<path opacity="0.3" d="M56.0737 18.6882C56.0737 18.6882 54.6446 18.5866 53.2715 20.5482C53.0162 20.1472 52.6516 19.8276 52.2207 19.6269C52.2207 19.6269 54.6866 17.6899 56.0737 18.6882Z" fill="white"/>
<path d="M46.1041 18.0664H35.7009C31.5524 18.1282 27.5946 19.8196 24.6828 22.7751C21.7709 25.7307 20.1387 29.7131 20.1387 33.8621C20.1387 38.0111 21.7709 41.9936 24.6828 44.9491C27.5946 47.9047 31.5524 49.596 35.7009 49.6578H46.1041C50.2526 49.596 54.2103 47.9047 57.1222 44.9491C60.0341 41.9936 61.6663 38.0111 61.6663 33.8621C61.6663 29.7131 60.0341 25.7307 57.1222 22.7751C54.2103 19.8196 50.2526 18.1282 46.1041 18.0664Z" fill="#407BFF"/>
<path opacity="0.2" d="M56.7224 32.658H54.295C53.336 32.6876 52.4262 33.0893 51.7582 33.7781C51.0903 34.4669 50.7168 35.3887 50.7168 36.3482C50.7168 37.3076 51.0903 38.2294 51.7582 38.9182C52.4262 39.607 53.336 40.0088 54.295 40.0383H56.7224C57.2166 40.0535 57.7088 39.9694 58.1698 39.7908C58.6308 39.6122 59.0512 39.3428 59.4062 38.9986C59.7611 38.6545 60.0433 38.2425 60.236 37.7872C60.4287 37.3319 60.528 36.8426 60.528 36.3482C60.528 35.8538 60.4287 35.3644 60.236 34.9091C60.0433 34.4538 59.7611 34.0419 59.4062 33.6977C59.0512 33.3535 58.6308 33.0841 58.1698 32.9056C57.7088 32.727 57.2166 32.6428 56.7224 32.658Z" fill="black"/>
<path opacity="0.3" d="M55.7514 36.3484C55.7514 37.1225 55.3591 37.7495 54.8757 37.7495C54.3923 37.7495 54 37.1225 54 36.3484C54 35.5743 54.3923 34.9473 54.8757 34.9473C55.3591 34.9473 55.7514 35.5778 55.7514 36.3484Z" fill="black"/>
<path opacity="0.3" d="M59.1229 36.3484C59.1229 37.1225 58.7306 37.7495 58.2472 37.7495C57.7638 37.7495 57.375 37.1225 57.375 36.3484C57.375 35.5743 57.7638 34.9473 58.2472 34.9473C58.7306 34.9473 59.1229 35.5778 59.1229 36.3484Z" fill="black"/>
<path opacity="0.4" d="M50.796 28.4732C50.9326 29.1212 50.7715 29.7027 50.1235 29.8393C49.4755 29.9759 49.0937 29.5101 48.9571 28.8656C48.8205 28.221 48.9816 27.6396 49.6261 27.4995C50.2706 27.3594 50.6629 27.8287 50.796 28.4732Z" fill="black"/>
<path opacity="0.4" d="M59.2839 28.8647C59.1473 29.5092 58.762 29.9751 58.1175 29.8385C57.473 29.7019 57.3083 29.1204 57.445 28.4724C57.5816 27.8244 57.9669 27.362 58.6149 27.4986C59.2629 27.6352 59.4205 28.2202 59.2839 28.8647Z" fill="black"/>
<path opacity="0.4" d="M53.9648 41.3105C53.7616 41.335 51.2326 41.0022 50.2203 40.2316C49.208 39.461 50.0487 41.1634 52.4236 41.4541C52.9412 41.5361 53.4712 41.4867 53.9648 41.3105Z" fill="black"/>
<path d="M43.7842 17.1699C43.7842 17.1699 42.0784 17.3205 41.4829 19.3872C40.8875 21.4538 43.4305 24.3611 43.4305 24.3611C43.4305 24.3611 41.5004 21.6745 43.7842 17.1699Z" fill="#407BFF"/>
<path opacity="0.3" d="M43.7842 17.1699C43.7842 17.1699 42.0784 17.3205 41.4829 19.3872C40.8875 21.4538 43.4305 24.3611 43.4305 24.3611C43.4305 24.3611 41.5004 21.6745 43.7842 17.1699Z" fill="white"/>
<path d="M43.525 23.7478C43.8368 21.8633 45.0767 20.1855 46.632 19.5445C46.2327 18.5812 45.6792 17.2467 44.772 17.033C44.0715 16.8684 43.2833 17.3377 42.835 18.0418C42.4172 18.7906 42.2148 19.6405 42.25 20.4972C42.2482 21.8735 42.6661 23.2176 43.448 24.3503C43.3919 24.2872 43.5636 23.8213 43.525 23.7478Z" fill="#407BFF"/>
<path opacity="0.5" d="M43.525 23.7478C43.8368 21.8633 45.0767 20.1855 46.632 19.5445C46.2327 18.5812 45.6792 17.2467 44.772 17.033C44.0715 16.8684 43.2833 17.3377 42.835 18.0418C42.4172 18.7906 42.2148 19.6405 42.25 20.4972C42.2482 21.8735 42.6661 23.2176 43.448 24.3503C43.3919 24.2872 43.5636 23.8213 43.525 23.7478Z" fill="white"/>
<path opacity="0.3" d="M30.3421 19.5003C29.5384 19.7643 28.779 20.1481 28.0898 20.6387C31.1933 19.707 35.9325 18.8874 39.5439 19.6475C39.6045 19.6618 39.6677 19.662 39.7284 19.648C39.7891 19.634 39.8459 19.6063 39.8941 19.5669C40.044 19.4156 40.1354 19.2161 40.152 19.0039C40.1687 18.7916 40.1096 18.5803 39.9852 18.4075C36.9238 18.2534 33.5822 18.453 30.3421 19.5003Z" fill="black"/>
<path opacity="0.1" d="M47.699 47.8172H36.7774C32.3755 47.8153 28.1546 46.0651 25.043 42.9516C21.9314 39.838 20.1839 35.616 20.1848 31.2141C20.1848 31.109 20.1848 31.0074 20.1848 30.9023C19.7485 33.1863 19.8219 35.5384 20.3998 37.7907C20.9776 40.043 22.0457 42.1399 23.5276 43.9317C25.0096 45.7235 26.8689 47.166 28.9728 48.1561C31.0767 49.1463 33.3733 49.6597 35.6985 49.6596H46.1052C48.3717 49.6603 50.6116 49.1722 52.6723 48.2286C54.7329 47.285 56.5659 45.9081 58.0461 44.1918C55.1105 46.5432 51.4602 47.8222 47.699 47.8172Z" fill="black"/>
<path d="M25.9125 52.2364C27.0721 52.487 28.2656 52.5415 29.4433 52.3976C29.8106 52.3577 30.1612 52.2231 30.4608 52.0069C30.7605 51.7908 30.9989 51.5006 31.1526 51.1646L32.6483 40.9611C31.8321 40.0994 29.1105 39.3393 26.7216 39.7526C25.3941 39.9838 23.4465 40.5337 23.5341 41.5986C23.6217 42.6634 23.7723 45.3045 24.1926 50.2224C24.3362 51.8792 24.7916 52.0018 25.9125 52.2364Z" fill="#407BFF"/>
<path d="M43.9324 52.3741C44.9894 52.5141 46.0614 52.4952 47.1129 52.3181C47.4303 52.2761 47.7319 52.1546 47.9898 51.9647C48.2476 51.7749 48.4532 51.5229 48.5875 51.2322L49.8695 43.9885C49.0989 43.3335 46.619 42.8606 44.4963 43.3195C43.3124 43.5752 41.589 44.1216 41.7221 44.9763C41.8552 45.831 42.251 49.9432 42.2931 50.8329C42.3631 52.1885 42.9166 52.255 43.9324 52.3741Z" fill="#407BFF"/>
</svg>
