<svg width="16" height="16" viewBox="0 0 16 16" fill="none" xmlns="http://www.w3.org/2000/svg">
<path fill-rule="evenodd" clip-rule="evenodd" d="M11.7039 8.20353H12.3733C12.7282 8.20449 13.0682 8.34584 13.3192 8.59671C13.5702 8.84758 13.7116 9.18757 13.7127 9.54243V14.1611C13.7116 14.516 13.5702 14.8559 13.3192 15.1068C13.0682 15.3577 12.7282 15.499 12.3733 15.5H4.3389C3.98414 15.4989 3.64422 15.3575 3.39336 15.1066C3.14251 14.8558 3.00109 14.5159 3 14.1611V9.54243C3.00109 9.18766 3.14251 8.84775 3.39336 8.59689C3.64422 8.34604 3.98414 8.20462 4.3389 8.20353H5.00938V4.78882C5.02484 3.91128 5.38429 3.07491 6.01034 2.45979C6.63638 1.84467 7.47896 1.5 8.35663 1.5C9.2343 1.5 10.0769 1.84467 10.7029 2.45979C11.329 3.07491 11.6884 3.91128 11.7039 4.78882C11.7039 4.90545 11.6093 5 11.4927 5H10.5762C10.4595 5 10.365 4.90545 10.365 4.78882C10.3693 4.52233 10.3205 4.25765 10.2215 4.0102C10.1224 3.76275 9.97516 3.53748 9.78822 3.34751C9.60128 3.15754 9.37841 3.00667 9.13258 2.90369C8.88675 2.8007 8.62289 2.74767 8.35637 2.74767C8.08984 2.74767 7.82598 2.8007 7.58016 2.90369C7.33433 3.00667 7.11146 3.15754 6.92452 3.34751C6.73758 3.53748 6.59031 3.76275 6.49129 4.0102C6.39227 4.25765 6.34348 4.52233 6.34776 4.78882V8.20353H10.365H10.5347H11.092H11.7039ZM7.82271 13.0021C8.03147 13.1136 8.26992 13.1568 8.50453 13.1258C8.75127 13.0928 8.98032 12.9796 9.15634 12.8035C9.33237 12.6275 9.44561 12.3985 9.4786 12.1517C9.50964 11.9171 9.46639 11.6787 9.35493 11.4699C9.24346 11.2611 9.06939 11.0925 8.85717 10.9878C8.64495 10.8831 8.40525 10.8474 8.17175 10.886C7.93824 10.9245 7.72268 11.0352 7.55533 11.2025C7.38799 11.3699 7.27729 11.5854 7.23877 11.8189C7.20026 12.0524 7.23587 12.2921 7.34061 12.5044C7.44534 12.7166 7.61394 12.8907 7.82271 13.0021Z" fill="#5BE2FF"/>
<path fill-rule="evenodd" clip-rule="evenodd" d="M11.7039 8.20353H12.3733C12.7282 8.20449 13.0682 8.34584 13.3192 8.59671C13.5702 8.84758 13.7116 9.18757 13.7127 9.54243V14.1611C13.7116 14.516 13.5702 14.8559 13.3192 15.1068C13.0682 15.3577 12.7282 15.499 12.3733 15.5H4.3389C3.98414 15.4989 3.64422 15.3575 3.39336 15.1066C3.14251 14.8558 3.00109 14.5159 3 14.1611V9.54243C3.00109 9.18766 3.14251 8.84775 3.39336 8.59689C3.64422 8.34604 3.98414 8.20462 4.3389 8.20353H5.00938V4.78882C5.02484 3.91128 5.38429 3.07491 6.01034 2.45979C6.63638 1.84467 7.47896 1.5 8.35663 1.5C9.2343 1.5 10.0769 1.84467 10.7029 2.45979C11.329 3.07491 11.6884 3.91128 11.7039 4.78882C11.7039 4.90545 11.6093 5 11.4927 5H10.5762C10.4595 5 10.365 4.90545 10.365 4.78882C10.3693 4.52233 10.3205 4.25765 10.2215 4.0102C10.1224 3.76275 9.97516 3.53748 9.78822 3.34751C9.60128 3.15754 9.37841 3.00667 9.13258 2.90369C8.88675 2.8007 8.62289 2.74767 8.35637 2.74767C8.08984 2.74767 7.82598 2.8007 7.58016 2.90369C7.33433 3.00667 7.11146 3.15754 6.92452 3.34751C6.73758 3.53748 6.59031 3.76275 6.49129 4.0102C6.39227 4.25765 6.34348 4.52233 6.34776 4.78882V8.20353H10.365H10.5347H11.092H11.7039ZM7.82271 13.0021C8.03147 13.1136 8.26992 13.1568 8.50453 13.1258C8.75127 13.0928 8.98032 12.9796 9.15634 12.8035C9.33237 12.6275 9.44561 12.3985 9.4786 12.1517C9.50964 11.9171 9.46639 11.6787 9.35493 11.4699C9.24346 11.2611 9.06939 11.0925 8.85717 10.9878C8.64495 10.8831 8.40525 10.8474 8.17175 10.886C7.93824 10.9245 7.72268 11.0352 7.55533 11.2025C7.38799 11.3699 7.27729 11.5854 7.23877 11.8189C7.20026 12.0524 7.23587 12.2921 7.34061 12.5044C7.44534 12.7166 7.61394 12.8907 7.82271 13.0021Z" fill="#E5007A"/>
</svg>
