<svg width="17" height="16" viewBox="0 0 17 16" fill="none" xmlns="http://www.w3.org/2000/svg">
<path d="M6.0513 9.55H7.0513V8.05C7.0513 7.78556 7.14075 7.56389 7.31964 7.385C7.49852 7.20611 7.72019 7.11667 7.98464 7.11667H9.33464V8.28333L11.0013 6.61667L9.33464 4.95V6.11667H7.98464C7.4476 6.11667 6.99112 6.30463 6.61519 6.68055C6.23926 7.05648 6.0513 7.51297 6.0513 8.05V9.55ZM1.66797 14C1.5263 14 1.40755 13.9518 1.31172 13.8554C1.21589 13.759 1.16797 13.6396 1.16797 13.4971C1.16797 13.3546 1.21589 13.2361 1.31172 13.1417C1.40755 13.0472 1.5263 13 1.66797 13H15.3346C15.4763 13 15.5951 13.0482 15.6909 13.1446C15.7867 13.241 15.8346 13.3604 15.8346 13.5029C15.8346 13.6454 15.7867 13.7639 15.6909 13.8583C15.5951 13.9528 15.4763 14 15.3346 14H1.66797ZM2.83464 12C2.56797 12 2.33464 11.9 2.13464 11.7C1.93464 11.5 1.83464 11.2667 1.83464 11V3C1.83464 2.73333 1.93464 2.5 2.13464 2.3C2.33464 2.1 2.56797 2 2.83464 2H14.168C14.4346 2 14.668 2.1 14.868 2.3C15.068 2.5 15.168 2.73333 15.168 3V11C15.168 11.2667 15.068 11.5 14.868 11.7C14.668 11.9 14.4346 12 14.168 12H2.83464ZM2.83464 11H14.168V3H2.83464V11Z" fill="#96A4B6"/>
</svg>
