<svg width="24" height="24" viewBox="0 0 24 24" fill="none" xmlns="http://www.w3.org/2000/svg">
<rect width="24" height="24" rx="6" fill="#E4E1F9"/>
<path d="M12.2007 2C12.2445 2.00663 12.2883 2.01694 12.332 2.01988C12.9055 2.04706 13.4705 2.16876 14.0038 2.38C14.3772 2.52283 14.7173 2.73985 15.0032 3.01775C15.131 3.14407 15.237 3.29036 15.3171 3.45078C15.4052 3.61937 15.4512 3.80653 15.4512 3.99647C15.4512 4.18641 15.4052 4.37357 15.3171 4.54217C15.1935 4.78191 15.0179 4.99143 14.8029 5.15562C14.4364 5.43679 14.0179 5.64395 13.5712 5.76539C13.1971 5.87395 12.8122 5.94161 12.4233 5.96717C11.7367 6.01907 11.0464 5.94416 10.3873 5.74624C9.93858 5.62133 9.52041 5.40654 9.15854 5.11512C8.95157 4.95075 8.7851 4.74171 8.67179 4.50388C8.59463 4.34164 8.55567 4.16411 8.55786 3.98472C8.56004 3.80533 8.60332 3.62879 8.68441 3.46845C8.80749 3.22423 8.98513 3.01114 9.2038 2.84543C9.5173 2.60009 9.87197 2.41162 10.2515 2.28868C10.7211 2.13261 11.2103 2.0419 11.7051 2.01915C11.7435 2.01498 11.7816 2.00859 11.8193 2H12.2007Z" fill="#FB007B"/>
<path d="M3.00816 13.8647C3.00373 13.5647 3.05582 13.2664 3.16175 12.9854C3.21751 12.8406 3.29588 12.7054 3.394 12.5848C3.6908 12.232 4.07441 12.1009 4.52479 12.1429C5.00486 12.1908 5.41519 12.4043 5.79954 12.6834C6.27326 13.0376 6.67956 13.4728 6.99934 13.9685C7.36899 14.5178 7.63639 15.1284 7.78882 15.7713C7.87567 16.1276 7.90892 16.4946 7.88751 16.8605C7.87498 17.1198 7.81462 17.3747 7.70943 17.6124C7.54174 17.9806 7.27833 18.2391 6.8784 18.3488C6.61156 18.4128 6.33236 18.4049 6.06962 18.326C5.6995 18.2203 5.35405 18.0431 5.05309 17.8046C4.54736 17.4136 4.11958 16.9323 3.79171 16.3855C3.48175 15.8888 3.25404 15.3461 3.11723 14.7779C3.04534 14.4787 3.00873 14.1722 3.00816 13.8647Z" fill="#FB007B"/>
<path d="M3 9.1169C3.0161 8.60669 3.11948 8.10291 3.3057 7.62709C3.60279 6.82208 4.08205 6.09548 4.70658 5.50322C5.00178 5.21797 5.34443 4.98552 5.7194 4.81612C5.97785 4.69466 6.26003 4.63105 6.54598 4.62981C6.76189 4.62575 6.97493 4.6794 7.16278 4.78512C7.35062 4.89085 7.50637 5.04476 7.61371 5.23074C7.75528 5.46689 7.84245 5.7312 7.86896 6.00473C7.94316 6.6086 7.83631 7.19186 7.63597 7.75965C7.32777 8.66052 6.79116 9.46751 6.07779 10.103C5.75132 10.4038 5.36515 10.6335 4.94402 10.7776C4.672 10.8757 4.37874 10.9011 4.0937 10.8512C3.937 10.8211 3.78803 10.7599 3.65569 10.6713C3.52336 10.5827 3.41038 10.4686 3.32351 10.3357C3.16765 10.1006 3.06978 9.83246 3.03784 9.55287C3.01781 9.40853 3.01187 9.26271 3 9.1169Z" fill="#FB007B"/>
<path d="M21 13.833C20.994 14.3706 20.8896 14.9026 20.6921 15.4031C20.3945 16.1988 19.9182 16.9169 19.2994 17.5027C18.9715 17.8234 18.5825 18.076 18.1552 18.2457C17.9266 18.3381 17.6816 18.3839 17.4347 18.3805C17.2371 18.3806 17.0426 18.3322 16.8684 18.2397C16.6941 18.1472 16.5456 18.0134 16.436 17.8503C16.2807 17.6191 16.1812 17.3555 16.1451 17.08C16.0756 16.5709 16.1189 16.0529 16.272 15.5622C16.5571 14.5368 17.1333 13.6145 17.9319 12.9051C18.2588 12.606 18.6453 12.3783 19.0664 12.2364C19.333 12.1405 19.6201 12.1151 19.8996 12.1628C20.0847 12.1973 20.2592 12.274 20.4093 12.387C20.5593 12.5 20.6808 12.6461 20.764 12.8138C20.8845 13.0443 20.9581 13.296 20.9807 13.5547C20.9918 13.6629 20.9963 13.7726 21 13.833Z" fill="#FB007B"/>
<path d="M20.9993 9.25829C20.9957 9.52759 20.9405 9.79375 20.8368 10.0426C20.7877 10.1607 20.7252 10.2729 20.6505 10.3769C20.3634 10.7643 19.9664 10.9101 19.493 10.8681C19.119 10.8255 18.7606 10.695 18.4475 10.4874C18.0157 10.215 17.6344 9.87067 17.3205 9.46965C16.796 8.82617 16.4215 8.07547 16.2238 7.2714C16.1436 6.95363 16.1057 6.62683 16.111 6.2993C16.1111 5.99787 16.1717 5.69947 16.2891 5.42147C16.4538 5.05326 16.7157 4.78372 17.1179 4.67473C17.3632 4.61213 17.6205 4.61213 17.8658 4.67473C18.1607 4.74658 18.4408 4.8684 18.6939 5.03484C19.1467 5.32895 19.5434 5.70047 19.8655 6.13213C20.3608 6.76741 20.7126 7.50106 20.8969 8.28326C20.969 8.60322 21.0034 8.93044 20.9993 9.25829Z" fill="#FB007B"/>
<path d="M12.1302 21C11.3289 21 10.6752 20.8962 10.0482 20.6502C9.65582 20.5054 9.29895 20.2795 9.00124 19.9874C8.87532 19.8633 8.77079 19.7195 8.69183 19.5617C8.6018 19.389 8.55575 19.197 8.55769 19.0025C8.55963 18.808 8.6095 18.617 8.70296 18.446C8.83804 18.1956 9.02886 17.979 9.26093 17.8127C9.61459 17.5549 10.0126 17.3633 10.4355 17.2471C10.8066 17.139 11.1886 17.0716 11.5745 17.0461C12.2491 16.9925 12.9279 17.0609 13.5778 17.2479C13.9864 17.3605 14.3717 17.5437 14.7161 17.7891C14.9243 17.9362 15.1026 18.1211 15.2414 18.3341C15.3814 18.5442 15.4544 18.7914 15.4506 19.0433C15.4419 19.2859 15.3634 19.521 15.2243 19.7208C15.054 19.9693 14.8328 20.1794 14.5751 20.3372C14.168 20.5915 13.7185 20.7715 13.2477 20.8689C12.881 20.9521 12.5064 20.9961 12.1302 21Z" fill="#FB007B"/>
</svg>
