<svg width="16" height="16" viewBox="0 0 16 16" fill="none" xmlns="http://www.w3.org/2000/svg">
<path d="M7.99997 3.20838C9.52265 3.20838 10.757 2.49016 10.757 1.60419C10.757 0.71822 9.52265 0 7.99997 0C6.47729 0 5.24292 0.71822 5.24292 1.60419C5.24292 2.49016 6.47729 3.20838 7.99997 3.20838Z" fill="#E6007A"/>
<path d="M7.99997 15.2924C9.52265 15.2924 10.757 14.5741 10.757 13.6882C10.757 12.8022 9.52265 12.084 7.99997 12.084C6.47729 12.084 5.24292 12.8022 5.24292 13.6882C5.24292 14.5741 6.47729 15.2924 7.99997 15.2924Z" fill="#E6007A"/>
<path d="M4.15706 5.42647C4.9184 4.1078 4.91359 2.67969 4.14632 2.2367C3.37905 1.79372 2.13986 2.50361 1.37853 3.82228C0.617187 5.14096 0.621997 6.56907 1.38927 7.01206C2.15654 7.45504 3.39572 6.74515 4.15706 5.42647Z" fill="#E6007A"/>
<path d="M14.6214 11.4685C15.3828 10.1498 15.3779 8.72168 14.6107 8.27869C13.8434 7.83571 12.6042 8.5456 11.8429 9.86428C11.0815 11.183 11.0864 12.6111 11.8536 13.054C12.6209 13.497 13.8601 12.7871 14.6214 11.4685Z" fill="#E6007A"/>
<path d="M4.14632 13.0543C4.91359 12.6113 4.9184 11.1832 4.15706 9.86454C3.39572 8.54587 2.15654 7.83598 1.38927 8.27896C0.621996 8.72195 0.617187 10.1501 1.37853 11.4687C2.13986 12.7874 3.37905 13.4973 4.14632 13.0543Z" fill="#E6007A"/>
<path d="M14.6107 7.0133C15.3779 6.57031 15.3828 5.14221 14.6214 3.82353C13.8601 2.50485 12.6209 1.79496 11.8536 2.23795C11.0864 2.68093 11.0815 4.10904 11.8429 5.42772C12.6042 6.74639 13.8434 7.45628 14.6107 7.0133Z" fill="#E6007A"/>
</svg>
