<svg width="24" height="26" viewBox="0 0 24 26" fill="none" xmlns="http://www.w3.org/2000/svg">
<path d="M13.66 8.95733C12.2005 8.95733 10.8544 8.95733 9.5158 8.95733C9.14524 8.95733 8.78224 8.98791 8.4268 9.11021C7.51931 9.42362 6.98238 10.1422 6.92944 11.1206C6.88407 12.0149 7.39831 12.8405 8.24531 13.2151C8.65368 13.3985 9.0923 13.4826 9.53848 13.4826C10.9602 13.4826 12.3744 13.4826 13.7961 13.4826C14.5599 13.4826 14.9683 13.8037 15.1044 14.4381C15.2481 15.1261 14.8927 15.6841 14.2121 15.8523C13.8037 15.9516 13.3878 15.9287 12.9794 15.9287C11.603 15.9211 10.2342 15.9593 8.85786 15.8828C6.76307 15.7605 4.92539 14.01 4.62289 11.9079C4.25233 9.3854 6.01438 6.51888 9.3343 6.51888C11.3005 6.51888 13.2668 6.51888 15.233 6.51888C15.4826 6.51888 15.7321 6.51888 15.9893 6.51888C16.5489 6.49595 16.7304 6.32014 16.7304 5.75448C16.7304 4.90599 16.7228 4.0575 16.7228 3.20137C16.7228 2.62806 16.7606 2.59749 17.3278 2.58984C17.774 2.58984 18.2126 2.58984 18.6588 2.58984C18.931 2.58984 19.0596 2.7045 19.0596 2.99498C19.0596 4.82955 19.0596 6.66412 19.0596 8.49869C19.0596 8.81974 18.8857 8.88089 18.6134 8.90382C16.927 9.04142 15.2481 8.91147 13.6751 8.97262L13.66 8.95733Z" fill="white"/>
<path d="M9.60667 16.8286C11.0251 16.8286 12.436 16.8286 13.8544 16.8286C14.2091 16.8286 14.5637 16.7904 14.9107 16.7216C16.0726 16.4923 16.7441 15.5904 16.6989 14.3674C16.6536 13.3355 15.8161 12.4718 14.6919 12.3265C14.2392 12.2654 13.7865 12.2348 13.3263 12.2348C12.1342 12.2425 10.9346 12.2425 9.74248 12.2348C8.9729 12.2272 8.56547 11.8144 8.55793 11.0959C8.55038 10.3545 8.96535 9.87293 9.71984 9.86529C11.4476 9.84236 13.1754 9.79649 14.8956 9.88057C17.0535 9.98759 18.9548 12.0055 19.0529 14.1763C19.1736 16.6758 17.6571 18.7166 15.371 19.137C15.0616 19.1905 14.7598 19.2134 14.4505 19.2211C12.3304 19.2899 10.2027 19.2746 8.0826 19.2211C7.11685 19.1982 6.8905 19.4198 6.92823 20.3906C6.95841 21.1473 6.92823 21.9116 6.92823 22.6684C6.92823 23.0276 6.8226 23.1881 6.4529 23.1728C5.97003 23.1499 5.47961 23.1576 4.98919 23.1728C4.71757 23.1728 4.57422 23.0735 4.57422 22.783C4.57422 20.9333 4.57422 19.0835 4.57422 17.2337C4.57422 16.8592 4.8232 16.8516 5.08727 16.8516C6.58871 16.8516 8.09769 16.8516 9.59912 16.8516C9.59912 16.8516 9.59912 16.8516 9.59912 16.8439L9.60667 16.8286Z" fill="white"/>
</svg>
