<svg width="192" height="200" viewBox="0 0 192 200" fill="none" xmlns="http://www.w3.org/2000/svg">
<path d="M146.732 14.6063C146.96 13.1755 147.851 14.1914 148.159 14.351C149.708 15.1489 151.199 16.0744 152.669 17.0318C157.322 20.0691 161.72 23.4361 165.827 27.2765C171.599 32.6701 176.289 38.9148 180.247 45.8191C180.486 46.2393 181.218 46.7552 180.465 47.3935C177.929 47.2872 175.393 47.1648 172.851 47.0957C172.48 47.085 171.758 46.7074 171.843 47.6755C170.851 47.6223 169.822 47.9521 168.867 47.3989C169.689 45.117 169.663 42.7074 169.334 40.3989C168.946 37.6808 167.583 35.3616 165.445 33.6435C162.012 30.8829 158.24 30.2287 154.054 31.4308C151.045 32.2978 147.125 36.7765 146.705 39.9787C146.366 42.585 146.058 45.1542 147.072 47.6755C144.578 47.6861 142.09 47.6967 139.596 47.7074C139.532 47.5478 139.463 47.4095 139.262 47.4574C136.333 47.4574 133.404 47.4467 130.476 47.4414C119.865 47.4201 109.254 47.4042 98.6371 47.3882C98.3559 47.3882 98.0217 47.3084 97.9209 47.734C96.3292 48.1276 94.7057 48.1542 93.0875 48.1435C87.3416 48.1116 81.5957 48.0744 75.8445 48.0425C75.9718 47.7659 75.8657 47.6276 75.5951 47.5957C75.4943 47.3138 75.2927 47.4095 75.1017 47.4467C74.8311 47.3829 74.5658 47.3404 74.4544 47.7074C72.3693 47.7021 70.2896 47.6967 68.2045 47.6861C70.0137 43.3084 71.1809 38.8723 70.6769 33.9733C70.1569 28.9361 68.6236 24.3829 65.4562 20.6382C59.7686 13.9148 52.6539 10.9201 43.9581 12.0691C34.5566 13.3138 27.0758 20.8404 24.7095 29.9414C23.6962 33.8457 23.4786 37.7659 24.4496 41.6595C26.0996 48.2978 29.5853 53.585 35.2517 57.2499C36.0899 57.7925 37.22 57.9308 37.7877 58.9255C37.7241 59.484 37.671 60.0425 37.5914 60.5957C37.2519 62.968 36.907 65.335 36.5621 67.7074C36.0846 67.585 36.0634 67.8882 35.9361 68.2818C35.4745 69.7021 35.4639 71.1967 35.2145 72.6489C34.5938 76.2765 33.9094 79.8989 33.2939 83.5265C32.6201 87.5159 31.9941 91.5159 31.3415 95.5106C30.6995 99.4414 30.0628 103.372 29.4156 107.303C28.8532 110.697 28.2589 114.08 27.6966 117.473C27.1607 120.718 26.6461 123.973 26.1155 127.223C25.5743 130.574 25.0119 133.92 24.4867 137.271C23.9349 140.814 23.1126 144.314 22.8526 147.91C22.7889 148.468 22.7465 149.027 22.6616 149.58C22.2159 152.532 21.5209 155.548 24.6459 157.527C21.0593 157.548 17.4781 157.574 13.8915 157.596C12.2733 155.032 11.4138 152.106 10.4057 149.282C8.74511 144.633 7.54605 139.824 6.49555 134.989C5.26466 129.314 4.26722 123.59 3.57219 117.814C3.16897 114.447 2.47925 111.112 2.18214 107.739C1.86911 104.149 1.48711 100.558 1.13164 96.9733C0.41008 89.7233 0.367636 82.4627 0.622302 75.218C0.961858 65.6382 2.55352 56.2552 5.88541 47.2446C8.31536 40.6701 11.4722 34.5691 15.5521 28.9467C20.4492 22.2074 26.4657 16.8616 33.3894 12.5744C40.8384 7.9627 48.9347 5.04248 57.3122 3.05844C62.2941 1.87759 67.3768 1.18078 72.486 0.638228C79.9722 -0.159644 87.453 -0.0160275 94.9285 0.132909C99.5391 0.228653 104.144 0.914824 108.734 1.58504C117.175 2.8244 125.414 4.84567 133.468 7.72865C135.108 8.31376 136.736 8.94674 138.333 9.64355C138.726 9.81376 139.723 9.94674 138.943 10.8723C137.856 10.9042 136.742 10.7925 135.686 10.9946C130.598 11.9627 126.263 17.6755 126.645 23.1861C126.932 27.3031 128.709 30.4521 131.786 32.6755C135.813 35.585 140.042 35.2606 144.254 32.7659C147.21 31.0159 148.923 28.1542 149.422 24.9999C149.995 21.351 149.231 17.617 146.7 14.6223L146.732 14.6063ZM27.7125 56.7712C27.67 55.8297 26.8583 55.4201 26.0094 55.8297C24.8475 56.3935 24.1896 56.0797 24.0676 54.8457C24.0145 54.2978 23.9986 53.7818 23.3778 53.6489C22.7995 53.5265 22.5449 53.9361 22.1894 54.3404C21.6111 54.9999 20.863 55.734 20.2635 54.2659C20.0141 53.6489 19.5154 53.5212 18.8999 53.6382C18.1996 53.7712 18.0511 54.2393 18.0829 54.8829C18.1572 56.4042 17.4303 56.468 16.4329 55.7978C15.897 55.4414 15.5468 55.5372 15.1383 55.968C14.7245 56.4095 14.7298 56.8191 14.9844 57.367C15.6105 58.718 15.3983 59.1861 14.056 59.218C13.2761 59.234 13.0426 59.6382 12.8092 60.2499C12.528 60.9893 13.0851 61.101 13.4883 61.3723C14.4327 62.0106 14.4963 62.8244 13.6687 63.4042C13.2707 63.6808 12.5067 63.6063 12.8145 64.5265C13.0638 65.2659 13.4299 65.5691 14.2204 65.5372C15.2762 65.4999 15.6582 66.1276 15.2126 67.1542C14.9685 67.718 14.5494 68.1755 15.1542 68.8084C15.7272 69.4042 16.1835 69.1382 16.7459 68.851C17.6744 68.3723 18.2739 68.6489 18.3641 69.8031C18.4065 70.3404 18.2049 70.9627 19.0273 71.1276C19.7541 71.2765 20.0831 70.9467 20.4386 70.3457C21.0593 69.2925 21.6801 69.3297 22.3114 70.3404C22.5767 70.7659 22.5873 71.4308 23.4468 71.1808C24.1949 70.9627 24.3753 70.5744 24.3594 69.8616C24.3275 68.5425 25.0013 68.3404 25.9935 68.8457C26.5134 69.1116 26.9166 69.3297 27.4366 68.7712C27.9141 68.2552 27.8982 67.8563 27.5851 67.2765C26.9697 66.1435 27.2721 65.4733 28.5879 65.5052C29.145 65.5159 29.5535 65.3882 29.6861 64.7393C29.8135 64.1063 29.6967 63.6967 29.0972 63.3404C27.9406 62.6595 27.93 62.1595 28.9752 61.3616C29.4421 61.0052 29.8453 60.6967 29.6808 59.9893C29.5057 59.218 28.9646 59.2712 28.4075 59.2499C27.288 59.2127 27.0864 58.5478 27.4154 57.5638C27.5109 57.2712 27.6276 56.9893 27.7072 56.7765L27.7125 56.7712ZM97.4911 20.367C97.4911 20.367 97.4699 20.367 97.4593 20.367C97.5654 21.4893 97.5654 22.6329 97.7989 23.7233C98.0482 24.8882 98.9449 25.6595 100.038 25.4733C101.062 25.2978 102.149 25.5052 103.067 25.1595C105.184 24.3723 106.373 25.2287 107.365 27.0957C107.657 27.6489 107.837 28.7446 108.612 28.5957C109.291 28.468 109.254 27.4521 109.45 26.7818C109.858 25.3829 110.219 24.0691 112.145 24.1808C112.776 24.218 113.583 24.0691 114.294 23.9308C115.811 23.6329 117.774 23.9946 118.294 21.8989C118.676 20.3723 118.215 18.7021 118.13 17.1276C118.045 15.5904 117.477 14.0425 117.615 12.4148C117.843 9.64887 116.432 7.85099 114.289 8.4095C113.042 8.73397 111.79 8.6595 110.543 8.9095C106.659 9.6861 102.669 9.55844 98.7539 10.2021C97.0136 10.4893 96.3664 11.4148 96.6475 13.234C97.0083 15.5957 97.2206 17.984 97.4964 20.3616L97.4911 20.367ZM10.0397 99.5265C9.89111 100.872 10.6339 101.356 11.7481 101.372C12.8569 101.388 13.9499 100.324 13.9552 99.3297C13.9605 98.0904 13.1328 97.3031 11.8436 97.3297C10.6127 97.351 10.0237 98.0691 10.0397 99.5265ZM75.4147 19.2765C75.5367 18.2606 75.038 17.9999 74.1891 18.0159C73.319 18.0318 72.7142 18.3723 72.7248 19.3138C72.7407 20.2712 73.3774 20.5584 74.2422 20.5584C75.1388 20.5584 75.5314 20.1808 75.4147 19.2765ZM87.4583 7.72865C86.88 7.93078 85.8083 7.41482 85.8242 8.25525C85.8401 8.99461 86.8959 8.56908 87.4742 8.5744C87.9836 8.57972 88.9227 8.91482 88.8855 8.05844C88.859 7.44674 87.9464 7.90419 87.4583 7.72865ZM15.5787 73.3723C15.5787 73.3723 15.5521 73.1701 15.3452 73.0797C15.0428 72.9467 14.8783 73.1755 14.7934 73.4201C14.5282 74.1914 14.2894 74.9733 14.0401 75.7499C13.9711 75.9733 14.0294 76.1808 14.2204 76.2712C14.5229 76.4148 14.6661 76.1861 14.751 75.9308C15.0057 75.1542 15.255 74.3776 15.5734 73.3723H15.5787ZM67.4405 11.5531C67.154 10.9095 66.6924 11.2552 66.3369 11.4201C65.626 11.7393 64.1935 11.5159 64.3792 12.468C64.5171 13.1648 65.7056 12.2233 66.443 12.1223C66.8144 12.0744 67.2548 12.0691 67.4458 11.5584L67.4405 11.5531ZM13.3079 111.745C13.2177 110.452 13.4724 109.404 13.0479 108.372C13.0267 108.319 12.6818 108.319 12.6659 108.362C12.3157 109.42 12.3476 110.468 12.8463 111.473C12.8622 111.511 12.9259 111.521 13.3079 111.739V111.745ZM14.3637 123.005C14.6767 121.856 14.4008 120.755 13.9923 119.675C13.9817 119.644 13.6368 119.675 13.6209 119.729C13.3662 120.713 13.6793 121.649 13.8862 122.59C13.9286 122.782 13.9711 123.005 14.3637 123.005ZM14.5282 124.973C14.3531 126.308 14.6024 127.308 14.942 128.292C14.9738 128.394 15.1807 128.489 15.2975 128.473C15.3983 128.463 15.584 128.266 15.5681 128.207C15.2603 127.229 15.5574 126.058 14.5282 124.973ZM70.0879 11.0691C70.8944 10.7021 71.86 10.8776 72.5869 10.2606C72.6452 10.2127 72.5869 9.88291 72.5497 9.87227C71.6531 9.70738 70.836 10.1382 69.9818 10.2925C69.7378 10.335 69.4725 10.4308 69.5202 10.7712C69.568 11.1116 69.828 11.1116 70.0879 11.0691ZM78.1842 8.94674C77.017 8.4627 76.1469 9.02121 75.2502 9.09035C75.1123 9.10099 74.8948 9.34035 74.8895 9.47865C74.8789 9.79248 75.16 9.94674 75.3988 9.85099C76.2371 9.51057 77.261 9.82972 78.1842 8.94674ZM12.5757 81.0106C12.4855 81.3723 12.5333 81.5797 12.7455 81.6595C13.0585 81.7765 13.2018 81.5531 13.2761 81.2872C13.4671 80.5904 13.6474 79.8882 13.8278 79.1861C13.8809 78.9733 13.8544 78.7606 13.6368 78.6648C13.414 78.5638 13.223 78.7074 13.1646 78.9042C12.9365 79.6435 12.7455 80.3935 12.581 81.0052L12.5757 81.0106ZM83.6383 8.20738C82.243 7.91482 81.2402 8.12227 80.317 8.78716C81.3622 8.86695 82.4552 9.35099 83.6383 8.20738ZM13.1806 117.16C13.3132 117.16 13.4458 117.149 13.5785 117.144C13.5785 116.292 13.5891 115.441 13.5732 114.585C13.5679 114.282 13.5254 113.91 13.101 113.984C12.7932 114.037 12.7932 114.351 12.8251 114.606C12.9312 115.457 13.0585 116.303 13.1806 117.154V117.16ZM94.3555 8.3244C93.3846 8.00525 92.419 7.98929 91.4534 8.26589C92.4137 8.77653 93.3793 8.76589 94.3555 8.3244Z" fill="#CEDCFC"/>
<path d="M187.919 68.9254C188.657 68.2552 188.832 68.8722 188.938 69.452C189.362 71.7286 189.707 74.0212 190.163 76.2871C190.981 80.319 191.087 84.4307 191.299 88.5105C191.5 92.4307 191.686 96.3882 191.118 100.33C190.858 102.159 190.98 104.037 190.837 105.899C190.461 110.739 189.766 115.516 188.938 120.282C187.781 126.952 186.152 133.5 184.073 139.915C181.144 148.931 177.297 157.489 172.225 165.431C168.427 171.383 163.943 176.723 158.845 181.42C152.6 187.17 145.533 191.59 137.644 194.59C132.879 196.404 128.014 197.75 123.048 198.553C119.313 199.159 115.504 199.399 111.715 199.691C107.487 200.016 103.285 199.792 99.0724 199.909C98.5895 199.925 97.6399 200.367 97.7831 199.112C100.988 199.245 104.134 198.516 107.328 198.473C108.097 198.463 108.484 197.846 108.835 197.197C109.434 196.09 108.861 195.005 108.797 193.936C108.453 188.335 107.588 182.798 106.872 177.239C106.696 175.883 106.123 174.505 106.479 173.154C107.063 170.915 107.434 168.665 107.439 166.351C111.673 166.351 115.907 166.351 120.141 166.346C120.188 166.521 120.257 166.665 120.47 166.622C120.613 166.654 120.761 166.713 120.905 166.713C135.707 166.702 150.51 166.691 165.312 166.681C166.299 166.681 167.127 166.25 167.838 165.617C169.817 163.862 169.7 160.691 167.604 158.255C170.644 158.202 173.722 154.782 173.902 152.537C174.019 151.048 174.417 149.612 174.613 148.133C175.101 144.436 175.971 140.798 176.544 137.112C177.027 134.005 177.234 130.75 178.003 127.808C178.879 124.468 178.963 121.058 179.69 117.729C180.64 113.415 181.308 108.979 181.977 104.574C182.645 100.197 183.362 95.8244 184.12 91.468C185.219 85.1808 186.2 78.8722 187.346 72.5956C187.569 71.3776 187.935 70.1808 187.914 68.9201L187.919 68.9254ZM155.242 175.899C154.595 175.828 154.163 175.883 153.948 176.064C147.926 181.154 141.183 184.878 133.898 187.542C127.319 189.947 120.565 191.489 113.599 191.941C113.302 191.963 112.771 191.771 112.771 192.292C112.771 192.771 113.217 192.904 113.652 192.878C113.949 192.862 114.257 192.909 114.543 192.846C117.759 192.149 121.021 191.803 124.242 191.09C127.611 190.346 130.959 189.505 134.163 188.287C138.243 186.734 142.276 184.979 146.042 182.617C149.231 180.617 152.282 178.463 155.237 175.899H155.242ZM119.78 187.521C120.815 187.234 122.056 187.159 123.197 186.856C127.388 185.745 131.633 184.803 135.691 183.175C138.891 181.894 141.973 180.372 144.912 178.532C145.22 178.34 145.655 178.144 145.485 177.787C145.188 177.175 144.78 177.776 144.514 177.92C143.475 178.463 142.514 179.17 141.469 179.691C134.492 183.159 127.218 185.606 119.531 186.628C119.239 186.665 118.703 186.436 118.729 186.995C118.756 187.457 119.186 187.617 119.775 187.526L119.78 187.521Z" fill="#CEDCFC"/>
<path d="M107.44 166.351C107.44 168.67 107.063 170.914 106.479 173.154C106.124 174.505 106.697 175.883 106.872 177.239C107.588 182.797 108.453 188.335 108.798 193.936C108.861 195.01 109.434 196.09 108.835 197.196C108.485 197.851 108.097 198.468 107.328 198.473C104.134 198.516 100.988 199.244 97.7835 199.111C97.4545 199.212 97.1256 199.414 96.7966 199.409C92.9342 199.313 89.0877 200.053 85.2305 199.718C79.0549 199.186 72.858 198.962 66.7407 197.67C63.7536 197.037 60.8144 196.26 57.8804 195.436C57.4029 195.303 56.9148 195.191 56.5911 194.739C56.6018 194.324 56.5381 193.888 56.6336 193.494C57.5302 189.781 58.4693 186.079 59.3553 182.367C59.7108 180.883 60.7825 179.372 59.3129 177.883C59.2068 177.776 59.2758 177.484 59.2651 177.276C59.2068 175.579 59.419 173.936 59.8488 172.276C60.3528 170.335 60.9947 168.404 61.016 166.351C61.0584 165.649 61.3343 165.042 61.7057 164.468C61.8755 164.468 62.0399 164.473 62.2097 164.478C61.4722 168.01 60.756 171.547 59.992 175.069C59.6153 176.808 60.1406 178.531 61.3502 179.111C63.4353 180.111 65.6424 180.776 67.8654 181.297C73.9032 182.718 80.0311 183.127 86.2067 182.851C90.8862 182.643 95.3588 181.659 99.6616 179.579C104.787 177.106 107.397 171.441 106.495 165.473C106.426 165.01 105.965 164.095 107.063 164.005C106.893 164.84 107.307 165.569 107.445 166.345L107.44 166.351Z" fill="black"/>
<path d="M61.0211 166.346C60.9999 168.399 60.3579 170.335 59.8539 172.272C59.4241 173.931 59.2119 175.575 59.2703 177.272C59.2756 177.479 59.2119 177.772 59.318 177.878C60.7877 179.367 59.716 180.878 59.3605 182.362C58.4691 186.075 57.5301 189.777 56.6387 193.49C56.5432 193.883 56.6069 194.319 56.5963 194.734C55.3336 195.335 54.2406 194.506 53.1795 194.112C46.6271 191.681 40.4462 188.468 34.7745 184.229C29.8881 180.575 25.4898 176.399 21.8767 171.351C21.1393 170.319 20.3487 169.325 19.6166 168.288C19.346 167.91 18.8526 167.538 19.2876 166.952C19.3354 166.697 19.5158 166.676 19.7227 166.676C23.7549 166.697 27.7871 166.708 31.8193 166.729C32.9229 168.58 32.7637 169.405 30.8431 170.341C29.3629 171.059 30.2489 172.08 30.3656 172.984C30.4823 173.942 31.1561 173.883 31.8459 173.66C32.7266 173.373 33.4216 173.458 34.0211 174.373C34.6472 175.33 34.3395 176.016 33.7399 176.718C33.0184 177.569 33.0821 178.208 33.9097 179.038C34.7162 179.846 35.321 180.266 36.1805 179.224C36.3291 179.043 36.6262 178.995 36.8278 178.846C37.5706 178.288 38.1383 178.846 38.7325 179.16C39.4169 179.522 39.3373 180.171 39.21 180.793C39.0455 181.591 38.5892 182.516 39.7671 182.825C40.807 183.096 42.0007 183.665 42.4941 181.878C42.7063 181.117 43.0194 180.33 44.107 180.362C45.1204 180.394 45.4811 181.069 45.8101 181.835C46.208 182.75 46.5635 183.346 47.805 183.038C49.0836 182.724 49.2163 182.027 49.1579 180.936C49.1154 180.139 48.9669 179.346 49.9378 178.819C50.9087 178.293 51.5613 178.803 52.2616 179.234C52.8665 179.607 53.3228 180.436 54.0868 179.42C54.6969 178.607 55.5511 177.968 54.6173 176.772C53.9647 175.936 53.6676 174.963 54.4528 173.952C55.0895 173.133 55.9384 173.527 56.6706 173.543C57.7688 173.564 57.9068 172.889 58.1508 172.022C58.4161 171.096 58.2675 170.623 57.4293 170.176C55.3813 169.085 55.3707 168.968 56.0021 166.724C56.3841 166.5 56.9624 166.958 57.2276 166.33C58.4904 166.33 59.7584 166.33 61.0211 166.335V166.346Z" fill="#CEDCFC"/>
<path d="M187.92 68.9253C187.941 70.1859 187.575 71.3774 187.352 72.6008C186.206 78.8774 185.23 85.1859 184.126 91.4731C183.362 95.8295 182.646 100.202 181.983 104.58C181.314 108.984 180.646 113.42 179.696 117.734C178.964 121.064 178.879 124.473 178.009 127.814C177.239 130.755 177.033 134.01 176.55 137.117C175.977 140.803 175.107 144.441 174.619 148.138C174.422 149.617 174.024 151.053 173.908 152.542C173.727 154.782 170.65 158.202 167.61 158.255C167.154 158.314 166.777 158.111 166.427 157.845C166.522 157.51 166.819 157.42 167.069 157.266C168.936 156.133 170.353 154.686 170.809 152.314C171.069 150.957 170.942 149.532 171.515 148.239C172.518 148.111 172.289 147.191 172.38 146.59C172.724 144.367 173.16 142.159 173.441 139.92C173.87 136.542 174.55 133.197 175.123 129.84C175.982 124.824 176.704 119.776 177.579 114.766C178.592 108.952 179.489 103.117 180.481 97.2976C181.25 92.7816 181.999 88.2604 182.778 83.7497C183.617 78.888 184.365 74.005 185.214 69.1433C186.041 64.4306 186.673 59.6699 187.601 54.9731C188.339 51.2444 187.697 49.3295 184.933 47.6965C184.731 46.7018 185.474 46.9146 185.925 46.9146C187.861 46.9306 190.408 48.8242 191.135 50.7284C191.257 51.0423 191.156 51.3242 191.135 51.6327C190.901 55.5476 190.074 59.3561 189.299 63.1699C188.938 64.9465 189.241 66.8561 188.291 68.505C188.201 68.6646 188.042 68.7816 187.909 68.9199L187.92 68.9253Z" fill="#407BFF"/>
<path d="M184.937 47.6963C187.696 49.3293 188.338 51.2388 187.606 54.9729C186.678 59.6697 186.046 64.425 185.218 69.1431C184.37 74.0048 183.622 78.8878 182.783 83.7495C182.003 88.2654 181.261 92.7814 180.486 97.2973C179.494 103.116 178.597 108.952 177.584 114.765C176.708 119.776 175.987 124.824 175.127 129.84C174.554 133.196 173.87 136.542 173.445 139.92C173.164 142.159 172.729 144.366 172.384 146.59C172.294 147.186 172.522 148.106 171.52 148.239C171.711 146.781 171.875 145.324 172.103 143.872C172.666 140.287 173.244 136.702 173.838 133.122C174.225 130.803 174.724 128.478 175 126.164C175.355 123.196 176.024 120.292 176.39 117.324C176.804 113.994 177.515 110.68 178.077 107.356C178.719 103.526 179.526 99.7229 180.099 95.8771C180.576 92.675 181.08 89.4782 181.632 86.2867C182.131 83.3984 182.555 80.4995 183.033 77.6059C183.452 75.0686 183.908 72.542 184.322 70.0048C184.974 66.0154 185.643 62.0314 186.232 58.0314C186.54 55.925 187.208 53.8718 187.033 51.691C186.906 50.1059 185.707 48.3559 184.327 48.3771C181.361 48.425 178.443 47.6644 175.462 47.9622C174.284 48.0793 173 48.3665 171.843 47.6697C171.758 46.6963 172.48 47.0793 172.851 47.0899C175.387 47.159 177.929 47.2814 180.465 47.3878C181.966 47.3665 183.494 46.8878 184.943 47.7016L184.937 47.6963Z" fill="#0C0D10"/>
<path d="M146.732 14.6061C149.263 17.6008 150.027 21.3349 149.454 24.9838C148.96 28.138 147.241 30.9997 144.286 32.7497C140.073 35.2444 135.845 35.5689 131.818 32.6593C128.741 30.4359 126.963 27.2923 126.677 23.17C126.295 17.6646 130.629 11.9466 135.717 10.9785C136.773 10.7763 137.887 10.888 138.975 10.8561C142.153 10.7657 144.572 12.3934 146.737 14.6008L146.732 14.6061ZM137.834 33.9732C143.416 34.037 149.215 29.3189 148.78 22.1274C148.445 16.5849 145.363 11.4093 136.789 11.6274C131.643 11.7604 127.563 16.8083 127.367 22.2391C127.133 28.787 132.269 33.92 137.829 33.9732H137.834Z" fill="#0C0D10"/>
<path d="M57.2276 166.34C56.9623 166.963 56.384 166.505 56.002 166.734C54.4103 166.734 52.8187 166.739 51.227 166.745C46.4467 166.745 41.6717 166.745 36.8914 166.745C35.1989 166.745 33.5065 166.745 31.814 166.745C27.7818 166.729 23.7495 166.713 19.7173 166.691C19.5104 166.691 19.3353 166.713 19.2823 166.968C14.7248 166.968 10.1726 166.952 5.61515 166.984C4.48506 166.989 3.4664 166.75 2.56445 166.032C2.58568 165.766 2.63873 165.527 2.8934 165.394C4.08184 166.011 5.34987 166.053 6.64973 166.048C22.9484 166.027 39.2524 166.032 55.551 166.048C56.1081 166.048 56.7501 165.761 57.2276 166.346V166.34Z" fill="black"/>
<path d="M2.89322 165.383C2.63856 165.516 2.5855 165.755 2.56428 166.021C1.04689 165.005 0.335947 163.085 0.776308 161.191C1.29095 158.995 2.74467 157.553 4.82445 157.511C7.84861 157.447 10.8781 157.558 13.9076 157.59C17.4941 157.569 21.0754 157.543 24.6619 157.521C25.2084 157.543 25.7496 157.585 26.296 157.585C34.3393 157.585 42.3772 157.585 50.4204 157.606C50.9032 157.606 51.5293 157.261 51.8794 157.963C51.8317 158.027 51.8158 158.096 51.8423 158.17C51.3011 158.202 50.7599 158.266 50.2135 158.266C42.9608 158.271 35.7134 158.266 28.4607 158.266C20.8631 158.266 13.2603 158.308 5.66272 158.239C3.56703 158.218 1.47664 159.601 1.6252 162.394C1.69417 163.654 2.27778 164.479 2.89322 165.378V165.383Z" fill="#0C0D10"/>
<path d="M171.844 47.6702C173 48.367 174.284 48.0797 175.462 47.9627C178.449 47.6648 181.362 48.4308 184.328 48.3776C185.702 48.3563 186.901 50.1063 187.034 51.6914C187.209 53.8723 186.545 55.9255 186.232 58.0319C185.643 62.0319 184.975 66.0159 184.322 70.0053C183.909 72.5425 183.452 75.0691 183.033 77.6063C182.556 80.4999 182.136 83.3989 181.632 86.2872C181.081 89.4787 180.577 92.6702 180.099 95.8776C179.526 99.718 178.72 103.521 178.078 107.356C177.521 110.681 176.804 113.995 176.391 117.324C176.024 120.292 175.356 123.197 175.001 126.165C174.719 128.484 174.221 130.803 173.839 133.122C173.244 136.702 172.666 140.287 172.104 143.872C171.876 145.324 171.711 146.782 171.52 148.239C170.947 149.527 171.074 150.957 170.814 152.314C170.358 154.686 168.942 156.133 167.074 157.266C166.819 157.42 166.528 157.505 166.432 157.846C165.71 157.761 164.994 157.606 164.273 157.606C149.422 157.585 134.577 157.58 119.727 157.574C118.634 157.404 117.541 157.394 116.443 157.574C114.13 157.569 111.811 157.537 109.498 157.569C109.063 157.569 108.49 157.261 108.198 157.92C107.434 157.92 106.67 157.92 105.912 157.92C106.145 156.596 105.163 155.489 105.301 154.181C112.013 154.181 118.73 154.181 125.441 154.17C134.742 154.16 144.037 154.138 153.338 154.122C154.107 154.112 154.877 154.101 155.646 154.09C158.277 154.112 160.914 154.197 163.546 154.138C165.376 154.101 166.719 152.894 167.079 151.011C167.668 147.973 168.188 144.925 168.708 141.872C169.647 136.383 170.576 130.888 171.499 125.394C172.677 118.372 173.828 111.351 175.022 104.335C175.711 100.266 176.486 96.2127 177.176 92.1436C178.348 85.2287 179.457 78.3031 180.651 71.3936C181.118 68.7021 181.701 66.0319 181.951 63.3031C182.073 62.4893 182.19 61.6808 182.312 60.867C182.566 59.0584 182.879 57.2659 182.901 55.4202C182.916 53.968 182.396 52.8882 181.245 52.1808C180.343 51.6223 179.314 51.4521 178.263 51.4521C174.337 51.4467 170.417 51.4308 166.49 51.4202C167.313 50.0957 168.284 48.867 168.873 47.3936C169.822 47.9467 170.852 47.617 171.849 47.6702H171.844Z" fill="white"/>
<path d="M51.8742 157.963C51.524 157.26 50.8979 157.606 50.4151 157.606C42.3719 157.58 34.334 157.59 26.2908 157.585C25.7443 157.585 25.2031 157.542 24.6567 157.521C21.5317 155.542 22.2267 152.526 22.6724 149.574C22.7573 149.021 22.7997 148.463 22.8634 147.904C23.0968 147.893 23.3886 147.984 23.4576 147.633C23.6592 146.601 23.8714 145.564 24.0359 144.521C24.7575 139.92 25.426 135.308 26.1794 130.718C26.9221 126.197 27.771 121.691 28.5244 117.17C29.2619 112.729 29.819 108.244 30.6679 103.83C31.7767 98.069 32.5726 92.2551 33.6124 86.4839C34.3234 82.5424 35.0927 78.6115 35.6073 74.6434C35.9098 72.3296 36.6419 70.0796 36.5676 67.7126C36.9125 65.3402 37.2574 62.9732 37.5969 60.6009C37.6765 60.0477 37.7243 59.4892 37.7932 58.9307C39.1833 59.4679 40.6901 59.6541 41.9899 60.4679C40.9925 65.1966 40.4301 70.0104 39.491 74.7392C38.1222 81.6434 37.3104 88.6381 36.0053 95.5477C34.8646 101.564 33.9626 107.627 32.9386 113.67C31.8722 119.963 30.7952 126.255 29.7129 132.548C28.8215 137.744 28.0151 142.963 26.9646 148.127C26.5667 150.101 26.9964 151.558 28.2273 152.92C29.1027 153.909 30.2753 154.154 31.469 154.154C41.2524 154.165 51.0306 154.143 60.814 154.133C61.334 154.202 61.8858 153.994 62.3686 154.399C62.6232 154.612 63.3395 154.362 63.1273 155.005C62.8142 155.957 63.0848 157.032 62.5065 157.904C59.0208 157.936 55.535 157.968 52.0493 157.994C51.9962 157.957 51.9378 157.947 51.8742 157.963Z" fill="white"/>
<path d="M139.601 47.7018C142.095 47.6912 144.583 47.6806 147.077 47.6699C147.867 48.9199 148.663 50.1646 149.453 51.4146C143.044 51.4306 136.63 51.4518 130.221 51.4518C108.802 51.4518 87.3785 51.4359 65.96 51.4252C66.708 50.1752 67.4614 48.9252 68.2095 47.6806C70.2946 47.6859 72.3744 47.6912 74.4595 47.7018C74.8308 48.2338 75.3614 48.0316 75.8495 48.0369C81.5954 48.0689 87.3414 48.1061 93.0926 48.138C94.7161 48.1486 96.3343 48.122 97.9259 47.7284C98.2177 48.4146 98.796 48.0423 99.2152 48.0476C109.354 48.0742 119.493 48.0689 129.632 48.0635C130.072 48.0635 130.518 47.9944 130.958 47.9572L130.889 48.0263C133.68 48.0157 136.476 48.1859 139.267 47.9412C139.474 48.0103 139.527 47.8401 139.601 47.7072V47.7018Z" fill="white"/>
<path d="M27.7126 56.7708C27.633 56.9782 27.5163 57.2655 27.4208 57.558C27.0918 58.5421 27.2934 59.2069 28.4129 59.2442C28.97 59.2655 29.5112 59.2123 29.6863 59.9835C29.8507 60.6963 29.4475 60.9995 28.9806 61.3559C27.9354 62.1538 27.946 62.6484 29.1026 63.3346C29.7022 63.691 29.8189 64.1006 29.6916 64.7335C29.5589 65.3825 29.1504 65.5155 28.5933 65.4995C27.2828 65.4676 26.9804 66.1378 27.5906 67.2708C27.9036 67.8506 27.9195 68.2495 27.442 68.7655C26.9221 69.324 26.5135 69.1006 25.9989 68.8399C25.0014 68.3346 24.3276 68.5314 24.3648 69.8559C24.3807 70.574 24.2003 70.9569 23.4522 71.175C22.5927 71.425 22.5821 70.7655 22.3168 70.3346C21.6908 69.324 21.07 69.2921 20.444 70.3399C20.0885 70.941 19.7596 71.2708 19.0327 71.1218C18.2156 70.9516 18.4119 70.3346 18.3695 69.7974C18.2793 68.6431 17.6798 68.3665 16.7513 68.8452C16.1889 69.1325 15.7326 69.3984 15.1596 68.8027C14.5495 68.1697 14.9739 67.7123 15.218 67.1484C15.6584 66.1218 15.2817 65.4889 14.2259 65.5314C13.4353 65.5633 13.0693 65.2548 12.8199 64.5208C12.5122 63.6006 13.2762 63.675 13.6741 63.3984C14.5018 62.8186 14.4381 61.9995 13.4937 61.3665C13.0905 61.0952 12.5334 60.9889 12.8146 60.2442C13.048 59.6325 13.2868 59.2282 14.0614 59.2123C15.4037 59.1857 15.6159 58.7123 14.9899 57.3612C14.7352 56.8133 14.7299 56.4038 15.1437 55.9623C15.5469 55.5261 15.9024 55.4357 16.4383 55.7921C17.4357 56.4569 18.1626 56.3984 18.0883 54.8772C18.0565 54.2335 18.205 53.7708 18.9054 53.6325C19.5208 53.5155 20.0142 53.6378 20.2689 54.2601C20.8684 55.7282 21.6112 54.9995 22.1948 54.3346C22.5503 53.925 22.8049 53.5155 23.3833 53.6431C24.0093 53.7761 24.0199 54.2974 24.073 54.8399C24.195 56.074 24.8529 56.3878 26.0148 55.824C26.8584 55.4144 27.6754 55.824 27.7179 56.7655L27.7126 56.7708ZM21.3618 57.9995C18.8099 57.9942 16.9052 59.8346 16.8893 62.324C16.8733 64.7548 18.8894 66.7814 21.3194 66.7814C23.7122 66.7814 25.5691 64.9569 25.5532 62.5314C25.532 59.6803 23.6804 57.7761 21.3618 57.9942V57.9995Z" fill="#407BFF"/>
<path d="M68.2104 47.6803C67.4623 48.9303 66.7089 50.1803 65.9608 51.425C61.9763 56.3293 56.9838 59.409 50.9142 60.5473C47.9378 61.0101 44.9667 60.6218 41.9956 60.4569C40.6957 59.6484 39.189 59.4622 37.7989 58.9197C37.2259 57.925 36.1011 57.7867 35.2629 57.2441C29.5965 53.5739 26.1108 48.292 24.4607 41.6537C23.4898 37.7548 23.7074 33.8346 24.7207 29.9356C27.0817 20.8399 34.5625 13.308 43.9693 12.0633C52.6598 10.9144 59.7798 13.909 65.4674 20.6324C68.6348 24.3771 70.1681 28.9303 70.688 33.9675C71.1921 38.8665 70.0249 43.3027 68.2157 47.6803H68.2104ZM24.6624 35.8505C24.4979 50.0314 35.5228 60.0473 47.2428 60.0846C59.8753 60.1218 70.1681 49.3824 70.131 36.2388C70.0991 24.2016 61.3715 11.4995 44.7863 12.7335C34.5731 13.4941 24.7472 23.3612 24.6624 35.8505Z" fill="#0C0D10"/>
<path d="M36.5724 67.7022C36.6467 70.0692 35.9145 72.3192 35.6121 74.633C35.0975 78.6011 34.3282 82.5373 33.6172 86.4734C32.5773 92.2447 31.7815 98.0585 30.6726 103.819C29.8237 108.239 29.2667 112.718 28.5292 117.16C27.7758 121.681 26.9269 126.186 26.1841 130.707C25.4307 135.303 24.7569 139.91 24.0407 144.511C23.8762 145.553 23.664 146.585 23.4624 147.622C23.3934 147.979 23.1016 147.888 22.8682 147.894C23.1334 144.303 23.9505 140.803 24.5023 137.255C25.0275 133.904 25.5846 130.559 26.1311 127.207C26.6563 123.957 27.171 120.707 27.7121 117.457C28.2745 114.064 28.8687 110.681 29.4311 107.287C30.0837 103.356 30.7204 99.4256 31.3571 95.4947C32.0096 91.5 32.6304 87.5 33.3095 83.5107C33.9249 79.8777 34.6094 76.2607 35.2301 72.633C35.4795 71.1809 35.4901 69.6915 35.9517 68.266C36.079 67.8724 36.1002 67.5692 36.5777 67.6915L36.5724 67.7022Z" fill="#0C0D10"/>
<path d="M149.454 51.4151C148.664 50.1651 147.868 48.9204 147.077 47.6704C146.064 45.1492 146.366 42.58 146.711 39.9736C147.13 36.7715 151.051 32.2928 154.06 31.4258C158.246 30.2183 162.013 30.8726 165.451 33.6385C167.589 35.3566 168.947 37.6811 169.34 40.3938C169.668 42.7024 169.695 45.1119 168.873 47.3938C168.284 48.8672 167.313 50.096 166.49 51.4204C166.225 51.6492 165.965 51.8832 165.695 52.1013C162.655 54.5215 159.312 55.7928 155.466 54.8726C153.168 54.3247 151.343 52.7981 149.46 51.4151H149.454ZM157.8 31.7662C151.523 31.0907 146.78 37.6864 147.046 43.1438C147.311 48.6119 151.55 54.9789 158.941 54.2928C163.763 53.8406 169.361 49.2768 168.836 41.9364C168.459 36.6811 164.039 31.2821 157.805 31.7662H157.8Z" fill="#0C0D10"/>
<path d="M97.4916 20.3668C97.2157 17.9891 97.0035 15.6008 96.6427 13.2391C96.3615 11.42 97.0035 10.4945 98.749 10.2072C102.665 9.55829 106.654 9.69127 110.538 8.91467C111.785 8.66467 113.037 8.73914 114.284 8.41467C116.427 7.86148 117.844 9.65403 117.61 12.42C117.472 14.0477 118.04 15.5955 118.125 17.1328C118.21 18.7072 118.671 20.3721 118.289 21.904C117.769 23.9998 115.806 23.6381 114.289 23.9359C113.578 24.0742 112.772 24.2232 112.14 24.1859C110.22 24.0742 109.854 25.3881 109.445 26.787C109.249 27.4572 109.286 28.4679 108.607 28.6008C107.832 28.7498 107.657 27.654 107.36 27.1008C106.373 25.2391 105.179 24.3828 103.062 25.1647C102.145 25.5051 101.057 25.303 100.033 25.4785C98.9453 25.6647 98.0434 24.8934 97.794 23.7285C97.5606 22.6381 97.5606 21.4945 97.4545 20.3721C97.4651 20.3721 97.4757 20.3721 97.4863 20.3721L97.4916 20.3668ZM108.336 27.4838C108.654 26.7551 108.946 26.2338 109.121 25.67C109.487 24.4732 109.997 23.6647 111.408 23.5264C113.085 23.3668 114.772 23.1647 116.432 22.7604C117.34 22.5423 117.478 22.1647 117.515 21.3136C117.6 19.3934 117.271 17.5104 117.138 15.6115C117.021 13.9413 116.602 12.2923 116.565 10.6008C116.544 9.78701 116.247 9.22318 115.313 9.29233C113.493 9.43063 111.657 9.39871 109.854 9.66467C106.272 10.1966 102.675 10.5211 99.0727 10.8349C97.9426 10.9306 97.4332 11.3934 97.5075 12.537C97.6985 15.404 97.725 18.303 98.1548 21.1328C98.8817 25.9519 98.7649 25.0902 102.527 24.4732C105.354 24.0104 107.195 24.5849 108.341 27.4785L108.336 27.4838Z" fill="#0C0D10"/>
<path d="M130.959 47.9468C130.519 47.984 130.073 48.0531 129.633 48.0531C119.494 48.0585 109.355 48.0638 99.216 48.0372C98.7969 48.0372 98.2186 48.4095 97.9268 47.718C98.0276 47.2978 98.3618 47.3723 98.643 47.3723C109.254 47.3882 119.865 47.4095 130.482 47.4255C130.598 47.601 130.715 47.7712 130.832 47.9468L130.901 48.0531L130.964 47.9414L130.959 47.9468Z" fill="#0C0D10"/>
<path d="M10.0394 99.5263C10.0288 98.0689 10.6177 97.3508 11.8433 97.3295C13.1325 97.3082 13.9602 98.0902 13.9549 99.3295C13.9549 100.319 12.8566 101.383 11.7478 101.372C10.6336 101.356 9.89083 100.867 10.0394 99.5263ZM13.0052 99.2604C13.297 98.1646 12.342 98.1221 11.7955 98.021C11.0581 97.888 10.6495 98.4944 10.6495 99.2604C10.6495 100.074 11.1429 100.713 11.8433 100.686C12.4587 100.665 13.1803 100.266 13.0105 99.2604H13.0052Z" fill="#0C0D10"/>
<path d="M75.4148 19.276C75.5316 20.1802 75.1389 20.5579 74.2423 20.5579C73.3828 20.5579 72.7408 20.2706 72.7249 19.3132C72.709 18.3717 73.3138 18.026 74.1892 18.0153C75.0381 17.9994 75.5369 18.26 75.4148 19.276Z" fill="#0C0D10"/>
<path d="M139.262 47.9355C136.471 48.1802 133.681 48.01 130.885 48.026L130.916 47.9302L130.821 47.9568C130.704 47.7813 130.587 47.6111 130.471 47.4355C133.399 47.4355 136.328 47.4462 139.257 47.4515C139.257 47.6111 139.257 47.776 139.257 47.9355H139.262Z" fill="black"/>
<path d="M87.4585 7.72825C87.9466 7.90379 88.8645 7.44634 88.8857 8.05804C88.9228 8.91442 87.9784 8.57932 87.4744 8.574C86.8961 8.56336 85.8403 8.99421 85.8244 8.25485C85.8085 7.41974 86.8802 7.93038 87.4585 7.72825Z" fill="#407BFF"/>
<path d="M15.5788 73.3719C15.2552 74.3772 15.0111 75.1538 14.7564 75.9304C14.6715 76.1857 14.523 76.4144 14.2259 76.2708C14.0349 76.1804 13.9765 75.9676 14.0455 75.7495C14.2949 74.9729 14.5336 74.191 14.7989 73.4197C14.8838 73.1751 15.0482 72.941 15.3507 73.0793C15.5576 73.1697 15.5788 73.3825 15.5841 73.3719H15.5788Z" fill="#407BFF"/>
<path d="M67.4405 11.5528C67.2548 12.0634 66.8145 12.0687 66.4378 12.1166C65.7003 12.2124 64.5119 13.1592 64.3739 12.4624C64.1882 11.5102 65.6154 11.739 66.3317 11.4145C66.6872 11.2549 67.1487 10.9092 67.4352 11.5475L67.4405 11.5528Z" fill="#407BFF"/>
<path d="M13.308 111.744C12.926 111.526 12.8676 111.51 12.8464 111.478C12.353 110.468 12.3158 109.425 12.666 108.367C12.6819 108.324 13.0215 108.324 13.048 108.377C13.4724 109.404 13.2178 110.457 13.308 111.75V111.744Z" fill="#407BFF"/>
<path d="M14.3634 123.006C13.9708 123.006 13.9337 122.788 13.8859 122.591C13.6737 121.649 13.366 120.713 13.6207 119.729C13.6366 119.676 13.9761 119.644 13.992 119.676C14.4059 120.756 14.6765 121.857 14.3634 123.006Z" fill="#407BFF"/>
<path d="M14.5233 124.974C15.5526 126.059 15.2555 127.229 15.5632 128.208C15.5792 128.266 15.3988 128.463 15.2927 128.474C15.1759 128.484 14.9743 128.389 14.9372 128.293C14.5976 127.309 14.3483 126.309 14.5233 124.974Z" fill="#407BFF"/>
<path d="M70.0826 11.0691C69.8279 11.1063 69.5679 11.1063 69.5202 10.7659C69.4724 10.4308 69.743 10.3297 69.9818 10.2872C70.836 10.1382 71.653 9.70736 72.5497 9.86694C72.5868 9.87226 72.6451 10.2074 72.5868 10.2552C71.8599 10.8723 70.8943 10.6967 70.0826 11.0637V11.0691Z" fill="#407BFF"/>
<path d="M78.1847 8.9465C77.2615 9.82948 76.2375 9.51033 75.3993 9.85076C75.1605 9.9465 74.8793 9.79225 74.8899 9.47842C74.8899 9.34012 75.1181 9.10076 75.2507 9.09012C76.1474 9.02097 77.0175 8.46246 78.1847 8.9465Z" fill="#407BFF"/>
<path d="M12.576 81.0104C12.7405 80.404 12.9315 79.6487 13.1596 78.9093C13.218 78.7125 13.409 78.5689 13.6318 78.67C13.8493 78.7657 13.8759 78.9785 13.8228 79.1912C13.6477 79.8934 13.4673 80.5955 13.271 81.2923C13.1967 81.5583 13.0535 81.7817 12.7405 81.6646C12.5282 81.5849 12.4805 81.3774 12.5707 81.0157L12.576 81.0104Z" fill="#407BFF"/>
<path d="M83.6387 8.20759C82.4555 9.35121 81.3626 8.87249 80.3174 8.78738C81.2405 8.12249 82.2433 7.91504 83.6387 8.20759Z" fill="#407BFF"/>
<path d="M13.1806 117.159C13.0586 116.308 12.9312 115.463 12.8251 114.611C12.7933 114.361 12.7933 114.042 13.101 113.989C13.5255 113.915 13.5679 114.287 13.5732 114.59C13.5944 115.441 13.5785 116.292 13.5785 117.149C13.4459 117.149 13.3132 117.159 13.1806 117.165V117.159Z" fill="#407BFF"/>
<path d="M94.3553 8.32467C93.379 8.76084 92.4134 8.77148 91.4531 8.26616C92.4187 7.99488 93.3843 8.00552 94.3553 8.32467Z" fill="#407BFF"/>
<path d="M75.85 48.0316C75.3619 48.0316 74.8313 48.2284 74.46 47.6965C74.5714 47.3242 74.8367 47.3667 75.1072 47.4359C75.2717 47.4837 75.4362 47.5369 75.6007 47.5848C75.8712 47.6167 75.9774 47.7497 75.85 48.0316Z" fill="#0C0D10"/>
<path d="M139.262 47.9358C139.262 47.7762 139.262 47.6113 139.262 47.4517C139.463 47.4039 139.538 47.5475 139.596 47.7017C139.516 47.8347 139.463 48.0049 139.262 47.9358Z" fill="#0C0D10"/>
<path d="M75.6008 47.5903C75.4364 47.5425 75.2719 47.4893 75.1074 47.4414C75.2931 47.4095 75.5 47.3084 75.6008 47.5903Z" fill="black"/>
<path d="M105.9 157.915C106.664 157.915 107.428 157.915 108.187 157.915L108.298 157.894C108.261 158.085 108.309 158.197 108.521 158.144C110.935 158.176 113.349 158.218 115.763 158.223C116.076 158.223 116.814 158.463 116.432 157.58C117.525 157.404 118.618 157.415 119.711 157.58C119.562 158.766 120.453 158.223 120.835 158.223C128.635 158.266 136.439 158.261 144.238 158.266C151.045 158.266 157.852 158.277 164.659 158.261C166.033 158.261 167.158 158.692 167.943 159.904C168.904 161.388 168.76 162.995 168.012 164.41C167.365 165.638 166.097 166.043 164.723 166.043C151.008 166.037 137.299 166.043 123.584 166.064C122.544 166.064 121.509 166.144 120.469 166.186C120.358 166.239 120.241 166.293 120.13 166.351C115.896 166.351 111.662 166.351 107.428 166.356C107.29 165.575 106.876 164.846 107.046 164.016L107.036 164.005C107.067 161.894 106.272 159.952 105.89 157.926L105.9 157.915Z" fill="#9FB8F9"/>
<path d="M120.48 166.181C121.52 166.138 122.555 166.058 123.595 166.058C137.31 166.042 151.019 166.032 164.734 166.037C166.108 166.037 167.376 165.633 168.023 164.404C168.771 162.989 168.915 161.383 167.954 159.899C167.164 158.681 166.039 158.25 164.67 158.255C157.863 158.271 151.056 158.266 144.249 158.26C136.45 158.26 128.646 158.26 120.846 158.218C120.464 158.218 119.573 158.76 119.722 157.574C134.572 157.58 149.417 157.585 164.267 157.606C164.989 157.606 165.705 157.76 166.426 157.846C166.782 158.111 167.153 158.314 167.61 158.255C169.705 160.691 169.822 163.861 167.843 165.617C167.132 166.25 166.304 166.681 165.318 166.681C150.515 166.691 135.713 166.702 120.91 166.713C120.767 166.713 120.624 166.654 120.475 166.622C120.475 166.473 120.48 166.33 120.486 166.181H120.48Z" fill="black"/>
<path d="M155.242 175.904C152.287 178.468 149.236 180.622 146.048 182.622C142.281 184.984 138.248 186.739 134.168 188.292C130.964 189.51 127.616 190.351 124.247 191.095C121.027 191.808 117.758 192.154 114.548 192.851C114.262 192.915 113.954 192.867 113.657 192.883C113.217 192.909 112.771 192.776 112.776 192.298C112.776 191.776 113.312 191.968 113.604 191.947C120.576 191.5 127.33 189.952 133.903 187.548C141.188 184.883 147.931 181.165 153.953 176.069C154.169 175.888 154.6 175.833 155.247 175.904H155.242Z" fill="#0C0D10"/>
<path d="M119.78 187.526C119.191 187.617 118.756 187.457 118.735 186.994C118.703 186.436 119.239 186.665 119.536 186.627C127.224 185.606 134.498 183.165 141.474 179.691C142.52 179.17 143.48 178.462 144.52 177.92C144.785 177.782 145.194 177.175 145.491 177.787C145.666 178.143 145.225 178.34 144.918 178.532C141.978 180.372 138.896 181.893 135.697 183.175C131.638 184.803 127.393 185.744 123.202 186.856C122.061 187.159 120.82 187.239 119.785 187.521L119.78 187.526Z" fill="#0C0D10"/>
<path d="M120.48 166.181C120.48 166.33 120.475 166.473 120.47 166.622C120.257 166.665 120.188 166.521 120.141 166.346C120.252 166.292 120.369 166.239 120.48 166.181Z" fill="#0C0D10"/>
<path d="M107.047 163.995C107.047 163.995 107.057 164.011 107.057 164.005C105.959 164.101 106.42 165.011 106.489 165.473C107.391 171.447 104.781 177.106 99.6559 179.58C95.3531 181.66 90.8805 182.638 86.201 182.851C80.0253 183.128 73.8974 182.718 67.8597 181.298C65.6313 180.777 63.4295 180.112 61.3445 179.112C60.1348 178.532 59.6095 176.809 59.9862 175.069C60.7502 171.543 61.4665 168.011 62.204 164.479C62.9043 161.09 63.403 157.67 63.9017 154.245C64.549 149.777 64.9257 145.287 65.2918 140.787C65.3395 140.181 65.2865 139.532 65.1273 138.947C64.9788 138.378 64.5861 137.798 63.9919 138.505C63.2651 139.367 62.7451 138.957 62.013 138.473C59.7475 136.979 58.0179 134.899 56.3944 132.766C54.5799 130.383 52.5531 127.899 54.4525 124.495C55.1476 123.83 55.1582 124.559 55.3863 124.968C58.5166 130.58 62.6284 135.037 68.7086 137.059C71.7858 138.08 74.9373 137.904 78.1525 137.729C81.8557 137.527 85.4688 137.122 89.0395 136.096C91.809 135.298 94.4246 134.176 96.4089 131.973C99.953 128.037 101.057 123.021 101.63 117.862C102.001 114.516 100.945 111.266 100.77 107.952C101.062 107.968 101.354 107.979 101.645 107.995C101.815 108.383 102.155 108.229 102.436 108.261L102.383 108.271C103.455 108.766 104.548 109.223 105.598 109.766C110.373 112.234 114.591 115.5 118.369 119.426C119.212 120.303 119.393 121.293 119.239 122.404C118.873 125.096 118.013 127.633 116.872 130.059C116.119 131.66 115.339 133.282 114.018 134.484C113.079 135.335 112.135 136.032 110.718 135.426C109.057 134.713 107.259 134.718 105.476 134.761C104.245 134.793 103.64 135.293 103.391 136.622C103.2 137.638 103.301 138.617 103.248 139.612C103.078 142.734 103.184 145.867 103.529 148.968C104.054 153.718 105.572 158.282 106.16 163.032C106.214 163.457 106.123 164.319 107.047 164V163.995Z" fill="#407BFF"/>
<path d="M52.0495 157.995C55.5353 157.963 59.021 157.931 62.5068 157.904C62.5545 158.457 62.5015 158.984 62.3847 159.548C62.0664 161.17 61.9178 162.825 61.7003 164.468C61.3342 165.043 61.053 165.649 61.0106 166.351C59.7479 166.351 58.4798 166.351 57.2171 166.346C56.7396 165.761 56.0976 166.048 55.5406 166.048C39.2419 166.032 22.9379 166.027 6.63926 166.048C5.3394 166.048 4.07137 166.011 2.88293 165.394C2.26748 164.489 1.68387 163.67 1.6149 162.41C1.46634 159.617 3.55673 158.239 5.65243 158.255C13.25 158.325 20.8475 158.282 28.4504 158.282C35.7031 158.282 42.9505 158.282 50.2032 158.282C50.7443 158.282 51.2855 158.218 51.8267 158.186C51.9275 158.17 51.9965 158.112 52.0389 158.005L52.0495 157.995Z" fill="#9FB8F9"/>
<path d="M61.705 164.462C61.9225 162.819 62.0658 161.159 62.3894 159.542C62.5008 158.978 62.5592 158.457 62.5114 157.898C63.0897 157.026 62.8192 155.952 63.1322 154.999C63.3444 154.356 62.6282 154.606 62.3735 154.393C61.8854 153.989 61.3389 154.196 60.819 154.127C59.7579 153.382 58.5057 153.255 57.3173 152.893C54.7759 152.127 52.086 151.659 50.2874 149.281C48.7223 147.207 47.7408 145.021 48.5048 142.281C49.5022 138.718 51.1682 135.446 52.4892 132.026C52.85 131.09 53.5769 130.159 53.2426 129.138C52.6802 127.409 53.0145 125.936 53.9483 124.51C54.118 124.51 54.2825 124.499 54.4523 124.494C52.5529 127.898 54.5796 130.382 56.3941 132.765C58.0176 134.898 59.7472 136.978 62.0127 138.473C62.7449 138.957 63.2648 139.361 63.9917 138.505C64.5912 137.797 64.9785 138.377 65.1271 138.946C65.2809 139.531 65.3393 140.18 65.2916 140.787C64.9255 145.281 64.5488 149.771 63.9015 154.244C63.4081 157.67 62.9041 161.09 62.2037 164.478C62.0339 164.478 61.8695 164.473 61.6997 164.468L61.705 164.462ZM53.8315 130.553C52.2982 134.34 50.8764 137.92 49.4014 141.483C48.0856 144.664 50.0381 148.989 52.4362 150.271C55.5081 151.909 58.9143 152.468 62.1772 153.483C62.9571 153.728 63.4771 153.425 63.4717 152.372C63.4664 150.898 63.7742 149.457 63.9917 147.999C64.1296 147.074 64.4267 146.015 63.1959 145.276C61.0365 143.978 60.7182 142.553 61.6732 139.877C61.8164 139.478 61.949 139.218 61.4769 138.893C58.3837 136.797 56.1554 133.808 53.8369 130.553H53.8315ZM64.5435 139.446C63.8856 140.239 62.8298 139.218 62.2462 140.196C61.4609 141.51 62.1825 144.127 63.5407 144.686C63.8644 144.819 64.4214 145.005 64.3312 144.26C64.1455 142.707 64.9095 141.223 64.5382 139.446H64.5435Z" fill="#0C0D10"/>
<path d="M31.8135 166.734C33.506 166.734 35.1985 166.734 36.8909 166.734C36.8909 167.304 36.8697 167.878 36.9015 168.447C37.0554 171.144 38.0635 173.325 40.3767 174.729C42.9605 176.298 45.4965 176.357 48.0326 174.591C50.749 172.697 51.4388 169.926 51.2319 166.745C52.8235 166.745 54.4152 166.74 56.0069 166.734C55.3755 168.979 55.3861 169.096 57.434 170.187C58.2776 170.633 58.4209 171.112 58.1556 172.032C57.9062 172.899 57.7683 173.575 56.6754 173.554C55.9432 173.538 55.0943 173.144 54.4576 173.963C53.6724 174.974 53.9695 175.947 54.6221 176.782C55.5506 177.974 54.7017 178.612 54.0915 179.431C53.3275 180.447 52.8713 179.617 52.2664 179.245C51.5661 178.814 50.9135 178.304 49.9426 178.83C48.9717 179.357 49.1202 180.149 49.1627 180.947C49.221 182.038 49.0884 182.729 47.8098 183.048C46.563 183.357 46.2128 182.761 45.8149 181.846C45.4806 181.08 45.1199 180.405 44.1118 180.373C43.0295 180.341 42.7111 181.128 42.4989 181.889C42.0055 183.671 40.8117 183.107 39.7719 182.835C38.5993 182.527 39.0503 181.601 39.2148 180.804C39.3421 180.187 39.427 179.532 38.7373 179.171C38.1377 178.857 37.5701 178.298 36.8326 178.857C36.631 179.006 36.3392 179.048 36.1853 179.234C35.3258 180.277 34.721 179.857 33.9145 179.048C33.0869 178.218 33.0232 177.58 33.7447 176.729C34.3443 176.027 34.652 175.341 34.0259 174.383C33.4264 173.468 32.7314 173.383 31.8507 173.671C31.1662 173.894 30.4924 173.947 30.3704 172.995C30.259 172.091 29.3677 171.069 30.8479 170.351C32.7738 169.415 32.9277 168.596 31.8241 166.74L31.8135 166.734Z" fill="white"/>
<path d="M137.835 33.9676C132.275 33.9144 127.134 28.7868 127.372 22.2336C127.569 16.8027 131.649 11.7549 136.795 11.6219C145.369 11.4038 148.451 16.574 148.785 22.1219C149.221 29.3081 143.422 34.0315 137.84 33.9676H137.835ZM143.676 26.8985C142.392 25.3187 142.191 23.5634 142.254 21.7389C142.313 20.1059 141.766 18.7708 140.435 17.8932C139.984 17.5953 139.808 17.2921 139.867 16.7815C139.946 16.0474 139.846 15.34 139.018 15.2442C138.259 15.1538 137.257 14.9942 136.997 16.0368C136.657 17.3985 135.776 18.3187 134.986 19.34C134.593 19.8453 134.535 20.4357 134.476 21.0687C134.328 22.7442 134.386 24.5262 133.415 25.9676C132.54 27.2708 133.092 27.4623 134.222 27.3985C135.325 27.3347 136.222 27.3772 136.875 28.6857C137.416 29.7708 138.795 29.973 139.458 28.8825C140.297 27.4942 141.342 27.2868 142.679 27.324C142.981 27.3347 143.289 27.0687 143.676 26.8932V26.8985Z" fill="white"/>
<path d="M51.2268 166.739C51.4337 169.925 50.7493 172.697 48.0275 174.585C45.4914 176.351 42.9607 176.292 40.3716 174.723C38.0584 173.319 37.0556 171.138 36.8964 168.441C36.8646 167.872 36.8858 167.303 36.8858 166.729C41.6661 166.729 46.4464 166.729 51.2214 166.729L51.2268 166.739Z" fill="#CEDCFC"/>
<path d="M52.0494 157.994C52.007 158.101 51.938 158.159 51.8372 158.175C51.8107 158.095 51.8213 158.026 51.8744 157.962C51.938 157.946 51.9964 157.962 52.0494 157.994Z" fill="#407BFF"/>
<path d="M153.332 154.111C144.032 154.127 134.737 154.149 125.436 154.159C118.724 154.17 112.008 154.164 105.296 154.17C105.19 153.941 105.036 153.728 104.988 153.489C104.293 149.813 103.964 146.095 103.938 142.351C103.927 140.638 103.986 138.925 104.081 137.218C104.145 136.085 104.516 135.297 105.896 135.399C107.026 135.484 108.108 135.67 109.211 135.914C111.063 136.329 113.01 136.755 114.48 134.962C115.18 134.111 115.965 134.026 116.841 134.345C117.287 134.51 117.716 134.494 118.151 134.494C121.95 134.478 125.765 134.877 129.542 134.17C132.169 133.68 134.699 132.803 135.129 129.031C135.352 127.079 135.782 125.143 136.074 123.191C136.625 119.473 137.151 115.755 137.527 112.016C144.69 112.016 151.852 112.047 159.009 111.973C160.394 111.957 160.638 112.558 160.426 113.739C158.596 123.787 156.733 133.829 154.945 143.888C154.341 147.287 153.332 150.617 153.327 154.117L153.332 154.111Z" fill="#CEDCFC"/>
<path d="M149.454 51.415C151.337 52.798 153.162 54.3193 155.46 54.8725C159.306 55.7927 162.649 54.5214 165.689 52.1012C165.959 51.8831 166.219 51.6491 166.485 51.4204C170.411 51.431 174.331 51.447 178.258 51.4523C179.308 51.4523 180.337 51.6225 181.239 52.181C182.391 52.8938 182.905 53.9682 182.895 55.4204C182.879 57.2661 182.56 59.0587 182.306 60.8672C181.611 60.8459 180.916 60.814 180.221 60.814C137.744 60.814 95.2628 60.814 52.7865 60.798C52.1658 60.798 51.4919 61.0374 50.9189 60.5533C56.9885 59.415 61.981 56.3353 65.9655 51.431C87.384 51.4416 108.808 51.4523 130.226 51.4523C136.635 51.4523 143.05 51.4257 149.459 51.415H149.454Z" fill="#407BFF"/>
<path d="M181.945 63.3031C181.695 66.0318 181.106 68.702 180.645 71.3935C179.451 78.3031 178.342 85.2286 177.17 92.1435C176.48 96.2127 175.705 100.266 175.016 104.335C173.822 111.351 172.67 118.372 171.493 125.394C170.569 130.888 169.646 136.383 168.702 141.872C168.182 144.92 167.662 147.973 167.073 151.011C166.707 152.894 165.365 154.101 163.54 154.138C160.908 154.191 158.271 154.112 155.64 154.09C155.677 153.574 155.671 153.048 155.756 152.537C156.717 147 157.704 141.473 158.669 135.936C159.953 128.574 161.311 121.223 162.479 113.84C163.105 109.872 163.879 105.931 164.442 101.952C164.808 99.3776 164.797 96.6861 165.837 94.2286C166.479 94.1967 167.121 94.1435 167.763 94.1382C169.827 94.1222 171.344 93.2073 171.588 90.8244C171.684 89.8722 171.609 88.8776 171.848 87.952C172.586 85.0903 172.522 82.1169 172.973 79.2127C173.318 76.9999 173.323 74.7233 173.726 72.5265C173.939 71.3669 173.668 70.601 172.989 69.835C172.257 68.9839 171.259 69.1435 170.32 69.0797C170.538 67.5478 170.745 66.0159 170.983 64.4839C171.111 63.6754 171.498 63.2765 172.395 63.2925C175.578 63.351 178.761 63.3031 181.945 63.2978V63.3031Z" fill="#CEDCFC"/>
<path d="M181.945 63.303C178.762 63.3083 175.578 63.3509 172.395 63.2977C171.498 63.2817 171.111 63.6806 170.984 64.4892C170.745 66.0158 170.538 67.553 170.321 69.0849C169.52 69.0849 168.713 69.0849 167.912 69.0849C168.119 67.7072 168.241 66.3136 168.554 64.9679C168.824 63.803 168.485 63.5955 167.424 63.5955C143.947 63.654 120.464 63.553 96.9873 63.92C96.0482 63.936 95.7882 64.2498 95.5707 65.1966C95.3797 66.0264 95.8148 67.1647 94.7749 67.7126C94.0639 67.8189 93.4962 67.5158 92.9975 67.0211C93.0983 66.6221 93.2256 66.2285 93.2946 65.8243C93.5493 64.3562 92.9321 63.6221 91.443 63.6221C83.8879 63.6221 76.3274 63.6221 68.7723 63.6221C61.1642 63.6221 53.556 63.6328 45.9478 63.6115C44.9769 63.6115 44.4676 63.7817 44.2872 64.9998C43.693 69.0264 42.9237 73.0211 42.2074 77.0264C40.7325 85.287 39.2469 93.5477 37.7667 101.808C37.3953 103.883 37.1565 105.994 36.6101 108.01C36.1644 109.643 36.1326 109.83 37.7348 109.83C42.5098 109.835 47.2795 109.83 52.0545 109.83C51.6725 110.409 51.9007 111.096 51.7627 111.723C46.9028 111.723 42.0376 111.734 37.1777 111.707C36.2281 111.702 35.7983 111.952 35.6604 113.069C35.3632 115.468 34.8645 117.84 34.4348 120.223C32.9704 128.276 31.5486 136.335 29.9993 144.367C29.4476 147.229 29.2778 150.181 28.2379 152.931C27.007 151.564 26.5719 150.106 26.9752 148.138C28.0257 142.973 28.8321 137.755 29.7234 132.558C30.8058 126.266 31.8828 119.979 32.9492 113.681C33.9732 107.638 34.8751 101.574 36.0158 95.5583C37.3263 88.6487 38.1327 81.6487 39.5016 74.7498C40.4407 70.0211 41.0031 65.2072 42.0005 60.4785C44.9716 60.6434 47.9427 61.037 50.9191 60.5689C51.4921 61.0583 52.1659 60.8136 52.7867 60.8136C95.263 60.8243 137.745 60.8243 180.221 60.8296C180.916 60.8296 181.611 60.8668 182.306 60.8828C182.184 61.6966 182.067 62.5051 181.945 63.3189V63.303Z" fill="#9FB8F9"/>
<path d="M165.837 94.2234C164.803 96.6809 164.808 99.3723 164.442 101.947C163.874 105.931 163.105 109.867 162.479 113.835C161.317 121.218 159.959 128.569 158.67 135.931C157.704 141.463 156.722 146.995 155.757 152.532C155.667 153.037 155.677 153.564 155.64 154.085C154.871 154.096 154.101 154.106 153.332 154.117C153.332 150.617 154.346 147.282 154.95 143.888C156.744 133.83 158.601 123.787 160.431 113.739C160.649 112.559 160.404 111.957 159.014 111.973C151.852 112.043 144.695 112.011 137.532 112.016C137.729 111.08 137.93 110.144 138.126 109.207C139.044 109.798 140.047 109.862 141.103 109.856C147.114 109.824 153.125 109.777 159.136 109.888C160.686 109.915 161.168 109.351 161.381 107.872C161.879 104.372 162.41 100.878 163.216 97.4202C163.423 96.5372 164.224 95.3351 163.455 94.2287C164.251 94.0904 165.047 94.0904 165.843 94.2287L165.837 94.2234Z" fill="#9FB8F9"/>
<path d="M138.126 109.202C137.93 110.138 137.728 111.074 137.532 112.01C137.15 115.75 136.63 119.468 136.078 123.186C135.786 125.138 135.357 127.074 135.134 129.026C134.704 132.798 132.173 133.67 129.547 134.165C125.764 134.872 121.955 134.473 118.156 134.489C117.721 134.489 117.291 134.505 116.846 134.34C115.97 134.021 115.185 134.106 114.485 134.957C113.015 136.75 111.062 136.324 109.216 135.909C108.113 135.665 107.03 135.478 105.9 135.393C104.521 135.292 104.149 136.08 104.086 137.212C103.99 138.92 103.932 140.638 103.942 142.345C103.969 146.09 104.298 149.808 104.993 153.484C105.035 153.723 105.195 153.936 105.301 154.165C105.163 155.473 106.144 156.579 105.911 157.904C106.293 159.931 107.089 161.872 107.057 163.984C106.134 164.303 106.224 163.441 106.171 163.016C105.582 158.266 104.064 153.702 103.539 148.952C103.194 145.856 103.088 142.723 103.258 139.595C103.311 138.601 103.21 137.622 103.401 136.606C103.651 135.276 104.255 134.776 105.486 134.744C107.274 134.702 109.068 134.697 110.728 135.409C112.145 136.016 113.089 135.319 114.028 134.468C115.349 133.266 116.129 131.643 116.883 130.042C118.018 127.617 118.883 125.08 119.249 122.388C119.398 121.276 119.217 120.287 118.379 119.409C114.607 115.484 110.383 112.218 105.608 109.75C104.558 109.207 103.465 108.75 102.393 108.255C102.282 107.638 102.59 107.681 102.972 107.861C104.531 108.59 106.091 109.33 107.651 110.064C108.845 110.798 110.039 111.526 111.238 112.26C111.816 112.728 112.373 113.218 112.967 113.654C115.148 115.239 117.095 117.117 118.994 119.048C119.466 119.526 119.726 120.537 120.215 120.643C121.838 121 123.477 121.447 125.096 120.191C127.595 118.244 128.81 115.548 129.749 112.606C130.184 111.728 130.539 110.824 130.667 109.835C131.064 108.298 131.526 106.776 131.85 105.223C132.635 101.447 133.197 97.6167 134.152 93.8774C134.407 92.2284 135.182 90.7657 135.728 89.2231C136.259 88.3614 136.397 87.3721 136.55 86.3933C136.927 85.7178 137.155 84.9944 137.219 84.2125C137.495 84.0955 137.5 83.8348 137.511 83.5848C137.553 82.5689 138.301 82.4359 139.017 82.3348C139.903 82.2125 140.238 82.7444 140.232 83.5955C140.105 84.5263 139.978 85.4625 139.856 86.3933C139.458 86.5582 139.707 86.9146 139.644 87.1753C139.431 88.0423 138.901 89.0955 140.62 88.3614C141.177 88.1221 141.845 88.6433 142.27 89.2178C143.145 90.638 143.113 92.3242 143.527 93.8774C143.517 97.1806 142.455 99.9253 139.691 101.75C139.272 102.026 138.821 102.308 138.757 102.83C138.513 104.947 137.845 107.021 138.147 109.191L138.126 109.202ZM138.238 90.388C138.662 88.1912 139.039 86.1646 139.458 84.154C139.527 83.8295 139.649 83.4838 139.352 83.3508C139.065 83.2178 138.641 83.1327 138.375 83.4465C138.158 83.7072 137.935 84.037 137.871 84.3667C137.383 86.9518 136.412 89.3401 135.452 91.7657C134.529 94.0955 134.322 96.6593 133.876 99.138C133.558 100.931 133.033 102.681 132.714 104.468C131.961 108.697 130.82 112.798 128.825 116.569C127.34 119.383 125.679 122.212 121.928 121.649C120.4 121.42 119.917 121.691 119.684 123.473C119.26 126.728 118.082 129.803 116.32 132.585C116.034 133.037 115.975 133.447 116.644 133.51C121.355 133.962 126.072 134.308 130.746 133.138C132.704 132.649 134.03 131.521 134.386 129.351C134.826 126.654 135.346 123.973 135.691 121.26C136.041 118.489 136.354 115.707 136.656 112.925C136.98 109.957 137.426 106.989 137.749 104.016C137.887 102.75 138.19 101.702 139.394 101.01C140.317 100.484 141.071 99.6965 141.66 98.6699C142.933 96.4572 142.556 94.0742 142.482 91.755C142.45 90.7284 141.957 89.537 140.949 89.0795C140.116 88.6965 139.654 89.7284 139.028 90.1433C138.874 90.2444 138.662 90.2604 138.232 90.388H138.238Z" fill="#0C0D10"/>
<path d="M116.437 157.569C116.819 158.458 116.082 158.218 115.769 158.213C113.355 158.213 110.941 158.165 108.527 158.133C108.452 158.048 108.378 157.968 108.304 157.883L108.192 157.904C108.484 157.245 109.057 157.559 109.492 157.553C111.805 157.527 114.124 157.553 116.437 157.559V157.569Z" fill="black"/>
<path d="M28.2323 152.915C29.2722 150.165 29.442 147.213 29.9937 144.351C31.543 136.319 32.9648 128.255 34.4292 120.207C34.8642 117.824 35.3577 115.452 35.6548 113.053C35.7927 111.936 36.2225 111.686 37.1722 111.691C42.032 111.723 46.8972 111.707 51.7571 111.707C51.7943 115.543 52.7121 119.16 54.2454 122.622C54.2507 122.835 54.2613 123.043 54.2666 123.255C53.9802 123.622 53.8634 124.037 53.9377 124.511C53.0092 125.936 52.675 127.415 53.2321 129.138C53.5663 130.165 52.8395 131.09 52.4787 132.027C51.1576 135.447 49.4917 138.718 48.4942 142.282C47.7249 145.021 48.7064 147.207 50.2769 149.282C52.0755 151.665 54.7654 152.133 57.3067 152.894C58.4952 153.25 59.7473 153.378 60.8084 154.128C51.025 154.138 41.2468 154.16 31.4634 154.149C30.2696 154.149 29.1024 153.91 28.2217 152.915H28.2323Z" fill="#CEDCFC"/>
<path d="M130.826 47.9573L130.922 47.9307L130.89 48.0211L130.959 47.9519L130.895 48.0583L130.826 47.9573Z" fill="#CEDCFC"/>
<path d="M21.3613 57.9994C23.6799 57.7813 25.5315 59.6856 25.5527 62.5366C25.5687 64.9622 23.7117 66.7866 21.3189 66.7866C18.889 66.7866 16.8728 64.7547 16.8888 62.3292C16.9047 59.8345 18.8041 57.9941 21.3613 58.0047V57.9994Z" fill="#CEDCFC"/>
<path d="M24.662 35.8507C24.7469 23.3613 34.5728 13.4943 44.7859 12.7337C61.3711 11.4996 70.0988 24.2017 70.1306 36.239C70.1677 49.3826 59.8749 60.122 47.2424 60.0847C35.5224 60.0528 24.4975 50.0315 24.662 35.8507ZM47.3485 58.0103C58.6759 58.0847 68.0826 48.7337 68.1941 36.4837C68.3108 23.6858 58.4265 14.622 47.6244 14.5103C35.8196 14.3879 26.6728 24.8773 26.625 36.1166C26.5773 47.6698 35.7665 58.1007 47.3432 58.0103H47.3485Z" fill="#9FB8F9"/>
<path d="M157.8 31.7657C164.034 31.2817 168.453 36.6806 168.83 41.9359C169.355 49.2764 163.758 53.8402 158.935 54.2923C151.544 54.9838 147.305 48.6115 147.04 43.1434C146.775 37.6859 151.518 31.0902 157.794 31.7657H157.8ZM160.399 50.8189C160.919 50.771 161.598 51.0476 161.869 50.3827C162.803 48.0742 164.315 46.1381 165.519 44.0051C166.076 43.0157 166.028 42.0902 165.063 41.4466C162.208 39.5423 159.343 37.654 156.447 35.8189C155.428 35.1753 154.462 35.2498 153.762 36.4785C152.743 38.2764 151.725 40.0795 150.6 41.803C149.374 43.6753 150.138 44.4891 151.47 45.3615C153.359 46.6008 155.269 47.7976 157.094 49.1593C158.044 49.8668 158.951 51.0476 160.405 50.8083L160.399 50.8189Z" fill="white"/>
<path d="M108.341 27.4839C107.195 24.5903 105.354 24.0158 102.526 24.4786C98.7646 25.0956 98.8813 25.9573 98.1544 21.1381C97.73 18.3084 97.6981 15.4094 97.5071 12.5424C97.4329 11.3988 97.9369 10.9413 99.0723 10.8403C102.669 10.5264 106.272 10.202 109.853 9.67006C111.652 9.40411 113.493 9.43602 115.313 9.29772C116.246 9.22857 116.549 9.7924 116.565 10.6062C116.607 12.2977 117.021 13.9413 117.138 15.6169C117.27 17.5158 117.599 19.3988 117.514 21.319C117.477 22.1701 117.339 22.5424 116.432 22.7658C114.771 23.1701 113.084 23.3669 111.408 23.5318C109.996 23.6701 109.487 24.4786 109.121 25.6754C108.946 26.2392 108.659 26.7605 108.336 27.4892L108.341 27.4839ZM114.379 19.1381C110.203 19.1913 106.086 19.7392 102.001 20.6009C106.176 20.5424 110.336 20.3562 114.379 19.1381ZM101.386 14.3616C101.401 14.553 101.423 14.7445 101.439 14.9307C105.54 14.8775 109.577 14.2392 113.61 13.5743C113.588 13.3828 113.567 13.1967 113.551 13.0052C109.498 13.4573 105.444 13.9094 101.386 14.3616ZM110.92 16.5371C107.779 16.1967 104.94 17.1062 102.038 17.1488C101.768 17.1488 101.396 17.085 101.423 17.5796C101.449 18.1381 101.868 18.0956 102.181 18.0318C104.16 17.6594 106.161 17.553 108.155 17.3722C109.015 17.2924 109.975 17.2764 110.914 16.5371H110.92Z" fill="#9FB8F9"/>
<path d="M13.0055 99.2607C13.1806 100.266 12.4538 100.665 11.8383 100.686C11.138 100.713 10.6393 100.075 10.6446 99.2607C10.6446 98.4947 11.0584 97.8883 11.7906 98.0213C12.3424 98.1224 13.292 98.1649 13.0002 99.2607H13.0055Z" fill="#CEDCFC"/>
<path d="M108.299 157.894C108.373 157.979 108.448 158.058 108.522 158.144C108.304 158.202 108.262 158.085 108.299 157.894Z" fill="#0C0D10"/>
<path d="M53.9486 124.511C53.869 124.038 53.991 123.623 54.2775 123.256C54.4738 123.229 54.6914 123.186 54.6808 122.931C54.6701 122.681 54.4473 122.649 54.251 122.623C52.7177 119.16 51.7945 115.548 51.7627 111.708C51.9006 111.085 51.6725 110.399 52.0545 109.814C52.4789 108.123 52.8822 106.42 53.6621 104.857C55.0681 103.298 56.6491 102.059 58.6917 101.5C60.5646 100.99 62.4693 101.186 64.3581 101.006C64.634 100.926 64.9046 100.825 65.1857 100.772C70.3693 99.8088 72.465 96.8088 73.5632 91.3992C74.0354 89.8939 74.0832 88.3248 74.1893 86.7716C74.2742 85.5109 74.0142 84.1971 74.5341 83.0109C75.1973 81.5109 75.192 79.8939 75.4467 78.3194C77.0384 75.1067 78.6672 71.9258 81.4101 69.5694C82.4978 68.8407 83.5854 68.1067 84.6677 67.3779C86.4769 66.8513 88.249 66.245 90.1961 66.3833C91.1883 66.4524 91.9788 67.2716 92.9975 67.0162C93.4962 67.5109 94.0586 67.8194 94.7695 67.7077C95.2576 67.995 95.6237 68.4258 96.1118 68.745C97.9847 69.9577 99.7727 71.346 100.972 73.3513C101.794 74.729 102.696 76.0854 102.558 77.8513C102.452 79.2556 101.486 79.9258 100.553 80.6705C100.425 80.7716 100.5 81.1545 100.478 81.4099L100.139 81.7875C99.4809 81.495 99.136 81.979 98.7752 82.3992C98.181 83.0854 97.9051 83.9631 97.4754 84.745C97.0403 85.5216 96.6636 86.9045 95.5707 85.2396C95.2311 84.7184 94.4989 84.5322 94.0374 84.6333C93.4219 84.7662 93.5652 85.5588 93.6023 86.1067C93.719 87.7662 94.5149 88.9471 96.1808 89.6811C94.4194 89.5907 94.9234 90.4843 95.2046 91.346C95.6025 92.5747 96.1118 93.7609 96.5469 94.963C97.0244 96.2928 97.7247 96.6545 98.9238 96.3833C99.0405 96.5056 99.1625 96.6279 99.2792 96.7503C98.9344 97.3726 97.3374 96.7769 97.8414 98.096C98.9503 100.984 99.4172 104.064 100.484 106.958C100.484 107.319 100.372 107.718 100.759 107.963C100.929 111.277 101.99 114.527 101.619 117.873C101.046 123.032 99.9424 128.048 96.3983 131.984C94.4194 134.186 91.8037 135.309 89.0289 136.107C85.4583 137.133 81.8452 137.532 78.1419 137.74C74.9267 137.915 71.7752 138.091 68.698 137.069C62.6179 135.048 58.5061 130.591 55.3758 124.979C55.1476 124.569 55.1423 123.841 54.442 124.506C54.2722 124.506 54.1077 124.516 53.938 124.522L53.9486 124.511Z" fill="black"/>
<path d="M100.489 81.409C100.51 81.1537 100.431 80.7707 100.563 80.6696C101.497 79.9249 102.463 79.2547 102.569 77.8505C102.707 76.0792 101.805 74.7281 100.982 73.3505C99.7834 71.3452 97.9954 69.9569 96.1226 68.7441C95.6345 68.4303 95.2631 67.9941 94.7803 67.7069C95.8202 67.159 95.3851 66.0207 95.5761 65.1909C95.7936 64.2441 96.0536 63.9303 96.9927 63.9143C120.47 63.5473 143.952 63.6484 167.429 63.5898C168.485 63.5898 168.83 63.7973 168.559 64.9622C168.246 66.3079 168.124 67.7069 167.917 69.0792C149.815 69.0898 131.712 69.1005 113.604 69.1111C113.058 69.1111 112.506 69.0845 111.965 69.1377C110.405 69.3026 109.036 70.5473 108.84 72.1377C108.495 74.9196 108.267 77.7175 107.943 80.5047C107.598 83.4356 107.323 86.3877 106.792 89.2867C106.15 92.792 107.079 94.1537 110.442 94.1537C116.857 94.1537 123.276 94.159 129.691 94.143C130.216 94.143 130.789 94.3505 131.256 93.8984C132.216 93.8984 133.177 93.8984 134.137 93.8984C133.182 97.6377 132.619 101.468 131.834 105.244C131.511 106.797 131.049 108.319 130.651 109.856C123.404 109.856 116.162 109.845 108.914 109.845C108.485 109.845 108.012 109.712 107.636 110.085C106.076 109.35 104.521 108.616 102.956 107.882C102.579 107.707 102.266 107.664 102.378 108.276L102.431 108.265C102.728 106.93 101.402 107.59 101.062 107.047C100.871 107.015 100.68 106.989 100.489 106.957C99.4226 104.069 98.9557 100.983 97.8469 98.0952C97.3376 96.776 98.9398 97.3718 99.2847 96.7494C99.9001 96.3026 100.266 95.7388 100.59 94.9888C101.37 93.1962 101.678 91.2867 101.847 89.3984C102.097 86.6537 102.097 83.8505 100.484 81.409H100.489Z" fill="#CEDCFC"/>
<path d="M101.068 107.042C101.412 107.59 102.734 106.93 102.436 108.26C102.155 108.228 101.816 108.382 101.646 107.994C101.54 107.616 101.009 107.526 101.062 107.042H101.068Z" fill="black"/>
<path d="M101.067 107.042C101.009 107.526 101.544 107.617 101.651 107.994C101.359 107.978 101.067 107.968 100.775 107.952C100.388 107.707 100.499 107.313 100.499 106.946C100.69 106.978 100.881 107.005 101.072 107.037L101.067 107.042Z" fill="#0C0D10"/>
<path d="M53.8315 130.559C56.15 133.814 58.3783 136.798 61.4715 138.899C61.9437 139.223 61.811 139.484 61.6678 139.883C60.7128 142.553 61.0311 143.984 63.1905 145.282C64.4214 146.021 64.1242 147.075 63.9863 148.005C63.7688 149.458 63.4557 150.904 63.4664 152.378C63.4717 153.431 62.9517 153.734 62.1718 153.489C58.9089 152.479 55.5027 151.92 52.4308 150.277C50.038 149 48.0802 144.67 49.396 141.489C50.871 137.931 52.2929 134.346 53.8262 130.559H53.8315Z" fill="white"/>
<path d="M64.544 139.452C64.9154 141.229 64.1461 142.713 64.3371 144.266C64.4273 145.011 63.8702 144.824 63.5466 144.691C62.1831 144.133 61.4668 141.516 62.252 140.202C62.8356 139.223 63.8914 140.245 64.5493 139.452H64.544Z" fill="#CEDCFC"/>
<path d="M143.676 26.8991C143.289 27.0747 142.981 27.3406 142.678 27.33C141.347 27.2928 140.296 27.5002 139.458 28.8885C138.8 29.9789 137.415 29.7768 136.874 28.6917C136.222 27.3779 135.325 27.3406 134.221 27.4045C133.086 27.4683 132.54 27.2768 133.415 25.9736C134.386 24.5268 134.328 22.7502 134.476 21.0747C134.534 20.4417 134.593 19.846 134.985 19.346C135.776 18.3247 136.657 17.4045 136.996 16.0428C137.256 14.9949 138.259 15.1598 139.018 15.2502C139.845 15.346 139.946 16.0587 139.867 16.7874C139.808 17.2981 139.983 17.6013 140.434 17.8991C141.766 18.7768 142.312 20.1119 142.254 21.7449C142.19 23.564 142.392 25.3194 143.676 26.9045V26.8991ZM137.028 27.4045C137.208 28.0906 137.569 28.3725 138.126 28.3353C138.535 28.3087 139.166 28.5162 139.198 27.8725C139.23 27.1438 138.567 27.4736 138.201 27.4204C137.829 27.3672 137.447 27.4098 137.028 27.4098V27.4045Z" fill="#407BFF"/>
<path d="M131.25 93.8934C130.783 94.3455 130.205 94.138 129.685 94.138C123.271 94.154 116.851 94.1487 110.436 94.1487C107.067 94.1487 106.144 92.7817 106.786 89.2817C107.317 86.3827 107.598 83.4359 107.937 80.4997C108.261 77.7125 108.489 74.9146 108.834 72.1327C109.03 70.5423 110.399 69.2976 111.959 69.1327C112.5 69.0742 113.052 69.1061 113.599 69.1061C131.701 69.0955 149.804 69.0849 167.911 69.0742C168.713 69.0742 169.519 69.0742 170.32 69.0742C171.259 69.1327 172.251 68.9785 172.984 69.8295C172.883 70.0529 172.787 70.2763 172.692 70.4997C172.167 70.1168 171.641 69.8508 170.941 69.8561C151.411 69.8827 131.881 69.8827 112.346 69.8668C110.919 69.8668 109.943 70.4944 109.736 71.9625C109.184 75.8774 108.717 79.8083 108.229 83.7391C107.985 85.7125 107.906 87.7125 107.524 89.654C106.956 92.521 107.598 93.4678 110.426 93.4678C116.835 93.4678 123.249 93.4572 129.658 93.4891C130.189 93.4891 130.868 93.1274 131.245 93.8987L131.25 93.8934Z" fill="#0C0D10"/>
<path d="M172.692 70.5003C172.787 70.2769 172.888 70.0535 172.984 69.8301C173.668 70.596 173.939 71.362 173.726 72.5216C173.323 74.7184 173.318 76.995 172.973 79.2077C172.517 82.112 172.586 85.0801 171.848 87.9471C171.61 88.8726 171.684 89.8673 171.588 90.8194C171.344 93.2024 169.827 94.1226 167.763 94.1333C167.121 94.1333 166.479 94.1918 165.837 94.2237C165.041 94.0801 164.245 94.0801 163.45 94.2237C158.595 94.1918 153.746 94.1705 148.891 94.1226C148.366 94.1226 147.804 94.3248 147.315 93.9365C147.315 93.8301 147.326 93.729 147.331 93.6226C147.867 93.5748 148.408 93.495 148.944 93.495C155.199 93.4843 161.449 93.495 167.705 93.4843C169.535 93.4843 170.602 92.7662 170.856 91.1865C171.238 88.7822 171.541 86.3673 171.801 83.9418C172.145 80.6652 172.474 77.3886 172.962 74.128C173.138 72.9684 173.313 71.6652 172.697 70.5003H172.692Z" fill="black"/>
<path d="M53.6678 104.861C52.8879 106.425 52.4846 108.127 52.0602 109.819C47.2852 109.819 42.5155 109.829 37.7405 109.819C36.1382 109.819 36.1754 109.633 36.6157 108C37.1622 105.978 37.4009 103.867 37.7723 101.798C39.2526 93.5369 40.7381 85.2762 42.2131 77.0156C42.9293 73.0103 43.6986 69.0156 44.2929 64.989C44.4733 63.7709 44.9773 63.5954 45.9535 63.6007C53.5617 63.622 61.1698 63.6113 68.778 63.6113C76.3331 63.6113 83.8935 63.6113 91.4486 63.6113C92.9342 63.6113 93.5514 64.3454 93.3003 65.8135C93.2313 66.2177 93.104 66.6113 93.0032 67.0103C91.9845 67.2656 91.194 66.4518 90.2018 66.3773C88.2547 66.239 86.4826 66.8454 84.6734 67.372C81.8986 67.3667 79.1185 67.3773 76.3437 67.3454C75.4895 67.3347 74.9324 67.7656 74.9324 68.5688C74.9324 69.4039 75.6593 69.5475 76.3543 69.5475C78.0415 69.5475 79.7234 69.5581 81.4105 69.5635C78.6676 71.9198 77.0387 75.1007 75.4471 78.3135C75.341 78.2071 75.203 78.122 75.1288 77.9996C72.147 73.0316 68.0511 71.7816 63.1435 73.1752C56.6973 75.0103 52.6916 82.6326 54.5485 89.372C54.8562 90.489 55.2329 91.6645 56.2993 92.3401C56.6919 92.9305 57.0421 93.5156 57.6098 93.9943C60.8038 96.6964 65.218 97.5422 69.2555 94.8667C70.4227 94.0954 71.8022 93.473 72.4335 92.005C72.9429 92.0741 73.1869 91.5954 73.5636 91.3933C72.4654 96.8028 70.3697 99.8081 65.1861 100.766C64.9049 100.819 64.6344 100.92 64.3585 101C64.1728 100.276 63.5998 100.457 63.1329 100.457C59.5092 100.446 55.8908 100.457 52.2671 100.441C51.6994 100.441 51.1742 100.574 50.6861 100.803C49.6303 101.292 49.2695 102.255 49.4658 103.367C49.6515 104.393 50.5216 104.516 51.3333 104.489C52.1398 104.468 52.9091 104.601 53.6678 104.851V104.861Z" fill="#CEDCFC"/>
<path d="M147.316 93.9356C147.804 94.3239 148.366 94.1164 148.891 94.1217C153.746 94.1696 158.595 94.1909 163.45 94.2228C164.219 95.3292 163.418 96.5313 163.211 97.4143C162.405 100.872 161.874 104.366 161.375 107.866C161.163 109.34 160.686 109.909 159.131 109.882C153.12 109.771 147.109 109.824 141.097 109.85C140.042 109.85 139.039 109.797 138.121 109.202C137.819 107.031 138.487 104.957 138.731 102.84C138.79 102.324 139.246 102.037 139.665 101.76C142.434 99.9356 143.496 97.1909 143.501 93.8877C144.663 93.893 145.825 93.8983 146.992 93.9037C147.098 93.9143 147.204 93.9196 147.31 93.9302L147.316 93.9356Z" fill="#CEDCFC"/>
<path d="M146.997 93.9097C145.836 93.9044 144.674 93.8991 143.506 93.8938C143.098 92.3353 143.13 90.6491 142.249 89.2342C142.742 88.7023 143.379 88.9363 143.947 88.9363C150.557 88.9204 157.168 88.9257 163.779 88.9257C164.225 88.9257 164.691 88.9789 165.116 88.8725C165.715 88.7182 166.267 88.3193 166.299 87.6438C166.326 87.0693 165.753 86.8512 165.302 86.6172C164.782 86.3459 164.23 86.431 163.689 86.4257C155.736 86.4151 147.783 86.4151 139.83 86.4097C139.957 85.4789 140.084 84.5427 140.206 83.6119C145.92 83.6119 151.634 83.6119 157.349 83.6065C157.746 83.6065 158.16 83.6704 158.537 83.5693C159.259 83.3725 160.129 83.0959 160.076 82.1597C160.023 81.1651 159.168 81.1065 158.378 81.1065C149.236 81.1172 140.095 81.1172 130.948 81.1065C130.089 81.1065 129.213 81.2129 129.171 82.2768C129.118 83.4789 130.11 83.5853 130.969 83.6065C132.657 83.6385 134.349 83.6065 136.036 83.6225C136.514 83.6225 137.081 83.4842 137.193 84.2448C137.134 85.0268 136.901 85.7502 136.524 86.4257C134.444 86.431 132.365 86.3565 130.29 86.4842C129.415 86.5374 128.195 86.7076 128.279 88.0427C128.37 89.3885 129.547 88.8299 130.301 88.9204C130.938 88.9948 131.59 88.8831 132.227 88.947C133.383 89.0587 134.588 88.5959 135.697 89.2555C135.15 90.798 134.376 92.2555 134.121 93.9097C133.161 93.9097 132.2 93.9097 131.24 93.9097C130.863 93.1438 130.184 93.5055 129.654 93.5002C123.244 93.4736 116.83 93.4842 110.421 93.4789C107.593 93.4789 106.951 92.5321 107.519 89.6651C107.901 87.7236 107.98 85.7236 108.224 83.7502C108.707 79.8246 109.174 75.8938 109.731 71.9736C109.938 70.5055 110.914 69.8725 112.342 69.8778C131.871 69.8885 151.401 69.8885 170.936 69.8672C171.642 69.8672 172.162 70.1331 172.687 70.5108C173.302 71.6757 173.127 72.9789 172.952 74.1385C172.464 77.3991 172.135 80.6757 171.79 83.9523C171.536 86.3725 171.233 88.7927 170.846 91.197C170.591 92.7768 169.525 93.4895 167.694 93.4948C161.439 93.5002 155.189 93.4948 148.934 93.5055C148.398 93.5055 147.857 93.5906 147.321 93.6331C147.109 93.6012 147.024 93.7342 146.987 93.9204L146.997 93.9097ZM147.926 77.9895C153.194 77.9895 158.468 77.9895 163.736 77.9842C164.225 77.9842 164.739 77.9576 165.201 77.814C165.742 77.6438 166.204 77.2821 166.124 76.5746C166.05 75.9097 165.593 75.5906 165.01 75.5108C164.569 75.4523 164.118 75.4789 163.667 75.4789C153.476 75.4789 143.284 75.4789 133.086 75.4789C132.688 75.4789 132.285 75.431 131.893 75.4948C131.038 75.6331 130.041 75.8565 130.099 76.9576C130.158 78.0534 131.15 77.9895 131.956 77.9895C137.278 77.9895 142.599 77.9895 147.915 77.9895H147.926ZM118.777 74.8619C115.074 74.8406 112.437 77.7023 112.416 81.7821C112.395 84.9842 115.403 87.9523 118.666 87.9576C122.098 87.9576 124.948 85.1172 124.841 81.4523C124.725 77.298 122.178 74.9629 118.782 74.8619H118.777Z" fill="white"/>
<path d="M138.243 90.3884C138.673 90.2607 138.885 90.2448 139.039 90.1437C139.665 89.7288 140.127 88.6969 140.96 89.0799C141.968 89.5426 142.461 90.7341 142.493 91.7554C142.567 94.0799 142.949 96.4575 141.671 98.6703C141.082 99.6969 140.328 100.479 139.405 101.011C138.201 101.702 137.898 102.75 137.76 104.016C137.437 106.989 136.991 109.958 136.668 112.926C136.365 115.702 136.052 118.484 135.702 121.261C135.362 123.968 134.837 126.654 134.397 129.351C134.047 131.521 132.715 132.649 130.757 133.138C126.083 134.309 121.372 133.958 116.655 133.511C115.986 133.447 116.045 133.037 116.331 132.585C118.087 129.803 119.271 126.723 119.695 123.473C119.928 121.692 120.411 121.42 121.939 121.649C125.69 122.213 127.351 119.378 128.837 116.569C130.831 112.798 131.972 108.697 132.725 104.468C133.044 102.676 133.569 100.926 133.887 99.1384C134.333 96.6597 134.54 94.0958 135.463 91.766C136.418 89.3458 137.394 86.9522 137.882 84.3671C137.946 84.0373 138.169 83.7129 138.387 83.4469C138.652 83.1331 139.076 83.2182 139.363 83.3511C139.66 83.4841 139.538 83.8352 139.469 84.1543C139.05 86.165 138.673 88.1916 138.249 90.3884H138.243Z" fill="white"/>
<path d="M129.733 112.616C128.799 115.553 127.579 118.255 125.08 120.202C123.462 121.462 121.822 121.015 120.199 120.654C119.711 120.547 119.451 119.537 118.978 119.058C117.084 117.127 115.137 115.255 112.951 113.664C112.352 113.228 111.795 112.739 111.222 112.271C111.397 112.186 111.572 112.021 111.747 112.021C117.456 112.005 123.164 112.005 128.868 111.994C129.308 111.994 129.658 112.079 129.733 112.611V112.616Z" fill="#CEDCFC"/>
<path d="M137.198 84.2281C137.086 83.4675 136.519 83.6058 136.041 83.6058C134.354 83.5952 132.662 83.6271 130.974 83.5898C130.115 83.5739 129.123 83.4675 129.176 82.2601C129.224 81.1962 130.094 81.0898 130.953 81.0898C140.095 81.1005 149.236 81.1005 158.383 81.0898C159.173 81.0898 160.028 81.1484 160.081 82.143C160.134 83.0792 159.269 83.3558 158.542 83.5526C158.171 83.6537 157.752 83.5898 157.354 83.5898C151.64 83.5898 145.925 83.5898 140.211 83.5952C140.211 82.7441 139.882 82.2069 138.996 82.3345C138.28 82.4356 137.537 82.5686 137.49 83.5845C137.479 83.8398 137.474 84.0952 137.198 84.2122V84.2281Z" fill="#CEDCFC"/>
<path d="M139.835 86.4043C147.788 86.4043 155.741 86.4096 163.694 86.4203C164.235 86.4203 164.787 86.3351 165.307 86.6117C165.753 86.8458 166.331 87.0639 166.304 87.6383C166.273 88.3139 165.721 88.7128 165.121 88.8671C164.697 88.9734 164.23 88.9203 163.784 88.9203C157.174 88.9203 150.563 88.9203 143.952 88.9309C143.384 88.9309 142.748 88.6968 142.254 89.2288C141.835 88.6543 141.161 88.133 140.604 88.3724C138.885 89.1064 139.416 88.0532 139.628 87.1862C139.692 86.9256 139.442 86.5692 139.84 86.4043H139.835Z" fill="#CEDCFC"/>
<path d="M129.733 112.617C129.659 112.08 129.309 111.995 128.869 112C123.16 112.011 117.451 112.011 111.748 112.027C111.572 112.027 111.397 112.186 111.222 112.277C110.029 111.543 108.835 110.814 107.636 110.08C108.012 109.707 108.479 109.84 108.914 109.84C116.162 109.84 123.404 109.84 130.651 109.851C130.524 110.84 130.174 111.745 129.733 112.622V112.617Z" fill="#9FB8F9"/>
<path d="M135.707 89.239C134.598 88.5795 133.394 89.0422 132.237 88.9305C131.601 88.8667 130.943 88.9784 130.311 88.9039C129.563 88.8188 128.38 89.372 128.29 88.0263C128.2 86.6912 129.42 86.5156 130.301 86.4678C132.375 86.3454 134.455 86.4146 136.535 86.4092C136.381 87.3933 136.243 88.3773 135.712 89.239H135.707Z" fill="#CEDCFC"/>
<path d="M54.2559 122.622C54.4469 122.654 54.675 122.681 54.6856 122.931C54.6962 123.186 54.4787 123.228 54.2824 123.255C54.2771 123.042 54.2665 122.835 54.2612 122.622H54.2559Z" fill="#0C0D10"/>
<path d="M47.3483 58.0108C35.7715 58.1012 26.5823 47.6757 26.6301 36.1172C26.6725 24.8778 35.8246 14.3885 47.6295 14.5108C58.4263 14.6225 68.3158 23.6864 68.1991 36.4842C68.0877 48.7342 58.6756 58.0853 47.3536 58.0108H47.3483ZM63.4612 27.7874C64.0236 26.2183 64.0077 26.197 62.2622 26.1172C61.0844 23.7395 59.1425 22.1172 57.1688 20.5321C57.3652 18.9257 56.2828 19.3193 55.4499 19.3353C54.9246 19.197 54.394 19.0906 53.8794 18.9204C52.2453 18.3725 50.6483 17.6385 48.8763 17.7236C48.8073 16.5693 48.229 16.0853 47.1254 16.1598C46.3455 16.213 45.937 16.6491 45.8574 17.3778C45.7407 18.4736 46.372 18.9576 47.3377 19.08C47.3377 21.5215 47.3164 23.963 47.3695 26.4044C47.3907 27.2555 47.0724 28.1704 47.6295 28.9683C46.9928 30.9364 47.083 33.181 45.3481 34.7395C44.6637 35.3512 44.6796 36.5215 45.1305 37.3353C45.555 38.1013 46.1757 38.6917 47.2634 38.713C48.1706 38.7289 48.9877 38.3406 49.9692 38.5321C51.2372 38.7768 52.5212 39.0959 53.7627 39.3725C57.4076 40.1864 61.0631 40.213 64.7399 40.213C65.1272 40.213 65.732 40.4842 65.8275 39.7821C65.9018 39.213 65.4774 39.0481 64.9999 38.9098C62.1667 38.1066 59.36 37.197 56.511 36.4683C54.463 35.947 52.3673 35.6491 50.2928 35.2555C50.5422 34.5374 51.2266 34.5321 51.7572 34.3406C55.4392 33.0002 59.1213 31.6491 62.8405 30.4044C63.9387 30.0374 64.151 29.5268 63.6841 28.5215C63.578 28.2927 63.5355 28.0321 63.4665 27.7821L63.4612 27.7874ZM65.2386 34.8991C64.3791 34.8087 63.8008 35.1864 63.7637 36.1278C63.7265 37.0906 64.3207 37.6491 65.1696 37.7023C66.0716 37.7555 66.6817 37.08 66.687 36.2076C66.6923 35.4151 66.2148 34.7608 65.2386 34.8991ZM29.3041 34.8725C28.4287 34.697 27.9936 35.5002 27.9936 36.2927C27.9936 37.0534 28.625 37.6651 29.4526 37.7183C30.4076 37.7768 30.9488 37.2715 30.9276 36.2342C30.9063 35.2821 30.3652 34.8778 29.3094 34.8672L29.3041 34.8725ZM47.3164 53.6278C46.372 53.5747 45.8415 54.0427 45.8627 54.9576C45.8839 55.7342 46.4994 56.4364 47.1148 56.3672C47.7674 56.2874 48.924 56.2661 48.802 55.0108C48.7171 54.1438 48.3033 53.4523 47.3164 53.6332V53.6278ZM39.2785 20.213C39.3316 19.6598 39.2944 19.2076 38.5517 19.2661C37.9627 19.314 37.464 19.4044 37.4852 20.181C37.5012 20.8725 37.8832 21.1278 38.5198 21.181C39.2626 21.2395 39.2944 20.7715 39.2785 20.213ZM55.9645 51.7661C55.6249 51.8193 55.3544 52.1491 55.3809 52.7715C55.4074 53.431 55.7576 53.6598 56.3465 53.6172C56.9513 53.5747 57.2219 53.2236 57.206 52.6119C57.1901 51.9364 56.7656 51.7608 55.9592 51.7661H55.9645ZM39.3103 52.0321C39.2626 51.7449 38.9761 51.3885 38.4615 51.4896C37.9044 51.6013 37.4375 51.9523 37.5012 52.6438C37.5542 53.2342 37.9893 53.3353 38.4774 53.3087C39.114 53.2715 39.321 52.8778 39.3103 52.0321ZM32.4131 26.0853C31.49 26.1757 30.9647 26.2183 30.9329 26.8991C30.901 27.564 31.3414 27.7076 31.8932 27.7342C32.5086 27.7661 32.7368 27.5481 32.7527 26.8725C32.7686 26.213 32.5192 26.0693 32.4131 26.0853ZM32.7474 45.6278C32.8163 44.6757 32.254 44.8938 31.872 44.8938C31.4051 44.8938 30.8533 44.814 30.917 45.6332C30.97 46.2981 31.3414 46.4683 31.9038 46.4523C32.5192 46.431 32.7527 46.064 32.7527 45.6332L32.7474 45.6278ZM63.7743 45.4789C63.6257 44.9576 63.196 44.8938 62.676 44.8619C62.0606 44.8247 61.912 45.1066 61.9492 45.6704C61.9969 46.3566 62.4107 46.4895 62.9572 46.447C63.4772 46.4098 63.7424 46.1119 63.7743 45.4789Z" fill="white"/>
<path d="M160.394 50.8138C158.946 51.0532 158.038 49.8723 157.089 49.1649C155.264 47.8085 153.354 46.6117 151.465 45.367C150.133 44.4947 149.375 43.6809 150.595 41.8085C151.725 40.0851 152.738 38.2819 153.757 36.484C154.457 35.25 155.423 35.1755 156.442 35.8245C159.338 37.6596 162.203 39.5479 165.058 41.4521C166.023 42.0958 166.071 43.0213 165.514 44.0106C164.31 46.1436 162.798 48.0798 161.864 50.3883C161.593 51.0532 160.914 50.7713 160.394 50.8192V50.8138ZM165.243 42.883C165.265 42.3777 164.914 42.1596 164.575 41.9362C161.736 40.0745 158.893 38.2234 156.06 36.3511C155.423 35.9309 154.898 36.0585 154.526 36.6702C153.295 38.7128 152.112 40.7872 150.876 42.8245C150.547 43.3617 150.494 43.8085 151.019 44.1489C153.99 46.0851 156.983 47.9947 159.959 49.9255C160.283 50.133 160.564 50.3192 160.856 49.9255C162.485 47.75 163.795 45.3511 165.222 43.0372C165.249 43 165.238 42.9362 165.243 42.883Z" fill="#0C0D10"/>
<path d="M114.379 19.1377C110.336 20.3558 106.176 20.542 102.001 20.6005C106.086 19.7388 110.203 19.1909 114.379 19.1377Z" fill="#0C0D10"/>
<path d="M101.386 14.3613C105.439 13.9091 109.493 13.457 113.551 13.0049C113.573 13.1964 113.594 13.3825 113.61 13.574C109.578 14.2389 105.54 14.8772 101.439 14.9304C101.423 14.7389 101.402 14.5474 101.386 14.3613Z" fill="#0C0D10"/>
<path d="M110.919 16.5372C109.98 17.2766 109.015 17.2925 108.16 17.3723C106.166 17.5532 104.165 17.6596 102.186 18.0319C101.868 18.0904 101.454 18.1383 101.428 17.5798C101.406 17.0851 101.773 17.1542 102.043 17.1489C104.94 17.1064 107.778 16.2021 110.925 16.5372H110.919Z" fill="#0C0D10"/>
<path d="M73.5636 91.4044C73.1869 91.6066 72.9428 92.0853 72.4335 92.0162C69.2767 89.6172 65.8758 88.58 61.9816 89.7502C59.9655 90.3566 58.1032 91.2662 56.3046 92.3513C55.2329 91.681 54.8615 90.5002 54.5538 89.3832C52.6968 82.6438 56.6972 75.0215 63.1488 73.1864C68.0564 71.7874 72.1523 73.0428 75.134 78.0108C75.2083 78.1385 75.3463 78.2236 75.4524 78.3247C75.1977 79.8991 75.203 81.5162 74.5398 83.0162C74.0146 84.2023 74.2745 85.5162 74.195 86.7768C74.0941 88.33 74.0411 89.8991 73.5689 91.4044H73.5636ZM65.7697 78.6066C63.0374 78.6066 61.0531 80.6385 61.0584 83.4417C61.0584 85.6279 62.735 87.3725 64.8253 87.3566C67.2977 87.3406 69.404 85.0959 69.4359 82.4364C69.4624 79.9949 68.136 78.6066 65.7697 78.6066Z" fill="white"/>
<path d="M98.9348 96.3775C97.7357 96.6488 97.0354 96.2817 96.5579 94.9573C96.1228 93.7552 95.6135 92.569 95.2156 91.3403C94.9344 90.4786 94.4303 89.5849 96.1918 89.6754C94.5258 88.9413 93.7247 87.7605 93.6133 86.1009C93.5762 85.553 93.4329 84.7605 94.0483 84.6275C94.5099 84.5264 95.2368 84.7126 95.5817 85.2339C96.6746 86.9041 97.0513 85.5211 97.4863 84.7392C97.9214 83.9573 98.1973 83.0796 98.7862 82.3934C99.147 81.9732 99.4918 81.4892 100.15 81.7817C101.206 84.3881 101.264 87.1647 101.02 89.8775C100.813 92.1541 100.633 94.569 98.9348 96.3775Z" fill="white"/>
<path d="M53.6671 104.862C52.9084 104.612 52.1391 104.479 51.3327 104.5C50.5209 104.527 49.6508 104.404 49.4651 103.378C49.2635 102.266 49.6296 101.303 50.6854 100.814C51.1735 100.585 51.7041 100.447 52.2665 100.452C55.8902 100.473 59.5086 100.458 63.1323 100.468C63.5991 100.468 64.1721 100.293 64.3578 101.011C62.4744 101.192 60.5644 100.995 58.6915 101.505C56.6489 102.064 55.0678 103.303 53.6618 104.862H53.6671Z" fill="white"/>
<path d="M81.4097 69.5689C79.7226 69.5635 78.0407 69.5476 76.3535 69.5529C75.6585 69.5529 74.9316 69.4093 74.9316 68.5742C74.9316 67.7657 75.4887 67.3401 76.3429 67.3508C79.1177 67.3827 81.8978 67.3721 84.6726 67.3774C83.585 68.1061 82.4974 68.8401 81.415 69.5689H81.4097Z" fill="#9FB8F9"/>
<path d="M98.9346 96.3777C100.632 94.5692 100.818 92.1543 101.02 89.8777C101.264 87.1596 101.205 84.3883 100.15 81.782L100.489 81.4043C102.107 83.8458 102.107 86.6437 101.853 89.3937C101.683 91.2766 101.375 93.1862 100.595 94.9841C100.272 95.7341 99.9002 96.2979 99.29 96.7447C99.1733 96.6224 99.0513 96.5 98.9346 96.3777Z" fill="#0C0D10"/>
<path d="M137.028 27.4038C137.447 27.4038 137.829 27.3613 138.201 27.4144C138.572 27.4676 139.235 27.1432 139.198 27.8666C139.166 28.5102 138.535 28.3027 138.127 28.3293C137.564 28.3666 137.203 28.09 137.028 27.3985V27.4038Z" fill="white"/>
<path d="M146.997 93.9093C147.034 93.7178 147.119 93.5902 147.331 93.6221C147.331 93.7285 147.321 93.8295 147.315 93.9359C147.209 93.9253 147.103 93.92 146.997 93.9093Z" fill="#0C0D10"/>
<path d="M56.2992 92.351C58.0978 91.2659 59.9601 90.3563 61.9762 89.7499C65.8652 88.5797 69.2713 89.617 72.4281 92.0159C71.7968 93.484 70.4173 94.1063 69.2501 94.8776C65.2126 97.5531 60.7984 96.7074 57.6044 94.0052C57.042 93.5265 56.6866 92.9414 56.2939 92.351H56.2992Z" fill="#9FB8F9"/>
<path d="M147.926 77.9839C142.604 77.9839 137.283 77.9839 131.967 77.9839C131.16 77.9839 130.163 78.0531 130.11 76.952C130.052 75.8509 131.049 75.6275 131.903 75.4892C132.29 75.4254 132.699 75.4733 133.097 75.4733C143.289 75.4733 153.481 75.4733 163.678 75.4733C164.124 75.4733 164.58 75.4467 165.02 75.5052C165.609 75.585 166.06 75.9041 166.135 76.569C166.214 77.2712 165.753 77.6382 165.211 77.8084C164.75 77.952 164.235 77.9786 163.747 77.9786C158.479 77.9893 153.205 77.9839 147.937 77.9839H147.926Z" fill="#9FB8F9"/>
<path d="M118.777 74.8614C122.172 74.9625 124.719 77.2976 124.836 81.4519C124.942 85.1168 122.093 87.9625 118.66 87.9572C115.397 87.9572 112.389 84.9838 112.41 81.7817C112.437 77.7019 115.068 74.8402 118.772 74.8614H118.777ZM121.058 83.3295C121.7 83.2923 122.353 83.2019 122.968 83.4625C123.6 83.7285 124.003 83.4572 124.008 82.8189C124.019 81.4891 124.268 80.1434 123.632 78.8455C122.411 76.3614 120.31 75.3348 117.228 75.8189C115.365 76.1114 113.27 78.5636 113.004 80.7604C112.867 81.888 113.031 83.037 113.779 83.7976C114.41 84.4465 115.1 83.4572 115.795 83.3614C116.14 83.3136 116.485 83.2763 116.83 83.2285C116.729 84.5529 117.435 85.3508 118.57 85.42C120.586 85.5423 121.042 85.0583 121.058 83.3189V83.3295Z" fill="#407BFF"/>
<path d="M48.8766 17.7236C50.6487 17.6385 52.2404 18.3725 53.8798 18.9204C54.3944 19.0906 54.925 19.197 55.4502 19.3353C55.3919 20.931 55.7155 21.1597 57.1692 20.5321C59.1429 22.1172 61.0847 23.7395 62.2626 26.1172C61.3659 27.6863 62.4801 27.6917 63.4616 27.7874C63.5306 28.0321 63.573 28.298 63.6791 28.5268C64.146 29.5321 63.9338 30.0427 62.8356 30.4097C59.1217 31.6491 55.4396 33.0002 51.7523 34.3459C51.2217 34.5374 50.5373 34.5427 50.2879 35.2608C49.7945 34.8193 50.0173 34.3406 50.2349 33.8778C51.6143 30.9097 51.9645 27.7502 51.8106 24.5055C51.7947 24.1066 52.1396 23.5055 51.4764 23.3353C50.9405 23.197 50.601 23.4736 50.2826 23.9789C49.2693 25.5746 48.484 27.2927 47.6245 28.9736C47.0621 28.1757 47.3805 27.2661 47.3646 26.4097C47.3115 23.9683 47.338 21.5268 47.3327 19.0853C48.1233 18.9789 48.7652 18.681 48.8766 17.7236Z" fill="#CEDCFC"/>
<path d="M47.63 28.9677C48.4895 27.2869 49.2801 25.5688 50.2881 23.9731C50.6065 23.4677 50.946 23.1911 51.4819 23.3294C52.1451 23.4996 51.8002 24.106 51.8161 24.4996C51.97 27.7443 51.6145 30.9039 50.2404 33.872C50.0229 34.3401 49.8 34.8135 50.2934 35.255C52.3679 35.6486 54.4689 35.9465 56.5115 36.4677C59.3606 37.1965 62.1673 38.106 65.0004 38.9092C65.4779 39.0422 65.9024 39.2124 65.8281 39.7816C65.7326 40.489 65.1331 40.2124 64.7405 40.2124C61.0637 40.2124 57.4082 40.1858 53.7633 39.372C52.5218 39.0954 51.2325 38.7762 49.9698 38.5316C48.9883 38.3401 48.1712 38.7337 47.264 38.7124C46.1763 38.6911 45.5556 38.0954 45.1311 37.3348C44.6749 36.5156 44.6642 35.3507 45.3487 34.739C47.0836 33.1805 46.9934 30.9358 47.63 28.9677ZM63.3451 39.4252C63.0427 39.1326 62.9843 39.0316 62.8994 39.005C59.0264 37.7071 55.0631 36.7922 51.0468 36.1592C50.6595 36.1007 50.0759 35.9145 50.0706 36.6911C50.0706 37.2869 49.9274 37.8826 50.8558 38.0209C53.1107 38.356 55.3443 39.0741 57.5992 39.1699C59.419 39.2496 61.2441 39.8454 63.3451 39.4199V39.4252ZM51.1158 24.239C49.2589 26.6911 48.2508 29.2816 47.5611 32.0316C47.439 32.5209 46.9191 33.1965 47.8423 33.3028C48.532 33.3826 49.4817 34.5103 49.9274 32.8933C50.6807 30.1592 51.4925 27.4358 51.1105 24.239H51.1158ZM47.6619 34.2816C46.4045 34.2816 45.5397 35.1007 45.5609 36.1592C45.5768 37.0316 46.7493 38.3241 47.508 38.3082C48.3569 38.2922 49.4021 37.1167 49.418 36.1592C49.4445 34.8294 48.8981 34.122 47.6566 34.2762L47.6619 34.2816Z" fill="#0C0D10"/>
<path d="M48.8768 17.7232C48.7654 18.6753 48.1287 18.9732 47.3329 19.0849C46.3726 18.9572 45.7359 18.4785 45.8526 17.3827C45.9322 16.6593 46.3461 16.2178 47.1207 16.1646C48.2242 16.0902 48.8025 16.5742 48.8715 17.7285L48.8768 17.7232ZM47.508 18.3295C47.8741 18.2072 48.1871 17.9838 48.1393 17.4944C48.1022 17.1008 47.8369 16.8455 47.4549 16.8508C47.0782 16.8561 46.8076 17.0955 46.7811 17.5051C46.7493 17.9891 47.0305 18.2338 47.508 18.3295Z" fill="#0C0D10"/>
<path d="M65.2383 34.8984C66.2092 34.7601 66.692 35.4144 66.6867 36.207C66.6814 37.0793 66.0766 37.7548 65.1693 37.7016C64.3205 37.6538 63.7262 37.0899 63.7634 36.1272C63.8005 35.1857 64.3788 34.8027 65.2383 34.8984ZM65.3285 36.7548C65.7052 36.8399 65.8538 36.5846 65.8431 36.1431C65.8378 35.7921 65.7105 35.5367 65.3391 35.5474C64.9465 35.5633 64.7025 35.7974 64.6812 36.2176C64.66 36.6112 64.8935 36.7548 65.3285 36.7548Z" fill="#0C0D10"/>
<path d="M29.3041 34.8726C30.3599 34.8832 30.901 35.2875 30.9223 36.2396C30.9488 37.2715 30.4076 37.7821 29.4473 37.7236C28.6196 37.6704 27.9936 37.0534 27.9883 36.2981C27.9883 35.5056 28.4233 34.7024 29.2988 34.8779L29.3041 34.8726ZM29.6065 35.5322C29.2086 35.6173 28.8637 35.7609 28.8478 36.2875C28.8319 36.7449 29.129 36.7662 29.4314 36.7609C29.8134 36.7609 30.2803 36.8566 30.2803 36.2236C30.2803 35.7981 30.0044 35.596 29.6065 35.5375V35.5322Z" fill="#0C0D10"/>
<path d="M47.317 53.6276C48.3038 53.4467 48.7176 54.1382 48.8025 55.0052C48.9246 56.2606 47.7679 56.2818 47.1154 56.3616C46.4999 56.4361 45.8845 55.7286 45.8632 54.952C45.8367 54.0425 46.3726 53.5691 47.317 53.6223V53.6276ZM47.2745 54.2659C46.9827 54.335 46.7493 54.5744 46.7811 54.9999C46.8076 55.3882 47.0888 55.468 47.4125 55.4893C47.943 55.5212 47.9324 55.1329 47.943 54.7712C47.9536 54.3723 47.7308 54.2233 47.2745 54.2712V54.2659Z" fill="#0C0D10"/>
<path d="M39.2783 20.2125C39.2942 20.771 39.2624 21.2391 38.5196 21.1806C37.8829 21.1327 37.5009 20.8721 37.485 20.1806C37.4638 19.404 37.9625 19.3189 38.5514 19.2657C39.2942 19.2019 39.3314 19.6593 39.2783 20.2125Z" fill="#0C0D10"/>
<path d="M55.9649 51.7656C56.7713 51.7656 57.1958 51.9358 57.2117 52.6114C57.2276 53.2231 56.957 53.5688 56.3522 53.6167C55.7633 53.6592 55.4131 53.4358 55.3866 52.7709C55.36 52.1486 55.6306 51.8188 55.9702 51.7656H55.9649Z" fill="#0C0D10"/>
<path d="M39.3053 52.0313C39.3159 52.877 39.109 53.276 38.4723 53.3079C37.9789 53.3345 37.5491 53.2334 37.4961 52.643C37.4324 51.9515 37.8993 51.6004 38.4564 51.4887C38.971 51.3824 39.2575 51.7441 39.3053 52.0313Z" fill="#0C0D10"/>
<path d="M32.4082 26.0849C32.5196 26.0636 32.7636 26.2126 32.7477 26.8722C32.7318 27.5477 32.5037 27.7658 31.8882 27.7339C31.3364 27.7073 30.9014 27.5583 30.9279 26.8988C30.9597 26.2179 31.485 26.1807 32.4082 26.0849Z" fill="#0C0D10"/>
<path d="M63.4616 27.7874C62.4801 27.6863 61.3712 27.6863 62.2626 26.1172C64.0081 26.197 64.024 26.2183 63.4616 27.7874Z" fill="#0C0D10"/>
<path d="M32.7421 45.6271C32.7421 46.058 32.5087 46.425 31.8932 46.4462C31.3362 46.4675 30.9648 46.292 30.9064 45.6271C30.8427 44.8133 31.3945 44.8877 31.8614 44.8877C32.2434 44.8877 32.8111 44.6697 32.7368 45.6218L32.7421 45.6271Z" fill="#0C0D10"/>
<path d="M57.1687 20.5315C55.715 21.1538 55.3914 20.9304 55.4497 19.3346C56.288 19.324 57.3651 18.9251 57.1687 20.5315Z" fill="#0C0D10"/>
<path d="M63.769 45.4728C63.7372 46.1111 63.4772 46.4089 62.952 46.4409C62.4055 46.4781 61.9917 46.3451 61.9439 45.6643C61.9068 45.1058 62.05 44.8185 62.6708 44.8558C63.1907 44.8877 63.6205 44.9515 63.769 45.4728Z" fill="#0C0D10"/>
<path d="M165.243 42.8828C165.238 42.936 165.243 42.9945 165.222 43.0371C163.795 45.3509 162.484 47.7499 160.855 49.9254C160.564 50.319 160.282 50.1382 159.959 49.9254C156.982 47.9945 153.99 46.085 151.019 44.1488C150.494 43.8084 150.547 43.3616 150.876 42.8243C152.117 40.7871 153.295 38.7126 154.526 36.6701C154.897 36.0584 155.422 35.9307 156.059 36.3509C158.892 38.2233 161.736 40.0743 164.575 41.936C164.914 42.1594 165.264 42.3775 165.243 42.8828ZM155.709 38.6009C155.587 38.6807 155.465 38.7552 155.343 38.835C155.974 40.303 156.595 41.7818 157.242 43.2392C157.412 43.6222 157.688 43.9041 158.16 43.8935C159.545 43.8669 160.935 43.8616 162.32 43.8456C162.564 43.8456 162.866 43.8616 162.882 43.5158C162.903 43.1169 162.643 43.0211 162.298 43.0318C161.158 43.0584 160.017 43.0477 158.882 43.1009C158.081 43.1382 157.661 42.9147 157.449 41.9786C157.168 40.7179 156.43 39.6435 155.704 38.6062L155.709 38.6009Z" fill="#9FB8F9"/>
<path d="M65.7689 78.6064C68.1352 78.6064 69.4616 79.9947 69.4351 82.4362C69.4033 85.0958 67.2969 87.3405 64.8246 87.3564C62.7342 87.3671 61.0629 85.6277 61.0576 83.4415C61.0576 80.6437 63.0419 78.6064 65.7689 78.6064Z" fill="#9FB8F9"/>
<path d="M116.835 83.2341C116.491 83.2767 116.146 83.3192 115.801 83.3671C115.101 83.4628 114.416 84.4469 113.785 83.8033C113.037 83.0373 112.872 81.8937 113.01 80.766C113.275 78.5692 115.376 76.1171 117.233 75.8246C120.316 75.3405 122.412 76.3671 123.637 78.8511C124.274 80.149 124.024 81.4948 124.014 82.8246C124.014 83.4575 123.605 83.7288 122.974 83.4682C122.353 83.2075 121.706 83.298 121.064 83.3352C120.035 82.5107 119.515 81.7926 120.571 80.3831C121.823 78.7128 120.852 77.0958 118.788 77.0586C118.491 77.0586 118.194 77.0586 117.897 77.0586C116.018 77.0533 116.04 77.0426 116.544 78.8724C116.66 79.3033 116.565 79.798 116.575 80.2607C116.586 80.766 116.496 81.3192 116.979 81.665C117.854 82.2926 117.27 82.7554 116.835 83.2448V83.2341Z" fill="white"/>
<path d="M116.835 83.2337C117.265 82.7443 117.849 82.2815 116.979 81.6539C116.501 81.3081 116.591 80.7549 116.575 80.2496C116.565 79.7869 116.66 79.2922 116.544 78.8613C116.045 77.0315 116.018 77.0422 117.897 77.0475C118.194 77.0475 118.491 77.0475 118.788 77.0475C120.852 77.0794 121.823 78.7017 120.571 80.372C119.515 81.7815 120.035 82.4996 121.064 83.3241C121.048 85.0634 120.592 85.5475 118.576 85.4252C117.446 85.356 116.735 84.5528 116.835 83.2337ZM118.931 84.5422C119.488 84.4624 120.459 84.7496 120.353 83.9783C120.258 83.2815 119.515 82.2975 118.905 82.1539C118.199 81.989 117.525 82.8879 117.515 83.7656C117.504 84.8134 118.385 84.4464 118.931 84.5475V84.5422ZM118.21 79.2443C117.849 79.3613 117.085 78.8773 117.207 79.8188C117.297 80.4996 117.18 81.4464 118.294 81.4092C119.043 81.3826 119.568 80.989 119.525 80.2071C119.483 79.4837 119.053 78.989 118.215 79.2443H118.21Z" fill="black"/>
<path d="M63.345 39.4252C61.2493 39.8507 59.4189 39.2497 57.599 39.1752C55.3389 39.0795 53.1106 38.3614 50.8557 38.0263C49.9272 37.888 50.0705 37.2922 50.0705 36.6965C50.0705 35.9146 50.6594 36.1007 51.0467 36.1646C55.0683 36.7975 59.0262 37.7124 62.8993 39.0103C62.9789 39.0369 63.0425 39.138 63.345 39.4305V39.4252Z" fill="#9FB8F9"/>
<path d="M51.1152 24.2344C51.4972 27.4365 50.6854 30.1546 49.932 32.8886C49.4863 34.5057 48.5313 33.378 47.8469 33.2982C46.9238 33.1865 47.4437 32.5163 47.5657 32.0269C48.2555 29.2769 49.2582 26.6918 51.1205 24.2344H51.1152Z" fill="#9FB8F9"/>
<path d="M47.6615 34.2767C48.903 34.1225 49.4495 34.8299 49.4229 36.1597C49.4017 37.1172 48.3565 38.2927 47.5129 38.3087C46.7489 38.3193 45.5817 37.0321 45.5658 36.1597C45.5446 35.0959 46.4094 34.2874 47.6668 34.2821L47.6615 34.2767Z" fill="#9FB8F9"/>
<path d="M47.5077 18.3294C47.0249 18.239 46.749 17.989 46.7808 17.5049C46.8073 17.0953 47.0779 16.8613 47.4546 16.8507C47.8366 16.8454 48.1019 17.0953 48.139 17.4943C48.1868 17.9836 47.8737 18.2071 47.5077 18.3294Z" fill="#407BFF"/>
<path d="M65.3293 36.7556C64.8942 36.7556 64.6608 36.612 64.682 36.2184C64.7032 35.7982 64.9473 35.5588 65.3399 35.5482C65.706 35.5375 65.8333 35.7929 65.8439 36.1439C65.8545 36.5854 65.706 36.8407 65.3293 36.7556Z" fill="#407BFF"/>
<path d="M29.607 35.5268C30.0049 35.5853 30.2755 35.7874 30.2808 36.213C30.2808 36.846 29.8139 36.7449 29.4319 36.7502C29.1242 36.7502 28.8324 36.7342 28.8483 36.2768C28.8695 35.7502 29.2091 35.6066 29.607 35.5215V35.5268Z" fill="#407BFF"/>
<path d="M47.2737 54.2658C47.7299 54.2233 47.9528 54.3722 47.9422 54.7658C47.9316 55.1275 47.9422 55.5158 47.4116 55.4839C47.088 55.4626 46.8068 55.3828 46.7803 54.9945C46.7484 54.569 46.9819 54.335 47.2737 54.2605V54.2658Z" fill="#407BFF"/>
<path d="M155.709 38.601C156.436 39.6383 157.174 40.7127 157.455 41.9734C157.667 42.9095 158.086 43.1329 158.887 43.0957C160.023 43.0478 161.164 43.0585 162.304 43.0266C162.649 43.0159 162.909 43.117 162.888 43.5106C162.867 43.8563 162.57 43.8404 162.325 43.8404C160.941 43.8563 159.551 43.8617 158.166 43.8883C157.694 43.8989 157.418 43.6117 157.248 43.234C156.601 41.7712 155.98 40.2978 155.349 38.8297C155.471 38.75 155.593 38.6755 155.715 38.5957L155.709 38.601Z" fill="#0C0D10"/>
<path d="M118.926 84.5481C118.379 84.447 117.493 84.8194 117.509 83.7662C117.52 82.8885 118.193 81.9896 118.899 82.1545C119.509 82.2981 120.252 83.2768 120.347 83.9789C120.454 84.7555 119.483 84.463 118.926 84.5428V84.5481Z" fill="white"/>
<path d="M118.204 79.2502C119.047 79.0002 119.472 79.4949 119.514 80.213C119.562 80.9896 119.031 81.3885 118.283 81.4151C117.169 81.4524 117.286 80.5055 117.196 79.8247C117.074 78.8832 117.838 79.3673 118.198 79.2502H118.204Z" fill="white"/>
</svg>
