<svg width="200" height="200" viewBox="0 0 200 200" fill="none" xmlns="http://www.w3.org/2000/svg">
<path d="M33.3088 188.315C28.5008 185.628 24.0133 182.513 19.9399 178.77C15.399 174.585 11.8597 169.652 8.78793 164.358C5.14186 158.061 2.53751 151.35 1.12182 144.224C0.240352 139.799 -0.200382 135.294 0.0800853 130.789C0.507464 123.596 2.53751 116.885 6.15688 110.641C8.52082 106.564 10.4574 102.246 12.9682 98.2618C16.7345 92.2992 20.8881 86.604 25.4023 81.1896C28.7412 77.1923 32.227 73.3019 36.0601 69.7725C38.0901 67.9142 40.1469 66.096 41.843 63.9169C43.9933 61.1762 45.3956 58.0345 46.5308 54.7591C46.6644 54.3848 46.6243 54.0506 46.3973 53.7164C46.05 53.2083 45.7429 52.6736 45.4223 52.1522C44.6343 50.8153 44.7813 50.2805 46.2637 49.973C47.6661 49.6789 48.2136 49.0238 48.4808 47.5532C49.3622 42.7404 49.0283 37.9008 49.055 33.0613C49.055 32.0185 48.4674 31.1094 48.3606 30.0131C48.2003 28.342 48.4808 26.6041 47.853 24.9864C47.7863 24.7992 47.7328 24.5987 47.7061 24.3982C47.626 23.6762 47.3455 23.0613 46.5576 23.0345C45.8497 23.0078 45.3823 23.4891 45.0484 24.1174C44.1001 25.8955 43.1385 27.6468 42.1769 29.4115C38.9582 35.334 35.3656 41.0158 31.2921 46.3768C30.2904 47.7003 31.0116 48.8634 30.8781 50.0934C30.8781 50.1736 30.9315 50.2538 30.9449 50.334C31.3455 52.2324 31.252 52.3393 29.4757 51.8714C27.5926 51.3901 27.0317 51.5238 25.803 53.3955C23.7195 56.5372 21.0884 59.2912 19.3522 63.0345C19.005 59.7859 18.6043 56.8714 18.1235 53.9704C17.4824 50.1067 16.7345 46.2565 16.7612 42.2992C16.7879 36.5773 18.7512 31.5773 22.0233 26.9918C26.2971 21.0024 32.1469 16.9249 38.4374 13.3955C43.3522 10.6415 48.5609 8.50245 53.9031 6.75111C60.3539 4.63881 66.9382 3.03454 73.6561 1.96502C75.1652 1.72438 76.7011 1.53721 78.197 1.05593C78.9582 0.815285 79.9732 0.788547 80.8814 0.74844C83.7395 0.61475 86.5843 0.414215 89.4424 0.160205C89.9632 0.120098 90.4975 0.0265148 91.0317 0.0265148C94.611 0.0265148 98.1769 0.0265148 101.756 0.0265148C108.22 0.0131458 114.578 0.908868 120.881 2.25914C130.391 4.27785 139.459 7.56662 148.06 12.0853C149.556 12.8741 151.185 13.4891 152.427 14.719C132.18 14.7458 111.933 14.7992 91.6728 14.7591C90.2303 14.7591 89.4157 15.4276 88.8147 16.4035C87.1586 19.1308 86.2771 22.219 85.1686 25.1736C81.9766 33.6228 78.5442 41.9784 75.3389 50.4276C75.0985 51.0693 74.818 51.5105 73.9632 51.3901C73.0684 51.2698 72.1602 51.3099 71.252 51.3634C68.6343 51.5105 66.5776 52.6067 65.3622 55.0399C64.0934 57.6067 63.9465 60.3741 64.1869 63.1147C64.3205 64.5452 64.2404 66.1228 65.055 67.4196C65.5091 68.1549 65.4156 68.7698 65.0951 69.465C64.3472 71.1495 63.6126 72.8474 62.8647 74.5319C61.0217 74.6121 59.4056 75.1602 58.2437 76.6976C57.8564 77.219 57.3088 77.2725 56.7078 77.2725C55.2654 77.2992 53.8497 77.1388 52.3672 77.4329C45.4357 78.7698 40.0667 82.2591 36.5008 88.3688C34.6978 91.457 33.0016 94.5987 30.5308 97.219C27.606 100.307 25.1218 103.676 23.5192 107.647C21.1686 113.476 19.6995 119.478 19.7395 125.802C18.9649 126.551 18.4307 127.473 18.1101 128.476C17.843 129.318 17.5091 129.398 16.6944 129.211C14.424 128.703 12.3005 127.687 10.0033 127.299C8.86807 127.112 8.04002 127.473 7.66606 128.583C7.14519 130.107 6.66439 131.631 6.22366 133.182C5.03501 137.299 3.88643 141.43 2.67107 145.548C2.2704 146.925 2.73785 147.941 4.10012 148.355C5.08843 148.65 6.06339 149.01 7.05171 149.291C10.9115 150.387 14.7846 151.43 18.6444 152.54C22.9849 153.797 27.3121 155.147 31.6527 156.404C33.8564 157.045 35.0851 156.965 35.7128 154.639C37.1018 149.478 38.611 144.358 40.1602 139.238C40.9215 136.738 40.3873 135.909 37.9566 135.254C34.5909 134.358 31.252 133.355 27.8864 132.433C27.045 132.206 26.8447 131.764 26.8848 130.949C26.9649 129.398 26.8447 127.861 25.9499 126.497C28.4207 120.869 31.6794 115.708 35.3255 110.802C36.8213 108.797 38.3439 106.791 40.4407 105.347C42.404 103.984 43.8063 104.438 44.4207 106.698C44.848 108.289 45.0083 109.946 44.848 111.577C44.4073 115.989 44.3272 120.428 44.1535 124.853C44.1135 125.882 43.8998 126.885 43.5793 127.861C42.9382 129.826 42.9248 131.805 43.6594 133.756C43.4457 133.863 43.4457 134.077 43.419 134.278C43.1652 136.43 43.005 138.609 42.631 140.735C41.8564 145.08 40.9616 149.412 40.1068 153.743C39.4924 156.885 38.8647 160.013 38.2504 163.155C38.0233 163.248 37.8096 163.355 37.7963 163.65C37.7963 163.81 37.7963 163.97 37.7963 164.144C37.7562 164.345 37.7028 164.559 37.9833 164.639C37.6627 166.19 37.3155 167.754 37.0083 169.305C36.434 172.232 35.7929 175.147 35.3389 178.101C34.9382 180.708 34.257 183.262 33.803 185.855C33.5091 186.016 33.242 186.19 33.3489 186.591C33.803 187.179 33.4691 187.754 33.2821 188.315H33.3088ZM67.9933 43.1682C69.4757 40.5078 70.237 37.5533 71.5192 34.8126C72.8814 31.8848 73.9499 28.8099 75.1385 25.8153C75.7262 24.3447 76.3138 22.8741 76.8881 21.3902C77.0083 21.0827 77.1686 20.695 76.7145 20.588C76.3806 20.5078 76.3005 20.8821 76.1936 21.1495C75.6327 22.4062 75.0317 23.6629 74.5776 24.9329C72.5208 30.7217 70.0634 36.3367 67.8197 42.0452C67.6327 42.5265 67.4858 42.8607 67.9933 43.1816V43.1682ZM63.9732 37.834C63.9198 37.6335 64 37.3527 63.7462 37.3126C63.2921 37.2458 63.2788 37.6869 63.1719 37.9543C62.0233 40.8019 60.8881 43.6495 59.7529 46.4971C59.606 46.8581 59.232 47.3393 59.6861 47.5532C60.1936 47.7939 60.2871 47.1656 60.434 46.818C61.3155 44.6522 62.1702 42.473 63.0384 40.2939C63.3589 39.4784 63.6661 38.6495 63.9732 37.834Z" fill="#CEDCFC"/>
<path d="M190.25 54.5449C191.612 55.5877 191.893 57.2588 192.52 58.6759C195.085 64.4647 196.914 70.4941 198.13 76.7107C198.838 80.3604 199.278 84.0369 199.572 87.7535C199.839 91.1225 199.773 94.4915 199.746 97.8471C199.692 103.502 198.918 109.09 197.716 114.612C196.02 122.459 193.402 129.999 189.863 137.192C186.524 143.97 182.571 150.387 177.869 156.336C174.41 160.721 170.684 164.866 166.664 168.743C165.676 169.705 164.474 170.441 163.552 171.778C166.384 171.751 169.068 172.005 171.712 171.376C172.848 171.109 173.743 171.096 174.344 172.339C174.584 172.847 174.824 173.716 175.479 173.609C176.187 173.502 176.24 172.593 176.36 171.978C176.681 170.28 177.803 169.425 179.218 168.582C182.45 166.657 185.562 164.518 188.727 162.473C189.302 162.098 189.876 161.697 190.477 161.363C191.265 160.922 192.467 161.483 192.587 162.379C192.654 162.901 192.721 163.449 192.454 163.957C190.29 168.061 188.808 172.513 186.056 176.296C182.277 181.497 177.108 184.438 170.778 185.401C170.537 185.441 170.297 185.507 170.056 185.561C168.427 185.895 167.946 185.641 167.305 184.09C167.185 183.783 167.105 183.462 166.945 183.181C166.45 182.286 166.036 182.259 165.422 183.034C163.472 185.507 163.432 185.614 160.44 184.465C156.02 182.767 151.679 183.355 147.325 184.612C144.801 185.334 142.357 186.296 140.02 187.513C136.961 189.104 133.849 190.574 130.604 191.751C130.283 191.871 129.923 192.286 129.616 191.898C129.402 191.63 129.749 191.296 129.883 191.016C131.726 187.165 133.662 183.355 135.305 179.425C136.814 175.802 137.429 171.965 138.083 168.141C138.243 167.205 137.709 166.657 136.921 166.336C135.986 165.949 135.412 166.59 135.011 167.245C134.277 168.422 133.649 169.679 132.981 170.909C131.619 173.368 129.843 175.507 127.973 177.58C127.265 178.368 127.238 179.157 127.238 180.053C127.238 181.176 126.784 181.55 125.796 181.069C125.008 180.681 124.607 180.975 124.126 181.497C120.467 185.427 117.796 189.946 116.14 195.053C115.806 196.069 115.312 196.577 114.257 196.791C109.823 197.713 105.389 198.582 100.861 199.024C97.6023 199.344 94.3569 199.558 91.0847 199.799C87.265 200.066 83.4587 199.879 79.639 199.973C79.1449 199.973 78.6507 200.026 78.21 199.745C78.3836 198.382 78.4771 197.018 78.7308 195.681C79.3185 192.58 79.5322 189.438 79.8794 186.323C80.1332 184.024 80.1732 181.684 80.4537 179.411C80.841 176.216 80.9479 173.007 81.0948 169.812C81.3352 164.171 81.215 158.516 80.8811 152.874C80.8143 151.818 80.5205 150.788 80.4938 149.759C80.4403 148.248 79.7726 146.737 80.3335 145.2C80.3469 145.12 80.3736 145.04 80.3869 144.946H124.941C124.554 146.524 123.886 147.941 123.298 149.398C123.138 149.398 123.031 149.451 123.098 149.639C122.083 152.727 120.761 155.708 119.612 158.743C119.465 159.13 118.998 159.719 119.492 159.946C120.08 160.213 120.106 159.438 120.253 159.077C121.99 154.759 123.753 150.441 125.395 146.082C125.756 145.12 126.21 144.906 127.145 144.906C135.359 144.946 143.572 144.933 151.799 144.919C153.389 144.919 154.791 143.943 155.339 142.486C155.993 140.761 156.647 139.05 157.315 137.326C158.116 135.294 158.878 133.262 159.773 131.27C160.641 129.358 160.975 127.272 161.95 125.36C163.258 122.807 164.1 120.013 165.208 117.352C167.318 112.299 169.068 107.112 171.258 102.085C172.647 98.9032 173.809 95.6278 175.065 92.3791C176.026 89.9059 176.935 87.4193 177.909 84.9594C178.951 82.3257 180.06 79.7054 181.115 77.0717C181.529 76.0289 181.716 74.8925 182.076 73.8497C182.677 72.1118 184.04 70.6545 183.973 68.6492C183.973 68.5824 184.026 68.4754 184.093 68.4487C185.469 67.7401 185.389 66.2294 185.896 65.0797C187.432 61.6305 188.367 57.9273 190.21 54.585L190.25 54.5449ZM137.562 188.155C138.043 187.713 138.337 187.513 138.564 187.232C140.327 185.026 142.036 182.78 143.839 180.601C147.859 175.761 151.425 170.521 156.354 166.47C158.851 164.411 161.335 162.326 164.153 160.721C168.694 158.128 172.3 154.679 174.477 149.852C175.265 148.114 175.318 148.101 173.796 146.871C173.075 146.283 173.208 145.895 173.983 145.561C174.29 145.427 174.584 145.307 174.904 145.227C175.652 145.026 176.013 144.639 176.16 143.796C176.547 141.497 176.4 139.224 175.973 136.965C175.158 132.66 172.928 128.943 170.938 125.133C170.617 124.505 170.016 124.318 169.375 124.398C168.707 124.478 168.307 124.866 168.106 125.561C167.893 126.336 167.986 127.112 167.986 127.887C167.986 133.636 166.09 138.716 162.751 143.328C161.349 145.267 159.238 146.831 159.759 149.745C159.893 150.494 159.305 150.628 158.677 150.026C157.435 148.823 157.422 148.876 156.06 149.986C154.177 151.524 152.547 153.302 150.931 155.106C147.98 158.409 145.682 162.139 143.732 166.069C140.327 172.941 139.379 180.494 137.576 188.155H137.562ZM166.183 179.679C170.136 179.745 173.609 179.157 176.881 177.553C181.916 175.066 185.242 170.655 188.955 166.697C189.195 166.443 189.649 166.109 189.262 165.788C188.888 165.481 188.634 166.029 188.407 166.256C186.056 168.663 183.773 171.149 181.369 173.502C178.978 175.828 176.12 177.366 172.888 178.261C168.881 179.358 164.821 178.997 160.814 178.636C157.128 178.302 153.656 178.876 150.237 180.066C148.5 180.681 146.831 181.497 145.295 182.54C145.001 182.74 144.574 183.034 144.894 183.422C145.202 183.796 145.455 183.302 145.709 183.155C146.965 182.393 148.22 181.63 149.609 181.096C152.814 179.852 156.113 179.077 159.546 179.237C161.869 179.344 164.18 179.732 166.183 179.692V179.679ZM173.916 113.315C174.183 113.315 174.303 113.181 174.384 112.967C174.611 112.366 174.864 111.764 175.105 111.163C177.295 105.628 179.485 100.093 181.662 94.5583C182.05 93.569 182.384 92.5663 182.731 91.577C182.798 91.3765 183.065 91.1759 182.758 90.962C182.424 90.7214 182.37 91.0556 182.223 91.2161C182.063 91.3765 182.05 91.5636 181.983 91.7508C180.634 95.2267 179.258 98.7027 177.896 102.179C176.547 105.601 175.198 109.01 173.836 112.433C173.716 112.753 173.382 113.088 173.916 113.328V113.315ZM92.7141 159.786C92.9145 159.598 93.0747 159.518 93.1282 159.384C94.5038 156.016 95.8661 152.633 97.2283 149.251C97.3218 149.037 97.5489 148.783 97.2016 148.636C96.8009 148.475 96.614 148.756 96.4804 149.09C95.1849 152.299 93.8894 155.507 92.5939 158.716C92.4737 159.024 92.4203 159.331 92.7008 159.772L92.7141 159.786ZM178.804 120.855C179.779 120.253 179.886 119.384 180.18 118.636C181.142 116.27 182.076 113.876 183.038 111.51C183.198 111.109 183.425 110.521 183.091 110.401C182.45 110.16 182.517 110.895 182.357 111.27C181.596 113.101 180.768 114.919 180.113 116.778C179.672 118.048 178.898 119.224 178.791 120.855H178.804ZM106.243 167.098C107.258 167.098 108.086 166.283 108.046 165.36C108.006 164.411 107.178 163.649 106.203 163.636C105.322 163.636 104.36 164.491 104.334 165.334C104.307 166.229 105.255 167.112 106.243 167.098Z" fill="#CEDCFC"/>
<path d="M123.339 149.332C123.927 147.888 124.594 146.457 124.982 144.88H80.4274C80.3206 144.907 80.2004 144.947 80.0936 144.973C80.187 145.027 80.2805 145.08 80.374 145.134C79.8131 146.671 80.4809 148.169 80.5343 149.693C80.5743 150.709 80.8682 151.752 80.9216 152.808C81.2421 158.449 81.3757 164.104 81.1353 169.746C81.0017 172.941 80.8949 176.15 80.4942 179.345C80.2137 181.631 80.187 183.957 79.9199 186.257C79.5727 189.385 79.3456 192.527 78.7713 195.615C78.5176 196.952 78.4107 198.329 78.2505 199.679C77.5159 200.174 76.6478 200.014 75.9266 199.866C75.0318 199.693 74.1637 199.719 73.2822 199.679C71.2121 199.572 69.2221 198.931 67.1386 198.797C66.2438 198.743 65.2956 198.797 64.4408 198.423C64.4809 195.735 63.9733 193.102 63.6261 190.455C63.0518 186.083 62.1436 181.752 61.4759 177.393C60.7947 173.022 59.94 168.677 58.8314 164.412C57.9233 160.909 56.7613 157.46 55.0518 154.225C53.5827 151.444 53.4224 148.342 53.0618 145.294C53.0351 145.04 53.1954 144.679 52.7279 144.653C52.1537 144.626 52.3139 145.08 52.3406 145.348C52.5276 146.872 52.7012 148.396 52.9951 149.893C53.8498 154.332 56.5209 158.115 57.536 162.514C57.8832 164.011 58.8982 165.441 58.4041 166.992C56.9884 171.471 55.5193 175.936 53.9166 180.361C52.1804 185.147 50.2171 189.853 48.1336 194.492C46.2905 193.904 44.4208 193.423 42.6311 192.714C41.0819 192.112 39.6127 191.31 38.0368 190.762C37.9567 190.695 37.8765 190.628 37.783 190.562C36.3006 189.826 34.8047 189.078 33.3223 188.342C33.5092 187.768 33.8431 187.206 33.389 186.618C33.9099 186.604 34.3506 186.524 33.8431 185.883C34.3106 183.289 34.9784 180.735 35.379 178.129C35.8331 175.187 36.4742 172.26 37.0485 169.332C37.3557 167.768 37.7029 166.217 38.0234 164.666C38.4107 164.332 38.1703 164.225 37.8365 164.171C37.8365 164.011 37.8365 163.85 37.8365 163.677C38.0902 163.61 38.6378 163.81 38.2905 163.182C38.9049 160.04 39.5326 156.912 40.147 153.77C41.0017 149.439 41.8966 145.107 42.6712 140.762C43.0451 138.623 43.2054 136.457 43.4592 134.305C43.4859 134.104 43.4725 133.891 43.6996 133.784C44.3807 134.465 44.7012 135.401 45.5026 136.03C48.0535 137.981 51.0718 138.476 54.0902 138.69C58.0435 138.971 61.9967 138.824 65.95 138.316C70.2638 137.754 74.4842 137.126 78.0101 134.305C78.0635 134.305 78.1169 134.278 78.1436 134.238C78.2104 134.185 78.2772 134.118 78.344 134.064C78.4642 134.078 78.5844 134.118 78.7046 134.118C99.6862 134.118 120.668 134.118 141.663 134.131C143.653 134.131 144.374 133.182 144.988 131.658C146.204 128.69 147.392 125.709 148.488 122.687C149.289 120.455 150.424 118.342 151.012 116.03C151.065 115.936 151.132 115.856 151.185 115.762C151.72 114.185 152.574 112.727 152.962 111.096C153.055 111.07 153.162 111.03 153.255 111.003C153.215 110.949 153.189 110.896 153.149 110.842L153.723 109.118C153.776 109.038 153.843 108.944 153.897 108.864C154.511 107.313 155.245 105.816 155.686 104.198C155.78 104.171 155.887 104.145 155.98 104.104C155.94 104.051 155.913 103.997 155.873 103.944C158.317 97.7542 160.801 91.5777 163.165 85.3611C163.806 83.69 164.528 82.0456 165.169 80.3745C165.81 78.7034 166.224 76.8986 167.119 75.3745C168.013 73.8772 167.599 71.952 168.895 70.6552C169.015 70.5349 168.922 70.174 168.935 69.9333C168.948 69.6927 168.882 69.3451 169.015 69.2248C170.311 68.0216 170.938 66.5911 170.671 64.813C170.658 64.7061 170.698 64.5189 170.765 64.4788C172.114 63.797 171.833 62.2328 172.541 61.1499C173.69 59.3852 174.237 57.2328 175.065 55.2408C175.88 53.2889 176.107 51.1098 177.309 49.2916C178.084 48.1151 178.164 46.6446 178.805 45.4146C179.606 43.8638 180.087 42.1927 180.755 40.5884C181.556 38.6766 182.304 36.7248 183.105 34.7996C184.935 30.3879 186.618 25.9093 188.407 21.4841C188.621 20.9494 188.314 20.428 188.634 19.9467C190.077 17.7809 188.568 15.8825 186.952 15.5617C186.351 15.4413 185.736 15.4012 185.122 15.4012C157.102 15.4012 129.082 15.4012 101.062 15.4012C98.2705 15.4012 95.4792 15.4012 92.6745 15.4012C91.0184 15.4012 89.576 15.7622 88.9082 17.5536C87.96 20.1205 86.985 22.7007 85.9834 25.2408C84.995 27.7542 83.8865 30.2141 82.9249 32.7408C82.4308 34.051 82.0168 35.4012 81.536 36.7114C81.0151 38.1285 80.6812 39.6526 79.8131 40.9494C79.4925 41.4173 79.7329 42.0456 79.4124 42.567C77.783 45.2141 77.1153 48.2622 75.8465 51.0563C75.6595 51.4574 75.7396 51.7381 76.1136 51.8184C77.7163 52.1659 78.7046 53.3959 79.9066 54.3451C80.3072 54.9066 81.0017 54.813 81.536 55.0804C82.6445 55.6553 83.9266 56.0831 84.1136 57.5804C84.3273 59.2381 83.9132 60.9494 82.4308 61.6045C80.7346 62.3531 80.8949 63.5162 80.9216 64.8397C80.9216 65.428 81.1353 65.9494 81.3223 66.4708C81.536 67.059 81.4291 67.6071 80.9216 67.8745C79.9734 68.3558 79.6795 69.2248 79.2922 70.0804C78.7713 71.2301 78.1036 72.313 77.2889 73.2756C75.94 74.8798 75.1787 75.1071 73.3089 74.2515C72.6945 73.9708 72.4408 74.051 72.2137 74.6526C71.8531 75.6419 71.4525 76.6312 71.0652 77.6205C70.7446 77.567 70.6511 77.2996 70.5176 77.0724C70.6912 76.5911 70.8114 76.0697 71.0652 75.6285C71.8264 74.3184 71.9066 73.1285 70.6378 72.059C70.3306 71.805 70.0501 71.4975 69.97 71.0697C69.9166 70.7488 69.2755 70.4547 69.7563 70.1606C70.1971 69.9066 70.4241 70.4012 70.6244 70.7756C71.3456 72.0323 72.2538 73.0884 73.6428 73.6232C74.6979 74.0376 75.6595 73.9975 76.4742 73.0617C77.1954 72.2328 77.8231 71.3638 78.344 70.3879C78.9316 69.2782 79.1052 67.8745 80.4408 67.2595C80.6278 67.1793 80.7079 66.9654 80.5877 66.7381C80.0001 65.682 80.2004 64.5323 80.2004 63.4093C80.2004 62.8879 80.0535 62.6472 79.5059 62.7274C78.4909 62.8611 77.4491 62.7408 76.5143 62.4333C75.2188 62.0055 74.2572 62.4333 73.2154 63.0617C72.5476 63.4761 72.2405 64.1312 71.8398 64.7061C71.5593 65.1071 71.2655 65.2542 70.8381 65.1873C70.3039 65.0938 70.3039 64.6659 70.3173 64.2381C70.3173 63.7435 70.3173 63.2488 70.3306 62.7542C70.3573 62.0323 70.2905 61.2836 69.5426 61.0028C68.7413 60.6954 68.2738 61.3638 67.8198 61.8852C67.6862 62.0323 67.6328 62.2328 67.5259 62.3932C66.8181 63.5296 67.1787 64.5189 67.8465 65.5349C68.9149 67.1659 68.5009 68.0884 66.6311 68.3692C66.2839 68.4226 66.1102 68.4895 66.1503 68.8638C66.2171 69.4253 65.8698 69.8665 65.6562 70.3344C64.9884 71.7515 64.3072 73.1686 63.6261 74.5857C63.3857 74.559 63.1453 74.5456 62.9049 74.5189C63.6395 72.8344 64.374 71.1365 65.1353 69.452C65.4425 68.7569 65.5493 68.1419 65.0952 67.4066C64.2939 66.1098 64.3607 64.5456 64.2271 63.1018C63.9734 60.3478 64.1203 57.5804 65.4024 55.0269C66.6178 52.5938 68.6612 51.4975 71.2922 51.3504C72.187 51.297 73.1086 51.2569 74.0034 51.3772C74.8448 51.4841 75.1386 51.0563 75.379 50.4146C78.5844 41.9788 82.0168 33.6098 85.2087 25.1606C86.3306 22.2061 87.1987 19.1178 88.8548 16.3905C89.4425 15.4146 90.2572 14.7462 91.7129 14.7462C111.96 14.7863 132.207 14.7328 152.468 14.7061C163.473 14.7061 174.464 14.7061 185.469 14.7061C186.912 14.7061 188.22 14.9066 189.222 16.1766C190.197 17.3932 190.037 18.6499 189.69 19.9601C189.543 20.5349 189.316 21.0831 189.089 21.7381C190.745 21.7381 192.254 21.6847 193.776 21.7515C195.352 21.8184 196.755 22.1659 197.449 23.9039C197.77 24.7061 198.478 25.3745 199.065 26.043C200.307 27.4333 200.187 28.9574 199.533 30.4948C198.691 32.4868 197.903 34.5055 197.169 36.5376C196.127 39.4119 194.965 42.2328 193.843 45.067C192.628 48.1151 191.399 51.1633 190.184 54.2114C190.144 54.305 190.237 54.4387 190.264 54.5456C188.421 57.8745 187.486 61.5777 185.95 65.0403C185.442 66.19 185.523 67.7007 184.147 68.4093C184.094 68.436 184.027 68.5429 184.027 68.6098C184.08 70.6151 182.718 72.0724 182.13 73.8103C181.77 74.8531 181.596 75.9895 181.169 77.0323C180.114 79.6659 179.005 82.2863 177.963 84.92C176.988 87.3798 176.08 89.8665 175.119 92.3397C173.863 95.575 172.701 98.8638 171.312 102.046C169.122 107.072 167.372 112.26 165.262 117.313C164.154 119.973 163.299 122.768 162.003 125.321C161.028 127.233 160.695 129.305 159.826 131.23C158.932 133.209 158.17 135.254 157.369 137.286C156.688 138.997 156.047 140.722 155.392 142.447C154.845 143.904 153.442 144.88 151.853 144.88C143.639 144.88 135.426 144.893 127.199 144.866C126.25 144.866 125.81 145.08 125.449 146.043C123.806 150.401 122.057 154.719 120.307 159.038C120.16 159.399 120.134 160.174 119.546 159.907C119.052 159.679 119.519 159.091 119.666 158.703C120.815 155.669 122.15 152.701 123.152 149.599C123.259 149.546 123.579 149.679 123.352 149.358L123.339 149.332ZM127.519 140.936C127.519 140.936 127.412 141.043 127.346 141.096C127.399 141.096 127.466 141.096 127.519 141.096C134.865 141.096 142.224 141.123 149.569 141.137C150.905 141.137 151.867 140.575 152.414 139.358C152.788 138.516 153.122 137.661 153.456 136.805C155.486 131.698 157.543 126.591 159.546 121.471C160.267 119.639 160.935 117.781 161.629 115.949C162.257 114.318 163.018 112.727 163.566 111.043C163.633 110.963 163.686 110.883 163.753 110.802C164.02 109.091 165.209 107.754 165.649 106.083C166.277 103.717 167.613 101.578 168.24 99.198C168.494 99.1312 169.028 99.3317 168.695 98.7034C169.055 96.8184 170.084 95.174 170.658 93.3691C171.526 90.6552 172.861 88.1151 173.663 85.3745C173.73 85.2943 173.796 85.2141 173.85 85.1339C174.691 84.559 174.598 83.5697 174.798 82.7675C175.452 80.2542 177.149 78.1552 177.576 75.5483C177.723 74.6258 178.498 73.8504 178.738 72.9815C179.566 69.9333 181.022 67.1258 182.117 64.198C183.546 60.3879 185.055 56.6178 186.484 52.8077C186.551 52.7274 186.604 52.6472 186.671 52.5804C187.419 50.2676 188.608 48.1419 189.369 45.8424C190.104 43.6232 191.079 41.4841 191.947 39.305C192.347 38.2889 192.494 37.1392 193.536 36.4708C193.67 36.3772 193.95 36.1232 193.723 35.8558C193.255 35.2943 193.723 34.8531 193.897 34.3852C194.244 33.4761 194.725 32.6205 195.112 31.7381C195.726 30.3344 195.9 28.7836 196.634 27.4467C197.623 25.6419 196.755 23.3692 194.845 22.7141C193.175 22.1392 191.439 22.6205 189.756 22.4333C188.982 22.3531 188.648 22.6339 188.354 23.3692C186.377 28.3558 184.321 33.3157 182.331 38.3023C180.701 42.3799 179.152 46.4841 177.563 50.5884C176.107 54.3184 174.678 58.0483 173.195 61.7649C170.965 67.3397 168.628 72.8745 166.491 78.4895C164.194 84.5189 161.79 90.4948 159.452 96.4975C158.665 98.5296 157.81 100.548 157.289 102.687C156.995 102.741 156.701 102.808 157.062 103.169C156.821 103.623 156.541 104.051 156.354 104.519C155.593 106.457 154.898 108.423 154.124 110.361C151.265 117.62 148.367 124.853 145.523 132.126C145.189 132.968 144.681 133.543 143.973 134.064C142.638 135.054 141.182 134.84 139.659 134.84C119.573 134.786 99.4725 134.8 79.3857 134.813C79.0518 134.813 78.7313 134.84 78.3974 134.853C78.2505 134.813 78.157 134.84 78.1971 135.027C78.6111 137.006 79.0385 138.984 79.4525 140.976C79.4258 141.137 79.4658 141.203 79.6395 141.15C79.7196 141.15 79.7997 141.19 79.8799 141.19C95.1854 141.19 110.478 141.19 125.783 141.217C126.558 141.217 126.758 140.842 126.972 140.281C127.332 139.318 127.559 138.276 128.361 137.527C128.468 138.797 127.8 139.84 127.479 140.976L127.519 140.936Z" fill="black"/>
<path d="M48.1198 194.478C50.2166 189.839 52.1665 185.133 53.9028 180.347C55.5054 175.936 56.9879 171.47 58.3903 166.978C58.8844 165.428 57.8694 163.984 57.5221 162.5C56.5071 158.115 53.836 154.318 52.9812 149.879C52.6874 148.382 52.5271 146.858 52.3268 145.334C52.3001 145.067 52.1398 144.612 52.7141 144.639C53.1816 144.652 53.0213 145.027 53.048 145.281C53.4086 148.329 53.5689 151.43 55.038 154.211C56.7475 157.446 57.9095 160.909 58.8176 164.398C59.9261 168.663 60.7809 173.008 61.462 177.379C62.1432 181.738 63.038 186.069 63.6123 190.441C63.9595 193.088 64.467 195.722 64.427 198.409C62.3969 198.008 60.3802 197.607 58.3502 197.206C54.8777 196.524 51.4587 195.628 48.1064 194.478H48.1198Z" fill="#CEDCFC"/>
<path d="M45.5027 30.6152C45.7831 31.4575 45.5828 32.1393 45.4759 32.8612C44.314 41.1233 40.6279 49.6928 36.728 56.1233C33.3758 61.6446 29.3691 66.658 24.7347 71.1767C24.6813 71.2302 24.6279 71.2971 24.5611 71.3505C24.294 71.5778 24.0269 72.019 23.6529 71.5644C23.2923 71.1366 23.7597 70.8692 24.0269 70.6821C24.8683 70.0805 25.496 69.2783 26.2038 68.5564C30.2506 64.5056 33.6295 59.9334 36.5143 55.027C39.9067 49.2783 42.511 43.1821 44.0068 36.6446C44.3941 34.9735 44.8482 33.3158 44.9284 31.5912C44.9417 31.2569 45.0619 30.9495 45.5027 30.6152Z" fill="#CEDCFC"/>
<path d="M14.4772 26.912C13.1416 26.912 11.9129 25.7088 11.8995 24.412C11.8862 22.8345 13.008 21.4441 14.3436 21.4976C16.4271 21.5912 17.2151 22.6072 17.3085 24.158C17.3887 25.5885 15.973 26.9254 14.4905 26.912H14.4772ZM12.6341 24.1313C12.6608 25.0805 13.6358 26.15 14.4905 26.1634C15.4388 26.1634 16.5339 25.1072 16.5606 24.1848C16.5873 23.0618 15.7059 22.1794 14.584 22.2061C13.5423 22.2329 12.6207 23.142 12.6474 24.1446L12.6341 24.1313Z" fill="#070808"/>
<path d="M12.8348 36.7909C11.9132 36.8978 11.0317 36.109 10.8982 35.0663C10.8181 34.3443 11.793 33.1679 12.581 33.0609C13.6628 32.9139 14.7312 33.6893 14.8381 34.7053C14.9583 35.9219 14.2905 36.6171 12.8214 36.7909H12.8348ZM13.0217 36.0689C13.6494 36.0288 14.0902 35.7213 14.1035 34.9593C14.1035 34.1304 13.6762 33.8497 12.8882 33.7962C12.0067 33.7294 11.6862 34.331 11.6728 34.9326C11.6595 35.6278 12.2204 36.0155 13.0217 36.0689Z" fill="black"/>
<path d="M26.7647 15.2942C27.2589 15.4412 27.7397 15.8423 27.8999 16.5241C27.9667 16.7781 27.8599 17.0856 27.526 16.992C26.8715 16.8182 26.4442 16.3236 26.1904 15.722C26.0836 15.4546 26.2572 15.2541 26.7513 15.2942H26.7647Z" fill="#070808"/>
<path d="M27.9001 11.8977C27.5662 12.232 27.3659 12.8603 26.6046 12.8469C26.2974 12.8469 26.0838 12.7266 26.2173 12.4325C26.4577 11.871 26.805 11.3897 27.5128 11.3496C27.8333 11.3496 27.9669 11.4432 27.9001 11.8844V11.8977Z" fill="#070808"/>
<path d="M24.0266 12.5003C23.9331 12.8746 23.6526 13.0885 23.4924 13.0216C22.8513 12.8077 22.4907 12.2596 22.277 11.6446C22.1835 11.3906 22.4506 11.3372 22.6643 11.3505C23.4389 11.404 23.479 12.2462 24.0266 12.4869V12.5003Z" fill="#070808"/>
<path d="M23.4522 15.3073C23.8395 15.2538 24.0398 15.3875 23.9864 15.6014C23.8261 16.2699 23.2786 16.6442 22.731 16.9651C22.5173 17.0854 22.1834 16.8046 22.2769 16.5774C22.5173 15.9758 23.0248 15.5747 23.4522 15.2939V15.3073Z" fill="#070808"/>
<path d="M37.7695 190.534C37.8497 190.601 37.9298 190.668 38.0233 190.735C37.8497 190.788 37.7829 190.681 37.7695 190.534Z" fill="#070808"/>
<path d="M62.9052 74.5186C63.1456 74.5454 63.386 74.5587 63.6264 74.5855C65.9903 75.2406 68.4878 75.4946 70.5312 77.0454C70.6648 77.2726 70.7716 77.54 71.0788 77.5935C71.9603 79.6389 73.4427 80.9491 75.5796 81.7245C77.7566 82.5133 79.9469 83.4625 81.7766 84.9063C86.5579 88.6764 91.2458 92.5534 95.987 96.3769C97.9369 97.9544 99.9937 98.0347 102.064 96.6042C103.493 95.6283 104.708 94.3983 105.79 93.0614C106.084 92.7138 106.298 92.3127 106.818 92.2726C107.072 92.1924 107.313 92.0988 107.566 92.0186C108.915 92.0454 110.277 91.9651 111.56 92.54C111.72 92.7405 111.867 92.9411 112.027 93.1416C112.481 94.7459 112.294 96.3101 111.813 97.8609C110.745 101.35 108.608 104.118 105.857 106.404C101.997 109.599 97.6164 110.856 92.5947 109.88C88.6948 109.118 85.1155 107.634 81.7099 105.642C80.3342 104.839 80.1606 104.906 79.7867 106.484C78.3977 112.339 77.8634 118.262 78.5312 124.251C78.6514 125.361 78.4244 126.564 79.012 127.62C78.9853 128.342 78.9987 129.051 79.1456 129.773C79.4528 131.257 79.8935 132.834 78.3442 133.997C78.2775 134.051 78.2107 134.118 78.1439 134.171L78.0638 134.144L78.0104 134.238C74.4845 137.059 70.2641 137.687 65.9503 138.249C61.997 138.757 58.0304 138.904 54.0905 138.623C51.0721 138.409 48.0538 137.914 45.5028 135.962C44.7015 135.347 44.3676 134.412 43.6998 133.716C42.9653 131.765 42.9786 129.786 43.6197 127.821C43.9402 126.845 44.1539 125.842 44.194 124.813C44.3676 120.388 44.4611 115.962 44.8885 111.537C45.0488 109.906 44.8885 108.249 44.4611 106.658C43.8601 104.398 42.4578 103.957 40.4811 105.307C38.3843 106.751 36.8618 108.757 35.3659 110.762C31.7199 115.682 28.4611 120.842 25.9903 126.457C25.8167 126.497 25.6297 126.551 25.4561 126.591C23.6932 126.979 21.9436 127.085 20.2341 126.323C20.1673 126.069 20.0204 125.882 19.7933 125.749C19.7666 119.425 21.2357 113.422 23.573 107.593C25.1756 103.623 27.6598 100.254 30.5846 97.1657C33.0688 94.5454 34.7649 91.4036 36.5546 88.3154C40.1205 82.2058 45.4895 78.7165 52.421 77.3796C53.9169 77.0855 55.3192 77.2459 56.7616 77.2192C57.3493 77.2192 57.8968 77.1657 58.2975 76.6443C59.4461 75.1069 61.0755 74.5587 62.9185 74.4785L62.9052 74.5186Z" fill="#5C78EF"/>
<path d="M19.7661 125.788C19.9931 125.922 20.14 126.109 20.2068 126.363C19.6726 127.165 19.0582 127.927 18.6709 128.823C18.4439 129.344 18.3771 129.665 19.1517 129.839C20.4472 130.12 21.6759 130.641 22.9714 130.922C24.1601 131.176 24.8679 131.724 25.0549 132.967C25.1217 133.382 25.4823 133.756 25.6292 134.17C25.7894 134.625 26.11 134.572 26.4172 134.505C26.9247 134.398 26.7377 133.97 26.6442 133.716C26.4172 133.114 26.1367 132.539 26.1768 131.884C26.3103 130.08 26.0031 128.342 25.4288 126.644C25.6025 126.604 25.7894 126.55 25.9631 126.51C26.8579 127.874 26.9781 129.411 26.898 130.962C26.8579 131.791 27.0716 132.219 27.8996 132.446C31.2652 133.355 34.6041 134.358 37.9697 135.267C40.4005 135.922 40.9347 136.751 40.1734 139.251C38.6242 144.358 37.115 149.491 35.726 154.652C35.0983 156.978 33.8696 157.058 31.6659 156.416C27.3253 155.146 22.9981 153.809 18.6576 152.553C14.7978 151.43 10.9247 150.387 7.0649 149.304C6.07659 149.023 5.10163 148.662 4.11331 148.368C2.75104 147.954 2.2836 146.938 2.68426 145.561C3.89962 141.443 5.03485 137.312 6.23685 133.195C6.67759 131.657 7.15839 130.12 7.67926 128.596C8.06657 127.473 8.88126 127.125 10.0165 127.312C12.327 127.7 14.4372 128.716 16.7076 129.224C17.5223 129.411 17.8562 129.331 18.1233 128.489C18.4439 127.499 18.9781 126.563 19.7527 125.815L19.7661 125.788ZM7.85288 130.815C7.39879 131.497 7.38543 132.232 7.1851 132.9C5.95638 136.991 4.71431 141.082 3.52567 145.173C3.0048 146.965 3.23184 147.219 5.08827 147.834C8.89462 149.077 12.741 150.146 16.5874 151.229C21.9697 152.74 27.2986 154.465 32.721 155.801C34.1634 156.162 34.6442 155.868 35.0315 154.491C36.2869 149.986 37.5557 145.481 38.8379 140.975C38.9046 140.748 39.1317 140.521 38.9313 140.307C38.6909 140.053 38.4372 140.267 38.1701 140.374C35.7794 141.336 33.2953 141.483 30.8111 140.922C29.1016 140.534 27.4322 139.946 25.736 139.478C23.7727 138.93 23.6392 138.93 23.2919 140.908C23.0783 142.138 22.6108 141.938 21.7293 141.724C20.7277 141.483 20.5941 141.015 20.8879 140.186C21.0348 139.772 21.1283 139.344 21.2752 138.943C21.4622 138.449 21.342 138.154 20.7944 138.021C19.6325 137.713 18.4973 137.285 17.322 137.045C13.3687 136.229 10.0833 134.398 7.86623 130.842L7.85288 130.815ZM27.2719 132.941C27.3387 133.288 27.4455 133.502 27.4055 133.716C27.3253 134.251 27.7928 135.08 26.8579 135.227C26.0699 135.347 25.2018 135.427 24.8679 134.344C24.7076 133.809 24.4005 133.315 24.2001 132.78C23.9998 132.272 23.6793 131.951 23.1317 131.791C18.7644 130.561 14.3971 129.331 10.0566 128.034C9.36206 127.834 8.94804 127.954 8.56073 128.422C8.1467 128.916 7.95972 129.505 8.33368 130.106C9.14837 131.47 10.0833 132.713 11.3921 133.703C14.317 135.922 17.9096 136.323 21.2485 137.432C21.6225 137.553 21.6492 137.339 21.7694 137.005C22.2101 135.801 22.9981 135.588 24.1333 136.309C24.4405 136.51 24.6141 136.751 24.4005 137.125C23.8128 138.195 24.5741 138.462 25.3487 138.689C26.6843 139.077 28.0332 139.424 29.3687 139.812C32.534 140.735 35.6459 140.788 38.7043 139.344C39.6125 138.916 39.746 138.168 39.706 137.379C39.6659 136.604 38.9313 136.336 38.3303 136.256C37.9297 136.203 37.529 136.082 37.1951 135.949C33.9898 134.692 30.5707 134.184 27.2586 132.954L27.2719 132.941Z" fill="#070808"/>
<path d="M67.9929 43.1678C67.4853 42.8469 67.6322 42.5127 67.8192 42.0314C70.063 36.3229 72.5204 30.7079 74.5772 24.9191C75.0312 23.6491 75.6322 22.3924 76.1932 21.1357C76.3134 20.8817 76.3935 20.494 76.7141 20.5742C77.1681 20.6945 77.0079 21.0689 76.8877 21.3763C76.3 22.8469 75.7124 24.3175 75.1381 25.8015C73.9494 28.8095 72.881 31.871 71.5187 34.7988C70.2366 37.5528 69.4753 40.5074 67.9929 43.1544V43.1678Z" fill="#070808"/>
<path d="M63.9736 37.8339C63.6665 38.6494 63.3593 39.4782 63.0388 40.2938C62.184 42.4729 61.3159 44.652 60.4344 46.8178C60.2875 47.1654 60.194 47.7938 59.6865 47.5531C59.2324 47.3392 59.6064 46.8579 59.7533 46.497C60.8885 43.6494 62.0237 40.7884 63.1723 37.9542C63.2792 37.6868 63.2925 37.2456 63.7466 37.3125C64.0004 37.3526 63.9069 37.6333 63.9736 37.8339Z" fill="#070808"/>
<path d="M33.8433 185.855C34.3509 186.511 33.9101 186.577 33.3893 186.591C33.2824 186.19 33.5495 186.003 33.8433 185.855Z" fill="#070808"/>
<path d="M38.2773 163.142C38.6246 163.77 38.077 163.569 37.8232 163.636C37.8232 163.342 38.0503 163.235 38.2773 163.142Z" fill="#070808"/>
<path d="M37.8232 164.131C38.1571 164.198 38.3975 164.291 38.0102 164.626C37.7164 164.545 37.7832 164.331 37.8232 164.131Z" fill="#070808"/>
<path d="M137.562 188.155C139.365 180.508 140.313 172.941 143.719 166.069C145.669 162.139 147.966 158.409 150.918 155.107C152.534 153.302 154.163 151.524 156.046 149.987C157.409 148.877 157.422 148.837 158.664 150.027C159.292 150.628 159.893 150.495 159.746 149.746C159.212 146.845 161.335 145.267 162.737 143.329C166.076 138.717 167.986 133.636 167.973 127.888C167.973 127.112 167.879 126.337 168.093 125.561C168.28 124.88 168.681 124.479 169.362 124.398C170.016 124.318 170.604 124.505 170.924 125.134C172.914 128.944 175.158 132.66 175.96 136.965C176.387 139.225 176.534 141.497 176.146 143.797C176 144.639 175.639 145.027 174.891 145.227C174.571 145.307 174.277 145.441 173.97 145.561C173.195 145.896 173.061 146.27 173.783 146.872C175.305 148.115 175.252 148.115 174.464 149.853C172.273 154.679 168.667 158.128 164.14 160.722C161.322 162.326 158.838 164.412 156.34 166.471C151.412 170.521 147.846 175.749 143.826 180.602C142.023 182.767 140.313 185.027 138.55 187.233C138.337 187.5 138.043 187.714 137.549 188.155H137.562ZM143.399 176.444C143.866 176.35 143.919 175.949 144.04 175.602C146.591 168.422 151.225 162.834 157.355 158.449C160.026 156.537 162.604 154.545 164.808 152.086C164.968 151.898 165.369 151.711 165.061 151.404C164.834 151.176 164.647 151.404 164.474 151.618C161.749 154.733 158.25 156.898 154.991 159.372C150.971 162.433 147.926 166.297 145.402 170.602C144.52 172.112 143.933 173.81 143.225 175.414C143.065 175.789 142.851 176.19 143.399 176.444ZM170.924 135.414C171.152 133.596 170.564 131.377 170.364 129.144C170.337 128.837 170.377 128.142 169.803 128.262C169.268 128.369 169.629 128.864 169.669 129.198C169.763 130.094 169.843 130.989 169.963 131.885C170.711 137.741 169.976 143.329 166.824 148.449C166.717 148.623 166.597 148.81 166.557 148.997C166.53 149.131 166.557 149.345 166.651 149.438C166.771 149.559 166.971 149.479 167.078 149.345C167.252 149.118 167.425 148.89 167.572 148.65C169.936 144.719 171.018 140.455 170.938 135.428L170.924 135.414Z" fill="white"/>
<path d="M166.183 179.679C164.18 179.719 161.869 179.318 159.545 179.225C156.113 179.064 152.814 179.84 149.609 181.083C148.22 181.618 146.964 182.38 145.709 183.142C145.469 183.289 145.201 183.783 144.894 183.409C144.574 183.021 145.015 182.727 145.295 182.527C146.831 181.484 148.487 180.655 150.237 180.053C153.656 178.85 157.128 178.289 160.814 178.623C164.834 178.984 168.881 179.345 172.888 178.249C176.12 177.353 178.978 175.816 181.368 173.489C183.772 171.136 186.056 168.663 188.407 166.243C188.634 166.016 188.874 165.455 189.262 165.775C189.649 166.096 189.195 166.43 188.954 166.684C185.242 170.655 181.916 175.053 176.881 177.54C173.622 179.158 170.136 179.733 166.183 179.666V179.679Z" fill="white"/>
<path d="M173.93 113.315C173.395 113.075 173.729 112.74 173.85 112.42C175.198 108.997 176.561 105.588 177.91 102.166C179.285 98.6897 180.648 95.2137 181.996 91.7378C182.063 91.5506 182.09 91.3501 182.237 91.203C182.384 91.056 182.437 90.7218 182.771 90.949C183.078 91.1763 182.811 91.3635 182.744 91.564C182.397 92.5667 182.063 93.5694 181.676 94.5453C179.499 100.08 177.309 105.615 175.118 111.15C174.878 111.751 174.637 112.353 174.397 112.954C174.317 113.168 174.183 113.302 173.93 113.302V113.315Z" fill="#070808"/>
<path d="M92.7278 159.786C92.4473 159.344 92.5007 159.037 92.6209 158.729C93.9164 155.521 95.2119 152.312 96.5074 149.104C96.641 148.77 96.828 148.475 97.2286 148.649C97.5759 148.796 97.3355 149.037 97.2553 149.264C95.8931 152.647 94.5308 156.016 93.1552 159.398C93.1017 159.532 92.9415 159.612 92.7411 159.799L92.7278 159.786Z" fill="#070808"/>
<path d="M178.818 120.855C178.925 119.238 179.7 118.061 180.141 116.778C180.795 114.906 181.61 113.088 182.384 111.27C182.545 110.895 182.478 110.174 183.119 110.401C183.453 110.521 183.226 111.109 183.065 111.51C182.104 113.877 181.169 116.27 180.207 118.636C179.9 119.371 179.793 120.254 178.832 120.855H178.818Z" fill="#070808"/>
<path d="M106.257 167.098C105.269 167.098 104.321 166.229 104.347 165.334C104.374 164.492 105.322 163.623 106.217 163.636C107.192 163.636 108.007 164.411 108.06 165.36C108.1 166.283 107.272 167.098 106.257 167.098ZM106.19 166.403C106.871 166.377 107.299 166.082 107.312 165.387C107.312 164.772 106.965 164.385 106.351 164.358C105.683 164.331 105.149 164.639 105.108 165.36C105.082 166.042 105.589 166.31 106.19 166.403Z" fill="#070808"/>
<path d="M80.3742 145.134C80.2807 145.08 80.1872 145.027 80.0938 144.973C80.2006 144.947 80.3208 144.907 80.4276 144.88C80.4143 144.96 80.3876 145.04 80.3742 145.134Z" fill="#070808"/>
<path d="M123.339 149.331C123.566 149.652 123.245 149.532 123.138 149.572C123.072 149.385 123.178 149.331 123.339 149.331Z" fill="#070808"/>
<path d="M78.9983 127.647C78.4107 126.591 78.6377 125.388 78.5175 124.278C77.8498 118.289 78.384 112.366 79.773 106.511C80.1469 104.933 80.3205 104.866 81.6962 105.669C85.1018 107.661 88.6811 109.158 92.581 109.907C97.5893 110.882 101.983 109.612 105.843 106.431C108.594 104.158 110.731 101.377 111.8 97.8878C112.28 96.337 112.467 94.7595 112.013 93.1686C112.467 92.1926 113.336 91.5777 114.07 90.8557C114.738 90.214 115.285 89.559 115.232 88.5696C116.928 88.5696 118.638 88.5696 120.334 88.5696C120.454 88.5696 120.561 88.5696 120.681 88.5696C121.442 89.2916 122.19 90.0269 122.952 90.7488C123.125 90.9092 123.285 91.1499 123.553 90.9226C123.927 90.6151 123.553 90.4547 123.392 90.2809C122.925 89.7327 122.444 89.1846 121.963 88.6365C124.701 88.6098 127.452 88.5964 130.19 88.5696C133.489 88.5295 135.92 86.1231 135.907 82.9413C135.907 79.7862 133.503 77.5269 130.177 77.5001C127.386 77.5001 124.608 77.4868 121.816 77.4734C122.284 76.9787 122.765 76.4841 123.205 75.9761C123.406 75.7488 123.993 75.6017 123.566 75.1606C123.179 74.7595 122.831 75.1205 122.551 75.4012C121.87 76.0964 121.215 76.8049 120.534 77.5001C117.716 77.5001 114.898 77.5001 112.093 77.5001C111.706 77.5001 111.265 77.3531 110.945 77.7408C110.117 76.8985 109.302 76.0697 108.474 75.2274C108.287 75.0402 108.087 74.9199 107.846 75.1472C107.579 75.4012 107.806 75.575 107.967 75.7488C108.487 76.3103 109.022 76.8718 109.543 77.4333C104.16 77.4467 98.778 77.46 93.409 77.4734C90.8715 77.4734 88.6144 79.1044 88.0401 81.3905C87.0117 85.468 89.616 88.3557 93.7028 88.5028C98.0568 88.6632 102.411 88.5295 106.765 88.5295C106.765 89.7729 106.778 91.0162 106.791 92.2461C106.27 92.2862 106.057 92.6873 105.763 93.0349C104.668 94.3718 103.452 95.5884 102.037 96.5777C99.9666 98.0081 97.9099 97.9279 95.9599 96.3504C91.2187 92.5269 86.5309 88.6499 81.7496 84.8798C79.9199 83.436 77.7296 82.4868 75.5526 81.698C73.4023 80.9226 71.9332 79.6124 71.0518 77.567C71.4391 76.5777 71.8397 75.6017 72.2003 74.5991C72.4274 73.9975 72.6811 73.9172 73.2955 74.198C75.1653 75.0536 75.9265 74.8263 77.2755 73.2221C78.0902 72.2461 78.7579 71.1766 79.2788 70.0269C79.6661 69.1713 79.9599 68.3023 80.9082 67.821C81.4157 67.567 81.5225 67.0055 81.3089 66.4172C81.1219 65.8959 80.9082 65.3745 80.9082 64.7862C80.8948 63.4627 80.7212 62.313 82.4174 61.5509C83.8998 60.8825 84.3139 59.1846 84.1002 57.5269C83.8998 56.0295 82.6311 55.6017 81.5225 55.0269C80.9883 54.7461 80.2938 54.8531 79.8932 54.2916C80.3606 52.6472 81.4291 51.19 81.4157 49.3718C81.4157 49.0777 81.5493 48.6231 81.7629 48.5028C82.5109 48.1017 82.5776 47.3397 82.8715 46.698C83.2187 45.936 83.5392 45.1472 83.8731 44.3718C84.7012 43.5697 84.8214 42.4467 85.2354 41.444C87.0117 37.0723 88.8013 32.7007 90.5776 28.329C90.7245 27.9547 91.0184 27.5803 90.5242 27.2461C90.8314 26.4975 91.1386 25.7354 91.4457 24.9868C92.1937 23.075 93.1286 22.4333 95.212 22.4199C97.4958 22.4199 99.793 22.4199 102.077 22.4199C102.531 22.8611 103.092 22.6472 103.599 22.6472C128.08 22.6472 152.574 22.6739 177.055 22.6472C179.579 22.6472 180.755 24.3718 179.846 26.6312C176.868 34.1445 174.144 41.7648 170.791 49.1178C170.658 49.4253 171.058 49.2515 171.179 49.3718C171.179 49.96 170.898 50.4814 170.698 51.0028C169.536 53.9707 168.347 56.9386 167.199 59.9199C164.033 68.1285 160.775 76.2969 157.596 84.4921C155.499 89.8932 153.336 95.2943 151.172 100.669C150.705 100.628 150.598 100.909 150.437 101.31C149.422 103.971 148.394 106.618 147.326 109.251C145.255 114.399 143.372 119.626 141.142 124.706C140.18 126.899 139.953 127.112 137.656 127.126C135.145 127.126 132.648 127.126 130.137 127.126C129.656 127.126 129.122 126.992 128.841 127.567C128.307 127.567 127.773 127.594 127.239 127.594C111.159 127.594 95.0785 127.594 79.0117 127.594L78.9983 127.647ZM116.942 41.9921C116.487 45.214 119.172 48.5697 122.431 49.198C125.436 49.7729 128.08 48.9172 130.578 47.4065C132.033 46.5108 133.422 45.4948 134.224 43.9039C136.775 41.444 137.669 38.3558 137.629 34.9066C137.576 30.3076 133.676 26.9386 129.002 27.7408C122.564 28.8638 118.758 33.0483 117.035 39.1846C116.795 40.0269 116.274 41.0295 116.928 41.9921H116.942ZM119.265 62.714C122.671 62.714 126.077 62.714 129.482 62.714C132.808 62.714 136.134 62.714 139.459 62.714C140.594 62.714 141.169 62.0188 140.821 61.083C140.501 60.2007 139.673 60.2675 138.952 60.2541C135.666 60.2274 132.381 60.2541 129.109 60.2541C119.346 60.2541 109.569 60.2541 99.8064 60.2541C98.8314 60.2541 97.7496 60.2541 97.7095 61.5643C97.6695 62.9413 98.818 62.714 99.6995 62.714C106.23 62.714 112.748 62.714 119.279 62.714H119.265ZM115.566 69.1044C119.92 69.1044 124.26 69.1044 128.614 69.1044C129.336 69.1044 129.937 69.0242 130.164 68.2354C130.431 67.3397 129.683 66.6311 128.414 66.6311C119.84 66.6311 111.265 66.6311 102.678 66.6311C101.756 66.6311 100.955 66.8584 100.915 67.8878C100.875 68.9841 101.703 69.1178 102.624 69.1178C106.938 69.091 111.239 69.1178 115.553 69.1178L115.566 69.1044ZM123.74 56.5242C124.848 56.5242 125.957 56.5242 127.065 56.5242C130.351 56.5242 133.636 56.5242 136.922 56.5242C138.137 56.5242 138.791 55.6285 138.284 54.706C137.937 54.0777 137.296 54.0509 136.668 54.0509C128.08 54.0509 119.492 54.0509 110.905 54.0509C109.957 54.0509 109.155 54.3049 109.155 55.3076C109.155 56.3103 109.97 56.5509 110.918 56.5376C115.192 56.5108 119.466 56.5242 123.74 56.5242Z" fill="#9FB8F9"/>
<path d="M102.077 22.4599C99.7932 22.4599 97.4961 22.4599 95.2123 22.4599C93.1422 22.4599 92.2073 23.115 91.446 25.0267C91.1522 25.7888 90.8316 26.5374 90.5245 27.2861C90.1371 27.3797 89.9101 27.5802 89.8166 28.0214C89.229 30.8021 87.4927 33.1283 86.7315 35.8823C86.0503 38.3556 84.835 40.6684 83.9134 43.0749C83.7665 43.4492 83.3659 43.9572 83.8734 44.4118C83.5395 45.1872 83.2323 45.9759 82.8717 46.738C82.5779 47.3797 82.5111 48.1417 81.7632 48.5428C81.5495 48.6631 81.4159 49.1176 81.4159 49.4118C81.4427 51.2166 80.3609 52.6738 79.8934 54.3315C78.7048 53.3957 77.7031 52.1524 76.1004 51.8048C75.7265 51.7246 75.6597 51.4438 75.8333 51.0428C77.1154 48.2487 77.7699 45.2005 79.3992 42.5535C79.7198 42.0321 79.4927 41.4037 79.7999 40.9358C80.668 39.639 81.0019 38.115 81.5228 36.6979C82.0036 35.3877 82.4176 34.0374 82.9118 32.7273C83.8734 30.2005 84.9685 27.7406 85.9702 25.2273C86.9852 22.6738 87.9468 20.1069 88.8951 17.5401C89.5629 15.7487 91.0053 15.3877 92.6613 15.3877C95.4527 15.3877 98.244 15.3877 101.049 15.3877C129.069 15.3877 157.089 15.3877 185.109 15.3877C185.723 15.3877 186.337 15.4278 186.938 15.5481C188.555 15.869 190.064 17.7674 188.621 19.9331C188.301 20.4144 188.621 20.9358 188.394 21.4706C186.591 25.8957 184.908 30.3743 183.092 34.7861C182.291 36.7112 181.543 38.6631 180.741 40.5749C180.074 42.1791 179.593 43.8503 178.792 45.4011C178.15 46.6444 178.07 48.1016 177.296 49.2781C176.094 51.0962 175.867 53.2754 175.052 55.2273C174.224 57.2059 173.676 59.3717 172.528 61.1364C171.82 62.2192 172.1 63.7834 170.751 64.4652C170.685 64.5053 170.645 64.6925 170.658 64.7995C170.925 66.5775 170.297 68.008 169.002 69.2112C168.868 69.3315 168.935 69.6791 168.922 69.9198C168.908 70.1604 169.002 70.5214 168.882 70.6417C167.586 71.9385 168 73.8636 167.105 75.361C166.197 76.8717 165.797 78.6898 165.156 80.361C164.514 82.0321 163.793 83.6631 163.152 85.3476C160.775 91.5642 158.304 97.7406 155.86 103.93C155.713 103.944 155.606 103.997 155.673 104.184C155.246 105.802 154.498 107.299 153.883 108.85C153.75 108.89 153.63 108.93 153.71 109.104L153.135 110.829C152.989 110.856 152.882 110.909 152.948 111.083C152.561 112.714 151.706 114.171 151.172 115.749C151.039 115.789 150.918 115.829 150.999 116.016C150.411 118.329 149.289 120.441 148.474 122.674C147.379 125.695 146.191 128.676 144.975 131.644C144.361 133.168 143.626 134.118 141.65 134.118C120.668 134.104 99.6864 134.118 78.6914 134.104C78.5712 134.104 78.451 134.078 78.3308 134.051C79.8801 132.888 79.4393 131.31 79.1321 129.826C78.9719 129.091 78.9585 128.396 78.9986 127.674C95.0787 127.674 111.159 127.674 127.226 127.674C127.76 127.674 128.294 127.66 128.828 127.647C129.122 128.075 129.576 127.901 129.964 127.901C132.501 127.914 135.052 127.807 137.59 127.941C139.473 128.035 140.768 127.353 141.797 125.829C142.184 125.254 142.064 124.599 142.304 123.997C144.721 117.968 147.125 111.925 149.463 105.869C150.104 104.198 151.119 102.62 151.172 100.749C153.349 95.361 155.499 89.9733 157.596 84.5722C160.775 76.377 164.034 68.2086 167.199 60C168.347 57.0187 169.536 54.0508 170.698 51.0829C170.912 50.5481 171.192 50.0401 171.179 49.4519C171.646 49.5321 171.673 49.1043 171.807 48.8636C172.568 47.5 173.236 46.0829 173.583 44.5722C173.89 43.2487 174.878 42.2861 175.132 40.9091C175.666 37.9946 177.536 35.5615 178.311 32.7139C178.578 31.6979 179.58 30.869 179.633 30.0134C179.686 29.0241 180.047 28.262 180.394 27.4866C181.316 25.4011 181.035 23.5695 179.259 22.5267C178.524 22.0989 177.656 22.0321 176.802 22.0321C160.908 22.0321 145.015 22.0321 129.122 22.0321C120.534 22.0321 111.96 22.0321 103.373 22.0454C102.932 22.0454 102.251 21.6711 102.064 22.5134L102.077 22.4599Z" fill="white"/>
<path d="M168.253 99.2244C167.626 101.604 166.29 103.743 165.662 106.109C165.222 107.781 164.033 109.104 163.766 110.829C163.619 110.829 163.512 110.882 163.579 111.069C163.045 112.754 162.27 114.345 161.642 115.976C160.948 117.807 160.28 119.666 159.559 121.497C157.542 126.617 155.499 131.724 153.469 136.831C153.135 137.687 152.801 138.543 152.427 139.385C151.879 140.601 150.918 141.163 149.582 141.163C142.237 141.136 134.878 141.136 127.532 141.123C127.545 141.069 127.532 141.002 127.532 140.949C127.853 139.813 128.507 138.77 128.414 137.5C127.612 138.248 127.385 139.291 127.025 140.254C126.811 140.802 126.611 141.19 125.836 141.19C110.53 141.163 95.2383 141.163 79.9328 141.163C79.8527 141.163 79.7725 141.136 79.6924 141.123C79.6256 141.069 79.5722 141.016 79.5054 140.949C79.0914 138.97 78.664 136.992 78.25 135C78.3168 134.946 78.3836 134.893 78.4503 134.826C78.7842 134.826 79.1048 134.786 79.4386 134.786C99.5255 134.786 119.626 134.773 139.712 134.813C141.235 134.813 142.691 135.027 144.026 134.037C144.734 133.516 145.242 132.941 145.576 132.099C148.42 124.839 151.305 117.593 154.177 110.334C154.938 108.396 155.646 106.43 156.407 104.492C156.594 104.024 156.874 103.596 157.115 103.142C157.382 103.075 157.395 102.874 157.342 102.66C157.863 100.535 158.717 98.5159 159.505 96.4704C161.843 90.4677 164.247 84.4784 166.544 78.4624C168.681 72.8474 171.031 67.326 173.248 61.7378C174.731 58.0212 176.16 54.2913 177.616 50.5613C179.205 46.4704 180.768 42.3661 182.384 38.2752C184.374 33.2886 186.43 28.3287 188.407 23.3421C188.701 22.6068 189.035 22.326 189.809 22.4062C191.505 22.58 193.228 22.1121 194.898 22.687C196.808 23.3421 197.676 25.6148 196.687 27.4196C195.953 28.7699 195.793 30.3207 195.165 31.711C194.778 32.6068 194.283 33.449 193.95 34.3581C193.776 34.826 193.308 35.2672 193.776 35.8287C194.003 36.0961 193.722 36.3634 193.589 36.4437C192.547 37.1121 192.4 38.2618 192 39.2779C191.131 41.457 190.157 43.5961 189.422 45.8153C188.661 48.1282 187.472 50.2538 186.724 52.5533C186.577 52.5533 186.47 52.6068 186.537 52.7806C185.108 56.5907 183.599 60.3608 182.17 64.1709C181.075 67.1121 179.619 69.9062 178.791 72.9543C178.55 73.8233 177.776 74.5987 177.629 75.5212C177.202 78.1282 175.505 80.2271 174.851 82.7404C174.651 83.5426 174.744 84.5319 173.903 85.1068C173.756 85.1068 173.649 85.1602 173.716 85.3474C172.914 88.088 171.579 90.6281 170.711 93.342C170.136 95.1469 169.108 96.7912 168.747 98.6763C168.534 98.7832 168.28 98.8501 168.293 99.1709L168.253 99.2244Z" fill="white"/>
<path d="M70.5171 77.0454C68.4737 75.4946 65.9762 75.2406 63.6123 74.5855C64.2934 73.1684 64.9612 71.7513 65.6424 70.3341C65.8694 69.8662 66.2033 69.425 66.1365 68.8635C66.0964 68.4892 66.2567 68.4224 66.6173 68.3689C68.5005 68.1015 68.9011 67.1657 67.8327 65.5347C67.1649 64.5186 66.8043 63.5293 67.5121 62.393C67.619 62.2192 67.6858 62.0186 67.806 61.8849C68.2601 61.3636 68.7275 60.6951 69.5288 61.0026C70.2767 61.2833 70.3435 62.032 70.3168 62.7539C70.3035 63.2486 70.3168 63.7432 70.3035 64.2379C70.3035 64.6657 70.2901 65.0935 70.8243 65.1871C71.2517 65.2539 71.5455 65.1202 71.826 64.7058C72.2267 64.1309 72.5338 63.4625 73.2016 63.0614C74.2434 62.4197 75.205 62.0053 76.5004 62.4331C77.4353 62.7406 78.4771 62.8609 79.4921 62.7272C80.0397 62.6603 80.1866 62.8876 80.1866 63.409C80.1866 64.532 79.9729 65.6817 80.5739 66.7379C80.6941 66.9652 80.614 67.1791 80.427 67.2593C79.0914 67.8742 78.9178 69.278 78.3302 70.3876C77.8093 71.3636 77.1682 72.2325 76.4604 73.0614C75.6457 74.0106 74.6974 74.0373 73.629 73.6229C72.24 73.0748 71.3318 72.032 70.6106 70.7753C70.3969 70.4144 70.1699 69.9063 69.7425 70.1603C69.2617 70.4545 69.9028 70.7486 69.9562 71.0694C70.0363 71.4972 70.3302 71.8047 70.624 72.0587C71.8928 73.1283 71.8126 74.3047 71.0514 75.6283C70.7976 76.0694 70.6774 76.5908 70.5038 77.0721L70.5171 77.0454Z" fill="white"/>
<path d="M168.254 99.2241C168.254 98.9033 168.494 98.8364 168.708 98.7295C169.042 99.3445 168.508 99.1573 168.254 99.2241Z" fill="#070808"/>
<path d="M157.316 102.674C157.369 102.901 157.356 103.088 157.089 103.155C156.741 102.794 157.022 102.727 157.316 102.674Z" fill="#070808"/>
<path d="M152.962 111.069C152.895 110.896 153.002 110.842 153.149 110.815C153.189 110.869 153.216 110.922 153.256 110.976C153.162 111.003 153.055 111.043 152.962 111.069Z" fill="#070808"/>
<path d="M155.686 104.157C155.62 103.97 155.726 103.93 155.873 103.903C155.913 103.957 155.94 104.01 155.98 104.064C155.887 104.09 155.78 104.117 155.686 104.157Z" fill="#070808"/>
<path d="M151.012 116.003C150.932 115.816 151.052 115.775 151.186 115.735C151.132 115.829 151.066 115.909 151.012 116.003Z" fill="#070808"/>
<path d="M163.579 111.07C163.512 110.883 163.619 110.842 163.766 110.829C163.699 110.909 163.646 110.99 163.579 111.07Z" fill="#070808"/>
<path d="M78.4509 134.826C78.3841 134.879 78.3173 134.933 78.2505 134.999C78.2104 134.812 78.3039 134.786 78.4509 134.826Z" fill="#CEDCFC"/>
<path d="M153.723 109.091C153.643 108.904 153.763 108.864 153.897 108.837C153.843 108.917 153.776 109.011 153.723 109.091Z" fill="#070808"/>
<path d="M186.511 52.821C186.444 52.6339 186.551 52.5938 186.698 52.5938C186.631 52.674 186.577 52.7542 186.511 52.821Z" fill="#070808"/>
<path d="M79.4929 140.936C79.4929 140.936 79.6131 141.043 79.6799 141.109C79.5063 141.176 79.4662 141.109 79.4929 140.936Z" fill="#CEDCFC"/>
<path d="M127.519 140.936C127.519 140.936 127.546 141.056 127.519 141.109C127.466 141.109 127.399 141.109 127.346 141.109C127.399 141.056 127.453 141.002 127.519 140.949V140.936Z" fill="#CEDCFC"/>
<path d="M173.689 85.4008C173.623 85.2136 173.729 85.1735 173.876 85.1602C173.809 85.2404 173.743 85.3206 173.689 85.4008Z" fill="#070808"/>
<path d="M78.0098 134.278L78.0632 134.185L78.1433 134.211C78.1033 134.251 78.0632 134.278 78.0098 134.278Z" fill="#070808"/>
<path d="M12.6344 24.1305C12.6077 23.1412 13.5293 22.2187 14.571 22.192C15.6929 22.1653 16.5743 23.0476 16.5476 24.1706C16.5209 25.0931 15.4258 26.1492 14.4775 26.1492C13.6228 26.1492 12.6478 25.0797 12.6211 24.1171L12.6344 24.1305Z" fill="white"/>
<path d="M13.0347 36.0688C12.2467 36.0154 11.6724 35.6277 11.6858 34.9325C11.6991 34.3309 12.0197 33.7293 12.9011 33.7961C13.6891 33.8496 14.1298 34.1303 14.1165 34.9592C14.1165 35.7212 13.6758 36.0287 13.0347 36.0688Z" fill="white"/>
<path d="M111.559 92.5663C110.277 91.9781 108.914 92.0716 107.565 92.0449C107.565 91.3096 107.565 90.5743 107.565 89.839C107.565 88.5289 107.699 87.2321 108.607 86.2428C110.477 84.1973 113.015 83.5021 115.766 82.8203C115.218 83.8364 114.323 83.8497 113.616 84.1706C112.173 84.8257 112.133 84.9192 113.201 86.0155C115.031 87.8738 114.978 89.184 113.055 90.9219C112.507 91.4166 111.666 91.6706 111.559 92.5797V92.5663Z" fill="white"/>
<path d="M25.4425 126.63C26.0168 128.328 26.324 130.066 26.1904 131.871C26.137 132.539 26.4175 133.114 26.6579 133.703C26.7514 133.957 26.9383 134.384 26.4308 134.491C26.1237 134.558 25.8031 134.612 25.6428 134.157C25.4959 133.743 25.1353 133.368 25.0686 132.954C24.8816 131.711 24.1604 131.162 22.9851 130.908C21.6896 130.628 20.4609 130.106 19.1654 129.826C18.4041 129.665 18.4575 129.344 18.6846 128.809C19.0719 127.914 19.6863 127.152 20.2205 126.35C21.93 127.112 23.6796 127.005 25.4425 126.617V126.63Z" fill="white"/>
<path d="M111.559 92.5664C111.652 91.6573 112.507 91.4033 113.055 90.9087C114.978 89.1707 115.031 87.8606 113.202 86.0023C112.12 84.906 112.173 84.8124 113.616 84.1573C114.31 83.8365 115.218 83.8097 115.766 82.8071C113.015 83.4889 110.477 84.1841 108.607 86.2295C107.699 87.2188 107.552 88.529 107.566 89.8258C107.566 90.5611 107.566 91.2964 107.566 92.0317C107.312 92.1119 107.071 92.2055 106.818 92.2857C106.818 91.0424 106.804 89.7991 106.791 88.5691C107.098 87.7536 107.325 86.8713 107.739 86.1092C108.754 84.2509 110.771 83.7964 112.481 82.9675C113.322 82.5664 114.27 82.2188 115.272 82.1654C115.753 82.1386 116.207 82.2723 116.38 82.7269C116.581 83.2349 116.26 83.6226 115.833 83.9301C115.325 84.2777 114.778 84.5049 114.19 84.6787C113.602 84.8525 113.295 85.1065 113.923 85.7215C114.684 86.4836 115.352 87.3659 115.258 88.5691C115.312 89.5584 114.764 90.2135 114.097 90.8552C113.349 91.5638 112.494 92.1921 112.04 93.168C111.879 92.9675 111.733 92.767 111.572 92.5664H111.559Z" fill="#070808"/>
<path d="M7.86685 130.815C10.0972 134.371 13.3694 136.216 17.3226 137.018C18.4979 137.259 19.6331 137.686 20.7951 137.994C21.3426 138.141 21.4628 138.422 21.2759 138.916C21.129 139.331 21.0355 139.759 20.8886 140.16C20.5947 141.002 20.7283 141.457 21.73 141.697C22.6114 141.911 23.0789 142.112 23.2926 140.882C23.6398 138.903 23.7734 138.903 25.7366 139.451C27.4328 139.919 29.1022 140.507 30.8118 140.895C33.2959 141.47 35.78 141.309 38.1707 140.347C38.4378 140.24 38.6916 140.026 38.932 140.28C39.1323 140.481 38.9053 140.721 38.8385 140.949C37.5563 145.454 36.2876 149.959 35.0321 154.465C34.6448 155.842 34.1774 156.122 32.7216 155.775C27.2859 154.438 21.9704 152.713 16.5881 151.203C12.7416 150.12 8.89523 149.05 5.08889 147.807C3.23246 147.205 3.00542 146.938 3.52629 145.146C4.71493 141.042 5.94365 136.951 7.18572 132.874C7.38605 132.205 7.39941 131.47 7.8535 130.788L7.86685 130.815Z" fill="white"/>
<path d="M27.272 132.941C30.5709 134.184 33.9899 134.692 37.2086 135.936C37.5425 136.069 37.9432 136.19 38.3438 136.243C38.9582 136.323 39.6794 136.591 39.7195 137.366C39.7595 138.155 39.626 138.904 38.7178 139.331C35.6594 140.775 32.5475 140.722 29.3822 139.799C28.0467 139.412 26.6977 139.064 25.3622 138.676C24.5876 138.449 23.8263 138.182 24.4139 137.112C24.6276 136.738 24.454 136.484 24.1468 136.297C23.025 135.575 22.237 135.789 21.7829 136.992C21.6627 137.313 21.6226 137.54 21.262 137.42C17.9231 136.31 14.3438 135.909 11.4056 133.69C10.1101 132.7 9.16186 131.457 8.34717 130.093C7.98656 129.478 8.16019 128.89 8.57421 128.409C8.96152 127.954 9.37555 127.821 10.07 128.021C14.4106 129.331 18.7779 130.548 23.1452 131.778C23.6927 131.938 24.0133 132.259 24.2136 132.767C24.4273 133.289 24.7211 133.797 24.8814 134.331C25.2153 135.428 26.0834 135.334 26.8714 135.214C27.8063 135.067 27.3255 134.238 27.419 133.703C27.4457 133.503 27.3522 133.275 27.2854 132.928L27.272 132.941Z" fill="white"/>
<path d="M143.399 176.444C142.865 176.19 143.065 175.775 143.225 175.414C143.933 173.797 144.521 172.112 145.402 170.601C147.927 166.297 150.972 162.433 154.992 159.372C158.237 156.898 161.75 154.746 164.474 151.618C164.648 151.417 164.848 151.19 165.062 151.404C165.369 151.724 164.968 151.898 164.808 152.085C162.604 154.545 160.027 156.537 157.356 158.449C151.212 162.834 146.591 168.409 144.04 175.601C143.92 175.936 143.88 176.337 143.399 176.444Z" fill="#CEDCFC"/>
<path d="M170.925 135.414C170.991 140.441 169.923 144.706 167.559 148.636C167.412 148.877 167.238 149.118 167.065 149.331C166.958 149.465 166.758 149.545 166.637 149.425C166.544 149.331 166.517 149.118 166.544 148.984C166.584 148.783 166.704 148.61 166.811 148.436C169.963 143.315 170.698 137.741 169.95 131.872C169.843 130.976 169.763 130.08 169.656 129.184C169.616 128.85 169.269 128.356 169.789 128.249C170.377 128.142 170.324 128.823 170.35 129.131C170.551 131.364 171.125 133.583 170.911 135.401L170.925 135.414Z" fill="#CEDCFC"/>
<path d="M106.19 166.403C105.589 166.31 105.082 166.043 105.108 165.361C105.135 164.639 105.683 164.331 106.351 164.358C106.965 164.385 107.312 164.772 107.312 165.387C107.312 166.083 106.871 166.377 106.19 166.403Z" fill="#CEDCFC"/>
<path d="M115.245 88.5826C115.352 87.3794 114.684 86.497 113.909 85.735C113.295 85.12 113.602 84.866 114.177 84.6922C114.764 84.5184 115.325 84.3045 115.819 83.9436C116.247 83.6494 116.567 83.2617 116.367 82.7403C116.193 82.2858 115.739 82.1655 115.258 82.1788C114.27 82.219 113.322 82.5665 112.467 82.981C110.757 83.7965 108.741 84.2644 107.726 86.1227C107.312 86.8847 107.085 87.7537 106.778 88.5826C102.424 88.5826 98.0697 88.7163 93.7158 88.5558C89.6289 88.4088 87.0246 85.5211 88.053 81.4435C88.6273 79.1708 90.8844 77.5398 93.4219 77.5264C98.8042 77.4997 104.187 77.4997 109.555 77.4863C109.796 77.7002 110.023 77.9275 110.29 78.1013C110.651 78.3286 110.998 78.4088 110.958 77.7804C111.278 77.3927 111.706 77.5398 112.106 77.5398C114.924 77.5398 117.742 77.5398 120.547 77.5398C120.347 78.1013 120.48 78.4088 121.108 78.128C121.375 78.0077 121.589 77.727 121.816 77.5131C124.607 77.5131 127.385 77.5131 130.177 77.5398C133.502 77.5532 135.893 79.8259 135.906 82.981C135.906 86.1628 133.489 88.5692 130.19 88.6093C127.452 88.6494 124.701 88.6628 121.963 88.6762C121.682 88.4623 121.415 88.235 121.108 88.0478C120.734 87.8206 120.347 87.6601 120.36 88.3687C120.347 88.4489 120.333 88.5291 120.32 88.6093C118.624 88.6093 116.914 88.6093 115.218 88.6093L115.245 88.5826ZM118.651 82.9542C118.651 81.243 117.983 80.0398 116.794 79.5318C115.379 78.9302 113.803 79.1708 112.868 80.1468C112.667 80.3473 112.24 80.5478 112.587 80.9222C112.948 81.3099 113.175 80.8954 113.348 80.6815C114.377 79.4516 116.554 79.9329 117.355 80.8821C118.37 82.0986 118.13 84.0906 116.834 85.0799C116.621 85.2403 116.247 85.2403 116.54 85.6548C116.834 86.0692 117.075 85.8553 117.328 85.628C118.156 84.8526 118.931 84.0639 118.637 82.9542H118.651Z" fill="white"/>
<path d="M116.942 41.9922C116.287 41.043 116.808 40.0269 117.049 39.1847C118.771 33.0483 122.578 28.8638 129.015 27.7408C133.69 26.9253 137.59 30.3077 137.643 34.9066C137.683 38.3424 136.788 41.4441 134.237 43.9039C133.676 43.1954 133.009 42.674 132.167 42.313C131.019 41.8318 129.883 41.2836 128.735 40.7622C128.775 40.174 128.922 39.7195 129.603 39.4788C129.897 39.3719 130.271 39.1713 130.511 38.7703C131.366 37.3531 132.007 35.8291 133.035 34.4788C133.984 33.2355 133.249 31.9788 131.713 31.8318C131.192 31.7783 130.818 31.5376 130.484 31.1767C129.162 29.7328 127.72 29.5858 126.798 31.2435C125.489 33.5831 124.862 36.2435 124.648 38.9307C124.608 39.4253 124.648 39.9735 124.501 40.4815C121.923 40.6954 119.372 41.0162 116.942 41.9788V41.9922Z" fill="white"/>
<path d="M119.265 62.714C112.734 62.714 106.217 62.714 99.6858 62.714C98.8176 62.714 97.6691 62.9412 97.6958 61.5642C97.7358 60.2674 98.8176 60.2541 99.7926 60.2541C109.556 60.2541 119.332 60.2541 129.095 60.2541C132.38 60.2541 135.666 60.2541 138.938 60.2541C139.659 60.2541 140.487 60.1872 140.808 61.0829C141.142 62.0188 140.567 62.7006 139.445 62.714C136.12 62.7273 132.794 62.714 129.469 62.714C126.063 62.714 122.657 62.714 119.252 62.714H119.265Z" fill="white"/>
<path d="M128.734 40.7615C129.87 41.2829 131.005 41.8177 132.167 42.3123C133.008 42.6599 133.689 43.1947 134.237 43.9032C133.422 45.4941 132.047 46.5102 130.591 47.4059C128.093 48.93 125.449 49.7856 122.444 49.1973C119.199 48.569 116.514 45.2134 116.955 41.9915C119.386 41.0289 121.936 40.708 124.514 40.4941C124.234 41.4834 123.9 42.5129 125.035 43.1947C126.197 43.8899 126.971 43.1278 127.773 42.3925C128.267 41.9246 128.334 41.2562 128.748 40.7615H128.734Z" fill="#5C78EF"/>
<path d="M102.077 22.46C102.264 21.6177 102.932 21.9921 103.386 21.9921C111.974 21.9653 120.548 21.9787 129.136 21.9787C145.029 21.9787 160.922 21.9787 176.815 21.9787C177.67 21.9787 178.538 22.0322 179.272 22.4734C181.062 23.5161 181.343 25.3611 180.408 27.4333C180.06 28.222 179.7 28.9841 179.646 29.96C179.606 30.8156 178.605 31.6579 178.324 32.6605C177.55 35.5081 175.68 37.9413 175.146 40.8557C174.892 42.2327 173.904 43.1953 173.596 44.5188C173.249 46.0295 172.568 47.4466 171.82 48.8103C171.686 49.0509 171.66 49.4787 171.192 49.3985C171.072 49.2915 170.671 49.452 170.805 49.1445C174.157 41.7915 176.895 34.1712 179.86 26.6579C180.755 24.3851 179.593 22.6605 177.069 22.6739C152.588 22.7006 128.094 22.6873 103.613 22.6739C103.106 22.6739 102.545 22.9012 102.091 22.4466L102.077 22.46Z" fill="black"/>
<path d="M115.566 69.1175C111.252 69.1175 106.952 69.1041 102.638 69.1175C101.716 69.1175 100.888 68.9972 100.928 67.8875C100.968 66.8581 101.77 66.6309 102.691 66.6309C111.265 66.6309 119.84 66.6309 128.427 66.6309C129.696 66.6309 130.444 67.326 130.177 68.2351C129.937 69.0239 129.335 69.1041 128.628 69.1041C124.274 69.0908 119.933 69.1041 115.579 69.1041L115.566 69.1175Z" fill="white"/>
<path d="M123.74 56.524C119.466 56.524 115.192 56.5107 110.918 56.5374C109.97 56.5374 109.155 56.3101 109.155 55.3075C109.155 54.3048 109.957 54.0508 110.905 54.0508C119.492 54.0775 128.08 54.0642 136.668 54.0508C137.309 54.0508 137.937 54.0775 138.284 54.7059C138.805 55.6283 138.15 56.5107 136.922 56.524C133.636 56.5374 130.351 56.524 127.065 56.524C125.957 56.524 124.848 56.524 123.74 56.524Z" fill="white"/>
<path d="M151.172 100.721C151.119 102.593 150.104 104.171 149.463 105.842C147.125 111.898 144.721 117.941 142.304 123.97C142.064 124.572 142.197 125.227 141.796 125.802C140.768 127.312 139.473 128.008 137.589 127.914C135.052 127.78 132.501 127.887 129.963 127.874C129.576 127.874 129.122 128.048 128.828 127.62C129.122 127.045 129.656 127.179 130.124 127.179C132.634 127.179 135.132 127.179 137.643 127.179C139.953 127.179 140.167 126.951 141.129 124.759C143.359 119.679 145.256 114.451 147.312 109.304C148.367 106.671 149.409 104.024 150.424 101.363C150.571 100.976 150.691 100.695 151.159 100.721H151.172Z" fill="#070808"/>
<path d="M83.886 44.4245C83.3785 43.9699 83.7791 43.4619 83.926 43.0876C84.8476 40.6812 86.0629 38.3683 86.7441 35.8951C87.5053 33.1411 89.2416 30.8149 89.8292 28.0341C89.9227 27.6063 90.1497 27.3924 90.5371 27.2988C91.0312 27.6331 90.7507 28.0074 90.5905 28.3817C88.8142 32.7534 87.0245 37.125 85.2482 41.4967C84.8476 42.4994 84.714 43.6224 83.886 44.4245Z" fill="#070808"/>
<path d="M110.985 77.7667C111.025 78.4084 110.678 78.3282 110.318 78.0875C110.05 77.9137 109.837 77.6731 109.583 77.4726C109.062 76.9111 108.528 76.3496 108.007 75.7881C107.847 75.6143 107.62 75.4405 107.887 75.1865C108.127 74.9592 108.328 75.0795 108.515 75.2667C109.343 76.0955 110.157 76.9378 110.985 77.78V77.7667Z" fill="#070808"/>
<path d="M121.843 77.5001C121.603 77.714 121.403 77.9814 121.135 78.1151C120.508 78.3958 120.374 78.1017 120.575 77.5269C121.242 76.8317 121.91 76.1231 122.591 75.4279C122.872 75.1338 123.219 74.7728 123.606 75.1873C124.034 75.6285 123.446 75.7755 123.246 76.0028C122.805 76.5108 122.324 77.0055 121.857 77.5001H121.843Z" fill="#070808"/>
<path d="M120.388 88.3421C120.388 87.6336 120.762 87.794 121.136 88.0213C121.429 88.2084 121.697 88.4357 121.99 88.6496C122.471 89.1977 122.952 89.7325 123.419 90.294C123.566 90.4678 123.954 90.6282 123.58 90.9357C123.299 91.163 123.139 90.9357 122.979 90.7619C122.217 90.04 121.469 89.3047 120.708 88.5828C120.601 88.5026 120.508 88.4224 120.401 88.3421H120.388Z" fill="#070808"/>
<path d="M120.388 88.3418C120.495 88.422 120.588 88.5022 120.695 88.5824C120.575 88.5824 120.468 88.5824 120.348 88.5824C120.348 88.5022 120.374 88.422 120.388 88.3418Z" fill="#CEDCFC"/>
<path d="M118.651 82.9412C118.932 84.0642 118.157 84.853 117.342 85.615C117.089 85.8556 116.848 86.0562 116.554 85.6417C116.261 85.2273 116.635 85.2407 116.848 85.0669C118.144 84.0776 118.371 82.0722 117.369 80.869C116.568 79.9064 114.391 79.4252 113.362 80.6685C113.189 80.8824 112.962 81.3102 112.601 80.9091C112.254 80.5348 112.695 80.3342 112.882 80.1337C113.803 79.1578 115.392 78.9171 116.808 79.5187C117.983 80.0134 118.678 81.2166 118.665 82.9412H118.651Z" fill="#070808"/>
<path d="M128.734 40.7616C128.32 41.2429 128.253 41.9247 127.759 42.3927C126.971 43.1413 126.183 43.89 125.021 43.1948C123.886 42.513 124.22 41.4836 124.5 40.4943C124.647 39.9862 124.607 39.4381 124.647 38.9435C124.861 36.2563 125.502 33.5959 126.798 31.2563C127.732 29.5985 129.161 29.7456 130.484 31.1894C130.818 31.5504 131.192 31.791 131.712 31.8445C133.248 31.9916 133.983 33.2483 133.035 34.4916C132.006 35.8418 131.352 37.3525 130.51 38.783C130.27 39.1841 129.896 39.3846 129.602 39.4916C128.921 39.7322 128.774 40.1868 128.734 40.775V40.7616ZM128.12 33.3017C127.318 33.1814 126.971 33.5156 126.744 34.2777C126.45 35.267 125.956 36.1894 125.542 37.1386C125.235 37.8338 125.061 38.5691 125.636 39.1574C126.197 39.7189 126.958 39.8793 127.746 39.652C129.535 39.1306 131.378 36.9247 131.472 35.0531C131.499 34.5317 131.819 33.6493 130.871 33.5825C129.949 33.5156 129.015 33.5558 128.12 33.2884V33.3017ZM128.08 40.2402C127.292 40.2402 126.637 40.3071 126.01 40.2269C125.155 40.1199 125.182 40.8418 124.941 41.283C124.701 41.7108 124.821 42.0852 125.208 42.4461C125.662 42.8739 126.076 42.7402 126.53 42.5798C127.559 42.2322 127.692 41.2563 128.08 40.2536V40.2402Z" fill="black"/>
<path d="M128.107 33.3015C129.002 33.5555 129.937 33.5288 130.858 33.5956C131.807 33.6625 131.486 34.5448 131.459 35.0662C131.366 36.9379 129.523 39.1304 127.733 39.6651C126.945 39.8924 126.184 39.732 125.623 39.1705C125.049 38.5822 125.222 37.8469 125.53 37.1518C125.944 36.2026 126.438 35.2801 126.732 34.2908C126.959 33.5154 127.306 33.1812 128.107 33.3149V33.3015Z" fill="white"/>
<path d="M128.067 40.2405C127.666 41.2432 127.546 42.2191 126.518 42.5667C126.064 42.7272 125.636 42.8609 125.196 42.433C124.808 42.0721 124.688 41.6978 124.929 41.2699C125.182 40.8288 125.142 40.1068 125.997 40.2138C126.638 40.294 127.293 40.2272 128.067 40.2272V40.2405Z" fill="white"/>
</svg>
