<svg viewBox="0 0 95 96" fill="none" xmlns="http://www.w3.org/2000/svg">
<circle cx="47.5" cy="47.7305" r="45.5" stroke="#FCE5F2" stroke-width="4"/>
<path d="M82.8777 79.0766C82.8777 79.0862 82.8777 79.0958 82.8777 79.1054C77.1941 75.1104 71.5321 72.0459 65.8937 69.9121C60.2553 67.7782 54.232 66.7113 47.8259 66.7113C41.4199 66.7113 35.4202 67.7782 29.827 69.9121C27.2508 70.8946 24.6638 72.0741 22.0683 73.4526C19.0577 75.0519 16.0342 76.9131 13 79.0426C21.4812 88.9544 34.0396 95.2305 48.056 95.2305C61.9985 95.2305 74.5001 89.0201 82.9785 79.1982C82.9857 79.1899 82.9929 79.1816 83 79.1734L82.8777 79.0766Z" fill="#FCE5F2"/>
<path d="M34.631 53.1668C31.0678 49.5808 29.2851 45.1552 29.2851 39.8876C29.2851 34.6222 31.0678 30.1965 34.631 26.6084C38.1964 23.0224 42.594 21.2305 47.8259 21.2305C53.0601 21.2305 57.4576 23.0224 61.0209 26.6084C64.5863 30.1965 66.3668 34.6222 66.3668 39.8876C66.3668 45.1552 64.5863 49.5808 61.0209 53.1668C57.4576 56.755 53.0601 58.5469 47.8259 58.5469C42.594 58.5469 38.1964 56.755 34.631 53.1668Z" fill="#FCE5F2"/>
</svg>
