<svg width="25" height="25" viewBox="0 0 25 25" fill="none" xmlns="http://www.w3.org/2000/svg">
<path d="M21.7279 22.3755H21.7779V22.3255V3.65885V3.60885H21.7279H3.0612H3.0112V3.65885V22.3255V22.3755H3.0612H21.7279ZM17.7279 8.94219H12.3945C11.6888 8.94219 11.1112 8.36457 11.1112 7.65885C11.1112 6.95314 11.6888 6.37552 12.3945 6.37552H17.7279C18.4336 6.37552 19.0112 6.95314 19.0112 7.65885C19.0112 8.36457 18.4336 8.94219 17.7279 8.94219ZM17.7279 14.2755H12.3945C11.6888 14.2755 11.1112 13.6979 11.1112 12.9922C11.1112 12.2865 11.6888 11.7089 12.3945 11.7089H17.7279C18.4336 11.7089 19.0112 12.2865 19.0112 12.9922C19.0112 13.6979 18.4336 14.2755 17.7279 14.2755ZM17.7279 19.6089H12.3945C11.6888 19.6089 11.1112 19.0312 11.1112 18.3255C11.1112 17.6198 11.6888 17.0422 12.3945 17.0422H17.7279C18.4336 17.0422 19.0112 17.6198 19.0112 18.3255C19.0112 19.0312 18.4336 19.6089 17.7279 19.6089ZM5.77786 6.37552H8.34453V8.94219H5.77786V6.37552ZM5.77786 11.7089H8.34453V14.2755H5.77786V11.7089ZM5.77786 17.0422H8.34453V19.6089H5.77786V17.0422ZM1.72786 1.04219H23.0612C23.7669 1.04219 24.3445 1.6198 24.3445 2.32552V23.6589C24.3445 24.3646 23.7669 24.9422 23.0612 24.9422H1.72786C1.02215 24.9422 0.444531 24.3646 0.444531 23.6589V2.32552C0.444531 1.6198 1.02215 1.04219 1.72786 1.04219Z" fill="#334D6E" stroke="white" stroke-width="0.1"/>
</svg>
