<svg width="20" height="20" viewBox="0 0 20 20" fill="none" xmlns="http://www.w3.org/2000/svg">
<path d="M9.88925 17.7659C10.0937 17.7659 10.2846 17.6633 10.398 17.4924L12.0284 15.035C12.2157 14.7527 12.1398 14.3713 11.8588 14.1831C11.5779 13.9949 11.1983 14.0712 11.011 14.3535L10.5007 15.1226V7.74048C10.5996 7.79114 10.7031 7.83486 10.8108 7.87092L14.6152 8.76237C15.0313 8.90173 15.312 9.293 15.312 9.73372V11.2491V12.1173C15.1198 12.3104 15.1153 12.109 15.0913 12.2886C15.0708 12.442 15.3119 12.312 15.312 12.48L15.6881 12.6203C15.688 12.7883 15.8748 12.5234 15.8954 12.6767C15.9194 12.8564 15.0327 12.7187 15.2249 12.9119C15.4171 13.105 15.4331 13.1556 15.6119 13.1798C15.7645 13.2004 15.7281 13.8554 15.8954 13.8553L15.9236 13.614C16.0909 13.614 16.4698 13.6346 16.6224 13.614C16.4302 13.8071 16.8012 13.5898 16.6224 13.614C16.8146 13.4208 16.5984 13.0915 16.6224 12.9119C16.6225 13.0799 16.6429 12.7585 16.6224 12.9119L17.3501 12.6203C17.3501 12.4523 16.7139 12.7737 16.6934 12.6203C16.6693 12.4407 16.7271 12.4818 16.5348 12.2886C16.3712 12.1241 16.5348 11.2491 16.5348 11.2491V9.73372C16.5348 8.76414 15.9174 7.90335 15.0019 7.59674L11.1974 6.70529C10.7813 6.56592 10.5007 6.17465 10.5007 5.73394V5.15739C11.0982 4.91436 11.5197 4.32576 11.5197 3.63824C11.5197 2.73346 10.7897 2 9.88925 2C8.98879 2 8.25882 2.73346 8.25882 3.63824C8.25882 4.32576 8.68032 4.91436 9.27784 5.15739V6.96052C9.27784 7.40124 8.99717 7.79251 8.58106 7.93188L5.34813 8.63732C4.43269 8.94393 3.81522 9.80472 3.81522 10.7743V12.3936C3.33323 12.6237 3 13.1173 3 13.6891C3 14.4808 3.63872 15.1226 4.42663 15.1226C5.21454 15.1226 5.85326 14.4808 5.85326 13.6891C5.85326 13.1173 5.52003 12.6237 5.03804 12.3936V10.7743C5.03804 10.3336 5.31871 9.94231 5.73482 9.80295L8.96775 9.0975C9.07541 9.06145 9.17894 9.01772 9.27784 8.96706V15.1226L8.76754 14.3535C8.58024 14.0712 8.20063 13.9949 7.91967 14.1831C7.6387 14.3713 7.56278 14.7527 7.75009 15.035L9.38053 17.4924C9.49392 17.6633 9.68482 17.7659 9.88925 17.7659Z" fill="#E6007A"/>
<path d="M17.3501 12.6203C17.3501 13.3958 16.7244 14.0245 15.9526 14.0245C15.1807 14.0245 14.555 13.3958 14.555 12.6203C14.555 11.8448 15.1807 11.2161 15.9526 11.2161C16.7244 11.2161 17.3501 11.8448 17.3501 12.6203Z" fill="#E6007A"/>
<path d="M12.6845 15.1916C12.6845 16.7426 11.4331 18 9.88948 18C8.34583 18 7.09445 16.7426 7.09445 15.1916C7.09445 13.6406 8.34583 12.3832 9.88948 12.3832C11.4331 12.3832 12.6845 13.6406 12.6845 15.1916Z" fill="#E6007A"/>
</svg>
