<svg width="12" height="12" viewBox="0 0 12 12" fill="none" xmlns="http://www.w3.org/2000/svg">
<path d="M5.73646 11.3391C5.877 11.3391 6.00825 11.2685 6.08621 11.151L7.20713 9.46157C7.33591 9.26749 7.28371 9.00526 7.09055 8.87587C6.89739 8.74648 6.63641 8.79892 6.50763 8.99301L6.15681 9.52177V4.44658C6.2248 4.48141 6.29598 4.51147 6.36999 4.53625L8.98557 5.14913C9.27164 5.24494 9.4646 5.51394 9.4646 5.81693V6.85877V7.45562C9.33244 7.58841 9.32939 7.44991 9.31286 7.57342C9.29876 7.67885 9.46456 7.58948 9.4646 7.70499L9.72318 7.80146C9.72313 7.91697 9.85155 7.73483 9.86565 7.84026C9.88218 7.96377 9.27255 7.86911 9.40471 8.0019C9.53686 8.13469 9.54787 8.16949 9.6708 8.1861C9.77572 8.20027 9.75069 8.65057 9.86565 8.65052L9.8851 8.4846C10.0001 8.48464 10.2606 8.49877 10.3655 8.4846C10.2333 8.61738 10.4884 8.46799 10.3655 8.4846C10.4977 8.35181 10.349 8.12541 10.3655 8.0019C10.3655 8.11741 10.3796 7.89647 10.3655 8.0019L10.8658 7.80146C10.8658 7.68595 10.4284 7.90689 10.4143 7.80146C10.3978 7.67795 10.4375 7.70621 10.3053 7.57342C10.1928 7.46035 10.3053 6.85877 10.3053 6.85877V5.81693C10.3053 5.15035 9.88078 4.55855 9.25142 4.34776L6.63584 3.73489C6.34977 3.63907 6.15681 3.37007 6.15681 3.06708V2.6707C6.5676 2.50362 6.85738 2.09896 6.85738 1.62629C6.85738 1.00426 6.35553 0.5 5.73646 0.5C5.11739 0.5 4.61554 1.00426 4.61554 1.62629C4.61554 2.09896 4.90532 2.50362 5.31611 2.6707V3.91036C5.31611 4.21335 5.12315 4.48235 4.83708 4.57817L2.61444 5.06316C1.98507 5.27395 1.56056 5.86575 1.56056 6.53233V7.64561C1.2292 7.80377 1.0001 8.14314 1.0001 8.53627C1.0001 9.08055 1.43922 9.52177 1.98091 9.52177C2.52259 9.52177 2.96172 9.08055 2.96172 8.53627C2.96172 8.14314 2.73262 7.80377 2.40125 7.64561V6.53233C2.40125 6.22934 2.59421 5.96034 2.88029 5.86452L5.10293 5.37953C5.17694 5.35474 5.24812 5.32468 5.31611 5.28986V9.52177L4.96529 8.99301C4.83651 8.79892 4.57553 8.74648 4.38237 8.87587C4.18921 9.00526 4.13701 9.26749 4.26579 9.46157L5.38671 11.151C5.46467 11.2685 5.59592 11.3391 5.73646 11.3391Z" fill="#407BFF"/>
<path d="M10.8658 7.80146C10.8658 8.33463 10.4356 8.76685 9.90498 8.76685C9.37435 8.76685 8.94419 8.33463 8.94419 7.80146C8.94419 7.26829 9.37435 6.83607 9.90498 6.83607C10.4356 6.83607 10.8658 7.26829 10.8658 7.80146Z" fill="#407BFF"/>
<path d="M7.6582 9.56922C7.6582 10.6356 6.79788 11.5 5.73662 11.5C4.67535 11.5 3.81503 10.6356 3.81503 9.56922C3.81503 8.50288 4.67535 7.63844 5.73662 7.63844C6.79788 7.63844 7.6582 8.50288 7.6582 9.56922Z" fill="#407BFF"/>
</svg>
