<svg width="12" height="12" viewBox="0 0 12 12" fill="none" xmlns="http://www.w3.org/2000/svg">
<path d="M0 8.70296V0.648093C0 0.504072 0.065 0.360051 0.195 0.216031C0.325 0.0720102 0.46 0 0.6 0H8.385C8.535 0 8.675 0.0694386 8.805 0.208316C8.935 0.347192 9 0.493785 9 0.648093V6.14145C9 6.28547 8.935 6.42949 8.805 6.57351C8.675 6.71753 8.535 6.78954 8.385 6.78954H2.4L0.39 8.85727C0.32 8.92928 0.2375 8.94728 0.1425 8.91127C0.0475 8.87527 0 8.80583 0 8.70296ZM3.015 9.8757C2.875 9.8757 2.7375 9.80369 2.6025 9.65967C2.4675 9.51564 2.4 9.37162 2.4 9.2276V7.71539H9.9V2.46892H11.4C11.54 2.46892 11.675 2.54093 11.805 2.68495C11.935 2.82898 12 2.97814 12 3.13245V11.7737C12 11.8766 11.9525 11.946 11.8575 11.982C11.7625 12.018 11.68 12 11.61 11.928L9.615 9.8757H3.015ZM8.1 0.925847H0.9V5.86369H8.1V0.925847Z" fill="white"/>
</svg>
