<svg xmlns="http://www.w3.org/2000/svg">
<rect width="37" height="28" rx="7" fill="none"/>
<path d="M17.7225 16.2C18.9875 16.2 20.0142 15.7967 20.8025 14.99C21.5725 14.1833 21.9575 13.065 21.9575 11.635C21.9575 9.875 21.3892 8.02333 20.2525 6.08C19.1158 4.11833 17.5942 2.3675 15.6875 0.827496L13.9825 2.285C14.3675 2.67 14.7617 3.20167 15.165 3.88C15.55 4.54 15.8892 5.255 16.1825 6.025C16.4758 6.795 16.6592 7.51917 16.7325 8.1975C15.7608 8.43583 14.9908 8.9125 14.4225 9.6275C13.8358 10.3242 13.5425 11.1583 13.5425 12.13C13.5425 13.3217 13.9275 14.3025 14.6975 15.0725C15.4675 15.8242 16.4758 16.2 17.7225 16.2ZM28.2 16.2C29.4833 16.2 30.51 15.7967 31.28 14.99C32.05 14.1833 32.435 13.065 32.435 11.635C32.435 9.875 31.8667 8.02333 30.73 6.08C29.5933 4.11833 28.0808 2.3675 26.1925 0.827496L24.46 2.285C24.845 2.67 25.2392 3.20167 25.6425 3.88C26.0275 4.54 26.3667 5.255 26.66 6.025C26.9533 6.795 27.1367 7.51917 27.21 8.1975C26.2383 8.43583 25.4683 8.9125 24.9 9.6275C24.3133 10.3242 24.02 11.1583 24.02 12.13C24.02 13.3217 24.405 14.3025 25.175 15.0725C25.945 15.8242 26.9533 16.2 28.2 16.2Z" fill="#185CF6"/>
</svg>
