<svg  xmlns="http://www.w3.org/2000/svg">
<rect width="37" height="28" rx="7" fill="none"/>
<path d="M19.2775 16.2C18.0125 16.2 16.9858 15.7967 16.1975 14.99C15.4275 14.1833 15.0425 13.065 15.0425 11.635C15.0425 9.875 15.6108 8.02333 16.7475 6.08C17.8842 4.11833 19.4058 2.3675 21.3125 0.827496L23.0175 2.285C22.6325 2.67 22.2383 3.20167 21.835 3.88C21.45 4.54 21.1108 5.255 20.8175 6.025C20.5242 6.795 20.3408 7.51917 20.2675 8.1975C21.2392 8.43583 22.0092 8.9125 22.5775 9.6275C23.1642 10.3242 23.4575 11.1583 23.4575 12.13C23.4575 13.3217 23.0725 14.3025 22.3025 15.0725C21.5325 15.8242 20.5242 16.2 19.2775 16.2ZM8.8 16.2C7.51667 16.2 6.49 15.7967 5.72 14.99C4.95 14.1833 4.565 13.065 4.565 11.635C4.565 9.875 5.13333 8.02333 6.27 6.08C7.40667 4.11833 8.91917 2.3675 10.8075 0.827496L12.54 2.285C12.155 2.67 11.7608 3.20167 11.3575 3.88C10.9725 4.54 10.6333 5.255 10.34 6.025C10.0467 6.795 9.86333 7.51917 9.79 8.1975C10.7617 8.43583 11.5317 8.9125 12.1 9.6275C12.6867 10.3242 12.98 11.1583 12.98 12.13C12.98 13.3217 12.595 14.3025 11.825 15.0725C11.055 15.8242 10.0467 16.2 8.8 16.2Z" fill="#185CF6"/>
</svg>
