<svg width="16" height="16" viewBox="0 0 16 16" fill="none" xmlns="http://www.w3.org/2000/svg">
<path d="M8.0789 15C6.69473 14.9986 5.34204 14.5869 4.19182 13.8169C3.04161 13.0468 2.1455 11.9531 1.61676 10.6739C1.08803 9.39469 0.950412 7.98745 1.2213 6.63005C1.4922 5.27264 2.15944 4.02602 3.13868 3.04776C4.11793 2.0695 5.36522 1.40351 6.7229 1.13399C8.08057 0.864461 9.48767 1.00349 10.7663 1.53351C12.045 2.06353 13.1379 2.96074 13.9067 4.11174C14.6756 5.26273 15.0859 6.61582 15.0859 7.99999C15.0864 8.91996 14.9054 9.83098 14.5533 10.6809C14.2012 11.5308 13.685 12.303 13.0342 12.9532C12.3833 13.6034 11.6106 14.1188 10.7603 14.47C9.91006 14.8213 8.99886 15.0013 8.0789 15ZM8.08594 2.39967C6.9783 2.39967 5.89553 2.72812 4.97457 3.34349C4.0536 3.95887 3.33579 4.83352 2.91191 5.85684C2.48804 6.88017 2.37713 8.00621 2.59322 9.09256C2.80931 10.1789 3.34269 11.1768 4.12591 11.96C4.90913 12.7432 5.90701 13.2766 6.99337 13.4927C8.07973 13.7088 9.20576 13.5979 10.2291 13.174C11.2524 12.7501 12.1271 12.0323 12.7424 11.1114C13.3578 10.1904 13.6863 9.10763 13.6863 7.99999C13.6865 7.26447 13.5419 6.5361 13.2605 5.8565C12.9792 5.17691 12.5667 4.55943 12.0466 4.03933C11.5265 3.51924 10.909 3.10673 10.2294 2.82539C9.54984 2.54405 8.82146 2.39938 8.08594 2.39967Z" fill="red"/>
<path d="M8.78604 5.09173C8.78604 5.47839 8.47259 5.79184 8.08594 5.79184C7.69928 5.79184 7.38583 5.47839 7.38583 5.09173C7.38583 4.70507 7.69928 4.39163 8.08594 4.39163C8.47259 4.39163 8.78604 4.70507 8.78604 5.09173Z" fill="red"/>
<path d="M8.78604 10.7999V7.45812C8.78604 7.27244 8.71228 7.09437 8.58099 6.96307C8.44969 6.83177 8.27162 6.75801 8.08594 6.75801C7.90026 6.75801 7.72218 6.83177 7.59088 6.96307C7.45959 7.09437 7.38583 7.27244 7.38583 7.45812V10.7999C7.38583 10.9856 7.45959 11.1636 7.59088 11.2949C7.72218 11.4262 7.90026 11.5 8.08594 11.5C8.27162 11.5 8.44969 11.4262 8.58099 11.2949C8.71228 11.1636 8.78604 10.9856 8.78604 10.7999Z" fill="red"/>
</svg>
