<svg width="21" height="20" viewBox="0 0 21 20" fill="none" xmlns="http://www.w3.org/2000/svg">
<g id="call_split_FILL0_wght400_GRAD0_opsz48">
<path id="like 1 (Traced)" fill-rule="evenodd" clip-rule="evenodd" d="M10.8385 18.8439C10.7634 18.8166 10.6403 18.7355 10.565 18.6638C10.341 18.4504 10.3247 18.3479 10.3247 17.1523V16.1105L10.2288 15.9842C9.91145 15.5662 8.55986 14.0662 7.33024 12.7673L6.77372 12.1794L6.77407 7.67602L6.77446 3.17263L7.60908 2.87261C8.50656 2.54996 8.85582 2.44 9.26995 2.34973C10.0192 2.1864 10.0286 2.18599 13.4172 2.17097C15.6972 2.16086 16.6996 2.16789 16.8627 2.19518C17.7026 2.33578 18.3417 3.07629 18.3403 3.90742C18.3398 4.22586 18.2781 4.46198 18.1236 4.73653L18.0056 4.94631L18.2171 5.15737C18.4486 5.38828 18.5921 5.64157 18.6791 5.97286C18.7853 6.37722 18.6938 6.93681 18.4668 7.27133L18.3812 7.39753L18.6002 7.61643C19.1579 8.17387 19.2697 8.97126 18.8863 9.65661L18.7689 9.8665L18.9521 10.0429C19.6746 10.7387 19.6835 11.7812 18.9732 12.4849C18.8315 12.6252 18.6589 12.7537 18.5204 12.8218C18.112 13.0229 18.0408 13.0282 15.7478 13.0289C14.6021 13.0292 13.6647 13.0383 13.6647 13.0491C13.6647 13.0598 13.7935 13.5022 13.951 14.0322L14.2373 14.9958L14.2165 15.6326C14.192 16.3878 14.1271 16.6954 13.8929 17.166C13.4039 18.1489 12.4011 18.805 11.2818 18.8746C11.0594 18.8884 10.9376 18.88 10.8385 18.8439ZM1.5 7.9382V2.50408H3.60949H5.71898V7.9382V13.3723H3.60949H1.5V7.9382Z" fill="#F53C3C"/>
</g>
</svg>
