<svg viewBox="0 0 18 16" fill="none" xmlns="http://www.w3.org/2000/svg">
<path fill-rule="evenodd" clip-rule="evenodd" d="M9.50236 0.103988C9.4459 0.160448 9.38742 0.271609 9.37238 0.351058C9.35734 0.430507 9.13726 1.48152 8.88336 2.68662L8.42166 4.87773L7.82156 4.92714C6.79422 5.01175 5.78075 5.25985 4.86539 5.65082C4.41521 5.84311 3.7586 6.18879 3.46512 6.38808C3.28367 6.51127 3.21745 6.51471 3.10187 6.40694C2.97734 6.2908 2.62113 6.11888 2.37887 6.058C2.26239 6.02869 2.01222 6.0143 1.79807 6.02452C1.48933 6.0393 1.36988 6.0668 1.13218 6.17805C0.353756 6.54234 -0.112283 7.40171 0.0233695 8.22289C0.0951703 8.65778 0.287842 9.02172 0.598678 9.30948C0.740475 9.44075 0.922706 9.57971 1.0037 9.61834C1.13304 9.68 1.14846 9.70441 1.13055 9.81862C1.0911 10.0695 1.18795 10.9521 1.29572 11.3239C1.78071 12.9976 3.34971 14.3977 5.55388 15.1238C6.75099 15.5181 7.82998 15.6679 9.19973 15.63C11.6456 15.5624 13.7651 14.757 15.1543 13.3673C15.8424 12.6791 16.2648 11.9784 16.4586 11.2041C16.5406 10.8763 16.6266 9.96265 16.5909 9.79791C16.5714 9.70785 16.5926 9.67661 16.72 9.60803C16.9391 9.49 17.2301 9.16227 17.3808 8.86364C17.6516 8.32735 17.6559 7.76136 17.3935 7.20075C16.9512 6.25548 15.8089 5.83632 14.8632 6.27219C14.6928 6.35074 14.5207 6.45116 14.4807 6.49529C14.3751 6.61208 14.3049 6.59588 13.9702 6.37743C12.8897 5.67205 11.3166 5.15741 9.81475 5.01794L9.23707 4.96427L9.66242 2.92373C9.89639 1.80143 10.0912 0.87996 10.0954 0.876007C10.0996 0.872097 10.7367 0.997566 11.5113 1.15483L12.9195 1.44083L12.9659 1.61245C13.0717 2.00355 13.3219 2.30884 13.6909 2.49722C13.9775 2.64353 14.4454 2.64022 14.7651 2.48966C15.1008 2.33162 15.2568 2.18432 15.4072 1.88341C15.6496 1.39834 15.5704 0.83394 15.2025 0.424749C14.9272 0.118597 14.6642 0.00232351 14.2456 0.00180788C13.9671 0.00142117 13.881 0.0206281 13.6556 0.133206C13.5082 0.206898 13.3247 0.343452 13.2397 0.442753L13.0876 0.620429L11.4879 0.309507C10.608 0.138534 9.82446 -0.000770232 9.7466 3.20517e-06C9.65593 0.00086258 9.56806 0.0383313 9.50236 0.103988ZM6.11002 8.06558C6.398 8.16351 6.77488 8.54039 6.8728 8.82836C6.91242 8.94485 6.94482 9.16893 6.94482 9.32637C6.94482 9.82889 6.64541 10.2853 6.17357 10.502C5.88676 10.6338 5.36138 10.6285 5.09716 10.4912C4.10269 9.97434 4.07511 8.63775 5.04852 8.13386C5.27587 8.01617 5.36615 7.99357 5.60888 7.99357C5.76803 7.99357 5.99354 8.02596 6.11002 8.06558ZM12.379 8.18435C12.6471 8.31557 12.8895 8.56698 13.0184 8.8477C13.1607 9.15767 13.1483 9.65753 12.9903 9.97932C12.7896 10.388 12.4473 10.6287 11.9416 10.7168C11.8657 10.7299 11.7921 10.722 11.7779 10.6992C11.7638 10.6763 11.6905 10.6575 11.6151 10.6572C11.4213 10.6566 11.0776 10.4834 10.8813 10.2873C10.3036 9.71042 10.3929 8.74195 11.0668 8.27493C11.4435 8.01393 11.958 7.9784 12.379 8.18435ZM6.11221 12.5089C6.37282 12.6882 6.90808 12.9516 7.23211 13.06C7.75113 13.2336 8.24033 13.2904 9.00732 13.266C10.005 13.2344 10.6041 13.0617 11.3504 12.5904C11.8003 12.3063 12.0382 12.3063 12.1373 12.5903C12.1799 12.7127 12.1255 13.0167 12.0708 12.962C12.0596 12.9508 11.9151 13.0292 11.7495 13.1363C11.1314 13.5362 10.3716 13.8234 9.67617 13.9202C8.91769 14.0256 7.84712 13.9545 7.1167 13.7501C6.53198 13.5865 5.53961 13.0562 5.46777 12.8691C5.41535 12.7324 5.44216 12.5739 5.53433 12.4758C5.66835 12.3332 5.87391 12.345 6.11221 12.5089Z" />
</svg>
