<svg width="12" height="12" viewBox="0 0 12 12" fill="none" xmlns="http://www.w3.org/2000/svg">
<path d="M11.383 1.59908C11.2436 1.41902 11.082 1.2574 10.902 1.11805C10.4913 0.800252 10.0141 0.670611 9.47507 0.611746C8.95672 0.555139 8.30853 0.558042 7.51544 0.561595L5.40972 0.57099C5.06455 0.57253 4.78598 0.853598 4.78752 1.19877C4.78906 1.54395 5.07012 1.82252 5.4153 1.82098L7.48375 1.81175C8.32322 1.808 8.90001 1.80638 9.33937 1.85436C9.48216 1.86995 9.60149 1.89005 9.70283 1.91433L0.845778 10.7714C0.6017 11.0155 0.6017 11.4112 0.845778 11.6553C1.08986 11.8993 1.48558 11.8993 1.72966 11.6553L10.5867 2.79822C10.611 2.89956 10.6311 3.01889 10.6467 3.16167C10.6947 3.60104 10.693 4.17783 10.6893 5.0173L10.6801 7.08575C10.6785 7.43093 10.9571 7.71199 11.3023 7.71354C11.6475 7.71507 11.9285 7.4365 11.9301 7.09133L11.9395 4.9856C11.943 4.19251 11.9459 3.54433 11.8893 3.02597C11.8304 2.48695 11.7008 2.00973 11.383 1.59908Z" />
</svg>
