<svg width="24" height="24" viewBox="0 0 24 24" fill="none" xmlns="http://www.w3.org/2000/svg">
<path d="M15.6999 4.30176C17.6574 4.31265 18.7175 4.39946 19.409 5.091C20.1998 5.8818 20.1998 7.15458 20.1998 9.70014V15.1001C20.1998 17.6456 20.1998 18.9184 19.409 19.7092C18.6182 20.5 17.3454 20.5 14.7999 20.5H9.39994C6.85438 20.5 5.58161 20.5 4.7908 19.7092C4 18.9184 4 17.6456 4 15.1001V9.70013C4 7.15458 4 5.8818 4.7908 5.091C5.48234 4.39946 6.54245 4.31265 8.49995 4.30176" stroke="#E5007A" stroke-width="1.4"/>
<path d="M8.5 13.2998H15.6999" stroke="#E5007A" stroke-width="1.4" stroke-linecap="round"/>
<path d="M7.59961 10.1499H16.5995" stroke="#E5007A" stroke-width="1.4" stroke-linecap="round"/>
<path d="M9.40039 16.45H14.8003" stroke="#E5007A" stroke-width="1.4" stroke-linecap="round"/>
<path d="M8.5 3.84999C8.5 3.10441 9.10441 2.5 9.84999 2.5H14.3499C15.0955 2.5 15.6999 3.10441 15.6999 3.84999V4.74998C15.6999 5.49555 15.0955 6.09996 14.3499 6.09996H9.84999C9.10441 6.09996 8.5 5.49555 8.5 4.74998V3.84999Z" stroke="#E5007A" stroke-width="1.4"/>
</svg>
