<svg width="15" height="16" viewBox="0 0 15 16" fill="none" xmlns="http://www.w3.org/2000/svg">
<path d="M14.6666 14.4564C14.6655 14.7328 14.5558 14.9976 14.3613 15.1931C14.1668 15.3886 13.9033 15.4989 13.6283 15.5H1.54417C1.26813 15.5 1.0034 15.3898 0.808212 15.1936C0.613023 14.9974 0.503367 14.7314 0.503367 14.4539C0.503367 14.1765 0.613023 13.9104 0.808212 13.7142C1.0034 13.518 1.26813 13.4078 1.54417 13.4078H13.6258C13.7627 13.408 13.8981 13.4352 14.0245 13.488C14.1509 13.5408 14.2657 13.6181 14.3623 13.7154C14.459 13.8128 14.5356 13.9284 14.5878 14.0555C14.64 14.1826 14.6668 14.3188 14.6666 14.4564Z" fill="#243A57"/>
<path d="M13.1567 7.8729V10.908C13.1567 11.1855 13.0471 11.4515 12.8519 11.6477C12.6567 11.8439 12.392 11.9541 12.1159 11.9541C11.8399 11.9541 11.5752 11.8439 11.38 11.6477C11.1848 11.4515 11.0751 11.1855 11.0751 10.908V7.8729C11.0751 7.59546 11.1848 7.32939 11.38 7.13321C11.5752 6.93703 11.8399 6.82682 12.1159 6.82682C12.392 6.82682 12.6567 6.93703 12.8519 7.13321C13.0471 7.32939 13.1567 7.59546 13.1567 7.8729Z" fill="#243A57"/>
<path d="M8.62948 7.8729V10.908C8.62948 11.1855 8.51982 11.4515 8.32463 11.6477C8.12944 11.8439 7.86471 11.9541 7.58867 11.9541C7.31263 11.9541 7.0479 11.8439 6.85271 11.6477C6.65752 11.4515 6.54786 11.1855 6.54786 10.908V7.8729C6.54786 7.59546 6.65752 7.32939 6.85271 7.13321C7.0479 6.93703 7.31263 6.82682 7.58867 6.82682C7.86471 6.82682 8.12944 6.93703 8.32463 7.13321C8.51982 7.32939 8.62948 7.59546 8.62948 7.8729Z" fill="#243A57"/>
<path d="M4.09733 7.8729V10.908C4.09733 11.1855 3.98767 11.4515 3.79248 11.6477C3.59729 11.8439 3.33256 11.9541 3.05652 11.9541C2.78048 11.9541 2.51575 11.8439 2.32056 11.6477C2.12537 11.4515 2.01571 11.1855 2.01571 10.908V7.8729C2.01571 7.59546 2.12537 7.32939 2.32056 7.13321C2.51575 6.93703 2.78048 6.82682 3.05652 6.82682C3.33256 6.82682 3.59729 6.93703 3.79248 7.13321C3.98767 7.32939 4.09733 7.59546 4.09733 7.8729Z" fill="#243A57"/>
<path d="M14.6666 4.57565C14.6674 4.68786 14.6462 4.79913 14.6042 4.90309C14.5621 5.00705 14.5001 5.10165 14.4217 5.18149C14.3432 5.26132 14.2498 5.32481 14.1469 5.36833C14.044 5.41185 13.9336 5.43454 13.8219 5.43511H1.36093C1.16937 5.43795 0.98248 5.37554 0.830696 5.25804C0.678912 5.14053 0.571168 4.97485 0.525001 4.78797C0.478834 4.60108 0.496962 4.40399 0.576435 4.22878C0.655908 4.05357 0.792046 3.91055 0.96269 3.823L6.92656 0.666329C7.12936 0.557136 7.35586 0.5 7.58592 0.5C7.81599 0.5 8.04249 0.557136 8.24528 0.666329L14.2098 3.823C14.3469 3.89471 14.462 4.00272 14.5425 4.13537C14.623 4.26802 14.6659 4.42026 14.6666 4.57565Z" fill="#243A57"/>
</svg>
