<svg width="16" height="17" viewBox="0 0 16 17" fill="none" xmlns="http://www.w3.org/2000/svg">
<path d="M1.75 16.3326C1.41667 16.3326 1.125 16.2076 0.875 15.9576C0.625 15.7076 0.5 15.4159 0.5 15.0826V10.9576L3.3125 7.85341L4.20833 8.74925L1.75 11.4367H14.25L11.9375 8.81175L12.8333 7.91591L15.5 10.9576V15.0826C15.5 15.4159 15.375 15.7076 15.125 15.9576C14.875 16.2076 14.5833 16.3326 14.25 16.3326H1.75ZM1.75 15.0826H14.25V12.6867H1.75V15.0826ZM7.20833 9.97841L3.89583 6.66592C3.63194 6.40203 3.51389 6.10689 3.54167 5.7805C3.56944 5.45411 3.70833 5.16592 3.95833 4.91592L8.375 0.499249C8.6102 0.269249 8.90163 0.149249 9.24931 0.139249C9.59699 0.129249 9.89583 0.249249 10.1458 0.499249L13.4583 3.81175C13.6944 4.04786 13.816 4.32911 13.8229 4.6555C13.8299 4.98189 13.6944 5.28397 13.4167 5.56175L9 9.97841C8.76389 10.2145 8.47222 10.3395 8.125 10.3534C7.77778 10.3673 7.47222 10.2423 7.20833 9.97841ZM12.3958 4.62425L9.27083 1.49925L4.9375 5.83258L8.0625 8.95758L12.3958 4.62425Z" fill="#243A57"/>
</svg>
