<svg width="16" height="16" viewBox="0 0 16 16" fill="none" xmlns="http://www.w3.org/2000/svg">
<path fill-rule="evenodd" clip-rule="evenodd" d="M7.99981 3.60039C8.97183 3.60039 9.93346 3.64426 10.8828 3.73011C11.1397 3.75333 11.344 3.95184 11.3746 4.20787C11.4739 5.03801 11.541 5.87814 11.5746 6.72698L10.2241 5.37617C9.98982 5.14183 9.60992 5.14179 9.37558 5.37608C9.14124 5.61037 9.1412 5.99027 9.37549 6.22461L11.7749 8.62453C12.0092 8.85886 12.3891 8.85891 12.6234 8.62464L15.024 6.22472C15.2584 5.99043 15.2584 5.61054 15.0241 5.37619C14.7898 5.14184 14.4099 5.14179 14.1756 5.37607L12.7773 6.77397C12.7437 5.8612 12.6729 4.95784 12.5661 4.06538C12.4682 3.24659 11.8121 2.60923 10.9909 2.53498C10.0056 2.44589 9.00796 2.40039 7.99981 2.40039C6.99165 2.40039 5.99397 2.44589 5.00872 2.53498C4.18753 2.60923 3.5314 3.24659 3.43348 4.06538C3.38245 4.4921 3.33962 4.92132 3.30514 5.35288C3.27875 5.6832 3.52513 5.97237 3.85545 5.99876C4.18577 6.02515 4.47494 5.77877 4.50133 5.44845C4.53455 5.03258 4.57583 4.619 4.62499 4.20786C4.65561 3.95184 4.85991 3.75333 5.11679 3.73011C6.06616 3.64426 7.02778 3.60039 7.99981 3.60039ZM4.22471 7.37639C3.99043 7.14207 3.61056 7.14203 3.37622 7.37628L0.975615 9.77605C0.74126 10.0103 0.741192 10.3902 0.975467 10.6246C1.20974 10.8589 1.58964 10.859 1.82399 10.6247L3.22232 9.22689C3.25589 10.1396 3.32676 11.043 3.43348 11.9354C3.5314 12.7542 4.18752 13.3915 5.00872 13.4658C5.99397 13.5549 6.99165 13.6004 7.99981 13.6004C9.00796 13.6004 10.0056 13.5549 10.9909 13.4658C11.8121 13.3915 12.4682 12.7542 12.5661 11.9354C12.6172 11.5083 12.6601 11.0788 12.6946 10.6469C12.7209 10.3166 12.4745 10.0274 12.1442 10.001C11.8139 9.97465 11.5247 10.221 11.4984 10.5514C11.4651 10.9676 11.4238 11.3815 11.3746 11.7929C11.344 12.0489 11.1397 12.2474 10.8828 12.2707C9.93346 12.3565 8.97183 12.4004 7.99981 12.4004C7.02778 12.4004 6.06616 12.3565 5.11679 12.2707C4.85991 12.2474 4.65561 12.0489 4.62499 11.7929C4.52572 10.9628 4.45862 10.1227 4.42499 9.27389L5.77551 10.6246C6.00981 10.859 6.3897 10.859 6.62404 10.6247C6.85837 10.3904 6.8584 10.0105 6.6241 9.77616L4.22471 7.37639Z" fill="#fff" fill-opacity="0.7"/>
</svg>
