<svg width="16" height="16" viewBox="0 0 16 16" fill="none" xmlns="http://www.w3.org/2000/svg">
<path d="M4.36411 5.44128C4.22063 5.40343 4.10137 5.3038 4.0386 5.16934C3.97582 5.03488 3.97602 4.87949 4.03912 4.74518L5.14629 2.38893C5.2288 2.21333 5.40543 2.10132 5.59944 2.10156C5.79345 2.1018 5.96981 2.21425 6.05188 2.39005L6.5403 3.4362C6.55776 3.42934 6.57579 3.42339 6.59434 3.41842C9.49257 2.64184 12.4716 4.36178 13.2482 7.26001C14.0248 10.1582 12.3048 13.1373 9.40658 13.9138C6.50835 14.6904 3.52933 12.9705 2.75275 10.0723C2.5058 9.15063 2.51136 8.21937 2.72765 7.35355C2.79457 7.08564 3.06601 6.92271 3.33392 6.98963C3.60183 7.05656 3.76476 7.328 3.69783 7.59591C3.52164 8.30123 3.51678 9.05995 3.71868 9.81343C4.35231 12.1782 6.783 13.5816 9.14777 12.9479C11.5125 12.3143 12.9159 9.8836 12.2823 7.51883C11.659 5.19273 9.29693 3.79685 6.9692 4.35489L7.462 5.41042C7.54407 5.58622 7.51704 5.79362 7.39265 5.94251C7.26827 6.0914 7.06898 6.15489 6.88139 6.1054L4.36411 5.44128Z" fill="#FF3C5F"/>
</svg>
