<svg width="24" height="24" viewBox="0 0 24 24" fill="none" xmlns="http://www.w3.org/2000/svg">
<path d="M18.4068 17.8362C18.2354 17.8362 18.0937 17.7801 17.9816 17.6681C17.8696 17.556 17.8136 17.4143 17.8136 17.2429V14.3955C17.8136 13.6836 17.5631 13.0772 17.0621 12.5763C16.5612 12.0753 15.9548 11.8249 15.2429 11.8249H7.01695L9.66667 14.4746C9.77213 14.58 9.82486 14.7119 9.82486 14.8701C9.82486 15.0282 9.76554 15.1667 9.64689 15.2853C9.52825 15.404 9.38983 15.4633 9.23164 15.4633C9.07345 15.4633 8.93503 15.404 8.81638 15.2853L5.17797 11.6469C5.11205 11.581 5.06591 11.5151 5.03955 11.4492C5.01318 11.3832 5 11.3107 5 11.2316C5 11.1525 5.01318 11.08 5.03955 11.0141C5.06591 10.9482 5.11205 10.8823 5.17797 10.8164L8.83616 7.15819C8.94162 7.05273 9.07345 7 9.23164 7C9.38983 7 9.52825 7.05932 9.64689 7.17797C9.76554 7.29661 9.82486 7.43503 9.82486 7.59322C9.82486 7.75141 9.76554 7.88983 9.64689 8.00847L7.01695 10.6384H15.2429C16.2712 10.6384 17.1544 11.0042 17.8927 11.7359C18.6309 12.4675 19 13.354 19 14.3955V17.2429C19 17.4143 18.944 17.556 18.8319 17.6681C18.7199 17.7801 18.5782 17.8362 18.4068 17.8362Z" fill="#9E9E9E" fill-opacity="0.8"/>
</svg>
