<svg width="17" height="17" viewBox="0 0 17 17" fill="none" xmlns="http://www.w3.org/2000/svg">
<path d="M13.6252 13.1392C13.4808 13.1392 13.3613 13.092 13.2669 12.9975C13.1724 12.9031 13.1252 12.7836 13.1252 12.6392V10.2392C13.1252 9.63919 12.9141 9.12808 12.4919 8.70586C12.0696 8.28364 11.5585 8.07253 10.9585 8.07253H4.0252L6.25853 10.3059C6.34742 10.3947 6.39186 10.5059 6.39186 10.6392C6.39186 10.7725 6.34186 10.8892 6.24186 10.9892C6.14186 11.0892 6.02519 11.1392 5.89186 11.1392C5.75853 11.1392 5.64186 11.0892 5.54186 10.9892L2.4752 7.92253C2.41964 7.86697 2.38075 7.81141 2.35853 7.75586C2.33631 7.7003 2.3252 7.63919 2.3252 7.57253C2.3252 7.50586 2.33631 7.44475 2.35853 7.38919C2.38075 7.33364 2.41964 7.27808 2.4752 7.22253L5.55853 4.13919C5.64742 4.0503 5.75853 4.00586 5.89186 4.00586C6.02519 4.00586 6.14186 4.05586 6.24186 4.15586C6.34186 4.25586 6.39186 4.37253 6.39186 4.50586C6.39186 4.63919 6.34186 4.75586 6.24186 4.85586L4.0252 7.07253H10.9585C11.8252 7.07253 12.5696 7.38086 13.1919 7.99753C13.8141 8.61419 14.1252 9.36141 14.1252 10.2392V12.6392C14.1252 12.7836 14.078 12.9031 13.9835 12.9975C13.8891 13.092 13.7696 13.1392 13.6252 13.1392Z" fill="#E5007A"/>
</svg>
