<svg width="20" height="21" viewBox="0 0 20 21" fill="none" xmlns="http://www.w3.org/2000/svg">
<path d="M9.39453 17.9577C7.6862 17.8188 6.2487 17.1174 5.08203 15.8535C3.91536 14.5896 3.33203 13.0896 3.33203 11.3535C3.33203 10.2841 3.57856 9.27713 4.07161 8.33268C4.56467 7.38824 5.25564 6.6174 6.14453 6.02018L7.04036 6.91602C6.26259 7.37435 5.65842 8.00282 5.22786 8.80143C4.79731 9.60004 4.58203 10.4507 4.58203 11.3535C4.58203 12.7424 5.04036 13.9438 5.95703 14.9577C6.8737 15.9716 8.01953 16.5549 9.39453 16.7077V17.9577ZM10.6445 17.9577V16.7077C12.0334 16.541 13.1793 15.9542 14.082 14.9473C14.9848 13.9403 15.4362 12.7424 15.4362 11.3535C15.4362 9.83963 14.9119 8.55838 13.8633 7.50977C12.8147 6.46115 11.5334 5.93685 10.0195 5.93685H9.60286L10.8529 7.18685L9.95703 8.08268L7.1862 5.31185L9.95703 2.54102L10.8529 3.43685L9.60286 4.68685H10.0195C11.8806 4.68685 13.457 5.33615 14.7487 6.63477C16.0404 7.93338 16.6862 9.50629 16.6862 11.3535C16.6862 13.0896 16.1063 14.5896 14.9466 15.8535C13.7869 17.1174 12.3529 17.8188 10.6445 17.9577Z" fill="#E5007A"/>
</svg>
