<svg width="18" height="18" viewBox="0 0 18 18" fill="none" xmlns="http://www.w3.org/2000/svg">
<path d="M9 0C7.21997 0 5.47991 0.527841 3.99987 1.51677C2.51983 2.50571 1.36628 3.91131 0.685088 5.55585C0.00389957 7.20038 -0.17433 9.00998 0.172936 10.7558C0.520203 12.5016 1.37737 14.1053 2.63604 15.364C3.89471 16.6226 5.49836 17.4798 7.24419 17.8271C8.99002 18.1743 10.7996 17.9961 12.4442 17.3149C14.0887 16.6337 15.4943 15.4802 16.4832 14.0001C17.4722 12.5201 18 10.78 18 9C17.9987 6.61345 17.0501 4.32501 15.3625 2.63747C13.675 0.949921 11.3866 0.00129397 9 0ZM6.55814 12.8623L3.3307 9.63139C3.16241 9.4631 3.06787 9.23485 3.06787 8.99686C3.06787 8.75886 3.16241 8.53061 3.3307 8.36232C3.49899 8.19403 3.72724 8.09949 3.96524 8.09949C4.20323 8.09949 4.43148 8.19403 4.59977 8.36232L7.2007 10.9535L13.3953 4.76163C13.5636 4.59334 13.7919 4.49879 14.0299 4.49879C14.2679 4.49879 14.4961 4.59334 14.6644 4.76163C14.8327 4.92992 14.9273 5.15816 14.9273 5.39616C14.9273 5.63416 14.8327 5.86241 14.6644 6.0307L7.8321 12.8623C7.7488 12.946 7.64981 13.0123 7.54079 13.0576C7.43178 13.1029 7.3149 13.1262 7.19686 13.1262C7.07882 13.1262 6.96194 13.1029 6.85293 13.0576C6.74392 13.0123 6.64493 12.946 6.56163 12.8623H6.55814Z" fill="#51D36E"/>
</svg>
