<svg width="13" height="13" viewBox="0 0 20 20" fill="none" xmlns="http://www.w3.org/2000/svg">
<path d="M9.99844 0.400391C4.69632 0.400391 0.398438 4.69827 0.398438 10.0004C0.398438 15.3025 4.69632 19.6004 9.99844 19.6004C15.3006 19.6004 19.5984 15.3025 19.5984 10.0004C19.5984 4.69827 15.3006 0.400391 9.99844 0.400391ZM8.98022 3.9177C10.2379 3.92582 11.358 4.33166 12.314 5.14786C13.4738 6.13992 14.069 7.41246 14.1462 8.93032C14.1701 9.2577 14.0988 9.54359 13.8143 9.7393C13.7079 9.81533 13.5838 9.86289 13.4538 9.87745C13.3239 9.892 13.1924 9.87307 13.0718 9.82245C12.9512 9.77184 12.8456 9.69122 12.765 9.58826C12.6844 9.48531 12.6314 9.36344 12.6112 9.23425C12.5629 8.94024 12.5661 8.63585 12.507 8.345C12.3401 7.54501 11.9062 6.82551 11.2766 6.30448C10.647 5.78346 9.85909 5.49185 9.042 5.47749C8.59106 5.46757 8.26368 5.22091 8.2019 4.84167C8.11983 4.33797 8.46615 3.91409 8.98022 3.9177ZM4.15474 12.1992C3.7489 12.1365 3.50585 11.7906 3.51486 11.2878C3.55996 8.76482 5.5522 6.57597 8.06031 6.29414C8.28629 6.26778 8.51373 6.25603 8.74122 6.25897C9.13715 6.26618 9.44378 6.57462 9.48031 6.98046C9.49295 7.16752 9.43661 7.35272 9.32194 7.50104C9.20728 7.64936 9.04223 7.75052 8.85802 7.78539C8.55093 7.83634 8.23392 7.83364 7.93044 7.89722C7.13432 8.06643 6.41892 8.50014 5.90071 9.12775C5.38249 9.75536 5.09198 10.5399 5.07646 11.3537C5.06428 11.9227 4.67648 12.2794 4.15474 12.1992ZM11.0117 16.8835C9.74681 16.8718 8.62173 16.4614 7.66484 15.6358C6.52081 14.65 5.93234 13.3874 5.85478 11.8831C5.82952 11.5575 5.89356 11.2684 6.17494 11.0687C6.28136 10.9891 6.40663 10.9386 6.53846 10.9221C6.67029 10.9055 6.80415 10.9236 6.92692 10.9743C7.04969 11.0251 7.15715 11.107 7.23876 11.2118C7.32038 11.3166 7.37335 11.4409 7.39247 11.5724C7.44072 11.8731 7.43757 12.1834 7.5007 12.4805C7.8398 14.1039 9.28641 15.289 10.9472 15.3214C11.4748 15.3323 11.8202 15.6502 11.8135 16.1196C11.8035 16.5525 11.4644 16.8876 11.0117 16.8835ZM15.2505 12.7177C14.2584 13.8771 12.9845 14.4719 11.4662 14.5463C11.1691 14.5715 10.9026 14.5102 10.7055 14.2757C10.5166 14.0503 10.4647 13.7856 10.5702 13.5091C10.6757 13.2327 10.8859 13.0501 11.1907 13.0095C11.4865 12.9703 11.7891 12.9667 12.08 12.9058C13.7033 12.5662 14.8911 11.1201 14.9245 9.46107C14.9335 9.00066 15.1684 8.67734 15.545 8.6079C16.0523 8.51365 16.4883 8.86628 16.4847 9.38847C16.4734 10.643 16.0662 11.764 15.2491 12.7177H15.2505Z" fill="#243A57"/>
</svg>
