<svg viewBox="0 0 16 16" fill="none" xmlns="http://www.w3.org/2000/svg">
<path d="M8 0C3.58157 0 0 3.58157 0 8C0 12.4184 3.58157 16 8 16C12.4184 16 16 12.4184 16 8C16 3.58157 12.4184 0 8 0ZM7.15149 2.93109C8.19954 2.93786 9.13298 3.27606 9.92963 3.95622C10.8961 4.78294 11.3922 5.84339 11.4564 7.10827C11.4763 7.38109 11.417 7.61933 11.1799 7.78242C11.0912 7.84579 10.9878 7.88542 10.8795 7.89755C10.7712 7.90968 10.6616 7.8939 10.5611 7.85172C10.4607 7.80954 10.3726 7.74236 10.3055 7.65656C10.2383 7.57077 10.1941 7.46921 10.1773 7.36155C10.1371 7.11654 10.1397 6.86289 10.0905 6.62051C9.95135 5.95385 9.58982 5.35426 9.06517 4.92008C8.54051 4.48589 7.88388 4.24288 7.20297 4.23092C6.82719 4.22265 6.55437 4.0171 6.50289 3.70107C6.4345 3.28132 6.7231 2.92808 7.15149 2.93109ZM3.13025 9.83231C2.79205 9.78007 2.58951 9.49185 2.59702 9.07285C2.6346 6.97036 4.2948 5.14632 6.38489 4.91146C6.57321 4.88949 6.76275 4.8797 6.95232 4.88215C7.28226 4.88816 7.53779 5.14519 7.56823 5.4834C7.57876 5.63927 7.53181 5.79361 7.43626 5.91721C7.3407 6.04081 7.20316 6.12511 7.04965 6.15416C6.79374 6.19663 6.52957 6.19437 6.27667 6.24736C5.61324 6.38837 5.01707 6.74979 4.58522 7.2728C4.15338 7.79581 3.91128 8.44959 3.89835 9.12772C3.88821 9.60195 3.56503 9.8992 3.13025 9.83231ZM8.84438 13.7359C7.79031 13.7261 6.85274 13.3842 6.05533 12.6961C5.10198 11.8747 4.61158 10.8225 4.54695 9.56888C4.52591 9.29757 4.57927 9.0567 4.81375 8.89022C4.90244 8.82394 5.00683 8.78185 5.11668 8.76807C5.22654 8.75429 5.33809 8.7693 5.4404 8.81163C5.54271 8.85395 5.63226 8.92214 5.70027 9.0095C5.76828 9.09687 5.81242 9.20041 5.82836 9.30997C5.86857 9.56062 5.86594 9.81916 5.91855 10.0668C6.20114 11.4196 7.40664 12.4072 8.79064 12.4342C9.23031 12.4432 9.51816 12.7082 9.51252 13.0993C9.50425 13.4601 9.22166 13.7393 8.84438 13.7359ZM12.3767 10.2645C11.55 11.2306 10.4884 11.7262 9.22317 11.7882C8.97553 11.8093 8.75344 11.7582 8.58922 11.5628C8.43177 11.3749 8.38856 11.1543 8.47649 10.924C8.56442 10.6936 8.73954 10.5414 8.99356 10.5076C9.24008 10.4749 9.49223 10.4719 9.7346 10.4212C11.0874 10.1382 12.0772 8.93306 12.105 7.55057C12.1125 7.16689 12.3083 6.89746 12.6221 6.83959C13.0449 6.76105 13.4082 7.05491 13.4052 7.49007C13.3958 8.53549 13.0565 9.46968 12.3756 10.2645H12.3767Z" />
</svg>
