<svg width="24" height="24" viewBox="0 0 24 24" fill="none" xmlns="http://www.w3.org/2000/svg">
<g id="riot_icon" clip-path="url(#clip0_88_514)">
<path id="Vector" d="M12 2.3999C6.69791 2.3999 2.40002 6.69778 2.40002 11.9999C2.40002 17.302 6.69791 21.5999 12 21.5999C17.3021 21.5999 21.6 17.302 21.6 11.9999C21.6 6.69778 17.3021 2.3999 12 2.3999ZM10.9818 5.91721C12.2395 5.92533 13.3596 6.33117 14.3156 7.14737C15.4754 8.13943 16.0706 9.41197 16.1477 10.9298C16.1716 11.2572 16.1004 11.5431 15.8159 11.7388C15.7095 11.8148 15.5854 11.8624 15.4554 11.877C15.3255 11.8915 15.194 11.8726 15.0734 11.822C14.9528 11.7713 14.8472 11.6907 14.7666 11.5878C14.6859 11.4848 14.633 11.363 14.6128 11.2338C14.5645 10.9397 14.5677 10.6354 14.5086 10.3445C14.3417 9.54453 13.9078 8.82502 13.2782 8.30399C12.6486 7.78297 11.8607 7.49136 11.0436 7.477C10.5926 7.46708 10.2653 7.22042 10.2035 6.84118C10.1214 6.33749 10.4677 5.9136 10.9818 5.91721ZM6.15633 14.1987C5.75049 14.136 5.50743 13.7901 5.51645 13.2873C5.56154 10.7643 7.55378 8.57549 10.0619 8.29365C10.2879 8.26729 10.5153 8.25554 10.7428 8.25848C11.1387 8.26569 11.4454 8.57413 11.4819 8.97998C11.4945 9.16703 11.4382 9.35223 11.3235 9.50055C11.2089 9.64888 11.0438 9.75004 10.8596 9.7849C10.5525 9.83586 10.2355 9.83315 9.93203 9.89673C9.13591 10.0659 8.42051 10.4997 7.90229 11.1273C7.38408 11.7549 7.09356 12.5394 7.07805 13.3532C7.06587 13.9222 6.67806 14.2789 6.15633 14.1987ZM13.0133 18.883C11.7484 18.8713 10.6233 18.4609 9.66643 17.6353C8.5224 16.6495 7.93392 15.3869 7.85636 13.8826C7.83111 13.557 7.89514 13.2679 8.17653 13.0682C8.28295 12.9886 8.40822 12.9381 8.54005 12.9216C8.67187 12.9051 8.80574 12.9231 8.9285 12.9739C9.05127 13.0246 9.15873 13.1065 9.24035 13.2113C9.32197 13.3161 9.37493 13.4404 9.39406 13.5719C9.44231 13.8726 9.43915 14.1829 9.50228 14.4801C9.84139 16.1034 11.288 17.2885 12.9488 17.321C13.4764 17.3318 13.8218 17.6497 13.815 18.1191C13.8051 18.552 13.466 18.8871 13.0133 18.883ZM17.2521 14.7172C16.26 15.8766 14.9861 16.4714 13.4678 16.5458C13.1707 16.5711 12.9042 16.5097 12.7071 16.2752C12.5182 16.0498 12.4663 15.7851 12.5718 15.5086C12.6773 15.2322 12.8875 15.0496 13.1923 15.009C13.4881 14.9698 13.7907 14.9662 14.0815 14.9053C15.7049 14.5657 16.8927 13.1196 16.9261 11.4606C16.9351 11.0002 17.17 10.6769 17.5466 10.6074C18.0539 10.5132 18.4899 10.8658 18.4863 11.388C18.475 12.6425 18.0678 13.7635 17.2507 14.7172H17.2521Z" fill="#E5007A"/>
</g>
<defs>
<clipPath id="clip0_88_514">
<rect width="24" height="24" fill="white"/>
</clipPath>
</defs>
</svg>
