<svg width="17" height="17" viewBox="0 0 24 24" fill="none" xmlns="http://www.w3.org/2000/svg">
<path d="M1.09844 22L0.0234375 20.925L3.72344 17.175L2.59844 14.025C2.4651 13.6583 2.43177 13.3083 2.49844 12.975C2.5651 12.6417 2.73177 12.3417 2.99844 12.075L6.39844 8.65C6.5651 8.48333 6.75677 8.35 6.97344 8.25C7.1901 8.15 7.40677 8.1 7.62344 8.1C7.8401 8.1 8.05677 8.15 8.27344 8.25C8.4901 8.35 8.68177 8.48333 8.84844 8.65L10.9484 10.625C11.6651 11.275 12.2818 11.7042 12.7984 11.9125C13.3151 12.1208 13.9484 12.225 14.6984 12.225V13.725C13.8651 13.725 13.0526 13.5875 12.2609 13.3125C11.4693 13.0375 10.7318 12.5583 10.0484 11.875L9.12344 10.95L6.27344 13.8L8.62344 16.1V22H7.12344V16.775L5.22344 14.975V17.825L1.09844 22ZM15.2734 22V15.2L17.5234 13.075L16.6984 8.6C16.0318 9.5 15.4151 10.1583 14.8484 10.575C14.2818 10.9917 13.6901 11.2833 13.0734 11.45C12.8068 11.3167 12.5276 11.1542 12.2359 10.9625C11.9443 10.7708 11.7151 10.575 11.5484 10.375C12.2984 10.2417 13.0068 9.97917 13.6734 9.5875C14.3401 9.19583 14.9651 8.525 15.5484 7.575L16.5734 5.9C16.8568 5.43333 17.2068 5.1375 17.6234 5.0125C18.0401 4.8875 18.4734 4.925 18.9234 5.125L23.9734 7.325V11.625H22.4734V8.325L20.0234 7.225L22.8484 22H21.2984L19.2984 14L16.7734 16.525V22H15.2734ZM11.1984 8.4C10.6984 8.4 10.2693 8.22083 9.91094 7.8625C9.5526 7.50417 9.37344 7.075 9.37344 6.575C9.37344 6.075 9.5526 5.64583 9.91094 5.2875C10.2693 4.92917 10.6984 4.75 11.1984 4.75C11.6984 4.75 12.1276 4.92917 12.4859 5.2875C12.8443 5.64583 13.0234 6.075 13.0234 6.575C13.0234 7.075 12.8443 7.50417 12.4859 7.8625C12.1276 8.22083 11.6984 8.4 11.1984 8.4ZM16.4484 4.15C15.9484 4.15 15.5193 3.97083 15.1609 3.6125C14.8026 3.25417 14.6234 2.825 14.6234 2.325C14.6234 1.825 14.8026 1.39583 15.1609 1.0375C15.5193 0.679167 15.9484 0.5 16.4484 0.5C16.9484 0.5 17.3776 0.679167 17.7359 1.0375C18.0943 1.39583 18.2734 1.825 18.2734 2.325C18.2734 2.825 18.0943 3.25417 17.7359 3.6125C17.3776 3.97083 16.9484 4.15 16.4484 4.15Z" fill="#243A57"/>
</svg>
