<svg width="24" height="24" viewBox="0 0 24 24" fill="none" xmlns="http://www.w3.org/2000/svg">
<path d="M4.5 11.25C4.1 11.25 3.75 11.1 3.45 10.8C3.15 10.5 3 10.15 3 9.75V4.5C3 4.1 3.15 3.75 3.45 3.45C3.75 3.15 4.1 3 4.5 3H19.5C19.9 3 20.25 3.15 20.55 3.45C20.85 3.75 21 4.1 21 4.5V9.75C21 10.15 20.85 10.5 20.55 10.8C20.25 11.1 19.9 11.25 19.5 11.25H4.5ZM4.5 9.75H19.5V4.5H4.5V9.75ZM4.5 21C4.1 21 3.75 20.85 3.45 20.55C3.15 20.25 3 19.9 3 19.5V14.25C3 13.85 3.15 13.5 3.45 13.2C3.75 12.9 4.1 12.75 4.5 12.75H19.5C19.9 12.75 20.25 12.9 20.55 13.2C20.85 13.5 21 13.85 21 14.25V19.5C21 19.9 20.85 20.25 20.55 20.55C20.25 20.85 19.9 21 19.5 21H4.5ZM4.5 19.5H19.5V14.25H4.5V19.5ZM4.5 4.5V9.75V4.5ZM4.5 14.25V19.5V14.25Z" fill="#485F7D"/>
</svg>
