<svg width="16" height="16" viewBox="0 0 16 16" fill="none" xmlns="http://www.w3.org/2000/svg">
<path d="M1.75 7.375C1.41667 7.375 1.125 7.25 0.875 7C0.625 6.75 0.5 6.45833 0.5 6.125V1.75C0.5 1.41667 0.625 1.125 0.875 0.875C1.125 0.625 1.41667 0.5 1.75 0.5H14.25C14.5833 0.5 14.875 0.625 15.125 0.875C15.375 1.125 15.5 1.41667 15.5 1.75V6.125C15.5 6.45833 15.375 6.75 15.125 7C14.875 7.25 14.5833 7.375 14.25 7.375H1.75ZM1.75 6.125H14.25V1.75H1.75V6.125ZM1.75 15.5C1.41667 15.5 1.125 15.375 0.875 15.125C0.625 14.875 0.5 14.5833 0.5 14.25V9.875C0.5 9.54167 0.625 9.25 0.875 9C1.125 8.75 1.41667 8.625 1.75 8.625H14.25C14.5833 8.625 14.875 8.75 15.125 9C15.375 9.25 15.5 9.54167 15.5 9.875V14.25C15.5 14.5833 15.375 14.875 15.125 15.125C14.875 15.375 14.5833 15.5 14.25 15.5H1.75ZM1.75 14.25H14.25V9.875H1.75V14.25ZM1.75 1.75V6.125V1.75ZM1.75 9.875V14.25V9.875Z" fill="#243A57"/>
</svg>
