<svg width="12" height="12" viewBox="0 0 12 12" fill="none" xmlns="http://www.w3.org/2000/svg">
<g id="Frame">
<path id="Vector" fill-rule="evenodd" clip-rule="evenodd" d="M6 12C7.5913 12 9.11742 11.3679 10.2426 10.2426C11.3679 9.11742 12 7.5913 12 6C12 4.4087 11.3679 2.88258 10.2426 1.75736C9.11742 0.632141 7.5913 0 6 0C4.4087 0 2.88258 0.632141 1.75736 1.75736C0.632141 2.88258 0 4.4087 0 6C0 7.5913 0.632141 9.11742 1.75736 10.2426C2.88258 11.3679 4.4087 12 6 12ZM5.00025 4.6665C5.00025 4.4955 5.0565 4.224 5.208 4.014C5.334 3.84 5.55 3.6675 6 3.6675C6.5505 3.6675 6.837 3.9585 6.93375 4.25025C7.03575 4.55775 6.94875 4.9005 6.63 5.11275C6.10425 5.46375 5.7165 5.80275 5.5125 6.27975C5.3325 6.69975 5.3325 7.161 5.33325 7.59375V7.66725H6.6675C6.6675 7.12125 6.67875 6.94425 6.73875 6.80475C6.78375 6.69825 6.89625 6.53775 7.37025 6.222C7.75472 5.97209 8.04498 5.60122 8.1952 5.16797C8.34541 4.73471 8.34701 4.26377 8.19975 3.8295C7.9185 2.9835 7.116 2.33325 6 2.33325C5.11575 2.33325 4.49925 2.7165 4.125 3.2355C3.83072 3.65502 3.6709 4.15408 3.66675 4.6665H5.00025ZM6.66675 9.66675V8.3325H5.3325V9.666H6.6675L6.66675 9.66675Z" fill="#98A2B3"/>
</g>
</svg>
