<svg width="20" height="20" viewBox="0 0 20 20" fill="none" xmlns="http://www.w3.org/2000/svg">
    <path
        d="M10 2C8.41775 2 6.87103 2.46919 5.55544 3.34824C4.23985 4.22729 3.21447 5.47672 2.60897 6.93853C2.00347 8.40034 1.84504 10.0089 2.15372 11.5607C2.4624 13.1126 3.22433 14.538 4.34315 15.6569C5.46197 16.7757 6.88743 17.5376 8.43928 17.8463C9.99113 18.155 11.5997 17.9965 13.0615 17.391C14.5233 16.7855 15.7727 15.7602 16.6518 14.4446C17.5308 13.129 18 11.5822 18 10C17.9988 7.87862 17.1556 5.84446 15.6556 4.34442C14.1555 2.84437 12.1214 2.00115 10 2ZM7.82946 13.4332L4.96062 10.5612C4.81103 10.4116 4.72699 10.2088 4.72699 9.99721C4.72699 9.78566 4.81103 9.58277 4.96062 9.43318C5.11021 9.28359 5.3131 9.19955 5.52465 9.19955C5.73621 9.19955 5.93909 9.28359 6.08869 9.43318L8.40062 11.7364L13.907 6.23256C14.0566 6.08297 14.2595 5.99893 14.471 5.99893C14.6826 5.99893 14.8854 6.08297 15.035 6.23256C15.1846 6.38215 15.2687 6.58504 15.2687 6.79659C15.2687 7.00814 15.1846 7.21103 15.035 7.36062L8.96186 13.4332C8.88782 13.5075 8.79983 13.5665 8.70293 13.6068C8.60603 13.647 8.50214 13.6677 8.39721 13.6677C8.29229 13.6677 8.18839 13.647 8.09149 13.6068C7.9946 13.5665 7.9066 13.5075 7.83256 13.4332H7.82946Z"
        fill="#17BA49" />
</svg>