<svg width="580" height="100" viewBox="0 0 580 100" fill="none" xmlns="http://www.w3.org/2000/svg">
<path d="M27.9943 9.25H552.006C556.218 9.25 560.246 10.1007 563.202 11.6024C566.169 13.1095 567.75 15.1101 567.75 17.1241V82.1173C567.75 84.1314 566.169 86.1319 563.202 87.639C560.246 89.1407 556.218 89.9914 552.006 89.9914L39.873 90.1943C39.3818 90.1945 38.9204 90.3962 38.5798 90.7434C37.6402 91.7012 35.3028 93.9584 32.2887 95.9745C29.2689 97.9945 25.6029 99.75 22 99.75C17.8088 99.75 15.4475 98.4015 14.0972 96.7405C12.7408 95.0719 12.3705 93.0473 12.25 91.6241V17.1241C12.25 15.1101 13.8307 13.1095 16.7978 11.6024C19.7543 10.1007 23.7817 9.25 27.9943 9.25Z" fill="white" stroke="#185CF6" stroke-width="0.5"/>
<rect x="543" width="37" height="28" rx="7" fill="white"/>
<path d="M560.722 16.2C561.987 16.2 563.014 15.7967 563.802 14.99C564.572 14.1833 564.957 13.065 564.957 11.635C564.957 9.875 564.389 8.02333 563.252 6.08C562.116 4.11833 560.594 2.3675 558.687 0.827496L556.982 2.285C557.367 2.67 557.762 3.20167 558.165 3.88C558.55 4.54 558.889 5.255 559.182 6.025C559.476 6.795 559.659 7.51917 559.732 8.1975C558.761 8.43583 557.991 8.9125 557.422 9.6275C556.836 10.3242 556.542 11.1583 556.542 12.13C556.542 13.3217 556.927 14.3025 557.697 15.0725C558.467 15.8242 559.476 16.2 560.722 16.2ZM571.2 16.2C572.483 16.2 573.51 15.7967 574.28 14.99C575.05 14.1833 575.435 13.065 575.435 11.635C575.435 9.875 574.867 8.02333 573.73 6.08C572.593 4.11833 571.081 2.3675 569.192 0.827496L567.46 2.285C567.845 2.67 568.239 3.20167 568.642 3.88C569.027 4.54 569.367 5.255 569.66 6.025C569.953 6.795 570.137 7.51917 570.21 8.1975C569.238 8.43583 568.468 8.9125 567.9 9.6275C567.313 10.3242 567.02 11.1583 567.02 12.13C567.02 13.3217 567.405 14.3025 568.175 15.0725C568.945 15.8242 569.953 16.2 571.2 16.2Z" fill="#185CF6"/>
<rect width="37" height="28" rx="7" fill="white"/>
<path d="M19.2775 16.2C18.0125 16.2 16.9858 15.7967 16.1975 14.99C15.4275 14.1833 15.0425 13.065 15.0425 11.635C15.0425 9.875 15.6108 8.02333 16.7475 6.08C17.8842 4.11833 19.4058 2.3675 21.3125 0.827496L23.0175 2.285C22.6325 2.67 22.2383 3.20167 21.835 3.88C21.45 4.54 21.1108 5.255 20.8175 6.025C20.5242 6.795 20.3408 7.51917 20.2675 8.1975C21.2392 8.43583 22.0092 8.9125 22.5775 9.6275C23.1642 10.3242 23.4575 11.1583 23.4575 12.13C23.4575 13.3217 23.0725 14.3025 22.3025 15.0725C21.5325 15.8242 20.5242 16.2 19.2775 16.2ZM8.8 16.2C7.51667 16.2 6.49 15.7967 5.72 14.99C4.95 14.1833 4.565 13.065 4.565 11.635C4.565 9.875 5.13333 8.02333 6.27 6.08C7.40667 4.11833 8.91917 2.3675 10.8075 0.827496L12.54 2.285C12.155 2.67 11.7608 3.20167 11.3575 3.88C10.9725 4.54 10.6333 5.255 10.34 6.025C10.0467 6.795 9.86333 7.51917 9.79 8.1975C10.7617 8.43583 11.5317 8.9125 12.1 9.6275C12.6867 10.3242 12.98 11.1583 12.98 12.13C12.98 13.3217 12.595 14.3025 11.825 15.0725C11.055 15.8242 10.0467 16.2 8.8 16.2Z" fill="#185CF6"/>
<path d="M27.9943 9H552.006C556.248 9 560.316 9.85593 563.315 11.3795C566.315 12.9031 568 14.9695 568 17.1241V82.1173C568 84.2719 566.315 86.3383 563.315 87.8619C560.316 89.3855 556.248 90.2414 552.006 90.2414L295.608 90.343L39.8731 90.4443C39.4514 90.4444 39.0535 90.6174 38.7582 90.9185C36.8668 92.8467 29.3544 100 22 100C13.5 100 12.242 94.5169 12 91.6347V17.1241C12 14.9695 13.6851 12.9031 16.6846 11.3795C19.6841 9.85593 23.7524 9 27.9943 9Z" fill="#185CF6" fill-opacity="0.04"/>
</svg>
