<svg width="18" height="18" viewBox="0 0 22 18" fill="none" xmlns="http://www.w3.org/2000/svg">
<path d="M7.325 11.325H8.825V9.075C8.825 8.67833 8.95917 8.34583 9.2275 8.0775C9.49583 7.80917 9.82833 7.675 10.225 7.675H12.25V9.425L14.75 6.925L12.25 4.425V6.175H10.225C9.41945 6.175 8.73472 6.45694 8.17083 7.02083C7.60694 7.58473 7.325 8.26945 7.325 9.075V11.325ZM0.75 18C0.5375 18 0.359375 17.9277 0.215625 17.7831C0.071875 17.6385 0 17.4594 0 17.2456C0 17.0319 0.071875 16.8542 0.215625 16.7125C0.359375 16.5708 0.5375 16.5 0.75 16.5H21.25C21.4625 16.5 21.6406 16.5723 21.7844 16.7169C21.9281 16.8615 22 17.0406 22 17.2544C22 17.4681 21.9281 17.6458 21.7844 17.7875C21.6406 17.9292 21.4625 18 21.25 18H0.75ZM2.5 15C2.1 15 1.75 14.85 1.45 14.55C1.15 14.25 1 13.9 1 13.5V1.5C1 1.1 1.15 0.75 1.45 0.45C1.75 0.15 2.1 0 2.5 0H19.5C19.9 0 20.25 0.15 20.55 0.45C20.85 0.75 21 1.1 21 1.5V13.5C21 13.9 20.85 14.25 20.55 14.55C20.25 14.85 19.9 15 19.5 15H2.5ZM2.5 13.5H19.5V1.5H2.5V13.5Z" fill="#E5007A"/>
</svg>
