<svg width="24" height="25" viewBox="0 0 24 25" fill="none" xmlns="http://www.w3.org/2000/svg">
<path d="M8.325 14.825H9.825V12.575C9.825 12.1783 9.95917 11.8458 10.2275 11.5775C10.4958 11.3092 10.8283 11.175 11.225 11.175H13.25V12.925L15.75 10.425L13.25 7.925V9.675H11.225C10.4194 9.675 9.73472 9.95694 9.17083 10.5208C8.60694 11.0847 8.325 11.7695 8.325 12.575V14.825ZM1.75 21.5C1.5375 21.5 1.35938 21.4277 1.21563 21.2831C1.07187 21.1385 1 20.9594 1 20.7456C1 20.5319 1.07187 20.3542 1.21563 20.2125C1.35938 20.0708 1.5375 20 1.75 20H22.25C22.4625 20 22.6406 20.0723 22.7844 20.2169C22.9281 20.3615 23 20.5406 23 20.7544C23 20.9681 22.9281 21.1458 22.7844 21.2875C22.6406 21.4292 22.4625 21.5 22.25 21.5H1.75ZM3.5 18.5C3.1 18.5 2.75 18.35 2.45 18.05C2.15 17.75 2 17.4 2 17V5C2 4.6 2.15 4.25 2.45 3.95C2.75 3.65 3.1 3.5 3.5 3.5H20.5C20.9 3.5 21.25 3.65 21.55 3.95C21.85 4.25 22 4.6 22 5V17C22 17.4 21.85 17.75 21.55 18.05C21.25 18.35 20.9 18.5 20.5 18.5H3.5ZM3.5 17H20.5V5H3.5V17Z" fill="#E5007A"/>
</svg>
