<svg width="24" height="25" viewBox="0 0 24 25" fill="none" xmlns="http://www.w3.org/2000/svg">
<path d="M12.5 8.50003L10 12.5H14L11.5 16.5" stroke="#485F7D" stroke-width="1.5" stroke-linecap="round" stroke-linejoin="round"/>
<path d="M21.011 14.6391C21.5329 14.4955 21.7939 14.4237 21.8969 14.2864C22 14.1491 22 13.9282 22 13.4865V11.5136C22 11.0719 22 10.851 21.8969 10.7137C21.7938 10.5764 21.5329 10.5046 21.011 10.361C19.0606 9.82434 17.8399 7.74385 18.3433 5.76684C18.4817 5.22314 18.5509 4.95129 18.4848 4.79185C18.4187 4.63241 18.2291 4.52253 17.8497 4.30278L16.125 3.30366C15.7528 3.08803 15.5667 2.98021 15.3997 3.00317C15.2326 3.02613 15.0442 3.21795 14.6672 3.6016C13.208 5.08692 10.7936 5.08686 9.33434 3.6015C8.95743 3.21785 8.76898 3.02603 8.60193 3.00307C8.43489 2.98011 8.24877 3.08793 7.87653 3.30356L6.15184 4.30269C5.77253 4.52242 5.58287 4.63229 5.51678 4.79171C5.45068 4.95113 5.51987 5.22301 5.65825 5.76677C6.16137 7.74383 4.93972 9.82438 2.98902 10.361C2.46712 10.5046 2.20617 10.5764 2.10308 10.7137C2 10.851 2 11.0718 2 11.5136V13.4865C2 13.9282 2 14.1491 2.10308 14.2864C2.20615 14.4237 2.46711 14.4955 2.98902 14.6391C4.9394 15.1758 6.16008 17.2563 5.65672 19.2333C5.51829 19.777 5.44907 20.0488 5.51516 20.2083C5.58126 20.3677 5.77092 20.4776 6.15025 20.6973L7.87495 21.6965C8.24721 21.9121 8.43334 22.0199 8.6004 21.997C8.76746 21.974 8.95588 21.7821 9.33271 21.3985C10.7927 19.9119 13.2088 19.9119 14.6689 21.3984C15.0457 21.7821 15.2341 21.9739 15.4012 21.9969C15.5682 22.0198 15.7544 21.912 16.1266 21.6964L17.8513 20.6972C18.2307 20.4775 18.4204 20.3676 18.4864 20.2081C18.5525 20.0487 18.4833 19.7768 18.3448 19.2332C17.8412 17.2563 19.0609 15.1758 21.011 14.6391Z" stroke="#485F7D" stroke-width="1.5" stroke-linecap="round"/>
</svg>
