<svg width="24" height="24" viewBox="0 0 24 24" fill="none" xmlns="http://www.w3.org/2000/svg">
<path d="M15.8464 14.7143C15.3348 14.7143 14.8628 14.8929 14.493 15.1911L10.7741 12.5143C10.8363 12.1742 10.8363 11.8258 10.7741 11.4857L14.493 8.80893C14.8628 9.10714 15.3348 9.28571 15.8464 9.28571C17.0346 9.28571 18.0002 8.325 18.0002 7.14286C18.0002 5.96071 17.0346 5 15.8464 5C14.6582 5 13.6925 5.96071 13.6925 7.14286C13.6925 7.35 13.7213 7.54821 13.7769 7.7375L10.2446 10.2821C9.72048 9.59107 8.88766 9.14286 7.94894 9.14286C6.36228 9.14286 5.07715 10.4214 5.07715 12C5.07715 13.5786 6.36228 14.8571 7.94894 14.8571C8.88766 14.8571 9.72048 14.4089 10.2446 13.7179L13.7769 16.2625C13.7213 16.4518 13.6925 16.6518 13.6925 16.8571C13.6925 18.0393 14.6582 19 15.8464 19C17.0346 19 18.0002 18.0393 18.0002 16.8571C18.0002 15.675 17.0346 14.7143 15.8464 14.7143ZM15.8464 6.21429C16.3615 6.21429 16.7797 6.63036 16.7797 7.14286C16.7797 7.65536 16.3615 8.07143 15.8464 8.07143C15.3313 8.07143 14.913 7.65536 14.913 7.14286C14.913 6.63036 15.3313 6.21429 15.8464 6.21429ZM7.94894 13.5714C7.07843 13.5714 6.36946 12.8661 6.36946 12C6.36946 11.1339 7.07843 10.4286 7.94894 10.4286C8.81946 10.4286 9.52843 11.1339 9.52843 12C9.52843 12.8661 8.81946 13.5714 7.94894 13.5714ZM15.8464 17.7857C15.3313 17.7857 14.913 17.3696 14.913 16.8571C14.913 16.3446 15.3313 15.9286 15.8464 15.9286C16.3615 15.9286 16.7797 16.3446 16.7797 16.8571C16.7797 17.3696 16.3615 17.7857 15.8464 17.7857Z" fill="#E5007A"/>
</svg>
