<svg width="12" height="14" viewBox="0 0 12 14" fill="none" xmlns="http://www.w3.org/2000/svg">
<path fill-rule="evenodd" clip-rule="evenodd" d="M0 5.94442C0 3.81269 0 2.74683 0.251677 2.38825C0.503354 2.02967 1.50555 1.68662 3.50994 1.00051L3.89182 0.869791C4.93666 0.512139 5.45907 0.333313 6 0.333313C6.54093 0.333313 7.06335 0.512139 8.10819 0.869791L8.49006 1.00051C10.4945 1.68662 11.4966 2.02967 11.7483 2.38825C12 2.74683 12 3.81269 12 5.94442V6.99422C12 10.7529 9.17402 12.577 7.40096 13.3515C6.91999 13.5616 6.67951 13.6666 6 13.6666C5.32049 13.6666 5.08001 13.5616 4.59904 13.3515C2.82597 12.577 0 10.7529 0 6.99422V5.94442ZM7.33333 4.99998C7.33333 5.73636 6.73638 6.33331 6 6.33331C5.26362 6.33331 4.66667 5.73636 4.66667 4.99998C4.66667 4.2636 5.26362 3.66665 6 3.66665C6.73638 3.66665 7.33333 4.2636 7.33333 4.99998ZM6 10.3333C8.66667 10.3333 8.66667 9.73636 8.66667 8.99998C8.66667 8.2636 7.47276 7.66665 6 7.66665C4.52724 7.66665 3.33333 8.2636 3.33333 8.99998C3.33333 9.73636 3.33333 10.3333 6 10.3333Z" fill="white" fill-opacity="0.88"/>
</svg>
