<svg width="20" height="20" viewBox="0 0 20 20" fill="none" xmlns="http://www.w3.org/2000/svg">
<path fill-rule="evenodd" clip-rule="evenodd" d="M2.5 8.68054C2.5 6.01588 2.5 4.68356 2.8146 4.23533C3.12919 3.78711 4.38194 3.35829 6.88743 2.50065L7.36477 2.33725C8.67082 1.89019 9.32384 1.66666 10 1.66666C10.6762 1.66666 11.3292 1.89019 12.6352 2.33725L13.1126 2.50065C15.6181 3.35829 16.8708 3.78711 17.1854 4.23533C17.5 4.68356 17.5 6.01588 17.5 8.68054V9.99279C17.5 14.6912 13.9675 16.9712 11.7512 17.9394C11.15 18.202 10.8494 18.3333 10 18.3333C9.15062 18.3333 8.85001 18.202 8.2488 17.9394C6.03247 16.9712 2.5 14.6912 2.5 9.99279V8.68054ZM11.6667 7.49999C11.6667 8.42046 10.9205 9.16666 10 9.16666C9.07953 9.16666 8.33333 8.42046 8.33333 7.49999C8.33333 6.57951 9.07953 5.83332 10 5.83332C10.9205 5.83332 11.6667 6.57951 11.6667 7.49999ZM10 14.1667C13.3333 14.1667 13.3333 13.4205 13.3333 12.5C13.3333 11.5795 11.8409 10.8333 10 10.8333C8.15905 10.8333 6.66667 11.5795 6.66667 12.5C6.66667 13.4205 6.66667 14.1667 10 14.1667Z" fill="#E5007A"/>
</svg>
