<svg viewBox="0 0 16 16" fill="none" xmlns="http://www.w3.org/2000/svg">
<path d="M14 0C14.83 0 15.5 0.67 15.5 1.5V14.5C15.5 15.33 14.83 16 14 16C13.17 16 12.5 15.33 12.5 14.5V1.5C12.5 0.67 13.17 0 14 0ZM2 10C2.83 10 3.5 10.67 3.5 11.5V14.5C3.5 15.33 2.83 16 2 16C1.17 16 0.5 15.33 0.5 14.5V11.5C0.5 10.67 1.17 10 2 10ZM8 5C8.83 5 9.5 5.67 9.5 6.5V14.5C9.5 15.33 8.83 16 8 16C7.17 16 6.5 15.33 6.5 14.5V6.5C6.5 5.67 7.17 5 8 5Z" fill="#485F7D"/>
<path d="M14 0C14.83 0 15.5 0.67 15.5 1.5V14.5C15.5 15.33 14.83 16 14 16C13.17 16 12.5 15.33 12.5 14.5V1.5C12.5 0.67 13.17 0 14 0ZM2 10C2.83 10 3.5 10.67 3.5 11.5V14.5C3.5 15.33 2.83 16 2 16C1.17 16 0.5 15.33 0.5 14.5V11.5C0.5 10.67 1.17 10 2 10ZM8 5C8.83 5 9.5 5.67 9.5 6.5V14.5C9.5 15.33 8.83 16 8 16C7.17 16 6.5 15.33 6.5 14.5V6.5C6.5 5.67 7.17 5 8 5Z" fill="#E5007A"/>
</svg>
