<svg width="24" height="24" viewBox="0 0 24 24" fill="none" xmlns="http://www.w3.org/2000/svg">
<g id="Create ProposalCreate Proposal Filled">
<g id="Vector">
<path d="M19.0852 17.592C19.09 17.5707 19.0941 17.5488 19.0975 17.5234H19.0852V17.592Z" fill="#243A57"/>
<path d="M18.2212 4.91896C17.522 4.21841 16.5989 4.04464 15.1614 4H7.11126C5.60989 4.03503 4.64835 4.19849 3.9272 4.91896C3 5.84821 3 7.18544 3 9.61333V14.5185C3 16.9464 3 18.2857 3.9272 19.2129C4.82418 20.1099 6.10233 20.1401 8.37637 20.1401C8.47871 20.1456 8.58242 20.1484 8.68475 20.1484H15.9512C16.4264 20.1493 16.8957 20.0439 17.3249 19.84C17.2001 19.6359 17.1343 19.4013 17.1346 19.1621V18.1799H16.2775C16.1045 18.1839 15.9326 18.1533 15.7716 18.0899C15.6107 18.0264 15.4641 17.9315 15.3404 17.8106C15.2166 17.6897 15.1183 17.5453 15.0512 17.3859C14.9841 17.2264 14.9495 17.0552 14.9495 16.8822C14.9495 16.7092 14.9841 16.538 15.0512 16.3786C15.1183 16.2191 15.2166 16.0747 15.3404 15.9538C15.4641 15.8329 15.6107 15.738 15.7716 15.6746C15.9326 15.6111 16.1045 15.5805 16.2775 15.5845H17.1332V14.728C17.1333 14.4933 17.197 14.2629 17.3176 14.0615C17.4383 13.8602 17.6113 13.6953 17.8182 13.5845C18.0252 13.4737 18.2583 13.4211 18.4928 13.4323C18.7273 13.4436 18.9543 13.5182 19.1497 13.6484V9.61333C19.1497 7.18544 19.1497 5.84753 18.2212 4.91896ZM15.0357 5.43407L15.1538 5.4375H15.0343L15.0357 5.43407ZM7.11126 5.43475L7.12088 5.43407V5.43956C7.12088 5.43956 7.12088 5.43956 7.12088 5.43544L7.11126 5.43475ZM13.2775 16.4615H8.46978C8.27979 16.4615 8.09759 16.3861 7.96325 16.2517C7.82891 16.1174 7.75343 15.9352 7.75343 15.7452C7.75343 15.5552 7.82891 15.373 7.96325 15.2387C8.09759 15.1043 8.27979 15.0288 8.46978 15.0288H13.2775C13.4675 15.0288 13.6497 15.1043 13.784 15.2387C13.9183 15.373 13.9938 15.5552 13.9938 15.7452C13.9938 15.9352 13.9183 16.1174 13.784 16.2517C13.6497 16.3861 13.4675 16.4615 13.2775 16.4615ZM14.1449 13.5996H7.72184C7.53578 13.5938 7.35928 13.5159 7.2297 13.3822C7.10013 13.2486 7.02767 13.0697 7.02767 12.8836C7.02767 12.6974 7.10013 12.5186 7.2297 12.385C7.35928 12.2513 7.53578 12.1733 7.72184 12.1676H14.1449C14.331 12.1733 14.5075 12.2513 14.6371 12.385C14.7666 12.5186 14.8391 12.6974 14.8391 12.8836C14.8391 13.0697 14.7666 13.2486 14.6371 13.3822C14.5075 13.5159 14.331 13.5938 14.1449 13.5996ZM15.8688 10.1435C15.8376 10.3123 15.7476 10.4646 15.6149 10.5735C15.4821 10.6823 15.3152 10.7407 15.1435 10.7383L7.00549 10.7376C6.83386 10.74 6.6669 10.6816 6.53417 10.5728C6.40144 10.4639 6.31149 10.3116 6.28022 10.1429C6.26278 10.0403 6.26787 9.93517 6.29513 9.83477C6.32239 9.73438 6.37117 9.64111 6.43808 9.56146C6.50499 9.4818 6.58844 9.41766 6.68263 9.37348C6.77681 9.3293 6.87949 9.30615 6.98352 9.30563H15.1628C15.2671 9.30574 15.3702 9.32861 15.4647 9.37265C15.5593 9.4167 15.6431 9.48085 15.7104 9.56063C15.7776 9.64042 15.8266 9.73391 15.854 9.83459C15.8813 9.93527 15.8864 10.0407 15.8688 10.1435Z" fill="#243A57"/>
<path d="M15.1477 5.4375H15.1566L15.0385 5.43407C15.0385 5.43407 15.0385 5.43407 15.0385 5.4375H15.1477Z" fill="#243A57"/>
<path d="M21 16.8881C20.9995 17.0573 20.932 17.2194 20.8123 17.3391C20.6926 17.4588 20.5305 17.5262 20.3613 17.5268H19.0852V18.8029C19.0846 18.9721 19.0172 19.1343 18.8975 19.2539C18.7778 19.3736 18.6157 19.4411 18.4464 19.4416C18.3184 19.4416 18.1934 19.4028 18.0879 19.3304C18.002 19.2718 17.9316 19.1931 17.8829 19.1012C17.8342 19.0093 17.8086 18.9069 17.8084 18.8029V17.5302H16.5302C16.4446 17.533 16.3593 17.5186 16.2794 17.4878C16.1995 17.457 16.1266 17.4104 16.0651 17.3508C16.0035 17.2913 15.9546 17.2199 15.9212 17.1411C15.8878 17.0622 15.8705 16.9775 15.8705 16.8918C15.8705 16.8062 15.8878 16.7214 15.9212 16.6426C15.9546 16.5637 16.0035 16.4924 16.0651 16.4328C16.1266 16.3733 16.1995 16.3267 16.2794 16.2959C16.3593 16.2651 16.4446 16.2506 16.5302 16.2534H17.8063V14.9732C17.8118 14.8075 17.8814 14.6504 18.0005 14.5352C18.1197 14.4199 18.2789 14.3554 18.4447 14.3554C18.6105 14.3554 18.7698 14.4199 18.8889 14.5352C19.008 14.6504 19.0777 14.8075 19.0831 14.9732V16.25H20.3592C20.5287 16.2498 20.6914 16.3169 20.8115 16.4365C20.9317 16.5561 20.9995 16.7185 21 16.8881Z" fill="#243A57"/>
</g>
</g>
</svg>
