<svg width="18" height="17" viewBox="0 0 18 17" fill="none" xmlns="http://www.w3.org/2000/svg">
<path d="M0.667969 10.7244C0.667969 11.1664 0.843563 11.5903 1.15612 11.9029C1.46868 12.2154 1.89261 12.391 2.33464 12.391C2.77666 12.391 3.20059 12.2154 3.51315 11.9029C3.82571 11.5903 4.0013 11.1664 4.0013 10.7244V9.05768H2.33464C1.89261 9.05768 1.46868 9.23328 1.15612 9.54584C0.843563 9.8584 0.667969 10.2823 0.667969 10.7244V10.7244ZM11.2013 7.94102C11.6433 7.94102 12.0673 7.76542 12.3798 7.45286C12.6924 7.1403 12.868 6.71638 12.868 6.27435V1.83268C12.868 1.39065 12.6924 0.966732 12.3798 0.654171C12.0673 0.34161 11.6433 0.166016 11.2013 0.166016C10.7593 0.166016 10.3354 0.34161 10.0228 0.654171C9.71023 0.966732 9.53464 1.39065 9.53464 1.83268V6.27435C9.53463 6.49463 9.57828 6.71273 9.66308 6.91603C9.74788 7.11933 9.87213 7.30381 10.0287 7.45879C10.1852 7.61378 10.3709 7.73619 10.575 7.81897C10.7792 7.90174 10.9977 7.94322 11.218 7.94102H11.2013ZM17.3013 6.27435C17.3013 5.83232 17.1257 5.4084 16.8131 5.09584C16.5006 4.78328 16.0767 4.60768 15.6346 4.60768C15.1926 4.60768 14.7687 4.78328 14.4561 5.09584C14.1436 5.4084 13.968 5.83232 13.968 6.27435V7.94102H15.6346C15.8563 7.94545 16.0766 7.90562 16.2827 7.82385C16.4888 7.74208 16.6764 7.62001 16.8348 7.4648C16.9931 7.3096 17.1188 7.12436 17.2047 6.91995C17.2905 6.71554 17.3347 6.49605 17.3346 6.27435H17.3013ZM6.78464 9.05768C6.34261 9.05768 5.91869 9.23328 5.60612 9.54584C5.29356 9.8584 5.11797 10.2823 5.11797 10.7244V15.166C5.11797 15.608 5.29356 16.032 5.60612 16.3445C5.91869 16.6571 6.34261 16.8327 6.78464 16.8327C7.22666 16.8327 7.65059 16.6571 7.96315 16.3445C8.27571 16.032 8.4513 15.608 8.4513 15.166V10.7244C8.4513 10.2823 8.27571 9.8584 7.96315 9.54584C7.65059 9.23328 7.22666 9.05768 6.78464 9.05768ZM11.218 13.4994H9.5513V15.166C9.5513 15.4957 9.64905 15.8179 9.83219 16.092C10.0153 16.3661 10.2756 16.5797 10.5802 16.7058C10.8847 16.832 11.2198 16.865 11.5431 16.8007C11.8664 16.7364 12.1634 16.5776 12.3965 16.3445C12.6296 16.1114 12.7883 15.8145 12.8526 15.4912C12.9169 15.1679 12.8839 14.8328 12.7578 14.5282C12.6316 14.2237 12.418 13.9634 12.1439 13.7802C11.8698 13.5971 11.5476 13.4994 11.218 13.4994ZM15.668 9.05768H11.218C10.7759 9.05768 10.352 9.23328 10.0395 9.54584C9.7269 9.8584 9.5513 10.2823 9.5513 10.7244C9.5513 11.1664 9.7269 11.5903 10.0395 11.9029C10.352 12.2154 10.7759 12.391 11.218 12.391H15.668C16.11 12.391 16.5339 12.2154 16.8465 11.9029C17.159 11.5903 17.3346 11.1664 17.3346 10.7244C17.3346 10.2823 17.159 9.8584 16.8465 9.54584C16.5339 9.23328 16.11 9.05768 15.668 9.05768V9.05768ZM6.78464 4.60768H2.33464C1.89261 4.60768 1.46868 4.78328 1.15612 5.09584C0.843563 5.4084 0.667969 5.83232 0.667969 6.27435C0.667969 6.71638 0.843563 7.1403 1.15612 7.45286C1.46868 7.76542 1.89261 7.94102 2.33464 7.94102H6.78464C7.22666 7.94102 7.65059 7.76542 7.96315 7.45286C8.27571 7.1403 8.4513 6.71638 8.4513 6.27435C8.4513 5.83232 8.27571 5.4084 7.96315 5.09584C7.65059 4.78328 7.22666 4.60768 6.78464 4.60768V4.60768ZM6.78464 0.166016C6.34261 0.166016 5.91869 0.34161 5.60612 0.654171C5.29356 0.966732 5.11797 1.39065 5.11797 1.83268C5.11797 2.27471 5.29356 2.69863 5.60612 3.01119C5.91869 3.32375 6.34261 3.49935 6.78464 3.49935H8.4513V1.83268C8.4513 1.39065 8.27571 0.966732 7.96315 0.654171C7.65059 0.34161 7.22666 0.166016 6.78464 0.166016Z" fill="#243A57"/>
</svg>
