<svg width="28" height="28" viewBox="0 0 24 24" fill="none" xmlns="http://www.w3.org/2000/svg">
<path d="M21 6C21 5.17 20.33 4.5 19.5 4.5L4.5 4.5C3.67 4.5 3 5.17 3 6C3 6.83 3.67 7.5 4.5 7.5L19.5 7.5C20.33 7.5 21 6.83 21 6ZM11 18C11 17.17 10.33 16.5 9.5 16.5H4.5C3.67 16.5 3 17.17 3 18C3 18.83 3.67 19.5 4.5 19.5H9.5C10.33 19.5 11 18.83 11 18ZM16 12C16 11.17 15.33 10.5 14.5 10.5L4.5 10.5C3.67 10.5 3 11.17 3 12C3 12.83 3.67 13.5 4.5 13.5H14.5C15.33 13.5 16 12.83 16 12Z" fill="#485F7D"/>
<path d="M21 6C21 5.17 20.33 4.5 19.5 4.5L4.5 4.5C3.67 4.5 3 5.17 3 6C3 6.83 3.67 7.5 4.5 7.5L19.5 7.5C20.33 7.5 21 6.83 21 6ZM11 18C11 17.17 10.33 16.5 9.5 16.5H4.5C3.67 16.5 3 17.17 3 18C3 18.83 3.67 19.5 4.5 19.5H9.5C10.33 19.5 11 18.83 11 18ZM16 12C16 11.17 15.33 10.5 14.5 10.5L4.5 10.5C3.67 10.5 3 11.17 3 12C3 12.83 3.67 13.5 4.5 13.5H14.5C15.33 13.5 16 12.83 16 12Z" fill="#E5007A"/>
</svg>
