<svg width="80" height="68" viewBox="0 0 80 68" fill="none" xmlns="http://www.w3.org/2000/svg">
<path d="M40.1658 66.5733C61.7964 66.5733 79.3316 65.5495 79.3316 64.2866C79.3316 63.0238 61.7964 62 40.1658 62C18.5351 62 1 63.0238 1 64.2866C1 65.5495 18.5351 66.5733 40.1658 66.5733Z" fill="#F5F5F5"/>
<g clip-path="url(#clip0_6522_74129)">
<path d="M21.7811 54.7435C21.8834 54.1005 21.9873 53.459 22.1047 52.7229C21.5089 52.9682 20.976 53.1704 20.4564 53.4049C16.7322 55.0772 13.0961 56.926 9.56816 58.9836C8.2488 59.7527 6.94272 60.546 5.63162 61.3264C5.53819 61.3813 5.44981 61.4509 5.34796 61.4814C5.28653 61.5001 5.20648 61.4572 5.13489 61.4418C5.15835 61.3714 5.16045 61.2802 5.20693 61.234C5.29188 61.1499 5.40311 61.0915 5.50451 61.025C9.80992 58.2052 14.3478 55.8092 19.002 53.63C19.8458 53.235 20.6911 52.8368 21.5633 52.5114C22.0736 52.321 22.2711 52.0204 22.3701 51.5012C23.0035 48.1834 23.8616 44.9246 25.0372 41.7548C25.7593 39.809 26.5988 37.9155 27.6277 36.1124C27.7405 35.9139 27.9263 35.7259 28.1245 35.611C29.5018 34.8086 30.8925 34.0289 32.2781 33.241C32.37 33.1894 32.4585 33.1329 32.5841 33.0564C29.8781 30.2659 28.34 26.9167 27.7439 23.1256C27.1461 19.3232 27.6424 15.6813 29.551 12.2058C28.9199 12.6112 28.386 12.9974 27.8106 13.3076C27.4383 13.5093 27.0149 13.6482 26.5972 13.7284C25.8558 13.8712 25.1921 13.4805 24.8857 12.7302C24.3668 11.4645 24.4334 10.1736 24.8849 8.91536C25.556 7.04677 26.7958 5.62388 28.4869 4.61393C29.4179 4.05821 30.4494 3.88239 31.5333 4.00561C31.7445 4.02903 31.9856 3.97062 32.1841 3.88343C33.4574 3.32504 34.7191 2.74399 35.9907 2.18237C36.2102 2.08514 36.4541 1.99249 36.6877 1.98956C36.8711 1.98726 37.1449 2.08482 37.2132 2.22242C37.2847 2.36649 37.212 2.64594 37.1068 2.79874C36.992 2.9647 36.7743 3.06679 36.5873 3.17176C36.0814 3.45664 35.5687 3.72695 35.0369 4.01541C35.0656 4.10627 35.0795 4.18428 35.1128 4.25065C35.5439 5.11017 35.9862 5.96304 36.4076 6.82757C36.5226 7.06394 36.6517 7.13725 36.9122 7.07534C38.0398 6.80058 39.1741 6.55016 40.3017 6.27214C40.4408 6.23782 40.5526 6.09145 40.6763 5.99542C40.568 5.89742 40.4755 5.7699 40.3498 5.70795C39.7472 5.40765 39.1209 5.15326 38.5342 4.82507C38.2744 4.6801 38.0602 4.4238 37.8754 4.18016C37.6213 3.84454 37.6003 3.46365 37.7755 3.06563C38.1998 2.09927 38.9068 1.40628 39.8608 1.00501C42.1627 0.0395342 44.4088 0.192161 46.5063 1.55853C47.5239 2.22012 48.0853 3.24904 48.2967 4.45012C48.3841 4.95235 48.1505 5.34458 47.7315 5.57136C47.2157 5.84986 46.6617 6.06041 46.1082 6.30843C46.1589 6.33712 46.2277 6.39 46.3027 6.41675C49.5793 7.60545 51.9555 9.84792 53.6837 12.8217C55.6158 16.1448 56.4479 19.7391 56.2057 23.583C56.2029 23.6205 56.2164 23.6594 56.2356 23.7699C62.1411 22.2445 68.1189 21.1906 74.2547 20.5647C74.1989 20.7739 74.1796 20.9142 74.126 21.0403C72.3014 25.3911 70.9753 29.8904 70.146 34.5349C69.8746 36.0548 69.6893 37.5883 69.4927 39.1203C69.4469 39.4743 69.325 39.5882 68.9749 39.6219C65.4823 39.972 61.9809 40.2651 58.5026 40.7209C51.363 41.6542 44.3506 43.1528 37.6034 45.7475C32.027 47.891 26.8588 50.7493 22.2398 54.5732C22.1355 54.6609 22.008 54.7211 21.8921 54.7943C21.8545 54.7752 21.8186 54.7561 21.781 54.737L21.7811 54.7435ZM33.4218 33.8587C32.7102 33.1444 32.8945 33.2186 32.1822 33.6136C30.8833 34.3352 29.5911 35.0714 28.3072 35.8189C28.1107 35.9337 27.9232 36.125 27.8154 36.3267C27.3509 37.1991 26.8913 38.0747 26.479 38.9725C24.8475 42.5358 23.7552 46.2747 22.9301 50.0966C22.7936 50.727 22.6669 51.359 22.5231 52.058C23.5122 51.7393 24.3748 51.2952 25.3437 51.1805C25.2483 51.3348 25.1295 51.434 24.9923 51.4927C24.2482 51.8132 23.4975 52.119 22.7567 52.4443C22.6212 52.5047 22.4409 52.6177 22.4115 52.7386C22.2926 53.2157 22.2257 53.7069 22.1242 54.2799C22.3011 54.1571 22.401 54.0956 22.4925 54.0211C25.829 51.3145 29.4652 49.0943 33.345 47.2702C39.6623 44.2997 46.3318 42.4943 53.1724 41.2666C57.7608 40.4435 62.3852 39.8968 67.0311 39.5128C67.7411 39.4534 68.4494 39.3858 69.1837 39.3196C69.8599 32.9439 71.4221 26.829 73.8935 20.8803C73.6228 20.9016 73.4492 20.9055 73.2775 20.9288C71.0842 21.2332 68.889 21.5197 66.7009 21.8534C63.2689 22.3786 59.8802 23.1215 56.5157 23.9766C56.252 24.0434 56.1464 24.1571 56.1141 24.4295C55.9585 25.7395 55.6989 27.0377 55.1525 28.2369C54.7798 29.0543 54.5882 29.8191 55.0335 30.6475C55.0451 30.6701 55.0487 30.6994 55.0539 30.7254C55.1321 31.1365 54.9373 31.3931 54.5237 31.4031C54.3761 31.4066 54.2154 31.407 54.0833 31.3549C53.7001 31.2033 53.4764 31.3527 53.2336 31.6588C51.8293 33.4242 50.0863 34.7019 47.8716 35.2395C46.6259 35.5402 45.3682 35.7938 44.1105 36.0425C43.7948 36.1051 43.6717 36.2532 43.5846 36.5491C43.4072 37.1589 43.1892 37.7578 42.9548 38.3472C42.9013 38.4814 42.7149 38.6287 42.5771 38.6419C42.4734 38.6513 42.3025 38.4792 42.2441 38.3496C42.0205 37.8588 41.821 37.3548 41.6329 36.8489C41.5641 36.6625 41.5041 36.541 41.2693 36.5798C39.9819 36.7914 38.7438 36.5333 37.5236 36.1496C36.2447 35.7486 35.1085 35.0787 34.0341 34.2875C33.8998 34.1882 33.6664 34.082 33.5453 34.134C32.9401 34.3974 32.3367 34.6802 31.7748 35.0261C31.5075 35.1907 31.2547 35.4773 31.1333 35.7671C30.6339 36.9592 29.8042 37.8297 28.6906 38.4398C28.2974 38.6549 28.0333 38.9497 27.9088 39.3748C27.1762 41.8973 26.4435 44.4199 25.7157 46.944C25.6862 47.047 25.6771 47.2295 25.7361 47.276C26.3375 47.7408 26.7732 48.3267 27.0196 49.0761C27.1468 48.9996 27.2274 48.953 27.3063 48.9047C28.1744 48.384 29.0259 47.8342 29.9139 47.3507C30.4684 47.0489 31.0743 46.8393 31.662 46.6039C31.7347 46.5753 31.8425 46.6342 31.9352 46.6526C31.8858 46.7232 31.8446 46.8036 31.782 46.8597C31.7355 46.9027 31.6611 46.9183 31.5981 46.9435C30.0385 47.5755 28.5785 48.3903 27.2181 49.3831C26.8869 49.6251 26.8505 49.5718 26.6836 49.2009C26.4766 48.7392 26.2923 48.1503 25.9144 47.9074C25.1718 47.433 25.2806 46.9234 25.488 46.2497C26.2037 43.9342 26.8756 41.6063 27.575 39.2861C27.6966 38.8839 27.8506 38.4862 28.2683 38.2789C29.4859 37.6756 30.3192 36.7107 30.862 35.479C31.0592 35.0302 31.3899 34.7442 31.8354 34.5578C32.3552 34.3412 32.865 34.0986 33.4168 33.849L33.4218 33.8587ZM55.9431 22.5748C55.8766 17.6548 54.312 13.4963 51.3842 10.2281C49.4208 8.03583 46.9994 6.59045 44.0419 6.25617C41.4483 5.96293 39.116 6.69912 37.1203 8.40189C35.1407 10.0914 33.9462 12.2761 33.2715 14.7669C32.462 17.7563 32.5207 20.7576 33.3061 23.7302C34.422 27.9561 36.587 31.4702 40.4162 33.7661C42.3896 34.9483 44.527 35.4883 46.8222 35.1484C50.0179 34.6751 52.2926 32.8417 53.9121 30.1207C55.3852 27.6443 55.9515 24.9235 55.9415 22.5748L55.9431 22.5748ZM30.9603 4.25062C30.4052 4.36997 29.9287 4.41993 29.4893 4.57693C27.4635 5.29624 26.1464 6.76246 25.3335 8.70939C24.8451 9.8769 24.7306 11.0984 25.0706 12.332C25.3171 13.2232 25.9657 13.5767 26.8436 13.3164C27.1653 13.2212 27.4866 13.095 27.775 12.9269C29.7886 11.75 31.4144 10.1789 32.557 8.12685C32.9982 7.33457 33.2895 6.49693 33.2568 5.57377C33.2417 5.14882 33.1141 4.80348 32.6501 4.68713C32.0657 4.53972 31.4845 4.38738 30.9603 4.25387L30.9603 4.25062ZM37.9434 3.25899C39.6478 2.52905 41.3262 2.56338 43.0105 2.68559C44.7159 2.81079 46.3654 3.13542 47.8558 4.22924C47.6849 3.41532 47.3284 2.80897 46.8221 2.28756C45.1305 0.546346 41.5625 0.190404 39.4846 1.55052C38.8569 1.96072 38.3474 2.47695 37.9418 3.25901L37.9434 3.25899ZM30.0862 11.8C30.3044 11.9895 30.555 12.1736 30.7639 12.3958C30.9942 12.6421 31.208 12.615 31.4196 12.4104C31.8734 11.9698 32.3713 11.5612 32.7496 11.0629C33.4775 10.1009 33.4167 9.91271 32.4024 9.26085C32.3828 9.24807 32.352 9.25171 32.3553 9.2533C31.6096 10.0901 30.8751 10.9154 30.0879 11.8016L30.0862 11.8ZM44.1272 5.94724C44.2776 5.1244 44.2293 4.89697 43.8372 4.6885C43.1086 4.29694 42.3403 4.23654 41.5765 4.54257C41.3844 4.61991 41.1877 4.85205 41.1237 5.05483C41.027 5.3639 41.0427 5.70903 41.0154 5.98791L44.1273 5.94887L44.1272 5.94724ZM33.7803 4.61594C33.3699 5.14233 33.7797 5.6063 33.6585 6.0297C33.5264 6.49559 33.4513 6.98031 33.2866 7.43357C33.1282 7.87047 32.8867 8.27746 32.6842 8.6921C33.5194 8.26952 34.3499 7.85025 35.211 7.41594C34.7585 6.529 34.2993 5.62911 33.7819 4.61429L33.7803 4.61594ZM32.3237 4.15044C32.6354 4.28661 32.8748 4.35691 33.076 4.4847C33.3541 4.66201 33.5776 4.625 33.853 4.46029C34.6969 3.95452 35.5608 3.48109 36.4131 2.99151C36.5645 2.90491 36.724 2.81332 36.8343 2.68325C36.9063 2.60091 36.8947 2.44631 36.9207 2.32382C36.8085 2.30568 36.6977 2.27123 36.5874 2.27425C36.4966 2.27701 36.4046 2.32052 36.3191 2.35743C35.3022 2.7888 34.2836 3.21531 33.2701 3.65642C32.9667 3.78891 32.68 3.96191 32.3237 4.14881L32.3237 4.15044ZM36.2218 7.14916C35.7325 6.17634 35.2449 5.20351 34.7389 4.1967C34.5101 4.32499 34.3168 4.43492 34.1089 4.55155C34.5232 5.36894 34.916 6.15401 35.3153 6.93575C35.5748 7.44559 35.6285 7.45631 36.2218 7.14753L36.2218 7.14916Z" fill="#263238"/>
<path d="M24.2236 41.9837C24.0677 42.098 23.9924 42.1788 23.902 42.2141C16.8076 44.9435 10.2069 48.6033 3.9684 52.9443C4.75259 51.0369 22.0743 41.6572 24.2236 41.9837Z" fill="#407BFF"/>
<path d="M33.4221 33.859C32.8703 34.107 32.3606 34.3512 31.8408 34.5678C31.3952 34.7542 31.0662 35.0401 30.8673 35.4889C30.3246 36.7207 29.4912 37.6856 28.2736 38.2889C27.856 38.4962 27.7019 38.8923 27.5804 39.2961C26.8825 41.6163 26.2091 43.9458 25.4933 46.2597C25.2859 46.9317 25.1755 47.4413 25.9198 47.9174C26.2993 48.1602 26.4819 48.7492 26.6889 49.2109C26.8559 49.5818 26.8906 49.6351 27.2235 49.3931C28.5839 48.4003 30.0438 47.5855 31.6034 46.9535C31.6664 46.9283 31.7393 46.9143 31.7874 46.8697C31.8499 46.8119 31.8895 46.7316 31.9406 46.6626C31.8495 46.6442 31.74 46.5853 31.6673 46.6139C31.0796 46.8509 30.4737 47.0589 29.9193 47.3607C29.0312 47.8442 28.1781 48.394 27.3116 48.9147C27.2327 48.963 27.1538 49.0096 27.0249 49.0861C26.7769 48.335 26.3428 47.7508 25.7415 47.286C25.6825 47.2411 25.6916 47.0586 25.7211 46.954C26.4472 44.4299 27.1815 41.9073 27.9142 39.3848C28.0386 38.9581 28.3027 38.6648 28.6959 38.4498C29.8096 37.8396 30.6392 36.9692 31.1387 35.7771C31.26 35.4873 31.5128 35.2007 31.7801 35.0361C32.3421 34.6902 32.9455 34.409 33.5507 34.144C33.6717 34.092 33.9051 34.1982 34.0394 34.2975C35.1138 35.0887 36.25 35.7586 37.5289 36.1595C38.7491 36.5433 39.9873 36.8014 41.2747 36.5898C41.5111 36.551 41.5694 36.6724 41.6383 36.8589C41.8264 37.3648 42.0258 37.8672 42.2494 38.3596C42.3078 38.4892 42.4787 38.6613 42.5825 38.6518C42.7202 38.6387 42.9066 38.4914 42.9601 38.3572C43.1961 37.7678 43.4125 37.1673 43.5899 36.5591C43.677 36.2616 43.8001 36.1135 44.1158 36.0525C45.3735 35.8038 46.6312 35.5518 47.8769 35.2495C50.0917 34.7135 51.8347 33.4358 53.2389 31.6688C53.4818 31.3644 53.7054 31.2133 54.0887 31.3649C54.2208 31.417 54.3814 31.4166 54.529 31.4131C54.9427 31.4031 55.1374 31.1465 55.0593 30.7354C55.0541 30.7094 55.0521 30.6801 55.0388 30.6575C54.5935 29.8274 54.7851 29.0643 55.1579 28.2469C55.7043 27.046 55.9639 25.7495 56.1194 24.4395C56.1517 24.1671 56.2574 24.0534 56.5211 23.9865C59.8856 23.1315 63.2742 22.3886 66.7062 21.8634C68.8943 21.5281 71.0911 21.2432 73.2828 20.9388C73.4546 20.9154 73.6281 20.9116 73.8989 20.8903C71.4258 26.839 69.8652 32.9539 69.189 39.3296C68.4547 39.3958 67.7465 39.465 67.0365 39.5228C62.3922 39.9068 57.7662 40.4535 53.1777 41.2766C46.3371 42.5043 39.6677 44.3097 33.3503 47.2801C29.4706 49.1043 25.8343 51.3261 22.4979 54.0311C22.4063 54.1056 22.3065 54.1671 22.1295 54.2899C22.2311 53.7169 22.2979 53.2257 22.4169 52.7486C22.4462 52.6277 22.6265 52.5147 22.7621 52.4543C23.5028 52.1274 24.2536 51.8232 24.9976 51.5027C25.1332 51.444 25.2536 51.3448 25.3491 51.1905C24.3801 51.3052 23.5175 51.7477 22.5284 52.068C22.6738 51.369 22.8006 50.737 22.9355 50.1066C23.7622 46.283 24.8544 42.5441 26.4844 38.9825C26.895 38.0847 27.3562 37.2091 27.8208 36.3367C27.9286 36.135 28.116 35.9437 28.3126 35.8289C29.5965 35.0798 30.8887 34.3436 32.1875 33.6236C32.8998 33.2286 32.7155 33.1528 33.4271 33.8687L33.4221 33.859ZM59.4014 36.6638C59.4016 36.68 59.414 36.7597 59.4019 36.8348C59.3444 37.1678 59.2609 37.4979 59.2262 37.8339C59.2161 37.935 59.3295 38.0476 59.3877 38.156C59.476 38.0865 59.6036 38.0327 59.643 37.941C59.7218 37.7576 59.8003 37.5497 59.793 37.356C59.7649 36.6625 60.1134 36.3795 60.7518 36.1728C61.825 35.8254 62.742 35.1917 63.3068 34.1666C64.1128 32.7035 63.263 30.9387 61.6164 30.7118C60.9418 30.6192 60.2435 30.7111 59.5598 30.661C58.2165 30.5638 57.7977 29.6439 58.5593 28.5218C58.5673 28.5103 58.5752 28.4988 58.5832 28.4889C59.4944 27.2591 60.7002 26.4931 62.2045 26.2396C62.4668 26.1956 62.7624 26.3467 63.0423 26.4051C63.1464 26.4266 63.2505 26.4448 63.3546 26.4647C63.3386 26.3525 63.359 26.173 63.2986 26.138C63.0305 25.985 62.7476 25.811 62.4517 25.7642C62.1476 25.7142 61.8209 25.803 61.4756 25.8318C61.539 25.4482 61.6093 25.1053 61.6439 24.7579C61.6525 24.6666 61.5522 24.5636 61.5023 24.4648C61.409 24.5263 61.2699 24.5671 61.2337 24.6539C61.1518 24.8504 61.0766 25.068 61.0744 25.2781C61.0702 25.8532 60.7865 26.1288 60.2669 26.3617C59.118 26.8762 58.2556 27.7275 57.8344 28.9463C57.5369 29.8117 57.9368 30.6439 58.799 30.9458C59.1706 31.0764 59.5896 31.0988 59.989 31.1182C60.3641 31.1363 60.7429 31.0648 61.1195 31.0715C62.3286 31.0905 63.2384 31.9505 63.1712 33.0574C63.124 33.8268 62.7164 34.446 62.1153 34.908C61.0513 35.726 59.8329 36.1355 58.4918 36.0741C57.8926 36.0474 57.2968 35.8936 56.7016 35.7903C56.5129 35.7569 56.2799 35.6784 56.2524 35.9442C56.2408 36.0584 56.4248 36.232 56.5588 36.3117C56.7027 36.3995 56.8897 36.4314 57.062 36.4504C57.8338 36.5287 58.607 36.5939 59.3998 36.6638L59.4014 36.6638ZM71.1239 24.7579C71.1145 24.7906 71.1071 24.8428 71.0866 24.8903C69.701 28.0123 68.6851 31.2421 68.2556 34.6453C68.2365 34.8019 68.0928 34.9878 67.9543 35.0742C67.0945 35.6111 66.4104 36.3152 65.969 37.2199C65.7333 37.7017 65.4027 37.8671 64.897 37.9175C63.7836 38.0292 62.6757 38.1929 61.5695 38.3566C61.4691 38.3709 61.3916 38.5332 61.3019 38.6255C61.4194 38.6843 61.5443 38.8065 61.6528 38.7921C62.7351 38.6564 63.8135 38.4653 64.8977 38.3589C65.5946 38.2899 66.0485 37.9926 66.3244 37.3506C66.6603 36.5694 67.2123 35.9468 67.9421 35.5288C68.3788 35.279 68.5372 34.9724 68.6106 34.4828C69.1076 31.1602 69.9597 27.9374 71.3753 24.8785C71.587 24.4214 71.574 24.4199 71.103 24.2564C70.2946 23.975 69.707 23.4432 69.3822 22.6475C69.2784 22.3931 69.1584 22.2692 68.8783 22.3216C67.8988 22.5049 66.9176 22.6768 65.9382 22.8634C65.8346 22.8826 65.7431 22.9619 65.6464 23.012C65.8228 23.1027 65.9755 23.1187 66.1229 23.0956C66.9894 22.9626 67.8558 22.8263 68.7189 22.6803C68.9699 22.638 69.0877 22.718 69.2205 22.9509C69.4445 23.3439 69.7106 23.7348 70.0358 24.0434C70.3396 24.3328 70.746 24.515 71.1238 24.7562L71.1239 24.7579ZM32.5259 40.5453C33.3854 40.5052 34.7358 40.011 35.4524 39.4385C35.9649 39.0297 36.1437 38.5388 35.956 38.0606C35.8001 37.6651 35.4016 37.4616 34.7596 37.512C33.6005 37.6031 32.559 38.0136 31.6563 38.7531C31.4925 38.8871 31.347 39.0599 31.234 39.2389C30.927 39.7249 31.054 40.1468 31.587 40.3405C31.8853 40.4491 32.2135 40.4792 32.5275 40.5453L32.5259 40.5453Z" fill="#407BFF"/>
<path d="M55.9431 22.5748C55.9515 24.9252 55.3868 27.6443 53.9137 30.1208C52.2959 32.8418 50.0211 34.6751 46.8238 35.1485C44.5286 35.4884 42.3912 34.95 40.4178 33.7661C36.5886 31.4702 34.4236 27.9562 33.3077 23.7302C32.5223 20.7576 32.4619 17.7564 33.2731 14.767C33.9478 12.2761 35.1423 10.0915 37.1219 8.40195C39.1176 6.69754 41.4499 5.96298 44.0435 6.25622C47.001 6.5905 49.4224 8.03589 51.3858 10.2281C54.3136 13.4964 55.8782 17.6548 55.9448 22.5748L55.9431 22.5748ZM55.0387 22.0096C55.0047 19.8224 54.628 17.8595 53.871 15.9811C52.6131 12.8597 50.6762 10.3185 47.6666 8.6834C44.6309 7.03397 41.0598 7.3345 38.4015 9.50982C36.6314 10.9573 35.5615 12.8569 34.9201 15.02C34.1262 17.7029 34.1763 20.4062 34.8527 23.0968C35.751 26.669 37.5284 29.6813 40.6042 31.8108C42.2739 32.9659 44.1286 33.6137 46.1638 33.5018C48.9318 33.3498 51.0831 32.0181 52.6907 29.781C54.3909 27.4141 55.0256 24.7218 55.037 22.008L55.0387 22.0096Z" fill="#407BFF"/>
<path d="M30.9609 4.25108C31.4835 4.38623 32.0663 4.53692 32.6507 4.68433C33.1146 4.80231 33.2423 5.14603 33.2574 5.57097C33.2901 6.49576 32.9987 7.33177 32.5575 8.12405C31.4149 10.1761 29.7876 11.7472 27.7756 12.9241C27.4872 13.0922 27.1659 13.2184 26.8441 13.3136C25.9663 13.5739 25.3176 13.2188 25.0711 12.3292C24.7311 11.0956 24.8456 9.8741 25.334 8.70659C26.1469 6.75966 27.464 5.29344 29.4899 4.57413C29.9293 4.41876 30.4057 4.36718 30.9608 4.24782L30.9609 4.25108ZM27.3135 7.0089C28.8844 5.59325 30.6914 5.15034 32.7487 5.64088C32.3379 5.10362 31.7623 5.14016 31.2169 5.12909C29.6084 5.09388 28.3035 5.72759 27.3119 7.00893L27.3135 7.0089Z" fill="#B3CAFF"/>
<path d="M37.9432 3.25914C38.3488 2.47708 38.8584 1.96085 39.4861 1.55064C41.564 0.190527 45.1319 0.54647 46.8236 2.28769C47.3299 2.80909 47.6848 3.41547 47.8573 4.22937C46.3669 3.13554 44.7173 2.80929 43.0119 2.68571C41.3276 2.5635 39.6493 2.52917 37.9449 3.25911L37.9432 3.25914ZM43.9347 1.35312C43.9709 1.38524 44.0022 1.42883 44.0447 1.44785C44.9391 1.86013 45.824 2.28883 46.494 3.04925C46.5417 3.10403 46.6761 3.08117 46.7704 3.09628C46.7579 3.00033 46.779 2.87301 46.7247 2.8118C45.9999 1.95433 45.0657 1.47576 43.9331 1.35314L43.9347 1.35312Z" fill="#B3CAFF"/>
<path d="M30.086 11.8016C30.8749 10.9154 31.6077 10.0917 32.3534 9.25329C32.3502 9.25333 32.3809 9.24805 32.4006 9.26084C33.4148 9.91269 33.4756 10.1009 32.7477 11.0629C32.3694 11.5628 31.8715 11.9714 31.4178 12.4104C31.2061 12.6166 30.9923 12.6421 30.762 12.3958C30.5531 12.1736 30.3042 11.9894 30.0843 11.8L30.086 11.8016Z" fill="#DAE5FF"/>
<path d="M44.1283 5.94897L41.0164 5.98801C41.0438 5.71076 41.0281 5.36563 41.1248 5.05493C41.1888 4.85215 41.3838 4.62003 41.5776 4.54267C42.3413 4.23664 43.1096 4.29867 43.8383 4.6886C44.2303 4.8987 44.277 5.12452 44.1283 5.94734L44.1283 5.94897Z" fill="#DAE5FF"/>
<path d="M33.7796 4.61645C34.297 5.63126 34.7561 6.52953 35.2086 7.4181C34.3475 7.85241 33.5171 8.2733 32.6818 8.69426C32.8843 8.27798 33.1259 7.87262 33.2843 7.43572C33.449 6.98246 33.5241 6.49774 33.6561 6.03186C33.7774 5.60683 33.3675 5.14286 33.778 4.6181L33.7796 4.61645Z" fill="white"/>
<path d="M32.3236 4.15107C32.6799 3.96417 32.9666 3.79117 33.27 3.65868C34.2819 3.21759 35.3005 2.79108 36.319 2.35968C36.4062 2.32276 36.4965 2.27927 36.5873 2.2765C36.6976 2.27186 36.81 2.30792 36.9206 2.32607C36.8946 2.44857 36.9062 2.60153 36.8343 2.68551C36.7239 2.81395 36.5644 2.90554 36.413 2.99377C35.5607 3.48497 34.6969 3.95678 33.8529 4.46255C33.5775 4.62726 33.354 4.66427 33.0759 4.48695C32.8747 4.35917 32.6353 4.28724 32.3236 4.1527L32.3236 4.15107Z" fill="#DAE5FF"/>
<path d="M36.2208 7.1499C35.6275 7.45869 35.5738 7.44633 35.3142 6.93812C34.915 6.15638 34.5206 5.37133 34.1079 4.55393C34.3157 4.4373 34.5091 4.32737 34.7379 4.19907C35.2438 5.20588 35.7331 6.1787 36.2208 7.15153L36.2208 7.1499Z" fill="#DAE5FF"/>
<path d="M59.4007 36.6635C58.6079 36.592 57.8347 36.5284 57.063 36.4501C56.8907 36.4327 56.7037 36.3992 56.5598 36.3115C56.4257 36.2301 56.2402 36.0581 56.2534 35.9439C56.2809 35.6781 56.5139 35.7566 56.7025 35.7901C57.2978 35.8934 57.8936 36.0471 58.4927 36.0738C59.8322 36.1336 61.0506 35.7257 62.1162 34.9077C62.7157 34.4457 63.125 33.8281 63.1721 33.0571C63.2394 31.9503 62.3312 31.0902 61.1204 31.0712C60.7439 31.0645 60.3651 31.1377 59.99 31.1179C59.5905 31.0985 59.1732 31.0744 58.8 30.9455C57.9378 30.6436 57.5363 29.8114 57.8353 28.946C58.2549 27.7272 59.1189 26.8759 60.2678 26.3614C60.7874 26.1285 61.0712 25.8545 61.0753 25.2779C61.0776 25.0677 61.1511 24.8501 61.2347 24.6536C61.2709 24.5685 61.4099 24.526 61.5033 24.4646C61.5532 24.5617 61.6534 24.6647 61.6449 24.7576C61.6103 25.105 61.5399 25.4479 61.4766 25.8315C61.8219 25.8011 62.1486 25.714 62.4526 25.7639C62.7486 25.8123 63.0299 25.9847 63.2995 26.1377C63.36 26.1728 63.3395 26.3506 63.3555 26.4644C63.2514 26.4445 63.1474 26.4279 63.0432 26.4048C62.7634 26.3448 62.4678 26.1937 62.2055 26.2394C60.7011 26.4928 59.4953 27.2572 58.5842 28.4887C58.5762 28.5002 58.5682 28.51 58.5602 28.5215C57.7987 29.6436 58.2191 30.5635 59.5607 30.6607C60.2445 30.7108 60.9411 30.619 61.6173 30.7115C63.2656 30.9368 64.1153 32.7016 63.3077 34.1663C62.7429 35.1914 61.8259 35.8252 60.7528 36.1725C60.1144 36.3793 59.7658 36.6622 59.794 37.3557C59.8013 37.5495 59.7228 37.7573 59.6439 37.9407C59.6045 38.0325 59.477 38.0845 59.3886 38.1557C59.3321 38.0489 59.2171 37.9347 59.2272 37.8336C59.2619 37.4976 59.3454 37.1691 59.4029 36.8345C59.4165 36.7594 59.4026 36.6814 59.4023 36.6635L59.4007 36.6635Z" fill="black"/>
<path d="M71.1231 24.7577C70.7436 24.5165 70.3388 24.3343 70.035 24.0449C69.7098 23.7362 69.4437 23.3454 69.2197 22.9524C69.087 22.7211 68.9691 22.6395 68.7181 22.6818C67.8534 22.8278 66.9886 22.9641 66.1221 23.0971C65.9747 23.1201 65.8204 23.1042 65.6456 23.0135C65.7423 22.9618 65.8355 22.8841 65.9374 22.8649C66.9169 22.6799 67.8981 22.5064 68.8775 22.323C69.1576 22.2707 69.2776 22.393 69.3814 22.649C69.7062 23.4447 70.2938 23.9765 71.1022 24.2579C71.5732 24.4214 71.5862 24.4245 71.3745 24.88C69.9589 27.9389 69.1068 31.1617 68.6098 34.4843C68.5364 34.9739 68.378 35.2805 67.9414 35.5303C67.2131 35.9483 66.6595 36.5709 66.3236 37.3521C66.0477 37.9941 65.5939 38.293 64.8969 38.3604C63.8111 38.4668 62.7343 38.6579 61.6521 38.7936C61.5435 38.8064 61.4187 38.6858 61.3011 38.627C61.3892 38.533 61.4683 38.3724 61.5687 38.3581C62.675 38.196 63.7829 38.0306 64.8963 37.9189C65.4019 37.8686 65.7325 37.7032 65.9683 37.2214C66.4113 36.3167 67.0953 35.6109 67.9535 35.0757C68.092 34.9892 68.2341 34.8018 68.2548 34.6468C68.6827 31.2436 69.6986 28.0138 71.0858 24.8918C71.1063 24.8443 71.1154 24.792 71.1231 24.7594L71.1231 24.7577Z" fill="black"/>
<path d="M32.5248 40.5457C32.2108 40.4796 31.8826 40.4495 31.5843 40.3409C31.0512 40.1472 30.9226 39.7253 31.2313 39.2393C31.3459 39.0587 31.4898 38.8875 31.6536 38.7535C32.5563 38.0157 33.5994 37.6035 34.7569 37.5125C35.4005 37.462 35.7974 37.6656 35.9533 38.0611C36.141 38.5392 35.9621 39.0285 35.4496 39.4389C34.7331 40.0115 33.3827 40.5057 32.5232 40.5458L32.5248 40.5457ZM32.6412 40.2543C33.2149 40.0647 33.8584 39.8775 34.4834 39.6367C34.7805 39.5222 35.0556 39.3314 35.3095 39.1328C35.6614 38.858 35.7795 38.4428 35.6328 38.127C35.451 37.7383 35.097 37.72 34.7384 37.7212C34.6719 37.722 34.6006 37.7262 34.5392 37.7514C33.732 38.0775 32.9147 38.3842 32.1241 38.7476C31.8692 38.8648 31.6565 39.1118 31.4711 39.3389C31.2362 39.6302 31.301 39.877 31.6483 40.0111C31.932 40.1215 32.2425 40.16 32.6445 40.2543L32.6412 40.2543Z" fill="black"/>
<path d="M55.0387 22.01C55.0289 24.7238 54.3925 27.4162 52.6924 29.7831C51.0847 32.0201 48.9335 33.3518 46.1654 33.5038C44.1303 33.6157 42.2755 32.9679 40.6059 31.8128C37.53 29.6833 35.7527 26.671 34.8543 23.0988C34.178 20.4099 34.1278 17.7049 34.9218 15.022C35.5616 12.859 36.6331 10.9593 38.4032 9.51184C41.0615 7.33653 44.6309 7.03439 47.6683 8.68542C50.6762 10.3205 52.6148 12.8617 53.8726 15.9831C54.6296 17.8615 55.0064 19.8244 55.0403 22.0116L55.0387 22.01ZM54.7185 21.452C54.6775 21.0323 54.6519 20.2817 54.5194 19.5504C54.3591 18.6728 54.1647 17.794 53.8847 16.9489C52.7767 13.6089 50.9001 10.8357 47.7692 9.10115C44.921 7.52429 42.0465 7.47077 39.2539 9.28616C37.3224 10.5418 36.1349 12.3778 35.4104 14.5223C34.1994 18.108 34.481 21.6636 35.8358 25.1421C37.0111 28.1603 38.8982 30.606 41.8078 32.1609C45.6682 34.2252 50.1103 33.1221 52.5572 29.4818C54.1231 27.1524 54.7282 24.5517 54.7169 21.4521L54.7185 21.452Z" fill="black"/>
<path d="M27.316 7.00879C28.3076 5.72746 29.6108 5.09377 31.221 5.12895C31.7664 5.14002 32.3404 5.1035 32.7528 5.64075C30.6939 5.15022 28.8885 5.59312 27.3176 7.00877L27.316 7.00879Z" fill="black"/>
<path d="M43.9355 1.35352C45.0681 1.47613 46.0023 1.9547 46.7271 2.81217C46.7798 2.87504 46.7587 3.00072 46.7728 3.09665C46.6785 3.08317 46.5441 3.10441 46.4964 3.04962C45.8248 2.28759 44.9415 1.86051 44.0471 1.44822C44.0046 1.42921 43.9733 1.38562 43.9372 1.3535L43.9355 1.35352Z" fill="black"/>
<path d="M32.641 40.2537C32.2406 40.1594 31.9286 40.121 31.6448 40.0105C31.2975 39.8764 31.2327 39.6296 31.4676 39.3384C31.6514 39.1113 31.8641 38.8643 32.1207 38.747C32.9112 38.3837 33.7285 38.0753 34.5358 37.7508C34.5971 37.7256 34.6685 37.7215 34.735 37.7206C35.0936 37.7194 35.4492 37.7377 35.6293 38.1264C35.7761 38.4406 35.658 38.8574 35.306 39.1322C35.0521 39.3292 34.777 39.5216 34.4799 39.6361C33.8565 39.8769 33.213 40.0641 32.6377 40.2538L32.641 40.2537Z" fill="white"/>
<path d="M54.7172 21.4519C54.7285 24.5515 54.1234 27.1523 52.5575 29.4817C50.1107 33.1219 45.6685 34.2234 41.8082 32.1608C38.8986 30.6059 37.0115 28.1618 35.8361 25.142C34.4813 21.6634 34.1982 18.1095 35.4108 14.5222C36.1352 12.3776 37.3227 10.5417 39.2543 9.28601C42.0469 7.47062 44.923 7.52413 47.7696 9.101C50.9005 10.8339 52.7787 13.6088 53.8851 16.9487C54.1651 17.7939 54.3595 18.6727 54.5198 19.5502C54.6522 20.2799 54.6779 21.0305 54.7189 21.4519L54.7172 21.4519ZM45.5204 20.2153C45.5185 20.0687 45.5078 19.9874 45.5165 19.9091C45.7635 17.8634 46.0121 15.8193 46.2607 13.7736C46.3299 13.2092 46.4072 12.6446 46.4552 12.0772C46.4637 11.9809 46.3472 11.8749 46.2891 11.773C46.2188 11.857 46.1419 11.9361 46.083 12.0264C46.0559 12.0675 46.0681 12.1325 46.0606 12.1863C45.8663 13.7737 45.6688 15.361 45.4778 16.9483C45.3441 18.0658 45.2137 19.1816 45.0914 20.3005C45.0491 20.6806 45.1426 20.7576 45.4931 20.6294C46.9906 20.0861 48.4864 19.5396 49.9787 18.9801C50.0902 18.938 50.1646 18.7953 50.2543 18.6981C50.1129 18.6771 49.9611 18.6106 49.8333 18.6431C49.5599 18.7101 49.2969 18.8241 49.0303 18.9219C47.8803 19.3452 46.7286 19.7685 45.5171 20.2154L45.5204 20.2153ZM42.3019 10.2039C42.1583 9.75453 42.0297 9.32938 41.8832 8.91097C41.8647 8.85582 41.767 8.82773 41.7064 8.78776C41.6733 8.86474 41.5982 8.95364 41.6168 9.01693C41.7307 9.43249 41.8576 9.84626 41.9974 10.2534C42.0177 10.3134 42.13 10.3429 42.2003 10.386C42.2368 10.322 42.2717 10.2581 42.3035 10.2039L42.3019 10.2039ZM48.8932 32.1811C48.953 32.1608 49.0128 32.1405 49.0726 32.1202C49.0742 31.6022 48.8315 31.1426 48.6616 30.6675C48.6499 30.635 48.5148 30.6042 48.5004 30.6223C48.4573 30.6766 48.4146 30.7634 48.4283 30.8235C48.4949 31.0833 48.5743 31.338 48.6619 31.591C48.7309 31.7905 48.8161 31.9849 48.8932 32.1811ZM37.1275 22.6564C36.9914 22.5474 36.937 22.4796 36.9144 22.4897C36.4754 22.676 36.0381 22.8704 35.6057 23.0713C35.575 23.0847 35.5487 23.1828 35.5652 23.207C35.5982 23.2538 35.6834 23.3147 35.7173 23.3012C36.1708 23.1033 36.6193 22.8925 37.1275 22.658L37.1275 22.6564ZM54.0855 18.1793C54.0094 18.0597 53.9794 17.9949 53.968 17.9983C53.5346 18.1145 53.1028 18.234 52.6728 18.3615C52.6469 18.37 52.6174 18.4714 52.6356 18.4988C52.667 18.5473 52.7473 18.6114 52.7861 18.5995C53.2129 18.4704 53.6363 18.3283 54.0872 18.1809L54.0855 18.1793ZM37.596 12.4049C37.859 12.5433 38.0634 12.6695 38.2852 12.7579C38.3374 12.7784 38.5112 12.6606 38.5074 12.6199C38.4837 12.4068 37.8468 12.2161 37.596 12.4066L37.596 12.4049ZM46.694 10.416C47.0269 10.3075 47.3163 9.6996 47.1894 9.54645C47.1564 9.50777 46.9797 9.51813 46.9703 9.54431C46.873 9.80941 46.7953 10.084 46.694 10.416ZM52.5707 28.4634C52.562 28.4163 52.5634 28.3984 52.5552 28.3903C52.3599 28.2136 52.1646 28.0369 51.9676 27.8602C51.9245 27.9161 51.8365 28.0133 51.843 28.0197C52.0255 28.208 52.2128 28.3914 52.4113 28.5615C52.4261 28.5744 52.5224 28.4934 52.5707 28.4634ZM43.1206 31.4863C43.1696 31.5101 43.2202 31.5323 43.2691 31.5561C43.3963 31.346 43.5268 31.1391 43.6425 30.9226C43.6632 30.8849 43.628 30.7958 43.5901 30.7555C43.5671 30.7298 43.4681 30.7294 43.4473 30.7541C43.2732 30.9713 43.0534 31.176 43.119 31.4863L43.1206 31.4863ZM50.7724 14.0786C51.1141 14.1509 51.5865 13.9055 51.6345 13.7225C51.6453 13.68 51.6329 13.6003 51.6052 13.5844C51.5545 13.5557 51.4634 13.5341 51.4264 13.5622C51.2286 13.7048 51.0423 13.8635 50.7724 14.0803L50.7724 14.0786ZM54.2743 23.5261C53.9358 23.4473 53.6819 23.3853 53.4265 23.3397C53.4135 23.3366 53.3311 23.4972 53.3544 23.5442C53.436 23.7044 53.9897 23.7382 54.2743 23.5261ZM38.4016 27.7274C38.5998 27.4887 38.7757 27.2813 38.9418 27.0642C38.9498 27.0543 38.8676 26.9755 38.8265 26.9304C38.6293 27.1202 38.4321 27.31 38.2365 27.5014C38.2285 27.508 38.2272 27.5325 38.2338 27.5406C38.2717 27.5873 38.3144 27.6308 38.4016 27.7274ZM36.7047 17.6725C36.7037 17.5959 36.7044 17.521 36.7051 17.4444C36.468 17.4295 36.2308 17.408 35.9922 17.4061C35.9468 17.4067 35.8731 17.4842 35.8656 17.5331C35.858 17.5756 35.9242 17.6741 35.9615 17.6753C36.2083 17.6852 36.4565 17.6756 36.7047 17.6725Z" fill="#C6D7FF"/>
<path d="M45.5225 20.2149C46.7339 19.7681 47.8856 19.3448 49.0357 18.9215C49.3022 18.8237 49.5636 18.7096 49.8387 18.6427C49.9665 18.6117 50.1182 18.6766 50.2596 18.6976C50.1683 18.7933 50.0955 18.9375 49.9841 18.9796C48.4917 19.5391 46.9959 20.0857 45.4985 20.6289C45.1463 20.7572 45.0545 20.6801 45.0968 20.3001C45.2191 19.1828 45.3495 18.0653 45.4831 16.9479C45.6742 15.3606 45.8717 13.7732 46.066 12.1859C46.0718 12.1321 46.0612 12.067 46.0883 12.026C46.1472 11.9357 46.2241 11.8565 46.2945 11.7726C46.3525 11.8744 46.4691 11.9805 46.4605 12.0767C46.4109 12.6425 46.3336 13.2071 46.266 13.7732C46.0174 15.8189 45.7688 17.863 45.5219 19.9087C45.5131 19.987 45.5239 20.0667 45.5257 20.2149L45.5225 20.2149Z" fill="black"/>
<path d="M42.3012 10.204C42.271 10.2581 42.2345 10.3221 42.198 10.3861C42.1277 10.343 42.0169 10.3135 41.9951 10.2535C41.8553 9.84637 41.7284 9.4326 41.6145 9.01704C41.5975 8.95373 41.6726 8.86483 41.7041 8.78787C41.7646 8.82784 41.8607 8.85595 41.8809 8.91108C42.0257 9.33114 42.156 9.75627 42.2995 10.204L42.3012 10.204Z" fill="black"/>
<path d="M48.8941 32.183C48.817 31.9869 48.7318 31.7925 48.6628 31.593C48.5752 31.34 48.4957 31.0837 48.4292 30.8255C48.4138 30.7654 48.4582 30.6785 48.5013 30.6242C48.5157 30.6061 48.6508 30.637 48.6625 30.6695C48.834 31.1446 49.0767 31.6041 49.0735 32.1221C49.0137 32.1424 48.9539 32.1627 48.8941 32.183Z" fill="black"/>
<path d="M37.1273 22.658C36.6191 22.8925 36.1706 23.1033 35.7171 23.3012C35.6832 23.3163 35.5997 23.2538 35.565 23.207C35.5469 23.1828 35.5749 23.0864 35.6055 23.0713C36.0395 22.8704 36.4752 22.6776 36.9142 22.4897C36.9368 22.4796 36.9912 22.5474 37.1273 22.6564L37.1273 22.658Z" fill="black"/>
<path d="M54.0841 18.1824C53.6332 18.3298 53.2098 18.4719 52.783 18.6011C52.7442 18.613 52.6655 18.5488 52.6325 18.5004C52.6143 18.4729 52.6438 18.3715 52.6697 18.3631C53.0997 18.2355 53.5315 18.1161 53.9649 17.9999C53.9762 17.9965 54.0046 18.0613 54.0824 18.1808L54.0841 18.1824Z" fill="black"/>
<path d="M37.5947 12.408C37.8455 12.2191 38.4807 12.4083 38.5061 12.6213C38.5115 12.662 38.3361 12.7798 38.2839 12.7593C38.0621 12.6725 37.8577 12.5464 37.5947 12.4063L37.5947 12.408Z" fill="black"/>
<path d="M46.6928 10.4194C46.7941 10.0874 46.8702 9.81281 46.9691 9.5477C46.9785 9.52152 47.1569 9.51113 47.1882 9.54983C47.3151 9.70299 47.0257 10.3109 46.6928 10.4194Z" fill="black"/>
<path d="M52.5698 28.4669C52.5215 28.4968 52.4268 28.5778 52.4104 28.565C52.2119 28.3948 52.023 28.2115 51.8422 28.0232C51.8356 28.0168 51.9236 27.9196 51.9667 27.8636C52.1621 28.0404 52.359 28.2154 52.5543 28.3938C52.5625 28.4002 52.5595 28.4198 52.5698 28.4669Z" fill="black"/>
<path d="M43.1195 31.4893C43.0539 31.1807 43.2737 30.9743 43.4478 30.7571C43.4686 30.7324 43.5676 30.7328 43.5906 30.7586C43.6268 30.7989 43.662 30.888 43.643 30.9257C43.5273 31.1422 43.3952 31.3491 43.2696 31.5591C43.2207 31.5353 43.1701 31.5131 43.1211 31.4893L43.1195 31.4893Z" fill="black"/>
<path d="M50.7722 14.0818C51.0404 13.865 51.2283 13.7063 51.4261 13.5637C51.4631 13.5372 51.5542 13.5589 51.6049 13.5859C51.6327 13.6019 51.6467 13.6815 51.6342 13.724C51.5846 13.9087 51.1122 14.1541 50.7721 14.0801L50.7722 14.0818Z" fill="black"/>
<path d="M54.274 23.5293C53.9894 23.7413 53.4357 23.7076 53.3541 23.5473C53.3308 23.5004 53.4116 23.3397 53.4262 23.3428C53.6832 23.3885 53.9371 23.4521 54.274 23.5293Z" fill="black"/>
<path d="M38.4016 27.7308C38.3128 27.6342 38.2716 27.5891 38.2338 27.5439C38.2272 27.5359 38.2301 27.513 38.2365 27.5048C38.4321 27.3134 38.6293 27.1236 38.8265 26.9338C38.8677 26.9806 38.9498 27.0593 38.9418 27.0676C38.7757 27.283 38.5998 27.4921 38.4016 27.7308Z" fill="black"/>
<path d="M36.7044 17.6759C36.4562 17.679 36.208 17.6886 35.9612 17.6787C35.9239 17.6775 35.8594 17.5806 35.8653 17.5366C35.8728 17.486 35.9465 17.4085 35.9919 17.4095C36.2289 17.4115 36.466 17.4329 36.7048 17.4478C36.7057 17.5244 36.705 17.5993 36.7044 17.6759Z" fill="black"/>
</g>
<defs>
<clipPath id="clip0_6522_74129">
<rect width="74" height="67" fill="white" transform="translate(0 0.928711) rotate(-0.718731)"/>
</clipPath>
</defs>
</svg>
