<svg width="72" height="63" viewBox="0 0 72 63" fill="none" xmlns="http://www.w3.org/2000/svg">
<path d="M18.785 55.7464C18.8873 55.1034 18.9912 54.4619 19.1086 53.7258C18.5129 53.9711 17.9799 54.1733 17.4603 54.4078C13.7361 56.0802 10.1 57.929 6.57206 59.9865C5.2527 60.7556 3.94663 61.5489 2.63552 62.3293C2.5421 62.3843 2.45372 62.4538 2.35187 62.4844C2.29044 62.5031 2.21039 62.4601 2.1388 62.4447C2.16225 62.3744 2.16435 62.2831 2.21083 62.2369C2.29578 62.1528 2.40702 62.0944 2.50842 62.028C6.81382 59.2081 11.3517 56.8121 16.0059 54.633C16.8497 54.238 17.695 53.8397 18.5672 53.5144C19.0776 53.3239 19.275 53.0233 19.374 52.5041C20.0074 49.1863 20.8655 45.9276 22.0412 42.7577C22.7632 40.8119 23.6027 38.9184 24.6316 37.1154C24.7444 36.9169 24.9302 36.7288 25.1284 36.614C26.5058 35.8116 27.8964 35.0318 29.282 34.244C29.3739 34.1923 29.4624 34.1358 29.588 34.0593C26.882 31.2688 25.3439 27.9196 24.7478 24.1285C24.15 20.3261 24.6463 16.6842 26.5549 13.2087C25.9238 13.6141 25.3899 14.0003 24.8145 14.3105C24.4422 14.5123 24.0188 14.6511 23.6011 14.7313C22.8597 14.8742 22.196 14.4834 21.8896 13.7331C21.3707 12.4675 21.4373 11.1766 21.8888 9.91829C22.5599 8.0497 23.7997 6.62681 25.4909 5.61686C26.4218 5.06114 27.4533 4.88532 28.5372 5.00854C28.7484 5.03196 28.9895 4.97355 29.188 4.88636C30.4613 4.32797 31.723 3.74692 32.9946 3.1853C33.2141 3.08807 33.458 2.99542 33.6916 2.99249C33.875 2.99019 34.1488 3.08775 34.2171 3.22535C34.2886 3.36942 34.2159 3.64887 34.1107 3.80167C33.9959 3.96763 33.7782 4.06972 33.5912 4.17468C33.0853 4.45957 32.5726 4.72988 32.0408 5.01834C32.0695 5.1092 32.0835 5.18721 32.1167 5.25358C32.5478 6.1131 32.9901 6.96597 33.4115 7.8305C33.5265 8.06687 33.6556 8.14018 33.9161 8.07827C35.0437 7.80351 36.178 7.55309 37.3056 7.27507C37.4447 7.24075 37.5565 7.09438 37.6802 6.99835C37.5719 6.90035 37.4794 6.77283 37.3537 6.71088C36.7511 6.41058 36.1248 6.15619 35.5381 5.828C35.2783 5.68303 35.0641 5.42673 34.8793 5.18309C34.6252 4.84747 34.6042 4.46658 34.7794 4.06856C35.2038 3.1022 35.9107 2.40921 36.8647 2.00794C39.1666 1.04246 41.4127 1.19509 43.5102 2.56146C44.5278 3.22305 45.0892 4.25197 45.3006 5.45305C45.388 5.95528 45.1544 6.34751 44.7354 6.57429C44.2196 6.85279 43.6656 7.06334 43.1121 7.31136C43.1628 7.34005 43.2316 7.39293 43.3066 7.41968C46.5832 8.60838 48.9594 10.8508 50.6876 13.8247C52.6197 17.1478 53.4519 20.742 53.2096 24.5859C53.2068 24.6234 53.2203 24.6624 53.2395 24.7729C59.145 23.2475 65.1228 22.1935 71.2586 21.5676C71.2028 21.7768 71.1835 21.9171 71.1299 22.0432C69.3053 26.394 67.9792 30.8933 67.1499 35.5379C66.8785 37.0578 66.6932 38.5912 66.4966 40.1232C66.4508 40.4772 66.3289 40.5912 65.9788 40.6249C62.4862 40.9749 58.9848 41.2681 55.5066 41.7238C48.3669 42.6571 41.3545 44.1557 34.6073 46.7504C29.0309 48.8939 23.8627 51.7523 19.2437 55.5762C19.1394 55.6638 19.0119 55.7241 18.896 55.7972C18.8584 55.7781 18.8225 55.759 18.7849 55.7399L18.785 55.7464ZM30.4257 34.8616C29.7141 34.1473 29.8984 34.2216 29.1861 34.6166C27.8872 35.3381 26.5951 36.0743 25.3111 36.8218C25.1146 36.9366 24.9271 37.1279 24.8193 37.3297C24.3548 38.202 23.8952 39.0776 23.4829 39.9754C21.8514 43.5387 20.7591 47.2776 19.934 51.0995C19.7975 51.73 19.6708 52.3619 19.527 53.0609C20.5161 52.7423 21.3787 52.2982 22.3476 52.1834C22.2522 52.3377 22.1334 52.4369 21.9962 52.4957C21.2521 52.8161 20.5014 53.122 19.7606 53.4473C19.6251 53.5076 19.4448 53.6206 19.4155 53.7415C19.2965 54.2187 19.2296 54.7098 19.1281 55.2828C19.3051 55.16 19.4049 55.0985 19.4964 55.0241C22.8329 52.3174 26.4691 50.0972 30.3489 48.2731C36.6662 45.3026 43.3357 43.4972 50.1763 42.2696C54.7647 41.4464 59.3891 40.8997 64.035 40.5157C64.745 40.4563 65.4533 40.3888 66.1876 40.3225C66.8638 33.9468 68.426 27.832 70.8974 21.8833C70.6267 21.9046 70.4531 21.9084 70.2814 21.9317C68.0881 22.2361 65.8929 22.5227 63.7048 22.8563C60.2728 23.3815 56.8841 24.1245 53.5196 24.9795C53.2559 25.0463 53.1503 25.16 53.118 25.4325C52.9624 26.7424 52.7028 28.0406 52.1564 29.2398C51.7837 30.0573 51.5921 30.822 52.0374 31.6504C52.049 31.673 52.0526 31.7023 52.0578 31.7283C52.136 32.1394 51.9412 32.396 51.5276 32.4061C51.38 32.4095 51.2193 32.4099 51.0872 32.3578C50.704 32.2063 50.4803 32.3557 50.2375 32.6617C48.8333 34.4271 47.0903 35.7048 44.8755 36.2424C43.6298 36.5431 42.3721 36.7967 41.1144 37.0454C40.7987 37.108 40.6756 37.2562 40.5885 37.5521C40.4111 38.1619 40.1931 38.7608 39.9587 39.3501C39.9052 39.4843 39.7188 39.6317 39.581 39.6448C39.4773 39.6542 39.3064 39.4821 39.248 39.3525C39.0244 38.8618 38.8249 38.3577 38.6368 37.8518C38.568 37.6654 38.508 37.544 38.2732 37.5828C36.9858 37.7944 35.7477 37.5362 34.5275 37.1525C33.2486 36.7515 32.1124 36.0817 31.038 35.2905C30.9037 35.1912 30.6703 35.085 30.5492 35.137C29.944 35.4003 29.3407 35.6832 28.7787 36.029C28.5114 36.1936 28.2586 36.4802 28.1372 36.77C27.6378 37.9621 26.8082 38.8326 25.6945 39.4427C25.3013 39.6578 25.0372 39.9527 24.9127 40.3777C24.1801 42.9003 23.4474 45.4228 22.7196 47.9469C22.6901 48.0499 22.681 48.2325 22.74 48.2789C23.3414 48.7438 23.7772 49.3296 24.0235 50.079C24.1507 50.0025 24.2313 49.9559 24.3102 49.9077C25.1783 49.3869 26.0298 48.8371 26.9179 48.3536C27.4723 48.0518 28.0782 47.8422 28.6659 47.6068C28.7386 47.5782 28.8464 47.6371 28.9391 47.6555C28.8897 47.7262 28.8485 47.8065 28.7859 47.8627C28.7394 47.9056 28.665 47.9212 28.602 47.9464C27.0424 48.5784 25.5824 49.3933 24.222 50.386C23.8908 50.628 23.8544 50.5747 23.6875 50.2038C23.4805 49.7422 23.2962 49.1532 22.9183 48.9103C22.1757 48.4359 22.2845 47.9263 22.4919 47.2526C23.2076 44.9372 23.8795 42.6092 24.579 40.2891C24.7005 39.8868 24.8545 39.4891 25.2722 39.2819C26.4898 38.6786 27.3231 37.7136 27.8659 36.4819C28.0631 36.0331 28.3938 35.7472 28.8393 35.5608C29.3591 35.3441 29.8689 35.1015 30.4207 34.8519L30.4257 34.8616ZM52.9471 23.5777C52.8805 18.6577 51.3159 14.4993 48.3881 11.231C46.4247 9.03876 44.0033 7.59338 41.0458 7.2591C38.4522 6.96586 36.1199 7.70205 34.1242 9.40482C32.1446 11.0944 30.9501 13.279 30.2754 15.7699C29.4659 18.7592 29.5246 21.7605 30.31 24.7331C31.4259 28.9591 33.5909 32.4731 37.4201 34.769C39.3935 35.9512 41.5309 36.4913 43.8261 36.1514C47.0218 35.678 49.2965 33.8447 50.916 31.1237C52.3892 28.6472 52.9554 25.9264 52.9454 23.5777L52.9471 23.5777ZM27.9642 5.25355C27.4091 5.3729 26.9326 5.42286 26.4932 5.57986C24.4674 6.29917 23.1503 7.76539 22.3374 9.71232C21.849 10.8798 21.7345 12.1013 22.0745 13.335C22.321 14.2261 22.9696 14.5796 23.8475 14.3194C24.1692 14.2241 24.4906 14.0979 24.7789 13.9298C26.7925 12.7529 28.4183 11.1818 29.5609 9.12978C30.0021 8.3375 30.2934 7.49986 30.2607 6.5767C30.2456 6.15175 30.118 5.80641 29.6541 5.69006C29.0696 5.54265 28.4884 5.39031 27.9642 5.2568L27.9642 5.25355ZM34.9473 4.26192C36.6517 3.53198 38.3301 3.56631 40.0144 3.68852C41.7198 3.81372 43.3693 4.13835 44.8597 5.23217C44.6888 4.41825 44.3323 3.8119 43.826 3.29049C42.1344 1.54928 38.5664 1.19333 36.4886 2.55345C35.8608 2.96365 35.3513 3.47988 34.9457 4.26194L34.9473 4.26192ZM27.0901 12.8029C27.3083 12.9924 27.5589 13.1766 27.7678 13.3987C27.9981 13.6451 28.2119 13.618 28.4236 13.4133C28.8773 12.9727 29.3752 12.5641 29.7535 12.0658C30.4814 11.1038 30.4206 10.9156 29.4064 10.2638C29.3867 10.251 29.3559 10.2546 29.3592 10.2562C28.6135 11.0931 27.879 11.9183 27.0918 12.8045L27.0901 12.8029ZM41.1311 6.95017C41.2815 6.12733 41.2332 5.8999 40.8411 5.69143C40.1125 5.29987 39.3442 5.23947 38.5805 5.5455C38.3883 5.62284 38.1916 5.85498 38.1276 6.05776C38.0309 6.36683 38.0466 6.71196 38.0193 6.99084L41.1312 6.9518L41.1311 6.95017ZM30.7842 5.61887C30.3738 6.14526 30.7836 6.60923 30.6624 7.03263C30.5303 7.49852 30.4552 7.98324 30.2905 8.4365C30.1321 8.87339 29.8906 9.28039 29.6881 9.69503C30.5233 9.27245 31.3538 8.85318 32.2149 8.41887C31.7624 7.53193 31.3032 6.63204 30.7858 5.61722L30.7842 5.61887ZM29.3276 5.15337C29.6393 5.28954 29.8787 5.35984 30.0799 5.48762C30.358 5.66494 30.5815 5.62793 30.8569 5.46322C31.7009 4.95745 32.5647 4.48402 33.417 3.99444C33.5684 3.90784 33.7279 3.81625 33.8383 3.68618C33.9102 3.60384 33.8986 3.44924 33.9246 3.32675C33.8124 3.30861 33.7016 3.27416 33.5913 3.27718C33.5005 3.27994 33.4086 3.32345 33.323 3.36036C32.3061 3.79173 31.2875 4.21824 30.274 4.65935C29.9706 4.79184 29.6839 4.96484 29.3276 5.15174L29.3276 5.15337ZM33.2257 8.15209C32.7364 7.17927 32.2488 6.20644 31.7428 5.19963C31.514 5.32792 31.3207 5.43785 31.1128 5.55448C31.5271 6.37187 31.9199 7.15694 32.3192 7.93868C32.5787 8.44852 32.6324 8.45924 33.2257 8.15046L33.2257 8.15209Z" fill="#C7D3D9"/>
<path d="M21.2256 42.9846C21.0696 43.099 20.9944 43.1797 20.9039 43.2151C13.8096 45.9445 7.20881 49.6043 0.970354 53.9453C1.75454 52.0378 19.0763 42.6581 21.2256 42.9846Z" fill="#5A8EFF"/>
<path d="M30.426 34.8609C29.8742 35.1089 29.3645 35.3531 28.8447 35.5698C28.3991 35.7562 28.0701 36.0421 27.8712 36.4909C27.3285 37.7226 26.4951 38.6876 25.2775 39.2909C24.8599 39.4981 24.7058 39.8942 24.5843 40.2981C23.8864 42.6182 23.213 44.9478 22.4972 47.2616C22.2898 47.9337 22.1794 48.4433 22.9237 48.9194C23.3032 49.1622 23.4858 49.7512 23.6929 50.2128C23.8598 50.5837 23.8945 50.637 24.2274 50.3951C25.5878 49.4023 27.0477 48.5875 28.6073 47.9554C28.6703 47.9302 28.7432 47.9163 28.7913 47.8717C28.8538 47.8139 28.8934 47.7336 28.9445 47.6645C28.8534 47.6461 28.7439 47.5872 28.6712 47.6158C28.0835 47.8529 27.4776 48.0608 26.9232 48.3626C26.0351 48.8461 25.182 49.396 24.3155 49.9167C24.2366 49.9649 24.1577 50.0115 24.0288 50.0881C23.7809 49.337 23.3468 48.7528 22.7454 48.288C22.6864 48.2431 22.6955 48.0606 22.725 47.9559C23.4511 45.4318 24.1854 42.9093 24.9181 40.3867C25.0425 39.96 25.3066 39.6668 25.6999 39.4517C26.8135 38.8416 27.6431 37.9711 28.1426 36.7791C28.2639 36.4892 28.5167 36.2026 28.784 36.038C29.346 35.6922 29.9494 35.4109 30.5546 35.146C30.6756 35.094 30.909 35.2002 31.0433 35.2995C32.1177 36.0907 33.2539 36.7605 34.5328 37.1615C35.753 37.5453 36.9912 37.8034 38.2786 37.5918C38.515 37.553 38.5733 37.6744 38.6422 37.8609C38.8303 38.3667 39.0297 38.8692 39.2533 39.3615C39.3117 39.4911 39.4827 39.6632 39.5864 39.6538C39.7242 39.6407 39.9105 39.4934 39.964 39.3591C40.2 38.7698 40.4164 38.1693 40.5938 37.5611C40.6809 37.2635 40.804 37.1154 41.1197 37.0544C42.3774 36.8057 43.6351 36.5538 44.8808 36.2515C47.0956 35.7155 48.8386 34.4377 50.2428 32.6707C50.4857 32.3663 50.7093 32.2153 51.0926 32.3669C51.2247 32.419 51.3853 32.4186 51.5329 32.4151C51.9466 32.405 52.1413 32.1485 52.0632 31.7373C52.058 31.7113 52.056 31.682 52.0427 31.6594C51.5974 30.8294 51.7891 30.0663 52.1618 29.2488C52.7082 28.048 52.9678 26.7514 53.1233 25.4415C53.1556 25.1691 53.2613 25.0553 53.525 24.9885C56.8895 24.1335 60.2781 23.3906 63.7101 22.8654C65.8982 22.5301 68.095 22.2451 70.2868 21.9407C70.4585 21.9174 70.6321 21.9136 70.9028 21.8923C68.4297 27.841 66.8691 33.9558 66.1929 40.3316C65.4587 40.3978 64.7504 40.4669 64.0404 40.5247C59.3961 40.9087 54.7701 41.4554 50.1816 42.2786C43.341 43.5062 36.6716 45.3116 30.3542 48.2821C26.4745 50.1062 22.8383 52.328 19.5018 55.0331C19.4102 55.1075 19.3104 55.1691 19.1334 55.2918C19.235 54.7188 19.3018 54.2277 19.4208 53.7506C19.4501 53.6297 19.6304 53.5166 19.766 53.4563C20.5067 53.1294 21.2575 52.8251 22.0015 52.5047C22.1371 52.446 22.2576 52.3467 22.353 52.1924C21.384 52.3072 20.5214 52.7497 19.5323 53.0699C19.6777 52.3709 19.8045 51.739 19.9394 51.1085C20.7661 47.285 21.8583 43.546 23.4883 39.9844C23.8989 39.0867 24.3601 38.2111 24.8247 37.3387C24.9325 37.137 25.1199 36.9457 25.3165 36.8308C26.6004 36.0817 27.8926 35.3455 29.1914 34.6256C29.9037 34.2306 29.7194 34.1547 30.431 34.8706L30.426 34.8609ZM56.4053 37.6657C56.4055 37.682 56.4179 37.7617 56.4058 37.8367C56.3483 38.1697 56.2648 38.4998 56.2301 38.8358C56.22 38.9369 56.3334 39.0495 56.3916 39.1579C56.4799 39.0884 56.6075 39.0347 56.6469 38.943C56.7257 38.7596 56.8042 38.5517 56.7969 38.358C56.7688 37.6644 57.1173 37.3815 57.7557 37.1748C58.8289 36.8274 59.7459 36.1937 60.3107 35.1685C61.1167 33.7055 60.267 31.9406 58.6203 31.7137C57.9457 31.6212 57.2475 31.713 56.5637 31.663C55.2205 31.5658 54.8016 30.6458 55.5632 29.5238C55.5712 29.5123 55.5791 29.5008 55.5871 29.4909C56.4983 28.2611 57.7041 27.495 59.2084 27.2416C59.4707 27.1976 59.7663 27.3486 60.0462 27.407C60.1503 27.4285 60.2544 27.4467 60.3585 27.4666C60.3425 27.3544 60.3629 27.175 60.3025 27.1399C60.0344 26.9869 59.7515 26.8129 59.4556 26.7661C59.1515 26.7162 58.8248 26.805 58.4796 26.8338C58.5429 26.4502 58.6132 26.1072 58.6478 25.7598C58.6564 25.6685 58.5561 25.5655 58.5062 25.4668C58.4129 25.5282 58.2738 25.5691 58.2376 25.6559C58.1557 25.8523 58.0805 26.0699 58.0783 26.2801C58.0741 26.8551 57.7904 27.1307 57.2708 27.3636C56.1219 27.8781 55.2595 28.7294 54.8383 29.9482C54.5408 30.8136 54.9407 31.6459 55.8029 31.9478C56.1746 32.0783 56.5935 32.1008 56.9929 32.1202C57.368 32.1383 57.7468 32.0667 58.1234 32.0734C59.3325 32.0925 60.2423 32.9525 60.1751 34.0593C60.1279 34.8288 59.7203 35.448 59.1192 35.9099C58.0552 36.728 56.8368 37.1374 55.4957 37.0761C54.8965 37.0494 54.3007 36.8956 53.7055 36.7923C53.5168 36.7588 53.2838 36.6803 53.2563 36.9462C53.2448 37.0603 53.4287 37.2339 53.5627 37.3137C53.7066 37.4015 53.8937 37.4333 54.0659 37.4524C54.8377 37.5306 55.6109 37.5959 56.4037 37.6657L56.4053 37.6657ZM68.1278 25.7598C68.1184 25.7925 68.111 25.8447 68.0905 25.8922C66.7049 29.0142 65.689 32.244 65.2595 35.6472C65.2404 35.8038 65.0967 35.9897 64.9582 36.0761C64.0984 36.6131 63.4143 37.3172 62.9729 38.2218C62.7372 38.7037 62.4066 38.8691 61.901 38.9194C60.7875 39.0311 59.6797 39.1949 58.5734 39.3586C58.473 39.3729 58.3955 39.5351 58.3058 39.6275C58.4233 39.6863 58.5482 39.8085 58.6567 39.7941C59.739 39.6584 60.8174 39.4673 61.9016 39.3608C62.5985 39.2918 63.0524 38.9946 63.3283 38.3526C63.6642 37.5714 64.2162 36.9488 64.946 36.5307C65.3827 36.2809 65.5411 35.9744 65.6145 35.4848C66.1115 32.1622 66.9636 28.9393 68.3792 25.8805C68.5909 25.4234 68.5779 25.4219 68.1069 25.2584C67.2985 24.977 66.7109 24.4452 66.3861 23.6495C66.2823 23.3951 66.1623 23.2711 65.8822 23.3235C64.9027 23.5068 63.9215 23.6788 62.9421 23.8653C62.8385 23.8846 62.747 23.9639 62.6503 24.014C62.8267 24.1046 62.9794 24.1206 63.1268 24.0976C63.9933 23.9646 64.8597 23.8283 65.7228 23.6822C65.9738 23.64 66.0916 23.72 66.2244 23.9529C66.4484 24.3459 66.7145 24.7367 67.0397 25.0454C67.3435 25.3348 67.7499 25.517 68.1277 25.7582L68.1278 25.7598ZM29.5298 41.5473C30.3893 41.5072 31.7397 41.013 32.4563 40.4404C32.9688 40.0316 33.1476 39.5407 32.9599 39.0626C32.804 38.6671 32.4055 38.4636 31.7636 38.514C30.6045 38.6051 29.5629 39.0156 28.6603 39.755C28.4964 39.889 28.3509 40.0619 28.238 40.2408C27.9309 40.7268 28.0579 41.1488 28.5909 41.3424C28.8892 41.4511 29.2174 41.4812 29.5314 41.5473L29.5298 41.5473Z" fill="#5A8EFF"/>
<path d="M52.9451 23.5758C52.9535 25.9262 52.3888 28.6453 50.9156 31.1218C49.2978 33.8427 47.023 35.6761 43.8257 36.1495C41.5306 36.4894 39.3932 35.951 37.4197 34.7671C33.5905 32.4712 31.4255 28.9572 30.3096 24.7312C29.5243 21.7586 29.4639 18.7574 30.2751 15.768C30.9497 13.2771 32.1442 11.0925 34.1238 9.40292C36.1195 7.69852 38.4519 6.96396 41.0454 7.2572C44.003 7.59148 46.4243 9.03686 48.3878 11.2291C51.3156 14.4974 52.8801 18.6558 52.9467 23.5758L52.9451 23.5758ZM52.0406 23.0105C52.0067 20.8234 51.6299 18.8604 50.8729 16.9821C49.6151 13.8606 47.6781 11.3195 44.6686 9.68437C41.6329 8.03495 38.0618 8.33548 35.4035 10.5108C33.6334 11.9583 32.5635 13.8579 31.9221 16.021C31.1281 18.7039 31.1783 21.4072 31.8546 24.0978C32.753 27.67 34.5303 30.6823 37.6062 32.8117C39.2758 33.9668 41.1306 34.6147 43.1657 34.5028C45.9338 34.3508 48.085 33.0191 49.6927 30.782C51.3928 28.4151 52.0276 25.7228 52.039 23.0089L52.0406 23.0105Z" fill="#5A8EFF"/>
<path d="M27.9609 5.2501C28.4835 5.38526 29.0663 5.53595 29.6507 5.68336C30.1146 5.80133 30.2423 6.14505 30.2574 6.57C30.2901 7.49479 29.9987 8.3308 29.5575 9.12307C28.4149 11.1751 26.7876 12.7462 24.7756 13.9231C24.4872 14.0912 24.1659 14.2174 23.8441 14.3127C22.9663 14.5729 22.3176 14.2178 22.0711 13.3283C21.7311 12.0946 21.8456 10.8731 22.334 9.70561C23.1469 7.75869 24.464 6.29247 26.4899 5.57315C26.9293 5.41778 27.4057 5.3662 27.9608 5.24684L27.9609 5.2501ZM24.3135 8.00793C25.8844 6.59228 27.6914 6.14936 29.7487 6.6399C29.3379 6.10264 28.7623 6.13918 28.2169 6.12811C26.6084 6.09291 25.3035 6.72662 24.3119 8.00795L24.3135 8.00793Z" fill="#001E65"/>
<path d="M34.9452 4.26206C35.3508 3.48 35.8603 2.96378 36.4881 2.55357C38.5659 1.19346 42.1339 1.5494 43.8255 3.29062C44.3319 3.81202 44.6867 4.4184 44.8592 5.2323C43.3688 4.13847 41.7193 3.81222 40.0139 3.68864C38.3296 3.56643 36.6512 3.5321 34.9468 4.26204L34.9452 4.26206ZM40.9367 2.35605C40.9728 2.38817 41.0042 2.43176 41.0466 2.45077C41.941 2.86306 42.8259 3.29176 43.4959 4.05218C43.5437 4.10696 43.6781 4.0841 43.7724 4.09921C43.7598 4.00326 43.7809 3.87594 43.7266 3.81473C43.0019 2.95726 42.0677 2.47869 40.9351 2.35607L40.9367 2.35605Z" fill="#001E65"/>
<path d="M27.0879 12.8016C27.8768 11.9154 28.6097 11.0917 29.3554 10.2533C29.3521 10.2533 29.3829 10.2481 29.4025 10.2608C30.4168 10.9127 30.4776 11.1009 29.7497 12.0629C29.3713 12.5628 28.8734 12.9714 28.4197 13.4104C28.2081 13.6166 27.9942 13.6421 27.7639 13.3958C27.5551 13.1736 27.3061 12.9894 27.0863 12.8L27.0879 12.8016Z" fill="#00133E"/>
<path d="M41.1283 6.9519L38.0164 6.99094C38.0438 6.71369 38.0281 6.36856 38.1248 6.05786C38.1888 5.85508 38.3838 5.62296 38.5776 5.5456C39.3413 5.23957 40.1096 5.3016 40.8383 5.69153C41.2303 5.90163 41.277 6.12745 41.1283 6.95027L41.1283 6.9519Z" fill="#00133E"/>
<path d="M30.7815 5.6184C31.2989 6.63321 31.7581 7.53148 32.2106 8.42005C31.3495 8.85436 30.5191 9.27525 29.6838 9.69621C29.8863 9.27993 30.1278 8.87457 30.2863 8.43768C30.451 7.98441 30.526 7.4997 30.6581 7.03381C30.7793 6.60878 30.3695 6.14481 30.7799 5.62005L30.7815 5.6184Z" fill="#0D0D0D"/>
<path d="M29.3236 5.15302C29.6799 4.96612 29.9666 4.79312 30.27 4.66063C31.2819 4.21955 32.3005 3.79303 33.319 3.36164C33.4062 3.32471 33.4965 3.28122 33.5873 3.27846C33.6976 3.27381 33.81 3.30987 33.9206 3.32803C33.8946 3.45052 33.9062 3.60349 33.8343 3.68746C33.7239 3.8159 33.5644 3.90749 33.413 3.99572C32.5607 4.48693 31.6969 4.95873 30.8529 5.4645C30.5775 5.62921 30.354 5.66622 30.0759 5.48891C29.8747 5.36112 29.6353 5.2892 29.3236 5.15465L29.3236 5.15302Z" fill="#00133E"/>
<path d="M33.2227 8.1499C32.6294 8.45869 32.5757 8.44633 32.3162 7.93812C31.9169 7.15638 31.5225 6.37133 31.1098 5.55393C31.3177 5.4373 31.511 5.32737 31.7399 5.19907C32.2458 6.20588 32.7351 7.1787 33.2227 8.15153L33.2227 8.1499Z" fill="#00133E"/>
<path d="M56.4046 37.6664C55.6118 37.5949 54.8386 37.5313 54.0669 37.4531C53.8946 37.4357 53.7076 37.4022 53.5637 37.3144C53.4296 37.233 53.2441 37.061 53.2573 36.9469C53.2848 36.681 53.5178 36.7595 53.7064 36.793C54.3017 36.8963 54.8975 37.0501 55.4966 37.0768C56.8361 37.1365 58.0545 36.7287 59.1201 35.9106C59.7196 35.4487 60.1289 34.8311 60.176 34.06C60.2433 32.9532 59.3351 32.0931 58.1243 32.0741C57.7478 32.0674 57.369 32.1406 56.9939 32.1209C56.5945 32.1014 56.1771 32.0774 55.8039 31.9485C54.9417 31.6466 54.5402 30.8143 54.8393 29.9489C55.2589 28.7302 56.1228 27.8788 57.2717 27.3643C57.7913 27.1314 58.0751 26.8575 58.0792 26.2808C58.0815 26.0706 58.155 25.8531 58.2386 25.6566C58.2748 25.5714 58.4138 25.5289 58.5072 25.4675C58.5571 25.5646 58.6574 25.6676 58.6488 25.7605C58.6142 26.1079 58.5439 26.4509 58.4805 26.8344C58.8258 26.8041 59.1525 26.7169 59.4565 26.7668C59.7525 26.8152 60.0338 26.9876 60.3034 27.1406C60.3639 27.1757 60.3434 27.3535 60.3595 27.4673C60.2553 27.4474 60.1513 27.4308 60.0471 27.4077C59.7673 27.3477 59.4717 27.1967 59.2094 27.2423C57.705 27.4957 56.4992 28.2601 55.5881 29.4916C55.5801 29.5031 55.5721 29.513 55.5642 29.5245C54.8026 30.6465 55.223 31.5665 56.5646 31.6637C57.2484 31.7137 57.945 31.6219 58.6212 31.7144C60.2695 31.9397 61.1192 33.7045 60.3117 35.1692C59.7468 36.1943 58.8298 36.8281 57.7567 37.1755C57.1183 37.3822 56.7697 37.6651 56.7979 38.3587C56.8052 38.5524 56.7267 38.7602 56.6478 38.9437C56.6084 39.0354 56.4809 39.0875 56.3925 39.1586C56.336 39.0518 56.221 38.9376 56.2311 38.8365C56.2658 38.5005 56.3493 38.1721 56.4068 37.8374C56.4204 37.7623 56.4065 37.6843 56.4063 37.6664L56.4046 37.6664Z" fill="white"/>
<path d="M68.1231 25.7577C67.7436 25.5165 67.3388 25.3343 67.035 25.0449C66.7098 24.7362 66.4437 24.3454 66.2197 23.9524C66.087 23.7211 65.9691 23.6395 65.7181 23.6818C64.8534 23.8278 63.9886 23.9641 63.1221 24.0971C62.9747 24.1201 62.8204 24.1042 62.6456 24.0135C62.7423 23.9618 62.8355 23.8841 62.9374 23.8649C63.9169 23.6799 64.8981 23.5064 65.8775 23.323C66.1576 23.2707 66.2776 23.393 66.3814 23.649C66.7062 24.4447 67.2938 24.9765 68.1022 25.2579C68.5732 25.4214 68.5862 25.4245 68.3745 25.88C66.9589 28.9389 66.1068 32.1617 65.6098 35.4843C65.5364 35.9739 65.378 36.2805 64.9414 36.5303C64.2131 36.9483 63.6595 37.5709 63.3236 38.3521C63.0477 38.9941 62.5939 39.293 61.8969 39.3604C60.8111 39.4668 59.7343 39.6579 58.6521 39.7936C58.5435 39.8064 58.4187 39.6858 58.3011 39.627C58.3892 39.533 58.4683 39.3724 58.5687 39.3581C59.675 39.196 60.7829 39.0306 61.8963 38.9189C62.4019 38.8686 62.7325 38.7032 62.9683 38.2214C63.4113 37.3167 64.0953 36.6109 64.9535 36.0757C65.092 35.9892 65.2341 35.8018 65.2548 35.6468C65.6827 32.2436 66.6986 29.0138 68.0858 25.8918C68.1063 25.8443 68.1154 25.792 68.1231 25.7594L68.1231 25.7577Z" fill="white"/>
<path d="M29.5248 41.5467C29.2108 41.4806 28.8826 41.4505 28.5843 41.3419C28.0512 41.1482 27.9226 40.7263 28.2313 40.2403C28.3459 40.0597 28.4898 39.8885 28.6536 39.7545C29.5563 39.0167 30.5994 38.6045 31.7569 38.5134C32.4005 38.463 32.7974 38.6665 32.9533 39.062C33.141 39.5402 32.9621 40.0295 32.4496 40.4399C31.7331 41.0124 30.3827 41.5066 29.5232 41.5467L29.5248 41.5467ZM29.6412 41.2553C30.2149 41.0657 30.8584 40.8784 31.4834 40.6377C31.7805 40.5232 32.0556 40.3324 32.3095 40.1338C32.6614 39.8589 32.7795 39.4437 32.6328 39.1279C32.451 38.7393 32.097 38.7209 31.7384 38.7222C31.6719 38.723 31.6006 38.7272 31.5392 38.7524C30.732 39.0785 29.9147 39.3852 29.1241 39.7486C28.8692 39.8658 28.6565 40.1128 28.4711 40.3399C28.2362 40.6312 28.301 40.8779 28.6483 41.012C28.932 41.1225 29.2425 41.161 29.6445 41.2553L29.6412 41.2553Z" fill="white"/>
<path d="M52.0406 23.01C52.0309 25.7238 51.3945 28.4162 49.6943 30.7831C48.0867 33.0201 45.9354 34.3518 43.1674 34.5038C41.1323 34.6157 39.2775 33.9679 37.6078 32.8128C34.532 30.6833 32.7547 27.671 31.8563 24.0988C31.18 21.4099 31.1298 18.7049 31.9237 16.022C32.5635 13.859 33.635 11.9593 35.4051 10.5118C38.0634 8.33653 41.6329 8.03439 44.6702 9.68542C47.6782 11.3205 49.6167 13.8617 50.8746 16.9831C51.6316 18.8615 52.0084 20.8244 52.0423 23.0116L52.0406 23.01ZM51.7205 22.452C51.6795 22.0323 51.6538 21.2817 51.5213 20.5504C51.361 19.6728 51.1667 18.794 50.8867 17.9489C49.7787 14.6089 47.9021 11.8357 44.7712 10.1011C41.923 8.52429 39.0485 8.47077 36.2558 10.2862C34.3243 11.5418 33.1368 13.3778 32.4124 15.5223C31.2014 19.108 31.4829 22.6636 32.8377 26.1421C34.0131 29.1603 35.9002 31.606 38.8097 33.1609C42.6701 35.2252 47.1123 34.1221 49.5591 30.4818C51.125 28.1524 51.7301 25.5517 51.7188 22.4521L51.7205 22.452Z" fill="white"/>
<path d="M24.316 8.00977C25.3076 6.72843 26.6108 6.09474 28.221 6.12993C28.7664 6.141 29.3404 6.10448 29.7528 6.64172C27.6939 6.1512 25.8885 6.5941 24.3176 8.00975L24.316 8.00977Z" fill="white"/>
<path d="M40.9375 2.35547C42.0701 2.47809 43.0043 2.95666 43.729 3.81412C43.7817 3.87699 43.7606 4.00268 43.7748 4.0986C43.6805 4.08513 43.5461 4.10636 43.4983 4.05158C42.8267 3.28955 41.9435 2.86246 41.049 2.45017C41.0066 2.43116 40.9752 2.38757 40.9391 2.35545L40.9375 2.35547Z" fill="white"/>
<path d="M29.641 41.2557C29.2406 41.1614 28.9286 41.1229 28.6448 41.0125C28.2975 40.8784 28.2327 40.6316 28.4676 40.3403C28.6514 40.1132 28.8641 39.8662 29.1207 39.749C29.9112 39.3856 30.7285 39.0773 31.5358 38.7528C31.5971 38.7276 31.6685 38.7234 31.735 38.7226C32.0936 38.7214 32.4492 38.7397 32.6293 39.1284C32.7761 39.4425 32.658 39.8594 32.306 40.1342C32.0521 40.3312 31.777 40.5236 31.4799 40.6381C30.8565 40.8788 30.213 41.0661 29.6377 41.2557L29.641 41.2557Z" fill="#0D0D0D"/>
<path d="M51.7192 22.4529C51.7305 25.5525 51.1254 28.1532 49.5595 30.4826C47.1126 34.1229 42.6705 35.2244 38.8101 33.1618C35.9005 31.6069 34.0135 29.1628 32.8381 26.143C31.4833 22.6644 31.2002 19.1105 32.4128 15.5232C33.1372 13.3786 34.3247 11.5426 36.2562 10.287C39.0489 8.4716 41.925 8.5251 44.7716 10.102C47.9024 11.8349 49.7806 14.6098 50.887 17.9497C51.167 18.7949 51.3614 19.6736 51.5217 20.5512C51.6542 21.2809 51.6798 22.0315 51.7208 22.4529L51.7192 22.4529ZM42.5223 21.2163C42.5205 21.0697 42.5097 20.9884 42.5185 20.9101C42.7654 18.8644 43.014 16.8203 43.2626 14.7746C43.3318 14.2101 43.4091 13.6456 43.4572 13.0781C43.4657 12.9819 43.3491 12.8759 43.2911 12.774C43.2207 12.8579 43.1438 12.9371 43.0849 13.0274C43.0578 13.0685 43.07 13.1335 43.0626 13.1873C42.8683 14.7747 42.6708 16.362 42.4797 17.9493C42.3461 19.0668 42.2157 20.1826 42.0934 21.3015C42.0511 21.6816 42.1445 21.7586 42.4951 21.6304C43.9925 21.0871 45.4883 20.5406 46.9807 19.9811C47.0921 19.9389 47.1666 19.7963 47.2562 19.6991C47.1148 19.678 46.9631 19.6115 46.8353 19.6441C46.5619 19.711 46.2988 19.8251 46.0323 19.9229C44.8822 20.3462 43.7305 20.7695 42.5191 21.2163L42.5223 21.2163ZM39.3038 11.2049C39.1603 10.7555 39.0316 10.3304 38.8852 9.91194C38.8666 9.8568 38.7689 9.8287 38.7084 9.78874C38.6753 9.86571 38.6001 9.95461 38.6188 10.0179C38.7327 10.4335 38.8596 10.8472 38.9994 11.2543C39.0196 11.3143 39.1319 11.3439 39.2023 11.387C39.2388 11.323 39.2737 11.259 39.3055 11.2049L39.3038 11.2049ZM45.8952 33.182C45.955 33.1617 46.0147 33.1414 46.0745 33.1211C46.0761 32.6031 45.8335 32.1436 45.6636 31.6685C45.6518 31.636 45.5168 31.6051 45.5024 31.6232C45.4593 31.6775 45.4165 31.7644 45.4303 31.8245C45.4968 32.0843 45.5763 32.339 45.6638 32.592C45.7329 32.7915 45.8181 32.9859 45.8952 33.182ZM34.1294 23.6574C33.9934 23.5483 33.939 23.4806 33.9164 23.4907C33.4773 23.677 33.04 23.8714 32.6076 24.0723C32.577 24.0857 32.5506 24.1838 32.5671 24.208C32.6002 24.2548 32.6853 24.3157 32.7192 24.3022C33.1727 24.1043 33.6212 23.8934 34.1294 23.659L34.1294 23.6574ZM51.0875 19.1803C51.0113 19.0607 50.9813 18.9959 50.97 18.9993C50.5366 19.1155 50.1048 19.2349 49.6747 19.3625C49.6489 19.371 49.6193 19.4723 49.6375 19.4998C49.669 19.5483 49.7493 19.6124 49.7881 19.6005C50.2149 19.4714 50.6382 19.3292 51.0891 19.1819L51.0875 19.1803ZM34.598 13.4059C34.861 13.5443 35.0654 13.6704 35.2872 13.7589C35.3394 13.7794 35.5131 13.6616 35.5094 13.6209C35.4856 13.4078 34.8487 13.2171 34.598 13.4075L34.598 13.4059ZM43.696 11.4169C44.0289 11.3085 44.3182 10.7006 44.1913 10.5474C44.1584 10.5087 43.9817 10.5191 43.9722 10.5453C43.875 10.8104 43.7973 11.085 43.696 11.4169ZM49.5727 29.4644C49.564 29.4173 49.5654 29.3994 49.5572 29.3913C49.3618 29.2146 49.1665 29.0379 48.9696 28.8612C48.9265 28.9171 48.8384 29.0143 48.845 29.0207C49.0275 29.209 49.2148 29.3924 49.4133 29.5625C49.428 29.5754 49.5244 29.4943 49.5727 29.4644ZM40.1225 32.4872C40.1715 32.5111 40.2221 32.5332 40.2711 32.5571C40.3983 32.347 40.5287 32.1401 40.6445 31.9236C40.6651 31.8859 40.6299 31.7968 40.5921 31.7565C40.569 31.7307 40.47 31.7303 40.4493 31.755C40.2751 31.9722 40.0554 32.177 40.1209 32.4873L40.1225 32.4872ZM47.7744 15.0796C48.116 15.1519 48.5884 14.9065 48.6364 14.7235C48.6473 14.681 48.6349 14.6013 48.6071 14.5854C48.5564 14.5567 48.4653 14.535 48.4283 14.5632C48.2305 14.7058 48.0443 14.8645 47.7744 15.0812L47.7744 15.0796ZM51.2763 24.5271C50.9377 24.4483 50.6838 24.3863 50.4285 24.3407C50.4155 24.3376 50.3331 24.4982 50.3564 24.5452C50.4379 24.7054 50.9917 24.7392 51.2763 24.5271ZM35.4036 28.7284C35.6018 28.4897 35.7777 28.2823 35.9437 28.0652C35.9517 28.0553 35.8696 27.9765 35.8285 27.9314C35.6313 28.1212 35.434 28.311 35.2385 28.5024C35.2304 28.509 35.2291 28.5335 35.2357 28.5415C35.2736 28.5883 35.3164 28.6317 35.4036 28.7284ZM33.7066 18.6735C33.7057 18.5969 33.7064 18.522 33.707 18.4454C33.4699 18.4305 33.2327 18.409 32.9942 18.4071C32.9487 18.4077 32.8751 18.4852 32.8676 18.5341C32.86 18.5766 32.9261 18.6751 32.9635 18.6763C33.2103 18.6862 33.4584 18.6766 33.7066 18.6735Z" fill="#001952"/>
<path d="M42.5244 21.2149C43.7359 20.7681 44.8876 20.3448 46.0376 19.9215C46.3041 19.8237 46.5656 19.7096 46.8406 19.6427C46.9684 19.6117 47.1202 19.6766 47.2616 19.6976C47.1703 19.7933 47.0975 19.9375 46.986 19.9796C45.4936 20.5391 43.9979 21.0857 42.5004 21.6289C42.1483 21.7572 42.0564 21.6801 42.0987 21.3001C42.221 20.1828 42.3514 19.0653 42.4851 17.9479C42.6761 16.3606 42.8736 14.7732 43.0679 13.1859C43.0737 13.1321 43.0632 13.067 43.0903 13.026C43.1492 12.9357 43.2261 12.8565 43.2964 12.7726C43.3545 12.8744 43.471 12.9805 43.4625 13.0767C43.4128 13.6425 43.3355 14.2071 43.268 14.7732C43.0194 16.8189 42.7708 18.863 42.5238 20.9087C42.5151 20.987 42.5258 21.0667 42.5277 21.2149L42.5244 21.2149Z" fill="white"/>
<path d="M39.3051 11.204C39.2749 11.2581 39.2384 11.3221 39.2019 11.3861C39.1316 11.343 39.0208 11.3135 38.999 11.2535C38.8592 10.8464 38.7323 10.4326 38.6184 10.017C38.6014 9.95373 38.6765 9.86483 38.708 9.78787C38.7685 9.82784 38.8646 9.85595 38.8848 9.91108C39.0296 10.3311 39.1599 10.7563 39.3035 11.204L39.3051 11.204Z" fill="white"/>
<path d="M45.896 33.184C45.8189 32.9879 45.7337 32.7935 45.6647 32.594C45.5772 32.341 45.4977 32.0846 45.4311 31.8265C45.4158 31.7664 45.4601 31.6795 45.5033 31.6252C45.5176 31.6071 45.6527 31.638 45.6645 31.6704C45.836 32.1455 46.0786 32.6051 46.0754 33.1231C46.0156 33.1434 45.9558 33.1637 45.896 33.184Z" fill="white"/>
<path d="M34.1312 23.66C33.623 23.8944 33.1745 24.1053 32.721 24.3032C32.6871 24.3183 32.6036 24.2558 32.5689 24.209C32.5508 24.1848 32.5788 24.0883 32.6094 24.0733C33.0434 23.8724 33.4791 23.6796 33.9181 23.4916C33.9407 23.4816 33.9951 23.5493 34.1312 23.6584L34.1312 23.66Z" fill="white"/>
<path d="M51.088 19.1854C50.6371 19.3327 50.2137 19.4749 49.7869 19.604C49.7481 19.6159 49.6694 19.5517 49.6364 19.5033C49.6182 19.4758 49.6477 19.3745 49.6736 19.366C50.1036 19.2384 50.5354 19.119 50.9688 19.0028C50.9802 18.9994 51.0086 19.0642 51.0863 19.1837L51.088 19.1854Z" fill="white"/>
<path d="M34.5947 13.4099C34.8455 13.2211 35.4807 13.4102 35.5061 13.6233C35.5115 13.6639 35.3361 13.7818 35.2839 13.7613C35.0621 13.6744 34.8577 13.5483 34.5947 13.4083L34.5947 13.4099Z" fill="white"/>
<path d="M43.6948 11.4213C43.7961 11.0894 43.8721 10.8148 43.971 10.5496C43.9805 10.5235 44.1588 10.5131 44.1901 10.5518C44.317 10.7049 44.0277 11.3129 43.6948 11.4213Z" fill="white"/>
<path d="M49.5698 29.4689C49.5215 29.4988 49.4268 29.5798 49.4104 29.567C49.2119 29.3968 49.023 29.2135 48.8422 29.0252C48.8356 29.0187 48.9236 28.9215 48.9667 28.8656C49.1621 29.0423 49.359 29.2174 49.5543 29.3958C49.5625 29.4022 49.5595 29.4217 49.5698 29.4689Z" fill="white"/>
<path d="M40.1214 32.4913C40.0559 32.1826 40.2756 31.9763 40.4498 31.7591C40.4705 31.7344 40.5695 31.7348 40.5926 31.7605C40.6288 31.8008 40.664 31.89 40.645 31.9277C40.5292 32.1441 40.3971 32.351 40.2716 32.5611C40.2226 32.5373 40.172 32.5151 40.123 32.4913L40.1214 32.4913Z" fill="white"/>
<path d="M47.7761 15.0837C48.0443 14.867 48.2322 14.7082 48.43 14.5657C48.467 14.5391 48.5582 14.5608 48.6088 14.5879C48.6366 14.6038 48.6506 14.6834 48.6381 14.726C48.5885 14.9106 48.1161 15.156 47.776 15.0821L47.7761 15.0837Z" fill="white"/>
<path d="M51.2779 24.5293C50.9933 24.7413 50.4396 24.7076 50.358 24.5473C50.3347 24.5004 50.4155 24.3397 50.4301 24.3428C50.6871 24.3885 50.941 24.4521 51.2779 24.5293Z" fill="white"/>
<path d="M35.4055 28.7308C35.3167 28.6342 35.2755 28.5891 35.2377 28.5439C35.2311 28.5359 35.234 28.513 35.2404 28.5048C35.436 28.3134 35.6332 28.1236 35.8304 27.9338C35.8716 27.9806 35.9537 28.0593 35.9457 28.0676C35.7796 28.283 35.6037 28.4921 35.4055 28.7308Z" fill="white"/>
<path d="M33.7083 18.6749C33.4601 18.678 33.2119 18.6877 32.9651 18.6777C32.9278 18.6766 32.8633 18.5796 32.8692 18.5356C32.8767 18.485 32.9504 18.4075 32.9958 18.4086C33.2328 18.4105 33.47 18.4319 33.7087 18.4469C33.7096 18.5234 33.709 18.5983 33.7083 18.6749Z" fill="white"/>
</svg>
