<svg width="72" height="62" viewBox="0 0 72 62" fill="none" xmlns="http://www.w3.org/2000/svg">
<path d="M18.7811 54.7435C18.8834 54.1005 18.9873 53.459 19.1047 52.7229C18.5089 52.9682 17.976 53.1704 17.4564 53.4049C13.7322 55.0772 10.0961 56.926 6.56816 58.9836C5.2488 59.7527 3.94272 60.546 2.63162 61.3264C2.53819 61.3813 2.44981 61.4509 2.34796 61.4814C2.28653 61.5001 2.20648 61.4572 2.13489 61.4418C2.15835 61.3714 2.16045 61.2802 2.20693 61.234C2.29188 61.1499 2.40311 61.0915 2.50451 61.025C6.80992 58.2052 11.3478 55.8092 16.002 53.63C16.8458 53.235 17.6911 52.8368 18.5633 52.5114C19.0736 52.321 19.2711 52.0204 19.3701 51.5012C20.0035 48.1834 20.8616 44.9246 22.0372 41.7548C22.7593 39.809 23.5988 37.9155 24.6277 36.1124C24.7405 35.9139 24.9263 35.7259 25.1245 35.611C26.5018 34.8086 27.8925 34.0289 29.2781 33.241C29.37 33.1894 29.4585 33.1329 29.5841 33.0564C26.8781 30.2659 25.34 26.9167 24.7439 23.1256C24.1461 19.3232 24.6424 15.6813 26.551 12.2058C25.9199 12.6112 25.386 12.9974 24.8106 13.3076C24.4383 13.5093 24.0149 13.6482 23.5972 13.7284C22.8558 13.8712 22.1921 13.4805 21.8857 12.7302C21.3668 11.4645 21.4334 10.1736 21.8849 8.91536C22.556 7.04677 23.7958 5.62388 25.4869 4.61393C26.4179 4.05821 27.4494 3.88239 28.5333 4.00561C28.7445 4.02903 28.9856 3.97062 29.1841 3.88343C30.4574 3.32504 31.7191 2.74399 32.9907 2.18237C33.2102 2.08514 33.4541 1.99249 33.6877 1.98956C33.8711 1.98726 34.1449 2.08482 34.2132 2.22242C34.2847 2.36649 34.212 2.64594 34.1068 2.79874C33.992 2.9647 33.7743 3.06679 33.5873 3.17176C33.0814 3.45664 32.5687 3.72695 32.0369 4.01541C32.0656 4.10627 32.0795 4.18428 32.1128 4.25065C32.5439 5.11017 32.9862 5.96304 33.4076 6.82757C33.5226 7.06394 33.6517 7.13725 33.9122 7.07534C35.0398 6.80058 36.1741 6.55016 37.3017 6.27214C37.4408 6.23782 37.5526 6.09145 37.6763 5.99542C37.568 5.89742 37.4755 5.7699 37.3498 5.70795C36.7472 5.40765 36.1209 5.15326 35.5342 4.82507C35.2744 4.6801 35.0602 4.4238 34.8754 4.18016C34.6213 3.84454 34.6003 3.46365 34.7755 3.06563C35.1998 2.09927 35.9068 1.40628 36.8608 1.00501C39.1627 0.0395342 41.4088 0.192161 43.5063 1.55853C44.5239 2.22012 45.0853 3.24904 45.2967 4.45012C45.3841 4.95235 45.1505 5.34458 44.7315 5.57136C44.2157 5.84986 43.6617 6.06041 43.1082 6.30843C43.1589 6.33712 43.2277 6.39 43.3027 6.41675C46.5793 7.60545 48.9555 9.84792 50.6837 12.8217C52.6158 16.1448 53.4479 19.7391 53.2057 23.583C53.2029 23.6205 53.2164 23.6594 53.2356 23.7699C59.1411 22.2445 65.1189 21.1906 71.2547 20.5647C71.1989 20.7739 71.1796 20.9142 71.126 21.0403C69.3014 25.3911 67.9753 29.8904 67.146 34.5349C66.8746 36.0548 66.6893 37.5883 66.4927 39.1203C66.4469 39.4743 66.325 39.5882 65.9749 39.6219C62.4823 39.972 58.9809 40.2651 55.5026 40.7209C48.363 41.6542 41.3506 43.1528 34.6034 45.7475C29.027 47.891 23.8588 50.7493 19.2398 54.5732C19.1355 54.6609 19.008 54.7211 18.8921 54.7943C18.8545 54.7752 18.8186 54.7561 18.781 54.737L18.7811 54.7435ZM30.4218 33.8587C29.7102 33.1444 29.8945 33.2186 29.1822 33.6136C27.8833 34.3352 26.5911 35.0714 25.3072 35.8189C25.1107 35.9337 24.9232 36.125 24.8154 36.3267C24.3509 37.1991 23.8913 38.0747 23.479 38.9725C21.8475 42.5358 20.7552 46.2747 19.9301 50.0966C19.7936 50.727 19.6669 51.359 19.5231 52.058C20.5122 51.7393 21.3748 51.2952 22.3437 51.1805C22.2483 51.3348 22.1295 51.434 21.9923 51.4927C21.2482 51.8132 20.4975 52.119 19.7567 52.4443C19.6212 52.5047 19.4409 52.6177 19.4115 52.7386C19.2926 53.2157 19.2257 53.7069 19.1242 54.2799C19.3011 54.1571 19.401 54.0956 19.4925 54.0211C22.829 51.3145 26.4652 49.0943 30.345 47.2702C36.6623 44.2997 43.3318 42.4943 50.1724 41.2666C54.7608 40.4435 59.3852 39.8968 64.0311 39.5128C64.7411 39.4534 65.4494 39.3858 66.1837 39.3196C66.8599 32.9439 68.4221 26.829 70.8935 20.8803C70.6228 20.9016 70.4492 20.9055 70.2775 20.9288C68.0842 21.2332 65.889 21.5197 63.7009 21.8534C60.2689 22.3786 56.8802 23.1215 53.5157 23.9766C53.252 24.0434 53.1464 24.1571 53.1141 24.4295C52.9585 25.7395 52.6989 27.0377 52.1525 28.2369C51.7798 29.0543 51.5882 29.8191 52.0335 30.6475C52.0451 30.6701 52.0487 30.6994 52.0539 30.7254C52.1321 31.1365 51.9373 31.3931 51.5237 31.4031C51.3761 31.4066 51.2154 31.407 51.0833 31.3549C50.7001 31.2033 50.4764 31.3527 50.2336 31.6588C48.8293 33.4242 47.0863 34.7019 44.8716 35.2395C43.6259 35.5402 42.3682 35.7938 41.1105 36.0425C40.7948 36.1051 40.6717 36.2532 40.5846 36.5491C40.4072 37.1589 40.1892 37.7578 39.9548 38.3472C39.9013 38.4814 39.7149 38.6287 39.5771 38.6419C39.4734 38.6513 39.3025 38.4792 39.2441 38.3496C39.0205 37.8588 38.821 37.3548 38.6329 36.8489C38.5641 36.6625 38.5041 36.541 38.2693 36.5798C36.9819 36.7914 35.7438 36.5333 34.5236 36.1496C33.2447 35.7486 32.1085 35.0787 31.0341 34.2875C30.8998 34.1882 30.6664 34.082 30.5453 34.134C29.9401 34.3974 29.3367 34.6802 28.7748 35.0261C28.5075 35.1907 28.2547 35.4773 28.1333 35.7671C27.6339 36.9592 26.8042 37.8297 25.6906 38.4398C25.2974 38.6549 25.0333 38.9497 24.9088 39.3748C24.1762 41.8973 23.4435 44.4199 22.7157 46.944C22.6862 47.047 22.6771 47.2295 22.7361 47.276C23.3375 47.7408 23.7732 48.3267 24.0196 49.0761C24.1468 48.9996 24.2274 48.953 24.3063 48.9047C25.1744 48.384 26.0259 47.8342 26.9139 47.3507C27.4684 47.0489 28.0743 46.8393 28.662 46.6039C28.7347 46.5753 28.8425 46.6342 28.9352 46.6526C28.8858 46.7232 28.8446 46.8036 28.782 46.8597C28.7355 46.9027 28.6611 46.9183 28.5981 46.9435C27.0385 47.5755 25.5785 48.3903 24.2181 49.3831C23.8869 49.6251 23.8505 49.5718 23.6836 49.2009C23.4766 48.7392 23.2923 48.1503 22.9144 47.9074C22.1718 47.433 22.2806 46.9234 22.488 46.2497C23.2037 43.9342 23.8756 41.6063 24.575 39.2861C24.6966 38.8839 24.8506 38.4862 25.2683 38.2789C26.4859 37.6756 27.3192 36.7107 27.862 35.479C28.0592 35.0302 28.3899 34.7442 28.8354 34.5578C29.3552 34.3412 29.865 34.0986 30.4168 33.849L30.4218 33.8587ZM52.9431 22.5748C52.8766 17.6548 51.312 13.4963 48.3842 10.2281C46.4208 8.03583 43.9994 6.59045 41.0419 6.25617C38.4483 5.96293 36.116 6.69912 34.1203 8.40189C32.1407 10.0914 30.9462 12.2761 30.2715 14.7669C29.462 17.7563 29.5207 20.7576 30.3061 23.7302C31.422 27.9561 33.587 31.4702 37.4162 33.7661C39.3896 34.9483 41.527 35.4883 43.8222 35.1484C47.0179 34.6751 49.2926 32.8417 50.9121 30.1207C52.3852 27.6443 52.9515 24.9235 52.9415 22.5748L52.9431 22.5748ZM27.9603 4.25062C27.4052 4.36997 26.9287 4.41993 26.4893 4.57693C24.4635 5.29624 23.1464 6.76246 22.3335 8.70939C21.8451 9.8769 21.7306 11.0984 22.0706 12.332C22.3171 13.2232 22.9657 13.5767 23.8436 13.3164C24.1653 13.2212 24.4866 13.095 24.775 12.9269C26.7886 11.75 28.4144 10.1789 29.557 8.12685C29.9982 7.33457 30.2895 6.49693 30.2568 5.57377C30.2417 5.14882 30.1141 4.80348 29.6501 4.68713C29.0657 4.53972 28.4845 4.38738 27.9603 4.25387L27.9603 4.25062ZM34.9434 3.25899C36.6478 2.52905 38.3262 2.56338 40.0105 2.68559C41.7159 2.81079 43.3654 3.13542 44.8558 4.22924C44.6849 3.41532 44.3284 2.80897 43.8221 2.28756C42.1305 0.546346 38.5625 0.190404 36.4846 1.55052C35.8569 1.96072 35.3474 2.47695 34.9418 3.25901L34.9434 3.25899ZM27.0862 11.8C27.3044 11.9895 27.555 12.1736 27.7639 12.3958C27.9942 12.6421 28.208 12.615 28.4196 12.4104C28.8734 11.9698 29.3713 11.5612 29.7496 11.0629C30.4775 10.1009 30.4167 9.91271 29.4024 9.26085C29.3828 9.24807 29.352 9.25171 29.3553 9.2533C28.6096 10.0901 27.8751 10.9154 27.0879 11.8016L27.0862 11.8ZM41.1272 5.94724C41.2776 5.1244 41.2293 4.89697 40.8372 4.6885C40.1086 4.29694 39.3403 4.23654 38.5765 4.54257C38.3844 4.61991 38.1877 4.85205 38.1237 5.05483C38.027 5.3639 38.0427 5.70903 38.0154 5.98791L41.1273 5.94887L41.1272 5.94724ZM30.7803 4.61594C30.3699 5.14233 30.7797 5.6063 30.6585 6.0297C30.5264 6.49559 30.4513 6.98031 30.2866 7.43357C30.1282 7.87047 29.8867 8.27746 29.6842 8.6921C30.5194 8.26952 31.3499 7.85025 32.211 7.41594C31.7585 6.529 31.2993 5.62911 30.7819 4.61429L30.7803 4.61594ZM29.3237 4.15044C29.6354 4.28661 29.8748 4.35691 30.076 4.4847C30.3541 4.66201 30.5776 4.625 30.853 4.46029C31.6969 3.95452 32.5608 3.48109 33.4131 2.99151C33.5645 2.90491 33.724 2.81332 33.8343 2.68325C33.9063 2.60091 33.8947 2.44631 33.9207 2.32382C33.8085 2.30568 33.6977 2.27123 33.5874 2.27425C33.4966 2.27701 33.4046 2.32052 33.3191 2.35743C32.3022 2.7888 31.2836 3.21531 30.2701 3.65642C29.9667 3.78891 29.68 3.96191 29.3237 4.14881L29.3237 4.15044ZM33.2218 7.14916C32.7325 6.17634 32.2449 5.20351 31.7389 4.1967C31.5101 4.32499 31.3168 4.43492 31.1089 4.55155C31.5232 5.36894 31.916 6.15401 32.3153 6.93575C32.5748 7.44559 32.6285 7.45631 33.2218 7.14753L33.2218 7.14916Z" fill="#263238"/>
<path d="M21.2236 41.9837C21.0677 42.098 20.9924 42.1788 20.902 42.2141C13.8076 44.9435 7.20686 48.6033 0.968401 52.9443C1.75259 51.0369 19.0743 41.6572 21.2236 41.9837Z" fill="#407BFF"/>
<path d="M30.4221 33.859C29.8703 34.107 29.3606 34.3512 28.8408 34.5678C28.3952 34.7542 28.0662 35.0401 27.8673 35.4889C27.3246 36.7207 26.4912 37.6856 25.2736 38.2889C24.856 38.4962 24.7019 38.8923 24.5804 39.2961C23.8825 41.6163 23.2091 43.9458 22.4933 46.2597C22.2859 46.9317 22.1755 47.4413 22.9198 47.9174C23.2993 48.1602 23.4819 48.7492 23.6889 49.2109C23.8559 49.5818 23.8906 49.6351 24.2235 49.3931C25.5839 48.4003 27.0438 47.5855 28.6034 46.9535C28.6664 46.9283 28.7393 46.9143 28.7874 46.8697C28.8499 46.8119 28.8895 46.7316 28.9406 46.6626C28.8495 46.6442 28.74 46.5853 28.6673 46.6139C28.0796 46.8509 27.4737 47.0589 26.9193 47.3607C26.0312 47.8442 25.1781 48.394 24.3116 48.9147C24.2327 48.963 24.1538 49.0096 24.0249 49.0861C23.7769 48.335 23.3428 47.7508 22.7415 47.286C22.6825 47.2411 22.6916 47.0586 22.7211 46.954C23.4472 44.4299 24.1815 41.9073 24.9142 39.3848C25.0386 38.9581 25.3027 38.6648 25.6959 38.4498C26.8096 37.8396 27.6392 36.9692 28.1387 35.7771C28.26 35.4873 28.5128 35.2007 28.7801 35.0361C29.3421 34.6902 29.9455 34.409 30.5507 34.144C30.6717 34.092 30.9051 34.1982 31.0394 34.2975C32.1138 35.0887 33.25 35.7586 34.5289 36.1595C35.7491 36.5433 36.9873 36.8014 38.2747 36.5898C38.5111 36.551 38.5694 36.6724 38.6383 36.8589C38.8264 37.3648 39.0258 37.8672 39.2494 38.3596C39.3078 38.4892 39.4787 38.6613 39.5825 38.6518C39.7202 38.6387 39.9066 38.4914 39.9601 38.3572C40.1961 37.7678 40.4125 37.1673 40.5899 36.5591C40.677 36.2616 40.8001 36.1135 41.1158 36.0525C42.3735 35.8038 43.6312 35.5518 44.8769 35.2495C47.0917 34.7135 48.8347 33.4358 50.2389 31.6688C50.4818 31.3644 50.7054 31.2133 51.0887 31.3649C51.2208 31.417 51.3814 31.4166 51.529 31.4131C51.9427 31.4031 52.1374 31.1465 52.0593 30.7354C52.0541 30.7094 52.0521 30.6801 52.0388 30.6575C51.5935 29.8274 51.7851 29.0643 52.1579 28.2469C52.7043 27.046 52.9639 25.7495 53.1194 24.4395C53.1517 24.1671 53.2574 24.0534 53.5211 23.9865C56.8856 23.1315 60.2742 22.3886 63.7062 21.8634C65.8943 21.5281 68.0911 21.2432 70.2828 20.9388C70.4546 20.9154 70.6281 20.9116 70.8989 20.8903C68.4258 26.839 66.8652 32.9539 66.189 39.3296C65.4547 39.3958 64.7465 39.465 64.0365 39.5228C59.3922 39.9068 54.7662 40.4535 50.1777 41.2766C43.3371 42.5043 36.6677 44.3097 30.3503 47.2801C26.4706 49.1043 22.8343 51.3261 19.4979 54.0311C19.4063 54.1056 19.3065 54.1671 19.1295 54.2899C19.2311 53.7169 19.2979 53.2257 19.4169 52.7486C19.4462 52.6277 19.6265 52.5147 19.7621 52.4543C20.5028 52.1274 21.2536 51.8232 21.9976 51.5027C22.1332 51.444 22.2536 51.3448 22.3491 51.1905C21.3801 51.3052 20.5175 51.7477 19.5284 52.068C19.6738 51.369 19.8006 50.737 19.9355 50.1066C20.7622 46.283 21.8544 42.5441 23.4844 38.9825C23.895 38.0847 24.3562 37.2091 24.8208 36.3367C24.9286 36.135 25.116 35.9437 25.3126 35.8289C26.5965 35.0798 27.8887 34.3436 29.1875 33.6236C29.8998 33.2286 29.7155 33.1528 30.4271 33.8687L30.4221 33.859ZM56.4014 36.6638C56.4016 36.68 56.414 36.7597 56.4019 36.8348C56.3444 37.1678 56.2609 37.4979 56.2262 37.8339C56.2161 37.935 56.3295 38.0476 56.3877 38.156C56.476 38.0865 56.6036 38.0327 56.643 37.941C56.7218 37.7576 56.8003 37.5497 56.793 37.356C56.7649 36.6625 57.1134 36.3795 57.7518 36.1728C58.825 35.8254 59.742 35.1917 60.3068 34.1666C61.1128 32.7035 60.263 30.9387 58.6164 30.7118C57.9418 30.6192 57.2435 30.7111 56.5598 30.661C55.2165 30.5638 54.7977 29.6439 55.5593 28.5218C55.5673 28.5103 55.5752 28.4988 55.5832 28.4889C56.4944 27.2591 57.7002 26.4931 59.2045 26.2396C59.4668 26.1956 59.7624 26.3467 60.0423 26.4051C60.1464 26.4266 60.2505 26.4448 60.3546 26.4647C60.3386 26.3525 60.359 26.173 60.2986 26.138C60.0305 25.985 59.7476 25.811 59.4517 25.7642C59.1476 25.7142 58.8209 25.803 58.4756 25.8318C58.539 25.4482 58.6093 25.1053 58.6439 24.7579C58.6525 24.6666 58.5522 24.5636 58.5023 24.4648C58.409 24.5263 58.2699 24.5671 58.2337 24.6539C58.1518 24.8504 58.0766 25.068 58.0744 25.2781C58.0702 25.8532 57.7865 26.1288 57.2669 26.3617C56.118 26.8762 55.2556 27.7275 54.8344 28.9463C54.5369 29.8117 54.9368 30.6439 55.799 30.9458C56.1706 31.0764 56.5896 31.0988 56.989 31.1182C57.3641 31.1363 57.7429 31.0648 58.1195 31.0715C59.3286 31.0905 60.2384 31.9505 60.1712 33.0574C60.124 33.8268 59.7164 34.446 59.1153 34.908C58.0513 35.726 56.8329 36.1355 55.4918 36.0741C54.8926 36.0474 54.2968 35.8936 53.7016 35.7903C53.5129 35.7569 53.2799 35.6784 53.2524 35.9442C53.2408 36.0584 53.4248 36.232 53.5588 36.3117C53.7027 36.3995 53.8897 36.4314 54.062 36.4504C54.8338 36.5287 55.607 36.5939 56.3998 36.6638L56.4014 36.6638ZM68.1239 24.7579C68.1145 24.7906 68.1071 24.8428 68.0866 24.8903C66.701 28.0123 65.6851 31.2421 65.2556 34.6453C65.2365 34.8019 65.0928 34.9878 64.9543 35.0742C64.0945 35.6111 63.4104 36.3152 62.969 37.2199C62.7333 37.7017 62.4027 37.8671 61.897 37.9175C60.7836 38.0292 59.6757 38.1929 58.5695 38.3566C58.4691 38.3709 58.3916 38.5332 58.3019 38.6255C58.4194 38.6843 58.5443 38.8065 58.6528 38.7921C59.7351 38.6564 60.8135 38.4653 61.8977 38.3589C62.5946 38.2899 63.0485 37.9926 63.3244 37.3506C63.6603 36.5694 64.2123 35.9468 64.9421 35.5288C65.3788 35.279 65.5372 34.9724 65.6106 34.4828C66.1076 31.1602 66.9597 27.9374 68.3753 24.8785C68.587 24.4214 68.574 24.4199 68.103 24.2564C67.2946 23.975 66.707 23.4432 66.3822 22.6475C66.2784 22.3931 66.1584 22.2692 65.8783 22.3216C64.8988 22.5049 63.9176 22.6768 62.9382 22.8634C62.8346 22.8826 62.7431 22.9619 62.6464 23.012C62.8228 23.1027 62.9755 23.1187 63.1229 23.0956C63.9894 22.9626 64.8558 22.8263 65.7189 22.6803C65.9699 22.638 66.0877 22.718 66.2205 22.9509C66.4445 23.3439 66.7106 23.7348 67.0358 24.0434C67.3396 24.3328 67.746 24.515 68.1238 24.7562L68.1239 24.7579ZM29.5259 40.5453C30.3854 40.5052 31.7358 40.011 32.4524 39.4385C32.9649 39.0297 33.1437 38.5388 32.956 38.0606C32.8001 37.6651 32.4016 37.4616 31.7596 37.512C30.6005 37.6031 29.559 38.0136 28.6563 38.7531C28.4925 38.8871 28.347 39.0599 28.234 39.2389C27.927 39.7249 28.054 40.1468 28.587 40.3405C28.8853 40.4491 29.2135 40.4792 29.5275 40.5453L29.5259 40.5453Z" fill="#407BFF"/>
<path d="M52.9431 22.5748C52.9515 24.9252 52.3868 27.6443 50.9137 30.1208C49.2959 32.8418 47.0211 34.6751 43.8238 35.1485C41.5286 35.4884 39.3912 34.95 37.4178 33.7661C33.5886 31.4702 31.4236 27.9562 30.3077 23.7302C29.5223 20.7576 29.4619 17.7564 30.2731 14.767C30.9478 12.2761 32.1423 10.0915 34.1219 8.40195C36.1176 6.69754 38.4499 5.96298 41.0435 6.25622C44.001 6.5905 46.4224 8.03589 48.3858 10.2281C51.3136 13.4964 52.8782 17.6548 52.9448 22.5748L52.9431 22.5748ZM52.0387 22.0096C52.0047 19.8224 51.628 17.8595 50.871 15.9811C49.6131 12.8597 47.6762 10.3185 44.6666 8.6834C41.6309 7.03397 38.0598 7.3345 35.4015 9.50982C33.6314 10.9573 32.5615 12.8569 31.9201 15.02C31.1262 17.7029 31.1763 20.4062 31.8527 23.0968C32.751 26.669 34.5284 29.6813 37.6042 31.8108C39.2739 32.9659 41.1286 33.6137 43.1638 33.5018C45.9318 33.3498 48.0831 32.0181 49.6907 29.781C51.3909 27.4141 52.0256 24.7218 52.037 22.008L52.0387 22.0096Z" fill="#407BFF"/>
<path d="M27.9609 4.25108C28.4835 4.38623 29.0663 4.53692 29.6507 4.68433C30.1146 4.80231 30.2423 5.14603 30.2574 5.57097C30.2901 6.49576 29.9987 7.33177 29.5575 8.12405C28.4149 10.1761 26.7876 11.7472 24.7756 12.9241C24.4872 13.0922 24.1659 13.2184 23.8441 13.3136C22.9663 13.5739 22.3176 13.2188 22.0711 12.3292C21.7311 11.0956 21.8456 9.8741 22.334 8.70659C23.1469 6.75966 24.464 5.29344 26.4899 4.57413C26.9293 4.41876 27.4057 4.36718 27.9608 4.24782L27.9609 4.25108ZM24.3135 7.0089C25.8844 5.59325 27.6914 5.15034 29.7487 5.64088C29.3379 5.10362 28.7623 5.14016 28.2169 5.12909C26.6084 5.09388 25.3035 5.72759 24.3119 7.00893L24.3135 7.0089Z" fill="#B3CAFF"/>
<path d="M34.9432 3.25914C35.3488 2.47708 35.8584 1.96085 36.4861 1.55064C38.564 0.190527 42.1319 0.54647 43.8236 2.28769C44.3299 2.80909 44.6848 3.41547 44.8573 4.22937C43.3669 3.13554 41.7173 2.80929 40.0119 2.68571C38.3276 2.5635 36.6493 2.52917 34.9449 3.25911L34.9432 3.25914ZM40.9347 1.35312C40.9709 1.38524 41.0022 1.42883 41.0447 1.44785C41.9391 1.86013 42.824 2.28883 43.494 3.04925C43.5417 3.10403 43.6761 3.08117 43.7704 3.09628C43.7579 3.00033 43.779 2.87301 43.7247 2.8118C42.9999 1.95433 42.0657 1.47576 40.9331 1.35314L40.9347 1.35312Z" fill="#B3CAFF"/>
<path d="M27.086 11.8016C27.8749 10.9154 28.6077 10.0917 29.3534 9.25329C29.3502 9.25333 29.3809 9.24805 29.4006 9.26084C30.4148 9.91269 30.4756 10.1009 29.7477 11.0629C29.3694 11.5628 28.8715 11.9714 28.4178 12.4104C28.2061 12.6166 27.9923 12.6421 27.762 12.3958C27.5531 12.1736 27.3042 11.9894 27.0843 11.8L27.086 11.8016Z" fill="#DAE5FF"/>
<path d="M41.1283 5.94897L38.0164 5.98801C38.0438 5.71076 38.0281 5.36563 38.1248 5.05493C38.1888 4.85215 38.3838 4.62003 38.5776 4.54267C39.3413 4.23664 40.1096 4.29867 40.8383 4.6886C41.2303 4.8987 41.277 5.12452 41.1283 5.94734L41.1283 5.94897Z" fill="#DAE5FF"/>
<path d="M30.7796 4.61645C31.297 5.63126 31.7561 6.52953 32.2086 7.4181C31.3475 7.85241 30.5171 8.2733 29.6818 8.69426C29.8843 8.27798 30.1259 7.87262 30.2843 7.43572C30.449 6.98246 30.5241 6.49774 30.6561 6.03186C30.7774 5.60683 30.3675 5.14286 30.778 4.6181L30.7796 4.61645Z" fill="white"/>
<path d="M29.3236 4.15107C29.6799 3.96417 29.9666 3.79117 30.27 3.65868C31.2819 3.21759 32.3005 2.79108 33.319 2.35968C33.4062 2.32276 33.4965 2.27927 33.5873 2.2765C33.6976 2.27186 33.81 2.30792 33.9206 2.32607C33.8946 2.44857 33.9062 2.60153 33.8343 2.68551C33.7239 2.81395 33.5644 2.90554 33.413 2.99377C32.5607 3.48497 31.6969 3.95678 30.8529 4.46255C30.5775 4.62726 30.354 4.66427 30.0759 4.48695C29.8747 4.35917 29.6353 4.28724 29.3236 4.1527L29.3236 4.15107Z" fill="#DAE5FF"/>
<path d="M33.2208 7.1499C32.6275 7.45869 32.5738 7.44633 32.3142 6.93812C31.915 6.15638 31.5206 5.37133 31.1079 4.55393C31.3157 4.4373 31.5091 4.32737 31.7379 4.19907C32.2438 5.20588 32.7331 6.1787 33.2208 7.15153L33.2208 7.1499Z" fill="#DAE5FF"/>
<path d="M56.4007 36.6635C55.6079 36.592 54.8347 36.5284 54.063 36.4501C53.8907 36.4327 53.7037 36.3992 53.5598 36.3115C53.4257 36.2301 53.2402 36.0581 53.2534 35.9439C53.2809 35.6781 53.5139 35.7566 53.7025 35.7901C54.2978 35.8934 54.8936 36.0471 55.4927 36.0738C56.8322 36.1336 58.0506 35.7257 59.1162 34.9077C59.7157 34.4457 60.125 33.8281 60.1721 33.0571C60.2394 31.9503 59.3312 31.0902 58.1204 31.0712C57.7439 31.0645 57.3651 31.1377 56.99 31.1179C56.5905 31.0985 56.1732 31.0744 55.8 30.9455C54.9378 30.6436 54.5363 29.8114 54.8353 28.946C55.2549 27.7272 56.1189 26.8759 57.2678 26.3614C57.7874 26.1285 58.0712 25.8545 58.0753 25.2779C58.0776 25.0677 58.1511 24.8501 58.2347 24.6536C58.2709 24.5685 58.4099 24.526 58.5033 24.4646C58.5532 24.5617 58.6534 24.6647 58.6449 24.7576C58.6103 25.105 58.5399 25.4479 58.4766 25.8315C58.8219 25.8011 59.1486 25.714 59.4526 25.7639C59.7486 25.8123 60.0299 25.9847 60.2995 26.1377C60.36 26.1728 60.3395 26.3506 60.3555 26.4644C60.2514 26.4445 60.1474 26.4279 60.0432 26.4048C59.7634 26.3448 59.4678 26.1937 59.2055 26.2394C57.7011 26.4928 56.4953 27.2572 55.5842 28.4887C55.5762 28.5002 55.5682 28.51 55.5602 28.5215C54.7987 29.6436 55.2191 30.5635 56.5607 30.6607C57.2445 30.7108 57.9411 30.619 58.6173 30.7115C60.2656 30.9368 61.1153 32.7016 60.3077 34.1663C59.7429 35.1914 58.8259 35.8252 57.7528 36.1725C57.1144 36.3793 56.7658 36.6622 56.794 37.3557C56.8013 37.5495 56.7228 37.7573 56.6439 37.9407C56.6045 38.0325 56.477 38.0845 56.3886 38.1557C56.3321 38.0489 56.2171 37.9347 56.2272 37.8336C56.2619 37.4976 56.3454 37.1691 56.4029 36.8345C56.4165 36.7594 56.4026 36.6814 56.4023 36.6635L56.4007 36.6635Z" fill="black"/>
<path d="M68.1231 24.7577C67.7436 24.5165 67.3388 24.3343 67.035 24.0449C66.7098 23.7362 66.4437 23.3454 66.2197 22.9524C66.087 22.7211 65.9691 22.6395 65.7181 22.6818C64.8534 22.8278 63.9886 22.9641 63.1221 23.0971C62.9747 23.1201 62.8204 23.1042 62.6456 23.0135C62.7423 22.9618 62.8355 22.8841 62.9374 22.8649C63.9169 22.6799 64.8981 22.5064 65.8775 22.323C66.1576 22.2707 66.2776 22.393 66.3814 22.649C66.7062 23.4447 67.2938 23.9765 68.1022 24.2579C68.5732 24.4214 68.5862 24.4245 68.3745 24.88C66.9589 27.9389 66.1068 31.1617 65.6098 34.4843C65.5364 34.9739 65.378 35.2805 64.9414 35.5303C64.2131 35.9483 63.6595 36.5709 63.3236 37.3521C63.0477 37.9941 62.5939 38.293 61.8969 38.3604C60.8111 38.4668 59.7343 38.6579 58.6521 38.7936C58.5435 38.8064 58.4187 38.6858 58.3011 38.627C58.3892 38.533 58.4683 38.3724 58.5687 38.3581C59.675 38.196 60.7829 38.0306 61.8963 37.9189C62.4019 37.8686 62.7325 37.7032 62.9683 37.2214C63.4113 36.3167 64.0953 35.6109 64.9535 35.0757C65.092 34.9892 65.2341 34.8018 65.2548 34.6468C65.6827 31.2436 66.6986 28.0138 68.0858 24.8918C68.1063 24.8443 68.1154 24.792 68.1231 24.7594L68.1231 24.7577Z" fill="black"/>
<path d="M29.5248 40.5457C29.2108 40.4796 28.8826 40.4495 28.5843 40.3409C28.0512 40.1472 27.9226 39.7253 28.2313 39.2393C28.3459 39.0587 28.4898 38.8875 28.6536 38.7535C29.5563 38.0157 30.5994 37.6035 31.7569 37.5125C32.4005 37.462 32.7974 37.6656 32.9533 38.0611C33.141 38.5392 32.9621 39.0285 32.4496 39.4389C31.7331 40.0115 30.3827 40.5057 29.5232 40.5458L29.5248 40.5457ZM29.6412 40.2543C30.2149 40.0647 30.8584 39.8775 31.4834 39.6367C31.7805 39.5222 32.0556 39.3314 32.3095 39.1328C32.6614 38.858 32.7795 38.4428 32.6328 38.127C32.451 37.7383 32.097 37.72 31.7384 37.7212C31.6719 37.722 31.6006 37.7262 31.5392 37.7514C30.732 38.0775 29.9147 38.3842 29.1241 38.7476C28.8692 38.8648 28.6565 39.1118 28.4711 39.3389C28.2362 39.6302 28.301 39.877 28.6483 40.0111C28.932 40.1215 29.2425 40.16 29.6445 40.2543L29.6412 40.2543Z" fill="black"/>
<path d="M52.0387 22.01C52.0289 24.7238 51.3925 27.4162 49.6924 29.7831C48.0847 32.0201 45.9335 33.3518 43.1654 33.5038C41.1303 33.6157 39.2755 32.9679 37.6059 31.8128C34.53 29.6833 32.7527 26.671 31.8543 23.0988C31.178 20.4099 31.1278 17.7049 31.9218 15.022C32.5616 12.859 33.6331 10.9593 35.4032 9.51184C38.0615 7.33653 41.6309 7.03439 44.6683 8.68542C47.6762 10.3205 49.6148 12.8617 50.8726 15.9831C51.6296 17.8615 52.0064 19.8244 52.0403 22.0116L52.0387 22.01ZM51.7185 21.452C51.6775 21.0323 51.6519 20.2817 51.5194 19.5504C51.3591 18.6728 51.1647 17.794 50.8847 16.9489C49.7767 13.6089 47.9001 10.8357 44.7692 9.10115C41.921 7.52429 39.0465 7.47077 36.2539 9.28616C34.3224 10.5418 33.1349 12.3778 32.4104 14.5223C31.1994 18.108 31.481 21.6636 32.8358 25.1421C34.0111 28.1603 35.8982 30.606 38.8078 32.1609C42.6682 34.2252 47.1103 33.1221 49.5572 29.4818C51.1231 27.1524 51.7282 24.5517 51.7169 21.4521L51.7185 21.452Z" fill="black"/>
<path d="M24.316 7.00879C25.3076 5.72746 26.6108 5.09377 28.221 5.12895C28.7664 5.14002 29.3404 5.1035 29.7528 5.64075C27.6939 5.15022 25.8885 5.59312 24.3176 7.00877L24.316 7.00879Z" fill="black"/>
<path d="M40.9355 1.35352C42.0681 1.47613 43.0023 1.9547 43.7271 2.81217C43.7798 2.87504 43.7587 3.00072 43.7728 3.09665C43.6785 3.08317 43.5441 3.10441 43.4964 3.04962C42.8248 2.28759 41.9415 1.86051 41.0471 1.44822C41.0046 1.42921 40.9733 1.38562 40.9372 1.3535L40.9355 1.35352Z" fill="black"/>
<path d="M29.641 40.2537C29.2406 40.1594 28.9286 40.121 28.6448 40.0105C28.2975 39.8764 28.2327 39.6296 28.4676 39.3384C28.6514 39.1113 28.8641 38.8643 29.1207 38.747C29.9112 38.3837 30.7285 38.0753 31.5358 37.7508C31.5971 37.7256 31.6685 37.7215 31.735 37.7206C32.0936 37.7194 32.4492 37.7377 32.6293 38.1264C32.7761 38.4406 32.658 38.8574 32.306 39.1322C32.0521 39.3292 31.777 39.5216 31.4799 39.6361C30.8565 39.8769 30.213 40.0641 29.6377 40.2538L29.641 40.2537Z" fill="white"/>
<path d="M51.7172 21.4519C51.7285 24.5515 51.1234 27.1523 49.5575 29.4817C47.1107 33.1219 42.6685 34.2234 38.8082 32.1608C35.8986 30.6059 34.0115 28.1618 32.8361 25.142C31.4813 21.6634 31.1982 18.1095 32.4108 14.5222C33.1352 12.3776 34.3227 10.5417 36.2543 9.28601C39.0469 7.47062 41.923 7.52413 44.7696 9.101C47.9005 10.8339 49.7787 13.6088 50.8851 16.9487C51.1651 17.7939 51.3595 18.6727 51.5198 19.5502C51.6522 20.2799 51.6779 21.0305 51.7189 21.4519L51.7172 21.4519ZM42.5204 20.2153C42.5185 20.0687 42.5078 19.9874 42.5165 19.9091C42.7635 17.8634 43.0121 15.8193 43.2607 13.7736C43.3299 13.2092 43.4072 12.6446 43.4552 12.0772C43.4637 11.9809 43.3472 11.8749 43.2891 11.773C43.2188 11.857 43.1419 11.9361 43.083 12.0264C43.0559 12.0675 43.0681 12.1325 43.0606 12.1863C42.8663 13.7737 42.6688 15.361 42.4778 16.9483C42.3441 18.0658 42.2137 19.1816 42.0914 20.3005C42.0491 20.6806 42.1426 20.7576 42.4931 20.6294C43.9906 20.0861 45.4864 19.5396 46.9787 18.9801C47.0902 18.938 47.1646 18.7953 47.2543 18.6981C47.1129 18.6771 46.9611 18.6106 46.8333 18.6431C46.5599 18.7101 46.2969 18.8241 46.0303 18.9219C44.8803 19.3452 43.7286 19.7685 42.5171 20.2154L42.5204 20.2153ZM39.3019 10.2039C39.1583 9.75453 39.0297 9.32938 38.8832 8.91097C38.8647 8.85582 38.767 8.82773 38.7064 8.78776C38.6733 8.86474 38.5982 8.95364 38.6168 9.01693C38.7307 9.43249 38.8576 9.84626 38.9974 10.2534C39.0177 10.3134 39.13 10.3429 39.2003 10.386C39.2368 10.322 39.2717 10.2581 39.3035 10.2039L39.3019 10.2039ZM45.8932 32.1811C45.953 32.1608 46.0128 32.1405 46.0726 32.1202C46.0742 31.6022 45.8315 31.1426 45.6616 30.6675C45.6499 30.635 45.5148 30.6042 45.5004 30.6223C45.4573 30.6766 45.4146 30.7634 45.4283 30.8235C45.4949 31.0833 45.5743 31.338 45.6619 31.591C45.7309 31.7905 45.8161 31.9849 45.8932 32.1811ZM34.1275 22.6564C33.9914 22.5474 33.937 22.4796 33.9144 22.4897C33.4754 22.676 33.0381 22.8704 32.6057 23.0713C32.575 23.0847 32.5487 23.1828 32.5652 23.207C32.5982 23.2538 32.6834 23.3147 32.7173 23.3012C33.1708 23.1033 33.6193 22.8925 34.1275 22.658L34.1275 22.6564ZM51.0855 18.1793C51.0094 18.0597 50.9794 17.9949 50.968 17.9983C50.5346 18.1145 50.1028 18.234 49.6728 18.3615C49.6469 18.37 49.6174 18.4714 49.6356 18.4988C49.667 18.5473 49.7473 18.6114 49.7861 18.5995C50.2129 18.4704 50.6363 18.3283 51.0872 18.1809L51.0855 18.1793ZM34.596 12.4049C34.859 12.5433 35.0634 12.6695 35.2852 12.7579C35.3374 12.7784 35.5112 12.6606 35.5074 12.6199C35.4837 12.4068 34.8468 12.2161 34.596 12.4066L34.596 12.4049ZM43.694 10.416C44.0269 10.3075 44.3163 9.6996 44.1894 9.54645C44.1564 9.50777 43.9797 9.51813 43.9703 9.54431C43.873 9.80941 43.7953 10.084 43.694 10.416ZM49.5707 28.4634C49.562 28.4163 49.5634 28.3984 49.5552 28.3903C49.3599 28.2136 49.1646 28.0369 48.9676 27.8602C48.9245 27.9161 48.8365 28.0133 48.843 28.0197C49.0255 28.208 49.2128 28.3914 49.4113 28.5615C49.4261 28.5744 49.5224 28.4934 49.5707 28.4634ZM40.1206 31.4863C40.1696 31.5101 40.2202 31.5323 40.2691 31.5561C40.3963 31.346 40.5268 31.1391 40.6425 30.9226C40.6632 30.8849 40.628 30.7958 40.5901 30.7555C40.5671 30.7298 40.4681 30.7294 40.4473 30.7541C40.2732 30.9713 40.0534 31.176 40.119 31.4863L40.1206 31.4863ZM47.7724 14.0786C48.1141 14.1509 48.5865 13.9055 48.6345 13.7225C48.6453 13.68 48.6329 13.6003 48.6052 13.5844C48.5545 13.5557 48.4634 13.5341 48.4264 13.5622C48.2286 13.7048 48.0423 13.8635 47.7724 14.0803L47.7724 14.0786ZM51.2743 23.5261C50.9358 23.4473 50.6819 23.3853 50.4265 23.3397C50.4135 23.3366 50.3311 23.4972 50.3544 23.5442C50.436 23.7044 50.9897 23.7382 51.2743 23.5261ZM35.4016 27.7274C35.5998 27.4887 35.7757 27.2813 35.9418 27.0642C35.9498 27.0543 35.8676 26.9755 35.8265 26.9304C35.6293 27.1202 35.4321 27.31 35.2365 27.5014C35.2285 27.508 35.2272 27.5325 35.2338 27.5406C35.2717 27.5873 35.3144 27.6308 35.4016 27.7274ZM33.7047 17.6725C33.7037 17.5959 33.7044 17.521 33.7051 17.4444C33.468 17.4295 33.2308 17.408 32.9922 17.4061C32.9468 17.4067 32.8731 17.4842 32.8656 17.5331C32.858 17.5756 32.9242 17.6741 32.9615 17.6753C33.2083 17.6852 33.4565 17.6756 33.7047 17.6725Z" fill="#C6D7FF"/>
<path d="M42.5225 20.2149C43.7339 19.7681 44.8856 19.3448 46.0357 18.9215C46.3022 18.8237 46.5636 18.7096 46.8387 18.6427C46.9665 18.6117 47.1182 18.6766 47.2596 18.6976C47.1683 18.7933 47.0955 18.9375 46.9841 18.9796C45.4917 19.5391 43.9959 20.0857 42.4985 20.6289C42.1463 20.7572 42.0545 20.6801 42.0968 20.3001C42.2191 19.1828 42.3495 18.0653 42.4831 16.9479C42.6742 15.3606 42.8717 13.7732 43.066 12.1859C43.0718 12.1321 43.0612 12.067 43.0883 12.026C43.1472 11.9357 43.2241 11.8565 43.2945 11.7726C43.3525 11.8744 43.4691 11.9805 43.4605 12.0767C43.4109 12.6425 43.3336 13.2071 43.266 13.7732C43.0174 15.8189 42.7688 17.863 42.5219 19.9087C42.5131 19.987 42.5239 20.0667 42.5257 20.2149L42.5225 20.2149Z" fill="black"/>
<path d="M39.3012 10.204C39.271 10.2581 39.2345 10.3221 39.198 10.3861C39.1277 10.343 39.0169 10.3135 38.9951 10.2535C38.8553 9.84637 38.7284 9.4326 38.6145 9.01704C38.5975 8.95373 38.6726 8.86483 38.7041 8.78787C38.7646 8.82784 38.8607 8.85595 38.8809 8.91108C39.0257 9.33114 39.156 9.75627 39.2995 10.204L39.3012 10.204Z" fill="black"/>
<path d="M45.8941 32.183C45.817 31.9869 45.7318 31.7925 45.6628 31.593C45.5752 31.34 45.4957 31.0837 45.4292 30.8255C45.4138 30.7654 45.4582 30.6785 45.5013 30.6242C45.5157 30.6061 45.6508 30.637 45.6625 30.6695C45.834 31.1446 46.0767 31.6041 46.0735 32.1221C46.0137 32.1424 45.9539 32.1627 45.8941 32.183Z" fill="black"/>
<path d="M34.1273 22.658C33.6191 22.8925 33.1706 23.1033 32.7171 23.3012C32.6832 23.3163 32.5997 23.2538 32.565 23.207C32.5469 23.1828 32.5749 23.0864 32.6055 23.0713C33.0395 22.8704 33.4752 22.6776 33.9142 22.4897C33.9368 22.4796 33.9912 22.5474 34.1273 22.6564L34.1273 22.658Z" fill="black"/>
<path d="M51.0841 18.1824C50.6332 18.3298 50.2098 18.4719 49.783 18.6011C49.7442 18.613 49.6655 18.5488 49.6325 18.5004C49.6143 18.4729 49.6438 18.3715 49.6697 18.3631C50.0997 18.2355 50.5315 18.1161 50.9649 17.9999C50.9762 17.9965 51.0046 18.0613 51.0824 18.1808L51.0841 18.1824Z" fill="black"/>
<path d="M34.5947 12.408C34.8455 12.2191 35.4807 12.4083 35.5061 12.6213C35.5115 12.662 35.3361 12.7798 35.2839 12.7593C35.0621 12.6725 34.8577 12.5464 34.5947 12.4063L34.5947 12.408Z" fill="black"/>
<path d="M43.6928 10.4194C43.7941 10.0874 43.8702 9.81281 43.9691 9.5477C43.9785 9.52152 44.1569 9.51113 44.1882 9.54983C44.3151 9.70299 44.0257 10.3109 43.6928 10.4194Z" fill="black"/>
<path d="M49.5698 28.4669C49.5215 28.4968 49.4268 28.5778 49.4104 28.565C49.2119 28.3948 49.023 28.2115 48.8422 28.0232C48.8356 28.0168 48.9236 27.9196 48.9667 27.8636C49.1621 28.0404 49.359 28.2154 49.5543 28.3938C49.5625 28.4002 49.5595 28.4198 49.5698 28.4669Z" fill="black"/>
<path d="M40.1195 31.4893C40.0539 31.1807 40.2737 30.9743 40.4478 30.7571C40.4686 30.7324 40.5676 30.7328 40.5906 30.7586C40.6268 30.7989 40.662 30.888 40.643 30.9257C40.5273 31.1422 40.3952 31.3491 40.2696 31.5591C40.2207 31.5353 40.1701 31.5131 40.1211 31.4893L40.1195 31.4893Z" fill="black"/>
<path d="M47.7722 14.0818C48.0404 13.865 48.2283 13.7063 48.4261 13.5637C48.4631 13.5372 48.5542 13.5589 48.6049 13.5859C48.6327 13.6019 48.6467 13.6815 48.6342 13.724C48.5846 13.9087 48.1122 14.1541 47.7721 14.0801L47.7722 14.0818Z" fill="black"/>
<path d="M51.274 23.5293C50.9894 23.7413 50.4357 23.7076 50.3541 23.5473C50.3308 23.5004 50.4116 23.3397 50.4262 23.3428C50.6832 23.3885 50.9371 23.4521 51.274 23.5293Z" fill="black"/>
<path d="M35.4016 27.7308C35.3128 27.6342 35.2716 27.5891 35.2338 27.5439C35.2272 27.5359 35.2301 27.513 35.2365 27.5048C35.4321 27.3134 35.6293 27.1236 35.8265 26.9338C35.8677 26.9806 35.9498 27.0593 35.9418 27.0676C35.7757 27.283 35.5998 27.4921 35.4016 27.7308Z" fill="black"/>
<path d="M33.7044 17.6759C33.4562 17.679 33.208 17.6886 32.9612 17.6787C32.9239 17.6775 32.8594 17.5806 32.8653 17.5366C32.8728 17.486 32.9465 17.4085 32.9919 17.4095C33.2289 17.4115 33.466 17.4329 33.7048 17.4478C33.7057 17.5244 33.705 17.5993 33.7044 17.6759Z" fill="black"/>
</svg>
