<svg width="16" height="16" viewBox="0 0 16 16" fill="none" xmlns="http://www.w3.org/2000/svg">
<path d="M8 7.16667C5.76389 7.16667 3.95486 6.82639 2.57292 6.14583C1.19097 5.46528 0.5 4.69444 0.5 3.83333C0.5 2.95833 1.19097 2.18403 2.57292 1.51042C3.95486 0.836806 5.76389 0.5 8 0.5C10.2361 0.5 12.0451 0.836806 13.4271 1.51042C14.809 2.18403 15.5 2.95833 15.5 3.83333C15.5 4.69444 14.809 5.46528 13.4271 6.14583C12.0451 6.82639 10.2361 7.16667 8 7.16667ZM8 11.3333C5.97222 11.3333 4.21528 11.0278 2.72917 10.4167C1.24306 9.80556 0.5 9.06944 0.5 8.20833V6.125C0.5 6.66667 0.760417 7.13542 1.28125 7.53125C1.80208 7.92708 2.44792 8.25347 3.21875 8.51042C3.98958 8.76736 4.80903 8.95486 5.67708 9.07292C6.54514 9.19097 7.31944 9.25 8 9.25C8.69444 9.25 9.47222 9.19097 10.3333 9.07292C11.1944 8.95486 12.0104 8.77083 12.7812 8.52083C13.5521 8.27083 14.1979 7.94792 14.7188 7.55208C15.2396 7.15625 15.5 6.68056 15.5 6.125V8.20833C15.5 9.06944 14.7569 9.80556 13.2708 10.4167C11.7847 11.0278 10.0278 11.3333 8 11.3333ZM8 15.5C5.97222 15.5 4.21528 15.1944 2.72917 14.5833C1.24306 13.9722 0.5 13.2361 0.5 12.375V10.2917C0.5 10.8333 0.760417 11.3021 1.28125 11.6979C1.80208 12.0938 2.44792 12.4201 3.21875 12.6771C3.98958 12.934 4.80903 13.1215 5.67708 13.2396C6.54514 13.3576 7.31944 13.4167 8 13.4167C8.69444 13.4167 9.47222 13.3576 10.3333 13.2396C11.1944 13.1215 12.0104 12.9375 12.7812 12.6875C13.5521 12.4375 14.1979 12.1146 14.7188 11.7187C15.2396 11.3229 15.5 10.8472 15.5 10.2917V12.375C15.5 13.2361 14.7569 13.9722 13.2708 14.5833C11.7847 15.1944 10.0278 15.5 8 15.5Z" fill="#243A57"/>
</svg>
