<svg width="24" height="24" viewBox="0 0 24 24" fill="none" xmlns="http://www.w3.org/2000/svg">
<path d="M12 11C9.31667 11 7.14583 10.5917 5.4875 9.775C3.82917 8.95833 3 8.03333 3 7C3 5.95 3.82917 5.02083 5.4875 4.2125C7.14583 3.40417 9.31667 3 12 3C14.6833 3 16.8542 3.40417 18.5125 4.2125C20.1708 5.02083 21 5.95 21 7C21 8.03333 20.1708 8.95833 18.5125 9.775C16.8542 10.5917 14.6833 11 12 11ZM12 16C9.56667 16 7.45833 15.6333 5.675 14.9C3.89167 14.1667 3 13.2833 3 12.25V9.75C3 10.4 3.3125 10.9625 3.9375 11.4375C4.5625 11.9125 5.3375 12.3042 6.2625 12.6125C7.1875 12.9208 8.17083 13.1458 9.2125 13.2875C10.2542 13.4292 11.1833 13.5 12 13.5C12.8333 13.5 13.7667 13.4292 14.8 13.2875C15.8333 13.1458 16.8125 12.925 17.7375 12.625C18.6625 12.325 19.4375 11.9375 20.0625 11.4625C20.6875 10.9875 21 10.4167 21 9.75V12.25C21 13.2833 20.1083 14.1667 18.325 14.9C16.5417 15.6333 14.4333 16 12 16ZM12 21C9.56667 21 7.45833 20.6333 5.675 19.9C3.89167 19.1667 3 18.2833 3 17.25V14.75C3 15.4 3.3125 15.9625 3.9375 16.4375C4.5625 16.9125 5.3375 17.3042 6.2625 17.6125C7.1875 17.9208 8.17083 18.1458 9.2125 18.2875C10.2542 18.4292 11.1833 18.5 12 18.5C12.8333 18.5 13.7667 18.4292 14.8 18.2875C15.8333 18.1458 16.8125 17.925 17.7375 17.625C18.6625 17.325 19.4375 16.9375 20.0625 16.4625C20.6875 15.9875 21 15.4167 21 14.75V17.25C21 18.2833 20.1083 19.1667 18.325 19.9C16.5417 20.6333 14.4333 21 12 21Z" fill="#90A0B7"/>
</svg>
