<svg width="32" height="32" viewBox="0 0 32 32" fill="none" xmlns="http://www.w3.org/2000/svg">
<g id="Batch Voting selected">
<path id="Fill 269" fill-rule="evenodd" clip-rule="evenodd" d="M27.4686 15.4301C22.4231 13.5642 18.4528 9.59397 16.576 4.5375L16.4742 4.26338C16.3129 3.82863 15.698 3.82863 15.5367 4.26338L15.435 4.5375C13.5581 9.59397 9.5891 13.5642 4.54236 15.4301L4.26922 15.5312C3.83366 15.6923 3.83387 16.3084 4.26954 16.4692L4.54236 16.5699C9.5891 18.4358 13.5581 22.406 15.435 27.4637L15.5367 27.7377C15.6981 28.1723 16.3128 28.1723 16.4742 27.7377L16.576 27.4637C18.4528 22.406 22.4231 18.4358 27.4686 16.5699L27.7415 16.4692C28.1773 16.3085 28.1775 15.6921 27.7418 15.5311L27.4686 15.4301Z" fill="#485F7D"/>
</g>
</svg>
