<svg width="24" height="24" viewBox="0 0 24 24" fill="none" xmlns="http://www.w3.org/2000/svg">
<path d="M11.8092 4C9.70544 4 8 5.70623 8 7.81098L8 10.283C8 12.3877 9.70544 14.0939 11.8092 14.0939C12.1045 14.0939 12.3919 14.0603 12.6679 13.9967V13.9967C12.8337 13.9585 12.8802 13.7539 12.7572 13.6364L12.7365 13.6167L10.5421 11.5197C10.2018 11.1891 9.9904 10.7264 9.9904 10.2143V7.87964C9.9904 6.87467 10.8047 6.05999 11.8092 6.05999C12.8137 6.05999 13.628 6.87467 13.628 7.87964V8.34474C13.628 8.67611 13.8966 8.94474 14.228 8.94474H15.0184C15.3498 8.94474 15.6184 8.67611 15.6184 8.34474V7.81098C15.6184 5.70623 13.913 4 11.8092 4Z" fill="#99A6B9"/>
<path d="M11.8099 20C13.9137 20 15.6191 18.2938 15.6191 16.189L15.6191 13.717C15.6191 11.6123 13.9137 9.90607 11.8099 9.90607C11.5146 9.90607 11.2272 9.93968 10.9512 10.0033V10.0033C10.7855 10.0415 10.7389 10.2461 10.8619 10.3636L10.8826 10.3833L13.077 12.4803C13.4173 12.8109 13.6287 13.2736 13.6287 13.7857V16.1204C13.6287 17.1253 12.8144 17.94 11.8099 17.94C10.8054 17.94 9.99112 17.1253 9.99112 16.1204V15.656C9.99112 15.3247 9.72249 15.056 9.39112 15.056H8.60073C8.26936 15.056 8.00073 15.3247 8.00073 15.656V16.189C8.00073 18.2938 9.70617 20 11.8099 20Z" fill="#99A6B9"/>
</svg>
