<svg width="20" height="21" viewBox="0 0 20 21" fill="none" xmlns="http://www.w3.org/2000/svg">
<path d="M10 18.8336C6.46447 18.8336 4.6967 18.8336 3.59835 17.6133C2.5 16.3929 2.5 14.4287 2.5 10.5003C2.5 6.57195 2.5 4.60777 3.59835 3.38738C4.6967 2.16699 6.46447 2.16699 10 2.16699C13.5355 2.16699 15.3033 2.16699 16.4017 3.38738C17.5 4.60777 17.5 6.57195 17.5 10.5003C17.5 14.4287 17.5 16.3929 16.4017 17.6133C15.3033 18.8336 13.5355 18.8336 10 18.8336Z" stroke="#E5007A" stroke-width="1.5" stroke-linecap="round" stroke-linejoin="round"/>
<path d="M6.66675 2.5835V8.68867C6.66675 9.72791 6.66675 10.2476 6.98876 10.4336C7.61236 10.7937 8.78208 9.59208 9.33758 9.23025C9.65975 9.02041 9.82083 8.9155 10.0001 8.9155C10.1793 8.9155 10.3404 9.02041 10.6626 9.23025C11.2181 9.59208 12.3878 10.7937 13.0114 10.4336C13.3334 10.2476 13.3334 9.72791 13.3334 8.68867V2.5835" stroke="#E5007A" stroke-width="1.5" stroke-linecap="round" stroke-linejoin="round"/>
</svg>
