<svg width="16" height="17" viewBox="0 0 16 17" fill="none" xmlns="http://www.w3.org/2000/svg">
<path opacity="0.4" d="M7.23991 1.6606C7.65964 1.24088 8.34014 1.24088 8.75986 1.6606C9.17958 2.08032 9.17958 2.76082 8.75986 3.18055L3.69337 8.24704C3.55346 8.38695 3.55346 8.61378 3.69337 8.75369L4.70667 9.76699C4.84657 9.9069 5.07341 9.9069 5.21332 9.76699L10.2798 4.7005C10.6995 4.28077 11.38 4.28077 11.7998 4.7005L14.9087 7.80948C15.2903 8.19105 15.2903 8.80969 14.9087 9.19125L8.75986 15.3401C8.34014 15.7599 7.65964 15.7599 7.23991 15.3401C6.82019 14.9204 6.82019 14.2399 7.23991 13.8202L12.3064 8.75369C12.4463 8.61378 12.4463 8.38695 12.3064 8.24704L11.2931 7.23374C11.1532 7.09384 10.9264 7.09384 10.7865 7.23374L5.71997 12.3002C5.30024 12.72 4.61974 12.72 4.20002 12.3002L1.09103 9.19125C0.709467 8.80969 0.709466 8.19105 1.09103 7.80948L7.23991 1.6606Z" fill="#485F7D"/>
<path d="M2.68007 7.74039C3.09979 8.16011 3.09979 8.84062 2.68007 9.26034C2.26035 9.68006 1.57984 9.68006 1.16012 9.26034C0.740399 8.84062 0.740399 8.16011 1.16012 7.74039C1.57984 7.32067 2.26035 7.32067 2.68007 7.74039Z" fill="#485F7D"/>
<path d="M8.75986 1.6606C9.17958 2.08032 9.17958 2.76082 8.75986 3.18055C8.34014 3.60027 7.65964 3.60027 7.23991 3.18055C6.82019 2.76082 6.82019 2.08032 7.23991 1.6606C7.65964 1.24088 8.34014 1.24088 8.75986 1.6606Z" fill="#485F7D"/>
<path d="M11.7998 4.7005C12.2195 5.12022 12.2195 5.80072 11.7998 6.22044C11.38 6.64017 10.6995 6.64017 10.2798 6.22044C9.86009 5.80072 9.86009 5.12022 10.2798 4.7005C10.6995 4.28077 11.38 4.28077 11.7998 4.7005Z" fill="#485F7D"/>
<path d="M8.75986 7.74039C9.17958 8.16011 9.17958 8.84062 8.75986 9.26034C8.34014 9.68006 7.65964 9.68006 7.23991 9.26034C6.82019 8.84062 6.82019 8.16011 7.23991 7.74039C7.65964 7.32067 8.34014 7.32067 8.75986 7.74039Z" fill="#485F7D"/>
<path d="M5.71997 4.7005C6.13969 5.12022 6.13969 5.80072 5.71997 6.22044C5.30024 6.64017 4.61974 6.64017 4.20002 6.22044C3.7803 5.80072 3.7803 5.12022 4.20002 4.7005C4.61974 4.28077 5.30024 4.28077 5.71997 4.7005Z" fill="#485F7D"/>
<path d="M5.71997 10.7803C6.13969 11.2 6.13969 11.8805 5.71997 12.3002C5.30024 12.72 4.61974 12.72 4.20002 12.3002C3.7803 11.8805 3.7803 11.2 4.20002 10.7803C4.61974 10.3606 5.30024 10.3606 5.71997 10.7803Z" fill="#485F7D"/>
<path d="M8.75986 13.8202C9.17958 14.2399 9.17958 14.9204 8.75986 15.3401C8.34014 15.7599 7.65964 15.7599 7.23991 15.3401C6.82019 14.9204 6.82019 14.2399 7.23991 13.8202C7.65964 13.4005 8.34014 13.4005 8.75986 13.8202Z" fill="#485F7D"/>
<path d="M11.7998 10.7803C12.2195 11.2 12.2195 11.8805 11.7998 12.3002C11.38 12.72 10.6995 12.72 10.2798 12.3002C9.86009 11.8805 9.86009 11.2 10.2798 10.7803C10.6995 10.3606 11.38 10.3606 11.7998 10.7803Z" fill="#485F7D"/>
<path d="M14.8397 7.74039C15.2594 8.16011 15.2594 8.84062 14.8397 9.26034C14.4199 9.68006 13.7394 9.68006 13.3197 9.26034C12.9 8.84062 12.9 8.16011 13.3197 7.74039C13.7394 7.32067 14.4199 7.32067 14.8397 7.74039Z" fill="#485F7D"/>
</svg>
