<svg width="24" height="25" viewBox="0 0 24 25" fill="none" xmlns="http://www.w3.org/2000/svg">
<path d="M3.5 22.8711C3.1 22.8711 2.75 22.7211 2.45 22.4211C2.15 22.1211 2 21.7711 2 21.3711V10.3711C2 9.97109 2.15 9.62109 2.45 9.32109C2.75 9.02109 3.1 8.87109 3.5 8.87109H20.5C20.9 8.87109 21.25 9.02109 21.55 9.32109C21.85 9.62109 22 9.97109 22 10.3711V21.3711C22 21.7711 21.85 22.1211 21.55 22.4211C21.25 22.7211 20.9 22.8711 20.5 22.8711H3.5ZM3.5 21.3711H20.5V10.3711H3.5V21.3711ZM10.175 19.5961L15.7 15.8711L10.175 12.1711V19.5961ZM3.725 7.37109V5.87109H20.275V7.37109H3.725ZM7 4.37109V2.87109H17V4.37109H7Z" fill="#FF7A00"/>
</svg>
