<svg width="20" height="21" viewBox="0 0 20 21" fill="none" xmlns="http://www.w3.org/2000/svg">
<path d="M16.9175 5.85417L16.2092 4.29167L14.6467 3.58333L16.2092 2.875L16.9175 1.3125L17.6258 2.875L19.1883 3.58333L17.6258 4.29167L16.9175 5.85417ZM6.87584 5.85417L6.1675 4.29167L4.605 3.58333L6.1675 2.875L6.87584 1.3125L7.58417 2.875L9.14667 3.58333L7.58417 4.29167L6.87584 5.85417ZM16.9175 15.8958L16.2092 14.3333L14.6467 13.625L16.2092 12.9167L16.9175 11.3542L17.6258 12.9167L19.1883 13.625L17.6258 14.3333L16.9175 15.8958ZM3.89667 18.5833L1.9175 16.6042C1.76473 16.4514 1.68139 16.2743 1.6675 16.0729C1.65361 15.8715 1.73695 15.6806 1.9175 15.5L11.2925 6.125C11.4592 5.95833 11.6606 5.875 11.8967 5.875C12.1328 5.875 12.3342 5.95833 12.5008 6.125L14.3758 8C14.5425 8.16667 14.6258 8.36806 14.6258 8.60417C14.6258 8.84028 14.5425 9.04167 14.3758 9.20833L5.00084 18.5833C4.83417 18.75 4.65014 18.8333 4.44875 18.8333C4.24736 18.8333 4.06334 18.75 3.89667 18.5833ZM4.37584 17.3958L10.8967 10.875L9.605 9.58333L3.08417 16.1042L4.37584 17.3958Z" fill="white"/>
</svg>
