<svg viewBox="0 0 14 18" fill="none" xmlns="http://www.w3.org/2000/svg">
<path d="M6.76237 2.33344V0.841773C6.76237 0.466773 6.31237 0.28344 6.05404 0.550107L3.7207 2.87511C3.55404 3.04177 3.55404 3.30011 3.7207 3.46677L6.0457 5.79177C6.31237 6.05011 6.76237 5.86677 6.76237 5.49177V4.00011C9.5207 4.00011 11.7624 6.24177 11.7624 9.00011C11.7624 9.65844 11.6374 10.3001 11.3957 10.8751C11.2707 11.1751 11.3624 11.5168 11.5874 11.7418C12.0124 12.1668 12.729 12.0168 12.954 11.4584C13.2624 10.7001 13.429 9.86677 13.429 9.00011C13.429 5.31677 10.4457 2.33344 6.76237 2.33344ZM6.76237 14.0001C4.00404 14.0001 1.76237 11.7584 1.76237 9.00011C1.76237 8.34177 1.88737 7.70011 2.12904 7.12511C2.25404 6.82511 2.16237 6.48344 1.93737 6.25844C1.51237 5.83344 0.795703 5.98344 0.570703 6.54177C0.26237 7.30011 0.0957031 8.13344 0.0957031 9.00011C0.0957031 12.6834 3.07904 15.6668 6.76237 15.6668V17.1584C6.76237 17.5334 7.21237 17.7168 7.4707 17.4501L9.7957 15.1251C9.96237 14.9584 9.96237 14.7001 9.7957 14.5334L7.4707 12.2084C7.21237 11.9501 6.76237 12.1334 6.76237 12.5084V14.0001Z" />
</svg>
