<svg width="18" height="14" viewBox="0 0 18 14" fill="none" xmlns="http://www.w3.org/2000/svg">
<path d="M18 7L13.775 12.975C13.5583 13.275 13.3 13.5208 13 13.7125C12.7 13.9042 12.3667 14 12 14H1.5C1.0875 14 0.734375 13.8531 0.440625 13.5594C0.146875 13.2656 0 12.9125 0 12.5V1.5C0 1.0875 0.146875 0.734375 0.440625 0.440625C0.734375 0.146875 1.0875 0 1.5 0H12C12.3667 0 12.7 0.0958333 13 0.2875C13.3 0.479167 13.5583 0.725 13.775 1.025L18 7ZM16.125 7L12.275 1.5H1.5V12.5H12.275L16.125 7ZM1.5 7V12.5V1.5V7Z" fill="#ffffff"/>
</svg>
