<svg width="16" height="16" viewBox="0 0 16 16" fill="none" xmlns="http://www.w3.org/2000/svg">
<path d="M13.8336 0.5H2.16641C1.72483 0.501239 1.30169 0.677204 0.989447 0.989447C0.677204 1.30169 0.501239 1.72483 0.5 2.16641L0.5 13.8336C0.501239 14.2752 0.677204 14.6983 0.989447 15.0106C1.30169 15.3228 1.72483 15.4988 2.16641 15.5H13.8336C14.2752 15.4988 14.6983 15.3228 15.0106 15.0106C15.3228 14.6983 15.4988 14.2752 15.5 13.8336V2.16641C15.4988 1.72483 15.3228 1.30169 15.0106 0.989447C14.6983 0.677204 14.2752 0.501239 13.8336 0.5ZM8.83203 12.1666H4.66601C4.44504 12.1666 4.23311 12.0788 4.07685 11.9226C3.9206 11.7663 3.83281 11.5544 3.83281 11.3334C3.83281 11.1124 3.9206 10.9005 4.07685 10.7442C4.23311 10.588 4.44504 10.5002 4.66601 10.5002H8.83203C9.05301 10.5002 9.26494 10.588 9.42119 10.7442C9.57745 10.9005 9.66523 11.1124 9.66523 11.3334C9.66523 11.5544 9.57745 11.7663 9.42119 11.9226C9.26494 12.0788 9.05301 12.1666 8.83203 12.1666ZM11.3334 8.83203H4.66601C4.44504 8.83203 4.23311 8.74425 4.07685 8.58799C3.9206 8.43173 3.83281 8.21981 3.83281 7.99883C3.83281 7.77785 3.9206 7.56592 4.07685 7.40966C4.23311 7.25341 4.44504 7.16562 4.66601 7.16562H11.3334C11.5544 7.16562 11.7663 7.25341 11.9226 7.40966C12.0788 7.56592 12.1666 7.77785 12.1666 7.99883C12.1666 8.21981 12.0788 8.43173 11.9226 8.58799C11.7663 8.74425 11.5544 8.83203 11.3334 8.83203ZM11.3334 5.49863H4.66601C4.44504 5.49863 4.23311 5.41085 4.07685 5.25459C3.9206 5.09834 3.83281 4.88641 3.83281 4.66543C3.83281 4.44445 3.9206 4.23252 4.07685 4.07626C4.23311 3.92001 4.44504 3.83223 4.66601 3.83223H11.3334C11.4428 3.83223 11.5512 3.85378 11.6523 3.89565C11.7533 3.93752 11.8452 3.99889 11.9226 4.07626C11.9999 4.15363 12.0613 4.24549 12.1032 4.34658C12.145 4.44766 12.1666 4.55601 12.1666 4.66543C12.1666 4.77485 12.145 4.88319 12.1032 4.98428C12.0613 5.08537 11.9999 5.17722 11.9226 5.25459C11.8452 5.33196 11.7533 5.39333 11.6523 5.43521C11.5512 5.47708 11.4428 5.49863 11.3334 5.49863Z" fill="#243A57"/>
</svg>
