<svg width="32" height="29" viewBox="0 0 30 29" fill="none" xmlns="http://www.w3.org/2000/svg">
<path d="M26.0941 25.6676H26.1441V25.6176V3.21758V3.16758H26.0941H3.69414H3.64414V3.21758V25.6176V25.6676H3.69414H26.0941ZM21.2941 9.56758H14.8941C14.0418 9.56758 13.3441 8.86996 13.3441 8.01758C13.3441 7.16519 14.0418 6.46758 14.8941 6.46758H21.2941C22.1465 6.46758 22.8441 7.16519 22.8441 8.01758C22.8441 8.86996 22.1465 9.56758 21.2941 9.56758ZM21.2941 15.9676H14.8941C14.0418 15.9676 13.3441 15.27 13.3441 14.4176C13.3441 13.5652 14.0418 12.8676 14.8941 12.8676H21.2941C22.1465 12.8676 22.8441 13.5652 22.8441 14.4176C22.8441 15.27 22.1465 15.9676 21.2941 15.9676ZM21.2941 22.3676H14.8941C14.0418 22.3676 13.3441 21.67 13.3441 20.8176C13.3441 19.9652 14.0418 19.2676 14.8941 19.2676H21.2941C22.1465 19.2676 22.8441 19.9652 22.8441 20.8176C22.8441 21.67 22.1465 22.3676 21.2941 22.3676ZM6.94414 6.46758H10.0441V9.56758H6.94414V6.46758ZM6.94414 12.8676H10.0441V15.9676H6.94414V12.8676ZM6.94414 19.2676H10.0441V22.3676H6.94414V19.2676ZM2.09414 0.0675781H27.6941C28.5465 0.0675781 29.2441 0.765192 29.2441 1.61758V27.2176C29.2441 28.07 28.5465 28.7676 27.6941 28.7676H2.09414C1.24175 28.7676 0.544141 28.07 0.544141 27.2176V1.61758C0.544141 0.765192 1.24175 0.0675781 2.09414 0.0675781Z" fill="#334D6E" stroke="white" stroke-width="0.1"/>
</svg>
