<svg viewBox="0 0 32 32" fill="none" xmlns="http://www.w3.org/2000/svg">
<path d="M28.0019 26.1919C27.8844 26.3994 27.7082 26.4705 27.4699 26.4699C25.1931 26.4643 22.9164 26.4671 20.6396 26.466C20.2184 26.466 20.0953 26.3423 20.0958 25.9144C20.0958 25.3203 20.0673 24.7246 20.2206 24.1405C20.4768 23.1644 21.0194 22.3896 21.8585 21.8325C22.0241 21.7222 22.0269 21.6568 21.924 21.4974C21.3221 20.5654 21.3724 19.4142 22.037 18.5527C22.6864 17.7113 23.7935 17.3628 24.8077 17.6806C25.8375 18.0028 26.5502 18.9342 26.5905 20.0323C26.6106 20.5867 26.4557 21.0985 26.1363 21.5539C26.0641 21.6568 26.0479 21.7077 26.1715 21.7883C27.1935 22.4567 27.791 23.3999 27.9661 24.6099C27.97 24.6362 27.9896 24.6597 28.0019 24.6848V26.1924V26.1919ZM24.0402 25.6996C25.0259 25.6996 26.011 25.7002 26.9966 25.6985C27.1091 25.6985 27.2377 25.7388 27.2472 25.5385C27.3116 24.1993 26.8629 23.1185 25.6988 22.3812C25.5316 22.2755 25.4035 22.2671 25.2194 22.3633C24.4508 22.7644 23.6643 22.7661 22.8951 22.3689C22.701 22.2688 22.5667 22.2755 22.3916 22.3879C21.279 23.1051 20.8052 24.1355 20.851 25.4395C20.8583 25.6431 20.8997 25.7069 21.1123 25.7046C22.0884 25.6929 23.0646 25.6996 24.0408 25.6996H24.0402ZM25.8297 20.114C25.8331 19.1177 25.0426 18.32 24.0497 18.3183C23.0607 18.3166 22.2557 19.1205 22.2574 20.1073C22.2591 21.0801 23.0573 21.8839 24.0296 21.8917C25.0208 21.8996 25.8269 21.1041 25.8297 20.114Z" fill="#243A57"/>
<path d="M16.3865 15.5876C16.3865 16.2667 16.4016 16.9464 16.3792 17.625C16.3703 17.9007 16.4665 17.9628 16.7194 17.9751C17.8997 18.0311 19.0336 18.3018 20.1239 18.7561C20.1669 18.774 20.21 18.7908 20.2525 18.8092C20.4707 18.9049 20.5725 19.0649 20.4936 19.2998C20.4232 19.5107 20.2022 19.6019 19.9656 19.5051C19.1539 19.1739 18.3215 18.9228 17.451 18.8019C15.6638 18.553 13.9302 18.7482 12.2536 19.4234C12.1418 19.4688 12.0299 19.5141 11.9174 19.5588C11.6864 19.6511 11.5158 19.575 11.4101 19.3597C11.3161 19.1667 11.4017 18.9686 11.631 18.8629C12.1211 18.6369 12.629 18.459 13.1498 18.3186C13.8698 18.1245 14.6009 17.9936 15.3471 17.9684C15.5558 17.9612 15.6246 17.8924 15.6229 17.6736C15.6123 16.269 15.6134 14.8643 15.6218 13.4591C15.6229 13.2532 15.5726 13.1895 15.3594 13.1911C13.9643 13.2007 12.5692 13.2007 11.1746 13.1911C10.9614 13.1895 10.9094 13.251 10.9167 13.4591C10.9681 14.8956 11.16 16.3098 11.5471 17.696C11.5673 17.7676 11.5891 17.8387 11.6036 17.9114C11.6478 18.1357 11.5673 18.299 11.3469 18.3701C11.1399 18.4367 10.9469 18.3237 10.877 18.0904C10.7114 17.5383 10.581 16.9777 10.4764 16.4105C10.2952 15.4299 10.1978 14.4408 10.1671 13.4451C10.1615 13.2588 10.1106 13.19 9.91199 13.1911C8.67515 13.2001 7.43832 13.2001 6.20092 13.1911C5.99562 13.1895 5.95366 13.2594 5.96821 13.4496C6.04093 14.3995 6.21323 15.3281 6.53656 16.2265C6.56509 16.3053 6.60033 16.382 6.62047 16.4625C6.67809 16.6986 6.58131 16.8927 6.36986 16.9509C6.14106 17.0141 5.98723 16.9056 5.90723 16.6997C5.68795 16.1358 5.52013 15.5563 5.40265 14.9628C4.32245 9.50972 7.47636 4.1775 12.7728 2.49874C18.7399 0.607401 25.154 4.28043 26.5436 10.3874C27.0202 12.4818 26.8949 14.5404 26.1598 16.5604C26.1442 16.6041 26.1279 16.6477 26.1106 16.6908C26.0222 16.9106 25.8678 17.0208 25.6295 16.9526C25.4113 16.8899 25.3118 16.6779 25.3996 16.4329C25.5825 15.9249 25.7364 15.4103 25.8454 14.8817C25.9433 14.4073 25.9875 13.9262 26.0395 13.4457C26.0619 13.2415 25.9892 13.1962 25.7973 13.1973C24.5694 13.2046 23.3421 13.2057 22.1142 13.1962C21.9078 13.1945 21.8479 13.2521 21.8407 13.4597C21.7914 14.951 21.6068 16.4239 21.1957 17.8627C21.1856 17.8985 21.18 17.9354 21.1688 17.9707C21.0872 18.2252 20.9042 18.3539 20.6995 18.3007C20.4735 18.2425 20.3722 18.0367 20.4355 17.7698C20.5496 17.291 20.6794 16.8155 20.7733 16.3327C20.9591 15.3823 21.0508 14.4202 21.0866 13.4518C21.0944 13.232 21.0212 13.1906 20.8203 13.1917C19.4347 13.1995 18.0491 13.2001 16.6629 13.1917C16.4497 13.1906 16.3742 13.2393 16.3792 13.4669C16.3943 14.1735 16.3848 14.8811 16.3848 15.5882L16.3865 15.5876ZM8.0503 12.4466C8.66397 12.4466 9.27763 12.4404 9.89129 12.4505C10.0742 12.4533 10.1497 12.4169 10.1564 12.2116C10.2174 10.3438 10.491 8.51175 11.132 6.7474C11.1835 6.60643 11.1527 6.53762 11.0157 6.46769C10.4518 6.18016 9.9187 5.84116 9.42196 5.44735C9.30784 5.35728 9.24015 5.37406 9.14281 5.46692C7.21791 7.30736 6.15673 9.55391 5.95982 12.2105C5.94639 12.3918 5.9917 12.4539 6.18134 12.4505C6.80395 12.4399 7.42713 12.4466 8.0503 12.4466ZM23.9569 12.4466C24.5616 12.4466 25.1663 12.4343 25.7705 12.4527C26.0188 12.4606 26.0658 12.3755 26.0407 12.1507C25.9858 11.6517 25.9321 11.1527 25.8208 10.6621C25.3649 8.64712 24.386 6.92976 22.8946 5.50105C22.7581 5.37015 22.6725 5.36735 22.5276 5.48371C22.0482 5.86857 21.5263 6.19247 20.9786 6.47049C20.8399 6.54098 20.8181 6.6137 20.8679 6.75075C21.5117 8.5151 21.7831 10.3471 21.8474 12.2155C21.8535 12.3957 21.9044 12.4544 22.0874 12.4511C22.7105 12.441 23.3337 12.4471 23.9569 12.4471V12.4466ZM18.7108 12.4466C19.4173 12.4466 20.1233 12.4399 20.8293 12.4511C21.0329 12.4544 21.1017 12.4063 21.0933 12.1887C21.0721 11.6215 21.0323 11.057 20.9647 10.4943C20.8248 9.32959 20.5781 8.18841 20.1899 7.07912C20.1429 6.94486 20.1026 6.87885 19.9421 6.94263C18.873 7.36945 17.7626 7.61615 16.6119 7.66985C16.4341 7.67824 16.3809 7.74369 16.382 7.92214C16.3893 9.35365 16.3893 10.7852 16.382 12.2167C16.3809 12.4035 16.4402 12.4527 16.6198 12.4505C17.3168 12.4415 18.0138 12.4471 18.7108 12.4471V12.4466ZM15.6168 10.0663C15.6168 9.35085 15.6106 8.63538 15.6212 7.9199C15.624 7.73754 15.5631 7.67824 15.3885 7.67041C14.2474 7.62006 13.147 7.37281 12.0864 6.95214C11.9191 6.88557 11.8671 6.93032 11.814 7.08471C11.2389 8.74893 10.9665 10.4646 10.9128 12.2206C10.9066 12.4169 10.9793 12.4505 11.1511 12.4499C12.563 12.4449 13.9749 12.4438 15.3869 12.4511C15.572 12.4522 15.6224 12.3946 15.6201 12.2133C15.6106 11.4978 15.6162 10.7824 15.6162 10.0669L15.6168 10.0663ZM16.3865 4.83592C16.3865 5.45797 16.3927 6.08003 16.3826 6.70208C16.3798 6.88501 16.4301 6.93983 16.6159 6.9264C17.6591 6.85033 18.6677 6.62712 19.6461 6.25736C19.8 6.19918 19.8128 6.13373 19.7446 5.9922C19.4056 5.28624 19.0107 4.61663 18.4809 4.03597C17.9663 3.47154 17.3727 3.02793 16.6125 2.83606C16.4111 2.78515 16.3804 2.84501 16.3832 3.02569C16.3915 3.62929 16.3865 4.23232 16.3865 4.83592ZM15.6207 4.85829C15.6207 4.25358 15.6101 3.64887 15.6263 3.04471C15.6324 2.80697 15.5564 2.78403 15.3561 2.84557C15.0887 2.9278 14.8275 3.0201 14.5869 3.16443C13.4586 3.83851 12.7968 4.89186 12.2441 6.0364C12.1703 6.18911 12.2643 6.21093 12.3594 6.24841C13.3355 6.63104 14.348 6.84753 15.3925 6.9264C15.581 6.94095 15.628 6.88053 15.6252 6.69985C15.6157 6.08618 15.6212 5.47196 15.6212 4.85829H15.6207ZM18.665 3.12247C18.8798 3.35854 19.0543 3.53811 19.2148 3.72886C19.7077 4.314 20.0987 4.96402 20.4226 5.656C20.4718 5.76117 20.4964 5.88704 20.6754 5.78578C21.1286 5.53014 21.571 5.2605 21.9906 4.95339C22.0885 4.88179 22.1097 4.83256 21.9979 4.74977C21.0038 4.0164 19.9169 3.47545 18.665 3.12191V3.12247ZM13.288 3.16163C12.0987 3.47434 11.0174 4.00856 10.0283 4.73467C9.91703 4.81634 9.89912 4.86277 10.0222 4.95227C10.4367 5.25211 10.8663 5.52566 11.3161 5.76956C11.4453 5.83949 11.5057 5.82606 11.5684 5.69069C12.0002 4.75648 12.5512 3.90228 13.288 3.16219V3.16163Z" fill="#243A57"/>
<path d="M7.94338 26.4627C6.81842 26.4627 5.69346 26.4632 4.5685 26.4627C4.12266 26.4627 4.00351 26.3441 4.00295 25.9038C4.00183 25.3092 3.97218 24.7123 4.12825 24.1288C4.38614 23.1661 4.92037 22.3936 5.74996 21.8386C5.91275 21.7301 5.94911 21.6742 5.83219 21.4868C5.24874 20.5537 5.24258 19.5932 5.85625 18.6836C6.46432 17.7824 7.36048 17.4115 8.42446 17.6112C9.50131 17.8132 10.1838 18.4979 10.4361 19.5686C10.5989 20.26 10.4702 20.9207 10.068 21.5108C9.95834 21.6714 9.99414 21.7256 10.1373 21.8235C11.2685 22.5955 11.8435 23.6796 11.9079 25.0401C11.9224 25.3461 11.9146 25.6538 11.9112 25.9609C11.9073 26.3295 11.7742 26.4621 11.401 26.4632C10.2481 26.4654 9.09574 26.4643 7.94282 26.4643L7.94338 26.4627ZM7.94282 25.6957C8.92792 25.6957 9.91247 25.6974 10.8976 25.6929C10.991 25.6929 11.1331 25.7595 11.1465 25.5682C11.2355 24.2821 10.7952 23.0704 9.51306 22.3253C9.37489 22.2453 9.27755 22.2828 9.1556 22.3466C8.36684 22.7583 7.56858 22.7678 6.7815 22.3555C6.59354 22.2571 6.46488 22.2783 6.30153 22.3824C5.17378 23.1006 4.70668 24.1434 4.75926 25.4563C4.76709 25.6577 4.82863 25.7007 5.01603 25.6991C5.99162 25.6907 6.96722 25.6952 7.94282 25.6952V25.6957ZM6.16839 20.0832C6.1628 21.0795 6.95267 21.8839 7.94114 21.8884C8.92624 21.8929 9.73906 21.0868 9.74073 20.1028C9.74241 19.1283 8.94694 18.3222 7.97526 18.3144C6.97729 18.3066 6.17399 19.0925 6.16839 20.0827V20.0832Z" fill="#243A57"/>
<path d="M16.0018 29.6061C14.8583 29.6061 13.7155 29.6072 12.5721 29.6055C12.1631 29.6049 12.0434 29.4841 12.0451 29.0713C12.0468 28.5331 12.0177 27.9933 12.1318 27.4596C12.3561 26.4085 12.9161 25.584 13.8011 24.9837C13.956 24.8786 13.9879 24.8243 13.8805 24.652C13.2976 23.72 13.2803 22.7612 13.8906 21.8483C14.4791 20.9672 15.345 20.5807 16.3956 20.753C17.5049 20.9348 18.2052 21.6156 18.4743 22.7047C18.6449 23.395 18.5174 24.0557 18.118 24.6475C18.0067 24.8125 18.0313 24.8724 18.1901 24.9815C19.3268 25.7619 19.9041 26.8549 19.9511 28.2288C19.9612 28.5259 19.9562 28.824 19.9528 29.1211C19.9483 29.474 19.8191 29.6038 19.4594 29.6049C18.3071 29.6077 17.1541 29.6061 16.0018 29.6061ZM15.9878 28.8525C16.9734 28.8525 17.9585 28.8525 18.9442 28.852C19.0594 28.852 19.1836 28.8856 19.1943 28.6886C19.2659 27.3466 18.81 26.2692 17.6503 25.5297C17.4859 25.4245 17.3572 25.4133 17.1726 25.5096C16.4045 25.9095 15.6175 25.9162 14.8483 25.5157C14.6542 25.4145 14.5154 25.424 14.3454 25.5331C13.2193 26.253 12.7494 27.2957 12.8037 28.6098C12.812 28.8078 12.8685 28.8581 13.0587 28.8565C14.0349 28.8481 15.0111 28.8525 15.9872 28.8525H15.9878ZM17.7829 23.2596C17.7857 22.2706 16.9813 21.4612 15.9962 21.4617C15.0217 21.4617 14.2178 22.2589 14.2106 23.2322C14.2027 24.2241 14.9937 25.0324 15.9827 25.0441C16.9639 25.0553 17.7801 24.2464 17.7829 23.2602V23.2596Z" fill="#243A57"/>
</svg>
