<svg width="40" height="40" viewBox="0 0 40 40" fill="none" xmlns="http://www.w3.org/2000/svg">
<rect width="40" height="40" rx="9" fill="#FEF2F8"/>
<g clip-path="url(#clip0_6837_71598)">
<path fill-rule="evenodd" clip-rule="evenodd" d="M20.0562 15.3733C15.2503 17.2279 11.2781 18.7716 11.2291 18.8037C11.1104 18.8815 11.0001 19.0681 11 19.1915C10.9998 19.3432 11.0877 19.5215 11.2023 19.602C11.2589 19.6417 12.2505 20.0257 13.406 20.4554C14.5615 20.885 15.5244 21.2549 15.5458 21.2773C15.5672 21.2998 15.9448 22.4817 16.3849 23.9038C16.8249 25.3259 17.2101 26.5439 17.2408 26.6104C17.2716 26.6769 17.3465 26.7617 17.4073 26.7988C17.532 26.8749 17.7872 26.8884 17.9052 26.8252C17.9477 26.8025 18.5001 26.3612 19.1328 25.8446C20.5144 24.7165 20.4682 24.751 20.6553 24.709C20.9508 24.6426 21.0085 24.6764 22.7455 25.9371C25.7937 28.1494 25.5716 27.9978 25.7644 27.9978C25.964 27.9978 26.105 27.9098 26.2005 27.7255C26.2957 27.5419 29.398 12.554 29.3708 12.409C29.3294 12.1884 29.098 11.9969 28.8763 12C28.8313 12.0006 24.8622 13.5186 20.0562 15.3733ZM25.3935 15.3459C25.4172 15.3696 25.4366 15.4153 25.4366 15.4474C25.4366 15.4796 24.1159 16.7328 22.5018 18.2324C18.5758 21.8799 18.4203 22.0275 18.3158 22.2059C18.1773 22.4421 18.1242 22.6801 18.0009 23.6165C17.9363 24.1072 17.8655 24.5132 17.8365 24.5592C17.7839 24.6428 17.6349 24.6675 17.5413 24.6082C17.5147 24.5913 17.2818 23.8442 17.0238 22.9478C16.5254 21.2163 16.4968 21.0648 16.6162 20.7892C16.6482 20.7155 16.7267 20.6058 16.7908 20.5454C16.9347 20.4097 25.2174 15.3039 25.2947 15.3033C25.3254 15.303 25.3698 15.3222 25.3935 15.3459Z" fill="#485F7D"/>
</g>
<defs>
<clipPath id="clip0_6837_71598">
<rect width="24" height="24" fill="white" transform="translate(8 8)"/>
</clipPath>
</defs>
</svg>
