<svg viewBox="0 0 19 16" fill="none" xmlns="http://www.w3.org/2000/svg">
<path fill-rule="evenodd" clip-rule="evenodd" d="M9.05624 3.37328C4.25029 5.22793 0.278069 6.77162 0.229085 6.80369C0.110395 6.88147 0.000144044 7.06807 3.95396e-07 7.19147C-0.000215078 7.34316 0.0876622 7.5215 0.202294 7.60202C0.258856 7.64173 1.2505 8.02574 2.40598 8.45536C3.56145 8.88502 4.52437 9.25488 4.54581 9.27732C4.56721 9.29977 4.94479 10.4817 5.38486 11.9038C5.82493 13.3259 6.21012 14.5439 6.24083 14.6104C6.27157 14.6769 6.34648 14.7617 6.40732 14.7988C6.53197 14.8749 6.78716 14.8884 6.90517 14.8252C6.94765 14.8025 7.50009 14.3612 8.13279 13.8446C9.51445 12.7165 9.46815 12.751 9.65526 12.709C9.95081 12.6426 10.0085 12.6764 11.7455 13.9371C14.7937 16.1494 14.5716 15.9978 14.7644 15.9978C14.964 15.9978 15.105 15.9098 15.2005 15.7255C15.2957 15.5419 18.398 0.553983 18.3708 0.409042C18.3294 0.188361 18.098 -0.00305159 17.8763 3.6864e-05C17.8313 0.000647372 13.8622 1.51859 9.05624 3.37328ZM14.3935 3.34591C14.4172 3.36961 14.4366 3.41529 14.4366 3.44743C14.4366 3.47958 13.1159 4.73284 11.5018 6.23243C7.57576 9.87993 7.42033 10.0275 7.31575 10.2059C7.17735 10.4421 7.12423 10.6801 7.00091 11.6165C6.93627 12.1072 6.86549 12.5132 6.83651 12.5592C6.78386 12.6428 6.63493 12.6675 6.54134 12.6082C6.5147 12.5913 6.28181 11.8442 6.02381 10.9478C5.52539 9.21634 5.49676 9.06476 5.61624 8.7892C5.64817 8.71555 5.72675 8.6058 5.79085 8.54536C5.93468 8.40968 14.2174 3.30393 14.2947 3.30328C14.3254 3.30303 14.3698 3.32221 14.3935 3.34591Z" />
</svg>
