<svg width="21" height="20" viewBox="0 0 21 20" fill="none" xmlns="http://www.w3.org/2000/svg">
<rect x="0.5" width="20" height="20" rx="4" fill="#FEF2F8"/>
<g clip-path="url(#clip0_7308_70362)">
<path fill-rule="evenodd" clip-rule="evenodd" d="M10.0375 6.91487C6.83352 8.1513 4.18538 9.18043 4.15272 9.20181C4.0736 9.25366 4.0001 9.37806 4 9.46033C3.99986 9.56146 4.05844 9.68035 4.13486 9.73403C4.17257 9.76051 4.83367 10.0165 5.60398 10.3029C6.3743 10.5894 7.01625 10.8359 7.03054 10.8509C7.04481 10.8659 7.29653 11.6538 7.58991 12.6019C7.88329 13.55 8.14008 14.362 8.16055 14.4063C8.18105 14.4506 8.23099 14.5072 8.27155 14.5319C8.35465 14.5826 8.52478 14.5916 8.60345 14.5495C8.63177 14.5343 9.00006 14.2402 9.42186 13.8957C10.343 13.1437 10.3121 13.1667 10.4368 13.1387C10.6339 13.0944 10.6723 13.1169 11.8304 13.9574C13.8625 15.4323 13.7144 15.3312 13.8429 15.3312C13.976 15.3312 14.07 15.2725 14.1337 15.1497C14.1971 15.0273 16.2653 5.03534 16.2472 4.93871C16.2196 4.79159 16.0653 4.66398 15.9175 4.66604C15.8875 4.66645 13.2415 5.67841 10.0375 6.91487ZM13.5957 6.89662C13.6115 6.91242 13.6244 6.94288 13.6244 6.9643C13.6244 6.98573 12.744 7.82124 11.6679 8.82097C9.05051 11.2526 8.94689 11.351 8.87717 11.47C8.7849 11.6274 8.74949 11.7861 8.66727 12.4104C8.62418 12.7375 8.57699 13.0081 8.55767 13.0388C8.52257 13.0946 8.42329 13.111 8.3609 13.0715C8.34313 13.0602 8.18787 12.5621 8.01587 11.9646C7.68359 10.8102 7.66451 10.7092 7.74416 10.5255C7.76545 10.4764 7.81783 10.4032 7.86057 10.3629C7.95645 10.2725 13.4783 6.86863 13.5298 6.8682C13.5502 6.86804 13.5799 6.88082 13.5957 6.89662Z" fill="#485F7D"/>
</g>
<defs>
<clipPath id="clip0_7308_70362">
<rect width="16" height="16" fill="white" transform="translate(2 2)"/>
</clipPath>
</defs>
</svg>
