<svg width="20" height="20" viewBox="0 0 20 20" fill="none" xmlns="http://www.w3.org/2000/svg">
<rect width="20" height="20" rx="4" fill="#222222"/>
<g clip-path="url(#clip0_11622_37508)">
<path fill-rule="evenodd" clip-rule="evenodd" d="M9.53749 6.91487C6.33352 8.1513 3.68538 9.18043 3.65272 9.20181C3.5736 9.25366 3.5001 9.37806 3.5 9.46033C3.49986 9.56146 3.55844 9.68035 3.63486 9.73403C3.67257 9.76051 4.33367 10.0165 5.10398 10.3029C5.8743 10.5894 6.51625 10.8359 6.53054 10.8509C6.54481 10.8659 6.79653 11.6538 7.08991 12.6019C7.38329 13.55 7.64008 14.362 7.66055 14.4063C7.68105 14.4506 7.73099 14.5072 7.77155 14.5319C7.85465 14.5826 8.02478 14.5916 8.10345 14.5495C8.13177 14.5343 8.50006 14.2402 8.92186 13.8957C9.84296 13.1437 9.8121 13.1667 9.93684 13.1387C10.1339 13.0944 10.1723 13.1169 11.3304 13.9574C13.3625 15.4323 13.2144 15.3312 13.3429 15.3312C13.476 15.3312 13.57 15.2725 13.6337 15.1497C13.6971 15.0273 15.7653 5.03534 15.7472 4.93871C15.7196 4.79159 15.5653 4.66398 15.4175 4.66604C15.3875 4.66645 12.7415 5.67841 9.53749 6.91487ZM13.0957 6.89662C13.1115 6.91242 13.1244 6.94288 13.1244 6.9643C13.1244 6.98573 12.244 7.82124 11.1679 8.82097C8.55051 11.2526 8.44689 11.351 8.37717 11.47C8.2849 11.6274 8.24949 11.7861 8.16727 12.4104C8.12418 12.7375 8.07699 13.0081 8.05767 13.0388C8.02257 13.0946 7.92329 13.111 7.8609 13.0715C7.84313 13.0602 7.68787 12.5621 7.51587 11.9646C7.18359 10.8102 7.16451 10.7092 7.24416 10.5255C7.26545 10.4764 7.31783 10.4032 7.36057 10.3629C7.45645 10.2725 12.9783 6.86863 13.0298 6.8682C13.0502 6.86804 13.0799 6.88082 13.0957 6.89662Z" fill="#595959"/>
</g>
<defs>
<clipPath id="clip0_11622_37508">
<rect width="16" height="16" fill="white" transform="translate(1.5 2)"/>
</clipPath>
</defs>
</svg>
