<svg width="16" height="15" viewBox="0 0 16 15" fill="none" xmlns="http://www.w3.org/2000/svg">
<path fill-rule="evenodd" clip-rule="evenodd" d="M8.04687 3.64505C4.04191 5.19059 0.731724 6.477 0.690904 6.50372C0.591996 6.56854 0.50012 6.72404 0.5 6.82687C0.499821 6.95328 0.573052 7.1019 0.668578 7.169C0.715713 7.2021 1.54208 7.52211 2.50498 7.88012C3.46788 8.23817 4.27031 8.54638 4.28817 8.56509C4.30601 8.58379 4.62066 9.56871 4.98738 10.7538C5.35411 11.9389 5.6751 12.9539 5.70069 13.0093C5.72631 13.0648 5.78874 13.1354 5.83943 13.1663C5.94331 13.2297 6.15597 13.241 6.25431 13.1883C6.28971 13.1694 6.75008 12.8017 7.27733 12.3711C8.4287 11.431 8.39013 11.4598 8.54605 11.4248C8.79235 11.3694 8.84038 11.3976 10.2879 12.4482C12.8281 14.2918 12.643 14.1655 12.8037 14.1655C12.97 14.1655 13.0875 14.0921 13.1671 13.9386C13.2464 13.7856 15.8317 1.29564 15.809 1.17485C15.7745 0.990952 15.5817 0.831441 15.3969 0.834015C15.3594 0.834524 12.0518 2.09947 8.04687 3.64505ZM12.4946 3.62224C12.5143 3.64199 12.5305 3.68006 12.5305 3.70685C12.5305 3.73363 11.4299 4.77802 10.0848 6.02768C6.81313 9.06726 6.68361 9.19023 6.59646 9.33894C6.48112 9.53574 6.43686 9.73409 6.33409 10.5144C6.28023 10.9234 6.22124 11.2616 6.19709 11.3C6.15322 11.3697 6.02911 11.3902 5.95112 11.3408C5.92891 11.3268 5.73484 10.7041 5.51984 9.95717C5.10449 8.51427 5.08064 8.38795 5.1802 8.15832C5.20681 8.09694 5.27229 8.00548 5.32571 7.95512C5.44556 7.84205 12.3478 3.58726 12.4123 3.58672C12.4378 3.58651 12.4748 3.60249 12.4946 3.62224Z"/>
</svg>
