<svg width="40" height="41" viewBox="0 0 40 41" fill="none" xmlns="http://www.w3.org/2000/svg">
<rect y="0.693359" width="40" height="40" rx="9" fill="#222222"/>
<g clip-path="url(#clip0_11609_36919)">
<path fill-rule="evenodd" clip-rule="evenodd" d="M20.0562 16.0666C15.2503 17.9213 11.2781 19.465 11.2291 19.497C11.1104 19.5748 11.0001 19.7614 11 19.8848C10.9998 20.0365 11.0877 20.2149 11.2023 20.2954C11.2589 20.3351 12.2505 20.7191 13.406 21.1487C14.5615 21.5784 15.5244 21.9482 15.5458 21.9707C15.5672 21.9931 15.9448 23.175 16.3849 24.5972C16.8249 26.0193 17.2101 27.2373 17.2408 27.3038C17.2716 27.3703 17.3465 27.4551 17.4073 27.4922C17.532 27.5682 17.7872 27.5817 17.9052 27.5186C17.9477 27.4959 18.5001 27.0546 19.1328 26.5379C20.5144 25.4098 20.4682 25.4444 20.6553 25.4023C20.9508 25.3359 21.0085 25.3697 22.7455 26.6305C25.7937 28.8427 25.5716 28.6912 25.7644 28.6912C25.964 28.6912 26.105 28.6031 26.2005 28.4189C26.2957 28.2353 29.398 13.2473 29.3708 13.1024C29.3294 12.8817 29.098 12.6903 28.8763 12.6934C28.8313 12.694 24.8622 14.2119 20.0562 16.0666ZM25.3935 16.0393C25.4172 16.063 25.4366 16.1087 25.4366 16.1408C25.4366 16.1729 24.1159 17.4262 22.5018 18.9258C18.5758 22.5733 18.4203 22.7209 18.3158 22.8993C18.1773 23.1355 18.1242 23.3735 18.0009 24.3099C17.9363 24.8006 17.8655 25.2066 17.8365 25.2526C17.7839 25.3362 17.6349 25.3609 17.5413 25.3016C17.5147 25.2847 17.2818 24.5375 17.0238 23.6412C16.5254 21.9097 16.4968 21.7581 16.6162 21.4826C16.6482 21.4089 16.7267 21.2992 16.7908 21.2387C16.9347 21.103 25.2174 15.9973 25.2947 15.9966C25.3254 15.9964 25.3698 16.0156 25.3935 16.0393Z" fill="#595959"/>
</g>
<defs>
<clipPath id="clip0_11609_36919">
<rect width="24" height="24" fill="white" transform="translate(8 8.69336)"/>
</clipPath>
</defs>
</svg>
