<svg width="16" height="16" viewBox="0 0 16 16" fill="none" xmlns="http://www.w3.org/2000/svg">
<path d="M7.99998 4.8001C7.11632 4.8001 6.39998 4.08375 6.39998 3.2001C6.39998 2.31644 7.11632 1.6001 7.99998 1.6001C8.88363 1.6001 9.59998 2.31644 9.59998 3.2001C9.59998 4.08375 8.88363 4.8001 7.99998 4.8001Z" fill="white"/>
<path d="M7.99998 9.6001C7.11632 9.6001 6.39998 8.88375 6.39998 8.0001C6.39998 7.11644 7.11632 6.4001 7.99998 6.4001C8.88363 6.4001 9.59998 7.11644 9.59998 8.0001C9.59998 8.88375 8.88363 9.6001 7.99998 9.6001Z" fill="white"/>
<path d="M6.39998 12.8001C6.39998 13.6838 7.11632 14.4001 7.99998 14.4001C8.88363 14.4001 9.59998 13.6838 9.59998 12.8001C9.59998 11.9164 8.88363 11.2001 7.99998 11.2001C7.11632 11.2001 6.39998 11.9164 6.39998 12.8001Z" fill="white"/>
</svg>
