<svg width="23" height="23" viewBox="0 0 23 23" fill="none" xmlns="http://www.w3.org/2000/svg">
<path d="M3.90069 12.4643C4.17148 12.7351 4.50778 12.873 4.89199 12.873C5.2762 12.873 5.6125 12.7351 5.88329 12.4643C6.15408 12.1936 6.29199 11.8573 6.29199 11.473C6.29199 11.0888 6.15408 10.7525 5.88329 10.4817C5.6125 10.211 5.2762 10.073 4.89199 10.073C4.50778 10.073 4.17148 10.211 3.90069 10.4817C3.6299 10.7525 3.49199 11.0888 3.49199 11.473C3.49199 11.8573 3.6299 12.1936 3.90069 12.4643ZM10.134 12.4643C10.4048 12.7351 10.7411 12.873 11.1253 12.873C11.5095 12.873 11.8458 12.7351 12.1166 12.4643C12.3874 12.1936 12.5253 11.8573 12.5253 11.473C12.5253 11.0888 12.3874 10.7525 12.1166 10.4817C11.8458 10.211 11.5095 10.073 11.1253 10.073C10.7411 10.073 10.4048 10.211 10.134 10.4817C9.86324 10.7525 9.72533 11.0888 9.72533 11.473C9.72533 11.8573 9.86324 12.1936 10.134 12.4643ZM16.3674 12.4643C16.6381 12.7351 16.9744 12.873 17.3587 12.873C17.7429 12.873 18.0792 12.7351 18.35 12.4643C18.6207 12.1936 18.7587 11.8573 18.7587 11.473C18.7587 11.0888 18.6207 10.7525 18.35 10.4817C18.0792 10.211 17.7429 10.073 17.3587 10.073C16.9744 10.073 16.6381 10.211 16.3674 10.4817C16.0966 10.7525 15.9587 11.0888 15.9587 11.473C15.9587 11.8573 16.0966 12.1936 16.3674 12.4643Z" fill="#E5007A" stroke="#E5007A" stroke-width="0.6"/>
</svg>
