<svg width="24" height="24" viewBox="0 0 24 24" fill="none" xmlns="http://www.w3.org/2000/svg">
<path d="M8.5 11.75C8.5 12.7165 7.7165 13.5 6.75 13.5C5.7835 13.5 5 12.7165 5 11.75C5 10.7835 5.7835 10 6.75 10C7.7165 10 8.5 10.7835 8.5 11.75Z" fill="#9E9E9E" fill-opacity="0.8"/>
<path d="M13.75 11.75C13.75 12.7165 12.9665 13.5 12 13.5C11.0335 13.5 10.25 12.7165 10.25 11.75C10.25 10.7835 11.0335 10 12 10C12.9665 10 13.75 10.7835 13.75 11.75Z" fill="#9E9E9E" fill-opacity="0.8"/>
<path d="M17.25 13.5C18.2165 13.5 19 12.7165 19 11.75C19 10.7835 18.2165 10 17.25 10C16.2835 10 15.5 10.7835 15.5 11.75C15.5 12.7165 16.2835 13.5 17.25 13.5Z" fill="#9E9E9E" fill-opacity="0.8"/>
</svg>
