<svg width="23" height="23" viewBox="0 0 23 23" fill="none" xmlns="http://www.w3.org/2000/svg">
<rect x="0.111328" y="0.306641" width="22" height="22" rx="11" fill="#FEF2F8"/>
<path d="M4.87832 12.407C4.57276 12.407 4.31304 12.3001 4.09915 12.0862C3.88526 11.8723 3.77832 11.6126 3.77832 11.307C3.77832 11.0015 3.88526 10.7418 4.09915 10.5279C4.31304 10.314 4.57276 10.207 4.87832 10.207C5.18388 10.207 5.4436 10.314 5.65749 10.5279C5.87138 10.7418 5.97832 11.0015 5.97832 11.307C5.97832 11.6126 5.87138 11.8723 5.65749 12.0862C5.4436 12.3001 5.18388 12.407 4.87832 12.407ZM11.1117 12.407C10.8061 12.407 10.5464 12.3001 10.3325 12.0862C10.1186 11.8723 10.0117 11.6126 10.0117 11.307C10.0117 11.0015 10.1186 10.7418 10.3325 10.5279C10.5464 10.314 10.8061 10.207 11.1117 10.207C11.4172 10.207 11.6769 10.314 11.8908 10.5279C12.1047 10.7418 12.2117 11.0015 12.2117 11.307C12.2117 11.6126 12.1047 11.8723 11.8908 12.0862C11.6769 12.3001 11.4172 12.407 11.1117 12.407ZM17.345 12.407C17.0394 12.407 16.7797 12.3001 16.5658 12.0862C16.3519 11.8723 16.245 11.6126 16.245 11.307C16.245 11.0015 16.3519 10.7418 16.5658 10.5279C16.7797 10.314 17.0394 10.207 17.345 10.207C17.6505 10.207 17.9103 10.314 18.1242 10.5279C18.338 10.7418 18.445 11.0015 18.445 11.307C18.445 11.6126 18.338 11.8723 18.1242 12.0862C17.9103 12.3001 17.6505 12.407 17.345 12.407Z" fill="#E5007A"/>
</svg>
