<svg width="33" height="33" viewBox="0 0 33 33" fill="none" xmlns="http://www.w3.org/2000/svg">
<mask id="path-1-outside-1_1817_43933" maskUnits="userSpaceOnUse" x="1.49414" y="1.01758" width="30" height="30" fill="black">
<rect fill="white" x="1.49414" y="1.01758" width="30" height="30"/>
<path fill-rule="evenodd" clip-rule="evenodd" d="M16.541 2.0766C16.3324 2.17322 16.1453 2.37198 16.0659 2.58134C16.0293 2.67802 16.0062 3.27172 16.0067 4.10249C16.0076 5.40769 16.013 5.47451 16.1338 5.6904C16.2701 5.93407 16.65 6.16928 16.9072 6.16928C17.1636 6.16928 17.5444 5.93396 17.6822 5.6904C17.8068 5.4704 17.8094 5.43085 17.7952 4.01832C17.7813 2.6574 17.7736 2.56235 17.6643 2.41615C17.6004 2.33063 17.4819 2.21119 17.4009 2.15074C17.2142 2.01136 16.7656 1.97265 16.541 2.0766ZM7.06567 6.00601C6.63812 6.12973 6.3682 6.63233 6.48639 7.08479C6.53935 7.2875 6.70617 7.48131 7.57312 8.34724C8.54919 9.32224 8.60975 9.3721 8.86418 9.4099C9.46323 9.49886 9.98358 8.97896 9.89395 8.38104C9.85626 8.12988 9.80093 8.06137 8.88762 7.13527C7.74444 5.9761 7.56134 5.86258 7.06567 6.00601ZM26.1187 6.05086C25.9789 6.11565 25.5263 6.52743 24.9269 7.13527C24.0207 8.05416 23.958 8.13146 23.9214 8.37541C23.8186 9.0606 24.4629 9.6005 25.0952 9.35903C25.4495 9.2237 27.2358 7.41522 27.3298 7.09662C27.4634 6.64428 27.1771 6.129 26.722 6.00258C26.4408 5.92449 26.381 5.92928 26.1187 6.05086ZM15.865 8.06729C12.6866 8.47924 10.0319 10.6157 8.97416 13.6127C8.62632 14.5984 8.54085 15.1482 8.54158 16.3948C8.54237 17.6349 8.60699 18.0962 8.90987 19.0231C9.37963 20.4605 10.2751 21.8057 11.386 22.7427C12.2353 23.4591 12.59 23.8552 12.8406 24.3669C13.2357 25.1737 13.2568 25.3079 13.3008 27.2964C13.3363 28.9001 13.3515 29.1022 13.4583 29.3941C13.6843 30.0115 14.038 30.4082 14.5973 30.6717L14.9072 30.8176H16.9072H18.9073L19.2824 30.6398C19.7484 30.419 20.0835 30.0821 20.3103 29.6063L20.4848 29.2401L20.5178 27.3246C20.5458 25.706 20.5664 25.361 20.6509 25.0992C20.9084 24.3017 21.3563 23.6693 22.1356 23.0035C23.2231 22.0741 23.8909 21.2482 24.4268 20.1695C25.021 18.9738 25.2387 18.0865 25.284 16.6765C25.31 15.8685 25.2967 15.613 25.1989 15.0427C24.6955 12.107 22.7402 9.68923 19.9839 8.59428C19.4709 8.3905 18.613 8.17011 18.0159 8.08858C17.6025 8.03219 16.2398 8.01867 15.865 8.06729ZM18.0126 9.91729C19.3465 10.1465 20.4842 10.7206 21.4593 11.6567C22.0545 12.2282 22.4121 12.702 22.7605 13.3807C23.2809 14.3944 23.4989 15.2926 23.4989 16.423C23.4989 17.5328 23.2634 18.5036 22.7589 19.4733C22.3127 20.3309 21.8655 20.851 20.6863 21.8841C19.7189 22.7315 19.0294 23.9043 18.8153 25.0666L18.7469 25.4372H16.9044H15.062L14.941 24.9161C14.6241 23.5517 13.9187 22.4639 12.7663 21.5623C12.6114 21.4411 12.3069 21.1542 12.0898 20.9247C10.4386 19.18 9.87913 16.5848 10.655 14.269C11.4096 12.0167 13.3592 10.3468 15.7374 9.91566C16.3032 9.81312 17.4107 9.81391 18.0126 9.91729ZM16.7696 11.1378C15.9444 11.6213 16.3152 12.8173 17.2904 12.8173C17.6771 12.8173 18.373 13.0068 18.7841 13.224C19.2346 13.4621 19.8681 14.0957 20.1062 14.5461C20.3234 14.9572 20.5129 15.6532 20.5129 16.0399C20.5129 16.8007 21.2661 17.2613 21.8849 16.8789C22.2858 16.6311 22.392 16.1941 22.2556 15.3525C21.8721 12.9856 19.8872 11.1747 17.527 11.0385C17.0383 11.0103 16.9724 11.0189 16.7696 11.1378ZM3.01687 15.6008C2.48898 15.8307 2.32289 16.5497 2.69535 16.9924C2.95749 17.3039 3.07484 17.3245 4.58129 17.3235C5.89213 17.3226 5.95872 17.3173 6.17467 17.1965C6.41834 17.0602 6.65355 16.6802 6.65355 16.423C6.65355 16.1657 6.41834 15.7858 6.17467 15.6495C5.95822 15.5284 5.89472 15.5235 4.56901 15.5247C3.54753 15.5256 3.14403 15.5454 3.01687 15.6008ZM27.6398 15.648C27.3963 15.7858 27.1609 16.1666 27.1609 16.423C27.1609 16.6793 27.3963 17.0601 27.6398 17.198C27.8598 17.3225 27.8994 17.3251 29.3119 17.3109C30.905 17.2948 30.8957 17.2967 31.1857 16.9083C31.3486 16.6902 31.3486 16.1558 31.1857 15.9376C30.8957 15.5492 30.905 15.5512 29.3119 15.5351C27.8994 15.5208 27.8598 15.5235 27.6398 15.648ZM8.73809 23.4501C8.64987 23.4663 8.21476 23.858 7.57312 24.4988C6.44487 25.6257 6.35929 25.7608 6.4829 26.2199C6.56138 26.5113 6.90528 26.8212 7.20663 26.8721C7.60602 26.9396 7.82597 26.7877 8.88762 25.7109C9.80087 24.7846 9.85626 24.7161 9.89395 24.4649C9.95158 24.0807 9.7607 23.7095 9.4163 23.5358C9.1732 23.4132 9.03511 23.3958 8.73809 23.4501ZM24.4156 23.5166C23.9996 23.7108 23.8078 24.1831 23.9712 24.6109C24.1065 24.9652 25.915 26.7515 26.2336 26.8456C26.8811 27.0367 27.5211 26.3967 27.3298 25.7493C27.2771 25.5709 27.0658 25.3228 26.3526 24.6017C25.8521 24.0957 25.3751 23.6328 25.2925 23.5731C25.0634 23.4075 24.6995 23.384 24.4156 23.5166ZM18.7101 28.0384C18.7101 28.7023 18.6944 28.8542 18.6169 28.9399C18.5307 29.0351 18.4033 29.0428 16.9408 29.0421C16.0702 29.0415 15.3278 29.0221 15.2911 28.9986C15.1553 28.9123 15.1044 28.624 15.1044 27.9406V27.2401H16.9072H18.7101V28.0384Z"/>
</mask>
<path fill-rule="evenodd" clip-rule="evenodd" d="M16.541 2.0766C16.3324 2.17322 16.1453 2.37198 16.0659 2.58134C16.0293 2.67802 16.0062 3.27172 16.0067 4.10249C16.0076 5.40769 16.013 5.47451 16.1338 5.6904C16.2701 5.93407 16.65 6.16928 16.9072 6.16928C17.1636 6.16928 17.5444 5.93396 17.6822 5.6904C17.8068 5.4704 17.8094 5.43085 17.7952 4.01832C17.7813 2.6574 17.7736 2.56235 17.6643 2.41615C17.6004 2.33063 17.4819 2.21119 17.4009 2.15074C17.2142 2.01136 16.7656 1.97265 16.541 2.0766ZM7.06567 6.00601C6.63812 6.12973 6.3682 6.63233 6.48639 7.08479C6.53935 7.2875 6.70617 7.48131 7.57312 8.34724C8.54919 9.32224 8.60975 9.3721 8.86418 9.4099C9.46323 9.49886 9.98358 8.97896 9.89395 8.38104C9.85626 8.12988 9.80093 8.06137 8.88762 7.13527C7.74444 5.9761 7.56134 5.86258 7.06567 6.00601ZM26.1187 6.05086C25.9789 6.11565 25.5263 6.52743 24.9269 7.13527C24.0207 8.05416 23.958 8.13146 23.9214 8.37541C23.8186 9.0606 24.4629 9.6005 25.0952 9.35903C25.4495 9.2237 27.2358 7.41522 27.3298 7.09662C27.4634 6.64428 27.1771 6.129 26.722 6.00258C26.4408 5.92449 26.381 5.92928 26.1187 6.05086ZM15.865 8.06729C12.6866 8.47924 10.0319 10.6157 8.97416 13.6127C8.62632 14.5984 8.54085 15.1482 8.54158 16.3948C8.54237 17.6349 8.60699 18.0962 8.90987 19.0231C9.37963 20.4605 10.2751 21.8057 11.386 22.7427C12.2353 23.4591 12.59 23.8552 12.8406 24.3669C13.2357 25.1737 13.2568 25.3079 13.3008 27.2964C13.3363 28.9001 13.3515 29.1022 13.4583 29.3941C13.6843 30.0115 14.038 30.4082 14.5973 30.6717L14.9072 30.8176H16.9072H18.9073L19.2824 30.6398C19.7484 30.419 20.0835 30.0821 20.3103 29.6063L20.4848 29.2401L20.5178 27.3246C20.5458 25.706 20.5664 25.361 20.6509 25.0992C20.9084 24.3017 21.3563 23.6693 22.1356 23.0035C23.2231 22.0741 23.8909 21.2482 24.4268 20.1695C25.021 18.9738 25.2387 18.0865 25.284 16.6765C25.31 15.8685 25.2967 15.613 25.1989 15.0427C24.6955 12.107 22.7402 9.68923 19.9839 8.59428C19.4709 8.3905 18.613 8.17011 18.0159 8.08858C17.6025 8.03219 16.2398 8.01867 15.865 8.06729ZM18.0126 9.91729C19.3465 10.1465 20.4842 10.7206 21.4593 11.6567C22.0545 12.2282 22.4121 12.702 22.7605 13.3807C23.2809 14.3944 23.4989 15.2926 23.4989 16.423C23.4989 17.5328 23.2634 18.5036 22.7589 19.4733C22.3127 20.3309 21.8655 20.851 20.6863 21.8841C19.7189 22.7315 19.0294 23.9043 18.8153 25.0666L18.7469 25.4372H16.9044H15.062L14.941 24.9161C14.6241 23.5517 13.9187 22.4639 12.7663 21.5623C12.6114 21.4411 12.3069 21.1542 12.0898 20.9247C10.4386 19.18 9.87913 16.5848 10.655 14.269C11.4096 12.0167 13.3592 10.3468 15.7374 9.91566C16.3032 9.81312 17.4107 9.81391 18.0126 9.91729ZM16.7696 11.1378C15.9444 11.6213 16.3152 12.8173 17.2904 12.8173C17.6771 12.8173 18.373 13.0068 18.7841 13.224C19.2346 13.4621 19.8681 14.0957 20.1062 14.5461C20.3234 14.9572 20.5129 15.6532 20.5129 16.0399C20.5129 16.8007 21.2661 17.2613 21.8849 16.8789C22.2858 16.6311 22.392 16.1941 22.2556 15.3525C21.8721 12.9856 19.8872 11.1747 17.527 11.0385C17.0383 11.0103 16.9724 11.0189 16.7696 11.1378ZM3.01687 15.6008C2.48898 15.8307 2.32289 16.5497 2.69535 16.9924C2.95749 17.3039 3.07484 17.3245 4.58129 17.3235C5.89213 17.3226 5.95872 17.3173 6.17467 17.1965C6.41834 17.0602 6.65355 16.6802 6.65355 16.423C6.65355 16.1657 6.41834 15.7858 6.17467 15.6495C5.95822 15.5284 5.89472 15.5235 4.56901 15.5247C3.54753 15.5256 3.14403 15.5454 3.01687 15.6008ZM27.6398 15.648C27.3963 15.7858 27.1609 16.1666 27.1609 16.423C27.1609 16.6793 27.3963 17.0601 27.6398 17.198C27.8598 17.3225 27.8994 17.3251 29.3119 17.3109C30.905 17.2948 30.8957 17.2967 31.1857 16.9083C31.3486 16.6902 31.3486 16.1558 31.1857 15.9376C30.8957 15.5492 30.905 15.5512 29.3119 15.5351C27.8994 15.5208 27.8598 15.5235 27.6398 15.648ZM8.73809 23.4501C8.64987 23.4663 8.21476 23.858 7.57312 24.4988C6.44487 25.6257 6.35929 25.7608 6.4829 26.2199C6.56138 26.5113 6.90528 26.8212 7.20663 26.8721C7.60602 26.9396 7.82597 26.7877 8.88762 25.7109C9.80087 24.7846 9.85626 24.7161 9.89395 24.4649C9.95158 24.0807 9.7607 23.7095 9.4163 23.5358C9.1732 23.4132 9.03511 23.3958 8.73809 23.4501ZM24.4156 23.5166C23.9996 23.7108 23.8078 24.1831 23.9712 24.6109C24.1065 24.9652 25.915 26.7515 26.2336 26.8456C26.8811 27.0367 27.5211 26.3967 27.3298 25.7493C27.2771 25.5709 27.0658 25.3228 26.3526 24.6017C25.8521 24.0957 25.3751 23.6328 25.2925 23.5731C25.0634 23.4075 24.6995 23.384 24.4156 23.5166ZM18.7101 28.0384C18.7101 28.7023 18.6944 28.8542 18.6169 28.9399C18.5307 29.0351 18.4033 29.0428 16.9408 29.0421C16.0702 29.0415 15.3278 29.0221 15.2911 28.9986C15.1553 28.9123 15.1044 28.624 15.1044 27.9406V27.2401H16.9072H18.7101V28.0384Z" fill="#334D6E"/>
<path fill-rule="evenodd" clip-rule="evenodd" d="M16.541 2.0766C16.3324 2.17322 16.1453 2.37198 16.0659 2.58134C16.0293 2.67802 16.0062 3.27172 16.0067 4.10249C16.0076 5.40769 16.013 5.47451 16.1338 5.6904C16.2701 5.93407 16.65 6.16928 16.9072 6.16928C17.1636 6.16928 17.5444 5.93396 17.6822 5.6904C17.8068 5.4704 17.8094 5.43085 17.7952 4.01832C17.7813 2.6574 17.7736 2.56235 17.6643 2.41615C17.6004 2.33063 17.4819 2.21119 17.4009 2.15074C17.2142 2.01136 16.7656 1.97265 16.541 2.0766ZM7.06567 6.00601C6.63812 6.12973 6.3682 6.63233 6.48639 7.08479C6.53935 7.2875 6.70617 7.48131 7.57312 8.34724C8.54919 9.32224 8.60975 9.3721 8.86418 9.4099C9.46323 9.49886 9.98358 8.97896 9.89395 8.38104C9.85626 8.12988 9.80093 8.06137 8.88762 7.13527C7.74444 5.9761 7.56134 5.86258 7.06567 6.00601ZM26.1187 6.05086C25.9789 6.11565 25.5263 6.52743 24.9269 7.13527C24.0207 8.05416 23.958 8.13146 23.9214 8.37541C23.8186 9.0606 24.4629 9.6005 25.0952 9.35903C25.4495 9.2237 27.2358 7.41522 27.3298 7.09662C27.4634 6.64428 27.1771 6.129 26.722 6.00258C26.4408 5.92449 26.381 5.92928 26.1187 6.05086ZM15.865 8.06729C12.6866 8.47924 10.0319 10.6157 8.97416 13.6127C8.62632 14.5984 8.54085 15.1482 8.54158 16.3948C8.54237 17.6349 8.60699 18.0962 8.90987 19.0231C9.37963 20.4605 10.2751 21.8057 11.386 22.7427C12.2353 23.4591 12.59 23.8552 12.8406 24.3669C13.2357 25.1737 13.2568 25.3079 13.3008 27.2964C13.3363 28.9001 13.3515 29.1022 13.4583 29.3941C13.6843 30.0115 14.038 30.4082 14.5973 30.6717L14.9072 30.8176H16.9072H18.9073L19.2824 30.6398C19.7484 30.419 20.0835 30.0821 20.3103 29.6063L20.4848 29.2401L20.5178 27.3246C20.5458 25.706 20.5664 25.361 20.6509 25.0992C20.9084 24.3017 21.3563 23.6693 22.1356 23.0035C23.2231 22.0741 23.8909 21.2482 24.4268 20.1695C25.021 18.9738 25.2387 18.0865 25.284 16.6765C25.31 15.8685 25.2967 15.613 25.1989 15.0427C24.6955 12.107 22.7402 9.68923 19.9839 8.59428C19.4709 8.3905 18.613 8.17011 18.0159 8.08858C17.6025 8.03219 16.2398 8.01867 15.865 8.06729ZM18.0126 9.91729C19.3465 10.1465 20.4842 10.7206 21.4593 11.6567C22.0545 12.2282 22.4121 12.702 22.7605 13.3807C23.2809 14.3944 23.4989 15.2926 23.4989 16.423C23.4989 17.5328 23.2634 18.5036 22.7589 19.4733C22.3127 20.3309 21.8655 20.851 20.6863 21.8841C19.7189 22.7315 19.0294 23.9043 18.8153 25.0666L18.7469 25.4372H16.9044H15.062L14.941 24.9161C14.6241 23.5517 13.9187 22.4639 12.7663 21.5623C12.6114 21.4411 12.3069 21.1542 12.0898 20.9247C10.4386 19.18 9.87913 16.5848 10.655 14.269C11.4096 12.0167 13.3592 10.3468 15.7374 9.91566C16.3032 9.81312 17.4107 9.81391 18.0126 9.91729ZM16.7696 11.1378C15.9444 11.6213 16.3152 12.8173 17.2904 12.8173C17.6771 12.8173 18.373 13.0068 18.7841 13.224C19.2346 13.4621 19.8681 14.0957 20.1062 14.5461C20.3234 14.9572 20.5129 15.6532 20.5129 16.0399C20.5129 16.8007 21.2661 17.2613 21.8849 16.8789C22.2858 16.6311 22.392 16.1941 22.2556 15.3525C21.8721 12.9856 19.8872 11.1747 17.527 11.0385C17.0383 11.0103 16.9724 11.0189 16.7696 11.1378ZM3.01687 15.6008C2.48898 15.8307 2.32289 16.5497 2.69535 16.9924C2.95749 17.3039 3.07484 17.3245 4.58129 17.3235C5.89213 17.3226 5.95872 17.3173 6.17467 17.1965C6.41834 17.0602 6.65355 16.6802 6.65355 16.423C6.65355 16.1657 6.41834 15.7858 6.17467 15.6495C5.95822 15.5284 5.89472 15.5235 4.56901 15.5247C3.54753 15.5256 3.14403 15.5454 3.01687 15.6008ZM27.6398 15.648C27.3963 15.7858 27.1609 16.1666 27.1609 16.423C27.1609 16.6793 27.3963 17.0601 27.6398 17.198C27.8598 17.3225 27.8994 17.3251 29.3119 17.3109C30.905 17.2948 30.8957 17.2967 31.1857 16.9083C31.3486 16.6902 31.3486 16.1558 31.1857 15.9376C30.8957 15.5492 30.905 15.5512 29.3119 15.5351C27.8994 15.5208 27.8598 15.5235 27.6398 15.648ZM8.73809 23.4501C8.64987 23.4663 8.21476 23.858 7.57312 24.4988C6.44487 25.6257 6.35929 25.7608 6.4829 26.2199C6.56138 26.5113 6.90528 26.8212 7.20663 26.8721C7.60602 26.9396 7.82597 26.7877 8.88762 25.7109C9.80087 24.7846 9.85626 24.7161 9.89395 24.4649C9.95158 24.0807 9.7607 23.7095 9.4163 23.5358C9.1732 23.4132 9.03511 23.3958 8.73809 23.4501ZM24.4156 23.5166C23.9996 23.7108 23.8078 24.1831 23.9712 24.6109C24.1065 24.9652 25.915 26.7515 26.2336 26.8456C26.8811 27.0367 27.5211 26.3967 27.3298 25.7493C27.2771 25.5709 27.0658 25.3228 26.3526 24.6017C25.8521 24.0957 25.3751 23.6328 25.2925 23.5731C25.0634 23.4075 24.6995 23.384 24.4156 23.5166ZM18.7101 28.0384C18.7101 28.7023 18.6944 28.8542 18.6169 28.9399C18.5307 29.0351 18.4033 29.0428 16.9408 29.0421C16.0702 29.0415 15.3278 29.0221 15.2911 28.9986C15.1553 28.9123 15.1044 28.624 15.1044 27.9406V27.2401H16.9072H18.7101V28.0384Z" stroke="#334D6E" stroke-width="0.2" mask="url(#path-1-outside-1_1817_43933)"/>
</svg>
