<svg width="28" height="29" viewBox="0 0 28 29" fill="none" xmlns="http://www.w3.org/2000/svg">
<path d="M15.532 3.39453H15.8984C16.0066 3.45855 16.1214 3.48725 16.2472 3.48725C16.7417 3.48504 17.2274 3.57996 17.7042 3.68813C18.6313 3.89784 19.5143 4.2378 20.3444 4.708C21.3466 5.27532 22.234 5.97731 22.9934 6.84927C23.5055 7.43647 23.9404 8.07002 24.3112 8.75214C24.7858 9.62631 25.1037 10.5557 25.3046 11.5248C25.4746 12.3393 25.362 13.0766 24.5783 13.5557C24.4724 13.6219 24.4989 13.6705 24.5364 13.7433C24.7042 14.0634 24.7262 14.3945 24.5761 14.7234C24.5143 14.8581 24.5364 14.9133 24.6666 14.9817C25.234 15.2775 25.5254 15.9817 25.3377 16.591C25.2251 16.953 25.0044 17.2334 24.6733 17.4276C24.5894 17.4762 24.4658 17.5005 24.532 17.6528C24.7572 18.1583 24.713 18.644 24.4238 19.1142C24.3841 19.1782 24.3708 19.2157 24.4746 19.2599C25 19.4806 25.3201 19.8493 25.362 20.4519C25.3995 20.9773 25.2296 21.3813 24.8145 21.6925C24.7218 21.7632 24.6777 21.8426 24.6777 21.9707C24.6777 22.2952 24.6843 22.6153 24.6313 22.942C24.5011 23.7521 24.1015 24.3724 23.4415 24.8515C22.9139 25.2334 22.3333 25.3967 21.6887 25.3945C16.3046 25.3901 10.9227 25.3901 5.53863 25.3901C4.56512 25.3901 3.83223 24.9376 3.25828 24.187C2.82119 23.6175 2.66446 22.9618 2.71965 22.2532C2.73951 21.9905 2.73951 21.7455 2.43709 21.6241C2.38852 21.6042 2.36203 21.5336 2.32009 21.4894C2.15673 21.3239 2.10596 21.0965 2 20.8978V20.2576C2.1766 19.7919 2.4106 19.3769 2.94481 19.2378C2.98455 19.2267 3 19.1914 2.96247 19.1362C2.63797 18.6572 2.62252 18.1473 2.83885 17.6219C2.86313 17.5645 2.88742 17.5468 2.81236 17.5093C2.39073 17.2996 2.1479 16.942 2 16.5093V15.8691C2.16336 15.4806 2.33554 15.1009 2.77042 14.9332C2.83223 14.9089 2.83664 14.8426 2.80574 14.7764C2.64018 14.4166 2.65784 14.0634 2.84768 13.719C2.87859 13.6616 2.88962 13.6219 2.81236 13.5777C2.38631 13.3327 2.15673 12.9354 2 12.4872V11.8029C2.10155 11.7455 2.0287 11.6528 2.04636 11.5777C2.28918 10.5601 2.60265 9.56892 3.11479 8.64839C3.79912 7.41881 4.67991 6.36362 5.80132 5.5049C6.93377 4.63736 8.18984 4.04133 9.57394 3.708C9.82781 3.64619 9.98675 3.71241 10.0971 3.93758C10.0971 4.17157 9.99337 4.31285 9.75275 4.36363C9.50551 4.41661 9.26048 4.49387 9.01986 4.57113C6.99779 5.22455 5.41059 6.46517 4.19867 8.19364C3.46578 9.24 3.00441 10.41 2.74393 11.6572C2.69316 11.9 2.62472 12.1561 2.71965 12.4122C2.90508 12.9199 3.19426 13.1098 3.80132 13.1098C10.3951 13.1098 16.9912 13.1098 23.585 13.1142C24.362 13.1142 24.7969 12.6528 24.6578 11.8404C24.5165 11.017 24.2693 10.2179 23.9006 9.46296C23.3377 8.30623 22.5982 7.29077 21.6203 6.4453C21.1126 6.00601 20.5761 5.61969 19.9934 5.29298C18.5254 4.46959 16.9382 4.11859 15.2649 4.11638C13.947 4.11638 12.6313 4.12301 11.3135 4.13404C11.0773 4.13404 10.9426 4.03912 10.9029 3.80954C10.8984 3.6197 11 3.52919 11.1744 3.46517C11.2693 3.42985 11.3863 3.50491 11.4592 3.39895H12.053C12.0817 3.46738 12.1435 3.4431 12.192 3.4431C13.2583 3.4431 14.3223 3.4431 15.3885 3.4431C15.4371 3.4431 15.4989 3.46738 15.5276 3.39895L15.532 3.39453ZM4.83443 16.0479C4.81677 15.7234 4.68432 15.5579 4.3841 15.4939C4.02428 15.4166 3.65783 15.4298 3.30022 15.474C2.78587 15.5358 2.52318 16.1097 2.78587 16.5579C2.99779 16.9221 3.41722 17.0192 3.73289 17.2488C3.98013 17.4276 4.54525 17.4232 4.77704 17.2488C4.83664 17.2047 4.84106 17.1539 4.84106 17.0921C4.83885 16.7433 4.83664 16.3967 4.83223 16.0479H4.83443ZM3.7351 21.6285C4.10596 21.8713 4.47903 21.7919 4.81015 21.5755C5.19646 21.3217 5.58057 21.0921 6.05739 21.0744C6.57395 21.0546 7.0022 21.2665 7.40176 21.5601C7.73289 21.8029 8.08609 21.825 8.46136 21.666C8.649 21.5866 8.83884 21.5777 8.98896 21.7588C9.07284 22.0237 9.02428 22.1473 8.77703 22.2665C8.10154 22.591 7.4724 22.4916 6.8852 22.0501C6.38852 21.6771 5.83223 21.6727 5.34216 22.0457C4.78808 22.4674 4.17439 22.602 3.51435 22.2885C3.39514 22.2334 3.37527 22.2886 3.37307 22.3967C3.36424 22.655 3.42384 22.9022 3.49669 23.1451C3.76821 24.0479 4.70198 24.7168 5.71523 24.7124C11.0221 24.6881 16.3289 24.7014 21.6357 24.6991C21.8256 24.6991 22.0265 24.7234 22.2053 24.6771C23.2649 24.3945 23.9934 23.6086 23.9889 22.4497C23.9889 22.2797 23.958 22.2356 23.7903 22.3128C23.3907 22.4961 22.9779 22.5115 22.5695 22.3526C22.3819 22.2797 22.1942 22.187 22.0353 22.0656C21.4768 21.6395 20.958 21.6903 20.4569 22.07C20.1015 22.3393 19.6976 22.4784 19.2406 22.4519C18.8234 22.4276 18.4923 22.2245 18.1633 21.9972C17.702 21.6771 17.2494 21.6837 16.7836 22.0038C16.3907 22.2753 15.9823 22.4828 15.479 22.4541C15.0463 22.4298 14.7064 22.2201 14.362 21.9927C14.0883 21.8139 13.8013 21.7301 13.4547 21.7963C13.1633 21.8515 12.9625 22.0369 12.7285 22.1738C12.1236 22.5292 11.5254 22.5645 10.9095 22.2003C10.6909 22.0722 10.5121 21.8647 10.2561 21.8139C10.0331 21.7698 9.91831 21.6418 9.85871 21.4409C10.0287 21.0833 10.1082 21.0546 10.4967 21.1671C10.7726 21.2466 10.9801 21.4387 11.2163 21.5821C11.521 21.7654 11.8256 21.825 12.1788 21.6881C12.426 21.5932 12.5938 21.3945 12.8278 21.2908C12.9536 21.2356 12.9426 21.1826 12.8477 21.1009C12.5717 20.8647 12.3002 20.6241 12.0287 20.3835C11.9316 20.2643 11.7859 20.1914 11.6954 20.0788C11.5342 19.8735 11.3399 19.8382 11.0971 19.8382C9.74834 19.8448 8.40176 19.8382 7.05298 19.8382C5.84989 19.8382 4.6468 19.8338 3.44371 19.836C3.10817 19.836 2.84327 20.017 2.7351 20.3018C2.61589 20.6131 2.67991 20.9111 2.96468 21.1318C3.2053 21.3195 3.47903 21.4652 3.73951 21.6285H3.7351ZM15.3841 20.3857C15.0419 20.6329 14.7572 20.9442 14.4194 21.2245C14.6247 21.3239 14.7881 21.4541 14.9625 21.5689C15.2516 21.7588 15.5695 21.8404 15.9051 21.708C16.0795 21.6395 16.2384 21.5424 16.3929 21.432C16.8079 21.1362 17.2561 21.0237 17.7726 21.1075C18.1324 21.1649 18.4172 21.3371 18.702 21.527C19.0044 21.7301 19.3223 21.836 19.6821 21.7102C19.8675 21.644 20.0309 21.538 20.192 21.4232C20.6755 21.0788 21.1964 21.006 21.7748 21.1539C22.0949 21.2356 22.3311 21.4453 22.6004 21.5998C22.9315 21.7897 23.2649 21.8338 23.6048 21.6528C23.8168 21.5402 24.0044 21.3835 24.2185 21.2797C24.6026 21.0943 24.7329 20.7985 24.6644 20.3923C24.6357 20.07 24.351 19.8382 23.958 19.836C23.4326 19.8316 22.9095 19.8404 22.3841 19.8426C20.3068 19.8426 18.2318 19.8426 16.1545 19.8426C16.0662 19.8426 15.9757 19.8294 15.8984 19.9044C15.7307 20.0678 15.5563 20.2245 15.3841 20.3835V20.3857ZM19.4062 15.1296C19.4062 15.1296 19.4084 15.1075 19.4062 15.0965C19.4525 14.8669 19.6026 14.772 19.8278 14.7742C20.3841 14.7742 20.9404 14.7742 21.4967 14.7742C22.1589 14.7742 22.8212 14.7764 23.4834 14.7742C23.7991 14.7742 24.0154 14.5358 23.9889 14.2356C23.9624 13.9508 23.7572 13.7963 23.3863 13.7963C17.1722 13.7963 10.958 13.7963 4.74172 13.7963C4.43708 13.7963 4.13245 13.7919 3.82781 13.8095C3.59382 13.8228 3.37307 14.07 3.37748 14.2775C3.3841 14.5402 3.60485 14.761 3.86976 14.7676C3.98455 14.7698 4.09713 14.7676 4.21192 14.7698C4.98234 14.7786 5.53201 15.3305 5.5298 16.0788C5.5298 16.6109 5.5298 17.1451 5.5298 17.6771C5.5298 17.783 5.5298 17.8934 5.60706 17.9773C5.69315 18.07 5.79028 18.1694 5.92936 18.1252C6.1192 18.0656 6.26048 17.953 6.25827 17.7234C6.25607 17.1826 6.25386 16.6418 6.25827 16.1009C6.25827 15.9817 6.24944 15.8647 6.28697 15.7433C6.48344 15.1031 6.91611 14.772 7.58498 14.772C11.0883 14.772 14.5916 14.772 18.0949 14.7676C18.3554 14.7676 18.5364 14.8382 18.6181 15.0943C18.6093 15.1031 18.6093 15.1142 18.6137 15.1252C18.5187 15.3945 18.4304 15.4541 18.1214 15.4541C14.6578 15.4541 11.192 15.4541 7.72847 15.4541C7.66666 15.4541 7.60706 15.4497 7.54525 15.4541C7.15894 15.4872 6.93156 15.7146 6.95143 16.0457C6.94922 16.1738 6.96026 16.3062 6.93818 16.432C6.883 16.7654 7.02869 16.9442 7.30022 17.1407C7.74172 17.4607 8.28255 17.4232 8.70419 17.1362C8.87637 17.0192 9.03531 16.878 9.24282 16.8206C9.86533 16.6462 10.4592 16.6616 10.9978 17.07C11.6093 17.5336 12.0618 17.4343 12.5872 17.0744C12.7616 16.9552 12.9293 16.825 13.1413 16.7786C13.7991 16.6351 14.3973 16.7499 14.9448 17.1671C15.3444 17.4718 15.7836 17.4519 16.2031 17.1782C16.4415 17.0237 16.6666 16.8382 16.9514 16.7742C17.596 16.6307 18.1788 16.7565 18.7174 17.1561C19.1435 17.4718 19.5739 17.4453 20.0154 17.1605C20.1964 17.0435 20.3598 16.889 20.5695 16.8228C21.234 16.6175 21.8609 16.6859 22.4304 17.112C22.8786 17.4497 23.3355 17.4629 23.8079 17.1561C23.9956 17.0347 24.1898 16.9199 24.3797 16.8007C24.6446 16.6329 24.7638 16.3084 24.6644 16.0391C24.6644 16.0016 24.6711 15.9618 24.6578 15.9287C24.5364 15.6153 24.2715 15.4475 23.8896 15.4475C22.5298 15.4475 21.1677 15.4431 19.8079 15.4475C19.5673 15.4475 19.4481 15.3371 19.404 15.1164L19.4062 15.1296ZM17.6093 17.4387C17.2494 17.3791 16.9779 17.4652 16.724 17.6594C16.4194 17.8934 16.0839 18.0457 15.6821 18.0678C15.1965 18.0943 14.7903 17.9354 14.4172 17.6528C13.9691 17.315 13.3355 17.3415 12.9029 17.6881C12.4525 18.0479 11.9271 18.1429 11.3576 18.0192C11.0177 17.9464 10.7616 17.7323 10.4812 17.5557C10.2605 17.4166 10.0331 17.3967 9.77262 17.4431C9.81677 17.4894 9.84105 17.5181 9.86975 17.5424C10.5254 18.123 11.1832 18.6992 11.8344 19.2841C12.3642 19.7588 12.8874 20.2378 13.4106 20.719C13.6954 20.9817 13.6887 20.9839 13.9536 20.7212C14.0441 20.6307 14.1523 20.5601 14.2472 20.474C14.7726 19.9972 15.2848 19.5049 15.8234 19.0457C16.011 18.8846 16.1876 18.7102 16.3797 18.5512C16.7947 18.2047 17.1854 17.8272 17.6115 17.4387H17.6093ZM16.7748 19.1583C17.7748 19.1583 18.7417 19.1583 19.7086 19.1583C20.8344 19.1583 21.9625 19.1605 23.0883 19.1583C23.6402 19.1583 24.0397 18.7058 23.9823 18.1649C23.9602 17.9442 23.9249 17.9376 23.7086 17.995C23.1987 18.1296 22.6865 18.1539 22.2406 17.8184C21.5982 17.3349 20.9911 17.293 20.3112 17.7852C19.7285 18.2069 19.0728 18.1936 18.4437 17.8184C18.3598 17.7676 18.2958 17.7543 18.2097 17.8338C17.9713 18.0546 17.7064 18.2488 17.479 18.4806C17.2583 18.7058 16.9845 18.8758 16.7704 19.1605L16.7748 19.1583ZM10.6534 19.1583C10.128 18.6815 9.64017 18.2422 9.15452 17.8007C9.08388 17.7367 9.03973 17.7588 8.96026 17.8051C8.45253 18.1053 7.91169 18.1782 7.35982 17.9574C6.97571 17.8029 6.98233 17.7808 6.8543 18.1605C6.72847 18.5314 6.19205 18.9 5.8256 18.8404C5.43488 18.7764 5.10596 18.5822 4.9426 18.2135C4.84547 17.995 4.72627 18.0126 4.54525 18.0457C4.23179 18.1031 3.91611 18.1075 3.61148 17.9817C3.51435 17.942 3.47682 17.9331 3.42384 18.0634C3.24282 18.5071 3.75055 19.1693 4.25828 19.1605C5.32229 19.1407 6.38852 19.1605 7.45474 19.1605C8.5033 19.1605 9.55187 19.1605 10.6534 19.1605V19.1583Z" fill="#010100"/>
<path d="M10.1036 3.93688C10.373 3.89273 10.6423 3.85079 10.9094 3.80664C10.9513 4.03622 11.0838 4.13335 11.32 4.13114C12.6379 4.12011 13.9535 4.11348 15.2714 4.11348C16.9425 4.11348 18.5319 4.46889 19.9999 5.29008C20.5805 5.61679 21.1191 6.00311 21.6268 6.4424C22.6047 7.28787 23.3442 8.30332 23.9072 9.46006C24.2758 10.2172 24.5231 11.0141 24.6643 11.8375C24.8034 12.6499 24.3685 13.1113 23.5915 13.1113C16.9977 13.1091 10.4017 13.1091 3.80784 13.1069C3.19857 13.1069 2.90939 12.917 2.72617 12.4093C2.63345 12.1532 2.69968 11.8949 2.75045 11.6543C3.01093 10.4071 3.4723 9.2371 4.20519 8.19074C5.41711 6.46227 7.00431 5.22386 9.02638 4.56823C9.267 4.49097 9.51203 4.4137 9.75927 4.36072C9.99989 4.30774 10.1036 4.16867 10.1036 3.93468V3.93688ZM20.0617 7.35851C20.0617 7.18191 20.0131 7.04505 19.863 7.01414C19.7019 6.98103 19.5363 6.98765 19.4039 7.13114C19.225 7.3254 19.0286 7.50642 18.8431 7.69626C18.6511 7.89052 18.6334 8.11127 18.7946 8.27021C18.9535 8.42694 19.108 8.4137 19.32 8.21502C19.5186 8.02739 19.7129 7.83533 19.8983 7.63445C19.9756 7.55057 20.0749 7.46668 20.0639 7.35851H20.0617ZM10.4966 9.70288C10.331 9.70288 10.2515 9.76248 10.1699 9.92363C10.1014 10.0605 10.1699 10.1576 10.2515 10.2437C10.4767 10.4799 10.7107 10.7095 10.9425 10.9391C11.1169 11.1113 11.3001 11.1223 11.4524 10.9744C11.607 10.8265 11.6003 10.6411 11.4237 10.4578C11.2184 10.2437 11.0065 10.0384 10.7968 9.82871C10.7129 9.74482 10.618 9.69184 10.4966 9.70288ZM8.35309 7.00973C8.24934 6.98103 8.17649 7.0296 8.10364 7.10686C7.88731 7.33202 7.66435 7.54836 7.4436 7.7669C7.27804 7.93246 7.26479 8.10465 7.40828 8.26138C7.54515 8.41149 7.74824 8.4137 7.90497 8.25917C8.13896 8.0318 8.36854 7.80001 8.59592 7.56602C8.69526 7.46447 8.76148 7.35851 8.69084 7.20399C8.62241 7.05609 8.52086 6.98324 8.35088 7.00973H8.35309ZM14.3928 7.26359C14.3884 7.19295 14.3487 7.07375 14.2405 7.0318C14.1103 6.98324 13.9425 6.95233 13.8321 7.05167C13.5672 7.29008 13.3134 7.54174 13.0794 7.80884C12.927 7.98103 12.9668 8.13997 13.139 8.29008C13.3067 8.43577 13.4502 8.38279 13.5893 8.24372C13.8189 8.01193 14.0507 7.78235 14.2824 7.55277C14.3487 7.48655 14.3928 7.41149 14.3928 7.2658V7.26359ZM15.8498 10.0693C15.8432 10.1356 15.8829 10.215 15.9624 10.2901C16.1941 10.5108 16.4171 10.7404 16.6423 10.9678C16.788 11.1135 16.9535 11.1135 17.1191 10.9766C17.2846 10.8397 17.2714 10.6676 17.1544 10.5351C16.9182 10.268 16.6599 10.0186 16.3972 9.77573C16.2935 9.68081 16.1522 9.67418 16.0153 9.73599C15.8829 9.7956 15.8542 9.90376 15.8498 10.0715V10.0693Z" fill="#FF9100"/>
<path d="M9.85761 21.4404C9.91721 21.6413 10.032 21.7694 10.255 21.8135C10.511 21.8643 10.6898 22.0718 10.9084 22.1998C11.5243 22.5619 12.1225 22.5265 12.7274 22.1733C12.9614 22.0365 13.1622 21.8533 13.4536 21.7959C13.8002 21.7296 14.0894 21.8135 14.3609 21.9923C14.7053 22.2175 15.0452 22.4272 15.4779 22.4537C15.9812 22.4824 16.3896 22.2727 16.7825 22.0034C17.2483 21.6833 17.6987 21.6766 18.1622 21.9967C18.4912 22.2241 18.8223 22.4272 19.2395 22.4515C19.6964 22.478 20.1004 22.3389 20.4558 22.0696C20.9569 21.6899 21.4757 21.6391 22.0342 22.0652C22.1931 22.1866 22.3808 22.2793 22.5684 22.3521C22.9768 22.5111 23.3896 22.4978 23.7892 22.3124C23.9569 22.2351 23.9878 22.2815 23.9878 22.4493C23.9923 23.6082 23.2638 24.3941 22.2042 24.6766C22.0254 24.7252 21.8245 24.6987 21.6346 24.6987C16.3278 24.6987 11.021 24.6855 5.71412 24.712C4.70309 24.7164 3.76711 24.0475 3.49558 23.1446C3.42274 22.9018 3.36313 22.6546 3.37196 22.3963C3.37638 22.2881 3.39625 22.2329 3.51324 22.2881C4.17549 22.5994 4.78697 22.4669 5.34106 22.0453C5.83112 21.6722 6.38741 21.6767 6.8841 22.0497C7.4713 22.489 8.10043 22.5906 8.77593 22.2661C9.02317 22.1468 9.07174 22.0232 8.98785 21.7583C9.22847 21.5199 9.51765 21.4184 9.85319 21.4404H9.85761Z" fill="#FF9100"/>
<path d="M18.6235 15.0954C18.5418 14.8393 18.3608 14.7687 18.1003 14.7687C14.597 14.7753 11.0937 14.7731 7.59038 14.7731C6.9193 14.7731 6.48663 15.1042 6.29237 15.7444C6.25484 15.8658 6.26588 15.9828 6.26367 16.102C6.25926 16.6428 6.25926 17.1837 6.26367 17.7245C6.26367 17.9541 6.1246 18.0667 5.93475 18.1263C5.79568 18.1704 5.69855 18.0711 5.61246 17.9784C5.53299 17.8945 5.53519 17.7863 5.53519 17.6782C5.53519 17.1461 5.53519 16.6119 5.53519 16.0799C5.53519 15.3316 4.98773 14.7797 4.21731 14.7709C4.10252 14.7709 3.98773 14.7709 3.87515 14.7687C3.61025 14.762 3.3895 14.5391 3.38288 14.2786C3.37846 14.0711 3.59701 13.8239 3.83321 13.8106C4.13784 13.793 4.44248 13.7974 4.74712 13.7974C10.9612 13.7974 17.1754 13.7974 23.3917 13.7974C23.7625 13.7974 23.9678 13.9497 23.9943 14.2367C24.0208 14.5369 23.8045 14.7731 23.4888 14.7753C22.8266 14.7797 22.1643 14.7753 21.5021 14.7753C20.9458 14.7753 20.3895 14.7753 19.8332 14.7753C19.608 14.7753 19.4579 14.868 19.4116 15.0976C19.1511 15.0976 18.8906 15.0976 18.6301 15.0976L18.6235 15.0954Z" fill="#FE2B34"/>
<path d="M24.6675 16.0508C24.7691 16.3201 24.6476 16.6446 24.3827 16.8124C24.1929 16.9316 24.0008 17.0464 23.811 17.1678C23.3386 17.4724 22.8838 17.4592 22.4335 17.1236C21.864 16.6976 21.2393 16.6291 20.5726 16.8344C20.3629 16.8985 20.1995 17.0552 20.0185 17.1722C19.577 17.457 19.1465 17.4835 18.7205 17.1678C18.1819 16.7682 17.5991 16.6424 16.9545 16.7859C16.6697 16.8499 16.4446 17.0331 16.2062 17.1899C15.7889 17.4614 15.3474 17.4812 14.9479 17.1788C14.4004 16.7616 13.8044 16.649 13.1443 16.7903C12.9346 16.8367 12.7647 16.9669 12.5903 17.0861C12.0649 17.4459 11.6123 17.5453 11.0009 17.0817C10.4622 16.6733 9.86841 16.6578 9.24589 16.8322C9.03839 16.8896 8.87945 17.0309 8.70726 17.1479C8.28563 17.4349 7.74479 17.4724 7.30329 17.1523C7.03177 16.9559 6.88607 16.7748 6.94126 16.4437C6.96113 16.3179 6.95009 16.1854 6.95451 16.0574C12.8574 16.0574 18.7624 16.0574 24.6653 16.0574L24.6675 16.0508Z" fill="#61D44E"/>
<path d="M17.6084 17.4367C17.1823 17.8252 16.7916 18.2027 16.3766 18.5493C16.1867 18.7082 16.0101 18.8826 15.8203 19.0437C15.2817 19.5029 14.7673 19.9952 14.2441 20.472C14.1492 20.5581 14.041 20.6309 13.9505 20.7192C13.6856 20.9819 13.6923 20.9797 13.4075 20.717C12.8865 20.2358 12.3611 19.7546 11.8313 19.2822C11.1801 18.6994 10.5223 18.121 9.86666 17.5404C9.83796 17.5161 9.81368 17.4852 9.76953 17.4411C10.03 17.3947 10.2596 17.4146 10.4781 17.5537C10.7563 17.7303 11.0124 17.9444 11.3545 18.0173C11.9241 18.1387 12.4494 18.0459 12.8998 17.6861C13.3324 17.3418 13.9638 17.3131 14.4141 17.6508C14.7894 17.9334 15.1934 18.0923 15.679 18.0658C16.0808 18.0437 16.4163 17.8892 16.721 17.6574C16.9748 17.4632 17.2441 17.3771 17.6062 17.4367H17.6084Z" fill="#FF9100"/>
<path d="M24.669 16.0494C18.7662 16.0494 12.8611 16.0494 6.95823 16.0494C6.93837 15.7161 7.16574 15.4887 7.55205 15.4578C7.61166 15.4534 7.67347 15.4578 7.73528 15.4578C11.1988 15.4578 14.6646 15.4578 18.1282 15.4578C18.4373 15.4578 18.5256 15.3982 18.6205 15.1289C18.8832 15.1289 19.1459 15.1289 19.4063 15.1289C19.4505 15.3497 19.5719 15.4622 19.8103 15.46C21.1701 15.4556 22.5322 15.4556 23.892 15.46C24.2739 15.46 24.5388 15.6278 24.6602 15.9413C24.6734 15.9744 24.6646 16.0141 24.6668 16.0516L24.669 16.0494Z" fill="#36CD20"/>
<path d="M24.663 20.3953C24.7314 20.7993 24.6012 21.0973 24.2171 21.2827C24.0029 21.3865 23.8131 21.5432 23.6034 21.6558C23.2634 21.8368 22.9301 21.7926 22.599 21.6028C22.3275 21.4483 22.0935 21.2408 21.7734 21.1569C21.1972 21.009 20.674 21.0818 20.1906 21.4262C20.0294 21.541 19.8661 21.6492 19.6807 21.7132C19.323 21.8412 19.003 21.733 18.7005 21.53C18.4158 21.3379 18.131 21.1679 17.7712 21.1105C17.2524 21.0266 16.8043 21.1392 16.3915 21.435C16.237 21.5454 16.078 21.6425 15.9036 21.711C15.5681 21.8412 15.2502 21.7617 14.961 21.5719C14.7866 21.4571 14.6255 21.3269 14.418 21.2275C14.7557 20.945 15.0405 20.6359 15.3826 20.3887C15.4886 20.3909 15.5946 20.3953 15.7005 20.3953C18.6873 20.3953 21.674 20.3953 24.6608 20.3953H24.663Z" fill="#61D44E"/>
<path d="M9.85357 21.4419C9.51803 21.422 9.22885 21.5214 8.98823 21.7598C8.83812 21.581 8.64828 21.5876 8.46064 21.6671C8.08536 21.826 7.73216 21.8039 7.40104 21.5611C6.99927 21.2675 6.57102 21.0556 6.05667 21.0755C5.57985 21.0931 5.19574 21.3249 4.80943 21.5766C4.4783 21.7929 4.10524 21.8702 3.73438 21.6295C3.75424 20.751 4.1251 20.3933 5.01693 20.3933C5.74762 20.3933 6.4783 20.3933 7.20678 20.3933C8.81163 20.3933 10.4165 20.3889 12.0213 20.3867C12.2951 20.6251 12.5644 20.868 12.8403 21.1042C12.9352 21.1858 12.9463 21.2388 12.8205 21.294C12.5887 21.3955 12.4209 21.5964 12.1715 21.6914C11.8183 21.826 11.5136 21.7686 11.209 21.5854C10.9728 21.4419 10.7653 21.2521 10.4893 21.1704C10.103 21.0578 10.0213 21.0865 9.85137 21.4441L9.85357 21.4419Z" fill="#61D44E"/>
<path d="M16.7734 19.1548C16.9876 18.8701 17.2613 18.7001 17.482 18.4749C17.7094 18.2431 17.9743 18.0489 18.2127 17.8281C18.2988 17.7487 18.3606 17.7619 18.4467 17.8127C19.0759 18.188 19.7293 18.2012 20.3143 17.7796C20.9942 17.2873 21.6012 17.3292 22.2436 17.8127C22.6895 18.1482 23.2017 18.1239 23.7116 17.9893C23.9257 17.9319 23.9611 17.9407 23.9854 18.1593C24.0427 18.7001 23.6432 19.1504 23.0913 19.1526C21.9655 19.157 20.8375 19.1526 19.7116 19.1526C18.7447 19.1526 17.7779 19.1526 16.7779 19.1526L16.7734 19.1548Z" fill="#FE2B34"/>
<path d="M10.6537 19.1574C9.55217 19.1574 8.50361 19.1574 7.45504 19.1574C6.38882 19.1574 5.3248 19.1397 4.25858 19.1574C3.75085 19.1662 3.24313 18.504 3.42414 18.0603C3.47712 17.93 3.51465 17.9389 3.61178 17.9786C3.91421 18.1044 4.23209 18.1 4.54555 18.0426C4.72878 18.0095 4.84577 17.9918 4.9429 18.2104C5.10626 18.579 5.43518 18.7733 5.8259 18.8373C6.19014 18.8969 6.72877 18.5283 6.8546 18.1574C6.98264 17.7799 6.97601 17.7998 7.36012 17.9543C7.91199 18.1751 8.45283 18.1044 8.96056 17.802C9.03782 17.7556 9.08418 17.7336 9.15482 17.7976C9.64047 18.2391 10.1283 18.6806 10.6537 19.1552V19.1574Z" fill="#FE2B34"/>
<path d="M12.0241 20.3856C10.4192 20.3878 8.81439 20.39 7.20953 20.3922C6.47885 20.3922 5.74817 20.3922 5.01969 20.3922C4.12786 20.3922 3.757 20.7521 3.73713 21.6284C3.47664 21.4651 3.20291 21.3194 2.9623 21.1317C2.67753 20.911 2.61351 20.613 2.73272 20.3017C2.84088 20.0192 3.10578 19.8359 3.44132 19.8359C4.64441 19.8359 5.8475 19.8359 7.05059 19.8381C8.39938 19.8381 9.74595 19.8448 11.0947 19.8381C11.3376 19.8381 11.5296 19.8713 11.693 20.0788C11.7813 20.1936 11.9292 20.2664 12.0263 20.3834L12.0241 20.3856Z" fill="#36CD20"/>
<path d="M24.6609 20.3962C21.6742 20.3962 18.6874 20.3962 15.7007 20.3962C15.5947 20.3962 15.4888 20.3918 15.3828 20.3896C15.555 20.2307 15.7294 20.0739 15.8972 19.9106C15.9744 19.8355 16.0627 19.8488 16.1532 19.8488C18.2305 19.8488 20.3055 19.8488 22.3828 19.8488C22.9082 19.8488 23.4314 19.8399 23.9568 19.8422C24.3497 19.8444 24.6345 20.0761 24.6632 20.3984L24.6609 20.3962Z" fill="#36CD20"/>
<path d="M3.73388 17.2502C3.41821 17.0206 2.99878 16.9213 2.78686 16.5593C2.52417 16.1111 2.78686 15.5372 3.30121 15.4754C3.65662 15.4334 4.02527 15.4202 4.38509 15.4952C4.68752 15.5593 4.81997 15.7226 4.83543 16.0493C4.40496 16.0273 4.08046 16.2039 3.85088 16.5681C3.71843 16.78 3.74492 17.0184 3.73388 17.2502Z" fill="#36CD20"/>
<path d="M3.73047 17.2496C3.74151 17.0178 3.71502 16.7816 3.84747 16.5675C4.07705 16.2032 4.40155 16.0266 4.83201 16.0487C4.83422 16.3975 4.83643 16.7441 4.84084 17.0929C4.84084 17.1547 4.83643 17.2054 4.77683 17.2496C4.54504 17.424 3.97771 17.4284 3.73268 17.2496H3.73047Z" fill="#61D44E"/>
<path d="M19.4069 15.1305C19.1442 15.1305 18.8815 15.1305 18.621 15.1305C18.6144 15.1195 18.6166 15.1084 18.6255 15.0996C18.8859 15.0996 19.1464 15.0996 19.4069 15.0996C19.4113 15.1106 19.4113 15.1217 19.4069 15.1327V15.1305Z" fill="#FF9100"/>
<path d="M20.0622 7.3554C20.0733 7.46356 19.9739 7.54745 19.8967 7.63133C19.7112 7.83222 19.517 8.02427 19.3183 8.21191C19.1064 8.41279 18.9497 8.42383 18.7929 8.26709C18.6318 8.10815 18.6494 7.8874 18.8415 7.69314C19.0269 7.50551 19.2234 7.32449 19.4022 7.12802C19.5346 6.98233 19.7002 6.97791 19.8614 7.01103C20.0115 7.04193 20.0578 7.1788 20.06 7.3554H20.0622Z" fill="#010100"/>
<path d="M10.4918 9.69871C10.6133 9.68768 10.7104 9.74066 10.7921 9.82454C11.0018 10.0343 11.2137 10.2396 11.419 10.4537C11.5956 10.6369 11.6 10.8201 11.4477 10.9702C11.2954 11.1181 11.1122 11.1071 10.9378 10.9349C10.706 10.7053 10.4742 10.4758 10.2468 10.2396C10.1629 10.1535 10.0967 10.0563 10.1651 9.91947C10.2468 9.75832 10.3263 9.69651 10.4918 9.69871Z" fill="#010100"/>
<path d="M8.34926 7.00919C8.51924 6.9827 8.62078 7.05334 8.68922 7.20345C8.75986 7.35797 8.69363 7.46614 8.59429 7.56548C8.36692 7.79947 8.13734 8.03126 7.90334 8.25863C7.7444 8.41316 7.54131 8.41095 7.40666 8.26084C7.26538 8.10631 7.27641 7.93192 7.44198 7.76636C7.66273 7.54561 7.88568 7.32927 8.10202 7.10632C8.17708 7.02905 8.24992 6.97828 8.35147 7.00919H8.34926Z" fill="#010100"/>
<path d="M14.3886 7.26007C14.3886 7.40577 14.3445 7.48303 14.2783 7.54705C14.0465 7.77663 13.8147 8.00621 13.5851 8.23799C13.446 8.37707 13.3026 8.43005 13.1348 8.28435C12.9626 8.13424 12.9229 7.9753 13.0752 7.80312C13.3092 7.53601 13.5652 7.28435 13.8279 7.04594C13.9383 6.9466 14.1061 6.97751 14.2363 7.02607C14.3467 7.06802 14.3864 7.18722 14.3886 7.25786V7.26007Z" fill="#010100"/>
<path d="M15.8519 10.0691C15.8563 9.90133 15.885 9.79316 16.0175 9.73356C16.1543 9.67175 16.2956 9.67837 16.3994 9.7733C16.6621 10.0161 16.9203 10.2656 17.1565 10.5327C17.2713 10.6651 17.2846 10.8373 17.1212 10.9742C16.9579 11.111 16.7901 11.111 16.6444 10.9653C16.4192 10.738 16.1963 10.5084 15.9645 10.2876C15.885 10.2126 15.8475 10.1331 15.8519 10.0669V10.0691Z" fill="#010100"/>
</svg>
