<svg width="28" height="29" viewBox="0 0 28 29" fill="none" xmlns="http://www.w3.org/2000/svg">
<path d="M18.8941 25.7641H16.7741C16.7768 25.7478 16.7686 25.7478 16.7524 25.7424C16.6141 25.6909 16.5273 25.596 16.5165 25.4442C16.5246 25.4171 16.5165 25.39 16.5246 25.3629C16.5897 25.1731 16.7036 25.0918 16.9069 25.0918C17.4952 25.0918 18.0862 25.0918 18.6745 25.0891C18.726 25.0891 18.7775 25.0891 18.8263 25.0782C18.9836 25.0457 19.1273 24.8966 19.1462 24.7475C19.1652 24.5821 19.1842 24.4167 19.2032 24.2513C19.2113 24.1673 19.2113 24.0833 19.2276 23.9992C19.2547 23.8474 19.2601 23.6956 19.2818 23.5438C19.2981 23.4272 19.3089 23.3079 19.317 23.1886C19.3252 23.0639 19.3441 22.9392 19.3604 22.8145C19.3685 22.7331 19.3767 22.6518 19.3875 22.5705C19.4065 22.4376 19.4173 22.3048 19.4309 22.172C19.4309 22.1503 19.4228 22.1421 19.4038 22.1421C19.3929 22.134 19.3848 22.134 19.3767 22.1421C18.9429 22.1421 18.5091 22.1421 18.0727 22.1421C15.1312 22.1421 12.1896 22.1421 9.25086 22.1421C9.17223 22.1421 9.0909 22.1421 9.01228 22.1421C8.97704 22.1421 8.96619 22.153 8.9689 22.1855C8.97704 22.2587 8.98246 22.3319 8.9933 22.4024C9.01499 22.5542 9.02584 22.706 9.04481 22.8551C9.05837 22.9771 9.07193 23.0991 9.08277 23.2211C9.09361 23.373 9.12072 23.5248 9.13699 23.6766C9.15597 23.8637 9.16952 24.0534 9.19392 24.2405C9.21561 24.3923 9.22646 24.5441 9.24814 24.6932C9.26983 24.8423 9.33761 24.9589 9.46774 25.0375C9.55992 25.0918 9.65751 25.0945 9.76054 25.0945C11.5281 25.0945 13.2958 25.0945 15.0634 25.0945C15.264 25.0945 15.4456 25.2002 15.4538 25.4578C15.4511 25.4632 15.4456 25.4686 15.4429 25.4767C15.4212 25.6123 15.3507 25.7018 15.2179 25.7424C15.2016 25.7478 15.1799 25.7424 15.1745 25.7695H9.49756C9.48943 25.7451 9.47316 25.7343 9.44605 25.7343C9.39996 25.7343 9.35659 25.7207 9.31592 25.7045C8.95806 25.5662 8.70322 25.3249 8.61104 24.9399C8.57309 24.7881 8.55682 24.6309 8.54327 24.4736C8.52971 24.3164 8.49989 24.1592 8.48905 24.0019C8.48362 23.8745 8.45922 23.7498 8.45109 23.6251C8.44296 23.476 8.41043 23.3296 8.39958 23.1832C8.39145 23.0639 8.36976 22.9446 8.36163 22.8253C8.35349 22.6925 8.32909 22.5596 8.31825 22.4241C8.31283 22.3753 8.31283 22.3265 8.30469 22.2777C8.29385 22.2072 8.27758 22.134 8.27758 22.0635C8.27758 21.9442 8.25318 21.8276 8.23963 21.7084C8.22607 21.5864 8.22065 21.4617 8.19896 21.3397C8.17999 21.2258 8.17999 21.1065 8.16101 20.9926C8.14203 20.8679 8.13932 20.7405 8.12034 20.6131C8.1095 20.5345 8.10136 20.4531 8.09594 20.3745C8.09052 20.2905 8.07425 20.2091 8.06612 20.1251C8.05528 20.0329 8.05257 19.938 8.0363 19.8486C8.02274 19.7727 8.01461 19.694 8.00919 19.6154C8.00106 19.5287 7.99021 19.4419 7.98208 19.3552C7.97123 19.2304 7.95768 19.1057 7.94141 18.981C7.93057 18.897 7.92243 18.8102 7.9143 18.7262C7.90346 18.6232 7.87906 18.5229 7.87635 18.4198C7.87092 18.2978 7.84924 18.1786 7.83839 18.0566C7.82755 17.9318 7.81128 17.8071 7.79773 17.6824C7.78688 17.5903 7.78146 17.4981 7.77062 17.4059C7.76248 17.3273 7.7435 17.2514 7.74079 17.1728C7.73808 17.086 7.72182 16.9992 7.71368 16.9125C7.70284 16.7905 7.68657 16.6685 7.67302 16.5438C7.66488 16.4597 7.65404 16.373 7.64591 16.2889C7.63777 16.1805 7.61337 16.0748 7.60524 15.9663C7.59982 15.847 7.57813 15.7278 7.56729 15.6085C7.55644 15.481 7.54017 15.3563 7.52662 15.2289C7.51849 15.1449 7.51578 15.0581 7.50222 14.9741C7.48053 14.8548 7.47511 14.7355 7.46155 14.6162C7.448 14.4996 7.43173 14.3804 7.4236 14.2638C7.41547 14.1526 7.39378 14.0415 7.38293 13.9303C7.36667 13.7893 7.35582 13.6484 7.34227 13.5047C7.33142 13.3962 7.31787 13.2878 7.30431 13.1794C7.29347 13.0953 7.29347 13.0113 7.27991 12.9299C7.25551 12.7781 7.25009 12.6236 7.2284 12.4691C7.21485 12.3769 7.20129 12.2847 7.19587 12.1925C7.18774 12.0868 7.17147 11.9838 7.16063 11.878C7.15249 11.7913 7.14978 11.7045 7.13623 11.6178C7.11725 11.4985 7.11183 11.3792 7.09827 11.2599C7.08743 11.1759 7.07658 11.0891 7.07116 11.0051C7.06574 10.9265 7.04947 10.8478 7.04134 10.7692C7.03049 10.677 7.03049 10.5822 7.01694 10.49C6.98712 10.3138 6.9817 10.1375 6.95459 9.96132C6.93019 9.8095 6.92205 9.65497 6.9085 9.50044C6.90308 9.44893 6.88681 9.42725 6.82717 9.42725C6.70246 9.43267 6.57504 9.43809 6.45033 9.42182C6.30122 9.39471 6.17109 9.32151 6.125 9.15614V8.95552C6.15753 8.95823 6.13042 8.99619 6.15753 9.00703C6.16567 8.96636 6.17109 8.9257 6.16295 8.88503C6.16295 8.77659 6.16295 8.67086 6.17109 8.56242C6.18464 8.38349 6.20904 8.20456 6.2226 8.02291C6.23615 7.83043 6.247 7.64065 6.26869 7.44817C6.28766 7.28279 6.30122 7.11471 6.31477 6.94662C6.32562 6.78125 6.34189 6.61587 6.35815 6.4505C6.37442 6.28783 6.37984 6.12246 6.40153 5.9598C6.42864 5.75647 6.50184 5.57483 6.63468 5.42029C6.81903 5.20612 7.04947 5.07328 7.33685 5.04888C7.4236 5.04075 7.51035 5.04346 7.59711 5.04346C7.6188 5.04346 7.63506 5.04346 7.63506 5.01364C7.6432 4.86182 7.66759 4.71 7.68928 4.56089C7.71639 4.3684 7.73266 4.17592 7.7679 3.98614C7.80044 3.80721 7.86821 3.64184 7.98208 3.50086C8.23963 3.18638 8.57038 3.02371 8.98517 3.02371C12.13 3.02371 15.2748 3.02371 18.417 3.02371C18.783 3.02371 19.1517 3.01016 19.5177 3.03185C19.6342 3.03727 19.7481 3.05354 19.8565 3.09149C20.3147 3.25687 20.5695 3.59033 20.6455 4.06476C20.6726 4.23556 20.6915 4.40636 20.7132 4.57715C20.7349 4.72897 20.7403 4.88621 20.7702 5.03803C20.7702 5.04617 20.7729 5.04617 20.7783 5.04346C20.9003 5.05159 21.025 5.03532 21.147 5.06243C21.3395 5.10581 21.5184 5.17359 21.6648 5.31456C21.8302 5.47452 21.9441 5.66429 21.9793 5.89473C21.9929 5.98148 22.0064 6.07095 22.0118 6.16041C22.02 6.29868 22.0416 6.43423 22.0552 6.5725C22.0688 6.7216 22.0742 6.87071 22.0904 7.01982C22.0959 7.07404 22.0904 7.12555 22.1013 7.17706C22.1203 7.28008 22.123 7.3831 22.1338 7.48612C22.1447 7.58643 22.1447 7.68945 22.1555 7.79247C22.1691 7.89821 22.1799 8.00123 22.188 8.10696C22.1962 8.20456 22.2016 8.30487 22.2097 8.40246C22.2233 8.55971 22.2368 8.71424 22.2558 8.87148C22.2612 8.9257 22.264 8.97992 22.2667 9.03685C22.2748 9.14529 22.264 9.24831 22.1718 9.32422C22.0877 9.392 21.9847 9.40827 21.8817 9.4164C21.7651 9.42725 21.6485 9.42182 21.532 9.4164C21.5021 9.4164 21.4886 9.4164 21.4859 9.45707C21.4859 9.50315 21.4805 9.54653 21.475 9.59262C21.4615 9.72546 21.4452 9.85559 21.4344 9.98844C21.4235 10.1077 21.4045 10.227 21.3964 10.349C21.391 10.433 21.372 10.5171 21.3666 10.6038C21.3639 10.6581 21.3503 10.7123 21.3476 10.7665C21.3476 10.837 21.3232 10.9075 21.3232 10.978C21.3232 11.0729 21.3097 11.165 21.2961 11.2545C21.2771 11.3873 21.2717 11.5202 21.2554 11.6503C21.2446 11.7289 21.231 11.8048 21.2256 11.8835C21.2175 11.9865 21.2012 12.0895 21.1904 12.1925C21.1768 12.2983 21.1714 12.4067 21.1606 12.5151C21.1497 12.6236 21.1334 12.732 21.1253 12.8405C21.1172 12.9245 21.1036 13.0058 21.0982 13.0899C21.0901 13.2119 21.0738 13.3312 21.0575 13.4532C21.0494 13.5128 21.0575 13.5725 21.044 13.6294C21.0142 13.7758 21.0142 13.9276 20.9925 14.074C20.9816 14.1553 20.9735 14.2367 20.9654 14.318C20.9572 14.4237 20.9355 14.5295 20.9247 14.6352C20.9138 14.7436 20.9057 14.8521 20.8949 14.9632C20.884 15.0771 20.8732 15.191 20.8569 15.3048C20.8461 15.3834 20.8379 15.4594 20.8325 15.538C20.8244 15.6437 20.8 15.7494 20.7918 15.8552C20.7864 15.9501 20.7783 16.0449 20.7647 16.1371C20.7458 16.2645 20.743 16.3947 20.7241 16.5221C20.7132 16.6061 20.697 16.6902 20.6915 16.7769C20.6861 16.88 20.6699 16.9803 20.6563 17.0806C20.6455 17.1863 20.6427 17.292 20.6265 17.3978C20.6102 17.5143 20.6048 17.6309 20.5885 17.7448C20.5777 17.8234 20.5695 17.8993 20.5641 17.9779C20.556 18.0972 20.5397 18.2165 20.5235 18.3358C20.5153 18.3927 20.5099 18.4524 20.5045 18.5093C20.4991 18.5852 20.4774 18.6557 20.4801 18.7316C20.4801 18.7913 20.4719 18.8536 20.4638 18.9133C20.4503 18.9946 20.4394 19.0786 20.434 19.1627C20.434 19.2142 20.4259 19.2657 20.4204 19.3145C20.4042 19.4256 20.3879 19.5368 20.3825 19.648C20.3743 19.7672 20.3499 19.8865 20.3445 20.0085C20.3445 20.0438 20.3418 20.0817 20.3364 20.117C20.3255 20.1983 20.3147 20.2823 20.3066 20.3637C20.2957 20.4504 20.2957 20.5399 20.2795 20.6239C20.2578 20.7432 20.2551 20.8625 20.2415 20.9818C20.2307 21.0658 20.2171 21.1472 20.2144 21.2312C20.2117 21.3234 20.1954 21.4156 20.1846 21.5077C20.1737 21.5918 20.1656 21.6731 20.1575 21.7572C20.1493 21.8683 20.1249 21.9795 20.1168 22.0906C20.1114 22.2126 20.087 22.3292 20.0788 22.4512C20.0788 22.4891 20.0761 22.5271 20.0707 22.5651C20.0572 22.6464 20.0436 22.7304 20.0382 22.8118C20.0355 22.866 20.0273 22.9202 20.0192 22.9744C20.0111 23.0476 20.0002 23.1181 19.9921 23.1913C19.984 23.2835 19.9812 23.3784 19.9677 23.4678C19.9433 23.6197 19.9379 23.7742 19.9162 23.9287C19.9026 24.0155 19.8999 24.1022 19.8918 24.189C19.8809 24.3001 19.8592 24.4113 19.8511 24.5252C19.8403 24.6634 19.8267 24.799 19.7942 24.9345C19.6966 25.3683 19.2818 25.6909 18.9266 25.7262C18.9022 25.7262 18.905 25.7478 18.8968 25.7587L18.8941 25.7641ZM14.2067 12.4311C12.7942 12.4311 11.3818 12.4311 9.96929 12.4311C9.30508 12.4311 8.63816 12.4311 7.97394 12.4311C7.94412 12.4311 7.90617 12.4203 7.9143 12.4772C7.94412 12.7239 7.96852 12.9679 7.99563 13.2146C8.03088 13.5426 8.06883 13.8707 8.10408 14.1987C8.12848 14.4183 8.15016 14.6352 8.17456 14.8548C8.20981 15.1801 8.24776 15.5054 8.28301 15.8281C8.30741 16.0449 8.32909 16.2618 8.35349 16.4787C8.37789 16.6929 8.405 16.9044 8.42669 17.1158C8.46194 17.4439 8.49447 17.7692 8.52971 18.0972C8.56496 18.4253 8.60291 18.7533 8.63816 19.0813C8.66255 19.3009 8.68424 19.5232 8.70864 19.7428C8.73575 19.9868 8.76558 20.2308 8.79269 20.4748C8.82793 20.7839 8.86046 21.0957 8.89028 21.4047C8.89571 21.4562 8.91739 21.4644 8.96077 21.4644C12.1381 21.4644 15.3155 21.4644 18.4956 21.4644C18.8182 21.4644 19.1381 21.4644 19.4607 21.4644C19.5068 21.4644 19.5231 21.4508 19.5231 21.4047C19.5231 21.3641 19.5312 21.3234 19.5339 21.2827C19.5692 20.9601 19.6071 20.6375 19.6424 20.3149C19.6776 19.9923 19.7101 19.6696 19.7454 19.3443C19.7833 18.9892 19.824 18.6367 19.8647 18.2816C19.9026 17.9264 19.9406 17.5686 19.9785 17.2134C20.0246 16.7905 20.0734 16.3649 20.1195 15.9419C20.1602 15.5705 20.2008 15.1964 20.2415 14.825C20.2849 14.4183 20.331 14.0089 20.3743 13.6023C20.4123 13.2471 20.4503 12.8947 20.4882 12.5395C20.4991 12.4284 20.5018 12.4284 20.3852 12.4284C18.3275 12.4284 16.2698 12.4284 14.2121 12.4284L14.2067 12.4311ZM14.1904 3.70148C12.4445 3.70148 10.6959 3.70148 8.94993 3.70148C8.65713 3.70148 8.45922 3.88854 8.42398 4.17863C8.39145 4.44431 8.35349 4.71 8.31825 4.97297C8.30741 5.04075 8.31012 5.04346 8.3806 5.04346C8.93637 5.04346 9.48943 5.04346 10.0452 5.04346C10.197 5.04346 10.3217 5.13292 10.3732 5.27119C10.422 5.40403 10.3759 5.54771 10.2621 5.6426C10.1889 5.70224 10.1021 5.71851 10.0127 5.71851C9.15868 5.71851 8.30469 5.71851 7.45071 5.71851C7.26094 5.71851 7.11725 5.83238 7.08743 6.01944C7.06032 6.20108 7.04947 6.38272 7.03049 6.56436C7.01423 6.74872 7.00067 6.93307 6.98441 7.11742C6.96272 7.35599 6.94103 7.59186 6.91934 7.82772C6.90579 7.98225 6.89223 8.13678 6.87868 8.29131C6.86783 8.41873 6.85699 8.54886 6.84343 8.67628C6.83801 8.7305 6.85428 8.74948 6.9085 8.74406C6.9573 8.73864 7.00881 8.74406 7.05761 8.74406C10.2458 8.74406 13.4313 8.74406 16.6195 8.74406C18.2136 8.74406 19.8077 8.74406 21.4018 8.74406C21.4398 8.74406 21.4805 8.73864 21.5184 8.74948C21.5726 8.76304 21.5781 8.73864 21.5753 8.69526C21.5672 8.6085 21.5591 8.52175 21.5537 8.435C21.5401 8.29131 21.5293 8.14762 21.5157 8.00394C21.494 7.7735 21.475 7.54577 21.4533 7.31533C21.4371 7.13098 21.4262 6.94391 21.4045 6.75956C21.3801 6.54539 21.3666 6.3285 21.3449 6.11433C21.3205 5.86491 21.1795 5.72393 20.9274 5.72393C20.5397 5.72393 20.152 5.72393 19.7616 5.72393C17.1617 5.72393 14.5618 5.72393 11.9619 5.72393C11.9077 5.72393 11.8508 5.72664 11.7965 5.71309C11.6691 5.67785 11.5797 5.60465 11.5417 5.47452C11.5065 5.34981 11.539 5.24136 11.6285 5.14919C11.7071 5.06786 11.8074 5.04617 11.9158 5.04617C14.0277 5.04617 16.1424 5.04617 18.2543 5.04617C18.8507 5.04617 19.4445 5.04617 20.0409 5.04617C20.0761 5.04617 20.1005 5.04617 20.0951 4.99737C20.0572 4.72626 20.0219 4.45245 19.984 4.18134C19.9677 4.0729 19.9297 3.96988 19.8592 3.88312C19.7562 3.76112 19.6207 3.7069 19.4689 3.70419C19.1462 3.69877 18.8209 3.70148 18.4983 3.70148C17.0641 3.70148 15.63 3.70148 14.1931 3.70148H14.1904ZM14.204 9.42182C12.0161 9.42182 9.8256 9.42182 7.63777 9.42182C7.57542 9.42182 7.57542 9.42725 7.58626 9.48689C7.59982 9.56822 7.60795 9.65226 7.6188 9.73631C7.62964 9.85017 7.64048 9.96404 7.65133 10.0779C7.66488 10.1999 7.68115 10.3246 7.69471 10.4466C7.70826 10.5605 7.71639 10.6743 7.72995 10.7909C7.7435 10.9238 7.75977 11.0539 7.77333 11.1867C7.78146 11.2626 7.78688 11.3385 7.79773 11.4145C7.81399 11.5093 7.81941 11.6069 7.82755 11.7018C7.83026 11.7425 7.8411 11.7588 7.88177 11.756C7.89804 11.756 7.9143 11.756 7.93057 11.756C10.8124 11.756 13.6943 11.756 16.5789 11.756C17.891 11.756 19.2032 11.756 20.518 11.756C20.5587 11.756 20.575 11.7506 20.5804 11.7045C20.5912 11.5636 20.6021 11.4226 20.6211 11.2843C20.6482 11.1 20.6617 10.9129 20.6861 10.7286C20.7078 10.5523 20.7268 10.3734 20.7458 10.1972C20.7566 10.0833 20.7674 9.96675 20.7783 9.85288C20.7918 9.73088 20.8054 9.60889 20.8217 9.48689C20.8271 9.43809 20.8135 9.42453 20.762 9.42453C18.5796 9.42453 16.3945 9.42453 14.2121 9.42453L14.204 9.42182Z" fill="black"/>
<path d="M16.5181 25.4422C16.5289 25.594 16.6157 25.6889 16.7539 25.7404C16.7675 25.7458 16.7783 25.7458 16.7756 25.7621H15.168C15.1734 25.7377 15.1951 25.7404 15.2113 25.735C15.3415 25.6943 15.4147 25.6021 15.4364 25.4693C15.4364 25.4639 15.4445 25.4557 15.4472 25.4503C15.7861 25.4503 16.1277 25.4503 16.4666 25.4503C16.4855 25.4503 16.5045 25.4503 16.5208 25.4395L16.5181 25.4422Z" fill="#FEFEFF"/>
<path d="M6.13856 8.86719C6.13856 8.86719 6.13856 8.90243 6.16295 8.88617C6.17109 8.92683 6.16295 8.9675 6.15753 9.00816C6.13042 9.00003 6.15753 8.96207 6.125 8.95665C6.125 8.92954 6.125 8.90514 6.125 8.87803C6.13042 8.87532 6.13313 8.8699 6.13856 8.86719Z" fill="#536C77"/>
<path d="M6.13584 8.83116C6.13584 8.83116 6.12771 8.83116 6.125 8.83116C6.125 8.82845 6.125 8.82302 6.125 8.82031C6.12771 8.82031 6.13313 8.82031 6.13584 8.82031V8.82573V8.82845V8.83116Z" fill="black"/>
<path d="M6.13856 8.86735C6.13856 8.86735 6.13042 8.87548 6.125 8.87819C6.125 8.87548 6.125 8.87006 6.125 8.86735C6.12771 8.86193 6.13313 8.86193 6.13856 8.86735Z" fill="black"/>
<path d="M14.2052 12.4316C16.2629 12.4316 18.3206 12.4316 20.3783 12.4316C20.4921 12.4316 20.4921 12.4316 20.4813 12.5428C20.4433 12.8979 20.4054 13.2504 20.3674 13.6055C20.324 14.0122 20.2779 14.4216 20.2346 14.8282C20.1939 15.1996 20.1532 15.5738 20.1126 15.9452C20.0665 16.3681 20.0177 16.7937 19.9716 17.2167C19.9336 17.5718 19.8957 17.9297 19.8577 18.2848C19.8198 18.64 19.7791 18.9924 19.7384 19.3476C19.7032 19.6702 19.6707 19.9928 19.6354 20.3181C19.6002 20.6407 19.5622 20.9634 19.527 21.286C19.5216 21.3266 19.5161 21.3673 19.5161 21.408C19.5161 21.4541 19.4999 21.4676 19.4538 21.4676C19.1312 21.4676 18.8113 21.4676 18.4886 21.4676C15.3113 21.4676 12.1339 21.4676 8.95384 21.4676C8.91046 21.4676 8.88877 21.4595 8.88335 21.408C8.85353 21.0962 8.821 20.7871 8.78575 20.4781C8.75864 20.2341 8.72882 19.9901 8.70171 19.7461C8.67731 19.5265 8.65562 19.3042 8.63122 19.0846C8.59598 18.7565 8.55802 18.4285 8.52278 18.1005C8.48753 17.7724 8.455 17.4471 8.41976 17.1191C8.39536 16.9049 8.37096 16.6934 8.34656 16.482C8.32216 16.2651 8.30047 16.0482 8.27607 15.8313C8.24083 15.506 8.20287 15.1807 8.16763 14.858C8.14323 14.6384 8.12154 14.4216 8.09714 14.202C8.0619 13.8739 8.02394 13.5459 7.9887 13.2178C7.96159 12.9711 7.93719 12.7244 7.90737 12.4804C7.89923 12.4208 7.93719 12.4344 7.96701 12.4344C8.63122 12.4344 9.29814 12.4344 9.96235 12.4344C11.3748 12.4344 12.7873 12.4344 14.1997 12.4344L14.2052 12.4316ZM17.1873 16.4359C17.1873 16.2569 17.1711 16.0807 17.1331 15.9072C17.0545 15.5412 16.9 15.2078 16.6749 14.9096C16.4364 14.5951 16.1409 14.3457 15.7857 14.1749C15.3736 13.9742 14.9372 13.8929 14.479 13.9309C14.1808 13.9553 13.9015 14.0366 13.6358 14.1613C13.3241 14.305 13.053 14.511 12.8225 14.7659C12.5379 15.0803 12.2424 15.3894 11.955 15.7012C11.7327 15.9425 11.5402 16.2054 11.4101 16.5091C11.2311 16.9239 11.1796 17.3549 11.2338 17.7995C11.2691 18.0923 11.3585 18.3716 11.4968 18.6346C11.7137 19.0466 12.02 19.3774 12.4186 19.6187C12.8496 19.8789 13.3159 19.9982 13.8202 19.9765C14.2811 19.9575 14.704 19.8193 15.089 19.5699C15.3031 19.4316 15.4821 19.2527 15.6529 19.0656C15.9538 18.7376 16.2602 18.4204 16.5557 18.0896C16.9732 17.6206 17.1792 17.0676 17.1873 16.4413V16.4359Z" fill="#009C8D"/>
<path d="M14.1874 3.70117C15.6216 3.70117 17.0557 3.70117 18.4926 3.70117C18.8152 3.70117 19.1405 3.70117 19.4632 3.70388C19.6177 3.70388 19.7532 3.76082 19.8536 3.88281C19.9268 3.96957 19.9647 4.06988 19.9783 4.18103C20.0162 4.45214 20.0515 4.72595 20.0894 4.99706C20.0975 5.04586 20.0731 5.04586 20.0352 5.04586C19.4388 5.04586 18.845 5.04586 18.2486 5.04586C16.1367 5.04586 14.0221 5.04586 11.9101 5.04586C11.799 5.04586 11.7014 5.06755 11.6228 5.14888C11.5333 5.24106 11.5008 5.3495 11.536 5.47421C11.5713 5.60434 11.6634 5.67754 11.7909 5.71278C11.8451 5.72905 11.902 5.72362 11.9562 5.72362C14.5561 5.72362 17.156 5.72362 19.756 5.72362C20.1436 5.72362 20.5313 5.72362 20.9217 5.72362C21.1738 5.72362 21.3148 5.8646 21.3392 6.11402C21.3609 6.32819 21.3745 6.54508 21.3989 6.75925C21.4205 6.9436 21.4314 7.13067 21.4477 7.31502C21.4666 7.54546 21.4883 7.77319 21.51 8.00363C21.5236 8.14732 21.5344 8.291 21.548 8.43469C21.5561 8.52144 21.5615 8.6082 21.5697 8.69495C21.5751 8.73833 21.5669 8.76002 21.5127 8.74917C21.4748 8.74104 21.4368 8.74375 21.3961 8.74375C19.802 8.74375 18.2079 8.74375 16.6138 8.74375C13.4256 8.74375 10.2401 8.74375 7.05191 8.74375C7.00312 8.74375 6.95161 8.74375 6.90281 8.74375C6.84859 8.74917 6.82961 8.73019 6.83774 8.67597C6.8513 8.54855 6.86214 8.41842 6.87298 8.291C6.88654 8.13647 6.9001 7.98194 6.91365 7.82741C6.93534 7.59155 6.95703 7.35297 6.97872 7.11711C6.99498 6.93276 7.00854 6.74841 7.0248 6.56405C7.04107 6.38241 7.05463 6.19806 7.08174 6.01913C7.10885 5.83207 7.25253 5.72091 7.44502 5.7182C8.299 5.7182 9.15299 5.7182 10.007 5.7182C10.0964 5.7182 10.1832 5.70194 10.2564 5.64229C10.373 5.54741 10.4163 5.40101 10.3675 5.27088C10.316 5.13261 10.1913 5.04315 10.0395 5.04315C9.48374 5.04315 8.93068 5.04315 8.37491 5.04315C8.30443 5.04315 8.30443 5.04315 8.31256 4.97266C8.3478 4.70698 8.38847 4.444 8.41829 4.17832C8.45353 3.88552 8.65144 3.70117 8.94424 3.70117C10.6902 3.70117 12.4388 3.70117 14.1847 3.70117H14.1874Z" fill="#536C77"/>
<path d="M14.2011 9.42263C16.3835 9.42263 18.5686 9.42263 20.751 9.42263C20.8026 9.42263 20.8188 9.43619 20.8107 9.48499C20.7944 9.60699 20.7809 9.72898 20.7673 9.85098C20.7565 9.96485 20.7456 10.0814 20.7348 10.1953C20.7158 10.3742 20.6995 10.5504 20.6751 10.7267C20.6507 10.911 20.6372 11.0981 20.6101 11.2824C20.5884 11.4207 20.5775 11.5617 20.5694 11.7026C20.5667 11.7487 20.5477 11.7541 20.5071 11.7541C19.1949 11.7541 17.8827 11.7541 16.5679 11.7541C13.686 11.7541 10.8042 11.7541 7.91959 11.7541C7.90332 11.7541 7.88705 11.7541 7.87079 11.7541C7.83012 11.7596 7.81928 11.7406 7.81657 11.6999C7.81114 11.605 7.80301 11.5074 7.78674 11.4126C7.77319 11.3366 7.77048 11.2607 7.76235 11.1848C7.74879 11.052 7.73252 10.9219 7.71897 10.789C7.70812 10.6751 7.69728 10.5613 7.68372 10.4447C7.67017 10.3227 7.6539 10.198 7.64035 10.076C7.62679 9.96213 7.61866 9.84827 7.60781 9.73441C7.59968 9.65036 7.58884 9.56903 7.57528 9.48499C7.56444 9.42534 7.56715 9.41992 7.62679 9.41992C9.81462 9.41992 12.0052 9.41992 14.193 9.41992L14.2011 9.42263Z" fill="#FFEDCE"/>
<path d="M16.5159 25.4399C16.4996 25.4507 16.4806 25.4507 16.4616 25.4507C16.1228 25.4507 15.7812 25.4507 15.4423 25.4507C15.4342 25.1905 15.2552 25.0874 15.0519 25.0874C13.2843 25.0874 11.5167 25.0874 9.74906 25.0874C9.64875 25.0874 9.54844 25.0875 9.45626 25.0305C9.32342 24.9519 9.25836 24.838 9.23667 24.6862C9.21498 24.5344 9.20413 24.3826 9.18245 24.2335C9.15534 24.0464 9.14449 23.8593 9.12551 23.6696C9.10925 23.5177 9.08214 23.3686 9.07129 23.2141C9.06316 23.0921 9.0496 22.9701 9.03334 22.8481C9.01707 22.6963 9.00623 22.5445 8.98183 22.3954C8.97098 22.3249 8.96556 22.249 8.95743 22.1785C8.95472 22.1459 8.96556 22.1324 9.0008 22.1351C9.07943 22.1351 9.16076 22.1351 9.23938 22.1351C12.1809 22.1351 15.1224 22.1351 18.0612 22.1351C18.4949 22.1351 18.9287 22.1351 19.3652 22.1351C19.376 22.1405 19.3842 22.1405 19.395 22.1351C19.414 22.1351 19.4248 22.1432 19.4221 22.1649C19.4113 22.2978 19.3977 22.4306 19.3788 22.5635C19.3679 22.6448 19.3625 22.7261 19.3516 22.8074C19.3381 22.9322 19.3191 23.0569 19.3083 23.1816C19.3001 23.3009 19.2893 23.4174 19.273 23.5367C19.2513 23.6885 19.2459 23.8431 19.2188 23.9922C19.2052 24.0762 19.2052 24.1603 19.1944 24.2443C19.1754 24.4097 19.1564 24.5751 19.1375 24.7404C19.1185 24.8923 18.9748 25.0387 18.8176 25.0712C18.7661 25.082 18.7145 25.082 18.6657 25.082C18.0774 25.082 17.4864 25.082 16.8981 25.0847C16.6975 25.0847 16.5836 25.1688 16.5159 25.3558C16.505 25.383 16.5159 25.4101 16.5077 25.4372L16.5159 25.4399Z" fill="#FFEDCE"/>
<path d="M19.4009 22.139C19.4009 22.139 19.3819 22.1471 19.3711 22.139C19.3792 22.1281 19.3901 22.1281 19.4009 22.139Z" fill="#536C77"/>
<path d="M20.7695 5.04297C20.7695 5.04297 20.7783 5.04297 20.7783 5.04885C20.7725 5.05179 20.7695 5.05179 20.7695 5.04297Z" fill="#536C77"/>
<path d="M6.13552 8.8304V8.82227C6.13552 8.82769 6.13823 8.8304 6.13823 8.83582C6.13823 8.84124 6.13552 8.84124 6.13281 8.83582C6.13281 8.83582 6.13281 8.83582 6.13281 8.83311L6.13552 8.8304Z" fill="#536C77"/>
<path d="M17.1885 16.4327C17.1803 17.0589 16.9743 17.612 16.5568 18.081C16.2613 18.4117 15.9522 18.7316 15.654 19.057C15.4832 19.244 15.3016 19.423 15.0901 19.5612C14.7024 19.8134 14.2822 19.9489 13.8213 19.9679C13.3171 19.9896 12.8508 19.8703 12.4197 19.61C12.0212 19.3687 11.7175 19.038 11.4979 18.6259C11.3597 18.3629 11.2702 18.0837 11.235 17.7909C11.1807 17.3463 11.235 16.9152 11.4112 16.5004C11.5413 16.1968 11.7338 15.9338 11.9561 15.6925C12.2435 15.3808 12.539 15.0744 12.8237 14.7572C13.0541 14.5024 13.3252 14.2991 13.637 14.1527C13.9054 14.0279 14.1846 13.9466 14.4801 13.9222C14.9383 13.887 15.3748 13.9656 15.7868 14.1662C16.142 14.3397 16.4375 14.5864 16.6761 14.9009C16.9038 15.1991 17.0556 15.5326 17.1342 15.8986C17.1722 16.0721 17.1912 16.2483 17.1885 16.4272V16.4327ZM12.2435 18.5554C12.3031 18.4904 12.3601 18.428 12.417 18.3656C12.7288 18.0295 13.0432 17.696 13.355 17.3598C13.4933 17.2107 13.6261 17.0562 13.7779 16.9206C13.8457 16.8583 13.9298 16.8258 14.0219 16.8393C14.1521 16.861 14.2524 16.9261 14.3012 17.0535C14.35 17.1836 14.3229 17.3002 14.2307 17.4032C14.0192 17.6309 13.8105 17.8587 13.599 18.0864C13.3279 18.3765 13.0568 18.6693 12.7857 18.9594C12.7315 19.0163 12.7315 19.0244 12.802 19.0624C13.13 19.244 13.477 19.3254 13.8511 19.2901C14.2985 19.2495 14.6834 19.0787 14.9952 18.7587C15.3341 18.409 15.6621 18.0512 15.9929 17.6933C16.0823 17.5984 16.1637 17.4954 16.2342 17.3815C16.4592 17.0155 16.5487 16.6224 16.4999 16.1941C16.4673 15.8959 16.3562 15.6275 16.1962 15.3753C16.1718 15.3374 16.1528 15.3401 16.123 15.3699C16.0308 15.4702 15.936 15.5705 15.8438 15.6708C15.6703 15.8633 15.494 16.0531 15.3124 16.2375C15.2555 16.2971 15.185 16.3323 15.1009 16.3351C14.9545 16.3405 14.8488 16.2727 14.7838 16.1453C14.716 16.0124 14.7377 15.8823 14.8353 15.7739C15.0955 15.4838 15.3531 15.191 15.6269 14.9145C15.6567 14.8846 15.6621 14.8684 15.6215 14.844C15.1985 14.6081 14.7539 14.5295 14.2795 14.6352C13.9027 14.7193 13.5882 14.9145 13.3252 15.1964C13.0134 15.5326 12.7044 15.8715 12.3899 16.2049C12.0862 16.5275 11.9182 16.9098 11.8856 17.3544C11.8585 17.7231 11.948 18.0647 12.1323 18.3846C12.1649 18.4416 12.1974 18.5012 12.2408 18.5527L12.2435 18.5554Z" fill="black"/>
<path d="M12.242 18.5554C12.1959 18.5039 12.1661 18.4443 12.1336 18.3873C11.9492 18.0674 11.8624 17.7258 11.8868 17.3571C11.9194 16.9152 12.0875 16.533 12.3911 16.2076C12.7056 15.8742 13.0146 15.5353 13.3264 15.1991C13.5894 14.9172 13.9039 14.722 14.2807 14.6379C14.7552 14.5322 15.1998 14.6108 15.6227 14.8467C15.6634 14.8711 15.6579 14.8874 15.6281 14.9172C15.3543 15.1937 15.0967 15.4865 14.8365 15.7766C14.7389 15.885 14.7172 16.0152 14.785 16.148C14.85 16.2781 14.9585 16.3432 15.1022 16.3378C15.1835 16.3351 15.2567 16.2998 15.3136 16.2402C15.4953 16.0558 15.6715 15.866 15.845 15.6736C15.9372 15.5733 16.0321 15.4729 16.1242 15.3726C16.1513 15.3428 16.173 15.3401 16.1974 15.3781C16.3547 15.6302 16.4658 15.8986 16.5011 16.1968C16.5499 16.6251 16.4604 17.0183 16.2354 17.3842C16.1676 17.4954 16.0836 17.5984 15.9941 17.696C15.6634 18.0512 15.3353 18.4117 14.9964 18.7615C14.6847 19.0814 14.297 19.2522 13.8524 19.2928C13.4782 19.3281 13.1312 19.2467 12.8032 19.0651C12.7327 19.0271 12.7327 19.019 12.7869 18.9621C13.058 18.672 13.3291 18.3819 13.6002 18.0891C13.8117 17.8614 14.0232 17.6337 14.2319 17.4059C14.3241 17.3056 14.3512 17.1863 14.3024 17.0562C14.2536 16.9261 14.1533 16.861 14.0232 16.842C13.931 16.8285 13.8469 16.861 13.7792 16.9234C13.6273 17.0589 13.4945 17.2134 13.3562 17.3626C13.0445 17.6987 12.73 18.0322 12.4182 18.3684C12.3613 18.4307 12.3044 18.4931 12.2447 18.5581L12.242 18.5554Z" fill="#B04837"/>
</svg>
