<svg width="29" height="29" viewBox="0 0 29 29" fill="none" xmlns="http://www.w3.org/2000/svg">
<path d="M7.54057 14.3542C7.55412 14.2594 7.54328 14.1646 7.56225 14.0698C7.6056 13.8557 7.66791 13.6525 7.779 13.4629C8.02013 13.0511 8.35067 12.7368 8.78687 12.5444C8.795 12.5417 8.80313 12.5336 8.81125 12.5282C8.71372 12.3764 8.62973 12.222 8.57283 12.0567C8.52948 11.9294 8.49697 11.7993 8.47801 11.6666C8.45633 11.5149 8.44278 11.3604 8.45633 11.2087C8.48884 10.8836 8.58367 10.5774 8.75165 10.2929C9.01716 9.84591 9.39918 9.53975 9.88686 9.36636C9.90583 9.36094 9.92479 9.35281 9.94376 9.34468C9.97356 9.33113 9.98169 9.31488 9.96272 9.27966C9.84351 9.06562 9.7541 8.84074 9.71617 8.5942C9.69179 8.44247 9.67282 8.28804 9.68637 8.13632C9.70263 7.9277 9.74056 7.71908 9.81913 7.5213C10.044 6.94421 10.4369 6.5351 11.0031 6.29126C11.1115 6.2452 11.2226 6.20998 11.3364 6.1856C11.3743 6.17747 11.3851 6.16121 11.3878 6.12599C11.3987 5.9255 11.4501 5.73043 11.5016 5.53806C11.5585 5.32674 11.6615 5.13437 11.7726 4.94472C12.0218 4.51665 12.3578 4.17256 12.7777 3.90975C13.306 3.58192 13.7422 3.15656 14.1297 2.6743C14.2706 2.49819 14.3898 2.30583 14.4629 2.08908C14.4927 2.00238 14.509 1.91026 14.5334 1.82086C14.5848 1.6312 14.6932 1.49032 14.8829 1.42258C15.0265 1.37111 15.1674 1.39549 15.3001 1.4551C15.4383 1.51741 15.5548 1.61224 15.6523 1.72874C15.9341 2.05928 16.1454 2.43046 16.2863 2.84228C16.3595 3.0536 16.4299 3.26222 16.4651 3.48168C16.4814 3.59276 16.4976 3.70655 16.5085 3.82035C16.522 3.96665 16.5302 4.11024 16.5193 4.25655C16.5166 4.30261 16.5085 4.34867 16.4976 4.39202C16.4895 4.42182 16.5085 4.43266 16.522 4.44891C16.774 4.73339 16.9691 5.05038 17.0964 5.40802C17.156 5.576 17.2102 5.74668 17.2373 5.9255C17.2454 5.97427 17.2535 6.02304 17.2508 6.07451C17.2481 6.14496 17.2698 6.16934 17.3402 6.1856C17.5218 6.22624 17.6925 6.28584 17.855 6.37525C18.3237 6.62993 18.6353 7.02007 18.8304 7.51046C18.8954 7.67573 18.9252 7.84913 18.9442 8.02794C18.9577 8.14986 18.9686 8.27178 18.955 8.391C18.936 8.56439 18.9035 8.73508 18.8493 8.90306C18.8033 9.04124 18.7572 9.1767 18.6705 9.29591C18.6597 9.31217 18.6597 9.31488 18.6787 9.32572C18.7166 9.34739 18.7626 9.35552 18.8033 9.36907C19.4129 9.60207 19.8383 10.0247 20.0631 10.6397C20.12 10.7969 20.1552 10.9622 20.1769 11.1328C20.2148 11.4255 20.1661 11.7018 20.0902 11.9809C20.0387 12.1651 19.9656 12.3385 19.8518 12.4956C19.8328 12.52 19.8518 12.52 19.8653 12.5282C19.9222 12.5552 19.9791 12.5823 20.0333 12.6121C20.2338 12.7205 20.4126 12.856 20.5616 13.0267C20.7486 13.2407 20.903 13.4737 20.9978 13.7446C21.0845 13.9966 21.1441 14.254 21.1306 14.5249C21.1225 14.6902 21.0981 14.8528 21.0575 15.0099C20.8841 15.652 20.4831 16.1072 19.8897 16.3944C19.8166 16.4296 19.803 16.4513 19.822 16.5298C19.8274 16.5569 19.8301 16.5813 19.8301 16.6084C19.8301 16.9606 19.8328 17.3128 19.8301 17.6651C19.8274 17.8845 19.7814 18.0931 19.5998 18.2449C19.4887 18.337 19.3641 18.383 19.2232 18.383C19.0688 18.383 18.9144 18.383 18.7599 18.383C18.7274 18.383 18.7166 18.3912 18.7085 18.4291C18.6543 18.7271 18.6028 19.0224 18.5432 19.3177C18.5025 19.5101 18.4809 19.7052 18.4402 19.8975C18.4077 20.0574 18.386 20.22 18.3481 20.3798C18.3183 20.5044 18.3048 20.6345 18.2831 20.7618C18.2587 20.8973 18.2316 21.03 18.2045 21.1655C18.1774 21.3145 18.153 21.4635 18.1232 21.6126C18.0718 21.8645 18.0365 22.1192 17.9824 22.3685C17.9553 22.4931 17.939 22.6231 17.9173 22.7505C17.874 22.9781 17.8279 23.2056 17.7846 23.4359C17.7521 23.6066 17.7277 23.78 17.6952 23.9534C17.6708 24.0889 17.641 24.2216 17.6166 24.3571C17.5895 24.5034 17.5651 24.6497 17.538 24.796C17.5082 24.9586 17.4757 25.1211 17.4459 25.2837C17.4188 25.4273 17.3944 25.5736 17.3673 25.7172C17.3538 25.7958 17.3457 25.8743 17.3213 25.9502C17.259 26.1642 17.1181 26.3051 16.8986 26.362C16.8851 26.3647 16.8499 26.362 16.8526 26.3945H11.5748C11.5748 26.3647 11.5477 26.3674 11.5341 26.3647C11.3228 26.3051 11.1901 26.1669 11.1196 25.961C11.079 25.8364 11.0681 25.7091 11.0437 25.5817C11.0085 25.4083 10.9679 25.2349 10.9435 25.0588C10.9137 24.8583 10.8703 24.6633 10.8351 24.4628C10.8053 24.3056 10.7755 24.1512 10.7484 23.9941C10.7186 23.8288 10.6861 23.6635 10.659 23.4983C10.6373 23.3736 10.6103 23.249 10.5859 23.1244C10.5479 22.913 10.5154 22.7017 10.4721 22.4931C10.4477 22.3766 10.4287 22.2574 10.4043 22.1409C10.3556 21.897 10.3176 21.6478 10.2716 21.4039C10.2364 21.2062 10.1903 21.0138 10.1578 20.816C10.1199 20.5668 10.0657 20.3175 10.025 20.0682C10.0007 19.9165 9.96001 19.7675 9.93834 19.6158C9.90312 19.3638 9.83538 19.1173 9.80287 18.8653C9.7839 18.7298 9.7541 18.5944 9.72972 18.4589C9.72159 18.4101 9.70804 18.3803 9.64844 18.3884C9.58341 18.3966 9.51568 18.3884 9.44795 18.3884C9.33416 18.3939 9.2312 18.3614 9.13637 18.3045C8.93859 18.188 8.82751 18.0091 8.81938 17.7843C8.80854 17.3562 8.81396 16.9308 8.81938 16.5027C8.81938 16.4486 8.80854 16.4215 8.75707 16.3971C8.38318 16.2183 8.07431 15.9609 7.85215 15.606C7.67062 15.3133 7.53245 15.0018 7.5487 14.6441C7.5487 14.6333 7.5487 14.6252 7.54599 14.6143C7.53245 14.5872 7.54057 14.5574 7.53516 14.5276C7.53516 14.468 7.53787 14.4084 7.54057 14.3488V14.3542ZM10.8541 9.24173C10.8541 9.24173 10.8622 9.24173 10.8649 9.24173C11.3147 9.24173 11.7644 9.24173 12.2169 9.24173C12.2711 9.24173 12.3253 9.24986 12.3794 9.23631C12.3984 9.23631 12.4201 9.24173 12.4391 9.24173C12.5962 9.24173 12.756 9.24173 12.9132 9.24444C13.1001 9.24986 13.2708 9.39887 13.2681 9.59936C13.2573 9.79172 13.176 9.90822 13.0107 9.95699C12.9565 9.97325 12.8996 9.97596 12.8427 9.97596C12.5583 9.97596 12.2711 9.97596 11.9866 9.97867C11.9785 9.97867 11.9703 9.97596 11.9622 9.97596C11.4772 9.97596 10.9923 9.97596 10.5073 9.98138C10.3529 9.98138 10.2011 10.0166 10.0575 10.0762C9.44524 10.3228 9.0849 10.9567 9.21224 11.6314C9.261 11.886 9.3748 12.1109 9.5509 12.3033C9.58341 12.3385 9.61322 12.3656 9.6674 12.3656C10.2635 12.3656 10.8568 12.3656 11.4529 12.3656C11.5179 12.3656 11.5829 12.3656 11.6479 12.3629C11.7075 12.3629 11.7644 12.3656 11.824 12.3656C12.9728 12.3656 14.1188 12.3656 15.2676 12.3656C15.3245 12.3656 15.3814 12.371 15.4356 12.3818C15.5927 12.4144 15.7119 12.5498 15.7092 12.7314C15.7038 12.7584 15.7092 12.7855 15.7038 12.8153C15.6442 12.9996 15.5114 13.0971 15.3109 13.0971C14.0159 13.0971 12.7181 13.0971 11.4231 13.0971C11.3038 13.0971 11.1846 13.0971 11.0627 13.0998C11.0519 13.0998 11.0383 13.0971 11.0275 13.0971C10.5669 13.0971 10.1063 13.0971 9.64573 13.0971C9.54006 13.0971 9.43711 13.1052 9.33416 13.1296C8.83293 13.2515 8.49426 13.5577 8.32357 14.0427C8.22333 14.3217 8.22604 14.6035 8.31003 14.8853C8.39943 15.1779 8.57012 15.4136 8.81125 15.5978C9.01987 15.7577 9.261 15.8525 9.51839 15.8633C9.86519 15.8796 10.212 15.8688 10.5588 15.8688C10.7268 15.8688 10.8947 15.8688 11.0654 15.8661C11.0844 15.8661 11.1061 15.8661 11.125 15.8661C13.6989 15.8661 16.2755 15.8661 18.8493 15.8661C18.9523 15.8661 19.0553 15.8661 19.1582 15.8552C19.2883 15.839 19.4183 15.82 19.5402 15.7685C20.1959 15.4922 20.5183 14.8257 20.3828 14.1727C20.3259 13.9018 20.1878 13.6715 19.99 13.4791C19.7326 13.2299 19.421 13.0971 19.0634 13.0917C18.6895 13.0863 18.3156 13.0917 17.9417 13.0917C17.6599 13.0917 17.3782 13.0917 17.0937 13.0917C16.8688 13.0917 16.7117 12.9454 16.69 12.7286C16.7063 12.5769 16.774 12.455 16.9203 12.3927C16.9826 12.3656 17.0476 12.3602 17.1154 12.3602C17.7358 12.3602 18.359 12.3602 18.9794 12.3602C19.02 12.3602 19.0525 12.3575 19.0851 12.325C19.2585 12.1407 19.3722 11.924 19.4318 11.6801C19.4969 11.4173 19.4806 11.1572 19.3912 10.9053C19.2557 10.5287 19.0038 10.2523 18.6353 10.0897C18.4375 10.0031 18.2235 9.97596 18.0067 9.97596C16.8905 9.97596 15.7742 9.97596 14.6553 9.97596C14.4413 9.97596 14.2679 9.82423 14.2516 9.59936C14.2787 9.42054 14.3654 9.2932 14.5469 9.25256C14.6038 9.23902 14.6688 9.24173 14.7284 9.24173C15.7417 9.24173 16.755 9.24173 17.7683 9.24444C17.8008 9.24444 17.8279 9.23902 17.8496 9.21463C18.0663 8.98434 18.1991 8.71341 18.2289 8.3937C18.2479 8.20405 18.2289 8.01711 18.172 7.83829C17.9634 7.2016 17.4757 6.87106 16.9013 6.86564C15.5277 6.8548 14.1568 6.86293 12.7831 6.86293C12.7615 6.86293 12.7398 6.86293 12.7154 6.86293C12.3767 6.86293 12.0381 6.86293 11.6994 6.86293C11.629 6.86293 11.5585 6.87106 11.4908 6.89002C10.7836 7.06342 10.3258 7.70011 10.426 8.45873C10.4639 8.74321 10.5967 8.99789 10.7972 9.20651C10.8107 9.22276 10.827 9.2336 10.8487 9.23631L10.8541 9.24173ZM15.7661 3.67946C15.7472 3.54399 15.7119 3.41124 15.6713 3.28119C15.5629 2.94252 15.4166 2.62553 15.208 2.33563C15.1999 2.32208 15.1944 2.30041 15.1755 2.30041C15.1511 2.30041 15.1538 2.3275 15.1484 2.34376C15.0779 2.52799 14.9912 2.7041 14.8829 2.86937C14.4494 3.5169 13.9021 4.05064 13.2491 4.47059C12.9592 4.65753 12.6964 4.86886 12.5014 5.15876C12.3822 5.33486 12.2846 5.52452 12.2196 5.72772C12.1817 5.84422 12.16 5.96343 12.1302 6.07993C12.1166 6.1287 12.1302 6.13412 12.1735 6.13412C12.4038 6.13412 12.6368 6.13412 12.8671 6.13412C13.0541 6.13412 13.241 6.13141 13.428 6.1287C13.4686 6.1287 13.5092 6.13412 13.5499 6.13412C14.4819 6.13412 15.4139 6.13412 16.3486 6.13412C16.4001 6.13412 16.4516 6.13412 16.5003 6.13412C16.5302 6.13412 16.5437 6.12599 16.5356 6.09619C16.5166 6.01762 16.5003 5.93634 16.4814 5.85777C16.4136 5.59225 16.2944 5.35383 16.14 5.13166C16.0614 5.02058 15.9747 4.92034 15.8826 4.8228C15.7959 4.73068 15.7417 4.62231 15.7634 4.49226C15.7851 4.36221 15.804 4.23217 15.8068 4.09941C15.8068 3.95852 15.7932 3.82035 15.7715 3.67946H15.7661ZM12.0299 25.6657C12.0299 25.6657 12.0299 25.6657 12.0381 25.6657C12.561 25.6657 13.0812 25.6657 13.6041 25.6657C13.6339 25.6657 13.6528 25.6522 13.6718 25.6332C13.7368 25.5655 13.8018 25.5005 13.8696 25.4327C15.0102 24.2894 16.1508 23.1487 17.2915 22.0081C17.3186 21.981 17.3375 21.9512 17.343 21.9133C17.3619 21.7697 17.3917 21.6261 17.4215 21.4852C17.4622 21.2793 17.4974 21.0707 17.538 20.8648C17.5814 20.6534 17.6193 20.4421 17.6545 20.2308C17.6681 20.1522 17.7006 20.0737 17.6762 19.9815C17.6464 20.0113 17.6247 20.0357 17.6003 20.0601C17.0341 20.6291 16.4651 21.198 15.8989 21.7643C15.8664 21.7968 15.8311 21.8266 15.7878 21.851C15.5223 22.0027 15.2405 21.7724 15.2459 21.5231C15.2459 21.4012 15.3191 21.3145 15.4031 21.2305C16.1861 20.4475 16.9664 19.6591 17.7548 18.8815C17.8794 18.7569 17.9796 18.635 17.9796 18.4508V18.4453C18.004 18.3912 17.9796 18.3857 17.9309 18.3857C17.5109 18.3857 17.091 18.3857 16.6683 18.3857C16.6168 18.3857 16.5816 18.4047 16.5464 18.4399C16.1617 18.8274 15.777 19.2121 15.3922 19.5968C14.0836 20.9081 12.775 22.2194 11.4664 23.5281C11.4285 23.566 11.4095 23.6039 11.4285 23.6581C11.442 23.7015 11.4474 23.7448 11.4556 23.7882C11.5233 24.1566 11.591 24.5278 11.6588 24.8963C11.6615 24.9152 11.6588 24.9423 11.6831 24.9477C11.7021 24.9532 11.713 24.9288 11.7265 24.9179C12.3659 24.2785 13.0053 23.6364 13.6447 22.997C13.8208 22.8209 13.9915 22.6421 14.173 22.4741C14.3112 22.3441 14.5117 22.3549 14.6553 22.4795C14.7853 22.5933 14.8016 22.8426 14.6932 22.9672C14.6661 22.9997 14.639 23.0322 14.6065 23.062C13.8018 23.8667 12.9972 24.6741 12.1952 25.4788C12.1383 25.5357 12.0868 25.6007 12.0354 25.6576L12.0299 25.6657ZM11.0031 21.3552C11.0031 21.3552 11.0031 21.366 11.0058 21.3741C11.0817 21.7805 11.1548 22.1869 11.2307 22.5933C11.2388 22.6313 11.2307 22.6855 11.2632 22.6963C11.2957 22.7071 11.3174 22.6556 11.3418 22.6286C12.4445 21.5231 13.5499 20.4204 14.6526 19.315C14.9344 19.0333 15.2161 18.7515 15.4979 18.4697C15.5196 18.4481 15.5629 18.4345 15.5494 18.402C15.5385 18.3749 15.4952 18.3912 15.4654 18.3912C15.0048 18.3912 14.5442 18.3912 14.0809 18.3884C13.9752 18.3884 13.9021 18.4182 13.8262 18.4941C12.8969 19.4315 11.9649 20.3636 11.0329 21.2983C11.0167 21.3145 10.9977 21.3281 11.0004 21.3552H11.0031ZM11.6696 18.3912C11.2876 18.3912 10.9056 18.3912 10.5236 18.3912C10.4775 18.3912 10.4585 18.3993 10.4694 18.4508C10.5506 18.8843 10.6292 19.315 10.7105 19.7485C10.7511 19.9653 10.7891 20.182 10.8297 20.3988C10.8324 20.415 10.8297 20.434 10.8487 20.4394C10.8649 20.4421 10.8731 20.4259 10.8812 20.4177C11.2497 20.0493 11.6181 19.6781 11.9866 19.3096C12.2684 19.0278 12.5501 18.7488 12.8319 18.467C12.8482 18.4508 12.8888 18.4426 12.8753 18.4101C12.8617 18.383 12.8265 18.3939 12.8021 18.3939C12.4255 18.3939 12.0462 18.3939 11.6696 18.3939V18.3912ZM17.0829 23.2544C17.0422 23.2923 17.0124 23.3221 16.9826 23.3519C16.4516 23.883 15.9206 24.4167 15.3895 24.9477C15.1619 25.1753 14.9398 25.4056 14.7068 25.6251C14.6986 25.6332 14.6851 25.644 14.6905 25.6549C14.6986 25.6738 14.7176 25.6657 14.7339 25.6657C15.357 25.6657 15.9802 25.6657 16.6033 25.6657C16.6521 25.6657 16.6656 25.6468 16.671 25.6034C16.6981 25.3758 16.7469 25.1537 16.7875 24.9288C16.8336 24.6741 16.8824 24.4194 16.9311 24.1647C16.9691 23.967 17.007 23.7665 17.0395 23.5687C17.0558 23.4685 17.0937 23.3709 17.0856 23.2517L17.0829 23.2544ZM12.2521 16.5949C12.0408 16.5949 11.8295 16.5949 11.6181 16.5949C11.5856 16.5949 11.5612 16.5894 11.5612 16.6409C11.5612 16.9606 11.5612 17.2803 11.5612 17.5973C11.5612 17.6461 11.5721 17.6596 11.6208 17.6596C12.0408 17.6596 12.4607 17.6596 12.8807 17.6596C12.9267 17.6596 12.9403 17.6488 12.9376 17.6C12.9376 17.2857 12.9349 16.9742 12.9376 16.6599C12.9376 16.6057 12.924 16.5894 12.8698 16.5922C12.6639 16.5949 12.4553 16.5922 12.2494 16.5922L12.2521 16.5949ZM16.4028 17.6596C16.6141 17.6596 16.8255 17.6596 17.0368 17.6596C17.0801 17.6596 17.1018 17.6542 17.0991 17.6C17.0964 17.2857 17.0964 16.9688 17.0991 16.6545C17.0991 16.6057 17.0856 16.5922 17.0368 16.5922C16.6168 16.5922 16.1969 16.5922 15.777 16.5922C15.7336 16.5922 15.7201 16.603 15.7201 16.6491C15.7201 16.966 15.7201 17.283 15.7201 17.6C15.7201 17.6434 15.7282 17.6596 15.777 17.6569C15.9856 17.6542 16.1942 17.6569 16.4055 17.6569L16.4028 17.6596ZM14.3329 17.6596C14.5334 17.6596 14.7339 17.6596 14.9344 17.6596C14.9858 17.6596 14.9994 17.6461 14.9967 17.5946C14.994 17.2803 14.9912 16.9633 14.9912 16.6491C14.9912 16.6003 14.975 16.5922 14.9316 16.5922C14.677 16.5922 14.425 16.5922 14.1703 16.5922C14.0186 16.5922 13.8669 16.5922 13.7124 16.5922C13.6826 16.5922 13.6583 16.5894 13.6583 16.6355C13.6583 16.9579 13.6583 17.2776 13.6583 17.6C13.6583 17.6461 13.6691 17.6596 13.7152 17.6569C13.9184 17.6569 14.1216 17.6569 14.3248 17.6569L14.3329 17.6596ZM10.1984 17.6596C10.3908 17.6596 10.5832 17.6596 10.7782 17.6596C10.8351 17.6596 10.846 17.6407 10.8433 17.5892C10.8405 17.2749 10.8378 16.9579 10.8378 16.6436C10.8378 16.603 10.8243 16.5922 10.7864 16.5922C10.3881 16.5922 9.98981 16.5922 9.59154 16.5922C9.55903 16.5922 9.5509 16.6003 9.5509 16.6328C9.5509 16.9579 9.5509 17.283 9.5509 17.6082C9.5509 17.6542 9.57258 17.6569 9.60509 17.6569C9.80287 17.6569 9.99794 17.6569 10.1957 17.6569L10.1984 17.6596ZM18.4673 17.6596C18.6299 17.6596 18.7924 17.6596 18.955 17.6596C19.0038 17.6596 19.0661 17.6759 19.0986 17.6542C19.1365 17.6244 19.1067 17.5594 19.1094 17.5106C19.1094 17.2234 19.1094 16.9362 19.1094 16.6491C19.1094 16.6165 19.1094 16.5949 19.0661 16.5949C18.6678 16.5949 18.2695 16.5949 17.8713 16.5949C17.8333 16.5949 17.8225 16.6084 17.8225 16.6436C17.8225 16.9633 17.8225 17.283 17.8225 17.6027C17.8225 17.6488 17.8388 17.6596 17.8821 17.6596C18.0772 17.6596 18.2723 17.6596 18.4673 17.6596Z" fill="black"/>
<path d="M7.54064 14.3543C7.54064 14.4139 7.53793 14.4735 7.53522 14.5331C7.53522 14.5331 7.5298 14.5331 7.52709 14.5331C7.51897 14.525 7.52167 14.4979 7.5 14.5223V14.3759C7.52438 14.3814 7.50813 14.357 7.51626 14.3516C7.52167 14.3516 7.5298 14.3516 7.53522 14.3543H7.54064Z" fill="#FFCF9C"/>
<path d="M7.531 14.5332C7.531 14.5332 7.53642 14.5332 7.53913 14.5332C7.54455 14.5603 7.53913 14.5928 7.54996 14.6199C7.54455 14.6199 7.53913 14.6199 7.531 14.6199C7.52829 14.6145 7.52287 14.6118 7.52016 14.6064C7.52016 14.6118 7.51745 14.6145 7.51474 14.6199L7.50932 14.6226H7.50391V14.5576C7.50391 14.5576 7.51474 14.5711 7.52558 14.5657L7.52829 14.563C7.52829 14.5603 7.52829 14.5576 7.52558 14.5549C7.52558 14.5467 7.52829 14.5413 7.531 14.5332Z" fill="#FFE3BC"/>
<path d="M7.52829 14.5352C7.52829 14.5352 7.52558 14.5488 7.52287 14.5569L7.52016 14.5596C7.52016 14.5623 7.52287 14.565 7.52558 14.5677C7.51474 14.5731 7.50662 14.5704 7.50391 14.5596V14.5217C7.52558 14.4973 7.52287 14.5244 7.531 14.5325L7.52829 14.5352Z" fill="black"/>
<path d="M7.52016 14.3493C7.52016 14.3493 7.52829 14.3791 7.50391 14.3737V14.3493C7.50391 14.3493 7.51474 14.3412 7.52016 14.3493Z" fill="black"/>
<path d="M7.50391 14.3133C7.50391 14.3133 7.52287 14.3133 7.52287 14.3187C7.52287 14.3295 7.51474 14.3376 7.50391 14.3241V14.3105V14.3133Z" fill="#FFCF9C"/>
<path d="M11.0617 13.095C11.1809 13.095 11.3001 13.0923 11.422 13.0923C12.7171 13.0923 14.0148 13.0923 15.3099 13.0923C15.5104 13.0923 15.6432 12.9948 15.7028 12.8106C15.7109 12.7807 15.7028 12.7537 15.7082 12.7266H16.6917C16.7106 12.9433 16.8705 13.0896 17.0954 13.0896C17.3771 13.0896 17.6589 13.0896 17.9434 13.0896C18.3173 13.0896 18.6912 13.0896 19.065 13.0896C19.4227 13.095 19.7342 13.2278 19.9916 13.477C20.1894 13.6694 20.3276 13.8997 20.3845 14.1706C20.52 14.8236 20.2003 15.4901 19.5419 15.7664C19.42 15.8179 19.2899 15.8369 19.1599 15.8531C19.0569 15.8667 18.954 15.864 18.851 15.864C16.2771 15.864 13.7006 15.864 11.1267 15.864C11.1077 15.864 11.086 15.864 11.0671 15.864C11.0671 15.845 11.0617 15.8288 11.0481 15.8152C11.0048 15.7691 10.9641 15.7231 10.9208 15.677C10.7393 15.4792 10.5875 15.2625 10.5144 14.997C10.4358 14.7098 10.4033 14.4253 10.4683 14.13C10.5198 13.8997 10.6146 13.6884 10.7447 13.4933C10.826 13.3714 10.9208 13.263 11.0319 13.1628C11.0508 13.1465 11.0725 13.1275 11.0698 13.0977L11.0617 13.095Z" fill="#FFF1DC"/>
<path d="M16.6945 12.7274H15.7111C15.7138 12.5459 15.5946 12.4104 15.4374 12.3779C15.3832 12.367 15.3263 12.3616 15.2694 12.3616C14.1207 12.3616 12.9746 12.3616 11.8259 12.3616C11.7663 12.3616 11.7094 12.3616 11.6498 12.3589C11.6443 12.3372 11.6552 12.3129 11.6362 12.2885C11.5658 12.1991 11.5062 12.0988 11.4737 11.9931C11.3951 11.7303 11.3301 11.4648 11.3653 11.1831C11.3897 10.9907 11.4439 10.8119 11.5251 10.6385C11.6145 10.4407 11.7446 10.2673 11.899 10.1129C11.9342 10.0776 11.9993 10.0533 11.9884 9.98282C12.2729 9.98282 12.5601 9.98282 12.8446 9.98011C12.9015 9.98011 12.9584 9.98011 13.0126 9.96115C13.1778 9.91238 13.2591 9.79588 13.2699 9.60352C13.5978 9.62519 13.9256 9.62248 14.2534 9.60352C14.2697 9.8311 14.4431 9.98011 14.6571 9.98011C15.7734 9.98011 16.8896 9.98011 18.0086 9.98011C18.2253 9.98011 18.4394 10.0072 18.6371 10.0939C19.0056 10.2565 19.2576 10.5328 19.393 10.9094C19.4825 11.1614 19.4987 11.4215 19.4337 11.6843C19.3741 11.9281 19.2576 12.1449 19.0869 12.3291C19.0571 12.3616 19.0219 12.3643 18.9812 12.3643C18.3608 12.3643 17.7376 12.3643 17.1172 12.3643C17.0495 12.3643 16.9844 12.3697 16.9221 12.3968C16.7758 12.4592 16.7081 12.5784 16.6918 12.7328L16.6945 12.7274Z" fill="#FFE3BC"/>
<path d="M12.0323 25.6644C12.0838 25.6048 12.1353 25.5425 12.1922 25.4856C12.9968 24.6782 13.8015 23.8736 14.6035 23.0689C14.6333 23.0391 14.6604 23.0066 14.6902 22.9741C14.7985 22.8494 14.7823 22.6002 14.6522 22.4864C14.5086 22.3618 14.3109 22.3509 14.17 22.481C13.9884 22.6517 13.8178 22.8305 13.6416 23.0039C13.0022 23.6433 12.3628 24.2854 11.7234 24.9248C11.7099 24.9383 11.7018 24.96 11.6801 24.9546C11.6557 24.9492 11.6611 24.9221 11.6557 24.9031C11.588 24.5346 11.5202 24.1635 11.4525 23.795C11.4444 23.7516 11.439 23.7056 11.4254 23.6649C11.4064 23.6108 11.4254 23.5755 11.4633 23.5349C12.7719 22.2263 14.0806 20.915 15.3892 19.6037C15.7739 19.2189 16.1586 18.8315 16.5433 18.4468C16.5786 18.4115 16.6138 18.3926 16.6653 18.3926C17.0852 18.3926 17.5052 18.3926 17.9278 18.3926C17.9739 18.3926 18.001 18.4007 17.9766 18.4522C17.9766 18.4522 17.9766 18.4549 17.9766 18.4576C17.9766 18.6418 17.8763 18.7638 17.7517 18.8884C16.9633 19.6687 16.183 20.4544 15.4 21.2374C15.3187 21.3187 15.2456 21.4081 15.2429 21.53C15.2402 21.7792 15.5192 22.0095 15.7847 21.8578C15.8254 21.8334 15.8606 21.8036 15.8958 21.7711C16.4621 21.2022 17.031 20.6332 17.5973 20.0669C17.6217 20.0426 17.6433 20.0182 17.6731 19.9884C17.6975 20.0778 17.665 20.1591 17.6515 20.2376C17.6162 20.449 17.5756 20.6603 17.535 20.8716C17.4943 21.0775 17.4591 21.2834 17.4185 21.4921C17.3914 21.6329 17.3616 21.7765 17.3399 21.9201C17.3345 21.9581 17.3155 21.9879 17.2884 22.015C16.1478 23.1556 15.0072 24.2989 13.8665 25.4396C13.8015 25.5046 13.7338 25.5723 13.6687 25.6401C13.6498 25.659 13.6308 25.6726 13.601 25.6726C13.0781 25.6726 12.5579 25.6726 12.035 25.6726C12.0296 25.6726 12.0242 25.6726 12.0269 25.6726L12.0323 25.6644Z" fill="#E48448"/>
<path d="M14.2556 9.60188C13.9278 9.62085 13.6 9.62355 13.2721 9.60188C13.2721 9.40139 13.1042 9.25238 12.9172 9.24696C12.7601 9.24425 12.6002 9.24696 12.4431 9.24425C12.4241 9.24425 12.4024 9.24154 12.3835 9.23883C12.3835 9.21986 12.3835 9.2009 12.3699 9.18193C12.2968 9.08169 12.2426 8.97061 12.202 8.8541C12.1125 8.59401 12.0665 8.32849 12.1017 8.04943C12.1261 7.86249 12.1776 7.68638 12.2561 7.51569C12.3483 7.3152 12.4837 7.14451 12.6354 6.98466C12.668 6.94944 12.7194 6.92506 12.7249 6.86816C12.7465 6.86816 12.7682 6.86816 12.7926 6.86816C14.1662 6.86816 15.5371 6.86003 16.9108 6.87087C17.4825 6.87629 17.9728 7.20683 18.1815 7.84352C18.2384 8.02234 18.2546 8.20928 18.2384 8.39894C18.2086 8.71864 18.0758 8.98686 17.859 9.21986C17.8374 9.24425 17.8103 9.24967 17.7778 9.24967C16.7645 9.24967 15.7512 9.24696 14.7379 9.24696C14.6783 9.24696 14.616 9.24425 14.5564 9.25779C14.3748 9.29843 14.2881 9.42848 14.261 9.60459L14.2556 9.60188Z" fill="#FFF1DC"/>
<path d="M11.0003 21.3575C10.9976 21.3304 11.0165 21.3169 11.0328 21.3006C11.9648 20.3659 12.8968 19.4339 13.8261 18.4965C13.902 18.4206 13.9751 18.3881 14.0808 18.3908C14.5414 18.3962 15.0019 18.3908 15.4652 18.3935C15.495 18.3935 15.5357 18.3773 15.5492 18.4043C15.5628 18.4369 15.5167 18.4504 15.4978 18.4721C15.216 18.7538 14.9342 19.0356 14.6524 19.3174C13.5497 20.4228 12.447 21.5255 11.3416 22.6309C11.3173 22.6553 11.2929 22.7068 11.2631 22.6986C11.2278 22.6878 11.236 22.6309 11.2306 22.5957C11.1547 22.1893 11.0815 21.7829 11.0057 21.3765C11.0057 21.3711 11.0057 21.3657 11.003 21.3575H11.0003Z" fill="#E48448"/>
<path d="M11.0637 13.0945C11.0664 13.1243 11.0447 13.1433 11.0258 13.1595C10.9174 13.2571 10.8199 13.3681 10.7386 13.4901C10.6085 13.6851 10.5164 13.8965 10.4622 14.1268C10.3972 14.4221 10.427 14.7066 10.5083 14.9937C10.5815 15.2593 10.7332 15.476 10.9147 15.6738C10.9581 15.7199 10.9987 15.7659 11.042 15.812C11.0556 15.8255 11.0637 15.8418 11.061 15.8607C10.893 15.8607 10.725 15.8634 10.5544 15.8634C10.2076 15.8634 9.85806 15.8743 9.51397 15.858C9.25659 15.8445 9.01546 15.7497 8.80684 15.5925C8.563 15.4083 8.39502 15.1726 8.30561 14.88C8.21891 14.5982 8.21891 14.3164 8.31916 14.0374C8.49255 13.5524 8.83122 13.2462 9.32974 13.1243C9.43269 13.0999 9.53565 13.0918 9.64131 13.0918C10.1019 13.0918 10.5625 13.0918 11.0231 13.0918C11.0339 13.0918 11.0475 13.0918 11.0583 13.0945H11.0637Z" fill="#FFE3BC"/>
<path d="M11.9903 9.98154C11.9984 10.052 11.9361 10.0764 11.9009 10.1116C11.7438 10.266 11.6164 10.4394 11.527 10.6372C11.4484 10.8106 11.3943 10.9921 11.3672 11.1818C11.3292 11.4635 11.397 11.7291 11.4755 11.9919C11.5081 12.1002 11.5677 12.1978 11.6381 12.2872C11.6571 12.3089 11.6462 12.3332 11.6516 12.3576C11.5866 12.3576 11.5216 12.3603 11.4566 12.3603C10.8605 12.3603 10.2672 12.3603 9.67112 12.3603C9.61693 12.3603 9.58442 12.3332 9.55462 12.298C9.37851 12.1057 9.26472 11.8808 9.21595 11.6261C9.09132 10.9515 9.45166 10.3175 10.0613 10.0709C10.2076 10.0113 10.3566 9.97883 10.511 9.97612C10.996 9.9707 11.481 9.97341 11.9659 9.9707C11.9741 9.9707 11.9822 9.9707 11.9903 9.97341V9.98154Z" fill="#FFCF9C"/>
<path d="M13.4228 6.12907C13.2358 6.12907 13.0489 6.13449 12.8619 6.13449C12.6316 6.13449 12.3986 6.13449 12.1684 6.13449C12.125 6.13449 12.1142 6.12907 12.125 6.0803C12.1575 5.9638 12.1765 5.84188 12.2144 5.72809C12.2821 5.52489 12.377 5.33524 12.4962 5.15913C12.6913 4.86923 12.9541 4.6579 13.244 4.47096C13.8969 4.05101 14.4442 3.51727 14.8777 2.86974C14.9861 2.70447 15.0755 2.52837 15.1432 2.34413C15.1486 2.32787 15.1459 2.30349 15.1703 2.30078C15.1866 2.30078 15.192 2.32246 15.2028 2.336C15.4114 2.6259 15.5577 2.94289 15.6661 3.28156C15.7067 3.41161 15.742 3.54437 15.7609 3.67983C15.7365 3.69067 15.7067 3.68525 15.6851 3.70964C15.5767 3.83427 15.4575 3.95077 15.3356 4.06456C15.173 4.21628 15.005 4.36259 14.8262 4.49534C14.6284 4.64165 14.409 4.75815 14.2193 4.92071C14.0649 5.05347 13.9159 5.19435 13.794 5.36233C13.7262 5.45716 13.6639 5.55198 13.6016 5.64952C13.5176 5.7877 13.4499 5.93129 13.4011 6.08301C13.393 6.1074 13.4038 6.11553 13.4201 6.12636L13.4228 6.12907Z" fill="#FFCF9C"/>
<path d="M13.428 6.13012C13.4117 6.11929 13.4009 6.11116 13.409 6.08677C13.4578 5.93234 13.5255 5.78875 13.6095 5.65328C13.6718 5.55574 13.7341 5.46092 13.8019 5.36609C13.9211 5.19811 14.0728 5.05994 14.2272 4.92447C14.4142 4.76191 14.6336 4.64541 14.8341 4.4991C15.0129 4.36635 15.1809 4.22004 15.3435 4.06832C15.4654 3.95453 15.5819 3.83803 15.693 3.7134C15.7147 3.68901 15.7445 3.69443 15.7688 3.68359C15.7932 3.82177 15.8068 3.96266 15.8041 4.10354C15.8041 4.2363 15.7824 4.36635 15.7607 4.49639C15.739 4.62644 15.7932 4.73482 15.8799 4.82693C15.972 4.92447 16.0615 5.02471 16.1373 5.1358C16.2945 5.35796 16.4137 5.59638 16.4787 5.8619C16.4977 5.94047 16.5139 6.02175 16.5329 6.10032C16.541 6.13012 16.5275 6.13825 16.4977 6.13825C16.4462 6.13825 16.3974 6.13825 16.3459 6.13825C15.4139 6.13825 14.4819 6.13825 13.5472 6.13825C13.5065 6.13825 13.4659 6.13554 13.4253 6.13283L13.428 6.13012Z" fill="#FFE3BC"/>
<path d="M12.7178 6.86719C12.7124 6.92408 12.6609 6.94847 12.6284 6.98369C12.4767 7.14083 12.3412 7.31152 12.2491 7.51472C12.1705 7.68541 12.119 7.86151 12.0947 8.04846C12.0594 8.32481 12.1055 8.59303 12.1949 8.85313C12.2355 8.96963 12.2924 9.08071 12.3629 9.18096C12.3764 9.19993 12.3737 9.21889 12.3764 9.23786C12.3222 9.24869 12.2681 9.24328 12.2139 9.24328C11.7641 9.24328 11.3144 9.24328 10.8619 9.24328C10.8592 9.23786 10.8565 9.23786 10.8511 9.24328C10.8294 9.24328 10.8159 9.22702 10.7996 9.21347C10.5964 9.00214 10.4664 8.75018 10.4284 8.4657C10.3255 7.70708 10.7861 7.07039 11.4932 6.89699C11.5609 6.88073 11.6314 6.87261 11.7018 6.8699C12.0405 6.8699 12.3791 6.8699 12.7178 6.8699V6.86719Z" fill="#FFE3BC"/>
<path d="M11.6681 18.3937C12.0446 18.3937 12.424 18.3937 12.8006 18.3937C12.8249 18.3937 12.8602 18.3802 12.8737 18.41C12.89 18.4425 12.8493 18.4506 12.8304 18.4669C12.5486 18.7486 12.2668 19.0277 11.985 19.3095C11.6166 19.6779 11.2481 20.0491 10.8796 20.4176C10.8688 20.4284 10.8634 20.4447 10.8471 20.4393C10.8254 20.4338 10.8309 20.4149 10.8282 20.3986C10.7875 20.1819 10.7496 19.9651 10.7089 19.7484C10.6304 19.3149 10.5491 18.8841 10.4678 18.4506C10.457 18.3991 10.4759 18.3883 10.522 18.391C10.904 18.391 11.286 18.391 11.6681 18.391V18.3937Z" fill="#E48448"/>
<path d="M17.0838 23.2559C17.0919 23.3724 17.054 23.4699 17.0377 23.5729C17.0025 23.7733 16.9673 23.9711 16.9294 24.1689C16.8806 24.4236 16.8345 24.6783 16.7858 24.9329C16.7451 25.1578 16.6964 25.38 16.6693 25.6076C16.6639 25.6509 16.6503 25.6699 16.6015 25.6699C15.9784 25.6699 15.3552 25.6699 14.7321 25.6699C14.7185 25.6699 14.6969 25.6807 14.6887 25.659C14.6833 25.6482 14.6969 25.6374 14.705 25.6292C14.938 25.4098 15.1629 25.1768 15.3878 24.9519C15.9188 24.4209 16.4498 23.8871 16.9808 23.3561C17.0106 23.3263 17.0404 23.2965 17.0811 23.2586L17.0838 23.2559Z" fill="#E48448"/>
<path d="M12.251 16.5977C12.4569 16.5977 12.6655 16.5977 12.8714 16.5977C12.9256 16.5977 12.9392 16.6139 12.9392 16.6654C12.9392 16.9797 12.9392 17.2912 12.9392 17.6055C12.9392 17.6516 12.9256 17.6651 12.8823 17.6651C12.4623 17.6651 12.0424 17.6651 11.6224 17.6651C11.5737 17.6651 11.5601 17.6516 11.5628 17.6028C11.5628 17.2831 11.5628 16.9634 11.5628 16.6464C11.5628 16.5977 11.5872 16.6004 11.6197 16.6004C11.8311 16.6004 12.0424 16.6004 12.2537 16.6004L12.251 16.5977Z" fill="#E48448"/>
<path d="M16.4003 17.6624C16.1917 17.6624 15.9831 17.6624 15.7717 17.6624C15.723 17.6624 15.7148 17.6489 15.7148 17.6055C15.7148 17.2885 15.7148 16.9715 15.7148 16.6546C15.7148 16.6112 15.7284 16.5977 15.7717 16.5977C16.1917 16.5977 16.6116 16.5977 17.0316 16.5977C17.0803 16.5977 17.0939 16.6112 17.0939 16.66C17.0939 16.9743 17.0939 17.2912 17.0939 17.6055C17.0939 17.6597 17.0749 17.6651 17.0316 17.6651C16.8203 17.6651 16.6089 17.6651 16.3976 17.6651L16.4003 17.6624Z" fill="#E48448"/>
<path d="M14.3306 17.6625C14.1274 17.6625 13.9242 17.6625 13.721 17.6625C13.6749 17.6625 13.6641 17.6489 13.6641 17.6056C13.6641 17.2831 13.6641 16.9634 13.6641 16.641C13.6641 16.595 13.6884 16.5977 13.7182 16.5977C13.87 16.5977 14.0217 16.5977 14.1761 16.5977C14.4308 16.5977 14.6828 16.5977 14.9375 16.5977C14.9808 16.5977 14.9971 16.6058 14.9971 16.6546C14.9971 16.9689 14.9971 17.2859 15.0025 17.6001C15.0025 17.6516 14.9916 17.6652 14.9402 17.6652C14.7397 17.6625 14.5392 17.6652 14.3387 17.6652L14.3306 17.6625Z" fill="#E48448"/>
<path d="M10.1956 17.6605C9.99782 17.6605 9.80275 17.6605 9.60497 17.6605C9.56975 17.6605 9.55078 17.6605 9.55078 17.6117C9.55078 17.2866 9.55078 16.9615 9.55078 16.6363C9.55078 16.6038 9.55891 16.5957 9.59142 16.5957C9.98969 16.5957 10.388 16.5957 10.7862 16.5957C10.8242 16.5957 10.8377 16.6065 10.8377 16.6472C10.8377 16.9615 10.8377 17.2785 10.8431 17.5927C10.8431 17.6442 10.835 17.6632 10.7781 17.6632C10.5857 17.6605 10.3934 17.6632 10.1983 17.6632L10.1956 17.6605Z" fill="#E48448"/>
<path d="M18.4612 17.6605C18.2662 17.6605 18.0711 17.6605 17.876 17.6605C17.83 17.6605 17.8164 17.6496 17.8164 17.6036C17.8164 17.2839 17.8191 16.9642 17.8164 16.6445C17.8164 16.6065 17.8272 16.5957 17.8652 16.5957C18.2634 16.5957 18.6617 16.5957 19.06 16.5957C19.1033 16.5957 19.1033 16.6201 19.1033 16.6499C19.1033 16.9371 19.1033 17.2243 19.1033 17.5115C19.1033 17.5602 19.1304 17.628 19.0925 17.6551C19.0627 17.6794 18.9977 17.6605 18.9489 17.6605C18.7863 17.6605 18.6238 17.6605 18.4612 17.6605Z" fill="#E48448"/>
<path d="M10.8555 9.24264C10.8555 9.24264 10.8636 9.23722 10.8663 9.24264C10.8636 9.24264 10.8582 9.24264 10.8555 9.24264Z" fill="#E48448"/>
<path d="M7.51443 14.619C7.51443 14.619 7.51714 14.6109 7.51985 14.6055C7.52256 14.6109 7.52797 14.6136 7.53068 14.619C7.52527 14.6271 7.51985 14.6271 7.51172 14.619H7.51443Z" fill="#E48448"/>
<path d="M7.51714 14.6582H7.51985V14.6609C7.51985 14.6663 7.51443 14.6663 7.51172 14.6609C7.51172 14.6609 7.51172 14.6609 7.51172 14.6582H7.51714Z" fill="#E48448"/>
<path d="M7.52495 14.5655C7.52495 14.5655 7.52224 14.5601 7.51953 14.5574C7.51953 14.5574 7.51953 14.5574 7.52224 14.5547C7.52224 14.5574 7.52495 14.5601 7.52495 14.5628C7.52495 14.5628 7.52495 14.5628 7.52224 14.5655H7.52495Z" fill="#E48448"/>
</svg>
