<svg width="28" height="29" viewBox="0 0 28 29" fill="none" xmlns="http://www.w3.org/2000/svg">
<g clip-path="url(#clip0_12178_41517)">
<path d="M25.1656 13.7567C25.1656 14.3099 25.1689 14.8631 25.1723 15.4163C25.1723 17.5954 25.1723 19.7778 25.1723 21.9569C25.1723 22.0649 25.1723 22.1728 25.1689 22.2774C25.1689 22.4427 25.0475 22.5877 24.8822 22.6316C24.6292 22.699 24.3661 22.7091 24.1064 22.7496C23.8129 22.7969 23.5127 22.8272 23.2159 22.8643C22.9831 22.8947 22.7504 22.9318 22.5142 22.952C22.3118 22.9689 22.1128 23.0026 21.9104 23.0296C21.7384 23.0532 21.5664 23.0735 21.3943 23.1004C21.03 23.1544 20.6623 23.1814 20.298 23.2421C20.072 23.2826 19.8393 23.2927 19.6099 23.3231C19.3131 23.3602 19.0162 23.3939 18.7194 23.4378C18.4394 23.4782 18.1561 23.5255 17.8727 23.5491C17.6906 23.5659 17.5118 23.5963 17.333 23.6199C17.134 23.6435 16.9316 23.6671 16.7326 23.6907C16.6921 23.5963 16.601 23.6098 16.5268 23.6064C16.4762 23.6064 16.4863 23.6739 16.483 23.7144C16.4087 23.765 16.3177 23.7548 16.2367 23.7616C15.7914 23.7919 15.3529 23.8864 14.9077 23.9168C14.8132 23.9235 14.7154 23.9437 14.6209 23.9606C14.6209 23.9269 14.6209 23.8898 14.6581 23.8763C14.739 23.8392 14.7221 23.7852 14.6884 23.7245C14.6749 23.7009 14.658 23.6739 14.6513 23.6469C14.6243 23.5491 14.5602 23.5322 14.4692 23.5592C14.3578 23.5929 14.2566 23.6402 14.1521 23.6874C14.0475 23.7346 14.0036 23.8291 13.9429 23.9066C13.9058 23.9539 14.0104 23.9808 14.0036 24.0416C13.889 24.0584 13.7709 24.0719 13.6562 24.0888C13.6562 24.0011 13.6056 23.9572 13.5247 23.9741C13.4336 23.991 13.3189 23.9943 13.3358 24.1394C12.9951 24.1697 12.6577 24.217 12.3204 24.2642C12.2799 24.2709 12.2395 24.2642 12.199 24.2642C12.1079 24.19 12.0101 24.1394 11.8988 24.1023C11.7267 24.0449 11.6998 23.9201 11.8246 23.7818C11.9865 23.603 12.1956 23.539 12.425 23.5221C12.5397 23.512 12.651 23.5019 12.7623 23.4715C12.8095 23.458 12.85 23.4378 12.8433 23.3804C12.877 23.3804 12.9074 23.377 12.9411 23.3737L12.9917 23.3568C13.0153 23.3568 13.0423 23.3568 13.0659 23.3568C13.076 23.4681 13.1671 23.4479 13.2346 23.4513C13.5483 23.4546 13.862 23.4513 14.1622 23.3399C14.2465 23.3096 14.3443 23.3163 14.432 23.3366C14.5332 23.3602 14.6277 23.3568 14.7221 23.3163C14.8773 23.2556 15.0392 23.2691 15.1978 23.2927C15.2821 23.3028 15.3597 23.313 15.4373 23.2725C15.4744 23.2522 15.5115 23.2522 15.5519 23.2758C15.7543 23.3973 15.8926 23.3669 16.0579 23.205C16.1861 23.0768 16.3379 22.979 16.5335 22.9824C16.6179 22.9824 16.6887 22.9588 16.7359 22.8879C16.8135 22.8441 16.9012 22.8643 16.9822 22.8542C17.0868 22.9655 17.1508 22.8474 17.2318 22.8137C17.2891 22.8137 17.3465 22.8103 17.4038 22.807C17.4376 22.807 17.4747 22.8171 17.505 22.7867C17.7715 22.7361 18.0414 22.7058 18.3146 22.6788C18.5305 22.6585 18.7464 22.6012 18.9623 22.5911C19.1815 22.581 19.394 22.5034 19.6133 22.5101C19.6672 22.5371 19.7212 22.5641 19.7617 22.4899C19.7853 22.4899 19.8123 22.4865 19.8359 22.4831C19.8696 22.5169 19.8933 22.5135 19.9101 22.4663C19.9439 22.4663 19.9776 22.4595 20.0113 22.4595C20.0619 22.5068 20.0956 22.4595 20.1328 22.4393C20.1496 22.4393 20.1665 22.4359 20.1833 22.4325C20.2238 22.4629 20.2576 22.473 20.2812 22.4157C20.3318 22.4157 20.379 22.4089 20.4296 22.4056C20.4633 22.4427 20.4869 22.4393 20.5038 22.3887C20.5375 22.3887 20.5713 22.3819 20.605 22.3819C20.632 22.4157 20.6455 22.3988 20.6556 22.3685C20.6961 22.3651 20.7399 22.3617 20.7804 22.3583C20.8209 22.3887 20.8546 22.3988 20.8782 22.3415C20.912 22.3381 20.9423 22.3347 20.976 22.3313C20.9862 22.3246 20.9929 22.3179 21.003 22.3111C21.2763 22.328 21.536 22.2504 21.8059 22.2234C22.0858 22.1964 22.3658 22.1458 22.6458 22.1087C22.8718 22.0784 23.0978 22.0581 23.3238 22.0278C23.651 21.9839 23.9748 21.9299 24.302 21.9097C24.329 21.903 24.3729 21.9266 24.3695 21.8692C24.3459 21.7849 24.356 21.6972 24.3594 21.6129C24.383 21.5892 24.3796 21.5656 24.3594 21.542C24.3594 21.515 24.3594 21.4914 24.3594 21.4644C24.3594 21.4644 24.3661 21.4611 24.3661 21.4577C24.3661 21.4509 24.3661 21.4476 24.3627 21.4442C24.3627 21.3936 24.3627 21.343 24.3627 21.2924C24.3864 21.2283 24.3864 21.1642 24.3627 21.0968C24.3627 21.0799 24.3627 21.063 24.3627 21.0428C24.3998 20.9315 24.3796 20.8168 24.3762 20.7021C24.3762 20.4525 24.3965 20.2029 24.3627 19.9566C24.3627 19.8824 24.3492 19.8082 24.356 19.734C24.3627 19.6429 24.3256 19.6227 24.2447 19.6294C24.0457 19.6429 23.85 19.6969 23.6544 19.7003C23.344 19.707 23.0438 19.7947 22.7335 19.8149C22.3321 19.8419 21.934 19.9263 21.5326 19.9769C21.1447 20.0275 20.7568 20.0679 20.3689 20.1118C20.352 20.105 20.3318 20.1017 20.3149 20.0949C20.2609 20.0747 20.207 20.0443 20.1665 20.1152C20.1496 20.1152 20.1328 20.1185 20.1159 20.1219C20.0585 20.0983 20.0181 20.1118 19.9911 20.1691C19.8831 20.186 19.7718 20.1691 19.6605 20.1894C19.4817 20.2197 19.3063 20.267 19.1242 20.267C18.942 20.213 18.7632 20.2804 18.5811 20.2906C18.49 20.2939 18.3821 20.2872 18.3079 20.3681C18.291 20.3681 18.2741 20.3681 18.2573 20.3681C18.2471 20.358 18.2404 20.358 18.2336 20.3681C18.1898 20.3715 18.1459 20.3715 18.1021 20.3816C18.0211 20.3985 17.9334 20.3783 17.866 20.4424C17.7816 20.4289 17.7074 20.4693 17.6231 20.4727C17.4578 20.4828 17.2925 20.5031 17.1272 20.5233C16.8506 20.5604 16.574 20.6043 16.2974 20.6414C16.0512 20.6751 15.8016 20.6886 15.5587 20.7325C15.2315 20.7898 14.8975 20.8168 14.567 20.8573C14.3443 20.8842 14.1217 20.918 13.8991 20.9416C13.5921 20.972 13.2852 21.0091 12.9816 21.063C12.7488 21.1035 12.5127 21.117 12.2799 21.1507C11.9932 21.1912 11.7065 21.2216 11.4198 21.2587C11.2208 21.2823 11.0217 21.2958 10.8261 21.3363C10.6035 21.3835 10.3775 21.397 10.1548 21.4273C9.85799 21.4644 9.55777 21.5083 9.25756 21.5353C8.91349 21.5656 8.56943 21.6432 8.22536 21.6736C7.9184 21.7006 7.61144 21.7343 7.30785 21.7815C6.83898 21.8557 6.36673 21.8895 5.90123 21.9738C5.53355 22.0413 5.15912 22.0514 4.79144 22.1155C4.51147 22.1661 4.22812 22.1829 3.94477 22.2167C3.83008 22.2302 3.82334 22.2706 3.82334 22.3583C3.82334 22.9992 3.82334 23.6402 3.82334 24.2777C3.75925 24.2844 3.72889 24.3418 3.68841 24.3789C3.60408 24.4632 3.61083 24.5172 3.7019 24.588C3.7525 24.6285 3.80647 24.6487 3.87393 24.6487C4.02236 24.6487 4.15391 24.5914 4.29221 24.5543C4.35293 24.5374 4.41027 24.5104 4.47436 24.5273C4.69362 24.5846 4.90613 24.5509 5.12202 24.5104C5.15912 24.5037 5.1996 24.4835 5.21309 24.5374C5.22321 24.5779 5.20635 24.6083 5.1625 24.6218C5.13551 24.6285 5.10178 24.6386 5.10515 24.6723C5.10515 24.7095 5.13551 24.7331 5.16924 24.7398C5.27719 24.7735 5.3885 24.8005 5.50319 24.7634C5.63137 24.7229 5.7663 24.6622 5.90123 24.6993C5.99568 24.7263 6.08001 24.7331 6.17446 24.7162C6.35998 24.6825 6.54888 24.6622 6.59273 24.4261C6.60285 24.3789 6.6467 24.3451 6.69393 24.3451C6.87945 24.3519 7.03125 24.2473 7.19316 24.1866C7.32134 24.1394 7.4529 24.0787 7.58783 24.1023C7.72275 24.1225 7.84756 24.1124 7.97574 24.082C8.14778 24.0449 8.31306 24.0146 8.49859 24.0348C8.71785 24.0584 8.94385 24.1057 9.16648 24.0045C9.27105 23.9539 9.40598 23.9471 9.52742 23.9674C9.70957 23.9977 9.89509 24.0112 10.0604 24.1057C10.0874 24.1191 10.1245 24.1225 10.1582 24.1158C10.3033 24.0888 10.4517 24.082 10.5933 24.0449C10.7485 24.0045 10.9071 23.9775 11.0622 23.9539C11.1567 23.9404 11.2208 23.9943 11.2545 24.0753C11.295 24.163 11.1971 24.1596 11.16 24.19C11.0825 24.2473 10.9981 24.2946 11.0217 24.4126C10.8801 24.4295 10.7418 24.4463 10.6001 24.4632C10.5596 24.3586 10.4888 24.3148 10.3741 24.3418C10.2695 24.3654 10.2864 24.4362 10.3033 24.5104C9.90859 24.5206 9.52404 24.615 9.13275 24.6487C8.74146 24.6825 8.35691 24.7735 7.96562 24.8107C7.60807 24.8444 7.26063 24.922 6.90307 24.9388C6.85584 24.9388 6.81199 24.9827 6.76139 24.9591C6.74453 24.8612 6.65682 24.8815 6.59611 24.8714C6.46455 24.841 6.44431 24.8612 6.46455 24.9962C6.36673 25.0232 6.26891 25.0333 6.17108 25.04C6.08675 25.0434 6.00242 25.0535 5.91809 25.0603C5.89448 24.9726 5.83376 24.9355 5.74606 24.9388C5.6651 24.9388 5.58077 24.9388 5.49982 24.9388C5.45596 24.9388 5.41211 24.9422 5.36826 25.013C5.46271 25.013 5.53692 25.013 5.61113 25.013C5.6651 25.013 5.71233 25.0164 5.71907 25.0839C5.56053 25.1007 5.40874 25.1581 5.24683 25.1311C5.21647 25.0771 5.24683 24.9928 5.16924 24.9624C5.06467 24.9186 4.95673 24.8781 4.84879 24.8444C4.80494 24.8309 4.74085 24.8511 4.71723 24.8916C4.6329 25.0299 4.48448 25.0299 4.35293 25.0603C4.22475 25.0906 4.11343 25.1884 4.10669 25.2863C4.00549 25.3335 3.89417 25.3166 3.7896 25.3301C3.71202 25.3402 3.62769 25.3504 3.55011 25.3605C3.21279 25.4077 3.02389 25.2559 3.01714 24.922C3.01714 24.8781 3.01714 24.8309 3.01714 24.787C3.09135 24.7466 3.09135 24.7061 3.01714 24.6622C3.01714 23.8662 3.0104 23.0701 3.0104 22.274C3.0104 20.466 3.0104 18.6613 3.0104 16.8533C3.0104 16.8195 3.0104 16.7892 3.01377 16.7555C3.07449 16.7622 3.09135 16.6745 3.15207 16.6914C3.2364 16.715 3.24315 16.6475 3.25327 16.6003C3.26676 16.5531 3.26676 16.4991 3.25327 16.4519C3.22965 16.3338 3.21953 16.2191 3.27351 16.1044C3.30386 16.0437 3.26676 15.9695 3.19255 15.9661C3.10485 15.9661 3.08123 15.9122 3.06099 15.8447C3.05425 15.8177 3.0475 15.7873 3.0104 15.784C2.9598 15.585 3.10485 15.4736 3.20941 15.3522C3.63781 14.8597 4.11343 14.4111 4.53845 13.9152C4.61267 13.8275 4.70037 13.7533 4.78133 13.6723C4.92975 13.6723 5.01745 13.5779 5.03432 13.3991C5.13888 13.2338 5.29742 13.1158 5.42898 12.9775C5.46271 12.9741 5.51668 13.0213 5.5268 12.9808C5.55716 12.8763 5.69884 12.8358 5.6786 12.7042C5.98218 12.3534 6.30264 12.0195 6.62309 11.6855C6.6602 11.6788 6.71079 11.7429 6.73441 11.6822C6.75127 11.6417 6.70405 11.6383 6.67369 11.6282C6.69393 11.6046 6.71754 11.581 6.73778 11.5607C6.87945 11.5978 6.91656 11.5675 6.89295 11.4393C6.89295 11.4224 6.89295 11.4056 6.88957 11.3921C6.9874 11.2909 7.08185 11.1897 7.17967 11.0885C7.18642 11.1256 7.19316 11.1627 7.16955 11.1964C7.12907 11.2504 7.13244 11.2841 7.20665 11.2942C7.24376 11.301 7.25388 11.3314 7.264 11.3651C7.32809 11.5911 7.23027 11.7901 7.14594 11.9858C7.07173 12.1544 6.86259 12.2252 6.82548 12.4209C6.79175 12.5963 6.66357 12.7009 6.55225 12.8223C6.49828 12.8796 6.46118 12.937 6.4713 13.018L6.46792 13.0247C6.24529 13.0854 6.01929 13.1394 5.80003 13.2102C5.73931 13.2305 5.68197 13.308 5.66173 13.3688C5.60776 13.5307 5.54704 13.6825 5.44585 13.8208C5.3379 13.9658 5.26032 14.1345 5.12876 14.2559C5.02082 14.3571 4.93987 14.4785 4.84204 14.5899C4.69025 14.7585 4.57219 14.9609 4.29221 14.9407C4.18427 14.9306 4.1168 15.0317 4.12355 15.1566C4.12692 15.251 4.15054 15.3218 4.27535 15.3387C4.38666 15.3522 4.49798 15.3893 4.61604 15.3826C4.66326 15.3792 4.70037 15.3994 4.70711 15.4467C4.71386 15.5074 4.66326 15.5074 4.62278 15.5074C4.57219 15.5074 4.52496 15.5074 4.48786 15.5512C4.42039 15.6356 4.35293 15.6119 4.29221 15.5411C4.22475 15.4601 4.15728 15.4635 4.09994 15.5445C4.04259 15.6254 3.96164 15.6592 3.87731 15.6524C3.72214 15.6389 3.63781 15.7469 3.54336 15.8346C3.46578 15.9054 3.49276 16.0403 3.58047 16.0437C3.69178 16.0471 3.75925 16.0977 3.81996 16.1753C3.81996 16.2259 3.82671 16.2731 3.82671 16.3237C3.82671 17.0017 3.82671 17.6763 3.82334 18.3543C3.82334 18.4623 3.8537 18.496 3.95489 18.4825C4.15728 18.4555 4.3563 18.4286 4.55869 18.4083C4.81168 18.3847 5.06467 18.3442 5.31766 18.3038C5.4897 18.2768 5.6651 18.2734 5.83714 18.243C6.12386 18.1891 6.41395 18.1722 6.70405 18.1351C6.9368 18.1047 7.16955 18.0777 7.4023 18.044C7.59795 18.017 7.79359 17.9833 7.99261 17.9597C8.29957 17.9226 8.60653 17.8922 8.91349 17.8551C9.14962 17.8248 9.38574 17.791 9.62524 17.7573C9.72981 17.8214 9.83438 17.7404 9.93895 17.7573C9.97268 17.764 10.0132 17.764 10.0233 17.7134C10.0469 17.7134 10.0739 17.7101 10.0975 17.7067C10.1278 17.7438 10.1413 17.7236 10.1481 17.6898C10.1649 17.6898 10.1818 17.6898 10.1987 17.6898C10.2155 17.7101 10.2324 17.7101 10.2459 17.6898C10.5461 17.646 10.8463 17.5954 11.1466 17.5583C11.3321 17.5347 11.5176 17.5279 11.7031 17.4908C11.8954 17.4537 12.0944 17.4368 12.2901 17.4132C12.5127 17.3862 12.7353 17.3626 12.9546 17.3323C13.2953 17.285 13.636 17.2277 13.9834 17.2108C14.0003 17.2041 14.0171 17.2007 14.0374 17.194C14.0947 17.1838 14.1554 17.1704 14.2128 17.1602C14.2229 17.1704 14.233 17.167 14.2398 17.1569C14.2566 17.1569 14.2735 17.1501 14.2904 17.1467C14.2971 17.1535 14.3039 17.1602 14.314 17.167C14.3241 17.2277 14.3747 17.2142 14.4118 17.2108C14.5265 17.1973 14.6378 17.1838 14.7525 17.1602C14.8132 17.1467 14.8908 17.1602 14.911 17.0692C14.9684 17.0692 15.0257 17.0624 15.0831 17.0624C15.1607 17.113 15.2247 17.0827 15.2821 17.0219C15.3732 17.0118 15.4676 16.9983 15.5587 16.9882C15.8319 16.9578 16.1018 16.9039 16.3784 16.8836C16.6584 16.8634 16.9316 16.8027 17.2116 16.7892C17.2183 16.7824 17.2284 16.7791 17.2352 16.7723C17.2858 16.7723 17.3364 16.7656 17.3836 16.7656C17.4882 16.7993 17.5894 16.7892 17.6804 16.7217C17.9199 16.688 18.1594 16.6441 18.4023 16.6239C18.544 16.6138 18.6789 16.5699 18.8239 16.5699C18.8307 16.5834 18.8408 16.5834 18.8476 16.5699C18.888 16.5699 18.9285 16.5666 18.969 16.5632C19.0162 16.6104 19.0668 16.5935 19.1174 16.5767C19.1714 16.5598 19.2287 16.5632 19.2827 16.5598C19.448 16.5497 19.6099 16.5092 19.7718 16.5868C19.7853 16.5935 19.8089 16.5767 19.8292 16.5699C19.9135 16.5531 20.0012 16.5564 20.0653 16.6138C20.2171 16.7487 20.406 16.7082 20.5679 16.6947C20.7534 16.6779 20.9457 16.6172 21.1177 16.5261C21.1818 16.4923 21.2324 16.4148 21.31 16.4215C21.5056 16.4384 21.6912 16.3608 21.8801 16.3372C22.069 16.3136 22.2579 16.263 22.4434 16.209C22.5277 16.182 22.6053 16.1179 22.6998 16.1449C22.8617 16.1921 23.0067 16.1314 23.1551 16.0842C23.2226 16.0639 23.3002 16.0133 23.3676 16.0538C23.4621 16.1112 23.5633 16.1011 23.6544 16.0842C23.7353 16.0707 23.8129 16.0707 23.8837 16.0943C23.9984 16.1314 24.103 16.1044 24.2076 16.0606C24.2683 16.037 24.3256 16.0201 24.3729 16.0842C24.3998 16.1213 24.4504 16.128 24.4673 16.0943C24.5044 16.0302 24.5584 15.9729 24.5618 15.8885C24.5618 15.4939 24.4167 15.1161 24.4235 14.718C24.4235 14.6809 24.4133 14.654 24.3695 14.6506C24.3526 14.5528 24.383 14.4516 24.3526 14.3537C24.3526 14.3369 24.3526 14.32 24.3526 14.3065C24.383 14.2323 24.3526 14.1581 24.3661 14.0839C24.4437 14.0738 24.4201 14.013 24.4201 13.9692C24.4235 13.7634 24.4235 13.7634 24.6191 13.6858C24.6697 13.6656 24.7102 13.6251 24.6899 13.5712C24.6562 13.4868 24.7068 13.3721 24.5921 13.3215C24.5786 13.3148 24.5516 13.3182 24.5449 13.3249C24.4943 13.389 24.4336 13.3553 24.3864 13.3384C24.1502 13.244 23.9074 13.3384 23.6712 13.3215C23.651 13.3215 23.6274 13.3418 23.6071 13.3519C23.4958 13.4126 23.3204 13.389 23.2159 13.3114C23.0438 13.1866 22.865 13.1158 22.6458 13.2305C22.5311 13.2912 22.3995 13.3215 22.3118 13.4261C22.2983 13.443 22.268 13.4565 22.2444 13.4565C22.0892 13.4565 21.961 13.5509 21.8126 13.5846C21.708 13.6083 21.6541 13.669 21.6709 13.7803C21.6473 13.7803 21.6237 13.787 21.5967 13.787C21.5731 13.7499 21.5293 13.7533 21.4955 13.7601C21.4112 13.7769 21.3404 13.7668 21.2594 13.7229C21.1245 13.6521 20.9558 13.7499 20.9491 13.8781C20.9322 13.8781 20.9153 13.8781 20.8985 13.8781C20.8377 13.8107 20.7838 13.8039 20.75 13.9017C20.7028 13.9051 20.6522 13.9085 20.605 13.9118C20.4869 13.8275 20.3655 13.7702 20.2103 13.8005C20.1429 13.814 20.0923 13.7634 20.0855 13.6926C20.0788 13.6352 20.0518 13.588 20.0079 13.5745C19.8258 13.5172 19.7819 13.3418 19.6875 13.2136C19.7178 13.2136 19.7516 13.2102 19.7819 13.2068C19.8157 13.2068 19.8561 13.2203 19.8831 13.19C19.9 13.19 19.9169 13.19 19.9337 13.19C19.9978 13.2541 20.1327 13.2406 20.207 13.1596C20.2272 13.1596 20.2441 13.1596 20.2576 13.1394C20.2744 13.1394 20.2913 13.1394 20.3082 13.136C20.3655 13.2305 20.3891 13.1191 20.4296 13.1158C20.4971 13.109 20.5645 13.1124 20.6286 13.0854C20.7534 13.1394 20.885 13.1158 21.0132 13.0989C21.0941 13.0888 21.1919 13.1057 21.2459 13.018C21.3201 13.0078 21.3943 13.0011 21.4719 12.991C21.4719 13.0078 21.4753 13.0247 21.4955 13.0247C21.5158 13.0247 21.5191 13.0045 21.5191 12.991H21.5664C21.5664 12.991 21.6001 12.9741 21.617 12.9674C21.6507 12.9674 21.681 12.964 21.7148 12.9606C21.7418 12.9606 21.7688 12.9674 21.789 12.9404C21.8059 12.9404 21.8227 12.937 21.8396 12.9336C21.8801 12.9808 21.9104 12.9539 21.9374 12.9168C22.0386 12.9201 22.1331 12.8729 22.2376 12.8898C22.2477 12.9471 22.2781 12.964 22.3354 12.9505C22.4434 12.9201 22.5581 12.9269 22.666 12.9404C22.7807 12.9539 22.8381 12.9033 22.8819 12.8122C22.9123 12.8122 22.9393 12.8122 22.9696 12.8088C22.9932 12.8088 23.0168 12.8122 23.0303 12.7919C23.0944 12.7818 23.1585 12.7717 23.226 12.7616C23.2833 12.7548 23.3474 12.7818 23.4014 12.7447C23.5161 12.7279 23.6341 12.7076 23.7488 12.6907C23.8095 12.7717 23.9816 12.8054 24.0693 12.7481C24.1334 12.7076 24.1907 12.6536 24.2784 12.6604C24.3088 12.6604 24.3189 12.6368 24.3189 12.6098C24.3324 12.603 24.3459 12.5963 24.3594 12.5862C24.3864 12.5862 24.4167 12.5896 24.4403 12.5659C24.5112 12.485 24.528 12.2758 24.4741 12.1747C24.4471 12.1274 24.4302 12.0802 24.4167 12.0262C24.3661 11.8576 24.3627 11.672 24.2953 11.5169C24.2042 11.301 24.1603 11.0784 24.13 10.8524C24.1098 10.6972 23.9782 10.6129 23.9445 10.4746C23.9445 10.4644 23.9006 10.4644 23.877 10.4577C23.8298 10.4172 23.8534 10.3497 23.8129 10.3059C23.8804 10.2553 24.1165 10.2587 24.1637 10.3531C24.2447 10.515 24.4032 10.5555 24.5179 10.6567C24.663 10.7815 24.8451 10.8928 24.8755 11.1155C24.8788 11.1391 24.9092 11.1492 24.9362 11.1526C24.9969 11.4224 25.061 11.6889 25.0947 11.9655C25.1419 12.3467 25.1723 12.7279 25.1689 13.1124C25.1689 13.1191 25.1656 13.1293 25.1622 13.136C25.0576 13.1529 25.0812 13.2473 25.0711 13.3114C25.0644 13.3553 25.1048 13.3924 25.1622 13.3856C25.1622 13.4666 25.1622 13.5509 25.1622 13.6319C25.1419 13.6319 25.1217 13.6386 25.1183 13.6622C25.115 13.696 25.1386 13.7027 25.1622 13.7061L25.1656 13.7567ZM24.2481 16.7521C23.9647 16.7453 23.6881 16.8061 23.4115 16.833C23.1045 16.8634 22.8009 16.914 22.4974 16.9578C22.2815 16.9882 22.0656 17.0219 21.8463 17.0422C21.4989 17.0759 21.1582 17.1333 20.8141 17.1771C20.6421 17.2007 20.4667 17.2075 20.2947 17.2378C20.072 17.2783 19.846 17.3087 19.62 17.3255C19.4041 17.3424 19.195 17.393 18.9825 17.4099C18.7565 17.4267 18.5339 17.4706 18.3079 17.5043C18.0684 17.5414 17.8255 17.5515 17.586 17.5954C17.3195 17.6426 17.0463 17.6696 16.7764 17.6999C16.5538 17.7269 16.3312 17.7472 16.1119 17.7775C15.7712 17.8214 15.4305 17.8754 15.0898 17.9226C14.8469 17.9529 14.6041 17.9799 14.3612 18.0035C14.0677 18.0305 13.7776 18.0946 13.4842 18.1216C13.1907 18.1486 12.8972 18.1857 12.6038 18.2295C12.2125 18.2869 11.8178 18.3274 11.4265 18.3915C10.9509 18.4657 10.4719 18.5129 9.99292 18.5702C9.76017 18.5972 9.52067 18.6141 9.28792 18.6512C8.94048 18.7052 8.58967 18.749 8.24223 18.7929C8.07694 18.8131 7.91503 18.8367 7.74974 18.8603C7.41242 18.9042 7.0751 18.9582 6.73778 18.9919C6.51515 19.0155 6.29589 19.0459 6.07326 19.0762C5.84051 19.1066 5.60776 19.1302 5.37501 19.1639C5.15238 19.1976 4.92637 19.2246 4.70037 19.2482C4.44738 19.2752 4.19776 19.3292 3.9414 19.3393C3.88405 19.3393 3.83346 19.3528 3.82671 19.4203C3.81659 19.5181 3.79972 19.6159 3.8031 19.7104C3.80984 19.8993 3.83346 20.0848 3.82671 20.2737C3.81322 20.611 3.8537 20.9483 3.79972 21.2857C3.78623 21.3666 3.80984 21.4003 3.90092 21.4003C4.04259 21.4003 4.17415 21.3632 4.30908 21.3464C4.51147 21.3228 4.71386 21.3025 4.91288 21.2722C5.12539 21.2418 5.3379 21.2114 5.55041 21.1946C5.75618 21.1777 5.95857 21.1271 6.16434 21.1136C6.39709 21.1001 6.62646 21.036 6.85922 21.0192C7.01438 21.0091 7.16955 21.0023 7.31797 20.9652C7.59457 20.9011 7.88129 20.8977 8.1579 20.8505C8.35354 20.8168 8.55256 20.7999 8.74821 20.7763C8.93036 20.7527 9.10914 20.7055 9.29129 20.7055C9.54765 20.7055 9.7939 20.6448 10.0435 20.6178C10.3235 20.5874 10.6035 20.5267 10.8868 20.5064C11.1769 20.4862 11.4569 20.4154 11.7436 20.3951C11.8347 20.3884 11.9359 20.3951 12.0303 20.3648C12.2091 20.3007 12.4014 20.331 12.5903 20.2872C12.8568 20.2265 13.1334 20.2164 13.4066 20.1826C13.5145 20.1691 13.6225 20.1455 13.7304 20.132C13.9025 20.1118 14.0779 20.1017 14.2499 20.0814C14.4793 20.0511 14.7053 20.014 14.9347 19.9836C15.1607 19.9532 15.3867 19.9398 15.6127 19.8993C15.9095 19.8487 16.2063 19.8217 16.5032 19.7846C16.7326 19.7576 16.9619 19.7306 17.1913 19.7003C17.4646 19.6631 17.7344 19.6193 18.0076 19.5856C18.237 19.5586 18.4698 19.5383 18.6958 19.5012C19.023 19.4473 19.3535 19.4034 19.6841 19.3697C20.1159 19.3225 20.5409 19.2482 20.9727 19.2111C21.3437 19.1774 21.708 19.1167 22.0791 19.0695C22.4164 19.0256 22.7571 18.9885 23.091 18.9447C23.4756 18.8907 23.8601 18.8266 24.2481 18.7996C24.3155 18.7962 24.356 18.7726 24.356 18.695C24.356 18.1014 24.3526 17.5043 24.3492 16.9106L24.356 16.9005L24.3492 16.8904C24.3762 16.8465 24.3324 16.8061 24.3358 16.7656C24.3526 16.6644 24.2784 16.6205 24.2109 16.5733C24.1941 16.5598 24.1705 16.5733 24.157 16.5902C24.1334 16.6172 24.1536 16.634 24.1772 16.6475C24.2177 16.6745 24.2447 16.7082 24.2379 16.7588L24.2481 16.7521ZM24.5685 16.1348C24.5854 16.1618 24.5483 16.2191 24.609 16.2292C24.6562 16.236 24.6697 16.1955 24.6697 16.155C24.6697 16.1112 24.6663 16.0538 24.6124 16.0471C24.555 16.0403 24.5786 16.0977 24.5685 16.1348Z" fill="#040302"/>
<path d="M6.47443 13.0555C6.46431 12.9746 6.50142 12.9172 6.55539 12.8599C6.6667 12.7418 6.79488 12.6339 6.82862 12.4585C6.86572 12.2628 7.07823 12.1886 7.14907 12.0233C7.2334 11.8277 7.3346 11.6287 7.26713 11.4027C7.25701 11.3689 7.25027 11.3352 7.20979 11.3318C7.13558 11.3217 7.12883 11.288 7.17268 11.234C7.19629 11.2003 7.18955 11.1632 7.1828 11.1261C7.29749 10.9608 7.45266 10.8292 7.58421 10.6808C7.99237 10.2288 8.4039 9.78353 8.8188 9.33827C9.11564 9.02119 9.41923 8.70748 9.71607 8.3904C10.2153 7.85743 10.7179 7.32447 11.2138 6.78813C11.5612 6.4137 11.8918 6.02916 12.246 5.66485C12.5293 5.37476 12.7992 5.0678 13.0792 4.77096C13.4502 4.37967 13.8246 3.99175 14.1889 3.59371C14.361 3.40818 14.5499 3.36096 14.7927 3.41156C14.958 3.44529 15.1334 3.42505 15.3088 3.43854C15.5315 3.45541 15.7507 3.49251 15.97 3.52625C16.2803 3.57347 16.5873 3.62744 16.8909 3.71852C17.073 3.77249 17.2653 3.80959 17.4373 3.8973C17.4373 3.92428 17.4238 3.96476 17.4373 3.98163C17.525 4.08957 17.4812 4.1739 17.4238 4.28184C17.3091 4.49773 17.4137 4.64277 17.6465 4.66976C17.7679 4.68325 17.8927 4.62591 18.0074 4.68325C18.1929 4.7777 18.3987 4.83842 18.51 5.04081C18.5336 5.08466 18.5741 5.10153 18.6247 5.05768C18.7225 4.96997 18.7799 4.96997 18.8777 5.06442C18.9384 5.12177 19.0059 5.17911 19.0902 5.17911C19.1981 5.17911 19.296 5.23308 19.4039 5.23308C19.4511 5.23308 19.4714 5.26682 19.4714 5.30729C19.4714 5.34777 19.4343 5.35452 19.3972 5.35115C19.2791 5.33428 19.215 5.39837 19.1846 5.50294C18.8305 5.33428 18.4796 5.16899 18.1255 5.00033C18.0074 4.94299 17.8927 4.89239 17.7713 4.99696C17.5756 5.16225 17.3732 5.31404 17.1945 5.49957C16.9921 5.71208 16.9921 5.70533 17.2653 5.8099C18.2199 6.16746 18.8203 6.86234 19.1442 7.80684C19.3061 8.28246 19.3263 8.77494 19.2184 9.26068C18.9789 10.3536 18.3683 11.1497 17.3125 11.5848C16.793 11.8007 16.2601 11.8446 15.7136 11.7737C15.1739 11.7063 14.7017 11.4769 14.2665 11.1463C13.4266 10.5088 13.0994 9.63174 13.0589 8.6164C13.0555 8.50509 13.0926 8.3904 13.1061 8.27571C13.1601 7.85406 13.2883 7.4594 13.5109 7.09846C13.6796 6.82861 13.8853 6.58911 14.1282 6.37997C14.6376 5.93471 15.2178 5.67835 15.8924 5.62775C16.0374 5.61763 16.1623 5.58052 16.2331 5.42873C16.2837 5.31741 16.3579 5.21622 16.4389 5.12177C16.5974 4.93962 16.7526 4.75409 16.9415 4.58543C16.7897 4.52134 16.6446 4.5011 16.4996 4.47411C16.2061 4.41677 15.9194 4.33581 15.6192 4.30883C15.4336 4.29196 15.2481 4.2751 15.0626 4.23462C14.8804 4.19414 14.6882 4.19077 14.5465 4.37292C14.2294 4.78108 13.8449 5.12514 13.5075 5.51643C13.1905 5.88411 12.8295 6.21131 12.5091 6.57899C12.1481 6.99389 11.7501 7.37507 11.3824 7.78322C10.9102 8.30944 10.4143 8.81879 9.93196 9.33827C9.33828 9.9758 8.75809 10.6268 8.15766 11.2542C7.58759 11.8513 7.02763 12.4551 6.46094 13.0555H6.47443ZM18.1018 7.47626C18.1018 7.47626 18.0951 7.46277 18.0917 7.4594C18.0884 7.42566 18.0749 7.39868 18.0411 7.38519C17.977 7.31097 17.9163 7.23339 17.8522 7.15918C17.7004 6.97703 17.4879 6.87583 17.3058 6.73416C17.3024 6.71055 17.2889 6.69705 17.2619 6.7038C17.2518 6.70043 17.2417 6.69368 17.2316 6.69031C17.1742 6.64308 17.1135 6.6026 17.0325 6.60598L17.0224 6.59923C17.0022 6.56212 16.9685 6.57224 16.9347 6.57562C16.874 6.58236 16.8369 6.52165 16.7796 6.52502C16.729 6.48791 16.6817 6.48791 16.6446 6.54526C16.5367 6.63296 16.5704 6.76114 16.5535 6.87583C16.5333 6.88258 16.5333 6.89944 16.5401 6.91631L16.5299 6.97703C16.5029 7.01413 16.5131 7.05124 16.5198 7.09172C16.5198 7.16255 16.5164 7.23002 16.5131 7.30086C16.5097 7.30423 16.5097 7.31097 16.5131 7.31435C16.5131 7.34471 16.5131 7.37169 16.5131 7.40205C16.5097 7.40542 16.5097 7.41217 16.5131 7.41554C16.5063 7.62468 16.5131 7.83382 16.5569 8.03959C16.5974 8.24198 16.6008 8.441 16.4119 8.58942C16.3748 8.58942 16.3444 8.60291 16.3208 8.63327C16.2904 8.63664 16.2635 8.64002 16.2331 8.64339C16.2196 8.63327 16.2061 8.63664 16.196 8.64676H16.115L16.1049 8.64002L16.0948 8.64676C16.0678 8.64676 16.0408 8.64339 16.0172 8.64002C16.0037 8.63327 15.9936 8.62315 15.9801 8.6164C15.9666 8.59616 15.9531 8.57255 15.9363 8.55231C15.9363 8.51521 15.9126 8.49834 15.8789 8.49497L15.8283 8.43088C15.8182 8.31619 15.7743 8.20825 15.7372 8.09693L15.7271 8.03621L15.7339 8.02947H15.7237C15.717 7.99236 15.7102 7.95526 15.7035 7.91815C15.717 7.90128 15.717 7.88779 15.6968 7.87767C15.69 7.80684 15.6866 7.73937 15.6799 7.66853C15.6799 7.66853 15.6833 7.66853 15.6866 7.66516C15.6866 7.66179 15.6833 7.65841 15.6799 7.65167C15.6799 7.62468 15.6799 7.5977 15.6799 7.57071L15.6866 7.56734C15.6866 7.56396 15.6833 7.55722 15.6799 7.55384C15.6799 7.52686 15.6799 7.49987 15.6799 7.47289C15.6799 7.47289 15.6866 7.46951 15.6866 7.46614C15.6866 7.4594 15.6833 7.45602 15.6799 7.45265C15.6799 7.42566 15.6799 7.39868 15.6799 7.37507L15.6866 7.37169C15.6866 7.36832 15.6833 7.36157 15.6799 7.3582C15.6799 7.33121 15.6799 7.30423 15.6799 7.27724C15.6799 7.27724 15.6866 7.27387 15.6866 7.2705C15.6866 7.26375 15.6833 7.26038 15.6799 7.25363C15.6799 7.21315 15.6799 7.17267 15.6866 7.1322C15.7069 6.96016 15.7305 6.7915 15.7474 6.61947C15.7575 6.52165 15.7204 6.49466 15.6192 6.5149C15.4404 6.55201 15.2818 6.62959 15.1233 6.71055C15.1064 6.71055 15.0997 6.71729 15.0963 6.73078C15.0255 6.7544 14.958 6.78476 14.9108 6.84547C14.7792 6.96354 14.6241 7.04787 14.4959 7.17942C14.3981 7.28399 14.2868 7.37169 14.2092 7.4965C14.0979 7.67528 14.0776 7.88442 13.9967 8.07669H13.9899V8.08681C13.9832 8.12054 13.973 8.15427 13.9663 8.19138C13.9629 8.20825 13.9562 8.22848 13.9528 8.24535C13.9528 8.2521 13.9494 8.25884 13.9494 8.26896C13.9494 8.27908 13.9427 8.28583 13.9427 8.29595C13.9427 8.31281 13.9393 8.33305 13.9359 8.34992C13.9022 8.41064 13.9022 8.47135 13.9157 8.53545C13.9157 8.58267 13.909 8.6299 13.9056 8.67712C13.8719 8.71085 13.8752 8.74796 13.9056 8.78506C13.9123 8.87951 13.9191 8.97733 13.9258 9.07178V9.07853L13.9292 9.0819C13.9292 9.11564 13.8921 9.14262 13.9123 9.17635C14.0304 9.35176 14.0135 9.57439 14.1316 9.75317C14.2969 10.0028 14.4723 10.2423 14.6949 10.4447C14.9175 10.6471 15.184 10.782 15.464 10.8798C15.6158 10.9338 15.7743 10.9844 15.943 10.9709C15.9565 10.9979 15.97 10.9945 15.9868 10.9743C16.0509 10.9911 16.115 10.9979 16.1825 10.9878C16.2736 10.9979 16.368 11.0114 16.4557 10.9709C16.6682 10.9641 16.8639 10.9001 17.0595 10.8191C17.4643 10.6572 17.7814 10.3873 18.0276 10.0331C18.0546 10.0163 18.0715 9.99604 18.0715 9.96231C18.085 9.9387 18.0985 9.91171 18.1086 9.8881C18.112 9.88135 18.1187 9.87123 18.1221 9.86449C18.1288 9.85774 18.1288 9.85099 18.1322 9.84425C18.2435 9.72281 18.338 9.59126 18.3346 9.41585C18.3177 9.39224 18.3346 9.36863 18.338 9.34501C18.4223 8.97396 18.5235 8.60291 18.3886 8.22511C18.3447 8.1003 18.3312 7.96537 18.2806 7.84394C18.2638 7.74949 18.2233 7.66853 18.1524 7.60107L18.0985 7.4965V7.48975H18.0951L18.1018 7.47626Z" fill="#060302"/>
<path d="M24.9355 11.2039C24.9085 11.2039 24.8781 11.1937 24.8748 11.1668C24.8444 10.9441 24.6589 10.8328 24.5172 10.708C24.3992 10.6068 24.244 10.5663 24.163 10.4044C24.1158 10.31 23.8797 10.3066 23.8122 10.3572C23.6705 9.95915 23.4479 9.59822 23.232 9.24066C22.9655 8.79877 22.6552 8.39061 22.3145 7.99932C21.7377 7.33817 21.0833 6.77485 20.3783 6.25538C20.159 6.09346 19.9128 5.9754 19.707 5.8C19.761 5.80674 19.8116 5.81686 19.8656 5.82023C19.9195 5.82361 19.9769 5.82023 20.0039 5.76626C20.041 5.68531 20.0747 5.60098 20.1051 5.51665C20.1219 5.46942 20.0882 5.40196 20.1624 5.38172C20.2231 5.36823 20.267 5.40533 20.3108 5.44918C20.4053 5.54363 20.5031 5.52002 20.5571 5.39521C21.0125 5.67181 21.4206 6.00913 21.8254 6.3532C22.1526 6.63318 22.4528 6.93676 22.7395 7.25384C23.2084 7.76994 23.6436 8.3164 24.0011 8.9202C24.3081 9.44305 24.5746 9.98613 24.7601 10.5663C24.8275 10.7755 24.9119 10.9779 24.9389 11.1971L24.9355 11.2039Z" fill="#060302"/>
<path d="M20.5565 5.39899C20.5026 5.52042 20.4047 5.54741 20.3103 5.45296C20.2664 5.40911 20.226 5.372 20.1619 5.3855C20.0877 5.40236 20.1214 5.4732 20.1045 5.52042C20.0742 5.60475 20.0404 5.68908 20.0033 5.77004C19.9763 5.82739 19.919 5.82739 19.865 5.82401C19.8111 5.82064 19.7605 5.81052 19.7065 5.80377C19.7065 5.72956 19.6559 5.72282 19.5986 5.72956C19.5918 5.72956 19.5884 5.72956 19.5851 5.72619C19.5749 5.71944 19.5648 5.7127 19.5581 5.70258C19.5682 5.64523 19.5581 5.58789 19.4974 5.5609C19.4029 5.5238 19.3152 5.45296 19.2039 5.50693C19.1971 5.50693 19.1938 5.50693 19.1904 5.50019C19.2241 5.39562 19.2848 5.33153 19.4029 5.34839C19.44 5.35514 19.4737 5.34839 19.4771 5.30454C19.4771 5.26406 19.4569 5.23033 19.4097 5.23033C19.3017 5.23033 19.2039 5.17636 19.0959 5.17636C19.0116 5.17636 18.9442 5.11901 18.8834 5.06167C18.7856 4.96722 18.7283 4.96722 18.6304 5.05492C18.5832 5.09877 18.5394 5.07854 18.5158 5.03806C18.4044 4.83567 18.1987 4.77495 18.0131 4.6805C17.8951 4.61978 17.7737 4.6805 17.6522 4.66701C17.4195 4.64002 17.3149 4.49497 17.4296 4.27909C17.4869 4.17115 17.5308 4.08682 17.4431 3.97887C17.4296 3.96201 17.4431 3.9249 17.4431 3.89454C17.4465 3.89454 17.4532 3.89454 17.4566 3.89454C17.7231 4.02272 17.9727 3.9755 18.2324 3.84732C18.6777 3.62131 19.1668 3.52012 19.6525 3.4223C19.8684 3.37844 20.0472 3.4223 20.1349 3.58084C20.2833 3.84057 20.2192 4.12729 19.8212 4.21837C19.5783 4.27234 19.3354 4.32631 19.0959 4.39378C19.0352 4.41064 18.9678 4.42414 18.9205 4.48485C19.1634 4.58605 19.3995 4.68724 19.6154 4.83567C19.6222 4.87277 19.6289 4.90313 19.666 4.8559C19.973 5.02119 20.2732 5.19997 20.5565 5.40574V5.39899Z" fill="#040302"/>
<path d="M12.8473 23.3809C12.8541 23.4416 12.8136 23.4584 12.7664 23.4719C12.655 23.5023 12.5437 23.5124 12.429 23.5225C12.1997 23.5428 11.9905 23.6035 11.8286 23.7823C11.7072 23.9206 11.7342 24.0454 11.9028 24.1027C12.0141 24.1398 12.1153 24.1904 12.203 24.2646C12.058 24.3152 11.9028 24.3152 11.7544 24.3355C11.5082 24.3692 11.2585 24.376 11.0123 24.4299C10.9921 24.3119 11.073 24.2646 11.1506 24.2073C11.1877 24.1803 11.2855 24.1837 11.245 24.0926C11.2079 24.0116 11.1438 23.9577 11.0528 23.9712C10.8942 23.9948 10.7357 24.0218 10.5839 24.0622C10.4388 24.0994 10.2938 24.1061 10.1488 24.1331C10.1184 24.1398 10.0779 24.1365 10.0509 24.123C9.88564 24.0251 9.70012 24.0116 9.51796 23.9847C9.39653 23.9644 9.2616 23.9745 9.15703 24.0218C8.9344 24.1263 8.7084 24.0791 8.48914 24.0521C8.30699 24.0319 8.13833 24.0589 7.96629 24.0994C7.83474 24.1297 7.7133 24.1398 7.57838 24.1196C7.44345 24.0994 7.31189 24.1601 7.18371 24.2039C7.01842 24.2646 6.87 24.3692 6.68448 24.3625C6.63725 24.3625 6.5934 24.3928 6.58328 24.4434C6.53943 24.6795 6.34716 24.6998 6.16501 24.7335C6.07056 24.7504 5.98623 24.7403 5.89178 24.7166C5.75685 24.6795 5.62529 24.7369 5.49374 24.7807C5.37568 24.8178 5.26774 24.7875 5.15979 24.7571C5.12943 24.747 5.09908 24.7268 5.0957 24.6897C5.0957 24.6526 5.12606 24.6458 5.15305 24.6391C5.1969 24.6256 5.21376 24.5952 5.20364 24.5547C5.19015 24.5041 5.14967 24.521 5.11257 24.5277C4.89668 24.5682 4.68417 24.6053 4.46491 24.5446C4.40082 24.5277 4.34348 24.5547 4.28276 24.5716C4.14446 24.6087 4.01291 24.6694 3.86448 24.666C3.80039 24.666 3.74642 24.6458 3.69245 24.6053C3.598 24.5311 3.59126 24.4805 3.67896 24.3962C3.71944 24.3557 3.74642 24.3017 3.81389 24.295C3.81389 24.3321 3.82401 24.3692 3.81726 24.4063C3.80039 24.5075 3.84425 24.548 3.9387 24.5143C4.07025 24.4704 4.20518 24.4906 4.33673 24.4738C4.62345 24.4367 4.91018 24.4063 5.19353 24.3625C5.55108 24.3085 5.91202 24.2882 6.2662 24.2242C6.49558 24.1837 6.7317 24.1499 6.96445 24.1297C7.22082 24.1061 7.46706 24.0319 7.72342 24.0218C7.92244 24.015 8.12146 23.9982 8.31711 23.9543C8.58696 23.8902 8.86356 23.8902 9.13679 23.8497C9.30883 23.8261 9.48423 23.8194 9.65964 23.7924C9.96997 23.7452 10.2769 23.6844 10.5906 23.6743C10.6176 23.6743 10.6412 23.6743 10.6581 23.6507C10.6918 23.644 10.7256 23.6372 10.7627 23.6338C10.7829 23.6541 10.7964 23.6507 10.8099 23.6271C10.8538 23.6204 10.8942 23.6136 10.9381 23.6102C10.9549 23.6338 10.9684 23.6305 10.9853 23.6102C11.2518 23.5765 11.5183 23.5428 11.7848 23.509C11.8219 23.5327 11.8556 23.5259 11.886 23.4955C11.9264 23.4922 11.9669 23.4854 12.0074 23.4821C12.031 23.5023 12.0546 23.4955 12.0748 23.4787C12.3312 23.4483 12.5909 23.418 12.8473 23.3876V23.3809Z" fill="#060302"/>
<path d="M4.09766 25.31C4.1044 25.2122 4.21572 25.1143 4.3439 25.084C4.47545 25.0536 4.6205 25.0536 4.70821 24.9153C4.73182 24.8748 4.79591 24.858 4.83976 24.8681C4.9477 24.8985 5.05564 24.9423 5.16021 24.9862C5.2378 25.0165 5.20744 25.1009 5.2378 25.1548C5.01517 25.2088 4.78579 25.2358 4.55641 25.256C4.40124 25.2695 4.25282 25.3235 4.09766 25.31Z" fill="#060302"/>
<path d="M14.0099 24.0427C14.02 23.982 13.9121 23.9517 13.9492 23.9078C14.0133 23.8302 14.0538 23.7358 14.1583 23.6886C14.2629 23.6413 14.3641 23.5941 14.4754 23.5604C14.5665 23.5334 14.6272 23.5503 14.6576 23.6481C14.6643 23.6751 14.6812 23.702 14.6947 23.7257C14.7284 23.7864 14.7487 23.8403 14.6643 23.8775C14.6306 23.8943 14.6272 23.9281 14.6272 23.9618C14.4181 23.9753 14.2157 24.036 14.0065 24.0394L14.0099 24.0427Z" fill="#060302"/>
<path d="M3.01203 15.8145C3.04913 15.8145 3.05588 15.8448 3.06263 15.8752C3.08287 15.9393 3.10311 15.9932 3.19418 15.9966C3.26839 15.9966 3.30212 16.0708 3.27514 16.1349C3.22117 16.253 3.23129 16.3643 3.2549 16.4823C3.26502 16.5296 3.26502 16.5835 3.2549 16.6308C3.24141 16.678 3.23803 16.7455 3.1537 16.7218C3.09299 16.705 3.07612 16.7927 3.0154 16.7859C3.00528 16.4621 3.00528 16.1417 3.0154 15.8178L3.01203 15.8145Z" fill="#060302"/>
<path d="M5.71019 25.1082C5.70344 25.0407 5.65622 25.0373 5.60225 25.0373C5.52804 25.0373 5.45382 25.0373 5.35938 25.0373C5.40323 24.9665 5.44371 24.9631 5.49093 24.9631C5.57189 24.9631 5.65622 24.9631 5.73717 24.9631C5.82825 24.9597 5.88559 24.9935 5.90921 25.0846C5.84512 25.098 5.78102 25.125 5.71019 25.1115V25.1082Z" fill="#060302"/>
<path d="M10.2923 24.5319C10.2788 24.4611 10.2586 24.3869 10.3632 24.3633C10.4779 24.3363 10.5487 24.3801 10.5892 24.4847C10.4914 24.5016 10.3902 24.515 10.2923 24.5319Z" fill="#060302"/>
<path d="M13.3432 24.1396C13.3264 23.9911 13.441 23.9911 13.5321 23.9743C13.6131 23.9574 13.6637 24.0012 13.6637 24.089C13.5524 24.0822 13.4512 24.1294 13.3398 24.1396H13.3432Z" fill="#060302"/>
<path d="M6.45596 25.0175C6.43572 24.8859 6.45596 24.8623 6.58751 24.8927C6.64486 24.9062 6.73593 24.8825 6.7528 24.9804C6.65498 24.9905 6.55715 25.004 6.45596 25.0141V25.0175Z" fill="#060302"/>
<path d="M16.4886 23.7174C16.4886 23.6736 16.4818 23.6061 16.5324 23.6095C16.6033 23.6129 16.6977 23.5994 16.7382 23.6938C16.6539 23.6972 16.5763 23.7411 16.492 23.7208L16.4886 23.7174Z" fill="#060302"/>
<path d="M5.03815 13.4336C5.02128 13.609 4.93358 13.7034 4.78516 13.7068C4.85937 13.609 4.9437 13.5179 5.03815 13.4336Z" fill="#060302"/>
<path d="M5.68712 12.7422C5.70736 12.8704 5.56568 12.9142 5.53532 13.0188C5.5252 13.0559 5.47123 13.0087 5.4375 13.0154C5.51846 12.9243 5.58592 12.8198 5.68712 12.7456V12.7422Z" fill="#060302"/>
<path d="M25.1621 13.4371C25.1048 13.4439 25.0643 13.4101 25.071 13.3629C25.0812 13.2988 25.0576 13.2077 25.1621 13.1875C25.1621 13.2685 25.1621 13.3528 25.1621 13.4337V13.4371Z" fill="#060302"/>
<path d="M6.89789 11.4252C6.89789 11.4252 6.89789 11.459 6.90126 11.4725C6.92487 11.6007 6.88439 11.631 6.74609 11.5939C6.79669 11.5366 6.8338 11.4657 6.89789 11.4219V11.4252Z" fill="#060302"/>
<path d="M6.6795 11.668C6.70986 11.6747 6.75709 11.6815 6.74022 11.7219C6.71324 11.7827 6.66601 11.7219 6.62891 11.7253C6.63903 11.6983 6.65589 11.6815 6.68288 11.668H6.6795Z" fill="#060302"/>
<path d="M3.01172 24.6895C3.08593 24.7299 3.08593 24.7738 3.01172 24.8143C3.01172 24.7738 3.01172 24.7299 3.01172 24.6895Z" fill="#060302"/>
<path d="M25.1661 13.7578C25.1391 13.7544 25.1155 13.7477 25.1223 13.714C25.1223 13.687 25.1459 13.687 25.1661 13.6836C25.1661 13.7072 25.1661 13.7342 25.1661 13.7578Z" fill="#060302"/>
<path d="M19.6639 4.85227C19.6268 4.8995 19.6167 4.87251 19.6133 4.83203C19.6301 4.83878 19.6538 4.83203 19.6639 4.85227Z" fill="#060302"/>
<path d="M19.1922 5.4985C19.1922 5.4985 19.2023 5.50525 19.2056 5.50525C19.317 5.58621 19.4317 5.65705 19.5598 5.70427C19.57 5.71102 19.5801 5.71776 19.5868 5.72788C19.5868 5.73463 19.5936 5.73463 19.6003 5.73126C19.6307 5.76499 19.661 5.79535 19.7083 5.80547C19.9174 5.98087 20.1636 6.09893 20.3795 6.26085C21.0811 6.77695 21.7389 7.34364 22.3157 8.00479C22.6564 8.39608 22.9668 8.80761 23.2332 9.24613C23.4491 9.60369 23.6718 9.96462 23.8134 10.3627C23.8539 10.4065 23.8303 10.474 23.8775 10.5145C23.9652 10.7776 24.0597 11.0407 24.1406 11.3072C24.2688 11.7423 24.3026 12.1977 24.3633 12.6463C24.3498 12.6531 24.3363 12.6598 24.3228 12.6699C24.1339 12.6969 23.9416 12.7205 23.7527 12.7475C23.638 12.7644 23.52 12.7846 23.4053 12.8015C23.3446 12.7981 23.2838 12.788 23.2299 12.8183C23.1658 12.8285 23.1017 12.8386 23.0342 12.8487C23.0106 12.8487 22.9904 12.8487 22.9735 12.8656C22.9432 12.8656 22.9162 12.8656 22.8858 12.8689C22.6699 12.8791 22.454 12.906 22.2415 12.9465C22.1403 12.9297 22.0425 12.9769 21.9413 12.9735C21.9076 12.9701 21.8738 12.9668 21.8435 12.9904C21.8266 12.9904 21.8098 12.9938 21.7929 12.9971C21.7659 12.9938 21.7355 12.987 21.7187 13.0174C21.6849 13.0174 21.6546 13.0207 21.6209 13.0241C21.6006 13.0174 21.5838 13.0207 21.5703 13.041C21.5534 13.041 21.5399 13.041 21.523 13.0443C21.5062 13.0443 21.4893 13.0443 21.4724 13.0443C21.3982 13.0545 21.324 13.0612 21.2464 13.0713C21.1823 13.0781 21.1149 13.0747 21.0542 13.0949C20.9125 13.1388 20.7641 13.0848 20.6258 13.1388C20.5617 13.1658 20.4942 13.1624 20.4267 13.1692C20.3829 13.1624 20.3424 13.159 20.3053 13.1894C20.2884 13.1894 20.2716 13.1894 20.2547 13.1928C20.2345 13.1894 20.2142 13.1928 20.2041 13.213C20.113 13.2029 20.022 13.2366 19.9309 13.2434C19.914 13.2434 19.8972 13.2434 19.8803 13.2434C19.8432 13.24 19.8095 13.2366 19.7791 13.2602C19.7487 13.2602 19.715 13.2636 19.6846 13.267C19.5902 13.2771 19.4991 13.2838 19.4047 13.3007C19.064 13.3581 18.7199 13.3648 18.3792 13.4323C18.133 13.4795 17.88 13.4862 17.6304 13.5267C17.3403 13.5739 17.0468 13.6077 16.7567 13.6515C16.4835 13.692 16.2035 13.7122 15.9269 13.746C15.205 13.8337 14.4832 13.9382 13.7613 14.0327C13.2283 14.1035 12.692 14.1643 12.159 14.2317C11.9769 14.2553 11.7947 14.2857 11.6126 14.3059C11.3056 14.343 10.9987 14.3734 10.6917 14.4139C10.1756 14.4813 9.65612 14.5589 9.14002 14.6264C8.7521 14.677 8.36419 14.7175 7.97627 14.7681C7.59847 14.8187 7.22067 14.876 6.8395 14.9232C6.44821 14.9738 6.06029 15.0143 5.669 15.0649C5.33505 15.1087 5.00448 15.156 4.67053 15.1998C4.63343 15.2032 4.58283 15.2268 4.56259 15.1728C4.54573 15.1324 4.5862 15.1054 4.60982 15.0784C4.96063 14.6635 5.35192 14.2857 5.71623 13.8843C5.96584 13.611 6.23907 13.3581 6.46845 13.0612C6.46845 13.0612 6.4752 13.0545 6.47182 13.0545C7.03852 12.454 7.59847 11.8469 8.16854 11.2532C8.77234 10.6224 9.35253 9.97474 9.94284 9.3372C10.4252 8.81773 10.9211 8.30838 11.3933 7.78216C11.761 7.374 12.159 6.99283 12.52 6.57793C12.8404 6.21025 13.2014 5.88305 13.5184 5.51537C13.8558 5.12408 14.2403 4.77664 14.5574 4.37186C14.6991 4.1897 14.8913 4.19308 15.0735 4.23356C15.259 4.27741 15.4445 4.2909 15.6301 4.30777C15.9303 4.33812 16.217 4.41571 16.5105 4.47305C16.6555 4.50004 16.8006 4.52028 16.9524 4.58437C16.7635 4.75303 16.6083 4.93855 16.4497 5.12071C16.3654 5.21516 16.2946 5.31635 16.244 5.42767C16.1731 5.57946 16.0483 5.61657 15.9033 5.62669C15.2286 5.67391 14.6485 5.93365 14.1391 6.37891C13.8962 6.59142 13.6905 6.82754 13.5218 7.0974C13.2958 7.45833 13.1676 7.853 13.117 8.27465C13.1035 8.38934 13.0664 8.50402 13.0698 8.61534C13.1103 9.63067 13.4409 10.5077 14.2774 11.1452C14.7092 11.4758 15.1848 11.7052 15.7245 11.7727C16.271 11.8435 16.8039 11.7996 17.3234 11.5838C18.3792 11.1486 18.9898 10.3525 19.2293 9.25962C19.3372 8.77388 19.317 8.28139 19.155 7.80577C18.8312 6.86128 18.2274 6.1664 17.2762 5.80884C17.0029 5.70427 17.0029 5.71102 17.2053 5.4985C17.3807 5.31298 17.5865 5.16118 17.7822 4.9959C17.9036 4.8947 18.0183 4.9453 18.1363 4.99927C18.4872 5.16793 18.8413 5.33322 19.1955 5.50188L19.1922 5.4985Z" fill="#A65538"/>
<path d="M21.5971 13.8341C21.6207 13.8341 21.6443 13.8273 21.6713 13.8273C21.8433 13.8341 22.0052 13.7835 22.1739 13.7733C22.4808 13.7531 22.7844 13.7025 23.0914 13.6587C23.3073 13.6283 23.5232 13.5946 23.739 13.5642C23.9111 13.5406 24.0865 13.5271 24.2585 13.5069C24.3294 13.5001 24.353 13.5271 24.3496 13.5979C24.3462 13.716 24.3496 13.8374 24.3496 13.9555C24.3496 13.9724 24.3496 13.9892 24.3496 14.0027C24.3496 14.0365 24.3496 14.0702 24.3496 14.1039C24.3361 14.1882 24.3361 14.2692 24.3496 14.3535C24.3496 14.3704 24.3496 14.3873 24.3496 14.4008C24.3361 14.4986 24.3361 14.5998 24.3496 14.701C24.3496 14.9304 24.3496 15.1631 24.3496 15.3925C24.3496 15.4093 24.3496 15.4262 24.3496 15.4431C24.3496 15.4599 24.3496 15.4768 24.3496 15.4903C24.3361 15.5409 24.3361 15.5915 24.3496 15.6421C24.3496 15.6994 24.3496 15.7568 24.3496 15.8141C24.3496 15.8209 24.3496 15.831 24.3496 15.8377C24.3496 15.8951 24.299 15.8951 24.2619 15.9086C24.1641 15.9457 24.0561 15.9221 23.9583 15.9389C23.5097 16.03 23.0475 16.0334 22.6023 16.1312C22.4269 16.1683 22.2447 16.1514 22.0693 16.1818C21.8366 16.2223 21.6038 16.2493 21.3711 16.2796C21.172 16.3066 20.9764 16.3302 20.7774 16.3538C20.5716 16.3808 20.3692 16.4078 20.1635 16.4314C19.924 16.4618 19.6811 16.4921 19.4416 16.5225C19.2831 16.5427 19.1211 16.5461 18.966 16.5967C18.9255 16.5967 18.885 16.6001 18.8445 16.6035C18.8378 16.6035 18.8277 16.6035 18.8209 16.6035C18.6793 16.6035 18.5409 16.6439 18.3993 16.6574C18.1564 16.6777 17.9203 16.7215 17.6774 16.7553C17.5762 16.7451 17.4784 16.7721 17.3806 16.7991C17.33 16.7991 17.2794 16.8058 17.2321 16.8058C17.2153 16.7991 17.2119 16.8126 17.2085 16.8227C16.9286 16.8362 16.652 16.8969 16.3754 16.9172C16.0988 16.9374 15.8289 16.9914 15.5557 17.0217C15.4646 17.0319 15.3701 17.0453 15.2791 17.0555C15.215 17.0791 15.1408 17.0555 15.08 17.0959C15.0227 17.0959 14.9654 17.1027 14.908 17.1027C14.7157 17.1263 14.5268 17.1465 14.3346 17.1702C14.3143 17.1499 14.3008 17.1533 14.2907 17.1769C14.2739 17.1769 14.257 17.1836 14.2401 17.187C14.23 17.1769 14.2199 17.1769 14.2131 17.1904C14.1558 17.2005 14.0951 17.214 14.0377 17.2241C14.0175 17.2174 13.9973 17.214 13.9838 17.241C13.6397 17.2579 13.299 17.3152 12.9549 17.3624C12.7323 17.3928 12.513 17.4164 12.2904 17.4434C12.0948 17.467 11.8957 17.4839 11.7035 17.521C11.518 17.5581 11.3324 17.5648 11.1469 17.5884C10.8467 17.6255 10.5465 17.6761 10.2463 17.72C10.2294 17.72 10.2125 17.72 10.199 17.72C10.1822 17.72 10.1653 17.72 10.1484 17.72C10.1282 17.7132 10.108 17.7065 10.0978 17.7369C10.0742 17.7369 10.0472 17.7402 10.0236 17.7436C9.8887 17.7335 9.75714 17.7537 9.62559 17.7874C9.38946 17.8212 9.15334 17.8549 8.91384 17.8853C8.60688 17.9224 8.29992 17.9527 7.99296 17.9898C7.79731 18.0135 7.60167 18.0472 7.40265 18.0742C7.1699 18.1045 6.93715 18.1315 6.7044 18.1652C6.4143 18.2057 6.12421 18.2192 5.83748 18.2732C5.66545 18.3069 5.49005 18.3069 5.31801 18.3339C5.06502 18.3744 4.81203 18.4115 4.55904 18.4385C4.35665 18.4587 4.15426 18.4857 3.95524 18.5127C3.85404 18.5262 3.82031 18.4924 3.82369 18.3845C3.83043 17.7065 3.82706 17.0319 3.82706 16.3538C3.82706 16.3032 3.82369 16.256 3.82031 16.2054C3.82369 16.1514 3.83381 16.1042 3.90464 16.1042C3.95524 16.1177 4.00584 16.1346 4.05306 16.0907C4.06993 16.0907 4.0868 16.084 4.10029 16.0806C4.14077 16.1076 4.17113 16.1009 4.19811 16.0604C4.22172 16.0604 4.24871 16.0604 4.27232 16.057C4.28919 16.0806 4.30268 16.0705 4.31955 16.057C4.39376 16.0705 4.46459 16.0401 4.53543 16.03C4.82553 15.9963 5.11899 15.976 5.40572 15.9254C5.7228 15.8715 6.03988 15.8479 6.35696 15.804C6.62681 15.7703 6.8933 15.7129 7.16315 15.6859C7.32507 15.6691 7.48361 15.6151 7.64215 15.6117C7.98959 15.6016 8.33028 15.5308 8.67772 15.5004C9.0825 15.4667 9.48054 15.3891 9.88195 15.3351C10.2867 15.2812 10.6949 15.2339 11.103 15.1833C11.2076 15.1698 11.3088 15.1327 11.4134 15.1361C11.6731 15.1462 11.9194 15.0552 12.1791 15.0417C12.4523 15.0282 12.7256 14.9708 12.9988 14.9337C13.2315 14.9034 13.4677 14.8899 13.697 14.8426C13.9568 14.792 14.2199 14.7819 14.4796 14.7448C14.6584 14.7212 14.8439 14.7043 15.0227 14.6807C15.4039 14.6335 15.785 14.5593 16.1696 14.5323C16.318 14.5222 16.4732 14.5087 16.6149 14.475C16.8307 14.4244 17.05 14.4244 17.2659 14.3873C17.5088 14.3434 17.7584 14.34 18.0046 14.2928C18.1969 14.2557 18.3892 14.2355 18.5848 14.2119C18.8243 14.1849 19.0604 14.1613 19.2999 14.1343C19.5327 14.1073 19.7654 14.0736 19.9982 14.0398C20.2006 14.0095 20.403 13.9791 20.6053 13.9454C20.6526 13.942 20.7032 13.9386 20.7504 13.9353C20.8044 13.9521 20.8482 13.9083 20.8988 13.9116C20.9157 13.9116 20.9325 13.9116 20.9494 13.9116C21.0236 13.9251 21.0911 13.8914 21.1653 13.8847C21.3103 13.8745 21.452 13.8408 21.5971 13.8206V13.8341Z" fill="#FED69C"/>
<path d="M12.0062 23.4761C11.9657 23.4794 11.9252 23.4862 11.8847 23.4896C11.8476 23.4727 11.8139 23.4761 11.7835 23.5031C11.5171 23.5368 11.2506 23.5705 10.9841 23.6043C10.9672 23.5874 10.9537 23.584 10.9369 23.6043C10.893 23.611 10.8525 23.6177 10.8087 23.6211C10.7884 23.5975 10.7749 23.6076 10.7615 23.6279C10.7277 23.6346 10.694 23.6414 10.6569 23.6447C10.6198 23.6177 10.6029 23.638 10.5894 23.6683C10.2757 23.6785 9.96875 23.7392 9.65842 23.7864C9.48639 23.8134 9.31098 23.8201 9.13557 23.8438C8.86235 23.8809 8.58574 23.8842 8.31589 23.9483C8.12024 23.9955 7.92122 24.009 7.7222 24.0158C7.46584 24.0259 7.2196 24.1001 6.96324 24.1237C6.73048 24.144 6.49773 24.1777 6.26498 24.2182C5.90742 24.2823 5.54649 24.3025 5.19231 24.3565C4.90896 24.4003 4.62224 24.4307 4.33551 24.4678C4.20396 24.4847 4.06566 24.4678 3.93748 24.5083C3.84303 24.5386 3.79918 24.5015 3.81604 24.4003C3.82279 24.3632 3.81604 24.3261 3.81267 24.289C3.81267 23.6481 3.81267 23.0072 3.81267 22.3697C3.81267 22.282 3.81604 22.2381 3.9341 22.228C4.21745 22.1976 4.5008 22.1774 4.78078 22.1268C5.14845 22.0627 5.52288 22.0492 5.89056 21.9851C6.35606 21.9008 6.82831 21.8671 7.29718 21.7929C7.60077 21.7456 7.90773 21.7119 8.21469 21.6849C8.55876 21.6512 8.90282 21.577 9.24689 21.5466C9.54711 21.5196 9.84395 21.4758 10.1442 21.4387C10.3668 21.4083 10.5928 21.3948 10.8154 21.3476C11.0111 21.3071 11.2101 21.2936 11.4091 21.27C11.6958 21.2329 11.9826 21.2025 12.2693 21.1621C12.502 21.1283 12.7382 21.1148 12.9709 21.0744C13.2745 21.0204 13.5814 20.9833 13.8884 20.9529C14.111 20.9327 14.3337 20.8956 14.5563 20.8686C14.8869 20.8281 15.2175 20.8011 15.548 20.7438C15.7909 20.6999 16.0405 20.6831 16.2868 20.6527C16.5634 20.6156 16.84 20.5718 17.1166 20.5346C17.2818 20.511 17.4471 20.4908 17.6124 20.484C17.6934 20.4807 17.771 20.4402 17.8553 20.4537C18.0037 20.4537 18.1555 20.4469 18.2972 20.3997C18.5704 20.3727 18.8436 20.339 19.1135 20.2749C19.2956 20.2749 19.4744 20.2277 19.6498 20.1973C19.7612 20.1771 19.8725 20.1973 19.9804 20.1771C20.0276 20.1973 20.0614 20.1535 20.1052 20.1501C20.1356 20.1737 20.1592 20.1737 20.1794 20.1366L20.3042 20.1231C20.3245 20.1501 20.3413 20.14 20.3582 20.1164C20.7461 20.0725 21.134 20.032 21.522 19.9814C21.9234 19.9308 22.3214 19.8465 22.7228 19.8195C23.0332 19.7993 23.33 19.7116 23.6437 19.7048C23.8393 19.7015 24.035 19.6475 24.234 19.634C24.315 19.6273 24.3554 19.6475 24.3453 19.7386C24.3386 19.8128 24.3487 19.887 24.3521 19.9612C24.3386 20.3221 24.342 20.6864 24.3521 21.0474C24.3521 21.0642 24.3521 21.0811 24.3521 21.1013C24.3521 21.1654 24.3521 21.2295 24.3521 21.297C24.3521 21.3476 24.3521 21.3982 24.3521 21.4488C24.3453 21.4555 24.3453 21.4623 24.3521 21.469C24.3521 21.496 24.3521 21.5196 24.3521 21.5466C24.3521 21.5702 24.3521 21.5938 24.3521 21.6174C24.3487 21.7051 24.3352 21.7895 24.3622 21.8738C24.3251 21.8637 24.3116 21.894 24.2947 21.9143C23.9675 21.9379 23.6403 21.9919 23.3165 22.0323C23.0905 22.0627 22.8645 22.0829 22.6385 22.1133C22.3585 22.1504 22.0785 22.201 21.7986 22.228C21.5321 22.2516 21.269 22.3326 20.9957 22.3157C20.9789 22.3123 20.9721 22.3224 20.9688 22.3359C20.935 22.3393 20.9047 22.3427 20.8709 22.3461C20.8372 22.3461 20.8001 22.3292 20.7731 22.3629C20.7326 22.3663 20.6888 22.3697 20.6483 22.373C20.6281 22.3663 20.6112 22.3629 20.5977 22.3865C20.564 22.3865 20.5302 22.3933 20.4965 22.3933C20.4695 22.3899 20.4425 22.3764 20.4223 22.4101C20.3717 22.4101 20.3245 22.4169 20.2739 22.4203C20.2401 22.4135 20.203 22.4034 20.1761 22.4371C20.1592 22.4371 20.1423 22.4405 20.1255 22.4439C20.085 22.4439 20.0378 22.427 20.004 22.4641C19.9703 22.4641 19.9366 22.4709 19.9028 22.4709C19.8758 22.4675 19.8489 22.4574 19.8286 22.4877C19.805 22.4877 19.778 22.4911 19.7544 22.4945C19.7038 22.4945 19.6532 22.4776 19.606 22.5147C19.3834 22.508 19.1742 22.5856 18.955 22.5957C18.7391 22.6058 18.5232 22.6631 18.3073 22.6834C18.0374 22.7104 17.7676 22.7407 17.4977 22.7913C17.4606 22.7879 17.4235 22.7711 17.3965 22.8116C17.3392 22.8116 17.2818 22.8149 17.2245 22.8183C17.1435 22.8419 17.0558 22.8183 16.9749 22.8588C16.8939 22.8689 16.8062 22.8487 16.7286 22.8925C16.6983 22.8925 16.6713 22.8858 16.6409 22.8925C16.4419 22.9296 16.2362 22.933 16.0405 22.9701C15.8719 23.0005 15.7032 23.0072 15.5345 23.0376C15.3288 23.0747 15.123 23.0882 14.9139 23.1151C14.698 23.1421 14.4821 23.186 14.2628 23.2028C14.0368 23.2197 13.8142 23.2669 13.5882 23.2872C13.4128 23.304 13.234 23.3378 13.0586 23.3648C13.035 23.3648 13.008 23.3648 12.9844 23.3648C12.9642 23.358 12.9439 23.358 12.9338 23.3816C12.9001 23.3816 12.8697 23.385 12.836 23.3884C12.5796 23.4187 12.3199 23.4491 12.0635 23.4794C12.0399 23.4558 12.0163 23.4592 11.996 23.4828L12.0062 23.4761Z" fill="#FED69C"/>
<path d="M24.3577 16.9032C24.3577 17.4969 24.3577 18.0939 24.3645 18.6876C24.3645 18.7652 24.324 18.7854 24.2565 18.7922C23.8686 18.8192 23.4841 18.8833 23.0995 18.9372C22.7622 18.9845 22.4249 19.0216 22.0876 19.062C21.7199 19.1093 21.3522 19.17 20.9812 19.2037C20.5494 19.2442 20.121 19.3184 19.6926 19.3623C19.362 19.396 19.0348 19.4398 18.7042 19.4938C18.4782 19.5309 18.2455 19.5512 18.0161 19.5781C17.7429 19.6085 17.473 19.6557 17.1998 19.6928C16.9704 19.7232 16.741 19.7502 16.5117 19.7772C16.2148 19.8143 15.9146 19.8413 15.6211 19.8919C15.3985 19.9323 15.1691 19.9458 14.9431 19.9762C14.7138 20.0065 14.4877 20.0436 14.2584 20.074C14.0863 20.0942 13.9109 20.1044 13.7389 20.1246C13.631 20.1381 13.523 20.1617 13.4151 20.1752C13.1418 20.2089 12.8652 20.2191 12.5988 20.2798C12.4132 20.3203 12.2176 20.2933 12.0388 20.3574C11.9444 20.3911 11.8432 20.3843 11.7521 20.3877C11.462 20.408 11.182 20.4788 10.8953 20.499C10.6119 20.5193 10.332 20.58 10.052 20.6103C9.80238 20.6373 9.55613 20.698 9.29977 20.698C9.11762 20.698 8.93884 20.7453 8.75668 20.7689C8.56104 20.7959 8.36202 20.8127 8.16637 20.8431C7.8864 20.8903 7.60305 20.8971 7.32645 20.9578C7.17803 20.9915 7.01949 21.0016 6.86769 21.0118C6.63157 21.0252 6.40557 21.0893 6.17281 21.1062C5.96705 21.1197 5.76466 21.1669 5.55889 21.1872C5.34638 21.2074 5.13387 21.2344 4.92136 21.2647C4.72234 21.2951 4.51995 21.3153 4.31756 21.339C4.18263 21.3558 4.0477 21.3929 3.9094 21.3929C3.81832 21.3929 3.79471 21.3592 3.8082 21.2782C3.86217 20.9409 3.81832 20.6036 3.83519 20.2663C3.84193 20.0774 3.81832 19.8885 3.81158 19.703C3.81158 19.6051 3.82507 19.5073 3.83519 19.4129C3.84193 19.3454 3.89253 19.3353 3.94988 19.3319C4.20624 19.3252 4.45586 19.2712 4.70885 19.2408C4.93485 19.2172 5.16086 19.1869 5.38349 19.1565C5.61624 19.1228 5.84899 19.0992 6.08174 19.0688C6.301 19.0418 6.52363 19.0081 6.74626 18.9845C7.08358 18.9507 7.4209 18.8968 7.75822 18.8529C7.9235 18.8327 8.08542 18.8057 8.2507 18.7854C8.60152 18.7416 8.94896 18.6977 9.2964 18.6438C9.52915 18.6067 9.76527 18.5932 10.0014 18.5628C10.4804 18.5055 10.9594 18.4582 11.435 18.384C11.8263 18.3199 12.221 18.2828 12.6122 18.2221C12.9023 18.1783 13.1958 18.1412 13.4927 18.1142C13.7861 18.0872 14.0762 18.0231 14.3697 17.9961C14.6126 17.9759 14.8554 17.9455 15.0983 17.9152C15.439 17.8713 15.7797 17.8173 16.1204 17.7701C16.343 17.7398 16.5623 17.7195 16.7849 17.6925C17.0548 17.6588 17.328 17.6352 17.5945 17.588C17.834 17.5441 18.0768 17.534 18.3163 17.4969C18.539 17.4632 18.765 17.4227 18.991 17.4024C19.2069 17.3856 19.4126 17.335 19.6285 17.3181C19.8545 17.3012 20.0805 17.2709 20.3031 17.2304C20.4752 17.2 20.6506 17.1933 20.8226 17.1697C21.1667 17.1258 21.5107 17.0651 21.8548 17.0348C22.0741 17.0145 22.29 16.9808 22.5058 16.9504C22.8094 16.9066 23.113 16.8593 23.42 16.8256C23.7 16.7986 23.9766 16.7379 24.2565 16.7447C24.2903 16.7447 24.324 16.7447 24.3544 16.748C24.3544 16.7919 24.3948 16.829 24.3678 16.8728L24.3611 16.8762C24.3611 16.883 24.3645 16.8863 24.3678 16.8931L24.3577 16.9032Z" fill="#FEFEFF"/>
<path d="M4.2719 16.0646C4.24828 16.0646 4.2213 16.0646 4.19769 16.068C4.16058 16.0545 4.12685 16.0512 4.09986 16.0883C4.083 16.0883 4.06613 16.095 4.05264 16.0984C4.00204 16.0849 3.95144 16.0849 3.90422 16.1119C3.83675 16.1119 3.82326 16.1591 3.81989 16.2131C3.75917 16.1321 3.69171 16.0849 3.58039 16.0815C3.49606 16.0815 3.46908 15.9466 3.54329 15.8724C3.63436 15.7847 3.71869 15.6767 3.87723 15.6902C3.96156 15.697 4.04252 15.6632 4.09986 15.5823C4.15721 15.5013 4.22467 15.4979 4.29214 15.5789C4.35285 15.6531 4.41694 15.6734 4.48778 15.589C4.52489 15.5452 4.57211 15.5418 4.62271 15.5452C4.66319 15.5452 4.71379 15.5452 4.70704 15.4845C4.70367 15.4372 4.66656 15.417 4.61596 15.4204C4.4979 15.4305 4.38996 15.3934 4.27527 15.3765C4.15046 15.3596 4.12685 15.2888 4.12348 15.1944C4.11673 15.0696 4.18757 14.9684 4.29214 14.9785C4.57211 15.0021 4.6868 14.7963 4.84197 14.6277C4.93979 14.5197 5.02075 14.3949 5.12869 14.2937C5.26024 14.1689 5.3412 14.0036 5.44577 13.8586C5.54697 13.7203 5.60768 13.5685 5.66165 13.4066C5.68189 13.3425 5.74261 13.2683 5.79996 13.248C6.01921 13.1738 6.24522 13.1232 6.46785 13.0625C6.23847 13.356 5.96862 13.609 5.71563 13.8856C5.35132 14.287 4.96003 14.6648 4.60922 15.0797C4.5856 15.1067 4.54513 15.1336 4.56199 15.1741C4.58223 15.2247 4.6362 15.2045 4.66993 15.2011C5.00388 15.1573 5.33445 15.11 5.6684 15.0662C6.05969 15.0156 6.44761 14.9751 6.8389 14.9245C7.2167 14.8773 7.5945 14.8166 7.97567 14.7693C8.36359 14.7187 8.7515 14.6783 9.13942 14.6277C9.65552 14.5602 10.175 14.4826 10.6911 14.4152C10.9981 14.3747 11.305 14.3443 11.612 14.3072C11.7941 14.2836 11.9763 14.2532 12.1584 14.233C12.6914 14.1655 13.2277 14.1048 13.7607 14.034C14.4826 13.9395 15.2044 13.8316 15.9263 13.7473C16.2029 13.7135 16.4829 13.6967 16.7561 13.6528C17.0462 13.609 17.3397 13.5752 17.6298 13.528C17.876 13.4875 18.1324 13.4841 18.3786 13.4336C18.7193 13.3661 19.0634 13.3593 19.4041 13.302C19.4951 13.2851 19.5896 13.2784 19.684 13.2683C19.7819 13.3964 19.8223 13.5719 20.0045 13.6292C20.0483 13.6427 20.0753 13.6899 20.0821 13.7473C20.0888 13.8181 20.1394 13.8687 20.2069 13.8552C20.3621 13.8215 20.4835 13.8788 20.6015 13.9665C20.3992 13.9969 20.1968 14.0306 19.9944 14.061C19.7616 14.0947 19.5289 14.1284 19.2961 14.1554C19.0566 14.1858 18.8205 14.206 18.581 14.233C18.3887 14.2566 18.1931 14.2769 18.0008 14.314C17.7546 14.3612 17.505 14.3612 17.2621 14.4084C17.0462 14.4489 16.8269 14.4489 16.6111 14.4961C16.466 14.5298 16.3142 14.5433 16.1658 14.5535C15.7812 14.5771 15.4001 14.6546 15.0189 14.7019C14.8368 14.7221 14.6546 14.739 14.4758 14.766C14.2161 14.8031 13.953 14.8132 13.6932 14.8638C13.4639 14.911 13.2277 14.9245 12.995 14.9549C12.7218 14.992 12.4519 15.0493 12.1753 15.0628C11.9189 15.0763 11.6727 15.164 11.4096 15.1573C11.3084 15.1539 11.2038 15.191 11.0992 15.2045C10.6911 15.2551 10.2863 15.3023 9.87815 15.3563C9.47674 15.4102 9.07533 15.4878 8.67392 15.5216C8.32985 15.5519 7.98916 15.6228 7.63835 15.6329C7.47981 15.6362 7.32127 15.6902 7.15935 15.7071C6.8895 15.7341 6.62302 15.788 6.35316 15.8251C6.03608 15.8656 5.719 15.8892 5.40192 15.9466C5.1152 15.9972 4.82173 16.0174 4.53163 16.0512C4.4608 16.0579 4.38996 16.0883 4.31575 16.0781C4.29888 16.0579 4.28539 16.0545 4.26852 16.0781L4.2719 16.0646Z" fill="#060302"/>
<path d="M24.3485 15.3927C24.3485 15.1633 24.3485 14.9305 24.3485 14.7012C24.3552 14.7012 24.3586 14.7012 24.3653 14.7012C24.4058 14.7045 24.4193 14.7315 24.4193 14.7686C24.4126 15.1633 24.5576 15.5411 24.5576 15.9391C24.5576 16.0268 24.5003 16.0808 24.4632 16.1449C24.4463 16.1753 24.3957 16.1719 24.3687 16.1348C24.3215 16.0707 24.2641 16.0876 24.2034 16.1112C24.0989 16.155 23.9977 16.1786 23.8796 16.1449C23.8088 16.1213 23.7312 16.1213 23.6502 16.1348C23.5591 16.1483 23.4579 16.1618 23.3635 16.1044C23.296 16.0639 23.2184 16.1112 23.151 16.1348C23.0026 16.1786 22.8609 16.2427 22.6956 16.1955C22.6012 16.1685 22.5269 16.2326 22.4392 16.2596C22.2571 16.3136 22.0682 16.3642 21.8759 16.3878C21.6836 16.4114 21.5015 16.4856 21.3058 16.4721C21.2283 16.4654 21.1777 16.5429 21.1136 16.5767C20.9382 16.6711 20.7493 16.7318 20.5637 16.7453C20.4018 16.7588 20.2129 16.7993 20.0611 16.6644C19.997 16.607 19.9093 16.6037 19.825 16.6205C19.8048 16.6239 19.7812 16.6441 19.7677 16.6374C19.6058 16.5598 19.4438 16.6003 19.2786 16.6104C19.2212 16.6104 19.1672 16.6104 19.1133 16.6273C19.0627 16.6441 19.0087 16.661 18.9648 16.6138C19.12 16.5666 19.2819 16.5632 19.4405 16.5396C19.68 16.5092 19.9228 16.4788 20.1623 16.4485C20.3681 16.4215 20.5705 16.3945 20.7763 16.3709C20.9753 16.3473 21.1709 16.3203 21.3699 16.2967C21.6027 16.2663 21.8354 16.2393 22.0682 16.1989C22.247 16.1685 22.4257 16.1854 22.6012 16.1483C23.0498 16.0505 23.5085 16.0471 23.9572 15.956C24.055 15.9358 24.1596 15.9594 24.2608 15.9256C24.2979 15.9122 24.3451 15.9088 24.3485 15.8548C24.3518 15.8548 24.3586 15.8514 24.3586 15.8481C24.3586 15.8413 24.3552 15.8346 24.3518 15.8312C24.3518 15.7738 24.3518 15.7165 24.3518 15.6592C24.3755 15.6086 24.3721 15.558 24.3518 15.5074C24.3518 15.4905 24.3518 15.4736 24.3518 15.4601C24.3687 15.4433 24.3687 15.4264 24.3518 15.4095L24.3485 15.3927Z" fill="#060302"/>
<path d="M24.3493 14.105C24.3493 14.0713 24.3493 14.0376 24.3493 14.0038C24.3662 13.987 24.3662 13.9701 24.3493 13.9566C24.3493 13.8385 24.3426 13.7171 24.3493 13.599C24.3493 13.5282 24.3291 13.5012 24.2583 13.508C24.0862 13.5282 23.9108 13.5417 23.7388 13.5653C23.5229 13.5923 23.307 13.6294 23.0911 13.6598C22.7875 13.7002 22.4806 13.7542 22.1736 13.7745C22.005 13.7846 21.8397 13.8385 21.671 13.8284C21.6541 13.7171 21.7081 13.6564 21.8127 13.6328C21.9577 13.599 22.0893 13.508 22.2445 13.5046C22.2681 13.5046 22.2951 13.4911 22.3119 13.4742C22.3996 13.3697 22.5312 13.3359 22.6459 13.2786C22.8651 13.1639 23.0439 13.2347 23.2159 13.3595C23.3205 13.4338 23.4959 13.4607 23.6072 13.4C23.6275 13.3899 23.6511 13.3663 23.6713 13.3697C23.9108 13.3865 24.1503 13.2921 24.3864 13.3865C24.4337 13.4068 24.4944 13.4371 24.545 13.373C24.5517 13.3629 24.5787 13.3629 24.5922 13.3697C24.7069 13.4203 24.6563 13.535 24.69 13.6193C24.7103 13.6733 24.6698 13.7137 24.6192 13.734C24.4235 13.8116 24.4269 13.8116 24.4202 14.0173C24.4202 14.0612 24.4438 14.1219 24.3662 14.132C24.3595 14.1253 24.3561 14.1151 24.3493 14.1084V14.105Z" fill="#060302"/>
<path d="M13.0703 23.3542C13.2457 23.3272 13.4211 23.2934 13.5999 23.2766C13.8259 23.2563 14.0485 23.2091 14.2745 23.1922C14.4938 23.1754 14.7097 23.1315 14.9256 23.1045C15.1313 23.0776 15.3405 23.0641 15.5462 23.027C15.7149 22.9966 15.8836 22.9898 16.0522 22.9595C16.2512 22.9224 16.4536 22.919 16.6526 22.8819C16.6796 22.8752 16.71 22.8819 16.7404 22.8819C16.6931 22.9561 16.6223 22.9797 16.538 22.9764C16.3457 22.973 16.1905 23.0708 16.0623 23.199C15.9004 23.3609 15.7588 23.3913 15.5564 23.2698C15.5159 23.2462 15.4788 23.2462 15.4417 23.2664C15.3641 23.3103 15.2865 23.3002 15.2022 23.2867C15.0436 23.2664 14.8817 23.2496 14.7266 23.3103C14.6321 23.3474 14.5377 23.3542 14.4365 23.3305C14.3488 23.3103 14.2543 23.3036 14.1666 23.3339C13.8664 23.4452 13.5527 23.4486 13.239 23.4452C13.1715 23.4452 13.0804 23.4621 13.0703 23.3508V23.3542Z" fill="#060302"/>
<path d="M24.3646 12.6397C24.3039 12.191 24.2736 11.739 24.142 11.3005C24.0644 11.034 23.9666 10.7709 23.8789 10.5078C23.9025 10.5146 23.943 10.5146 23.9464 10.5247C23.9767 10.663 24.1117 10.7473 24.1319 10.9025C24.1623 11.1285 24.2061 11.3511 24.2972 11.567C24.3613 11.7255 24.368 11.9077 24.4186 12.0763C24.4355 12.1269 24.4524 12.1775 24.476 12.2248C24.5333 12.326 24.5164 12.5351 24.4422 12.6161C24.4186 12.643 24.3916 12.6363 24.3613 12.6363L24.3646 12.6397Z" fill="#060302"/>
<path d="M21.5969 13.8354C21.4518 13.859 21.3102 13.8927 21.1651 13.8995C21.0909 13.9028 21.0234 13.9399 20.9492 13.9264C20.9526 13.7983 21.1246 13.6971 21.2596 13.7713C21.3439 13.8151 21.4113 13.8252 21.4957 13.8084C21.5294 13.8016 21.5699 13.7983 21.5969 13.8354Z" fill="#060302"/>
<path d="M22.2422 12.9448C22.4547 12.9043 22.6706 12.8773 22.8865 12.8672C22.8426 12.9583 22.7853 13.0089 22.6706 12.9954C22.5626 12.9819 22.448 12.9751 22.34 13.0055C22.2827 13.0224 22.2523 13.0055 22.2422 12.9448Z" fill="#060302"/>
<path d="M19.1171 20.2701C18.8472 20.3342 18.574 20.3679 18.3008 20.3949C18.3008 20.3848 18.3008 20.378 18.3008 20.3679C18.375 20.287 18.4829 20.2937 18.574 20.2903C18.7562 20.2836 18.9349 20.2161 19.1171 20.2667V20.2701Z" fill="#060302"/>
<path d="M23.7539 12.7416C23.9428 12.7147 24.1351 12.691 24.324 12.6641C24.324 12.691 24.3105 12.718 24.2835 12.7147C24.1992 12.7079 24.1418 12.7619 24.0744 12.8024C23.9867 12.8597 23.8146 12.826 23.7539 12.745V12.7416Z" fill="#060302"/>
<path d="M14.3322 17.1768C14.5245 17.1532 14.7134 17.133 14.9056 17.1094C14.8854 17.1971 14.8078 17.187 14.7471 17.2005C14.6358 17.2241 14.5211 17.2376 14.4064 17.251C14.3693 17.2544 14.3187 17.2679 14.3086 17.2072C14.3153 17.1971 14.3221 17.1903 14.3322 17.1802V17.1768Z" fill="#060302"/>
<path d="M20.6289 13.1358C20.7672 13.0819 20.9156 13.1358 21.0573 13.092C21.118 13.0751 21.1855 13.0751 21.2496 13.0684C21.1922 13.1561 21.0978 13.1392 21.0168 13.1493C20.8886 13.1662 20.7571 13.1864 20.6323 13.1358H20.6289Z" fill="#060302"/>
<path d="M24.3566 21.0432C24.3464 20.6823 24.3431 20.318 24.3566 19.957C24.3903 20.2066 24.3667 20.4563 24.37 20.7025C24.37 20.8172 24.3903 20.9319 24.3566 21.0432Z" fill="#060302"/>
<path d="M24.3441 16.755C24.3103 16.755 24.2766 16.755 24.2462 16.7516C24.253 16.701 24.226 16.6639 24.1855 16.6403C24.1619 16.6268 24.145 16.6099 24.1653 16.5829C24.1788 16.5661 24.2024 16.5526 24.2193 16.5661C24.2867 16.6133 24.3609 16.6571 24.3441 16.7583V16.755Z" fill="#060302"/>
<path d="M18.3013 20.3691C18.3013 20.3691 18.3013 20.386 18.3013 20.3961C18.1562 20.4434 18.0078 20.4501 17.8594 20.4501C17.9268 20.386 18.0179 20.4062 18.0955 20.3894C18.1394 20.3793 18.1832 20.3793 18.2271 20.3759H18.2405H18.2507C18.2675 20.3725 18.2844 20.3725 18.3013 20.3725V20.3691Z" fill="#A65538"/>
<path d="M9.62109 17.7945C9.75265 17.7608 9.8842 17.7405 10.0191 17.7507C10.009 17.8013 9.96853 17.8013 9.9348 17.7945C9.83023 17.7776 9.72566 17.8586 9.62109 17.7945Z" fill="#060302"/>
<path d="M24.5703 16.1351C24.5804 16.098 24.5568 16.0407 24.6142 16.0474C24.6648 16.0542 24.6681 16.1115 24.6715 16.1554C24.6715 16.1958 24.658 16.2363 24.6108 16.2296C24.5501 16.2195 24.5872 16.1621 24.5703 16.1351Z" fill="#060302"/>
<path d="M19.9336 13.2412C20.0247 13.2345 20.1124 13.2007 20.2068 13.2109C20.136 13.2918 20.0011 13.3053 19.9336 13.2412Z" fill="#060302"/>
<path d="M17.3789 16.8067C17.4767 16.7797 17.5746 16.7561 17.6757 16.7629C17.5847 16.8303 17.4835 16.8371 17.3789 16.8067Z" fill="#060302"/>
<path d="M16.9844 22.851C17.062 22.8139 17.153 22.8342 17.234 22.8105C17.1564 22.8443 17.0889 22.9623 16.9844 22.851Z" fill="#060302"/>
<path d="M15.0781 17.103C15.1388 17.0625 15.2131 17.0861 15.2771 17.0625C15.2198 17.1232 15.1591 17.1536 15.0781 17.103Z" fill="#060302"/>
<path d="M20.9023 13.9253C20.8517 13.9253 20.8079 13.9692 20.7539 13.949C20.7876 13.8511 20.8416 13.8579 20.9023 13.9253Z" fill="#060302"/>
<path d="M20.308 20.1193C20.2676 20.1226 20.2237 20.1294 20.1832 20.1328C20.1765 20.126 20.1664 20.1226 20.1562 20.1159C20.1967 20.0451 20.2507 20.072 20.3047 20.0957C20.3013 20.1024 20.3047 20.1091 20.3047 20.1193H20.308Z" fill="#060302"/>
<path d="M24.3668 14.6987C24.3668 14.6987 24.3567 14.6987 24.35 14.6987C24.3365 14.5975 24.3365 14.4996 24.35 14.3984C24.3803 14.4963 24.35 14.5975 24.3668 14.6953V14.6987Z" fill="#A65538"/>
<path d="M19.6133 22.5104C19.6571 22.4733 19.7111 22.4902 19.7617 22.4902C19.7212 22.561 19.6673 22.534 19.6133 22.5104Z" fill="#060302"/>
<path d="M20.1092 20.1465C20.0653 20.1465 20.0316 20.1938 19.9844 20.1735C20.008 20.1162 20.0518 20.1027 20.1092 20.1263C20.1092 20.133 20.1092 20.1398 20.1092 20.1499V20.1465Z" fill="#060302"/>
<path d="M24.3505 14.1049C24.3505 14.1049 24.3606 14.1218 24.3674 14.1285C24.3572 14.2028 24.3809 14.2803 24.3539 14.3512C24.3404 14.2668 24.3404 14.1859 24.3539 14.1016L24.3505 14.1049Z" fill="#A65538"/>
<path d="M20.3047 13.1874C20.3418 13.157 20.3856 13.1638 20.4261 13.1671C20.3856 13.1671 20.3587 13.2818 20.3047 13.1874Z" fill="#060302"/>
<path d="M24.3555 21.2894C24.3555 21.2253 24.3555 21.1612 24.3555 21.0938C24.3825 21.1578 24.3791 21.2219 24.3555 21.2894Z" fill="#060302"/>
<path d="M20.7773 22.3622C20.8043 22.3285 20.8414 22.342 20.8752 22.3454C20.8516 22.4027 20.8178 22.3926 20.7773 22.3622Z" fill="#060302"/>
<path d="M20.1836 22.4358C20.2106 22.4021 20.2477 22.4122 20.2814 22.419C20.2578 22.4763 20.2207 22.4662 20.1836 22.4358Z" fill="#060302"/>
<path d="M20.0117 22.4596C20.0455 22.4225 20.0927 22.4394 20.1332 22.4394C20.096 22.4596 20.0623 22.5068 20.0117 22.4596Z" fill="#060302"/>
<path d="M23.2266 12.8128C23.2839 12.7791 23.3446 12.7892 23.402 12.7959C23.348 12.8364 23.2839 12.8094 23.2266 12.8128Z" fill="#060302"/>
<path d="M21.8438 12.988C21.8741 12.9644 21.9078 12.9678 21.9416 12.9711C21.9146 13.0082 21.8842 13.0352 21.8438 12.988Z" fill="#060302"/>
<path d="M20.4297 22.4091C20.4499 22.3754 20.4769 22.3889 20.5039 22.3922C20.487 22.4395 20.4634 22.4428 20.4297 22.4091Z" fill="#060302"/>
<path d="M19.8359 22.4841C19.8562 22.4537 19.8832 22.4639 19.9101 22.4672C19.8933 22.5145 19.8697 22.5178 19.8359 22.4841Z" fill="#060302"/>
<path d="M20.1109 20.1456C20.1109 20.1456 20.1075 20.1321 20.1109 20.122C20.1277 20.122 20.1446 20.1186 20.1615 20.1152C20.1716 20.122 20.1783 20.1254 20.1885 20.1321C20.1682 20.1658 20.1446 20.1692 20.1142 20.1456H20.1109Z" fill="#A65538"/>
<path d="M24.2969 21.9136C24.3137 21.8933 24.3272 21.863 24.3643 21.8731C24.3677 21.9304 24.3239 21.9102 24.2969 21.9136Z" fill="#060302"/>
<path d="M20.6055 22.3857C20.6156 22.362 20.6358 22.3654 20.6561 22.3722C20.6459 22.4025 20.6325 22.4194 20.6055 22.3857Z" fill="#060302"/>
<path d="M19.7812 13.261C19.8116 13.2374 19.8487 13.2374 19.8824 13.2441C19.8521 13.2745 19.815 13.261 19.7812 13.261Z" fill="#060302"/>
<path d="M14.3324 17.1774C14.3324 17.1774 14.3189 17.1942 14.3088 17.2043C14.302 17.1976 14.2953 17.1908 14.2852 17.1841C14.2986 17.1605 14.3121 17.1571 14.329 17.1774H14.3324Z" fill="#A65538"/>
<path d="M21.4727 13.041C21.4727 13.041 21.5064 13.041 21.5233 13.041C21.5233 13.0579 21.5199 13.0747 21.4996 13.0747C21.4794 13.0747 21.476 13.0545 21.476 13.041H21.4727Z" fill="#060302"/>
<path d="M10.0938 17.7467C10.1039 17.7197 10.1241 17.7265 10.1443 17.7299C10.1376 17.7636 10.1241 17.7838 10.0938 17.7467Z" fill="#060302"/>
<path d="M17.4023 22.8039C17.4293 22.7635 17.4664 22.7803 17.5035 22.7837C17.4732 22.8141 17.4361 22.8006 17.4023 22.8039Z" fill="#060302"/>
<path d="M20.3062 20.1193C20.3062 20.1193 20.3028 20.1058 20.3062 20.0957C20.3231 20.1024 20.3433 20.1058 20.3602 20.1126C20.3467 20.1362 20.3298 20.1463 20.3062 20.1193Z" fill="#A65538"/>
<path d="M24.3555 21.6138C24.3555 21.5902 24.3555 21.5666 24.3555 21.543C24.3757 21.5666 24.3757 21.5902 24.3555 21.6138Z" fill="#060302"/>
<path d="M21.7188 13.0116C21.739 12.9812 21.766 12.988 21.793 12.9914C21.7727 13.0184 21.7457 13.0116 21.7188 13.0116Z" fill="#060302"/>
<path d="M20.207 13.2108C20.2172 13.1906 20.2374 13.1872 20.2576 13.1906C20.2441 13.2075 20.2273 13.2108 20.207 13.2108Z" fill="#060302"/>
<path d="M22.9688 12.8603C22.9856 12.8401 23.0059 12.8401 23.0295 12.8435C23.0126 12.8671 22.9924 12.8637 22.9688 12.8603Z" fill="#060302"/>
<path d="M21.5703 13.0376C21.5804 13.0174 21.6007 13.014 21.6209 13.0207C21.604 13.0275 21.5872 13.0309 21.5703 13.0376Z" fill="#060302"/>
<path d="M10.1953 17.7266C10.1953 17.7266 10.229 17.7266 10.2425 17.7266C10.2257 17.7502 10.2122 17.7502 10.1953 17.7266Z" fill="#060302"/>
<path d="M12.9453 23.3743C12.9554 23.3507 12.9757 23.3507 12.9959 23.3574L12.9453 23.3743Z" fill="#060302"/>
<path d="M13.9844 17.2521C13.9945 17.2251 14.0147 17.2285 14.0383 17.2352C14.0215 17.242 14.0046 17.2453 13.9844 17.2521Z" fill="#060302"/>
<path d="M20.9727 22.3311C20.9727 22.3311 20.9828 22.3075 20.9996 22.3109C20.9895 22.3176 20.9828 22.3244 20.9727 22.3311Z" fill="#060302"/>
<path d="M24.3549 21.4656C24.3549 21.4656 24.3482 21.4521 24.3549 21.4453C24.3549 21.4487 24.3583 21.4554 24.3583 21.4588C24.3583 21.4588 24.3549 21.4622 24.3516 21.4656H24.3549Z" fill="#060302"/>
<path d="M18.2463 20.3714H18.2361H18.2227C18.2294 20.358 18.2361 20.358 18.2463 20.3714Z" fill="#060302"/>
<path d="M14.2109 17.1985C14.2109 17.1985 14.2278 17.1851 14.2379 17.1952C14.2312 17.2053 14.2211 17.2087 14.2109 17.1985Z" fill="#A65538"/>
<path d="M24.3583 16.905C24.3583 16.905 24.3516 16.8949 24.3516 16.8881C24.3516 16.8881 24.3583 16.8881 24.3583 16.8848L24.3651 16.8949L24.3583 16.905Z" fill="#FED69C"/>
<path d="M17.207 16.8306C17.207 16.8306 17.2138 16.807 17.2306 16.8137C17.2239 16.8205 17.2138 16.8238 17.207 16.8306Z" fill="#060302"/>
<path d="M18.8203 16.6113C18.8203 16.6113 18.8372 16.6113 18.8439 16.6113C18.8372 16.6248 18.8271 16.6248 18.8203 16.6113Z" fill="#060302"/>
<path d="M17.2299 6.68596C17.2299 6.68596 17.2502 6.69608 17.2603 6.69945C17.2603 6.72643 17.2738 6.73993 17.3041 6.72981C17.4863 6.87148 17.6988 6.97268 17.8506 7.15483C17.9147 7.22904 17.9754 7.30663 18.0395 7.38084C18.0226 7.42806 18.0462 7.4483 18.0901 7.45505C18.0968 7.45842 18.1002 7.46517 18.1002 7.47191L18.1036 7.47866C18.1204 7.51239 18.1407 7.54612 18.1575 7.58323C18.1677 7.68105 18.2149 7.75863 18.2857 7.8261C18.3363 7.94753 18.3498 8.08246 18.3937 8.20727C18.5286 8.58169 18.4274 8.95612 18.3431 9.32717C18.3363 9.35078 18.3228 9.37102 18.3397 9.39801C18.3161 9.39801 18.2992 9.4115 18.2958 9.43174C18.2689 9.5498 18.2081 9.651 18.1407 9.74545C18.1238 9.76906 18.1272 9.79942 18.1407 9.8264C18.1407 9.83315 18.1373 9.8399 18.1306 9.84664C18.1137 9.84664 18.1069 9.85339 18.1171 9.87026C18.1036 9.89387 18.0901 9.92085 18.08 9.94447C18.0159 9.93772 18.026 9.97483 18.0361 10.0153C17.7899 10.3729 17.4728 10.6393 17.068 10.8013C16.8724 10.8788 16.6767 10.9429 16.4642 10.9531C16.3731 10.9564 16.2787 10.9362 16.191 10.9699C16.1235 10.98 16.0594 10.9699 15.9953 10.9564C15.9818 10.9564 15.965 10.9564 15.9515 10.9531C15.7828 10.9665 15.6243 10.9126 15.4725 10.862C15.1925 10.7642 14.926 10.6292 14.7034 10.4268C14.4808 10.2244 14.3054 9.98494 14.1401 9.73533C14.0186 9.55318 14.0355 9.33392 13.9208 9.15851C13.9006 9.12815 13.9377 9.09779 13.9377 9.06406C13.9377 9.06069 13.9377 9.05394 13.9343 9.05394C13.9276 8.95949 13.9208 8.86167 13.9141 8.76722C13.9478 8.73349 13.9478 8.69638 13.9141 8.65928C13.9141 8.61205 13.9208 8.56483 13.9242 8.5176C13.941 8.45689 13.9782 8.39617 13.9444 8.33208C13.9444 8.31521 13.9478 8.29497 13.9512 8.27811C13.9512 8.26799 13.9579 8.26124 13.9579 8.25112C13.9579 8.24437 13.9579 8.23763 13.9613 8.22751C13.9883 8.21402 13.9883 8.19715 13.9748 8.17354C13.9815 8.13981 13.9916 8.10607 13.9984 8.07234L14.0051 8.06897V8.06222C14.0827 7.87332 14.103 7.66418 14.2143 7.48203C14.2919 7.35722 14.4032 7.26615 14.501 7.16495C14.6292 7.0334 14.781 6.94907 14.9159 6.831C15.0205 6.85799 15.0846 6.82426 15.1014 6.71632C15.1115 6.70957 15.1217 6.70282 15.1284 6.69608C15.287 6.61512 15.4455 6.53754 15.6243 6.50043C15.7288 6.48019 15.7659 6.50718 15.7525 6.605C15.7322 6.77703 15.712 6.94569 15.6917 7.11773C15.6884 7.1582 15.6884 7.19868 15.685 7.23916C15.6782 7.24591 15.6782 7.25265 15.685 7.2594C15.685 7.28639 15.685 7.31337 15.685 7.34036C15.6782 7.3471 15.6782 7.35385 15.685 7.3606C15.685 7.38758 15.685 7.41457 15.685 7.43818C15.6782 7.44493 15.6782 7.45167 15.685 7.45842C15.685 7.4854 15.685 7.51239 15.685 7.53938C15.6782 7.54612 15.6782 7.5495 15.685 7.55624C15.685 7.58323 15.685 7.61021 15.685 7.6372C15.6782 7.64394 15.6782 7.64732 15.685 7.65406C15.6917 7.7249 15.6951 7.79237 15.7019 7.8632C15.6648 7.88344 15.6782 7.89693 15.7086 7.90368C15.7154 7.94079 15.7221 7.97789 15.7288 8.015L15.7322 8.02512C15.7356 8.04536 15.739 8.06559 15.7423 8.08583C15.7491 8.2039 15.7558 8.32196 15.8334 8.41978C15.8503 8.44002 15.8671 8.46363 15.884 8.48387C15.884 8.52435 15.8975 8.54796 15.9414 8.54122C15.9548 8.56146 15.9683 8.58507 15.9852 8.60531C15.9852 8.63904 15.992 8.64579 16.0223 8.62892C16.0493 8.62892 16.0763 8.63229 16.0999 8.63567L16.11 8.64241H16.1201C16.1471 8.63904 16.1741 8.63904 16.2011 8.63904C16.2146 8.64916 16.2281 8.65253 16.2382 8.63567C16.2686 8.63229 16.2955 8.62892 16.3259 8.62555C16.3799 8.66602 16.4035 8.63229 16.417 8.58169C16.6025 8.43665 16.5991 8.23425 16.562 8.03186C16.5215 7.8261 16.5114 7.61696 16.5182 7.40782C16.5182 7.40782 16.5249 7.40782 16.5283 7.40782L16.5182 7.3977C16.5182 7.36734 16.5182 7.34036 16.5182 7.31C16.5182 7.31 16.5249 7.31 16.5283 7.31C16.5283 7.30663 16.5215 7.30325 16.5215 7.29988C16.5215 7.22904 16.5249 7.16158 16.5283 7.09074C16.5654 7.05701 16.5856 7.0199 16.5384 6.97605C16.5384 6.95581 16.5452 6.93557 16.5485 6.91533C16.5654 6.91533 16.5789 6.91533 16.5789 6.89509C16.5789 6.88835 16.5654 6.8816 16.5587 6.87486C16.5789 6.76354 16.5452 6.63536 16.6497 6.54428C16.6936 6.54091 16.7442 6.56452 16.7847 6.52404C16.842 6.52404 16.8791 6.58476 16.9398 6.57464C16.9634 6.605 16.9972 6.59825 17.0275 6.59825L17.0376 6.605C17.0815 6.68596 17.1658 6.66909 17.2367 6.68933L17.2299 6.68596ZM14.6663 7.58997C14.6427 7.60009 14.6292 7.61696 14.6326 7.64395C14.6224 7.65744 14.6157 7.67093 14.6056 7.68442C14.5718 7.70804 14.555 7.73839 14.5651 7.77887C14.5381 7.91717 14.6056 8.015 14.7068 8.09595C14.8248 8.18028 14.9294 8.18028 15.0441 8.09258C15.0744 8.06222 15.1048 8.03186 15.1352 7.99813C15.1993 7.99813 15.2026 7.94753 15.2161 7.90705C15.2498 7.79911 15.1858 7.58323 15.1048 7.536C15.0036 7.47528 14.7911 7.43143 14.6865 7.56636C14.6798 7.57311 14.673 7.57985 14.6663 7.5866V7.58997Z" fill="#FE0001"/>
<path d="M18.1403 9.82683C18.1268 9.79985 18.1235 9.76949 18.1403 9.74588C18.2112 9.65143 18.2685 9.55023 18.2955 9.43217C18.2989 9.41193 18.3191 9.39844 18.3393 9.39844C18.3393 9.57384 18.2483 9.7054 18.137 9.82683H18.1403Z" fill="#A65538"/>
<path d="M15.8294 8.41988C15.7518 8.32206 15.745 8.204 15.7383 8.08594C15.772 8.19725 15.8192 8.30182 15.8294 8.41988Z" fill="#A65538"/>
<path d="M18.2883 7.82685C18.2175 7.75939 18.1703 7.68181 18.1602 7.58398C18.231 7.65145 18.2715 7.73241 18.2883 7.82685Z" fill="#A65538"/>
<path d="M15.0996 6.71289C15.0827 6.82083 15.0186 6.85456 14.9141 6.82758C14.9613 6.76686 15.0288 6.7365 15.0996 6.71289Z" fill="#A65538"/>
<path d="M17.2303 6.68609C17.1594 6.66585 17.0751 6.68609 17.0312 6.60176C17.1122 6.59839 17.1729 6.63886 17.2303 6.68609Z" fill="#A65538"/>
<path d="M16.1914 10.9704C16.2825 10.9333 16.3736 10.9569 16.4646 10.9536C16.3769 10.994 16.2825 10.9805 16.1914 10.9704Z" fill="#A65538"/>
<path d="M16.7795 6.5218C16.739 6.56228 16.6918 6.53867 16.6445 6.54204C16.6816 6.4847 16.7255 6.4847 16.7795 6.5218Z" fill="#A65538"/>
<path d="M13.9134 8.66016C13.9471 8.69726 13.9471 8.73099 13.9134 8.7681C13.883 8.73099 13.883 8.69726 13.9134 8.66016Z" fill="#A65538"/>
<path d="M13.9388 8.33008C13.9726 8.39754 13.9355 8.45489 13.9186 8.5156C13.9051 8.45151 13.9051 8.38742 13.9388 8.33008Z" fill="#A65538"/>
<path d="M16.5333 6.9707C16.5806 7.01455 16.5603 7.04829 16.5232 7.08539C16.5165 7.04491 16.5063 7.00781 16.5333 6.9707Z" fill="#A65538"/>
<path d="M16.4114 8.57812C16.3979 8.62872 16.3743 8.65908 16.3203 8.62198C16.3439 8.59162 16.3743 8.57812 16.4114 8.57812Z" fill="#A65538"/>
<path d="M15.9367 8.54172C15.8928 8.54509 15.876 8.52485 15.8793 8.48438C15.9164 8.48775 15.9367 8.50799 15.9367 8.54172Z" fill="#A65538"/>
<path d="M18.0873 7.45898C18.0435 7.45223 18.0199 7.42862 18.0367 7.38477C18.0705 7.39826 18.0839 7.42524 18.0873 7.45898Z" fill="#A65538"/>
<path d="M18.0387 10.0169C18.0286 9.97979 18.0185 9.93931 18.0826 9.94605C18.0826 9.97641 18.0657 10 18.0387 10.0169Z" fill="#A65538"/>
<path d="M15.705 7.90376C15.6747 7.89364 15.6612 7.88352 15.6983 7.86328C15.7185 7.8734 15.7185 7.88689 15.705 7.90376Z" fill="#A65538"/>
<path d="M17.0213 6.59488C16.9909 6.59488 16.9572 6.60163 16.9336 6.57127C16.9673 6.5679 16.9977 6.56115 17.0213 6.59488Z" fill="#A65538"/>
<path d="M16.5532 6.86914C16.5532 6.86914 16.5735 6.88263 16.5735 6.88938C16.5735 6.90625 16.5566 6.90962 16.5431 6.90962C16.5364 6.89275 16.5364 6.87926 16.5566 6.86914H16.5532Z" fill="#A65538"/>
<path d="M17.3017 6.73327C17.2713 6.74339 17.2612 6.73327 17.2578 6.70291C17.2848 6.69616 17.2983 6.70965 17.3017 6.73327Z" fill="#A65538"/>
<path d="M16.0182 8.62908C15.9878 8.64595 15.9777 8.63583 15.9811 8.60547C15.9946 8.61222 16.0047 8.62233 16.0182 8.62908Z" fill="#A65538"/>
<path d="M13.9744 8.17383C13.9879 8.19744 13.9845 8.21431 13.9609 8.2278C13.9643 8.21093 13.9711 8.19069 13.9744 8.17383Z" fill="#A65538"/>
<path d="M15.9492 10.9531C15.9492 10.9531 15.9796 10.9531 15.9931 10.9565C15.9762 10.9734 15.9593 10.9801 15.9492 10.9531Z" fill="#A65538"/>
<path d="M16.2324 8.63359C16.2223 8.65046 16.2088 8.64708 16.1953 8.63696C16.2054 8.62347 16.2189 8.6201 16.2324 8.63359Z" fill="#A65538"/>
<path d="M14.0028 8.06055V8.07067L13.9961 8.07404V8.06392L14.0028 8.06055Z" fill="#A65538"/>
<path d="M15.6788 7.65554C15.6788 7.65554 15.672 7.64542 15.6788 7.63867C15.6788 7.64205 15.6822 7.64542 15.6855 7.65216C15.6855 7.65216 15.6822 7.65216 15.6788 7.65554Z" fill="#A65538"/>
<path d="M15.7257 8.02475L15.7227 8.01562L15.7318 8.01867L15.7257 8.02475Z" fill="#A65538"/>
<path d="M15.6788 7.55788C15.6788 7.55788 15.672 7.54439 15.6788 7.54102C15.6788 7.54439 15.6822 7.55114 15.6855 7.55451C15.6855 7.55451 15.6822 7.55451 15.6788 7.55788Z" fill="#A65538"/>
<path d="M13.956 8.24805C13.956 8.24805 13.9492 8.26491 13.9492 8.27503C13.9492 8.26491 13.956 8.25817 13.956 8.24805Z" fill="#A65538"/>
<path d="M18.1046 7.48265L18.1016 7.47656H18.1076L18.1046 7.48265Z" fill="#A65538"/>
<path d="M16.114 8.63565L16.1039 8.6424L16.0938 8.63565L16.1039 8.62891L16.114 8.63565Z" fill="#A65538"/>
<path d="M15.6827 7.45969C15.6827 7.45969 15.6759 7.4462 15.6827 7.43945C15.6827 7.44283 15.6894 7.44957 15.6894 7.45295C15.6894 7.45295 15.6861 7.45632 15.6827 7.45969Z" fill="#A65538"/>
<path d="M13.9288 9.05469C13.9288 9.05469 13.9349 9.06077 13.9319 9.06382L13.9258 9.06077V9.05469H13.9288Z" fill="#A65538"/>
<path d="M16.5132 7.39205L16.5233 7.40216C16.5233 7.40216 16.5166 7.40216 16.5132 7.40216C16.5098 7.39879 16.5132 7.39205 16.5132 7.38867V7.39205Z" fill="#A65538"/>
<path d="M15.6788 7.35813C15.6788 7.35813 15.672 7.34464 15.6788 7.33789C15.6788 7.34126 15.6822 7.34801 15.6855 7.35138C15.6855 7.35138 15.6822 7.35138 15.6788 7.35476V7.35813Z" fill="#A65538"/>
<path d="M16.5176 7.29439C16.5176 7.29439 16.5244 7.30114 16.5244 7.30451C16.5244 7.30451 16.5176 7.30451 16.5142 7.30451C16.5109 7.30114 16.5109 7.29439 16.5142 7.29102L16.5176 7.29439Z" fill="#A65538"/>
<path d="M15.1285 6.69401C15.1285 6.69401 15.1117 6.70751 15.1016 6.71425C15.1049 6.70076 15.1151 6.69064 15.1285 6.69401Z" fill="#A65538"/>
<path d="M15.6788 7.26047C15.6788 7.26047 15.672 7.24698 15.6788 7.24023C15.6788 7.24698 15.6855 7.25035 15.6855 7.2571C15.6855 7.2571 15.6822 7.26047 15.6788 7.26385V7.26047Z" fill="#A65538"/>
<path d="M18.1175 9.87127C18.1175 9.87127 18.1141 9.84766 18.131 9.84766C18.1276 9.8544 18.1208 9.86452 18.1175 9.87127Z" fill="#A65538"/>
<path d="M19.5612 5.70492C19.433 5.6577 19.3183 5.58686 19.207 5.5059C19.3183 5.45193 19.406 5.52277 19.5005 5.55987C19.5646 5.58686 19.5713 5.6442 19.5612 5.70492Z" fill="#060302"/>
<path d="M19.7095 5.80279C19.6623 5.79604 19.6285 5.76231 19.6016 5.72858C19.6589 5.72183 19.7095 5.72858 19.7095 5.80279Z" fill="#060302"/>
<path d="M19.5856 5.72478C19.5856 5.72478 19.5653 5.71129 19.5586 5.70117C19.5687 5.70792 19.5788 5.71466 19.5856 5.72478Z" fill="#060302"/>
<path d="M11.7852 23.5028C11.8155 23.4758 11.8492 23.4758 11.8864 23.4893C11.856 23.5197 11.8223 23.5264 11.7852 23.5028Z" fill="#A65538"/>
<path d="M12.0078 23.4746C12.0281 23.451 12.0517 23.4476 12.0753 23.4712C12.0517 23.4881 12.0314 23.4948 12.0078 23.4746Z" fill="#A65538"/>
<path d="M10.5938 23.6705C10.6072 23.6402 10.6275 23.6166 10.6612 23.6469C10.6443 23.6672 10.6207 23.6739 10.5938 23.6705Z" fill="#A65538"/>
<path d="M10.7656 23.6298C10.7791 23.6095 10.7926 23.5994 10.8128 23.623C10.8027 23.6466 10.7859 23.65 10.7656 23.6298Z" fill="#A65538"/>
<path d="M10.9414 23.6024C10.9549 23.5788 10.9718 23.5822 10.9886 23.6024C10.9751 23.6226 10.9583 23.626 10.9414 23.6024Z" fill="#A65538"/>
<path d="M3.90234 16.1122C3.94957 16.0852 4.00017 16.0852 4.05076 16.0987C4.00354 16.1426 3.95294 16.1257 3.90234 16.1122Z" fill="#A65538"/>
<path d="M4.10156 16.0882C4.12855 16.0511 4.16228 16.0545 4.19939 16.068C4.17577 16.1085 4.14204 16.1152 4.10156 16.0882Z" fill="#A65538"/>
<path d="M24.3525 15.4902C24.3761 15.5408 24.3795 15.5914 24.3525 15.642C24.3356 15.5914 24.3356 15.5408 24.3525 15.4902Z" fill="#A65538"/>
<path d="M4.27344 16.0633C4.2903 16.0397 4.3038 16.0431 4.32066 16.0633C4.3038 16.0802 4.2903 16.087 4.27344 16.0633Z" fill="#A65538"/>
<path d="M24.3477 15.3926C24.3645 15.4094 24.3645 15.4263 24.3477 15.4432C24.3477 15.4263 24.3477 15.4094 24.3477 15.3926Z" fill="#A65538"/>
<path d="M24.3516 13.9551C24.3684 13.9719 24.3684 13.9888 24.3516 14.0023C24.3516 13.9854 24.3516 13.9686 24.3516 13.9551Z" fill="#A65538"/>
<path d="M24.351 15.8145C24.351 15.8145 24.3578 15.8279 24.3578 15.8313C24.3578 15.8313 24.351 15.8313 24.3477 15.8381C24.3477 15.8313 24.3477 15.8212 24.3477 15.8145H24.351Z" fill="#A65538"/>
<path d="M14.6084 7.68609C14.6084 7.68609 14.6253 7.6591 14.6354 7.64561C14.6826 7.65236 14.6826 7.62537 14.6691 7.59164C14.6759 7.58489 14.6826 7.57815 14.6894 7.5714C14.7096 7.5714 14.7299 7.57477 14.7467 7.5714C14.8816 7.52755 14.9896 7.56128 15.0874 7.66922C15.1852 7.77717 15.1448 7.88848 15.1346 8.00317C15.1043 8.03353 15.0739 8.06389 15.0436 8.09762C14.9322 8.1246 14.8176 8.10437 14.7062 8.10099C14.605 8.02004 14.5376 7.92221 14.5646 7.78391C14.605 7.76367 14.6287 7.73669 14.605 7.68946L14.6084 7.68609Z" fill="#FED69C"/>
<path d="M15.1367 8.00282C15.1468 7.88814 15.1873 7.77345 15.0894 7.66888C14.9916 7.56094 14.8837 7.5272 14.7488 7.57105C14.7319 7.5778 14.7083 7.57105 14.6914 7.57105C14.796 7.43613 15.0085 7.47998 15.1097 7.5407C15.1906 7.58792 15.2547 7.80043 15.221 7.91175C15.2109 7.95223 15.2041 8.0062 15.14 8.00282H15.1367Z" fill="#A65538"/>
<path d="M14.707 8.10103C14.8183 8.1044 14.933 8.12127 15.0444 8.09766C14.9297 8.18536 14.8251 8.18536 14.707 8.10103Z" fill="#A65538"/>
<path d="M14.6072 7.68555C14.6308 7.73277 14.6072 7.75976 14.5667 7.78C14.5532 7.73614 14.5735 7.70916 14.6072 7.68555Z" fill="#A65538"/>
<path d="M14.6665 7.58984C14.68 7.62358 14.68 7.64719 14.6328 7.64382C14.6328 7.61683 14.6429 7.59996 14.6665 7.58984Z" fill="#A65538"/>
</g>
<defs>
<clipPath id="clip0_12178_41517">
<rect width="22.172" height="22" fill="white" transform="translate(3 3.39453)"/>
</clipPath>
</defs>
</svg>
