<svg width="20" height="21" viewBox="0 0 20 21" fill="none" xmlns="http://www.w3.org/2000/svg">
<g id="monetization_on_FILL0_wght400_GRAD0_opsz24 2">
<path id="Subtract" fill-rule="evenodd" clip-rule="evenodd" d="M10 18C14.4183 18 18 14.4183 18 10C18 5.58172 14.4183 2 10 2C5.58172 2 2 5.58172 2 10C2 14.4183 5.58172 18 10 18ZM9.97988 15.6C9.59328 15.6 9.27988 15.2866 9.27988 14.9V14.56C8.65322 14.4133 8.14322 14.1433 7.74988 13.75C7.48894 13.4891 7.27347 13.1738 7.10348 12.8043C6.95081 12.4724 7.14 12.0975 7.4799 11.9636C7.86655 11.8113 8.28774 12.0342 8.50272 12.3898C8.62871 12.5982 8.77776 12.7716 8.94988 12.91C9.28988 13.1833 9.67988 13.32 10.1199 13.32C10.5599 13.32 10.9365 13.2167 11.2499 13.01C11.5632 12.8033 11.7199 12.48 11.7199 12.04C11.7199 11.6533 11.5566 11.34 11.2299 11.1C10.9032 10.86 10.3199 10.5867 9.47988 10.28C8.69322 10 8.11655 9.66667 7.74988 9.28C7.38322 8.89333 7.19988 8.38667 7.19988 7.76C7.19988 7.21333 7.38655 6.72 7.75988 6.28C8.13322 5.84 8.65322 5.54667 9.31988 5.4V5.1C9.31988 4.7134 9.63328 4.4 10.0199 4.4C10.4065 4.4 10.7199 4.7134 10.7199 5.1V5.4C11.1999 5.44 11.6365 5.63333 12.0299 5.98C12.2489 6.17304 12.4297 6.38469 12.5722 6.61494C12.7641 6.92481 12.5799 7.30562 12.2423 7.44278C11.8712 7.59354 11.4584 7.38537 11.1864 7.09129C11.1407 7.04185 11.0919 6.99475 11.0399 6.95C10.7999 6.74333 10.4665 6.64 10.0399 6.64C9.57322 6.64 9.21655 6.74 8.96988 6.94C8.72322 7.14 8.59988 7.41333 8.59988 7.76C8.59988 8.10667 8.75322 8.38 9.05988 8.58C9.36655 8.78 9.91988 9.01333 10.7199 9.28C11.6799 9.62667 12.3199 10.0333 12.6399 10.5C12.9599 10.9667 13.1199 11.48 13.1199 12.04C13.1199 12.8267 12.8799 13.42 12.3999 13.82C11.9199 14.22 11.3465 14.48 10.6799 14.6V14.9C10.6799 15.2866 10.3665 15.6 9.97988 15.6Z" fill="#E5007A"/>
</g>
</svg>
