<svg width="17" height="16" viewBox="0 0 17 16" fill="none" xmlns="http://www.w3.org/2000/svg">
<path d="M9.49458 14.5815C9.45986 14.8359 9.33411 15.0692 9.14062 15.2381C8.94714 15.4069 8.69901 15.5 8.44219 15.5C8.18537 15.5 7.93725 15.4069 7.74376 15.2381C7.55027 15.0692 7.42452 14.8359 7.3898 14.5815H9.49458Z" fill="#243A57"/>
<path d="M10.7094 13.2345C10.7092 13.3564 10.6607 13.4732 10.5745 13.5594C10.4883 13.6455 10.3714 13.6939 10.2495 13.6939H6.63537C6.51606 13.69 6.40294 13.6399 6.31992 13.5541C6.23689 13.4683 6.19047 13.3537 6.19047 13.2343C6.19047 13.1149 6.23689 13.0002 6.31992 12.9144C6.40294 12.8287 6.51606 12.7785 6.63537 12.7746H10.2495C10.3714 12.7748 10.4883 12.8233 10.5745 12.9095C10.6607 12.9957 10.7092 13.1126 10.7094 13.2345Z" fill="#243A57"/>
<path d="M12.8176 8.11448C12.8176 10.4153 11.1809 11.573 10.6504 11.8871H6.23451C5.70344 11.573 4.06779 10.4153 4.06779 8.11448C4.06779 7.53996 4.18095 6.97107 4.40081 6.44028C4.62067 5.90949 4.94292 5.42721 5.34917 5.02096C5.75541 4.61472 6.2377 4.29247 6.76848 4.07261C7.29927 3.85275 7.86816 3.73959 8.44268 3.73959C9.0172 3.73959 9.58609 3.85275 10.1169 4.07261C10.6477 4.29247 11.1299 4.61472 11.5362 5.02096C11.9424 5.42721 12.2647 5.90949 12.4845 6.44028C12.7044 6.97107 12.8176 7.53996 12.8176 8.11448Z" fill="#243A57"/>
<path d="M2.34583 7.81505H1.03936C0.89682 7.81504 0.760073 7.87147 0.659006 7.97199C0.55794 8.0725 0.500773 8.20894 0.5 8.35148C0.5 8.49453 0.556826 8.63172 0.657976 8.73287C0.759126 8.83402 0.896315 8.89085 1.03936 8.89085H2.34583C2.48888 8.89085 2.62607 8.83402 2.72722 8.73287C2.82837 8.63172 2.88519 8.49453 2.88519 8.35148C2.88442 8.20894 2.82725 8.0725 2.72619 7.97199C2.62512 7.87147 2.48837 7.81504 2.34583 7.81505Z" fill="#243A57"/>
<path d="M4.43842 3.7035L3.51185 2.77937C3.41072 2.67839 3.27365 2.62167 3.13073 2.62167C2.98782 2.62167 2.85075 2.67839 2.74962 2.77937C2.64849 2.88052 2.59167 3.01769 2.59167 3.16073C2.59167 3.30376 2.64849 3.44094 2.74962 3.54208L3.67571 4.46622C3.77698 4.56711 3.91411 4.62376 4.05706 4.62376C4.20002 4.62376 4.33715 4.56711 4.43842 4.46622C4.48885 4.41633 4.52888 4.35694 4.5562 4.29148C4.58352 4.22602 4.59759 4.15579 4.59759 4.08486C4.59759 4.01393 4.58352 3.9437 4.5562 3.87824C4.52888 3.81278 4.48885 3.75339 4.43842 3.7035Z" fill="#243A57"/>
<path d="M8.89328 2.34583V1.03936C8.89328 0.896315 8.83646 0.759126 8.73531 0.657976C8.63416 0.556826 8.49697 0.5 8.35392 0.5C8.21096 0.500129 8.07389 0.557012 7.97285 0.658148C7.87181 0.759284 7.81505 0.896399 7.81505 1.03936V2.34583C7.81505 2.48879 7.87181 2.62591 7.97285 2.72704C8.07389 2.82818 8.21096 2.88506 8.35392 2.88519C8.49697 2.88519 8.63416 2.82837 8.73531 2.72722C8.83646 2.62607 8.89328 2.48888 8.89328 2.34583Z" fill="#243A57"/>
<path d="M13.0034 4.53596L13.927 3.60938C13.9774 3.55951 14.0173 3.50014 14.0446 3.43473C14.0719 3.36931 14.0859 3.29914 14.0859 3.22827C14.0859 3.15739 14.0719 3.08722 14.0446 3.02181C14.0173 2.95639 13.9774 2.89703 13.927 2.84715C13.8771 2.7968 13.8178 2.75683 13.7524 2.72955C13.6869 2.70228 13.6168 2.68823 13.5459 2.68823C13.475 2.68823 13.4049 2.70228 13.3394 2.72955C13.274 2.75683 13.2147 2.7968 13.1648 2.84715L12.2407 3.77324C12.1395 3.87439 12.0827 4.01156 12.0827 4.1546C12.0827 4.29763 12.1395 4.43481 12.2407 4.53596C12.3418 4.63709 12.479 4.6939 12.622 4.6939C12.765 4.6939 12.9022 4.63709 13.0034 4.53596Z" fill="#243A57"/>
<path d="M14.263 8.99082H15.569C15.712 8.99082 15.8492 8.93399 15.9504 8.83284C16.0515 8.73169 16.1084 8.5945 16.1084 8.45146C16.1082 8.30849 16.0513 8.17143 15.9502 8.07038C15.8491 7.96934 15.712 7.91258 15.569 7.91258H14.262C14.1191 7.91258 13.9821 7.96935 13.881 8.07041C13.7799 8.17147 13.7232 8.30854 13.7232 8.45146C13.7232 8.52233 13.7371 8.5925 13.7643 8.65797C13.7914 8.72344 13.8312 8.78292 13.8813 8.83302C13.9315 8.88311 13.991 8.92282 14.0565 8.9499C14.122 8.97698 14.1921 8.99088 14.263 8.99082Z" fill="#243A57"/>
</svg>
