<svg width="50" height="50" viewBox="0 0 50 50" fill="none" xmlns="http://www.w3.org/2000/svg">
<g id="icons">
<g id="Group 26088088">
<g id="Vector" opacity="0.5">
<path d="M3.125 38.234C3.125 35.9232 3.125 34.7678 3.73519 34.0499C4.34539 33.332 5.32748 33.332 7.29167 33.332H40.625C42.5892 33.332 43.5713 33.332 44.1815 34.0499C44.7917 34.7678 44.7917 35.9232 44.7917 38.234C44.7917 40.5448 44.7917 41.7002 44.1815 42.4181C43.5713 43.136 42.5892 43.136 40.625 43.136H7.29167C5.32748 43.136 4.34539 43.136 3.73519 42.4181C3.125 41.7002 3.125 40.5448 3.125 38.234Z" fill="#FF823C"/>
<path d="M3.125 38.234C3.125 35.9232 3.125 34.7678 3.73519 34.0499C4.34539 33.332 5.32748 33.332 7.29167 33.332H40.625C42.5892 33.332 43.5713 33.332 44.1815 34.0499C44.7917 34.7678 44.7917 35.9232 44.7917 38.234C44.7917 40.5448 44.7917 41.7002 44.1815 42.4181C43.5713 43.136 42.5892 43.136 40.625 43.136H7.29167C5.32748 43.136 4.34539 43.136 3.73519 42.4181C3.125 41.7002 3.125 40.5448 3.125 38.234Z" fill="#0F5FC2"/>
</g>
<g id="Subtract">
<path fill-rule="evenodd" clip-rule="evenodd" d="M25.0394 8.82324H22.8767C14.7209 8.82324 10.643 8.82324 8.10936 10.874C5.57568 12.9248 5.57568 16.2255 5.57568 22.8269V33.333C5.88971 33.3295 6.33055 33.3295 6.657 33.3296H41.2591C41.5855 33.3295 42.0264 33.3295 42.3404 33.333V22.8269C42.3404 16.2255 42.3404 12.9248 39.8067 10.874C37.273 8.82324 33.1951 8.82324 25.0394 8.82324ZM30.0845 15.3439C30.7156 15.9074 30.7704 16.8757 30.2069 17.5068L22.9123 25.6767C22.6217 26.0022 22.2061 26.1884 21.7697 26.1884C21.3333 26.1884 20.9176 26.0022 20.627 25.6767L17.7092 22.4088C17.1457 21.7777 17.2005 20.8093 17.8316 20.2458C18.4627 19.6824 19.4311 19.7372 19.9945 20.3683L21.7697 22.3565L27.9216 15.4663C28.4851 14.8352 29.4534 14.7804 30.0845 15.3439Z" fill="#FF823C"/>
<path fill-rule="evenodd" clip-rule="evenodd" d="M25.0394 8.82324H22.8767C14.7209 8.82324 10.643 8.82324 8.10936 10.874C5.57568 12.9248 5.57568 16.2255 5.57568 22.8269V33.333C5.88971 33.3295 6.33055 33.3295 6.657 33.3296H41.2591C41.5855 33.3295 42.0264 33.3295 42.3404 33.333V22.8269C42.3404 16.2255 42.3404 12.9248 39.8067 10.874C37.273 8.82324 33.1951 8.82324 25.0394 8.82324ZM30.0845 15.3439C30.7156 15.9074 30.7704 16.8757 30.2069 17.5068L22.9123 25.6767C22.6217 26.0022 22.2061 26.1884 21.7697 26.1884C21.3333 26.1884 20.9176 26.0022 20.627 25.6767L17.7092 22.4088C17.1457 21.7777 17.2005 20.8093 17.8316 20.2458C18.4627 19.6824 19.4311 19.7372 19.9945 20.3683L21.7697 22.3565L27.9216 15.4663C28.4851 14.8352 29.4534 14.7804 30.0845 15.3439Z" fill="#0F5FC2"/>
</g>
</g>
</g>
</svg>
