<svg width="18" height="19" viewBox="0 0 18 19" fill="none" xmlns="http://www.w3.org/2000/svg">
<path d="M9.20071 0C9.24449 0.00662791 9.28826 0.016938 9.33204 0.0198837C9.90555 0.0470565 10.4705 0.168757 11.0038 0.38C11.3772 0.52283 11.7173 0.739848 12.0032 1.01775C12.131 1.14407 12.237 1.29036 12.3171 1.45078C12.4052 1.61937 12.4512 1.80653 12.4512 1.99647C12.4512 2.18641 12.4052 2.37357 12.3171 2.54217C12.1935 2.78191 12.0179 2.99143 11.8029 3.15562C11.4364 3.43679 11.0179 3.64395 10.5712 3.76539C10.1971 3.87395 9.81219 3.94161 9.42331 3.96717C8.73671 4.01907 8.04636 3.94416 7.38728 3.74624C6.93858 3.62133 6.52041 3.40654 6.15854 3.11512C5.95157 2.95075 5.7851 2.74171 5.67179 2.50388C5.59463 2.34164 5.55567 2.16411 5.55786 1.98472C5.56004 1.80533 5.60332 1.62879 5.68441 1.46845C5.80749 1.22423 5.98513 1.01114 6.2038 0.845426C6.5173 0.600092 6.87197 0.411618 7.25149 0.288682C7.72114 0.132609 8.21032 0.0419006 8.70506 0.0191473C8.74349 0.0149785 8.78164 0.0085852 8.81932 0H9.20071Z" fill="#FB007B"/>
<path d="M0.00816192 11.8647C0.00373261 11.5647 0.0558239 11.2664 0.161754 10.9854C0.217511 10.8406 0.295885 10.7054 0.393998 10.5848C0.690795 10.232 1.07441 10.1009 1.52479 10.1429C2.00486 10.1908 2.41519 10.4043 2.79954 10.6834C3.27326 11.0376 3.67956 11.4728 3.99934 11.9685C4.36899 12.5178 4.63639 13.1284 4.78882 13.7713C4.87567 14.1276 4.90892 14.4946 4.88751 14.8605C4.87498 15.1198 4.81462 15.3747 4.70943 15.6124C4.54174 15.9806 4.27833 16.2391 3.8784 16.3488C3.61156 16.4128 3.33236 16.4049 3.06962 16.326C2.6995 16.2203 2.35405 16.0431 2.05309 15.8046C1.54736 15.4136 1.11958 14.9323 0.791706 14.3855C0.481752 13.8888 0.254038 13.3461 0.117235 12.7779C0.0453352 12.4787 0.00873174 12.1722 0.00816192 11.8647Z" fill="#FB007B"/>
<path d="M0 7.1169C0.0161044 6.60669 0.119477 6.10291 0.305701 5.62709C0.602792 4.82208 1.08205 4.09548 1.70658 3.50322C2.00178 3.21797 2.34443 2.98552 2.7194 2.81612C2.97785 2.69466 3.26003 2.63105 3.54598 2.62981C3.76189 2.62575 3.97493 2.6794 4.16278 2.78512C4.35062 2.89085 4.50637 3.04476 4.61371 3.23074C4.75528 3.46689 4.84245 3.7312 4.86896 4.00473C4.94316 4.6086 4.83631 5.19186 4.63597 5.75965C4.32777 6.66052 3.79116 7.46751 3.07779 8.10298C2.75132 8.40376 2.36515 8.63352 1.94402 8.77756C1.672 8.87573 1.37874 8.90113 1.0937 8.8512C0.936996 8.82107 0.788026 8.7599 0.655692 8.67132C0.523358 8.58275 0.410379 8.4686 0.323509 8.3357C0.167649 8.10065 0.0697828 7.83246 0.0378416 7.55287C0.0178078 7.40853 0.0118719 7.26271 0 7.1169Z" fill="#FB007B"/>
<path d="M18 11.833C17.994 12.3706 17.8896 12.9026 17.6921 13.4031C17.3945 14.1988 16.9182 14.9169 16.2994 15.5027C15.9715 15.8234 15.5825 16.076 15.1552 16.2457C14.9266 16.3381 14.6816 16.3839 14.4347 16.3805C14.2371 16.3806 14.0426 16.3322 13.8684 16.2397C13.6941 16.1472 13.5456 16.0134 13.436 15.8503C13.2807 15.6191 13.1812 15.3555 13.1451 15.08C13.0756 14.5709 13.1189 14.0529 13.272 13.5622C13.5571 12.5368 14.1333 11.6145 14.9319 10.9051C15.2588 10.606 15.6453 10.3783 16.0664 10.2364C16.333 10.1405 16.6201 10.1151 16.8996 10.1628C17.0847 10.1973 17.2592 10.274 17.4093 10.387C17.5593 10.5 17.6808 10.6461 17.764 10.8138C17.8845 11.0443 17.9581 11.296 17.9807 11.5547C17.9918 11.6629 17.9963 11.7726 18 11.833Z" fill="#FB007B"/>
<path d="M17.9993 7.25829C17.9957 7.52759 17.9405 7.79375 17.8368 8.0426C17.7877 8.16071 17.7252 8.27288 17.6505 8.37694C17.3634 8.7643 16.9664 8.91012 16.493 8.86814C16.119 8.8255 15.7606 8.69498 15.4475 8.4874C15.0157 8.21496 14.6344 7.87067 14.3205 7.46965C13.796 6.82617 13.4215 6.07547 13.2238 5.2714C13.1436 4.95363 13.1057 4.62683 13.111 4.2993C13.1111 3.99787 13.1717 3.69947 13.2891 3.42147C13.4538 3.05326 13.7157 2.78372 14.1179 2.67473C14.3632 2.61213 14.6205 2.61213 14.8658 2.67473C15.1607 2.74658 15.4408 2.8684 15.6939 3.03484C16.1467 3.32895 16.5434 3.70047 16.8655 4.13213C17.3608 4.76741 17.7126 5.50106 17.8969 6.28326C17.969 6.60322 18.0034 6.93044 17.9993 7.25829Z" fill="#FB007B"/>
<path d="M9.13022 19C8.32887 19 7.67517 18.8962 7.04819 18.6502C6.65582 18.5054 6.29895 18.2795 6.00124 17.9874C5.87532 17.8633 5.77079 17.7195 5.69183 17.5617C5.6018 17.389 5.55575 17.197 5.55769 17.0025C5.55963 16.808 5.6095 16.617 5.70296 16.446C5.83804 16.1956 6.02886 15.979 6.26093 15.8127C6.61459 15.5549 7.01262 15.3633 7.43551 15.2471C7.80662 15.139 8.18855 15.0716 8.57447 15.0461C9.24906 14.9925 9.92785 15.0609 10.5778 15.2479C10.9864 15.3605 11.3717 15.5437 11.7161 15.7891C11.9243 15.9362 12.1026 16.1211 12.2414 16.3341C12.3814 16.5442 12.4544 16.7914 12.4506 17.0433C12.4419 17.2859 12.3634 17.521 12.2243 17.7208C12.054 17.9693 11.8328 18.1794 11.5751 18.3372C11.168 18.5915 10.7185 18.7715 10.2477 18.8689C9.88098 18.9521 9.50635 18.9961 9.13022 19Z" fill="#FB007B"/>
</svg>
