<svg width="24" height="24" viewBox="0 0 24 24" fill="none" xmlns="http://www.w3.org/2000/svg">
<path d="M8.22983 4C10.4803 4 12.7307 4 14.9811 4C15.4669 4 15.4724 4.0057 15.4724 4.52118C15.4724 5.55073 15.4724 6.58028 15.4724 7.60983C15.4724 8.08544 15.4408 8.11819 14.9907 8.11962C13.7461 8.12104 12.5001 8.11962 11.2556 8.11962C10.918 8.11962 10.7488 8.29952 10.7478 8.65931C10.7478 9.28587 10.7547 9.91385 10.7451 10.5404C10.741 10.7982 10.8398 10.8993 11.0895 10.8993C12.6772 10.8936 14.2662 10.8936 15.8538 10.8993C16.0624 10.8993 16.1832 10.8095 16.2916 10.6287C16.5276 10.2371 16.9708 10.079 17.3633 10.2172C17.7187 10.3425 18.0233 10.8038 17.9986 11.1812C17.9698 11.6127 17.6569 11.9829 17.2302 12.0669C16.8377 12.1438 16.5152 11.973 16.3176 11.6454C16.1502 11.3663 15.9444 11.3179 15.6631 11.3208C14.0754 11.3293 12.4864 11.325 10.8988 11.325C10.3966 11.325 10.3938 11.3222 10.3924 10.8195C10.3924 9.90816 10.3993 8.9968 10.3883 8.08544C10.3842 7.79352 10.4899 7.68957 10.7698 7.691C12.0377 7.69954 13.3056 7.69527 14.5736 7.69384C15.0525 7.69384 15.0621 7.68388 15.0621 7.20684C15.0621 6.39089 15.0538 5.57351 15.0662 4.75757C15.0703 4.4628 14.9619 4.36597 14.6833 4.36597C10.365 4.37166 6.04665 4.37166 1.7283 4.36597C1.44425 4.36597 1.34683 4.46992 1.35232 4.76041C1.36467 5.60057 1.36878 6.44073 1.35094 7.28089C1.34271 7.62122 1.47581 7.70096 1.77633 7.69954C3.30771 7.68815 4.83773 7.69384 6.36912 7.69527C6.7268 7.69527 6.90611 7.87659 6.90702 8.23923C6.90702 11.0317 6.90977 13.8256 6.9029 16.618C6.9029 16.9142 6.95917 17.1136 7.22812 17.283C7.70702 17.5849 7.77563 18.1972 7.42572 18.6358C7.06894 19.083 6.47203 19.1243 6.06586 18.727C5.68713 18.3581 5.68164 17.6761 6.12898 17.3585C6.47752 17.1122 6.50222 16.8231 6.50085 16.4557C6.49399 13.8882 6.49673 11.3193 6.49673 8.75187C6.49673 8.33037 6.28724 8.11962 5.86826 8.11962C4.3945 8.11962 2.92075 8.11962 1.447 8.11962C1.02436 8.11962 1.0024 8.09541 1.00103 7.65824C0.999657 6.5931 0.999657 5.52795 1.00103 4.4628C1.00103 4.01851 1.01887 4.00142 1.44425 4C3.70566 4 5.96843 4 8.22983 4Z" fill="#E5007A"/>
<path d="M20.8356 12.8498C20.8356 10.3602 20.8327 7.87062 20.8399 5.3796C20.8399 5.10459 20.7909 4.91497 20.5239 4.76299C20.101 4.52272 19.9668 4.11599 20.0981 3.68321C20.2338 3.23596 20.5657 2.99713 21.0405 3.00003C21.4764 3.00437 21.8256 3.26201 21.957 3.67742C22.0825 4.07691 21.931 4.55891 21.5327 4.76734C21.2354 4.92221 21.2065 5.12775 21.2065 5.40855C21.2108 10.4847 21.2094 15.5608 21.2094 20.6369C21.2094 21.0181 21.0155 21.2087 20.6278 21.2087C19.3303 21.2087 18.0329 21.2 16.7354 21.2145C16.4049 21.2188 16.2938 21.103 16.2952 20.7759C16.3053 18.9232 16.301 17.0705 16.2996 15.2192C16.2996 14.717 16.2909 14.7097 15.8002 14.7083C14.0814 14.7083 12.3639 14.7083 10.6451 14.7083C10.1803 14.7083 10.1645 14.7256 10.1645 15.2019C10.1645 17.0415 10.1645 18.8827 10.1645 20.7223C10.1645 21.1913 10.1471 21.2072 9.67522 21.2072C8.91897 21.2087 8.16129 21.2174 7.40504 21.2029C7.12506 21.1971 6.94321 21.268 6.79456 21.5286C6.55499 21.9454 6.09172 22.0931 5.67607 21.9425C5.26187 21.7934 4.98477 21.3954 5.00065 20.9713C5.01508 20.5675 5.38021 20.1622 5.81173 20.071C6.2014 19.9885 6.60839 20.1622 6.81188 20.5443C6.93311 20.773 7.08754 20.841 7.32855 20.8367C7.98955 20.8266 8.65054 20.8179 9.31153 20.8396C9.65213 20.8512 9.74161 20.7137 9.74016 20.3938C9.73006 18.5295 9.73439 16.6652 9.73583 14.8009C9.73583 14.303 9.76325 14.2755 10.2698 14.2755C12.2398 14.2755 14.2112 14.2755 16.1812 14.2755C16.7138 14.2755 16.7354 14.2972 16.7354 14.8183C16.7354 16.6464 16.7354 18.4745 16.7354 20.3026C16.7354 20.8309 16.7369 20.8324 17.2478 20.8324C18.2696 20.8324 19.2899 20.8324 20.3117 20.8324C20.8356 20.8324 20.837 20.8324 20.837 20.3171C20.837 17.8275 20.837 15.3379 20.837 12.8469L20.8356 12.8498Z" fill="#E5007A"/>
</svg>
