<svg width="24" height="25" viewBox="0 0 24 25" fill="none" xmlns="http://www.w3.org/2000/svg">
<path d="M15.6314 20.0977H5.24698C5.04041 20.0977 4.8423 20.0114 4.69623 19.8579C4.55016 19.7045 4.4681 19.4963 4.4681 19.2792V6.00563C4.4681 5.78856 4.55016 5.58039 4.69623 5.4269C4.8423 5.27342 5.04041 5.18719 5.24698 5.18719H17.8811C18.0873 5.18775 18.2849 5.27422 18.4305 5.42765C18.5761 5.58107 18.6579 5.78893 18.6579 6.00563V12.1594C18.7603 12.1523 18.8634 12.1467 18.9677 12.1467C19.3601 12.1464 19.7508 12.1995 20.13 12.3049V5.44453C20.1293 4.96701 19.9484 4.50928 19.6268 4.17182C19.3053 3.83435 18.8695 3.64472 18.415 3.64453H4.713C4.2589 3.64528 3.82361 3.83516 3.50251 4.17256C3.18141 4.50997 3.00071 4.96737 3 5.44453V19.8424C3 20.32 3.18041 20.7781 3.50161 21.116C3.8228 21.4539 4.2585 21.644 4.713 21.6445H18.415C18.4779 21.6444 18.5406 21.6406 18.6031 21.6333C17.4631 21.5358 16.4008 20.9869 15.6314 20.0977Z" fill="#E5007A"/>
<path d="M13.3991 16.7571C13.3991 16.9958 13.3089 17.2247 13.1483 17.3935C12.9877 17.5623 12.7698 17.6571 12.5426 17.6571H7.64853C7.42137 17.6571 7.20352 17.5623 7.04289 17.3935C6.88227 17.2247 6.79203 16.9958 6.79203 16.7571C6.79203 16.5184 6.88227 16.2895 7.04289 16.1207C7.20352 15.9519 7.42137 15.8571 7.64853 15.8571H12.5426C12.7698 15.8571 12.9877 15.9519 13.1483 16.1207C13.3089 16.2895 13.3991 16.5184 13.3991 16.7571Z" fill="#E5007A"/>
<path d="M16.3353 8.52984C16.3353 8.76854 16.2451 8.99746 16.0845 9.16624C15.9239 9.33502 15.706 9.42984 15.4788 9.42984H7.64987C7.42271 9.42984 7.20486 9.33502 7.04423 9.16624C6.88361 8.99746 6.79337 8.76854 6.79337 8.52984C6.79337 8.29115 6.88361 8.06223 7.04423 7.89345C7.20486 7.72466 7.42271 7.62984 7.64987 7.62984H15.4788C15.5913 7.62984 15.7027 7.65312 15.8066 7.69835C15.9105 7.74358 16.0049 7.80987 16.0845 7.89345C16.164 7.97702 16.2271 8.07624 16.2701 8.18543C16.3132 8.29462 16.3353 8.41165 16.3353 8.52984Z" fill="#E5007A"/>
<path d="M15.8683 13.444C15.9664 13.346 16.0688 13.2523 16.1754 13.1627C16.267 13.0283 16.3215 12.87 16.333 12.7051C16.3445 12.5403 16.3124 12.3753 16.2404 12.2283C16.1684 12.0813 16.0592 11.9581 15.9248 11.8721C15.7905 11.7861 15.6362 11.7408 15.4788 11.741H7.64987C7.42694 11.7476 7.21524 11.8452 7.05976 12.0132C6.90429 12.1812 6.81731 12.4063 6.81731 12.6407C6.81731 12.875 6.90429 13.1001 7.05976 13.2681C7.21524 13.4361 7.42694 13.5338 7.64987 13.5403H15.4788C15.6141 13.5413 15.7476 13.5083 15.8683 13.444Z" fill="#E5007A"/>
<path d="M20.476 14.64C20.4598 14.6226 20.4404 14.6088 20.419 14.5994C20.3977 14.59 20.3747 14.5851 20.3515 14.5852H19.1564C19.1433 14.5852 19.1307 14.5906 19.1214 14.6004C19.1121 14.6102 19.1069 14.6234 19.1069 14.6372V18.7779C19.1068 18.7937 19.1113 18.8093 19.1197 18.8224C19.1282 18.8356 19.1402 18.8457 19.1542 18.8516C19.1683 18.8574 19.1836 18.8587 19.1984 18.8552C19.2131 18.8517 19.2265 18.8436 19.2367 18.832L21.5787 16.1447C21.619 16.0984 21.6408 16.0377 21.6397 15.975C21.6385 15.9124 21.6146 15.8525 21.5727 15.8079L20.476 14.64Z" fill="#E5007A"/>
<path d="M19.044 12.7071C18.2616 12.7071 17.4967 12.9509 16.8461 13.4077C16.1956 13.8645 15.6885 14.5138 15.3891 15.2734C15.0897 16.033 15.0114 16.8688 15.1641 17.6752C15.3168 18.4816 15.6937 19.2223 16.247 19.8036C16.8003 20.3849 17.5052 20.7808 18.2727 20.9411C19.0401 21.1014 19.8355 21.019 20.5584 20.7042C21.2812 20.3895 21.899 19.8566 22.3336 19.1729C22.7682 18.4892 23.0001 17.6855 23 16.8633C22.9995 15.761 22.5825 14.7041 21.8407 13.9248C21.0989 13.1455 20.093 12.7075 19.044 12.7071ZM19.1243 19.4135C19.114 19.425 19.1016 19.4342 19.0878 19.4404C19.0739 19.4467 19.0591 19.4499 19.044 19.4499C19.029 19.4499 19.0141 19.4467 19.0003 19.4404C18.9865 19.4342 18.9741 19.425 18.9637 19.4135L16.0684 16.1327C16.0201 16.078 15.9938 16.0057 15.9952 15.9311C15.9966 15.8565 16.0254 15.7854 16.0757 15.7327L17.3979 14.3433C17.4175 14.3227 17.4408 14.3064 17.4664 14.2953C17.492 14.2842 17.5195 14.2785 17.5472 14.2786H20.5402C20.5963 14.2786 20.6502 14.3019 20.6901 14.3433L22.0117 15.7327C22.0619 15.7854 22.0908 15.8565 22.0922 15.9311C22.0935 16.0057 22.0673 16.078 22.019 16.1327L19.1243 19.4135Z" fill="#E5007A"/>
</svg>
