<svg width="14" height="15" viewBox="0 0 18 15" fill="none" xmlns="http://www.w3.org/2000/svg">
<path d="M4.98504 14.7856H4.77246C4.54782 14.7127 4.30579 14.6799 4.0815 14.6628C3.84338 14.6446 3.60632 14.6074 3.38097 14.5585C2.41107 14.3483 1.48412 14.006 0.610398 13.5295C0.405631 13.4177 0.193766 13.3117 0 13.154C0.358786 13.1186 0.696634 13.1914 1.04335 13.1611C1.5267 13.119 2.00757 13.0772 2.48027 12.9687C3.42533 12.752 4.29408 12.3601 5.08511 11.7958C5.0986 11.7865 5.11244 11.7772 5.12592 11.7683C5.18342 11.7255 5.24091 11.6823 5.30656 11.6337C5.1057 11.5381 4.89525 11.562 4.70184 11.5042C4.69865 11.436 4.65996 11.4653 4.62767 11.4767C4.60992 11.4763 4.59112 11.4799 4.57479 11.4745C4.07441 11.3103 3.60348 11.0973 3.1872 10.7585C2.60519 10.2852 2.1875 9.70553 1.93695 8.96237C2.12504 9.03233 2.30567 9.00235 2.48134 9.04125C2.56864 9.06053 2.66481 9.09051 2.74537 9.01055C2.77731 8.97879 2.81209 8.98129 2.85645 8.99592C2.96824 9.03269 3.08074 9.03804 3.19465 8.98985C3.24859 8.96701 3.34477 9.00342 3.34583 8.91632C3.34619 8.88027 3.26386 8.82816 3.21027 8.80852C2.95901 8.71786 2.71627 8.61078 2.48382 8.47799C2.07429 8.24455 1.74318 7.91866 1.44792 7.55993C1.07068 7.10197 0.826167 6.57262 0.712604 5.98688C0.66363 5.73345 0.608269 5.47895 0.638079 5.1991C1.15301 5.46895 1.67576 5.64385 2.29219 5.64385C1.48802 5.04561 0.98267 4.31031 0.765482 3.36869C0.546164 2.41743 0.704442 1.53756 1.16472 0.682325C1.20483 0.720518 1.23499 0.746575 1.26267 0.775487C1.57319 1.10102 1.85036 1.45582 2.19175 1.7553C2.56296 2.08119 2.93559 2.40244 3.3398 2.68585C4.11557 3.22948 4.94742 3.66424 5.83746 3.98442C6.44822 4.20394 7.076 4.35885 7.71586 4.46201C8.0349 4.51341 8.35536 4.54946 8.67794 4.57302C8.81919 4.58337 8.82203 4.50627 8.80783 4.41561C8.75282 4.06402 8.7294 3.71635 8.76489 3.35655C8.81173 2.87896 8.93665 2.42743 9.151 2.01087C9.46046 1.41013 9.88809 0.901845 10.4818 0.554181C10.7235 0.412831 10.9705 0.283974 11.2356 0.194381C11.6732 0.0466063 12.1189 -0.0240687 12.5856 0.00734237C12.8524 0.0251896 13.1172 0.0401813 13.3759 0.106216C14.0345 0.275051 14.6059 0.601655 15.0903 1.08067C15.1393 1.12886 15.1833 1.1692 15.2568 1.14921C15.5148 1.07889 15.776 1.01964 16.0297 0.937183C16.469 0.794048 16.8953 0.617361 17.2941 0.377851C17.353 0.342513 17.4176 0.264342 17.5138 0.312887C17.2193 1.14243 16.7107 1.79849 15.9757 2.28536C16.671 2.25038 17.3147 2.01337 17.9989 1.76244C17.7718 2.13188 17.5237 2.41707 17.2711 2.69728C16.9726 3.02781 16.6436 3.32764 16.2792 3.5825C16.1922 3.64318 16.1702 3.69922 16.1706 3.79274C16.172 4.24106 16.1851 4.68974 16.1351 5.13628C16.1191 5.2787 16.1521 5.44396 16.1184 5.5564C16.0396 5.81733 16.0166 6.08468 15.9548 6.34525C15.7511 7.20263 15.4828 8.03931 15.1006 8.83529C14.6684 9.73551 14.1275 10.5686 13.4696 11.3139C12.905 11.9539 12.2761 12.5315 11.561 13.008C10.9655 13.4049 10.3473 13.7568 9.68439 14.0249C9.3579 14.157 9.03212 14.3037 8.69214 14.3858C8.09203 14.5307 7.49335 14.691 6.86946 14.7263C6.70444 14.7356 6.52452 14.7035 6.36446 14.7859H6.25835C6.19944 14.732 6.14018 14.7324 6.08127 14.7859H5.7271C5.71538 14.7616 5.70332 14.7613 5.69161 14.7859H5.5855C5.56172 14.7495 5.5383 14.7495 5.51452 14.7859H5.19584C5.12486 14.7781 5.05424 14.7342 4.98326 14.7859L4.98504 14.7856Z" fill="#243A57"/>
</svg>
