<svg width="21" height="20" viewBox="0 0 21 20" fill="none" xmlns="http://www.w3.org/2000/svg">
<rect x="0.5" width="20" height="20" rx="4" fill="#FEF2F8"/>
<g clip-path="url(#clip0_7308_70349)">
<path d="M17.7762 5.77062C17.2672 5.99575 16.7275 6.1436 16.1748 6.20928C16.7573 5.86091 17.1933 5.31263 17.4015 4.66662C16.8548 4.99195 16.2555 5.21995 15.6308 5.34328C15.2112 4.89434 14.6551 4.59659 14.0488 4.49634C13.4425 4.39609 12.8201 4.49895 12.2783 4.78892C11.7366 5.07889 11.3058 5.53974 11.0529 6.09981C10.8001 6.65989 10.7393 7.2878 10.8802 7.88595C9.77157 7.83039 8.68705 7.5423 7.69702 7.04039C6.70699 6.53849 5.83359 5.83398 5.1335 4.97262C4.88569 5.39825 4.75547 5.8821 4.75617 6.37462C4.75617 7.34128 5.24817 8.19528 5.99617 8.69528C5.55351 8.68135 5.12059 8.56181 4.7335 8.34662V8.38128C4.73363 9.02508 4.95641 9.64903 5.36407 10.1473C5.77172 10.6456 6.33915 10.9876 6.97017 11.1153C6.55924 11.2266 6.12837 11.2431 5.71017 11.1633C5.88808 11.7174 6.23484 12.2021 6.70189 12.5494C7.16895 12.8966 7.73292 13.0891 8.31483 13.1C7.73649 13.5542 7.07428 13.8899 6.36609 14.0881C5.65789 14.2862 4.91758 14.3428 4.1875 14.2546C5.46197 15.0742 6.94556 15.5094 8.46083 15.5079C13.5895 15.5079 16.3942 11.2593 16.3942 7.57462C16.3942 7.45462 16.3908 7.33328 16.3855 7.21462C16.9314 6.82006 17.4026 6.3313 17.7768 5.77128L17.7762 5.77062Z" fill="#485F7D"/>
</g>
<defs>
<clipPath id="clip0_7308_70349">
<rect width="16" height="16" fill="white" transform="translate(3 2)"/>
</clipPath>
</defs>
</svg>
