<svg width="20" height="20" viewBox="0 0 20 20" fill="none" xmlns="http://www.w3.org/2000/svg">
<rect width="20" height="20" rx="4" fill="#222222"/>
<g clip-path="url(#clip0_11622_37494)">
<path d="M17.2762 5.77062C16.7672 5.99575 16.2275 6.1436 15.6748 6.20928C16.2573 5.86091 16.6933 5.31263 16.9015 4.66662C16.3548 4.99195 15.7555 5.21995 15.1308 5.34328C14.7112 4.89434 14.1551 4.59659 13.5488 4.49634C12.9425 4.39609 12.3201 4.49895 11.7783 4.78892C11.2366 5.07889 10.8058 5.53974 10.5529 6.09981C10.3001 6.65989 10.2393 7.2878 10.3802 7.88595C9.27157 7.83039 8.18705 7.5423 7.19702 7.04039C6.20699 6.53849 5.33359 5.83398 4.6335 4.97262C4.38569 5.39825 4.25547 5.8821 4.25617 6.37462C4.25617 7.34128 4.74817 8.19528 5.49617 8.69528C5.05351 8.68135 4.62059 8.56181 4.2335 8.34662V8.38128C4.23363 9.02508 4.45641 9.64903 4.86407 10.1473C5.27172 10.6456 5.83915 10.9876 6.47017 11.1153C6.05924 11.2266 5.62837 11.2431 5.21017 11.1633C5.38808 11.7174 5.73484 12.2021 6.20189 12.5494C6.66895 12.8966 7.23292 13.0891 7.81483 13.1C7.23649 13.5542 6.57428 13.8899 5.86609 14.0881C5.15789 14.2862 4.41758 14.3428 3.6875 14.2546C4.96197 15.0742 6.44556 15.5094 7.96083 15.5079C13.0895 15.5079 15.8942 11.2593 15.8942 7.57462C15.8942 7.45462 15.8908 7.33328 15.8855 7.21462C16.4314 6.82006 16.9026 6.3313 17.2768 5.77128L17.2762 5.77062Z" fill="#595959"/>
</g>
<defs>
<clipPath id="clip0_11622_37494">
<rect width="16" height="16" fill="white" transform="translate(2.5 2)"/>
</clipPath>
</defs>
</svg>
