<svg width="40" height="41" viewBox="0 0 40 41" fill="none" xmlns="http://www.w3.org/2000/svg">
<rect y="0.693359" width="40" height="40" rx="9" fill="#222222"/>
<g clip-path="url(#clip0_11609_36905)">
<path d="M30.1603 14.3503C29.3969 14.688 28.5873 14.9097 27.7583 15.0083C28.6321 14.4857 29.2861 13.6633 29.5983 12.6943C28.7783 13.1823 27.8793 13.5243 26.9423 13.7093C26.313 13.0358 25.4787 12.5892 24.5693 12.4388C23.6599 12.2885 22.7263 12.4428 21.9136 12.8777C21.1009 13.3127 20.4547 14.0039 20.0755 14.8441C19.6962 15.6842 19.6051 16.626 19.8163 17.5233C18.1535 17.4399 16.5267 17.0078 15.0416 16.2549C13.5566 15.5021 12.2465 14.4453 11.1963 13.1533C10.8246 13.7917 10.6293 14.5175 10.6303 15.2563C10.6303 16.7063 11.3683 17.9873 12.4903 18.7373C11.8264 18.7164 11.177 18.537 10.5963 18.2143V18.2663C10.5965 19.232 10.9307 20.1679 11.5422 20.9153C12.1537 21.6628 13.0048 22.1757 13.9513 22.3673C13.335 22.5343 12.6887 22.5589 12.0613 22.4393C12.3282 23.2705 12.8484 23.9975 13.5489 24.5184C14.2495 25.0393 15.0955 25.3281 15.9683 25.3443C15.1008 26.0256 14.1075 26.5292 13.0452 26.8264C11.9829 27.1236 10.8725 27.2085 9.77734 27.0763C11.689 28.3057 13.9144 28.9584 16.1873 28.9563C23.8803 28.9563 28.0873 22.5833 28.0873 17.0563C28.0873 16.8763 28.0823 16.6943 28.0743 16.5163C28.8932 15.9244 29.5999 15.1913 30.1613 14.3513L30.1603 14.3503Z" fill="#595959"/>
</g>
<defs>
<clipPath id="clip0_11609_36905">
<rect width="24" height="24" fill="white" transform="translate(8 8.69336)"/>
</clipPath>
</defs>
</svg>
