<svg width="40" height="40" viewBox="0 0 40 40" fill="none" xmlns="http://www.w3.org/2000/svg">
<rect width="40" height="40" rx="9" fill="#FEF2F8"/>
<g clip-path="url(#clip0_6837_71585)">
<path d="M30.1603 13.6569C29.3969 13.9946 28.5873 14.2164 27.7583 14.3149C28.6321 13.7923 29.2861 12.9699 29.5983 12.0009C28.7783 12.4889 27.8793 12.8309 26.9423 13.0159C26.313 12.3425 25.4787 11.8959 24.5693 11.7455C23.6599 11.5951 22.7263 11.7494 21.9136 12.1844C21.1009 12.6193 20.4547 13.3106 20.0755 14.1507C19.6962 14.9908 19.6051 15.9327 19.8163 16.8299C18.1535 16.7466 16.5267 16.3144 15.0416 15.5616C13.5566 14.8087 12.2465 13.752 11.1963 12.4599C10.8246 13.0984 10.6293 13.8241 10.6303 14.5629C10.6303 16.0129 11.3683 17.2939 12.4903 18.0439C11.8264 18.023 11.177 17.8437 10.5963 17.5209V17.5729C10.5965 18.5386 10.9307 19.4745 11.5422 20.222C12.1537 20.9694 13.0048 21.4824 13.9513 21.6739C13.335 21.8409 12.6887 21.8656 12.0613 21.7459C12.3282 22.5771 12.8484 23.3041 13.5489 23.825C14.2495 24.3459 15.0955 24.6347 15.9683 24.6509C15.1008 25.3322 14.1075 25.8359 13.0452 26.1331C11.9829 26.4303 10.8725 26.5152 9.77734 26.3829C11.689 27.6123 13.9144 28.265 16.1873 28.2629C23.8803 28.2629 28.0873 21.8899 28.0873 16.3629C28.0873 16.1829 28.0823 16.0009 28.0743 15.8229C28.8932 15.2311 29.5999 14.4979 30.1613 13.6579L30.1603 13.6569Z" fill="#485F7D"/>
</g>
<defs>
<clipPath id="clip0_6837_71585">
<rect width="24" height="24" fill="white" transform="translate(8 8)"/>
</clipPath>
</defs>
</svg>
