<svg viewBox="0 0 17 14" fill="none" xmlns="http://www.w3.org/2000/svg">
<path fill-rule="evenodd" clip-rule="evenodd" d="M10.5774 0.617377C10.2762 0.687526 10.093 0.754912 9.83174 0.891526C8.98066 1.3367 8.37099 2.12839 8.1279 3.1042C8.04128 3.45174 8.01149 4.11538 8.0669 4.46256L8.09826 4.65915L7.74133 4.63415C6.46884 4.54497 5.07199 4.06795 3.88535 3.31725C3.23003 2.90264 2.75501 2.50494 2.11245 1.83276C1.42657 1.11532 1.48657 1.13202 1.30944 1.60901C1.00776 2.42132 0.983519 3.16201 1.23438 3.90165C1.42959 4.47731 1.84343 5.10709 2.26021 5.46277L2.47746 5.64818H2.35765C2.13517 5.64818 1.65013 5.52343 1.35193 5.3895L1.05556 5.25637V5.45396C1.05556 6.15958 1.41116 7.01549 1.94863 7.60361C2.34671 8.03921 2.73994 8.29966 3.29263 8.49384L3.59855 8.60133L3.26926 8.65277C3.07913 8.68246 2.77577 8.69592 2.55149 8.68462C2.09547 8.66159 2.10779 8.62589 2.38205 9.17631C2.68097 9.77622 3.1719 10.2908 3.73239 10.5917C4.14134 10.8112 4.35563 10.8841 4.78205 10.9486L5.12113 10.9999L4.97169 11.1232C4.88951 11.1911 4.70615 11.3208 4.56424 11.4115C3.45748 12.119 2.22002 12.4587 0.926885 12.41C0.358633 12.3886 0.358632 12.3895 0.92134 12.7061C2.84575 13.7889 4.9235 14.1365 7.07843 13.7361C10.3403 13.13 12.9349 10.6969 13.9999 7.24533C14.2866 6.31639 14.4397 5.33509 14.4397 4.42739V3.89504L14.6596 3.7222C15.0724 3.3977 15.7088 2.68334 15.9871 2.23207L16.0556 2.12113L15.8765 2.20154C15.4884 2.37581 14.3557 2.68894 14.305 2.6359C14.2967 2.62721 14.4126 2.52208 14.5625 2.40233C14.9864 2.0636 15.3931 1.47965 15.5692 0.956709L15.6192 0.808156L15.1537 1.04172C14.717 1.26087 14.1965 1.45922 13.7809 1.5649L13.6001 1.61089L13.3985 1.41995C12.9969 1.0396 12.5132 0.773221 11.9818 0.639772C11.6183 0.548468 10.9211 0.537371 10.5774 0.617377Z"/>
</svg>
