<svg width="24" height="24" viewBox="0 0 24 24" fill="none" xmlns="http://www.w3.org/2000/svg">
<path d="M14.4578 11.6612C15.1054 11.6612 15.7385 11.4658 16.2769 11.0997C16.8153 10.7336 17.2349 10.2133 17.4826 9.60455C17.7303 8.99581 17.7949 8.326 17.6684 7.67986C17.5419 7.03372 17.2299 6.44026 16.7718 5.97458C16.3137 5.50889 15.7301 5.19189 15.0949 5.06368C14.4597 4.93546 13.8014 5.0018 13.2033 5.25429C12.6051 5.50677 12.094 5.93408 11.7346 6.48214C11.3752 7.0302 11.1837 7.67439 11.1842 8.33323C11.1847 9.21616 11.5298 10.0627 12.1437 10.6868C12.7576 11.3109 13.59 11.6614 14.4578 11.6612ZM7.09209 10.9775H8.72892C8.94598 10.9775 9.15415 10.8898 9.30763 10.7337C9.46111 10.5775 9.54734 10.3657 9.54734 10.1449C9.54734 9.92405 9.46111 9.71227 9.30763 9.55612C9.15415 9.39996 8.94598 9.31224 8.72892 9.31224H3.81842C3.71094 9.31224 3.60452 9.33378 3.50522 9.37562C3.40593 9.41746 3.31571 9.4788 3.23971 9.55612C3.16371 9.63343 3.10343 9.72522 3.0623 9.82625C3.02117 9.92727 3 10.0355 3 10.1449C3 10.2542 3.02117 10.3625 3.0623 10.4635C3.10343 10.5645 3.16371 10.6563 3.23971 10.7337C3.31571 10.811 3.40593 10.8723 3.50522 10.9142C3.60452 10.956 3.71094 10.9775 3.81842 10.9775H5.45525" fill="#485F7D"/>
<path d="M7.9105 18C7.9105 15.1177 10.842 12.7813 14.4553 12.7813C18.0711 12.7813 21 15.1177 21 18" fill="#485F7D"/>
</svg>
