<svg viewBox="0 0 32 32" fill="none" xmlns="http://www.w3.org/2000/svg">
<path d="M24 14.6667C25.8409 14.6667 27.3333 13.1743 27.3333 11.3333C27.3333 9.49239 25.8409 8 24 8" stroke="#243A57" stroke-width="1.5" stroke-linecap="round"/>
<path d="M4.29998 24C3.30091 24 2.50626 23.3713 1.79276 22.4921C0.332147 20.6925 2.73025 19.2544 3.64489 18.5501C4.57465 17.8341 5.6128 17.4285 6.66536 17.3333M7.33203 14.6667C5.49108 14.6667 3.9987 13.1743 3.9987 11.3333C3.9987 9.49239 5.49108 8 7.33203 8" stroke="#243A57" stroke-width="1.5" stroke-linecap="round"/>
<path d="M10.7771 20.1476C9.41474 20.99 5.84268 22.7101 8.01829 24.8625C9.08107 25.914 10.2647 26.666 11.7529 26.666H20.2446C21.7327 26.666 22.9163 25.914 23.9791 24.8625C26.1547 22.7101 22.5827 20.99 21.2203 20.1476C18.0255 18.1721 13.9719 18.1721 10.7771 20.1476Z" stroke="#243A57" stroke-width="1.5" stroke-linecap="round" stroke-linejoin="round"/>
<path d="M20.6654 10.0007C20.6654 12.578 18.576 14.6673 15.9987 14.6673C13.4214 14.6673 11.332 12.578 11.332 10.0007C11.332 7.42332 13.4214 5.33398 15.9987 5.33398C18.576 5.33398 20.6654 7.42332 20.6654 10.0007Z" stroke="#243A57" stroke-width="1.5"/>
<path d="M29.2833 24.3741C29.663 24.26 29.8529 24.2029 29.9242 24.107C29.9955 24.0111 29.9955 23.8569 29.9955 23.5486V22.4515C29.9955 22.1431 29.9955 21.9889 29.9242 21.893C29.8529 21.7971 29.663 21.7401 29.2833 21.626C28.0827 21.2652 27.3308 20.02 27.6005 18.8153C27.6895 18.4179 27.734 18.2192 27.6855 18.1102C27.637 18.0011 27.5016 17.9247 27.231 17.7719L26.2377 17.2113C25.9736 17.0622 25.8416 16.9877 25.7242 17.0017C25.6068 17.0158 25.4647 17.1488 25.1805 17.4147C24.2449 18.2905 22.7516 18.2905 21.816 17.4147C21.5319 17.1487 21.3898 17.0158 21.2724 17.0017C21.155 16.9876 21.0229 17.0622 20.7588 17.2112L19.7656 17.7718C19.4949 17.9246 19.3596 18.001 19.3111 18.1101C19.2626 18.2191 19.3071 18.4178 19.396 18.8153C19.6656 20.02 18.9131 21.2653 17.7123 21.626C17.3325 21.7401 17.1427 21.7971 17.0713 21.893C17 21.9889 17 22.1431 17 22.4515V23.5486C17 23.8569 17 24.0111 17.0713 24.107C17.1426 24.203 17.3325 24.26 17.7123 24.3741C18.9128 24.7348 19.6647 25.98 19.395 27.1848C19.306 27.5822 19.2616 27.7808 19.31 27.8899C19.3585 27.999 19.4939 28.0753 19.7646 28.2282L20.7578 28.7888C21.0219 28.9379 21.154 29.0124 21.2714 28.9983C21.3888 28.9842 21.5309 28.8512 21.8149 28.5853C22.751 27.7088 24.2455 27.7087 25.1816 28.5853C25.4657 28.8512 25.6077 28.9842 25.7251 28.9982C25.8426 29.0123 25.9746 28.9378 26.2387 28.7887L27.232 28.2281C27.5027 28.0753 27.6381 27.9989 27.6865 27.8898C27.735 27.7808 27.6905 27.5821 27.6015 27.1847C27.3316 25.98 28.083 24.7348 29.2833 24.3741Z" fill="white" stroke="#243A57" stroke-linecap="round"/>
<path d="M25.6639 22.9569C25.6639 24.1532 24.6942 25.1229 23.498 25.1229C22.3017 25.1229 21.332 24.1532 21.332 22.9569C21.332 21.7607 22.3017 20.791 23.498 20.791C24.6942 20.791 25.6639 21.7607 25.6639 22.9569Z" stroke="#243A57"/>
</svg>
