<svg width="12" height="12" viewBox="0 0 12 12" fill="none" xmlns="http://www.w3.org/2000/svg">
<g id="Bold / Network, IT, Programming / USB">
<g id="Vector">
<path d="M5.73636 11.3391C5.8769 11.3391 6.00815 11.2685 6.08611 11.151L7.20703 9.46157C7.33581 9.26749 7.28361 9.00526 7.09045 8.87587C6.89729 8.74648 6.63631 8.79892 6.50753 8.99301L6.15671 9.52177V4.44658C6.2247 4.48141 6.29588 4.51147 6.36989 4.53625L8.98547 5.14913C9.27154 5.24494 9.4645 5.51394 9.4645 5.81693V6.85877V7.45562C9.33235 7.58841 9.32929 7.44991 9.31277 7.57342C9.29866 7.67885 9.46446 7.58948 9.4645 7.70499L9.72308 7.80146C9.72303 7.91697 9.85145 7.73483 9.86555 7.84026C9.88208 7.96377 9.27245 7.86911 9.40461 8.0019C9.53676 8.13469 9.54777 8.16949 9.6707 8.1861C9.77562 8.20027 9.75059 8.65057 9.86555 8.65052L9.885 8.4846C9.99996 8.48464 10.2605 8.49877 10.3654 8.4846C10.2332 8.61738 10.4883 8.46799 10.3654 8.4846C10.4976 8.35181 10.3489 8.12541 10.3654 8.0019C10.3654 8.11741 10.3795 7.89647 10.3654 8.0019L10.8657 7.80146C10.8657 7.68595 10.4283 7.90689 10.4142 7.80146C10.3977 7.67795 10.4374 7.70621 10.3052 7.57342C10.1927 7.46035 10.3052 6.85877 10.3052 6.85877V5.81693C10.3052 5.15035 9.88068 4.55855 9.25132 4.34776L6.63574 3.73489C6.34967 3.63907 6.15671 3.37007 6.15671 3.06708V2.6707C6.5675 2.50362 6.85729 2.09896 6.85729 1.62629C6.85729 1.00426 6.35543 0.5 5.73636 0.5C5.11729 0.5 4.61544 1.00426 4.61544 1.62629C4.61544 2.09896 4.90522 2.50362 5.31601 2.6707V3.91036C5.31601 4.21335 5.12305 4.48235 4.83698 4.57817L2.61434 5.06316C1.98497 5.27395 1.56046 5.86575 1.56046 6.53233V7.64561C1.2291 7.80377 1 8.14314 1 8.53627C1 9.08055 1.43912 9.52177 1.98081 9.52177C2.52249 9.52177 2.96162 9.08055 2.96162 8.53627C2.96162 8.14314 2.73252 7.80377 2.40116 7.64561V6.53233C2.40116 6.22934 2.59412 5.96034 2.88019 5.86452L5.10283 5.37953C5.17684 5.35474 5.24802 5.32468 5.31601 5.28986V9.52177L4.96519 8.99301C4.83641 8.79892 4.57543 8.74648 4.38227 8.87587C4.18911 9.00526 4.13691 9.26749 4.26569 9.46157L5.38661 11.151C5.46457 11.2685 5.59582 11.3391 5.73636 11.3391Z" fill="#407BFF"/>
<path d="M10.8657 7.80146C10.8657 8.33463 10.4355 8.76685 9.90488 8.76685C9.37425 8.76685 8.94409 8.33463 8.94409 7.80146C8.94409 7.26829 9.37425 6.83607 9.90488 6.83607C10.4355 6.83607 10.8657 7.26829 10.8657 7.80146Z" fill="#407BFF"/>
<path d="M7.6581 9.56922C7.6581 10.6356 6.79778 11.5 5.73652 11.5C4.67525 11.5 3.81493 10.6356 3.81493 9.56922C3.81493 8.50288 4.67525 7.63844 5.73652 7.63844C6.79778 7.63844 7.6581 8.50288 7.6581 9.56922Z" fill="#407BFF"/>
</g>
</g>
</svg>
