<svg width="16" height="17" viewBox="0 0 16 17" fill="none" xmlns="http://www.w3.org/2000/svg">
<mask id="mask0_1904_38336" style="mask-type:alpha" maskUnits="userSpaceOnUse" x="0" y="0" width="16" height="17">
<path d="M0 0.500122H16V16.5001H0V0.500122Z" fill="white"/>
</mask>
<g mask="url(#mask0_1904_38336)">
<path fill-rule="evenodd" clip-rule="evenodd" d="M8.00001 0.500122C12.4184 0.500122 16 4.08176 16 8.50014C16 12.9181 12.4184 16.5001 8.00001 16.5001C3.58164 16.5001 0 12.9181 0 8.50014C0 4.08176 3.58164 0.500122 8.00001 0.500122Z" fill="#2775CA"/>
</g>
<path fill-rule="evenodd" clip-rule="evenodd" d="M6.50045 14.0622C6.50045 14.2504 6.35309 14.3573 6.17109 14.3005C3.75227 13.5288 1.99854 11.2607 1.99854 8.58455C1.99854 5.90846 3.75227 3.64027 6.17109 2.86863C6.35309 2.81218 6.50045 2.91872 6.50045 3.10691V3.57145C6.50045 3.69673 6.40336 3.84418 6.284 3.885C4.37027 4.58773 2.99935 6.42618 2.99935 8.58137C2.99935 10.7366 4.37027 12.5754 6.284 13.2777C6.40336 13.3217 6.50045 13.4659 6.50045 13.5917V14.0622Z" fill="white"/>
<path fill-rule="evenodd" clip-rule="evenodd" d="M8.49872 12.3335C8.49872 12.4717 8.38581 12.5846 8.24781 12.5846H7.7489C7.6109 12.5846 7.49799 12.4717 7.49799 12.3335V11.543C6.40617 11.3957 5.87299 10.7838 5.72863 9.9525C5.70345 9.81113 5.81635 9.68259 5.96072 9.68259H6.53172C6.6509 9.68259 6.75136 9.76741 6.77645 9.88641C6.88317 10.3821 7.16863 10.7618 8.04381 10.7618C8.69009 10.7618 9.14827 10.401 9.14827 9.86159C9.14827 9.32177 8.87836 9.11795 7.9309 8.96095C6.53172 8.77277 5.86981 8.34913 5.86981 7.25113C5.86981 6.40413 6.5099 5.7454 7.50118 5.60413V4.82922C7.50118 4.69113 7.61418 4.57812 7.75208 4.57812H8.25099C8.38899 4.57812 8.5019 4.69113 8.5019 4.82922V5.62613C9.30818 5.77067 9.81954 6.2284 9.98591 6.98758C10.0172 7.13213 9.90427 7.26677 9.75691 7.26677H9.22972C9.11681 7.26677 9.02272 7.1914 8.98827 7.08168C8.84709 6.59877 8.5019 6.39176 7.90263 6.39176C7.24072 6.39176 6.89872 6.71167 6.89872 7.16022C6.89872 7.63395 7.09336 7.87222 8.1099 8.01995C9.48382 8.20813 10.193 8.60022 10.193 9.77068C10.193 10.6584 9.53409 11.3769 8.5019 11.543V12.3335H8.49872Z" fill="white"/>
<path fill-rule="evenodd" clip-rule="evenodd" d="M9.82888 14.3005C9.64706 14.3573 9.49951 14.2504 9.49951 14.0622V13.598C9.49951 13.4599 9.58424 13.3314 9.71597 13.2841C11.6297 12.5814 13.0006 10.7429 13.0006 8.58774C13.0006 6.43255 11.6297 4.5941 9.71597 3.89137C9.59678 3.84737 9.49951 3.70319 9.49951 3.57746V3.11328C9.49951 2.92509 9.64706 2.81537 9.82888 2.87464C12.2477 3.64673 14.0014 5.91483 14.0014 8.59092C13.9984 11.2607 12.2477 13.5257 9.82888 14.3005Z" fill="white"/>
</svg>
