<svg width="16" height="17" viewBox="0 0 16 17" fill="none" xmlns="http://www.w3.org/2000/svg">
<path d="M16 8.5C16 12.9184 12.4184 16.5 8 16.5C3.58176 16.5 0 12.9184 0 8.5C0 4.08168 3.58176 0.5 8 0.5C12.4184 0.5 16 4.08168 16 8.5Z" fill="#1BA27A"/>
<path d="M11.7544 4.53406H4.1792V6.36286H7.0524V9.05086H8.8812V6.36286H11.7544V4.53406Z" fill="white"/>
<path d="M7.98434 9.33719C5.60754 9.33719 3.68058 8.96103 3.68058 8.49695C3.68058 8.03295 5.60746 7.65671 7.98434 7.65671C10.3611 7.65671 12.288 8.03295 12.288 8.49695C12.288 8.96103 10.3611 9.33719 7.98434 9.33719ZM12.8167 8.63703C12.8167 8.03863 10.6532 7.55359 7.98434 7.55359C5.31554 7.55359 3.15186 8.03863 3.15186 8.63703C3.15186 9.16399 4.82954 9.60303 7.05266 9.70031V13.559H8.8813V9.70183C11.1215 9.60759 12.8167 9.16671 12.8167 8.63703Z" fill="white"/>
</svg>
