<svg width="16" height="17" viewBox="0 0 16 17" fill="none" xmlns="http://www.w3.org/2000/svg">
<g id="email_icon">
<g id="Vector">
<path d="M8.0437 8.64879C8.64147 8.64879 9.2258 8.46842 9.7228 8.13049C10.2198 7.79257 10.6071 7.31227 10.8358 6.75035C11.0644 6.18844 11.1241 5.57016 11.0073 4.97372C10.8905 4.37728 10.6025 3.82947 10.1796 3.39961C9.75677 2.96975 9.2181 2.67713 8.63176 2.55878C8.04542 2.44043 7.43776 2.50166 6.88563 2.73473C6.3335 2.96779 5.86172 3.36222 5.52996 3.86813C5.1982 4.37403 5.02138 4.96867 5.02185 5.57683C5.02233 6.39184 5.34093 7.17329 5.9076 7.74936C6.47427 8.32543 7.24262 8.64895 8.0437 8.64879Z" fill="white"/>
<path d="M2 14.5C2 11.8394 4.70603 9.68272 8.04131 9.68272C11.379 9.68272 14.0826 11.8394 14.0826 14.5" fill="white"/>
</g>
</g>
</svg>
