<svg xmlns="http://www.w3.org/2000/svg" width="556" height="131" viewBox="0 0 556 131" fill="none">
  <path d="M15.9943 0.25H540.005C544.202 0.25 548.216 1.46502 551.167 3.61444C554.117 5.76298 555.749 8.65712 555.749 11.6506V104.855C555.749 107.848 554.117 110.743 551.167 112.891C548.216 115.041 544.202 116.256 540.005 116.256L28.0343 116.546C27.437 116.547 26.8875 116.845 26.5525 117.334C25.6115 118.71 23.2718 121.95 20.2557 124.844C17.2276 127.749 13.573 130.25 10 130.25C7.91506 130.25 6.28878 129.768 5.01559 128.993C3.74161 128.218 2.80759 127.14 2.12074 125.929C0.744527 123.501 0.370949 120.554 0.25 118.496V11.6506C0.25 8.65712 1.88223 5.76298 4.83182 3.61444C7.78262 1.46502 11.7974 0.25 15.9943 0.25Z" stroke="#185CF6" stroke-width="0.5" fill="rgba(24, 92, 246, 0.04)" />
</svg>