<svg width="15" height="15" viewBox="0 0 22 22" fill="none" xmlns="http://www.w3.org/2000/svg">
<path d="M22 11L19.56 8.21L19.9 4.52L16.29 3.7L14.4 0.5L11 1.96L7.6 0.5L5.71 3.69L2.1 4.5L2.44 8.2L0 11L2.44 13.79L2.1 17.49L5.71 18.31L7.6 21.5L11 20.03L14.4 21.49L16.29 18.3L19.9 17.48L19.56 13.79L22 11ZM8.38 15.01L6 12.61C5.61 12.22 5.61 11.59 6 11.2L6.07 11.13C6.46 10.74 7.1 10.74 7.49 11.13L9.1 12.75L14.25 7.59C14.64 7.2 15.28 7.2 15.67 7.59L15.74 7.66C16.13 8.05 16.13 8.68 15.74 9.07L9.82 15.01C9.41 15.4 8.78 15.4 8.38 15.01Z" fill="#51D36E"/>
</svg>
