<svg width="16" height="16" viewBox="0 0 16 16" fill="none" xmlns="http://www.w3.org/2000/svg">
<g id="view">
<path id="Vector" d="M14.3626 7.3635C14.5653 7.6477 14.6666 7.78983 14.6666 8.00016C14.6666 8.2105 14.5653 8.35263 14.3626 8.63683C13.4519 9.9139 11.1261 12.6668 7.99992 12.6668C4.87377 12.6668 2.54799 9.9139 1.63728 8.63683C1.43459 8.35263 1.33325 8.2105 1.33325 8.00016C1.33325 7.78983 1.43459 7.6477 1.63728 7.3635C2.54799 6.08646 4.87377 3.3335 7.99992 3.3335C11.1261 3.3335 13.4519 6.08646 14.3626 7.3635Z" stroke="#485F7D"/>
<path id="Vector_2" d="M10 8C10 6.8954 9.1046 6 8 6C6.8954 6 6 6.8954 6 8C6 9.1046 6.8954 10 8 10C9.1046 10 10 9.1046 10 8Z" stroke="#485F7D"/>
</g>
</svg>
