<svg width="16" height="17" viewBox="0 0 16 17" xmlns="http://www.w3.org/2000/svg">
<path d="M1.72526 16.3333C1.26693 16.3333 0.874566 16.1701 0.548177 15.8437C0.221788 15.5173 0.0585938 15.125 0.0585938 14.6666V10.875L2.35026 8.27081L3.53776 9.45831L1.87109 11.3333H13.2461L11.6211 9.49997L12.8086 8.31247L15.0586 10.875V14.6666C15.0586 15.125 14.8954 15.5173 14.569 15.8437C14.2426 16.1701 13.8503 16.3333 13.3919 16.3333H1.72526ZM1.72526 14.6666H13.3919V13H1.72526V14.6666ZM6.41276 9.97914L3.47526 7.04164C3.15582 6.72219 2.99957 6.32983 3.00651 5.86456C3.01345 5.39928 3.17665 5.00692 3.49609 4.68747L7.57943 0.60414C7.89887 0.284695 8.29471 0.118028 8.76693 0.10414C9.23915 0.0902507 9.63498 0.243028 9.95443 0.562473L12.8919 3.49997C13.2114 3.81942 13.378 4.20831 13.3919 4.66664C13.4058 5.12497 13.253 5.51386 12.9336 5.83331L8.76693 9.99997C8.44748 10.3194 8.05512 10.4757 7.58984 10.4687C7.12457 10.4618 6.7322 10.2986 6.41276 9.97914ZM11.7253 4.68747L8.78776 1.74997L4.66276 5.87497L7.60026 8.81247L11.7253 4.68747Z"/>
</svg>
