<svg width="24" height="24" viewBox="0 0 24 24" fill="none" xmlns="http://www.w3.org/2000/svg">
<path d="M8.49614 12.2298L4.85945 9.68421C4.77214 9.62303 4.71268 9.52972 4.69412 9.42474C4.67556 9.31976 4.69942 9.21171 4.76046 9.12431L7.4748 5.24759C7.50496 5.20427 7.54336 5.16734 7.58781 5.13889C7.63226 5.11044 7.68188 5.09104 7.73384 5.08179C7.7858 5.07255 7.83907 5.07364 7.89061 5.08501C7.94214 5.09638 7.99093 5.11781 8.03417 5.14806L11.6725 7.69316C11.7599 7.75435 11.8195 7.84772 11.8381 7.95279C11.8568 8.05786 11.833 8.16604 11.772 8.25359L9.05764 12.1308C9.02734 12.1743 8.98876 12.2113 8.94411 12.2398C8.89946 12.2684 8.84962 12.2878 8.79745 12.297C8.74528 12.3062 8.69181 12.305 8.6401 12.2934C8.5884 12.2819 8.53947 12.2603 8.49614 12.2298Z" fill="#E5007A"/>
<path d="M10.6639 10.6007C10.8672 10.308 11.0673 10.0206 11.2722 9.72679C11.3182 9.65885 11.3886 9.61123 11.4688 9.59379C11.5489 9.57635 11.6327 9.59043 11.7028 9.63311H11.7055C14.572 11.4594 17.4379 13.2867 20.303 15.115C21.1013 15.6249 21.236 16.634 20.592 17.2322C20.1087 17.6814 19.4041 17.6931 18.8224 17.2482C16.9897 15.8463 15.1589 14.4423 13.3298 13.0362L10.7341 11.0472C10.6672 10.9962 10.6224 10.9213 10.6094 10.8381C10.5963 10.7549 10.6158 10.6698 10.6639 10.6007Z" fill="#E5007A"/>
<path d="M12.3079 19.6464H3.46981C3.42723 18.7384 4.20428 17.9156 5.17293 17.9028C6.98462 17.8801 8.79649 17.8801 10.6085 17.9028C11.5687 17.9161 12.3585 18.7538 12.3079 19.6464Z" fill="#E5007A"/>
<path d="M13.4235 7.04917C13.3648 7.13849 13.2848 7.21176 13.1906 7.26232C13.0965 7.31288 12.9912 7.33913 12.8843 7.3387C12.6853 7.33142 12.4933 7.26345 12.334 7.1439C11.6819 6.69045 11.0306 6.2361 10.3802 5.78087C9.69223 5.29974 9.00335 4.81897 8.31359 4.33855C7.83459 4.00644 7.90058 3.65411 7.98148 3.47421C8.04564 3.34786 8.13643 3.23691 8.24759 3.14902C8.35632 3.053 8.49638 3.00001 8.64144 3C8.72121 2.99982 8.80017 3.01594 8.87349 3.04737C8.96207 3.08278 9.04678 3.12718 9.12629 3.17989C10.3914 4.0586 11.7055 4.97775 13.1446 5.99004C13.5608 6.2817 13.6699 6.69736 13.4235 7.04917Z" fill="#E5007A"/>
<path d="M8.50945 14.1155C8.45533 14.1961 8.38459 14.2643 8.30197 14.3153C8.21936 14.3664 8.12677 14.3991 8.03044 14.4114C8.00239 14.4151 7.97412 14.4169 7.94582 14.4167C7.76768 14.4126 7.59517 14.3535 7.45192 14.2475C6.63016 13.6743 5.79617 13.0894 4.98985 12.5231C4.44378 12.1395 3.89701 11.756 3.34953 11.3724C3.02487 11.1457 2.91843 10.8296 3.06373 10.5267C3.116 10.4259 3.18847 10.337 3.27662 10.2654C3.39632 10.1605 3.5476 10.0986 3.70648 10.0895C3.86536 10.0803 4.02276 10.1244 4.15372 10.2148L4.18725 10.2377C5.53963 11.1776 6.91064 12.1356 8.26196 13.0857C8.65581 13.3619 8.75267 13.7664 8.50945 14.1155Z" fill="#E5007A"/>
</svg>
