<svg width="14" height="18" viewBox="0 0 14 18" fill="none" xmlns="http://www.w3.org/2000/svg">
<path d="M12.0514 8.61882H11.1907V4.22848C11.1708 3.10022 10.7087 2.02488 9.90376 1.23401C9.09884 0.443144 8.01553 0 6.88709 0C5.75866 0 4.67535 0.443144 3.87043 1.23401C3.06551 2.02488 2.60336 3.10022 2.58349 4.22848V8.61882H1.72144C1.26532 8.62023 0.828281 8.80205 0.505753 9.12457C0.183225 9.4471 0.00140779 9.88414 0 10.3403L0 16.2786C0.00140779 16.7347 0.183225 17.1717 0.505753 17.4942C0.828281 17.8168 1.26532 17.9986 1.72144 18H12.0514C12.5077 17.9988 12.9449 17.817 13.2675 17.4945C13.5902 17.1719 13.7721 16.7348 13.7735 16.2786V10.3403C13.7721 9.88402 13.5902 9.44689 13.2675 9.12434C12.9449 8.80179 12.5077 8.62005 12.0514 8.61882ZM7.07725 14.9474C6.77561 14.9874 6.46904 14.9317 6.20062 14.7884C5.93221 14.6451 5.71544 14.4213 5.58078 14.1485C5.44612 13.8756 5.40033 13.5674 5.44985 13.2672C5.49937 12.967 5.6417 12.6898 5.85686 12.4747C6.07201 12.2595 6.34917 12.1172 6.64939 12.0677C6.94961 12.0181 7.2578 12.0639 7.53065 12.1986C7.8035 12.3333 8.02731 12.55 8.17062 12.8184C8.31393 13.0869 8.36954 13.3934 8.32963 13.6951C8.28721 14.0123 8.14162 14.3068 7.9153 14.5331C7.68898 14.7594 7.3945 14.905 7.07725 14.9474ZM4.30427 8.61882V4.22848C4.29876 3.88585 4.36149 3.54555 4.4888 3.2274C4.61611 2.90925 4.80546 2.61962 5.04581 2.37537C5.28616 2.13112 5.57271 1.93715 5.88877 1.80474C6.20484 1.67233 6.54409 1.60414 6.88676 1.60414C7.22943 1.60414 7.56869 1.67233 7.88475 1.80474C8.20081 1.93715 8.48736 2.13112 8.72771 2.37537C8.96807 2.61962 9.15741 2.90925 9.28472 3.2274C9.41203 3.54555 9.47476 3.88585 9.46925 4.22848V8.61882H4.30427Z" fill="#FFA300"/>
</svg>
