<svg viewBox="0 0 40 44" fill="none" xmlns="http://www.w3.org/2000/svg">
<path d="M10.8713 9.69031C10.7155 13.7748 9.05785 17.0236 5.70484 19.3382C5.03896 19.7983 4.34474 20.1504 3.53719 20.2396C1.88902 20.418 0.595037 19.5166 0.19362 17.8828C-0.108623 16.6528 -0.0330622 15.4274 0.255013 14.1974C0.8595 11.6246 2.09209 9.44149 4.09917 7.74665C4.94923 7.02834 5.83235 6.34289 6.9327 6.0612C8.79338 5.59172 10.5596 6.83585 10.8099 8.76543C10.8477 9.07059 10.8855 9.37576 10.8713 9.69031Z" fill="#F796C9"/>
<path d="M19.9012 34.2344C21.7382 34.2578 23.4242 34.5301 24.9874 35.3424C25.7571 35.7414 26.4797 36.2109 27.0181 36.9245C27.9862 38.2203 27.9106 39.732 26.7866 40.8917C25.7005 42.0137 24.3451 42.6522 22.8669 43.0278C21.5163 43.3705 20.1467 43.394 18.763 43.2438C17.6249 43.1217 16.5057 42.9198 15.4478 42.4456C14.645 42.0841 13.913 41.6194 13.2943 40.9809C11.9437 39.5912 12.0145 37.7086 13.4549 36.4175C14.7583 35.2532 16.2931 34.6334 17.9885 34.3799C18.6591 34.2813 19.3297 34.2485 19.9012 34.2344Z" fill="#F796C9"/>
<path d="M0.0136869 27.2064C-0.00992585 26.3379 0.0892477 25.5069 0.481219 24.7323C1.10932 23.474 2.28996 22.8825 3.65005 23.1736C5.22266 23.5163 6.53553 24.3473 7.59338 25.5492C9.07154 27.2299 10.153 29.1501 10.6583 31.3708C10.9417 32.6196 10.97 33.8731 10.63 35.1172C10.1388 36.9107 8.59456 37.7698 6.85194 37.2111C5.24627 36.6947 3.91924 35.7323 2.86138 34.4083C1.49657 32.6994 0.580393 30.7651 0.108138 28.6149C0.00424181 28.1454 -0.0052033 27.6665 0.0136869 27.2064Z" fill="#F796C9"/>
<path d="M19.9205 0C21.8804 0.00938967 23.7269 0.497653 25.4648 1.40376C26.2676 1.8216 26.9099 2.4554 27.3396 3.277C27.9489 4.44131 27.7269 5.75117 26.7399 6.76995C25.8898 7.64789 24.8414 8.20657 23.7033 8.55399C20.9028 9.40376 18.1165 9.3615 15.3963 8.19718C14.5274 7.82629 13.7245 7.33333 13.1106 6.57746C11.9111 5.09859 12.1189 3.15493 13.6348 2.01878C14.976 1.01408 16.5108 0.446009 18.1448 0.150235C18.7304 0.0422535 19.3255 0 19.9205 0Z" fill="#F796C9"/>
<path d="M29.1241 33.6338C29.228 30.216 30.489 27.3333 32.9966 25.0329C33.7617 24.3333 34.5503 23.6761 35.5657 23.3615C36.3119 23.1315 37.0627 22.9437 37.8325 23.2301C39.1171 23.7089 39.7168 24.7371 39.9246 26.047C40.1655 27.5446 39.8113 28.9765 39.3626 30.3756C38.4653 33.1737 36.7322 35.3052 34.2434 36.7887C33.3886 37.3005 32.4724 37.5775 31.4712 37.2958C30.2434 36.9484 29.3508 35.8732 29.1855 34.554C29.1478 34.2488 29.11 33.9437 29.1241 33.6291V33.6338Z" fill="#F796C9"/>
<path d="M39.9913 16.1693C39.9771 17.0285 39.9299 17.8876 39.4954 18.6529C38.9806 19.5543 38.2487 20.2444 37.1814 20.2444C36.1377 20.2444 35.1365 19.9768 34.2392 19.3336C32.7516 18.2679 31.5426 16.9627 30.6595 15.343C29.7056 13.6012 29.0869 11.7609 29.1247 9.73269C29.1389 8.96743 29.2664 8.22565 29.63 7.54959C30.3431 6.22096 31.7315 5.65758 33.153 6.13175C34.6831 6.6388 35.9677 7.5449 37.0019 8.79373C38.3998 10.4839 39.3585 12.4087 39.8354 14.5684C39.9488 15.0942 40.0054 15.6294 39.9913 16.1693Z" fill="#F796C9"/>
</svg>
