<svg width="18" height="18" viewBox="0 0 18 18" fill="none" xmlns="http://www.w3.org/2000/svg">
<path d="M4.85 15.3H6.1V13.1H8.3V11.85H6.1V9.65H4.85V11.85H2.65V13.1H4.85V15.3ZM10.225 14.425H15.25V13.2H10.225V14.425ZM10.225 11.75H15.25V10.5H10.225V11.75ZM11.15 7.675L12.675 6.15L14.2 7.675L15.1 6.775L13.575 5.25L15.1 3.725L14.2 2.825L12.675 4.35L11.15 2.825L10.25 3.725L11.775 5.25L10.25 6.775L11.15 7.675ZM3.025 5.875H7.925V4.625H3.025V5.875ZM1.5 18C1.1 18 0.75 17.85 0.45 17.55C0.15 17.25 0 16.9 0 16.5V1.5C0 1.1 0.15 0.75 0.45 0.45C0.75 0.15 1.1 0 1.5 0H16.5C16.9 0 17.25 0.15 17.55 0.45C17.85 0.75 18 1.1 18 1.5V16.5C18 16.9 17.85 17.25 17.55 17.55C17.25 17.85 16.9 18 16.5 18H1.5ZM1.5 16.5H16.5V1.5H1.5V16.5Z" fill="#E5007A"/>
</svg>
