<svg width="14" height="14" viewBox="0 0 14 14" fill="none" xmlns="http://www.w3.org/2000/svg">
<path d="M2.625 12.8338C2.39167 12.8338 2.1875 12.7463 2.0125 12.5713C1.8375 12.3963 1.75 12.1921 1.75 11.9588V9.07128L3.71875 6.89837L4.34583 7.52545L2.625 9.4067H11.375L9.75625 7.5692L10.3833 6.94212L12.25 9.07128V11.9588C12.25 12.1921 12.1625 12.3963 11.9875 12.5713C11.8125 12.7463 11.6083 12.8338 11.375 12.8338H2.625ZM2.625 11.9588H11.375V10.2817H2.625V11.9588ZM6.44583 8.38587L4.12708 6.06712C3.94236 5.8824 3.85972 5.6758 3.87917 5.44733C3.89861 5.21885 3.99583 5.01712 4.17083 4.84212L7.2625 1.75045C7.42714 1.58945 7.63114 1.50545 7.87452 1.49845C8.11789 1.49145 8.32708 1.57545 8.50208 1.75045L10.8208 4.0692C10.9861 4.23448 11.0712 4.43135 11.076 4.65983C11.0809 4.8883 10.9861 5.09976 10.7917 5.2942L7.7 8.38587C7.53472 8.55115 7.33056 8.63865 7.0875 8.64837C6.84444 8.65809 6.63056 8.57059 6.44583 8.38587ZM10.0771 4.63795L7.88958 2.45045L4.85625 5.48378L7.04375 7.67128L10.0771 4.63795Z" fill="#576D8B" fill-opacity="0.8"/>
</svg>
