<svg width="24" height="24" viewBox="0 0 24 24" fill="none" xmlns="http://www.w3.org/2000/svg">
<path d="M8.025 20C7.625 20 7.275 19.85 6.975 19.55C6.675 19.25 6.525 18.9 6.525 18.5V16H9.625V12.825C8.99167 12.875 8.35833 12.7875 7.725 12.5625C7.09167 12.3375 6.525 11.9833 6.025 11.5V10.05H4.775L1.5 6.775C2.1 6.20833 2.81667 5.74583 3.65 5.3875C4.48333 5.02917 5.33333 4.85 6.2 4.85C6.7 4.85 7.27083 4.92917 7.9125 5.0875C8.55417 5.24583 9.125 5.5 9.625 5.85V4H21V17.375C21 18.1083 20.7458 18.7292 20.2375 19.2375C19.7292 19.7458 19.1083 20 18.375 20H8.025ZM11.125 16H17.25V17.375C17.25 17.7083 17.3542 17.9792 17.5625 18.1875C17.7708 18.3958 18.0417 18.5 18.375 18.5C18.7083 18.5 18.9792 18.3958 19.1875 18.1875C19.3958 17.9792 19.5 17.7083 19.5 17.375V5.5H11.125V6.925L17.15 12.95V14.025H16.075L12.925 10.875L12.5 11.375C12.2833 11.625 12.0667 11.8167 11.85 11.95C11.6333 12.0833 11.3917 12.2083 11.125 12.325V16ZM5.45 8.55H7.525V10.775C7.80833 10.9583 8.0875 11.0958 8.3625 11.1875C8.6375 11.2792 8.91667 11.325 9.2 11.325C9.61667 11.325 10.0417 11.2125 10.475 10.9875C10.9083 10.7625 11.225 10.5333 11.425 10.3L11.85 9.8L10.125 8.075C9.59167 7.54167 8.99167 7.12083 8.325 6.8125C7.65833 6.50417 6.95 6.35 6.2 6.35C5.75 6.35 5.34167 6.40417 4.975 6.5125C4.60833 6.62083 4.23333 6.76667 3.85 6.95L5.45 8.55ZM15.75 17.5H8.025V18.5H16.1C16 18.4 15.9167 18.2625 15.85 18.0875C15.7833 17.9125 15.75 17.7167 15.75 17.5Z" />
</svg>
