<svg viewBox="0 0 15 12" fill="none" xmlns="http://www.w3.org/2000/svg">
<path d="M5.01875 12C4.71875 12 4.45625 11.8875 4.23125 11.6625C4.00625 11.4375 3.89375 11.175 3.89375 10.875V9H6.21875V6.61875C5.74375 6.65625 5.26875 6.59063 4.79375 6.42188C4.31875 6.25313 3.89375 5.9875 3.51875 5.625V4.5375H2.58125L0.125 2.08125C0.575 1.65625 1.1125 1.30938 1.7375 1.04063C2.3625 0.771875 3 0.6375 3.65 0.6375C4.025 0.6375 4.45312 0.696875 4.93438 0.815625C5.41563 0.934375 5.84375 1.125 6.21875 1.3875V0H14.75V10.0312C14.75 10.5813 14.5594 11.0469 14.1781 11.4281C13.7969 11.8094 13.3313 12 12.7813 12H5.01875ZM7.34375 9H11.9375V10.0312C11.9375 10.2812 12.0156 10.4844 12.1719 10.6406C12.3281 10.7969 12.5313 10.875 12.7813 10.875C13.0313 10.875 13.2344 10.7969 13.3906 10.6406C13.5469 10.4844 13.625 10.2812 13.625 10.0312V1.125H7.34375V2.19375L11.8625 6.7125V7.51875H11.0563L8.69375 5.15625L8.375 5.53125C8.2125 5.71875 8.05 5.8625 7.8875 5.9625C7.725 6.0625 7.54375 6.15625 7.34375 6.24375V9ZM3.0875 3.4125H4.64375V5.08125C4.85625 5.21875 5.06563 5.32188 5.27188 5.39062C5.47813 5.45938 5.6875 5.49375 5.9 5.49375C6.2125 5.49375 6.53125 5.40938 6.85625 5.24063C7.18125 5.07188 7.41875 4.9 7.56875 4.725L7.8875 4.35L6.59375 3.05625C6.19375 2.65625 5.74375 2.34063 5.24375 2.10938C4.74375 1.87813 4.2125 1.7625 3.65 1.7625C3.3125 1.7625 3.00625 1.80313 2.73125 1.88438C2.45625 1.96563 2.175 2.075 1.8875 2.2125L3.0875 3.4125ZM10.8125 10.125H5.01875V10.875H11.075C11 10.8 10.9375 10.6969 10.8875 10.5656C10.8375 10.4344 10.8125 10.2875 10.8125 10.125Z"/>
</svg>
