<svg width="20" height="16" viewBox="0 0 20 16" fill="none" xmlns="http://www.w3.org/2000/svg">
<path d="M7.025 16C6.625 16 6.275 15.85 5.975 15.55C5.675 15.25 5.525 14.9 5.525 14.5V12H8.625V8.825C7.99167 8.875 7.35833 8.7875 6.725 8.5625C6.09167 8.3375 5.525 7.98333 5.025 7.5V6.05H3.775L0.5 2.775C1.1 2.20833 1.81667 1.74583 2.65 1.3875C3.48333 1.02917 4.33333 0.85 5.2 0.85C5.7 0.85 6.27083 0.929167 6.9125 1.0875C7.55417 1.24583 8.125 1.5 8.625 1.85V0H20V13.375C20 14.1083 19.7458 14.7292 19.2375 15.2375C18.7292 15.7458 18.1083 16 17.375 16H7.025ZM10.125 12H16.25V13.375C16.25 13.7083 16.3542 13.9792 16.5625 14.1875C16.7708 14.3958 17.0417 14.5 17.375 14.5C17.7083 14.5 17.9792 14.3958 18.1875 14.1875C18.3958 13.9792 18.5 13.7083 18.5 13.375V1.5H10.125V2.925L16.15 8.95V10.025H15.075L11.925 6.875L11.5 7.375C11.2833 7.625 11.0667 7.81667 10.85 7.95C10.6333 8.08333 10.3917 8.20833 10.125 8.325V12ZM4.45 4.55H6.525V6.775C6.80833 6.95833 7.0875 7.09583 7.3625 7.1875C7.6375 7.27917 7.91667 7.325 8.2 7.325C8.61667 7.325 9.04167 7.2125 9.475 6.9875C9.90833 6.7625 10.225 6.53333 10.425 6.3L10.85 5.8L9.125 4.075C8.59167 3.54167 7.99167 3.12083 7.325 2.8125C6.65833 2.50417 5.95 2.35 5.2 2.35C4.75 2.35 4.34167 2.40417 3.975 2.5125C3.60833 2.62083 3.23333 2.76667 2.85 2.95L4.45 4.55ZM14.75 13.5H7.025V14.5H15.1C15 14.4 14.9167 14.2625 14.85 14.0875C14.7833 13.9125 14.75 13.7167 14.75 13.5Z" fill="#243A57"/>
</svg>
