<svg width="24" height="24" viewBox="0 0 24 24" fill="none" xmlns="http://www.w3.org/2000/svg">
<rect width="24" height="24" rx="6" fill="#272525"/>
<path d="M16.5238 8.51964V7.26788C16.5238 7.04137 16.4523 6.82679 16.3331 6.63604C16.2139 6.4453 16.0351 6.30224 15.8205 6.21879L8 3V3.69144L14.9621 6.55259C15.0337 6.58836 15.0933 6.63605 15.1171 6.70757C15.141 6.7791 15.141 6.86255 15.1171 6.93408C15.1052 6.96985 15.0813 7.00561 15.0575 7.02945C15.0337 7.0533 14.9979 7.07714 14.9621 7.08906L8 9.96213V12.7756L12.1964 11.047L14.9502 12.1795C14.986 12.1914 15.0217 12.2153 15.0456 12.2391C15.0694 12.263 15.0933 12.2987 15.1052 12.3345C15.1171 12.3703 15.129 12.406 15.129 12.4418C15.129 12.4776 15.1171 12.5133 15.1052 12.5491C15.0933 12.5849 15.0694 12.6206 15.0456 12.6445C15.0217 12.6683 14.986 12.6921 14.9502 12.7041L8 15.5652V20L15.8086 16.7931C16.0112 16.7097 16.19 16.5666 16.3212 16.3759C16.4404 16.1851 16.5119 15.9705 16.5119 15.744V12.859C16.5119 12.6325 16.4404 12.418 16.3212 12.2272C16.202 12.0365 16.0231 11.8934 15.8086 11.81L13.0428 10.6655L15.8086 9.53296C16.0231 9.44951 16.202 9.30645 16.3212 9.12763C16.4642 8.96073 16.5238 8.74614 16.5238 8.51964Z" fill="white"/>
</svg>
