<svg viewBox="0 0 20 21" fill="none" xmlns="http://www.w3.org/2000/svg">
<path d="M9.25 9.775H10.75V3.5H9.25V9.775ZM9.99955 13.325C10.2332 13.325 10.4292 13.246 10.5875 13.088C10.7458 12.9299 10.825 12.7341 10.825 12.5005C10.825 12.2668 10.746 12.0708 10.588 11.9125C10.4299 11.7542 10.2341 11.675 10.0005 11.675C9.76682 11.675 9.57083 11.754 9.4125 11.9121C9.25417 12.0701 9.175 12.2659 9.175 12.4995C9.175 12.7332 9.25402 12.9292 9.41205 13.0875C9.5701 13.2458 9.76593 13.325 9.99955 13.325ZM0 20.5V2C0 1.61667 0.15 1.27083 0.45 0.9625C0.75 0.654167 1.1 0.5 1.5 0.5H18.5C18.8833 0.5 19.2292 0.654167 19.5375 0.9625C19.8458 1.27083 20 1.61667 20 2V15C20 15.3833 19.8458 15.7292 19.5375 16.0375C19.2292 16.3458 18.8833 16.5 18.5 16.5H4L0 20.5ZM1.5 16.875L3.375 15H18.5V2H1.5V16.875Z" />
</svg>
