<svg width="40" height="41" viewBox="0 0 40 41" fill="none" xmlns="http://www.w3.org/2000/svg">
<rect y="0.693359" width="40" height="40" rx="9" fill="#222222"/>
<path d="M20 30.6934C18.6 30.6934 17.2917 30.4309 16.075 29.9059C14.8583 29.3809 13.8 28.6684 12.9 27.7684C12 26.8684 11.2917 25.8059 10.775 24.5809C10.2583 23.3559 10 22.0434 10 20.6434C10 19.2434 10.2583 17.9392 10.775 16.7309C11.2917 15.5225 12 14.4684 12.9 13.5684C13.8 12.6684 14.8583 11.9642 16.075 11.4559C17.2917 10.9475 18.6 10.6934 20 10.6934C21.4 10.6934 22.7083 10.9475 23.925 11.4559C25.1417 11.9642 26.2 12.6684 27.1 13.5684C28 14.4684 28.7083 15.5225 29.225 16.7309C29.7417 17.9392 30 19.2434 30 20.6434C30 22.0434 29.7417 23.3559 29.225 24.5809C28.7083 25.8059 28 26.8684 27.1 27.7684C26.2 28.6684 25.1417 29.3809 23.925 29.9059C22.7083 30.4309 21.4 30.6934 20 30.6934ZM20 29.2434C20.5833 28.6434 21.0708 27.9559 21.4625 27.1809C21.8542 26.4059 22.175 25.485 22.425 24.4184H17.6C17.8333 25.4184 18.1458 26.3184 18.5375 27.1184C18.9292 27.9184 19.4167 28.6267 20 29.2434ZM17.875 28.9434C17.4583 28.31 17.1 27.6267 16.8 26.8934C16.5 26.16 16.25 25.335 16.05 24.4184H12.3C12.9333 25.6017 13.6667 26.5309 14.5 27.2059C15.3333 27.8809 16.4583 28.46 17.875 28.9434ZM22.15 28.9184C23.35 28.535 24.4292 27.96 25.3875 27.1934C26.3458 26.4267 27.1167 25.5017 27.7 24.4184H23.975C23.7583 25.3184 23.5042 26.135 23.2125 26.8684C22.9208 27.6017 22.5667 28.285 22.15 28.9184ZM11.8 22.9184H15.775C15.725 22.4684 15.6958 22.0642 15.6875 21.7059C15.6792 21.3475 15.675 20.9934 15.675 20.6434C15.675 20.2267 15.6833 19.8559 15.7 19.5309C15.7167 19.2059 15.75 18.8434 15.8 18.4434H11.8C11.6833 18.8434 11.6042 19.2017 11.5625 19.5184C11.5208 19.835 11.5 20.21 11.5 20.6434C11.5 21.0767 11.5208 21.4642 11.5625 21.8059C11.6042 22.1475 11.6833 22.5184 11.8 22.9184ZM17.325 22.9184H22.7C22.7667 22.4017 22.8083 21.9809 22.825 21.6559C22.8417 21.3309 22.85 20.9934 22.85 20.6434C22.85 20.31 22.8417 19.9892 22.825 19.6809C22.8083 19.3725 22.7667 18.96 22.7 18.4434H17.325C17.2583 18.96 17.2167 19.3725 17.2 19.6809C17.1833 19.9892 17.175 20.31 17.175 20.6434C17.175 20.9934 17.1833 21.3309 17.2 21.6559C17.2167 21.9809 17.2583 22.4017 17.325 22.9184ZM24.2 22.9184H28.2C28.3167 22.5184 28.3958 22.1475 28.4375 21.8059C28.4792 21.4642 28.5 21.0767 28.5 20.6434C28.5 20.21 28.4792 19.835 28.4375 19.5184C28.3958 19.2017 28.3167 18.8434 28.2 18.4434H24.225C24.275 19.0267 24.3083 19.4725 24.325 19.7809C24.3417 20.0892 24.35 20.3767 24.35 20.6434C24.35 21.01 24.3375 21.3559 24.3125 21.6809C24.2875 22.0059 24.25 22.4184 24.2 22.9184ZM23.95 16.9434H27.7C27.15 15.7934 26.3958 14.835 25.4375 14.0684C24.4792 13.3017 23.375 12.76 22.125 12.4434C22.5417 13.06 22.8958 13.7267 23.1875 14.4434C23.4792 15.16 23.7333 15.9934 23.95 16.9434ZM17.6 16.9434H22.45C22.2667 16.06 21.9583 15.2059 21.525 14.3809C21.0917 13.5559 20.5833 12.8267 20 12.1934C19.4667 12.6434 19.0167 13.235 18.65 13.9684C18.2833 14.7017 17.9333 15.6934 17.6 16.9434ZM12.3 16.9434H16.075C16.2583 16.0434 16.4917 15.2392 16.775 14.5309C17.0583 13.8225 17.4167 13.135 17.85 12.4684C16.6 12.785 15.5083 13.3184 14.575 14.0684C13.6417 14.8184 12.8833 15.7767 12.3 16.9434Z" fill="#595959"/>
</svg>
