<svg width="20" height="20" viewBox="0 0 20 20" fill="none" xmlns="http://www.w3.org/2000/svg">
<rect width="20" height="20" rx="4" fill="#222222"/>
<path d="M10.4987 16.6673C9.56536 16.6673 8.69314 16.4923 7.88203 16.1423C7.07092 15.7923 6.36536 15.3173 5.76536 14.7173C5.16536 14.1173 4.69314 13.409 4.3487 12.5923C4.00425 11.7757 3.83203 10.9007 3.83203 9.96732C3.83203 9.03398 4.00425 8.16454 4.3487 7.35898C4.69314 6.55343 5.16536 5.85065 5.76536 5.25065C6.36536 4.65065 7.07092 4.18121 7.88203 3.84232C8.69314 3.50343 9.56536 3.33398 10.4987 3.33398C11.432 3.33398 12.3043 3.50343 13.1154 3.84232C13.9265 4.18121 14.632 4.65065 15.232 5.25065C15.832 5.85065 16.3043 6.55343 16.6487 7.35898C16.9931 8.16454 17.1654 9.03398 17.1654 9.96732C17.1654 10.9007 16.9931 11.7757 16.6487 12.5923C16.3043 13.409 15.832 14.1173 15.232 14.7173C14.632 15.3173 13.9265 15.7923 13.1154 16.1423C12.3043 16.4923 11.432 16.6673 10.4987 16.6673ZM10.4987 15.7007C10.8876 15.3007 11.2126 14.8423 11.4737 14.3257C11.7348 13.809 11.9487 13.1951 12.1154 12.484H8.8987C9.05425 13.1507 9.26259 13.7507 9.5237 14.284C9.78481 14.8173 10.1098 15.2895 10.4987 15.7007ZM9.08203 15.5007C8.80425 15.0784 8.56536 14.6229 8.36536 14.134C8.16536 13.6451 7.9987 13.0951 7.86536 12.484H5.36536C5.78759 13.2729 6.27648 13.8923 6.83203 14.3423C7.38759 14.7923 8.13759 15.1784 9.08203 15.5007ZM11.932 15.484C12.732 15.2284 13.4515 14.8451 14.0904 14.334C14.7293 13.8229 15.2431 13.2062 15.632 12.484H13.1487C13.0043 13.084 12.8348 13.6284 12.6404 14.1173C12.4459 14.6062 12.2098 15.0618 11.932 15.484ZM5.03203 11.484H7.68203C7.6487 11.184 7.62925 10.9145 7.6237 10.6757C7.61814 10.4368 7.61536 10.2007 7.61536 9.96732C7.61536 9.68954 7.62092 9.44232 7.63203 9.22565C7.64314 9.00898 7.66536 8.76732 7.6987 8.50065H5.03203C4.95425 8.76732 4.90148 9.00621 4.8737 9.21732C4.84592 9.42843 4.83203 9.67843 4.83203 9.96732C4.83203 10.2562 4.84592 10.5145 4.8737 10.7423C4.90148 10.9701 4.95425 11.2173 5.03203 11.484ZM8.71536 11.484H12.2987C12.3431 11.1395 12.3709 10.859 12.382 10.6423C12.3931 10.4257 12.3987 10.2007 12.3987 9.96732C12.3987 9.7451 12.3931 9.53121 12.382 9.32565C12.3709 9.1201 12.3431 8.8451 12.2987 8.50065H8.71536C8.67092 8.8451 8.64314 9.1201 8.63203 9.32565C8.62092 9.53121 8.61536 9.7451 8.61536 9.96732C8.61536 10.2007 8.62092 10.4257 8.63203 10.6423C8.64314 10.859 8.67092 11.1395 8.71536 11.484ZM13.2987 11.484H15.9654C16.0431 11.2173 16.0959 10.9701 16.1237 10.7423C16.1515 10.5145 16.1654 10.2562 16.1654 9.96732C16.1654 9.67843 16.1515 9.42843 16.1237 9.21732C16.0959 9.00621 16.0431 8.76732 15.9654 8.50065H13.3154C13.3487 8.88954 13.3709 9.18676 13.382 9.39232C13.3931 9.59787 13.3987 9.78954 13.3987 9.96732C13.3987 10.2118 13.3904 10.4423 13.3737 10.659C13.357 10.8757 13.332 11.1507 13.2987 11.484ZM13.132 7.50065H15.632C15.2654 6.73398 14.7626 6.0951 14.1237 5.58398C13.4848 5.07287 12.7487 4.71176 11.9154 4.50065C12.1931 4.91176 12.4293 5.35621 12.6237 5.83398C12.8181 6.31176 12.9876 6.86732 13.132 7.50065ZM8.8987 7.50065H12.132C12.0098 6.91176 11.8043 6.34232 11.5154 5.79232C11.2265 5.24232 10.8876 4.75621 10.4987 4.33398C10.1431 4.63398 9.84314 5.02843 9.5987 5.51732C9.35425 6.00621 9.12092 6.66732 8.8987 7.50065ZM5.36536 7.50065H7.88203C8.00425 6.90065 8.15981 6.36454 8.3487 5.89232C8.53759 5.4201 8.77648 4.96176 9.06536 4.51732C8.23203 4.72843 7.50425 5.08398 6.88203 5.58398C6.25981 6.08398 5.75425 6.72287 5.36536 7.50065Z" fill="#595959"/>
</svg>
