<svg viewBox="0 0 24 25" fill="none" xmlns="http://www.w3.org/2000/svg">
<path d="M9.88181 22.6576H9.8747C7.82721 22.1293 6.10151 21.078 4.66678 19.4996C4.89434 19.4168 5.10295 19.3304 5.31866 19.263C5.93972 19.0725 6.56316 18.8885 7.18718 18.7063C7.41534 18.6394 7.41771 18.6442 7.4989 18.8613C7.87284 19.867 8.34871 20.8136 9.00356 21.6714C9.26599 22.0152 9.56175 22.3322 9.88656 22.618L9.8913 22.6221C9.92152 22.6417 9.92152 22.6641 9.88181 22.6576Z" fill="#576D8B"/>
<path d="M23 12.8499C22.9852 13.0866 22.9781 13.3185 22.9544 13.5492C22.7609 15.4781 22.0376 17.3161 20.8642 18.8607C20.8567 18.8752 20.8463 18.8879 20.8336 18.8982C20.8209 18.9085 20.8062 18.916 20.7905 18.9203C20.7747 18.9247 20.7582 18.9257 20.7421 18.9234C20.7259 18.9211 20.7104 18.9154 20.6965 18.9068C19.7693 18.5442 18.819 18.2434 17.8519 18.0064L17.7927 17.9898C18.2922 16.3132 18.5281 14.6011 18.5631 12.8511L23 12.8499Z" fill="#576D8B"/>
<path d="M17.5787 18.6513C18.5136 18.8732 19.4324 19.1576 20.3291 19.5026C18.9805 21.0116 17.2212 22.0963 15.2657 22.6245C15.2545 22.6277 15.2425 22.627 15.2317 22.6225C15.2209 22.6181 15.2119 22.6101 15.2061 22.6C15.2004 22.5898 15.1982 22.578 15.2 22.5665C15.2018 22.5549 15.2074 22.5443 15.216 22.5364C16.3514 21.4638 17.0442 20.1125 17.5787 18.6513Z" fill="#576D8B"/>
<path d="M6.43337 12.1447H2C2.00533 12.0264 2.0077 11.9128 2.016 11.7975C2.08505 10.7976 2.29513 9.81256 2.64003 8.87137C3.00017 7.90634 3.49538 6.99708 4.1109 6.17067C4.17017 6.08784 4.22113 6.06418 4.32484 6.105C5.17292 6.43656 6.04056 6.71593 6.92287 6.94154L7.17829 7.00602C7.18481 7.00602 7.18955 7.01549 7.20081 7.02495C6.69946 8.69211 6.47367 10.4007 6.43337 12.1447Z" fill="#576D8B"/>
<path d="M18.3841 6.85871C19.168 6.64808 19.9395 6.39428 20.6953 6.09849C20.7641 6.07128 20.8067 6.06773 20.8583 6.13577C21.7301 7.27772 22.3569 8.58675 22.6995 9.98122C22.8773 10.7036 22.9959 11.5567 22.9923 12.1483H18.5613C18.5398 10.4117 18.2832 8.68589 17.7986 7.01785L18.3841 6.85871Z" fill="#576D8B"/>
<path d="M8.45953 5.6187C8.8317 4.79045 9.28268 4.0113 9.89841 3.33627C10.3209 2.87363 10.7974 2.48317 11.38 2.23765C12.3115 1.8466 13.2005 1.95013 14.0527 2.4601C14.6684 2.82808 15.1502 3.33805 15.5709 3.91309C16.131 4.68218 16.5411 5.53173 16.8706 6.42151C16.877 6.43941 16.882 6.45781 16.8854 6.47653C16.8854 6.48304 16.8854 6.49073 16.8789 6.5067C13.98 7.09115 10.9931 7.08894 8.09507 6.5002C8.21834 6.19552 8.33093 5.90445 8.45953 5.6187Z" fill="#576D8B"/>
<path d="M7.41949 6.34993C6.48571 6.12671 5.5674 5.84333 4.67034 5.50156C5.235 4.86852 5.8748 4.30649 6.5756 3.8279C7.53667 3.17035 8.60279 2.68082 9.72833 2.38023C9.73953 2.37727 9.75141 2.37812 9.76207 2.38264C9.77274 2.38717 9.7816 2.39511 9.78724 2.40522C9.79288 2.41533 9.79499 2.42703 9.79322 2.43846C9.79146 2.4499 9.78594 2.46043 9.77751 2.46838C8.64384 3.54393 7.95284 4.89339 7.41949 6.34993Z" fill="#576D8B"/>
<path d="M7.13029 12.8511H17.865C17.8491 14.5401 17.5975 16.2187 17.1177 17.8384C14.0716 17.208 10.9284 17.208 7.88232 17.8384C7.38808 16.2097 7.16407 14.5508 7.13029 12.8511Z" fill="#576D8B"/>
<path d="M15.3932 21.3212C14.9025 21.9371 14.3407 22.4695 13.5999 22.7712C12.5533 23.1978 11.582 23.0079 10.6801 22.3677C10.0531 21.9205 9.57365 21.3372 9.1606 20.6953C8.72623 20.0053 8.37174 19.2684 8.10396 18.4986C11.0068 17.912 13.9979 17.912 16.9008 18.4986C16.8237 18.698 16.758 18.8838 16.6815 19.0648C16.3413 19.8664 15.9384 20.6355 15.3932 21.3212Z" fill="#576D8B"/>
<path d="M17.8573 12.143H7.14748C7.14748 11.9282 7.13207 11.7146 7.14748 11.504C7.20259 10.8716 7.25652 10.2392 7.33771 9.61088C7.44591 8.81575 7.61611 8.03028 7.84677 7.2616C7.87166 7.17581 7.90603 7.16694 7.98485 7.18291C8.85406 7.36745 9.73501 7.49178 10.6214 7.55504C11.2674 7.59526 11.9139 7.63549 12.561 7.63786C13.5725 7.64332 14.5829 7.57133 15.5834 7.42252C16.0676 7.34916 16.5494 7.25923 17.0317 7.17759C17.0543 7.17345 17.0768 7.17226 17.1058 7.16931C17.4851 8.06086 17.9414 11.1059 17.8573 12.143Z" fill="#576D8B"/>
<path d="M15.2237 2.46838C15.2154 2.46019 15.2101 2.44951 15.2086 2.438C15.2071 2.42649 15.2094 2.4148 15.2152 2.40474C15.221 2.39468 15.23 2.38683 15.2407 2.38239C15.2515 2.37796 15.2634 2.3772 15.2746 2.38023C17.2532 2.92333 18.9339 3.96002 20.3166 5.49032C20.1098 5.63467 17.9687 6.29905 17.577 6.34224C17.043 4.89871 16.3562 3.54452 15.2237 2.46838Z" fill="#576D8B"/>
<path d="M7.20318 17.9898C6.18257 18.2386 5.18027 18.5571 4.20335 18.9429C3.56792 18.132 3.05774 17.2307 2.68981 16.2688C2.26866 15.1749 2.03545 14.0178 2 12.8464H6.43337C6.4713 14.5922 6.70005 16.3055 7.20318 17.9898Z" fill="#576D8B"/>
</svg>
