<svg width="24" height="24" viewBox="0 0 24 24" fill="none" xmlns="http://www.w3.org/2000/svg">
<path d="M19.25 15.125V7.075L14 3.4L8.75 7.075V10.3H7.25V6.325L14 1.5L20.75 6.325V15.125H19.25ZM14.5 8.5H15.5V7.5H14.5V8.5ZM12.5 8.5H13.5V7.5H12.5V8.5ZM14.5 10.5H15.5V9.5H14.5V10.5ZM12.5 10.5H13.5V9.5H12.5V10.5ZM14.15 22.45L6.375 20.225V21.65H1V11.8H8.725L15.1 14.2C15.55 14.3667 15.9292 14.6375 16.2375 15.0125C16.5458 15.3875 16.7 15.925 16.7 16.625H19.55C20.25 16.625 20.8333 16.875 21.3 17.375C21.7667 17.875 22 18.55 22 19.4V20.05L14.15 22.45ZM2.5 20.15H4.85V13.3H2.5V20.15ZM14.05 20.9L20.45 18.95C20.35 18.6333 20.225 18.4167 20.075 18.3C19.925 18.1833 19.75 18.125 19.55 18.125H14.375C13.875 18.125 13.4125 18.0917 12.9875 18.025C12.5625 17.9583 12.1583 17.8667 11.775 17.75L9.75 17.125L10.3 15.675L12.125 16.275C12.5417 16.4083 12.9375 16.5 13.3125 16.55C13.6875 16.6 14.2833 16.625 15.1 16.625C15.1 16.425 15.0625 16.2292 14.9875 16.0375C14.9125 15.8458 14.7833 15.7083 14.6 15.625L8.475 13.3H6.375V18.65L14.05 20.9Z" fill="#485F7D"/>
</svg>
