<svg width="16" height="16" viewBox="0 0 16 16" fill="none" xmlns="http://www.w3.org/2000/svg">
<path d="M12.6667 8.99967C12.6667 6.42235 10.5773 4.33301 8 4.33301V8.99967H12.6667Z" fill="#2A72FF"/>
<path d="M8 15C11.3137 15 14 12.3137 14 9C14 5.68629 11.3137 3 8 3C4.68629 3 2 5.68629 2 9C2 12.3137 4.68629 15 8 15Z" stroke="#485F7D" stroke-width="1.5" stroke-linecap="round" stroke-linejoin="round"/>
<path d="M8 14C10.7614 14 13 11.7614 13 9C13 6.23858 10.7614 4 8 4C5.23858 4 3 6.23858 3 9C3 11.7614 5.23858 14 8 14Z" fill="#2A72FF"/>
<path d="M11.3333 1.66699L14 3.66699" stroke="#485F7D" stroke-width="1.5" stroke-linecap="round"/>
<path d="M4.66666 1.66699L1.99999 3.66699" stroke="#485F7D" stroke-width="1.5" stroke-linecap="round"/>
</svg>
