<svg width="25" height="24" viewBox="0 0 25 24" fill="none" xmlns="http://www.w3.org/2000/svg">
<g id="Frame" clip-path="url(#clip0_88_500)">
<path id="Vector" d="M22.6621 5.65593C21.8986 5.99362 21.089 6.2154 20.2601 6.31393C21.1338 5.79136 21.7878 4.96894 22.1001 3.99993C21.2801 4.48793 20.3811 4.82993 19.4441 5.01493C18.8147 4.34151 17.9804 3.89489 17.071 3.74451C16.1616 3.59413 15.228 3.74842 14.4153 4.18338C13.6026 4.61834 12.9564 5.30961 12.5772 6.14972C12.1979 6.98983 12.1068 7.93171 12.3181 8.82893C10.6552 8.74558 9.02838 8.31345 7.54334 7.56059C6.05829 6.80773 4.74818 5.75097 3.69805 4.45893C3.32634 5.09738 3.13101 5.82315 3.13205 6.56193C3.13205 8.01193 3.87005 9.29293 4.99205 10.0429C4.32806 10.022 3.67869 9.84271 3.09805 9.51993V9.57193C3.09825 10.5376 3.43242 11.4735 4.0439 12.221C4.65538 12.9684 5.50653 13.4814 6.45305 13.6729C5.83667 13.84 5.19036 13.8646 4.56305 13.7449C4.82992 14.5762 5.35006 15.3031 6.05064 15.824C6.75123 16.3449 7.59718 16.6337 8.47005 16.6499C7.60253 17.3313 6.60923 17.8349 5.54693 18.1321C4.48464 18.4293 3.37418 18.5142 2.27905 18.3819C4.19075 19.6114 6.41615 20.264 8.68905 20.2619C16.3821 20.2619 20.5891 13.8889 20.5891 8.36193C20.5891 8.18193 20.5841 7.99993 20.5761 7.82193C21.3949 7.23009 22.1017 6.49695 22.6631 5.65693L22.6621 5.65593Z" fill="#E5007A"/>
</g>
<defs>
<clipPath id="clip0_88_500">
<rect width="24" height="24" fill="white" transform="translate(0.5)"/>
</clipPath>
</defs>
</svg>
