<svg width="20" height="20" viewBox="0 0 20 20" fill="none" xmlns="http://www.w3.org/2000/svg">
<path fill-rule="evenodd" clip-rule="evenodd" d="M12.2051 1.86919C12.2051 1.7559 12.1133 1.66406 12 1.66406H6.25641C5.01023 1.66406 4 2.67429 4 3.92047V15.4077C4 16.6538 5.01023 17.6641 6.25641 17.6641H14.4615C15.7077 17.6641 16.7179 16.6538 16.7179 15.4077V7.32319C16.7179 7.2099 16.6261 7.11806 16.5128 7.11806H12.8205C12.4806 7.11806 12.2051 6.84254 12.2051 6.50268V1.86919ZM12.8205 9.86919C13.1604 9.86919 13.4359 10.1447 13.4359 10.4846C13.4359 10.8244 13.1604 11.1 12.8205 11.1H7.89744C7.55757 11.1 7.28205 10.8244 7.28205 10.4846C7.28205 10.1447 7.55757 9.86919 7.89744 9.86919H12.8205ZM12.8205 13.1512C13.1604 13.1512 13.4359 13.4268 13.4359 13.7666C13.4359 14.1065 13.1604 14.382 12.8205 14.382H7.89744C7.55757 14.382 7.28205 14.1065 7.28205 13.7666C7.28205 13.4268 7.55757 13.1512 7.89744 13.1512H12.8205Z" fill="#485F7D"/>
<path d="M13.4359 2.13515C13.4359 1.98377 13.594 1.88765 13.7117 1.98274C13.811 2.06283 13.9001 2.15666 13.9762 2.26267L16.4486 5.7071C16.5048 5.78552 16.4439 5.88729 16.3474 5.88729H13.641C13.5277 5.88729 13.4359 5.79545 13.4359 5.68216V2.13515Z" fill="#485F7D"/>
</svg>
