<svg width="21" height="22" viewBox="0 0 21 22" fill="none" xmlns="http://www.w3.org/2000/svg">
<path fill-rule="evenodd" clip-rule="evenodd" d="M21 2.42948C21 1.04059 19.6191 0.0745512 18.3144 0.550662L11.0165 3.21377L3.68817 3.78681C1.60632 3.9496 0 5.68644 0 7.77464V9.22549C0 11.3137 1.60633 13.0505 3.68817 13.2133L4.10077 13.2456L4.80448 19.3589C4.97774 20.8641 6.25202 22.0001 7.76707 22.0001C9.55425 22.0001 10.9401 20.4389 10.7282 18.6643L10.1375 13.7176L11.0165 13.7864L18.3144 16.4495C19.6191 16.9256 21 15.9595 21 14.5707V2.42948ZM3.84408 5.78072L10.2308 5.28131V11.7188L3.84409 11.2194C2.80316 11.138 2 10.2696 2 9.22549V7.77464C2 6.73054 2.80316 5.86212 3.84408 5.78072ZM19 14.5707L12.2308 12.1005V4.89965L19 2.42948L19 14.5707ZM6.79136 19.1302L6.13226 13.4044L8.10431 13.5586L8.7423 18.9015C8.81209 19.4859 8.35567 20.0001 7.76707 20.0001C7.2681 20.0001 6.84842 19.6259 6.79136 19.1302Z" fill="#485F7D"/>
</svg>
