<svg width="40" height="41" viewBox="0 0 40 41" fill="none" xmlns="http://www.w3.org/2000/svg">
<rect y="0.5" width="40" height="40" rx="9" fill="#FFE0E0"/>
<g clip-path="url(#clip0_2140_158074)">
<path d="M23.5023 17.9559C23.8001 18.2537 23.7623 18.776 23.4191 19.1192L19.12 23.4183C18.7759 23.7623 18.2533 23.7981 17.9567 23.5015C17.6601 23.2049 17.6979 22.6827 18.0411 22.3395L22.3394 18.0412C22.6834 17.6972 23.2037 17.6573 23.5023 17.9559Z" fill="#485F7D"/>
<path d="M27.8002 13.6581C29.4864 15.3443 29.2925 18.2816 27.368 20.2062L25.2199 22.3543C24.8754 22.6987 24.3532 22.7341 24.0574 22.4383C23.7617 22.1425 23.7974 21.6182 24.1406 21.275L26.2896 19.1261C27.5253 17.8904 27.643 15.998 26.5516 14.9066C25.4602 13.8152 23.5682 13.9334 22.3325 15.1691L20.1836 17.318C19.8391 17.6624 19.3169 17.6978 19.0211 17.402C18.7254 17.1062 18.7599 16.5832 19.1044 16.2387L21.2533 14.0898C23.177 12.1661 26.1144 11.9723 27.8002 13.6581Z" fill="#485F7D"/>
<path d="M22.4395 24.0562C22.7369 24.3536 22.6987 24.8755 22.3555 25.2187L20.2061 27.368C18.2824 29.2918 15.3442 29.4864 13.658 27.8002C11.9718 26.114 12.166 23.1771 14.0906 21.2525L16.24 19.1032C16.584 18.7591 17.1066 18.7234 17.4032 19.0199C17.6998 19.3165 17.6628 19.8388 17.3184 20.1832L15.1698 22.3317C13.9342 23.5674 13.8164 25.4598 14.9074 26.5508C15.9984 27.6418 17.8904 27.5253 19.1269 26.2888L21.2762 24.1394C21.6198 23.7958 22.1417 23.7584 22.4395 24.0562Z" fill="#485F7D"/>
</g>
<defs>
<clipPath id="clip0_2140_158074">
<rect width="24" height="24" fill="white" transform="translate(3.52942 20.5) rotate(-45)"/>
</clipPath>
</defs>
</svg>
