<svg width="18" height="14" viewBox="0 0 18 14" fill="none" xmlns="http://www.w3.org/2000/svg">
<path fill-rule="evenodd" clip-rule="evenodd" d="M5.91752 0.0931291C4.80215 0.340946 3.95285 0.613969 2.90227 1.06242C2.72857 1.13657 2.70104 1.16677 2.45881 1.54962C1.29739 3.3852 0.546171 5.27344 0.206175 7.21171C0.0293737 8.21957 -0.0040599 8.65692 0.000369787 9.90307C0.00265494 10.5412 0.0178776 11.1497 0.0342604 11.2555L0.0640026 11.4478L0.521034 11.7584C1.6634 12.535 2.85225 13.1342 4.09572 13.5602C4.35156 13.6478 4.58035 13.712 4.60415 13.7029C4.69018 13.6699 5.56596 12.2712 5.56596 12.1668C5.56596 12.1541 5.47501 12.1078 5.36381 12.0639C5.08847 11.9554 4.18871 11.5084 4.12919 11.4506C4.06837 11.3916 4.08381 11.3681 4.27154 11.2333L4.42429 11.1236L4.7754 11.2734C6.63 12.0651 8.75235 12.3216 10.7164 11.9915C11.6211 11.8394 12.442 11.5903 13.4077 11.1746C13.5312 11.1214 13.5345 11.1222 13.689 11.2445C13.7749 11.3125 13.8453 11.3865 13.8453 11.409C13.8453 11.4582 13.1121 11.8427 12.7203 11.999C12.5656 12.0606 12.4246 12.1239 12.407 12.1395C12.3375 12.2011 13.249 13.7126 13.358 13.7162C13.38 13.7169 13.5856 13.6529 13.815 13.5739C15.1098 13.1281 16.2813 12.54 17.4312 11.7586L17.8882 11.448L17.9116 11.2556C17.9244 11.1498 17.9462 10.6994 17.9599 10.2546C18.056 7.15423 17.254 4.32591 15.4913 1.54811L15.2313 1.13847L14.7492 0.93811C13.8599 0.568512 12.7007 0.217477 11.844 0.0582891L11.5302 0L11.4674 0.0824064C11.4328 0.127688 11.3211 0.344532 11.2193 0.564223L11.034 0.963669L10.8576 0.942048C10.7606 0.930165 10.5309 0.901477 10.3472 0.878344C9.91148 0.823465 8.08062 0.823184 7.6226 0.877923C7.42924 0.901056 7.19194 0.92904 7.09526 0.940114L6.91947 0.960294L6.69096 0.492223C6.42454 -0.0535077 6.4706 -0.0297421 5.91752 0.0931291ZM6.63618 5.89082C7.0936 6.11688 7.4284 6.55594 7.55601 7.0971C7.6259 7.3934 7.60414 7.88098 7.50834 8.16624C7.10197 9.37604 5.77612 9.7429 4.91578 8.88353C4.35286 8.32128 4.21575 7.40894 4.58207 6.66289C4.78159 6.25659 5.10991 5.96201 5.52574 5.81618C5.72114 5.74766 5.80998 5.73666 6.06908 5.74893C6.33757 5.76166 6.41308 5.78057 6.63618 5.89082ZM12.6191 5.89399C13.2207 6.19127 13.5825 6.80615 13.5811 7.52861C13.58 8.05567 13.415 8.49334 13.083 8.84905C12.168 9.82963 10.6907 9.31701 10.3963 7.91674C10.2417 7.18141 10.5629 6.36364 11.1557 5.98321C11.4446 5.7978 11.6875 5.73413 12.0456 5.74995C12.317 5.76194 12.3881 5.7798 12.6191 5.89399Z" fill="white"/>
</svg>
