<svg width="16" height="16" viewBox="0 0 16 16" fill="none" xmlns="http://www.w3.org/2000/svg">
<path fill-rule="evenodd" clip-rule="evenodd" d="M7.6294 0.0365383C7.22455 0.150507 7.33687 0.0464756 3.73687 3.64179C1.86693 5.50929 0.295714 7.09904 0.245246 7.17457C-0.141848 7.75388 -0.0639416 8.52904 0.431121 9.0241C0.71762 9.3106 1.08343 9.4591 1.50268 9.4591H1.71487V11.9576C1.71487 13.649 1.72593 14.5095 1.74915 14.6216C1.86712 15.1914 2.32809 15.7061 2.89643 15.9025C3.10374 15.9741 3.11824 15.9747 4.62662 15.9747C6.11418 15.9747 6.14965 15.9733 6.23405 15.9103C6.28152 15.8748 6.34937 15.807 6.3848 15.7596C6.44799 15.675 6.44955 15.633 6.46487 13.5872L6.48049 11.501L6.57537 11.3472C6.69358 11.1556 6.93502 11.0024 7.16355 10.974C7.25193 10.9631 7.68987 10.9587 8.13674 10.9644L8.94924 10.9747L9.11343 11.0657C9.26993 11.1524 9.37099 11.2557 9.4678 11.4278C9.50386 11.492 9.51455 11.879 9.52736 13.5897C9.54268 15.633 9.54424 15.675 9.60743 15.7596C9.64286 15.807 9.71071 15.8748 9.75818 15.9103C9.84258 15.9733 9.87805 15.9747 11.3656 15.9747C12.874 15.9747 12.8885 15.9741 13.0958 15.9025C13.6641 15.7061 14.1251 15.1914 14.2431 14.6216C14.2663 14.5095 14.2774 13.649 14.2774 11.9576V9.4591H14.4895C15.2404 9.4591 15.8475 8.94994 15.9707 8.21691C16.0194 7.92741 15.9724 7.62035 15.8356 7.3341C15.746 7.14679 15.4742 6.86635 12.3439 3.73138C10.4768 1.8616 8.8829 0.288913 8.80177 0.236538C8.72068 0.184195 8.58005 0.112757 8.48927 0.0778195C8.27221 -0.00574294 7.8513 -0.0259617 7.6294 0.0365383Z" fill="white"/>
</svg>
