<svg width="19" height="17" viewBox="0 0 19 17" fill="none" xmlns="http://www.w3.org/2000/svg">
<path fill-rule="evenodd" clip-rule="evenodd" d="M9.35813 3.48572C4.39197 5.4022 0.287338 6.99734 0.236721 7.03048C0.114075 7.11086 0.000148846 7.30368 4.08576e-07 7.43119C-0.000222248 7.58794 0.0905843 7.77223 0.209037 7.85542C0.267485 7.89647 1.29219 8.29328 2.48618 8.73722C3.68017 9.18119 4.67519 9.56338 4.69734 9.58658C4.71946 9.60977 5.10962 10.8311 5.56436 12.3006C6.0191 13.7701 6.41714 15.0287 6.44886 15.0975C6.48063 15.1662 6.55804 15.2538 6.6209 15.2921C6.74971 15.3707 7.01341 15.3847 7.13535 15.3194C7.17925 15.2959 7.7501 14.8399 8.4039 14.3061C9.8316 13.1404 9.78377 13.1761 9.97711 13.1326C10.2825 13.064 10.3421 13.0989 12.1371 14.4017C15.2868 16.6877 15.0573 16.5311 15.2565 16.5311C15.4628 16.5311 15.6085 16.4401 15.7072 16.2498C15.8056 16.06 19.0113 0.57245 18.9832 0.422677C18.9404 0.19464 18.7013 -0.00315331 18.4722 3.80928e-05C18.4256 0.000668952 14.3243 1.56921 9.35813 3.48572ZM14.8733 3.45744C14.8978 3.48194 14.9178 3.52914 14.9178 3.56235C14.9178 3.59557 13.5532 4.89061 11.8852 6.44018C7.82829 10.2093 7.66768 10.3618 7.55962 10.5462C7.4166 10.7902 7.36172 11.0361 7.23428 12.0037C7.16749 12.5108 7.09434 12.9303 7.0644 12.9779C7.00999 13.0642 6.8561 13.0898 6.75939 13.0285C6.73186 13.0111 6.49121 12.239 6.22461 11.3128C5.70957 9.52357 5.68 9.36693 5.80346 9.08219C5.83645 9.00607 5.91764 8.89267 5.98388 8.83021C6.13251 8.69001 14.6913 3.41406 14.7712 3.4134C14.8029 3.41314 14.8488 3.43295 14.8733 3.45744Z" fill="white"/>
</svg>
