<svg width="19" height="16" viewBox="0 0 19 16" fill="none" xmlns="http://www.w3.org/2000/svg">
<path fill-rule="evenodd" clip-rule="evenodd" d="M12.0929 0.064387C11.7315 0.148567 11.5115 0.229429 11.1981 0.393366C10.1768 0.92758 9.44519 1.8776 9.15348 3.04857C9.04954 3.46562 9.01379 4.26199 9.08029 4.67861L9.11791 4.91452L8.68959 4.88452C7.16261 4.7775 5.48639 4.20507 4.06242 3.30423C3.27603 2.8067 2.70601 2.32946 1.93494 1.52285C1.11189 0.661916 1.18389 0.681963 0.97133 1.25435C0.609316 2.22912 0.580223 3.11794 0.881251 4.00551C1.11551 4.6963 1.61212 5.45205 2.11226 5.87886L2.37295 6.10136H2.22918C1.9622 6.10136 1.38015 5.95165 1.02231 5.79093L0.666677 5.63118V5.86829C0.666677 6.71504 1.09339 7.74212 1.73836 8.44787C2.21606 8.97059 2.68793 9.28313 3.35115 9.51615L3.71826 9.64514L3.32312 9.70686C3.09496 9.74249 2.73092 9.75864 2.46179 9.74508C1.91457 9.71744 1.92934 9.67461 2.25846 10.3351C2.61717 11.055 3.20628 11.6725 3.87887 12.0336C4.3696 12.297 4.62676 12.3844 5.13846 12.4618L5.54536 12.5234L5.36602 12.6714C5.26741 12.7529 5.04738 12.9085 4.87708 13.0174C3.54898 13.8663 2.06403 14.274 0.512262 14.2156C-0.169641 14.1899 -0.169641 14.1909 0.505608 14.5709C2.8149 15.8702 5.30821 16.2873 7.89411 15.8068C11.8083 15.0795 14.9218 12.1598 16.1999 8.01793C16.5439 6.9032 16.7276 5.72565 16.7276 4.6364V3.99758L16.9915 3.79018C17.4869 3.40077 18.2505 2.54354 18.5846 2.00202L18.6667 1.8689L18.4518 1.96538C17.9861 2.17451 16.6268 2.55027 16.566 2.48662C16.5561 2.47618 16.6951 2.35003 16.8749 2.20634C17.3837 1.79986 17.8717 1.09911 18.083 0.471585L18.1431 0.293322L17.5845 0.573601C17.0604 0.836573 16.4358 1.07459 15.9371 1.20142L15.7202 1.25661L15.4782 1.02748C14.9962 0.571053 14.4158 0.2514 13.7782 0.091261C13.342 -0.0183028 12.5053 -0.0316195 12.0929 0.064387Z" fill="white"/>
</svg>
