<svg width="19" height="14" viewBox="0 0 19 14" fill="none" xmlns="http://www.w3.org/2000/svg">
<path fill-rule="evenodd" clip-rule="evenodd" d="M6.62246 0.0520273C4.976 0.133408 2.34977 0.369016 1.83691 0.481309C1.13967 0.634014 0.475 1.2982 0.300771 2.01641C0.170035 2.55517 0 5.2093 0 6.71075C0 8.2122 0.170035 10.8663 0.300771 11.4051C0.475 12.1233 1.13952 12.7874 1.83691 12.9402C2.09943 12.9978 3.56295 13.1542 4.65723 13.2418C7.76636 13.4906 11.1868 13.4902 14.3548 13.2407C15.4358 13.1555 16.8916 12.9997 17.1631 12.94C17.864 12.7861 18.5243 12.1264 18.6992 11.4051C18.83 10.8663 19 8.2122 19 6.71075C19 5.2093 18.83 2.55517 18.6992 2.01641C18.525 1.2982 17.8605 0.634125 17.1631 0.481272C16.6228 0.362856 14.0705 0.138306 12.2646 0.0503201C10.873 -0.0174788 8.0108 -0.016625 6.62246 0.0520273ZM10.3117 5.1336C11.599 5.99083 12.6523 6.70055 12.6523 6.71075C12.6523 6.72938 8.00034 9.83566 7.93766 9.85885C7.91806 9.86613 7.9043 8.56659 7.9043 6.71075C7.9043 4.85491 7.91806 3.55538 7.93766 3.56265C7.95603 3.56944 9.02433 4.27637 10.3117 5.1336Z" fill="white"/>
</svg>
