<svg width="24" height="25" viewBox="0 0 24 25" fill="none" xmlns="http://www.w3.org/2000/svg">
<path d="M9.75 4.25C9.75 4.05109 9.82902 3.86032 9.96967 3.71967C10.1103 3.57902 10.3011 3.5 10.5 3.5H13.5C13.6989 3.5 13.8897 3.57902 14.0303 3.71967C14.171 3.86032 14.25 4.05109 14.25 4.25C14.25 4.44891 14.171 4.63968 14.0303 4.78033C13.8897 4.92098 13.6989 5 13.5 5H10.5C10.3011 5 10.1103 4.92098 9.96967 4.78033C9.82902 4.63968 9.75 4.44891 9.75 4.25ZM13.5 20H10.5C10.3011 20 10.1103 20.079 9.96967 20.2197C9.82902 20.3603 9.75 20.5511 9.75 20.75C9.75 20.9489 9.82902 21.1397 9.96967 21.2803C10.1103 21.421 10.3011 21.5 10.5 21.5H13.5C13.6989 21.5 13.8897 21.421 14.0303 21.2803C14.171 21.1397 14.25 20.9489 14.25 20.75C14.25 20.5511 14.171 20.3603 14.0303 20.2197C13.8897 20.079 13.6989 20 13.5 20ZM19.5 3.5H17.25C17.0511 3.5 16.8603 3.57902 16.7197 3.71967C16.579 3.86032 16.5 4.05109 16.5 4.25C16.5 4.44891 16.579 4.63968 16.7197 4.78033C16.8603 4.92098 17.0511 5 17.25 5H19.5V7.25C19.5 7.44891 19.579 7.63968 19.7197 7.78033C19.8603 7.92098 20.0511 8 20.25 8C20.4489 8 20.6397 7.92098 20.7803 7.78033C20.921 7.63968 21 7.44891 21 7.25V5C21 4.60218 20.842 4.22064 20.5607 3.93934C20.2794 3.65804 19.8978 3.5 19.5 3.5ZM20.25 10.25C20.0511 10.25 19.8603 10.329 19.7197 10.4697C19.579 10.6103 19.5 10.8011 19.5 11V14C19.5 14.1989 19.579 14.3897 19.7197 14.5303C19.8603 14.671 20.0511 14.75 20.25 14.75C20.4489 14.75 20.6397 14.671 20.7803 14.5303C20.921 14.3897 21 14.1989 21 14V11C21 10.8011 20.921 10.6103 20.7803 10.4697C20.6397 10.329 20.4489 10.25 20.25 10.25ZM20.25 17C20.0511 17 19.8603 17.079 19.7197 17.2197C19.579 17.3603 19.5 17.5511 19.5 17.75V20H17.25C17.0511 20 16.8603 20.079 16.7197 20.2197C16.579 20.3603 16.5 20.5511 16.5 20.75C16.5 20.9489 16.579 21.1397 16.7197 21.2803C16.8603 21.421 17.0511 21.5 17.25 21.5H19.5C19.8978 21.5 20.2794 21.342 20.5607 21.0607C20.842 20.7794 21 20.3978 21 20V17.75C21 17.5511 20.921 17.3603 20.7803 17.2197C20.6397 17.079 20.4489 17 20.25 17ZM3.75 14.75C3.94891 14.75 4.13968 14.671 4.28033 14.5303C4.42098 14.3897 4.5 14.1989 4.5 14V11C4.5 10.8011 4.42098 10.6103 4.28033 10.4697C4.13968 10.329 3.94891 10.25 3.75 10.25C3.55109 10.25 3.36032 10.329 3.21967 10.4697C3.07902 10.6103 3 10.8011 3 11V14C3 14.1989 3.07902 14.3897 3.21967 14.5303C3.36032 14.671 3.55109 14.75 3.75 14.75ZM6.75 20H4.5V17.75C4.5 17.5511 4.42098 17.3603 4.28033 17.2197C4.13968 17.079 3.94891 17 3.75 17C3.55109 17 3.36032 17.079 3.21967 17.2197C3.07902 17.3603 3 17.5511 3 17.75V20C3 20.3978 3.15804 20.7794 3.43934 21.0607C3.72064 21.342 4.10218 21.5 4.5 21.5H6.75C6.94891 21.5 7.13968 21.421 7.28033 21.2803C7.42098 21.1397 7.5 20.9489 7.5 20.75C7.5 20.5511 7.42098 20.3603 7.28033 20.2197C7.13968 20.079 6.94891 20 6.75 20ZM3.75 8C3.94891 8 4.13968 7.92098 4.28033 7.78033C4.42098 7.63968 4.5 7.44891 4.5 7.25V5H6.75C6.94891 5 7.13968 4.92098 7.28033 4.78033C7.42098 4.63968 7.5 4.44891 7.5 4.25C7.5 4.05109 7.42098 3.86032 7.28033 3.71967C7.13968 3.57902 6.94891 3.5 6.75 3.5H4.5C4.10218 3.5 3.72064 3.65804 3.43934 3.93934C3.15804 4.22064 3 4.60218 3 5V7.25C3 7.44891 3.07902 7.63968 3.21967 7.78033C3.36032 7.92098 3.55109 8 3.75 8ZM16.5 17.75H7.5C7.30109 17.75 7.11032 17.671 6.96967 17.5303C6.82902 17.3897 6.75 17.1989 6.75 17V8C6.75 7.80109 6.82902 7.61032 6.96967 7.46967C7.11032 7.32902 7.30109 7.25 7.5 7.25H16.5C16.6989 7.25 16.8897 7.32902 17.0303 7.46967C17.171 7.61032 17.25 7.80109 17.25 8V17C17.25 17.1989 17.171 17.3897 17.0303 17.5303C16.8897 17.671 16.6989 17.75 16.5 17.75Z" fill="#485F7D"/>
</svg>
