<svg width="24" height="25" viewBox="0 0 24 25" fill="none" xmlns="http://www.w3.org/2000/svg">
<path fill-rule="evenodd" clip-rule="evenodd" d="M20.0526 10.5791V15.0002C20.0526 17.8286 20.0526 19.2428 19.174 20.1215C18.2953 21.0002 16.8811 21.0002 14.0526 21.0002H9C6.17157 21.0002 4.75736 21.0002 3.87868 20.1215C3 19.2428 3 17.8286 3 15.0002V10.5791C3 11.363 3 11.7549 3.10837 12.0706C3.30869 12.6541 3.76709 13.1125 4.3506 13.3128C4.66626 13.4212 5.05821 13.4212 5.84211 13.4212H6.482C6.99513 13.4212 7.25169 13.4212 7.46251 13.5264C7.55922 13.5746 7.64746 13.6382 7.72381 13.7147C7.89026 13.8815 7.97139 14.1249 8.13366 14.6117L8.22836 14.8958C8.44837 15.5558 8.55837 15.8858 8.82026 16.0746C9.08215 16.2633 9.43001 16.2633 10.1257 16.2633H12.9269C13.6226 16.2633 13.9705 16.2633 14.2324 16.0746C14.4943 15.8858 14.6043 15.5558 14.8243 14.8958L14.8243 14.8958L14.919 14.6117C15.0812 14.1249 15.1624 13.8815 15.3288 13.7147C15.4052 13.6382 15.4934 13.5746 15.5901 13.5264C15.8009 13.4212 16.0575 13.4212 16.5706 13.4212H17.2105C17.9944 13.4212 18.3864 13.4212 18.702 13.3128C19.2855 13.1125 19.7439 12.6541 19.9443 12.0706C20.0526 11.7549 20.0526 11.363 20.0526 10.5791Z" fill="#485F7D"/>
<path d="M15.3158 5.8418H16.0526C17.9382 5.8418 18.8811 5.8418 19.4668 6.42758C20.0526 7.01337 20.0526 7.95618 20.0526 9.8418V16.9997C20.0526 18.8853 20.0526 19.8281 19.4668 20.4139C18.8811 20.9997 17.9382 20.9997 16.0526 20.9997H7C5.11438 20.9997 4.17157 20.9997 3.58579 20.4139C3 19.8281 3 18.8853 3 16.9997V9.8418C3 7.95618 3 7.01337 3.58579 6.42758C4.17157 5.8418 5.11438 5.8418 7 5.8418H7.73684" stroke="#485F7D" stroke-width="2" stroke-linecap="round"/>
<path d="M7.7373 9.63153L11.5268 12.4736M11.5268 12.4736L15.3163 9.63153M11.5268 12.4736L11.5268 2.99995" stroke="#485F7D" stroke-width="2" stroke-linecap="round" stroke-linejoin="round"/>
</svg>
