<svg  viewBox="0 0 24 25" fill="none" xmlns="http://www.w3.org/2000/svg">
<path d="M11.25 8.34748C10.3141 8.60339 9.75 9.32154 9.75 10C9.75 10.6785 10.3141 11.3966 11.25 11.6525V8.34748Z" fill="#E5007A"/>
<path d="M12.75 13.3475V16.6525C13.6859 16.3966 14.25 15.6785 14.25 15C14.25 14.3215 13.6859 13.6034 12.75 13.3475Z" fill="#E5007A"/>
<path fill-rule="evenodd" clip-rule="evenodd" d="M22 12.5C22 18.0228 17.5228 22.5 12 22.5C6.47715 22.5 2 18.0228 2 12.5C2 6.97715 6.47715 2.5 12 2.5C17.5228 2.5 22 6.97715 22 12.5ZM12 5.75C12.4142 5.75 12.75 6.08579 12.75 6.5V6.81673C14.3804 7.10867 15.75 8.33361 15.75 10C15.75 10.4142 15.4142 10.75 15 10.75C14.5858 10.75 14.25 10.4142 14.25 10C14.25 9.32154 13.6859 8.60339 12.75 8.34748V11.8167C14.3804 12.1087 15.75 13.3336 15.75 15C15.75 16.6664 14.3804 17.8913 12.75 18.1833V18.5C12.75 18.9142 12.4142 19.25 12 19.25C11.5858 19.25 11.25 18.9142 11.25 18.5V18.1833C9.61957 17.8913 8.25 16.6664 8.25 15C8.25 14.5858 8.58579 14.25 9 14.25C9.41421 14.25 9.75 14.5858 9.75 15C9.75 15.6785 10.3141 16.3966 11.25 16.6525V13.1833C9.61957 12.8913 8.25 11.6664 8.25 10C8.25 8.33361 9.61957 7.10867 11.25 6.81673V6.5C11.25 6.08579 11.5858 5.75 12 5.75Z" fill="#E5007A"/>
</svg>
