<svg width="24" height="24" viewBox="0 0 24 24" fill="none" xmlns="http://www.w3.org/2000/svg">
<path fill-rule="evenodd" clip-rule="evenodd" d="M20.8478 13.1181C20.8478 16.6687 20.8459 17.2501 20.782 17.5C20.6191 18.1367 20.1293 18.6579 19.5 18.8639L19.2554 18.9441H12.3886H5.59236L5.34776 18.8639C5.05696 18.7687 4.67992 18.5254 4.4915 18.3113C4.29595 18.0892 4.14085 17.7934 4.06557 17.4991C4.00197 17.2503 4 16.6644 4 13.1181V9.46252H12.3886H20.8478V13.1181ZM7.61123 11.4609C7.38876 11.5619 7.20149 11.834 7.20149 12.0563C7.20149 12.2785 7.38876 12.5506 7.61123 12.6517C7.72631 12.7039 7.83896 12.7116 8.50725 12.7122C9.35222 12.713 9.42422 12.6997 9.62384 12.5065C9.69108 12.4414 9.7508 12.3368 9.78209 12.2291C9.8272 12.0739 9.8272 12.0386 9.78209 11.8834C9.7508 11.7758 9.69108 11.6711 9.62384 11.606C9.42422 11.4128 9.35222 11.3996 8.50725 11.4003C7.83896 11.401 7.72631 11.4086 7.61123 11.4609ZM11.4424 11.4849C11.0636 11.6736 10.9694 12.154 11.2488 12.4722C11.4451 12.6958 11.5195 12.7115 12.3886 12.7115C13.2437 12.7115 13.3233 12.6958 13.5174 12.4891C13.8081 12.1796 13.691 11.6468 13.2915 11.4619C13.1756 11.4082 13.0694 11.401 12.3868 11.4003C11.6194 11.3996 11.6122 11.4003 11.4424 11.4849ZM15.3763 11.452C14.83 11.6886 14.8344 12.433 15.3835 12.662C15.4821 12.7031 15.6525 12.7128 16.27 12.7122C16.9382 12.7116 17.0509 12.7039 17.166 12.6517C17.3884 12.5506 17.5757 12.2785 17.5757 12.0563C17.5757 11.834 17.3884 11.5619 17.166 11.4609C17.0505 11.4084 16.9398 11.4011 16.2628 11.4016C15.6467 11.4021 15.4681 11.4122 15.3763 11.452ZM7.56826 15.3591C7.18944 15.5478 7.09521 16.0282 7.37461 16.3464C7.57046 16.5695 7.64626 16.5856 8.50725 16.5864C9.1247 16.587 9.29513 16.5773 9.39372 16.5362C9.83971 16.3502 9.95216 15.7903 9.609 15.4643C9.4238 15.2884 9.33922 15.2738 8.50548 15.2738C7.74647 15.2738 7.73774 15.2746 7.56826 15.3591ZM11.5186 15.3174C11.2845 15.4089 11.138 15.5867 11.0919 15.835C11.0436 16.095 11.2204 16.4054 11.4854 16.5259C11.6008 16.5783 11.7124 16.5857 12.3886 16.5857C13.2628 16.5857 13.3414 16.5687 13.5304 16.3394C13.8027 16.009 13.686 15.5187 13.2915 15.3361C13.175 15.2822 13.0728 15.2755 12.3886 15.277C11.8799 15.2782 11.5835 15.2919 11.5186 15.3174ZM15.3763 15.3262C14.83 15.5628 14.8344 16.3072 15.3835 16.5362C15.4821 16.5773 15.6525 16.587 16.27 16.5864C17.1309 16.5856 17.2067 16.5695 17.4026 16.3464C17.6832 16.0269 17.5853 15.5466 17.2004 15.3548C17.0412 15.2755 17.0222 15.2738 16.2646 15.2751C15.6481 15.2761 15.4679 15.2865 15.3763 15.3262Z" fill="#E5007A"/>
<path d="M7.92679 3.36524C8.0001 3.21382 8.13921 3.09077 8.30101 3.03423C8.59607 2.93107 8.93102 3.06795 9.07966 3.35244C9.16403 3.51397 9.17106 3.5561 9.17106 3.90123V4.27506H12.3886H15.6062V3.90123C15.6062 3.5561 15.6132 3.51397 15.6976 3.35244C15.9254 2.9162 16.5176 2.88153 16.8045 3.2876C16.8997 3.42227 16.9034 3.44125 16.9145 3.85103L16.926 4.27506L17.2264 4.27591C18.3969 4.27919 19.1352 4.55439 19.8247 5.24426C20.3264 5.74636 20.6269 6.31525 20.7435 6.98397C20.7672 7.1197 20.7834 7.1293 20.7922 8.46253H19.4803H12.3886H5.29687H4V7.04937L4.07131 6.78238C4.32645 5.82713 4.91841 5.07508 5.74552 4.65545C6.24949 4.39975 6.62109 4.31347 7.34024 4.28513L7.85777 4.26478V3.88629C7.85777 3.56877 7.86891 3.48485 7.92679 3.36524Z" fill="#E5007A"/>
</svg>
