<svg width="24" height="25" viewBox="0 0 24 25" fill="none" xmlns="http://www.w3.org/2000/svg">
<path d="M20.0011 5.30835V13.3043C20.0011 13.7844 19.6082 14.3814 19.1261 14.3814C19.0027 14.3813 18.8845 14.3326 18.7972 14.2459C18.71 14.1593 18.6609 14.0417 18.6607 13.9191V6.0951C18.6603 5.89313 18.5795 5.69953 18.4359 5.55672C18.2922 5.41391 18.0975 5.33354 17.8944 5.33321H5.68608L5.69899 5.18323C5.74238 4.85828 5.90212 4.55976 6.14893 4.34243C6.39575 4.1251 6.71308 4.00353 7.04274 4H18.7265C19.3602 4 20.0011 4.6782 20.0011 5.30835Z" fill="#485F7D"/>
<path d="M16.9347 6.77909L5.41359 6.88265C5.15943 6.88265 4.91567 6.98304 4.73595 7.16174C4.55623 7.34044 4.45526 7.58281 4.45526 7.83553L4.4549 19.5788C4.45489 19.6331 4.47054 19.6863 4.5 19.732C4.52946 19.7777 4.57148 19.814 4.62109 19.8367C4.67069 19.8594 4.7258 19.8674 4.77987 19.8599C4.83394 19.8524 4.88471 19.8296 4.92615 19.7943L7.24563 17.8239C7.31523 17.7646 7.40392 17.7319 7.49563 17.732H16.9344C17.1885 17.732 17.4323 17.6316 17.612 17.4529C17.7917 17.2742 17.8927 17.0318 17.8927 16.7791L17.8931 7.73198C17.8931 7.47926 17.7921 7.23689 17.6124 7.05819C17.4327 6.87949 17.1889 6.77909 16.9347 6.77909ZM7.8339 13.4476C7.64436 13.4476 7.45908 13.3917 7.30148 13.287C7.14389 13.1823 7.02105 13.0335 6.94852 12.8594C6.87599 12.6853 6.85701 12.4937 6.89399 12.3088C6.93096 12.124 7.02223 11.9542 7.15626 11.8209C7.29029 11.6877 7.46104 11.5969 7.64694 11.5602C7.83284 11.5234 8.02553 11.5423 8.20064 11.6144C8.37576 11.6865 8.52543 11.8086 8.63073 11.9653C8.73603 12.122 8.79224 12.3063 8.79224 12.4947C8.79224 12.7475 8.69127 12.9898 8.51155 13.1685C8.33183 13.3472 8.08807 13.4476 7.8339 13.4476ZM10.7089 13.4476C10.5194 13.4476 10.3341 13.3917 10.1765 13.287C10.0189 13.1823 9.89605 13.0335 9.82352 12.8594C9.75099 12.6853 9.73201 12.4937 9.76898 12.3088C9.80596 12.124 9.89723 11.9542 10.0313 11.8209C10.1653 11.6877 10.336 11.5969 10.5219 11.5602C10.7078 11.5234 10.9005 11.5423 11.0756 11.6144C11.2508 11.6865 11.4004 11.8086 11.5057 11.9653C11.611 12.122 11.6672 12.3063 11.6672 12.4947C11.6672 12.7475 11.5663 12.9898 11.3865 13.1685C11.2068 13.3472 10.9631 13.4476 10.7089 13.4476ZM13.5839 13.4476C13.3944 13.4476 13.2091 13.3917 13.0515 13.287C12.8939 13.1823 12.7711 13.0335 12.6985 12.8594C12.626 12.6853 12.607 12.4937 12.644 12.3088C12.681 12.124 12.7722 11.9542 12.9063 11.8209C13.0403 11.6877 13.211 11.5969 13.3969 11.5602C13.5828 11.5234 13.7755 11.5423 13.9506 11.6144C14.1258 11.6865 14.2754 11.8086 14.3807 11.9653C14.486 12.122 14.5422 12.3063 14.5422 12.4947C14.5422 12.6201 14.5174 12.7442 14.469 12.86C14.4207 12.9757 14.3499 13.0809 14.2607 13.1694C14.1714 13.2579 14.0655 13.3281 13.9489 13.3758C13.8323 13.4235 13.7075 13.4479 13.5814 13.4476H13.5839Z" fill="#485F7D"/>
</svg>
