<svg width="24" height="25" viewBox="0 0 24 25" fill="none" xmlns="http://www.w3.org/2000/svg">
<path d="M21.0001 19.7475C20.9986 20.0793 20.8592 20.397 20.6121 20.6316C20.365 20.8662 20.0302 20.9985 19.6807 20.9999H4.32683C3.97609 20.9999 3.63973 20.8676 3.39172 20.6322C3.14372 20.3968 3.00439 20.0775 3.00439 19.7446C3.00439 19.4117 3.14372 19.0924 3.39172 18.857C3.63973 18.6215 3.97609 18.4893 4.32683 18.4893H19.6776C19.8515 18.4895 20.0236 18.5222 20.1842 18.5855C20.3447 18.6489 20.4906 18.7416 20.6134 18.8584C20.7362 18.9753 20.8335 19.1139 20.8999 19.2665C20.9662 19.419 21.0003 19.5825 21.0001 19.7475Z" fill="#E5007A"/>
<path d="M19.0814 11.8471V15.4892C19.0814 15.8222 18.9421 16.1415 18.6941 16.3769C18.4461 16.6123 18.1097 16.7445 17.759 16.7445C17.4082 16.7445 17.0719 16.6123 16.8239 16.3769C16.5759 16.1415 16.4365 15.8222 16.4365 15.4892V11.8471C16.4365 11.5142 16.5759 11.1949 16.8239 10.9595C17.0719 10.724 17.4082 10.5918 17.759 10.5918C18.1097 10.5918 18.4461 10.724 18.6941 10.9595C18.9421 11.1949 19.0814 11.5142 19.0814 11.8471Z" fill="#E5007A"/>
<path d="M13.329 11.8471V15.4892C13.329 15.8222 13.1897 16.1415 12.9417 16.3769C12.6937 16.6123 12.3573 16.7445 12.0066 16.7445C11.6558 16.7445 11.3195 16.6123 11.0715 16.3769C10.8235 16.1415 10.6841 15.8222 10.6841 15.4892V11.8471C10.6841 11.5142 10.8235 11.1949 11.0715 10.9595C11.3195 10.724 11.6558 10.5918 12.0066 10.5918C12.3573 10.5918 12.6937 10.724 12.9417 10.9595C13.1897 11.1949 13.329 11.5142 13.329 11.8471Z" fill="#E5007A"/>
<path d="M7.57065 11.8471V15.4892C7.57065 15.8222 7.43132 16.1415 7.18332 16.3769C6.93531 16.6123 6.59895 16.7445 6.24821 16.7445C5.89748 16.7445 5.56112 16.6123 5.31311 16.3769C5.06511 16.1415 4.92578 15.8222 4.92578 15.4892V11.8471C4.92578 11.5142 5.06511 11.1949 5.31311 10.9595C5.56112 10.724 5.89748 10.5918 6.24821 10.5918C6.59895 10.5918 6.93531 10.724 7.18332 10.9595C7.43132 11.1949 7.57065 11.5142 7.57065 11.8471Z" fill="#E5007A"/>
<path d="M21 7.89077C21.001 8.02543 20.974 8.15896 20.9206 8.28371C20.8672 8.40846 20.7884 8.52199 20.6887 8.61778C20.589 8.71358 20.4704 8.78978 20.3396 8.842C20.2088 8.89422 20.0685 8.92145 19.9267 8.92213H4.09389C3.85049 8.92554 3.61303 8.85065 3.42018 8.70964C3.22732 8.56864 3.09043 8.36983 3.03177 8.14556C2.97311 7.9213 2.99614 7.68479 3.09712 7.47454C3.1981 7.26428 3.37107 7.09266 3.58789 6.9876L11.1655 3.19959C11.4232 3.06856 11.711 3 12.0033 3C12.2956 3 12.5834 3.06856 12.8411 3.19959L20.4195 6.9876C20.5937 7.07365 20.7399 7.20327 20.8422 7.36245C20.9445 7.52162 20.9991 7.70431 21 7.89077Z" fill="#E5007A"/>
</svg>
