<svg width="24" height="25" viewBox="0 0 24 25" fill="none" xmlns="http://www.w3.org/2000/svg">
<path d="M21 19.7476C20.9985 20.0794 20.8591 20.3971 20.612 20.6317C20.3649 20.8663 20.0301 20.9986 19.6806 21H4.32672C3.97598 21 3.63962 20.8677 3.39161 20.6323C3.14361 20.3969 3.00428 20.0776 3.00428 19.7447C3.00428 19.4118 3.14361 19.0925 3.39161 18.8571C3.63962 18.6216 3.97598 18.4894 4.32672 18.4894H19.6775C19.8514 18.4896 20.0235 18.5223 20.1841 18.5856C20.3446 18.649 20.4905 18.7417 20.6133 18.8585C20.7361 18.9754 20.8334 19.114 20.8998 19.2666C20.9661 19.4191 21.0002 19.5826 21 19.7476Z" fill="#485F7D"/>
<path d="M19.0815 11.8475V15.4896C19.0815 15.8226 18.9422 16.1419 18.6942 16.3773C18.4462 16.6127 18.1098 16.7449 17.7591 16.7449C17.4083 16.7449 17.072 16.6127 16.824 16.3773C16.576 16.1419 16.4366 15.8226 16.4366 15.4896V11.8475C16.4366 11.5146 16.576 11.1953 16.824 10.9599C17.072 10.7244 17.4083 10.5922 17.7591 10.5922C18.1098 10.5922 18.4462 10.7244 18.6942 10.9599C18.9422 11.1953 19.0815 11.5146 19.0815 11.8475Z" fill="#485F7D"/>
<path d="M13.3292 11.8475V15.4896C13.3292 15.8226 13.1899 16.1419 12.9419 16.3773C12.6939 16.6127 12.3575 16.7449 12.0068 16.7449C11.656 16.7449 11.3197 16.6127 11.0717 16.3773C10.8237 16.1419 10.6843 15.8226 10.6843 15.4896V11.8475C10.6843 11.5146 10.8237 11.1953 11.0717 10.9599C11.3197 10.7244 11.656 10.5922 12.0068 10.5922C12.3575 10.5922 12.6939 10.7244 12.9419 10.9599C13.1899 11.1953 13.3292 11.5146 13.3292 11.8475Z" fill="#485F7D"/>
<path d="M7.57072 11.8475V15.4896C7.57072 15.8226 7.43139 16.1419 7.18339 16.3773C6.93538 16.6127 6.59902 16.7449 6.24828 16.7449C5.89755 16.7449 5.56119 16.6127 5.31318 16.3773C5.06518 16.1419 4.92585 15.8226 4.92585 15.4896V11.8475C4.92585 11.5146 5.06518 11.1953 5.31318 10.9599C5.56119 10.7244 5.89755 10.5922 6.24828 10.5922C6.59902 10.5922 6.93538 10.7244 7.18339 10.9599C7.43139 11.1953 7.57072 11.5146 7.57072 11.8475Z" fill="#485F7D"/>
<path d="M21 7.89077C21.001 8.02543 20.974 8.15896 20.9206 8.28371C20.8672 8.40846 20.7884 8.52199 20.6887 8.61778C20.589 8.71358 20.4704 8.78978 20.3396 8.842C20.2088 8.89422 20.0685 8.92145 19.9267 8.92213H4.09389C3.85049 8.92554 3.61303 8.85065 3.42018 8.70964C3.22732 8.56864 3.09043 8.36983 3.03177 8.14556C2.97311 7.9213 2.99614 7.68479 3.09712 7.47454C3.1981 7.26428 3.37107 7.09266 3.58789 6.9876L11.1655 3.19959C11.4232 3.06856 11.711 3 12.0033 3C12.2956 3 12.5834 3.06856 12.8411 3.19959L20.4195 6.9876C20.5937 7.07365 20.7399 7.20327 20.8422 7.36245C20.9445 7.52162 20.9991 7.70431 21 7.89077Z" fill="#485F7D"/>
</svg>
