<svg   viewBox="0 0 24 25" fill="none" xmlns="http://www.w3.org/2000/svg">
<path d="M4 5C4 4.72386 4.22386 4.5 4.5 4.5H10.8C11.0761 4.5 11.3 4.72386 11.3 5V11.3C11.3 11.5761 11.0761 11.8 10.8 11.8H4.5C4.22386 11.8 4 11.5761 4 11.3V5Z" fill="#485F7D"/>
<path d="M4 13.6901C4 13.4139 4.22386 13.1901 4.5 13.1901H10.8C11.0761 13.1901 11.3 13.4139 11.3 13.6901V19.9901C11.3 20.2662 11.0761 20.4901 10.8 20.4901H4.5C4.22386 20.4901 4 20.2662 4 19.9901V13.6901Z" fill="#485F7D"/>
<path d="M12.6899 5C12.6899 4.72386 12.9138 4.5 13.1899 4.5H19.4899C19.7661 4.5 19.9899 4.72386 19.9899 5V11.3C19.9899 11.5761 19.7661 11.8 19.4899 11.8H13.1899C12.9138 11.8 12.6899 11.5761 12.6899 11.3V5Z" fill="#485F7D"/>
<path d="M12.6899 13.6901C12.6899 13.4139 12.9138 13.1901 13.1899 13.1901H19.4899C19.7661 13.1901 19.9899 13.4139 19.9899 13.6901V19.9901C19.9899 20.2662 19.7661 20.4901 19.4899 20.4901H13.1899C12.9138 20.4901 12.6899 20.2662 12.6899 19.9901V13.6901Z" fill="#485F7D"/>
</svg>
