<svg width="24" height="25" viewBox="0 0 24 25" fill="none" xmlns="http://www.w3.org/2000/svg">
<path fill-rule="evenodd" clip-rule="evenodd" d="M6.76 17.74C7 17.98 7.28 18.1 7.6 18.1H18.8C19.12 18.1 19.4 17.98 19.64 17.74C19.88 17.5 20 17.22 20 16.9V5.7C20 5.38 19.88 5.1 19.64 4.86C19.4 4.62 19.12 4.5 18.8 4.5H7.6C7.28 4.5 7 4.62 6.76 4.86C6.52 5.1 6.4 5.38 6.4 5.7V16.9C6.4 17.22 6.52 17.5 6.76 17.74ZM4.36 20.14C4.6 20.38 4.88 20.5 5.2 20.5H17C17.3314 20.5 17.6 20.2314 17.6 19.9C17.6 19.5686 17.3314 19.3 17 19.3H5.2V7.5C5.2 7.16863 4.93137 6.9 4.6 6.9C4.26863 6.9 4 7.16863 4 7.5V19.3C4 19.62 4.12 19.9 4.36 20.14ZM9.2998 14.5606H17.1198L14.5798 11.1406L12.5198 13.8406L11.1598 12.1006L9.2998 14.5606Z" fill="#485F7D"/>
</svg>
