<svg   fill="none" xmlns="http://www.w3.org/2000/svg">
<path d="M8.50039 4.35012C8.50039 3.60447 9.10486 3 9.85051 3H14.3509C15.0965 3 15.701 3.60447 15.701 4.35012V5.2502C15.701 5.99584 15.0965 6.60031 14.3509 6.60031H9.85051C9.10486 6.60031 8.50039 5.99584 8.50039 5.2502V4.35012Z" fill="#485F7D"/>
<path fill-rule="evenodd" clip-rule="evenodd" d="M7.15027 4.83311C6.01806 4.89664 5.3033 5.07706 4.79088 5.58947C4 6.38035 4 7.65326 4 10.1991V15.5995C4 18.1453 4 19.4182 4.79088 20.2091C5.58176 21 6.85466 21 9.40047 21H14.8009C17.3467 21 18.6196 21 19.4105 20.2091C20.2014 19.4182 20.2014 18.1453 20.2014 15.5995V10.1991C20.2014 7.65326 20.2014 6.38035 19.4105 5.58947C18.8981 5.07706 18.1833 4.89664 17.0511 4.83311V5.2502C17.0511 6.74149 15.8422 7.95043 14.3509 7.95043H9.85051C8.35921 7.95043 7.15027 6.74149 7.15027 5.2502V4.83311ZM6.92525 10.6507C6.92525 10.2778 7.22749 9.97561 7.60031 9.97561H16.6011C16.9739 9.97561 17.2762 10.2778 17.2762 10.6507C17.2762 11.0235 16.9739 11.3257 16.6011 11.3257H7.60031C7.22749 11.3257 6.92525 11.0235 6.92525 10.6507ZM7.82533 13.8009C7.82533 13.4281 8.12757 13.1259 8.50039 13.1259H15.701C16.0738 13.1259 16.3761 13.4281 16.3761 13.8009C16.3761 14.1738 16.0738 14.476 15.701 14.476H8.50039C8.12757 14.476 7.82533 14.1738 7.82533 13.8009ZM8.72541 16.9512C8.72541 16.5784 9.02764 16.2762 9.40047 16.2762H14.8009C15.1738 16.2762 15.476 16.5784 15.476 16.9512C15.476 17.324 15.1738 17.6263 14.8009 17.6263H9.40047C9.02764 17.6263 8.72541 17.324 8.72541 16.9512Z" fill="#485F7D"/>
</svg>
