<svg width="24" height="25" viewBox="0 0 24 25" fill="none" xmlns="http://www.w3.org/2000/svg">
<path d="M12 11.5C9.31667 11.5 7.14583 11.0917 5.4875 10.275C3.82917 9.45833 3 8.53333 3 7.5C3 6.45 3.82917 5.52083 5.4875 4.7125C7.14583 3.90417 9.31667 3.5 12 3.5C14.6833 3.5 16.8542 3.90417 18.5125 4.7125C20.1708 5.52083 21 6.45 21 7.5C21 8.53333 20.1708 9.45833 18.5125 10.275C16.8542 11.0917 14.6833 11.5 12 11.5ZM12 16.5C9.56667 16.5 7.45833 16.1333 5.675 15.4C3.89167 14.6667 3 13.7833 3 12.75V10.25C3 10.9 3.3125 11.4625 3.9375 11.9375C4.5625 12.4125 5.3375 12.8042 6.2625 13.1125C7.1875 13.4208 8.17083 13.6458 9.2125 13.7875C10.2542 13.9292 11.1833 14 12 14C12.8333 14 13.7667 13.9292 14.8 13.7875C15.8333 13.6458 16.8125 13.425 17.7375 13.125C18.6625 12.825 19.4375 12.4375 20.0625 11.9625C20.6875 11.4875 21 10.9167 21 10.25V12.75C21 13.7833 20.1083 14.6667 18.325 15.4C16.5417 16.1333 14.4333 16.5 12 16.5ZM12 21.5C9.56667 21.5 7.45833 21.1333 5.675 20.4C3.89167 19.6667 3 18.7833 3 17.75V15.25C3 15.9 3.3125 16.4625 3.9375 16.9375C4.5625 17.4125 5.3375 17.8042 6.2625 18.1125C7.1875 18.4208 8.17083 18.6458 9.2125 18.7875C10.2542 18.9292 11.1833 19 12 19C12.8333 19 13.7667 18.9292 14.8 18.7875C15.8333 18.6458 16.8125 18.425 17.7375 18.125C18.6625 17.825 19.4375 17.4375 20.0625 16.9625C20.6875 16.4875 21 15.9167 21 15.25V17.75C21 18.7833 20.1083 19.6667 18.325 20.4C16.5417 21.1333 14.4333 21.5 12 21.5Z" fill="#ff007b"/>
</svg>
