<svg width="24" height="25" viewBox="0 0 24 25" fill="none" xmlns="http://www.w3.org/2000/svg">
<path d="M5.98823 5H18.0121C18.1452 4.99998 18.2764 5.03146 18.395 5.09186C18.5137 5.15227 18.6163 5.23988 18.6945 5.34754L21.9194 9.78121C21.9768 9.8601 22.005 9.95642 21.9993 10.0538C21.9936 10.1511 21.9543 10.2435 21.8882 10.3152L12.3098 20.6916C12.2703 20.7343 12.2224 20.7684 12.1691 20.7916C12.1158 20.8149 12.0583 20.827 12.0002 20.827C11.942 20.827 11.8845 20.8149 11.8312 20.7916C11.778 20.7684 11.7301 20.7343 11.6906 20.6916L2.11213 10.316C2.04579 10.2443 2.00641 10.1518 2.00072 10.0542C1.99502 9.95667 2.02337 9.86018 2.08092 9.78121L5.3058 5.34754C5.38406 5.23988 5.48669 5.15227 5.6053 5.09186C5.72391 5.03146 5.85512 4.99998 5.98823 5Z" fill="#E5007A"/>
</svg>
