<svg width="24" height="25" viewBox="0 0 24 25" fill="none" xmlns="http://www.w3.org/2000/svg">
<path d="M21.9869 18.4989V18.5024C21.9869 18.5922 21.9829 18.6837 21.9812 18.7753L21.9683 19.4999H16.5664L16.5777 18.7404C16.5777 18.6271 16.5805 18.5148 16.5816 18.4038C16.5918 17.5623 16.6013 16.7703 16.727 15.9778C16.9325 14.6939 18.1273 13.7927 19.5073 13.8754C20.7741 13.9522 21.85 15.017 21.9565 16.2967C22.0162 17.0278 22.0021 17.7424 21.9869 18.4989Z" fill="#E5007A"/>
<path d="M6.43899 11.4585C6.44437 11.7022 6.40357 11.9445 6.31895 12.1715C6.23433 12.3984 6.10758 12.6056 5.94605 12.7808C5.78451 12.956 5.5914 13.0959 5.37792 13.1923C5.16444 13.2887 4.93482 13.3397 4.70239 13.3424H4.65339C4.20283 13.3376 3.77228 13.1466 3.45529 12.8109C3.28623 12.6384 3.15145 12.4324 3.05873 12.205C2.96602 11.9775 2.9172 11.733 2.9151 11.4857C2.91322 11.2429 2.95695 11.0022 3.04381 10.7772C3.13067 10.5521 3.25896 10.3473 3.42134 10.1742C3.58372 10.0012 3.77702 9.86332 3.99021 9.7686C4.20339 9.67388 4.43228 9.62411 4.66381 9.62213C4.89534 9.62015 5.12497 9.666 5.3396 9.75707C5.55423 9.84814 5.74964 9.98263 5.91469 10.1529C6.07974 10.3232 6.21119 10.5258 6.30154 10.7493C6.39188 10.9728 6.43936 11.2128 6.44124 11.4556L6.43899 11.4585Z" fill="#E5007A"/>
<path d="M10.4907 9.43566C10.0728 9.01251 9.83221 8.43281 9.82165 7.82383C9.81109 7.21485 10.0314 6.62637 10.4343 6.18757C10.6297 5.97376 10.8637 5.80287 11.1227 5.68485C11.3816 5.56683 11.6604 5.50404 11.9428 5.50016H11.98C12.5553 5.49313 13.1101 5.72373 13.5245 6.1421C13.7281 6.35272 13.8897 6.60377 13.9997 6.88059C14.1098 7.1574 14.1662 7.45443 14.1655 7.75433V7.77913C14.1655 8.99214 13.3538 9.93527 12.2149 10.0617L11.8915 10.1715L11.7873 10.0681C11.2985 10.0205 10.8404 9.797 10.4907 9.43566Z" fill="#E5007A"/>
<path d="M7.29359 16.1199C7.37357 16.8776 7.35498 17.63 7.33527 18.4231L7.30992 19.4968H2.03705L2.01508 18.4432C1.99875 17.6542 1.97903 16.9071 2.05507 16.1524C2.18012 14.8792 3.32584 13.877 4.66306 13.8711H4.67377C6.00931 13.8711 7.16122 14.8591 7.29359 16.1199Z" fill="#E5007A"/>
<path d="M15.9795 14.4179C16.0043 15.5991 15.9986 16.7867 15.993 17.9371C15.993 18.2105 15.9902 18.4839 15.9891 18.7591L15.9862 19.4968H7.99782V18.6759C7.99782 18.2578 7.99781 17.8408 7.99386 17.4227V17.3707C7.98992 16.4571 7.98598 15.5128 8.00682 14.5851C8.044 12.8671 8.80161 11.6199 10.2599 10.8769C11.6907 10.1482 13.1327 10.3005 14.4321 11.3187C15.4168 12.0941 15.953 13.1648 15.9795 14.4179Z" fill="#E5007A"/>
<path d="M21.0405 11.4607V11.4879C21.0405 12.5272 20.2975 13.3227 19.301 13.3428H19.2644C18.8117 13.3363 18.3791 13.1458 18.0579 12.8113C17.8891 12.6393 17.7543 12.4339 17.6615 12.2071C17.5687 11.9803 17.5197 11.7364 17.5171 11.4896C17.5177 11.0055 17.6996 10.541 18.0237 10.1961C18.3477 9.85126 18.7881 9.65367 19.2498 9.64593H19.2712C19.7383 9.63553 20.1906 9.81792 20.5307 10.1538C20.6939 10.3254 20.8231 10.5293 20.9106 10.7536C20.9981 10.978 21.0422 11.2183 21.0405 11.4607Z" fill="#E5007A"/>
</svg>
