<svg   fill="none" xmlns="http://www.w3.org/2000/svg">
<path d="M18.3058 17.1478C17.9863 16.8283 17.4683 16.8283 17.1488 17.1478C16.8293 17.4673 16.8293 17.9854 17.1488 18.3048L18.3058 17.1478ZM18.7851 19.9411C19.1046 20.2606 19.6226 20.2606 19.9421 19.9411C20.2616 19.6216 20.2616 19.1036 19.9421 18.7841L18.7851 19.9411ZM17.1488 18.3048L18.7851 19.9411L19.9421 18.7841L18.3058 17.1478L17.1488 18.3048Z" fill="#485F7D"/>
<path d="M12.5614 4.69977C14.489 3.47479 15.4528 2.86229 16.1871 3.25227C16.9213 3.64225 16.9398 4.77644 16.9766 7.04481L16.9861 7.63166C16.9966 8.27626 17.0018 8.59856 17.1308 8.87788C17.2598 9.15721 17.4979 9.36193 17.9741 9.77138L18.4077 10.1441C20.0835 11.585 20.9214 12.3054 20.7568 13.1492C20.5923 13.993 19.5342 14.4014 17.418 15.218L16.8706 15.4293C16.2692 15.6614 15.9685 15.7774 15.742 15.9982C15.5155 16.219 15.3888 16.5196 15.1353 17.1208L14.9046 17.6681C14.0127 19.7835 13.5667 20.8413 12.7308 20.9728C11.8948 21.1043 11.2225 20.2225 9.87777 18.4589L9.52988 18.0026C9.14776 17.5014 8.9567 17.2508 8.68773 17.108C8.41876 16.9651 8.10233 16.9462 7.46947 16.9082L6.89331 16.8737C4.66626 16.7403 3.55273 16.6736 3.20065 15.9111C2.84858 15.1486 3.49112 14.1952 4.77619 12.2886L5.10866 11.7953C5.47384 11.2535 5.65643 10.9826 5.71672 10.6735C5.77701 10.3644 5.70817 10.0521 5.57049 9.42751L5.44514 8.85888C4.96065 6.66093 4.7184 5.56196 5.33677 4.95919C5.95513 4.35642 7.02459 4.64905 9.16351 5.23431L9.71688 5.38573C10.3247 5.55204 10.6286 5.63519 10.9348 5.58702C11.2411 5.53884 11.5149 5.36479 12.0627 5.01669L12.5614 4.69977Z" fill="#485F7D"/>
</svg>
