<svg width="20" height="21" viewBox="0 0 20 21" fill="none" xmlns="http://www.w3.org/2000/svg">
<path fill-rule="evenodd" clip-rule="evenodd" d="M12.2051 2.36919C12.2051 2.2559 12.1133 2.16406 12 2.16406H6.25641C5.01023 2.16406 4 3.17429 4 4.42047V15.9077C4 17.1538 5.01023 18.1641 6.25641 18.1641H14.4615C15.7077 18.1641 16.7179 17.1538 16.7179 15.9077V7.82319C16.7179 7.7099 16.6261 7.61806 16.5128 7.61806H12.8205C12.4806 7.61806 12.2051 7.34254 12.2051 7.00268V2.36919ZM12.8205 10.3692C13.1604 10.3692 13.4359 10.6447 13.4359 10.9846C13.4359 11.3244 13.1604 11.6 12.8205 11.6H7.89744C7.55757 11.6 7.28205 11.3244 7.28205 10.9846C7.28205 10.6447 7.55757 10.3692 7.89744 10.3692H12.8205ZM12.8205 13.6512C13.1604 13.6512 13.4359 13.9268 13.4359 14.2666C13.4359 14.6065 13.1604 14.882 12.8205 14.882H7.89744C7.55757 14.882 7.28205 14.6065 7.28205 14.2666C7.28205 13.9268 7.55757 13.6512 7.89744 13.6512H12.8205Z" fill="#485F7D"/>
<path d="M13.4359 2.63515C13.4359 2.48377 13.594 2.38765 13.7117 2.48274C13.811 2.56283 13.9001 2.65666 13.9762 2.76267L16.4486 6.2071C16.5048 6.28552 16.4439 6.38729 16.3474 6.38729H13.641C13.5277 6.38729 13.4359 6.29545 13.4359 6.18216V2.63515Z" fill="#485F7D"/>
</svg>
