<svg width="20" height="21" viewBox="0 0 20 21" fill="none" xmlns="http://www.w3.org/2000/svg">
<path fill-rule="evenodd" clip-rule="evenodd" d="M12.205 2.36919C12.205 2.2559 12.1132 2.16406 11.9999 2.16406H6.25629C5.01011 2.16406 3.99988 3.17429 3.99988 4.42047V15.9077C3.99988 17.1538 5.01011 18.1641 6.25629 18.1641H14.4614C15.7076 18.1641 16.7178 17.1538 16.7178 15.9077V7.82319C16.7178 7.7099 16.626 7.61806 16.5127 7.61806H12.8204C12.4805 7.61806 12.205 7.34254 12.205 7.00268V2.36919ZM12.8204 10.3692C13.1603 10.3692 13.4358 10.6447 13.4358 10.9846C13.4358 11.3244 13.1603 11.6 12.8204 11.6H7.89731C7.55745 11.6 7.28193 11.3244 7.28193 10.9846C7.28193 10.6447 7.55745 10.3692 7.89731 10.3692H12.8204ZM12.8204 13.6512C13.1603 13.6512 13.4358 13.9268 13.4358 14.2666C13.4358 14.6065 13.1603 14.882 12.8204 14.882H7.89731C7.55745 14.882 7.28193 14.6065 7.28193 14.2666C7.28193 13.9268 7.55745 13.6512 7.89731 13.6512H12.8204Z" fill="white"/>
<path d="M13.4358 2.63515C13.4358 2.48377 13.5938 2.38765 13.7116 2.48274C13.8108 2.56283 13.9 2.65666 13.9761 2.76267L16.4484 6.2071C16.5047 6.28552 16.4438 6.38729 16.3472 6.38729H13.6409C13.5276 6.38729 13.4358 6.29545 13.4358 6.18216V2.63515Z" fill="white"/>
</svg>
