<svg width="44" height="62" viewBox="0 0 44 62" fill="none" xmlns="http://www.w3.org/2000/svg">
<path d="M7.26125 61.4494H0.573669V43.0941C1.88381 43.0343 3.02448 42.9345 4.16515 42.9345C12.4236 42.9212 20.6755 42.9411 28.934 42.9212C33.7313 42.9079 36.8665 40.1469 36.847 36.0421C36.8274 31.9639 33.6857 29.2096 28.8688 29.1498C24.7428 29.0965 20.6104 29.1298 16.4844 29.1498C14.1053 29.1564 12.2802 28.2982 12.3649 25.6104C12.4366 23.1755 14.1444 22.2707 16.3997 22.2774C21.0731 22.2973 25.7466 22.1576 30.4136 22.3173C37.7791 22.5634 43.5541 28.7173 43.5672 36.1219C43.5802 43.5332 37.8117 49.5674 30.3223 49.727C23.8042 49.8667 17.2796 49.9266 10.7745 49.6938C7.7827 49.5873 6.96794 50.6451 7.21563 53.4925C7.43724 56.0073 7.26125 58.562 7.26125 61.456V61.4494Z" fill-opacity="0.8"/>
<path d="M43.4694 0.449219V18.7113C42.2309 18.7712 41.0903 18.8643 39.9431 18.871C31.6911 18.8843 23.4327 18.8577 15.1807 18.8909C10.3704 18.9109 7.26776 21.6851 7.31339 25.8032C7.35901 29.775 10.4095 32.5492 15.0048 32.6424C19.2415 32.7222 23.4783 32.6889 27.7151 32.6557C29.9638 32.6357 31.7237 33.454 31.7889 35.9156C31.8606 38.5434 30.1268 39.5347 27.702 39.5214C23.0286 39.4948 18.3551 39.6212 13.6946 39.4748C6.30308 39.2486 0.573656 33.1214 0.586692 25.6702C0.599728 18.4186 6.29656 12.3113 13.5447 12.1117C20.2714 11.9254 27.0111 11.952 33.7443 12.0851C36.1104 12.1316 37.1207 11.5129 36.9317 8.93826C36.7296 6.19728 36.8861 3.4297 36.8861 0.449219H43.4694V0.449219Z" fill-opacity="0.8"/>
</svg>
