<svg width="24" height="24" viewBox="0 0 24 24" fill="none" xmlns="http://www.w3.org/2000/svg">
<g id="Bookmark_fill">
<g id="Rectangle 1">
<path d="M5 9.87329C5 7.1046 5 5.72025 5.76884 4.86012C6.53769 4 7.77513 4 10.25 4H13.75C16.2249 4 17.4623 4 18.2312 4.86012C19 5.72025 19 7.1046 19 9.87329V16.5567C19 19.1833 19 20.4966 18.2612 20.8983C17.5225 21.3 16.5994 20.4886 14.7532 18.8659L14.1624 18.3465C13.1243 17.434 12.6053 16.9778 12 16.9778C11.3947 16.9778 10.8757 17.434 9.83762 18.3465L9.24678 18.8659C7.4006 20.4886 6.47751 21.3 5.73876 20.8983C5 20.4966 5 19.1833 5 16.5567V9.87329Z" fill="#407BFF"/>
<path d="M5 9.87329C5 7.1046 5 5.72025 5.76884 4.86012C6.53769 4 7.77513 4 10.25 4H13.75C16.2249 4 17.4623 4 18.2312 4.86012C19 5.72025 19 7.1046 19 9.87329V16.5567C19 19.1833 19 20.4966 18.2612 20.8983C17.5225 21.3 16.5994 20.4886 14.7532 18.8659L14.1624 18.3465C13.1243 17.434 12.6053 16.9778 12 16.9778C11.3947 16.9778 10.8757 17.434 9.83762 18.3465L9.24678 18.8659C7.4006 20.4886 6.47751 21.3 5.73876 20.8983C5 20.4966 5 19.1833 5 16.5567V9.87329Z" fill="#9E9E9E"/>
</g>
</g>
</svg>
