<svg width="24" height="24" viewBox="0 0 24 24" fill="none" xmlns="http://www.w3.org/2000/svg">
<g id="monetization_on_FILL0_wght400_GRAD0_opsz24 2">
<g id="Subtract">
<path fill-rule="evenodd" clip-rule="evenodd" d="M12 22C17.5228 22 22 17.5228 22 12C22 6.47715 17.5228 2 12 2C6.47715 2 2 6.47715 2 12C2 17.5228 6.47715 22 12 22ZM11.9749 19C11.4916 19 11.0999 18.6082 11.0999 18.125V17.7C10.3165 17.5167 9.67902 17.1792 9.18735 16.6875C8.86117 16.3613 8.59184 15.9673 8.37936 15.5054C8.18851 15.0905 8.42501 14.6219 8.84988 14.4545C9.33318 14.2641 9.85967 14.5427 10.1284 14.9873C10.2859 15.2478 10.4722 15.4645 10.6874 15.6375C11.1124 15.9792 11.5999 16.15 12.1499 16.15C12.6999 16.15 13.1707 16.0208 13.5624 15.7625C13.954 15.5042 14.1499 15.1 14.1499 14.55C14.1499 14.0667 13.9457 13.675 13.5374 13.375C13.129 13.075 12.3999 12.7333 11.3499 12.35C10.3665 12 9.64569 11.5833 9.18735 11.1C8.72902 10.6167 8.49985 9.98333 8.49985 9.2C8.49985 8.51667 8.73319 7.9 9.19985 7.35C9.66652 6.8 10.3165 6.43333 11.1499 6.25V5.875C11.1499 5.39175 11.5416 5 12.0249 5C12.5081 5 12.8999 5.39175 12.8999 5.875V6.25C13.4999 6.3 14.0457 6.54167 14.5374 6.975C14.8111 7.2163 15.0371 7.48086 15.2153 7.76868C15.4551 8.15601 15.2249 8.63202 14.8028 8.80348C14.339 8.99192 13.8229 8.73171 13.483 8.36411C13.4259 8.30231 13.3648 8.24344 13.2999 8.1875C12.9999 7.92917 12.5832 7.8 12.0499 7.8C11.4665 7.8 11.0207 7.925 10.7124 8.175C10.404 8.425 10.2499 8.76667 10.2499 9.2C10.2499 9.63333 10.4415 9.975 10.8249 10.225C11.2082 10.475 11.8999 10.7667 12.8999 11.1C14.0999 11.5333 14.8999 12.0417 15.2999 12.625C15.6999 13.2083 15.8999 13.85 15.8999 14.55C15.8999 15.5333 15.5999 16.275 14.9999 16.775C14.3999 17.275 13.6832 17.6 12.8499 17.75V18.125C12.8499 18.6082 12.4581 19 11.9749 19Z" fill="#FFBF1A"/>
<path fill-rule="evenodd" clip-rule="evenodd" d="M12 22C17.5228 22 22 17.5228 22 12C22 6.47715 17.5228 2 12 2C6.47715 2 2 6.47715 2 12C2 17.5228 6.47715 22 12 22ZM11.9749 19C11.4916 19 11.0999 18.6082 11.0999 18.125V17.7C10.3165 17.5167 9.67902 17.1792 9.18735 16.6875C8.86117 16.3613 8.59184 15.9673 8.37936 15.5054C8.18851 15.0905 8.42501 14.6219 8.84988 14.4545C9.33318 14.2641 9.85967 14.5427 10.1284 14.9873C10.2859 15.2478 10.4722 15.4645 10.6874 15.6375C11.1124 15.9792 11.5999 16.15 12.1499 16.15C12.6999 16.15 13.1707 16.0208 13.5624 15.7625C13.954 15.5042 14.1499 15.1 14.1499 14.55C14.1499 14.0667 13.9457 13.675 13.5374 13.375C13.129 13.075 12.3999 12.7333 11.3499 12.35C10.3665 12 9.64569 11.5833 9.18735 11.1C8.72902 10.6167 8.49985 9.98333 8.49985 9.2C8.49985 8.51667 8.73319 7.9 9.19985 7.35C9.66652 6.8 10.3165 6.43333 11.1499 6.25V5.875C11.1499 5.39175 11.5416 5 12.0249 5C12.5081 5 12.8999 5.39175 12.8999 5.875V6.25C13.4999 6.3 14.0457 6.54167 14.5374 6.975C14.8111 7.2163 15.0371 7.48086 15.2153 7.76868C15.4551 8.15601 15.2249 8.63202 14.8028 8.80348C14.339 8.99192 13.8229 8.73171 13.483 8.36411C13.4259 8.30231 13.3648 8.24344 13.2999 8.1875C12.9999 7.92917 12.5832 7.8 12.0499 7.8C11.4665 7.8 11.0207 7.925 10.7124 8.175C10.404 8.425 10.2499 8.76667 10.2499 9.2C10.2499 9.63333 10.4415 9.975 10.8249 10.225C11.2082 10.475 11.8999 10.7667 12.8999 11.1C14.0999 11.5333 14.8999 12.0417 15.2999 12.625C15.6999 13.2083 15.8999 13.85 15.8999 14.55C15.8999 15.5333 15.5999 16.275 14.9999 16.775C14.3999 17.275 13.6832 17.6 12.8499 17.75V18.125C12.8499 18.6082 12.4581 19 11.9749 19Z" fill="#485F7D"/>
</g>
</g>
</svg>
